<?xml version="1.0" encoding="UTF-8"?>
<svg id="Layer_1" data-name="Layer 1" xmlns="http://www.w3.org/2000/svg" viewBox="0 0 500 500">
  <defs>
    <style>
      .cls-1 {
        fill: #fafafa;
      }
    </style>
  </defs>
  <path class="cls-1" d="M328.58,414.79c-5.14,7-12.02,8.7-19.56,6.16l-58.41-19.66-58.64,19.66c-7.57,2.54-14.33.77-19.37-5.88l-14.43-29.21-14.19-28.87-30.14-14.84-27.93-13.78c-6.63-4.99-8.42-11.81-5.88-19.35l19.66-58.41-19.66-58.64c-2.53-7.56-.78-14.35,5.88-19.36l27.92-13.78,30.15-14.84,14.84-30.15,13.78-27.93c4.99-6.63,11.81-8.42,19.35-5.88l58.41,19.66,58.64-19.66c7.56-2.54,14.34-.77,19.37,5.88l14.76,29.92,13.85,28.15,28.15,13.85,29.92,14.76c6.63,5.01,8.42,11.81,5.88,19.36l-19.66,58.41,19.66,58.64c2.54,7.56.77,14.34-5.88,19.37l-29.92,14.76-28.16,13.85-13.84,28.15-14.58,29.63Z"/>
</svg>