<?xml version="1.0" encoding="UTF-8"?>
<svg id="Layer_1" data-name="Layer 1" xmlns="http://www.w3.org/2000/svg" viewBox="0 0 500 500">
  <defs>
    <style>
      .cls-1 {
        fill: #fafafa;
      }
    </style>
  </defs>
  <path class="cls-1" d="M251.63,445.65c-6.86-3.06-10-8.32-15.03-12.17s-8.8-8.48-13.59-12.58c-8.29-7.09-15.62-14.79-23.04-22.92-11.91-13.05-22.88-26.33-30.45-42.39-3.38-7.16-6.62-14.64-6.93-22.45l-.32-8.18c-1.09-27.66,13.93-49.82,33.43-68.95-16.33-10.69-31.88-32.08-33.46-51.02-2.05-24.48,4.72-42.73,17.13-63.67,11.47-19.36,24.79-36.49,39.61-53.31l27.17-30.83c1.05-1.19,2.2-2.12,3.41-2.26,1.6-.19,3.13.8,4.23,2.25,2.68,3.54,6.23,5.75,9.35,8.65l10.44,9.72c24.01,22.35,60.16,57.57,64.11,91.6.28,2.43,0,5.22.11,7.79,1.11,27.4-14.74,51.09-34.05,68.68,18.12,14.23,33.17,31.9,34.31,55.27.69,14.23-1.33,27.19-7.25,39.99-2.84,6.14-5.48,12.15-8.95,18.09-11.2,19.15-24.21,36.37-38.86,53.02l-31.38,35.66Z"/>
</svg>