<?xml version="1.0" encoding="UTF-8"?>
<svg id="Layer_1" data-name="Layer 1" xmlns="http://www.w3.org/2000/svg" viewBox="0 0 500 500">
  <defs>
    <style>
      .cls-1 {
        fill: #fafafa;
      }
    </style>
  </defs>
  <path class="cls-1" d="M288.98,341.27l-14-1.03c-4.73-.35-9.24,0-14.01-1.12-3.95-.92-8.13.95-11.97-1.04-3.84,1.98-8.02.17-12.04.97-5.76,1.15-11.2.82-16.94,1.21l-14.08.96-15.93,1.08-14.08.93-15.93,1.07-14.08.93-15.93,1.06-14.08.92c-5.4.35-10.46.94-16.03.95-3.01,0-18.4,2.59-20-.59-.56-1.12-2.06-3.88-.82-5.71l92.88-136.76,21.25-43.01,34.62-70.17,17.89-36.33c.85-1.73,6.51-2.84,7.49-.86l18.58,37.4,16.37,33.71,17,34.98,14.5,29.49c2.13,4.33,3.23,8.9,6.05,13.13l63.54,95.18,29.65,44.38c1.08,1.61-.15,4.44-.8,5.55-1.69,2.92-15.33.93-19.11.65l-13.01-.97-14.02-.98-14-.99-14-1-14-1-14-1-12.99-1.01-14.02-1Z"/>
</svg>