<?xml version="1.0" encoding="UTF-8"?>
<svg id="Layer_1" data-name="Layer 1" xmlns="http://www.w3.org/2000/svg" viewBox="0 0 500 500">
  <defs>
    <style>
      .cls-1 {
        fill: #fafafa;
      }
    </style>
  </defs>
  <path class="cls-1" d="M296.51,414.55c-4.27,6.53-13.84,7.17-20.15,3.19l-25.68-16.18-26.05,16.17c-5.43,3.37-14.88,4.26-18.78-1.61l-19.51-29.39-25.38,2.53c-6.07.61-11.13,1.38-15.97-2.63-4.29-3.55-5.72-8.29-6.42-14.4l-3.14-27.52-30.45-11.58c-8.58-3.26-10.17-12.48-7.49-20.54l9.43-28.33c-1.89-1.32-2.35-3.06-3.74-4.47l-17.86-18.1c-6.11-6.19-6.12-16.23,0-22.41l17.42-17.57c1.56-1.58,2.13-3.49,4.18-5.01l-9.42-28.32c-2.68-8.06-1.09-17.28,7.49-20.54l30.45-11.58,3.14-27.52c.7-6.11,2.13-10.85,6.42-14.4,4.84-4.01,9.91-3.24,15.97-2.63l25.41,2.55,19.04-28.96c3.98-6.05,13.5-5.65,19.24-2.04l25.71,16.16,26.01-16.19c6.32-3.93,15.89-3.38,20.15,3.2l17.88,27.6c8.5-.11,16.9-1.56,25.7-2.28,5.28-.43,9.89-1.84,14.72,1.73,3.33,2.46,6.52,6.28,7.15,11.6l3.65,31.11,30.52,11.67c6.44,2.46,10.51,10.09,8.42,16.69l-10.23,32.25c1.49,1.14,2.19,3.03,3.52,4.38l17.36,17.61c6.11,6.2,7.23,15.96.9,22.39l-17.8,18.09c-1.51,1.54-2.37,3.53-3.98,4.91l10.23,32.23c2.09,6.6-1.98,14.23-8.42,16.69l-30.54,11.67-3.26,28.31c-.67,5.85-2.41,10.23-6.32,13.54-4.83,4.09-9.95,3.23-15.95,2.63l-25.37-2.54-18.19,27.82Z"/>
</svg>