<?xml version="1.0" encoding="UTF-8"?>
<svg id="Layer_1" data-name="Layer 1" xmlns="http://www.w3.org/2000/svg" viewBox="0 0 500 500">
  <defs>
    <style>
      .cls-1 {
        fill: #fafafa;
      }
    </style>
  </defs>
  <path class="cls-1" d="M341.89,392.27c-2.9,6.81-9.19,9.33-16.02,8.95l-75.87-9.38-75.87,9.37c-7.19.52-13.4-2.62-16.22-9.25l-30.06-70.78-47.11-62.87c-2.53-5.1-2.53-10.53,0-15.63l47.11-62.87,30.06-70.78c2.81-6.62,9.03-9.77,16.22-9.25l75.87,9.37,75.88-9.38c6.78-.4,13.12,2.24,15.84,8.6l30.44,71.43,47.1,62.88c2.53,5.1,2.53,10.53,0,15.63l-47.11,62.88-30.26,71.07Z"/>
</svg>