<?xml version="1.0" encoding="UTF-8"?>
<svg id="Layer_1" data-name="Layer 1" xmlns="http://www.w3.org/2000/svg" viewBox="0 0 500 500">
  <defs>
    <style>
      .cls-1 {
        fill: #fafafa;
      }
    </style>
  </defs>
  <path class="cls-1" d="M296.28,410.74c-4.6,8.71-14.77,12.64-23.05,6.88l-22.37-15.55-22.11,15.57c-7.84,5.52-18.04,1.99-22.4-5.95-4.01-7.33-8.79-13.91-13.17-20.95-10.56,1.44-19.88,5.51-29.86,5.93-6.73.28-13.04-4.91-14.11-10.7l-5.19-27.99-27.99-5.19c-6.13-1.14-11.33-8.03-10.72-14.86.88-9.87,4.4-18.81,5.99-29.12-6.92-4.15-13.22-8.98-20.35-12.74-8.66-4.56-12.18-15.03-6.22-23.47l15.25-21.59-15.61-22.26c-5.77-8.22-1.73-18.43,6.57-22.82,7.14-3.78,13.48-8.57,20.32-12.75-1.42-10.57-5.53-19.91-5.92-29.84-.28-7.2,5.34-13.26,11.47-14.37l27.26-4.93,4.49-25.63c1.2-6.83,6.69-13.34,14.85-13.07,9.82.33,19.24,4.52,29.78,5.9,4.18-6.83,8.97-13.18,12.75-20.32,4.4-8.3,14.6-12.34,22.83-6.57l22.24,15.6,22.24-15.6c8.22-5.77,18.43-1.73,22.82,6.57,3.78,7.14,8.58,13.47,12.75,20.33,10.59-1.44,19.88-5.51,29.87-5.93,6.72-.29,13.04,4.92,14.1,10.7l5.18,28.03,25.61,4.49c6.83,1.2,13.34,6.69,13.07,14.85-.33,9.82-4.52,19.24-5.9,29.78,6.82,4.17,13.19,8.99,20.31,12.74,8.66,4.57,12.19,15.03,6.22,23.47l-15.28,21.61,15.33,21.64c2.95,4.17,3.45,8.79,2.1,13.93-1.1,4.17-4.55,7.23-9.09,9.86-6.63,3.84-13.09,8.2-19.56,12.42,1.33,10.47,5.55,19.95,5.88,29.74.27,8.16-6.24,13.65-13.06,14.85l-25.66,4.48-4.48,25.66c-1.19,6.82-6.69,13.34-14.84,13.06-9.82-.33-19.24-4.52-29.78-5.9-4.04,6.59-8.71,12.74-12.54,20Z"/>
</svg>