<?xml version="1.0" encoding="UTF-8"?>
<svg id="Layer_1" data-name="Layer 1" xmlns="http://www.w3.org/2000/svg" viewBox="0 0 500 500">
  <defs>
    <style>
      .cls-1 {
        fill: #fafafa;
      }
    </style>
  </defs>
  <path class="cls-1" d="M305.65,413.21c-3.65,5.71-10.92,10.74-17.72,7.32l-37.28-18.74-37.6,18.76c-6.44,3.21-13.74-1.3-17.05-6.46l-21.21-33.01c-6.23-.47-12.09.56-18.22-.61-6.72-1.28-13.56.13-20.28-.65-20.64-2.39-13.81-25.16-15.75-35.38-1.17-6.14-.16-11.98-.61-18.23l-32.44-20.78c-5.37-3.44-10.43-10.71-7.02-17.49l18.74-37.29-18.73-37.58c-3.57-7.17,1.97-14.33,7.6-17.92l31.85-20.35c.44-6.27-.57-12.09.6-18.24,1.28-6.72-.13-13.56.65-20.28,2.39-20.64,25.16-13.81,35.37-15.75,6.18-1.17,11.92-.16,18.28-.61l20.2-31.79c5.57-8.76,14.89-10.14,24.1-5.22l26.64,14.23c4.01,2.14,5.41,2.14,9.43,0l26.64-14.23c9.21-4.92,18.53-3.54,24.1,5.22l20.2,31.79c6.36.45,12.1-.57,18.28.61,10.22,1.94,32.99-4.89,35.37,15.75.78,6.72-.63,13.56.65,20.28,1.17,6.14.16,11.98.61,18.23l32.44,20.78c5.37,3.44,10.43,10.71,7.02,17.49l-18.74,37.29,18.74,37.59c3.39,6.81-1.63,14.04-7.02,17.49l-32.43,20.77c-.45,6.25.56,12.09-.61,18.23-1.28,6.72.13,13.56-.65,20.28-2.39,20.64-25.16,13.81-35.38,15.75-6.14,1.17-11.98.16-18.23.61l-20.55,32.14Z"/>
</svg>