<?xml version="1.0" encoding="UTF-8"?>
<svg id="Layer_1" data-name="Layer 1" xmlns="http://www.w3.org/2000/svg" viewBox="0 0 500 500">
  <defs>
    <style>
      .cls-1 {
        fill: #fafafa;
      }
    </style>
  </defs>
  <path class="cls-1" d="M257.27,407.4c-5.09-.62-9.46-.63-14.08-.06l-63.06,7.75c-6.06.74-11.59-1.49-14.74-6.57l-37.9-61c-3.65-5.87-9.72-9.69-14.6-14.51l-36.6-36.23c-3.46-3.43-3.56-8.07-3.32-12.92l24.74-68.13,6.73-67.15c.66-6.59,2.54-12,8.7-15.7l43.81-14.88,25.43-8.67,61.6-39.34c2.91-1.86,9.15-1.86,12.06,0l61.6,39.34,25.43,8.67,43.81,14.88c6.16,3.7,8.04,9.11,8.7,15.7l6.73,67.15,24.74,68.13c.24,4.86.15,9.5-3.32,12.92l-36.6,36.23c-4.88,4.83-10.95,8.64-14.6,14.51l-37.9,61c-3.16,5.08-8.69,7.31-14.74,6.57l-62.61-7.69Z"/>
</svg>