<?xml version="1.0" encoding="UTF-8"?>
<svg id="Layer_1" data-name="Layer 1" xmlns="http://www.w3.org/2000/svg" viewBox="0 0 500 500">
  <defs>
    <style>
      .cls-1 {
        fill: #fafafa;
      }
    </style>
  </defs>
  <path class="cls-1" d="M251.01,401.96l-24.73,16.35c-6.15,4.06-15.46,2.13-19.5-4.09l-16.38-25.2-25.1,4.39c-5.33.93-9.2.8-13.97-2.1-3.7-2.25-5.88-6.77-6.69-12.07l-4.1-26.56-28.51-7.66c-7.33-1.97-11.97-9.59-9.97-17.13l7.65-28.94-21.42-17.19c-7.99-6.41-8.2-16.54-1.82-24.28l16.72-20.28-12.66-24.87c-3.66-7.18-2.37-16.58,5.1-20.62,8.62-4.66,17.38-8.18,25.88-13.46,2-11.77-2.04-19.64-.22-33.12,1.12-8.3,9.71-12.64,17.63-12.2,4.71.26,8.71-.65,13.17-.77l11.71-.3,9.14-25.01c2.41-6.59,9.14-13.23,16.78-11.48,10.53,2.42,19.83,7.68,30.16,11l22.03-21.55c4.27-4.18,13.21-4.63,17.6-.37l22.59,21.91c10.32-3.36,19.59-8.49,30.18-11.03,6.46-1.55,13.59,3.63,15.78,9.41l10.45,27.52c6.06-.76,11.07-.2,16.48.61,4.52.68,9.28-.51,13.46.43,21.07,4.74,9.17,29.81,11.68,45.22,9.22,5.16,18.68,8.59,27.29,14.05,7.26,4.6,6.93,14.28,3.38,21.05l-12.28,23.35,16.56,20.07c5.71,6.92,7.78,17.03.11,23.25l-22.84,18.53,7.58,29.05c1.98,7.57-2.62,15.16-9.98,17.14l-28.54,7.67-4.08,26.56c-.76,4.92-2.66,9.36-6.06,11.63-4.83,3.22-9.07,3.51-14.58,2.53l-25.44-4.5-14.37,23c-4.72,7.55-14.09,11.21-21.89,6.03l-23.99-15.97Z"/>
</svg>