<?xml version="1.0" encoding="UTF-8"?>
<svg id="Layer_1" data-name="Layer 1" xmlns="http://www.w3.org/2000/svg" viewBox="0 0 500 500">
  <defs>
    <style>
      .cls-1 {
        fill: #fafafa;
      }
    </style>
  </defs>
  <path class="cls-1" d="M279.52,417.87l-29.07-16.7-28.15,16.3c-6.02,3.49-15.55,4.56-19.93-2.03l-20.7-31.08c-1.2-1.81-4.34.64-5.89.59-10.9-.37-21.8.86-32.51-.39-8.51-1-10.92-10.36-11.53-17.43l-.96-11.2c-.64-7.38-.73-12.99-2.36-19.31-10.44-5.33-20.99-9.2-30.88-15.08-7.02-4.18-9.48-12.18-6.45-19.43l13.12-31.44-19.2-25.72c-5.59-7.49-5.77-17.08,1.73-23.3l25.83-21.42-5.42-35.43c-1.14-7.46,4.6-13.98,11.65-16.02l33.81-7.15,12.23-34.74c2.25-6.4,9.82-9.45,16.11-7.76l33.94,9.14,5.7-4.75,19.23-18.67c5.82-5.66,15.5-5.66,21.33,0l19.23,18.67,5.71,4.75,33.74-9.23c9.73-1.7,15.66,4.3,18.47,12.78l9.86,29.8,34.03,7.28c6.57,1.4,12.66,8.07,11.63,14.98l-4.95,33.05c-.52,3.45,1.27,4.85,3.53,6.71l21.81,18.02c7.56,6.25,7.36,15.87,1.77,23.3l-19.04,25.34,13.53,33.95c3.26,8.18-2.2,15.44-9.41,18.84l-28.55,13.47c-1.38,5.95-1.83,12.79-2.32,19.38l-.92,12.21c-.51,6.76-3.48,15.53-11.54,16.43-9.12,1.02-28.66.42-38.5-.29l-17.47,27.39c-4.94,7.75-13.48,11.23-22.25,6.2Z"/>
</svg>