<?xml version="1.0" encoding="UTF-8"?>
<svg id="Layer_1" data-name="Layer 1" xmlns="http://www.w3.org/2000/svg" viewBox="0 0 500 500">
  <defs>
    <style>
      .cls-1 {
        fill: #fafafa;
      }
    </style>
  </defs>
  <path class="cls-1" d="M313.32,411.68c-4.63,8.22-12.6,13.21-21.35,9.23l-41.33-18.81-41.69,18.75c-6.98,3.14-14.05.81-18.82-5.19l-24.14-42.39-46.65-11.45c-7.34-1.8-10.07-9.22-9.54-15.69l.98-12.11,1.02-10.99.93-10.14c.46-5.04.15-9.62,1.68-14.85l-29.42-34.97c-6.56-7.79-6.56-16.34,0-24.13l29.03-34.47-4.2-47.48c-.65-7.3,2.47-15.16,10.15-17.05l46.25-11.37,23.89-42.24c4.8-5.96,11.85-8.3,18.82-5.16l41.66,18.74,41.51-18.78c6.42-2.91,14.84-1.21,18.57,5.31l24.11,42.1,46.89,11.66c7.63,1.9,10.1,9.7,9.45,16.79l-4.35,47.11,29.24,34.83c6.83,8.14,6.32,16.66-.43,24.69l-28.82,34.29,4.36,47.12c.65,7.03-1.83,14.91-9.44,16.78l-46.73,11.45-21.64,38.43Z"/>
</svg>