<?xml version="1.0" encoding="UTF-8"?>
<svg id="Layer_1" data-name="Layer 1" xmlns="http://www.w3.org/2000/svg" viewBox="0 0 500 500">
  <defs>
    <style>
      .cls-1 {
        fill: #fafafa;
      }
    </style>
  </defs>
  <path class="cls-1" d="M249.5,377.03l-82.38,16.78c-13.51,2.75-25.47-6.6-28.59-19.46l-9.64-85.27-41.08-72.68c-7.82-13.84-.69-29.33,13.14-35.58l74.94-33.87c3.36-4.53,7.47-8.76,11.17-12.82l9.58-10.52,9.99-11.01,9.98-11.02,10.39-11.43c6.43-7.08,13.26-12.48,22.5-12.48s16.07,5.4,22.5,12.48l10.39,11.43,9.98,11.02,9.99,11.01,9.58,10.52c3.7,4.07,7.81,8.3,11.17,12.82l74.94,33.87c13.83,6.25,20.96,21.74,13.14,35.58l-41.08,72.68-9.64,85.27c-3.13,12.85-15.09,22.21-28.59,19.46l-82.38-16.78Z"/>
</svg>