<?xml version="1.0" encoding="UTF-8"?>
<svg id="Layer_1" data-name="Layer 1" xmlns="http://www.w3.org/2000/svg" viewBox="0 0 500 500">
  <defs>
    <style>
      .cls-1 {
        fill: #fafafa;
      }
    </style>
  </defs>
  <path class="cls-1" d="M250.42,401.53l-25.6,12.24c-4.96,2.37-9.74,5.4-14.83,6.86-7.27,2.08-13.77-1.23-17.44-7.2l-21.54-34.99-43.39-6.07c-10.92-1.53-12.35-13.45-11.14-22.38,1.6-11.8-.16-22.97.58-34.75l-28.46-23.85c-3.62-3.04-7.32-5.85-8.19-9.58-1.33-5.71-.36-10.29,2.62-14.81l22.36-33.8-12.89-42.61c-2.45-8.09,4.68-14.56,11.55-17.55l35.63-15.49,10.82-39.99c2.04-7.54,8.36-12.86,16.62-11.54l41.82,6.67c6.38-5.99,12.07-11.06,18.69-17.04l9.42-8.51c4.07-3.67,7.33-6.29,12.44-6.41,5.71-.14,9.15,2.51,13.47,6.41l9.42,8.51c6.64,6,12.29,11.06,18.67,17.06l41.88-6.69c7.67-1.23,14.26,3.6,16.26,10.89l11.22,40.81,40.25,17.93c4.16,1.85,8.35,9.53,7.02,13.98l-13.05,43.64,22.67,34.28c5.82,8.8,2.22,17.32-5.3,23.56l-29.07,24.1c.68,12.62-.88,24.22.57,36.79.92,7.97-1.48,19.08-11.01,20.41l-43.48,6.06-21.49,34.93c-5.32,8.65-14.44,9.38-23.01,5.12l-34.09-16.96Z"/>
</svg>