<?xml version="1.0" encoding="UTF-8"?>
<svg id="Layer_1" data-name="Layer 1" xmlns="http://www.w3.org/2000/svg" viewBox="0 0 500 500">
  <defs>
    <style>
      .cls-1 {
        fill: #fafafa;
      }
    </style>
  </defs>
  <path class="cls-1" d="M250.5,401.39l-49.69,19.29c-6.83,1.55-12.49-.42-16.71-6.04l-26.2-47.38-49.55-17.5c-6.92-2.44-10.18-8.44-9.54-15.98l9.97-53.43-26.15-43.96c-4.58-7.13-3.49-16.39,3.37-21.4l39.76-32.55,8.1-51.52c1.35-8.6,8.45-14.35,17.1-13.97,7.33.29,14.31-.45,21.48.56,9.54,1.34,18.7-.08,28.81.64l35.9-31.88c4.22-3.75,7.92-6.5,13.36-6.49s9.14,2.73,13.35,6.48l35.56,31.71c9.8-.32,19.36.8,29.14-.47,7.2-.93,14.15-.31,21.49-.54,8.65-.4,15.75,5.37,17.1,13.96l8.1,51.52,39.76,32.55c6.86,5.02,7.95,14.28,3.37,21.4l-26.15,43.96,9.97,53.43c.64,7.54-2.63,13.54-9.54,15.98l-49.55,17.5-26.2,47.38c-4.22,5.62-9.88,7.59-16.71,6.04l-49.69-19.29Z"/>
</svg>