<?xml version="1.0" encoding="UTF-8"?>
<svg id="Layer_1" data-name="Layer 1" xmlns="http://www.w3.org/2000/svg" viewBox="0 0 408 612">
  <defs>
    <style>
      .cls-1 {
        fill: #fdfdfd;
      }
    </style>
  </defs>
  <path class="cls-1" d="M214,268c-.5.12.35,2.15.01,2.52s-1.01.68-2.47.46c-.97-.15.3-1.41.46-2.99h2Z"/>
  <path class="cls-1" d="M240,293c-.06.83.13,1.8-.12,2.59-.33,1.04-1.8.11-2.89.26l-15.16,2.09c-3.35.46-6.07.69-9.82.06-.14-1.39,2.1-.54,2.64-1.07,2.58-2.54,4.94-1.16,7.42-1.52,2.93-.42,4.83-1.93,8.27-.86,2.88.89,6.29-1.93,9.68-1.56Z"/>
  <path class="cls-1" d="M212,268c-1.33,0-2.51.69-3.16,1.49-.98,1.19-1.94,14.15-.06,18.03,2.13-3.47,3.77-7.32,3.91-11.45.06-1.71-1.61-3.46,1.3-4.09.29,4.78-.3,8.93-1.79,13.64,2.05,1.19,5.36-.05,6.51-2.91,1.77-4.4,3.45-9.54,1.61-14.01-1.11-1.32-4.27-.48-6.33-.7,1.1-.26,1.08-2.53,1.85-3.1,3.34-2.5,8.2-2.39,11.76-1.04-3.38,4.51-9.1,17.62-3.02,19.98.19.08,6.19-3.58,7.5-8.7l1.72,8.53c1.33-.35,4.3-.03,5.64-1.28,1.9-1.97,2.72-6.54,2.32-9.05-1.14-.62-4.81.22-3.57-2.06.43-.8,2.54-.19,2.75-.79.14-.4.26-2.06-.19-2.3-1.33-.71-3.56,1.08-3.89-2,11.87,2.72,4.41,4.8,11.2,7.5,2.64,1.05,4.14-.31,6.97-2.1,1.83,5.51-.81,10.61-4.77,13.88-.79-3.81,1.69-5.38,3.19-8.88-2.19-.54-4.59-1.98-6.83-2.05-3.3-.11-5.52,9.42-4.95,10.22s4.93,5.2,6.03,3.73c.61-.82.66-2.38,2.91-2.62.37,2.16-2.57,3.77-2.31,6.13.22,1.98,2.49,4.19,3.71,5.33.8-.3,1.84-1.3,2.55-1.41,1.35-.2,1.29,1.09,1.99,2.07s-.25,1.4-1.08,2.65c-2.18,3.26,9.86,7.08,7,11.9-4.76-3.7-13.91-12.9-15.84-15.85-2.47-3.77-3.69-2.61-6.65-3.69-4.07-1.48-7.74-3.74-10.33-6.72-4.41,1.27-8.21,3.83-12.81,4.67.13-3.45,3.14-1.84,4.19-3.73-4.49-.41-8.2,2.02-11.94,3.76-.18,2.62.3,4.33-.99,6.57,1.06,1.05,2.55.24,3.88.47.12,1.16-.2,1.74.15,3.21,4.36-1.25,8.05,1.24,12.09,1.47,7.82.46,14.79,2.39,21.01,7.26,3.19,2.5,7.45,3.62,10.88,5.94,1,.68.99,2.37,2.36,2.26.81-.06,1.73-2.07,2.75-1.99,1.82.15,4.8,2.04,5.57,3.64.71,1.48.49,3.79-.54,4.1-3.68,1.14-8.96-1.56-13.48-2.46-1.62-5.18-14.65-13.44-16.14-12.31-.6.46-.5,1.53-1.21,2.99-3.36-4.78-8.1-7.34-14.32-7.22-2.48.05-5.26-2.08-7.54-.51-.54.37-.26,1.73-1.06,1.68-.59-.04-1.51,0-1.75-.52-.16-.34.07-1.27-.68-1.44-1.27-.29-2.4-.34-2.6.24-.1.29,0,.7-.14,1.52-2.36.57-4.62-.19-7.27.25-1.82.3-4.21,2.88-2.61,4.33,1.84,1.67,3.89,2.68,4.44,4.31,1.46,4.36-7.24,19.35-10.63,21.72-1.78,1.24-1.19,4.64-1.66,6.18-1.72,1.37-2.99-1.25-3.87-1.85-2.07-1.41.61-2.72.71-4.22.23-3.31-7.13-3.31-6.47-6.06.18-.73,1.44-.83,1.88-.07.17.3.35,1.12,1.14,1.36,1.48-.6.48-1.93-.03-2.35s-3.17-.14-3.41-.85c-4.63-13.7.4-18.06-4.73-20.76-1.35-.71-1.23-4.12-.13-5.06,10.14,5.87,5.38,8.42,18.86,5.68-1.29-2.85-3.5-.45-4.58-2.17,2.85-1.07,6.05.84,8.24-1.05,1.79-1.54,1.61-4.48,2.4-6.71,6.07-17.06,2.28-12.71-.95-20.34-1.28-3.02-6.46-5.17-5.57-9.28.41-1.89,4.94-2.88,2.39-6.04-.79,1.75-1.79,2.63-3.08,1.17-3.59-4.02,2.27-3.81-.27-13.3-.52-1.94.23-6.62-2.54-7.26-3.11-.72-3.31,4.21-4.16,6.49.31-2.23-3.37-12.02-2.95-11.96-.49-.07-1.83-.2-2.39.29.48,1.01.73,2.08.98,3.17s-.8,1.87-1.87,1.44c-.48-2.56.05-5.33-2.34-7.58-4.71,2.57,9.06,19.56,10.87,20.48-.72,2.79-.37,6.09-.99,8.94l-2.15,9.87-3.46,3.36c1.93,1.01,3.63-.13,6,.16-2.32,4.85-11.56-1.15-12.02,2.87-.55,4.73,13.12,3.4,12.98,4.57-4.8.79-9,.75-13.22-.34.58,5.2,8.37,3.7,12.24,5.21-3.53,1.29-7.16.69-11.01-.7.73,4.84,4.89,4.29,9.1,5.61-2.41,1.41-4.97.31-7.94.68,1.31,6.36,11.85,2.63,14.82,4.48-9.92,2.46-8.7-1-15.7,1.53-1.01-2.12-3.52-3.47-3.97-5.33.4-3.76.56-7.41-1.28-11.45-4.23,3.03,4.76,12.31-3.75,10.3.67,7.62,4.98,4.99,5.47,11.52.09,1.21,1.52,2.01.67,2.88s-.22,2.38-1.95,2.05c-.98-6.93-9.22-.01-11.18-3.14,1.29-2.12,4.32-.85,4.93-3.81-4.75-.09-8.65.02-12.41-1.65l7.19-.79c-10.78-6.43-12.22,1.37-15.07-3.26,3.94-1.42,8.69-1.45,12.89.86,2.16,1.19,7.83,2.29,8.4.02,1.89-7.49-11.2-5.23-14.94-10.3,6.78-3.47,3.91,1.8,13.08,3.74,4.03-4.86-8.55-6.28-4.38-21.36-2.36.93-5.85.08-8.24,1.7-3.78,2.56,4.42,10.98,2.76,14.19-3.57-4.18-4.08-13.44-7.12-13.32-1.31.05-3.55.42-4.17,2.59-.78,2.7.21,6.86,2.33,8.92,1.8,1.75,4.83.48,6.51,2.34-8.87-1.77-14.11,12.45-15.72,12.16-.43-.08-.73-1.33-.34-1.96l6.76-11.02c1.91-3.12-1.5-7.59-1.13-11.54-3.48,2.08-5.68,1.69-7.88,2.49-2.78,1,1.72,8.15-.31,9.07-.57.26-2.65.11-2.37-.52.61-1.39,1.52-3.18-.11-3.63-1.6,1.39-4.45,3.24-4.73,5.07l2.69,7.19c-2.08-.94-2.68-2.77-3.18-5.11-1.41.15-1.73,1.24-2.47,2.13-1.03-2.1.27-3.16.84-5.77-2.63.11-5.67,2.35-5.15,5.48.47,2.81,3.1,4.22,2.85,7.36-2.38-2.08-3.02-4.75-4.5-7.73-3.9,2.66-1.5,5.08-.82,7.73,1.01,3.97,1.79,7.72,5.47,9.92,6.29-6.45,10.07-4.79,10.43-9.62,1.18.73,2.06.39,3.64.82-1.9,2.41-3.47,5.38-5.13,7.77-.85.24-2.52-1.2-3.3-.84-.82.37-1.24,1.57-1.95,2.53l-1.85,2.51c-.54.73-1.64-.48-3.12.01,1.4,3.86,4.59,5.58,7.83,8.92-6.42,3.17-10.6-1.77-17.69-2.64,3.61-1.63,6.1.26,10.37.6l-3.66-7.23c-2.11,3.01-4.03,1.71-6.81,1.05-1.65.22-.2,2.71.37,4.87-7.18-2.17-15.08,2.04-15.16-5.65-.17-1.08,11.65,2.06,7.9-1.46-.37-.35-.76-.69-1.58-1.09s-.29-1.4.2-1.64c1.37-.7,3.06,4.29,8.36,4.08l.4-5.18c1.65.89,1.41,2.95,4.19,3.61,1.8-2.28-6.86-14.41-7.09-14.4-1.68.03-3.61-.53-4.25.33,1.8,4.57,6.69,5.54,6.87,11.04,2.35,3.73-15.77-17.7-11.48-11.78-2.51-3.46-5.41-4-9.63-2.49-.54.19-1.99-1.48-2.78-.77-.4.36.52,1.23-.05,2.5-4.45-1.83-8.67-6.7-8.68-6.7-.55-.08-1.59.59-2.37.42-1.71-.38-2.73-1.97-4.1-1.18s-3.45.09-2.87,2.28c2.05.5,3.1,1.25,4.01,1.77,1.21.69,1.63,2.77.1,3.67-2.31-2.1-4.91-3.63-7.29-5.02-1.64-.96-1.88-3.26-3.44-3.27-1.71,0-3.18.73-4.69.86-4.05.33-6.78,1.38-7.54,5.71-.3,1.7.93,2.1,2.94,3.02-2.28,1.34-5.28.41-6.34-2.26-.6-1.52-1.76-2.37-2.04-4.71l14.2-3.58c1.33-.34,2.2-2.2,3.38-1.73,2.56,1.03,5.58,3.99,6.04,3.58l1.78-1.56,11.84-.27c2.21-.05,20.89-3.55,21.06,2.13-4.56.19-7.95-2.08-11.88-.74-.87.49.75,2.65,1.57,2.56l3.09-.35c3.31-.37,6.52,2.36,10.07.68,2.07.92,3.55,2.38,5.76,2.79l9.45-10.92c1.5-1.73,3.61-2.08,4.74-3.14,1.53-1.44,2.18-2.82,4.45-3.88,1.28-.6,1.83-3.49,3.72-3.09-2.78,5.49,9.15.55,11.55-.37,5.55-2.13,11.46-1.24,16.61-4.38-5.8-.51-11.08,0-16.17.74-3.05-3.34,8.75-2.53,7.86-2.32,6.02-1.42,11.5-2.03,18.13-1.53-.9-13.77,7.71-18.53-1.46-32.68-1.62-2.5-5.07-4.57-3.8-8.17,4.02,6.1,8.85,9.04,15.22,9.09,1.78,2.09,2.15,5.05,4.63,7.21,2.34-3.66,1.09-6.69,1.9-10.19.28-1.2-2.39-1.79-1.6-3.11.72-1.2-.02-2.82,2-3.32,3.1,12.5-2.74,9.89,3.59,17.67,1.37,1.68.45,5.29,4.33,6.2-2.38,1.71-3.86,1.66-3.42,3.18s1.27,4.39,3.17,2.5c.12-.12,1.93-7.86,2.45-8.06,1.16-.45,2.46.08,3.46-1.84-2.38-1.23-4.9-.37-7-2.87,2.06-1.81,4.21.61,6.18-2.03-2.51-1.1-4.45-.93-5.49-2.39-1.14-1.59-1.84-3.23-.69-5.38l1.34,2.9c-.64-1.38,8.61,2.62,11.57-1.34,1.77-2.36,4.19-3.87,6.1-6.01,2.43-2.73,2.83-6.75,5.77-9.59-.06-.94-1.93-.99-2.71-.99,2.27-.01-12.63,10.39-15.02,11.66-2.01,1.07-4.99,0-6.18,2.61-1.43-4.07,1.38-6.06,3.68-8.08-.19,2.77-2.2,4.11.06,5.28,4.96-4.63,8.29-10.98,14.08-13.97,2.79-1.44,5.46-2.03,7.84-4.48,1.68-1.74,5.61.85,7.19-.35s1.46-4.07,3.51-4.63c1.73,2.5,3.39,3.79,5.85,6.08-7.96,5.61-11.08,5.46-16.7,11.46-.51.22-1.96-.67-2.29-.3-3.49,3.85,2.75,2.86-5.63,8.76-4.03,2.84-6.19,8.04-9.11,11.8,1.17,2.16,2.41,3.19,3.1,4.87-1.06,1.95-4.02,1.86-4.83,3.1-.19,3.95,3.64,7.27,4.47,10.34.95,3.5,1.32,6.17,4.44,7.9ZM201.58,268.56c1.55-6.05,1.82-8.94-1.4-11.83-2.46,4.46-1.41,9.21,1.4,11.83ZM171.45,280.1c1.15.9,1.7-1.02,1.68-1.74-.03-1.05-.46-2.22-1.73-2.77-1.94-.83-1.03-2.82-1.54-4.76-.41-1.59-3.52-.74-5.09-.65-1.79.1-7.76,10.82.72,17.25,1.75-4.03.93-10.64,5.04-10.45.52.02,1.74,0,1.12,1.05-.18.31-1.01,1.44-.2,2.07ZM192.56,313.47c.91-2.91-2.77-2.52-4.15-2.49-2.32.05-1.43,2.91-1.3,4.93.07,1.11.84,1.76,1.74,2.09,3.04,1.12-.63-3.07,1.04-4.52.44-.38,2.3,1.12,2.66,0ZM187.82,327.88c1.68.2,4.93-.12,5.61-2.31,1.91-6.16,3.75-5.82,2.18-7.49-.37-.39-.79-1.39-1.54-.36l-4.52,6.24c-1.29-1.12-2.15-1.07-2.93-1.87-.54-.55.35-1.8-.01-2.75-.79-2.08-3.31-1.61-4.16-.38-1.46,2.12,1.16,8.41,5.38,8.92Z"/>
  <path class="cls-1" d="M146,269c-4.43,1.32-7.89,3.87-12,4,1.92-3.19,6.34-4.99,9.57-5.51.52-.08.65,1.58.97,1.51.34-.08,1.06.04,1.46,0Z"/>
  <path class="cls-1" d="M263.76,303.04c5.84-2.41,1.52-10.28,6.62-14.54,2.49,5.89-.3,11.96-4.81,16.7,1.72,1.62,3.96.87,6.16.66.64-2-.1-3.26.62-4.8,1.79,2.95,2.55.34,3.08-.5,1.22-1.92.23-3.37-1.97-4.58,1.29-1.58,2.18.12,3.07.14,1.34.03,1.23,1.6,1.76,2.91,2.7-1.16,1.44-3.43.36-6.61,1.65-.63,1.82,1.65,2.41,1.11,2.58-2.41,2.25-2.83,1.14-6.22-.27-.83,1.16-1.12,1.9-2.17l1.4-1.99c.23-.33,1.2.9,1.63,1.2,1.41.97-2.74,4.42-2.75,5.15,0,.31,3.45,9.23.77,6.09-.21-.24-.42-1.03-.88-1.03-1.54.01-2.51,1.39-2.9,2.42-.59,1.54.14,3.25.76,5.25-.04,2.25-1.37,2.07-1.22-.47-1.14-1.91-2.67.46-3.35,1.39-.95,1.28-.11,3.42.93,3.64.85-1.07,2-2.65,3.43-1.39.3.26-.45,1.26-.65,1.59-.44.71.72,1.08,1.28,1.07,1.43,0,.94-.96,1.34-2.07,2.3-6.55,5.79-13.05,9.02-19.04-1.21-2.1-1.79-3.42-.57-5.13,1.42-1.99,2.97-2.53,5.2-3.3,4.99-1.71,8.91-5.47,14.7-5.42-2.61,3.18-6.99,2.89-9.74,5.49-.84,1.46-1.16,4.35-3.51,4.5-3.82.25-3.29,3.27-4.54,5.65-1.55,2.97-5.09,5.02-2.67,8.92-1.95.37-2.85,1.08-2.81,1.88.08,1.51-.61,2.98,1.12,3.93,1.5-1.32,1.17-2.82,2.16-4.5,1.87.92,1.53,1.71,1.11,2.89-.53,1.48-1.77,1.68-2.77,2.91-.53.65-.41,2.38.22,4.06,1.54-3.47,3.62-1.5,5.49-2.03,3.16-.9,5.86-5.96,10.5-3.75-6.95,4.14-13.75,8.33-21.18,9.28-3.06.06-6.61-4.6-9.88-3.43-1.62.58-.24,2.65.73,3.19,1.09.61,2.43.9,4.17,1.68-1.36,1.86-3.88,1.74-5.52.76-1.9-1.14-2.01-3.97-2.25-6.69-3.02.19-2.56,3.12-4.58,4.31-.12-6.75-2.99-3.95-9.79-9.24,1.95-2.15,3.6.84,5.26.16Z"/>
  <path class="cls-1" d="M141.13,315.27l11.16-6.07c1.18-.64,2.63.59,2.87,2.22-4.15,1.59-8.01,4.11-10.75,7.86-1.91-.62.67-3.15-1.02-3.35-.31-.04-10.31,4.71-8.48,11.31-7.09,1.73-14.47,2.86-21.95.56-21.16-6.48-6.25,2.7-27.66-8.95-3.04-1.65-37.17-23.02-29.26-19.38-.41-.19,2.16-1,2.36-.58,1.59,3.43,7.46,3.73,9.99,5.78,6.18,4.99,12.31,8.4,19.19,11.85,4.31,2.16,6.91,4.71,12.18,5.26,7.54.79,15.08,4.69,22.94,3.77,1.75-.2,3.02.98,4.25,1.04,2.64.13,3.68-3.75,5.07-5.53l9.97-12.77c2.82,2.69-1.32,3.03-.85,6.98Z"/>
  <path class="cls-1" d="M166.19,211.9c4.21,6.39,22.66,13.18,15.15,16.11-1.09.42-1.58-1.43-1.96-2.33-3.03-7.12-8.69,3.04-15.04-6.66-1.14,1.63,1.27,2.22.42,4.39-2.57-1.77-5.56-3.1-7.67-5.52-1.09-1.26,1.06-3.22,2-4.02-2.74-3.74-7.31-3.8-11.45-5.87-1.36-.68,1.39-3.44,2.99-3.35s2.13-1.1,2.87.32c.65,1.24-.14,2.04-1.68,3.97,7.4-.35,6.46,3.58,12.23,6.07-.1-2.46-1.81-3.41-3.06-5.58,2.27-1.58,3.84.41,5.19,2.46Z"/>
  <path class="cls-1" d="M77.88,97.18c-3.58-.69,3.78,7.69.6,6.8l-2.74-.77c-.55-.15-1.94,5.8-4.16,3.61-2.58-2.54,1.39-4.38,1.9-6.14,1.66-5.73-.44-11.83.76-17.59,1.93-9.22-3.36-10.54-.63-12.4.38-.26,1.51.31,1.62,1.02.64,3.75,4.12,5.26,5.74,8.29,1.39,2.59-4,2.16-4.47,3.42-1.19,3.18-.25,9.47,1.85,11.91,1.18,1.37,3.98.58,4.82,2.03.64,1.11,1.69,3.68-.15,4.36-1.76-.58-2.13-3.98-5.14-4.56Z"/>
  <path class="cls-1" d="M81.68,135.36c-9.94-1.38-10.06,14.21-15.33,11.03-2.5-1.51-5.26-5.28-2.16-6.32l4.12,4.52c2.79-.95,2.51-5.1,2.28-7.84-3.08.87-4.43,2.41-6.42,2.06.88-3.98,3.9-4.07,7.34-4.04,1.06-3.42.19-6.44.58-10.02,3.99.71,2.03,4.45,2.35,6.86.27,2.02,4.13,1.56,5.63,1.3,2.11-.36,2.87-2.23,4.21-5.12.49,1.69,3.77,1.62,4.29,2.74,1.4,3.02-2.15,5.83-5.05,7.34-.86-.26-1.13-1.86-1.84-2.5Z"/>
  <path class="cls-1" d="M97.38,132.58c-.37,10.71,7.22,14.7,4.9,23.84-9.38-.32-12.04-20.38-9.38-24.83,1.69-2.81,4.11-4.91,6.89-5.9,1.01,4.29-3.16,3.85-4.4,5.54-2.94,3.98-.47,21.41,5.93,20.98-1.31-3.58-2.67-6.01-3.16-9.41-.53-3.28-4.26-6.49-.79-10.22Z"/>
  <path class="cls-1" d="M271.24,284.21l-3.54.59c-.78.13-1.4-2.74-2.87-3.09-2.35,2.49-1.68,6.9-3.67,9.67-1.37,1.56-3.2,0-1.61-1.45,1.46-3.18,2.64-6.49,2.38-9.81-.12-1.49-2.4-1.66-2.9-2.61,1.78-.64,1.64-2.9,2.87-3.43,1.72-.74,3.6,1.08,3.6,1.87l.02,3.53c0,.62,18.26,9.05,10.06,11.54-1.29-1.94-1.76-7.24-4.34-6.81Z"/>
  <path class="cls-1" d="M298.66,315.85c-.19.23-14.92,7.89-13.97,3.92,4.13-3.17,9.36-3.65,13.6-6.46-1.85,1.23,6.31-5.71,8.2-4.36.36.26.77,1,.52,1.45-1.85,3.19-3.63-.47-8.35,5.45Z"/>
  <path class="cls-1" d="M109.28,129.69c2.11,2.49,2.3,5.74,1.07,9.01-2.14.1-3.74-1.67-4.92-2.78-1.63-1.55-.84-3.51-.31-6.13.28-1.36,3.23-1.18,4.15-.1Z"/>
  <path class="cls-1" d="M99.69,53.81c2.79,1.92,2.98,6.66,2.76,10.54l-7.43,1.35c1.2-2.59,1.83-15.08.96-14.21,4.19-4.23,0,10.13,3.57,10.43,1.76.65,1.39-2.39,1.62-3.47.38-1.73-2.54-1.64-1.48-4.65Z"/>
  <path class="cls-1" d="M312.25,306.31c-.51-1.91,1.64-3.89.01-4.29-1.91.02-3.1,1.89-5.29.59,1.37-2.55,7.98-3.53,10.93-2.9,1.04.22,1.86,2.19.79,3-1.81,1.38-3.67,1.99-6.45,3.59Z"/>
  <path class="cls-1" d="M166.33,63.09c-.82-1.59.3-3.26-.88-4.04-.86-.57-2.2.8-3.5.94.62-5.1,3.06-.77,7.67-10.07,2.08.93-2.68,11.56-3.29,13.17Z"/>
  <path class="cls-1" d="M340.47,282.62c-9.38,13.35-10.04,7.41-9.07,6.53,3.21-2.95,6.79-5.72,7.21-10.54,1.83.8,2.53,3.05,1.86,4.01Z"/>
  <path class="cls-1" d="M107.49,103.23l-2.49-9.03c2.04,0,3.33.99,4.04.35,2.06-1.89-.06-10.51,2.98-6.04-.6-.88.39,8.83-4.29,9.37-.03,2.06,1.99,3.33-.24,5.35Z"/>
  <path class="cls-1" d="M140.97,99.96c-1.07-.02-1.36-1.58-1.83-1.54l-2.75.25c-.78.07-.44-3.25-.04-4.64.33-1.15,1.97-.35,3.4-.75,1.55-.43,3.02-2.84,4.86-.03-3.14.9-4.29,2.56-3.64,6.71Z"/>
  <path class="cls-1" d="M278.28,87.11c2.22.99-.82,5.89-2.77,5.32l-5.59-1.62c1.14-2.12.1-4.39,2.39-6.47.73,2.61.42,5.28,3.16,5.58.85.09,1.06-3.14,2.8-2.82Z"/>
  <path class="cls-1" d="M234.8,270.4c-2.13.36-2.2,2.6-3.39,4.66-.76-2.78-.66-6.75,1.36-8.98.41-.45,2.81-.18,2.93.28.34,1.31-1.49.57,1.31,3.16.45.42-.31,1.35-.76,1.47-.33.08-.65-.22-1.45-.6Z"/>
  <path class="cls-1" d="M143.8,308.33c-1.23-1.95-1.93-3.26-3.84-4,7.81-2.18,1.65-2.09,12.13-.89-2.98,1.25-5.85.82-8.3,4.89Z"/>
  <path class="cls-1" d="M132.76,131.25c-2.24.35-1.64,4.43-4.8,3.69,1.29-1.74,1.54-4.39,3.3-5.55s4.02-.17,4.67,1.18c.7,1.45,1.51,3.33.59,5.42-1.15-1.2-1.24-5.13-3.77-4.74Z"/>
  <path class="cls-1" d="M136.72,60.88c-2.16-1.78-3.01-.06-5.81,1.55.74-4.39,1.72-7.52,3.67-10.76.71,3.59.15,5.91,2.14,9.2Z"/>
  <path class="cls-1" d="M97.92,27.51c-1.57.42-2.7,1.25-4.19,2.76-1.14-2.71-1.6-6.49.59-9.49,1.59,1.96.96,4.15,3.6,6.73Z"/>
  <path class="cls-1" d="M64.66,296.46c-3.27,1.1-6.91-.32-9.16-3.9,3.64-1.28,7.1.79,9.16,3.9Z"/>
  <path class="cls-1" d="M349.69,272.06c1.16.82-1.82,4.32-9.54-2.85,2.99-.46,6.17.48,9.54,2.85Z"/>
  <path class="cls-1" d="M325.03,272.2c5.6-2.48-18.06,9.67-8.92,5.8-.53.23-2.26.12-1.93-.6,1.88-4.16,6.56-5.25,10.86-5.2Z"/>
  <path class="cls-1" d="M91.84,96.83c-1.84,3.3-.4,6.76-3.32,8.61-1.53-3.46.27-5.99,1.25-9.15.36-2.18,2.96-1.61,2.07.54Z"/>
  <path class="cls-1" d="M242.64,314.57c-.48,1.66-1.97,4.07-3.2,4.08-1.52-.14-1.59-2.21-1.5-3.11.11-1.12-.03-2.26,1.54-2.53.99-.17,3.56.2,3.16,1.57Z"/>
  <path class="cls-1" d="M125.16,134.19c1.4-.29,1.17,2.56-.07,3.31-.95.58-1.74,2.16-3.01,1.1-1.11-.93-1.39-2.31-2.12-3.87-.95-2-1.89.63-3.7,1.62-.04-3.06.79-5.3,1.36-8.04,2.74.8,2.06,6.06,5.16,7.7.61.32.7-1.48,2.39-1.83Z"/>
  <path class="cls-1" d="M254.76,269c-6.08-2.81-10.7-4.48-16.92-5.51,6.28-.94,12.5.98,16.92,5.51Z"/>
  <path class="cls-1" d="M125.69,58.11c.54,1.31.75,3.62-.39,3.81-2.23.38-4.01.3-4.57-1.14-.51-1.29-1.38-2.94-.24-4.83.88,1.9,1.37,3.81,3.13,5.1,1.06-1.05.72-1.97,2.07-2.95Z"/>
  <path class="cls-1" d="M248.87,305.5c-3.47.07-6.16-3.74-6.83-7.52,1.71,3.14,5.28,3.02,6.83,7.52Z"/>
  <path class="cls-1" d="M152.76,295.83c-3.75.28-5.84,1.93-8.89.8.33-.39,11.49-5.03,8.89-.8Z"/>
  <path class="cls-1" d="M230.44,133.97c-1.98.09-1.98-1.82-3.11-1.89-1.02-.06-.92,1.81-2.33,1.93.16-2.37,1.3-3.58,1.21-6.12,2,1.71,3.79,3.17,4.23,6.08Z"/>
  <path class="cls-1" d="M270.7,317.15c-2.63.84-5.42-.97-7.11-3.8,2.53-.19,4.72.62,7.11,3.8Z"/>
  <path class="cls-1" d="M199.02,131.47c2.78,2.98-6.6.16-8.35,3.84-1.09-3.04,1.75-2.95,1.74-5.33.64.62,1.11,1.11,1.69,1.53,2.23,1.63,3.25-1.83,4.92-.04Z"/>
  <path class="cls-1" d="M103.19,69.27c-2.57,2.54-1.83,4.96-2.56,7.85-1.79,1.11.31-14.34,2.56-7.85Z"/>
  <path class="cls-1" d="M81.53,301.06c-1.96-.57-3.85-1.52-6.13-3.01,1.78-3.35,5.06,1.91,6.13,3.01Z"/>
  <path class="cls-1" d="M258.92,294.09c.32,1.27-3.89,1.69-3.98-.11-.06-1.28,3.45-1.95,3.98.11Z"/>
  <path class="cls-1" d="M316.87,283.5c1.44-1.06,2.35-.05,2.11.88-.12.49-.84,1.28-1.51,1.53-1.06.39-2.15-1.27-.6-2.41Z"/>
  <path class="cls-1" d="M257.77,312.73c.56,1.82-1.22,1.45-1.84.83-.49-.49-1.35-1.91-.68-2.25.53-.27,2.33.78,2.53,1.42Z"/>
  <path class="cls-1" d="M139.55,57.2c.66-.27.78,2.6-.07,2.82-.7.18-1.34-.04-1.49-.54-.24-.8.26-1.75,1.56-2.27Z"/>
  <path class="cls-1" d="M145.42,98.98c-.71-1.43-.71-3.02-.04-5.05,1.05,1.07.93,2.43.04,5.05Z"/>
  <circle class="cls-1" cx="105" cy="66" r="1.11"/>
  <circle class="cls-1" cx="174" cy="314" r="1.11"/>
  <circle class="cls-1" cx="309" cy="308" r="1.11"/>
  <circle class="cls-1" cx="101" cy="307" r="1.11"/>
  <path class="cls-1" d="M73.36,121.16c.11-.08,2.22,3.09,1.24,2.64s-1.57-.82-2.12-.91c-.93-.15,0-1.1.88-1.73Z"/>
  <path class="cls-1" d="M260.31,271.91c1.05.57.61,1.1-.55,1.23-2.32-.16-2.03-1.36.55-1.23Z"/>
  <path class="cls-1" d="M257.31,269.91c1.05.57.61,1.1-.55,1.23-2.32-.16-2.03-1.36.55-1.23Z"/>
  <circle class="cls-1" cx="274" cy="292.5" r=".63"/>
  <circle class="cls-1" cx="323.5" cy="278" r=".63"/>
  <circle class="cls-1" cx="135.5" cy="289" r=".63"/>
</svg>