<?xml version="1.0" encoding="UTF-8"?>
<svg id="Layer_1" data-name="Layer 1" xmlns="http://www.w3.org/2000/svg" viewBox="0 0 350 350">
  <defs>
    <style>
      .cls-1 {
        fill: #fefefe;
      }
    </style>
  </defs>
  <path class="cls-1" d="M114.28,236.18c6.09-2.92,11.68-4.39,18.11-6.57,4.9,10.56,11.74,18.91,19.81,27.29s19.12,14.29,30.49,18.37l21.32,7.67c15.88,5.71,31.39,11.21,48.23,11.77l16.63.55c5.33.18,9.95,1.11,15.27-.05,4.49-.98,9.17.36,13.7-.34-13.72-25.68-28.92-49.45-58.13-59.42.82-9.3,4.96-10.65,6.79-20.11,3.89-3.17,22.45,10.8,27.18,13.89,7.07,4.61,28.85,28.65,34.56,36.54l24.29,33.56,5.34,7.77c1.95,2.84,4.49,4.92,4.07,9.04l-76.42-.68c-24.4-.22-68.3-12.25-89.85-23.21-24.52-12.47-46.97-30.44-61.4-56.1Z"/>
  <path class="cls-1" d="M170.71,292.86c-24.03,13.05-65.72,22.77-91.76,22.89l-69.84.33c-1.07,0-1.81-1.23-2.13-1.67-.5-.68.82-1.4,1.34-2.14l26.03-36.83,5.25-6.9c3.29-4.32,6.71-8.54,10.28-12.64l8.4-9.67c3.21-3.69,7.13-6.87,10.76-10.23,9.53-8.82,19.61-15.98,31.6-21.34,22.15-9.92,29.48-8.99,51.49-16.75,1.99,1.81,18.75,13.37,18.85,12.63-.06.48.42,1.92-.25,2.25-39.95,19.42-78.16,17.95-103.54,56.51-5.52,8.39-10.99,16.42-15.09,25.63,4.56.66,9.3-.66,13.76.32,5.03,1.11,9.24.2,14.27.04l16.65-.53c19.19-.61,37.05-7.06,55.16-14.03l18.78,12.15Z"/>
  <path class="cls-1" d="M176.8,185.92c24.18-17.97,31.06-65.1,7.74-82.35-8.95-6.62-19.07-2.97-24.98,5.09-2.75,3.75-5.33,8.08-6.25,12.65l-22.63,8.21c4.11-29.49,23-61.36,37.56-86.26,2.05-3.5,3.54-6.66,7.16-10.15,19.65,32.76,46.62,73.79,45.95,112.09-.18,10.35-2.13,20.3-7.14,28.94-4.78,8.26-9.9,16.15-17.71,21.2l-19.72-9.42Z"/>
  <path class="cls-1" d="M198.07,278.2c-6.84-1.87-12.78-3.24-19.09-7.3,12.63-7.13,22.44-16.86,30.37-27.75,15.31-21.01,26.06-56.64,12.51-81.39,1.34-8,2.34-15.39,2.33-24.44,33.38,25.56,28.25,72.39,7.76,104.49-5.33,8.36-10.68,15.74-17.96,22.22l-15.93,14.17Z"/>
  <path class="cls-1" d="M167.72,139.48c-22.54,1.8-40.18,13.07-44.8,36.57-1.79,9.13-1.16,18.32.3,28.07-6.59,1.54-11.9,3.69-18.63,6.39-3.36-5.45-2.96-26.94-2.31-32.4,3.75-31.13,30.14-53.12,60.99-55.78,9.5-.82,22.32-.56,31.05,1.15,1.06-2.92,4.08,22.29,1.45,18.31l-12.6-2.14c-5.42-.92-10.15-.6-15.45-.17Z"/>
  <path class="cls-1" d="M216.09,226.67c-13.93-4.19-26.81-9.11-39.48-15.18-8.77-4.2-24.06-14.98-29.86-22.29-6.51-8.2-12.48-16.78-14.78-27.2-.8-3.65,1.35-4.64,3.59-6.52,4.67-3.92,8.87-8.32,15.96-9.76,6.05,42.17,35.4,50.12,71.87,59.85-1.46,7.69-3.49,14.42-7.31,21.1Z"/>
</svg>