<?xml version="1.0" encoding="UTF-8"?>
<svg id="Layer_1" data-name="Layer 1" xmlns="http://www.w3.org/2000/svg" viewBox="0 0 350 350">
  <defs>
    <style>
      .cls-1 {
        fill: #fefefe;
      }
    </style>
  </defs>
  <path class="cls-1" d="M216.68,188.34c5.67-19.57,4.06-38.6-2.82-57.29-6.95-18.91-18.93-34.59-33.62-48.28-1.45-1.35-2.69-5.11-5.46-4.7-16.31,14.41-32.12,34.41-38.97,55.68l-18.04,3.48c1.04-6.07,9.61-24.64,12.27-29.18l27.71-47.23,17-27.9c.95-1.56,2.27,1.41,2.7,2.14l21.32,35.96,12,20.28c6.79,11.48,12.78,22.66,17.96,35.04,9.92,23.68,14.84,53.62,5.52,77.73-3.38,1.28-6.12-2.49-7.95-4.25s-10.5-8.49-9.63-11.49Z"/>
  <path class="cls-1" d="M123.65,282.67c6.29,4.24,11.28,8.28,17.21,13.54-23.94,13.03-67.99,16.73-94.45,18.27l-17.88,1.03c-6.62.38-13.81.1-20.24.49-1.19-2.03.3-3.95,1.28-5.46,12.25-18.81,22.48-38.74,39.11-55.09,18.63-18.31,40.49-32.7,64.46-45.23,1.96,6.4,4.35,10.95,7.54,17.13-17.75,7.71-52.23,30.07-63.16,44.29-5.65,7.35-11.99,13.92-16.8,22.89,6.57,1.47,13.38.13,20.18-.33l15.02-1c16.39-1.09,31.79-4.43,47.72-10.54Z"/>
  <path class="cls-1" d="M178.78,277.48c1.74-3.32,12.33-12.05,15.42-13.61,5.15,4.53,11.14,6.68,17.52,9.56,26.62,12.05,54.97,18.55,84.26,20.78,5.04.38,9.62,1.47,13.74.57-8.42-13.83-19.72-28.16-32.05-37.43l-18.57-13.96c3.77-5.45,6.21-9.52,8.72-15.09,33.64,21.51,52.91,47.34,71.96,80.86,1.04,1.84,3.39,4.65,1.97,6.4-4.34,1.68-9.23-.36-13.7-.42-47.48-.68-106.85-13.7-149.27-37.65Z"/>
  <path class="cls-1" d="M114.43,158.43c-19.89,11.12-18.52,35.03-13.25,54.95l-17.46,11.33c-8.05-20.42-8.53-43.3,1.6-62.56,13.42-25.5,56.27-27.74,81.61-27.16-.23,27.44-.85,57.46-24.15,76.41-2.34-8.43-5.12-10.04-7.09-19.53,6.88-12.66,10.57-26.19,12.61-41.27-12.12-.1-23.5,2.04-33.87,7.83Z"/>
  <path class="cls-1" d="M228.34,277.18c-6.51-.93-11.71-3.56-16.96-6.94,9.24-8.53,16.81-16.52,23.36-26.59,14.5-22.31,28.82-60.83,6.05-82.51l-3.92-19.58c27.69,5.78,38.6,35.4,35.67,59.91-3.54,29.58-22.76,55.15-44.2,75.72Z"/>
  <path class="cls-1" d="M170.57,248.43c3.22,3.03-12.78,12.21-15.55,13.89-30.15-23.11-50.19-58.64-44.01-97.39.69-4.34,15.59-9.87,20.15-9.94-5.42,28.44,8.42,64.24,29.1,83.73l10.3,9.71Z"/>
  <path class="cls-1" d="M202.01,151.38c7.09,35.86,10.6,46.18,44.32,62.94-1.93,6.49-4.39,11.82-7.06,18.24-13.73-7.67-26.44-15.04-37.3-25.49-2.58-2.49-5.02-6-7.08-8.85-7.34-10.12-9.13-22.52-10.55-34.53-.5-4.22-.04-8.02-.89-12.12-1.13-5.49-.12-10.78-.48-16.6l20.97.19c3.08.03,5.76,1.59,9.54.58,1.32,5.55,3.16,10.3,3.65,16.49-5.48-1.44-10.36-1.73-15.12-.85Z"/>
  <path class="cls-1" d="M188.93,285.92c6.43,2.42,12.53,4.34,18.98,8.22-10.86,7.33-21.15,13.6-32.88,18.12-19.1-7.72-35.24-19.38-50.66-32.54-1.85-1.58-3.01-4-4.73-5.19-4.54-3.14-21.83-23.08-25-29.43,1.89-3.35,5.85-3.92,8.69-5.83,11.69-7.85,5.08-.72,25.18,20.08l8.84,9.15c3.15,3.26,32.57,25.52,38.61,24.44,4.51-.89,7.8-5.32,12.97-7Z"/>
  <path class="cls-1" d="M162.52,284.6c-6.67-4.11-11.48-7.73-17.28-12.69,20.62-13.54,39.46-26.62,53.06-46.59,1.66-2.44,4.04-4.13,4.82-7.22.48-1.9,1.97-2.93,3.41-3.18,1.9-.33,2.84,1.06,4.26,2.32,3.8,3.38,8.37,5.45,12.65,8.8-2.69,6.79-7.64,11.71-12.43,16.98-14.01,16.13-29.98,29.32-48.49,41.58Z"/>
</svg>