<?xml version="1.0" encoding="UTF-8"?>
<svg id="Layer_1" data-name="Layer 1" xmlns="http://www.w3.org/2000/svg" viewBox="0 0 350 350">
  <defs>
    <style>
      .cls-1 {
        fill: #fefefe;
      }
    </style>
  </defs>
  <path class="cls-1" d="M167.66,286.5c-13.12-6.55-29.93-17.1-40.55-26.56-2.91-2.59-16.26-14.4-15.13-17.41.37-.99,19.31-7.69,23.35-8.77,5.7,7.61,11.6,14.78,19.25,20.61,35.44,26.99,86.33,37.86,129.74,41.23,3.95.31,25.49,1.44,26.52-1.04-11.93-14.5-24.46-27.6-40.31-36.97l-18.28-10.81c-3.44-2.03-7.75-2.48-10.6-5.57,4.95-6.74,9.24-13.42,11.15-21.26,8.88.08,36.59,20.78,42.17,26.13,2.43,2.33,4.27,4.72,7.24,6.78,2.39,1.66,3.16,5.53,6.18,6.7,2.61,1.01,3.15,3.43,4.68,5.39l10.06,12.9c8.35,10.71,14.69,22.33,20.51,35.11-58.54,11.13-124.02-.53-176-26.46Z"/>
  <path class="cls-1" d="M38.17,294.62c1.72,2.41,21.87,1.26,26.52.96,28.81-1.85,56.75-7.16,84.16-16.88,6.97,4.31,13.2,8.12,20.43,10.87.14,2.36-.91,2.04-2.15,2.57-49.79,21.34-108.26,31.07-162,20.59,14.96-30.12,34.26-55.75,59.47-75.06,13.59-10.41,27.69-18.87,43.79-24.23l26.66-8.88c10.06,6.01,20.02,10.94,31.17,14.26,1.41.42,1.99.19,2.1,2.81l-16.74,4.93c-34.68,10.22-63.22,19.34-90.87,44.07-9.26,8.28-14.6,13.38-22.54,23.97Z"/>
  <path class="cls-1" d="M176.14,127.4c13.85-18.86,13.4-34.36-1.68-51.35-2.33,1.72-3.09,4.79-5.44,6.99-10.67.97-20.49,2.81-30.61,8.74-2.82-8.17,11.21-29.88,16.06-36.33,4.29-5.7,8.84-11.03,13.63-16.33,1.98-2.19,4.43-3.4,5.87-6.67,28.22,28.23,55.78,65.41,24.43,101.97-1.42,1.66-3.67,6.17-6.34,5.48-6.35-1.64-10.72-7.21-15.93-12.5Z"/>
  <path class="cls-1" d="M136.14,152.76c-9.57,4.82-17.21,10.51-25.35,18.13-1.86-5.83-3.54-18.06-3.42-22.66.94-38.34,33.5-65.8,71.28-63.12,6.08,9.5,7,19.93,2.5,30.11-5.53-.35-10.42-.53-15.53.35-18.12,3.14-30.65,17.7-29.48,37.19Z"/>
  <path class="cls-1" d="M181.23,191.28c-1.57-.55-1.4-1.64-1.21-2.76-.15.89,14.67-7.55,19.74-11.76,14.44-11.98,17.34-32.43,6.09-47.91,6.58-8.92,8.1-19.31,9.78-30.89,14.44,10.81,22.76,26.17,25.51,42.94l-.34,18.06c-.34,17.87-13.38,32.58-27.92,43.49l-31.65-11.18Z"/>
  <path class="cls-1" d="M177.97,266.13c-1.61-1.07,1.83-2.46,2.57-2.87,14.82-8.14,30.92-22.94,37.5-39.23,4.02-7.54,4.75-15.84,1.59-23.79,8.38-7.51,14.72-15.52,19.15-25.98,14.89,14.06,18.26,34.23,9.26,51.91-11.59,22.77-27.7,35.25-48.89,49.41-7.68-2.85-14.85-5.29-21.17-9.46Z"/>
  <path class="cls-1" d="M212.19,231.21c-26.36-9.3-59.91-14.95-80.61-32.97,4.91-8.28,11.73-13.97,18.36-20.56,11.27,7.92,22.95,13.36,35.74,17.62l33.2,11.07c1.21,11-1.76,13.54-6.7,24.84Z"/>
  <path class="cls-1" d="M142.34,181.9c-7.23,6.31-12.9,13.48-14.77,22.81-7.68,2.24-16.69,5.25-23.58,7.92-1.51.58-5.82,2.74-6.29.65-5.21-23.16,15.34-44.73,33.99-55.43l20.42-11.72c1.51-.87,2.67-1.23,4.32-1.28,1.93-.06,4.55,6.3,5.59,2.63.28-.98-13.99-13.95-15.66-18.76,5.12-6.37,12.37-10.22,20.84-11.1,6.62,14.95,27.58,29.82,42.88,35.7.81,6.06-7.9,19.97-11.59,20.83-2.07.48-31.57-22.81-34.35-26.31-.36-.46-2.11.32-2.2.69-.58,2.39,7.51,5.75,9.44,9.71l-21.8,17.34-7.24,6.32Z"/>
</svg>