<?xml version="1.0" encoding="iso-8859-1"?>
<!-- Generator: Adobe Illustrator 30.1.0, SVG Export Plug-In . SVG Version: 9.03 Build 0)  -->
<svg version="1.1" id="Layer_1" xmlns="http://www.w3.org/2000/svg" xmlns:xlink="http://www.w3.org/1999/xlink" x="0px" y="0px"
	 viewBox="0 0 1000 1000" style="enable-background:new 0 0 1000 1000;" xml:space="preserve">
<g>
	<g>
		<path style="fill:#73DDFE;" d="M277.4,897.236l-8.219-3.327c-2.552-1.033-5.168-2.204-7.773-3.156l-8.044-2.939
			c-26.664-9.742-18-6.833-38.003-37.204l-28.181-42.788l-22.349-34.616l-13.098-19.784c-2.418-3.653-4.484-7.385-7.167-10.728
			c-1.509-1.88-8.974-23.81-10.454-27.886l-14.075-38.779l-2.901-8.993c-0.924-2.864-2.702-5.709-3.435-8.426
			c-1.282-4.758-4.145-11.87-6.239-17.923l-3.34-9.654c-1.763-5.097-4.46-12.166-6.382-17.433l-3.201-8.77
			c-1.009-2.765-1.231-5.013-2.621-7.657c-1.773-3.37-4.158-11.902-5.801-16.279l-5.753-15.322
			c-0.966-2.573-1.842-4.943-2.658-7.444l-3.434-10.532c-0.91-2.791-1.854-5.288-2.999-8.052l-2.931-7.078l-3.112-8.831
			l-7.431-20.475c-1.624-4.474-2.515-7.214-0.435-11.93c3.198-7.253,5.103-15.206,7.8-22.936l3.045-8.726l3.043-9.029
			c1.068-3.169,1.94-5.961,2.954-9.204l3.342-10.685c1.615-5.163,4.13-12.526,6.004-17.932l3.593-10.362
			c1.097-3.163,2.101-5.899,3.059-8.996l3.039-9.822c0.985-3.184,1.871-5.882,3.014-9.02l2.953-8.105l3.088-10.926l3.217-9.792
			c1.13-3.438,2.416-6.962,3.582-10.332l3.312-9.573c1.552-4.485,4.635-13.472,5.849-17.478l3.031-10.005
			c1.764-5.823,4.058-11.189,6.321-18.513l3.534-11.436l2.944-8.946l3.14-8.784c1.253-3.505,2.065-6.577,3.118-9.838l2.894-8.966
			c1.836-5.69,4.236-8.504,8.51-12.229l12.223-10.654l47.168-42.734c3.876-3.511,7.559-6.258,11.379-9.775l19.255-17.728
			l22.399-19.532c2.602-2.269,4.986-5.059,7.573-7.419l11.98-10.927c12.761-11.639,14.045-4.088,25.183-8.848
			c4.498-1.922,9.368-1.11,13.855-2.396c5.246-1.504,54.792-10.269,50.132-8.777l8.228-2.634
			c-8.455,2.706,35.847-6.075,31.716-5.386l16.275-2.714l15.333-2.715c9.649-1.708,23.8-5.268,33.445-5.857
			c4.263-0.261,8.175-4.018,13.198-2.482c3.498,1.07,13.524-5.126,22.142-3.356c5.929,1.218,11.867-0.752,17.476,0.701
			c9.202,2.384,17.903,1.823,27.364,2.757l28.85,2.846c6.796,0.67,13.346-0.186,20.047,1.132c8.795,1.73,17.176,1.32,26.066,2.132
			l11.836,1.081c6.155,0.562,11.801,2.498,18.027,1.677c0.834-0.11,11.479,8.562,12.067,8.986l16.338,11.777l53.72,40.165
			l20.843,15.25c3.909,2.86,7.571,5.669,11.465,8.567l25.778,19.189c6.03,4.488,8.219,12.564,12.527,18.276
			c4.127,5.471,7.441,10.287,11.344,16.041l120.296,177.311c1.881,5.943,0.659,12.834-0.134,18.466
			c-0.808,5.735,0.787,11.292-0.544,16.771c-1.03,4.242-2.128,8.193-2.246,12.654l-0.639,24.291
			c-0.161,6.121-2.553,12.074-2.604,18.222c-0.084,10.174,0.01,19.708-2.521,29.627c-1.685,6.605,1.416,26.169-5.287,44.687
			l-16.19,44.725c-1.145,3.162-2.648,6.195-3.695,9.273l-3.527,10.369l-3.135,8.767c-1.148,3.21-1.861,5.999-2.977,9.046
			l-3.191,8.713c-1.126,3.075-1.793,5.488-2.816,8.455l-3.334,9.668l-20.608,57.635l-3.271,8.807
			c-3.296,8.872-14.127,42.393-17.119,47.534l-9.983,17.155c-5.022,8.63-9.22,17.275-14.219,25.833l-12.904,22.091l-13.824,25.249
			c-2.404,4.392-4.899,9.142-8.062,12.878c-3.327,3.929-9.971,2.217-14.129,3.946c-2.946,1.225-23.35,5.164-28.113,6.155
			l-14.804,3.079c-4.397,0.914-8.462,2.798-13.226,2.666c0.254,0.007-20.401,4.661-21.943,4.971l-12.463,2.502
			c-4.535,0.91-9.135,1.292-13.52,2.681c-4.362,1.382-8.277,3.305-13.261,2.55c-2.791-0.422-5.576,2.938-8.021,2.716
			c-5.43-0.492-9.457,1.735-14.38,2.625l-17.616,3.183c-6.107,1.103-11.937,2.452-18.05,3.353l-10.514,1.549
			c-5.466,0.805-10.648,2.242-15.984,3.166l-17.935,3.106c-5.294,0.917-10.035,1.875-15.288,2.843l-17.566,3.234
			c-5.651,1.04-11.198,0.862-16.53,2.449l-9.055,2.696c4.358-1.298-27.53,3.986-33.077,5.795c-4.181,1.364-9.309,0.242-13.187,2.029
			c-5.006,2.307-10.499,1.441-15.573,2.675c-5.884,1.432-10.948,2.858-17.112,2.958c-3.308,0.054-6.892,3.417-10.283,1.953
			c-9.254-3.994-20.239-8.215-29.247-11.595l-7.383-2.77l-8.601-3.225c-3.104-1.164-5.801-2.094-8.782-3.257l-30.407-11.862
			c-6.047-2.359-11.993-4.058-17.977-6.962c3.556,1.726-18.233-7-15.029-5.901l-9.704-3.33L277.4,897.236z M466.618,110.287
			c2.839-0.164,6.065,2.995,9.432,1.904c4.24-1.374,8.787,0.826,12.864,0.648c6.827-0.298,12.596,1.362,19.236,1.827l15.826,1.108
			c3.795,0.266,8.349,0.668,11.519,0.584c3.599-0.096,0.503-4.277-0.391-5.981l-22.83-43.537c-2.127-4.056-4.625-7.899-10.453-5.629
			c-5.761,2.245-12.385,2.079-18.264,3.555c-5.399,1.355-10.153,1.843-15.494,2.82l-17.657,3.232l-13.137,2.821l-19.325,4.325
			c-3.805,0.852-7.594,1.517-10.781,2.257c4.001,4.236,8.994,5.593,13.254,8.329l23.253,14.931
			C450.906,108.128,457.011,110.841,466.618,110.287z M657.055,73.384c-14.031-0.368-17.186-2.29-29.012-3.188l-11.131-0.846
			c-4.255-0.323-7.946-1.842-12.145-1.972l-25.469-0.786c-10.019-0.309-19.143-2.971-29.37-2.741
			c-5.753,0.129-22.874-4.458-34.939-2.782L525.9,82.17l15.15,29.603c2.044,3.993,4.2,6.306,9.018,6.524l9.25,0.418l30.595,0.573
			l10.175,0.853c8.214,0.689,16.129,1.712,24.291,0.439L657.055,73.384z M724.72,121.216c-0.207-1.916-3.052-4.309-4.648-5.283
			c-7.328-4.472-13.253-9.929-20.202-14.666c-6.663-4.541-12.436-9.636-18.977-14.215l-14.138-9.896
			c-1.297-0.908-3.692-3.701-5.057-1.748l-25.658,36.69c-2.713,3.88-5.766,7.235-7.07,12.105l22.429,17.447l43.674,36.21
			c5.327-7.837,8.344-15.607,12.414-23.446L724.72,121.216z M391.427,127.309l9.51,2.606c3.68,1.008,17.588,6.319,20.775,6.537
			c3.63,0.248,6.661-4.57,8.952-6.661l15.217-13.896c1.278-1.167,2.451-1.621,2.274-3.408c-0.132-1.332-1.103-1.379-2.414-2.193
			l-27.215-16.895c-4.195-2.604-9.103-4.511-12.915-7.808c-4.95-4.28-9.919-3.714-15.71-2.995
			c-9.402,1.167-22.418,4.609-32.957,5.923c-5.291,0.66-10.029,2.031-15.172,2.942c-5.562,0.985-10.83,1.025-16.385,2.808
			c-7.082,2.272-15.114,0.764-21.722,5.511c4.141-1.059,6.808,2.064,9.648,2.542c5.795,0.975,22.799,7.02,29.784,9.281l9.925,3.214
			c3.979,1.289,7.607,1.831,11.501,3.559C364.095,118.186,391.664,127.374,391.427,127.309z M536.604,179.162l-8.983-3.032
			c-3.193-1.078-6.694-2.059-9.796-3.053l-9.152-2.934c-3.583-1.149-7.847-1.473-10.727-3.097
			c-7.276-4.103-18.824-6.947-27.481-9.759l-9.838-3.195l-9.252-2.816c-3.838-1.168-7.263-2.349-11.308-3.65l-9.803-3.153
			c-2.356-0.758-5.171-1.43-7.605-2.261l-12.703-4.337c-6.986-2.385-10.958-2.762-18.126-5.802c-3.252-1.38-6.098-1.751-9.383-2.73
			c-3.178-0.947-6.295-2.445-9.508-3.4l-11.663-3.466c-2.856-0.849-6.198-2.06-8.907-2.91l-10.701-3.356
			c-1.57-0.493-21.614-6.673-20.05-6.085l-8.013-3.018c-0.368-0.138-21.83-8.047-19.857-4.154c-2.329,3.183,0.552,8.823-1.16,12.543
			c-2.432,5.286-1.26,9.279-2.375,19.589c-0.572,5.288-0.148,10.596-0.15,15.845c-0.001,3.397,2.832,4.68,5.482,5.595l16.863,5.822
			c6.117,2.112,10.218,3.836,16.167,5.852l8.856,3.001c6.698,2.27,11.185,3.885,17.991,6.203l9.635,3.283
			c6.774,2.308,13.149,4.99,19.865,7.386l15.314,5.463c10.969,3.913,27.807,11.992,37.458,9.046
			c4.062-1.24,7.027-1.853,11.452-1.712c4.519,0.144,9.151-1.898,13.852-0.713c3.137,0.791,5.503-1.616,8.131-1.836l12.814-1.072
			c8.07-0.675,15.398-2.702,23.322-2.962l16.476-0.542c-6.418,0.211,44.073-5.205,40.32-5.918
			C554.314,184.44,545.613,182.204,536.604,179.162z M248.21,157.402c10.413-2.009,17.225-0.555,24.229-2.953
			c3.2-1.096,7.058-0.238,10.035-1.785c3.417-9.017,3.812-18.125,3.547-27.748c-0.193-7.009,3.086-13.386,2.349-20.915
			l-20.547,17.777c-2.951,2.553-5.296,5.352-8.199,7.895l-10.088,8.839l-23.027,20.925
			C231.029,161.119,244.32,158.152,248.21,157.402z M530.46,171.286l8.968,3.038c9.254,3.135,16.859,5.202,26.167,8.091
			c2.792,1.607,5.744,2.012,7.972,1.391l-18.883-35.526l-9.716-19.161c-2.812-5.546-6.477-8.028-13.157-8.278
			c-5.029-0.189-10.424-1.479-15.784-0.837c-5.437,0.651-10.109-0.605-15.264-1.654c-10.685-2.175-21.108-0.748-28.725-1.437
			c-4.46-0.404-8.485-2.952-13.046-3.051c-5.819-0.126-9.162,4.728-12.888,8.232l-13.92,13.087c-1.24,1.166-2.781,1.284-2.31,3.38
			c0.224,0.996,1.024,1.938,2.7,1.849c1.353-0.072,16.131,5.035,18.869,5.903l9.78,3.1c3.236,1.026,6.085,1.887,9.21,2.895
			l9.843,3.175c3.03,0.977,6.199,1.877,9.182,2.839l9.802,3.163l10.78,3.307l10.622,3.328L530.46,171.286z M593.572,164.471
			l26.385-37.727l-20.466-1.27c-2.614-0.162-4.526-1.67-7.494-1.633c-6.934,0.085-13.805,0.736-20.569-0.32
			c-3.502-0.547-21.999-1.666-23.41,1.01c-0.774,1.468,0.745,2.051,1.365,3.238l27.017,51.757c1.051,2.013,1.351,3.507,4.241,4.345
			C583.286,177.96,589.092,170.877,593.572,164.471z M766.125,174.475c1.621-0.064,22.888-3.398,28.28-2.597
			c-5.151-4.952-10.386-8.246-16.01-12.351l-10.308-7.524l-28.628-21.326c-2.963-2.208-5.974-4.132-8.66-6.318
			c-2.766-2.252-6.163,7.602-7.813,10.748l-8.22,15.673c-3.972,7.573-7.715,14.904-11.455,22.447
			c-0.848,1.711-2.344,2.992-0.87,4.867c1.132,1.44,3.016,0.434,5.001,0.347l19.298-0.85c5.099-0.225,9.734-1.943,14.843-2.145
			L766.125,174.475z M679.814,180.68c3.015-0.931,5.22-1.589,9.061-2.486c-5.127-2.963-7.894-6.167-11.782-9.292l-46.539-37.415
			c-1.399-1.125-3.884-5.875-5.836-3.095l-36.833,52.426c-1.384,1.97-2.399,3.661-1.708,6.369
			c15.936-3.154,26.069-1.681,43.911-3.338l19.851-1.844C652.745,181.745,679.041,180.919,679.814,180.68z M233.567,221.921
			c4.507-0.001,6.984-1.324,10.606-1.454l27.194-0.975c2.632-0.094,4.959-0.759,6.31-2.4c1.301-1.581,1.707-3.686,1.42-6.048
			c-0.794-6.538,0.557-12.607,0.8-18.933c0.178-4.62-0.06-8.165,1.764-12.391c1.474-3.415-0.541-7.719,0.543-11.591
			c0.576-2.056,1.935-6.884,0.051-8.185c-4.42-3.051-9.983,0.298-14.601,0.545c-8.812,0.47-16.9,2.133-25.701,3.287
			c-1.386,0.182-24.397,0.7-23.667,6.255c0.749,5.694-2.091,9.952-2.745,15.089c-0.852,6.696-0.933,12.634-3.145,19.209
			c-1.433,4.26,0.314,9.452-2.425,13.885c-0.677,1.096,0.365,2.897,1.016,3.405c0.553,0.432,1.864,0.305,2.981,0.305
			L233.567,221.921z M404.529,198.672c-4.131,1.446-6.362-1.064-9.221-1.881c-6.158-1.76-11.97-4.489-19.294-6.561
			c-3.188-0.902-5.663-2.442-8.657-3.388l-9.177-2.9c-2.768-0.875-5.67-2.75-8.311-3.389c-3.291-0.798-5.458-1.679-8.5-2.816
			l-7.97-2.978l-9.706-3.305c-10.918-3.718-24.779-10.246-35.543-11.56c-1.403,5.606-0.533,10.803-1.272,16.241
			c-1.548,11.383-3.721,22.159-2.868,33.823c0.185,2.536-2.311,5.109-0.664,7.88c0.448,0.753,2.352,1.778,3.665,1.393
			c10.551-3.099,21.175-1.593,31.562-3.752l8.431-1.752l19.126-1.022c6.914-0.369,13.484-3.946,20.906-2.618
			c3.591,0.643,13.702-1.309,18.173-2.722c4.354-1.376,9.217,0.465,13.69-0.526c8.564-1.896,13.885,0.539,15.07-2.403
			C416.129,199.072,407.854,205.445,404.529,198.672z M203.158,221.257c5.14-3.343,3.11-10.263,3.948-15.155l4.408-25.749
			c0.479-2.8,3.13-5.666,0.957-8.436l-20.445,18.163l-24.107,21.813c-4.563,4.129-8.67,7.705-12.555,13.087
			C165.886,222.324,198.503,224.285,203.158,221.257z M681.338,260.086c0.795,1.193,1.52,2.583,2.978,3.633l15.685,11.296
			c8.605,6.197,16.782,12.405,26.112,18.754l14.166-22.483l18.154-29.802l9.131-14.979c10.278-16.861,20.087-31.696,29.894-49.336
			c-9.673-0.652-19.699,2.364-29.553,2.583l-19.823,0.442c-0.493,0.011-25.989,2.665-19.26,2.595l-28.703,0.296
			c-6.659,9.84-2.432,11.875-6.513,20.523c-1.935,4.1-0.505,9.134-2.725,13.188C690.687,217.151,681.172,259.837,681.338,260.086z
			 M800.66,478.304c2.721-6.531,5.882-11.758,8.953-17.525c5.959-11.191,10.939-22.232,16.878-33.378l15.585-29.254
			c2.525-4.74,4.829-9.145,7.255-13.925l12.385-24.415c2.813-5.545,2.905-9.088-0.285-14.155c1.323,2.102-6.045-16.835-6.343-17.575
			c-3.076-7.634-3.116-10.573-6.464-18.538c-1.096-2.608-1.945-5.44-2.88-8.129l-3.073-8.84c-2.499-7.189-3.49-9.359-6.022-16.168
			l-5.45-14.656c-0.985-2.649-1.776-4.876-2.647-7.454l-3.279-9.7c-0.994-2.941-6.301-16.06-6.212-15.777l-2.89-9.17l-3.233-9.695
			l-3.804-10.21l-2.604-7.485c-2.494-7.168-2.747-9.521-6.118-11.132c-0.401-0.191-0.264,1.638-0.462,1.96l-17.826,29.034
			l-7.531,12.402l-30.53,49.398c-2.003,3.24-3.253,6.777-5.512,9.514c-2.593,3.141-3.968,6.64-6.333,9.954
			c-1.779,2.494-3.605,5.652-1.229,8.744c1.562,2.032,4.891,13.98,6.459,18.556l3.323,9.696l2.957,8.114
			c2.88,7.903,6.359,19.016,9.257,26.788l3.27,8.767c1.092,2.929,2.509,6.319,3.487,9.298l2.964,9.033
			c1.008,3.072,2.128,5.167,2.786,8.471c0.823,4.131,5.232,7.672,5.169,12.331c-0.044,3.231,4.416,14.615,5.84,18.204
			c1.433,3.612,2.362,7.434,3.775,11.099l3.048,7.908c0.557,1.446,4.283,13.063,5.565,16.55l3.497,9.513
			c1.396,3.798,1.039,7.601,5.838,9.634C796.469,482.47,799.569,480.923,800.66,478.304z M602.986,280.426
			c0.998,4.224,1.364,8.209,2.656,11.936c5.397,15.554-0.964,12.185,6.038,14.389c0.941,0.296,1.795-1.328,2.934-2.128
			l22.904-16.084l10.973-8.043l10.37-7.397c5.255-3.748,10.407-6.903,15.232-11.037c5.391-4.619,3.816-13.243,5.481-16.538
			c2.057-4.071,1.996-8.314,2.878-12.423l3.345-15.572c0.935-4.351,2.351-7.66,2.705-12.374c0.153-2.031,6.651-21.737,1.149-20.803
			l-9.629,1.634l-27.966,0.135c0.974-0.005-23.441,2.838-14.492,2.466l-22.98,0.956l-23.384,0.922
			c-2.206,0.087-5.322,1.503-7.364,2.448c-1.718,0.796-1.163,5.811-0.064,7.475c1.862,2.818,1.702,7.184,2.656,10.321
			c1.482,4.87,2.516,9.044,3.059,14.139c0.261,2.446,3.702,4.818,2.561,8.159c-1.324,3.876,2.045,6.925,2.508,10.108
			c1.066,7.333,3.396,16.033,5.297,24.076L602.986,280.426z M568.716,298.905c2.084,0.635,22.4,5.744,22.875,5.824
			c4.288,0.72,7.96,4.424,12.918,1.514c-2.681-2.924-0.366-7.488-1.8-9.873c-2.422-4.031-2.339-7.727-3.342-11.913l-3.09-12.897
			c-1.198-5.001-2.634-9.424-3.784-14.574l-2.889-12.936c-0.792-3.545-1.807-7.377-2.896-10.935
			c-1.641-5.364-2.128-10.566-3.365-15.893c-0.95-4.091-2.695-7.417-2.834-12.131c-0.112-3.769-3.596-7.123-2.773-11.958
			c-5.094,0.457-9.991-1.173-14.62,0.051c-9.753,2.58-19.232,2.213-28.976,3.327c-10.278,1.175-19.609,3.238-30.185,2.727
			c-4.398-0.212-9.136,3.331-13.908,2.856c-8.405-0.837-16.196,0.715-24.285,2.618c-5.664,1.333-11.764-0.891-17.292,0.768
			c-5.116,1.535-10.043,1.1-15.002,3.228l44.905,49.867c6.139,6.818,11.111,13.994,18.534,19.627
			c4.143,3.144,31.534,8.442,37.922,11.083c6.43,2.658,15.302,3.958,22.83,6.252L568.716,298.905z M896.393,390.594l30.249,41.76
			c2.203,3.041,3.519,5.921,6.514,8.574c2.24,1.984,2.263,5.959,5.94,7.091c-1.519-2.696,2.642-28.574,2.572-25.167l0.592-28.619
			c0.058-2.801,1.86-5.992,0.103-8.644l-20.713-31.249l-19.387-28.522l-23.543-34.567l-12.044-18.05l-50.113-73.663
			c-0.266-2.877-3.119-3.617-4.069-5.73c-2.347,3.293,1.509,4.511,1.891,6.516c0.42,2.208,14.351,39.627,16.565,45.66l9.689,26.395
			c3.462,9.431,6.262,18.812,10.13,28.092c1.306,3.133,2.115,5.632,2.933,9.133c0.556,2.379,15.175,41.73,15.853,42.781
			c3.036,4.71,5.288,9.232,8.629,13.529l3.536,4.547C886.382,376.459,891.519,383.866,896.393,390.594z M333.41,251.623
			c4.711,2.853,9.015,5.528,13.73,8.414l26.008,15.921l52.07,31.75c7.879,4.804,15.309,9.128,22.894,14.187
			c1.679,1.12,3.195,1.395,5.138,1.029c1.358-0.256,1.563-1.701,2.755-3.023l35.479-39.347l-45.047-49.969
			c-4.736-5.253-8.341-10.655-13.98-15.115c-1.661-2.128-3.452-5.981-6.643-6.132c-3.002-0.142-6.904-1.292-9.555-0.8
			c-4.028,0.748-7.63,3.474-12.275,2.44c-3.618-0.805-21.275,2.485-24.044,2.71l-13.832,1.126
			c-5.218,0.425-9.436,0.083-14.409,1.847c-2.88,1.022-6.561,0.955-9.815,1.094l-13.695,0.585c1.882-0.08-12.974,3.361-20.203,2.712
			c-6.841-0.614-13.352,0.518-19.172,3.563L333.41,251.623z M108.394,350.895c4.515,4.225,25.1,6.289,30.342,7.627
			c5.705,1.456,10.928,2.673,16.929,2.917c2.135,0.087,3.986,2.715,6.621,1.485c2.107-0.983,6.947-8.005,8.621-10.096l35.91-44.845
			l8.711-10.515l19.702-24.241l38.679-48.337c-5.503-2.463-10.752-0.428-15.878-0.108l-14.991,0.937
			c-4.125,0.258-7.363,0.741-11.277,0.808l-42.767,0.733c-3.886,0.067-37.628,2.738-38.555,3.221
			c-3.677,1.916-6.891,16.412-8.574,21.55l-2.466,7.532l-8.969,27.677l-2.51,6.508c-0.177,0.46-6.47,19.66-6.288,18.313
			C121.427,313.584,111.626,348.399,108.394,350.895z M383.398,362.398l25.81-14.074l34.277-18.838
			c1.818-0.999,2.882-0.581,2.674-3.025c-0.145-1.703-1.134-1.117-2.62-2.01l-18.108-10.877l-26.204-15.86l-53.842-32.997
			l-9.177-5.935l-49.725-30.191c-1.153-0.7-2.492-2.388-3.812-1.62c-0.685,0.399-2.223,1.581-1.565,2.682
			c1.521,2.548,0.155,4.219,0.132,6.644l-0.842,91.143l-0.945,40.09l-0.959,23.893c-0.379,9.443-0.366,18.507-0.283,28.111
			c4.722-2.107,7.537-3.484,11.085-5.408l40.703-22.068l22.364-12.69L383.398,362.398z M235.265,609.166l31.041,20.522
			c0.742,0.49,1.281,1.87,2.109,1.328c0.502-0.329,1.522-1.025,1.527-2.162l0.3-74.513l1.494-11.605l0.722-30.327l0.842-96.277
			l-0.017-8.163c-0.012-5.977,0.427-11.833,0.655-17.977l0.519-13.96c0.17-4.574-0.007-8.34,0.241-13.034l0.864-16.342l0.72-73.369
			c0.078-7.943,0.221-15.228,0.408-23.288l0.185-7.99c0.099-4.289-1.229-8.209-1.19-11.939l-20.021,25.564
			c-4.192,5.353-8.39,10.034-12.716,15.421l-48.437,60.324l-10.202,13.104l-60.149,74.481c-1.145,1.417-14.068,17.886-13.759,17.542
			c-9.827,10.925-17.779,21.845-27.304,33.563l-11.655,14.337c-3.221,3.962-6.136,7.805-8.76,12.296
			c6.056,4.19,11.406,7.665,17.219,11.435l37.59,24.379l43.578,28.473L235.265,609.166z M630.569,397.197
			c0.357,2.934,3.452,5.557,2.459,8.788c-1.153,3.753,1.618,6.116,2.691,9.133c1.096,3.084-0.653,6.917,1.437,9.733
			c1.791,2.414,2.151,4.943,1.839,8.419c3.545-0.747,4.181-3.433,5.556-5.704l14.401-23.786l57.713-93.966
			c1.691-2.754,7.455-10.869,4.533-13.041l-20.629-15.342c-7.376-5.486-14.62-10.741-22.064-15.728
			c-7.73,4.009-13.355,9.191-19.957,13.798l-27.085,18.901l-17.743,12.266c-7.131,4.93,1.397,9.193,0.266,16.316
			c-0.544,3.421,2.634,6.133,2.676,9.077c0.082,5.651,4.94,20.537,5.892,25.411l1.793,9.188
			C625.672,377.45,629.477,388.21,630.569,397.197z M614.043,346.436c-2.321-3.379-1.218-7.801-2.392-11.171
			c-2.849-8.182-3.577-20.985-9.08-22.458l-11.92-3.19l-10.984-3.018l-10.179-2.934c-4.186-1.207-8.587-1.853-12.764-3.133
			l-11.495-3.523l-12.653-3.326c-3.714-0.976-6.61-1.444-10.111-2.967c-3.444-1.498-7.361-0.795-11.016-3.251
			c-2.318-1.557-6.518,0.412-8.999-1.948c-1.354-1.288-3.25-1.632-4.945-1.668c-1.446-0.03-2.828,1.178-4.161,2.636l-27.11,29.659
			c-2.792,3.055-5.603,5.808-8.442,8.913c-1.873,2.049,1.748,4,3.381,4.749c3.592,1.646,5.956,3.735,9.383,5.822l150.812,91.836
			c4.563,2.779,7.486,5.647,13.395,7.499l-1.207-7.467c-0.689-4.261-2.05-8.132-3.048-12.251l-3.126-12.9
			c-1.169-4.822-2.469-8.866-2.96-13.958c-0.209-2.162-3.711-4.319-2.509-7.392c1.501-3.837-2.16-7.02-2.477-10.125
			c-0.485-4.74-0.771-8.096-2.877-12.435C614.932,355.086,616.695,350.298,614.043,346.436z M785.845,472.398l-2.962-8.984
			l-3.138-8.819l-3.202-8.766c-1.01-2.764-1.622-4.886-2.635-7.633l-4.347-11.789c-3.437-9.32-3.913-11.142-6.985-20.084
			l-3.336-9.709l-2.963-8.136c-1.153-3.167-1.936-5.872-3.052-9.039l-3.067-8.709c-4.526-12.852-8.484-23.557-12.834-36.308
			l-3.036-8.898c-0.942-2.76-2.83-4.794-2.687-8.251c0.063-1.52-2.368-2.754-2.449-4.42c-0.152-3.155-0.838-5.604-3.907-8.177
			l-76.772,125.701c-1.574,2.577-4.977,5.07-4.801,8.027c0.194,3.264,6.205,3.145,8.572,4.26c6.519,3.071,29.249,9.15,38.873,13.305
			c2.959,1.278,5.397,1.656,8.459,2.696l8.898,3.021l26.989,8.645c3.73,1.195,13.752,5.037,16.937,5.886
			c3.558,0.949,6.508,2.045,9.842,3.166l8.343,2.803c3.915,1.315,17.55,4.815,19.899,7.297
			C792.381,488.946,786.194,473.456,785.845,472.398z M316.4,609.826l28.563-14.906l38.411-20.555l46.228-24.677
			c1.733-0.925,2.917-1.48,4.446-2.634c4.961-3.745,16.403-5.997,15.952-12.103c-0.458-6.199,0.86-12.648-0.389-18.598
			c-1.498-7.13,0.034-13.619,0.043-20.749l0.109-88.292c0.004-3.094-0.219-5.499-0.191-8.608l0.523-57.668
			c0.031-3.425-0.284-6.526-1.723-8.948l-123.942,68.249l-11.897,6.338c-3.431,1.828-6.611,3.867-10.126,5.881l-24.268,13.897
			l-0.722,63.048l-0.844,36.172c-0.17,7.272-1.106,14.033,0.525,21.368c0.708,3.182-2.009,7.695-0.693,10.44
			c1.865,3.888-0.998,5.914-1.009,8.977l-0.221,65.377l28.348-15.351C307.668,614.241,312.35,613.017,316.4,609.826z
			 M632.587,441.596c-0.04-2.887-2.85-3.418-4.62-4.482l-24.42-14.678l-38.925-23.95l-16.362-9.791l-42.67-26.276l-42.792-26.234
			c-2.806-1.72-5.391-3.753-8.816-3.123l0.09,143.707c0.003,4.578,2.429,8.862,1.737,13.139c-0.686,4.236-2.088,31.08-0.993,34.243
			c1.235,3.568-1.158,7.831,0.979,11.555l122.716-65.175L632.587,441.596z M73.049,460.722c-1.043,3.503-2.194,6.395-2.774,9.685
			c-0.707,4.007-3.806,7.191-3.054,11.817l18.064-22.974l33.505-41.521l14.385-17.549l22.65-28.282
			c0.984-1.229,2.386-1.783,2.283-3.452c-0.235-3.834-9.688-1.39-16.228-4.334c-4.704-2.117-9.74-1.616-14.748-2.462
			c-1.749-0.296-6.444-4.553-21.506-2.243c-1.131,1.786-0.112,4.491-1.245,5.867c-2.408,2.923-1.805,6.134-2.958,9.267l-3.501,9.52
			l-2.729,8.291c-1.255,3.812-2.48,7.576-3.654,11.319l-3.105,9.904c-0.984,3.14-2.193,5.839-3.133,8.936l-3.057,10.071
			c-0.933,3.073-1.851,5.804-3,9.035l-3.12,8.776L73.049,460.722z M927.609,528.218l-2.982-6.667
			c-1.807-4.039-1.924-8.23-3.739-12.233l-3.101-6.837l-3.057-9.949l-3.046-7.939l-2.593-7.67l-14.511-39.867
			c-1.122-3.084-2.442-6.438-3.406-9.365l-2.95-8.96c-1.649-5.007-4.571-11.493-6.143-16.103l-3.53-10.351l-3.395-9.547
			l-2.406-6.651c-1.853-5.122-3.72-9.89-6.178-15.042c-1.734,3.943-3.762,7.538-5.949,11.748l-39.228,75.499l-12.577,25.971
			c-1.031,2.128-9.832,15.416-8.812,17.2c0.533,0.933,14.466,5.225,18.144,6.434l10.322,3.394c3.017,0.992,6.021,2.015,8.951,2.999
			l8.978,3.015l10.594,3.502l10.668,3.3l8.774,3.198c3.151,1.149,6.089,1.664,9.403,2.78l9.656,3.252
			c6.825,2.298,10.52,3.52,17.29,5.797l15.384,5.174C930.341,533.168,928.35,529.874,927.609,528.218z M915.359,480.763
			c1.802,5.087,5.12,12.824,5.525,14.265c1.793,6.375,4.089,12.24,6.52,18.487c1.58,4.06,1.364,8.835,5.47,11.61
			c0.67-5.209-0.16-10.037,0.384-15.026l1.075-9.853c0.539-4.939,2.067-9.158,1.769-14.281c-0.535-9.192,0.016-18.072,1.922-27.097
			c-1.452-4.753-4.52-8.424-7.39-12.415l-24.721-34.378l-27.047-37.877c-2.923,3.22,0.6,5.584,1.411,8.234l3.078,10.047l3.573,9.437
			c2.85,7.527,6.735,19.755,9.129,25.662l3.148,7.769c1.298,3.202,1.966,5.943,3.073,9.011l10.131,28.078L915.359,480.763z
			 M777.808,518.375l13.894-23.069c-2.802-3.136-7.69-3.472-11.907-5.206c-1.095-0.45-24.558-8.163-27.81-9.216l-9.009-2.918
			c-3.745-1.213-6.769-2.503-10.518-3.642l-9.934-3.017c-2.905-0.882-4.804-2.983-8.495-2.503c-1.613,0.209-3.293-3.073-5.028-2.659
			c-3.674,0.877-5.774-1.914-8.481-2.419c0.251,0.047-19.477-5.891-19.987-6.083l-10.173-3.835
			c-3.137-1.182-6.146-1.407-9.357-2.701l-9.231-3.719c-2.668-1.075-6.364-0.106-8.69-2.665c-2.511,5.074-0.978,9.713-0.467,14.54
			l2.187,20.659l0.897,14.05c0.971,15.209,2.131,18.371,3.019,32.005l1.104,16.959c0.382,5.86,0.729,11.568,1.958,17.337
			c1.113,5.225-1.025,11.39,0.814,16.126c1.373,3.537,6.867,0.288,9.355,0.67c3.935,0.603,7.777-0.937,11.245-1.452
			c9.111-1.353,17.803-2.271,26.79-4.463c3.51-0.856,6.756,0.044,10.346-1.806c1.674-0.863,19.588-1.656,19.423-1.581
			c17.179-7.768,15.978,4.487,25.109-10.85L777.808,518.375z M594.142,567.359c5.291,0.552,9.957,2.248,15.062,3.061
			c5.373,0.856,9.869,1.236,15.076,3.017c-2.299-0.786,22.544,5.117,20.828,4.284c5.716,2.776-0.803-38.154-0.766-36.823
			l-0.612-22.462c-0.094-3.464-2.538-6.023-2.513-15.48c0.027-10.275-1.16-19.697-2.113-29.913l-0.937-10.042
			c-0.534-5.727,0.989-11.392-1.5-16.988c-3.304-0.324-5.835,2.1-8.88,3.721l-80.31,42.753l-53.459,28.465l-18.412,9.705
			c-4.947,2.607-10.331,4.47-14.075,9.038c3.144,0.428,5.184,0.102,7.387,1.377c4.173,2.414,9.121,1.397,13.734,2.304
			c2.351,0.462,4.624,3.343,7.218,2.682c5.113-1.301,9.045,1.739,13.391,2.347c5.226,0.73,9.875,1.658,15.034,3.038
			c4.699,1.257,9.458,0.778,14.256,2.914c4.112,1.83,9.141,1.099,13.51,2.519c6.695,2.177,13.746,3.259,20.867,4.158
			c4.877,0.616,9.44,3.465,14.238,3.464C586.017,564.496,589.813,566.908,594.142,567.359z M927.055,537.761
			c-3.801,1.552-6.322-1.678-9.39-2.202c-8.402-1.437-13.907-4.933-18.065-5.883c-3.526-0.805-5.923-1.89-9.236-2.911l-11.406-3.515
			l-9.586-3.398l-8.315-2.715c-3.163-1.033-6.31-2.675-9.201-3.529l-10.085-2.98c-3.269-0.966-5.953-2.044-8.968-3.032l-7.716-2.528
			c-7.743-2.536-15.511-4.833-23.126-7.913c-3.482-1.408-6.133,0.293-7.817,3.132l-38.835,65.489
			c2.782,4.213,6.122,6.563,9.063,9.806l29.009,31.98c3.277,3.612,6.952,6.467,9.441,10.585c1.486,2.459,3.669,1.159,5.47,0.219
			c6.592-3.44,11.943-8.005,18.162-12.058l27.64-18.016l34.588-22.583l17.777-12.19c5.069-3.476,10.051-6.43,15.091-9.891
			C923.78,542.097,927.102,542.029,927.055,537.761z M150.535,656.022l0.727-24.743c0.068-2.322,2.324-20.807,2.458-27.383
			l0.648-31.652c0.091-4.463,1.608-8.877-2.81-11.757l-10.964-7.146c-8.131-5.3-16.077-10.375-24.281-15.713l-30.83-20.061
			l-15.564-10.541c-2.536,0.31-2.947-2.296-5.408-2.866l23.199,50.085l10.012,21.095l11.551,25.426l14.079,29.943
			c1.401,2.979,3.197,8.009,5.837,12.818l3.258,5.935c1.6,2.914,14.901,35.685,17.562,34.366
			C150.406,674.674,150.253,665.624,150.535,656.022z M583.553,699.328c5.278,0.534,23.284,4.64,29.03,5.887l15.67,3.4
			c3.534,0.767,7.617,0.232,11.146,1.951c4.87,2.372,9.99,2.203,15.187,2.805c1.028,0.119,1.967,1.846,2.95,1.77
			c5.105-0.395,0.106-13.541-0.316-16.125c-0.962-5.901-0.517-11.638-0.757-17.483l-0.797-19.37
			c-0.095-2.32-2.546-4.263-1.823-7.152c1.181-4.722-0.862-9.341-0.775-13.882c0.146-7.569-0.082-14.034-1.776-21.27
			c-1.923-8.215-0.502-26.02-2.735-33.251c-1.229-3.979-4.03-3.889-7.642-4.699l-11.877-2.664
			c-8.659-1.943-17.224-3.452-26.498-5.482l-14.763-3.231c-5.298-1.159-10.024-0.555-15.205-3.052
			c-3.51-1.692-8.821-0.136-12.587-2.453c-3.803-2.34-8.859-1.008-12.647-2.473c-4.886-1.89-8.973-2.873-14.481-2.74
			c-3.38,0.082-7.108-3.577-10.794-2.673c-4.076,0.999-6.992-2.466-10.157-2.629c-3.76-0.193-40.974-7.915-44.196-9.042
			c-3.986-1.393-8.648-1.482-12.83-2.257c-4.337-0.804-7.511,2.64-11.069,4.525l-75.165,39.823l-39.387,20.721l-39.809,21.346
			c-2.545,1.365-5.067,3.006-8.236,3.879c-0.841,1.436,2.668,4.29,4.587,3.585c4.623-1.699,7.566,2.225,11.218,2.503
			c5.91,0.449,10.628,0.865,16.008,3.167c3.259,1.394,8.6-0.071,11.641,1.649c4.366,2.47,8.826,1.809,13.26,3.046
			c5.444,1.518,10.065,2.736,16.067,3.056c2.95,0.157,5.94,4.255,10.083,2.504c3.641-1.539,7.031,2.378,9.972,2.537
			c5.841,0.316,10.756,1.582,16.231,2.86l12.921,3.017c5.399,1.261,10.646,1.837,16.1,3.045l13.914,3.081
			c5.012,1.11,10.198,1.023,14.926,3.348c2.733,1.344,6.133,0.338,8.789,1.273c5.622,1.978,10.94,2.461,16.717,3.437
			c3.434,0.58,6.216,3.7,10.458,2.393c3.512-1.082,6.838,2.594,9.941,2.668c5.355,0.127,9.457,1.049,14.281,2.836
			c4.196,1.554,9.328,0.291,13.625,2.635c3.658,1.995,8.667,0.6,12.543,2.389c4.315,1.993,8.834,1.752,13.255,2.905
			c5.323,1.388,10.242,2.99,15.979,2.785c1.954-0.07,4.346,3.264,6.066,2.788C575.154,695.531,578.89,698.856,583.553,699.328z
			 M818.282,806.783c3.477-7.787,5.581-13.872,8.889-21.754l20.309-48.398c2.387-5.689,3.834-8.633,6.365-14.62l14.875-35.193
			c0.984-2.329,2.45-4.571,3.185-7.014c3.347-11.134,16.612-39.166,16.526-38.757c0.78-3.693,4.214-11.154,6.037-15.435l3.584-8.416
			c3.28-7.702,3.471-9.179,5.996-15.119l22.362-52.607c0.365-0.859,0.722-1.436,0.668-1.92c-0.048-0.432-1.909-1.181-2.25-0.755
			c-2.734,3.414-6.384,5.11-9.866,7.367l-26.635,17.265l-81.032,53.762c-3.539,2.348-7.014,3.997-10.333,6.725l-32.453,21.53
			c-2.584,1.714-4.595,3.292-7.201,4.987l-13.885,9.032c-8.173,5.317-16.201,10.205-24.361,15.66l-32.889,21.982l-17.49,11.477
			c-1.338,0.878-1.854,2.581-1.672,3.761c0.172,1.115,1.898,1.088,2.618,2.011l11.011,14.116l52.927,62.902l20.455,24.587
			l36.583,43.748c2.255-0.935,2.939-3.526,4.08-6.082l11.097-24.847l4.726-12.579L818.282,806.783z M84.19,562.574
			c1.809-2.854-0.29-4.684-0.768-6.671C82.972,558.362,81.977,560.602,84.19,562.574z M139.922,717.654
			c1.482,4.383,4.496,7.836,5.313,11.953c1.411,7.114,5.682,13.811,9.473,19.637l23.6,36.275c2.603-3.535-1.361-5.522-1.67-7.875
			c-0.458-3.49-2.267-5.828-3.23-8.863l-3.355-10.585c-2.064-6.513-4.494-12.023-6.409-17.597c-1.016-2.956-1.113-5.794-2.405-8.676
			c-4.441-9.904-7.086-20.077-10.935-30.399c-3.805-10.204-8.615-19.756-13.254-29.608l-2.586-5.492L114.33,622.68l-23.749-51.49
			c-1.21-2.623-2.89-4.228-3.14-8.113c-4.188,4.599-0.117,7.313,0.931,10.124c1.092,2.928,1.399,5.597,2.919,8.448
			c-0.181-0.339,8.577,23.999,9.78,27.104l4.836,12.481c1.269,3.274,1.714,6.105,2.746,9.389
			c-0.462-1.471,11.055,29.092,9.587,26.257c0.37,0.714,8.198,22.675,9.384,25.997l3.123,8.743l3.273,8.575L139.922,717.654z
			 M661.535,685.115c1.134,4.687,1.734,8.366,1.598,12.955c-0.108,3.625,1.837,7.073,0.689,11.07
			c-0.291,1.014,0.919,4.216,1.776,3.649l44.016-29.133c11.818-7.822,23.333-14.811,34.412-23.576
			c2.983-2.361,7.84-2.457,9.995-6.139l13.583-8.368l33.216-22.149l-46.004-51.091c-3.206-3.561-6.646-3.391-10.943-2.606
			c-4.027,0.736-8.341,0.022-12.253,1.921c-1.726,0.838-28.471,4.232-32.384,4.912c-6.898,1.199-13.007,3.136-20.344,2.586
			c-4.612-0.346-9.094,2.772-13.88,2.912c-2.902,0.085-6.677-0.881-9.071,0.986c-3.283,2.561-1.323,7.508-1.22,11.164l0.58,20.678
			c0.286,10.209,3.005,19.677,2.838,30.202c-0.108,6.747,1.606,13.484,2.64,20.163C661.776,671.693,659.917,678.428,661.535,685.115
			z M259.269,707.306l2.454-17.62c1.61-11.56,5.822-30.838,5.617-41.653c-0.056-2.961,4.237-8.175,0.777-11.096
			c-5.089-4.297-11.077-7.678-16.695-11.348l-30.841-20.148l-15.167-9.755c-13.608-8.752-26.249-17.731-40.776-26.125
			c2.83,9.798,6.855,16.963,10.648,25.334l40.205,88.732l3.244,6.913l3.688,8.14l22.103,48.792
			c2.187,4.829,4.352,8.785,6.164,13.754c-0.251-5.451,2.38-9.61,2.888-14.372c0.729-6.846,1.585-13.248,3.136-19.963
			C255.318,732.929,259.547,705.312,259.269,707.306z M230.962,729.453c-0.907-2.007-1.457-3.522-2.252-5.254l-16.062-35.02
			c-1.544-3.366-5.062-11.286-6.435-14.502l-2.957-6.925c-1.009-2.363-1.865-3.794-2.952-6.198l-29.814-65.884
			c-1.451-3.207-9.18-23.725-11.476-21.516c-0.235,6.147-0.459,11.502-0.622,17.288l-0.856,30.384
			c-0.105,3.719-2.323,6.93-1.694,11.222c0.932,6.36-0.649,12.599-0.685,18.85l-0.174,29.978c-3.469,5.612-1.985,12.1,3.24,15.975
			l39.017,28.941l47.253,35.173c1.925-1.872-0.389-3.44-1.234-5.31L230.962,729.453z M894.406,642.977
			c0.932-2.949,1.023-4.616-0.001-6.06C893.689,639.316,893.74,641.17,894.406,642.977z M505.044,784.252l-14.081-37.138
			l-3.207-8.54c-0.993-2.644-2.064-4.757-2.955-7.148l-3.537-9.49c-1.075-2.884-1.967-5.99-3.143-8.876l-3.45-8.47
			c0.327,0.803-6.355-17.275-6.036-14.861c-0.788-5.967-2.898-10.773-9.321-12.245c-3.684-0.844-8.333-0.408-12.04-1.903
			c-2.908-1.172-24.308-5.192-29.039-6.196c-5.219-1.107-9.401-2.951-15.184-2.793c-2.615,0.071-5.601-3.826-9.055-2.67
			c-4.075,1.365-7.756-2.235-11.163-2.421c-8.147-0.445-34.869-7.599-44.086-9.15l-12.078-2.033
			c-6.453-1.086-16.131-4.243-28.122-6.067c-3.239-0.493-5.597-3.486-9.671-2.349c-3.717,1.037-7.815-0.876-10.496-3.06
			c-3.113,2.89-0.106,5.193,1.055,7.732l34.812,76.104l15.319,33.811l17.872,39.23l7.1,14.785c2.483,5.17,6.982,15.573,9.262,20.886
			l2.977,6.939l3.314,7.525l19.534,41.413l5.684,13.468l17.862,39.111c0.496,1.087,1.975,2.718,3.205,1.586l64.057-58.944
			l39.566-36.527c3.745-3.457,7.457-7.215,3.569-13.03c-1.369-2.047-5.705-15.174-6.303-16.24c-1.75-3.121-1.75-6.123-3.002-9.088
			c-1.035-2.451-1.946-4.454-2.997-7.247l-3.009-8.002C507.371,790,506.194,787.285,505.044,784.252z M881.52,672.564
			c6.328-9.445,6.016-10.734,8.139-17.149c1.281-3.871,4.243-7.268,1.604-11.623c-0.022,3.44-1.737,5.108-2.785,7.667l-5.552,13.553
			C881.807,667.74,880.16,670.153,881.52,672.564z M327.891,876.349c1.184-4.383,1.809-8.125,2.734-11.889l3.178-12.929
			c2.586-10.523,3.815-14.346,5.863-25.389c0.797-4.296,2.635-7.998,3.05-12.913c0.354-4.182,4.947-9.032,1.461-13.691
			c-1.648-2.203-8.667-20.247-11.564-25.228c-3.004-5.163-4.777-10.409-7.241-15.744l-13.595-29.432l-3.212-7.51l-2.695-6.411
			c-1.196-2.845-2.89-5.721-4.234-8.652l-17.657-38.499l-4.058-8.839l-3.333-7.663c-1.116-2.566-0.793-5.107-4.873-5.337
			c1.933,2.881-6.72,53.051-6.704,49.816l-0.046,8.918c0.026-4.989-5.563,35.232-6.129,31.981
			c1.938,11.134-3.423,17.014-3.31,31.873c0.043,5.692,3.674,10.522,6.117,15.447l27.521,55.476
			c1.839,3.706,3.207,6.69,4.995,10.358l9.103,18.676l9.314,18.583l6.324,12.773c0.492,0.995-0.313,3.649,1.043,2.389
			c0.53-0.493,2.014-0.568,2.195-1.468l2.665-13.262L327.891,876.349z M536.736,830.449l11.779-11.049l79.07-72.742l16.641-15.488
			c3.783-3.521,6.846-8.071,12.604-9.818c-4.118-5.296-9.798-3.044-14.399-4.913c-4.556-1.851-8.561-2.129-13.222-2.963
			c0.461,0.082-33.378-7.163-29.915-5.784l-6.385-2.542c6.099,2.428-30.859-5.825-28.68-5.395l-13.259-2.616
			c5.959,1.176-36.28-8.148-26.2-5.142l-9.676-2.885c2.379,0.709-25.175-4.587-27.724-5.44c-4.641-1.552-10.251-0.965-15.147-3.206
			c-1.45,3.417,4.314,14.513,5.91,19.347l2.971,8.996c0.503,1.522,4.82,11.315,6.13,14.745l3.317,8.683l3.174,8.831
			c1.54,4.284,15.165,40.637,15.643,41.468c1.079,1.875,6.909,18.201,8.378,21.941l2.831,7.206
			c3.01,7.663,6.327,16.303,9.372,23.072C532.546,836.67,535.281,831.814,536.736,830.449z M234.709,869.023
			c3.001-3.035,0.149-5.942,1.401-7.809c2.673-3.987,2.477-19.89,3.248-21.833c2.635-6.642,1.883-12.768,3.165-19.259
			c1.467-7.428,2.274-14.423,3.144-21.856c0.759-6.48,2.992-12.262,2.784-19.069c-0.118-3.854,1.745-7.237-2.588-10.327
			c-7.333-5.229-14.568-11.308-22.407-16.201c-1.845-1.152-2.879-2.332-4.619-3.638l-59.467-44.616
			c-1.709,3.979,2.169,5.47,3.08,8.168c3.94,11.672,9.448,22.178,14.608,33.11l6.132,12.991c3.538,7.496,5.586,12.363,9.105,19.926
			l2.851,6.127l3.384,7.539l25.901,55.291L234.709,869.023z M826.661,798.274c-2.591,5.474-3.922,10.918-6.665,15.821
			c-1.434,2.563-4.342,6.162-0.212,8.411c-0.734-3.375,1.772-4.453,2.452-6.197l3.32-8.517l11.234-25.341
			c0.943-2.128,1.737-3.804,2.701-6.196l8.532-21.166l5.8-13.039c0.806-1.813,6.398-15.046,6.296-14.867
			c1.359-2.388,4.597-14.177,7.199-17.275c-0.309-2.166-1.489-2.411-1.216-0.072c-6.803,6.674-11.951,25.018-16.877,35.577
			l-3.138,6.726c-3.378,7.241-3.629,11.853-6.568,16.434c-1.768,2.756-1.962,5.127-3.266,7.865l-3.211,6.745
			c-1.179,2.477-1.567,4.921-2.747,7.415L826.661,798.274z M614.478,821.008c4.371-2.584,9.2-1.144,13.488-2.353
			c4.928-1.389,10.858-2.944,15.977-2.802c1.964,0.054,5.714-3.128,5.817-4.941l0.908-15.883c0.212-3.712,1.374-6.747,1.911-10.266
			c0.74-4.849,0.61-9.844,1.059-14.764c0.343-3.762,1.673-6.513,1.985-10.003l1.254-14.009l0.367-11.878
			c0.099-3.199,2.975-6.182,1.27-9.243l-15.523,14.172l-34.942,31.972l-16.487,15.592l-25.39,23.555l-27.594,25.117
			c4.202-0.326,8.737,0.582,11.849-0.836c4.426-2.017,32.621-6.809,29.522-5.665l7.189-2.654
			C583.49,827.468,613.147,821.795,614.478,821.008z M717.146,803.892l8.799-1.003c1.274-0.145,2.286-1.56,2.134-2.389
			c-0.171-0.937-1.167-1.63-2.002-2.614l-15.552-18.31c-2.492-2.934-4.376-5.597-6.751-8.417l-23.255-27.614l-16.329-18.87
			c0.483,6.038-2.595,10.374-2.8,15.706l-0.669,17.375c-0.355,9.213-3.458,17.865-2.631,27.278
			c0.354,4.034-2.104,7.472-2.767,11.131c-1.004,5.537,0.116,11.144-0.398,16.654c5.427,1.128,9.549-2.199,14.451-2.481
			l12.183-0.699C676.324,809.939,713.936,804.258,717.146,803.892z M212.904,839.302c2.495-4.676-0.43-6.019-1.594-8.535
			l-24.959-53.954c-1.776-3.839-4.839-9.269-6.675-13.326c-1.153-2.549-0.975-4.848-3.28-7.085
			c-1.343-1.304,0.949-5.248-3.148-5.577c0.556,2.429,0.059,6.32,1.604,8.166c1.212,1.448,15.357,43.587,16.291,45.098
			L212.904,839.302z M298.248,900.081l8.319,3.172l10.034,3.647L296.72,866.2l-38.136-77.583c-1.432-2.913-2.401-5.128-5.151-8.265
			c-0.917,4.11-0.369,8.939-1.958,13.402c-2.495,7.01-1.163,12.938-2.96,20.999c-1.802,8.085-2.359,18.087-2.901,19.94
			c-1.839,6.284-2.451,11.869-2.997,18.264c-0.62,7.262-3.458,14.491-2.556,21.896c0.468,3.844,3.733,3.468,6.479,4.675l8.378,3.685
			L298.248,900.081z M658.812,898.429c7.43-0.94,24.82-5.357,29.434-6.083l10.517-1.657c4.43-0.698,23.256-5.945,29.119-6.007
			c-2.3,0.024,25.304-5.445,22.252-5.194c5.623-0.463,10.559-2.074,15.891-3.106c5.219-1.01,10.268-0.292,15.187-3.337
			c1.667-1.032,4.714,1.32,6.418-1.071l-51.765-62.594c-3.496-4.228-6.039-3.182-10.473-2.061
			c-5.693,1.438-12.312,0.733-18.384,2.679c-5.86,1.878-12.058,1.272-17.685,2.512c-6.702,1.477-12.424,2.605-19.457,2.906
			c-4.297,0.184-9.915,3.231-14.467,2.844c-1.523,1.127-3.575,4.805-3.41,6.686c0.918,10.505-2.113,19.803-2.765,30.076
			l-0.887,13.967c-0.296,4.663-1.837,8.464-2.144,13.09l-0.695,10.479c-0.167,2.521,0.123,5.914,0.181,8.3
			C650.703,901.816,654.199,899.013,658.812,898.429z M363.944,925.346l8.021,2.751l35.104,14.276
			c2.643-2.321,0.071-5.225-1.036-7.29c-1.403-2.617-2.457-5.561-3.715-8.257l-6.747-14.458l-11.979-25.837
			c-1.765-3.808-4.009-9.138-6.104-13.743L358.974,832.1c-1.796-3.946-5.049-11.419-6.607-14.39
			c-1.036-1.975-1.415-6.356-5.037-5.277c-0.358,7.773-3.61,17.968-5.594,26.101l-3.146,12.901
			c-0.522,2.141-5.553,23.426-5.192,22.906c-2.652,3.822-1.618,7.674-2.805,11.645c-1.402,4.694-2.573,8.565-3.316,13.801
			c-0.376,2.648-4.97,7.398-1.278,10.303c3.394,2.67,15.84,6.576,21.811,9.01l7.786,3.173L363.944,925.346z M530.27,922.843
			c12.579-3.414,14.703-2.417,25.925-5.488c4.577-1.253,9.507-0.647,13.922-2.266c2.949-1.081,41.611-7.015,47.866-8.318
			l13.037-2.715c2.825-0.588,6.567-0.143,8.112-2.853c3.339-5.858,0.658-12.958,2.131-19.221c2.133-9.074,3.41-17.447,2.757-27.1
			c-0.246-3.644,2.484-7.371,2.849-11.063c0.572-5.79-0.539-11.785,0.567-17.361c0.357-1.799,1.686-6.657-1.48-6.208
			c-3.267,0.464-7.664,0.177-10.667,1.17c-4.624,1.53-8.33,2.506-13.159,3.073c-4.947,0.581-9.391,3.336-14.747,2.891
			c-3.057-0.254-5.915,1.64-8.57,2.201c-4.676,0.989-9.258,0.605-13.778,2.514c-3.873,1.636-8.586,1.62-13.157,1.803
			c-4.864,2.91-10.206,2.89-15.74,3.367c-2.863,0.247-4.97,2.702-8.378,2.722c-4.571,0.028-12.491-0.146-15.015,4.432
			c-2.606,4.725-2.251,15.214-2.504,19.484l-0.956,16.082l-0.547,32.922C528.677,916.405,527.754,920.046,530.27,922.843z
			 M815.502,827.746c1.738-0.349,2.469-3.683,0.377-3.772C814.544,823.918,814.519,827.862,815.502,827.746z M216.505,844.427
			c0.257-2.241-0.649-3.397-0.884-5.547C214.821,840.341,213.804,843.13,216.505,844.427z M501.82,928.486
			c4.636-0.687,8.953-3.276,13.946-2.694c3.538,0.413,4.962-2.565,6.328-4.557c2.231-3.254,1.46-5.558,1.576-8.744l0.697-19.151
			l1.017-34.823c0.112-3.828,1.331-7.146,0.725-11.455l-12.144,11.004l-28.52,26.415l-34.314,31.645l-8.472,7.552l-19.119,17.918
			c5.335,1.799,10.85-0.715,16.704-2.146c4-0.978,7.793-1.315,12.036-2.141l17.587-3.423
			C478.837,932.141,492.563,929.858,501.82,928.486z"/>
	</g>
</g>
</svg>
