<?xml version="1.0" encoding="iso-8859-1"?>
<!-- Generator: Adobe Illustrator 30.1.0, SVG Export Plug-In . SVG Version: 9.03 Build 0)  -->
<svg version="1.1" id="Layer_1" xmlns="http://www.w3.org/2000/svg" xmlns:xlink="http://www.w3.org/1999/xlink" x="0px" y="0px"
	 viewBox="0 0 1000 1000" style="enable-background:new 0 0 1000 1000;" xml:space="preserve">
<g>
	<g>
		<path style="fill:#FEFEFE;" d="M623.275,927.741c-6.63-0.174-24.324,4.174-32.119,5.475l-16.275,2.716l-15.333,2.715
			c-9.65,1.709-23.798,5.268-33.445,5.858c-4.263,0.261-8.175,4.018-13.198,2.482c-3.498-1.07-13.524,5.126-22.142,3.356
			c-5.929-1.218-11.867,0.752-17.476-0.701c-9.202-2.384-17.903-1.823-27.364-2.757l-28.85-2.846
			c-6.797-0.67-13.346,0.185-20.047-1.132c-8.794-1.728-17.177-1.318-26.065-2.13l-11.838-1.082
			c-6.08-0.556-11.687-2.473-17.922-1.737l-29.892-22.29l-35.221-25.897l-12.927-9.899c-8.164-6.252-15.247-10.742-23.064-16.848
			c-7.307-5.708-14.248-11.061-21.771-16.352c-6.252-4.397-12.696-8.534-18.24-13.781c-5.074-4.802-7.357-11.872-11.646-17.208
			c-4.169-5.186-7.663-10.283-11.385-15.799l-36.595-54.243l-14.166-20.809l-14.115-21.026
			c-7.051-10.504-13.881-20.442-21.008-31.028l-34.148-50.715c-3.355-4.982-0.451-13.458-0.047-18.853
			c0.427-5.693-0.805-10.802,0.436-16c1.013-4.241,2.114-8.176,2.231-12.641l0.635-24.294c0.16-6.112,2.582-12.083,2.603-18.215
			c0.034-10.206,0.088-19.683,2.491-29.653c1.887-7.828-1.717-28.386,6.467-47.427c2.691-6.261,4.554-12.797,6.921-19.217
			l11.572-31.39c1.339-3.633,2.441-7.369,3.761-11.036l3.147-8.743c1.156-3.212,1.874-5.921,3.012-9.07l2.925-8.096l3.234-9.658
			l21.258-60.011l5.529-14.804l3.551-10.427c3.993-11.725,10.65-32.224,16.499-42.186l3.394-5.78
			c9.962-16.963,19.339-33.666,28.907-50.92l13.949-25.152c3.068-5.532,6.191-11.128,9.823-16.134
			c3.399-4.684,9.748-3.084,14.337-4.806c3.153-1.183,23.236-5.096,28.13-6.112l14.803-3.075c4.396-0.913,8.462-2.803,13.226-2.663
			c-0.332-0.01,20.283-4.612,21.95-4.957l13.191-2.731c4.509-0.934,9.26-1.12,13.601-2.565c4.161-1.385,7.723-3.221,12.444-2.46
			c2.786,0.449,5.58-2.934,8.021-2.71c5.43,0.499,9.457-1.733,14.38-2.623l17.617-3.182c6.107-1.103,11.937-2.452,18.05-3.353
			l10.514-1.549c5.466-0.805,10.648-2.242,15.984-3.166l17.935-3.106c5.294-0.917,10.035-1.875,15.288-2.843l17.566-3.234
			c5.651-1.04,11.197-0.862,16.53-2.449l9.055-2.696c-4.38,1.304,27.535-3.991,33.077-5.793c4.186-1.361,9.3-0.255,13.198-2.028
			c5.276-2.399,11.023-1.458,16.299-2.791c16.528-4.178,12.567-0.636,25.515-5.938c4.474,3.159,18.995,8.437,26.352,11.209
			l7.995,3.012l7.995,2.991c2.86,1.07,5.352,1.825,8.181,2.954l9.168,3.659L675.59,89.4c6.041,2.347,11.98,4.106,17.977,6.928
			c-3.516-1.655,18.424,7.056,15.03,5.9l9.697,3.303l8.608,3.406c2.755,1.09,5.18,2.046,7.919,3.163l7.771,3.167l8.027,2.996
			l8.002,3.001l7.914,2.945c3.387,1.26,4.435,3.22,6.254,6.119l14.651,23.351l6.894,10.195l10.059,15.741
			c3.953,6.187,8.062,11.815,12.081,18.023L848.24,246.7c4.805,7.421,9.907,14.277,13.738,22.187c1.4,2.89,2.178,6.594,3.268,9.557
			l3.224,8.767l16.735,46.705c1.139,3.178,2.084,6.614,3.507,9.465c1.474,2.952,1.599,5.377,2.822,8.482l3.348,8.498l3.562,10.379
			l3.21,8.805c1.189,3.261,8.673,23.94,8.936,25.359c0.485,2.618,2.441,5.497,3.349,8.305l2.701,8.348l3.816,10.18
			c2.179,5.814,4.06,11.076,6.037,16.998l3.244,9.719c1.806,5.409,4.534,11.219,6.409,16.471l10.494,29.394
			c0.63,1.764,2.652,2.34,2.673,4.199c0.025,2.23-1.58,3.298-2.427,5.373c-3.191,7.817-5.23,15.769-8.051,23.829l-3.048,8.711
			l-3.041,9.032c-1.068,3.172-1.939,5.961-2.954,9.205l-3.342,10.685c-1.615,5.161-4.13,12.527-6.004,17.932l-3.593,10.362
			c-1.097,3.163-2.1,5.899-3.059,8.996l-3.041,9.826c-0.984,3.179-1.87,5.875-3.016,9.013l-2.962,8.111l-3.128,10.935
			c-0.899,3.143-2.189,6.551-3.242,9.668l-3.524,10.437l-3.292,9.575c-1.031,2.999-1.847,5.496-2.821,8.443l-2.98,9.019
			l-3.322,10.687c-0.624,2.007-1.611,4.542-2.312,6.687l-10.118,30.94l-3.232,9.485l-3.146,9.793
			c-3.7,11.517-3.729,14.258-10.37,20.188l-51.146,45.668l-23.239,20.781l-35.349,31.677l-28.774,26.05
			c-4.131,3.74-13.137,1.482-19.726,4.393c-4.416,1.951-9.356,1.111-13.82,2.4c-4.068,1.175-28.113,5.513-33.064,6.117
			c-5.783,0.705-10.843,3.447-17.07,2.617C628.799,924.844,625.979,927.812,623.275,927.741z M478.555,147.877
			c-0.118,3.898-1.002,7.105-0.976,10.95c4.734-2.842,7.034-5.843,10.435-8.944l37.032-33.768
			c4.842-4.415,9.253-8.674,13.976-13.081l13.408-12.51c4.454-4.156,17.654-15.817,20.33-18.77c2.441-2.695,4.875-5.038,8.438-7.222
			c-6.048-2.062-11.499,0.593-17.464,2.025c-3.98,0.956-7.769,1.309-12.014,2.135l-17.588,3.422
			c-9.254,1.801-22.341,3.929-31.942,5.407c-4.706,0.724-8.863,3.162-14.065,2.745c-3.705-0.297-6.582,3.168-7.248,6.893
			c-1.48,8.29-0.997,16.8-1.258,25.469L478.555,147.877z M611.054,342.056c3.579-1.203,7.093,2.427,10.08,2.496
			c7.22,0.167,35.498,7.646,44.118,9.097l12.078,2.033c6.452,1.086,16.134,4.243,28.122,6.067c3.239,0.493,5.6,3.485,9.667,2.349
			c3.75-1.047,7.77,0.893,10.554,3.056c2.834-2.815,0.251-5.421-1.002-7.916c-6.29-12.527-11.385-24.863-17.172-37.443
			l-17.727-38.541L674.174,248.8l-14.376-31.604l-14.749-32.132l-3.275-6.587c-1.22-2.453-1.948-4.673-2.966-7.052l-3.27-7.64
			l-21.039-45.19l-5.801-13.366l-17.536-38.4c-0.467-1.022-2.347-3.88-3.788-2.542l-22.325,20.737l-29.089,26.946l-23.399,21.477
			c-7.089,6.506-13.448,13.173-20.582,19.573l-11.531,10.345c-4.281,3.841,0.051,9.166,1.592,13.368l3.184,8.682l3.078,7.959
			c1.23,3.179,1.219,5.397,2.959,8.357c1.214,2.066,1.924,5.347,2.899,7.855l3.347,8.615l15.547,40.676
			c1.917,5.014,4.742,11.996,6.362,16.458l3.253,8.961c0.993,2.734,2.075,5.838,3.213,8.634l3.448,8.477
			c-0.502-1.234,6.517,18.007,5.922,15.037c1.154,5.764,2.896,10.629,9.451,12.08c3.642,0.806,8.331,0.413,12.02,1.898
			c3.029,1.22,24.258,5.13,29.028,6.203c5.23,1.176,9.459,2.77,15.159,2.859C603.944,339.53,607.097,343.386,611.054,342.056z
			 M670.571,131.655c2.747-3.795,1.629-7.686,2.82-11.638c1.418-4.707,2.546-8.581,3.357-13.79
			c0.414-2.658,4.973-7.389,1.254-10.327c-3.32-2.622-15.92-6.597-21.814-8.997l-7.778-3.168l-8.013-3.002l-8.943-3.075
			l-34.634-14.194c-2.618,3.248,0.235,5.404,1.389,7.905l17.264,37.405l6.977,15.712l24.259,53.011
			c0.852,1.861,5.999,12.578,5.907,13.952c-0.104,1.558,4.003,3.212,3.983,1.481c-0.054-4.576,4.403-20.161,5.68-25.435
			l3.132-12.933C665.914,152.491,671.001,131.061,670.571,131.655z M368.998,184.45c4.798-1.688,8.361-2.294,12.852-2.921
			c4.988-0.697,9.402-3.291,14.767-2.923c3.065,0.21,5.9-1.546,8.587-2.208c4.559-1.123,9.378-0.33,13.721-2.58
			c3.779-1.958,8.984-0.603,13.021-2.156c5.286-2.033,10.38-2.22,15.878-3.21c4.844-0.872,8.716-3.356,14.255-2.651
			c3.195,0.407,6.396-2.556,10.004-2.869c-1.139-4.38,1.466-7.397,1.537-11.219l0.177-9.622c0.103-5.605,0.849-10.661,0.927-16.083
			l0.466-32.043c0.054-3.683,0.855-7.059-0.617-10.922c-3.578-0.225-7.079,2.109-10.725,2.53
			c-5.587,0.644-10.652,1.551-16.046,3.066c-4.565,1.282-9.509,0.642-13.919,2.269c-2.934,1.083-41.624,7.02-47.866,8.32
			l-13.037,2.715c-2.825,0.588-6.567,0.143-8.111,2.853c-3.339,5.858-0.658,12.958-2.131,19.221
			c-2.133,9.074-3.409,17.447-2.758,27.1c0.246,3.645-2.483,7.372-2.846,11.051c-0.574,5.813,0.529,11.826-0.558,17.326
			c-0.366,1.848-1.703,6.7,1.467,6.257C361.275,185.3,365.759,185.59,368.998,184.45z M761.364,153.044
			c0.675-7.557,3.756-15.071,2.383-22.677c-0.542-3.005-3.506-2.629-5.488-3.651c-3.102-1.6-5.984-2.666-9.164-3.909l-43.734-17.098
			l-7.947-2.936c-3.16-1.167-6.561-2.239-9.878-3.372l46.277,94.642c5.381,11.005,10.342,21.152,16.52,32.379
			c1.52-4.946,0.379-10.258,2.384-14.794c2.033-4.599,1.176-13.594,2.756-20.385c0.844-3.626,1.741-6.301,1.808-10.354
			C757.419,172.443,760.149,166.636,761.364,153.044z M727.72,355.187c1.075,2.365,1.198,4.863,4.678,4.384
			c-2.023-3.434,6.608-52.647,6.592-49.61l0.047-8.918c-0.026,5.003,5.573-35.297,6.13-31.987
			c-1.267-7.529,0.963-14.078,2.511-21.305c2.724-12.715-0.506-16.779-5.556-26.622l-3.157-6.153l-12.713-26.199l-15.547-31.359
			l-8.299-16.866l-10.623-21.091l-6.749-13.608c-0.35-0.933,0.399-3.675-0.978-2.368c-0.537,0.51-2.02,0.558-2.192,1.462
			l-2.247,11.834l-3.424,12.519c-1.482,5.416-5.079,22.537-6.01,25.171c-1.661,4.7-4.775,19.563-5.851,25.389
			c-0.793,4.295-2.636,7.998-3.05,12.912c-0.352,4.181-4.949,9.033-1.46,13.69c1.318,1.759,9.144,20.893,11.838,25.918
			c2.836,5.289,4.875,10.338,7.29,15.729l17.291,38.592l6.52,13.568L727.72,355.187z M262.017,189.431
			c11.883,14.321,10.234,10.296,16.44,9.165c6.092-1.111,12.337-0.746,18.54-2.62c5.872-1.774,12.039-1.278,17.682-2.493
			c6.7-1.442,12.421-2.61,19.457-2.898c4.292-0.176,9.917-3.235,14.468-2.843c1.521-1.129,3.572-4.804,3.408-6.684
			c-0.918-10.507,2.113-19.805,2.765-30.078l0.887-13.967c0.296-4.663,1.837-8.464,2.144-13.09l0.695-10.48
			c0.167-2.513-0.12-5.924-0.188-8.33c-5.338-0.864-9.013,2.04-13.503,2.574c-7.016,0.834-20.751,4.389-27.626,5.581l-11.945,2.071
			c-5.343,0.926-23.445,5.929-29.123,5.981c2.281-0.021-25.298,5.443-22.252,5.193c-5.623,0.461-10.56,2.077-15.89,3.105
			c-5.225,1.007-10.262,0.302-15.183,3.33c-1.651,1.016-4.552-1.151-6.208,0.827c4.24,6.678,9.225,11.997,13.922,17.666
			l9.585,11.568L262.017,189.431z M809.861,275.643l35.065,25.992c0.372-4.983-2.95-7.547-4.36-11.285
			c-3.947-10.462-8.849-20.093-13.584-30.209l-12.81-27.362l-20.974-44.938l-3.696-8.031c-0.967-2.101-1.213-3.859-2.461-5.797
			c-3.26-5.06-4.945-10.928-7.655-16.445l-10.161-20.684c-2.781,2.703-0.105,5.868-1.375,7.891
			c-2.604,4.144-2.457,19.942-3.208,21.843c-2.626,6.646-1.889,12.765-3.162,19.261c-1.456,7.43-2.297,14.413-3.138,21.859
			c-0.731,6.475-3.087,12.247-2.747,19.076c0.179,3.599-1.962,6.769,2.045,9.855l12.85,9.896l14.113,9.801
			C793.267,262.384,800.975,269.056,809.861,275.643z M109.466,380.722l-3.525,8.041c-3.087,7.042-3.182,7.976-5.835,14.365
			l-23.344,56.205c16.032-8.072,22.649-15.413,37.718-23.853c6.69-3.747,12.224-8.147,18.761-12.469l106.937-70.7l8.373-5.808
			l43.699-28.221l25.727-17.257l16.935-11.089c1.125-0.737,2.171-1.558,2.17-2.477c-0.001-0.813,0.037-2.086-0.763-2.743
			c-3.504-2.879-5.324-6.502-8.174-9.887l-50.283-59.721l-64.342-76.977c-2.991,1.571-3.627,5.056-5.084,8.284
			c-4.119,9.121-7.984,17.994-11.785,27.158l-9.063,21.848l-2.796,6.084c-1.153,2.509-2.062,4.718-2.973,7.033l-3.422,8.702
			l-21.905,52.119c-2.433,5.788-3.801,8.666-6.327,14.641l-14.87,35.174c-5.469,12.935-7.198,19.472-13.282,31.748
			C116.242,362.562,114.582,369.053,109.466,380.722z M788.383,167.136c0.937-1.652,1.744-5.205-1.232-5.246
			C787.718,163.656,787.944,165.013,788.383,167.136z M823.186,230.641c-1.854-5.042-5.392-14.495-6.856-19.115l-2.895-9.131
			l-22.666-36.036c-2.175,4.246,0.837,6.538,2.237,9.544l30.834,66.219c1.36,2.92,1.795,5.551,3.868,8.258
			c1.197,1.563-0.489,5.389,3.695,4.603l-1.938-7.383C831,253.447,822.198,227.957,823.186,230.641z M347.114,260.01l-0.349,11.871
			c-0.091,3.088-2.828,5.52-1.45,9.198c0.818-1.073,2.538-1.177,3.493-2.26c5.907-6.701,12.737-11.765,19.297-17.84l27.451-25.423
			l11.909-11.197l40.614-37.262l17.491-16.252c-4.363,0.039-8.799-0.666-11.997,0.737c-4.529,1.987-32.713,6.821-29.524,5.644
			l-7.189,2.654c3.756-1.387-26.028,4.39-26.988,4.974c-4.275,2.602-9.287,1.333-13.788,2.492c-5.63,1.45-10.924,3.147-17.068,2.731
			c-1.821,0.477-3.437,2.809-5.254,3.917c1.24,11.207-1.058,18.053-2.35,27.243C351.539,220.338,347.038,262.604,347.114,260.01z
			 M516.623,322.373c4.327,1.535,9.64,0.537,14.829,3.317c1.71-4.868-1.187-8.344-2.723-12.266l-3.057-7.807l-2.755-8.388
			l-3.484-8.416l-12.57-32.664l-3.336-9.415l-2.808-7.345c-3.325-8.698-6.156-16.733-9.602-25.316l-3.397-8.458
			c-2.342-5.832-3.429-9.647-5.84-15.427l-3.245-7.781c-0.457-1.096-4.23-11.385-4.165-11.376c-0.917-0.128-2.361-0.381-3.123,0.346
			l-17.879,17.053l-18.481,16.603l-25.286,23.727l-49.429,45.43c-4.102,3.77-7.505,8.081-12.977,10.61
			c4.01,4.999,9.696,2.939,14.27,4.768c4.567,1.826,8.56,2.128,13.226,2.958c-0.464-0.083,33.329,7.143,29.914,5.791l6.396,2.532
			c-6.16-2.439,30.89,5.837,28.662,5.396l13.262,2.621c-4.163-0.823,35.475,8.114,27.092,5.171l7.951,2.792
			C482.693,314.942,515.246,321.884,516.623,322.373z M188.499,182.286c0.963-1.658,0.509-2.693,0.331-4.331
			c-0.931,0.501-1.669,1.075-1.791,1.687C186.907,180.309,186.402,182.075,188.499,182.286z M152.106,267.595l2.554-6.97
			c1.438-3.923,5.555-9.95,6.766-16.415c-0.213,1.135,12.935-29.61,13.901-31.831l3.025-6.952c1.014-2.332,2.365-4.458,3.158-6.953
			l1.925-6.062c0.934-2.94,4.105-5.292,1.581-9.108l-3.36,6.104c-1.459,2.651-1.899,5.247-3.087,8.005l-13.557,31.48
			c-3.206,7.444-5.805,14.799-9.012,22.022l-5.793,13.046c-1.444,3.253-6.779,15.978-6.899,16.213
			c0.663-1.295-9.281,22.221-5.755,17.539C142.267,292.293,149.686,274.201,152.106,267.595z M328.758,268.727
			c3.836,4.593,6.303,9.113,11.27,12.383c-0.958-5.674,2.391-10.237,2.59-15.474l0.661-17.398c0.336-8.852,3.532-17.215,2.61-26.263
			c-0.453-4.441,1.943-8.131,2.763-12.154c1.116-5.478-0.16-11.171,0.439-16.624c-5.479-1.233-9.537,2.135-14.47,2.427
			l-12.238,0.724c-6.841,0.405-13.169,3.461-20.215,2.45c-4.756,3.108-9.837,3.253-15.21,3.286
			c-3.022,0.019-5.756,1.297-8.894,1.028c-1.397-0.119-2.215,1.486-2.152,2.381c0.077,1.089,1.262,1.547,2.089,2.551l15.359,18.633
			l16.94,19.948L328.758,268.727z M912.392,423.423l-3.304-9.361c-4.725-13.389-8.272-22.193-13.1-36.09l-8.963-25.796
			c-1.293-3.721-8.429-23.345-9.282-24.85c0.673,1.188-5.109-15.221-5.554-16.433l-8.708-23.681
			c-2.153-5.856-4.937-11.118-6.713-16.907c-2.26-7.366-7.062-12.874-10.941-18.973l-19.726-31.018
			c-3.152,2.913,0.39,5.153,0.998,7.518c0.878,3.416,2.414,6.158,3.461,9.429l3.377,10.55c1.047,3.271,2.151,6.546,3.341,9.628
			l3.067,7.945c1.244,3.222,1.122,6.223,2.789,9.436c1.244,2.397,2.081,5.254,3.022,7.931l9.126,25.952
			c1.298,3.693,11.621,25.471,14.169,30.959l23.124,49.804l24.431,53.062c3.087-3.908-0.047-6.96-1.218-10.076L912.392,423.423z
			 M844.927,431.745c0.352-6.52,0.515-11.591,0.674-17.193l0.864-30.377c0.106-3.722,2.315-6.93,1.693-11.224
			c-0.92-6.349,0.633-12.618,0.688-18.831l0.264-30.1c2.229-3.719,2.726-10.889-1.033-13.959
			c-9.821-8.022-19.694-14.777-29.838-22.342l-41.193-30.716c-2.63-1.961-5.038-3.22-7.489-5.669
			c-2.77-2.768-7.218-3.62-9.287-8.156c-3.175,2.83-0.368,4.22,0.477,6.143l9.438,21.491l18.86,41.083
			c4.81,10.477,8.962,19.947,13.547,30.154l11.591,25.802l23.234,51.624c0.962,2.138,1.861,4.092,2.883,6.086
			C841.604,428.106,841.238,431.206,844.927,431.745z M776.947,396.437l17.519,11.179l44.179,28.906
			c1.236-3.49-0.909-5.422-2.071-7.987l-31.527-69.572l-34.763-77.109c-2.469-5.476-3.22-7.286-5.559-12.444l-3.77-8.313
			c-2.486-5.482-5.291-10.117-7.611-16.248c0.271,4.981-2.357,9.356-2.909,14.3c-0.763,6.837-1.596,13.246-3.141,19.961
			c1.697-7.377-3.242,24.068-2.736,20.304l-2.271,16.896c-1.536,11.429-5.896,30.902-5.611,41.545
			c0.079,2.941-4.367,8.636-0.815,11.377L776.947,396.437z M832.445,259.982c0.889-2.363,0.972-3.495-0.184-4.064
			C831.843,257.705,831.651,258.929,832.445,259.982z M718.196,368.905c-4.618,1.709-7.57-2.225-11.219-2.5
			c-5.911-0.447-10.628-0.866-16.009-3.166c-3.26-1.394-8.6,0.071-11.641-1.649c-4.366-2.469-8.825-1.809-13.26-3.046
			c-5.446-1.518-10.063-2.737-16.063-3.055c-2.956-0.157-5.94-4.258-10.087-2.504c-3.641,1.54-7.032-2.384-9.972-2.537
			c-5.843-0.304-10.761-1.578-16.233-2.853l-12.91-3.008c-5.696-1.327-11.183-1.977-16.895-3.243l-13.124-2.909
			c-5.023-1.113-10.196-1.039-14.932-3.34c-2.741-1.332-6.13-0.341-8.79-1.274c-5.623-1.972-10.94-2.461-16.717-3.435
			c-3.434-0.579-6.215-3.699-10.458-2.393c-3.512,1.081-6.836-2.59-9.942-2.668c-5.352-0.133-9.458-1.036-14.282-2.84
			c-4.181-1.564-9.347-0.251-13.608-2.641c-3.397-1.906-8.104-0.592-11.819-2.174c-4.591-1.955-9.28-2.002-13.996-3.136
			c-5.327-1.28-10.235-3.014-15.98-2.758c-1.95,0.087-4.347-3.263-6.056-2.796c-5.418,1.478-9.092-1.777-13.427-2.315
			c-7.604-0.943-21.113-4.073-29.369-5.87l-15.663-3.408c-3.529-0.768-7.619-0.23-11.146-1.951
			c-4.868-2.376-9.991-2.202-15.186-2.807c-1.029-0.12-1.968-1.846-2.95-1.77c-5.105,0.393-0.105,13.542,0.316,16.126
			c0.962,5.901,0.516,11.637,0.757,17.482l0.797,19.374c0.095,2.314,2.546,4.263,1.822,7.148c-1.184,4.722,0.866,9.342,0.774,13.882
			c-0.153,7.572,0.098,14.03,1.768,21.273c1.77,7.678,0.766,25.072,2.395,32.405c1.305,5.87,4.613,4.963,8.795,5.796l17.596,3.508
			c4.258,0.849,7.708,2.299,12.342,2.705c5.017,0.439,9.453,3.187,14.868,2.911c2.934-0.15,6.049,3.101,9.218,2.569
			c5.046-0.848,8.944,1.109,13.365,2.526c4.011,1.285,8.8,0.265,12.716,2.452c3.902,2.179,8.827,1.013,12.667,2.449
			c4.891,1.828,8.963,2.878,14.482,2.725c3.374-0.094,7.106,3.579,10.792,2.672c4.075-1.003,6.993,2.466,10.157,2.628
			c3.755,0.192,40.951,7.91,44.196,9.039c3.993,1.389,8.632,1.5,12.845,2.256c4.263,0.766,7.543-2.588,11.066-4.456l74.527-39.525
			l43.289-22.784l37.252-19.911c2.444-1.306,4.586-3.206,7.648-3.432C723.544,371.001,720.128,368.191,718.196,368.905z
			 M305.094,429.334c7.084-1.301,12.994-2.941,20.001-2.478c4.661,0.308,9.057-2.759,13.943-2.909
			c3.169-0.097,7.944,1.037,10.116-1.826c2.212-2.915,0.466-7.7-0.027-11.14c-0.954-6.648,0.977-13.43-0.429-19.867
			c-2.22-10.158-3.009-19.675-2.835-30.202c0.112-6.747-1.622-13.484-2.635-20.159c-0.983-6.482,0.767-13.147-0.651-19.533
			c-1.013-4.562-1.963-8.366-1.725-13.309c0.172-3.578-1.808-7.075-0.716-11.039c0.329-1.195-0.736-3.976-1.637-3.554
			c-4.959,2.322-9.025,5.87-13.386,8.721l-21.827,14.269l-29.567,19.398c-4.86,3.188-9.658,6.041-13.669,10.391
			c-5.646,1.597-9.684,5.281-14.499,8.456l-42.455,27.99l44.01,49.283c3.527,3.949,7.401,6.721,13.067,3.987
			c3.949,0.543,8.369,0.079,12.159-1.499C274.155,433.555,300.401,430.196,305.094,429.334z M939.202,501.907l-21.85-48.448
			c-1.109-2.46-3.482-4.248-3.145-7.514c-2.667-1.88-2.596-4.94-3.857-7.402l-2.691-5.258c-2.635-5.149-4.498-9.997-6.881-15.133
			l-20.911-45.051l-12.237-25.689l-9.079-18.935c-1.188-2.478-0.78-5.674-4.52-6.332c-0.501,9.238-0.248,18.224-0.529,27.431
			l-0.768,25.148c-0.166,5.428-1.779,10.766-1.651,16.195c0.094,3.993-0.726,7.391-0.806,11.186l-0.683,32.45
			c-0.054,2.588-1.102,4.723-0.493,7.608c0.526,2.49,16.25,11.498,19.332,13.528l18.686,12.307L939.202,501.907z M125.022,332.088
			c1.355-0.045,0.961-1.427,0.992-2.494c0.015-0.528,0.173-2.059-0.984-1.149c0.121,1.55-0.862,1.747-1.045,2.095
			C123.757,330.97,123.962,332.123,125.022,332.088z M112.407,361.913c0.634-3.918,2.203-5.084,3.132-7.354l5.82-14.209
			c1.046-2.553,2.677-4.998,1.11-7.496c-0.21,2.842-2.615,4.179-3.501,5.998l-3.501,7.182c-1.489,3.054-0.852,5.674-2.955,8.514
			C111.084,356.475,112.102,360.075,112.407,361.913z M109.406,368.977c0.932-2.949,1.023-4.616-0.001-6.06
			C108.689,365.316,108.74,367.17,109.406,368.977z M553.955,669.253c-0.014,1.905,1.33,3.211,1.421,5.054
			c6.884-3.848,13.527-7.423,20.514-11.42l16.578-9.482l74.922-40.977l58.49-32.456l0.703-63.469l0.844-36.178
			c0.17-7.271,1.107-14.033-0.525-21.368c-0.708-3.181,2.01-7.696,0.693-10.439c-1.867-3.888,1.001-5.917,1.01-8.977l0.205-65.49
			l-28.345,15.425c-4.402,2.395-9.187,3.809-13.299,6.729l-28.153,14.81l-33.154,17.906l-52.881,28.149
			c-4.861,2.588-9.056,5.642-14.267,7.654c-2.747,1.061-4.893,2.99-4.677,6.383c0.39,6.125-0.882,12.617,0.359,18.539
			c1.495,7.135-0.037,13.619-0.045,20.751l-0.104,88.292c-0.004,3.084,0.189,5.515,0.166,8.607L553.955,669.253z M760.463,735.982
			l22.359-28.195l37.422-46.529l34.449-42.602l29.756-37.226l13.496-16.557l37.859-47.091c1.934-2.406,5.877-5.808,4.833-9.167
			l-30.483-19.746l-42.426-27.584l-36.23-23.758l-24.292-15.891l-16.296-10.625c-9.416-6.139-18.723-11.691-28.005-17.962
			l-10.186-6.882c-5.815-3.929-10.709-8.681-18.507-11.758l-0.407,76.426l-1.532,12.436l-0.73,30.321l-0.843,96.277l0.017,8.163
			c0.013,5.977-0.427,11.833-0.655,17.977l-0.519,13.96c-0.17,4.573,0.005,8.339-0.242,13.034l-0.86,16.343l-0.747,73.357
			c-0.078,7.661-0.187,14.693-0.372,22.556l-0.207,8.769c-0.098,4.148,1.324,8.076,1.218,11.529
			c3.364-3.526,5.205-5.914,7.453-8.941C743.556,756.151,752.041,746.603,760.463,735.982z M152.497,492.415l9.667,2.988
			c5.967,1.845,34.552,11.229,38.044,12.856c2.009,0.936,6.889,1.615,8.009,0.013c3.796-5.426,6.983-10.979,10.362-16.706
			l14.425-24.446l15.815-27.06l-21.331-23.529l-11.395-12.663l-13.648-14.266c-1.156-1.209-1.713-2.803-3.355-3.16
			c-1.193-0.26-2.699,0.644-4.074,1.55l-23.002,15.166l-69.684,45.981l-19.468,12.822c-2.478,1.632-5.73,2.038-5.987,6.212
			c3.864-1.418,6.401,1.726,9.461,2.264c8.524,1.5,13.935,4.944,18.064,5.888c3.526,0.806,5.923,1.89,9.236,2.912l11.406,3.515
			l9.587,3.399l8.319,2.712C146.051,489.874,149.34,491.439,152.497,492.415z M295.987,539.975c3.179-1.101,5.151,2.118,7.403,2.363
			c3.858,0.419,6.464,2.128,9.791,3.103c3.578,1.049,6.825,1.618,10.282,2.919l10.176,3.83c3.138,1.181,6.151,1.415,9.36,2.694
			l9.224,3.677c2.655,1.058,6.136,0.51,8.615,2.934c2.616-5.252,1.058-9.942,0.548-14.756l-2.188-20.66l-0.897-14.05
			c-0.971-15.209-2.131-18.371-3.019-32.005l-1.104-16.959c-0.382-5.861-0.732-11.569-1.958-17.337
			c-1.112-5.226,1.028-11.391-0.815-16.13c-1.39-3.576-6.856-0.215-9.196-0.649c-4.417-0.82-7.921,0.944-11.394,1.451
			c-9.111,1.33-17.822,2.252-26.799,4.447c-3.51,0.858-6.758-0.045-10.347,1.806c-1.672,0.862-19.588,1.656-19.422,1.581
			c-17.165,7.782-15.955-4.523-25.144,10.893l-36.758,61.665c3.02,2.386,7.205,4.429,12.081,4.573
			c2.365,2.854,6.109,1.982,8.921,3.341c0.716,0.346,16.55,5.716,18.667,6.404l9.007,2.924
			C264.326,529.104,296.498,539.798,295.987,539.975z M537.993,466.07c-5.114-2.686-10.196-3.094-15.89-3.263
			c-2.481-0.074-4.411-2.908-7.078-2.833c-5.036,0.143-9.993,0.27-14.178-3.203c-5.44,1.546-10.065-1.462-15.045-2.296
			c-4.995-0.836-9.481-0.865-14.33-2.856c-4.203-1.725-9.129-1.104-13.53-2.508c-6.705-2.139-13.742-3.26-20.869-4.148
			c-4.878-0.608-9.439-3.468-14.238-3.462c-4.852,0.005-8.65-2.416-12.976-2.861c-5.291-0.544-9.961-2.267-15.061-3.056
			c-5.381-0.832-9.869-1.305-15.074-2.998c2.389,0.777-23.355-5.346-22.18-4.437c-3.137,6.944,2.109,36.552,2.12,36.953
			l0.608,22.461c0.097,3.597,2.398,5.359,2.5,15.485c0.1,9.943,1.162,19.065,2.058,28.99l0.991,10.972
			c0.515,5.703-1.013,11.392,1.516,16.969c3.337,0.339,5.762-2.055,8.944-3.742l124.001-65.738l18.197-9.984
			c1.606-0.881,3.292-1.197,4.929-2.15c6.321-3.678,12.906-6.607,19.105-11.336C541.396,464.9,539.271,466.741,537.993,466.07z
			 M920.683,449.771c0.325-2.269,1.074-4.087-0.567-6.361C917.901,445.182,919.518,447.524,920.683,449.771z M497.084,642.789
			c3.061,1.863,5.61,3.549,8.713,5.412l17.464,10.485c4.654,2.794,22.254,15.743,26.76,14.279l-0.095-143.733
			c-0.003-4.584-2.422-8.859-1.738-13.142c0.617-3.86,2.039-31.119,1.156-33.421c-1.48-3.858,0.885-8.071-0.978-12.223
			c-5.157,2.527-9.687,4.412-14.067,6.885c-10.842,6.122-21.42,11.654-32.455,17.499l-33.934,17.975l-12.445,6.766l-84.392,44.822
			c0.884,2.928,2.985,3.364,4.946,4.534l20.114,12.012l19.73,12.348l17.974,10.881l17.4,10.727L497.084,642.789z M143.258,633.543
			l39.734-76.43l11.913-24.441c1.319-2.707,10.119-15.966,9.073-18.11c-0.465-0.954-14.417-5.228-18.131-6.449l-10.319-3.394
			c-3.015-0.992-6.021-2.015-8.951-2.999l-8.978-3.015l-10.596-3.5l-10.671-3.304l-8.768-3.199c-3.153-1.15-6.089-1.663-9.403-2.779
			l-9.657-3.252c-11.947-4.023-20.2-6.627-32.677-11.005c-2.18,1.292-0.115,4.364,0.497,5.795l3.012,7.032
			c1.736,4.052,1.969,8.173,3.792,12.191l3.127,6.892l2.806,9.263l3.252,8.62l2.57,7.618l13.076,35.938l3.251,9.483
			c4.065,11.856,8.187,21.883,12.342,33.78l3.38,9.678l3.475,9.503c2.086,5.705,4.474,13.857,7.198,17.221
			C140.216,640.536,141.231,637.441,143.258,633.543z M110.915,586.865c-4.931-13.683-8.293-22.614-12.948-35.59l-6.345-17.684
			c-0.963-2.683-8.745-23.489-8.497-22.619c-1.816-6.376-4.092-12.241-6.529-18.489c-1.583-4.057-1.36-8.836-5.472-11.61
			c-0.653,5.212,0.172,10.035-0.373,15.028l-1.079,9.877c-0.528,4.832-2.332,9.2-1.761,14.233
			c1.084,9.551-1.131,18.523-1.433,27.869c0.032,4.465,4.91,8.678,7.384,12.181l24.04,34.041l10.176,13.645l17.347,24.346
			c2.357-3.244-0.795-5.681-1.692-8.587l-3.083-9.988l-3.578-9.436c-1.205-3.176-2.252-6.38-3.39-9.537L110.915,586.865z
			 M275.448,696.694c-0.199,2.331,2.262,4.543,3.791,3.988L355.65,575.94c1.8-2.938,3.981-5.025,5.451-8.074
			c-2.047-3.491-6.063-3.321-9.396-4.622c-5.128-2.002-17.855-5.778-20.028-6.938c-3.471-1.854-6.793-1.688-10.251-3.009
			c-7.924-3.027-9.417-3.382-17.004-5.959l-8.897-3.023l-26.989-8.646c-2.697-0.864-35.21-11.918-35.151-11.891
			c-0.213-0.094-17.862-5.077-19.961-7.238c-1.707,0.647,4.199,15.463,4.728,17.066l2.963,8.982l3.137,8.818l3.187,8.788
			c0.888,2.449,1.468,4.668,2.332,6.947l7.663,20.209c1.545,4.074,2.634,8.349,4.015,12.38l3.31,9.657l2.962,8.133
			c1.155,3.171,1.937,5.872,3.055,9.047l3.064,8.703c2.415,6.857,5.042,13.056,7.056,20.019
			C262.333,660.254,275.556,695.421,275.448,696.694z M215.065,805.155l14.85-24.278c5.518-9.021,10.818-17.583,16.405-26.617
			l25.961-41.978c1.75-2.83,2.643-6.103,0.495-9.151c-1.419-2.013-4.815-13.827-6.192-17.808l-3.345-9.671l-3.167-8.757
			c-1.004-2.775-1.569-5.022-2.507-7.658l-6.792-19.082l-2.996-8.191c-1.102-3.014-2.52-6.308-3.51-9.316l-2.97-9.028
			c-1.011-3.073-2.117-5.177-2.788-8.469c-0.845-4.143-5.195-7.664-5.181-12.341c0.009-3.119-7.95-24.961-9.6-29.243l-3.064-7.951
			c-0.479-1.244-4.289-13.112-5.557-16.558l-3.503-9.516c-1.346-3.658-1.168-7.902-5.521-9.967c0.653,3.71-1.588,5.437-2.63,7.835
			c-6.296,14.488-18.124,33.521-25.64,50.354c-2.795,6.261-6.136,11.781-9.341,17.802l-13.875,26.069l-11.653,23.174
			c-2.421,4.815-3.925,8.299-1.833,13.142c6.317,14.623,11.847,31.804,17.346,47.311l2.885,8.136
			c2.536,7.152,3.53,9.888,6.226,17.019l5.23,13.831c1.004,2.656,1.785,4.885,2.658,7.456l3.284,9.666
			c1.261,3.713,7.622,19.723,7.845,20.838c0.746,3.727,4.888,14.583,6.375,18.737l3.165,8.84c1.182,3.303,4.495,15.953,7.973,15.183
			C203.036,822.614,213.32,808.007,215.065,805.155z M902.601,631.46l3.479-9.521l2.723-8.292l3.642-11.343
			c0.967-3.013,2.004-6.085,2.973-8.982l3.294-9.847l3.076-9.808c1.867-5.952,4.606-13.064,6.075-18.057l2.943-10.001
			c0.991-3.367,2.36-6.422,2.932-10.02c0.634-3.987,3.816-7.176,2.962-11.862l-14.584,18.569l-19.112,23.653
			c-2.552,3.158-4.94,6.455-7.45,9.504l-10.479,12.732l-19.203,23.764l-8.011,9.918c-3.62,4.482-6.817,8.995-10.909,13.043
			c-0.856,0.847-1.109,2.606-0.899,3.467c0.573,2.357,11.253,1.056,16.041,3.549c4.572,2.38,10.116,0.971,14.578,2.617
			c5.19,1.915,9.432,3.167,15.509,2.489c1.94-0.216,3.9,1,5.368,0.023C898.813,646.213,902.271,632.365,902.601,631.46z
			 M173.056,760.034l-9.673-26.405c-3.465-9.459-6.236-18.833-10.156-28.101c-2.638-6.237-2.732-9.584-5.989-17.974l-2.772-7.142
			c-3.692-9.511-6.638-19.05-10.567-28.376c1.535,3.643-12.572-19.761-9.878-13.921c-1.043-2.26-16.42-23.084-19.189-26.893
			l-24.458-33.649c-3.303-4.545-5.711-9.042-9.95-13.009c-2.004-1.875-2.025-5.637-5.512-6.558
			c1.518,2.967-2.656,28.128-2.571,25.176l-0.818,28.406c-0.176,6.127,0.035,9.55,3.431,14.58l20.1,29.779l13.707,20.2
			l25.982,38.157l13.253,19.717l11.472,16.607l33.149,48.716c3.067,4.507,4.969,9.326,9.03,12.743
			c2.08-3.032-1.616-4.449-2.019-6.414C189.147,803.328,175.304,766.171,173.056,760.034z M459.15,709.042l12.239,3.287
			c3.78,1.015,6.622,1.45,10.139,2.972c3.456,1.495,7.38,0.706,11.002,3.272c2.112,1.496,5.914-0.472,8.495,1.62
			c1.689,1.369,6.172,3.278,8.243,1.057l21.158-22.69l17.29-19.299c-10.859-7.337-18.261-11.335-28.49-17.484l-18.137-10.904
			c-7.59-4.563-14.741-9.129-22.21-13.711c-10.478-6.428-18.969-11.467-29.312-17.845l-10.525-6.49l-55.804-34.109
			c-4.536-2.772-8.047-5.652-13.961-7.728l1.166,7.511c0.662,4.265,2.05,8.13,3.047,12.259l3.12,12.918
			c1.096,4.537,2.542,8.318,2.859,13.357c0.172,2.73,4.085,5.244,2.55,9.031c-1.334,3.29,2.563,6.404,2.588,9.002
			c0.053,5.541,4.928,21.045,6.029,26.288l2.415,11.496c1.25,5.951,3.701,20.534,9.087,20.739c4.227,0.161,7.286,1.819,11.122,2.853
			l11.058,2.983l10.192,2.92c4.195,1.202,8.577,1.861,12.772,3.124L459.15,709.042z M392.96,691.588
			c1.37-3.213-2.686-5.826-2.572-7.811c0.309-5.349-1.898-9.226-2.854-13.967c-0.874-4.336-1.211-8.107-2.878-12.364
			c1.052,2.685-6.273-25.25-4.976-22.178c-1.785-4.226-2.974-8.389-2.586-13.148c-3.305-3.795-2.587-8.462-3.446-12.968
			c-0.563-2.954-3.577-5.628-2.639-9.116c1.025-3.811-1.613-6.104-2.725-9.163c-1.114-3.063,0.654-6.906-1.44-9.73
			c-1.767-2.382-2.229-5.003-1.785-8.342c-3.73,0.456-4.388,3.729-5.933,6.258l-15.983,26.168l-40.353,65.424
			c-3.182,5.159-5.859,10.073-9.01,15.186l-9.581,15.545c-1.027,1.666-3.834,5.203-1.79,7.198
			c6.54,6.382,14.265,11.016,21.506,16.431l17.77,13.288c2.748,2.055,4.811,1.882,7.596-0.067l26.395-18.485l13.512-9.553
			l12.737-9.296C385.558,698.247,390.97,696.254,392.96,691.588z M606.137,709.53l52.541,31.693l9.07,6.06l48.77,29.407
			c1.305,0.787,1.884,2.135,3.017,2.431c1.044,0.273,3.846-0.707,3.346-1.986c-1.133-2.901-0.184-4.698-0.158-7.441l0.883-91.132
			l0.946-40.089l0.963-23.901c0.377-9.369,0.309-18.617,0.323-28.041c-13.104,5.427-18.513,9.496-29.13,15.21l-33.793,18.188
			c-3.684,1.983-6.83,4.52-10.513,6.43l-18.515,9.603l-16.571,9.482l-58.277,31.552c-1.444,0.782-1.175,2.124-0.989,3.453
			c0.087,0.622,1.506,0.628,2.391,1.162l36.103,21.779L606.137,709.53z M863.769,748.948l9.821-30.191l2.482-6.514
			c0.158-0.416,6.534-19.784,6.308-18.306c0.271-1.766,4.9-17.44,5.724-19.8l3.367-9.647c1.058-3.031,0.8-7.015,4.61-8.87
			c-2.67-3.338-6.534-3.449-10.507-4.231l-20.985-4.131c-5.571-1.097-10.651-2.054-16.159-2.885
			c-3.422-0.516-6.572-3.209-9.537,0.735l-11.466,15.252l-13.24,15.877l-19.395,24.523l-26.082,31.919l-24.479,30.543
			l-14.174,17.882c5.687,2.481,10.739,0.436,15.922,0.114l14.978-0.93c4.131-0.256,7.376-0.77,11.276-0.827l43.678-0.635
			c2.728-0.04,5.217-1.269,8.075-0.925c10.071,1.213,19.546-3.082,30.38-1.634C858.522,767.862,860.728,758.296,863.769,748.948z
			 M638.373,791.204c5.439-0.423,9.173-1.329,13.907-1.861l9.836-1.106l13.694-0.579c-1.865,0.079,12.899-3.347,20.197-2.713
			c6.891,0.599,13.28-0.474,19.281-3.607l-22.913-13.782l-35.914-21.975l-14.865-9.235l-62.073-37.706l-24.773-15.283
			c-3.077-1.898-5.12,0.627-6.874,2.561l-35.421,39.061c6.928,8.495,13.789,15.912,20.835,23.745l26.53,29.494
			c4.025,4.474,7.336,8.955,12.115,12.929c1.991,1.655,2.669,5.981,6.268,5.632c3.025-0.294,6.848,1.293,9.551,0.716
			c4.002-0.855,7.63-3.465,12.259-2.467c3.673,0.792,21.354-2.5,24.052-2.71L638.373,791.204z M389.834,816.435l22.985-0.803
			c2.635-0.092,4.75-2.808,8.166-1.474c-0.345-2.728,0.885-5.7-0.389-7.705c-2.327-3.663-1.908-7.454-3.056-11.186
			c-1.564-5.082-2.505-9.585-3.123-14.873c-0.26-2.224-3.655-4.292-2.508-7.404c1.422-3.855-2.026-6.937-2.473-10.102
			c-0.678-4.796-0.937-8.803-3.046-13.186c-1.579-3.28-0.372-7.641-2.242-10.892c-2.309-4.015-0.973-8.893-2.983-12.886
			c-1.854-3.683-1.74-7.594-2.574-11.571c-0.736-3.507-2.981-6.532-2.595-10.372c0.183-1.825,0.265-3.392-1.152-4.246
			c-1.457-0.879-2.234-0.921-3.906,0.271l-57.14,40.72c-3.161,2.253-6.115,3.179-6.966,7.45l-2.448,12.288
			c-0.861,4.321-1.968,8.311-2.851,12.437l-3.333,15.57c-0.931,4.348-2.353,7.66-2.703,12.374
			c-0.151,2.032-6.65,21.737-1.148,20.803l9.629-1.634l27.966-0.135c-0.975,0.005,23.483-2.844,14.495-2.47L389.834,816.435z
			 M538.649,801.26c5.826-1.261,11.699,0.877,16.883-0.721c5.137-1.583,9.97-1.164,14.984-3.147
			c-5.55-6.68-10.49-12.198-15.839-18.149l-36.881-41.036c-3.272-3.641-5.846-8.391-10.531-10.376
			c-14.792-6.269-6.026-1.703-19.739-6.176c-6.015-1.962-12.489-2.522-18.357-4.94c-6.246-2.573-15.352-4.023-22.824-6.247
			l-10.808-3.217c-2.413-0.718-21.937-5.809-23.13-5.993c-4.285-0.661-7.962-4.448-12.917-1.495c2.68,2.911,0.366,7.484,1.799,9.868
			c2.422,4.031,2.339,7.727,3.342,11.912l3.09,12.897c1.198,5.001,2.634,9.424,3.784,14.574l2.889,12.937
			c0.791,3.544,1.807,7.377,2.896,10.934c1.642,5.364,2.127,10.567,3.366,15.894c0.95,4.084,2.698,7.434,2.829,12.145
			c0.11,3.934,4.013,7.258,2.377,12.247c5.319-1.055,10.224,0.938,15.024-0.345c9.739-2.604,19.233-2.218,28.971-3.335
			c10.279-1.179,19.609-3.243,30.186-2.726c4.394,0.215,9.14-3.355,13.907-2.855C522.346,804.79,530.103,803.11,538.649,801.26z
			 M304.068,822.792c6.54-10.423,2.195-11.569,6.328-20.396c1.924-4.11,0.501-9.138,2.725-13.19c1.967-3.583,0.746-8.141,2.432-11.7
			c2.043-4.311,1.824-8.721,3.043-13.072c1.358-4.845,2.468-9.081,2.982-14.067c0.268-2.608,2.387-4.031-0.336-6.786
			c-3.253-3.291-7.501-5.671-11.33-8.508l-22.951-17.004c-1.809-1.341-3.861-1.836-5.204-3.871
			c-0.927-1.405-2.677-1.343-4.011-1.107c-1.411,0.25-1.734,1.628-2.628,3.096l-21.891,35.965l-6.02,8.992
			c-3.724,5.562-6.559,11.344-10.076,17.044c-7.169,11.619-13.974,23.09-21.18,34.656l-9.643,15.477
			c4.364,1.637,8.455,0.41,12.697-0.333c4.458-0.781,22.723-2.368,26.989-1.95c6.342,0.622,22.354-1.536,29.233-2.585
			C284.733,822.004,294.114,823.779,304.068,822.792z M792.446,825.623c-0.51,2.946-2.763,5.828-1.245,9.082l44.547-39.859
			l7.547-7.529c1.973-1.968,4.986-2.613,4.66-6.691c-4.201,2.518-8.611,0.748-12.981,1.422c-12.913,1.992-28.869-0.519-34.123,2.721
			c-5.175,3.191-3.122,10.332-3.951,15.117L792.446,825.623z M762.505,842.231c2.693-0.302,23.909-0.906,23.21-6.258
			c-0.746-5.704,2.088-9.953,2.746-15.094c0.857-6.693,0.918-12.635,3.15-19.208c1.446-4.257-0.379-9.458,2.461-13.889
			c3.995-6.233-17.645-3.061-23.286-3.65c-4.337-0.453-7.01,1.187-10.994,1.35l-27.143,1.107c-2.247,0.092-4.683-0.078-5.926,1.59
			c-1.031,1.383-2.142,3.444-1.862,5.756c0.833,6.879-0.43,13.282-0.751,19.962c-0.221,4.605,0.078,8.157-1.768,12.386
			c-1.483,3.396,0.544,7.731-0.541,11.58c-0.587,2.083-1.934,6.882-0.054,8.189c4.426,3.077,9.976-0.319,14.605-0.539
			C745.134,845.097,753.201,843.274,762.505,842.231z M650.101,823.893c2.926,1.786,5.529,1.665,8.456,2.775l8.644,3.278
			l7.347,2.742c3.114,1.162,6.342,2.318,9.491,3.401l9.729,3.346c5.267,1.811,16.707,7.002,22.193,6.472
			c-0.158,2.327,5.872-58.507,3.906-48.938l1.23-5.986c0.289-1.408-0.066-3.056-1.04-3.516c-0.182-0.086-35.065,3.202-33.9,2.978
			l-10.105,1.944l-18.172,0.893c-6.932,0.341-13.483,3.921-20.916,2.635c-3.118-0.539-13.916,1.16-18.215,2.683
			c-4.245,1.504-9.211-0.472-13.643,0.552c-8.443,1.95-13.903-0.569-15.07,2.408c-2.09,5.327,5.988-0.826,9.214,5.462
			c3.441-0.666,5.892,0.815,8.779,1.849l23.765,8.511C635.585,818.738,648.475,822.901,650.101,823.893z M631.393,880.209
			l11.315,3.295c0.092,0.027,21.539,7.149,19.628,6.277c4.377,1.995,14.605,4.286,19.273,5.965l8.777,3.155l9.755,3.114
			c3.496,1.116,6.764,3.33,10.796,1.697c0.605-3.985-0.699-8.417,0.363-12.567c0.78-3.047,2.448-5.627,1.773-9.154
			c-0.421-2.196,2.036-24.191,0.695-30.765l-22.197-7.591l-7.97-2.912l-8.178-2.919l-8.86-3.013l-8.721-3.204
			c-3.071-1.128-5.45-1.811-8.461-2.831l-9.676-3.278c-2.908-0.985-5.709-2.364-8.603-3.404l-9.547-3.431
			c-6.388-2.296-29.094-9.921-33.193-11.947c-4.927-2.434-16.133-5.071-22.053-3.279c-4.074,1.233-7.029,1.854-11.457,1.711
			c-4.518-0.146-9.151,1.899-13.851,0.713c-3.137-0.792-5.503,1.616-8.131,1.836l-12.814,1.072
			c-8.071,0.675-15.398,2.7-23.322,2.961l-16.478,0.542c6.398-0.211-42.38,5.054-40.394,5.81c2.221,2.706,6.231,0.787,8.532,2.491
			c2.322,1.72,14.982,4.929,19.004,6.286l8.983,3.032c3.198,1.079,6.686,2.051,9.801,3.049l9.171,2.94
			c3.284,1.053,7.286,1.491,9.986,2.92c8.089,4.278,18.915,6.922,28.197,9.936l9.838,3.195l9.252,2.816
			c3.838,1.168,7.263,2.349,11.309,3.65l9.802,3.153c2.356,0.758,5.171,1.43,7.605,2.261l12.703,4.337
			c7.045,2.405,10.853,2.729,18.127,5.802c3.254,1.375,6.086,1.761,9.388,2.731C624.697,877.579,627.851,879.177,631.393,880.209z
			 M346.357,852.678l17.591,14.399c3.911,3.201,8.06,5.59,11.204,9.783c0.816,1.088,2.299,1.135,3.318,1.263
			c1.482,0.186,1.35-1.335,2.186-2.488l10.936-15.086l24.473-35.46c1.326-1.921,2.613-3.461,1.746-6.268
			c-15.923,3.146-26.072,1.672-43.899,3.332l-19.848,1.848c-5.541,0.516-10.659-0.123-16.059,0.893
			c-4.567,0.859-9.354-0.761-13.856,0.399c-2.708,0.698-5.009,2.055-8.653,2.083C325.02,836.424,335.927,844.141,346.357,852.678z
			 M455.853,883.109c1.315-3.744-1.222-4.338-2.011-5.877l-9.793-19.095l-10.633-20.706c-1.808-3.521-7.78-16.28-9.895-15.425
			c-0.724,0.293-0.583,1.623-1.133,2.41l-27.491,39.4c-3.583,5.135-7.132,9.428-10.591,15.674
			c6.483,1.169,12.356,0.194,18.726,0.489c1.894,0.088,3.303,1.656,5.129,1.839c8.224,0.823,16.274-0.653,24.42,0.644
			C440.368,883.703,448.098,882.571,455.853,883.109z M542.395,856.539c-3.213-1-5.543-1.825-8.146-2.656l-10.546-3.364
			c-2.99-0.954-6.196-1.877-9.164-2.836l-9.802-3.167l-10.779-3.308l-10.622-3.328l-9.797-3.167l-8.968-3.038
			c-9.262-3.138-16.852-5.195-26.167-8.096c-2.785-1.572-5.78-2.072-8.042-1.34l23.72,44.652c7.671,14.44,5.711,17.99,22.242,18.638
			l20.471,0.803c1.644,0.065,16.054,3.491,26.192,2.693c14.427-1.135,22.703,5.969,27.091,2.208
			c2.927-2.508,23.877-22.241,23.856-21.907c0.245-3.867,1.195-2.435-11.544-6.492l-9.849-3.137L542.395,856.539z M254.202,867.804
			c5.516,4.127,10.471,8.152,16.451,11.61c1.502,0.869,1.656,3.349,3.7,2.596c1.633-0.602,1.876-1.372,2.714-3.016l15.165-29.768
			l10.529-20.779c-0.426-2.334-4.724-0.852-6.925-0.766l-18.579,0.722c-5.093,0.198-9.732,1.96-14.837,2.147l-24.176,0.885
			c-4.935,0.181-9.209,1.458-14.288,1.865l-14.341,1.15L254.202,867.804z M344.403,928.351c3.822-7.084,8.875-12.876,13.436-19.405
			l13.665-19.563c1.213-1.736,4.278-5.817,2.986-7.765l-10.41-8.563c-4.953-4.074-9.966-7.056-14.454-11.752
			c-3.575-3.74-8.201-6.335-12.264-9.697l-28.324-23.435c-3.423,4.596-5.163,8.878-7.491,13.393l-7.05,13.675l-15.33,29.867
			c0.218,2.11,3.584,4.158,5.349,5.305c7.007,4.551,12.893,9.614,19.514,14.494l19.648,14.482c4.416,3.255,9.475,5.536,13.334,9.559
			c1.247,1.3,2.704,2.432,4.449,2.122C342.43,930.896,343.691,929.67,344.403,928.351z M717.955,881.552
			c0.154,7.279-3.357,13.235-2.139,20.663l40.893-36.415c7.047-6.275,13.316-12.504,21.071-18.815
			c-1.03-2.842-19.971,1.227-21.99,1.614c-10.413,1.997-17.259,0.566-24.23,2.953c-3.2,1.096-7.059,0.237-10.028,1.784
			C718.089,862.331,717.74,871.418,717.955,881.552z M661.729,894.557l-10.772-3.353l-10.628-3.364
			c-3.196-1.012-6.64-2.074-9.802-3.135l-8.921-2.993c-3.331-1.118-5.82-2.124-9.047-3.016l-9.493-2.625l-10.409-3.601
			c-3.278-1.134-7.447-1.766-10.498-3.521c-7.578,3.854-19.754,18.756-25.453,21.827c-1.131,0.609-0.829,2.513-0.606,3.534
			c0.214,0.979,1.834,0.923,2.926,1.623l25.641,16.435c3.184,2.041,7.626,3.122,10.149,5.565c5.789,5.607,11.668,6.848,19.406,5.471
			l11.041-1.965c7.326-1.304,14.506-2.944,21.798-3.984c5.3-0.756,9.987-1.739,15.214-3.003c5.478-1.325,11.712-0.015,16.814-3.457
			c7.579-0.215,14.623-1.1,21.301-4.585C686.394,903.47,674.749,898.61,661.729,894.557z M481.862,930.873
			c-4.431-8.363-5.14-10.659-9.299-18.335l-6.674-12.32l-3.093-6.713c-1.934-4.198-4.141-5.582-8.874-5.797l-9.248-0.421
			l-32.172-0.797l-13.94-1.03c-6.076-0.449-12.154-0.261-18.309-0.375c-5.678,6.604-9.733,13.612-14.636,20.516l-18.446,25.972
			c0.936,2.067,3.443,1.066,5.89,1.363l23.897,2.904l10.113,0.832c4.287,0.353,7.953,1.829,12.16,1.958l25.472,0.778
			c10.017,0.306,19.143,2.985,29.37,2.734c5.517-0.135,25.003,4.827,35.106,2.541L481.862,930.873z M596.943,925.836
			c-3.38-3.564-7.852-5.258-11.971-7.869l-10.932-6.929l-17.099-10.918c-6.062-3.871-11.913-4.2-19.078-4.37
			c-3.433-0.082-6.795-3.015-10.908-1.825c-3.939,1.139-8.1-0.97-11.868-0.791c-6.822,0.324-12.634-0.85-19.233-1.836
			c-5.213-0.779-10.458-0.145-15.821-1.237c-3.935-0.801-8.279,1.129-12.307-1.543c-2.55,3.414,0.318,5.29,1.669,7.88l22.317,42.804
			c2.07,3.97,4.778,7.827,10.449,5.599c5.803-2.28,12.39-2.084,18.285-3.567c5.395-1.357,10.151-1.844,15.491-2.821l17.658-3.231
			l13.138-2.82l19.321-4.307L596.943,925.836z"/>
	</g>
</g>
</svg>
