<?xml version="1.0" encoding="iso-8859-1"?>
<!-- Generator: Adobe Illustrator 30.1.0, SVG Export Plug-In . SVG Version: 9.03 Build 0)  -->
<svg version="1.1" id="Layer_1" xmlns="http://www.w3.org/2000/svg" xmlns:xlink="http://www.w3.org/1999/xlink" x="0px" y="0px"
	 viewBox="0 0 1000 1000" style="enable-background:new 0 0 1000 1000;" xml:space="preserve">
<g>
	<g>
		<path style="fill:#FEFEFE;" d="M301.598,906.68c-8.878-3.381-14.87-5.62-23.926-9.16l-9.35-3.655l-7.885-3.129l-8.025-2.965
			c-10.171-3.758-17.11-4.951-22.221-13.028l-15.089-23.845l-55.338-84.587l-12.649-19.483c-2.98-4.59-5.269-8.787-7.067-14.147
			l-2.763-8.236l-3.186-8.64l-15.311-42.726c-1.663-4.64-4.844-14.142-6.332-17.935l-3.337-8.506l-3.564-10.377l-3.21-8.805
			c-1.189-3.261-8.673-23.94-8.937-25.359c-0.487-2.615-2.442-5.5-3.351-8.303l-2.706-8.346l-3.84-10.158
			c-1.657-4.384-4.479-13.471-6.11-17.963l-3.17-8.727l-2.967-8.056l-2.913-7.062l-3.627-10.337l-3.5-9.574
			c-5.573-15.245-6.764-14.368-3.245-24.707l5.576-16.379l3.184-9.859c1.381-4.275,8.566-24.709,8.963-27.347
			c0.501-3.328,2.563-6.805,3.627-10.173l2.87-9.081c1.027-3.249,2.198-6.552,3.25-9.713l3.284-9.868
			c1.041-3.127,2.034-5.795,3.017-8.989l3.041-9.879l2.925-8.182c3.067-8.581,4.911-16.119,8.108-25.381l3.318-9.611
			c2.996-8.679,6.461-18.678,9.069-27.071l3.321-10.688c0.624-2.007,1.61-4.542,2.312-6.687l10.119-30.939l3.237-9.489l3.163-9.785
			l2.758-8.214c1.508-4.493,2.286-6.58,5.852-9.767l21.49-19.203l31.07-28.079l84.598-76.17c8.491-7.645,12.039-2.21,21.782-6.339
			c4.491-1.903,9.364-1.113,13.851-2.394c5.242-1.496,54.821-10.277,50.132-8.776l8.228-2.634
			c-8.459,2.708,35.849-6.076,31.716-5.386l16.275-2.715l15.331-2.716c11.062-1.96,21.964-4.859,33.421-5.909
			c4.663-0.427,8.805-3.979,14.269-2.396c2.998,0.869,9.249-4.125,19.164-3.661l19.675,0.919c9.956,0.465,18.994,1.891,29.118,2.873
			l28.825,2.794c6.804,0.66,13.354-0.164,20.051,1.134c8.802,1.707,17.176,1.309,26.065,2.122l11.842,1.083
			c6.078,0.556,11.689,2.46,17.879,1.73l29.908,22.347l46.501,34.525c4.362,3.238,8.452,6.016,12.832,9.314l11.242,8.466
			l31.119,22.854c16.32,11.985,9.719,10.212,21.47,25.02l102.303,151.076l9.125,13.101c6.486,9.312,13.33,18.094,18.661,28.306
			c2.708,5.188,0.977,13.499,0.286,19.058c-0.765,6.156,0.672,11.83-0.628,17.687c-0.938,4.226-2.11,8.181-2.225,12.637
			l-0.628,24.296c-0.158,6.112-2.582,12.083-2.602,18.215c-0.033,10.205-0.088,19.683-2.49,29.652
			c-1.887,7.83,1.717,28.386-6.467,47.427c-2.691,6.261-4.554,12.797-6.921,19.217l-11.572,31.39
			c-1.34,3.633-2.441,7.369-3.761,11.036l-3.147,8.743c-1.156,3.212-1.874,5.921-3.012,9.07l-2.925,8.096l-3.234,9.658
			l-21.259,60.01l-5.532,14.802l-3.561,10.419c-4.053,11.858-7.768,21.44-11.801,33.127c-1.377,3.99-3.824,7.398-5.937,11.205
			l-8.103,14.604c-2.039,3.674-4.008,7.181-6.098,10.829l-26.963,47.063c-4.447,7.762-8.175,15.633-13.323,22.805
			c-3.135,4.368-9.435,2.696-13.667,4.334c-3.201,1.24-23.188,5.109-28.181,6.146l-14.827,3.08
			c-4.366,0.907-8.427,2.859-13.186,2.671c0.196,0.008-20.178,4.591-21.978,4.962l-13.165,2.719
			c-4.517,0.933-9.211,1.183-13.583,2.549c-4.179,1.306-7.711,3.292-12.444,2.473c-2.835-0.49-5.618,2.914-8.1,2.732
			c-4.212-0.309-27.232,5.422-32.042,6.009l-10.822,1.321c-5.972,0.729-11.701,2.371-17.64,3.502l-15.998,3.046
			c-6.163,1.173-11.907,2.192-18.015,2.983c-4.896,0.634-9.102,3.151-14.387,2.565c0.694,0.077-26.357,5.269-27.247,5.306
			c-5.779,0.239-10.512,2.01-16.022,2.924c-6.347,1.053-29.391,4.717-33.814,6.32c-4.052,1.469-9.292,0.198-13.117,2.018
			c-5.273,2.508-11.114,1.349-16.332,2.827c-5.646,1.6-10.492,2.539-16.3,2.844c-4.012,0.211-8.203,3.637-12.297,1.991
			l-24.676-9.926l-8.619-3.261l-7.358-2.773l-8.645-3.177c-2.942-1.081-6.087-2.511-9.147-3.689l-42.511-16.374L301.598,906.68z
			 M464.013,109.902c3.126-0.451,5.411,1.769,8.139,1.852l11.83,0.358c6.228,0.188,51.673,5.574,52.673,3.923
			c1.082-1.786-0.23-2.388-0.976-3.807l-12.709-24.182c-3.706-7.053-7.626-13.693-11.104-20.853
			c-1.072-2.208-1.782-4.506-3.462-5.376c-1.875-0.97-5.165-1.59-7.062-0.499c-5.47,3.146-11.512,1.659-16.846,3.36
			c-5.392,1.72-10.115,1.916-15.417,2.89l-17.751,3.261l-13.109,2.826l-19.372,4.318l-10.805,2.175
			c3.556,3.772,8.488,5.169,12.584,8.251c2.08,1.565,24.852,15.874,28.186,17.814C453.463,108.916,458.43,110.708,464.013,109.902z
			 M623.45,120.326c6.322-6.8,9.763-14.256,14.872-20.926c6.595-8.61,12.267-16.935,18.3-26.376
			c-13.051,0.536-17.29-1.905-29.579-2.83l-11.133-0.838c-4.251-0.32-7.908-1.829-12.111-1.96l-25.516-0.796
			c-10.016-0.312-19.127-2.994-29.353-2.747c-6.406,0.155-23.352-4.712-33.114-2.523c1.252,5.343,4.894,8.209,6.268,12.435
			c0.401,1.233,8.005,16.197,9.358,18.698l6.666,12.319l3.115,6.736c3.639,7.869,9.667,6.799,19.213,7.036l30.458,0.758
			C600.679,119.553,614.354,122.469,623.45,120.326z M709.52,149.771l15.121-28.618c-2.241-4.076-6.6-5.721-10.305-8.5
			l-33.693-25.267c-5.834-4.375-11.834-7.736-17.818-13.099l-31.521,44.957c-0.867,1.236-2.57,3.799-0.797,5.251l10.385,8.508
			c4.203,3.443,8.132,6.42,12.334,9.858l42.09,34.427C701.383,166.02,704.062,160.099,709.52,149.771z M365.055,118.259
			c3.361,1.056,6.58,2.099,9.453,3.059l8.947,2.988c3.309,1.105,5.807,2.116,9.044,3.016l9.449,2.626l10.373,3.659
			c3.191,1.126,6.916,0.772,9.509,3.798c8.156-6.73,14.703-13.453,22.007-20.657c1.25-1.233,4.783-2.271,4.307-4.682l-30.544-18.692
			c-4.279-2.619-8.774-4.909-12.631-8.004c-4.615-3.702-8.937-3.391-14.139-2.758c-9.107,1.107-22.304,4.596-32.946,5.934
			c-5.296,0.666-10.052,2.001-15.214,2.936c-5.513,0.998-10.803,1.032-16.37,2.823c-7.054,2.271-15.065,0.722-21.635,5.468
			c4.167-0.991,6.821,2,9.727,2.558c7.678,1.476,20.308,6.439,28.886,9.112l10.774,3.357L365.055,118.259z M563.138,187.941
			c-2.191-2.694-6.156-0.767-8.439-2.449c-2.792-2.056-5.361-1.984-8.338-2.952l-9.91-3.223l-9.802-3.149
			c-2.972-0.955-6.173-1.89-9.191-2.874l-9.772-3.185c-3.218-1.049-7.372-1.458-10.007-2.893
			c-6.504-3.54-29.991-10.694-38.646-13.336l-8.462-2.584c-3.403-1.039-6.256-2.202-9.827-3.294l-11.401-3.484
			c-2.383-0.728-5.201-1.486-7.624-2.309l-12.692-4.31c-6.027-2.047-12.731-3.384-18.172-5.809
			c-3.213-1.432-6.082-1.619-9.255-2.735l-9.663-3.399l-11.657-3.469c-2.862-0.852-6.194-2.067-8.914-2.918l-10.689-3.346
			c-4.187-1.311-16.592-5.042-19.136-5.94l-8.899-3.142c-3.202-1.131-6.091-2.617-9.97-3.088c-2.342-0.284-6.735-4.185-8.887-1.138
			c-2.345,3.321,0.368,8.943-1.018,12.906c-1.069,3.058-2.403,5.705-1.821,9.174c0.522,3.109-1.61,15.469-0.73,26.847
			c0.242,3.129,4.013,3.811,6.324,4.618l16.869,5.893c2.91,1.016,5.385,1.999,8.034,2.946l8.134,2.907l8.92,3.012l8.658,3.194
			c3.077,1.135,5.446,1.813,8.465,2.837l9.679,3.281c2.901,0.983,5.7,2.362,8.6,3.4l9.606,3.437
			c9.986,3.573,24.882,8.324,33.74,12.214c4.249,1.866,14.759,4.795,19.46,3.064c4.04-1.488,7.047-1.824,11.433-1.754
			c4.543,0.073,9.154-1.889,13.86-0.729c3.143,0.774,5.499-1.616,8.133-1.837l12.813-1.073c8.069-0.676,15.4-2.698,23.324-2.959
			l16.476-0.544C516.355,193.961,565.119,188.696,563.138,187.941z M271.438,154.462c3.456-1.105,7.616-0.292,10.756-2.09
			c4.068-9.825,3.869-19.914,3.918-30.371c0.027-5.797,2.992-11.122,1.682-17.29l-49.21,43.922
			c-3.873,3.781-7.056,7.468-12.384,10.356c0.155,2.826,18.982-1.201,20.247-1.465C257.085,155.3,263.603,156.968,271.438,154.462z
			 M536.512,173.091l8.84,2.706c3.447,1.055,6.374,2.112,9.921,3.168l10.688,3.181c2.491,0.741,4.659,3.136,7.022,1.448
			l-14.416-27.369c-3.499-6.642-7.169-12.731-10.179-19.533c-5.637-12.74-7.509-15.718-21.715-16.241l-20.396-0.75
			c-1.334-0.049-16.611-3.597-26.273-2.716c-17.182,1.567-20.161-7.484-27.478-0.481l-18.96,18.15
			c-1.146,1.097-4.401,2.137-3.362,3.919c1.547,2.654,5.459,1.449,7.505,2.697c3.223,1.966,6.485,2.276,9.822,3.373l10.501,3.455
			c2.95,0.97,5.611,1.625,8.519,2.573l9.829,3.206l9.735,3.198c3.047,1.001,6.228,1.83,9.22,2.774l10.629,3.354l10.771,3.32
			l9.832,3.184C529.73,170.734,533.032,172.026,536.512,173.091z M586.887,173.324l32.462-46.719l-20.711-1.12
			c-2.656-0.144-4.644-1.684-7.647-1.644c-6.938,0.093-13.794,0.714-20.565-0.316c-3.925-0.597-20.304-1.667-22.425,1.033
			c-0.766,0.974,1.006,1.36,1.417,2.145l18.545,35.348c1.137,2.166,2.099,3.818,2.882,6.241c1.187,3.673,4.709,6.356,5.446,10.368
			c0.391,2.132,2.307,4.85,4.24,4.195C582.042,179.231,584.515,176.738,586.887,173.324z M740.994,175.394l23.758-0.818
			c0.54-0.019,24.274-3.659,29.375-2.648c-9.046-6.881-17.55-13.427-26.773-20.19l-29.921-21.942
			c-2.268-1.663-4.321-3.079-6.335-5.007c-1.955-1.871-3.489,1.795-4.185,3.165l-15.143,29.825l-8.614,16.33
			c-0.756,1.434-1.948,2.456-0.737,3.953c1.006,1.243,2.227,0.477,4.042,0.395l19.287-0.861
			C730.804,177.37,735.486,175.584,740.994,175.394z M649.418,182.012c5.742-0.54,10.534,0.061,15.573-0.912
			c4.546-0.878,9.408,0.851,13.845-0.426c3.076-0.885,5.594-2.036,9.699-2.061l-48.86-39.2c-4.764-3.822-9.34-7.03-13.77-12
			l-40.096,57.326c-0.491,0.702,0.372,2.053,0.678,2.307c-0.594-0.492,12.945-1.908,13.479-1.919l17.928-0.37
			c3.816-0.079,7.256-0.462,11.188-0.832L649.418,182.012z M232.914,221.718c4.433-0.051,6.647-0.509,10.242-1.225
			c7.422-1.478,23.516,0.802,31.784-1.798c3.568-1.122,4.553-6.155,4.129-9.593c-0.782-6.342,0.664-11.966,0.836-17.988
			c0.132-4.622-0.067-8.179,1.763-12.385c1.491-3.427-0.637-7.766,0.573-11.566c0.702-2.205,1.595-6.237-0.686-7.582
			c-4.107-2.421-8.825,0.821-12.995,0.975c-8.763,0.324-16.913,2.177-25.598,3.247c-1.226,0.151-23.983,0.931-24.447,5.839
			l-0.935,9.89c-0.437,4.625-3.075,8.502-2.592,13.554c0.432,4.51-2.488,8.568-2.845,12.898c-0.338,4.107,0.096,7.819-1.662,11.637
			c-0.676,1.468,0.077,3.084,0.693,3.863c0.688,0.87,2.592,0.454,3.774,0.44L232.914,221.718z M403.615,199.621
			c-3.295-0.769-6.095-1.56-9.236-2.681l-22.503-8.028c-11.929-4.256-23.935-8.279-35.392-12.625l-7.96-3.019
			c-3.046-1.155-6.425-2.281-9.56-3.359l-9.742-3.352c-5.496-1.891-15.085-6.366-21.265-6.474c0.324,3.155-0.878,5.917-0.888,8.994
			l-0.029,8.966c0.012-3.821-4.93,37.943-3.945,39.205c0.63,0.806,2.272,2.206,3.875,1.751c9.919-2.818,19.699-2.596,29.872-3.462
			c3.219-0.274,6.75-1.761,10.091-1.934l18.08-0.937c-8.508,0.441,42.059-5.166,35.734-4.153c2.832-0.454,4.905-2.282,8.289-1.685
			c5.031,0.887,9.894-0.264,14.878-0.881c2.88-0.357,5.912,0.954,8.263-0.666c1.109-0.764,2.166-1.77,1.356-2.328
			C415.142,204.062,397.318,198.151,403.615,199.621z M195.938,222.83c1.983-0.025,5.025-0.632,6.524-1.182
			c5.308-4.357,3.77-10.756,4.738-16.606l4.254-25.709c0.406-2.452,3.159-5.008,1.116-7.28l-36.559,32.906l-19.726,18.358
			c6.814,1.809,13.059-0.145,19.618-0.23L195.938,222.83z M690.787,218.164l-2.304,11.347c-0.967,4.764-6.266,22.007-5.412,26.383
			c-1.278,1.944-1.698,5.179,0.389,6.707l42.476,31.087l36.133-58.569c2.113-3.424,3.027-7.123,6.155-9.959l29.302-48.162
			c-10.591,0.102-30.58,4.102-39.518,2.954c-6.008-0.771-27.212,2.607-28.311,2.64l-28.454,0.861
			c-2.423,1.509-4.719,6.554-5.052,9.445c-0.508,4.415-1.759,7.721-2.588,11.71L690.787,218.164z M809.987,459.106
			c5.606-10.785,10.597-21.222,16.248-31.928l18.27-34.61c4.47-8.469,9.112-16.366,12.771-25.189
			c5.143-12.402,9.37-10.731,4.615-20.179c-1.459-2.898-2.221-6.34-3.45-9.482l-3.118-7.97c-3.09-7.896-3.5-11.741-6.698-19.215
			c-1.109-2.592-1.947-5.44-2.881-8.125l-3.074-8.84c-2.444-7.028-3.644-10.052-6.223-16.984l-5.444-14.634
			c-0.881-2.369-1.682-4.357-2.458-6.66l-3.271-9.7c-0.998-2.961-6.293-16.03-6.214-15.777l-2.889-9.17l-3.232-9.695l-3.797-10.213
			c-1.836-4.939-5.27-13.972-6.182-18.564c-0.948-0.327-1.776-0.117-3.104-0.16c1.059,3.034-1.911,4.114-2.673,6.023
			c-2.087,5.236-5.393,9.142-8.283,13.821l-7.225,11.699l-16.661,27.485l-33.655,54.278c-1.298,2.094-1.852,4.378-0.193,6.534
			c1.49,1.935,4.891,13.904,6.243,17.83l3.343,9.705l2.979,8.164c1.032,2.829,1.773,5.38,2.771,8.211l6.727,19.086l2.998,8.187
			c1.102,3.009,2.518,6.309,3.507,9.316l2.97,9.028c1.011,3.073,2.117,5.176,2.788,8.468c0.845,4.145,5.195,7.665,5.181,12.342
			c-0.009,3.12,7.951,24.962,9.601,29.244l3.064,7.951c0.489,1.268,4.275,13.078,5.559,16.557l3.507,9.508
			c1.288,3.491,0.907,7.134,5.325,10.169C797.826,480.961,807.278,464.319,809.987,459.106z M608.121,304.033
			c-0.111,1.385,2.935,3.17,3.971,2.316c5.168-4.261,10.756-8.334,16.2-12.117l15.859-11.023l15.797-11.36
			c4.711-3.388,9.014-7.047,14.3-9.668c0.92-1.436,2.625-4.132,2.971-5.873l2.344-11.794c1.859-9.352,3.93-16.919,6.143-28.091
			c0.772-3.895,3.276-6.783,2.481-11.523c-0.482-2.875,2.511-6.036,2.63-9.037c0.136-3.412,0.318-6.493,1.574-10.31
			c-3.508-1.648-6.897,0.271-10.512,0.311l-28.828,0.322c-3.072,0.034-5.843,1.443-9.101,0.773c-2.304-0.473-4.102,1.65-6.146,1.887
			c-7.237,0.838-14.291,0.354-21.474,0.649l-24.134,0.991l-7.984,2.179c-2.378,0.649-1.271,6.277,0.057,7.973
			c2.042,2.606,1.001,6.489,2.045,9.068c2.059,5.084,2.445,9.66,3.268,14.879c0.36,2.284,3.587,4.292,2.506,7.423
			c-1.337,3.874,1.924,6.91,2.498,10.121c0.797,4.459,1.875,8.107,2.812,12.496l2.465,11.543l2.997,12.891
			C604.19,284.788,608.48,299.538,608.121,304.033z M564.045,297.123l11.123,3.385c4.002,1.218,7.606,0.432,11.409,3.137
			c1.826,1.299,5.375-0.546,7.656,1.343c2.109,1.748,7.779,3.566,9.071,0.814c0.065-1.913,0.294-6.668-0.762-8.577
			c-1.892-3.419-2.239-7.788-3.182-11.742l-3.084-12.922c-1.194-5.002-2.632-9.425-3.782-14.574l-2.889-12.937
			c-0.791-3.543-1.799-7.383-2.896-10.934c-1.656-5.358-2.097-10.584-3.375-15.887c-0.984-4.085-2.576-7.474-2.859-12.122
			c-0.252-4.131-3.768-7.737-2.619-12.954c-5.222,0.405-10.054-1.224-14.616,0.143c-9.711,2.911-19.32,1.898-28.903,3.295
			c-10.058,1.466-19.116,2.987-29.395,2.644c-4.457-0.149-9.11,3.365-13.911,2.871c-8.411-0.867-16.234,0.752-24.348,2.637
			c-5.634,1.309-11.747-0.957-17.262,0.762c-5.111,1.593-10.081,0.983-15.266,3.348l51.966,57.95
			c3.65,4.07,6.663,8.949,11.613,11.357c10.899,5.303,8.172,2.389,19.845,6.201c4.354,1.422,9.091,1.858,13.476,3.319l10.586,3.527
			C544.908,292.296,556.316,294.771,564.045,297.123z M813.135,196c0-0.351-0.284-0.635-0.635-0.635s-0.635,0.284-0.635,0.635
			s0.284,0.635,0.635,0.635S813.135,196.351,813.135,196z M890.237,381.399l33.683,46.64c4.882,6.76,9.379,13.119,15.01,19.809
			c-1.456-4.035,2.75-28.058,2.697-26.013l0.718-27.723c0.129-4.979,0.855-8.723-2.897-12.674
			c-3.939-4.147-6.274-9.429-9.644-14.392l-50.068-73.722l-14.212-21.002l-49.812-73.599c-2.465,3.267,0.691,5.815,1.663,8.755
			l3.485,10.541c3.048,9.22,6.77,17.906,10.081,26.945l9.674,26.407c3.465,9.459,6.236,18.833,10.156,28.101
			c2.636,6.232,2.733,9.583,5.99,17.974l2.769,7.134c3.625,9.342,6.466,18.577,10.38,28.012
			C871.012,355.244,886.416,376.109,890.237,381.399z M310.317,237.065l10.214,6.219l25.487,15.663l10.549,6.441l68.252,41.682
			l26.883,16.337c4.188-2.742,6.132-6.373,9.118-9.592l30.1-32.449c-6.766-9.59-15.811-18.15-23.532-26.84l-40.393-45.462
			l-10.257-0.252c-4.019-0.099-7.923,3.289-12.758,2.118c-2.618-0.634-21.04,2.619-23.092,2.785l-13.781,1.118
			c-5.261,0.427-9.502,0.074-14.51,1.854c-2.847,1.012-6.534,0.959-9.777,1.091l-13.636,0.555
			c2.377-0.097-13.496,3.362-19.176,2.757c-7.08-0.755-13.274,0.386-20.708,3.345L310.317,237.065z M108.919,350.53
			c4.48,4.596,24.949,6.522,30.853,8.042c5.691,1.465,11.062,2.377,16.904,3.03c2.987,0.334,4.41,2.56,7.541-0.559
			c3.34-3.327,5.879-8.041,9.035-11.892l18.387-22.433l15.587-19.649l22.449-27.425l31.052-38.831l12.596-15.62
			c-4.582-2.799-9.035-0.517-13.478-0.393c-5.097,0.143-9.834,0.589-14.895,0.95l-13.968,0.994l-40.99,0.566
			c-5.392,0.074-10.529,0.715-16.048,0.863c-8.061,0.216-15.541,2.825-23.916,1.695c-2.483,4.708-5.097,12.461-6.553,17.35
			l-3.229,10.836l-9.838,30.188l-2.479,6.514c-0.162,0.427-6.535,19.78-6.309,18.306
			C121.341,314.878,111.568,349.255,108.919,350.53z M287.043,414.738c2.399-1.212,3.946-1.812,5.871-2.862l47.241-25.77
			c6.486-4.442,13.027-7.345,19.975-11.163l86.996-47.805l-100.019-61.094l-8.949-5.304l-52.466-32.292
			c-0.942-0.58-1.866-2.208-3.09-1.479c-0.505,0.301-1.407,1.56-1.147,2.218c1.248,3.157-0.175,5.732-0.271,8.871
			c-0.4,13.022,0.285,19.756,0.119,31.036l-0.874,59.419l-0.97,40.011l-0.967,23.904c-0.366,9.034-0.259,17.978-0.36,26.813
			L287.043,414.738z M212.903,594.256l29.036,18.797l27.833,18.241l0.421-77.135l1.532-12.429l0.739-30.314l0.725-97.938
			c0.033-4.438-0.139-8.147,0.441-12.608c1.095-8.42-0.126-29.6,1.007-38.921c0.65-5.349,0.863-10.858,0.91-16.294l0.621-72.446
			c0.045-5.203-0.287-27.46,0.69-31.324c0.909-3.598-1.462-7.376-1.187-10.421c-3.672,3.829-5.822,6.584-8.382,9.927
			c-7.727,10.091-15.61,19.408-23.583,29.382l-28.403,35.534l-30.278,37.763l-48.78,60.105l-16.802,21.303l-13.739,17.214
			l-24.309,29.821c-4.973,6.1-9.736,12.974-15.127,18.599c-1.239,1.293-3.646,5.332-1.952,6.422L93,515.988l44.835,29.131
			l34.38,22.583c3.339,2.193,6.42,4.099,9.689,6.241L212.903,594.256z M630.554,396.215c0.317,2.844,3.595,5.633,2.441,8.731
			c-1.415,3.801,2.167,6.253,2.6,9.106c0.745,4.901,0.24,8.916,3.286,13.288c1.002,1.438-0.958,5.127,1.727,5.612l39.33-63.872
			l13.237-21.933l24.445-39.447c1.896-3.06,3.41-6.136,4.886-9.631l-16.028-11.738c-9.424-6.901-18.124-14.533-28.166-20.305
			l-29.063,20.361c-8.548,5.988-16.668,11.629-25.054,17.868c-4.307,3.204-9.973,5.364-12.925,9.988
			c-1.544,2.418,2.482,5.083,2.359,6.952c-0.34,5.177,7.718,33.133,8.918,39.281l1.792,9.183
			C625.614,376.194,629.594,387.59,630.554,396.215z M619.429,371.549c-0.356-5.035-1.021-8.041-2.882-12.074
			c-1.587-3.439,0.159-8.179-2.382-11.654c-2.23-3.049-1.251-7.328-2.406-10.773c-3.748-11.182-1.306-8.923-5.768-20.875
			c-1.811-4.851-7.11-3.352-10.492-4.692c-4.057-1.607-7.577-2.318-11.691-3.477l-10.105-2.848l-12.608-3.414
			c-1.251-0.339-49.086-13.711-44.968-11.912l-6.129-2.678c-3.663-1.601-7.91-2.376-12.115-2.867
			c-3.165-0.37-6.544,4.792-8.513,6.933l-15.848,17.226c-5.24,5.696-10.212,11.044-15.859,16.836
			c-1.212,1.244,1.226,2.763,2.531,3.551l43.048,26.01l21.646,13.327l29.89,18.169l11.179,6.847l55.793,34.095l11.805,7.236
			c0.944-2.119,0.758-5.599-0.83-8.188c-2.063-3.365-0.776-7.59-2.278-10.764c-1.928-4.074-1.645-8.345-2.997-12.213
			c-1.665-4.764-2.417-8.891-3.023-13.953c-0.262-2.19-3.709-4.329-2.5-7.405C623.423,378.189,619.671,374.973,619.429,371.549z
			 M785.856,473.409l-2.971-8.995l-3.136-8.818l-3.187-8.788c-0.888-2.449-1.468-4.668-2.332-6.947l-7.663-20.209
			c-1.545-4.074-2.634-8.349-4.015-12.38l-3.31-9.657l-2.964-8.136c-1.154-3.167-1.937-5.871-3.052-9.039l-3.067-8.709
			c-2.414-6.855-5.041-13.054-7.056-20.018c-1.853-6.406-14.886-40.107-14.855-42.987c0.011-1.032-1.156-2.446-1.873-2.704
			c-1.126-0.406-1.462,0.075-2.193,1.269l-75.445,123.216c-1.687,2.754-4.106,4.427-4.73,7.665
			c-0.844,2.167,15.544,6.858,18.239,7.752l16.925,5.612c6.519,2.161,11.638,4.132,16.364,5.627l10.639,3.367l30.294,9.833
			c3.42,1.11,34.802,11.736,35.199,11.969c-3.236-1.911,19.558,6.808,18.801,5.641c2.074-1.171-0.974-3.219-1.143-4.277
			C788.774,480.261,786.936,476.681,785.856,473.409z M310.898,612.551c2.204-1.176,3.728-2.127,5.491-3.053l28.986-15.218
			l85.344-45.617c4.945-2.643,8.945-5.685,14.237-7.732c2.692-1.042,4.93-2.709,4.887-6.193c-0.071-5.672,0.888-11.822-0.22-17.404
			c-1.54-7.755,0.006-14.948,0.014-22.729l0.09-85.481c0.005-4.369-0.216-7.852-0.172-12.238l0.544-54.853
			c0.034-3.434-0.297-6.523-1.808-9.433l-19.257,10.561l-23.077,12.872l-23.276,12.904l-93.989,51.634
			c-3.833,2.106-7.561,3.51-10.519,6.725l-0.727,63.189l-0.633,34.563c-0.106,5.765-2.009,11.592-0.173,17.364
			c1.558,4.901-0.855,10.611,0.196,15.017c1.053,4.415-1.431,6.96-1.445,10.706l-0.228,63.483L310.898,612.551z M469.1,528.561
			l58.573-31.728l10.918-5.45l94.398-50.506l-80.932-49.729c-2.302-1.414-4.906-1.28-6.458-4.002l-87.886-53.641
			c-1.081-0.66-2.359-0.573-2.718-0.071c-0.221,0.31-1.02,0.7-1.02,1.774l0.116,140.562c0.004,4.955,2.474,9.435,1.839,14.226
			c-1.409,10.625-1.978,33.332-0.256,45.149L469.1,528.561z M69.954,472.53c-0.762,2.638-2.807,4.69-1.689,7.41
			c5.14-5.415,9.286-11.559,14.132-17.545l14.78-18.26l11.062-13.941l40.963-50.9c2.938-3.65,5.739-6.855,9.204-10.199
			c-2.123-4.831-12.13-2.111-17.48-4.968c-4.616-2.465-10.072-1.081-14.633-2.64c-4.816-1.647-8.727-3.392-14.446-2.492
			c-2.151,0.339-4.479-0.472-6.015,1.353c-0.151,0.179-4.41,15.063-4.463,15.207l-3.455,9.503l-2.719,8.293l-3.64,11.343
			c-0.967,3.013-2.004,6.085-2.973,8.982l-3.294,9.847l-3.077,9.808c-1.882,6-4.592,13.023-6.08,18.053l-2.954,9.989L69.954,472.53z
			 M929.119,534.478c-0.466-5.545-4.063-8.929-4.856-13.461c-0.692-3.954-1.829-7.253-3.374-10.658l-3.117-6.869l-3.046-9.957
			l-3.049-7.943l-2.572-7.663l-13.062-35.941l-3.253-9.482c-4.069-11.862-8.186-21.882-12.341-33.78l-3.38-9.679l-3.475-9.503
			c-2.093-5.725-4.47-13.836-7.189-17.211c-2.666,4.06-3.642,7.346-5.395,10.699l-20.564,39.332l-19.467,37.603l-11.849,24.369
			c-2.144,4.409-5.519,8.009-7.036,12.859c-0.295,0.942-2.714,1.018-2.21,2.327c0.29,0.754,0.599,2.352,1.895,2.775
			c5.841,1.905,11.477,3.636,17.454,5.606l10.301,3.394c2.996,0.987,6.008,2.009,8.954,2.998l8.982,3.014l10.53,3.483l9.792,3.155
			c3.478,1.121,6.427,2.323,9.724,3.321l10.023,3.033l9.003,3.049C908.342,527.343,917.229,529.955,929.119,534.478z
			 M920.888,494.028c1.792,6.373,4.075,12.245,6.523,18.484c1.598,4.075,1.273,8.831,5.564,11.647
			c-1.471-8.66,2.557-29.908,2.603-31.397l0.723-23.474c0.102-3.296,0.937-6.501,1.19-9.759c0.348-4.473-3.971-7.492-6-10.879
			c-3.17-5.292-6.751-9.791-10.268-14.725l-10.46-14.677l-15.565-21.388l-16.743-23.816c-2.256,2.844,1.077,4.853,1.846,7.378
			l3.061,10.058l3.568,9.437c1.202,3.179,2.227,6.4,3.388,9.532l2.726,7.352c1.665,4.489,19.227,53.124,19.326,53.614
			C913.055,474.828,920.18,491.513,920.888,494.028z M769.052,532.499l21.876-36.988c-2.645-3.337-15.732-6.442-21.27-8.316
			l-9.01-3.05l-9.017-3.03l-9.666-3.183c-0.153-0.05-32.539-11.299-28.957-9.045l-4.13-2.598c4.192,2.637-20.462-6.124-18.45-5.537
			l-10.055-2.933l-11.048-3.995c-3.086-1.116-6.121-1.417-9.331-2.724l-9.229-3.758c-2.356-0.959-5.853,0.109-7.334-2.517
			c-2.83,4.767-1.304,8.92-0.82,13.433l2.115,19.76l1.007,15.87c0.941,14.842,2.116,17.539,2.987,31.089l1.091,16.958
			c0.377,5.869,1.745,11.536,1.922,17.32l0.482,15.67c0.094,3.043,4.616,3.314,6.924,2.381c3.175-1.284,6.776,0.774,9.606-0.62
			c5.965-2.939,15.393-1.559,22.962-4.069c4.54-1.505,8.604-1.024,13.13-2.071l8.114-1.878l15.045-1.029
			c6.219-0.425,12.298-3.968,18.924-2.404c2.113-1.898,4.956-3.729,6.219-5.863L769.052,532.499z M595.177,567.362
			c5.253,0.577,9.928,2.23,15.026,3.062c7.918,1.292,30.305,6.543,29.082,6.368l7.221,1.034c1.731-12.945-1.958-24.499-2.262-36.782
			l-0.534-21.605c-0.177-7.145-2.505-2.385-2.507-16.361c-0.001-9.712-1.153-18.501-2.02-28.117l-0.989-10.968
			c-0.568-6.304,0.897-12.595-1.879-18.366l-147.849,78.631l-6.846,3.401c-6.606,3.282-12.894,6.673-19.067,11.231
			c0.888,2.271,3.181,0.377,4.416,1.024c5.141,2.691,10.219,3.148,15.918,3.26c2.481,0.049,4.469,2.952,7.07,2.829
			c5.378-0.254,10.376,0.131,14.855,3.379c5.35-1.807,9.726,1.492,14.39,2.173c5.038,0.736,9.516,0.866,14.367,2.839
			c4.228,1.72,9.142,1.085,13.564,2.508c6.671,2.148,13.691,3.251,20.791,4.142c4.883,0.612,9.436,3.45,14.238,3.463
			C587.023,564.519,590.844,566.885,595.177,567.362z M898.676,529.665c-3.564-0.739-5.962-1.903-9.278-2.919l-11.456-3.511
			c-2.675-0.82-5.353-2.156-7.999-2.988l-10.616-3.34c-2.852-0.897-5.798-2.835-8.44-3.324c-3.393-0.628-16.298-4.781-19.119-6.238
			c-2.257-1.166-5.877,0.297-7.463-2.857c-7.985-1.202-15.074-4.319-22.637-7.166c-2.302-0.867-5.165-0.29-6.485,1.891
			l-9.802,16.201l-14.433,24.436l-15.415,26.001l14.37,15.329c10.873,11.598,20.738,23.589,32.121,34.758
			c0.931,0.913,0.595,2.856,1.706,2.992c1.133,0.139,2.51,0.345,3.791-0.498l66.237-43.578l24.77-16.367
			c3.749-2.477,6.971-4.788,10.794-7.233l11.55-7.386c2.438-1.559,5.073-2.288,5.183-6.035
			C922.715,538.999,899.756,529.889,898.676,529.665z M145.747,677.555c1.195,2.538,0.404,4.712,4.088,5.243
			c0.804-8.761,0.366-17.962,0.656-27.366l0.776-25.154c0.168-5.434,1.75-10.761,1.661-16.199c-0.065-3.991,0.699-7.368,0.79-11.202
			l0.755-31.553c0.127-5.311,0.613-8.432-4.347-11.583l-28.683-18.224L90.03,521.033c-7.71-5.027-14.335-10.768-23.474-14.591
			c5.352,14.017,11.031,26.323,17.188,39.082l3.216,6.665l3.405,6.629l3.38,7.689c0.67,1.524,1.726,3.735,2.621,5.189
			c3.048,4.95,4.476,10.012,6.86,15.151l20.901,45.055l12.221,25.7L145.747,677.555z M613.608,705.229l15.642,3.387
			c3.555,0.77,7.601,0.27,11.151,1.956c4.89,2.321,9.972,2.315,15.223,2.712c0.998,0.076,1.731,2.595,2.423,1.257
			c3.449-6.669,0.047-8.526-0.849-14.505c-0.889-5.932-0.498-11.655-0.737-17.502l-0.793-19.376
			c-0.095-2.314-2.547-4.261-1.823-7.148c1.184-4.722-0.864-9.341-0.774-13.882c0.377-19.089-2.061-15.436-2.821-32.099
			l-0.727-15.928c-0.2-4.373-0.346-11.441-5.027-11.809l-7.067-0.556c3.979,0.313-25.735-5.916-28.239-6.235
			c-5.044-0.641-9.45-3.159-14.856-2.962c-2.951,0.107-6.061-3.086-9.245-2.57c-5.042,0.817-8.939-1.099-13.362-2.529
			c-4.014-1.298-8.811-0.236-12.717-2.442c-3.896-2.201-8.833-1.018-12.662-2.454c-4.906-1.839-8.961-2.885-14.488-2.714
			c-3.356,0.104-7.109-3.609-10.79-2.692c-4.08,1.017-6.971-2.475-10.148-2.636c-10.3-0.521-43.208-9.83-56.843-11.09
			c-3.531-0.326-6.41,2.743-9.387,4.32l-73.805,39.068l-43.985,23.181l-42.454,22.589c-1.312,0.698-2.691,0.437-2.605,1.88
			c0.046,0.771,1.282,2.662,2.492,2.408c5.399-1.137,9.211,1.755,13.8,2.589c5.646,1.026,10.577,0.784,15.929,3.312
			c3.146,1.487,8.617-0.092,11.616,1.633c4.364,2.51,8.793,1.857,13.27,3.052c5.432,1.45,9.99,2.949,16.106,2.967
			c2.574,0.007,5.328,4.223,8.953,2.697c4.152-1.747,7.722,2.07,11.085,2.385c5.767,0.54,10.742,1.635,16.234,2.916l12.907,3.008
			c5.673,1.322,11.149,2.006,16.871,3.265l12.353,2.719c5.23,1.151,10.671,1.101,15.707,3.482c3.063,1.448,6.618,0.461,9.629,1.437
			c5.045,1.634,9.676,2.96,15.137,2.822c2.322-0.058,4.638,3.307,6.917,2.841c5.565-1.138,9.569,1.649,14.362,2.506
			c4.986,0.891,9.359,0.939,14.171,3.006c4.026,1.729,9.364,0.199,13.567,2.653c3.371,1.968,8.143,0.591,11.861,2.182
			c4.597,1.968,9.266,2.015,13.997,3.142c5.317,1.267,10.203,3.031,15.936,2.758c1.954-0.093,4.342,3.254,6.056,2.789
			c5.412-1.466,9.088,1.786,13.433,2.311C591.7,700.234,605.515,703.477,613.608,705.229z M847.499,735.636
			c2.324-5.558,3.358-7.388,5.775-13.19l3.526-8.467l15.199-35.895c3.435-8.113,5.732-16.159,10.034-24.017
			c0.013-0.024,6.653-15.033,6.433-14.088c1.193-5.12,3.258-8.59,5.795-14.54l3.595-8.432c2.636-6.184,3.684-9.602,6.005-15.143
			l23.1-55.168c-7.012,4.11-12.143,7.549-17.7,11.647l-35.771,23.271l-109.345,72.506l-53.76,35.196l-20.226,13.833
			c-3.46,2.367-7.27,3.707-10.586,6.504c-3.983,3.359-9.124,5.212-12.976,9.404l124.718,148.759
			c10.099-19.911,15.926-38.01,25.298-57.353c-0.981-2.934,2.615-4.621,2.794-6.682c0.281-3.235,1.849-4.844,2.827-7.311
			l3.142-7.922L847.499,735.636z M158.386,754.003l20.042,31.311c2.254-3.028-1.702-4.569-1.894-6.641
			c-0.354-3.831-2.219-6.385-3.292-9.751l-3.373-10.587c-1.228-3.853-5.478-14.324-6.219-16.712
			c-1.03-3.318-1.173-6.211-2.768-9.446c-1.832-3.716-7.726-21.147-9.077-25.916c-2.35-8.295-6.051-15.431-9.749-23.116
			l-6.148-12.777l-6.914-15.35l-34.841-74.953l-7.543-16.768c-2.397,3.264,0.416,6.148,1.6,9.242l3.329,8.693l3.363,9.735
			c4.493,13.006,8.297,22.21,13.11,36.062l8.963,25.796c1.307,3.761,8.405,23.256,9.268,24.848
			c-0.842-1.553,5.471,16.052,5.852,17.091l8.426,23.023c2.146,5.863,4.926,11.119,6.716,16.911
			C149.501,742.03,154.253,747.546,158.386,754.003z M660.803,664.655c0.93,6.643-0.794,13.093,0.613,19.117
			c1.069,4.575,1.92,8.378,1.741,13.311c0.18-4.947,0.897,21.821,2.739,15.096l48.781-32.486l30.603-20.297l54.931-35.859
			l-46.509-52.188c-2.137-2.398-5.993-2.185-8.752-1.34c-4.387-0.195-8.377,0.121-12.389,1.667
			c-3.495,1.347-6.911,0.995-10.506,1.569c-7.347,1.173-14.39,3.38-21.983,2.682c-6.45,3.133-13.377,1.825-20.105,3.158
			l-14.927,2.957c-3.56,0.705-7.918-0.588-10.31,2.743c-1.709,2.38-0.068,5.673,0.008,8.451l0.564,20.649
			c0.279,10.209,3.024,19.675,2.829,30.204C658.007,650.809,659.809,657.554,660.803,664.655z M259.269,706.307l2.45-17.623
			c1.461-10.509,6.141-32.222,5.445-41.706c-0.151-2.053,3.129-4.699,1.928-7.414c-0.632-1.429-1.729-3.359-3.934-4.78
			l-38.839-25.023l-15.253-9.899l-46.68-30.048l69.315,153.23c2.653,5.866,3.128,7.161,5.571,12.546l3.771,8.311
			c2.487,5.483,5.292,10.118,7.612,16.248c-0.267-4.981,2.352-9.356,2.91-14.3c0.771-6.836,1.579-13.246,3.147-19.96
			C255.3,731.94,259.555,704.247,259.269,706.307z M243.034,757.441c-1.801-3.45-2.817-6.765-4.35-10.155l-26.229-57.999
			c-1.25-2.764-2.354-4.696-3.24-7.849c0.865,3.078-6.956-14.914-5.953-12.89l-3.3-6.662l-24.119-53.633l-8.967-20.092
			c-1.156-2.591-1.927-4.827-3.751-7.343c-0.598-0.825,0.261-3.671-0.964-4.217c-0.834-0.372-2.407-1.746-3.168-0.997
			c-0.095,5.864-0.33,11.49-0.502,16.892l-0.961,30.323c-0.119,3.742-2.248,6.929-1.686,11.23c0.83,6.353-0.596,12.601-0.708,18.843
			l-0.529,29.29c-0.073,4.048-2.828,10.11,1.758,13.527l71.506,53.293c4.526,3.373,13.321,9.315,16.614,13.227
			C246.404,759.673,243.921,759.141,243.034,757.441z M487.709,739.059l-2.993-7.627l-3.646-9.353
			c-1.025-2.629-1.933-5.415-2.97-7.981l-3.435-8.5c0.282,0.698-6.219-17.333-5.913-14.984
			c-2.251-17.296-17.486-12.264-23.921-15.397c-4.33-2.108-9.093-1.25-13.253-2.784c-4.906-1.81-9.52-1.947-14.341-2.997
			c-5.218-1.137-9.363-3.132-15.203-2.751c-2.23,0.145-5.072-3.678-7.993-2.765c-4.57,1.429-8.386-2.03-12.238-2.372
			c-9.304-0.827-32.399-6.985-43.247-8.967l-13.54-2.473c-9.85-1.799-14.442-3.952-27.485-5.829
			c-3.163-0.455-5.669-3.693-9.628-2.284c-3.271,1.164-6.913-1.498-9.528-1.903c-2.667,1.615,0.501,4.386,1.34,6.22l34.497,75.366
			l15.651,34.585l30.882,67.21l3.084,6.922l2.947,6.948l3.348,7.507l19.644,42.275l5.794,13.367l17.34,37.644
			c0.425,0.923-0.249,2.727,0.622,2.821c0.716,0.077,2.471,0.427,3.248-0.293l45.653-42.271l26.088-23.831l36.134-33.949
			c2.305-3.242-2.155-7.524-2.736-10.199c-0.743-3.417-2.071-5.962-3.162-8.806l-3.058-7.974c-1.225-3.193-1.222-5.396-2.947-8.359
			c-1.212-2.081-1.922-5.353-2.9-7.864l-3.346-8.588l-12.176-32.09l-3.627-9.187L487.709,739.059z M890.553,651.401
			c2.736-2.336,1.446-5.018,0.934-7.486C891.254,646.4,889.705,648.722,890.553,651.401z M327.943,875.357l2.698-11.897l3.164-12.93
			c2.405-9.827,4.132-15.153,5.841-25.403c0.717-4.299,2.889-7.91,2.982-12.959c0.066-3.592,4.984-7.632,1.701-11.828
			c-1.94-2.479-9.136-20.206-11.999-25.721c-2.645-5.095-4.674-9.904-6.985-15.077l-17.555-39.299l-6.56-13.489l-20.677-45.227
			l-4.433-9.67c-0.521-1.137,0.407-3.057-0.661-3.646c-0.917-0.506-1.808-1.485-3.632-1.123c1.106,6.927-1.583,16.604-2.311,22.287
			c-1.202,9.387-1.801,18.475-4.473,27.674c2.381-8.199-5.294,36.642-3.311,30.815l-2.779,8.166
			c-1.351,3.971,0.455,8.378-0.263,12.917c-1.113,7.04-5.057,15.484-2.299,22.73c6.03,15.845,14.128,30.159,21.646,45.262
			l15.258,30.651l8.295,16.858l10.625,21.09l6.767,13.592c0.42,0.844-0.635,2.407,0.505,2.875c1.427,0.585,2.64-2.093,2.616-1.967
			l2.281-11.82L327.943,875.357z M888.97,651.13l-8.282,20.884c2.341-1.239,1.943-3.956,4.658-4.901
			C885.076,662.988,891.685,657.97,888.97,651.13z M607.018,765.076l22.023-20.034l5.523-5.489l14.794-14.136
			c1.937-1.851,4.686-2.841,6.28-5.436c-4.692-3.212-10.448-1.849-14.86-3.769c-4.353-1.894-8.145-1.816-12.554-2.702
			c-0.221-0.044-33.43-7.229-29.921-5.828l-6.369-2.544c6.207,2.48-30.853-5.809-28.606-5.367l-13.354-2.63
			c4.252,0.837-35.447-8.098-27.005-5.19l-8.048-2.772c5.036,1.734-26.838-4.933-29.192-5.75c-3.82-1.326-8.78-0.148-12.671-2.886
			c-3.259,0.684,4.178,15.403,5.283,18.831c0.947,2.937,1.603,5.583,2.756,8.397l3.453,8.424l11.327,29.055l3.023,8.936
			c0.88,2.601,1.731,4.802,2.787,7.402l3.443,8.479c1.076,2.651,1.614,5.622,2.754,8.113c5.822,12.727,10.913,29.915,16.315,41.633
			c2.407,5.22,3.564,10.639,6.433,15.681c7.058-5.363,12.041-11.401,17.96-16.781l18.445-16.767L607.018,765.076z M239.29,838.372
			c2.825-6.596,1.901-12.786,3.218-19.245c1.517-7.44,2.269-14.419,3.161-21.87c0.733-6.13,2.729-11.835,2.86-18.155
			c0.106-5.079,0.401-7.824-4.505-11.392l-18.931-13.769l-36.128-26.885l-30.319-21.929l13.582,29.815l37.31,79.459
			c5.298,11.283,10.5,23.585,15.769,34.37l9.478,19.401c2.808-3.113-0.014-6.43,1.597-8.663
			C238.612,856.417,238.747,839.641,239.29,838.372z M866.135,712c0-0.351-0.284-0.635-0.635-0.635s-0.635,0.284-0.635,0.635
			s0.284,0.635,0.635,0.635S866.135,712.351,866.135,712z M824.164,804.829l-3.473,9.082c-1.222,3.195-4.696,5.545-1.958,9.275
			c0.043-3.474,2.871-5.163,3.597-7.661c0.833-2.866,1.846-5.25,3.045-7.951l12.968-29.212c1.316-2.965,5.307-14.833,6.96-17.086
			c2.013-2.744,2-6.011,3.305-8.803l6.977-14.926c1.293-2.767,1.895-5.136,3.124-8.039l2.954-6.976
			c1.356-3.202,3.717-6.225,1.782-9.657c1.007-0.054-7.775,13.833-4.773,11.645c-2.664,1.943-2.31,4.492-3.31,6.877l-3.262,7.779
			l-2.829,7.231l-3.18,6.767c-3.187,6.782-3.769,11.623-6.717,16.173c-1.786,2.757-1.819,5.429-3.084,8.072l-3.242,6.772
			l-2.768,7.242C829.94,792.326,825.33,801.78,824.164,804.829z M626.91,818.653c5.647-1.479,10.915-3.082,17.082-2.762
			c2.09-0.781,4.349-3.275,6.268-4.687c-1.277-11.403,1.022-18.253,2.332-27.436c0.694-4.863,0.617-9.844,1.047-14.767
			c0.329-3.766,1.675-6.518,1.982-10.003l1.235-14.008c0.37-4.19-0.839-8.522,0.535-12.657c0.516-1.552,2.849-4.638,1.182-5.955
			c-1.861-1.47-3.616,2.211-4.806,3.297c-5.388,4.917-10.239,9.797-15.837,14.342c-4.528,3.676-8.006,7.633-12.461,11.733
			l-86.042,79.173c2.283-0.565,6.457,1.155,9.341-0.198c5.243-2.461,32.98-6.982,30.184-5.949l7.187-2.656
			c-3.764,1.391,26.028-4.388,26.987-4.973C617.399,818.537,622.423,819.828,626.91,818.653z M662.442,812.478
			c4.903-3.331,11.222-1.648,16.369-2.779c8.138-1.787,28.296-4.697,37.367-5.805l8.726-1.066c1.295-0.158,2.683-1.748,2.779-2.452
			l-63.207-75.079c-0.097,6.381-2.85,10.801-3.058,16.094l-0.684,17.373c-0.348,8.845-3.546,17.224-2.613,26.257
			c0.763,7.385-5.397,9.442-2.654,26.83C655.741,813.589,660.971,813.477,662.442,812.478z M189.035,797.693
			c1.39,5.274,3.534,9.17,6.591,13.696l18.528,27.438c-4.815-13.501-10.865-24.506-16.451-36.612l-19.259-41.738
			c-1.284-2.782-2.623-5.192-3.309-8.409c-3.365,3.295,0.263,5.826,1.015,8.609c1.577,5.836,4.875,13.365,6.808,19.306l2.931,9.012
			C186.789,791.764,188.313,794.95,189.035,797.693z M256.271,883.368l42.686,16.671c5.878,2.296,9.394,3.374,16.843,6.098
			c-3.889-8.273-7.838-16.264-12.482-25.558l-16.29-32.596l-4.017-8.89l-12.898-26.204c-5.3-10.767-10.42-21.12-16.407-32.304
			c-1.602,4.934-0.397,10.253-2.419,14.789c-2.036,4.567-1.177,13.637-2.758,20.383c-0.851,3.629-1.725,6.305-1.811,10.355
			c-0.231,10.824-3.039,12.992-4.08,27.858c-0.483,6.899-3.518,13.851-2.496,20.915c0.476,3.29,4.319,3.312,6.601,4.405
			C249.868,880.786,252.748,881.992,256.271,883.368z M687.247,892.347l10.516-1.657c4.413-0.695,23.263-5.951,29.119-6.007
			c-1.883,0.018,34.791-7.732,38.289-8.245c4.446-0.652,11.924-1.411,15.472-3.281c1.274-0.672,7.447,0.406,5.52-2.095
			c-10.998-14.275-22.703-27.37-34.014-41.045l-12.802-15.479c-2.143-2.591-5.525-8.344-9.175-7.883
			c-3.407,0.431-6.441,1.525-10.226,1.604c-7.795,0.163-15.203,2.876-22.966,3.763c-2.487,0.284-5.416-0.689-7.63,0.319
			c-6.036,2.75-12.021,2.294-18.36,2.984c-5.301,0.577-9.945,3.828-16.072,2.551c-0.351,2.914-3.112,5.335-2.896,8.084
			c0.819,10.427-2.156,19.808-2.798,30.059l-0.875,13.969c-0.275,4.382-0.941,8.015-1.854,12.216
			c-1.323,6.084-0.556,12.616-0.955,18.765c4.852,0.506,7.947-1.989,11.876-2.492C665.227,897.48,681.933,893.184,687.247,892.347z
			 M364.93,925.326c6.871,2.507,10.074,3.773,16.306,6.234l8.661,3.419c5.332,2.105,13.117,4.582,17.69,7.472
			c1.684-3.469-0.871-4.73-1.832-6.821l-17.189-37.405l-7.02-15.711l-24.267-53.007c-1.002-2.188-6.104-12.931-6.183-14.598
			c-0.047-1.003-1.883-2.299-2.511-1.91c-0.468,0.29-1.754,1.197-1.598,2.011c0.953,4.95-1.974,8.785-2.49,13.159
			c-0.228,1.935-11.996,48.501-11.099,47.179c-2.603,3.838-1.708,7.609-2.782,11.663c-1.243,4.694-3.092,8.405-3.151,13.883
			c-0.024,2.187-5.201,5.573-1.505,8.48c1.839,1.447,5.537,3.782,8.135,4.174c2.136,0.323,19.173,7.523,22.459,8.722L364.93,925.326
			z M529.685,922.55c3.276,0.58,6.313-1.909,9.43-2.175c5.651-0.482,10.678-1.549,16.078-3.021c4.58-1.248,9.507-0.648,13.923-2.265
			c2.975-1.089,41.588-7.012,47.871-8.308l12.999-2.681c3.774-0.778,7.744-0.896,9.489-4.53c2.807-5.846,0.367-12.548,1.788-18.594
			c2.131-9.063,3.41-17.443,2.756-27.093c-0.247-3.646,2.481-7.365,2.851-11.063c0.591-5.91-0.598-11.636,0.603-17.402
			c0.403-1.936,0.421-3.454-0.529-4.918c-1.067-1.645-2.925,0.683-4.094,0.441c-5.21-1.076-8.771,1.707-13.323,2.458
			c-4.894,0.807-9.272,1.539-14.101,3.014c-4.901,1.497-10.231,0.683-15.295,2.961c-4.157,1.87-9.65,0.267-14.127,2.802
			c-3.687,2.087-8.967,0.629-12.956,2.157c-5.294,2.029-10.303,2.349-15.908,3.198c-4.408,0.668-8.154,3.285-13.344,2.733
			c-3.04-0.323-9.577,1.639-11.167,4.008c-0.677,3.403-1.848,7.564-1.987,10.789l-0.383,8.888l-0.96,17.048l-0.439,32.034
			C528.815,916.296,528.31,919.421,529.685,922.55z M501.244,929.086c9.365-6.246,17.744,0.676,20.98-8.974
			c0.794-2.366,2.402-4.44,0.636-7.118c1.354-3.551,1.4-7.19,1.087-10.98c-0.233-2.821,0.713-13.472,0.795-18.09l0.441-24.843
			c0.067-3.783,1.721-7.078,0.423-11.346c-4.846,5.011-9.81,8.999-15.116,13.906l-71.083,65.725
			c-5.455,5.044-9.785,9.938-15.671,14.288c5.745,1.15,10.569-0.236,15.403-2.735c4.306,0.679,7.953-0.929,12.073-1.704
			l17.659-3.318c4.613-0.867,9.395-1.094,14.156-2.174C488.867,930.398,494.571,928.331,501.244,929.086z"/>
	</g>
</g>
</svg>
