<?xml version="1.0" encoding="iso-8859-1"?>
<!-- Generator: Adobe Illustrator 30.1.0, SVG Export Plug-In . SVG Version: 9.03 Build 0)  -->
<svg version="1.1" id="Layer_1" xmlns="http://www.w3.org/2000/svg" xmlns:xlink="http://www.w3.org/1999/xlink" x="0px" y="0px"
	 viewBox="0 0 1000 1000" style="enable-background:new 0 0 1000 1000;" xml:space="preserve">
<g>
	<g>
		<path style="fill:#F80550;" d="M493.053,949.085l-246.592-72.35c-6.727-1.974-11.964-3.549-18.22-6.095L48.371,622.902
			c-1.934-4.53,0.591-9.61,0.535-13.809c-0.089-6.681,0.337-12.564,0.891-19.049l0.94-11.009l1.006-12.009l1.071-14.947
			c0.398-5.554,0.452-10.623,0.913-16.12l1.003-11.948l1.009-13.015l0.971-14.013l1.044-11.961
			c0.567-6.497,0.474-12.509,1.032-18.987l0.948-11.002l1.01-12.017l1.007-13.009c0.501-6.477,0.477-12.497,1.044-18.971
			l0.965-11.01c0.361-4.125,0.444-7.933,1.081-12.046c0.767-4.958-0.74-10.126,1.422-14.875c-0.807-6.599-0.016-12.196,3.373-17.789
			l154.538-254.999l248.515-44.389l28.487-5.107l218.379,39.576l18.04,3.223l37.68,6.857l159.745,259.343
			c0.165,9.348,1.126,17.049,1.718,26.171l1.034,15.935l0.947,19.042l1.049,14.942l1.03,21.044l0.927,12.032l1.091,15.959
			c0.329,4.814,0.891,9.284,0.998,14.062l0.38,16.985c0.114,5.097,0.72,9.916,1.065,14.98l0.958,14.054
			c0.464,6.797,0.462,13.169,1.017,20.001l1.053,12.963l0.893,14.087c0.382,6.019,1.558,11.761,0.635,18.011
			c0.762,4.331,2.818,8.978-0.025,12.95L772.386,870.962l-267.171,77.915C501.023,950.099,498.175,948.22,493.053,949.085z M626,189
			c16.204-0.686,32.639,1.359,49-1c4.172-2.653,7.376-6.019,11.44-9.683l79.822-71.964L506,59.168c-0.414-0.075-0.919-0.035-2-0.168
			c-5.266-0.646-9.99,0.456-15.694,1.483L358,83.947l-124.992,22.529l17.456,17.153l42.117,39.725l17.306,16.695
			c3.172,3.06,6.293,5.321,9.519,8.949L626,189z M762.906,444l2.094,6l25.396,77.076l152.071,88.167
			c1.889-4.632-0.493-8.337-0.363-12.182c0.268-7.875-1.811-22.893-1.959-30.064l-0.309-14.99
			c-0.085-4.11-1.636-24.324-2.059-31.078l-1.003-16.005l-0.981-15.955c-0.263-4.275-1.466-8.495-0.833-12.976
			c0.45-3.189-1.338-24.871-1.709-30.007l-1.012-14.009c-0.367-5.083-0.975-9.882-1.08-14.989l-0.31-14.977
			c-0.093-4.509-3.052-42.189-2.849-43.011c0.181-0.73-0.454-1.834-1.037-2.921c-10.808-20.185-23.531-39.231-35.897-59.33
			L771.285,108.072l-80.047,72.058c-4.466,4.021-8.78,7.06-12.528,12.076L762.906,444z M75,362c0.217,1.24-0.606,2.291-1,4
			c-0.941,4.079-0.947,8.42-1.321,12.875l-0.85,10.131c-0.575,6.853-0.44,13.182-1.058,20.012l-1.082,11.952l-0.949,13.01
			l-0.952,14.083l-1.06,13.962l-1.031,11.935l-0.892,14.102l-1.042,13.996c-0.24,3.228-0.587,6.676-0.944,9.987
			c-0.769,7.143-0.411,13.819-1.054,20.983l-1.072,11.948l-0.924,13.054l-0.993,11.017c-0.492,5.455-0.414,10.499-0.913,16.077
			l-1.07,11.963c-0.558,6.243-1.989,12.037-0.223,18.521c2.152-2.284,3.986-2.938,5.986-4.139l46.785-28.106l39.337-23.717
			l54.567-32.706l26.974-82.142c0.776-2.364,1.208-3.855,2.484-6.253l83.149-247.336c-6.132-4.602-13.539-12.177-19.872-18.224
			l-18.397-17.567l-23.142-21.837l-17.811-17.2c-2.743-2.649-5.747-4.793-8.734-7.735L75,362z M236.9,442
			c-1.023,0.802-0.499,2.114-0.885,3.961c-0.559,0.97-1.82,2.17-2.403,3.92l-25.957,77.998l85.265,61.181l4.819,3.517
			l198.909,144.886c6.615-5.671,12.857-9.502,19.625-14.422l200.187-145.514c1.35-0.982,2.5-2.37,4.604-3.462
			c9.086-5.055,16.825-11.982,25.58-18.269l39.421-28.307l-20.829-61.593c-1.682-4.974-2.942-9.601-4.392-14.686
			c-4.097-0.75-1.727-3.836-2.622-6.515l-84.046-251.68l-354.384-0.044l-49.984,149.795c-1.704,5.209-3.784,9.07-4.873,14.265
			l-24.241,72.729C239.235,434.149,237.077,437.749,236.9,442z M233.126,863.94c0.675,0.926,2.805,1.744,3.874,2.06l101.974,30.154
			l157.842,46.316L497,920l-0.016-19.954c-0.001-0.687-0.606-1.164-0.984-1.046v-56l-0.025-19.954
			c-0.001-0.689-0.585-1.163-0.975-1.046l-0.333-70.268c-0.006-1.26-0.097-2.514,0.333-3.732l-0.03-6.314L204.898,531.323
			L55.676,620.844L71.25,641.98L233.126,863.94z M499,776v23c0,3.284,0.693,6.459,0.716,10.107L500,853l0.046,30.927
			c0.001,0.671,0.42,1.173,0.836,1.073l0.199,57.527L765,865c1.57-0.461,2.566-0.253,3.564-1.646l173.99-242.846l-28.681-16.542
			l-121.098-70.518c-4.025-2.344-5.226-1.679-8.768,0.891L504.477,737.158c-2.58,1.872-4.96,2.641-5.297,4.697
			c-0.545,3.325-0.69,6.221,1.606,8.67c0.079,1.267-1.786,1.999-1.786,3.442L499,776z"/>
		<path style="fill:#FCBDC5;" d="M297.74,592.577l-4.819-3.517c0.424,0.207,1.162-0.35,0.957-0.963l-3.743-11.243
			c-0.336-1.008-0.469-2.516,0.356-2.804c1.297-0.453,2.582-0.11,2.93,1.549C294.988,583.071,298.192,588.225,297.74,592.577z"/>
		<path style="fill:#FCC4CC;" d="M237,866c-1.069-0.316-3.199-1.135-3.874-2.06c2.531-3.71,6.249-6.737,9.768-10.15
			C250.963,854.581,235.78,862.945,237,866z"/>
		<path style="fill:#FCC0C8;" d="M926.963,362.079c0.582,1.088,1.217,2.191,1.037,2.921l-10.624,5.395
			c-1.089,0.553-1.837,0.779-2.395,0.168c-0.383-0.42-1.802-1.813-0.817-2.339C918.565,365.874,922.607,363.518,926.963,362.079z"/>
		<path style="fill:#FCB9C2;" d="M768.564,863.354c-0.998,1.393-1.995,1.185-3.564,1.646l-7.748-9.162
			c-0.664-0.785-0.464-2.43,0.229-2.833c0.801-0.467,1.669,0.435,2.361,1.164L768.564,863.354z"/>
		<path style="fill:#FDFDFD;" d="M675,188c-16.361,2.359-32.796,0.314-49,1c-0.118-0.372,0.356-0.993,1.078-0.993L675,188z"/>
		<path style="fill:#FCBCC5;" d="M721.066,574.066c-2.104,1.092-3.253,2.48-4.604,3.462c0.726-5.163,2.964-10.024,4.789-15.352
			c0.335-0.977,1.945,0.414,2.337,0.808C724.839,564.242,720.465,570.961,721.066,574.066z"/>
		<path style="fill:#FCBFC6;" d="M74,366c0.394-1.709,1.217-2.76,1-4l13.143,6.606C87.101,375,78.923,365.124,74,366z"/>
		<path style="fill:#FCC0C8;" d="M236.016,445.961c0.385-1.846-0.139-3.158,0.885-3.961c2.576,3.239,7.506,4.487,10.908,7.252
			C247.877,453.964,236.617,446.885,236.016,445.961z"/>
		<path style="fill:#FCA5AF;" d="M506,59.168c1.042-1.131,2.578,17.252-1.668,15.309L504,59
			C505.081,59.133,505.586,59.093,506,59.168z"/>
		<path style="fill:#FCC4CC;" d="M765,450l-2.094-6c3.133-0.7,6.082-1.994,9.151-4.112C779.796,444.421,762.703,444.847,765,450z"/>
		<path style="fill:#FCA5AF;" d="M495,748c-0.43,1.218-0.339,2.473-0.333,3.732c-5.568-0.241-12.292,2.246-11.65-2.073
			C483.485,746.51,487.944,750.915,495,748z"/>
		<path style="fill:#FCE5E8;" d="M500.882,885c-0.415,0.1-0.835-0.402-0.836-1.073L500,853c0.453-0.118,0.92,0.359,0.919,1.059
			L500.882,885z"/>
		<path style="fill:#FDF4F5;" d="M499,799v-23c0.772-0.073,1.026,0.916,1.026,1.952l0,19.096
			C500.026,798.084,499.769,799.079,499,799z"/>
		<path style="fill:#FDF4F5;" d="M496,843c-0.787,0.073-1.017-0.917-1.017-1.949L495,822c0.39-0.117,0.974,0.358,0.975,1.046
			L496,843z"/>
		<path style="fill:#FDF4F5;" d="M497,920c-0.772,0.073-1.027-0.918-1.026-1.949L496,899c0.378-0.118,0.983,0.359,0.984,1.046
			L497,920z"/>
		<path style="fill:#FCB9C2;" d="M523.027,280.838c0.141,1.866-2.903,1.124-4.086,0.258l-13.267-9.705
			c-0.715-0.523-0.8-2.178-0.668-2.743c0.167-0.716,1.229-1.773,2.387-1.6c0.735,0.11,0.98,2.054,1.77,2.761
			C513.473,273.667,519.018,275.743,523.027,280.838z"/>
		<path style="fill:#FCBDC5;" d="M265.276,488.227c0.43,1.398,1.085,2.214,0.253,2.783c-0.483,0.33-1.06,1.504-2.001,0.963
			c-0.527-0.303-1.01-1.441-1.277-2.272l-5.396-16.817c-0.321-0.999,2.068-1.115,2.612-0.878c0.543,0.238,1.127,1.007,1.454,2.069
			L265.276,488.227z"/>
		<path style="fill:#FCBFC6;" d="M410.604,340.36c-0.672,2.484-16.587,12.547-16.106,12.544c-0.693,0.005-2.348-2.372-1.497-3.04
			c4.672-3.668,9.856-6.354,14.299-10.618C408.157,338.426,410.904,339.252,410.604,340.36z"/>
		<path style="fill:#FCC0C8;" d="M577.62,322.867l-14.461-10.18c-1.047-0.737,1.282-3.504,2.581-2.562l13.973,10.137
			c1.145,0.831,1.787,1.622,0.875,2.76C579.916,323.86,579.28,324.035,577.62,322.867z"/>
		<path style="fill:#FCBFC6;" d="M751.127,477.575c-0.365,1.242-1.257,2.108-1.91,2.411c-0.482,0.224-0.872-0.431-1.731-0.915
			c-0.589-0.332,5.066-18.23,5.432-18.659c0.818-0.958,3.266-0.04,2.844,1.397L751.127,477.575z"/>
		<path style="fill:#FCC0C8;" d="M669.319,383.633c1.376,7.15-15.627-6.977-18.216-8.842c-0.897-0.646,0.912-3.034,1.591-2.568
			L669.319,383.633z"/>
		<path style="fill:#FCC4CC;" d="M322.467,400.958c5.929,1.234-15.096,14.118-14.973,14.129c-1.261-0.105-1.537-0.28-1.567-1.585
			c-0.024-1.065,0.381-1.365,1.443-2.148l13.241-9.757C321.318,401.076,321.993,400.859,322.467,400.958z"/>
		<path style="fill:#FCBCC5;" d="M423.044,331.765c-1.729,0.674-1.203-2.739,0.103-3.622l15.035-10.162
			c0.809-0.547,0.901,1.895,0.88,2.517C439.024,321.608,425.996,330.614,423.044,331.765z"/>
		<path style="fill:#FCBDC5;" d="M608.666,345.068c-1.134-2.452-22.53-13.138-14.175-14.16c1.149-0.141,1.251,0.668,2.24,1.374
			l11.668,8.332c0.678,0.484,1.354,0.555,1.493,1.028C610.183,342.632,610.341,343.434,608.666,345.068z"/>
		<path style="fill:#FCBFC6;" d="M282.433,541.597c1.099,3.528,5.998,17.292,4.077,18.412c-0.378,0.22-1.587,0.062-1.866-0.76
			l-5.543-16.374c-0.338-0.997-0.36-2.568,0.384-2.824C280.899,539.563,281.932,539.992,282.433,541.597z"/>
		<path style="fill:#FCC0C8;" d="M638.307,361.67c1.213,0.829,4.74,9.793-16.311-7.551c-0.86-0.708,0.618-2.248,0.946-2.654
			c0.756-0.935,1.228,0.55,2.287,1.273L638.307,361.67z"/>
		<path style="fill:#FCC0C8;" d="M379.512,359.896c7.611,1.236-14.083,13.19-14.001,13.189
			C357.038,373.177,379.824,359.947,379.512,359.896z"/>
		<path style="fill:#FCBDC5;" d="M497.733,278.687c-0.869,0.538-20.222,17.305-17.871,9.105l13.328-9.548
			c0.896-0.642,1.565-1.109,2.256-1.353C496.174,276.634,498.241,278.101,497.733,278.687z"/>
		<path style="fill:#FCC0C8;" d="M254.217,453.594l0.798,2.986c0.077,0.29-2.463,0.748-3.29,0.319
			c-1.383-0.718-1.244-5.02,0.023-5.973c2.75-2.069,11.178-8.595,12.74-7.88C269.429,445.309,253.858,452.251,254.217,453.594z"/>
		<path style="fill:#FCBFC6;" d="M752.235,446.736l-12.983-8.967c-1.159-0.8-1.754-1.644-0.844-2.773
			c0.842-1.046,1.183-0.966,2.571-0.007l13.042,9.012c0.789,0.545,1.725,0.898,1.978,1.527c0.396,0.987-0.547,1.445-0.981,1.984
			C753.968,448.82,753.366,447.517,752.235,446.736z"/>
		<path style="fill:#FCBCC5;" d="M270.905,506.774c0.494,0.301,7.116,18.513,4.362,19.225c-2.721,0.703-5.985-15.566-7.277-19.283
			C267.726,505.413,270.239,506.368,270.905,506.774z"/>
		<path style="fill:#FCB9C2;" d="M729.162,547.241c-0.375,1.257-3.471,1.071-3.166-0.042l4.766-17.394
			c0.443-1.618,0.532-1.785,1.771-1.884c1.633-0.131,1.965,1.431,1.464,3.11L729.162,547.241z"/>
		<path style="fill:#FCBFC6;" d="M336.796,393.986c-1.173,0.64-1.8-0.626-1.915-1.458c-0.201-1.464,7.233-6.116,9.294-7.398
			c2.255-1.403,3.568-4.27,6.925-4.188C357.709,381.105,337.58,393.558,336.796,393.986z"/>
		<path style="fill:#FCBDC5;" d="M467.71,300.648c-2.084,1.663-14.992,10.891-15.894,10.368c-4.485-2.6,15.21-13.234,14.701-13.103
			C468.02,297.527,468.802,299.777,467.71,300.648z"/>
		<path style="fill:#FCC0C8;" d="M280.904,434.38c-0.893,0.668-1.92,1.597-2.42,1.462c-0.558-0.151-1.358-0.966-1.491-1.478
			c-0.193-0.745,0.836-2.169,1.675-2.742l14.401-9.83c0.687-0.469,1.318,2.212,0.957,2.678c-0.361,0.466-1.121,0.933-1.976,1.572
			L280.904,434.38z"/>
		<path style="fill:#FCC0C8;" d="M550.435,303.171l-15.822-10.739c0.068-1.552,1.002-3.344,2.286-2.468l13.742,9.377
			c0.733,0.5,1.051,0.933,1.365,1.18C552.477,300.892,551.911,304.173,550.435,303.171z"/>
		<path style="fill:#FCC0C8;" d="M726.882,424.763c0.587,0.41-1.009,2.479-1.506,2.253c-0.529-0.241-1.675-0.374-2.44-0.932
			l-12.716-9.265c-0.831-0.605-1.628-1.629-1.212-2.337c0.404-0.688,1.963-0.823,2.776-0.256L726.882,424.763z"/>
		<path style="fill:#FCBFC6;" d="M698.386,404.795c-0.424,5.768-15.364-8.135-19.147-9.772c2.799-2.322,5.505-0.523,7.487,1.243
			C690.249,399.404,694.386,400.827,698.386,404.795z"/>
		<path style="fill:#FCBBC3;" d="M738.994,514.36c-4.445-1.76-1.054-5.763-0.037-8.468c1.693-4.503,0.573-10.419,6.327-12.371
			C744.271,500.861,741.354,506.734,738.994,514.36z"/>
		<path style="fill:#FCA5AF;" d="M506,252l0.021-16.053c0.001-1.032-0.242-2.019-1.021-1.947v-2h3v20H506z"/>
		<path style="fill:#FCA5AF;" d="M507,196v20c-0.454,1.276-0.704,0.881-1.033,0.503c-0.331-0.38-0.964-0.776-0.962-1.571
			l0.028-18.751C505.705,195.81,506.602,196.031,507,196z"/>
		<path style="fill:#FCD6DB;" d="M507,216v-20C508.664,202.313,508.705,209.777,507,216z"/>
		<path style="fill:#FCD6DB;" d="M506,252h-1v-18c0.779-0.073,1.022,0.915,1.021,1.947L506,252z"/>
		<path style="fill:#FCBBC3;" d="M675.72,761.253c0.836,0.993-0.049,1.778-1.198,2.682L661,750.466
			c4.474-4.259,4.404-20.682,8.992-18.068c2.101,1.197-4.493,14.284-3.83,17.504L675.72,761.253z"/>
		<path style="fill:#FCBCC5;" d="M675.265,719.082c-3.526-0.959-2.243-3.845-1.405-6.231c1.119-3.188,3.779-16.286,6.638-14.862
			C683.042,699.256,676.225,714.133,675.265,719.082z"/>
		<path style="fill:#FCBBC3;" d="M691.604,665.003c0.208,0.187-5.15,25.523-8.408,17.711c1.792-6.19,3.594-12.272,6.092-18.55
			C689.672,663.199,691.176,664.618,691.604,665.003z"/>
		<path style="fill:#FCBDC5;" d="M699.954,788.829c-0.678,6.48-11.882-10.875-15.162-12.688c-0.508-1.258,1.047-2.76,2.448-2.445
			C691.276,778.634,696.379,782.749,699.954,788.829z"/>
		<path style="fill:#FCC4CC;" d="M747.852,840.286c0.896,0.791-0.733,2.397-1.406,2.685c-1.528,0.654-8.129-8.646-13.251-13.207
			c-0.631-0.562-0.322-2.527,0.289-2.733C736.666,825.958,740.897,834.14,747.852,840.286z"/>
		<path style="fill:#FCB5BD;" d="M700.409,638.383c-1.75,4.082-1.93,9.548-4.188,11.63c-6,5.532,3.411-19.918,4.459-20.944
			C703.612,632.275,701.615,635.57,700.409,638.383z"/>
		<path style="fill:#FCC0C8;" d="M711.47,596.066c4.723-2.951-4.396,20.053-3.922,19.896c-0.62,0.206-2.835,0.316-2.65-0.871
			C705.563,610.814,709.18,597.497,711.47,596.066z"/>
		<path style="fill:#FCBCC5;" d="M708.93,801.544c2.054-3.855,20.026,16.612,13.326,15.158
			C719.903,814.702,708.273,802.779,708.93,801.544z"/>
		<path style="fill:#FCACB6;" d="M628,749.01l16-0.01c1.403,0,2.623-0.121,2.99,0.45c0.315,0.491-0.338,2.277-1.376,2.299
			l-17.539,0.383c-1.324,0.029-2.311-0.558-2.122-1.553c0.078-0.408-0.145-1.178,0.512-1.543
			C626.831,748.833,627.504,749.079,628,749.01z"/>
		<path style="fill:#FCACB6;" d="M608.345,751.989l-15.365,0.039c-1.807,0.005-3.419-1.037-2.925-3.024l20.847,0.004
			C611.465,750.569,610.27,751.984,608.345,751.989z"/>
		<path style="fill:#FCACB6;" d="M574.957,751.954l-18.9,0.031c-0.79,0.001-1.947-0.988-1.941-1.492s1.151-1.439,1.937-1.446
			l17.068-0.153C574.828,748.878,575.38,749.472,574.957,751.954z"/>
		<path style="fill:#FCA5AF;" d="M539,751c-5.93,2.392-12.674,0.304-19,1c-0.013-0.42-0.186-1.093,0.043-1.451
			c0.295-0.462,1.027-0.612,1.887-0.61l15.12,0.041C538.087,749.983,539.078,750.221,539,751z"/>
		<path style="fill:#FCC4CC;" d="M539,751c0.078-0.779-0.913-1.017-1.95-1.02l-15.12-0.041c-0.86-0.002-1.591,0.148-1.887,0.61
			c-0.229,0.358-0.056,1.031-0.043,1.451c-1.285-0.432-1.479-2.975-0.227-2.979l20.127-0.054
			C540.373,750.51,539.845,750.659,539,751z"/>
		<path style="fill:#FDFDFD;" d="M644,749l-16,0.01c-0.08-0.786,0.903-1.032,1.948-1.032l12.102,0.001
			C643.091,747.98,644.077,748.224,644,749z"/>
		<path style="fill:#FCC0C8;" d="M281.868,818.605c-1.107,1.123-1.959-0.265-2.431-0.619c-1.975-1.481,11.49-12.133,13.43-15.214
			c1.252-0.438,2.882,1.109,2.325,2.318L281.868,818.605z"/>
		<path style="fill:#FCBCC5;" d="M257.112,844.17c-1.187,0.578-2.855-1.082-2.317-2.253l14.216-14.456
			c2.118,2.135,1.003,4.361-0.786,5.767C264.092,836.475,260.957,840.612,257.112,844.17z"/>
		<path style="fill:#FCC0C8;" d="M320.09,779.962c-1.651,1.071-15.843,19.568-15.29,10.937l13.089-13.096
			C319.026,777.274,320.851,778.859,320.09,779.962z"/>
		<path style="fill:#FCB5BD;" d="M345,752c-0.473-6.564-2.081-6.071-0.046-8.543c1.941-2.357,1.35,5.563,7.071,5.56l8.84-0.004
			c0.239,1.126,0.256,1.85-0.015,2.99L345,752z"/>
		<path style="fill:#FCACB6;" d="M329.993,691.508c0.368,1.212,1.037,2.28,0.963,2.91c-0.065,0.549-1.071,1.53-2.515,1.802
			c-2.376-6.074-4.447-12.586-6.558-19.292c-0.347-1.102,2.026-1.135,2.577-0.917c0.551,0.219,1.137,1.005,1.458,2.063
			L329.993,691.508z"/>
		<path style="fill:#FCBDC5;" d="M333.95,709.44c2.625-3.703,7.079,20.258,7.962,19.076c-0.357,0.478-1.008,1.305-1.489,1.491
			c-1.012,0.391-1.576-0.633-1.898-1.603l-5.493-16.527C332.636,710.683,333.409,710.203,333.95,709.44z"/>
		<path style="fill:#FCB9C2;" d="M307.932,628.614c-1.255,1.89-9.82-24.075-5.838-21.398c3.214,4.564,4.123,9.264,5.567,14.094
			C308.619,623.398,310.309,625.761,307.932,628.614z"/>
		<path style="fill:#FCBBC3;" d="M319.288,658.211c0.46,1.51,0.817,2.29,0.333,2.795c-0.406,0.424-2.141,1.749-2.419,0.846
			l-5.197-16.877c-0.305-0.989-0.251-2.411,0.475-2.965c0.521-0.398,1.967,0.302,2.278,1.322L319.288,658.211z"/>
		<path style="fill:#FCBFC6;" d="M345,752c0.23,3.192-1.859,4.509-3.783,6.234c-3.711,3.329-6.02,8.017-11.506,10.033
			C327.277,767.204,344.341,749.114,345,752z"/>
		<path style="fill:#FCACB6;" d="M467.955,751.955l-18.894,0.03c-0.793,0.001-1.95-0.989-1.945-1.493
			c0.005-0.504,1.151-1.437,1.937-1.444l17.067-0.155C467.828,748.878,468.382,749.473,467.955,751.955z"/>
		<path style="fill:#FCAAB5;" d="M431.296,751.879l-19.138,0.166c-0.281-1.211-0.283-1.872,0.002-3.095l19.519,0.246
			c0.431,0.005,1.272,0.989,1.252,1.304C432.91,750.813,432.161,751.871,431.296,751.879z"/>
		<path style="fill:#FCA5AF;" d="M395.194,751.878l-16.218,0.208c-1.703,0.022-3.625-1.467-2.761-2.989
			c2.961,0.352,20.983-1.383,20.716,1.409C396.9,750.823,396.154,751.865,395.194,751.878z"/>
		<path style="fill:#FCBFC6;" d="M867.948,395.108c-26.607,14.612-14.79,3.674-15.697,4.112l14.831-7.171
			c1.128-0.546,1.761,0.326,2.468,0.916C870.421,393.693,869.092,394.48,867.948,395.108z"/>
		<path style="fill:#FCBBC3;" d="M885.703,386.182c-1.298,0.646-2.076,1.245-2.71,0.36c-0.313-0.437-1.479-1.194-0.959-1.964
			c0.469-0.695,14.997-7.788,17.474-8.577c1.262-0.402,1.488,0.434,1.569,1.497c0.095,1.237-0.444,1.256-1.716,1.89L885.703,386.182
			z"/>
		<path style="fill:#FCBDC5;" d="M821.274,418.901c-1.748,0.87-2.613-0.589-2.554-2.225c5.591-3.305,11.347-5.839,17.443-8.659
			c0.592-0.269,1.711,1.173,2.17,2.39L821.274,418.901z"/>
		<path style="fill:#FCBBC3;" d="M789.523,435.024c-1.137,0.608-2.386-0.175-2.54-0.537c-1.198-2.83,14.885-8.969,17.434-10.617
			c0.553,0.68,1.653,1.336,1.513,1.621c-0.14,0.285-0.675,1.121-1.145,1.373L789.523,435.024z"/>
		<path style="fill:#FCBFC6;" d="M213.544,435.02c-2.515-0.951-19.234-8.628-17.081-10.09c0.69-0.469,1.431-1.538,2.469-0.908
			c1.184,0.718,19.348,9.616,16.617,8.946C216.536,433.21,214.957,435.554,213.544,435.02z"/>
		<path style="fill:#FCC0C8;" d="M182.292,419.057c-0.276,0.156-17.082-7.323-18.378-9.625c2.092-2.732,4.26-0.876,6.303,0.339
			C173.615,411.791,187.285,416.237,182.292,419.057z"/>
		<path style="fill:#FCBDC5;" d="M151.862,401.509c0.611,4.714-18.665-6.893-18.839-7.063c-0.418-0.409-0.024-3.011,0.934-2.649
			C137.237,393.038,151.623,399.664,151.862,401.509z"/>
		<path style="fill:#FCBBC3;" d="M117.946,383.546c0.93,0.475,1.184,1.197,1.586,1.46c0.908,0.592-0.183,1.12-0.564,1.524
			c-0.523,0.554-1.446,0.504-2.335,0.04l-16.318-8.526c2.487-2.178,5.147-0.879,7.374,0.259L117.946,383.546z"/>
		<path style="fill:#FCA5AF;" d="M507,125v20c-0.549-0.075-1.373,0.041-2,0v-20c0.25-1.024,0.785-1.175,1.465-1.016
			C506.858,124.075,506.813,124.561,507,125z"/>
		<path style="fill:#FCA5AF;" d="M507,161v20c-1.251,0.205-1.737-0.086-2-1v-19c0.272-1.016,0.755-1.188,1.465-1.016
			C506.853,160.078,506.822,160.552,507,161z"/>
		<path style="fill:#FCAAB5;" d="M506,89v20c-0.454,1.276-0.704,0.881-1.033,0.503c-0.331-0.38-0.964-0.776-0.962-1.571
			l0.028-18.751C504.705,88.81,505.602,89.031,506,89z"/>
		<path style="fill:#FCD6DB;" d="M506,109V89C507.664,95.313,507.705,102.777,506,109z"/>
		<path style="fill:#FDF4F5;" d="M507,181v-20C508.327,164.341,508.774,181.339,507,181z"/>
		<path style="fill:#FDFDFD;" d="M507,145v-20C508.573,128.694,508.587,145.216,507,145z"/>
		<path style="fill:#FCD6DB;" d="M505,145c-1.679-6.327-1.704-13.794,0-20V145z"/>
		<path style="fill:#FDFDFD;" d="M505,180c-1.697-5.906-1.7-13.098,0-19V180z"/>
	</g>
</g>
</svg>
