<?xml version="1.0" encoding="iso-8859-1"?>
<!-- Generator: Adobe Illustrator 30.1.0, SVG Export Plug-In . SVG Version: 9.03 Build 0)  -->
<svg version="1.1" id="Layer_1" xmlns="http://www.w3.org/2000/svg" xmlns:xlink="http://www.w3.org/1999/xlink" x="0px" y="0px"
	 viewBox="0 0 1000 1000" style="enable-background:new 0 0 1000 1000;" xml:space="preserve">
<g>
	<g>
		<path style="fill:#FEFE05;" d="M247.658,877.068l-19.071-5.961L48.378,622.892c-2.164-3.676,0.788-8.365,0.606-11.759
			c-0.31-5.755,0.315-10.667,0.767-16.151l0.986-11.964l1.003-12l1.015-13.01c0.532-6.815,0.165-13.188,1.036-19.981
			c0.466-3.633,0.627-7.361,0.942-10.995l1.041-12.018c0.476-5.496,0.479-10.565,0.951-16.05l1.029-11.954l0.972-16.049
			l1.001-11.946l1.011-11.999l1.013-13.009c0.504-6.475,0.527-12.507,1.037-18.972l0.948-12.024l1.054-12.004
			c0.538-6.13,0.843-28.457,3.549-32.921l156.139-257.667l92.431-16.382l51.507-9.631c6.455-0.25,12.269-1.987,18.736-3.147
			l72.976-13.09c5.132-0.921,9.724-1.67,14.779-2.525l27.103-4.586l264.787,47.861c4.556,0.824,7.769,0.433,10.13,4.266
			l156.521,254.142c3.434,5.575,2.018,11.558,2.692,17.741c1.517,13.916,1.699,28.396,2.628,42.91l1.021,15.945l0.976,18.035
			l0.945,14.055l1.131,15.934c0.295,4.157,0.778,8.039,0.89,12.185l0.453,16.863c0.128,4.779,0.667,9.246,1.009,14.067l1.06,14.958
			c0.505,7.125,0.487,13.846,0.97,21.057l1.066,15.917l0.887,14.092c0.339,5.386,1.541,10.333,0.776,16.035
			c0.355,4.913,3.12,11.554,0.025,15.887L772.689,871.135l-266.485,77.718c-4.691,1.368-8.738-0.748-13.28,0.243l-86.601-25.505
			l-33.369-9.774L247.658,877.068z M626,189l49-0.89l62.078-54.982l13.086-11.96c5.479-5.008,11.072-9.496,15.766-14.787L507,59
			c-0.715-0.131-1.523,0.186-3,0c-4.889-0.614-9.373,0.51-14.665,1.465l-90.383,16.308l-39.125,7.055l-127.109,22.836l20.767,19.847
			l24.107,22.913l19.991,18.973l12.236,11.81c3.153,3.043,6.435,5.078,9.556,8.793L626,189z M763,444l1.669,5
			c1.175,4.625,2.736,9.101,4.382,14.069l21.168,63.868l152.204,88.377c1.81-5.892-0.143-12.088-0.259-18.22
			c-0.1-5.253-0.485-10.016-0.856-15.115l-1.085-14.889l-0.946-19.058l-1.042-14.949l-0.979-19.052l-1.063-14.964
			c-0.343-4.831-0.902-9.29-1.006-14.07l-0.372-16.994c-0.105-4.776-0.667-9.245-1.002-14.061l-1.108-15.929l-0.935-14.047
			c-0.43-6.45-0.506-12.503-0.959-19.057l-1.031-14.939c-0.297-4.307-1.395-8.452-0.818-12.985c0.513-4.036-0.185-7.729-0.96-11.986
			c-0.149-0.819-0.183-1.721-0.856-3c-5.417-10.302-11.649-19.805-18.099-30.275L771.408,108.279l-25.623,22.564
			c-5.143,5.468-10.481,9.827-16.101,14.887l-51.192,46.085L763,444z M75,362c0.877,1.088-1.225,2.54-1,4
			c0.257,1.672-2.632,29.256-2.787,34.126l-0.439,13.75c-0.121,3.802-0.662,7.362-0.967,11.108l-1.058,13.003l-0.99,14.025
			l-1.029,12l-0.945,12.033l-1.027,17.978l-1.041,11.99l-0.945,12.028c-0.507,6.461-0.446,12.49-1.011,18.982l-1.041,11.979
			l-0.979,13.013l-1.024,11.975l-0.963,14.01l-0.978,13.014c-0.392,5.22-1.592,10.235-0.517,14.609l147.178-88.426l27.434-82.238
			c0.385-1.155-1.157-2.424-0.592-3.271c0.515-0.773,1.381-1.082,2.558-2.198l83.219-248.107
			c-6.623-4.996-13.533-12.151-20.076-18.399l-18.396-17.567l-23.142-21.837l-17.811-17.199c-2.742-2.647-5.763-4.794-8.565-7.573
			L75,362z M237.05,443.11c-0.86,0.592-0.778,1.953-1.037,2.756c-2.749,2.632-3.051,7.059-4.307,10.912l-3.689,11.317
			c-1.847,5.665-3.748,10.817-5.641,16.42l-14.446,42.756c3.446,4.334,8.15,6.831,12.771,10.129L293,589c1.674,1.195,3.34,2.773,5,4
			l27.599,20.397l18.15,13.095l152.935,110.941l49.817-36.021l166.175-120.487c1.836-1.331,4.402-2.804,4.497-4.763
			c1.369-0.465,2.72-1.025,3.827-1.971c6.131-3.094,11.404-7.6,17.363-11.934l47.691-34.681l-25.591-76.81
			c-2.281-1.264-2.083-2.86-1.93-5.382l-84.294-252.333l-353.967-0.044l-78.976,235.15
			C239.608,433.747,237.231,437.935,237.05,443.11z M233.113,863.95c0.841,1.153,2.76,1.305,3.887,2.05
			c2.181,1.441,4.988,1.44,7.78,2.275l49.361,14.77l202.642,59.438L497,920l-0.005-25.948c0-0.69-0.629-1.17-0.995-1.052v-50
			l-0.011-30.943c0-0.697-0.614-1.176-0.989-1.057l-0.312-59.252c-0.007-1.311,0.148-2.46,0.312-3.748
			c0.234-1.833-0.008-3.553-0.018-6.307L205.221,531.57c-6.939,3.733-12.973,7.564-19.3,11.403l-6.211,3.769l-15.76,9.333
			l-15.564,9.377l-19.378,11.526l-27.453,16.604l-46.114,27.262c6.865,7.76,11.527,15.429,17.422,23.508L233.113,863.95z M499,748
			c0.15,1.275,1.202,2.625,0.877,4c-1.832,7.742-0.863,15.992-0.877,24l-0.045,26.946c-0.001,0.685,0.734,1.177,1.045,1.054v49
			l0.005,26.947c0,0.691,0.629,1.171,0.995,1.053l0.18,49.899c0.014,3.819,1.607,6.973,0.77,11.43l20.624-5.834l33.391-9.799
			l169.054-49.452c13.948-4.08,27.895-5.714,39.981-12.244l3.192-1.724c1.653-0.893,2.478-2.151,4.037-4.332l152.393-213.145
			c6.285-8.79,12.236-16.406,17.732-25.492l-27.859-15.995L789.14,531.399c-5.902,4.082-11.004,7.494-16.368,11.38l-24.396,17.675
			l-27.904,20.247L545.727,707.493l-15.81,11.41l-9.888,7.131c-7.217,5.205-14.562,9.698-21.029,16.016
			C499.005,744.234,498.793,746.244,499,748z"/>
		<path style="fill:#FEFEED;" d="M298,593c-1.66-1.227-3.326-2.805-5-4c0.418,0.24,1.078-0.321,0.884-0.9l-3.779-11.24
			c-0.257-0.766-0.071-1.862-0.105-2.338c-0.048-0.666,2.552-0.978,2.779-0.277l4.404,13.611
			C297.784,589.713,298.02,591.437,298,593z"/>
		<path style="fill:#FEFEF1;" d="M237,866c-1.127-0.745-3.046-0.897-3.887-2.05c2.541-3.71,6.255-6.746,9.782-10.16
			C250.963,854.58,235.779,862.945,237,866z"/>
		<path style="fill:#FEFEEE;" d="M927.144,362c0.672,1.279,0.707,2.181,0.856,3l-12.428,6.044
			C908.557,368.459,926.217,362.628,927.144,362z"/>
		<path style="fill:#FEFEFE;" d="M675,188.11L626,189c-0.12-0.347,0.361-1.017,1.078-1.015L675,188.11z"/>
		<path style="fill:#FEFEEC;" d="M768.192,863.276L765,865c-0.927-2.756-11.363-9.958-7.143-12.2
			C762.348,855.54,765.067,859.918,768.192,863.276z"/>
		<path style="fill:#FEFEEC;" d="M721,574.192c-1.107,0.947-2.458,1.506-3.827,1.971c0.083-1.715,2.895-16.023,5.857-13.719
			C725.515,564.376,720.624,569.579,721,574.192z"/>
		<path style="fill:#FEFEEB;" d="M74,366c-0.225-1.46,1.877-2.912,1-4l13.203,6.594C87.071,374.949,78.705,365.099,74,366z"/>
		<path style="fill:#FEFEEF;" d="M507,59l0.022,12.025c0.003,1.797-0.99,3.412-3.009,2.918L504,59
			C505.477,59.186,506.285,58.869,507,59z"/>
		<path style="fill:#FEFEE8;" d="M495,748c-0.165,1.288-0.319,2.437-0.312,3.748c-4.217-0.323-14.174,2.421-11.335-2.723
			C483.637,748.511,493.939,747.846,495,748z"/>
		<path style="fill:#FEFEED;" d="M236.013,445.866c0.258-0.803,0.177-2.164,1.037-2.756c3.626,1.407,7.109,4.03,10.869,6.073
			C247.763,454.045,236.396,446.803,236.013,445.866z"/>
		<path style="fill:#FEFEF1;" d="M764.669,449L763,444c3.176-0.575,5.867-2.317,9.157-3.909c0.755-0.366,2.29,1.741,1.866,2.386
			C772.358,445.015,764.844,445.942,764.669,449z"/>
		<path style="fill:#FEFEF1;" d="M496,843c-0.399,0.117-0.967-0.359-0.968-1.058L495,811c0.375-0.118,0.988,0.361,0.989,1.057
			L496,843z"/>
		<path style="fill:#FEFEF7;" d="M500,804c-0.311,0.123-1.047-0.37-1.045-1.054L499,776c0.36-0.119,1.001,0.362,1.001,1.053L500,804
			z"/>
		<path style="fill:#FEFEF7;" d="M501,881c-0.367,0.118-0.995-0.362-0.995-1.053L500,853c0.394-0.117,0.971,0.359,0.972,1.053
			L501,881z"/>
		<path style="fill:#FEFEF7;" d="M497,920c-0.379,0.118-0.984-0.36-0.985-1.052L496,893c0.366-0.119,0.995,0.362,0.995,1.052
			L497,920z"/>
		<path style="fill:#FEFEEF;" d="M499.877,752c0.325-1.375-0.726-2.725-0.877-4c1.086-0.078,2.219-0.1,3.305,0.156
			c1.275,0.301,2.542,2.136,1.321,3.571C502.892,752.591,500.76,751.713,499.877,752z"/>
		<path style="fill:#FEFEED;" d="M522.989,280.824c0.099,1.793-2.812,1.15-3.989,0.291l-13.335-9.734
			c-0.73-0.533-0.743-2.16-0.667-2.732c0.097-0.73,1.391-1.761,2.372-1.603c0.738,0.119,1.017,2.059,1.794,2.76
			C513.467,273.687,519.032,275.72,522.989,280.824z"/>
		<path style="fill:#FEFEEB;" d="M265.269,488.236c0.425,1.383,1.087,2.221,0.271,2.779c-0.511,0.349-1.215,1.235-1.693,0.978
			c-0.788-0.423-1.355-1.434-1.626-2.287l-5.361-16.823c-0.319-1.001,2.062-1.112,2.606-0.876c0.544,0.236,1.13,1.006,1.456,2.068
			L265.269,488.236z"/>
		<path style="fill:#FEFEEF;" d="M577.968,323.056l-14.811-10.373c-1.047-0.733,1.284-3.5,2.58-2.559l13.97,10.144
			c1.139,0.827,1.831,1.609,0.875,2.746C579.863,323.87,579.358,324.03,577.968,323.056z"/>
		<path style="fill:#FEFEEE;" d="M410.404,341.332c-3.051,2.244-14.301,10.821-15.929,11.522c-0.636,0.274-2.303-2.449-1.509-3.02
			c5.045-3.628,10.119-6.813,14.977-10.92c0.57-0.482,1.74,0.261,2.021,0.504C410.351,339.753,411.48,340.541,410.404,341.332z"/>
		<path style="fill:#FEFEEF;" d="M310.016,413.499c-1.256,0.907-1.388,1.732-2.521,1.595c-1.209-0.146-1.592-0.252-1.554-1.59
			c0.051-1.772,13.248-11.175,16.307-12.437c1.121-0.462,0.878,2.964-0.34,3.843L310.016,413.499z"/>
		<path style="fill:#FEFEEE;" d="M666.776,385.897l-15.661-11.106c-0.713-0.506,0.957-2.869,1.507-2.687l16.732,11.581
			C668.884,384.698,667.696,386.549,666.776,385.897z"/>
		<path style="fill:#FEFEED;" d="M755.762,461.807c-0.318,2.377-4.928,17.308-6.281,18.18c-0.806,0.519-1.192-0.416-1.994-0.913
			c-0.587-0.364,5.073-18.242,5.431-18.663C753.732,459.455,755.963,460.305,755.762,461.807z"/>
		<path style="fill:#FEFEEE;" d="M497.741,278.696c-1.198,0.639-19.995,17.31-17.871,9.098l13.349-9.531
			c0.906-0.647,1.416-1.12,2.261-1.359C496.214,276.696,498.15,278.008,497.741,278.696z"/>
		<path style="fill:#FEFEEC;" d="M423.048,331.767c-1.716,0.694-1.212-2.742,0.098-3.628l15.036-10.159
			c0.81-0.547,0.9,1.894,0.88,2.516C439.026,321.629,425.93,330.602,423.048,331.767z"/>
		<path style="fill:#FEFEEE;" d="M608.665,345.072c-1.233-2.434-22.417-13.183-14.175-14.147c1.151-0.135,1.241,0.64,2.243,1.355
			l11.666,8.335c0.678,0.484,1.353,0.554,1.493,1.027C610.185,342.632,610.335,343.441,608.665,345.072z"/>
		<path style="fill:#FEFEEF;" d="M638.965,364.466c-0.632,2.574-14.186-8.173-16.484-9.838c-1.395-1.011-0.199-2.709,0.98-3.48
			c0.468-0.306,1.132,1.206,1.743,1.621l13.108,8.898C639.189,362.263,639.209,363.473,638.965,364.466z"/>
		<path style="fill:#FEFEEF;" d="M379.517,359.895c7.552,1.382-14.302,13.234-14.026,13.252
			C357.486,372.639,379.939,359.972,379.517,359.895z"/>
		<path style="fill:#FEFEED;" d="M693.133,404.882c-4.192-3.441-8.475-6.027-12.912-9.098c-0.709-0.491-0.337-2.651,0.291-2.771
			c0.694-0.133,1.988,0.011,2.818,0.623l15.276,11.25C696.991,406.919,694.618,406.101,693.133,404.882z"/>
		<path style="fill:#FEFEED;" d="M752.234,446.741c-5.401-4.58-15.896-9.17-13.824-11.745c0.837-1.04,1.179-0.969,2.571-0.008
			l13.042,9.013c0.789,0.545,1.725,0.897,1.978,1.527c0.396,0.987-0.546,1.445-0.981,1.985
			C753.977,448.807,753.288,447.635,752.234,446.741z"/>
		<path style="fill:#FEFEEF;" d="M254.217,453.594l0.798,2.986c0.077,0.29-2.463,0.748-3.29,0.319
			c-1.383-0.718-1.244-5.02,0.023-5.973c2.75-2.069,11.178-8.595,12.74-7.88C269.429,445.309,253.858,452.251,254.217,453.594z"/>
		<path style="fill:#FEFEEC;" d="M271.053,506.407c-0.072-0.099,6.77,18.462,4.475,19.596c-2.651,1.31-6.464-15.172-7.562-19.261
			C267.692,505.723,270.553,505.719,271.053,506.407z"/>
		<path style="fill:#FEFEEE;" d="M282.433,541.597c1.099,3.528,5.998,17.292,4.077,18.412c-0.378,0.22-1.587,0.062-1.866-0.76
			l-5.543-16.374c-0.338-0.997-0.36-2.568,0.384-2.824C280.899,539.563,281.932,539.992,282.433,541.597z"/>
		<path style="fill:#FEFEED;" d="M729.163,547.244c-0.375,1.253-3.477,1.065-3.171-0.043l4.808-17.399
			c0.235-0.849,0.171-1.801,0.732-1.784c0.712,0.021,1.599-0.223,1.981,0.003c0.682,0.404,0.82,1.931,0.504,2.988L729.163,547.244z"
			/>
		<path style="fill:#FEFEED;" d="M280.907,434.383c-0.897,0.677-1.921,1.574-2.428,1.46c-0.526-0.119-1.358-0.982-1.492-1.483
			c-0.185-0.686,0.858-2.184,1.674-2.74l14.416-9.828c0.646-0.443,1.342,2.209,0.942,2.687c-0.384,0.459-1.226,0.931-2.059,1.56
			L280.907,434.383z"/>
		<path style="fill:#FEFEEF;" d="M351.108,380.957c6.586,0.176-14.09,13.065-14.595,13.11c-7.827,0.699,6.976-8.504,7.662-8.933
			C346.428,383.721,347.731,380.867,351.108,380.957z"/>
		<path style="fill:#FEFEEE;" d="M454.481,309.927c-1.116,0.783-1.763,1.715-2.954,1.036c-4.058-2.309,15.191-13.124,14.994-13.079
			c1.495-0.336,2.331,1.954,1.182,2.761L454.481,309.927z"/>
		<path style="fill:#FEFEEE;" d="M550.434,303.173l-15.8-10.77c0.017-1.502,0.989-3.311,2.266-2.44l13.741,9.379
			c0.733,0.5,1.047,0.943,1.369,1.18C552.492,300.877,551.896,304.169,550.434,303.173z"/>
		<path style="fill:#FEFEEF;" d="M727.06,424.615c0.223,1.031-1.39,2.504-2.116,2.589l-14.743-10.341
			c-0.841-0.59-1.553-1.772-1.195-2.377c0.438-0.74,1.935-0.791,2.759-0.233L727.06,424.615z"/>
		<path style="fill:#FEFEED;" d="M738.636,514.77c-4.14-3.433,0.027-6.89,0.813-10.284c0.961-4.153,0.696-9.388,5.896-10.92
			C743.986,501.075,741.47,507.315,738.636,514.77z"/>
		<path style="fill:#FEFEE9;" d="M508.021,214.491c0,1.249-1.017,2.383-1.517,2.392c-0.501,0.009-1.477-1.162-1.479-1.926
			l-0.047-18.8c1.168-0.279,1.884-0.28,3.036,0.002L508.021,214.491z"/>
		<rect x="505" y="232" style="fill:#FEFEEC;" width="3" height="20.016"/>
		<path style="fill:#FEFEED;" d="M675.72,761.253c0.836,0.993-0.049,1.778-1.198,2.682L661,750.466
			c4.474-4.259,4.404-20.682,8.992-18.068c2.101,1.197-4.493,14.284-3.83,17.504L675.72,761.253z"/>
		<path style="fill:#FEFEEE;" d="M646.997,749.489c3.167,3.839-18.72,2.448-20.74,2.399c-0.419-0.01-0.422-1.973-0.245-2.343
			C627.228,746.997,645.471,747.64,646.997,749.489z"/>
		<path style="fill:#FEFEED;" d="M574.976,751.952l-18.926,0.033c-0.778,0.001-1.952-0.999-1.938-1.507
			C554.216,746.818,579.842,746.875,574.976,751.952z"/>
		<path style="fill:#FEFEED;" d="M611.309,749.539c3.4,4.064-20.704,2.094-19.952,2.188c-0.813-0.103-1.229-1.02-1.37-1.402
			C589.037,747.752,607.499,747.127,611.309,749.539z"/>
		<path style="fill:#FEFEED;" d="M712.413,801.644c4.724,5.724,13.36,11.661,10.627,14.894
			c-1.001,1.185-14.121-13.222-14.119-15.032c0.002-1.279,0.275-1.407,1.556-1.602C711.857,799.694,711.562,800.613,712.413,801.644
			z"/>
		<path style="fill:#FEFEED;" d="M675.265,719.082c-3.526-0.959-2.243-3.845-1.405-6.231c1.119-3.188,3.779-16.286,6.638-14.862
			C683.042,699.256,676.225,714.133,675.265,719.082z"/>
		<path style="fill:#FEFEEF;" d="M698.501,785.949c1.096,1.157,1.579,1.622,1.567,2.552c-0.096,7.701-12.158-10.78-15.33-12.326
			c-0.406-1.229,1.168-2.998,2.322-2.302L698.501,785.949z"/>
		<path style="fill:#FEFEEF;" d="M747.852,840.286c0.896,0.791-0.733,2.397-1.406,2.685c-1.528,0.654-8.129-8.646-13.251-13.207
			c-0.631-0.562-0.322-2.527,0.289-2.733C736.666,825.958,740.897,834.14,747.852,840.286z"/>
		<path style="fill:#FEFEEC;" d="M691.563,664.971c0.258,0.23-5.109,25.699-8.383,17.724c1.835-6.132,3.559-12.294,6.119-18.522
			C689.695,663.209,691.141,664.595,691.563,664.971z"/>
		<path style="fill:#FEFEED;" d="M700.4,638.378c-1.13,2.528-2.681,10.952-3.896,11.62c-6.421,3.527,2.905-17.884,4.177-20.926
			C703.59,632.265,701.648,635.584,700.4,638.378z"/>
		<path style="fill:#FEFEEE;" d="M711.471,596.066c4.872-2.681-4.398,20.005-4.162,19.937
			C701.306,617.72,710.233,596.747,711.471,596.066z"/>
		<path style="fill:#FEFEE8;" d="M537.026,752.025l-17.866-0.014c-0.283-1.144-0.283-1.879-0.002-3.022l20.787,0.015
			C540.44,751.017,538.82,752.026,537.026,752.025z"/>
		<path style="fill:#FEFEEB;" d="M396.784,749.444c7.661,2.898-25.299,4.4-20.613,0.002
			C382.804,747.591,390.297,746.991,396.784,749.444z"/>
		<path style="fill:#FEFEED;" d="M330.764,692.32c0.512,1.086,0.139,2.133-0.176,2.671c-0.299,0.51-1.985,1.724-2.317,0.846
			c-2.381-6.304-4.317-12.297-6.403-18.971c-0.307-0.984,2.053-1.096,2.59-0.855C326.275,676.83,328.062,686.59,330.764,692.32z"/>
		<path style="fill:#FEFEEF;" d="M281.358,818.941c-0.652,0.601-2.637-1.172-2.245-1.468c-5.062,3.828,15.19-15.796,13.764-14.693
			c1.254-0.454,2.83,1.093,2.352,2.338C290.739,809.824,286.442,814.252,281.358,818.941z"/>
		<path style="fill:#FEFEEB;" d="M257.185,843.963c-1.105,0.979-2.925-0.975-2.384-2.022l14.214-14.529
			c2.446,2.677,0.402,4.522-1.394,6.288L257.185,843.963z"/>
		<path style="fill:#FEFEEC;" d="M345,752c0.005-5.778-2.391-5.729-0.047-8.544c0.682-0.818,1.594,0.266,2.038,1.539
			c2.196,6.29,7.804,3.241,13.769,4.099c0.427,0.548,0.469,2.48-0.065,2.826L345,752z"/>
		<path style="fill:#FEFEEF;" d="M320.049,779.917c-1.56,1.078-15.792,19.627-15.251,10.98l13.08-13.066
			C318.995,777.302,320.91,778.844,320.049,779.917z"/>
		<path style="fill:#FEFEEF;" d="M333.95,709.44c2.625-3.703,7.079,20.258,7.962,19.076c-0.357,0.478-1.008,1.305-1.489,1.491
			c-1.012,0.391-1.576-0.633-1.898-1.603l-5.493-16.527C332.636,710.683,333.409,710.203,333.95,709.44z"/>
		<path style="fill:#FEFEED;" d="M318.866,656.641c0.414,1.338,1.088,2.046,1.153,2.907c0.077,1.012-0.373,2.043-2.714,2.833
			l-5.303-17.409c-0.298-0.977-0.246-2.416,0.476-2.96c0.545-0.411,1.956,0.303,2.271,1.322L318.866,656.641z"/>
		<path style="fill:#FEFEEB;" d="M307.932,628.614c-1.255,1.89-9.82-24.075-5.838-21.398c3.214,4.564,4.123,9.264,5.567,14.094
			C308.619,623.398,310.309,625.761,307.932,628.614z"/>
		<path style="fill:#FEFEEF;" d="M345,752c-0.002,2.131-0.342,3.196-1.714,4.335c-4.343,3.605-7.383,8.598-12.496,11.713
			c-1.235-0.086-0.926-2.914,0.354-3.904C335.297,760.932,340.61,751.746,345,752z"/>
		<path style="fill:#FEFEE8;" d="M431.295,751.89l-18.983,0.106c-0.528-0.509-0.494-2.231-0.079-3.007l19.418,0.2
			c0.473,0.005,1.299,0.993,1.28,1.308C432.912,750.812,432.155,751.885,431.295,751.89z"/>
		<path style="fill:#FEFEE9;" d="M467.955,751.957l-18.896,0.028c-0.784,0.001-1.959-0.987-1.943-1.491
			c0.016-0.504,1.145-1.447,1.937-1.453l17.067-0.146C467.828,748.88,468.381,749.466,467.955,751.957z"/>
		<path style="fill:#FEFEED;" d="M851.814,403c-1.169,0.403-1.126-3.062,0.439-3.815l14.827-7.14c1.129-0.544,1.74,0.337,2.469,0.91
			C871.571,394.544,854.554,402.055,851.814,403z"/>
		<path style="fill:#FEFEED;" d="M821.281,418.907c-1.746,0.869-2.644-0.629-2.556-2.224c5.578-3.324,11.347-5.839,17.437-8.668
			c0.593-0.266,1.714,1.173,2.171,2.398L821.281,418.907z"/>
		<path style="fill:#FEFEEC;" d="M883.728,386.859c-0.885,0.423-2.257-2.041-1.748-2.365l2.159-1.373
			c0.339-0.215,14.401-7.274,16.364-7.104c0.632,0.055,0.927,2.386,0.286,2.692L883.728,386.859z"/>
		<path style="fill:#FEFEEC;" d="M789.52,435.033c-1.132,0.603-2.384-0.184-2.538-0.546c-1.189-2.811,14.852-8.975,17.427-10.636
			c0.538,0.695,1.692,1.373,1.518,1.637c-0.174,0.264-0.645,1.152-1.113,1.401L789.52,435.033z"/>
		<path style="fill:#FEFEEC;" d="M213.569,435.006c-2.522-0.956-19.274-8.596-17.105-10.076c0.689-0.47,1.43-1.538,2.469-0.908
			c1.092,0.662,19.422,9.664,16.617,8.947C216.53,433.219,214.964,435.535,213.569,435.006z"/>
		<path style="fill:#FEFEEE;" d="M151.847,401.536c-1.376,3.809-15.622-5.329-19.036-7.397c-0.27-1.234,0.726-2.886,2.063-2.205
			l15.358,7.817C150.773,400.025,152.014,401.074,151.847,401.536z"/>
		<path style="fill:#FEFEED;" d="M182.512,419.001c-0.647,0.307-17.172-7.269-18.555-9.545c1.787-2.502,3.695-1.032,5.666-0.052
			l12.014,5.976c0.729,0.363,1.322,0.763,1.35,1.175C183.041,417.338,183.244,418.654,182.512,419.001z"/>
		<path style="fill:#FEFEEF;" d="M116.927,386.755l-16.171-8.491c-0.143-1.355,0.756-3.044,2.145-2.335l15.33,7.82
			c0.591,0.302,1.732,1.288,1.626,1.779C119.707,386.218,118.246,387.448,116.927,386.755z"/>
		<path style="fill:#FEFEF1;" d="M508.083,144.567c-1.378,0.843-2.591,0.432-4.107,0.298l0.066-18.798
			c0.003-0.978,1.02-1.829,1.553-2.058c0.75-0.324,2.347,0.798,2.356,2.057L508.083,144.567z"/>
		<path style="fill:#FEFEF1;" d="M507.973,162.069c-0.012,2.655,1.379,25.155-3.011,18.501c-0.347-0.525-1.038-1.235-1.029-2.543
			l0.113-15.958c0.007-0.99,1.025-1.825,1.529-2.056C506.317,159.674,507.979,160.803,507.973,162.069z"/>
		<path style="fill:#FEFEED;" d="M507.021,107.491c0,1.246-1.017,2.386-1.518,2.392c-0.501,0.006-1.476-1.16-1.478-1.926
			l-0.046-18.801c1.166-0.279,1.881-0.28,3.034,0.002L507.021,107.491z"/>
	</g>
</g>
</svg>
