<?xml version="1.0" encoding="iso-8859-1"?>
<!-- Generator: Adobe Illustrator 30.1.0, SVG Export Plug-In . SVG Version: 9.03 Build 0)  -->
<svg version="1.1" id="Layer_1" xmlns="http://www.w3.org/2000/svg" xmlns:xlink="http://www.w3.org/1999/xlink" x="0px" y="0px"
	 viewBox="0 0 1000 1000" style="enable-background:new 0 0 1000 1000;" xml:space="preserve">
<g>
	<g>
		<path style="fill:#F596FA;" d="M588.075,852.019c-2.272,50.153-48.224,87.125-98.105,81.257
			c-40.996-4.823-72.98-36.574-77.522-77.734c-1.929-18.181,1.46-35.962,9.79-52.138l-147.798-84.858
			c-18.203,30.271-51.609,45.725-85.821,41.977c-42.086-4.61-75.027-38.154-77.816-80.562c-1.37-4.57-0.188-8.406-0.048-12.921
			c0.733-23.625,11.681-44.526,28.987-60.384c13.378-12.258,29.94-19.483,48.24-21.675c3.03-0.363,5.948,0.384,9.015-1.436
			l0.012-168.533c-41.995,2.015-82.811-36.009-85.884-75.98l-1.002-13.027c-0.25-3.245,1.923-6.541,0.839-9.932
			c5.703-46.668,46.213-79.856,93.217-77.151c29.236,1.683,55.016,17.741,70.414,42.277l147.648-84.597
			c-8.318-16.513-11.917-34.488-9.703-52.983c4.947-41.321,37.467-73.208,78.939-77.229c48.957-4.831,92.55,30.333,96.695,79.576
			c2.357,14.929-2.205,37.208-9.981,50.5l148.079,84.89c16.744-28.954,48.196-44.08,80.755-42.438
			c44.889,2.264,80.836,38.167,83.048,83.058c3.36,49.926-36.226,93.156-86.091,93.14l0.025,168.472
			c2.598,2.061,5.241,1.105,8.049,1.34c12.018,1.008,22.783,4.955,33.347,10.749c41.808,22.932,56.4,76.024,35.491,117.164
			c-21.728,42.749-73.177,59.986-116.904,39.935c-15.792-7.241-28.489-19.243-37.848-34.137l-148.061,84.784
			C585.524,814.717,590.685,839.597,588.075,852.019z M500.674,151.909l73.868,42.453c7.622-14.79,11.487-30.159,10.126-45.976
			c-4.092-47.573-45.824-83.062-93.273-77.881c-30.886,3.372-56.564,22.722-68.744,51.19c-10.284,23.308-8.827,49.797,3.531,72.658
			L500.674,151.909z M456.222,225.87l37.981-65.335l-65.68,37.177C433.9,208.649,446.769,220.901,456.222,225.87z M572.241,197.797
			l-64.834-36.425l37.043,64.918C555.312,218.909,565.353,209.973,572.241,197.797z M526.18,234.5l-23.975-67.803l-0.262,72.426
			C510.305,238.583,517.929,237.18,526.18,234.5z M493.185,238.179c1.829,0.708,3.158,1.147,4.885,0.666l-0.339-70.207
			l-23.212,65.982C481.004,236.843,486.623,237.971,493.185,238.179z M471.062,232.915l17.927-53.792l-29.35,49.045
			C463.39,230.274,466.662,232.319,471.062,232.915z M540.993,228.35l-28.871-48.209l18.002,53.182L540.993,228.35z
			 M287.225,325.021l111.233-0.033L454.1,229.7c-12.605-6.945-22.406-17.527-29.508-29.531l-96.148,55.176l-51.976,29.728
			C283.634,297.439,286.454,310.822,287.225,325.021z M713.872,324.944c-0.162-14.892,3.697-27.803,10.171-39.941l-133.369-76.458
			c-5.33-2.848-9.727-5.321-14.317-8.623c-7.716,12.312-17.656,22.186-29.639,29.97l22.985,39.457l32.515,55.668L713.872,324.944z
			 M465.919,245.324c2.092-1.805,1.922-5.885,3.189-7.876l-11.454-5.732l-15.975,28.196l13.954-9.32
			C458.814,248.467,462.322,247.327,465.919,245.324z M534.876,245.154c7.935,4.46,15.645,8.235,23.026,14.453
			c-0.175-5.012-3.628-7.402-5.501-10.997c-3.072-5.898-6.08-11.499-9.787-16.638c-3.654,2.508-6.898,3.363-10.72,5.16
			C532.503,239.41,532.698,243.836,534.876,245.154z M528.901,242.653l-1.078-4.699c-2.17,1.425-4.12,1.529-6.878,2.498
			C523.388,241.282,526.107,243.619,528.901,242.653z M479.97,240.608c-2.86-0.924-4.253-1.418-5.976-1.532
			c-1.768-0.117-2.656,2.811-1.711,3.748C475.083,242.825,477.5,241.315,479.97,240.608z M197.034,411.609l-0.162-83.111
			c-0.002-1.095-1.552-1.975-0.876-2.95c0.51-0.735,1.672-0.364,2.645-0.919l45.148-25.785c9.352-5.341,18.018-10.716,27.004-15.261
			c-26.774-44.174-86.189-54.298-125.706-21.321c-4.401,3.672-8.764,6.907-11.718,12.13c-13.946,15.683-21.161,40.418-18.823,61.07
			C119.341,377.835,154.293,410.409,197.034,411.609z M498.018,324.924l-0.013-81.996c-9.97-0.086-19.22,2.005-28.441,5.743
			l-26.471,76.351L498.018,324.924z M557.595,324.964l-26.748-76.524c-9.556-3.496-18.804-5.57-28.854-5.514l-0.003,82.097
			L557.595,324.964z M862.454,386.109c1.514-3.214,3.698-4.8,5.948-6.782c27.273-36.417,23.301-84.654-10.624-115.141
			c-27.246-24.485-66.661-28.252-98.514-9.78c-12.021,7.018-21.325,17.014-29.68,28.923l74.465,42.337l-0.072,85.993
			C826.184,410.637,846.419,401.717,862.454,386.109z M438.72,324.724l25.735-73.996c-29.1,14.283-47.502,42.365-48.634,74.246
			L438.72,324.724z M584.812,324.434c-1.669-32.81-19.951-59.555-48.564-73.581l25.947,74.072
			C570.163,324.766,577.799,325.678,584.812,324.434z M793.417,324.864l-65.864-37.846c-5.984,12.292-9.668,24.54-10.217,38.03
			L793.417,324.864z M283.332,324.965c-0.675-13.932-4.4-25.869-10.177-37.776l-65.814,37.603L283.332,324.965z M412.085,324.945
			c-0.921-6.058,1.696-10.942,1.674-17.381c-4.155,5.733-5.654,11.798-10.35,17.031
			C407.069,325.442,408.892,324.931,412.085,324.945z M590.162,324.714c2.461,1.118,4.918-0.044,6.908,0.116l-9.569-16.123
			C587.993,313.944,587.247,323.39,590.162,324.714z M282.716,328.889l-60.893,0.426l59.648,11.719
			C282.642,337.327,283.657,333.403,282.716,328.889z M295.848,342.83c8.312-5.877,16.683-10.524,26.389-13.507l-35.271-0.399
			c0.4,4.524-0.352,7.666-1.311,12.538C288.439,341.836,292.988,344.205,295.848,342.83z M378.815,359.278l11.482-19.659
			c-29.618-15.43-61.236-14.31-89.278,5.047L378.815,359.278z M395.937,329.077c-7.35,0.054-12.632-0.514-19.109,0.296
			c5.378,1.676,10.019,3.742,14.874,6.657C393.43,333.494,394.701,331.633,395.937,329.077z M414.71,352.75
			c0.017-6.824-2.654-9.757-1.681-14.587c-1.548-2.937-0.882-5.753-1.079-9.223c-3.316,0.74-7.679-1.189-10.54,0.662
			c-2.543,1.645-3.712,6.058-5.326,8.421C403.486,342.957,409.207,347.696,414.71,352.75z M437.314,329.082l-21.463-0.063
			c0.167,12.314,3.314,23.74,8.768,34.926L437.314,329.082z M492.017,329.292l-50.654-0.339l-12.133,36.305L492.017,329.292z
			 M559.314,328.98l-50.729,0.241l62.639,35.84L559.314,328.98z M585.166,329.015c-8.506,0.198-14.624-0.515-21.663,0.391
			l12.502,34.54C581.927,352.556,583.925,341.097,585.166,329.015z M604.631,337.856c-2.524-3.379-3.235-7.102-5.668-8.559
			c-2.578-0.591-7.268-0.969-9.394,0.255c-2.535,1.459-1.063,6.039-1.489,8.401l-2.918,16.194
			C591.447,347.655,597.174,343.027,604.631,337.856z M622.918,329.397c-7.119-0.731-12.361-0.521-18.385-0.1
			c1.902,3.085,3.151,4.49,3.862,6.684C613.462,332.712,618.24,331.503,622.918,329.397z M622.418,359.36l76.866-14.686
			c-26.667-19.347-61.249-20.401-88.944-4.865L622.418,359.36z M715.014,341.739c-1.559-4.29-0.97-7.949-0.934-12.813l-35.349,0.388
			c9.364,3.25,17.551,7.546,25.752,13.242C707.333,344.534,711.548,341.792,715.014,341.739z M778.886,329.394l-61.995-0.477
			c1.505,4.228,1.146,7.761,1.092,12.304L778.886,329.394z M281.136,344.751l-68.695-12.649l60.377,35.115
			C276.824,360.104,279.321,352.898,281.136,344.751z M727.707,367.319l60.859-35.289l-68.999,13.067
			C721.257,353.696,723.798,359.995,727.707,367.319z M526.984,377.459l-24.85-42.711l0.041,47.648L526.984,377.459z
			 M239.123,400.814l-37.987-65.103l-0.182,75.925C214.024,410.975,227.158,407.887,239.123,400.814z M498.043,382.024l0.053-46.415
			l-24.762,42.137L498.043,382.024z M792.365,411.143c3.155-0.711,5.138,0.512,7.707,0.925l-0.379-76.52l-38.322,65.68
			C771.277,406.093,781.225,409.388,792.365,411.143z M569.32,369.101L511.95,336.52l32.682,37.917L569.32,369.101z
			 M783.246,345.334c2.222-2.535,3.918-4.159,6.17-8.353l-59.725,33.952c4.507,6.71,8.944,12.384,15.025,18.369L783.246,345.334z
			 M270.513,370.554l-58.787-32.755l43.739,51.142C260.918,383.639,266.738,378.488,270.513,370.554z M456.474,374.327l31.096-36.83
			l-56.157,31.749L456.474,374.327z M419.553,366.939c-7.027-11.043-15.66-18.428-25.81-25.297l-10.87,18.878L419.553,366.939z
			 M581.116,367.029l36.496-6.559l-10.802-18.466C597.627,347.428,586.409,357.535,581.116,367.029z M289.409,347.423
			c0.462-1.407-2.2-1.693-3.73-1.538c-1.035,1.94-2.149,4.228-1.198,6.779C286.198,351.136,288.647,349.747,289.409,347.423z
			 M717.72,354.697l-1.982-7.891c-0.476-1.897-5.432-0.999-5.388,0.716C712.034,350.562,715.909,352.504,717.72,354.697z
			 M348.694,410.475l27.697-47.244l-79.373-15.37c-7.64,6.06-13.628,12.922-19.52,21.748L348.694,410.475z M723.085,369.801
			c-6.992-10.879-10.347-13.912-19.006-22.003L624.43,363.07l27.507,47.443L723.085,369.801z M787.135,349
			c0-0.351-0.284-0.635-0.635-0.635s-0.635,0.284-0.635,0.635s0.284,0.635,0.635,0.635S787.135,349.351,787.135,349z
			 M539.039,374.62l-23.304-25.742l15.686,27.67C534.266,376.26,536.669,376.582,539.039,374.62z M484.135,351
			c0-0.351-0.284-0.635-0.635-0.635s-0.635,0.284-0.635,0.635s0.284,0.635,0.635,0.635S484.135,351.351,484.135,351z
			 M748.51,392.411l9.132,6.52l28.157-48.639c-2.993,0.038-2.359,4.015-5.225,4.357L748.51,392.411z M252.398,391.941l-36.6-40.807
			l26.863,47.493C246.758,396.704,249.021,394.343,252.398,391.941z M469.198,376.756l13.033-24.408
			c-7.948,6.701-13.312,14.515-20.227,22.167C463.409,376.412,465.68,375.86,469.198,376.756z M418.467,371.389l-37.778-7.51
			l-24.712,43.567L418.467,371.389z M644.095,406.793l-24.234-42.956l-37.8,7.509L644.095,406.793z M681.701,461.665l52.915-60.74
			c-1.161-9.649-4.922-17.806-9.045-27.553l-71.59,41.024L681.701,461.665z M318.928,461.524l27.747-47.128l-71.391-40.934
			c-4.771,9.436-8.07,18.393-9.434,28.14c3.993,3.135,6.424,6.573,9.513,10.106L318.928,461.524z M452.892,377.563l-22.426-3.754
			c3.532,6.585,8.474,10.459,13.208,15.35L452.892,377.563z M557.452,389.02c4.473-4.343,9.051-8.8,12.486-15.011
			c-7.596,0.452-13.999,2.198-22.079,3.697C551.017,381.863,553.526,385.284,557.452,389.02z M412.71,399.541l8.329-24.461
			l-56.069,32.705L412.71,399.541z M583.244,398.07l-7.771-21.761c-3.221,7.222-6.099,12.627-6.592,19.422
			C573.973,396.383,578.06,398.103,583.244,398.07z M638.299,408.931l-58.469-33.642l7.986,24.216L638.299,408.931z
			 M432.072,395.773c-1.792-6.765-3.601-12.705-6.889-19.223l-7.611,21.524C423.035,398.154,426.959,396.313,432.072,395.773z
			 M460.775,390.061l6.321-9.681c-3.461-0.71-5.753-1.505-9.057-1.577c-3.891,4.976-8.151,8.517-11.507,14.306L460.775,390.061z
			 M554.014,392.738c-1.801-4.624-4.587-4.785-6.184-7.647c-1.718-1.927-3.105-5.267-5.996-5.955
			c-2.773-0.66-5.475,1.111-7.76,1.158l5.13,9.736L554.014,392.738z M488.83,384.59l-17.464-3.594l-4.444,8.168L488.83,384.59z
			 M533.767,388.931c-2.285-3.641-2.952-5.156-4.085-7.962c-6.074,1.675-11.783,2.468-17.875,3.596L533.767,388.931z M434.21,385.79
			c-0.53,3.021,0.986,5.006,1.423,7.626c0.33,1.979,2.126,2.028,3.385,1.144C442.133,392.374,436.899,389.838,434.21,385.79z
			 M564.554,394.749l2.485-8.845c-2.778,3.596-6.532,3.844-6.032,7.571C561.145,394.504,564.246,395.846,564.554,394.749z
			 M262.782,397.15c0.189-3.951,1.656-6.39,2.168-10.227c-1.868,2.259-3.749,3.297-5.921,5.354
			C260.44,393.944,260.956,395.713,262.782,397.15z M460.052,400.941c12.106,6.922,24.25,10.022,37.825,10.537l0.483-24.295
			l-34.514,6.421L460.052,400.941z M540.384,401.236c-1.392-4.004-2.41-5.487-4.079-7.755l-34.273-6.526l-0.007,25.263
			c2.726-1.533,5.239-0.845,8.028-1.201C520.792,409.651,531.057,406.571,540.384,401.236z M742.026,392.441
			c-2.326-1.885-3.179-3.778-5.745-5.084c0.001,3.047,0.455,5.824,1.887,8.788C739.82,394.874,740.796,393.693,742.026,392.441z
			 M738.302,432.022l17.609-29.633c-3.658-1.648-7.173-3.695-10.445-7.462l-6.548,8.002l0.003,22.028
			C738.921,427.349,737.181,429.459,738.302,432.022z M262.198,402.487l-7.104-6.712l-10.115,6.768l17.692,29.828
			C262.174,419.77,259.245,414.41,262.198,402.487z M448.315,411.44c2.984-1.955,3.295-6.014,5.669-9.019
			c-2.86-0.731-4.644-3.788-7.548-4.915c-3.663-1.422-7.549,2.562-9.513,5.413c1.051,3.301,1.176,5.587,1.133,9.155
			C441.394,411.34,445.658,413.181,448.315,411.44z M562.996,411.936l0.041-7.12c0.022-3.86-3.661-8.38-7.97-7.448
			c-3.089,0.668-5.56,3.744-8.434,5.259l5.46,9.303L562.996,411.936z M423.83,411.447l9.84-11.031
			c-6.639-0.522-12.162,1.673-18.375,2.663c-0.276,3.206-1.632,4.935-2.647,8.636C415.83,411.75,420.65,412.958,423.83,411.447z
			 M587.81,411.716c-1.92-3.712-1.409-7.157-3.71-8.825c-5.37-1.209-10.323-2.338-16.719-2.868
			C576.511,411.259,574.442,413.229,587.81,411.716z M408.147,412.067l2.74-8.168l-40.003,7.761L408.147,412.067z M630.827,411.651
			l-40.972-7.759l2.38,8.179L630.827,411.651z M800.028,584.21l-0.026-169.124c-14.812,0.138-29.03-3.467-40.641-10.669
			l-55.493,95.557l55.566,95.19C771.675,587.876,785.488,585.39,800.028,584.21z M241.393,595.042l55.501-95.105l-55.424-95.165
			c-12.872,6.679-26.312,10.53-40.494,10.359l0.09,169.468C216.158,584.796,229.317,588.625,241.393,595.042z M473.784,411.693
			c-6.384-2.621-10.983-3.569-16.109-7.127c-1.052,2.659-2.248,4.013-4.11,7.17C460.755,412.147,467.292,412.232,473.784,411.693z
			 M546.859,411.808c-1.725-3.648-2.181-4.91-4.409-7.048c-4.77,3.463-10.171,4.745-15.619,6.939
			C534.103,412.282,540.495,412.051,546.859,411.808z M316.969,465.265c-3.493-2.672-5.537-5.808-8.317-8.985l-43.511-49.733
			c-2.211,32.134,13.316,61.526,40.093,78.714L316.969,465.265z M695.249,485.138c22.611-13.909,37.4-37.427,39.955-64.007
			c0.44-4.583,2.235-8.798-0.49-13.681l-50.787,58.235L695.249,485.138z M407.077,415.012l-50.113,0.182l41.811,24.102
			L407.077,415.012z M419.951,415.068c-3.076-0.064-5.702-0.293-8.701,0.055c-1.39,5.375-2.986,9.834-5.32,15.563
			C407.202,430.786,419.019,417.748,419.951,415.068z M403.042,441.856l20.687,11.528c6.935-12.092,9.611-25.03,10.541-37.873
			c-6.206-2.336-8.96,0.654-12.237,4.435L403.042,441.856z M446.466,415.295c-3.406-0.608-5.494-0.282-8.334-0.25l-1.728,17.249
			L446.466,415.295z M473.958,415.564l-22.35-0.789l-9.647,18.063C451.691,425.203,461.983,418.823,473.958,415.564z M548.88,414.74
			l-21.104,0.708c10.97,4.162,20.022,9.107,29.465,16.344C556.425,424.68,551.17,421.04,548.88,414.74z M563.198,415.034
			c-4.511,0.023-6.562-0.397-9.205,0.313c3.944,5.333,5.398,10.872,9.812,15.439C564.251,424.716,561.999,420.348,563.198,415.034z
			 M596.928,441.575l-22.485-26.196c-2.199-0.556-5.687-1.118-7.573,0.334c0.104,13.345,3.533,26.173,10.001,37.955L596.928,441.575
			z M594.772,431.947l-5.258-16.639l-9.803-0.064C585.111,420.768,589.7,426.469,594.772,431.947z M643.018,415.269l-49.523-0.308
			l8.499,24.395L643.018,415.269z M497.925,496.032l0.11-79.845c-6.086-0.962-11.326,0.308-17.219,1.701
			c-21.849,5.118-40.033,19.014-52.499,38.118L497.925,496.032z M572.295,456.224c-4.946-7.533-10.019-14.271-16.722-19.774
			c-15.06-12.946-33.459-20.83-53.629-20.58l0.237,80.402L572.295,456.224z M644.635,420.5c0-0.351-0.284-0.635-0.635-0.635
			s-0.635,0.284-0.635,0.635s0.284,0.635,0.635,0.635S644.635,420.851,644.635,420.5z M347.959,494.473l-0.087-73.499l-25.97,44.274
			L347.959,494.473z M396.529,442.727l-40.062-22.272l23.407,41.279L396.529,442.727z M620.735,461.805l22.801-40.494
			l-39.208,21.246L620.735,461.805z M678.575,464.694l-25.425-43.258l-0.091,72.965L678.575,464.694z M368.83,474.646
			l-17.622-49.015l-0.085,68.649L368.83,474.646z M639.346,482.674c2.642,4.061,5.742,7.344,9.648,10.459l-0.176-66.363
			l-16.817,47.223C633.916,477.509,636.341,480.148,639.346,482.674z M559.135,432c0-0.351-0.284-0.635-0.635-0.635
			s-0.635,0.284-0.635,0.635s0.284,0.635,0.635,0.635S559.135,432.351,559.135,432z M377.053,464.887l-16.984-28.189l11.486,33.769
			C374.189,468.544,375.828,467.205,377.053,464.887z M628.684,471.134l11.348-33.486l-16.306,27.267L628.684,471.134z
			 M421.204,457.259l-20.051-11.643l-11.53,32.024c1.64,2.671,2.525,4.669,3.818,7.525
			C402.987,480.292,416.078,467.187,421.204,457.259z M606.697,485.041l4.554-7.234l-11.806-32.261l-14.016,7.927
			c-2.305,1.303-3.98,3.449-6.427,3.922C586.516,469.003,595.466,478.216,606.697,485.041z M618.13,465.72l-11.08-12.963
			l6.493,19.912C616.06,470.256,616.831,468.221,618.13,465.72z M386.551,473.037c2.324-6.219,5.411-11.916,6.533-19.405
			c-4.476,3.988-6.771,8.5-11.181,11.813C383.857,468.252,385.168,469.933,386.551,473.037z M495.799,499.84l-69.628-40.052
			c-13.884,25.356-13.689,55.011-0.052,80.397L495.799,499.84z M574.474,539.888c6.022-9.943,8.557-21.222,10.225-33.403
			c1.258-15.949-2.467-31.958-9.937-46.444l-70.015,39.789L574.474,539.888z M344.657,497.823l-25.063-28.955l-10.527,18.734
			C319.743,492.955,331.239,497.02,344.657,497.823z M380.04,492.676c2.254-5.44,2.809-9.432,5.019-13.691l-5.473-9.959
			c-2.889,2.57-5.029,4.448-5.865,8.017C375.975,482.242,377.064,487.343,380.04,492.676z M621.437,493.298
			c1.221-6.13,3.617-11.223,5.899-17.304c-2.449-2.401-3.995-4.647-6.091-7.247c-1.39,3.691-4.594,6.834-5.128,10.039
			C616.859,483.918,618.973,488.334,621.437,493.298z M691.586,487.091l-10.571-17.803l-25.15,28.672
			C668.714,496.878,680.392,493.731,691.586,487.091z M291.635,480.5c0-0.351-0.284-0.635-0.635-0.635s-0.635,0.284-0.635,0.635
			s0.284,0.635,0.635,0.635S291.635,480.851,291.635,480.5z M375.488,493.606c-2.086-5.126-3.66-8.781-4.967-14.058l-16.537,18.475
			C361.39,497.316,367.974,496.503,375.488,493.606z M645.733,498.061c-2.604-5.078-6.204-7.729-9.418-11.363
			c-2.106-2.381-3.314-5.025-6.107-6.732c-1.239,4.975-3.829,8.822-4.543,14.111C632.588,496.206,639.079,497.053,645.733,498.061z
			 M710.135,481c0-0.351-0.284-0.635-0.635-0.635s-0.635,0.284-0.635,0.635s0.284,0.635,0.635,0.635S710.135,481.351,710.135,481z
			 M400.036,495.163c2.843-5.653,6.089-8.884,7.451-14.464c-4.252,3.294-7.351,5.773-11.581,8.409
			C397.422,491.296,398.031,493.365,400.036,495.163z M413.358,516.714c-1.981-12.995-1.897-24.243,0.502-35.916l-12.127,19.485
			C406.725,504.529,409.229,515.833,413.358,516.714z M587.246,518.92l11.086-19.219l-11.174-18.554l1.116,11.714
			C589.742,508.267,587.921,502.065,587.246,518.92z M604.432,488.761l-11.478-7.558c1.512,5.761,5.695,8.848,7.829,14.471
			C603.041,493.139,603.101,491.629,604.432,488.761z M302.955,488.902c-4.592-2.293-6.392-5.783-11.391-7.179
			c2.347,5.118,4.681,8.891,7.651,13.496C301.16,493.495,301.884,491.564,302.955,488.902z M701.804,495.087
			c2.117-4.496,5.05-7.348,6.518-12.409c-4.467,1.224-6.903,4.114-10.704,6.13C698.67,491.468,699.493,492.922,701.804,495.087z
			 M307.089,508.479c7.162-4.014,14.141-5.961,22.423-8.724c-8.407-2.457-15.986-4.539-22.952-9.064l-4.566,9.282
			C303.337,503.062,304.779,505.579,307.089,508.479z M392.312,508.39c1.429-3.399,4.466-5.525,4.246-8.337
			c-0.263-3.36-2.807-6.213-4.802-9.17c-2.397,2.173-5.117,2.59-7.804,4.325c-2.504,1.617-2.274,7.898,0.054,9.374
			C386.727,506.308,389.131,506.965,392.312,508.39z M618.54,500.969c1.799-6.27-6.908-7.316-10.188-9.98
			c-1.261,3.635-3.396,5.861-5.189,8.639l5.243,9.332C612.761,505.797,616.946,506.527,618.54,500.969z M693.955,508.157
			c2.252-3.568,3.768-5.886,5.149-8.695c-2.334-2.854-3.528-5.457-5.291-8.564c-6.98,4.258-14.231,6.872-21.986,8.544
			c2.624,2.435,5.707,2.304,8.588,3.099C685.253,503.878,688.648,507.415,693.955,508.157z M377.202,501.509
			c1.373-6.471-4.487-1.971-7.319-2.085C371.529,501.096,375.37,502.226,377.202,501.509z M631.088,499.134
			c-2.635-0.087-4.659-0.437-6.671-1.145c-1.399,1.27-1.871,2-0.984,3.042C624.951,502.817,631.17,500.511,631.088,499.134z
			 M319.8,530.707l24.705-28.791c-12.957,0.975-24.366,4.609-35.494,10.511L319.8,530.707z M370.59,519.815l4.613-13.881
			c-6.837-2.132-13.109-3.424-20.203-4.026C358.398,507.238,366.391,516.387,370.59,519.815z M630.547,520.137l15.63-18.148
			c-6.967,0.52-13.224,1.517-19.544,3.868c-1.725,0.642-0.167,4.74,0.645,5.706L630.547,520.137z M691.091,512.34
			c-11.509-6.915-22.905-9.201-35.257-10.385l25.191,28.776L691.091,512.34z M498.014,584.205l-0.021-80.316l-69.835,39.901
			C443.734,568.207,469.585,583.564,498.014,584.205z M572.271,543.619l-70.25-40.134l-0.033,80.814
			C530.651,583.66,557.142,568.393,572.271,543.619z M303.007,510.846c-1.618-2.744-1.591-4.419-4.35-6.497
			c-1.944,5.793-6.099,9.359-7.333,14.991C295.964,516.295,298.671,513.108,303.007,510.846z M407.962,519.081l-7.648-14.846
			l-4.46,6.534L407.962,519.081z M605.046,510.568c-2.323-1.825-2.131-3.826-4.163-6.328c-2.619,5.245-5.927,8.594-7.953,14.501
			L605.046,510.568z M709.799,519.566c-2.478-6.596-5.811-10.055-8.158-14.753c-1.871,2.319-3.045,3.626-3.79,5.904L709.799,519.566
			z M347.944,579.114l-0.127-73.488l-25.916,29.116L347.944,579.114z M368.724,525.2l-17.725-19.598l0.234,68.767L368.724,525.2z
			 M632.002,526.283l16.808,46.049l0.165-66.642l-11.171,13.108C635.529,521.016,632.877,522.791,632.002,526.283z M678.949,534.256
			c-4.221-3.544-7.37-7.363-10.586-11.563l-15.357-17.071l0.093,72.711L678.949,534.256z M379.353,530.557l5.727-9.427
			l-5.483-14.477l-5.868,17.155C375.779,526.035,376.632,528.421,379.353,530.557z M621.463,530.982
			c0.683-2.492,3.84-4.222,5.435-6.362c-0.848-6.246-3.893-11.808-5.469-17.966C614.563,521.471,614.641,519.596,621.463,530.982z
			 M316.527,534.089l-10.923-19.696c-26.184,16.187-42.904,46.188-40.442,78.928L316.527,534.089z M735.196,578.246
			c-3.211-28.08-17.169-48.143-39.805-64.025l-11.464,19.916l50.798,58.325C737.287,587.883,735.8,583.525,735.196,578.246z
			 M401.052,554.4l20.599-11.703c-7.432-11.63-15.961-20.8-27.9-27.979l-4.154,7.371L401.052,554.4z M599.724,554.034l11.253-32.083
			c-1.096-2.564-2.645-4.508-4.308-6.982c-11.244,6.689-20.221,16.094-27.638,27.473L599.724,554.034z M392.865,545.853
			c-1.153-7.694-3.999-13.043-6.376-18.627c-1.563,3.037-3.542,4.234-3.412,6.293c0.101,1.604,1.365,3.358,2.649,4.726
			L392.865,545.853z M617.699,533.944c-0.005-2.388-2.569-5.436-4.254-6.93c-1.23,6.403-4.724,11.171-5.323,17.831
			C612.208,541.834,615.581,538.159,617.699,533.944z M377.022,534.347c-3.129-1.933-2.908-4.207-5.481-5.451l-11.474,34.445
			L377.022,534.347z M639.831,561.525l-11.041-32.637c-2.255,1.712-3.218,3.66-4.976,6.331L639.831,561.525z M643.804,579.083
			l-22.867-40.989l-16.843,18.899L643.804,579.083z M733.154,605.789c1.465-3.361,1.38-6.657-0.698-9.344l-50.885-58.487
			l-27.569,47.61l71.256,40.777C728.868,619.947,731.321,613.305,733.154,605.789z M283.964,621.263l62.757-35.727l-27.683-47.279
			l-53.174,60.759c1.642,10.262,5.297,19.238,9.543,27.978C278.167,624.429,280.759,623.385,283.964,621.263z M396.275,557.15
			l-16.439-18.866l-23.889,41.582L396.275,557.15z M426.01,584.274l8.167-0.424c-0.834-13.547-4.264-26.418-10.589-37.632
			l-20.463,12.033L426.01,584.274z M575.476,583.061l21.78-24.939l-20.448-11.766c-6.432,11.798-9.897,24.381-9.928,37.443
			C569.421,583.697,573.58,585.233,575.476,583.061z M406.796,583.812l-8.176-23.217l-39.958,23.28L406.796,583.812z
			 M641.752,583.722l-39.714-23.16l-8.335,23.478L641.752,583.722z M262.503,596.639c-3.609-10.787-0.083-17.455,0.235-29.536
			l-17.727,30.475c4.085,1.499,6.458,4.356,10.051,6.661C257.636,601.967,260.046,599.789,262.503,596.639z M446.049,583.855
			l-9.828-16.92l1.999,16.982C440.836,584.128,443.186,584.112,446.049,583.855z M446.089,569.865l-4.078-2.642l9.063,16.792
			c7.193-0.274,13.407,0.536,20.16-0.452C458.266,579.16,454.972,575.62,446.089,569.865z M549.352,584.195l9.812-17.666
			c-9.743,7.803-19.106,13.587-30.354,17.086L549.352,584.195z M563.127,583.938c-0.963-6.066,1.19-10.934,1.618-17.314
			l-10.237,17.07C557.981,584.326,559.955,583.986,563.127,583.938z M745.229,605.199c2.95-3.275,5.824-5.054,10.322-7.67
			l-17.127-29.666c-1.213,2.665,0.247,4.778,0.483,7.2c0.74,7.581-0.922,15.174,0.66,22.574L745.229,605.199z M580.785,583.714
			c3.507,0.545,5.784,0.357,9.014,0.216l4.099-15.175C589.205,574.288,585.532,578.498,580.785,583.714z M419.877,583.735
			c-4.27-3.835-10.211-13.303-12.99-13.271l4.256,13.408C414.233,584.062,416.52,584.306,419.877,583.735z M270.709,716.513
			l-71.3-40.885c-1.201-0.689-2.81-0.253-3.366-1.206c-0.667-1.144,0.907-2.341,0.908-3.67l0.024-82.593
			c-48.04,1.708-85.798,42.374-82.506,90.465c1.727,25.23,14.699,47.168,34.693,62.064
			C188.876,770.276,244.879,758.537,270.709,716.513z M239.447,598.774c-12.096-6.417-24.785-9.872-38.518-10.711l0.307,75.688
			L239.447,598.774z M407.694,587.835l-35.866,0.563l39.042,7.624C409.546,593.191,409.684,590.545,407.694,587.835z
			 M433.226,599.593c-3.461-5.326-7.116-7.144-9.239-11.597c-4.26,0.179-7.519-0.473-11.324,0.394
			c1.636,3.265,2.195,5.362,2.516,8.521L433.226,599.593z M454.276,597.437l-5.683-9.27c-3.556-0.423-6.702-0.147-10.667-0.13
			c0.77,2.943-0.748,5.371-0.45,8.113c0.423,3.9,5.975,7.764,9.615,5.877C449.595,600.73,451.205,598.003,454.276,597.437z
			 M473.167,588.341c-6.979-0.622-12.937-0.472-19.61-0.064c1.873,3.098,3.084,4.589,4.108,7.105
			C463.139,592.088,467.751,590.108,473.167,588.341z M497.945,612.786l0.046-24.855c-13.695,0.971-26.216,4.626-38.268,10.705
			c1.7,2.664,2.863,6.054,5.19,7.528L497.945,612.786z M536.31,605.831c2.563-0.881,3.513-5.76,3.678-7.313
			c-12.073-6.722-24.543-9.573-37.99-10.568l0.165,24.804L536.31,605.831z M546.905,588.043l-19.091,0.277
			c5.179,2.166,10.074,3.687,14.871,6.66C544.908,592.827,545.72,590.703,546.905,588.043z M563.075,593.768
			c-0.236-2.596,0.235-3.842-0.257-5.844c-3.238,0.695-7.504-1.077-10.461,0.661c-2.603,1.714-3.1,5.845-5.836,8.662l7.808,5.063
			C558.546,605.045,563.54,598.892,563.075,593.768z M584.979,596.714l2.931-8.728c-12.935-0.723-12.127,0.51-20.367,11.961
			C573.989,599.195,579.04,598.28,584.979,596.714z M629.104,588.3l-36.684-0.36c-0.727,3.249-2.588,4.914-2.481,8.253
			L629.104,588.3z M799.679,664.239l0.405-76.181c-13.729,0.951-26.547,3.983-38.668,10.812L799.679,664.239z M744.482,734.054
			c34.578,32.935,88.917,30.105,120.379-5.408c16.349-18.454,24.253-42.758,20.728-67.275c-5.96-41.453-40.1-71.342-81.603-73.311
			l0.138,83.451c0.002,1.073,1.544,1.997,0.911,2.99c-0.546,0.857-1.92,0.042-2.947,0.63l-72.022,41.223
			C733.792,722.95,738.41,728.271,744.482,734.054z M297.039,652.063l79.353-15.414l-27.781-47.569l-70.556,40.806
			C280.415,636.739,291.501,647.44,297.039,652.063z M704.475,651.856c7.915-7.107,13.552-13.7,18.637-21.704l-71.438-40.866
			l-27.513,47.515L704.475,651.856z M412.643,600.189l-49.907-9.098l58.224,33.542L412.643,600.189z M579.776,624.509l58.465-33.424
			l-50.394,9.361L579.776,624.509z M419.142,628.694l-63.346-36.239l24.894,43.442L419.142,628.694z M619.875,635.938l24.621-43.211
			l-62.762,35.902L619.875,635.938z M252.477,607.949l-9.367-7.053l-28.441,49.299L252.477,607.949z M432.081,604.132l-14.898-3.049
			l8.034,22.353C428.405,616.979,430.335,610.963,432.081,604.132z M575.447,623.257l7.949-21.894l-14.555,2.903
			C569.565,611.014,572.044,616.729,575.447,623.257z M785.277,649.342l-27.451-48.478c-3.305,2.206-6.255,4.041-9.44,7.243
			L785.277,649.342z M264.72,612.702l-2.097-9.692c-1.403,1.464-4.198,2.984-3.376,4.487
			C260.659,610.077,263.498,610.796,264.72,612.702z M741.948,607.685c-1.365-1.67-1.993-3.39-3.634-4.813
			c-1.191,3.589-1.989,6.387-2.219,9.853C738.812,611.432,739.716,609.414,741.948,607.685z M436.723,605.043
			c-1.679,2.105-2.612,5.337-2.438,8.964C435.337,609.753,445.223,606.338,436.723,605.043z M566.743,613.718l-2.181-8.449
			c-0.988-1.306-3.495,0.624-4.497,2.273C562.176,609.813,564.902,611.249,566.743,613.718z M466.934,619.573l-5.697-9.894
			l-14.851-2.629l11.613,14.212L466.934,619.573z M543.276,621.052c2.97-6.055,7.896-8.571,11.364-14.042l-15.089,2.368
			c-2.179,3.417-3.071,6.407-5.988,10.107C536.921,620.143,539.258,620.833,543.276,621.052z M569.875,626.131
			c-2.881-6.476-7.422-9.995-11.672-14.43c0.02-1.965-1.416-2.045-1.383,0.005c-3.33,3.318-6.539,6.117-8.879,10.287
			L569.875,626.131z M271.155,628.913c-4.834-6.419-9.406-12.402-15.598-18.283l-43.931,51.461L271.155,628.913z M453.331,621.947
			c-3.807-3.656-6.341-6.832-9.738-11.272c-4.709,4.802-9.309,9.108-13.546,15.234C437.629,625.647,444.836,623.245,453.331,621.947
			z M488.274,615.151l-21.375-4.424l4.372,8.094L488.274,615.151z M529.258,618.365c1.656-3.223,3.512-4.25,3.872-7.711
			l-20.652,4.616L529.258,618.365z M787.769,661.735c-0.46-6.273-5.825-6.073-7.241-10.304l-35.609-40.718
			c-6.151,5.264-10.585,11.544-15.119,18.195L787.769,661.735z M497.635,663.142l0.438-45.438l-24.533,4.847L497.635,663.142z
			 M527.036,622.367l-25.059-4.573l0.148,47.339L527.036,622.367z M484.208,650.127l-15.211-27.112
			c-2.769,0.936-4.989,0.408-7.581,1.799L484.208,650.127z M540.32,624.298c-3.682-0.474-6.006-0.102-9.078-1.383
			c-3.236,7.98-8.866,14.471-12.651,23.384C524.333,644.897,533.852,628.741,540.32,624.298z M512.759,663.14l57.131-32.803
			l-25.525-4.794l-21.311,24.621C519.458,654.318,515.309,657.462,512.759,663.14z M488.059,662.624l-31.792-37.062l-25.483,4.927
			L488.059,662.624z M281.24,654.851c-1.842-8.517-4.533-15.078-8.543-22.187l-60.958,35.389L281.24,654.851z M419.453,632.863
			l-36.338,6.446l10.292,18.584C401.781,653.698,415.042,640.834,419.453,632.863z M617.751,639.28l-36.629-6.46
			c6.437,10.037,14.866,18.239,25.563,25.052L617.751,639.28z M788.105,667.71l-60.308-35.25
			c-3.728,7.048-6.548,13.657-8.175,22.286L788.105,667.71z M492.39,670.828l-63.286-36.46l12.241,36.676L492.39,670.828z
			 M559.319,671.002l11.973-36.295l-63.543,36.126L559.319,671.002z M437.344,670.926l-12.579-35.336
			c-5.498,11.181-8.673,22.865-8.943,35.385L437.344,670.926z M585.233,670.97c-1.48-12.127-2.739-23.979-9.547-34.98
			l-12.197,34.932L585.233,670.97z M390.248,660.542l-11.653-20.266l-76.984,15.07C330.064,674.768,359.811,675.296,390.248,660.542
			z M699.518,655.299l-77.717-15.057l-11.179,20.084C640.142,675.948,671.774,674.16,699.518,655.299z M599.336,670.276
			c2.605-2.438,3.563-5.504,5.236-8.59c-7.282-4.458-13.176-9.227-19.26-15.891c-0.307,4.906,2.281,9.174,2.541,14.289
			c0.191,3.745,0.225,6.939,1.574,10.948C592.189,670.308,597.096,672.372,599.336,670.276z M715.917,653.816
			c0.037-3.404,1.602-4.816,0.826-7.925l-6.753,6.655C712.164,653.682,713.869,654.545,715.917,653.816z M290.819,652.597
			c-3.413-2.216-3.919-4.501-6.723-4.993c-0.004,2.253,0.316,5.775,1.717,6.169C287.837,654.32,289.602,652.76,290.819,652.597z
			 M412.103,671.038c-0.61-3.908,0.046-5.982,0.433-8.463l2.415-15.499c-6.716,5.551-11.943,10.815-19.309,14.759
			c2.507,2.753,3.202,6.837,5.712,8.64C404.469,672.011,408.45,670.505,412.103,671.038z M517.332,649.211
			c1.872-0.249,2.044-1.05,1.672-1.705c-0.312-0.548-0.896-0.727-1.506-0.523c-0.686,0.23-0.13,1.214-1.039,1.919
			C515.428,650.767,516.595,651.674,517.332,649.211z M714.123,671.044c-0.158-5.482-0.622-8.899,0.984-12.772
			c-3.711-1.094-6.559-1.316-10.067-1.924c-7.985,6.946-17.24,10.977-27.292,14.356L714.123,671.044z M322.233,670.736
			c-9.366-3.669-18.239-7.445-26.199-13.77c-3.774-0.154-7.185-0.091-10.439,1.832c1.071,4.388,1.756,7.855,1.374,12.265
			L322.233,670.736z M282.838,671.073c0.556-5.168,0.219-8.168-1.237-12.249l-60.812,11.834L282.838,671.073z M780.194,670.653
			l-62.216-11.955c0.061,4.619,0.416,8.172-1.085,12.375L780.194,670.653z M789.635,662.5c0-0.351-0.284-0.635-0.635-0.635
			s-0.635,0.284-0.635,0.635s0.284,0.635,0.635,0.635S789.635,662.851,789.635,662.5z M395.864,670.797
			c-1.739-3.602-2.195-4.929-4.197-6.779c-4.744,2.993-9.706,4.461-14.838,6.69C383.784,671.26,389.821,671.074,395.864,670.797z
			 M623.87,670.673l-15.436-6.512c-1.016,2.16-2.954,3.739-3.663,6.836L623.87,670.673z M272.918,712.558
			c6.447-11.948,9.259-23.415,10.397-35.515c-0.51-1.16-0.557-1.895-1.206-2.611c-0.578-0.638-1.217,0.458-2.312,0.463
			l-72.276,0.296L272.918,712.558z M454.084,769.97l-55.383-94.968l-111.561-0.007c-0.464,14.041-3.896,27.318-10.497,39.88
			l148.082,84.836C431.391,787.641,441.569,777.709,454.084,769.97z M413.824,692.111l-1.902-17.082
			c-3.134,0.154-5.391-0.716-8.495,0.628c3.578,3.92,4.902,7.834,7.328,11.641L413.824,692.111z M438.529,675.025l-22.776,0.033
			c1.478,31.167,19.076,60.06,48.562,73.514L438.529,675.025z M498.014,756.955l-0.007-81.988l-54.841,0.142l26.474,76.305
			C478.949,754.452,488.086,757.245,498.014,756.955z M531.107,750.848l26.542-75.76l-55.661-0.117l0.01,82.176
			C512.114,756.852,521.824,755.162,531.107,750.848z M584.683,674.984l-22.515,0.121l-25.664,73.526
			C565.941,734.874,583.913,705.739,584.683,674.984z M597.015,675.409c-3.553-0.783-5.411-0.534-7.938-0.216
			c-1.176,5.335-1.455,10.258-1.879,16.168L597.015,675.409z M723.914,714.95c-6.491-12.924-10.246-26.051-10.031-39.949
			l-111.823-0.011l-55.311,95.1c12.428,7.643,21.805,17.512,29.309,29.464L723.914,714.95z M793.002,675.221l-75.631-0.293
			c0.53,12.892,3.772,25.609,10.567,37.794L793.002,675.221z M443.135,741c0-0.351-0.284-0.635-0.635-0.635
			s-0.635,0.284-0.635,0.635s0.284,0.635,0.635,0.635S443.135,741.351,443.135,741z M532.117,762.814
			c4.532,1.768,7.25,3.422,10.864,5.273l15.9-28.367c-8.704,5.929-15.325,11.886-24.575,14.352
			C533.755,757.449,531.805,759.634,532.117,762.814z M469.127,762.266l-3.171-8.184c-8.54-2.509-14.532-8.344-22.391-12.191
			l13.774,26.014C461.702,765.479,465.606,764.879,469.127,762.266z M479.665,758.799c-2.753-1.237-4.918-1.384-7.698-1.875
			c0.015,1.656,0.89,3.571,1.869,4.038C475.807,760.612,477.824,760.618,479.665,758.799z M527.64,760.91
			c0.385-2.016,0.614-2.72,1.388-3.891c-3.027,0.373-5.518,0.326-8.203,2.481C523.071,760.055,525.378,761.003,527.64,760.91z
			 M497.71,830.925l0.36-70.062c-8.036,0.785-15.475,1.402-23.547,4.46L497.71,830.925z M526.166,765.245
			c-8.14-2.673-15.834-4.016-24.217-4.358l0.237,72.344L526.166,765.245z M488.942,820.808l-18.028-53.934
			c-4.235,1.145-7.581,2.722-11.259,4.938L488.942,820.808z M540.926,771.48c-3.322-1.706-6.525-3.586-11.12-4.659l-17.622,53.065
			L540.926,771.48z M428.224,801.692l65.882,37.744l-37.976-65.842c-6.69,4.864-13.299,9.141-18.135,15.347
			C434.671,793.142,431.161,796.801,428.224,801.692z M572.49,801.508c-7.639-11.439-16.646-20.305-27.824-27.901l-37.847,65.309
			L572.49,801.508z M563.299,901.206c12.879-13.739,19.563-31.579,21.49-50.481c1.126-16.206-3.172-31.722-10.181-45.493
			l-74.16,42.911l-74.22-42.565c-17.297,31.386-12.501,68.937,10.864,95.513C470.422,938.999,529.405,939.921,563.299,901.206z"/>
	</g>
</g>
</svg>
