<?xml version="1.0" encoding="iso-8859-1"?>
<!-- Generator: Adobe Illustrator 30.1.0, SVG Export Plug-In . SVG Version: 9.03 Build 0)  -->
<svg version="1.1" id="Layer_1" xmlns="http://www.w3.org/2000/svg" xmlns:xlink="http://www.w3.org/1999/xlink" x="0px" y="0px"
	 viewBox="0 0 1000 1000" style="enable-background:new 0 0 1000 1000;" xml:space="preserve">
<g>
	<g>
		<path style="fill:#DB11EC;" d="M211,311c0.876,0.31,1.005,1.248,1.708,2.053c0.633-2.265,0.165-3.931,0.376-6.127
			c-0.065-0.873-0.146-1.581-0.631-1.883c-0.362-0.226-1.032-0.056-1.453-0.043c0-1.076,1.308-1.498,2-2
			c0.48,0.254,2.292-0.173,2.01-1c-0.961-2.822,1.722-4.614,2.415-6.292c1.054-2.552,0.916-3.547,3.278-5.317
			c2.902-2.174,5.122-6.111,7.95-8.9c1.246-1.229,0.343-4.041,2.602-5.354c5.173-3.006,8.175-8.36,9.717-13.399
			c5.564-4.474,9.521-9.091,14.167-13.707l21.506-21.368c1.798-1.786,4.013-4.595,6.417-5.311c2.527-0.752,4.875-0.6,6.083-3.348
			c2.232-5.077,7.236-6.824,11.573-9.518c2.494-1.55,3.804-2.541,7.257-3.058c2.675-0.4,4.499-6.198,7.927-6.198
			c8.671,0,4.742-8.63,14.483-6.982c3.017-4.945,7.182-8.484,11.726-11.962c0.883-6.416,3.018,2.789,8.772-6.529
			c0.982-1.59,4.114-0.388,6.173-0.752c-0.784-3.763,0.745-5.614,3.227-7.634c1.208-0.983,1.07-3.142,2.441-3.337
			c0.982-0.14,3.426,0.48,4.144-0.159c3.704-3.293,7.258-7.057,12.148-7.416c0.55-1.534,0.961-3.03,1.747-3.36
			c0.968-0.406,3.17,0.47,4.032-0.24c9.87-8.123,9.766-11.95,17.887-15.261c4.714-1.922,7.738-7.737,12.36-9.084
			c2.711-0.79,3.073-0.965,4.901-2.933c14.441-15.552,8.379-1.789,15.351-11.648c4.864-6.878,18.184-12.86,22.285-18.356
			c0.848-1.137,3.8-1.852,4.726-3.701c1.411,4.914,6.72,4.573,9.046,8.659c1.02,1.792,0.731,3.56,3.857,3.923
			c-2.752,1.212-3.417,3.34-3.922,5.977c-0.727,3.799-5.509,3.853-7.464,6.205c-2.345,2.821-4.663,4.597-7.305,6.791
			c-4.989,4.142-8.246,9.682-12.918,14.059c-2.667,2.499-6.168,4.851-8.028,7.805c-1.655,2.627-2.788,2.262-5.575,2.919
			c-4.788,1.13-6.806,6.861-10.263,9.619c-2.977,2.375-5.809,5.973-8.934,7.519c-4.353,2.154-9.987,5.299-12.765,10.179
			c-0.819,1.438-4.128,2.693-4.414,4.811c-0.063,0.466-1.935-0.024-2.038,0.482c-0.089,0.436,0.104,2.125-0.391,2.083
			c-2.95-0.252-3.334,3.596-4.771,4.036c-3.501,1.071-13.82,6.472-14.229,11.269c-8.761,3.004-0.011,1.027-8.999,4.508
			c-2.392,0.926-3.206,4.766-5.29,6.265c-3.354,2.412-6.093,4.885-8.947,7.96c-0.743,0.801-2.876,0.046-3.485,0.523
			c-0.609,0.477-0.789,3.163-1.565,3.076c-5.586-0.628-2.841,2.095-10.227,8.192c-2.985,2.464-5,7.057-9.987,6.517
			c-5.889,6.208-12.134,12.498-18.758,18.607c-2.316,2.135-4.391,2.813-7.317,3.759c-1.065,0.344-1.325,3-2.53,3.311
			c-1.321,0.341-3.004-0.69-4.346-0.437c-2.878,0.544-3.596,4.66-5.651,6.292c-1.558,1.238-2.84,1.945-3.958,3.776
			c-1.522,2.492-5.588,3.398-6.746,6.2c-1.502,3.637,4.992,5.703-7.447,14.49c-0.221,2.344,0.098,4.736,0.2,7.704
			c1.028,1.028,2.637-0.026,3.404,1.245c0.41,15.505,0.661,4.95,4.847,13.391c2.535,5.112,6.502,9.292,9.539,14.03
			c1.062,1.656,1.572,5.268,3.215,6.844c0.559,0.536,1.661,8.928,1.251,8.649c0.708,0.481,2.654,0.874,2.927,1.582
			c0.656,1.705-0.511,3.421,0.583,4.803c0.644,0.813,3.527,1.781,3.658,2.82c0.306,3.231,0.545,5.944,2.295,8.555l4.396,6.56
			c1.566,2.337,0.871,4.284,4.449,5.273c1.654,0.457-1.018,5.005-0.138,6.175c1.236,1.512,4.233,1.902,3.551,4.982
			c-0.515,2.325,2.155,3.21,2.499,4.728l1.925,8.488c4.158,0.92,2.479,4.435,3.933,6.48c1.841,2.589,2.124,5.135,3.326,8.013
			c0.777,1.86,4.147,2.887,3.474,6.526c-0.148,0.939,2.785,1.392,3.122,2.258c1.555,3.995-0.993,4.329,0.6,6.845
			c0.312,0.493,1.45,0.088,2.137,0.501l1.528,6.514c5.143-0.089,1.953,6.756,4.113,8.965c2.441,2.497,4.377,5.053,2.219,8.98
			c4.633,0.19,2.978,4.369,4.377,6.646c4.733,7.701,3.83,6.128,7.405,14.645c1,2.382,4.785,3.599,3.237,7.568
			c-1.574,4.036,1.947,5.835,3.175,8.473l3.105,6.666c1.191,2.557,1.892,4.514,4.435,6.169c0.069,15.67,2.938,3.898,4.323,13.166
			c6.432-8.523,4.82-1.822,4.948-13.495c2.148,2.014,0.142,4.99,1.487,8.084c0.482-0.017,1.803-12.415-1.487-10.084
			c0.088-0.385,0.683-0.785,1-1c1-0.676,1.167-1.865,1-3c0.698-0.167,1.662-0.221,2-1c2.418-5.581,0.29-12.019,1-18
			c0.151-0.352,0.07-1.148,0.555-1.273l1.292-0.334c0.806-1.549-0.932-18.803,1.153-17.393c0.296,3.823-0.694,7.73,0.55,12.089
			c1.05-5.733,0.155-11.39,0.45-17.089c0.732-0.455,1.679-0.633,2.802-1.229c-1.89-5.424-0.821-10.796,3.107-15.079
			c0.818-0.893-0.541-4.261,0.911-4.986l3.18-1.589c0.594-0.297,1.046-0.959,1.045-2.059L395,394
			c4.276-2.934,3.688-8.778,1.951-13.67c1.517-0.992,3.953-1.518,3.971-3.353L401,369c2.2,0.209,2.799-2.171,3.092-4
			c0.052-0.326-0.01-0.67,0.013-1c1.16-0.252,1.925-1.378,1.92-2.965l-0.03-11.06c-0.005-1.79,1.302-2.902,2.016-3.974
			c-1.282-5.738,1.214-10.196,3.426-15.392c2.122-4.985-0.754-11.352,0.945-16.454c0.375-1.125,2.051-0.055,2.331-0.634
			c1.742-3.616-2.758-8.979,4.16-12.555c0.258-1.705,0.193-4.058,1.128-4.964c0.284,1.661,1.16,0.48,1.231-0.839
			c0.343-0.691,1.124-1.136,1.234-1.656c0.097-0.457-1.112-0.997-1.244-1.678c-0.877-4.526,0.464-8.717-0.563-12.837
			c-0.988,0.913-0.91,1.884-1.658,2.009c0.139-1.032,0.264-2.179-0.721-2.785c-0.634-0.39-2.297-0.2-2.514-1.042l-0.816-3.166
			c-17.839-1.354-11.503,3.604-14.973,3.683l-23.69,0.542c-0.988,0.023-1.473,2.65-2.332,2.017
			c-0.526-0.388-1.888-1.574-2.596-1.161c-1.857,1.083-3.023,2.284-4.907,2.112c-1.65-0.15-2.15-0.999-2.895-3.256
			c-0.98,0.848-0.432,3.1-1.721,3.927l-35.315,0.322c2.663,4.326-22.086,2.688-23.245,2.606c-1.069-0.076-1.169-2.51-1.816-2.697
			c-0.716,1.785-2.034,3.777-3.637,3.352c-4.147-1.098-8.713,0.272-12.913-0.283c-1.826-1.544-1.296-7.079,0.564-8.94L313,276
			c-8.153,2.773-16.991-0.475-26.075,1.581c1.049,0.26,29.624,1.727,27.075-1.432c0.326-0.017,0.683,0.072,1.008,0.084
			c1.312,0.049,2.457-2.072,4.136-2.08l43.762-0.2c0.705-0.003,1.22-0.362,1.094-0.818c0.286,0,0.764,0.077,1-0.029l0.853-0.105
			c1.424-0.287,2.096-1.629,2.147-3.003h3c-0.118,0.38,0.366,0.981,1.046,0.981l26.952,0.012c-0.055-1.366-1.123-1.039-1.998-0.993
			v-1c3.354-0.197,5.25,0.087,7.792-3.41c1.354-1.863,6.499,0.603,8.045-0.882c3.233-3.103,5.18-2.995,10.817-8.187
			c-2.162-4.205,0.339-5.42,2.151-7.686c1.115-1.394-0.802-5.929,1.112-6.758c3.449-1.493,2.298-4.261,3.783-6.8
			c1.611-2.755,5.12-5.113,2.899-9.385c1.119-1.129,2.731-0.831,4.4-1.227c-1.143-1.436-1.131-3.076-1.08-5.088
			c0.036-1.408,1.605-2.353,3.104-3.583c1.844-1.512,0.035-5.263,1.338-6.566c2.57-2.568,2.19-5.718,3.743-8.349
			c1.903-3.223,4.236-5.685,3.101-10.012c1.153-0.986,2.885-1.94,3.838-3.314c-1.435-3.137,2.033-5.711,2.413-7.863
			c0.824-4.666,1.77-8.031,5.008-11.343c0.585-0.662-0.523-3.088-0.136-3.843c0.528-1.028,2.419-1.345,3.141-2.289
			c1.501-1.962-0.669-8.421,1.933-9.889c0.471-0.266,1.609,0.281,2.375-0.505c-0.396-1.794-0.87-3.454-0.586-5.082
			c0.192-1.104,3.503-1.739,3.444-2.884c-0.184-3.592,2.27-5.242,3.495-7.567c1.228-2.33,2.463-4.23,4.056-6.348
			c1.431-1.902-2.061-7.339,0.591-9.542c7.174-5.962,0.543-4.901,4.206-11.729c0.377-0.703,1.504,0.015,3.039-0.992l-1.473-4.464
			c-1.754-1.314-4.284-0.027-6.492-0.494l-0.15-10.58c-2.212,0.072-4.974-0.036-6.426-1.748c-1.307-1.543,0.139-3.589,0.515-4.945
			c0.47-1.696,3.194-1.07,4.361-2.278c4.889-5.062,9.993-9.336,15.737-13.187c-1.906,1.277,9.37-7.972,8.2-6.104
			c0.239-0.381,0.059-0.96,0.066-2.028c4.095,0.06,7.733-0.372,11.584,0.227c-1.632,1.088-2.119,1.718-0.449,1.972
			c4.207,1.689,6.648,4.18,9.265,7.203c1.079,1.247,10.869,10.876,10.767,10.837c4.066,1.558,8.19,4.518,11.685,7.148
			c2.316,1.743,5.11,0.448,6.535,4.218c0.818,2.164,5.842,4.283,6.325,6.834c1.634,8.632,8.187,8.835,16.657,13.124
			c4.085,5.027,16.588,12.567,15.344,11.499l7.574,6.502c2.07,1.777,3.317,5.43,8.427,3.273c-0.923,3.091-0.659,4.422-0.107,5.629
			c0.925,2.023,3.913,0.879,4.976,1.8l8.573,7.422c2.056,1.78,3.821,3.271,7.305,2.151c0.837,1.391,0.872,3.492,1.837,4.366
			c6.159,1.998,11.029,5.102,14.753,10.424c4.969,7.102,10.01,2.426,14.905,11.913c0.309,0.599,2.633,0.438,2.319,1.314
			c-0.148,0.414-0.274,1.326,0.48,1.765c0.869,0.505,3.845-1.71,4.443-0.372c1.046,2.34,4.527,3.111,5.288,4.571
			c2.344,4.496,8.571,9.777,12.799,11.03c2.735,0.81,4.658,4.196,8.537,4.132c1.989-0.033,1.015,4.897,2.3,5.437
			c2.427,1.02,5.478,1.204,7.109,4.012c0.736,1.267,4.229-0.04,5.168,0.754c0.162,2.341,1.694,2.636,3.328,4.047l4.674,4.035
			c0.888,0.767,2.645,2.923,3.252,3.956c1.306,3.612,2.178,8.44,6.982,9.875c2.058,0.615,5.954-0.953,7.596,0.086
			c1.235,2.883,4.511,2.585,6.188,4.028c10.731,9.239,3.964,1.307,16.496,11.414c2.036,1.642,2.66,5.958,5.812,6.038
			c5.788,0.145,11.78,8.12,14.054,10.101c3.813,3.321,6.612,14.542,6.597,14.514c1.256,2.302,3.208,3.944,4.095,7.127
			c0.643,2.308,5.156,3.466,2.876,7.73c1.831-0.581,0.923-1.738,2.324-2.343c-0.817,3.27,5.397,12.06,6.967,15.564
			c3.401,7.587,8.698,13.858,8.632,14.43l-0.5,4.381c0.197-1.73,5.374,6.73,7.591,6.744c-0.224,1.332-0.844,3.422-0.225,3.807
			l3.49,2.168c-1.318-0.818,12.089,15.306,11.917,14.085c-0.354,1.445-0.517,2.315-0.358,3.379c3.604,0.69,2.7,4.395,4.266,6.273
			l4.261,5.112c0.847,1.016,2.807,1.348,2.802,2.865c-0.003,0.748-0.7,2.269-0.343,3.145c0.517,1.268,2.767,1.511,3.095,2.739
			c0.211,0.787-0.991,3.299-0.267,3.748c3.936,1.412,10.086,13.794,8.571,12.009l5.702,6.721
			c-1.091-1.286,12.024,18.459,11.421,18.096c1.413,0.85-0.227,5.154,3.089,5.865c2.858,0.613,1.21,5.189,1.43,5.492
			c2.293,1.133,5.105,3.37,6.445,5.647l3.471,5.901c0.398,0.676-0.336,2.493,0.28,3.427c0.428,0.648,2.552,0.667,2.752,1.396
			l4.18,5.307c0.364,0.462,10.478,16.852,11.328,17.743l8.358,8.759c3.1,3.248,4.194,6.562,2.949,10.719
			c2.393,0.79,3.384,4.276,4.779,5.216c2.313,1.558,1.985,2.805,2.937,5.491c0.985,2.781,4.056,4.688,3.177,8.488
			c1.67,0.197,2.212-0.414,3.827-0.455c-0.373,6.785,0.506,13.158-0.494,19.54c-1.277-0.075-1.67-1.71-2.098-1.526
			c-0.477,0.204-0.992,2.071-0.861,2.547c1.631,5.929-6.273,9.327-7.075,11.502c-1.341,3.636-2.098,6.968-7.079,10.384
			c-1.472,1.005-1.181,3.522-2.256,4.947l-6.221,8.245c-1.969,2.609-2.147,3.674-3.684,5.995c-2.306,3.483-5.819,6.177-7.44,10.58
			c-1.87,5.078-11.657,7.985-9.853,15.56c-4.626,0.403-3.51,5.044-5.177,6.926l-7.113,8.033c-1.3,1.469-3.972,2.06-3.814,4.811
			c-1.223-0.098-1.827-0.331-2.811,0.418c3.98,6.054-6.363,8.941-7.664,12.857c0.584,3.401,0.874,5.738-1.893,8.008
			c-1.387,1.138-4.505,7.439-8.825,9.135c-0.507,0.199-0.515,2.126-1.174,2.443c-0.474,0.228-1.789-0.372-2.119,0.596
			c-1.378,4.037,5.948,0.162-7.099,11.632c-0.11,4.546-2.667,5.65-4.931,8.761l-10.069,13.839c-1.408,1.936-4.102,3.407-5.239,5.904
			c-2.157,4.74-4.546,8.823-9.318,11.812c-0.472,0.296-0.055,2.64-1.188,2.345c-4.244-1.106,2.549,5.042-6.309,7.733
			c-0.376,1.705,0.889,4.188-0.218,5.617c-2.154,2.34-4.919,3.694-7.339,5.679c0.993,3.223-0.444,6.168-3.202,8.219
			c-7.534,5.603-0.554,8.03-6.608,7.711c1.085,4.175-0.782,6.489-3.388,9.183c-1.434,1.482-1.343,3.055-3.691,3.522
			c-2.821,0.562-0.22,5.193-1.153,6.605c-1.235,1.87-2.29,4.127-3.496,5.717c-1.478,1.947-10.326,10.293-12.81,11.527
			c-2.765,1.374-7.163,1.37-8.312,5.028c-1.141,3.631-5.59,2.4-6.807,4.032c-1.794,2.405-4.801,2.208-6.487,3.743l-7.806,7.105
			c-6.534,5.948-4.923,5.57-10.766,7.736c-3.016,1.118-5.179,4.767-7.74,6.799c-2.629,2.086-4.971,2.925-7.664,4.542
			c0.338-0.203-11.532,7.798-10.18,6.345c-3.604,3.875-6.738,6.639-11.801,7.648c-1.898,1.883-4.724,4.949-6.813,7.037l-6.911,6.907
			c-1.156,1.155-4.191-0.717-5.208,1.205c-0.675,1.278-1.433,2.584-2.536,2.836c-0.973,0.222-2.372-0.702-3.539-0.863
			c-4.078,4.912-5.736,8.724-11.571,8.115c-0.494,1.477,0.161,5.034-0.852,5.615l-3.334,1.914c5.608-3.219-11.593,7.688-8.931,6.852
			c-1.101,0.346-2.606-0.648-4.184-0.755c-0.195,2.343-12.03,13.557-14.802,11.685c-2.847,6.026-14.574,11.138-14.573,11.138
			c-5.291,4.686-5.474,6.563-13.211,11.701l-5.479,3.638c12.506-8.304-24.212,17.694-9.639,6.416l-8.93,6.911
			c-0.995,0.77-2.81-0.201-3.43,0.3c-0.969,0.783-0.847,2.657-2.13,3.181c-1.214,0.496-2.913,0.341-4.059,0.127
			c-1.589-0.297-1.075,1.978-2.225,2.793c-4.423,3.134-9.557,6.99-11.623,11.964c-0.29,0.698-3.03,0.236-3.425,0.739
			c-0.378,0.482,0.354,1.824-0.389,2.574c-5.505-0.091-12.251,0.691-17.158-0.367c-1.87-3.153-8.268-6.849-12.192-11.133
			c-1.381-1.507-1.867-3.435-4.61-2.431c-3.422,1.253-4.177-1.515-6.046-2.987c-2.761-2.174-11.082-8.755-11.818-12.126
			c-2.373,0.149-3.676,0.138-5.807-0.173c0.512-2.997-2.583-2.576-3.245-3.615c-0.69-1.081-6.67-7.952-9.116-7.06
			c-2.677,0.976-2.465-1.621-3.542-2.543c-2.921-2.5-5.565-4.811-7.538-8.388c-2.144-0.29-4.706,0.35-6.095-0.588
			c2.09-0.225-8.663-9.292-7.001-7.336c-1.68-1.978-2.435-2.993-5.053-4.189c-13.378-6.115-1.381-3.196-10.52-6.834
			c0.274-1.292,0.406-1.867,0.151-2.269c-0.348-0.547-1.547-1.094-2.249-0.911c-2.922,0.766-3.98-1.328-5.834-2.237
			c-2.462-1.206-4.354-1.726-6.431-3.847c1.273,1.301-15.879-10.911-13.366-8.781c-3.758-3.185-5.773-8.494-11.207-10.489
			c-1.2-0.44-1.122-2.614-1.868-3.352c-3.609,1.092-5.543-1.832-7.793-3.316c0.501,0.331-8.904-3.625-10.957-7.809
			c-0.289-0.59-2.296-0.611-2.29-1.526c0.003-0.449,0.34-1.408-0.123-1.912c-0.703-0.765-2.654,0.415-3.551-0.158
			c-1.261-3.373-4.759-2.877-6.795-4.519c2.453,1.977-5.791-7.649-4.837-6.526c-0.571-0.671-2.536,0.934-3.127,0.464
			c-4.26-3.382-8.009-7.082-12.066-10.889c-1.464-0.312-4.198,0.432-4.885-0.659c-3.66-7.279-14.837-12.353-13.919-11.463
			l-6.545-6.347c-0.652-0.632-13.735-10.103-14.894-10.989c-4.146-3.17-7.043-8.28-11.637-10.296
			c-2.459-1.079-4.537-0.993-5.978-3.677c-0.66-1.23-3.339-2.163-3.595-4.344c-5.056,0.22-9.228-3.76-12.072-7.473
			c-0.882-0.598-4.524,0.757-5.114-0.385c-0.371-0.718-0.591-2.225-1.303-3.266c-3.366,1.892-4.878-1.382-6.872-2.608
			c-2.975-1.828-6.18-4.047-7.396-8.188c-0.296-1.007-3.857-0.874-2.669-3.538c0.489-1.097,0.044-2.731-0.655-3.5
			c-0.415-0.456-2.292-0.361-2.607-1.112c-1.147-2.737-1.226-5.322-4.096-6.924c-0.247-0.865,0.118-2.019-0.328-2.441
			c-0.716-0.678-2.355-0.582-2.864-1.316c-1.075-1.549-0.065-3.536-0.383-5.702c-4.362-1.998-6.901-6.865-7.829-10.849
			c-5.762-2.954-7.796-10.825-8.083-11.153c-1.923-2.189-2.982-3.645-3.809-6.643c-0.221-0.803-4.925-7.314-6.72-14.233
			c-1.228-4.733-6.781-7.569-10.264-10.397c-1.587-1.289,0.785-4.148,0.089-5.196c0.142,0.214-10.173-9.07-11.104-9.661
			c-0.344-3.198-0.612-5.418-3.339-7.648c-0.662-1.054,0.894-4.405-0.672-5.358c-1.139-0.285-2.047-0.001-2.375-0.549
			c-0.379-0.634-1.139-2.417-0.957-3.031c1.223-4.119-4.809-5.141-6.778-9.975c-3.794-9.315-6.867-6.241-9.945-14.322
			c-0.953-2.502-1.869-4.926-4.834-6.324c-0.783-1.602-0.198-4.331-0.663-6.282c-3.463-0.695-3.415-3.236-4.173-5.891
			c-0.777-2.723-4.934-4.403-5.545-7.222c-0.931-4.292-3.73-7.532-7.201-9.368c-1.554-0.822-2.071-4.766-4.836-4.971
			c0.614-1.621,1.63-3.558,0.915-3.94l-3.098-1.656c-2.73-1.459-3.728-9.676-8.23-11.153c-2.058-0.675,0.526-4.473-0.232-5.713
			c-1.365-2.232-5.399-4.5-7.13-6.202c1.302-3.959-2.701-4.789-3.323-6.714c-1.865-5.772-5.897-15.905-11.495-18.596
			c-0.449-0.216,0.488-2.168-0.33-2.238c-2.585-0.221-2.314-0.008-4.344-5.363c-0.937,0.405-0.643,1.513-1.745,1.802l0.061-16.502
			c0.847,1.656,6.542-5.358,6.523-4.955c0.034-0.746-0.851-2.264-0.36-3.194c1.69-3.201,6.446-5.033,7.479-8.245
			c-1.788-0.052,6.705-11.458,6.826-9.639c1.646-0.907,0.019-5.544,2.613-4.304c1.75-0.222,0.612-3.472,2.375-4.731
			c3.968-4.756,9.169-8.093,12.691-13.105c1.224-1.742,2.139-3.096,4.119-3.877c0.434-8.586,5.983-5.099,11.788-17.72
			c1.603-3.485,5.37-6.397,8.305-9.619c8.868-9.735,3.881-5.706,6.212-9.413c2.636-4.194,8.221-6.962,10.088-11.735
			c0.996-2.545,1.259-4.007,3.477-5.798c2.633-2.126,5.053-5.835,8.213-7.153c0.145-1.112-0.119-2.295,0.608-2.494
			c0.758-0.207,2.06-0.339,2.476-0.941c1.131-1.634,0.311-3.42,0.2-5.974c4.583-0.361,5.516-5.162,8.321-7.411
			c6.592-5.284-1.424-3.154,11.336-14.731c2.209-2.004,2.035-3.736,3.373-5.889c1.849-2.975,5.74-5.119,7.101-8.954
			c0.436-1.228,3.719-1.347,4.36-3.597c0.508-1.782,4.335-0.216,5.338-1.339C211.671,314.443,211,312.251,211,311z M493.963,277.037
			c-5.954,0.094,16.578,1.645,14.037,3.055l1,0.013c0.349,0.733,1.509,0.566,2,0.895c1.236,1.354,4.047,1.81,5,0h2
			c0.863,1.639,4.137,1.639,5,0h2c0.74,1.009,1.854,2.078,3,2.087l1,0.008c0.25,1.137,1.377,1.945,2.964,1.932l13.089-0.107
			c1.533,0.268,2.367,1.175,2.922,2.114c0.034,0.466,0.661,0.777,0.992,0.99c3.075,1.971,7.101,0.969,11.113,0.573
			c-3.347-1.36-6.731-0.245-10.079-0.597c-0.073-0.773,0.914-1.025,1.951-1.025l17.098,0c1.036,0,2.029,0.256,1.951,1.025
			c-3.353,0.406-6.756-0.865-10.118,0.662c5.072,0.451,9.22,0.106,13.118,2.338c12.4,7.1,13.518,1.255,15,8
			c0.137,0.623,0.804,1.04,1.936,1.04l18.193-0.011c2.099,4.047,7.143,2.075,10.919,3.4c3.306,1.161,5.403,3.41,10.196,2.868
			c3.941-0.445,8.375,1.216,11.978-1.941c-3.949-0.813-2.958-5.021-4.8-6.848c-2.103-2.086-4.462-3.77-3.37-7.43
			c-3.436-3.797-7.247-6.569-7.363-10.723c-3.978-2.942-5.799-7.024-7.835-11.285c-4.569-6.006-9.87-7.173-10.772-14.531
			c-6.437-7.739-7.509-3.112-7.006-9.606c-0.095-2.106-0.676-2.072-1.784-0.028c-0.722-3.124-1.493-5.913-4.925-7.309
			c-0.696-1.82,0.419-4.905-0.854-5.835c-2.503-1.568-2.279-3.125-2.831-5.811c-0.652-3.17-6.659-4.793-7.131-7.941
			c-0.227-1.515-18.439-32.61-19.73-33.489c-1.993-1.356-2.363-2.07-3.396-4.261c-5.114-10.852-5.665-6.087-6.801-13.824
			c-0.185-0.605-2.186-0.706-2.681-1.026c-0.722-0.468-1.355-2.016-1.008-3.326c1.846-6.965-5.578-4.08-7.406-13.573
			c-0.133-0.692-2.501-0.829-2.866-1.401c-0.319-0.5-0.215-1.262-0.192-2.777c-4.457,0.675-2.383-4.89-3.824-6.024
			c-3.649-2.87-6.997-7.491-7.872-12.416c-0.234-1.316-2.05-3.597-2.764-5.158c-2.067-4.519-7.292-7.589-7.38-13.149
			c-7.123-0.392,0.575-3.005-6.738-8.771c-1.946-1.535-4.019-7.497-7.764-5.774c-9.656,4.443-3.301,18.706-8.979,17.248
			l-0.263,6.696c-8.798,3.284,0.884,7.962-7.514,13.227c1.688,11.434-4.462-0.724-3.532,15.776
			c-2.835,0.988-4.592,2.859-3.909,6.035c0.552,2.568-2.977,2.75-3.674,4.171c-1.525,3.107,1.28,7.927-0.992,11.006
			c-1.822,2.47-2.18,5.369-3.452,7.922c-0.79,1.586-3.926,1.942-2.912,4.988c0.884,2.655-1.907,3.875-3.811,4.892
			c2.735,4.278-0.866,7.276-2.564,10.332c-1.551,2.791,0.044,6.534-4.358,7.936c0.439,19.804-2.916,11.143-3.668,14.929
			c-0.267,1.343,0.73,2.668,0.115,3.815c-1.75,3.267-2.934-2.04-4.386,9.431c-0.926,0.181-1.454,0.016-1.891,0.02
			c-0.783,0.007-1.824,1.707-1.469,2.338c1.978,3.511-2.264,4.532-2.469,6.338c-0.385,3.392-0.851,5.261-3.152,8.344l-4.434,5.941
			c-2.556,3.424-0.172,9.499,3.051,12.034c3.103,2.44,8.947-0.655,12.167,0.269c2.429,3.189,5.424,5.434,9.928,4.322
			c4.615-1.14,7.515,2.223,11.422,2.462l16.437,1.004C490.319,273.608,492.246,277.064,493.963,277.037z M652,303
			c0.361,1.115,1.901,1.207,2.848,1.152c0.015,0.294,0.061,0.598,0.045,0.892c-0.229,4.008,2.305-4.251,7.763,1.006
			c0.501-0.931,0.544-1.671,0.344-2.05c-1.004-1.904,2.184-1.457,2.672-2.357c1.611-2.976,4.91-2.638,7.384-4.001
			c3.766-2.076,6.92-4.541,11.708-1.445c0.128-2.496,0.362-3.901,1.457-4.503c1.393-0.766,3.096-0.255,4.802-0.877
			c1.199-0.437,1.268-2.175,1.562-2.885c0.526-1.273,3.322-0.471,4.193-1.151c8.632-6.739,7.308,1.059,11.303-5.185
			c1.74-2.72,6.221-0.545,8.626-2.085c1.578-1.011,1.445-4.771,5.005-3.652c-0.941-2.59,0.939-5.429-0.436-7.635
			c-0.862-1.382-3.634-2.019-4.386-4.126c-1.212-3.394-8.942-5.728-11.017-8.018c-4.834-5.337-10.159-9.362-16.169-12.618
			c-6.895-3.735-6.72-10.516-13.469-9.852c-3.859-4.644-15.139-13.785-18.53-18.322c-3.027-4.051-6.84-5.174-10.591-7.635
			c-4.059-2.663-7.683-7.029-11.442-10.729l-10.942-10.77c-3.217-3.167-6.197-5.526-10.212-7.566
			c-4.014-2.039-6.66-7.296-10.843-9.102c-2.043-0.882-1.629-2.017-2.578-3.208c-2.101-2.639-8.994-7.822-12.097-12.383
			c-1.988-2.922-4.408-3.747-7.375-4.712c-2.337-0.76-8.375-7.135-8.502-7.348c-1.912-3.189-4.702-4.515-6.89-6.949
			c-2.916-3.245-6.404-6.197-10.664-6.756c-5.608-3.645-8.897-13.456-13.812-10.472c-1.151,0.699-0.62,3.291-0.999,4.366
			c-1.134,3.209,1.832,4.974,2.812,7.037c1.862,3.922,3.092,7.755,7.749,9.811c0.633,12.452,7.249,3.659,3.674,12.865
			c4.7-0.397,8.203,9.736,8.664,10.567c0.805,1.451,4.772,1.422,3.149,4.951c1.251,0.683,1.857,0.075,2.257,0.492
			c1.558,1.624,0.083,4.987,1.737,6.542c0.461,0.434,1.235-0.076,2.321,0.577c1.165,1.586,0.291,5.177,1.527,6.166
			c1.718-0.736,7.734,11.345,6.873,10.423c3.426,3.669,8.058,6.032,6.531,12.141c8.255-0.781-0.432,3.358,7.399,8.989
			c13.831,9.945,2.535,10.979,11.017,13.119c-0.671,5.279,3.653,8.65,6.829,11.959c1.569,1.635,1.432,5.331,4.025,6.918
			c3.395,2.077,2.889,6.341,4.391,8.933c1.255,2.165,3.558,3.504,4.567,6.439c0.613,1.782,4.137,2.472,1.778,5.626
			c8.15-1.326-0.156,5.849,7.287,8.096c0.554,1.534,0.552,3.359,0.881,5.171c4.251,0.195,2.831,5.115,4.203,6.616
			c2.28,2.493,1.884,4.647,3.061,7.374C645.15,296.68,650.653,298.842,652,303z M279.213,258.518
			c6.946-3.49,8.15-4.222,12.608-9.983c2.488-3.215,7.364-5.106,9.505-9.161c1.616-3.06,4.88-2.442,7.323-3.155
			c2.503-0.73,3.28-5.536,5.264-6.178l5.419-1.753c1.16-1.596,2.515-3.377,4.309-4.567c4.921-3.267,8.147-7.705,12.375-11.561
			c1.755-1.601,4.94-2.62,6.739-4.173l3.919-3.381c3.97-3.425,14.819-14.344,16.377-14.973c5.019-2.026,10.521-6.344,13.093-10.675
			c0.424-0.714,7.671-7.242,8.936-7.599c4.148-1.17,6.078-4.507,9.112-7.203l7.979-7.09c2.443-2.171,5.703-3.01,7.369-6.687
			c0.809-1.787,4.482-0.741,5.745-2.094c0.651-0.697-0.48-2.422,0.003-2.667l2.768-1.402c1.918-0.972,2.264-3.035,5.171-3.059
			c-0.844-2.89-2.769-1.222-4.173-1.752c-2.029-0.767-1.452,2.739-2.491,3.008c-3.038,0.786-4.347,1.882-6.72,3.525l-5.241,3.63
			c-2.705,1.874-8.905,4.157-10.997,7.328c-1.623,2.461-6.726,2.957-8.465,5.195c-1.991,2.563-4.201,2.128-6.415,3.611
			c-3.092,2.071-4.898,6.821-9.397,7.012c0.274,1.532,0.199,2.034-0.129,2.377c-0.345,0.361-1.66,1.19-2.315,0.956
			c-4.28-1.528-5.013,2.32-7.558,4.352c-2.029,1.619-4.539,5.088-6.555,5.813c-7.379,2.656-9.134,6.39-11.219,6.861
			c-4.563,1.03-10.424,8.505-14.636,11.4c-1.365,0.938-18.674,13.494-17.368,11.844c-3.196,4.039-7.922,6.139-12.369,7.881
			c-2.098,0.822-3.595,2.963-6.851,3.699c-2.601,0.588-9.486,12.815-14.783,9.709c-0.327,4.558-6.062,5.215-7.411,8.391
			c-0.853,2.007-1.499,3.733-3.152,5.951c-1.609,2.159-2.088,16.976,0.584,18.002C269.514,271.468,273.68,261.299,279.213,258.518z
			 M743.024,256.945c-3.913-3.93-7.83-7.404-11.324-11.643c-1.526-0.689-3.64-0.268-5.01-1.075c-0.115-1.189-0.031-1.87-0.554-2.096
			c-0.401-0.173-2.68-0.061-2.792-0.525c-0.463-1.916-4.085-3.615-4.66-5.151c-1.869-4.993-6.294-4.955-10.02-6.416
			c-1.952-0.765-3.635-3.587-6.844-4.441c-2.645-0.704-4.99-7.017-8.973-6.063c-0.74-1.091-0.925-2.966-1.597-3.387
			c-0.727-0.455-3.182,0.172-3.704-0.515c-1.552-2.042-11.273-11.156-14.302-11.83c-1.087-0.242-1.343-3.152-3.432-2.256
			c-3.472,1.488-4.887-1.327-7.057-3.319l-3.089-2.835c-4.382-4.023-8.63-8.171-12.558-12.629c-0.541-0.613-3.604,0.924-4.207-0.013
			c-0.437-0.679-0.774-1.99-1.679-2.953c-0.642-0.683-1.911-0.009-2.353-0.431c-0.496-0.475-0.772-2.567-1.332-2.813
			c-3.864-1.694-6.071-4.825-8.937-7.096c-1.582-1.255-4.917-1.68-5.963-3.989c-0.367-0.811-3.339-0.264-3.891-1.238
			c-0.3-0.53,0.043-1.26-0.631-2.2c-3.965-0.719-5.423-3.922-5.836-7.375c-1.222-1.274-4.386-0.573-6.377-0.517
			c-0.994-1.005-0.938-2.214-1.346-3.68c-2.47-0.526-3.587-2.135-3.97-4.369c-1.688,1.22-3.359,0.908-5.315,0.338
			c-0.961-0.28-0.488-1.739-1.446-3.594c-2.765,0.027-1.83,2.491-1.733,4.501c-0.043-0.886,4.457,5.556,7.804,4.681
			c2.682-0.701,2.316,1.777,3.279,2.867c3.476,3.933,7.567,7.025,11.373,10.799c2.512,2.492,4.593,4.866,7.2,7.427l4.679,4.598
			c0.836,0.821,1.746,2.273,2.385,2.929c4.742,4.872,10.885,7.857,16.527,12.23c3.455,2.678,5.792,8.165,10.592,9.991
			c2.509,0.954,3.56,1.867,5.62,3.72l9.861,8.876c-2.153-1.938,11.725,12.651,10.331,10.541c1.743,2.639,4.327,2.587,6.54,3.898
			c2.732,1.618,17.064,15.08,13.558,13.654c0.493,0.2,2.265-0.3,2.628,0.189c1.562,2.105,4.629,2.823,6.324,4.448l11.186,10.726
			c1.521,1.459,1.976,3.907,5.152,3.087c1.285-0.332,2.751,0.269,3.314,0.931c0.394,0.464,0.314,2.563,1.111,2.721
			c11.897,2.365,11.306-0.459,16.991-5.645C744.762,259.918,744.634,258.562,743.024,256.945z M826.165,388.838
			c1.967-3.16,2.522-4.229,2.387-5.632c-0.244-2.528-2.802-2.395-3.781-3.847c-1.356-2.011-2.56-3.259-4.461-4.784
			c-1.121-0.899,0.314-3.148,0.646-4.632c-3.067-0.015-3.599-2.943-5.442-4.31c-7.078-5.251,2.643-5.023-6.348-8.736
			c0.513-3.597-0.748-5.566-3.158-7.858c-0.622-0.592,0.766-3.584-0.111-4.171l-2.892-1.936c-1.826-1.223-0.601-4.24-1.492-6.34
			c-3.751-0.432-3.089-2.988-3.732-5.707c-0.387-1.636-9.174-10.083-9.373-12.871c-0.192-2.699-3.187-3.747-3.512-5.388
			c-0.56-2.821-2.979-5.41-3.619-7.319c-1.636-4.882-4.35-7.467-7.668-11.15c3.612,4.009-4.839-9.501-10.422-14.321
			c-1.334-1.152-0.571-3.795-1.867-5.372c-8.333-2.398-8.674-7.791-19.542,0.601c-3.988,3.079,11.854,13.279,10.968,18.6
			c2.131,2.258,14.086,10.661,10.7,14.799c1.48,0.447,3.044,3.604,4.536,4.382c2.629,1.371,2.249,4.579,3.842,6.413l3.588,4.131
			l11.289,11.884c4.249,4.473-1.353,3.87,7.477,10.332c2.288,1.674,2.077,3.963,3.514,5.631
			c2.026,2.352,13.685,14.588,13.716,14.684c1.222,3.772,8.151,2.625,6.568,12.296c3.223-0.076,3.467,2.36,4.855,4.05
			C824.606,384.426,826.781,385.658,826.165,388.838z M208.602,335.988c3.479-2.396,6.233-5.432,7.897-8.556
			c0.736-0.009,1.774,0.086,1.976-0.25c0.192-0.319-0.325-1.903,0.063-2.024c1.886-0.587,3.363-3.58,4.854-4.467
			c4.561-2.712,7.87-7.419,10.753-11.829c10.229-15.646,2.371,0.448,10.764-12.092c2.206-3.296,6.665-11.52,7.239-14.83
			c0.284-1.637,4.624-2.365,3.03-5.617c-2.034-4.15-8.77-2.085-9.002-1.976c-0.623,0.293-0.657,1.064-0.723,2.447
			c-1.607,0.553-2.703,1.112-3.315,1.924c-0.611,0.809,0.5,3.975-0.21,4.457c-5.327,3.62-9.333,11.703-11.607,14.622l-10.296,13.219
			c-0.69,0.886-0.385,2.881-1.394,3.424c-0.514,0.277-1.658-0.156-2.59,0.724c3.592,5.223-3.831,7.31-10.937,15.704
			c-1.058,1.25,0.476,4.352-2.512,5.875c-1.162,0.592-0.962,3.75-1.704,5.034c2.058,0.167,4.393,0.931,5.678-0.338
			C207.79,340.23,206.748,337.264,208.602,335.988z M585,304c-0.83-1.912-2.969-1.198-5.004-1.171L567,303
			c-1.14-0.461-1.904-2.392-3.173-2.655c-6.823-1.418-15.991,0.923-22.262-1.291c-3.527-6.307-10.189-0.015-10.565-6.053
			c-4.961-3.314-15.871,2.182-24.003-4.024c-4.075-0.218-10.24,2.283-12.7-0.545l-2.738-3.148
			c-2.643-3.039-9.794,0.906-14.607-0.785c-2.209-0.776-3.577-3.94-6.979-2.532c-3.555,1.471-5.339-2.253-7.452-3.408
			c-4.099-1.837-8.96,0.396-13.444-0.792l-1.185-3.748c-4.502-0.092-7.924-0.198-13.121,0.224c2.388,4.339-1.694,6.696-2.142,8.848
			c-1.552,7.462-0.336,15.333-0.468,22.86c-0.054,3.086-2.859,3.525-3.608,5.585c-1.721,4.733,0.401,10.958-2.592,15.39
			c-4.126,6.108,1.088,17.213-4.679,16.547l-0.743,13.212l-3.222,2.685c-3.847,3.205,1.241,12.594-1.036,18.446
			c-1.141,2.931-3.468,4.967-2.345,9.345c0.843,3.288,0.054,7.225-3.831,8.18c-1.086,4.753,2.156,16.522-3.533,17.462l-1.025,21.596
			l-2.925,0.831c-0.735,0.209-1.293,2.61-0.889,3.561c1.935,4.557-1.681,6.953-2.285,10.415c-1.1,6.303,1.6,16.268-3.995,19.178
			l-0.965,16.643c-0.13,2.238-3.954,3.662-2.485,6.994c1.451,3.29-2.213,4.695-3.143,6.819c-1.908,4.356-0.991,9.822-1.422,14.524
			c-8.749,2.816,2.198,11.076-7.59,14.027c4.082,2.96,8.206-2.265,10.803-5.887c1.354-1.352,4.012,0.091,6.127-0.638
			c-0.448-2.988,2.498-3.222,3.492-4.532c2.095-2.761,4.272-2.944,7.183-4.062c1.007-0.387,1.331-3.101,3.171-3.368
			c1.303-0.189,0.814-4.1,2.404-4.871c1.609-0.781,2.345-2.356,2.53-3.871c3.385,0.03,6.676-0.928,8.552-4.239
			c2.002-3.533,7.093-5.324,8.683-8.872c1.445-3.223,5.061-2.199,6.365-3.685c2.214-2.524,1.553-5.524,5.482-7.182
			c1.872-0.79,3.485-2.942,6.084-3.783c4.611-1.494,6.66-7.489,10.968-9.569c5.016-2.422,11.203-7.061,13.485-11.358
			c0.179-0.337,1.647,0.125,2.029,0.055c0.646-0.119-0.161-2.149,0.405-2.398c1.92-0.846,10.294-9.505,13.054-11.216
			c2.499-1.549,4.693-1.02,6.659-3.964c7.217-10.803,16.536-8.929,25.012-22.717c0.332-0.54,2.743-0.11,3.664-0.328
			c0.73-0.174,0.392-1.161,1.306-2.332c3.204,0.586,4.106-1.814,5.858-3.356c7.181-6.322,1.307-3.4,6.015-4.794
			c0.648-0.192-0.081-1.759,0.346-2.126l6.913-5.943l1.547-2.956c0.687-1.312,3.669,0.379,4.752-0.618
			c8.455-7.781,2.755-0.249,6.461-9.27c4.04,0.539,5.252-1.956,7.297-3.683l4.256-3.595c4.611-3.895,10.306-6.557,13.965-11.583
			c4.559-6.262,5.814-2.535,8.477-3.704c-2.064,0.906,10.687-12.093,13.263-13.475c7.624-4.091-0.835,2.794,10.823-8.407
			l11.63-11.175l9.032,0.069l0.046-9.288c-6.697,1.773-11.563-1.036-16.948-3.452c-3.918-1.758-9.8,1.601-13.593-1.228
			c-1.585-1.183-2.226-3.899-5.63-3.055c-3.013,0.748-6.282-0.62-9.25-0.314C589.412,306.944,586.24,306.858,585,304z
			 M836.531,445.168c-0.01,1.406-0.066,2.197,0.535,2.464c2.196,0.974,5.552-0.422,6.314,1.319c1.002,2.288-0.053,5.292,1.275,5.877
			c3.874,1.71,2.065-1.662,6.268,3.401c2.304,2.775,9.927-2.469,12.022,4.347c1.003-0.063,2.072-0.582,2.447-0.198
			c0.485,0.498,0.385,1.515,0.977,2.753c3.648-5.649-1.29-9.277-5.58-13.828c-1.258-8.84-13.75-13.432-18.377-24.439
			c-0.87-2.07-1.793-2.832-3.511-4.138c-0.985-0.748-0.596-3.364-3.365-3.674c-1.026-1.137-0.129-3.862-0.712-5.608
			c-5.91-1.595-7.727-10.511-7.344-9.812c-1.963-3.576-5.985-5.583-8.597-8.403l-10.352-11.175
			c-5.839-6.303,0.398-8.042-5.723-7.288c0.383-2.887-2.645-3.534-3.652-4.821l-3.094-3.954c1.327,1.696-11.199-17.345-11.54-17.65
			c-2.098-1.869,1.109-6.808-1.002-9.039c-1.397-1.476-4.579-1.737-3.809-5.553c-2.069,0.865-3.206,1.308-4.83,0.981
			c-0.336-0.067-9.574-10.186-6.655-7.65c-5.598-4.863,2.858-2.554-7.542-10.416c-2.119-1.602-2.481-2.772-3.093-5.283
			c-1.291-5.298-7.194-7.799-9.935-11.968c1.55,2.357-3.92-9.129-5.016-8.955c-3.978,0.631-0.35-2.924-6.006-4.123l-0.268-2.868
			c-5.806-1.321-11.584-1.529-17.051,0.288c0.178,1.3,0.43,1.958,0.092,2.27c-0.342,0.317-1.813,1.168-2.334,0.912
			c-3.558-1.751-4.649,2.941-6.538,3.377c-2.854,0.659-5.324,1.515-7.972,3.117c-2.674,1.617-7.428,0.059-8.671,4.49
			c-10.608-0.561-6.093,2.276-9.739,3.795c-1.099,0.458-2.882-0.647-3.704-0.167c-0.953,0.557-0.594,2.656-1.534,3.012
			c-5.85,2.218-0.866-2.543-10.527,3.846c-1.871,1.238-4.061,0.22-3.602,3.138c0.289,1.835,0.763,2.977,2.987,4.071
			c2.048,1.007,3.045,5.394,5.498,5.922c5.167,1.112,7.412,4.042,10.986,7.399c1.973,1.853,6.762,3.335,8.113,6.679
			c0.394,0.976,3.864,0.104,4.614,0.73c0.75,0.625,0.74,3.134,1.924,3.409c2.372,0.551,2.376,2.782,3.279,3.794
			c9.343,0.042,10.178,9.148,15.925,11.145c2.418,0.84,4.84,0.571,5.461,3.754c1.289-0.005,2.01-0.129,2.482,0.235
			c0.538,0.415,0.62,2.635,1.254,2.975c7.255,3.888,4.551,7.963,13.525,8.514c0.072,4.08,4.232,2.904,5.766,4.205l8.682,7.36
			c1.842,1.561,4.559,2.763,6.269,3.745c11.693,6.717-1.105,1.203,12.967,10.604c0.439,0.246-0.533,2.294,0.321,2.435
			c0.521,0.086,1.797-0.421,2.356,0.193c1.012,1.112,0.718,3.297,1.737,3.858c1.126,0.62,2.664-0.009,3.772,0.68l9.258,5.76
			c1.071,0.666,3.034-0.536,4.029,0.411c2.333,2.22-1.737,2.927,7.004,4.598c1.545,3.489,5.035,4.854,7.078,7.423
			c1.659,2.086,2.134,4.737,6.011,3.416c5.037,10.323,6.722,4.461,8.129,6.813C826.993,438.311,832.116,442.196,836.531,445.168z
			 M182,514c3.655-1.355,3.145-6.172,1-9c0.076-0.319-0.046-0.675,0-1c1.324-0.022,2.801-0.593,3.1-2
			c0.061-0.288,0.014-0.714,0.018-1l2.172-7.491c0.78-2.691,1.243-2.939,0.71-4.509c-1.097-3.232,1.605-6.211,3.44-8.582
			c2.534-3.274-3.026-9.244,4.705-11.468c-3.597-5.226,0.471-8.525,2.163-12.414c1.487-3.417,2.293-6.813,4.118-10.071
			c1.269-2.266,0.751-5.663,3.129-7.945c1.535-1.473-0.231-7.188,1.445-8.52c1.233-0.195,3.133-0.502,3.652-2.217
			c0.562-1.858,3.075-11.691-0.652-9.783c0.357-2.261,3.058-3.354,3.498-5.498l1.547-7.533c3.946-0.59,0.715-3.86,2.361-6.951
			c0.399-0.75,2.404-0.649,3.145-1.627c1.429-1.887-0.589-4.839,1.169-6.671c0.565-0.589,1.863-0.675,2.504-0.864
			c1.24-0.366-0.451-1.792-0.26-2.875c2.001-11.394-0.382-13.81,3.952-13.499c0.626-11.609-1.72-8.501,3.519-13.244
			c1.798-1.628-0.131-6.882,2.057-8.255c2.688-1.686,2.233-3.768,2.983-6.991c0.388-1.668,3.887-3.295,2.677-5.839
			c-2.056-4.321,1.938-5.324,3.196-7.583c2.052-3.685-0.753-9.319,2.747-12.274c3.396-2.868,1.467-7.707,0.423-11.304
			c-0.918,1.358-0.389,2.178-0.781,3.165c-0.305,0.768-1.461,0.696-2.369,1.259c-9.288,5.753-13.269,17.752-21.056,24.836
			l-7.296,6.638l-2.772,6.23c-1.129,2.538-2.696,3.926-4.019,6.349c-2.746,5.029-16.835,17.249-18.077,21.021
			c-2.184,6.634-9.011,10.133-13.099,15.505c-2.229,2.929-4.431,7.184-7.888,7.902c-0.791,0.975-0.1,3.981-0.74,5.11
			c-0.586,1.032-2.661,0.538-3.887,1.563c-5.865,4.903-7.005,11.272-9.349,9.989c-7.993,11.056-5.889,3.82-12.706,16.373
			c-0.82,1.51-2.453,4.498-3.897,5.085c-1.818,0.738-7.344,7.312-6.553,6.606c-0.469,0.419-15.624,14.488-10.995,10.889
			c-3.123,2.428-6.235,7.481-8.192,11.444c-1.885,3.817-6.938,5.332-8.4,9.324c-0.356,0.971-5.555,11.492-7.564,10.147
			c1.867,1.168,2.366,3.956,4.193,4.588l5.022,1.736c-19.454-6.723,25.283,10.736,9.433,5.294c2.705,0.929,5.023,2.268,7.871,3.624
			c2.851,1.358,8.374-0.826,10.705,2.125c2.616,3.31,4.851,2.701,8.713,3.777c0.36,0.1,15.301,8.096,13.473,5.955
			c1.992,2.333,3.187,4.135,6.719,5.06c-0.364-0.095,13.675,7.326,15.896-0.68c0.212-0.765,1.938-0.866,2.346-1.232
			C181.971,516.023,182.174,515.003,182,514z M252.99,325c0.888,14.525-2.729,8.815-3.672,12.321
			c-1.346,5.009,0.92,10.461-0.871,15.25c-6.325,4.528,1.843,10.618-5.884,13.056c-1.31,2.364,0.151,5.604-1.455,7.825
			c-2.017,1.572-3.874,4.351-3.017,7.449c1.14,4.118-2.138,5.065-3.253,7.416c-1.28,2.698,2.249,9.152-0.976,11.472
			c-2.657,1.911-2.418,4.332-3.872,6.623c-1.757,2.771-2.943,4.752-3.701,8.354c-0.367,1.742-3.855,2.799-2.517,6.409
			c1.13,3.049-0.52,5.973-3.632,6.826c-0.746,3.06,1.416,6.827-0.605,8.688l-3.564,3.282c-3.53,3.251-0.381,10.011-0.971,15.029
			c-2.355,2.027-1.363,6.049-2.825,8.355c-1.854,2.924-3.392,4.835-3.36,8.767c0.136,16.501-0.97,10.191-2.369,13.28
			c-1.046,2.311-1.491,3.81-3.903,5.232c-1.512,0.892,0.024,4.816-1.227,5.953c-7.258,6.594-0.098,12.316-6.299,11.798
			l-0.034,19.444c1.725,0.402,2.866,0.169,4.017,0.17v1c-9.182,1.369,33.609,1.632,29,0h1c-5.195-0.387,13.971,3.246,10,2
			c1.631-0.537,3.886,1.092,6.026,1.084l50.955-0.192c9.105-0.034-4.403,3.959,19.843,2.875c1.011-0.045,2.033-1.725,2.743-2.025
			c1.273-0.539,2.206,1.917,3.176,1.93l34.171,0.471c1.307-2.146,4.887-2.949,4.905-5.107l0.09-10.638
			c-4.668-0.194-2.985-4.579-4.477-6.956c-1.349-2.148-4.944-2.667-3.323-6.639c0.78-1.911-1.85-2.985-2.622-4.137
			c-1.527-2.281,0.204-5.947-1.34-7.921c-1.769-2.262-2.261-4.993-3.655-7.354c-1.494-2.531-4.607-3.958-2.541-7.974
			c-1.741,0.088-2.091,0.148-2.557,0.143c-0.926-0.009-1.775-1.635-1.49-2.353c1.641-4.135-2.218-4.589-3.331-6.735
			c-1.278-2.463-0.044-6.051-3.422-7.75c-0.95-1.615,0.83-5.835-0.496-7.184c-2.536-2.436-3.447-4.052-4.091-7.499
			c-0.726-3.886-5.35-6.992-6.301-10.936c-0.632-2.619-0.297-4.855-2.616-6.32c-2.396-1.512-0.462-6.683-2.138-8.103
			c-2.814-2.383-2.829-4.387-4.162-7.484l-3.023-7.021c-2.182-5.069-4.638-8.156-8.094-15.855l-3.135-6.985
			c-0.725-1.615-4.717-2.79-3.191-6.35c2.917-6.806-6.975-3.937-2.933-11.967c-1.224-0.856-2.243-0.232-3.315-0.636
			c-1.074-1.848-0.757-4.352-1.113-6.229c-3.238-1.205-2.86-4.348-4.053-7.071c-0.962-2.196-5.052-3.412-3.393-7.101
			c0.275-0.612-0.176-2.055-0.459-2.475c-0.329-0.488-1.577,0.023-2.471-0.599c0.352-10.119-6.186-2.701-3.671-15.371
			c-5.917-3.322-2.278-5.637-3.818-7.035c-2.692-2.442-4.973-4.205-4.647-8.41c-3.171-0.352-5.546-0.117-8.03-0.094
			c-0.473,0.004-1.07-0.247-2.099,0.314C256.765,315.983,256.468,321.591,252.99,325z M423.953,508.961
			c-6.925,2.362-12.115,7.094-17.171,12.836c-1.123,1.276-2.883,2.101-2.889,3.796c-0.005,1.333,1.305,3.952,3.349,4.186
			c0.325,0.037,20.076,1.037,17.759-0.778h4c1.494,0.462,1.626,1.851,3.135,2.792l20.761,0.51c5.455,0.134,19.998-1.619,18.688,2.53
			c3.484,0.408,7.429,0.14,11.022,0.13c0.116-1.071-0.196-1.645,0.082-1.976c0.344-0.409,1.415-0.944,2.336-0.945l71.738-0.041
			c0.896,0,2.161-0.507,2.376-1.079l0.928-2.462c6.047,10.545,15.858-5.814,18.335,3.013c4.48,0.171,5.186-4.202,9.648-1.863
			c1.189,0.623,1.094,2.635,0.901,4.626c-0.306,2.213,1.626,2.129,1.534-0.233c7.902-4.888,6.757-5.825,16.23-4.737
			c-0.245,1.357-0.225,1.878,0.273,2.323c0.769,0.688,1.314-0.244,1.541-0.643c0.253-0.446,0.33-1.203,0.473-1.946h3
			c1.245,1.681,4.755,1.681,6,0h1c2.649,1.73,7.351,1.73,10,0h1c-4.731,1.634,37.305,1.359,28,0v-1
			c2.356-0.407,3.336-3.042,5.641-4.075c-0.766-5.165-1.212-10.641-0.287-15.814c0.633-3.54-2.206-4.461-2.616-6.601
			c-1.743-9.093,1.857-19.21-0.712-27.51l-1.623-5.245l-0.571-47.577c-0.005-0.447-1.376,0.445-0.833,0.822h-1l0.042-1.995
			c-2.961-4.385,3.633-3.604-1.84-10.005l-0.701-33.075C652.338,387.617,653.02,398.298,653,409
			c-0.389,0.117-0.978-0.359-0.979-1.059l-0.05-37.964c-1.778,0.178-0.244,1.883-1.596,3.072c-0.273-2.477-2.278-6.612-0.496-7.973
			l2.091-1.597c0.751-0.573-1.353-1.327-1.97-1.481v-27c-7.435-2.138,14.963,2.849,2.067-1.313c-2.258-0.729-2.665-3.046-4.02-4.752
			c-1.05-1.322-3.604-0.972-2.748-4.053l-4.812,1.528c-1.598,4.045-4.378,5.644-7.999,7.408c2.941-1.433-10.513,10.304-8.422,9.104
			c-6.266,3.597-7.355,10.088-17.155,14.633c-2.416,1.12-2.971,1.596-4.802,3.352c-9.123,8.75-17.39,17.969-27.148,25.948
			c-2.935,2.4-6.507,3.725-9.333,6.826c-3.765,4.13-8.613,7.313-12.074,12.106c-0.826,1.144-3.361-0.741-4.357-0.501
			c-5.314,8.303-13.243,14.212-21.8,19.358c-1.151,0.692-0.115,3.923-1.224,5.007c-0.997,0.974-2.74,1.291-4.34,2.287l-5.524,3.438
			c-2.8,1.743-4.538,5.574-8.307,6.386c-0.779,0.168-2.129,0.273-2.897,0.601c-0.653,0.279-0.665,1.208-0.502,2.663
			c-5.082,2.086-8.098,6.844-11.801,10.63c-13.654,13.96-8.827,4.247-15.174,11.07c-15.523,16.685-7.993,2.513-14.904,11.251
			c-9.1,11.505-18.133,13.621-19.941,16.471c-2.379,3.751-6.669,5.908-9.879,9.281c-0.751,0.789-3.931-0.582-4.387,0.72
			C427.635,506.963,426.142,508.214,423.953,508.961z M670.9,441l0.1,30c-0.914,7.099,3.734,14.768,3.788,22.135l0.218,29.912
			c0.008,1.153,1.464,1.12,1.993,1.047c0.323-0.044,0.674,0.031,1,0.013c-0.086,3.292,26.129,1.813,28.503,1.178
			c4.109-1.099,6.928-2.606,11.624-2.626c6.53-0.027,13.049-1.326,19.94-0.585c1.778,0.191,4.131,0.265,4.933-0.932
			c0.33,0.002,0.67-0.015,1-0.031c1.071-0.053,2.721,0.241,3-1.11c0.065-0.312,0-0.68,0-1l15.053,0.02
			c1.032,0.001,2.025-0.242,1.947-1.02h3c0.592,0.652,1.047,0.997,2,1l22.993,0.07c4.642,0.014,9.028-1.045,12.007-4.07
			c9.827-0.343,19.644,0.677,30.076-0.501c-10.364-1.167-20.708-0.166-31.076-0.499c-0.117-0.54,0.313-0.79,1.156-0.851
			c11.746-0.854,24.216,0.912,35.086-0.807c1.629-0.258,4.022-3.007,6.954-0.958c2.106-0.819,1.931,0.173-0.116,1.401l21.111,0.213
			c0.906-0.12,0.354-1.627,0.809-1.998c9.359-0.678,19.03,1.334,28.052-0.955c1.451-0.368,1.037-3.291,0.971-4.487
			c-0.067-1.214-2.075-1.437-3.1-2.504l-8.868-9.23l-4.354-3.593c-1.537-1.268-5.755,1.104-6.788-1.006
			c-1.123-2.292-3.893-2.582-4.952-3.948c-2.418-3.117-4.761-5.127-8.045-7.366c-1.447-0.987-1.467-4.061-4.922-3.135
			c-0.624,0.168-2.323-0.641-2.411-1.192l-0.295-1.839c-3.87-1.109-5.748-4.189-8.165-6.781l-4.371-4.688
			c-1.404-1.507-4.905,0.23-5.024-3.164c-0.052-1.474-0.781-3.227-1.556-3.943c-0.917-0.848-4.013,0.4-4.749-0.382l-4.348-4.618
			c-1.998-2.122-4.166-1.55-5.82-2.677c-5.995-4.087-9.968-10.751-16.898-13.926c-0.971-0.445-2.869-0.519-3.673-1.346
			c-0.568-0.585,0.194-1.599-0.615-3.227c-1.681,0.624-2.912,1.13-4.221,0.966c-0.075-0.009-7.064-6.667-8.559-6.741
			c-3.51-0.172-4.42-2.851-6.474-3.565c-5.749-2.001-9.813-7.161-10.759-7.799c-5.54-3.732-0.894,2.523-11.157-10.438
			c-2.817,0.128-4.643-2.635-6.537-3.472c-3.64-1.607-6.807-3.474-6.97-7.46c-1.51-0.802-3.417-1.878-4.092-3.996
			c-0.394-1.239-3.22-0.138-4.167-0.787c-2.872-1.969-5.018-5.006-8.078-6.682c-1.688-0.924-3.814-0.571-4.648-2.029
			c-0.696-1.215,0.275-3.589-0.848-4.568l-4.83-4.208c-0.95-0.828-3.58,0.176-4.681-0.545c-0.842-0.55-0.545-2.977-2.058-3.482
			c-2.089-0.697-4.655-0.469-5.651-2.67c-0.564-1.246-0.522-3.078-1.191-5.403c-9.655,2.869-3.277-2.713-11.639-3.945
			c-8.16-5.703-4.622-8.494-11.548-10.727c-2.696-0.869-4.503-4.892-7.251-6.184c-3.317-1.561-7.137,0.8-10.335-2.012
			c-0.745,0.8-0.834,2.111-1.744,3.463c-2.256,1.116-2.819,2.781-2.847,4.783c-0.063,4.437,4.255,0.005,3.156,12.006
			c0.558,1.764,3.424,2.56,3.816,4.544l0.258,33.66c0.027,3.559,2.638,5.893,3.245,8.674c2.149,9.842-0.435,19.912,1.136,29.399
			c2.699-0.037,3.5,1.365,0.194,1.292C668.538,432.549,667.979,438.108,670.9,441z M184.779,367.752
			c-1.01-2.99,3.449-3.207,3.842-4.671c0.786-2.932,0.467-4.534,2.902-6.873l5.5-5.285c2.512-2.414,4.469-6.303,2.015-8.862
			c-0.158,3.265-3,3.768-3.44,5.139c-0.962,2.998-5.75,6.709-8.04,8.188c-1.608,1.038,0.146,5.781-3.55,5.1
			C184.298,363.002,183.027,364.901,184.779,367.752z M204,630c0.876,0.099,0.961-0.666,0.202-1l0.087-1
			c0.285-3.287-1.374-6.384-3.325-9c-0.236-0.317-0.893-0.598-0.963-1c0.756,0.125,1.96,0.04,1.968-0.552
			c0.02-1.382,0.452-2.943-0.572-3.495c-0.59,1.226-0.685,1.823-1.396,2.047c1.55-6.296-3.19-2.62-3.621-12.524
			c-6.864-7.427-0.129-11.598-5.566-17.3c-2.601-2.728-2.07-8.335-1.025-11.821l-2.694-0.874c-1.609-0.522-1.513-8.246-1.831-9.982
			c-6.338-2.481-1.36-11.027-3.912-14.627c-1.298-1.832-4.256-2.576-3.428-5.947c0.785-3.193-0.14-5.922-2.923-8.094
			c-13.491-10.526-6.537-0.497-15.647-8.471c-1.794-1.57-6.402,0.83-8.088-1.499c-2.949-4.074-2.911-1.286-7.369-2.234
			c-1.327-0.282-1.437-2.018-2.416-3.113c-1.12-1.253-3.857,0.006-5.031-1.124c-8.619-8.295-6.866,1.342-9.775-7.047
			c-1.48,0.228-3.03,0.864-4.814,0.415c-1.277-0.321-1.43-3.012-2.86-3.518c-3.012-1.068-7.098,0.723-9.386-1.688
			c-0.498-0.525-0.059-1.903-0.582-2.249c-1.108-0.73-1.849,0.253-3.757,1.004c3.345,2.149,0.774,6.704,1.87,10.938
			c-0.605-2.339,10.257,10.151,10.774,10.838c0.584,0.776-0.204,3.14,0.246,4.021c0.372,0.728,2.788,0.877,2.961,1.694
			c0.505,2.393,1.857,3.343,2.794,4.831c1.464,2.327,1.261,5.693,4.672,6.571c0.235,2.043-0.183,3.858,0.943,5.362
			c0.568,0.759,2.088,0.631,2.815,1.327c0.428,0.41-0.015,1.491,0.331,2.468c3.277,0.752,3.369,4.039,3.986,6.379
			c5.059,5.486,7.342,4.804,7.562,10.519c0.113,2.933,5.982,5.162,6.274,7.701c0.408,3.551,1.317,4.629,3.171,7.162
			c1.461,1.996,2.182,5.053,4.241,6.856c0.714,0.625-0.395,3.331,0.152,4.263c0.416,0.709,2.102,0.812,3.089,1.484
			c0.533,4.158,5.884,6.493,7.016,9.488c1.27,3.359,1.157,6.968,4.051,9.411c3.357,2.834,3.48,11.923,7.446,10.954
			c0.743,1.69-0.281,4.635,0.747,5.836c2.296,0.634,2.661,2.795,3.591,3.496c5.084,3.836,1.984,3.228,7.723,11.33
			c1.606,2.267,3.66,3.636,2.665,6.765c7.14,3.255,9.123,12.388,11.514,18.202c0.979,2.38,4.573,4.234,3.446,7.487
			c1.99,0.365,3.245,1.24,3.94,3.374c0.665,2.043,5.258,1.178,5.419-0.531c0.19-2.018-2.727-1.909-3.083-2.986
			c-1.961-5.949,0.849-12.63-1.519-18.311c-7.332-6.305,1.278-10.226-6.517-13.771C206.178,632.878,205.072,651.366,204,630z
			 M665,504h-1v17.5h1V504z M875,521h-22c-1.16,0.4-2.289,0.972-3,2c-0.292,0-0.742,0.023-1-0.108
			c-2.507-1.269-4.768,0.96-7.378,1.497C831.569,526.456,821.38,523.254,812,526c-0.684,0.2-1.597-0.29-2.221,0.338
			c-0.612,0.615-0.38,1.414-1.328,2.804c-0.722-2.999-2.41-3.051-4.884-3.478c-2.948-0.508-4.108,2.036-5.763,3.856l-46.305,0.624
			c-0.534,0.702-0.935,2.295-1.418,2.558c-2.339,1.276-3.757-3.001-6.499-2.829c-1.257,0.079-1.893,2.176-3.581,2.838
			c-1.496-1.135-19.503-1.247-22.051,0.237l-5.418,3.157c-2.213,1.289-26.33,1.091-31.87,0.903
			c-0.043,2.363-3.735,4.498-3.888,6.634l-1.441,20.068l-3.405,4.215c-3.278,4.059-0.462,10.668-0.927,16.073
			c-4.469,2.404-0.302,13.916-2.618,20.94c-1.011,3.064-4.181,4.757-3.632,9.218c1.703,13.851-1.356,11.135-3.818,15.774
			C659.237,633.124,660,636.51,660,640c-1.871,1.755-1.975,4.551-2,7c-0.004,0.338-0.044,0.682-0.073,1.018
			c-0.12,1.36,0.341,3.208,1.166,4.376c2.748,3.886-0.22,6.011-1.541,8.983c-1.559,3.509-0.225,7.994-3.374,10.439
			c-1.002,5.646,0.818,11.608-0.716,17.452c-0.182,0.692-2.827,0.937-2.963,1.635c-0.132,0.674-0.158,2.275,0.24,2.919
			c2.703,4.381-2.592,6.158-3.099,8.355c-1.729,7.482-0.158,15.714-0.573,23.357c13.813,0.744,6.341-4.381,11.669-4.175
			c3.758-3.004,5.974-7.749,10.301-10.333c1.093-0.653,8.603-8.35,10.541-10.255c3.799-3.736,7.422-10.422,11.995-11.04
			c4.534-0.613,14.486-13.477,21.727-18.652c2.981-2.13,6.092-4.445,9.578-7.498l4.684-4.103c2.578-2.258,4.953-3.418,8.331-3.821
			c1.005-0.151,0.037-2.09,0.573-2.392c0.72-0.405,2.654-0.159,3.492-0.236c4.099-0.374,5.627-4.524,8.073-7.004
			c11.751-11.913,9.564-6.591,11.737-8.346c6.359-5.136,11.936-11.311,17.621-17.495c2.57-2.797,6.12-4.345,7.875-8.054l5.554-0.264
			c0.01-5.231,11.08-8.207,9.732-7.243c3.106-2.22,6.014-6.276,9.271-7.966c-0.377-1.639-1.463-3.651-0.426-4.722
			c0.694-0.716,2.063-1.05,3.373-0.974c6.591,0.381,1.204-6.529,10.559-4.834c0.503-1.173,0.092-2.289,0.75-2.672
			c0.66-0.384,3.122-0.529,3.255-1.193c2.894-14.339,14.525-11.7,19.575-20.588l5.363-2.274l7.777-6.591
			c1.203-1.019,0.742-2.742,3.627-3.532c1.023-0.28,1.024-3.202,2.056-3.256c1.441-0.076,2.548-0.411,4.371,0.872
			c2.941-4.681,7.671-8.031,11.481-12.306c2.098-2.354,4.465-2.221,7.008-3.143c2.803-1.017,3.595-5.247,5.73-6.866
			c0.976-0.74,2.164-0.743,2.451-1.312c0.485-0.964,0.243-2.003,0.23-3.993c-5.392-0.855-11.047,0.151-17.053-0.397
			C877.611,518.659,875.899,519.316,875,521z M324,536v1h30.5v-1H324z M357,545c-0.433-2.659-5.426-1.912-7.944-1.936l-49.634-0.467
			c-5.271-0.05-10.535,1.571-15.421-0.597v-1c0-0.366,0.25-1.615-0.272-1.726c-1.237-0.263-13.292-1.35-12.728,1.627l-1,0.01
			c-1.477,1.187-3.295,0.189-5,0c-0.319-0.035-0.678-0.018-1-0.008c-1.387-1.489-4.753-1.608-6,0.097
			c-3.759-0.156-36.05,0.028-37.303-0.428c-2.184-0.794-2.395-4.396-5.204-3.884c-2.223,0.405-3.517,1.503-5.031,5.045
			c-4.338-4.793-9.674-6.453-15.385-3.415l-0.018,12.068c3.963-0.106,2.898,5.98,2.92,9.87c0.007,1.268,3.192,1.234,3.336,2.533
			l1.396,12.536c0.231,2.075,4.753,3.243,3.176,6.713c-1.287,2.831,2.061,3.696,2.582,5.189c1.512,4.332-0.028,9.159,0.504,13.653
			c0.271,2.293,2.708,2.898,3.54,4.533c2.202,4.325-1.465,11.11,1.049,14.868c2.818,4.212,1.858,7.824,2.827,12.279
			c0.5,2.299,4.312,4.319,4.377,8.196c0.027,1.643,4.067,2.097,3.396,4.847c-0.715,2.929-0.517,4.411-4.988,4.953l4.861,2.212
			c-1.696,14.612,5.142,10.275,2.906,17.213c-2.187,6.788,6.028,1.189,3.865,14.829c-0.669,4.221,2.009,5.166,3.541,7.622
			c2.446,3.92-0.773,9.907,0.559,13.346c1.396,3.604,5.327,5.671,8.391,4.613c1.371-2.415,0.55-5.118,2.407-6.664
			c5.514-4.594,9.358-10.63,15.17-14.836c1.306-0.945,7.808-13.18,8.531-15.754c4.04-6.501,16.164-13.258,15.333-20.246
			c2.289-0.309,3.548-1.797,4.112-4.305c0.125-0.554,2.037,0.232,2.424-0.117c0.552-0.497-0.332-1.903,0.01-2.654
			c0.502-1.105,2.063-1.135,2.799-1.363c1.505-0.467,0.264-3.692,0.969-4.382c3.033-2.973,5.634-5.502,8.028-9.122
			c1.286-1.946,5.878-3.123,6.25-5.561c1.254-8.232,13.398-15.081,18.333-22.598c1.262-1.923,0.271-3.827,2.815-5.665
			c2.549-1.841,4.92-5.994,6.706-8.849c3.431-5.482,7.719-9.328,12.255-13.914c1.746-1.766,0.242-6.331,3.897-8.202
			c3.908-2.001,6.247-6.193,9.685-9.456c1.693-1.606,1.656-7.129,0.222-8.592C360.084,547.322,356.843,548.371,357,545z M587,541
			l-13.393,0.176c-0.327,4.128-7.79,2.584-15.757,2.613l-98.603,0.358c-3.138,0.011-5.202,1.335-8.531-0.069
			c-0.714-0.301-8.8,0.64-9.753,1.08c-0.539,0.249,0.126,1.367-0.961,2.289c-1.436-1.43-2.158-3.402-4.275-3.405l-36.208-0.058
			c-0.856,1.535-0.82,3.94-3.044,3.887c-2.244-0.005-2.206,2.852,0.701,1.948c1.899,3.678,5.247,6.024,7.885,8.839l3.456,3.686
			c2.423,2.585,3.737,2.07,6.522,3.217c11.387,4.691,16.194,13.576,22.081,17.215c1.521,0.94,4.45-0.206,5.502,1.661
			c0.87,1.542,0.061,3.187,0.49,5.634c3.886-1.337,5.7,2.572,8.185,3.365c2.775,0.885,5.31,1.237,6.731,3.372
			c0.735,1.104,3.409,1.311,3.557,3.631c0.105,0.608,2.312,0.45,2.728,0.881c0.582,0.603,0.863,1.984,0.941,3.637
			c2.265-1.502,4.033-0.654,5.798,1.093c0.735,0.728,16.811,12.361,17.989,14.406c4.616,8.012,3.653-2.424,16.64,13.742
			c0.962,1.198,3.026,0.305,4.092,1.064c5.391,3.837,9.658,9.241,15.245,12.508c2.047,1.197,3.61,0.65,5.339,2.963
			c2.218,2.967,5.255,6.137,8.143,8.407l3.639,2.86c1.934,1.52,5.808,1.696,7.196,4.579c1.722,3.575,6.143,2.476,8.052,4.095
			c3.943,3.345,6.665,9.116,12.571,10.427c1.009,0.224,2.263-0.405,3.084,0.33c0.633,0.567,0.77,2.043,1.431,3.115
			c1.824,2.956,6.788,2.91,8.645,5.309c4.433,5.725,18.021,16.366,23.434,21.567l11.231,10.79c0.718,0.69,0.025,3.23,2.133,3.01
			c2.871-0.299,4.758,1.49,6.124,3.986c2.817-0.252,5.177-0.915,7.909-1.549c0.419-5.367-0.688-11.093,1.42-16.126
			c0.502-1.199,3.262-1.305,2.786-3.081c-0.376-1.403-0.966-1.983-3.404-2.99c3.798-0.816,2.564-4.16,3.379-6.459
			c1.817-5.126,0.48-10.613,0.871-16c0.78-0.847,2.903-1.532,2.919-3.136l0.123-11.903c0.017-1.651,1.854-2.062,2.897-2.436
			c-1.294-0.717-1.689-1.402-1.984-2.135c-0.47-1.169,0.83-1.852,1.482-3.001c2.287-4.023-2.541-11.521,4.611-12.832
			c-0.954-0.925-1.696-0.552-2.228-0.848c-1.194-0.665-1.174-5.005-1.28-6.957c2.228-1.48,2.757-2.928,3.459-4.751
			c2.303-5.986,0.375-12.655,1-19c0.702-0.748,1.283-0.266,1.745-0.403c1.078-0.318,1.408-12.133,1.255-13.597
			c2.227,0.329,2.144-2.417,3.094-3.963c0.13-0.212,0.044-0.651,0.037-0.906c0.55,0.389,1.838-0.038,1.84-1.166L658,583
			c4.289,0.649,0.628-20.861,2.451-25.444c0.804-1.881,0.596-3.458,2.227-0.671l0.562-13.736c0.035-0.865,0.716-1.726,0.216-2.318
			c-0.308-0.365-1.09-1.174-1.56-0.843c-1.987-0.685-5.891,1.106-7.653-0.144c-3.082-2.187-3.833-0.196-6.603-0.176l-59.536,0.42
			C587.339,540.091,586.883,540.539,587,541z M675,743c-1.112,1.486-3.086,0.324-5.068,1.599c3.369,0.694,6.768,0.636,10.122,0.031
			c-1.588-1.291-3.392-0.233-4.054-1.629c1.591,0.298,3.437-0.405,5,0c0.254,2.149,3.011,5.583,5,4.118
			c0.464-0.173,1.492-0.118,2-0.118c-0.073,0.776,0.916,1.024,1.948,1.023L707,748c0.416,2.43,8.224-0.432,14,2.094
			c0.274,0.12,0.697-0.008,1,0.013c1.12,1.307,2.681,2.34,5.073,1.701c-0.412-1.028-1.388-0.72-2.073-0.809
			c3.973-2.187,9.036-0.606,13.865-0.916c1.365,0.265,2.022,2.111,3.429,2.878c5.556-5.209,4.389,2.649,12.013-7.369
			c0.826-6.122,10.922-17.927,10.877-17.852c1.128-1.892,0.307-4.239,2.553-6.206c6.948-6.084,4.172-4.186,7.338-9.337
			c2.491-4.052,5.738-7.245,8.941-11.166c-3.439,4.209,9.458-15.346,6.742-10.191l3.503-6.651c0.823-1.562,2.39-3.247,4.201-3.498
			c-2.497-0.853,9.696-16.799,10.505-14.131c0.192-2.618-0.237-4.382,0.305-7.079c4.451,0.957,2.897-3.657,4.257-4.981
			c6.482-6.311,10.753-12.506,18.212-18.361c-2.17-8.184,3.834-4.195,7.207-12.14c0.442-1.041,3.451-1.103,3.17-2.594
			c-1.267-6.72,1.404-1.313,4.978-10.524c1.61-4.15,6.932-6.879,8.934-10.961c1.89-3.853,3.407-8.783,7.855-11.193
			c1.103-0.597,1.808-3.106,4.05-2.629c-1.258-5.398,2.961-7.918,5.957-11.122c2.878-3.078,5.099-6.963,7.721-10.241
			c1.232-1.541,0.763-4.454,4.281-4.003c-0.664-9.259,4.13-5.409,3.727-8.726c-0.169-1.392,1.477-3.47-0.647-3.924
			c-1.549-0.331-2.967-0.299-4.239,0.096c-0.86,0.267-0.681,2.055-1.573,3.047c-0.605,0.673-1.909-0.007-2.283,0.453
			c-5.969,7.353,2.836-1.046-4.174,4.192c-0.48,0.359,0.082,1.59-0.401,2.252c-10.544,1.201-6.717,5.219-8.961,4.87l-4.127-0.642
			c-2.269,1.684-0.651,5.056-2.311,7.331c-6.791-1.47-11.513,8.504-19.056,13.971l-4.431,3.211c-2.02,1.464-3.886,1.051-5.233,3.614
			c-1.131,2.152-4.709,3.444-6.167,5.651c-0.983,1.489-0.876,2.622-3.581,3.596c-0.768,0.276-0.882,2.383-1.435,2.954
			c-0.808,0.833-3.323-0.398-4.105,0.189c-7.079,5.319-13.154,11.402-19.198,17.816c-0.833,0.884-3.831-0.442-4.431,0.913
			c-1.992,4.495-4.709,2.309-12.41,13.861c3.404-5.107-11.303,10.803-14.4,10.919l-2.598,0.097
			c-0.469,0.018,0.076,1.951-0.343,2.571c-3.474,0.414-6.19,5.572-9.115,7.037c-2.968,1.487-5.25,1.713-7.589,4.855
			c-7.933,10.655-8.901,5.602-11.917,7.433c-1.674,1.017,0.1,3.378-2.311,6.627c-0.775,1.044-2.959-0.108-3.853,0.523
			c-8.989,6.351-8.919,14.119-16.02,10.543c2.13,2.548-12.117,12.417-13.441,13.126c-7.586,4.064-14.4,14.84-22.409,19.175
			c-3.958,2.142-0.783-2.258-9.872,7.713c-3.243,0.142-14.16,8.506-13.176,11.687c-1.702,0.494-2.879-0.336-3.947,0.981l5.15,3.909
			C659.871,746.339,668.551,742.656,675,743z M267.869,736.131C268.031,740.166,277.406,737,281,737
			c0.623,1.501,3.112,0.62,4.236,1.659c5.576,5.155,9.05,0.294,17.764,3.341l0.908,2c0.272,0.599,0.924,1.05,2.017,1.051
			l11.148,0.009c0.859,0.001,1.588-0.148,1.883-0.609c0.229-0.358,0.056-1.031,0.044-1.451c2.147-0.142,2.267,1.431,3.939,3.072
			c2.927,2.874,8.508,1.002,12.021,2.395c0.959,0.381,1.769,1.958,2.996,2.577c3.788,1.91,7.934,0.955,12.045,0.955
			c0.843,1.393,2.473,1.826,4,2.094c0.301,0.053,0.733-0.122,1,0.016c1.315,2.801,5.612,2.449,8,1.176c0.302,0.051,0.7,0.058,1,0
			c1.857,1.548,3.738,2.263,5.795,2.793c3.537,0.911,6.808,1.317,11.285,0.832c-0.371,1.324-1.51,1.058-2.033,1.631
			c6.352,3.726,15.814-1.56,15.724,5.521c-0.015,1.173,0.349,2.07,1.01,2.682c0.553,0.512,1.491,0.087,2.219,0.255
			c7.292,1.678,15.724,1.706,23,0c0.655-0.154,4.263-3.675,5.241-6.449c0.711-2.018-2.504-2.461-2.771-3.804
			c-0.691-3.482-0.969-5.575-2.979-8.052c-3.376-4.162,0.121-10.807-2.074-15.085c-1.116-2.176-3.574-3.144-2.327-6.731
			c1.095-3.15-0.914-6.08-3.9-6.995c-1.013-3.111,0.928-6.708-0.694-9.237c-7.318-11.409,0.255-7.362-6.948-13.174
			c-1.412-8.016-0.092-16.575-0.549-24.473l1.04-1.439c0.504-0.697-0.503-2.373-1.04-0.561c-5.84,0.365-0.273-7.941-6-12v-3
			c1.75,1.693,0.898-13.08,0.758-13.903c-0.335-1.972-3.406-2.699-4.758-3.097l-0.004-9.808c-0.001-3.689-2.267-5.751-3.46-8.584
			c-2.476-5.878,2.905-12.151-4.222-18.278c1.661-5.709,0.579-12.2-2.06-17.275c-0.516-0.993,2.859-1.223,1.169-1.915
			c-6.029-2.469,1.779-4.969-6.398-10.12c-0.081-2.955,0.182-5.124-0.174-7.876c-2.428-0.47-4.307-1.352-3.863-4.754l-6.013,0.498
			c0.172,1.313,2.016,3.864,0.815,4.712c-8.872,6.264-14.537,17.726-15.5,18.774c-8.548,9.303,3.41,0.228-11.632,15.48
			c-4.69,4.755-1.793,6.339-6.795,11.12c-2.221,2.122-5.61,3.568-6.946,6.836c-1.437,3.515-9.488,15.013-14.742,16.523
			c0.698,2.235,1.513,4.733-0.606,6.229c-10.055,7.099-1.79,2.347-10.747,10.149c-1.881,1.639-2.745,2.747-3.572,5.143
			c-3.655,10.588-6.599,5.291-11.066,13.906c-5.264,10.15-22.804,24.278-27.818,31.567c-1.221,1.775-1.107,3.406-2.826,4.97
			c3.289-2.993-9.98,12.353-12.437,11.757l1.269,7.339c2.833,1.231,4.952,2.173,6.744,4.809c1.783,2.621,7.272-0.395,9.687,1.113
			C264.585,734.429,265.389,737.217,267.869,736.131z M464.066,766.144L466,766c-0.073,0.761,0.914,1.034,1.951,1.03l16.024-0.055
			c1.832-0.006,3.415-0.77,4.125-1.975l0.018-1c0.328-0.302,0.622-0.638,0.882-1c9.081,0,18.155,0.75,27.152-0.562
			c-9.165-1.029-17.663-0.14-26.152-0.438c-0.118-0.377,0.36-0.985,1.05-0.984l22.934,0.023c1.122,0.001,2.165,1.045,3.014,0.469
			c0.76-0.516,1.434-1.563,2.059-2.376c5.344-0.776,10.878,1.01,15.942-1.013c2.085-0.833,4.425-0.284,5-3.118h3
			c-0.074,0.758,0.915,1.035,1.95,1.031l15.058-0.058c0.924-0.004,1.607-1.138,1.149-1.731l0.898,0.016
			c5.716-3.763,8.89-1.055,9.945-3.257c0.318-0.663,0.645-1.356,1-2c1.648-0.138,3.775,0.597,5-0.753c0.322,0.029,0.676,0.003,1,0
			c0.922,0.662,1.717,1.859,2.847,2.237c0.954,0.319,1.888-1.434,3.12-1.434l32.118,0c1.422,0,2.09-0.909,2.08-1.868
			c0.327-0.134,0.739-0.1,1.055-0.255c3.161-1.548,6.134-6.013,3.78-8.927c-2.199-0.248-4.907,0.141-7.065-1.941l-12.887-12.436
			c-1.351-1.303-3.507-1.452-2.737-4.817c-9.655,4.661-5.545-6.508-16.197-7.298c-0.769-0.057-9.117-8.545-9.846-10.011
			c-5.266-0.076-12.39-6.662-14.753-11.238c-1.293-0.801-3.551-0.215-5.799-0.128c-0.914-3.665-5.154-5.19-6.765-7.82
			c-2.725-4.449-6.117-5.447-10.164-7.498c-3.259-1.652-6.531-6.289-10.754-7.169c-3.433-0.716-7.174-8.824-11.34-7.279
			l-2.368-6.619c-3.382,0.979-4.738-0.784-6.79-2.24l-13.505-9.582c-1.592-1.13-2.675-3.208-4.54-4.143
			c-0.459-0.23,0.522-2.188-0.358-2.263c-0.43-0.037-1.337-0.001-2.308,0.22c-3.34-8.365-0.974,1.907-14.439-11.884
			c-2.942-3.013-6.057-4.528-9.275-7.219l-17.679-14.786c1.092-5.285-5.825-1.118-6.975-4.025c-0.225-0.568,0.636-1.964-0.673-2.473
			c-1.436-0.558-3.079,0.625-4.146,0.587c-0.778-0.028-7.202-6.839-8.716-8.993c-2.371-3.374-6.519-4.686-8.854-8.425
			c-1.977-3.165-7.624-3.942-8.729-8.747c-15.48,1.005-9.975-4.338-14.9-3.075c1.849,8.45-2.684,8.54,3.003,10.628
			c1.653,3.718-0.959,8.746,1.171,12.164c1.403,2.252,4.642,3.541,3.401,7.555c-1.202,3.888,0.863,6.422,2.599,9.282
			c1.903,3.137-1.376,8.552,0.799,11.306c8.813,8.061-2.313,11.401,6.853,18.856c2.287,2.263-0.69,7.786,0.932,10.25
			c5.829,8.851,0.455,8.954,4.022,20.217c1.273-2.186,2.108-2.233,1.55-0.087c1.533,4.407-0.925,11.887,1.441,13.243l3.418,1.96
			c0.436,0.25,0.977,3.005,0.535,3.761c-2.538,4.339,2.359,6.272,2.944,8.503c1.184,4.516-1.863,10.59,1.567,15.018
			c5.042,6.508,0.523,9.69,2.854,15.07c0.64,1.477,3.041,2.082,3.22,3.481c0.57,4.455-4.448,11.179,2.936,13.304
			c1.215,4.453-0.914,9.019,0.986,13.019c0.977,2.058,3.934,3.409,1.839,5.794c-0.94-2.429-1.512-2.326-1.744,0.268
			c6.088,1.615,1.436,7.109,4.111,9.273c0.999,0.808,2.78,0.009,4.144,0.503c2.513,0.91,5.036,3.41,7.971,1.585
			c0.983-0.611,0.695-2.238,2.495-1.758c1.752,0.467,3.08-0.705,2.984,2.094c1.163,0.928,1.494-1.578,2.177-2.2
			C461.224,768.349,463.587,768.139,464.066,766.144z M406,676h-1v21.5h1V676z M669,744h-13.5v1H669V744z M488.786,896.199
			c-2.462-1.992,0.519-5.987-0.486-7.889c-0.186-0.353-6.839-6.752-6.665-7.995c0.906-6.499-7.181-2.089-3.872-10.175
			c-2.195-0.961-4.126-1.796-4.192-4.715c-0.094-4.177-6.101-6.445-6.683-9.635c-0.516-2.826-3.018-4.904-3.228-6.808
			c-0.373-3.368-2.217-5.696-3.851-7.64c-1.344-1.599-1.305-6.153-3.602-7.202c-0.844-0.385,0.271-3.653-0.168-4.371
			c-0.439-0.72-2.704-0.633-3.069-1.59c-0.864-2.262-3.406-3.928-3.882-5.936c-1.176-4.956-11.471-23.415-14.639-28.373
			c-1.427-2.233,0.245-7.099-2.926-8.118c-2.539-0.816-3.523-1.439-4.535-3.771c-0.689-1.589-4.68-0.24-5.604-1.331
			c-1.682-1.987-3.473-3.609-6.28-2.757c-5.061,1.535-7.778-2.949-11.476-3.222l-19.084-1.412c-1.947-1.978-4.677-4.808-8.428-3.178
			c-3.938,1.711-6.059-2.198-8.233-2.558c-6.089-1.008-11.262-0.113-16.661-3.917c-3.601-2.538-16.996,2.903-16.503-4.545
			c-2.807,2.097-13.692,0.435-15.336-3.103c0.205,2.426-3.669,4.704-4.236,3.412c-1.656-3.771-10.564-8.945-16.004-7.241
			c-4.658,1.459-6.077-2.2-8.486-3.101c-3.212-1.201-8.57,1.122-12.783-0.878c1.362,4.674,6.532,4.751,7.692,7.681
			c1.968,4.97,5.772,4.454,8.904,6.917l11.468,9.015c1.962,1.542,2.879,2.15,4.806,3.632l6.181,4.755
			c2.195,1.688,4.244,2.467,6.305,3.731c4.658,2.859,7.621,7.77,11.848,11.114l4.655,0.195c6.647,10.856,4.207,2.156,14.65,11.192
			c1.362,1.179,0.623,3.539,2.277,3.558c1.521,0.018,2.492-0.033,4.398,0.228l-2.247,2.037c4.331-1.365,5.77,0.745,7.822,2.947
			l4.837,5.19c2.34,2.511,6.152,2.594,6.22,6.991c2.133-0.438,4.388-0.608,5.57,0.281c5.408,10.454-0.702-3.682,14.739,12.227
			c8.063,8.308,2.792-2.784,13.353,9.811c8.25,9.839,19.367,11.176,25.446,22.378c1.724,3.177,4.605,2.508,6.845,3.612l8.474,4.178
			l8.566,7.562c2.967,2.619,4.451,7.827,8.643,8.628c1.767,0.337,2.167,2.506,3.419,2.937c2.616,0.9,10.848,6.292,10.696,8.577
			c1.205,0.296,3.951-0.843,5.16,0.529c1.342,1.524,1.514,3.48,1.201,6.331l9.188,1.37c-0.362-3.799,0.82-6.842-0.369-9.167
			C493.977,905.003,494.249,900.62,488.786,896.199z M597.911,758.829c-4.585,0.096-9.7-0.677-13.932,1.15
			c-0.68,0.698-0.169,1.261-0.402,1.702c-1.112,2.102-20.282,1.482-23.497,1.122c-4.284-0.481-6.102,2.565-9.267,3.549
			c-5.622,1.747-12.028,0.164-17.839,0.511c-3.658,0.218-6.03,2.927-9.055,3.719c-5.562,1.456-11.186-0.395-16.946,0.644
			c0.253,1.437,1.892,0.01,3.071,1.485c-0.966,0.692-19.141,1.762-18.83,1.872c-4.463-1.588-5.683,1.279-8.74,2.404
			c-8.429,3.102-18.571-0.792-27.277,1.615c-2.591,0.716-4.689,4.289-8.762,2.563c-0.105,2.513-1.707,7.667,0.334,8.63
			c3.379,1.594,2.152,5.242,3.55,6.563c3.822,3.61,6.094,7.024,7.696,12.069c-0.788-2.482,8.64,13.592,5.382,14.215
			c1.327,0.954,3.051,1.245,3.726,2.221c1.948,4.141,7.81,13.44,11.881,14.671c-1.908,15.221,6.59,10.264,3.864,17.489
			c-0.681,1.805,10.492,16.915,10.4,16.678l2.933,7.562c1.018,2.624,1.639,4.684,4.423,6.273l1.336,7.429
			c-2.046-11.382,5.568,12.099,3.369,9.603c0.293,0.332,1.256-0.255,1.842,0.145c1.011,1.81,0.585,3.833,0.945,6.132
			c3.469,1.832,5.929,4.479,8.169,8.241l6.256-7.487c1.182-1.415,3.163-2.192,3.809-3.949c0.143-0.39,1.485-0.107,1.818-0.26
			c0.518-0.239-0.008-1.602,0.351-2.074c0.909-1.199,2.776-1.211,3.247-2.184c0.622-1.286-0.142-3.821,0.466-4.721
			c8.429-4.249-0.857-8.393,7.638-9.541c-0.586-1.547-0.863-2.765-0.811-4.137c0.022-0.589,9.498-10.348,11.646-10.834
			c-0.067-1.427-1.16-3.643-0.391-4.946c0.579-0.98,2.152-2.485,3.383-2.926c4.189-1.503,3.436-4.93,5.191-7.255
			c6.415-8.498-4.14,0.151,7.662-12.59l8.949-9.661c0.63-0.68,0.336-1.903,1.15-2.236c0.634-0.26,1.565,0.182,3.045,0.294
			c-1.775-4.343,3.878-8.78,6.956-11.929c0.984-1.153-0.149-3.922,0.57-5.441c3.34-0.438,2.138-5.035,3.473-6.396
			c11.395-11.609,3.63-8.976,12.208-15.82c1.9-1.516,1.784-3.546,2.815-5.6c0.797-1.588,3.967-3.226,4.103-5.693
			c0.031-0.56,1.955-0.008,2.404-0.218c0.578-0.27-0.108-1.822,0.331-2.206c3.736-3.272,8.172-6.459,10.445-11.234
			c0.884-1.858-1.126-5.075,0.434-6.664c1.667-1.698,5.721-5.71,7.083-6.293c0.89-0.381,0.04-1.098-0.401-1.521
			c-0.331-0.317-1.242,0.335-1.914-0.058c-1.165-0.68-0.983-2.337-1.566-2.956c-1.058-1.126-7.015-0.656-7.907-0.469
			c-0.818,0.171-0.781,2.711-1.464,3.339C610.431,757.942,600.522,752.857,597.911,758.829z M729,760c-7.613-2.39-15.995-0.298-24-1
			c-0.325-0.029-0.675-0.036-1,0c0.173-1.456-1.51-2.942-3-3c-9.701-0.38-19.628,0.761-29.614-0.812
			c-1.959-0.309-3.475-3.969-6.61-3.309c-5.141,1.081-11.481-1.356-16.426,0.791c-2.352,1.021-5.336,4.645-7.825,6.291
			c-1.396,0.923-0.502,5.04-4.359,4.25c-0.598,1.922,0.502,4.199-0.582,5.418l-4.123,3.767c-2.387,2.181-2.062,3.772-2.879,6.606
			c-0.92,3.191-6.19,4.729-7.408,8.092c-0.347,0.958,0.68,2.318,0.346,3.005c1.215-2.503-6.844,8.613-7.292,6.302l-0.743,5.194
			c-2.02,0.38-2.459,2.287-3.621,3.311c-6.181,5.449,2.107,3.271-10.637,14.448c0.105,1.178,0.92,2.795,0.467,3.694
			c-0.343,0.681-2.258,1.087-2.626,1.94c-1.837,4.264-4.144,8.37-9.089,8.261c4.492,5.166-6.295,9.455-6.58,11.066l-0.931,5.268
			c-2.069,0.069-2.177,2.618-3.259,3.258c-3.185,1.883-2.96,4.457-4.602,7.003c-0.524,0.812-4.55,4.411-6.308,10.704
			c-0.804,2.879-6.51,4.427-6.883,7.396c-0.345,2.75-1.781,3.942-2.618,5.789c-1.422,3.139-1.568,5.916-4.923,8.328
			c-1.947,1.399-3.691,3.137-4.278,5.293c-0.685,2.516,0.296,4.663,1.941,7.673c0.873-1.067,0.433-2.469,0.976-3.735
			c13.232-2.636,2.812-1.661,11.124-5.916l5.226-2.675c3.682-1.885,7.111-5.041,9.721-8.18l4.418-5.314
			c7.001-1.764,10.431-7.572,15.646-11.306c2.77-1.983,6.955-2.56,9.25-6.288c0.3-0.487,6.883-6.929,7.591-8.022
			c3.784-0.951,8.422-4.666,11.267-7.674c-3.902,4.125,21.773-14.138,15.357-7.846l8.701-8.534c0.672-0.659,2.469-2.074,3.205-2.749
			c2.256-2.069,3.446-5.014,7.83-3.676c-0.575-2.114-0.088-3.388,0.292-4.437c0.681-1.878,2.525-1.662,4.039-2.577
			c8.947-5.404,6.492-5.327,7.952-6.721c0.941-0.899,4.118,0.328,4.713-0.517c5.341-7.574,12.117-9.818,14.547-11.615
			c2.249-1.664,3.541-2.863,6.32-3.965c4.302-1.706,7.065-7.627,13.214-6.188c0.214-2.416,0.414-6.226,2.251-6.382
			c3.679-0.312,4.072-1.529,5.887-3.516c2.885-3.158,12.951-6.756,13.828-9.918C734.3,762.208,728.906,763.729,729,760z"/>
		<path style="fill:#DB11EC;" d="M404,363c0.7-5.31-1.415-11.1,1-16l0.019,14.053C405.02,362.086,404.78,363.077,404,363z"/>
		<path style="fill:#DB11EC;" d="M707,524c-7.803,2.486-16.377,0.102-25.03,1.171c-1.006,0.124-2.07-0.607-1.97-1.171H707z"/>
		<path style="fill:#DC48EB;" d="M364,273.136c0.126,0.456-0.389,0.814-1.094,0.818l-43.762,0.2
			c-1.679,0.008-2.823,2.129-4.136,2.08c-0.229-0.681-0.629-1.685-0.104-1.92c0.538-0.241,1.516-1.233,2.285-1.232L364,273.136z"/>
		<path style="fill:#3A0140;" d="M394,429.115V428v-33c0.337-0.319,0.614-0.735,1-1l0.045,33.057
			C395.046,428.157,394.594,428.819,394,429.115z"/>
		<path style="fill:#DB11EC;" d="M394,428c-1.549,1.235-1.566-33.9,0-33V428z"/>
		<path style="fill:#DC48EB;" d="M420,296c-0.146-4.82-1.656-10.129-1-15c0.748-0.125,0.67-1.096,1.658-2.009
			c1.026,4.119-0.314,8.311,0.563,12.837c0.132,0.681,1.341,1.222,1.244,1.678c-0.11,0.52-0.891,0.965-1.234,1.656
			C421.16,296.48,420.284,297.661,420,296z"/>
		<path style="fill:#3A0140;" d="M397,269v1h-26h-3C377.306,267.719,387.306,269.569,397,269z"/>
		<path style="fill:#DC48EB;" d="M408.01,346c-0.714,1.073-2.02,2.184-2.016,3.974l0.03,11.06c0.004,1.587-0.76,2.713-1.92,2.965
			c0.023-0.329-0.148-0.673-0.105-1c0.78,0.077,1.02-0.914,1.019-1.947L405,347C405.564,345.856,406.888,345.905,408.01,346z"/>
		<path style="fill:#3A0140;" d="M379,494c0.694-5.983-1.4-12.393,1-18C379.29,481.981,381.418,488.419,379,494z"/>
		<path style="fill:#3A0140;" d="M383,457c-0.128-1.659-0.58-4.018,1-5c-0.296,5.699,0.6,11.355-0.45,17.089
			C382.306,464.73,383.296,460.823,383,457z"/>
		<path style="fill:#DC48EB;" d="M211,311v-6c0.421-0.014,1.091-0.183,1.453,0.043c0.485,0.303,0.565,1.01,0.631,1.883
			c-0.211,2.196,0.257,3.863-0.376,6.127C212.005,312.248,211.876,311.31,211,311z"/>
		<path style="fill:#DC48EB;" d="M375,501c0.088-0.648-0.145-1.364,0-2c3.29-2.331,1.97,10.067,1.487,10.084
			C375.142,505.99,377.148,503.014,375,501z"/>
		<path style="fill:#DC48EB;" d="M404.092,365c-0.293,1.829-0.892,4.209-3.092,4c0.014-1.475,1.495-2.746,0.993-5.066
			C403.133,364.315,403.423,364.895,404.092,365z"/>
		<path style="fill:#DC48EB;" d="M376,498c-0.312-0.7-1.386-1.418-0.549-2.031c0.501-0.367,0.998-0.838,1.549-0.969
			C377.167,496.135,377,497.324,376,498z"/>
		<path style="fill:#DC48EB;" d="M215.01,302c0.282,0.827-1.531,1.254-2.01,1C213.611,302.557,214.123,301.894,215.01,302z"/>
		<path style="fill:#DC48EB;" d="M313,276c0.284-0.097,0.695,0.166,1,0.15c2.549,3.158-26.026,1.692-27.075,1.432
			C296.009,275.525,304.847,278.773,313,276z"/>
		<path style="fill:#DC48EB;" d="M365.853,273.003L365,273.108C365.279,272.837,365.559,272.627,365.853,273.003z"/>
		<path style="fill:#DC48EB;" d="M677,524.094c-0.53,0.073-1.985,0.105-1.993-1.047l-0.218-29.912
			c-0.054-7.367-4.702-15.036-3.788-22.135c1.051-8.162,1.297-16.544,1-25c2.736,10.078-0.4,21.008,1.438,31.662
			c0.457,2.651,2.547,5.03,2.546,8.384l-0.011,32.969C675.972,521.014,676.732,522.616,677,524.094z"/>
		<path style="fill:#DC48EB;" d="M357,545c-1.892,0.511-3.791-0.95-6.09-0.952l-62.833-0.063c-1.867-0.002-3.471-0.752-4.077-1.985
			c4.887,2.168,10.15,0.547,15.421,0.597l49.634,0.467C351.574,543.088,356.567,542.341,357,545z"/>
		<path style="fill:#DC48EB;" d="M661.895,539.987c-3.167,2.226-7.284,0.724-11.316,0.741L587,541
			c-0.117-0.461,0.339-0.909,1.103-0.914l59.536-0.42c2.77-0.02,3.52-2.011,6.603,0.176
			C656.004,541.093,659.908,539.302,661.895,539.987z"/>
		<path style="fill:#DC48EB;" d="M660.026,474c-1.343-1.054-2.76-2.228-3.026-4v-48c-0.543-0.377,0.827-1.269,0.833-0.822
			l0.571,47.577L660.026,474z"/>
		<path style="fill:#3A0140;" d="M658,528v1h-28h-1h-10h-1h-6h-3C624.99,526.653,641.612,528.676,658,528z"/>
		<path style="fill:#3A0140;" d="M657,470c-2.355-15.699-1.337-31.994-1-48h1V470z"/>
		<path style="fill:#DC48EB;" d="M743,521.142c-0.802,1.198-3.155,1.123-4.933,0.932c-6.891-0.74-13.41,0.559-19.94,0.585
			c-4.695,0.019-7.515,1.526-11.624,2.626c-2.374,0.635-28.589,2.115-28.503-1.178l2-0.108c-0.1,0.564,0.965,1.295,1.97,1.171
			c8.653-1.069,17.227,1.315,25.03-1.171c2.309-0.736,4.073-3.025,7.035-3.01L743,521.142z"/>
		<path style="fill:#DC48EB;" d="M579,748.247c1.337-0.011,2.667-0.168,4-0.247c11.676-0.691,23.646,1.37,35-1
			c0.361-0.075,0.796,0.213,1.165,0.181c0.01,0.959-0.658,1.868-2.08,1.868l-32.118,0c-1.232,0-2.166,1.754-3.12,1.434
			C580.717,750.106,579.922,748.909,579,748.247z"/>
		<path style="fill:#DC48EB;" d="M849,522.892c0.065,0.443,0.16,1.077-0.099,1.513c-0.249,0.419-0.973,0.535-1.792,0.658
			l-6.077,0.909L812,526c9.38-2.746,19.569,0.456,29.622-1.611C844.232,523.853,846.493,521.623,849,522.892z"/>
		<path style="fill:#3A0140;" d="M654.202,410L654,419c-0.78,0.075-1.017-0.898-1.015-1.944L653,409
			c0.02-10.702-0.662-21.383,0.501-32.075L654.202,410z"/>
		<path style="fill:#DC48EB;" d="M804,515c-2.98,3.025-7.365,4.084-12.007,4.07L769,519c-0.038-0.328,0.077-0.679,0-1
			c9.338-0.684,18.998,1.365,28-1c1.428-0.375,2.638-0.162,3-2C801.33,515.303,802.667,515.046,804,515z"/>
		<path style="fill:#3A0140;" d="M237,529h-8h-1h-29v-1l36.935,0.012C236.641,528.013,237.118,528.623,237,529z"/>
		<path style="fill:#3A0140;" d="M803,514c10.368,0.334,20.712-0.667,31.076,0.499c-10.432,1.178-20.249,0.158-30.076,0.501
			c-1.333,0.046-2.67,0.303-4,0C800.246,513.751,802.134,513.972,803,514z"/>
		<path style="fill:#3A0140;" d="M720,748h-13l-17.052,0.023c-1.031,0.001-2.02-0.246-1.948-1.023l30.942,0.017
			C719.64,747.017,720.118,747.619,720,748z"/>
		<rect x="324" y="536" style="fill:#DC48EB;" width="30.5" height="1"/>
		<path style="fill:#3A0140;" d="M672,446c0.297,8.456,0.051,16.838-1,25l-0.1-30C672.571,442.654,671.449,443.971,672,446z"/>
		<path style="fill:#DC48EB;" d="M228,529c4.609,1.632-38.182,1.369-29,0H228z"/>
		<path style="fill:#DC48EB;" d="M658,529c9.305,1.359-32.731,1.634-28,0H658z"/>
		<path style="fill:#3A0140;" d="M490,762c8.489,0.298,16.987-0.591,26.152,0.438C507.155,763.75,498.081,763,489,763h-1
			C487.866,761.862,489.182,761.971,490,762z"/>
		<path style="fill:#DC48EB;" d="M397,270c0.874-0.046,1.943-0.373,1.998,0.993l-26.952-0.012c-0.68,0-1.164-0.601-1.046-0.981H397z
			"/>
		<path style="fill:#3A0140;" d="M896.052,510.045c-9.022,2.29-18.693,0.278-28.052,0.955
			C876.977,508.657,886.679,510.631,896.052,510.045z"/>
		<path style="fill:#3A0140;" d="M650,362c-1.679-8.568-1.679-18.443,0-27V362z"/>
		<path style="fill:#3A0140;" d="M286,737h-5c-3.594,0-12.969,3.166-13.131-0.869l16.185-0.16
			C285.084,735.961,286.078,736.239,286,737z"/>
		<path style="fill:#DC48EB;" d="M531,293l-18.99,0.008c-2.763,0.001-4.447-1.889-5.013-4.031
			C515.129,295.182,526.039,289.686,531,293z"/>
		<path style="fill:#DC48EB;" d="M208,430c4.41-3.507,2.747-10.394,3-12c3.727-1.908,1.215,7.925,0.652,9.783
			C211.133,429.498,209.233,429.805,208,430z"/>
		<path style="fill:#DC48EB;" d="M284,541l-13-0.1c-0.564-2.977,11.49-1.89,12.728-1.627C284.25,539.385,284,540.634,284,541z"/>
		<path style="fill:#3A0140;" d="M671,584c0.465-5.405-2.352-12.015,0.927-16.073C674.333,569.812,672.219,583.345,671,584z"/>
		<path style="fill:#3A0140;" d="M740,532.711c-0.444,0.174-0.379,1.381-1.281,1.183c-0.586-0.129-1.209-0.893-1.719-0.895
			l-19.051-0.051C720.497,531.464,738.504,531.576,740,532.711z"/>
		<path style="fill:#DC48EB;" d="M729,760l-22.951-0.029c-0.691-0.001-1.166-0.575-1.049-0.971
			C713.005,759.702,721.387,757.61,729,760z"/>
		<path style="fill:#DC48EB;" d="M488.1,765c-0.71,1.206-2.293,1.969-4.125,1.975l-16.024,0.055
			c-1.037,0.004-2.024-0.269-1.951-1.03c6.011-0.449,12.365,1.353,18-1C485.17,764.512,486.879,765.367,488.1,765z"/>
		<path style="fill:#DC48EB;" d="M656.131,597.131c-0.127-4.665-0.622-10.019,1.869-14.131l-0.029,12.965
			C657.969,597.094,656.681,597.52,656.131,597.131z"/>
		<path style="fill:#3A0140;" d="M421,769c-7.276,1.706-15.708,1.678-23,0H421z"/>
		<path style="fill:#DC48EB;" d="M654.178,671.816c3.148-2.445,1.815-6.93,3.374-10.439c1.321-2.972,4.289-5.097,1.541-8.983
			c-0.826-1.167-1.287-3.015-1.166-4.376c2.935-1.554,4.201,7.836,4.172,9.334c-0.032,1.643-2.455,2.309-3.566,4.124
			c-1.127,1.841-0.247,8.824-1.578,10.038C656.226,672.179,655.063,671.939,654.178,671.816z"/>
		<path style="fill:#DC48EB;" d="M319,743c0.012,0.42,0.186,1.094-0.044,1.451c-0.295,0.461-1.024,0.609-1.883,0.609l-11.148-0.009
			c-1.093-0.001-1.745-0.452-2.017-1.051L319,743z"/>
		<path style="fill:#3A0140;" d="M660,645v-5c0-3.49-0.763-6.876,0.932-10.068C663.262,630.742,661.093,645.415,660,645z"/>
		<path style="fill:#DC48EB;" d="M286,737c0.247,0,0.738,0.037,1.153,0.164c0.35,0.107,0.283,0.969,0.581,1.513
			c2.651,2.929,19.384-0.551,15.266,3.323c-8.714-3.047-12.188,1.815-17.764-3.341c-1.124-1.039-3.612-0.159-4.236-1.659H286z"/>
		<path style="fill:#DC48EB;" d="M871,522c0.073,0.776-0.918,1.025-1.949,1.023L850,523c0.711-1.028,1.84-1.6,3-2
			c-0.072,0.782,0.915,1.021,1.947,1.02L871,522z"/>
		<path style="fill:#3A0140;" d="M875,521c-0.777,1.456-2.647,0.998-4,1l-16.053,0.02c-1.032,0.001-2.019-0.238-1.947-1.02H875z"/>
		<rect x="405" y="676" style="fill:#DC48EB;" width="1" height="21.5"/>
		<path style="fill:#3A0140;" d="M215,455c0.59-5.018-2.558-11.778,0.971-15.029C218.206,441.381,215.955,454.178,215,455z"/>
		<path style="fill:#3A0140;" d="M767,518h-3h-17C742.046,516.47,775.019,516.571,767,518z"/>
		<path style="fill:#DC48EB;" d="M408,528c5.333,2.239,11.305,1,17,1c2.318,1.816-17.433,0.816-17.759,0.778
			c-2.044-0.234-3.354-2.853-3.349-4.186c0.006-1.695,1.766-2.521,2.889-3.796c5.056-5.742,10.247-10.474,17.171-12.836
			c0.146,0.797-0.154,1.551-0.375,2.093c-0.487,1.19-2.943,0.389-3.413,1.053c-1.57,2.215-3.346,2.405-5.718,3.408
			c-2.58,1.09-3.268,4.893-5.628,6.183c-1.648,0.902-2.751,1.248-2.933,2.741C405.547,527.219,406.153,527.225,408,528z"/>
		<path style="fill:#3A0140;" d="M429,529h-4c-5.695,0-11.667,1.239-17-1C415.012,528.633,422.343,526.693,429,529z"/>
		<path style="fill:#DC48EB;" d="M609.129,299c0.065,0.36,0.345,0.681,0,1.029l-18.193,0.011c-1.132,0.001-1.799-0.417-1.936-1.04
			l2-1c-0.078,0.776,0.916,1.023,1.948,1.021L609.129,299z"/>
		<path style="fill:#DC48EB;" d="M257,311c-0.586,3.685,2.104,15.548-4.01,14c3.478-3.409,3.776-9.017,1.911-13.686
			C255.93,310.753,256.527,311.004,257,311z"/>
		<path style="fill:#DC48EB;" d="M547.974,287.034c-0.554-0.939-1.389-1.846-2.922-2.114l-13.089,0.107
			c-1.587,0.013-2.714-0.795-2.964-1.932c-3.125-0.025,18.895,1.468,18.907,1.494C548.235,285.265,547.915,286.233,547.974,287.034z
			"/>
		<path style="fill:#DC48EB;" d="M585,304c-6.017-0.609-12.348,1.284-18-1l12.996-0.171C582.031,302.802,584.17,302.088,585,304z"/>
		<path style="fill:#3A0140;" d="M484,765c-5.635,2.353-11.989,0.551-18,1l-1.934,0.144c0.154-0.643,0.725-1.219,1.841-1.214
			L484,765z"/>
		<path style="fill:#3A0140;" d="M560,754c-5.289,2.37-11.347,1-17,1h-3c0.123-0.608,0.931-1.052,1.912-1.05L560,754z"/>
		<path style="fill:#3A0140;" d="M649,635c0.703-6.323-1.404-13.08,1-19C649.375,622.345,651.303,629.014,649,635z"/>
		<path style="fill:#DC48EB;" d="M186.118,501c-2.723-3.726,0.858-8.309,2.882-12c0.533,1.57,0.071,1.818-0.71,4.509L186.118,501z"
			/>
		<path style="fill:#DC48EB;" d="M543,755c5.653,0,11.711,1.37,17-1l1.157,0.241c0.458,0.593-0.225,1.728-1.149,1.731l-15.058,0.058
			C543.915,756.035,542.926,755.758,543,755z"/>
		<rect x="664" y="504" style="fill:#DC48EB;" width="1" height="17.5"/>
		<path style="fill:#3A0140;" d="M527,281c-0.561,0.05-1.39,0-2,0h-2h-5h-2h-5c-0.491-0.329-1.651-0.162-2-0.895l16.054-0.132
			C526.084,279.964,527.077,280.236,527,281z"/>
		<path style="fill:#DC48EB;" d="M720,748c0.433,0,1.764-0.147,1.885,0.454c0.087,0.431-1.022,1.16-0.885,1.64
			c-5.776-2.526-13.584,0.335-14-2.094H720z"/>
		<path style="fill:#DC48EB;" d="M764,518c0.077,0.778-0.915,1.021-1.947,1.02L747,519v-1H764z"/>
		<path style="fill:#3A0140;" d="M398,658v3c-0.482-0.342-1.061-0.841-1.057-1.923L397,644C399.377,648.239,398,653.352,398,658z"/>
		<path style="fill:#3A0140;" d="M638.129,699l-0.202-14.073c-0.017-1.171,0.677-1.497,1.074-1.927
			C638.608,688.387,639.946,693.874,638.129,699z"/>
		<path style="fill:#DC48EB;" d="M508,280.092c2.541-1.41-19.991-2.961-14.037-3.055l12.026-0.094
			C507.346,277.759,507.629,279.029,508,280.092z"/>
		<path style="fill:#3A0140;" d="M535,758.118c-5.064,2.023-10.599,0.237-15.942,1.013c0.373-0.484,0.631-1.233,1.862-1.216
			L535,758.118z"/>
		<path style="fill:#DC48EB;" d="M656.042,420.005L654,419l0.202-9C659.675,416.402,653.081,415.621,656.042,420.005z"/>
		<path style="fill:#DC48EB;" d="M398,658c0-4.648,1.377-9.761-1-14c-0.727-1.296-2.059-1.91-3-3
			c1.352,0.398,4.422,1.124,4.758,3.097C398.898,644.92,399.75,659.693,398,658z"/>
		<path style="fill:#DC48EB;" d="M597.911,758.829c-0.25,0.572-0.558,1.277-1.82,1.265l-12.112-0.115
			C588.211,758.152,593.326,758.925,597.911,758.829z"/>
		<path style="fill:#DC48EB;" d="M572,751c-1.055,2.203-4.229-0.506-9.945,3.257C561.81,749.48,568.674,751.358,572,751z"/>
		<path style="fill:#3A0140;" d="M353,752h-3c-4.111,0-8.257,0.954-12.045-0.955l13.099-0.063
			C352.088,750.976,353.076,751.22,353,752z"/>
		<path style="fill:#DC48EB;" d="M571,288c1.796-0.217,2.526,1.524,3,3c-3.899-2.232-8.046-1.887-13.118-2.338
			C564.244,287.135,567.647,288.406,571,288z"/>
		<path style="fill:#DC48EB;" d="M204.289,628c-2.765-2.141-3.677-5.589-3.325-9C202.915,621.616,204.573,624.713,204.289,628z"/>
		<rect x="655.5" y="744" style="fill:#DC48EB;" width="13.5" height="1"/>
		<path style="fill:#DC48EB;" d="M182,514c1.586-2.806,0.276-5.951,1-9C185.145,507.828,185.655,512.645,182,514z"/>
		<path style="fill:#DC48EB;" d="M237,529c0.345,0,1.295-0.01,1.612,0.396c0.287,0.367-0.118,1.068,0.388,1.604
			c3.971,1.246-15.195-2.387-10-2H237z"/>
		<path style="fill:#DC48EB;" d="M369.795,758.079c-2.057-0.53-3.938-1.245-5.795-2.793c1.102-0.212,2.742-0.527,4.03-0.047
			C368.955,755.585,369.402,756.935,369.795,758.079z"/>
		<path style="fill:#DC48EB;" d="M663,304c0.2,0.379,0.156,1.119-0.344,2.05c-5.459-5.257-7.992,3.002-7.763-1.006
			C656.612,302.192,660.337,302.45,663,304z"/>
		<path style="fill:#DC48EB;" d="M548.966,288.024c0.343,0.017,0.693-0.06,1.034-0.024c3.348,0.352,6.732-0.763,10.079,0.597
			C556.067,288.992,552.041,289.995,548.966,288.024z"/>
		<path style="fill:#DC48EB;" d="M660,645c0,0.432,0.068,0.952-0.135,1.426c-0.3,0.698-1.188,0.696-1.865,0.574
			c0.025-2.449,0.129-5.245,2-7V645z"/>
		<path style="fill:#DC48EB;" d="M620.22,746.927c-0.013-0.67-0.007-1.696,0.388-2.796c0.198-0.551,1.073-0.411,2.245-0.477
			c0.305-2.114,0.087-4.066,1.147-5.653C626.354,740.914,623.381,745.379,620.22,746.927z"/>
		<path style="fill:#DC48EB;" d="M675,743c0.329,0.036,0.675-0.061,1,0c0.663,1.396,2.466,0.338,4.054,1.629
			c-3.354,0.606-6.753,0.663-10.122-0.031C671.914,743.324,673.888,744.486,675,743z"/>
		<path style="fill:#DC48EB;" d="M629,529c-2.649,1.73-7.351,1.73-10,0H629z"/>
		<path style="fill:#DC48EB;" d="M270,540.911c0.115,1.495-0.649,3.32-2.051,2.716c-1.611-0.693-3.375-0.875-2.949-2.716
			C266.705,541.099,268.523,542.098,270,540.911z"/>
		<path style="fill:#DC48EB;" d="M363,755.286c-2.388,1.273-6.685,1.625-8-1.176C357.461,755.376,360.317,754.835,363,755.286z"/>
		<path style="fill:#DC48EB;" d="M686,747.118c-1.989,1.465-4.746-1.969-5-4.118C683.143,743.556,684.646,745.508,686,747.118z"/>
		<path style="fill:#DC48EB;" d="M264,540.903c-1.997,0.066-4.001,0.18-6,0.097C259.247,539.295,262.613,539.414,264,540.903z"/>
		<path style="fill:#DC48EB;" d="M353,752c1.065,0,1.137,1.261,1,2.094c-1.527-0.269-3.157-0.702-4-2.094H353z"/>
		<path style="fill:#DC48EB;" d="M653,602c-0.097-0.929-0.223-2.019,0.625-2.838c0.575-0.555,1.599-0.832,2.469-1.125
			C655.144,599.583,655.227,602.329,653,602z"/>
		<path style="fill:#DC48EB;" d="M200,618c0.026-0.62-0.149-1.397,0-2c0.711-0.224,0.806-0.821,1.396-2.047
			c1.024,0.552,0.592,2.113,0.572,3.495C201.96,618.04,200.756,618.125,200,618z"/>
		<path style="fill:#DC48EB;" d="M618,529c-1.245,1.681-4.755,1.681-6,0H618z"/>
		<path style="fill:#DC48EB;" d="M527,281c0.431-0.038,1.778-0.078,1.881,0.436c0.09,0.449-1.009,1.169-0.881,1.651
			c-1.146-0.009-2.26-1.078-3-2.087C525.61,281,526.439,281.05,527,281z"/>
		<path style="fill:#DC48EB;" d="M523,281c-0.863,1.639-4.137,1.639-5,0H523z"/>
		<path style="fill:#DC48EB;" d="M516,281c-0.953,1.81-3.764,1.354-5,0H516z"/>
		<path style="fill:#DC48EB;" d="M578,748.247c-1.225,1.35-3.352,0.615-5,0.753C573.985,747.211,576.324,748.097,578,748.247z"/>
		<path style="fill:#DC48EB;" d="M704,759c-1.792,0.196-2.528-1.515-3-3C702.49,756.058,704.173,757.544,704,759z"/>
		<path style="fill:#DC48EB;" d="M725,751c0.685,0.088,1.662-0.219,2.073,0.809c-2.392,0.639-3.953-0.394-5.073-1.701
			C723.058,750.181,724.099,750.422,725,751z"/>
		<path style="fill:#DC48EB;" d="M404,675v-2c0.537-1.812,1.544-0.136,1.04,0.561L404,675z"/>
		<path style="fill:#DC48EB;" d="M654.848,304.152c-0.946,0.055-2.486-0.037-2.848-1.152
			C653.127,302.854,654.772,302.653,654.848,304.152z"/>
		<path style="fill:#DC48EB;" d="M747,520c-0.279,1.351-1.929,1.057-3,1.11C744.328,519.767,745.883,519.912,747,520z"/>
		<path style="fill:#DC48EB;" d="M183,504c0.718-1.072,1.91-1.597,3.1-2C185.801,503.407,184.324,503.978,183,504z"/>
		<path style="fill:#DC48EB;" d="M204,630c-0.017-0.332,0.187-0.667,0.202-1C204.961,629.334,204.876,630.099,204,630z"/>
		<path style="fill:#DC48EB;" d="M488.118,764L488,763h1C488.74,763.362,488.446,763.698,488.118,764z"/>
		<path style="fill:#3A0140;" d="M797,517c-9.002,2.365-18.662,0.316-28,1c-0.099-0.416,0.262-1.004,0.998-1.004L797,517z"/>
		<path style="fill:#DC48EB;" d="M737,533c4.509,1.476-24.125,1.497-19.051-0.051L737,533z"/>
		<path style="fill:#3A0140;" d="M618,747c-11.354,2.37-23.324,0.309-35,1c-0.118-0.379,0.36-0.985,1.061-0.985L618,747z"/>
		<path style="fill:#3A0140;" d="M609.129,299l-16.181,0.021c-1.032,0.001-2.025-0.245-1.948-1.021l16.065-0.047
			C608.207,297.95,608.991,298.239,609.129,299z"/>
	</g>
</g>
</svg>
