<?xml version="1.0" encoding="iso-8859-1"?>
<!-- Generator: Adobe Illustrator 30.1.0, SVG Export Plug-In . SVG Version: 9.03 Build 0)  -->
<svg version="1.1" id="Layer_1" xmlns="http://www.w3.org/2000/svg" xmlns:xlink="http://www.w3.org/1999/xlink" x="0px" y="0px"
	 viewBox="0 0 1000 1000" style="enable-background:new 0 0 1000 1000;" xml:space="preserve">
<g>
	<g>
		<path style="fill:#E238F1;" d="M571,122c-4.55,1.425,1.554,2.853,3.847,6.117c0.491,0.699,1.815,0.831,2.447,0.624
			c0.497-0.162,0.44-1.179,0.706-1.741c3.553,1.514,5.322,4.94,8.601,7.419c-3.822-2.89,16.426,8.845,16.311,8.736
			c1.722,1.629,3.269,2.959,5.084,3.945c-0.392-0.314-0.993,0.24-1.569,0.603c0.906,1.764,3.056,2.475,5.527,3.149l-1.034-1.736
			l16.769,14.1c1.091,0.917,13.452,5.773,20.33,14.867c1.538,2.034,5.982,2.241,7.951,4.098l8.068,7.614
			c1.138,1.074,3.308-0.249,3.964,1.205c-0.801,0.162-1.802-0.499-3.052,0.494c2.897,0.744,5.267,4.018,5.052,1.506
			c1.571,0.599,3.163,1.971,4.343,3.543c3.15,4.199,5.84,1.051,12.091,8.79c2.951,3.652,6.402,4.873,9.815,7.566l4.382,3.459
			c2.949,2.328,5.802,5.039,8.81,7.193l10.463,7.491c3.343,2.394,5.711,6.639,9.345,8.514c4.94,2.548,7.132,3.771,10.985,9.138
			c0.957,0.469,3.15-0.739,4.091-0.531c0.117,0.026,6.045,6.072,6.508,7.619c1.225,0.045,3.756-0.897,4.823-0.192
			c0.747,0.494,1.662,3.073,2.637,2.933c3.343-0.478,5.133,2.741,7.009,3.529c7.368,3.093,11.792,18.214,17.858,24.649
			c2.403,2.549,2.13,4.02,3.53,7.024c1.638,3.515,6.566,6.943,7.269,11.357c0.236,1.481,2.951,3.935,4.267,4.735
			c1.999,1.215,2.18,4.058,3.285,5.874c1.787,2.936,7.393,12.819,8.028,13.718c1.997,2.825,1.799,5.517,2.982,8.269
			c1.904,4.429,9.631,6.819,9.835,10.941l0.201,4.065c0.041,0.84,10.65,8.527,14.195,16.671c0.566,1.729,0.087,4.039,0.491,6.238
			c4.996-0.725,2.616,4.711,3.931,6.048c4.529,4.607,7.996,9.585,11.455,14.658l7.7,11.293c4.719,6.92,0.187,2.214,7.162,14.016
			c2.215,3.747,5.74,6.961,6.796,11.134c0.331,1.311,2.59,3.595,4.001,4.467c2.676,1.655,4.784,6.532,6.791,9.741
			c2.641,4.225,5.876,7.583,8.058,12.142c0.996,2.081,4.132,3.584,2,6.935c7.383,4.052,8.035,9.922,8.435,10.367
			c2.242,2.498,2.374,4.459,4.045,7.5l3.126,5.69c2.338,4.257,6.273,7.82,9.098,11.418c-0.472,1.261-0.253,3.292,0.544,4.83
			c0.516,0.995,1.668,1.988,3.289,2.057c0.176,11.381,2.873,9.493-5.874,15.915c-0.665,4.767-4.09,7.256-7.019,10.93
			c-1.647,2.067-2.174,5.68-4.458,7.746c-3.591,3.246-5.21,7.422-7.846,11.262c-4.658,6.786-12.977,11.073-16.823,18.742
			c-1.19,2.372-1.43,3.819-3.633,5.71c-9.144,7.845-6.706,11.661-11.019,14.962c-2.652,2.03-4.591,5.32-7.484,7.202
			c-3.131,2.037-2.874,5.991-4.754,8.342c-2.315,2.894-5.454,5.425-8.13,7.815c-5.161,4.608,2.096,4.256-13.747,17.286
			c-2.857,2.35-2.255,5.105-3.598,7.515c-2.276,4.084-7.022,6.434-9.817,10.019c-1.001,1.284-0.168,3.703-1.268,4.845l-7.939,8.234
			c-3.96,4.107,0.413,4.542-14.661,18.103c-1.346,1.211-4.98,0.148-5.405,2.514c-0.604,3.36-0.115,6.38,0.023,10.297
			c-4.648,2.657-5.849,8.163-8.802,12.119c-3.326,4.456-8.136,8.42-9.927,12.864c-0.808,2.006-3.24,5.242-4.879,6.012
			c-3.928,1.847-3.95,6.83-6.29,9.178l-42.254,42.402c21.483-21.559-25.448,20.22-13.996,10.078
			c-2.042,1.808-4.779,2.189-6.768,4.312c-1.071,1.144-3.627,0.137-4.998,1.153c-2.312,1.715-3.951,4.933-6.923,5.919
			c-2.593,0.861-6.224,1.352-7.372,4.457c-1.39,3.759-4.885,2.041-6.892,3.586c-4.365,3.361-8.415,8.283-12.362,12.203
			c-2.214,2.199-3.597,1.885-6.445,3.159c-2.443,1.092-4.551,4.09-8.153,3.553c0.845,7.603-10.034,10.765-9.515,10.33
			c-3.792,3.174-7.469,7.458-12.67,8.226c-0.918,0.135-1.538,3.143-2.676,2.948c-0.683-0.117-2.519-0.815-3.041-0.273
			c-3.617,3.752-8.468,7.504-11.702,11.88c-2.009,2.718-9.587,3.952-14.262,10.63c-4.077,5.824-6.314-1.318-14.888,11.068
			c-1.991,2.876-4.921,1.853-6.743,3.424c-6.12,5.279-11.713,10.44-18.813,14.5c-1.434,0.82-5.534,7.916-10.376,7.795
			c-3.434-0.086-13.717-5.698-10.318-14.555c1.206-3.142,3.347-4.217,5.839-6.447l7.786-6.969c3.219-2.881,6.504-5.565,9.046-9.021
			c0.844-1.148,2.638-1.349,3.379-2.565c2.386-3.916,5.095-7.118,8.79-9.118c1.93,0.69,3.722-0.198,5.405-2.334
			c-0.726-0.355-1.543-0.678-2.405-0.839c0.896-1.306,2.868-0.762,4.258-1.739c6.76-4.754,11.133-12.446,18.248-16.705
			c4.687-2.805,8.65-5.196,12.611-9.578c14.509-16.053,12.819-11.103,20.156-16.523c2.883-2.13,4.583-2.468,6.431-6.112
			c1.172-2.311,6.079-3.391,8.223-5.446l15.143-14.507c1.859-1.781,5.65-2.053,7.526-3.991l11.63-12.014
			c1.956-2.02,3.972-1.187,5.602-2.696L697,747c0.144,0.819,0.329,2.189,1.462,1.766c-2.544,0.952,6.753-3.511,6.627-5.76
			c-0.092-1.651,0.52-2.541,1.635-2.927c1.023-0.354,3.511,0.541,4.132-0.095c5.403-5.534,10.619-10.787,16.18-15.844
			c1.022-1.936-1.327-5.195-0.689-6.757c1.398-3.424,5.383-4.715,7.201-7.8c1.01-1.713,1.151-6.453-0.323-7.667
			c-2.014-1.658-4.352-2.712-3.18-5.814c1.341-3.549-1.592-4.433-2.642-6.408c-3.163-5.948-7.183-10.569-10.721-16.408
			c-9.167-15.132-0.495-8.56-7.797-17.931c-1.966-2.523-5.153-16.187-11.191-21.155c-0.827-0.681-0.37-3.936-1.315-4.281
			c-4.108-1.286-2.026-5.876-3.27-7.492c-1.714-2.226-3.46-3.663-3.602-7.526c-0.076-2.065-4.501-3.694-3.436-7.085
			c0.952-3.031-1.682-4.58-3.447-6.488l0.039-4.355c0.007-0.745-3.099-1.727-3.029-2.635c0.311-4.018-6.774-12.178-6.997-14.545
			c-0.42-4.462-7.379-14.83-7.692-16.045c-0.794-3.08-2.813-6.469-3.156-8.721c-0.61-4.012-2.204-6.168-3.426-9.055
			c-2.223-5.251-4.346-9.547-7.888-14.289c-1.455-1.948-0.484-5.72-3.462-7.907c-2.273-1.669,0.058-6.78-1.573-8.975
			c-1.848-2.487-2.839-4.407-3.335-6.874c0.29,0.124,0.633,0.368,1.57,1.062c-0.055-3.152-1.996-5.216-4.505-6.7
			c-3.981-2.355-4.251-6.618-4.382-11.181l-3.975-5.259c-9.017,5.682-2.487,12.496-5.486,16.674
			c-1.696,2.362-4.426,3.289-3.547,7.513c1.252,6.018-0.445,11.546-2.703,16.947c-3.561,8.516,2.269,14.898-3.732,22.29
			c-1.578,1.944,0.756,6.118-0.7,8.402c-2.234,3.507-4.482,6.583-3.726,11.114c-1.071,1.016-3.061,1.355-3.633,2.49
			c-1.376,11.086,0.984,22.268-0.969,33.191c-0.403,2.252-3.62,4.066-2.532,7.724c3.2,10.757-5.589,7.32-3.859,13.776
			c2.185,8.156-6.48,6.951-3.577,22.882c-0.216-1.183-7.1,23.844-6.767,19.575l-1.251,16.012c-0.209,2.678-4.413,4.24-3.135,8.054
			c1.536,4.583-4.371,3.6-3.781,13.679l0.855,14.592c0.382,1.395,3.102,3.831,4.234,4.682c12.252,2.37,12.768-1.53,13.265-1.685
			c6.911-2.159,13.941-1.738,21.28-1.765c4.698-0.017,9.175-1.98,13.735-1.61c1.662,0.135,3.183,0.153,4.216-0.384l14.187-0.289
			l16.814,0.469c2.121,0.059,2.169-2.02,2.999-2.18c1.568-0.302,3.159-2.651,5.102-2.716c6.189-0.207,12.713-1.022,18.622,0.241
			c7.587,1.622,4.204-2.454,19.103,0.028c2.139,0.356,1.731,7.253-0.65,7.315c-6.996,0.182-14.168,0.547-21.082-0.238
			c-4.866-0.552-7.565,3.623-11.136,3.706l-48.77,1.138c-2.843,6.753-20.858,1.854-34.654,4.215
			c-2.775,0.475-4.797,2.651-8.581,2.866c-4.422,0.252-11.104,5.187-12.508,9.195c-1.218,3.477-5.344,14.148-7.096,15.727
			c-1.089,0.981,0.227,4.798-0.939,5.65c-3.884,1.56-2.395,5.274-3.935,7.513c-3.302,4.803-5.812,13.722-7.428,18.741
			c-0.608,1.887-3.081,5.305-3.669,7.108l-3.194,9.789c0.54-1.655-6.765,12.36-8.038,19.114c-0.36,1.912-3.741,4.385-2.147,7.349
			c-1.17,1.29-3.226,1.432-3.571,2.367c-0.46,1.248-0.857,3.661-0.457,4.654c1.639,4.068-2.633,4.409-3.187,6.478
			c-0.774,2.891-2.509,5.373-3.304,7.77c-1.035,3.12-1.086,4.818-3.557,7.08c-1.645,1.505-2.643,4.565-4.236,6.516
			c-2.031,2.488,0.547,6.798-1.006,9.205c-1.499,2.324-3.814,3.586-2.703,7.243c0.96,3.159-1.165,4.31-3.2,5.96
			c-1.354,1.098,0.836,5.289,2.984,5.091c1.959-0.18,3.21,0.932,3.787,1.909c0.577,0.978,0.374,2.175,0.075,3.457
			c-1.77,7.586,9.266,3.647,7.184,10.789c-0.625,2.145-2.26,3.318-4.933,3.7c-3.262,0.466-4.495,4.427-6.976,5.942
			c-5.183,3.166-9.245,7.156-13.983,10.943l-4.104,3.28c-7.513,6.005-22.775-11.69-27.657-17.198
			c-2.225-2.511-5.06-1.51-7.177-3.404l-7.895-7.062c-4.74-4.24-10.069-8.081-13.11-13.399c-0.717-1.253-3.114-3.914-4.46-4.298
			c-7.325-2.088-16.064-9.715-21.862-14.312c-2.493-1.977-5.266-2.639-7.633-5.721c-1.557-2.026-5.056-3.49-7.104-5.461
			c-1.234-1.188-4.321,0.193-5.037-1.674c-0.587-1.53-1.093-3.316-1.004-5.596c-1.795-1.423-4.153-0.654-6.116-1.584
			c-3.416-4.813-7.988-7.63-12.799-10.624l-12.187-7.583c-3.987-2.481-6.779-7.94-10.877-9.69c-2.717-1.161-4.142-0.846-6.032-3.504
			c-1.93-2.715-5.452-4.469-7.05-7.832c-1.541-0.538-3.984,0.277-5.396-0.6c-4.839-3.935-8.216-10.049-13.822-12.927l-6.585-3.38
			c-3.799-1.95-5.272-4.664-7.486-7.679c-1.206-1.642-6.507-0.068-6.524-3.596c0.927,0.22,1.452-1.107,0.616-1.531
			c-6.67-3.379-12.567-10.792-13.382-7.467c-1.127-1.164-3.984-2.977-4.661-4.379c-1.324-3.338,0.374-6.1-2.922-7.927
			c-2.181-1.209-4.506-2.651-7.633-1.509c-2.962,1.082-3.793-2.095-5.42-2.54c-10.166-2.78-2.297-1.997-11.293-6.912
			c-4.366-2.386-8.725-5.097-11.662-9.352c-4.414-6.393-5.1,1.997-19.758-16.293c-2.643-3.298-3.57-10.343-6.455-15.334
			c-1.146-1.983-2.625-3.531-3.69-5.435l-13.045-23.309c-1.223-2.186-2.77-3.347-3.701-6.407c-0.746-2.451-5.096-4.285-1.99-8.17
			c-9.429-6.798-7.078-7.732-8.371-10.323c-2.469-4.945-8.802-7.073-10.633-12.115c1.08,0.129,1.404-0.897,1.364-1.533
			c-0.193-3.04-2.955-3.865-2.623-3.891c-0.331,0.026-0.275,1.335-0.534,1.389c-1.12-2.048-2.592-3.934-4.991-5.114
			c0.108-7.834-3.527-4.842-4.216-8.852c0.526-0.128,1.342-0.253,1.466-0.723c0.423-1.602-2.017-2.634-3.144-5.295
			c-0.162,1.702,0.118,2.833-0.175,4.021c-1.393-0.871-1.08-2.83-1.492-4.65c-0.331-1.46-3.173-2.464-3.068-3.612
			c0.313-3.439-2.017-4.277-3.197-6.094l-10.172-15.674c-8.995-13.86-4.774-2.475-12.423-18.558l-3.272-6.881
			c-5.404-11.363-4.855-3.741-8.523-12.534c0.803-0.023,2.429-0.474,1.759-1.955c-0.962-2.127-2.948-3.499-4.759-4.045
			c0.085-0.39-0.14-0.895,0.031-1.252c1.348-2.8-3.183-4.784-4.035-7.615c-0.773-0.826-1.513-1.058-1.632-0.371
			c-0.101,0.58-0.568,0.849-0.259,1.233l-2.44-3.718c-2.226-3.392-6.314-5.708-6.789-10.302l-13.838-14.995
			c0.112-12.161-0.63-3.455-4.665-11.549l-5.851-11.737c-1.023-2.051-2.108-2.782-4.36-3.067l-0.231-17.636
			c-0.013-1.019,0.848-1.067,1.147-0.801c0.222,0.198,0.63,0.696,0.923,0.81c-0.041,0.644-0.247,1.806,0.547,2.131
			c0.874,0.358,1.546-0.623,2.07-1.396c0.573-0.845,0.641-2.002-0.105-2.397c-0.444-0.235-1.066-0.206-1.513-0.339
			c0.343-0.293,0.583-0.8,1-1c0.149-0.072,7.498-7.452,3-7c0.984-1.165,1.904-2.353,3.529-3.534
			c1.319-0.958-0.168-3.999,0.964-5.072c3.196-3.03,6.458-5.861,8.602-9.387c-0.323,0.378,0.355,1.156,0.568,1.539
			c0.252,0.453,4.41-3.767,2.295-6.248c1.533-2.521,4.078-4.858,5.373-7.797c3.969-9.012,2.446-2.145,6.595-9.624
			c3.292-5.934,7.381-10.924,12.757-15.21c0.707-5.397,0.3-2.318,4.006-10.044c3.108-6.478,10.195-10.176,13.908-15.786
			c1.572-2.375-0.12-5.916,4.033-7.362c6.729-2.343-2.924-6.385,15.916-22.782c2.201-1.915,2.39-2.616,2.675-5.834
			c0.266-3.001,5.789-4.704,6.316-7.123l1.105-5.062c5.158-3.795,7.826-9.099,11.295-14.067c3.359-4.811,8.296-8.275,10.774-14.199
			c1.91-4.567,7.912-7.082,9.569-11.913c0.684-1.994,2.805-4.108,3.15-5.571c2.876-12.199,7.092-5.14,9.18-15.445
			c0.575-2.837,4.815-4.429,5.818-6.905c1.101-2.719,2.556-4.548,4.141-6.92c0.986-1.475-0.074-3.753,1.433-4.655
			c0.495,1.186,0.248,2.259,0.338,4.076l2.939-4.504c0.349-0.534,0.168-1.396-0.141-1.672c-0.236-0.211-0.741,0.123-1.136,0.1
			c-1.126-2.069,2.954-2.576,3.222-3.806c3.068-14.085,9.864-19.107,22.869-26.388c3.075-1.721,9.417-7.616,15.763-10.477
			c4.191-1.889,7.672-6.497,11.377-9.337c0.423,2.342,3.441-0.435,6.593-2.602c-1.402,0.604-1.878-0.221-2.8-0.306
			c0.973-0.746,2.939-1.05,4.033-1.933c2.756-2.224,4.14-5.056,7.09-6.232c2.018,1.737,4.469-0.156,6.273-2.151
			c-0.838-0.181-1.495-0.697-2.42-0.768c4.884-3.942,11.503-6.264,16.115-10.683c3.16-3.028,5.626-4.358,9.296-6.169
			c6.398-3.156,8.565-13.397,25.387-17.697c3.211-0.785,4.924-6.145,8.21-7.285c1.399-0.486,3.383,0.426,3.879-0.78
			c0.348-0.847-0.009-2.268,0.257-3.201c1.276-4.465,7.391-4.814,9.569-7.251c2.492-2.788,3.845-2.416,7.4-3.534
			c3.685-1.665,7.732-10.14,13.941-10.829c2.79-0.31,4.459-5.237,6.986-6.373c9.937-4.47,10.584-6.915,17.908-14.291
			c5.444-1.664,14.393-9.906,16.386-10.522c4.134-1.277,6.673-6.014,10.254-7.416c3.095-1.212,4.623-2.409,7.103-4.153
			c2.28-1.603,5.092-0.887,7.431-3.66c0.896-1.062,11.314-10.87,14.023-15.031c5.516-0.287,12.607-0.211,17.876,0.072
			c-0.103,1.54-1.005,2.492-0.927,3.275c0.126,1.272,2.346-0.177,3.062,0.268c4.122,2.564,6.682,6.614,10.607,9.517
			c1.891,1.398,5.021,0.555,6.805,2.204c3.921,3.625,8.781,6.781,11.857,10.898c2.096,2.806,3.585,1.965,6.627,3.267
			c2.855,1.222,5.759,5.551,8.399,7.825c2.243,1.931,4.519,1.317,6.489,3.129l10.649,9.793c1.94,1.784,5.174,1.1,7.108,3.974
			C566.355,118.81,568.937,120.3,571,122z M384,247.108c7.124-3.219,17.831,1.449,17.134-3.108c1.352-2.016,4.859-3.926,7.701-3.066
			c5.046,1.528,7.85-1.943,11.63-3.148c7.688-2.45,23.621,1.411,28.535-2.7l16.008-0.085c1.835-0.01,3.199-0.892,3.992-2.002
			c16.672-6.868,10.643,1.112,31.06-6.765c2.875-1.109,14.766,0.88,17.94-2.235l20.984,0.121c2.11,0.012,2.893-1.732,4.016-2.121
			c1.558-0.54,3.471-0.114,5.018-1.978c1.165-1.404,4.579-0.258,5.683-1.395c3.455-3.558,0.997-8.587-1.785-11.782
			c1.209-1.681,1.206-4.415-0.6-5.973c-0.379-0.327-1.288-0.476-1.649-0.584c-0.249-0.074-0.256,0.458-0.412,0.78
			c-2.306-1.106-8.777-13.063-10.014-16.08l-3.126-7.625c-0.773-1.886-3.434-2.862-4.128-6.053
			c-1.062-4.883-11.139-11.536-10.159-14.187c1.778-4.811-1.345-7.231-2.766-10.925c-1.133-2.944-1.508-5.32-3.138-7.887
			l-7.469-11.756l-3.681-8.249c-0.996-2.232-1.547-4.489-4.552-5.597c-0.923-1.443,0.592-5.695-0.667-6.731
			c-3.826-2.622-2.327-6.409-3.646-9.232c-1.089-2.332-1.983-5.192-3.752-7.213l-7.704-8.803
			c-5.191,6.542-11.304,10.731-15.313,17.247c-1.054,1.714,0.288,5.687-3.529,5.624c-2.404,10.484-0.147,0.809-5.134,11.946
			c-2.135,4.769-7.202,7.564-10.173,11.237c1.9,4.149-4.825,7.961-6.671,10.709c-4.998,7.438-4.032,12.206-10.671,17.673
			c1.296-1.067-12.788,13.201-11.268,11.389c-1.47,1.753-1.156,5.641-3.954,7.231c-3.69,2.096-3.009,5.717-4.622,8.571
			c-0.929,1.644-2.066,5.202-3.341,6.493c-3.389,3.433-5.356,8.391-7.994,11.863c-2.141,2.818-23.684,29.789-23.266,27.589
			l-1.408,7.415c-0.581,3.058-3.935,5.17-7.135,7.829l4.403,3.903C376.719,249.527,381.362,248.3,384,247.108z M633,233
			c3.952,3.821,3.148,1.322,12,2.1c4.978,3.848,14.226,0.521,19.388,2.517c1.296,0.501,1.324,2.982,2.16,3.571
			c3.247,2.291,7.956-0.916,15.191,2.336l2.794-1.49c0.887-0.473,9.389,5.343,9.2,5.239c4.964,2.755,10.081-2.449,16.324,3.872
			c4.192,0.304,8.387-0.619,13.237,0.539c-1.876-4.636-6.083-5.131-7.294-8.684c-0.14-0.411-0.64-0.787-1-1
			c-0.26-0.154-0.706,0.087-1,0c-0.364-0.866-0.978-1.6-1.837-2l0.089-1.005c0.186-2.093-2.528-2.087-4.252-3.042
			c-2.935-1.625-4.942-4.384-8-4.953c-0.316-0.059-0.694,0.092-1,0c-0.351-0.932-1.068-1.649-2-2
			c-0.084-0.3,0.172-0.691,0.139-1.005c-1.46-3.328-5.485-6.277-9.139-5.173c-2.038-1.192-3.785-3.5-6.209-4.609
			c-6.413-2.933-10.214-8.314-15.539-12.57c-1.979-1.582-5.922-1.034-7.883-4.381c-1.211-2.068-3.424-4.014-6.562-3.137
			c-4.214-5.357-9.617-9.441-16.035-11.771c-2.127-4.335-6.668-6.184-9.388-9.636c-2.196-2.787-4.765-3.423-7.295-4.833
			l-7.075-3.943c-3.025-1.686-6.258-4.968-8.259-7.41c-2.233-2.726-4.203-1.591-6.522-2.989c-5.571-3.36-9.409-10.066-14.842-13.884
			c-5.378-3.78-11.279-6.129-15.399-11.694c-1.479-1.997-3.202-6.204-6.055-6.519c-2.898-0.32-4.223-1.844-6.411-2.796
			c-4.676-2.035-8.949-3.797-12.043-8.206c-2.28-3.248-5.827-5.531-8.405-8.43c-2.74-3.081-5.519-5.089-9.16-7.003
			c-3.283-1.726-5.606-5.327-9.023-6.748c-1.673-0.696-3.541-0.347-3.917-1.822l-1.303-5.104c-2.63-0.743-5.784,0.032-8.594-1.521
			c0.266,3.135-0.863,6.491,0.154,9.075c3.932,4.34,12.461,12.36,9.99,19.213c5.801,2.271,4.674,7.85,10.949,14.14
			c0.506,0.507-0.203,2.441-0.107,3.145c0.175,1.29,2.639,1.307,3.109,2.449c1.265,3.071,2.049,6.74,5.008,8.923
			c3.313,2.446,6.99,13.978,7.5,14.577c2.715,3.186,7.877,15.697,6.839,14.168c2.992,4.41,6.404,7.673,8.247,13.057
			c0.59,1.726,8.731,18.543,10.584,21.054c1.313,1.779,3.536,2.267,2.782,5.328c-1.352,5.487,8.222,9.627,12.132,10.989
			c1.719,0.599,3.183,3.086,5.623,2.236c5.63-1.962,8.951,2.846,13.188,4.321c2.436-0.077,16.962-0.964,18.11,0.375
			C622.54,234.266,625.624,225.869,633,233z M467,90v-1c0.863-0.121,2.009-0.823,1.687-1.406c-0.653-1.184-0.784-2.25-1.398-2.476
			c-0.832-0.306-7.355,2.456-7.44,4.514c-0.068,1.651,0.674,5.54,2.776,5.144C462.169,94.862,469.974,91.464,467,90z
			 M449.748,96.955c-0.053,0.289,0,0.613,0.011,0.908c-4.229-0.747-5.934,1.532-9.389,3.416l-6.495,3.543
			c-1.989,1.085-4.049,2.231-3.242,4.841c-0.191,0.127-0.531,0.03-0.753,0.11c-0.786,0.612-1.494,1.317-2.108,2.102l-0.113,0.753
			c-3.925-0.626-6.351,2.221-8.92,5.199c-2.232,2.587-6.121,3.557-7.004,6.875l-0.822,0.097c-0.44,0.052-0.831,0.675-1.105,1.11
			c-0.128,0.204-0.064,0.572-0.095,0.819c-6.541,2.499-14.137,6.223-16.714,13.165l-1,0.013c-1.065,1.738-3.807,1.74-4.121,4.021
			c-0.037,0.272-0.05,0.567-0.052,0.843c-4.793,0.055-9.212,2.828-11.147,7.197c-0.109,0.245,0.054,0.638,0.042,0.913
			c-4.703-0.793-8.409,2.309-10.961,6.071l0.003,0.908c-6.547-0.74-9.854,3.455-13.095,8.727c-0.258,0.017-0.526-0.043-0.785-0.039
			c-2.759,0.595-4.442,4.047-6.939,5.082c-3.655,1.515-4.817,3.256-6.866,6.514c-1.6,2.545-5.745,3.516-6.126,6.695
			c-0.234-0.084-0.702-0.052-0.934,0.034c-0.466,0.172-0.903,0.617-1.113,1.063c-0.109,0.232-0.025,0.598-0.037,0.858
			c-5.724,1.21-7.204-0.915-9.341,4.822l-0.643-0.016l-11.244,8.047c-0.225-0.065-0.52,0.132-0.759,0.115
			c-3.109,4.188-7.884-0.448-8.882,7.236c-0.319,0.048-0.69-0.086-1,0c-0.463,0.128-0.927,0.504-1.092,0.963
			c-0.096,0.266-0.023,0.623-0.037,0.908c-14.726,1.675-0.42-0.263-16.496,10.506c-4.7,3.149-10.909,5.018-13.61,10.738
			c-1.682,3.562,1.902,8.087,5.139,9.129c6.426,2.068,13.467,1.064,20.094,0.942c3.186,1.893,6.1,3.56,9.669,3.601L329,246.105
			c7.463,2.812,15.977,2.298,24.626,1.315c2.159-1.02,11.361-11.352,10.914-11.069c1.293-0.817-0.24-3.771,0.857-5.016
			c1.968-2.233,5.815-4.112,6.431-7.277c0.538-2.763,1.135-5.179,3.779-6.314c3.93-1.688,3.54-5.55,5.259-8.179
			c2.23-3.41,6.697-6.056,7.292-10.485c0.246-1.829,5.08-4.71,7.094-11.01c0.907-2.836,5.447-4.525,6.114-7.526
			c1.586-7.136,8-11.578,9.978-14.098c1.863-2.372,1.863-6.227,5.3-7.785c3.124-1.416,2.705-4.941,4.063-7.051
			c2.589-4.02,5.715-7.386,8.433-11.464l4.322-6.483c2.873-4.309,5.688-7.628,7.952-11.622l5.687-10.035
			c0.169,5.839,8.623-9.963,9.732-11.27c-2.323-2.737-3.063-7.422-5.971-5.492C450.372,95.569,449.903,96.107,449.748,96.955z
			 M538.084,230.866c-0.161,0.315,0.033,0.798-0.084,1.134c-4.809,2.508-18.097-0.376-24.561,1.942
			c-2.629,0.943-3.508,3.34-7.527,3.324c-7.34-0.03-15.568-1.319-22.771,0.228c-3.514,0.755-5.442,4.277-10.336,2.792
			c-4.713-1.43-10.472,0.277-13.927,3.595c-6.459,0.964-13.271-1.117-19.552,0.847c-3.846,1.202-6.468,3.768-11.481,3.437
			c-1.448-0.096-3.16,4.173-5.629,2.423c-0.846-0.6-2.057-1.212-2.741-1.591c-1.495-0.829-2.527,1.659-3.88,1.681l-29.544,0.473
			c-3.531,0.057-5.617,0.995-7.635,2.806c-3.606,3.237-2.9,9.826-1.19,8.912c0.289-0.155,0.569-0.508,0.774-0.869
			c1.357,1.081,3.665,0.416,5.047,1.827c4.896,4.998,10.52,8.864,14.909,14.208c2.095,2.551,3.314,3.178,7.072,3.24
			c4.059,3.025,4.707,7.35,10.752,7.038c1.845,3.429,5.547,5.158,7.643,8.103c1.79,2.516,3.702,1.972,6.033,3.34
			c3.234,1.899,7.238,5.275,9.126,8.362c1.661,2.716,4.734,0.82,6.202,2.131c7.269,6.488,13.42,13.24,22.091,18.2l7.601,4.348
			c2.759,1.578,4.582,5.777,8.014,6.68c3.016,0.794,3.239,4.536,5.188,5.809c2.194,1.433,4.784,0.824,6.818,3.362
			c1.767,2.205,5.346,3.488,7.883,5.156c5.567,3.661,9.097,9.419,14.129,13.845c1.568,1.379,4.425,0.56,5.493,2.35
			c-0.459-0.042-2.095,0.237-2.066,0.971c0.327,0.839,8.49,8.258,7.793,4.958c2.742,0.549,4.788,3.088,6.318,5.318
			C527.667,379.75,549.796,395.344,546,390c3.169,2.801,7.261,5.034,9.905,8.979c0.629,0.939,0.942,2.386,1.811,2.914
			c0.786,0.477,3.146-1.028,3.935-0.472c1.715,2.457,3.719,4.74,7.355,3.511c6.596,6.403,12.481,12.773,19.211,18.877l6.124,5.554
			c4.888,1.897,10.373,0.947,14.365,5.235c2.668-5.196,1.663-9.421-1.491-12.676c-2.038-22.099-3.72-5.14-5.661-24.05
			c-0.244-2.374-3.96-4.156-2.62-8.064c0.812-2.368,0.03-6.248-1.602-8.148c-6.408-7.46,3.214-10.001-4.785-18.216
			c-2.844-2.92-0.503-7.943-1.894-11.23c-0.941-2.224-3.417-2.943-2.815-6.233c1.159-6.325-0.828-12.538-3.569-18.181
			c-1.17-2.41,0.98-6.079-0.917-8.114c-1.711-1.835-4.489-3.441-3.356-6.604c1.278-3.567-1.423-5.057-2.439-7.406
			c-1.826-4.22,0.951-9.63-1.424-13.851c-6.85-12.173,0.198-10.561-5.061-17.902l-0.017-11.004c-0.002-1.091-0.52-1.617-1.057-1.917
			c-7.836-4.383-1.103-11.318-5.84-21.274c-1.225-2.574-2.979-4.83-2.16-7.726c0.148-0.51,1.079-0.757,0.794-1.358
			c-0.415-0.873-1.78-0.635-2.205-1.068c-3.854-3.932-8.26-3.84-13.317-3.328C543.29,226.649,540.057,226.999,538.084,230.866z
			 M663.775,389.208c2.688-2.967,6.031-5.258,7.953-8.24c1.857-2.881,3.218-5.59,5.204-8.114c2.833-3.602,6.932-6.646,9.239-10.35
			c1.525-2.449,0.834-4.618,3.771-6.926c3.267-2.567,7.968-6.646,10.112-10.415c3.378-5.938,7.368-10.195,11.412-15.274
			c5.585-7.015,10.309-14.378,17.385-19.866c3.949-3.063,6.114-8.312,11.093-11.241c3.23-7.907,9.038-13.744,15.75-18.911
			c-1.591-9.551,0.221-6.153-9.195-12.759c-4.411,2.199-8.348,0.911-10.304-3.034c-6.333-1.026-13.044,1.373-18.765-0.773
			c-4.362-1.636-8.013-4.999-13.488-3.102c-3.36,1.164-4.916-2.558-7.005-2.698l-15.641-1.047c-2.061-0.138-3.193-4.452-6.201-3.566
			c-4.439,1.307-7.183-2.872-10.849-3.19l-14.745-1.281c-2.467-0.214-4.168-3.482-7.464-2.511c-4.665,1.374-7.767-2.147-11.14-3.412
			c-3.088-1.158-5.963-0.387-8.809-2.553c-5.801-4.417-14.268,2.773-16.37-8.899l-24.959,0.008c-2.489,0.001-7.33,5.521-5.525,7.329
			c2.635,2.64,2.111,4.681,3.262,7.359c1.985,4.619,4.814,8.553,3.385,14.359c-1.59,6.462,4.159,2.963,3.246,15.709
			c3.82,2.39,4.289,5.969,3.836,10.325c-0.243,2.343,3.695,4.032,3.313,6.266c-0.608,3.557,2.866,5.229,3.216,7.555
			c0.997,6.63,0.553,13.496,0.215,19.99c-0.078,1.504,7.804,23.322,7.662,21.488l1.244,16.023c0.167,2.146,3.267,3.441,2.539,6.497
			c-1.308,5.49,1.3,9.724,3.482,14.133c1.81,3.659-1.199,9.069,0.895,12.328c7.835,12.193-0.441,14.416,6.222,26.806
			c0.697,1.296-0.462,4.218,1.062,4.968c7.407,3.649-0.926,5.325,5.856,13.008c1.724,1.954,2.109,3.296,4.867,2.998
			c2.991-0.323,1.766-2.679,2.743-5.056c1.971-4.793,11.054-9.871,17.599-24.116c2.537-5.521,7.367-8.62,10.685-13.339
			C661.726,394.031,661.791,391.398,663.775,389.208z M251.798,248.73c-0.228-0.117-0.607,0.139-0.864,0.084
			c-10.026,7.617-3.509,5.323-9.752,12.358c-2.575,2.901-3.706,6.064-4.531,9.427c-0.24-0.076-0.524,0.019-0.774-0.024
			c-2.018,0.653-1.889,3.335-3.243,4.979l-8.582,10.426c-3.179,3.863-5.162,8.575-8.973,12.211
			c-2.638,2.517-4.118,5.448-3.078,8.809l-0.992-0.118c-2.841-0.338-4.425,6.204-7.073,9.18c-3.395,3.816-6.735,7.797-7.194,12.663
			c-0.27-0.034-0.551,0.093-0.824,0.089c-1.481,0.919-2.215,2.533-2.916,4.076c-0.305,0.071-0.687-0.012-1,0.016
			c-0.444,0.04-1.085-0.099-1.454,0.155c-0.369,0.254-0.824,1.195-0.616,1.787c1.149,3.269-1.695,4.303-2.54,6.274
			c-3.841,8.958-3.844,1.134-10.422,13.852c-0.069,0.312,0.147,0.732,0.031,1.026c-1.632,0.786-4.229,0.737-4.105,3
			c0.018,0.329,0.008,0.673-0.026,1c-0.836,0.378-1.492,1.037-1.869,1.874c-0.323,0.058-0.686-0.07-1,0.024
			c-0.54,0.161-1.118,0.483-1.092,1.102c0.014,0.333-0.05,0.666-0.013,1c-1.507,1.079-0.855,3.243-1.021,4.874l-0.908,0.034
			c-1.593,0.766-2.262,2.455-2.966,3.99c-0.302,0.083-0.716-0.117-1,0.01c-0.456,0.205-0.895,0.63-1.092,1.092
			c-0.123,0.287,0.055,0.691-0.01,1c-0.844,0.377-1.514,1.032-1.898,1.874c-0.298,0.033-0.74-0.021-1,0.024
			c-0.36,0.062-1.458-0.199-1.681,0.405c-0.842,2.282-0.139,4.515-0.453,6.564l-0.903,0.037c-4.102,4.068-9.281,9.403-11.236,14.808
			c-0.272-0.009-0.544,0.085-0.816,0.095c-2.735,3.844-4.506,8.259-8.52,11.47c-0.654,0.524-0.114,2.176-0.43,2.519l-0.937,0.063
			c-2.489,0.167-1.711,3.733-3.12,5.257c-1.699,1.837-3.894,3.188-2.904,5.885l-0.995-0.11c-5.807,2.39-10.34,13.266-13.334,16.028
			c1.107-1.021-7.766,15.237-1.671,12.082c5.321,1.878,9.981-7.627,14.771-10.127c11.129-5.808,12.046-1.544,12.378-8.664
			c0.154-3.306,4.027-2.184,5.748-3.411c5.5-3.921,9.114-10.321,14.974-13.657c7.155-4.073,13.442-9.292,18.315-15.907
			c2.02-2.742,4.296-2.166,6.579-3.72c5.349-3.642,10.917-8.49,15.21-13.369c2.276-2.587,4.613-2.484,6.774-4.496L230,357
			c0.12,0.566,0.346,1.205,0.773,1.469c1.103,0.683,5.307-3.137,5.227-4.469c1.311-0.759,2.114-2.079,3.262-3.021
			c1.896,3.603,10.882-7.04,11.738-7.979l7.123-7.818c2.459-2.699,5.651-2.504,8.015-4.157c2.048-1.432,1.475-6.871,6.095-5.819
			c3.547-4.272,7.351-7.833,11.406-11.644c1.059-0.528,2.73,0.617,4.193,0.354c1.921-3.389,4.672-5.645,7.168-7.915
			c-1.506,5.446,13.349-7.257,13.374-7.452c0.1-0.783-0.317-1.682-1.374-1.548c3.073-3.145,6.501-5.923,9.997-8.994
			c3.202-2.812,5.628-7.164,10.901-7.242c3.112-5.921,9.697-7.051,14.375-11.463l8.808-8.307c-0.45-1.643-2.307-5.325-4.499-5.445
			l-18.149-0.988c-2.565-0.14-5.552-1.376-6.433,1.312l-1,0.024L320,256h-1c0.079-1.032-0.022-2.162-0.511-2.919
			c-0.708-1.097-1.901-1.432-3.305-1.476l-31.258-0.97c-2.905-0.09-4.606-4.314-9.141-3.064c-4.246,1.17-9.767,0.46-13.976-0.44
			c-1.081-0.231-1.497-2.008-2.464-1.984C258.936,245.132,249.306,249.335,251.798,248.73z M337.885,460
			c0.133,0.266,0.452,1.002,1.247,1.002l75.768,0.007c1.234,0,1.601-1.396,1.226-1.883c3.218-0.004,7.19,0.219,10.607-0.564
			c3.22-0.737,6.644-2.923,10.248-1.359c2.967,1.287,4.664-0.944,7.254-0.955l112.437-0.503c2.881-0.013,4.717-0.462,7.687-0.185
			c12.101,1.128,25.147,0.102,37.066,0.425c1.288-2.019,2.159-3.548,4.927-4.698c-5.953-4.588-10.339-11.442-16.937-15.824
			c1.048,0.696-12.727-4.626-14.06-6.994c-1.924-3.417-5.214-6.055-8.012-8.815c-2.212-2.182-3.826-2.718-7.095-3.109
			c-2.004-0.24-1.666-4.795-2.927-5.857c-3.246,0.168-5.356-3.302-7.346-4.043c-3.357-1.251-4.872-0.67-7.229-3.705
			c-1.801-2.319-5.126-5.092-7.823-6.688l-6.416-3.797c-2.886-1.708-5.469-4.691-8.359-6.39c-3.921-2.305-6.446-5.536-9.935-8.272
			c-3.937-3.088-9.231-4.284-12.086-9.028c-1.369-2.274-4.193-2.417-6.063-3.915l-15.974-12.804
			c-2.071-1.66-4.483-1.559-6.429-3.857c-6.595-7.786-7.753-9.283-15.335-11.838c-0.415-0.14-8.104-8.308-6.218-6.891
			c-0.605-0.455-2.365,0.824-3.132,0.486c-3.125-2.307-6.111-5.259-8.715-8.196c-1.927-2.172-5.203-2.046-6.618-3.377
			c-8.233-7.743-7.486-4.655-18.903-15.241l-16.56-15.355c-4.425-4.103-8.144-9.353-13.083-12.56
			c-1.682-1.092-3.901-1.473-5.168-3.389c-1.274-1.926-7.864-0.912-8.637,1.286c-1.328,3.777,1.197,10.003-1.849,13.236
			c-2.618,2.78-2.19,4.476-2.058,7.839c0.196,4.986-1.104,10.557-0.236,15.731c0.762,4.539-1.478,6.407-3.581,9.537
			c-2.035,3.027,0.576,8.099-0.727,11.516c-6.911,18.128,1.634,16.483-6.751,21.523c1.744,1.441,2.58,3.593,3.274,5.588
			c0.79,2.271-2.117,2.877-2.856,5.225c-1.937,6.159,1.074,13.248-1.209,19.124c-0.871,2.241-3.097,3.687-3.314,6.86
			c-0.216,3.166,0.857,7.248-0.6,10.145c-1.194,2.374-3.44,4.351-2.468,7.483c1.451,4.676-2.898,7.31-3.145,10.702l-1.634,22.403
			C339.774,445.004,335.577,455.384,337.885,460z M104.887,481c0.063,0.4-0.054,1.053,0.212,1.382
			c0.323,0.399,0.937,0.688,1.813,0.688l15.193,0.008c1.923,0.001,1.848-1.258,1.895-2.079c1.356-0.411,2.346-2.708,4.14-2.75
			l20.677-0.48l11.402-3.468l32.91-0.586c3.722-0.066,7.194,1.351,9.871-1.716l36.02,0.036c1.639,0.002,2.773-0.852,2.98-2.036
			c3.745-0.083,6.965-0.207,10.991-1.229c1.02-0.259,3.104,1.58,4.482,1.457c1.175-0.105,1.658-2.72,2.899-2.773l24.236-1.038
			c3.175-0.136,5.741-3.365,9.512-3.391l26.671-0.178c0.332-2.729,3.013-4.199,3.711-6.308c2.084-6.29-1.294-13.694,1.378-19.815
			c7.705-9.144-1.21-10.005,6.119-23.725c0.445-0.833,2.252-0.929,2.144-2.987c-0.309-5.889-0.124-11.481-0.042-16.935
			c4.173-3.667,0.116-13.935,2.963-18.027c7.257-10.433-1.194-11.744,5.818-22.662c-4.179-4.23-4.138-10.577,0.309-14.33
			c-0.546-4.245-0.209-8.284,3.657-10.437l0.677-16.451c1.973-1.447,5.084-3.639,3.325-7.111c-1.508-2.975,2.328-4.184,2.568-5.615
			c1.275-7.583,0.396-15.33,0.826-23.232c-2.908-0.059-6.277-1.443-8.011,0.191l-14.152,13.335
			c-4.053,3.819-7.131,6.818-10.89,10.654l-7.666,7.823c-2.293,2.34-5.437,2.566-7.213,4.225l-15.928,14.881
			c-1.845,1.724-3.734,2.183-5.842,3.394c-5.675,3.261-9.12,10.833-15.071,13.542c-2.849,1.297-4.689,1.952-7.198,3.905
			c-2.691,2.095-6.406,0.271-8.766,4.9c-1.58,3.098-6.378,7.889-9.547,9.315c-2.717,1.223-3.748,1.108-5.634,3.012l-11.875,11.987
			l-11.257,11.038c-1.561,1.531-6.409,0.488-7.731,4.121c-1.286,3.533-4.723,2.624-7.235,3.961
			c-3.178,1.692-5.581,5.805-8.886,7.944c-1.21,0.783,0.255,5.479-2.083,5.585c-3.556,0.162-4.923,2.093-7.322,3.924
			c-2.524,1.926-7.436,2.404-8.646,6.15c-1.981,6.135-6.72,10.164-12.563,12.618c-2.942,1.236-4.609,4.177-6.589,6.482
			c-0.094,0.11-5.666-0.029-18.921,15.079c-1.067,1.216-3.59,0.224-4.897,1.169c-5.093,3.682-8.541,9.472-13.958,12.901
			c-2.253,1.426-5.117,0.758-6.405,3.626C109.212,472.644,100.927,477.457,104.887,481z M716.882,458.997
			c0.165,0.422-0.01,1.021,0.269,1.399c0.527,0.715,14.978,1.861,12.849-1.396c5.588-3.811,0.526,0.026,12.874,0.126
			c-0.236,0.477-0.132,1.039,0.141,1.298c0.832,0.787,20.416,0.677,24.672,0.881c-0.818,3.109,9.014,3.857,11.915,1.061
			c2.877,3.601,6.833,2.067,10.68,1.865c5.098-0.268,17.866,2.543,17.707-2.796c-0.024-0.817-1.106-1.28-1.99-1.435
			c4.252-12.054-4.244-9.977-2.954-17.1c0.345-1.905-0.38-4.203-1.952-4.937c-0.53-2.725,0.696-11.604-0.711-12.834
			c-0.342-0.299-1.033-0.017-1.384-0.226c-5.594-3.331,0.275-2.417-6.421-13.348c-1.848-3.017,1.383-11.384-2.484-16.555
			c-0.858-3.001,1.666-15.256-2.094-14c0.128-1.72-2.365-2.707-2.526-4.413l-0.869-9.228l-4.491-8.454
			c-1.09-2.052-2.602-2.958-2.347-5.429c0.175-1.689,1.438-3.441,3.157-4.992c-2.306-1.076-4.895-2.986-3.925-6.454
			c0.881-3.151-2.2-4.425-2.435-6.565l-0.986-8.972c-0.378-3.444-4.22-5.998-3.594-10.606c0.37-2.72,0.198-6.232-1.867-7.882
			c-0.939-4.677,1.342-9.863-1.118-14.121c-6.494-2.237-1.841-4.423-7.465-4.986c-2.566-0.257-1.841,2.22-2.787,3.899
			c-4.612,8.189-12.777,13.203-18.555,20.428c-4.134,5.17-4.072,12.988-17.95,25.054c-2.253,1.959-2.809,3.724-3.952,6.415
			c-1.454,3.422-5.3,5.998-7.745,8.912c-1.766,2.105-1.503,4.473-3.124,6.265l-13.853,15.315c-1.788,1.976-1.76,4.357-3.813,6.705
			c-4.378,5.007-10.735,8.803-14.119,14.578c-1.527,2.605-0.673,4.717-3.657,6.752c-3.559,2.427-9.673,14.972-16.489,20.034
			c-2.556,1.898-1.911,3.759-3.177,6.153c-2.988,5.652-9.369,8.647-12.741,14.15c-1.389,2.266-0.275,5.008-1.357,8.18
			c4.204-1.053,6.896,3.83,10.147,3.852l65.632,0.442C714.528,456.05,716.102,457.008,716.882,458.997z M890.003,494.102
			c-0.333-0.495-2.393,0.298-1.972,0.935c2.372,3.593,8.261,3.062,10.982,0.151l-3.038-7.162c-0.993-2.341-0.077-4.971-2.476-6.812
			c-0.674-0.517-1.63-0.188-1.499,0.786l-8.057-7.998l-1.154-5.609c-4.244-2.227-4.825-6.74-8.036-11.064
			c-1.723-2.321-2.655-4.352-2.265-7.112c-10.315-6.338-6.558-7.525-7.842-9.173l-6.767-8.686c-1.598-2.051-1.925-5.276-4.319-6.749
			c-3.389-2.085-2.74-5.211-4.348-8.093c-0.885-1.587-2.395-4.846-3.708-6.087c-2.299-2.173-1.837-5.446-3.202-7.766
			c-2.656-4.518-8.785-7.246-9.919-12.823c-0.469-2.308-1.147-3.828-2.279-5.906l-6.012-11.036
			c-0.803-1.474-3.247-1.598-3.211-3.408c0.019-0.989,0.559-2.919,0.089-3.953c-0.588-1.292-3.213-1.924-2.97-3.537
			c-0.037-0.357-0.693-0.818-1-1c-0.219-0.129-0.721,0.075-1,0c-0.045-1.613-0.629-8.653-3.295-7.959
			c-0.325,0.085-0.446,0.483-0.487,0.932c-1.24-0.575-2.288-1.416-2.218-2.974l1.256-0.366c1.835-0.534-2.412-4.085-2.872-5.693
			l-0.284,3.053c-1.198-1.063-1.365-2.367-1.1-3.995c0.077-0.47-0.638-1.04-1-1.228c-0.252-0.131-0.71-0.031-1-0.15
			c0.377-1.886-9.471-17.021-9.005-16.745c-7.235-4.272-1.095-4.125-6.658-9.26c-1.395-1.288-1.837-3.09-3.839-2.788
			c-1.054,0.159-3.866,0.628-3.188,1.734l3.43,5.591c2.602,4.241-0.969,10.61,0.867,15.562c1.139,1.809,4.935,3.799,3.338,7.229
			c-1.566,3.365,1.912,4.671,2.334,6.462c0.947,4.014,1.481,6.702,4.125,10.051c2.123,2.688-0.778,8.263,0.927,11.062
			c3.163,5.19,3.239,9.787,4.347,15.53c0.427,2.212,2.373,5.739,3.157,8.323c1.108,3.652,4.45,5.951,3.188,10.795
			c-0.804,3.086,0.889,6.506,2.894,8.709c2.64,2.9-0.12,7.152,0.966,9.646c0.754,1.73,4.507,3.022,3.261,6.494
			c-1.381,3.848,3.112,4.878,3.302,7.289l0.901,11.476c0.276,3.518,3.107,6.195,4.01,10.19c2.088,9.24,25.146,13.793,34.066,17.97
			l6.217,2.911c2.243,1.05,4.358,4.625,8.014,3.32l3.285,4.048c3.547-1.633,4.832,1.587,7.257,2.369
			C884.495,492.331,888.81,492.543,890.003,494.102z M390.234,646.071c0.55,1.539,2.486,0.963,4.045,0.074
			c0.314-2.508,5.707-2.493,3.753-4.849c-0.924-2.096,1.206-2.67,2.459-3.748l8.041-6.916c3.7-3.182,6.146-7.023,9.75-10.407
			c5.003-4.698,10.215-8.289,15.67-12.293c3.901-2.864,7.004-7.135,10.358-10.533c2.108-2.136,5.496-1.59,7.052-2.976
			c5.043-4.491,8.869-9.61,14.579-13.632c2.473-1.742,6.981-3.535,8.011-6.563c2.398-7.051,1.01-3.024,11.047-9.229
			c0.144,0.485,0.261,1.204,0.737,1.394c0.421,0.168,12.135-8.718,11.928-7.977c0.115-0.413-0.433-0.934-0.73-1.3
			c0.673-3.747,5.031-5.522,7.851-8.299c4.311-4.245,7.736-10.021,13.468-12.284c7.191-2.839,8.746-8.08,12.324-9.911
			c3.094-1.584,5.81-1.837,8.169-4.914c4.32-5.636,10.061-9.446,15.942-13.054c4.21-2.583,6.646-8.185,10.815-10.141l6.145-2.883
			c-4.279,2.007,32.248-22.145,23.076-23.343c-7.006-0.915-14.189,0.354-20.959-1.038c-2.396-0.492-3.945-3.277-6.808-3.335
			c-6.172-0.124-12.456-0.177-18.488-0.486l-15.35-0.786c-6.334-0.324-12.704-3.854-18.467,1.298l-71.246,0.375
			c-2.327,0.012-3.266,2.094-5.96,0.201c-3.551-2.495-7.793,1.801-11.105,2.183c-1.749-0.192-4.514-2.402-6.619-1.915
			c-1.377,0.319-2.772,2.817-4.722,2.795c-2.461-0.028-2.552-4.537-3.196-6.69c-4.415,0.82-6.946,5.217-10.959,6.916
			c-2.894,1.225-5.633-2.49-7.4-3.699c-1.722,0.805-2.658,3.751-4.608,3.759l-47.501,0.21c-1.144,1.922-3.721,2.995-4.255,4.903
			c-0.069,6.016-0.658,11.842,0.313,17.673c0.422,2.534,3.73,4.674,3.315,7.473c-0.415,2.797-0.765,5.065,0.004,8.011
			c1.307,5.011-0.911,10.569,0.795,15.474c1.098,3.157,3.464,5.751,3.467,9.511l0.038,43.747c0.001,1.388,2.32,2.385,2.187,3.262
			c-0.373,2.466,0.571,4.501,0.597,6.964l0.349,32.618l2.393,11.254c0.667,3.137-0.007,5.173,0.879,8.287
			c0.674,2.371,2.034,23.773-2.148,25.141c2.639,0.532,3.823,7.71,7.397,8.334c1.21,0.211,3.516-0.522,4.263-1.742
			c2.044-3.34,5.183-4.667,7.786-7.042C376.223,659.101,382.429,651.384,390.234,646.071z M631.927,467.775
			c0.689-2.259-0.199-4.153-1.768-3.764c-2.074,0.514-2.574,2.431-1.431,3.901C629.409,468.787,631.231,470.056,631.927,467.775z
			 M746.108,676.045c0.406,1.174,0.204,2.288,0.204,3.951c1.019-2.552,3.704-3.856,3.103-5.114
			c-0.218-0.457-0.945-0.649-1.414-0.881c-0.881-4.648,0.357-8.13,3.425-11.467l1.165-13.939c0.216-2.585,3.277-4.208,2.436-7.677
			c-0.756-3.12,1.06-5.717,3.731-7.041c-0.619-7.97,5.946-8.689,4.206-13.751c-1.417-4.122,2.526-5.799,3.151-8.347
			c0.851-3.472-1.462-8.162,1.987-10.772c-0.29,1.128,0.678,1.322,1.541,1.064c0.546-0.164,1.636-0.803,1.487-1.782
			c-0.491-3.23,2.404-4.65,3.105-6.898c0.847-2.714,0.408-5.655,3.588-7.756c0.472-0.312,1.118-1.288,0.82-1.808
			c-0.291-0.509-1.087-0.656-1.643-0.824c-1.14-4.511,2.259-8.295,3.435-12.229c1.206-4.033,0.446-7.185,4.163-10.347
			c1.98-2.897-0.518-8.677,0.704-12.226l3.59-10.424c1.257-3.649,3.394-5.523,3.549-9.888c0.628-17.618-1.37-2.652,7.47-23.105
			c1.567-3.625,3.599-6.098,3.625-10.584c0.01-1.642,3.331-3.136,2.586-5.073c0.87-0.019,1.941-0.63,1.942-2.024l0.009-12.188
			c0.001-0.884-0.306-1.482-0.69-1.822c-0.353-0.312-0.942-0.102-1.385-0.214c-8.559-2.162-17.641,0.062-26.965-1.035
			c-1.38-0.162-4.006-0.97-5.267-0.22c-4.718,2.808-8.825-2.831-13.103-2.93l-46.563-1.075c-14.902-0.344-13.911-3.306-23.169-2.785
			c-3.722,0.209-7.069-0.075-9.758,2.963c-1.849-2.951-3.857-3.329-7.119-3.099c-9.651,0.681-19.565,0.425-29.091-0.115
			c-5.292,7.893-5.563-0.366-4.753,15.925c3.972,1.233,3.021,4.514,4.36,7.141c1.965,3.854,6.369,13.57,7.164,18.06
			c0.217,1.227,6.465,14.572,7.472,15.184c1.908,1.159,2.16,4.81,3.481,6.402c4.841,5.837,6.029,14.911,7.146,18.294
			c0.787,2.384,3.899,4.809,3.663,8.345c-0.036,1.631,2.471,4.784,3.531,6.019c2.755,3.212,6.195,14.215,7.819,18.624
			c0.921,2.502,3.508,4.428,3.795,7.103c0.228,2.132,12.369,26.384,14.354,30.415c0.792,1.608,4.832,2.624,2.948,5.865
			c-1.964,3.378,2.671,5.069,2.496,7.079c-0.25,2.865,7.87,14.985,7.787,14.758l3.134,8.526c1.327,3.609,5.879,12.256,8.149,14.228
			c1.848,1.605-0.939,6.464,0.957,7.813c2.22,1.58,1.782,4.798,3.157,6.004c2.555,2.243,3.409,4.541,4.555,7.637
			c0.77,2.037,7.374,1.717,8.339-0.224C746.211,684.375,743.417,677.311,746.108,676.045z M363.885,685
			c0.222,0.307-0.13,1.078,0.201,1.394c1.454,1.39,9.051,0.166,11.868,0.718c0.456,0.568,1.432,1.371,1.942,1.887l0.245,1.382
			c0.245,1.38,12.746,0.185,14.859,0.723c4.368,3.33,15.632,0.751,24,4.895c-0.057,0.912,0.454,2.073,1.893,2.074l16.065,0.017
			c0.457,0.887,1.498,1.568,2.496,2.861c18.687-3.601,20.869,2.331,29.446,3.521c2.13,0.296,4.202,2.736,6.1,3.526
			c5.624,2.34,11.998,0.349,18,1c2.672,1.868,6.555,2.439,9.907,1.935c3.951-0.594,5.689,3.294,8.557,3.543l13.05,1.134
			c1.895,0.165,18.257,7.937,23.495,6.249c8.219-2.649,0.254,6.804,19.785,3.886c-0.824-4.587,1.842-7.384,3.205-10.747
			c0.775-0.147,2.086-0.305,2.087-1.904l0.023-21.099c4.202-4.152-0.436-7.216,3.712-16.152c5.295-11.409-1.188-16.632,5.178-19.737
			c0.399-0.195,1.099,0.057,1.408-0.229c1.95-1.811-1.004-8.867,1.681-13.878c1.559-2.909,1.113-7.345,0.809-10.878
			c-0.487-5.647,3.244-8.88,3.672-13.529l1.023-11.096c0.127-1.382,1.87-2.362,2.406-3.496c0.56-1.184,2.107-1.797,2.088-4.042
			L593,589c4.683-6.443,0.072-14.726,2.863-22.41c0.892-2.455,4.523-4.032,3.18-7.603c-1.219-3.244,1.411-5.032,2.378-7.406
			c1.53-3.758,0.242-8.457,0.495-12.453c0.214-3.372,3.306-5.011,3.515-7.674l1.243-15.887c0.25-3.2,4.578-5.412,3.208-9.674
			c-0.671-2.086,2.04-3.222,2.309-4.735l2.571-14.458c0.994-5.586,2.017,6.361,2.346-10.992c0.022-1.176,2.127-1.044,3.381-2.907
			c-2.763-2.223-6.731-0.201-7.904,2.548c-1.737,4.071-4.617,2.588-7.354,4.252c-3.222,1.959-7.367,6.415-11.172,7.276
			c-1.246,0.802-3.694,3.549-4.178,5.006c-2.983,8.983-10.535,10.258-9.769,9.58l-15.632,13.835
			c-2.202,1.949-4.054,2.181-5.155,5.182c-1.408,3.835-6.684,4.436-9.234,6.602c-11.184,9.501-5.722,5.687-18.397,14.719
			c-2.688,1.916-5.187,4.927-7.615,7.299l-9.072,8.863c-2.924,2.857-6.284,3.641-8.983,6.11l-10.315,9.439
			c-2.248,2.057-5.332,2.689-7.765,4.491c-3.396,2.517-5.704,7.513-9.362,9.315c-14.467,7.126-18.928,17.301-26.784,22.49
			c-3.038,2.007-7.696,2.773-8.905,7.132c-0.35,1.262-0.454,2.572-1.109,3.457c-0.703,0.951-3.782,0.038-4.317,0.929
			c-2.011,3.35-19.684,13.37-22.202,18.527c1.587-3.251-24.044,18.125-21.695,17.645l-4.299,0.88
			c-5.84,6.245-11.477,12.366-18.246,17.618l-7.924,0.039C363.117,679.385,362.157,682.605,363.885,685z M253.974,607.205
			c-4.381-1.494,3.09,5.939,4.018,5.858c1.793-0.156,2.127,1.661,3.652,2.295c2.958,1.229,5.936,0.905,7.819,4.228
			c1.631,2.878,6.062,3.966,8.263,5.653c1.252,4.974,5.409,9.14,10.444,9.439c2.652,6.891,8.341,0.291,9.24,10.952
			c5.844-3.287,22.139,14.544,20.036,13.091l6.957,4.809c4.072,2.815,12.579,8.03,16.677,2.53c1.336-1.794,1.721-3.315,2.304-5.494
			c0.464-1.734-3.247-3.093-3.116-4.506c1.343-5.082-2.455-9.297-3.395-13.37c-2.487-10.768,1.309-32.275-2.776-39.688
			l-0.107-28.023c-0.005-1.183-1.468-1.173-1.99-0.98c-0.009-3.777,1.344-8.11-0.177-11.842l-2.581-6.335
			c3.175,7.793-4.086-56.181-4.022-46.122l-0.189-29.618c-0.062-9.78-33.757-2.993-29.972-4.941l-7.152,3.68l-30.735,0.229
			c-2.438,0.018-3.632,3.037-5.741,3.395c-4.547,0.773-10.635,1.28-15.138,0.043c-2.582-0.709-34.573,1.339-33.154,0.636
			l-5.319,2.636l-29.759,0.328c-3.313,0.037-6.764,2.024-10.034,1.738l-12.92-1.127c-5.255-0.458-10.554-1.455-13.984,3.437
			l-26.683,0.126c-2.184,2.582,0.578,6.035,2.571,7.628c6.686,5.345,9.843,13.14,19.909,13.244
			c-0.557,4.029,3.155,2.981,4.793,4.155c4.275,3.065,6.977,7.909,12.017,10.117c6.622,2.901,10.393,9.518,16.092,13.883
			c2.676,2.05,7.126,2.327,6.087,7.727l6.03,0.061c1.949,4.849,6.027,6.18,9.974,8.195c4.522,2.307,7.618,6.997,11.477,10.292
			c2.221,1.897,5.914,2.724,7.356,4.445c2.103,2.51,3.516,2.07,6.012,3.512l13.772,7.957c4.749,2.743,8.703,5.838,12.827,9.172
			c2.431,1.966,5.423,2.749,6.934,6.046c1.667,3.636,5.092,4.382,8.207,5.993C250.532,603.74,251.8,606.499,253.974,607.205z
			 M853,576c1.956,4.032,7.963-10.687,10.194-11.66c-1.308-0.505-1.644,0.662-2.314,0.668c7.114-9.17,21.06-20.629,24.21-26.008
			c-0.237,0.476,0.194,0.799,0.287,1.265c0.101,0.508,0.806,0.98,1.363,0.258c1.37-1.777,2.857-4.691,1.256-6.271
			c0.548-0.606,1.615-1.584,2.11-2.147c-0.454,0.454-0.454,1.19,0,1.644c0.454,0.454,1.19,0.454,1.644,0s0.454-1.19,0-1.644
			c-0.454-0.454-1.19-0.454-1.644,0c1.373-2.634,6.023-6.482,7.227-9.331c1.499-3.546,4.467-5.857,5.217-9.039
			c1.163-4.939-11.831-8.605-13.861-9.691l-7.175-3.841c-2.984-1.597-6.345-4.584-10.475-2.976
			c-3.205,1.248-4.364-2.625-5.954-2.755c-4.387-0.359-6.512-1.177-9.965-3.553c3.25,2.237-16.635-8.703-13.344-7.309
			c-2.879-1.22-5.368-1.418-7.133-4.18c-2.082-0.685-6.407-1.14-8.878-0.71c-4.913,0.854-7.779,6.81-7.301,11.389
			c0.429,4.107-2.354,6.069-2.878,8.909c-0.936,5.069-4.194,17.325-7.143,20.587c-1.952,2.159,1.216,7.359-1.323,9.448
			c-1.734,1.427-4.275,2.929-3.17,5.806c1.54,4.012-1.574,5.784-2.344,8.325c-1.153,3.802-2.45,6.632-4.199,10.036
			c-1.216,2.368-0.34,5.289-2.69,7.481c-2.504,2.336-0.711,7.028-2.303,9.738c-1.355,2.308-3.43,4.418-2.46,7.462
			c1.479,4.645-1.952,7.151-3.123,10.555c-0.228,0.662-10.549,23.576-10.126,23.053c-2.944,3.64-0.637,9.08-2.232,13.106
			c-0.893,2.254-3.739,4.404-2.524,7.252c1.837,4.306-2.318,5.963-3.132,8.516c-3.128,9.809-2.855,8.439-7.009,18.109
			c-1.658,3.86-1.02,7.673-4.443,11.052c-1.486,2.125,0.587,6.443-0.718,8.992c-3.318,3.392-4.969,8.012-2.293,12.422
			c14.288-7.517,17.426-24.121,33.542-35.002c-0.121-2.228,0.361-3.467,0.51-5.511c3.528-0.473,2.935-3.837,4.48-5.64l16.79-19.607
			c5.022-5.864,8.688-11.138,13.953-16.72c2.464-2.612,5.867-6.234,7.588-8.806c2.02-3.018,1.486-4.612,5.512-6.422
			C837.579,592.866,850.451,577.277,853,576z M266,715c2.037,2.057,3.114,4.376,6.588,4.242c3.018-0.117,6.387-1.087,7.412-4.242
			c0.295-0.058,0.704,0.084,1,0c0.351-0.1,1.013-0.586,1-1c-0.03-0.926,0.558-1.348,1-2c0.019,1.319,1.542,0.99,2.529,1.099
			c1.577,0.175,1.054-1.243,1.471-2.099c1.335-2.743,5.647-2.14,7.335-3.618c3.119-2.732,5.789-2.755,9.33-4.214
			c3.031-1.249,6.643-3.898,9.974-3.688c1.78,0.113,3.661-4.031,6.251-2.552c1.423-0.76,2.119-2.832,3.352-3.838
			c4.643,1.422,12.937-4.902,12.876-5.612c-0.126-1.444-0.106-2.958-1.364-4.18l-6.083-5.913
			c-0.185-0.18-27.395-17.886-29.448-22.843c-0.535-1.292-4.257,0.195-5.091-0.635l-8.433-8.401
			c-1.827-1.82-3.048-2.072-5.159-3.161c-5.42-2.795-8.822-8.713-13.906-12.138c-6.314-4.254-13.356-7.07-19.255-12.608
			c-7.246-6.803-7.99-2.729-18.336-14.93c-6.509-7.676-17.884-11.411-22.814-14.929c-2.364-1.687-4.088-2.419-6.7-3.519
			c-4.023-1.694-6.328-7.273-10.249-9.369c-3.331-1.781-5.074-5.124-8.032-7c-2.679-1.7-5.517-2.44-7.995-5.32
			c-3.097-3.6-5.694-9.243-10.438-10.306l-4.408-0.988c-1.86-0.417-0.534-3.67-1.757-5.087c-1.638-1.898-4.935-2.908-7.156-4.597
			c-2.443-1.858-6.351,0.466-9.402-0.84c-0.917-2.155-3.82-5.346-5.943-4.044c-1.21,0.742-0.912,3.066-1.238,3.852
			c-0.489,1.179,1.66,2.017,2.445,2.996l4.357,5.435c3.648,4.55,6.129,9.844,10.594,13.708c5.215,4.512,9.024,14.691,15.996,19.083
			c-1.299,3.282,0.43,5.912,2.698,6.965c3.75,1.742,2.849,5.645,4.588,7.798c5.457,6.758,12.383,12.206,18.253,18.651
			c2.296,2.521,2.571,4.564,3.983,7.365c1.495,2.966,8.685,6.792,10.886,13.103c2.277,6.527,11.593,10.548,10.474,22.291
			c1.016,1.498,3.349,5.147,4.982,5.587c11.274,3.037,12.072,12.262,13.578,13.868l6.092,6.498
			c-6.556-6.993,20.765,27.7,15.834,22.72L266,715z M242.356,726.878c4.337,2.467,10.357,4.139,14.239-0.488
			c0.679-0.809,3.431-0.52,3.075-1.781c-0.213-0.753-0.172-2.844-0.806-3.456c-4.562-4.405-7.429-9.262-10.637-14.666
			c-2.304-3.883-8.208-6.18-9.79-10.645c-3.284-9.274-6.347-9.185-6.982-11.031c-1.382-4.017-4.1-6.241-6.974-9.398l-8.52-9.357
			l-4.597-7.266c1.251,1.977-14.508-17.855-14.869-18.479c0.876,1.515-14.415-14.034-13.215-13.955
			c-0.108-3.795-1.498-4.023-3.225-6.435l-5.403-7.545c-0.801,0.303-2.125,2.104-2.231,3.282c-0.136,1.52,1.099,3.642,2.396,4.374
			c4.14,2.337,4.589,6.506,6.079,9.823c1.167,2.6,6.275,4.536,6.416,7.28c0.2,3.911,2.203,4.784,4.048,7.315
			c1.29,1.769,0.409,4.873,3.4,5.92l0.569,6.168c4.471-0.582,2.666,4.636,4.237,5.767c2.672,1.925,2.546,5.363,3.386,7.234
			c3.582,4.088,8.212,10.071,10.943,15.598c0.839,1.698,4.428,1.735,3.054,4.959c-1.106,2.598,2.488,3.204,3.085,4.712
			c1.174,2.964,1.764,6.497,5.044,8.173c2.794,1.428,1.778,3.829,3.335,5.852l9.808,12.745
			C240.012,723.904,239.599,725.31,242.356,726.878z M768,707c-0.122,0.542-0.11,2.049,0.51,1.799
			c2.921-1.181,4.542-5.029,2.49-6.799c1.068-1.94,12.662-14.043,14.749-21.822c0.688-2.564,5.274-5.981,7.278-7.995
			c5.619-5.645,0.572-3.696,7.545-12.711l6.972-9.013c2.468-3.191,12.304-9.818,8.891-17.468c0.353,2.099-3.162,2.051-3.732,3.455
			c-6.426,15.819-13.284,9.722-11.586,21.486c-2.522-0.012-4.173-0.023-6.111,0.438c-1.493,0.355-0.865,3.49-2.1,4.489
			c-4.147,3.356-14.457,15.526-16.745,17.21c-6.341,4.666-9.452,11.413-13.888,17.242c2.852-3.748-9.396,7.478-10.267,13.118
			c-0.284,1.842-8.638,12.109-5.157,14.797c2.424,1.872,6.85,1.039,8.903-0.536c2.982-2.288,2.541-5.159,4.001-8.066
			C761.591,712.961,766.747,710.941,768,707z M520,855c0.375,1.19,0.541,2.301,0.149,3.916c3.583-3.282,3.583-7.497,3.851-11.916
			c2.191-2.039,2.645-5.772,1.938-8.86c-0.877-3.832,1.496-4.902,2.609-7.437c0.278-0.632,8.252-16.96,7.64-15.194
			c1.199-3.462,1.567-6.47,3.276-9.822c1.42-2.784,0.454-6.342,4.289-8.076l0.516-12.36c3.621-0.756,2.923-4.844,4.392-6.311
			c2.304-2.299,1.624-5.404,3.097-7.305c1.751-2.259,4.272-4.646,3.511-8.074c0.766-1.146,3.402-1.903,3.641-3.171
			c0.161-0.852-0.993-2.926-0.282-3.63c2.138-2.117,2.32-6.084,4.343-7.571c3.708-2.726,4.181-6.826,2.366-11.147
			c-3.151-7.502-14.428-0.931-17.83-6.551l-13.086-0.968c-2.005-0.148-3.07-3.192-5.58-3.449c-5.126-0.524-10.51,0.866-15.486-0.61
			c-2.254-0.669-3.85-3.607-6.943-2.801c-2.349,0.612-5.073-0.836-7.362-0.456c-3.253,0.54-4.315-1.851-6.489-2.633
			c-5.111-1.838-10.908,0.471-16.187-0.916c-2.14-0.562-3.578-2.879-5.727-3.309c-8.925-1.786-17.296,2.721-18.374-4.068
			c-4.737,1.084-9.428,1.157-14.352-0.241c-2.39-0.679-5.506,0.929-7.611-0.428c-3.231-2.082-9.701-7.208-13.357-6.5
			c-2.823,0.547-3.995-2.088-5.326-3.328c-5.179-0.486-12.642,1.631-17.942-0.641c-3.333-1.428-5.311-4.84-9.845-2.928
			c-2.125,0.896-3.091-2.16-4.343-2.643c-6.533-2.52-13.444-1.916-21.06-0.848c3.555,2.639,3.782,5.672,5.549,8.357
			c1.55,2.355,2.931,3.58,3.559,6.74c0.616,3.097,6.576,4.437,6.805,11.636c4.532,2.661,5.61,7.22,7.999,11.247
			c2.272,3.829,8.283,5.878,9.15,10.409c0.851,4.447,4.828,6.131,6.831,9.415l7.88,12.924c1.744,2.861,3.541,9.92,6.787,12.7
			c3.112,2.665,12.245,18.893,14.96,23.722l2.922,5.197c2.513,4.469,4.82,8.697,8.519,12.426
			c-0.561-0.566,11.628,18.626,8.291,14.739c2.176,2.534,4.194,3.677,3.378,7.921c-0.448,2.33,4.035,3.354,4.632,5.012
			c1.839,5.112,6.227,7.876,8.86,11.96c1.342,2.081,0.139,5.5,3.498,6.789c3.74,1.435,3.051,5.261,4.311,7.876
			c3.228,6.7,7.395,13.164,11.844,19.19c1.817,2.461,2.854,3.12,3.456,7.011c5.977,6.332,5.349,9.02,11.53,7.836
			c0.018-0.003,5.844-7.199,4.775-10.68c-1.188-3.869,2.029-5.597,3.016-7.851l3.305-7.545c-6.153,14.044,11.834-33.596,7.145-18.53
			L520,855z M319,764c-1.144-0.126-0.977,0.868-1.059,1.526c-0.186,1.496,0.943,1.704,2.064,1.621
			c0.364-0.017,0.812,0.297,1.168,0.207c0.177,0.574,10.648,10.555,9.827,5.646c4.317,4.28,8.721,8.073,12.478,12.463
			c3.257,3.805,6.509,5.21,10.902,7.32c2.125,1.152,4.251,4.623,6.453,6.391c8.983,7.209,16.349,18.771,26.167,22.825
			c-0.266-0.019-1.037-0.012-1.415,0.01c-0.443,0.025-1.479,0.46-1.079,1.009c0.003,0.004,2.821,3.254,3.849,2.721
			c0.427-0.222,0.437-1.297,0.645-1.74c11.48,8.867,15.197,16.005,26.333,24.905c3.49,2.789,8.314,4.074,11.359,8.507
			c2.172,3.161,6.013,5.512,8.271,8.438c2.974,3.854,6.342,5.091,10.435,7.046c3.978,1.9,10.376,11.395,11.208,11.206
			c0.678-0.154,1.502-0.504,2.173-1.253c5.574-6.217-3.815-18.002-6.095-19.476c-3.338-2.157-5.391-11.607-7.586-14.291
			c-3.152-3.855-5.432-7.503-7.897-11.487c-2.373-3.836-5.953-7.134-7.17-11.857c-0.367-1.425-4.46-1.561-3.05-4.914
			c0.583-1.387-1.606-2.495-2.4-3.385c-2.515-2.815-3.334-7.46-6.003-9.815c-3.773-3.329-4.817-6.748-6.778-10.643
			c-0.917-1.822-3.003-2.83-3.405-5.935c-1.126-4.393-8.152-7.124-10.15-11.016c0.745-3.745-1.987-4.999-2.935-7.019
			c-3.973-8.464-9.587-12.981-14.603-23.179c-5.37-10.918-0.952,1.211-6.807-12.382c-0.946-2.196-3.583-3.253-4.047-4.732
			c-1.012-3.228-1.865-5.501-3.933-7.865c0.945-1.072,0.872-2.594,0.565-4.09c-0.26-1.267-1.663-2.006-2.973-2.55
			c-0.317,0.96-0.443,1.361-0.51,1.787c-2.143-1.181-0.913-4.646-2.194-5.671c-2.707-2.163-2.193-4.454-3.26-7.226
			c-1.384-3.594-6.032-6.109-8.393-9.056c-2.061-2.572-4.821-0.944-6.927-1.238c-5.211-0.727-7.199,2.372-10.773,4.556
			c-2.281,1.394-5.092,0.303-7.182,3.186c-1.4,1.932-5.779-0.173-7.993-0.728c0.149,4.775-3.454,4.222-5.927,5.756l-6.631,4.116
			c-3.301,2.049-5.908,1.798-9.319,2.984c-2.309,0.803-3.692,4.699-7.522,3.243c-2.349-0.893-3.225,1.609-4.322,2.611
			c-2.467,2.253-3.761,2.859-3.877,5.949c-0.11,2.958,1.533,3.498,2.998,5.628c2.646,3.847,30.901,23.71,28.901,21.785L319,764z
			 M585,858c0.641,2.464,9.151-0.856,7.542-2.332c-0.316-0.29-1.106-0.831-1.536-0.574c2.019-0.831,3.2-2.918,5.03-4.02
			c4.366-2.629,8.746-4.75,12.443-8.55c-1.925,1.979,15.997-10.659,14.326-8.318c2.416-3.387,5.429-4.992,7.95-7.36
			c2.431-2.284,3.804-2.505,7.118-3.518c2.91-0.889,9.122-11.692,14.762-10.719c1.215-1.239,2.97-2.886,4.365-3.61
			c0.112,0.484,0.19,1.687,1.079,2.041c2.9-3.85,11.235-4.065,5.921-6.041c3.003-3.86,10.289-8.949,14.716-12.22l10.523-7.773
			c1.676-1.238,5.71-2.195,6.894-4.086c1.578,2.644,3.382-2.863,7.217-2.514c4.695,0.427,4.749-3.73,6.649-5.407
			c3.704-3.27,7.19-7.358,11.524-10.303c2.25-1.529,5.667-0.639,7.151-4.206c0.82-1.971,3.737-3.062,4.821-4.886
			c1.338-2.251,1.825-4.968,3.503-6.604c0.822-0.051,2.084,0.036,2.078-1.894l-0.036-11.12c-0.006-1.758-0.853-2.674-2.042-2.986
			c-6.111-1.603-10.303,7.407-14.399,9.482c-4.364,2.21-7.699,4.382-11.21,7.966c-2.489,2.54-12.622,12.857-14.783,13.742
			c-4.468,1.83-6.557,4.499-10.27,7.191c-3.948,2.864-8.728,4.57-12.139,8.901c-4.978,6.32-11.997,9.864-17.872,15.129
			l-18.854,16.899c-1.571,1.408-3.563,1.196-5.26,2.87l-8.52,8.404c-10.188,10.049-9.949,5.546-18.19,14.78
			c-3.535,3.961-7.377,6.618-11.491,9.754l-7.864,5.995c-2.667,2.033-3.696,6.174-8.414,6.787c1.149,2.401,2.441,2.397,4.546,1.992
			C583.411,860.676,583.831,858.867,585,858z M328.031,781.724c-0.495-3.35-8.047-11.502-9.031-7.724l-5.54-4.002
			c-17.395-12.565-1.751-5.556-23.272-18.283c-5.584-3.302-8.583-10.491-14.286-13.174c-2.684-1.262-4.607-1.259-7.024-3.708
			c-1.198-1.214-13.557-3.144-15.084,5.269c5.612,3.83,9.986,9.65,15.249,13.845c1.498,1.194,13.46,8.119,14.604,12.437
			c0.874,3.299,6.076,1.695,7.475,3.301c2.376,2.729,5.303,2.777,7.681,4.808l8.546,7.297c1.847,1.577,1.72,3.636,5.671,3.81
			c2.604,0.114,6.137,4.339,7.706,6.276c4.207,5.194,9.813,5.466,14.435,8.183c5.622,3.304,10.287,9.274,14.922,13.734
			c2.583,2.485,3.996,3.125,7.608,3.945c2.112,0.479,3.328,5.007,5.612,5.857c3.714,1.382,5.301,4.744,8.438,6.739l5.955,3.787
			c4.575,2.91,9.206,5.6,11.061,11.355c8.663,0.363,6.495,5.509,12.931,7.791c2.462,0.873,4.382,1.78,6.179,4.256
			c3.639-4.365-1.323-7.201-1.215-6.952c-1.319-3.053-5.361-1.789-6.633-3.339c-7.337-8.945-16.2-14.726-22.984-23.314
			c-7.261-9.192-16.301-12.646-17.784-14.019L345.8,797.442C344.896,796.605,328.582,785.446,328.031,781.724z"/>
		<path style="fill:#DB01EE;" d="M673,718c-0.83,0.16-0.878,2.239-2.999,2.18l-16.814-0.469L639,720
			c0.684-1.183,2.197-1.998,4.021-1.998L673,718z"/>
		<path style="fill:#E860F4;" d="M303,790c-0.007-1.4-3.352-1-4.259-1.694c-3.194-2.448-6.031-4.745-8.508-7.303
			c0.815-3.326,6.712,4.088,13.382,7.467C304.452,788.893,303.927,790.22,303,790z"/>
		<path style="fill:#E759F3;" d="M571,122c1.993,1.642,4.497,3.933,7,5c-0.266,0.562-0.21,1.579-0.706,1.741
			c-0.632,0.207-1.956,0.075-2.447-0.624C572.554,124.853,566.45,123.425,571,122z"/>
		<path style="fill:#E75BF3;" d="M121.031,555.748c-3.391-0.483-3.235-2.653-5.927-6.753c-0.309-0.384,0.158-0.653,0.259-1.233
			c0.119-0.686,0.859-0.455,1.632,0.371C117.849,550.964,122.38,552.948,121.031,555.748z"/>
		<path style="fill:#E860F4;" d="M697,747c2.247-2.082,4.901-3.4,8.089-3.995c0.125,2.249-9.172,6.712-6.627,5.76
			C697.329,749.189,697.144,747.819,697,747z"/>
		<path style="fill:#E75BF3;" d="M124,563c-0.887-2.128-3.56-3.425-3-6c1.811,0.546,3.797,1.919,4.759,4.045
			C126.429,562.526,124.803,562.977,124,563z"/>
		<path style="fill:#E860F4;" d="M923.675,507.887c-1.621-0.07-2.773-1.062-3.289-2.057c-0.797-1.538-1.015-3.569-0.544-4.83
			c0.675,0.86,1.658,1.556,2.017,3.058c1.098,0.437,1.972,0.208,2.073,0.819C924.103,505.911,923.665,507.266,923.675,507.887z"/>
		<path style="fill:#E655F3;" d="M81,473c-0.777-3.054,1.195-4.864,3-7C88.498,465.548,81.149,472.928,81,473z"/>
		<path style="fill:#E54DF2;" d="M228,257c0.734-0.439,0.871-1.905,2-2c0.395,0.023,0.901-0.31,1.136-0.1
			c0.309,0.276,0.49,1.137,0.141,1.672l-2.939,4.504C228.248,259.259,228.495,258.186,228,257z"/>
		<path style="fill:#E860F4;" d="M97.094,448.008l2.864-4.709c2.115,2.48-2.044,6.7-2.295,6.248
			C97.45,449.164,96.771,448.386,97.094,448.008z"/>
		<path style="fill:#E75BF3;" d="M298.147,193.919c1.132-0.451,2.85-2.109,3.853-2.919c0.925,0.07,1.582,0.586,2.42,0.768
			C302.616,193.763,300.165,195.656,298.147,193.919z"/>
		<path style="fill:#E651F3;" d="M283.231,204.992l3.793-2.908c0.922,0.085,1.398,0.91,2.8,0.306
			C286.672,204.557,283.654,207.334,283.231,204.992z"/>
		<path style="fill:#E96AF4;" d="M642.105,507.927c-0.417-2.076-4.124-3.108-2.934-5.638c2.508,1.483,4.45,3.548,4.505,6.7
			C642.738,508.294,642.395,508.05,642.105,507.927z"/>
		<path style="fill:#E759F3;" d="M168,633c-0.165-0.963-1.111-1.534-1.853-1.997c0.293-1.187,0.013-2.318,0.175-4.021
			c1.127,2.661,3.568,3.693,3.144,5.295C169.342,632.747,168.526,632.872,168,633z"/>
		<path style="fill:#E865F4;" d="M179,651c-0.488-1.344-1.107-2.781-1.793-4.034c0.259-0.054,0.202-1.363,0.534-1.389
			c-0.332,0.026,2.43,0.85,2.623,3.891C180.404,650.103,180.08,651.129,179,651z"/>
		<path style="fill:#E759F3;" d="M564,858.173c1.174-0.635,2.267-2.105,3-3.173c0.862,0.161,1.678,0.484,2.405,0.839
			C567.722,857.975,565.93,858.864,564,858.173z"/>
		<path style="fill:#E655F3;" d="M79,476c0.832-0.176,1.053-1.229,1-2c0.446,0.133,1.069,0.103,1.513,0.339
			c0.745,0.395,0.678,1.551,0.105,2.397c-0.524,0.773-1.196,1.754-2.07,1.396C78.753,477.806,78.959,476.644,79,476z"/>
		<path style="fill:#E96AF4;" d="M607.995,147.1c1.029,0.559,2.056,1.286,2.924,2.016l1.034,1.736
			c-2.471-0.674-4.621-1.385-5.527-3.149C607.002,147.34,607.603,146.786,607.995,147.1z"/>
		<path style="fill:#E75BF3;" d="M668,191c0.295,0.655,1.442,1.573,2,2c0.214,2.512-2.156-0.762-5.052-1.506
			C666.198,190.501,667.199,191.162,668,191z"/>
		<path style="fill:#E965F4;" d="M378,262c-0.205,0.361-0.485,0.715-0.774,0.869c-1.709,0.914-2.416-5.675,1.19-8.912
			c2.018-1.811,4.103-2.75,7.635-2.806l29.544-0.473c1.353-0.022,2.385-2.51,3.88-1.681c0.684,0.379,1.895,0.991,2.741,1.591
			c2.469,1.75,4.181-2.518,5.629-2.423c5.013,0.331,7.635-2.235,11.481-3.437c6.281-1.964,13.093,0.117,19.552-0.847
			c3.454-3.317,9.214-5.025,13.927-3.595c4.894,1.485,6.822-2.037,10.336-2.792c7.202-1.547,15.431-0.258,22.771-0.228
			c4.019,0.016,4.898-2.381,7.527-3.324c6.465-2.318,19.753,0.566,24.561-1.942c-2.157,6.187-20.42,1.279-22.969,3.04l-4.09,2.826
			c3.487-2.41-45.838,3.193-35.035,4.404c-19.75-2.215-12.236,3.123-17.002,3.724c-6.13,0.773-12.823-1.292-18.821,0.506
			c-3.283,0.984-5.815,3.429-10.277,2.806c-1.869-0.261-4.041,4.665-6.714,3.513c-3.234-1.395-5.988-0.285-9.194-0.076
			c-8.98,0.585-17.819,0.223-26.839,0.14c-3.373-0.031-5.357-0.165-7.488,2.211C377.852,257.011,377.278,259.249,378,262z"/>
		<path style="fill:#DB01EE;" d="M416.126,459.126c0.375,0.486,0.008,1.883-1.226,1.883l-75.768-0.007
			c-0.795,0-1.114-0.736-1.247-1.002c2.077-0.965,5.305-1.765,7.799-0.751c4.442,1.806,8.106-0.036,12.409-0.042L416.126,459.126z"
			/>
		<path style="fill:#E966F4;" d="M319,256c-1.812-0.996-3.373-3.113-6.015-3.097c-10.389,0.062-20.319,0.319-30.55-0.167
			c-3.87-5.341-13.972-3.345-25.2-4.293c-1.904-0.161-3.819,1.115-5.437,0.287c-2.491,0.606,7.138-3.597,6.548-3.583
			c0.967-0.024,1.383,1.753,2.464,1.984c4.209,0.9,9.73,1.61,13.976,0.44c4.535-1.25,6.235,2.974,9.141,3.064l31.258,0.97
			c1.404,0.044,2.597,0.379,3.305,1.476C318.978,253.838,319.079,254.968,319,256z"/>
		<path style="fill:#E75CF3;" d="M806,460c0.884,0.155,1.965,0.618,1.99,1.435c0.159,5.339-12.609,2.529-17.707,2.796
			c-3.847,0.202-7.803,1.736-10.68-1.865c-2.9,2.795-12.733,2.047-11.915-1.061c4.351,0.208,8.921-0.896,13.307-0.202
			c1.41,0.809,2.92,1.891,4.523,2.162c2.337,0.395,3.687-2.909,5.324-2.989c2.745,0.415,4.923,4.046,7.593,3.511
			C801.339,463.204,805.508,463.377,806,460z"/>
		<path style="fill:#DB01EE;" d="M242,470c-0.207,1.184-1.341,2.038-2.98,2.036L203,472c5.72-2.806,9.667-0.626,17.287-1.605
			C227.634,469.452,234.957,470.155,242,470z"/>
		<path style="fill:#DB01EE;" d="M780.995,461.102c-4.386-0.694-8.956,0.41-13.307,0.202c-4.256-0.203-23.84-0.094-24.672-0.881
			c-0.274-0.259-0.378-0.821-0.141-1.298c6.489,0.053,13.169-0.556,20.157,0.062c5.062,0.447,9.765,1.36,15.065,0.698
			C779.342,459.73,781.047,460.028,780.995,461.102z"/>
		<path style="fill:#E965F4;" d="M562,232c-6.586-2.608-9.884-6.727-15.97-2.099c-1.111-0.702-1.82-1.318-2.969-1.759
			c-1.303,1.947-2.95,3.251-4.977,2.725c1.973-3.867,5.206-4.217,9.188-4.62c5.057-0.512,9.462-0.604,13.317,3.328
			c0.424,0.433,1.79,0.195,2.205,1.068C563.079,231.243,562.148,231.49,562,232z"/>
		<path style="fill:#E651F3;" d="M890.003,494.102c0.609,0.797,2.782,2.27,3.645,1.719c2.798-1.79,0.541-4.775,0.593-6.747
			c0.095-3.616-0.303-5.152-2.24-7.075c-0.131-0.975,0.825-1.304,1.499-0.786c2.399,1.842,1.483,4.472,2.476,6.812l3.038,7.162
			c-2.721,2.911-8.61,3.443-10.982-0.151C887.61,494.4,889.669,493.607,890.003,494.102z"/>
		<path style="fill:#DB01EE;" d="M334.097,603.003c-0.961-1.744-2.034-3.494-2.04-6.108L332,574c0.522-0.194,1.985-0.203,1.99,0.98
			L334.097,603.003z"/>
		<path style="fill:#DB01EE;" d="M329,246.105l-27.331-0.318c-0.339-0.516-0.599-1.081-0.711-1.69
			C310.394,244.285,320.179,242.781,329,246.105z"/>
		<path style="fill:#E966F4;" d="M351.081,260.995c-2.181-0.035-3.118-3.202-5.153-3.786c-4.22-1.21-8.645,0.455-12.954-0.244
			c-3.906-0.633-7.433-1.175-10.974-1.091c0.881-2.688,3.868-1.452,6.433-1.312l18.149,0.988
			C348.774,255.669,350.631,259.351,351.081,260.995z"/>
		<path style="fill:#DB01EE;" d="M543,222c-1.122,0.389-1.905,2.133-4.016,2.121L518,224c0.989-0.971,1.997-2.027,4.015-2.025
			L543,222z"/>
		<path style="fill:#E655F3;" d="M467,89c-0.463-1.557-2.263-0.908-3.182-0.622c-1.128,0.351-3.009,2.235-1.425,3.334
			c1.27,0.882,3.591-1.05,4.607-1.712c2.974,1.464-4.831,4.862-4.375,4.776c-2.102,0.397-2.844-3.492-2.776-5.144
			c0.085-2.059,6.608-4.82,7.44-4.514c0.614,0.226,0.745,1.292,1.398,2.476C469.009,88.177,467.863,88.879,467,89z"/>
		<path style="fill:#DB01EE;" d="M569,715l0.043-17.943c0.005-2.187,0.871-3.877,2.068-5.059l-0.023,21.099
			C571.086,714.695,569.775,714.853,569,715z"/>
		<path style="fill:#E966F4;" d="M212,307c-1.04-3.362,0.44-6.292,3.078-8.809c3.811-3.637,5.794-8.349,8.973-12.211l8.582-10.426
			c1.353-1.644,1.225-4.325,3.243-4.979c-0.867,1.21-0.273,3.755-1.078,5.322c-0.065-0.915-18.981,24.779-17.116,21.69L212,307z"/>
		<path style="fill:#DB01EE;" d="M124,481c-0.047,0.821,0.028,2.08-1.895,2.079l-15.193-0.008c-0.876,0-1.49-0.289-1.813-0.688
			c-0.266-0.329-0.149-0.982-0.212-1.382H124z"/>
		<path style="fill:#E965F4;" d="M280,715c-1.024,3.155-4.393,4.125-7.412,4.242c-3.474,0.135-4.552-2.185-6.588-4.242
			c2.057-0.259,4.093,1.934,6.212,1.52L280,715z"/>
		<path style="fill:#E654F3;" d="M485,565c3.045-3.585,7.32-6.584,11.934-7.882c0.298,0.366,0.846,0.887,0.73,1.3
			c0.207-0.741-11.507,8.145-11.928,7.977C485.261,566.204,485.144,565.485,485,565z"/>
		<path style="fill:#E651F3;" d="M710,773c-1.899,1.677-1.954,5.834-6.649,5.407c-3.835-0.349-5.639,5.158-7.217,2.514
			c1.841-2.94,3.538-3.658,7.599-4.547C705.708,775.941,707.495,772.51,710,773z"/>
		<path style="fill:#DB01EE;" d="M332,413l0.051-14.945c0.007-2.138,0.797-3.873,2.051-4.976
			c-0.082,5.454-0.268,11.046,0.042,16.935C334.252,412.071,332.445,412.167,332,413z"/>
		<path style="fill:#E75CF3;" d="M251,343c-0.856,0.939-9.841,11.582-11.738,7.979C244.341,346.812,246.321,342.32,251,343z"/>
		<path style="fill:#DB01EE;" d="M469,233c-0.793,1.11-2.157,1.992-3.992,2.002L449,235.087c1.088-0.91,1.848-2.143,4.028-2.137
			L469,233z"/>
		<path style="fill:#E75CF3;" d="M295,306c3.758-3.419,8.519-5.437,12-9c1.057-0.134,1.474,0.766,1.374,1.548
			C308.349,298.743,293.494,311.446,295,306z"/>
		<path style="fill:#DB01EE;" d="M401.134,244c0.697,4.557-10.01-0.111-17.134,3.108c0.011-0.731,0.046-1.567,0.443-2.151
			c0.458-0.674,1.366-1,2.516-0.997L401.134,244z"/>
		<path style="fill:#E75BF3;" d="M546,390c3.796,5.344-18.333-10.25-11.955-8.753C538.893,382.958,542.271,386.705,546,390z"/>
		<path style="fill:#E75CF3;" d="M805,343.622c-3.227-1.324-4.238-5.591-6.448-8.375c-2.133-2.689-3.367-4.927-2.558-8.371
			C795.529,326.602,805.377,341.736,805,343.622z"/>
		<path style="fill:#DB01EE;" d="M491,709c-6.002-0.651-12.376,1.34-18-1C476.714,706.389,486.776,706.047,491,709z"/>
		<path style="fill:#E865F4;" d="M296.871,210.871c-0.154,3.265-4.231,1.234-6.426,2.582c-1.066,0.793-0.789,3.832-1.605,4.85
			c-1.075,1.342-3.057,1.024-4.729,1.97c-2.788,1.578-4.35,5.013-7.784,6.111c-3.584,1.146-8.549,3.984-8.262,8.457
			c0.151,2.36,3.298,3.397,3.816,5.165l0.024,1.236c-3.238-1.042-6.821-5.567-5.139-9.129c2.701-5.719,8.91-7.589,13.61-10.738
			C296.452,210.608,282.145,212.546,296.871,210.871z"/>
		<path style="fill:#E865F4;" d="M427.659,112.63c-2.813,2.505-12.616,11.682-15.924,12.073c0.883-3.318,4.772-4.287,7.004-6.875
			C421.308,114.851,423.734,112.004,427.659,112.63z"/>
		<path style="fill:#E966F4;" d="M112,452c-6.095,3.154,2.778-13.104,1.671-12.082c2.994-2.762,7.527-13.638,13.334-16.028
			c-1.153,4.017-4.614,6.494-7.052,9.987c-1.555,2.228-2.676,4.317-4.708,6.337c-1.14,1.134,0.304,4.334-1.726,5.34
			c-1.367,0.678-2.537,1.696-2.568,2.971C110.923,449.732,110.555,451.59,112,452z"/>
		<path style="fill:#E966F4;" d="M192,332.906c0.454,3.39-0.301,6.478-3.505,8.688c-1.138,0.784-0.442,3.464-1.513,4.409
			c-2.575,2.274-5.319,3.899-6.817,7.202c-0.624,1.374-2.101,1.803-3.196,1.769c6.578-12.718,6.58-4.894,10.422-13.852
			c0.845-1.971,3.689-3.004,2.54-6.274c-0.208-0.592,0.247-1.534,0.616-1.787C190.915,332.807,191.556,332.945,192,332.906z"/>
		<path style="fill:#E865F4;" d="M447.102,112.005c3.17-5.593,9.926-8.416,4.681-15.892c-0.541-0.217-1.562,0.816-2.035,0.842
			c0.155-0.849,0.624-1.386,1.116-1.713c2.908-1.93,3.648,2.755,5.971,5.492C455.726,102.042,447.271,117.844,447.102,112.005z"/>
		<path style="fill:#E75BF3;" d="M768.102,601.005c2.037-1.541,1.607-4.783,2.957-7.016c6.193-10.247,0.373-6.515,5.941-10.989
			c0.557,0.168,1.353,0.316,1.643,0.824c0.297,0.52-0.348,1.496-0.82,1.808c-3.18,2.101-2.741,5.042-3.588,7.756
			c-0.701,2.248-3.597,3.668-3.105,6.898c0.149,0.978-0.94,1.618-1.487,1.782C768.781,602.327,767.813,602.133,768.102,601.005z"/>
		<path style="fill:#DB01EE;" d="M393,691.105c-2.113-0.538-14.614,0.657-14.859-0.723L377.895,689l11.067-0.059
			C391.211,688.929,391.872,690.245,393,691.105z"/>
		<path style="fill:#DB01EE;" d="M583.089,642c-2.685,5.011,0.269,12.067-1.681,13.878c-0.309,0.287-1.009,0.035-1.408,0.229
			C580.511,653.101,578.258,641.152,583.089,642z"/>
		<path style="fill:#E75CF3;" d="M853,576c2.293-3.952,5.162-7.49,7.879-10.992c0.67-0.007,1.006-1.173,2.314-0.668
			C860.963,565.313,854.956,580.032,853,576z"/>
		<path style="fill:#E966F4;" d="M196.74,328.724c0.459-4.866,3.799-8.847,7.194-12.663c2.648-2.976,4.232-9.518,7.073-9.18
			c-1.397,4.939-4.759,8.775-8.139,12.989C200.845,322.394,198.591,328.959,196.74,328.724z"/>
		<path style="fill:#E85DF4;" d="M331,773c0.821,4.909-9.65-5.072-9.827-5.646c2.205-0.556,3.667,0.164,4.84,1.533
			C327.567,770.7,329.628,771.64,331,773z"/>
		<path style="fill:#DB01EE;" d="M790.094,395c-0.844-1.129-2.167-1.792-2.153-4.039L788,381
			C791.76,379.744,789.236,391.999,790.094,395z"/>
		<path style="fill:#DB01EE;" d="M297,242.094l-5,0.092c-6.627,0.122-13.669,1.126-20.094-0.942l-0.024-1.236
			c1.051,0.629,2.387,1.017,4.062,1.017l20.019,0.003C296.699,241.028,297.151,241.666,297,242.094z"/>
		<path style="fill:#DB01EE;" d="M730,459c2.129,3.258-12.322,2.111-12.849,1.396c-0.279-0.378-0.103-0.978-0.269-1.399L730,459z"/>
		<path style="fill:#DB01EE;" d="M801.094,437.963c-1.109-0.518-2.169-0.969-2.156-2.949L799,424.903
			c0.351,0.209,1.042-0.073,1.384,0.226C801.79,426.359,800.565,435.238,801.094,437.963z"/>
		<path style="fill:#DB01EE;" d="M737,747c1.176-11.64,1.176-4.36,0-16c1.189,0.312,2.036,1.228,2.042,2.986l0.036,11.12
			C739.084,747.036,737.822,746.949,737,747z"/>
		<path style="fill:#DB01EE;" d="M768.118,308.005c-3.427-2.738-2.454-11.132-1.118-14.121
			C769.46,298.142,767.179,303.328,768.118,308.005z"/>
		<path style="fill:#E865F4;" d="M449.759,97.864c0.034,0.943-0.416,1.268-0.719,1.746c-0.595,0.939-2.698-0.391-3.32,0.023
			l-15.087,10.031c-0.807-2.61,1.253-3.756,3.242-4.841l6.495-3.543C443.825,99.395,445.529,97.117,449.759,97.864z"/>
		<path style="fill:#E759F3;" d="M520,855c4.063-5.673-0.304-3.995,4-8c-0.268,4.42-0.268,8.634-3.851,11.916
			C520.541,857.301,520.375,856.19,520,855z"/>
		<path style="fill:#E865F4;" d="M331.953,186.84c0.382-3.179,4.526-4.15,6.126-6.695c2.049-3.259,3.211-5,6.866-6.514
			c2.497-1.035,4.18-4.487,6.939-5.082c-1.133,5.043-6.422,6.697-10.111,9.39c-1.894,1.383-1.889,5.785-6.003,6.044
			C334.481,184.064,333.636,187.444,331.953,186.84z"/>
		<path style="fill:#E865F4;" d="M393,139.895c2.577-6.943,10.173-10.667,16.714-13.165
			C409.264,130.367,398.753,132.471,393,139.895z"/>
		<path style="fill:#E655F3;" d="M657,809c1.608-0.834,2.26-3.2,5.229-2.859c0.711,0.082,1.483-0.771,1.771-1.141
			c5.314,1.976-3.02,2.192-5.921,6.041C657.19,810.687,657.112,809.484,657,809z"/>
		<path style="fill:#E966F4;" d="M134.961,412.795c0.316-0.343-0.224-1.996,0.43-2.519c4.014-3.212,5.785-7.626,8.52-11.47
			C145.493,403.874,138.414,409.365,134.961,412.795z"/>
		<path style="fill:#E654F3;" d="M390.234,646.071c2.539-1.729,4.282-4.857,7.798-4.774c1.954,2.356-3.439,2.341-3.753,4.849
			C392.719,647.034,390.784,647.61,390.234,646.071z"/>
		<path style="fill:#DB01EE;" d="M591,603c0.233-4.698-0.885-10.031,2-14l0.088,9.958C593.107,601.203,591.56,601.816,591,603z"/>
		<path style="fill:#E865F4;" d="M387.827,144.772c-0.022,2.073-2.455,1.972-4.193,2.797c-2.703,1.284-4.315,3.858-6.954,4.399
			C378.615,147.6,383.033,144.827,387.827,144.772z"/>
		<path style="fill:#E860F4;" d="M522,370c1.456,2.44,4.73,3.097,5.727,5.929c0.698,3.301-7.466-4.119-7.793-4.958
			C519.905,370.237,521.541,369.958,522,370z"/>
		<path style="fill:#DB01EE;" d="M645,235.1c-8.852-0.778-8.048,1.721-12-2.1l7.953-0.054C643.216,232.93,643.881,234.235,645,235.1
			z"/>
		<path style="fill:#DB01EE;" d="M571.073,273.921c-2.563-3.578-2.852-8.971-1.073-12.921c0.537,0.3,1.055,0.826,1.057,1.917
			L571.073,273.921z"/>
		<path style="fill:#DB01EE;" d="M434.958,698.092l-16.065-0.017c-1.44-0.002-1.951-1.163-1.893-2.074
			C422.042,698.471,433.562,695.382,434.958,698.092z"/>
		<path style="fill:#E54DF2;" d="M297,242.094l3.958,2.003c0.113,0.609,0.372,1.174,0.711,1.69
			c-3.569-0.041-6.483-1.708-9.669-3.601L297,242.094z"/>
		<path style="fill:#DB01EE;" d="M806.123,489.123c1.86-5.213,0.795-10.864-0.123-16.247c0.442,0.112,1.032-0.099,1.385,0.214
			c0.384,0.339,0.691,0.937,0.69,1.822l-0.009,12.188C808.065,488.493,806.993,489.105,806.123,489.123z"/>
		<path style="fill:#E966F4;" d="M236.651,270.598c0.825-3.363,1.957-6.526,4.531-9.427c6.243-7.034-0.274-4.74,9.752-12.358
			c-0.158,2.321-3.898,3.256-4.336,5.466c-0.635,3.207-2.031,4.312-3.511,6.94l-3.587,6.375
			C238.713,268.995,238.754,271.259,236.651,270.598z"/>
		<path style="fill:#E655F3;" d="M585,858c1.748-1.296,3.991-2.076,6.005-2.906c0.43-0.257,1.22,0.284,1.536,0.574
			C594.151,857.144,585.641,860.464,585,858z"/>
		<path style="fill:#E865F4;" d="M299,209c0.997-7.684,5.772-3.048,8.882-7.236c0.078,1.02-0.09,2.075-0.789,2.825
			C307.791,203.839,298.028,209.145,299,209z"/>
		<path style="fill:#E54DF2;" d="M631.927,467.775c-0.696,2.281-2.518,1.012-3.198,0.137c-1.143-1.47-0.644-3.388,1.431-3.901
			C631.728,463.623,632.617,465.516,631.927,467.775z"/>
		<path style="fill:#E966F4;" d="M144.727,398.711c1.955-5.406,7.134-10.74,11.236-14.808c-0.982,4.278-4.113,7.372-7.234,10.879
			C147.362,396.319,146.9,398.787,144.727,398.711z"/>
		<path style="fill:#E865F4;" d="M308.64,201.648l11.244-8.047C320.219,196.593,312.2,202.672,308.64,201.648z"/>
		<path style="fill:#E85DF4;" d="M816,362c-2.613-1.403-2.266-4.825-3.782-7.026c0.042-0.45,0.162-0.848,0.487-0.932
			C815.371,353.347,815.955,360.387,816,362z"/>
		<path style="fill:#E865F4;" d="M329.869,188.795c-0.086,1.884-2.269,1.413-3.917,2.207l-5.424,2.614
			C322.665,187.88,324.144,190.005,329.869,188.795z"/>
		<path style="fill:#E96AF4;" d="M697.139,227.995c-3.536-0.655-6.1-3.396-9.139-5.173
			C691.654,221.718,695.679,224.667,697.139,227.995z"/>
		<path style="fill:#E654F3;" d="M885.089,539c0.97-1.657,1.606-3.312,2.906-4.748c1.601,1.58,0.114,4.494-1.256,6.271
			c-0.556,0.722-1.262,0.25-1.363-0.258C885.283,539.799,884.852,539.476,885.089,539z"/>
		<path style="fill:#E759F3;" d="M365.919,724.853c-1.52-1.738-1.223-3.918-2.919-4.853c0.067-0.426,0.192-0.826,0.51-1.787
			c1.31,0.544,2.713,1.283,2.973,2.55C366.791,722.259,366.863,723.781,365.919,724.853z"/>
		<path style="fill:#E651F3;" d="M551.916,206.845c-1.387-1.594-1.033-4.392-2.661-5.777c0.156-0.322,0.164-0.854,0.412-0.78
			c0.361,0.108,1.27,0.257,1.649,0.584C553.122,202.43,553.125,205.165,551.916,206.845z"/>
		<path style="fill:#DB01EE;" d="M375.953,687.113c-2.817-0.553-10.413,0.672-11.868-0.718c-0.331-0.316,0.021-1.087-0.201-1.394
			C369.891,686.759,374.165,684.886,375.953,687.113z"/>
		<path style="fill:#E965F4;" d="M236,354c0.08,1.332-4.124,5.152-5.227,4.469c-0.427-0.264-0.653-0.903-0.773-1.469
			C231.68,355.436,233.571,353.717,236,354z"/>
		<path style="fill:#E75CF3;" d="M768,707l3-5c2.052,1.77,0.43,5.618-2.49,6.799C767.89,709.049,767.878,707.542,768,707z"/>
		<path style="fill:#E549F2;" d="M746.108,676.045c0.829-0.39,1.302-1.404,1.892-2.045c0.469,0.233,1.196,0.425,1.414,0.881
			c0.602,1.258-2.084,2.562-3.103,5.114C746.311,678.333,746.513,677.219,746.108,676.045z"/>
		<path style="fill:#E865F4;" d="M365.764,159.861c0.009,3.147-3.664,1.283-5.543,2.275c-3.044,1.608-4.131,6.232-7.552,6.452
			C355.91,163.316,359.217,159.121,365.764,159.861z"/>
		<path style="fill:#E96AF4;" d="M253.974,607.205c2.52,0.818,3.117,3.592,4.018,5.858
			C257.064,613.144,249.593,605.711,253.974,607.205z"/>
		<path style="fill:#E966F4;" d="M159,376.898c-0.005,2.504,0.488,5.797-2.134,6.969c0.314-2.049-0.389-4.282,0.453-6.564
			C157.542,376.698,158.64,376.96,159,376.898z"/>
		<path style="fill:#E75CF3;" d="M810,352c-0.414-0.831-1.172-2.359-1.9-3.005l0.284-3.053c0.461,1.608,4.708,5.158,2.872,5.693
			L810,352z"/>
		<path style="fill:#E85DF4;" d="M387,822c0.601,0.928,1.518,1.628,2,2c-0.208,0.443-0.217,1.518-0.645,1.74
			c-1.028,0.534-3.846-2.717-3.849-2.721c-0.4-0.549,0.637-0.984,1.079-1.009C385.963,821.988,386.734,821.981,387,822z"/>
		<path style="fill:#E96AF4;" d="M712.252,238.995c-5.139-0.605-9.553-3.638-12.252-7.995c3.058,0.57,5.065,3.328,8,4.953
			C709.724,236.908,712.438,236.902,712.252,238.995z"/>
		<path style="fill:#E865F4;" d="M376.722,152.882c-0.091,2.137-3.045,1.212-4.515,2.267c-2.251,1.615-3.91,3.546-6.446,3.804
			C368.313,155.191,372.018,152.089,376.722,152.882z"/>
		<path style="fill:#E966F4;" d="M128,424c-0.991-2.698,1.205-4.048,2.904-5.885c1.409-1.524,0.631-5.089,3.12-5.257
			C131.184,422.441,134.607,415.851,128,424z"/>
		<path style="fill:#E85DF4;" d="M328.031,781.724c-3.359-2.352-5.714-5.328-9.031-7.724
			C319.985,770.223,327.536,778.374,328.031,781.724z"/>
		<path style="fill:#E966F4;" d="M167.874,368.874c0.166-1.631-0.486-3.795,1.021-4.874c0.832,0.582,1.208,1.493,1.207,2.447
			C170.1,367.8,169.19,368.825,167.874,368.874z"/>
		<path style="fill:#E965F4;" d="M287,711c-0.417,0.857,0.105,2.274-1.471,2.099c-0.987-0.109-2.51,0.219-2.529-1.099
			C283.911,710.657,285.508,710.887,287,711z"/>
		<path style="fill:#E865F4;" d="M387.879,143.929c0.314-2.281,3.056-2.283,4.121-4.021
			C392.021,142.219,390.221,144.105,387.879,143.929z"/>
		<path style="fill:#E85DF4;" d="M320.005,767.147c-1.121,0.084-2.25-0.125-2.064-1.621c0.082-0.658-0.085-1.652,1.059-1.526
			C319.676,765.355,319.92,766.24,320.005,767.147z"/>
		<path style="fill:#E966F4;" d="M172.895,359c-0.124-2.263,2.473-2.214,4.105-3C176.317,357.734,174.797,359.03,172.895,359z"/>
		<circle style="fill:#E654F3;" cx="890.927" cy="532.927" r="1.163"/>
		<path style="fill:#E966F4;" d="M193,332.89c0.701-1.543,1.435-3.157,2.916-4.076C195.38,330.451,194.858,332.455,193,332.89z"/>
		<path style="fill:#E966F4;" d="M164,372.898c0.704-1.534,1.373-3.224,2.966-3.99C166.357,370.507,165.801,372.405,164,372.898z"/>
		<path style="fill:#E75CF3;" d="M807,345c-0.393-0.358-0.727-0.773-1-1.228C806.362,343.96,807.077,344.53,807,345z"/>
		<path style="fill:#E966F4;" d="M320,256l1-0.102C321.128,257.081,320.009,257.276,320,256z"/>
		<path style="fill:#E96AF4;" d="M716,243c-0.368-0.297-0.703-0.632-1-1C715.36,242.213,715.86,242.589,716,243z"/>
		<path style="fill:#E96AF4;" d="M714,242c-0.948-0.281-1.925-1.013-1.837-2C713.022,240.4,713.636,241.134,714,242z"/>
		<path style="fill:#E96AF4;" d="M699,231c-0.957-0.288-1.729-1.031-2-2C697.932,229.351,698.649,230.068,699,231z"/>
		<path style="fill:#E966F4;" d="M160,376.874c0.384-0.842,1.053-1.497,1.898-1.874C161.691,375.967,161.012,376.762,160,376.874z"
			/>
		<path style="fill:#E865F4;" d="M427.772,111.877c0.614-0.785,1.321-1.49,2.108-2.102
			C429.825,110.953,428.951,111.825,427.772,111.877z"/>
		<path style="fill:#E966F4;" d="M161.908,374c0.197-0.462,0.636-0.887,1.092-1.092C162.691,373.324,162.324,373.691,161.908,374z"
			/>
		<path style="fill:#E865F4;" d="M296.908,209.963c0.165-0.459,0.629-0.835,1.092-0.963
			C297.688,209.377,297.32,209.7,296.908,209.963z"/>
		<path style="fill:#E965F4;" d="M281,715c0.297-0.368,0.632-0.703,1-1C282.013,714.414,281.351,714.9,281,715z"/>
		<path style="fill:#E865F4;" d="M409.808,125.911c0.274-0.435,0.664-1.058,1.105-1.11
			C410.82,125.377,410.386,125.818,409.808,125.911z"/>
		<path style="fill:#E85DF4;" d="M818,363c-0.368-0.297-0.703-0.632-1-1C817.307,362.182,817.963,362.643,818,363z"/>
		<path style="fill:#E966F4;" d="M168.908,363c-0.026-0.62,0.552-0.941,1.092-1.102C169.693,362.318,169.325,362.689,168.908,363z"
			/>
		<path style="fill:#E966F4;" d="M171,361.874c0.377-0.837,1.033-1.496,1.869-1.874C172.763,361.01,171.974,361.699,171,361.874z"/>
		<path style="fill:#E865F4;" d="M329.906,187.937c0.209-0.446,0.647-0.891,1.113-1.063
			C330.726,187.304,330.35,187.667,329.906,187.937z"/>
	</g>
</g>
</svg>
