<?xml version="1.0" encoding="iso-8859-1"?>
<!-- Generator: Adobe Illustrator 30.1.0, SVG Export Plug-In . SVG Version: 9.03 Build 0)  -->
<svg version="1.1" id="Layer_1" xmlns="http://www.w3.org/2000/svg" xmlns:xlink="http://www.w3.org/1999/xlink" x="0px" y="0px"
	 viewBox="0 0 1000 1000" style="enable-background:new 0 0 1000 1000;" xml:space="preserve">
<g>
	<g>
		<path style="fill:#E60537;" d="M953.807,820.306c1.864,3.319,5.608,6.275,5.258,10.629l-97.779,0.371l-6.481,1.678l-219.211,0.526
			l-219.25,0.59c-2.154,1.973-3.549,1.923-6.519,1.922L194.35,835.98c-2.045,2.137-3.679,2.065-6.458,2.063l-139.298-0.132
			c2.188-3.704,4.366-5.117,4.83-8.48c3.735-2.933,5.644-7.269,5.846-11.939c4.634-3.305,5.704-8.862,7.226-13.757
			c0.989-3.18,3.446-4.191,4.63-6.42l6.001-11.303c0.868-1.634,3.646-2.438,2.823-4.965c-0.87-2.671,1.947-3.009,2.681-4.419
			c3.686-7.081,6.837-14.031,11.415-20.735c5.115-7.491,8.403-16.042,12.474-24.39c0.868-1.781,2.55-2.919,3.951-3.964
			c0.119-4.27,3.477-8.688,5.618-12.291l5.96-10.028c4.855-8.167,7.077-14.487,12.868-21.926c0.427-4.063,1.89-5.73,3.87-8.486
			c4.615-6.425,3.857-10.295,10.037-17.05c2.916-3.187,3.531-8.195,6.28-11.68c2.585-3.277,12.923-21.076,14.685-25.085
			c1.416-3.221,2.306-5.147,4.043-8.257l6.707-12.008l5.623-9.472c1.334-2.247,2.193-3.91,3.423-5.931l5.998-9.858l6.304-10.657
			c1.958-3.31,3.104-5.007,4.327-8.994c2-6.52,6.048-13.219,9.402-19.029l5.23-9.058l4.667-7.213
			c3.299-5.1,4.841-10.769,8.458-15.48c4.977-6.481,6.278-14.2,14.565-25.468c1.412-1.92,0.621-4.803,3.308-6.952
			c2.578-2.061,2.727-6.783,5.552-9.4c3.319-3.074,3.806-8.575,6.668-12.175c2.203-2.771,5.018-5.356,5.784-9.088
			c0.565-2.753,3.73-4.451,4.375-6.49c1.807-5.712,4.486-9.751,7.302-14.837l5.713-10.318l5.878-11.216
			c1.124-2.145,3.203-3.511,3.891-6.093c0.684-2.564,2.326-4.181,3.925-6.123c2.554-3.103,2.977-8.066,6.152-10.698
			c2.643-2.191,2.761-4.373,3.844-7.407c3.106-8.703,11.157-20.406,11.212-20.665c0.807-3.806,3.616-6.198,5.686-9.14
			c4.604-6.541,6.22-14.662,11.155-20.793c3.42-4.249,15.242-28.837,18.578-35.537c0.355-0.713,9.497-14.322,9.258-13.886
			l8.736-15.995c2.487-4.554,4.311-8.543,6.199-13.264c0.596-1.491,3.964-2.004,4.106-4.817c0.154-3.03,3.022-5.003,4.379-7.232
			c2.573-4.225,4.334-8.358,6.752-12.533l9.187-15.863c1.127-1.946,3.392-3.512,3.752-6.04c0.415-2.914,3.518-4.439,4.323-6.578
			c1.974-5.244,3.063-9.977,7.051-14.245c-2.126,2.275,12.558-20.247,11.51-18.323l6.7-12.308
			c-0.456,0.839,10.294-16.955,9.754-15.016c1.641-5.895,3.767-10.186,7.255-14.931c-0.943,1.282,3.45-11.363,9.648-18.3
			c-0.281,0.315,8.366-15.807,9.841-16.936c2.938-2.247,2.165-4.684,3.507-7.074c2.345-4.175,6.166-7.309,7.553-12.266
			c1.791-6.4,7.35-9.636,14.454-7.837c0.185,3.92,10.72,17.84,11.605,19.517l8.528,16.153c1.833,3.472,4.169,6.64,6.191,10.523
			c1.787,3.433,5.505,5.981,6.414,10.335c0.488,2.337,2.602,3.499,3.598,5.391l6.231,11.843c0.96,1.824,3.224,3.046,3.643,5.318
			c0.842,4.564,5.198,7.295,6.703,10.984c1.538,3.77,2.765,6.064,4.618,9.497l8.427,15.612l5.04,6.239l6.59,12.373
			c1.026,1.926,3.026,2.972,3.562,5.388c0.671,3.029,2.872,4.952,4.6,7.193c1.914,2.482,2.072,5.761,4.121,8.065
			c3.163,3.557,3.863,8.545,6.73,12.285c1.411,1.84,2.79,3.077,3.584,5.534c0.615,1.903,3.164,2.819,4.302,4.568
			c2.786,4.282,3.847,9.874,7.309,13.668c2.791,3.059,3.894,6.653,6.182,9.923c3.324,4.751,5.672,9.033,7.228,14.955
			c-0.495-1.883,10.154,15.74,9.752,15.002l7.01,12.857c0.795,1.457,7.179,9.765,7.549,11.545c0.896,4.308,4.839,6.744,6.431,10.258
			c1.002,2.211,4.868,13.931,8.069,16.396c2.449,1.886,2.214,6.236,4.482,8.228c3.781,3.319,4.8,7.81,7.477,11.868
			c1.697,2.572,11.346,18.117,11.751,19.977c0.757,3.486,4.233,5.705,5.243,8.419c1.903,5.112,4.036,9.03,6.981,13.271
			c2.154,3.102,3.023,6.52,5.77,9.482c0.512,0.553,11.878,19.145,14.422,20.54l0.636,5.199c2.937,1.243,3.098,4.36,4.766,6.284
			c2.364,2.728,5.218,4.653,3.573,9.344c5.11,3.021,6.319,8.424,9.082,13.154c1.298,2.222,3.679,3.743,4.301,6.624
			c0.551,2.551,2.749,3.979,3.858,6.077l6.251,11.82c-0.559-1.057,9.333,13.412,10.001,15.021
			c6.487,15.624,12.309,20.413,20.266,34.834l9.167,16.614c6.011,10.894,5.671,3.246,7.226,11.176
			c0.742,3.784,3.212,8.029,5.398,11.299l3.656,5.47c1.487,2.225,3.117,3.943,4.283,6.667c1.787,4.173,4.681,8.094,6.928,11.964
			L827,604.171l13.943,25.105c0.957,1.723,10.015,16.257,10.079,16.69c0.559,3.765,4.103,5.319,5.818,8.146
			c1.304,2.15,2.107,3.558,3.93,5.277c3.028,2.856,3.686,8.056,6.229,11.622c0.745,1.044,2.636,1.791,2.827,3.11
			c0.785,5.414,3.168,9.518,6.416,13.646c-0.783-0.995,6.298,10.546,7.9,12.925l3.658,5.433c2.748,4.081,3.805,9.392,6.656,13.282
			l3.375,4.605c5.802,7.917,9.265,17.443,10.879,19.283c3.963,4.517,4.997,11.405,8.76,16.08l5.028,6.246l8.632,16.307
			c1.087,2.053,3.423,3.454,3.833,6.073c0.446,2.848,3.328,4.418,4.201,6.671C943.04,804.683,947.414,808.925,953.807,820.306z
			 M297.189,414.119l-13.375,25.557c7.258,2.861,9.464-6.273,14.887-8.803c2.166-1.01,4.04-3.259,5.809-3.911
			c3.702-1.364,4.773-3.929,7.253-6.101c-1.29,1.131,17.397-11.709,15.953-10.912c4.584-2.531,8.097-4.868,12.116-7.995
			c10.355-8.057,1.49-3.169,12.391-9.685c2.852-1.705,5.18-3.705,7.996-6.152c3.453-3,19.555-11.424,24.146-16.666
			c1.859-2.123,3.77-2.856,5.95-4.317l6.446-4.32c-3.743,2.508,18.38-13.854,13.462-9.548c5.077-4.446,9.865-8.123,15.7-11.609
			c9.762-5.832,16.099-12.573,23.73-18.06c2.272-1.634,3.696-4.355,6.638-5.607c0.473-0.201,9.745-6.466,14.049-8.915
			c5.61-3.192,8.721-6.304,14.345-10.342c2.416-1.735,2.915-4.892,6.827-5.444c1.702-0.24,3.082-3.025,4.484-4.539l0.094-170.61
			c0.002-2.997-1.546-4.279-1.6-6.422l-1.028-40.684L481.048,90.93l-8.509,13.636l-7.501,13.368
			c-1.981,3.532-3.424,6.934-6.013,10.165c-5.569,6.95-10.678,20.762-13.495,23.608c-3.173,3.205-3.697,8.633-6.642,12.158
			c-7.509,8.988-7.734,15.403-12.911,22.134c-3.957,5.144-5.486,11.489-9.1,16.834c-0.875,1.294-2.488,2.043-1.895,4.158
			c0.676,2.41-1.672,3-2.49,4.525l-6.629,12.369c-1.025,1.912-3.068,3.02-3.584,5.418c-0.723,3.359-3.565,5.119-5.049,7.874
			l-9.539,17.71c-0.915,1.698-2.355,3.892-3.533,5.176c-2.828,3.08-3.131,5.998-4.606,9.602c-1.667,4.073-5.015,7.289-6.06,11.834
			c-0.25,1.089-2.099,1.518-2.616,2.481c-3.56,6.627-6.095,13.538-10.04,19.882c-1.64,2.637-4.507,4.46-5.014,7.971
			c0.316-2.192-8.314,12.422-9.84,17.943c-1.808,6.539-6.944,11.263-8.745,14.452l-8.295,14.691l-5.936,10.092
			c-2.083,3.542-3.379,7.565-6.203,10.827c-9.032,10.435-4.446,13.184-11.265,20.839c-2.237,2.511-3.916,6.44-4.932,9.687
			C299.903,412.613,297.932,412.698,297.189,414.119z M689.845,392.242l-7.474-13.627c-1.277-2.329-3.599-3.857-4.361-6.616
			c-0.711-2.572-2.745-3.951-3.894-6.092l-6.313-11.766l-3.153-4.814c-3.408-5.203-6.573-10.053-9.408-15.758
			c-1.096-2.205-3.829-3.665-4.246-6.571c-0.208-1.451-6.436-10.074-7.844-12.181c1.982,2.966-10.286-17.478-7.941-12.945
			l-13.081-25.296c-1.789-3.459-5.431-5.885-6.4-10.263c-0.508-2.298-2.167-3.692-3.602-5.37c-2.986-3.492-3.436-9.119-6.653-12.271
			c-4.674-4.578-14.912-20.331-16.027-27.693c-0.33-2.181-4.292-3.899-4.494-6.97c-0.19-2.887-3.193-4.427-4.165-6.554
			c0.532,1.165-11.435-19.001-12.804-21.444l-7.161-12.783c-2.038-3.638-4.109-6.406-6.141-9.923
			c-2.748-4.757-4.237-10.154-7.732-14.245c-3.578-4.188-4.207-10.053-7.899-13.86c-3.321-3.424-4.302-7.724-6.864-11.636
			c-1.631-2.49-3.924-4.702-4.811-7.883c-0.806-2.893-10.428-16.972-12.675-20.443l-3.512-5.425l-6.389-11.542l-4.642-6.857
			l-0.313,121.479c-0.008,3.072,1.253,5.225,1.871,7.398l0.388,87.383l14.3,9.1l5.242,4.254c3.653,2.965,7.294,4.708,11.275,6.999
			l6.307,3.63c1.566,0.901,25.079,18.834,30.684,22.594l5.48,3.676c1.341,0.899,3.715,2.762,5.04,3.568l8.78,5.341
			c3.067,1.866,3.961,4.793,7.751,6.469c-0.682-0.302,11.901,7.939,11.81,7.861c3.228,2.764,16.194,12.18,16.104,12.097l3.756,3.462
			c1.562,1.439,5.646,1.877,7.102,3.295c2.606,2.54,12.873,10.029,16.197,12.256l5.406,3.622c7.583,5.081,5.462,5.173,13.469,10.357
			l6.011,3.892c3.034,1.964,4.744,4.94,9.178,3.766c2.147,1.145,3.312,4.885,5.515,5.225c2.961,0.458,3.345,3.186,5.034,3.926
			c3.059,1.34,4.619,3.482,7.039,5.415c3.126,2.497,7.27,3.282,9.109,8.475c3.35-3.375,0-4.4-1.176-6.478l-5.434-9.608
			C700.621,411.211,695.428,402.421,689.845,392.242z M375.451,381.884c-2.128,1.445-4.299,2.978-6.124,4.206l-5.425,3.65
			c-2.281,1.535-14.406,10.381-15.602,11.695c-1.058,1.162-16.82,12.02-13.237,10.705l-4.904,1.8
			c-2.657,0.975-4.584,3.517-7.06,5.198l-5.426,3.685c-2.972,2.018-6.034,4.67-8.489,7.266c-3.288,3.477-8.969,5.814-13.729,9.824
			l202.564,0.128l-0.159-105.748c-0.003-1.847-3.734-3.794-1.685-6.25l-0.467-34.545c-2.937,2.398-4.079,4.598-7.184,5.06
			l-3.984,4.645c-0.27,0.315-10.957,6.276-13.843,8.624c4.167-3.39-16.534,11.554-12.81,9.09
			c-8.455,5.595-21.704,17.459-28.676,21.216c-17.514,9.437-21.324,17.353-26.932,21.043l-5.969,3.927
			c-1.839,1.21-3.736,2.728-5.46,3.617c-3.32,1.71-5.006,4.106-8.043,6.168L375.451,381.884z M607.749,367.208l-6.566-4.355
			c0.119,0.079-13.446-10.348-13.459-10.364c-3.075-3.874-13.098-8.983-15.171-10.396l-5.936-4.046l-6.012-3.969
			c5.828,3.847-32.225-24.545-26.218-19.493c-4.052-3.408-8.33-4.764-12.842-7.194c-1.599-0.862-1.99-3.973-4.854-4.27
			c-5.246-0.545-7.439-7.029-14.685-9.224l0.039,124.79l2.059,3.312c2.409,3.874-0.27,10.493,0.009,16.019l204.258-0.064
			c0.535-1.658-11.556-8.557-11.607-8.619c-2.485-3.058-4.035-4.87-7.73-6.521c-1.737-0.776-2.975-3.077-5.488-3.544
			c-2.165-0.402-2.943-4.066-5.096-4.631c-2.345-0.615-4.399-1.538-6.173-2.755l-5.762-3.953c-3.057-2.097-4.381-3.713-6.898-5.66
			l-7.864-6.086c-3.877-3.001-9.847-5.87-13.408-9.649c-0.924-0.981-16.315-8.625-17.158-9.535
			C617.797,373.338,612.13,370.113,607.749,367.208z M533,553.131c0.964,0.68,1.831,1.531,2.15,2.696
			c-2.479,4.1-8.468,3.956-11.97,7.307c-1.682,1.61-15.694,10.932-20.209,12.041c9.542,0.99,15.792,7.186,18.294,8.533l24.688,13.29
			c5.861,3.155,11.268,6.831,17.028,10.085l14.006,7.913c3.682,2.08,26.486,14.503,26.97,14.923c1.072,0.93,1.453,1.994,2.501,2.246
			c2.465,0.591,1.802-1.691,2.839-2.939c1.903-2.29,10.583-14.88,10.66-16.224c0.164-2.88,3.738-4.509,4.3-6.51
			c1.638-5.821,3.918-10.075,7.191-14.892l5.282-7.774c4.212-6.199,6.573-13.294,10.257-19.845c0.503-0.895,2.091-1.594,2.53-2.495
			l5.706-11.712c1.491-3.06,2.916-4.95,3.832-7.406c4.954-13.277,9.665-17.563,15.494-27.753l4.802-8.395
			c3.687-6.446,6.49-13.778,10.789-20.087c1.925-2.825,4.544-4.932,5.74-8.323c4.678-13.259,10.108-13.494,10.044-21.331
			c-2.998,2.572-6.359,3.295-9.355,5.306c-1.637,1.099-2.138,3.703-4.881,4.011c-3.096,0.347-4.952,3.062-7.258,4.429
			c-4.253,2.522-8.34,4.379-12.574,6.751l-26.781,15.004c-8.035,4.502-7.709,4.674-14.474,8.829
			c-3.162,1.943-5.529,5.21-9.571,6.125c-1.841,0.417-10.667,7.078-12.126,7.852l-17.718,9.392c-1.509,0.8-1.654,2.664-3.791,3.416
			c-3.808,1.34-7.767,3.254-10.909,5.828c-3.533,2.896-8.053,3.701-11.869,6.38c-2.733,1.919-5.564,4.726-9.615,5.095
			c-1.541-0.168-3.736,0.007-4-1.898c3.203-4.254,8.184-5.91,12.566-8.383l13.384-7.553l10.071-5.988
			c0.521-0.31,34.215-19.905,30.527-18.306c5.077-2.202,8.961-4.872,13.289-7.91c3.516-2.468,7.636-4.035,11.052-6.715
			c4.064-3.189,9.314-3.749,13.363-5.932c3.353-1.808,5.726-5.22,9.785-6.195c2.517-0.604,3.952-2.797,6.042-3.899l11.832-6.24
			c2.122-1.119,3.507-3.232,6.069-3.875c2.852-0.716,4.449-2.74,6.634-4.358c5.355-3.966,14.86-6.666,14.427-8.178
			c-0.192-0.669,0.045-1.523-0.582-1.447c-5.719,0.7-6.651,0.128-9.525,0.13l-34.891,0.023c-3.061,0.002-6.046,1.622-9.045-0.153
			c-7.762-0.57-14.835,0.554-22.635,0.582l-129.383,0.464l0.028,118.998c4.177-0.161,7.807-2.539,10.429-5.621
			C522.487,560.124,522.219,554.718,533,553.131z M433.287,535.205c3.778,3.38,8.939,4.012,12.586,6.914
			c9.719,7.735,18.646,9.61,27.976,15.867c5.599,3.755,11.861,5.911,17.049,10.014c1.982,1.567,4.142,2.538,6.263,3.985
			c4.279-0.723,3.708-17.825,0.758-19.913l0.097-100.955c-14.792,0.856-11.739-2.328-18.009-2.279l-38.757,0.304
			c-1.096,0.009-1.96,1.95-3.252,1.944l-14.047-0.069c-1.449-0.007-2.067-1.98-3.361-1.87c-0.934,1.275-1.887,2.111-2.998,1.94
			c-0.81-0.125-1.295-1.024-2.209-1.725c-1.326-1.018-2.398,0.566-3.621,1.654l-121.503-0.022
			c-2.851,5.934,8.739,6.878,14.135,11.59c4.161,3.634,9.59,4.613,13.549,8.761c7.538,3.822,15.097,8.076,23.136,11.421
			c4.353,1.811,11.252,6.623,16.656,9.707l12.437,7.098c4.927,2.812,10.171,4.759,16.795,9.59l4.617,3.367
			c0.698,0.509,15.968,6.576,28.478,15.396C424.123,530.785,429.272,531.613,433.287,535.205z M279.85,462.837l0.088,178.019
			c0.001,2.955,1.583,4.359,1.611,6.418l0.61,44.766c0.031,2.264-0.567,3.513-2.738,5.176c3.737,2.175,7.101,0.597,8.863-2.782
			c2.104-1.247,5.546-0.404,7.117-1.995c2.577-2.611,5.744-3.239,8.723-5.45l10.165-7.547c-0.797,0.592,16.59-9.246,16.922-9.425
			l7.61-4.093c11.072-5.956,3.06-5.328,11.683-7.706c5.313-1.466,10.788-4.274,15.393-7.41l5.419-3.69
			c3.308-2.252,9.899-6.965,14.733-7.868c-4.459-2.201-4.54-4.482-5.945-7.478c-1.035-2.208-2.889-3.588-2.172-6.816
			c0.254-1.141-2.531-1.263-2.927-1.942c-3.041-5.208-4.83-10.906-8.198-15.918c-1.184-1.761-7.171-10.229-7.63-11.4
			c-1.772-4.524-4.985-8.439-7.29-12.784l-12.123-22.85l-3.708-5.486c-1.217-1.8-3.707-2.576-4.135-5.516
			c-0.405-2.785-2.535-4.626-4.083-6.67c-2.609-3.445-3.291-8.049-6.019-11.244c-1.767-2.069-11.22-16.935-12.368-19.776
			c-1.834-4.539-3.921-9.197-6.656-13.239l-3.666-5.42l-4.303-6.574l-5.274-9.838c-2.779-5.183-6.988-9.848-7.902-15.59
			c-0.182-1.145-1.359-3.181-2.648-3.728c-1.565-0.073-0.978,2.448-0.972,3.444C278.036,461.381,278.026,463.217,279.85,462.837z
			 M630.245,615.517c-2.359,4.252-3.939,8.153-6.052,11.768c-2.129,3.641-5.931,6.765-5.35,11.806
			c12.618,5.857,23.569,14.699,36.683,19.086c3.092,1.035,3.696,1.73,5.851,3.484c5.592,4.553,13.448,6.291,19.509,10.488
			c9.327,6.458,5.808,2.387,12.724,8.219c4.034,3.402,9.486,4.348,13.66,7.455c11.307,8.417,6.392,2.398,16.736,8.433
			l-0.214-140.941l-1.968-6.367l0.031-92.68c-3.813,3.982-3.275,8.692-7.456,11.174c-2.53,7.197-8.181,13.639-12.446,21.682
			l-14.183,26.747c-1.668,3.146-4.787,5.318-5.815,9.136c0.256-0.952-9.518,16.71-9.823,17.212l-5.63,9.281
			c-2.785,4.592-5.208,7.881-7.12,13.361c-1.051,3.013-4.947,5.906-5.686,9.804c-0.623,3.291-3.292,5.686-4.782,7.96l-6.265,9.56
			c-1.718,2.622-1.835,4.28-3.367,7.041L630.245,615.517z M101.256,766.323c-1.202,3.707-2.435,5.214-4.014,7.829l-6.724,11.133
			l-7.704,14.476l-3.948,5.916c-4.254,6.375-5.972,8.244-9.419,16.94c-0.494,2.715,14.309-8.288,14.631-8.46l15.678-8.385
			c1.543-0.825,2.033-2.292,3.842-3.255c6.839-3.641,14.064-6.106,20.324-10.529c5.435-3.84,11.913-5.805,16.882-9.947
			c2.661-2.218,5.611-3.071,8.718-4.759c2.145-1.166,3.577-3.909,6.477-4.259c2.705-0.327,4.039-2.955,6.048-3.938
			c14.063-6.876,19.438-11.8,29.686-17.249l11.161-5.935c3.157-1.679,5.497-4.758,9.135-5.81c2.599-0.751,4.007-2.744,6.089-3.959
			c7.055-4.116,14.928-7.002,20.552-11.42c5.48-4.305,12.476-6.073,18.317-9.807c1.827-1.168,2.871-3.13,5.395-3.618
			c0.937-0.181,13.694-7.126,13.68-10.509l-0.606-144.285l-0.616-98.09c-2.767,2.149-2.957,4.026-4.261,6.332l-7.509,13.275
			l-8.112,13.066l-9.517,17.176c-2.2,3.971-4.067,7.416-5.825,11.656c-1.075,2.594-4.635,4.296-4.928,7.727
			c-0.213,2.498-2.642,3.56-3.594,5.393c-2.885,5.55-5.883,10.959-8.277,16.708c-1.039,2.495-2.545,3.12-3.968,5.031
			c-6.178,8.301-7.562,13.08-12.522,22.508c-2.488,4.728-5.079,8.754-7.675,13.531l-13.608,25.04
			c-4.744,8.73-12.499,19.619-15.405,28.087c-1.866,5.437-4.564,11.133-7.924,15.824l-5.063,7.067
			c-4.586,6.401-11.578,23.245-13.854,25.965l-3.7,4.419l-4.74,11.463l-6.271,10.593l-4.633,7.181l-7.33,13.96
			c-1.157,2.204-3.684,3.738-4.072,6.604C111.955,747.729,103.318,759.963,101.256,766.323z M889.174,733.567
			c-0.708-1.577,0.268-3.762-0.729-4.405c-0.522-0.337-1.975-0.356-2.424-1.227l-3.699-7.166c-1.65-3.197-3.464-6.58-5.741-9.287
			c-3.854-4.582-5.166-9.452-7.508-14.805c-1.465-3.348-5.04-5.67-6.175-9.76c0.897,3.232-8.688-14.652-8.814-14.875l-7.251-12.83
			c-0.938-1.659-3.267-2.019-3.615-4.52c-0.437-3.146-6.167-8.768-7.314-12.382c-1.801-5.672-10.532-18.03-13.37-23.033
			l-7.506-13.233c-1.984-3.497-3.241-6.992-5.939-10.138c-5.812-6.775-11.836-23.366-15.451-27.609
			c-2.303-2.703-3.769-6.442-5.08-9.727c-1.198-3.002-4.067-3.484-5.395-5.856l-7.098-12.679
			c-2.109-3.768-10.193-16.197-10.577-18.132c-0.531-2.681-2.37-2.414-3.309-4.093l-7.167-12.818
			c-4.138-7.4-7.843-13.161-11.492-19.614c-2.149-3.799-6.123-6.36-6.373-11.458c-5.815-3.428-4.978-9.97-8.975-15.739
			l-0.268,180.713l1.884,4.353l0.412,57.345c7.281,4.261,15.196,6.545,21.656,11.445c4.269,3.238,9.17,4.812,13.786,7.449
			l5.736,3.277c2.523,1.442,4.73,4.243,7.957,4.882c7.013,1.39,21.254,11.226,28.675,15.423l14.015,7.926l15.382,8.633
			c2.403,1.349,3.759,4.12,7.023,3.927c2.447-0.145,3.386,1.999,5.15,2.945l16.237,8.706c-0.828-0.444,13.976,9.388,13.775,9.302
			c5.073,2.179,9.7,4.836,14.505,7.493l30.703,16.982l9.689,5.517c1.86,1.059,2.398,4.105,5.977,1.929
			c-2.826-2.135-2.977-6.147-5.268-8.717c-4.415-4.952-16.211-27.384-18.375-29.424c-3.535-3.332-5.164-7.598-7.752-11.519
			c-1.883-2.853-3.254-5.195-4.736-8.462c-0.754-1.661-10.314-16.869-10.363-17.305
			C893.617,737.829,890.452,736.416,889.174,733.567z M470.888,588.896c5.839-0.707,9.606-4.912,14.173-7.846l9.22-5.924
			c-1.19-2.314-3.969-2.473-5.656-3.808c-3.026-2.395-5.745-5.137-9.657-6.228c-1.2-0.335-10.86-7.661-20.762-11.08
			c-3.187-1.1-5.51-2.003-8.332-3.893c-7.344-4.916-10.897-6.658-18.803-11.098l-12.864-7.223c-3.676-2.064-6.445-4.921-10.69-5.484
			c-1.363-0.742-3.166-3.051-5.081-3.845c-5.636-2.339-27.425-13.425-31.533-16.511c-6.231-4.683-14.134-6.74-20.816-11.111
			c-1.943-1.271-2.823-3.446-5.993-3.052c-1.345,0.167-1.929-2.353-2.932-2.851l-10.585-5.257c-3.887-1.93-6.82-3.901-10.249-5.797
			l-12.336-6.817c-3.566-1.971-7.002-2.916-9.611-6.854c-1.442,5.57,2.896,8.137,4.756,11.412l6.901,12.156
			c2.19,3.857,3.762,7.245,6.248,11.029l3.53,5.374l6.02,11.094c2.364,4.357,5.101,8.037,7.733,12.419l5.978,9.953
			c2.576,4.29,5.839,7.899,6.539,13.433c0.348,2.754,3.304,4.828,4.853,6.949c2.775,3.799,3.462,8.979,6.621,12.24
			c2.603,2.688,3.093,6.141,5.234,9.055c1.439,1.958,2.855,3.773,4.015,5.92l8.087,14.964c2.224,4.115,4.692,7.789,6.671,12.172
			c2.491,5.514,5.414,10.291,8.941,14.979c1.721,2.287,2.025,4.664,5.008,4.923c3.204,0.278,5.896-5.023,15.489-8.043
			c3.167-0.997,4.489-2.582,7.153-4.063l12.846-7.143c6.122-3.404,19.437-10.803,24.177-14.885
			C455.054,598.261,472.997,588.641,470.888,588.896z M432.965,698.029c-0.427-1.758,12.371,21.928,12.984,23.006l12.999,22.835
			c1.989,3.494,4.172,6.742,5.541,10.534c-0.003-0.008,10.109,15.135,9.383,13.768l5.917,11.139c1.64,3.087,3.688,5.35,5.145,8.833
			c1.983,4.742,4.977,8.965,7.565,13.643c1.973,3.568,5.396,6.192,5.709,11.169c1.327,0.083,2.181,0.18,3.938-0.124
			c-0.755-11.265,0.724-22.368-0.633-33.547c-0.257-2.118-1.595-3.424-1.594-6.448l0.091-194.978
			c-4.881,3.249-14.518,5.813-15.467,9.57c-8.952,1.914-15.344,7.612-24.347,12.695l-12.242,6.913
			c-5.378,3.037-10.543,5.941-15.893,9.13c-2.813,1.677-4.358,5.133-8.051,5.94c-4.46,0.974-7.641,4.042-11.137,6.757
			c-3.964,3.078-12.554,4.733-15.726,10.141c4.436,6.712,9.675,15.361,13.536,20.214c4.401,5.532,5.88,12.607,9.861,18.481
			C421.57,679.212,432.777,697.254,432.965,698.029z M579.123,683.097c1.118-2.051,3.406-3.422,3.909-6.101
			c0.487-2.593,2.471-4.141,3.855-6.094c3.457-4.88,4.478-11.203,8.104-15.782c3.348-4.229,4.453-9.324,7.465-13.667
			c0.841-1.213,2.659-1.552,2.689-3.008c0.099-4.924-10.631-5.98-14.173-10.044c-3.11-3.568-7.378-4.591-11.807-5.567
			c-1.453-0.32-1.992-2.149-3.142-2.817c-5.224-3.037-10.922-4.852-15.893-8.193c-2.98-2.003-5.417-4.789-9.162-5.771
			c-2.569-0.674-3.958-2.79-6.046-3.908l-16.968-9.086c-8.092-4.333-15.737-8.571-23.977-13.305l0.393,62.989l1.722,6.396
			l0.001,164.578c4.118-4.102,3.154-9.315,8.249-11.517c-1.806-3.338,1.407-4.015,2.251-5.693l15.353-30.511
			c-3.72,7.394,12.116-19.788,11.104-17.981l7.482-13.364c2.122-3.791,4.093-7.404,5.928-11.299
			c8.322-17.673,8.146-13.613,15.632-27.353L579.123,683.097z M458.327,803.254l13.705,7.713
			c7.039,3.961,15.661,7.785,18.875,12.073c2.598-0.853,0.656-3.993-0.807-5.115c-3.898-2.99-3.6-8.494-5.843-12.23
			c-1.39-2.316-3.272-3.973-4.433-6.649c-2.215-5.11-7.496-10.933-7.802-13.056c-0.401-2.778-3.321-4.418-4-6.533
			c-2.247-6.997-3.388,1.964-8.068-12.089c-0.852-2.56-2.605-2.966-3.709-4.567c-4.658-6.761-7.096-14.672-11.356-21.734
			c-1.108-1.836-3.079-3.01-3.661-5.348c-1.518-6.094-6.435-7.638-10.358-18.398c-0.537-1.474-7.481-11-7.679-11.371l-10.834-20.286
			c-1.328-2.487-2.213-4.68-4.086-6.839c-2.899-3.343-3.793-8.051-6.143-11.821c-0.595-0.955-2.323-1.463-2.559-2.482
			c-0.57-2.465-8.89-14.163-9.952-15.218c-1.24-1.232-1.656-5.578-3.615-4.894c-4.47,1.562-7.186,4.889-10.648,6.701l-25.722,13.463
			c-2.808,1.47-5.172,3.902-7.851,5.462l-8.779,5.112l-11.17,6.815c-2.946,1.797-6.865,3.4-9.358,5.597
			c-4.069,3.584-7.739,5.328-13.387,7.025c-2.846,0.855-5.217,4.912-9.26,5.331c-2.022,0.21-5.466,4.329-3.439,5.3
			c2.315,1.11,3.767,2.469,5.844,3.586l16.189,8.707c3.185,1.713,5.135,5.57,9.777,4.303c2.205,4.137,6.533,4.817,10.303,6.778
			l13.859,7.211c3.19,1.659,5.127,4.976,9.157,5.757c0.974,0.188,1.572,1.881,2.483,2.444c5.256,3.253,11.603,4.777,16.245,8.601
			c2.854,2.351,6.107,3.132,9.093,5.225c1.811,1.27,3.269,4.239,6.304,4.637c5.844,0.766,9.987,4.358,14.681,6.922
			c6.737,3.68,12.721,6.77,18.408,11.838c3.427,3.054,8.984,3.364,12.3,6.756c3.489,3.568,9.105,4.017,12.835,7.179
			c2.155,1.827,3.529,2.918,6.511,3.67C453.051,799.502,455.647,801.746,458.327,803.254z M558.388,795.717
			c1.227-0.222,1.317,1.406,1.247,2.289c-3.842,5.324-11.961,6.495-17.728,11.01c-5.024,3.934-11.309,5.711-16.956,8.919
			l-5.407,4.999l200.32,0.113c2.23,0.001,3.527-0.339,4.891-1.973l212.019-0.175c-4.639-5.977-10.51-6.866-15.789-9.893
			l-15.187-8.708c-10.493-6.017-21.882-9.768-31.024-15.96c-4.259-2.885-8.122-5.206-12.813-7.463
			c-1.932-0.929-2.61-4.039-6.065-2.888c-1.573,0.524-2.309-1.998-3.357-2.55l-16.404-8.65c-3.366-1.775-29.05-15.602-30.493-16.586
			c-3.079-2.1-5.718-5.229-9.763-6.082c-2.695-0.568-4.396-3.497-6.455-4.208c-13.089-4.521-12.109-7.714-17.395-8.739
			c-4.34-0.841-6.906-3.555-10.602-5.626L748,716.023c-4.285-2.401-9.145-3.936-12.953-7.133l-4.291-3.603
			c-1.394-1.17-2.622-1.328-4.197-1.497c0.416,0.045-19.112,10.89-21.439,12.22l-10.873,6.214
			c-4.641,2.652-8.579,5.843-13.895,7.096c-3.28,0.773-5.482,3.369-7.974,4.89c-5.245,3.199-10.922,4.735-15.561,8.805
			c-4.759,4.175-11.554,5.369-16.703,9.166c-3.862,2.848-7.327,4.826-11.564,7.517l-4.733,3.006
			c-2.338,1.485-4.12,2.479-6.427,3.778l-13.368,7.526l-12.721,7.177c4.378-2.47-10.808,8.565-13.301,6.814
			c-0.729,0.056-1.434,0.016-2.432-0.091c-0.808-0.086-1.748-0.689-1.568-1.909c3.472-4.17,9.179-4.315,12.888-7.955
			c4.4-4.318,10.478-5.47,15.373-8.88c4.149-2.89,8.136-5.81,13.638-6.266c-3.111,0.258,24.112-15.327,25.128-15.906l13.937-7.947
			l11.866-7.267c2.719-1.665,4.089-2.886,7.444-3.766c7.476-1.96,14.198-8.422,16.694-9.076c3.736-0.98,5.999-4.124,9.176-5.786
			l15.823-8.281c1.665-0.872,2.533-2.73,4.263-3.552c-3.802-5.041-9.069-7.387-15.115-8.479c1.313,0.237-14.381-9.779-12.233-8.664
			l-19.831-10.295c-1.857-0.964-2.996-3.17-5.341-3.609c-3.854-0.721-10.156-8.307-20.471-11.335
			c-3.283-0.964-4.987-1.531-7.431-3.737c-1.884-1.701-22.263-11.68-23.275-11.341c-3.869,1.299-5.474,10.35-8.745,13.831
			c-8.103,8.621-8.759,14.97-13.957,23.218c-1.415,2.246-3.342,3.376-3.526,6.597c-0.209,3.664-3.32,6.47-6.007,8.804
			c-0.012,4.747-2.243,8.469-5.199,11.849c-2.952,3.375-3.423,9.145-6.685,12.143c-6.102,5.608-2.803,5.38-9.545,16.578
			c-1.201,1.994-3.224,2.839-3.434,5.669c-0.086,1.157-2.723,1.757-3.026,2.891c-2.314,11.961-8.983,17.305-14.162,26.647
			l-9.3,16.773l-6.171,10.932c1.683-2.982-13.122,17.858-4.366,15.181c0.375-0.115,1.029-0.818,1.128-1.385
			c0.564-3.224,4.788-1.688,6.119-2.873c3.088-2.75,6.49-4.011,9.903-6.185C551.117,797.162,545.54,800.864,558.388,795.717z
			 M459.61,808.172l-5.87-4.035c-1.476-1.015-15.992-8.416-16.677-8.176c-2.64,0.927-3.115-1.69-4.548-2.539
			c-5.111-3.026-10.495-5.359-15.892-8.003c-2.289-1.121-3.716-2.965-5.703-4.293c-5.41-3.616-11.78-5.128-16.889-9.143
			c-4.286-3.368-9.474-4.948-14.328-7.841l-11.027-6.572c-1.44-0.859-3.195-0.303-13.277-7.73c-4.263-3.14-9.924-3.576-12.76-8.732
			c-4.916,0.513-7.98-2.946-11.807-4.936l-18.403-9.571c-2.748-1.429-4.932-3.179-7.52-4.661l-13.873-7.94
			c-14.83-8.487-11.171-7-17.6-3.542l-16.969,9.128l-23.374,13.508c-4.692,2.711-9.397,5.432-13.91,7.935l-8.567,4.752
			c8.585-4.762-43.989,27.323-32.225,18.809l-13.185,9.542c-4.466,3.232-9.5,5.304-14.134,7.909l-13.362,7.51
			c-4.211,2.367-7.805,4.787-11.996,7.21c-4.75,2.747-9.988,4.28-14.566,7.373c-2.141,1.447-4.018,3.644-6.828,4.075
			c-2.525,0.387-3.028,2.372-4.543,3.628c-3.532,2.929-8.558,3.801-12.289,6.552c-3.772,4.212-9.39,4.184-14.186,8.499
			l201.527,0.152c2.913,0.002,4.451,0.074,6.513-2.058l204.465,0.02c0.506-1.895-0.867-3.119-1.585-3.853
			c-0.636-0.651-3.64,0.486-4.206-0.305C477.981,818.004,462.896,810.432,459.61,808.172z"/>
		<path style="fill:#E92652;" d="M574,786c-0.181,1.22,0.76,1.823,1.568,1.909c0.999,0.106,1.703,0.146,2.432,0.091
			c-0.905,3.006-4.882,2.791-7.337,4.651c-3.188,2.415-6.32,5.025-11.028,5.354c0.07-0.883-0.019-2.511-1.247-2.289
			C558.168,792.186,571.149,788.165,574,786z"/>
		<path style="fill:#E9204D;" d="M542.885,547.354c0.484,1.339,1.465,2.396,2.115,3.646c-0.803,3.309-4.91,1.24-9.85,4.827
			c-0.318-1.164-1.185-2.015-2.15-2.696C536.245,549.921,539.385,548.692,542.885,547.354z"/>
		<path style="fill:#EA3059;" d="M551,543c0.264,1.904,2.459,1.73,4,1.898c2.323-0.359-10.738,8.481-10,6.102
			c-0.651-1.25-1.632-2.307-2.115-3.646C546.15,546.107,548.319,543.843,551,543z"/>
		<path style="fill:#F17B95;" d="M281.651,460.709c-0.527-0.545-0.813-0.149-1.141,0.266c-0.47,0.595-0.66,1.215-0.66,1.863
			c-1.825,0.379-1.814-1.456-1.82-2.412c-0.006-0.996-0.593-3.517,0.972-3.444C280.292,457.528,281.469,459.563,281.651,460.709z"/>
		<circle style="fill:#E81947;" cx="536.92" cy="353.917" r="2.257"/>
	</g>
</g>
</svg>
