<?xml version="1.0" encoding="iso-8859-1"?>
<!-- Generator: Adobe Illustrator 30.1.0, SVG Export Plug-In . SVG Version: 9.03 Build 0)  -->
<svg version="1.1" id="Layer_1" xmlns="http://www.w3.org/2000/svg" xmlns:xlink="http://www.w3.org/1999/xlink" x="0px" y="0px"
	 viewBox="0 0 1000 1000" style="enable-background:new 0 0 1000 1000;" xml:space="preserve">
<g>
	<g>
		<path style="fill:#FEFCBC;" d="M504.136,204.126l0.717,3.866c-1.387,1.888-4.218,22.713-3.142,23.901
			c0.88,0.971,2.485,2.242,4.339,2.043l15.32-1.653l9.015,15.161c-0.575,3.147,0.649,5.806,2.615,7.555
			c-0.037,0.329-0.014,0.669,0,1c0.37,8.839,5.283,21.88,8.57,31.538c3.593,0.991,7.055,1.159,10.406,1.64l2.018,1.564
			l29.186,52.339c-4.867,4.194,28.755,9.009,30.556,11.984l3.16,22.688c-1.138,2.693-14.003-1.597-20.874-1.579
			c-6.238,0.017-12.011,2.737-18.279,3.581l-10.651-10.428l-13.343,5.124c-3.626,1.393-9.507,1.312-12.973-0.303
			c-3.09-1.44-4.461-5.648-6.693-7.984l13.213-22.436l-14.925-14.864c-1.668-2.686,0.79-7.433-1.203-10.122l-9.695-13.08
			l17.271-16.822c-11.199-6.95-22.749-11.389-34.732-15.357c-2.095-0.694-4.325,1.751-6.201,2.16l-28,6.101l-8.989,26.415
			c10.732,20.029,7.923,2.651,6.725,25.529c-0.135,2.576-3.559,4.049-4.495,6.725l13.064,32.652l29.137-21.346
			c4.097,4.196,7.484,8.473,11.093,13.141l-9.424,25.032l-27.292,8.658l-7.222-12.749c-31.295-10.083-15.538,1.213-34.629-22.724
			l-27.278,24.935l-7.609-13.033c-2.955-5.062-11.396-5.983-16.71-8.953c-7.309,2.898-17.071,2.742-25.283,4.686l-4.041,5.336
			l-24.132-7.757c-2.439-0.784-4.512-2.364-5.483-4.284c1.742-2.927,3.499-5.888,4.79-9.042l0.772-0.071l67.137,0.103
			c2.475,0.004,4.139-1.567,5.065-3.181c1.748,0.464,4.163,0.021,5.895,1.037c1.428,0.838,3.395,0.073,4.91-0.878l12.41-7.79
			c-2.294-4.062-3.421-7.933-5.569-11.298c-0.129-0.202,0.059-0.592-0.058-0.803l13.909-24.552c0.848-1.496,1.829-2.686,1.307-4.23
			c2.943-0.941,2.118-2.296,3.331-4.302c8.274-13.685,16.65-27.48,23.856-41.724c0.286-0.009,0.668-0.011,0.932-0.116
			c3.956-1.569,7.514-4.187,11.012-7.437c0.133-3.587-1.034-6.582-1.127-9.723c-0.018-0.604,0.301-1.478,0.081-2.029
			c1.551-0.268,1.943-1.822,2.785-3.313L496,204c0.97-1.718,2.937-3.214,3.283-6.179
			C501.792,199.77,501.384,202.929,504.136,204.126z"/>
		<path style="fill:#FBF4E3;" d="M262,645c-0.057,0.642-0.947,0.942-0.91,2.054l44.929-0.212c-0.882-1.748-2.839,0.012-3.075-1.776
			l21.224-0.106l1.514,0.362c8.133,12.82,7.752,10.124,21.378,10.664c1.115,2.831,3.393,5.248,6.638,6.492l19.367,7.423
			c2.633,5.036,7.632,6.809,12.31,8.974l9.643,4.461c16.863,7.801,23.186,29.774,36.296,39.421
			c5.758,4.237,6.641,24.047,11.919,25.734c7.271,2.323,14.146-5.377,17.734-3.851l5.861,2.491c1.459,1.129,0.989,2.167,1.855,3.695
			l17.16,30.29c0.443,0.783,1.667,1.311,2.184,1.178c0.485,3.213,1.797,7.041,3.971,9.706l-7.098,0.016
			c-20.62,0.046-48.923-31.266-61.134-48.687l-9.934-14.173c-8.87-12.656-26.734-31.775-40.734-38.148
			c-15.193-6.916-25.852-8.498-42.08-11.063l-33-5.216c-7.051-1.115-13.482-4.394-20.344-6.383
			C274.984,667.564,250.78,652.499,251,647C254.248,648.271,259.142,646.446,262,645z"/>
		<path style="fill:#FBF4E3;" d="M255.024,378.966l0.922,3.981c-0.133-0.575,11.233,17.161,11.189,19.971
			c0.779,0.051,1.181-0.67,1.654-0.755l4.037,8.987c-3.258,0.291-1.789-4.551-13.483,8.155c-3.088,3.355-0.158,7.371,0.486,10.634
			c1.149,5.817,4.555,8.332,7.769,12.429c3.69,4.703,5.023,11.443,7.346,16.916c0.761,1.793-0.234,4.235,1.916,4.577
			c-0.708,2.282-3.158,7.512-1.267,9.246c2.593,2.378,5.811,4.789,8.49,6.247c2.182,6.885,1.819,14.048,2.16,21.599
			c0.305,6.737-0.238,12.877-6.068,17.214l-12.605,41.044c-1.635,5.324-2.822,9.984-5.39,14.808
			c-5.511,10.352,0.622,24.01,1.735,24.581c1.233,0.633,2.583,0.905,3.853,0.762C260.441,612.382,253.61,625.901,245,638
			l-5.017-12.853c-3.695-9.466-2.626-20.323-1.238-30.37c1.86-13.461,6.06-25.557,10.912-38.109l5.892-15.244
			c5.536-14.322,10.385-28.722,10.113-44.374c-0.284-16.302-8.592-37.356-15.14-52.504c-1.703-3.939-2.439-8.024-4.306-11.795
			c-1.747-3.528-2.633-6.702-3.629-10.542c-3.139-12.098-6.661-24.397-5.291-36.884c0.966-8.805,2.335-17.292,6.705-24.325
			C245.328,364.117,252.288,376.488,255.024,378.966z"/>
		<path style="fill:#FEFCBC;" d="M708.85,560.984c0.389,0.082,0.972,0.675,1.249,0.958l16.324,28.789
			c0.941-0.982,0.934-1.59,1.422-0.865l21.947,35.729c-0.042,3.046,2.972,5.412,3.207,8.404c0.311,3.955,2.435,7.41,5.075,10.824
			c-7.986,0.993-8.254-1.706-12.075,2.176c-2.239,0.245-4.512-0.207-6.743-0.189c0.183-2.373,1.029-4.755,0.688-7.737l-12.275-5.93
			c-4.514,3.728-10.338,6.94-12.67,11.856c-1.05,0.298-2.651,0.57-2.822,2l-21.232-0.047c0.255-1.78,2.005-0.184,3.089-1.617
			c-3.605-0.644-7.222-0.325-10.846-0.344c-0.508-4.477-2.584-8.697-5.884-12.299c-7.695,4.208-14.968,7.46-21.337,12.15
			l-1.795,0.249l-34.059-0.047c-0.703-2.838-1.01-5.851-1.314-8.751c4.491-4.376,9.456-8.456,14.774-12.391
			c10.241-0.278,10.868-5.054,15.734-6.267c9.984-2.488,20.336-0.431,30.205-2.235c8.658-1.582,16.902-5.959,25.013-8.773
			l-6.474-30.557c-1.109-5.233,2.278-10.427,3.094-15.048C703.503,560.289,706.502,560.487,708.85,560.984z"/>
		<path style="fill:#FBF5E4;" d="M715,645l-0.948,2.014l25.205-0.203c2.231-0.018,4.504,0.434,6.743,0.189
			c-2.529,2.569-4.127,6.226-7.273,8.814c-10.405,8.558-22.72,14.403-35.936,17.945c-8.337,2.234-16.769,3.189-25.427,4.477
			c-29.648,4.411-49.731,4.957-73.796,25.384c-5.258,4.463-16.508,17.114-20.376,22.614l-12.386,17.613
			C554.062,767.659,537,787.117,507,792l25.909-46.035c1.358-2.413,0.429-6.129,2.319-8.338l0.845,0.06
			c1.214,11.502,9.002,8.363,19.853,11.548c1.96-2.566,5.301-3.821,6.625-6.622c10.014-21.187,9.34-15.271,13.141-20.627
			c3.918-5.522,2.86-13.479,5.961-19.52c1.408-2.744,2.648-5.868,3.359-8.422c8.384-8.608,18.129-15.159,27.976-21.811
			c3.206-2.166,8.246-2.846,11.102-6.412c4.1-0.585,9.368,3.023,13.765,0.831c2.227-1.209,4.434-3.331,6.314-4.705
			c2.367,2.615,14.171-1.262,21.712-1.763c5.059-0.336,2.313,3.7,18.275-4.119l14.538,9.389c2.667,1.723,8.245,2.84,9.845-0.847
			c2.471-5.691,2.961-11.938,3.638-17.608C712.349,645.57,713.95,645.298,715,645z"/>
		<path style="fill:#FBF5E4;" d="M496,204l-17.32,30.658c-0.842,1.49-1.234,3.045-2.785,3.313c-0.806-2.027-0.808-4.746-2.127-6.895
			c-17.684-4.258-34.967,28.5-46.185,39.589c-3.889,3.844-7.448,6.827-7.894,13.232c-0.549,7.891-14.097,20.456-20.348,25.388
			c-3.824,3.017-12.285,10.495-16.394,8.697c-7.188-5.508-16.052-2.833-21.082,2.859c-2.233,2.526-2.513,6.672-5.792,8.163
			c-3.445,1.567-27.523,6.916-30.1,6.291l-16.497-4.007c-3.312-0.804-8.133,1.089-10.304,3.892
			c-3.241,4.185-4.589,8.997-7.22,13.035c-1.94,0.354-3.885-0.28-6.116-0.843l-26.449-6.672c1.916-1.912,3.134-3.868,5.842-5.584
			c6.294-3.989,12.847-6.518,19.846-9.124c19.64-7.31,40.266-7.042,59.793-11.052c32.602-6.694,44.619-16.07,64.982-41.07
			c5.256-6.453,9.409-13.074,14.303-19.799l8.834-12.141c2.638-3.626,5.87-6.685,8.831-10.089
			C455.414,216.214,475.658,204.097,496,204z"/>
		<path style="fill:#FBF5E4;" d="M725.945,334.026c-0.155,3.008-12.246,13.367-15,15.005c-5.62-3.777-11.671-6.762-18.663-8.504
			c-1.604-0.4-2.208-2.626-3.612-3.123c-7.161-2.534-14.436-4.383-21.633-4.489l-1.895-0.927c-7.759-3.794-17.359-2.64-26.015-6.389
			c-7.439-3.221-15.335-9.664-23.834-9.317c-4.865,0.199-8.483,2.655-12.838-2.146c-4.023-4.435-12.878-8.048-14.788-14.202
			c-1.535-4.947-1.451-8.374-5.453-12.379c-7.11-7.116-10.914-15.31-18.89-23.01c-4.539-4.382-7.876-9.959-12.083-14.852
			c-2.914-3.389-6.965-5.531-9.531-9.412c-1.601-2.421-3.993-4.195-6.597-4.293c0.16-1.439,0.335-3.327-0.732-4.845
			c-0.279-0.397-13.139-1.331-12.922,0.207l-13.012-21.816c-0.886-1.486-2.207-1.845-3.594-1.544l-0.717-3.866
			c23.128,1.058,45.548,19.073,59.178,37.602l26.327,35.788c4.856,6.601,11.308,11.851,17.26,17.519
			c9.34,8.893,20.802,13.294,32.989,17.155c19.977,6.329,49.855,5.766,69.385,13.524
			C715.328,328.118,721.86,329.546,725.945,334.026z"/>
		<path style="fill:#FEFCBC;" d="M247,355l46.273-0.136l0.714,0.102l4.976,14.039c-2.139,3.739,3.383,18.099,3.547,25.974
			c0.126,6.062-3.436,11.82-3.649,18.142l10.031,10.988c2.841,3.112,0.356,8.54,2.269,12.599l20.767,13.873
			c-6.065,20.002-5.993,11.442-5.033,31.528c-3.585,0.622-7.345,1.971-11.029,1.974l-13.042-21.934
			c0.091-0.319-0.134-0.743-0.073-1.073c1.028-3.75,2.518-7.528,1.034-12.102c-2.911,0.121-5.49,0.491-7.891,0.87l-12.936-21.847
			c0.114-0.315,0.107-0.702,0.26-1c1.712-3.334,3.523-6.781,4.997-10.724c-4.866-2.645-9.723-2.838-14.267-4.284
			c-0.207-0.273-0.773-0.871-1.123-0.84l-4.037-8.987c-0.471-1.048,3.668-15.476,2.282-19.301
			c-5.426-1.812-10.796-2.796-16.046-3.896c-2.736-2.478-9.696-14.849-11.024-17.966c-0.829-1.947-0.819-4.183-3.242-5.715
			C243.489,354.741,245.113,355.006,247,355z"/>
		<path style="fill:#FEFCBC;" d="M694.197,354.74c4.124-0.037,8.517-0.04,12.643-0.013L748,355c2.947,0.02,5.348-0.292,9.398,0.335
			c-4.223,2.044-3.168,6.97-4.398,9.665c-9.632,15.794-17.378,33.038-28.035,46.857c-5.552,7.2-9.898,15.888-14.997,24.116
			c-0.363,0.19-0.612,0.864-1.003,0.953c-4.076,0.93-7.515,3.89-11.698,3.806c-0.329-6.717,1.759-29.491,0.959-39.745
			c3.124-2.789,10.766-17.065,9.387-20.019c-0.771-1.651-2.354-2.516-4.606-3.084c-12.494-3.15-24.569-6.447-36.922-7.94
			c0.383-0.753-0.594-1.103-1.122-1.51c-0.727-0.559-1.64-0.211-2.182,0.552l-2.921-0.052l7.283-13.724
			c0.394,0.032,0.811-0.235,1.207-0.239L694.197,354.74z"/>
		<path style="fill:#FBF5E4;" d="M757.706,390.142c1.086,11.216-2.654,22.4-5.822,33.858c-4.364,15.785-17.675,42.153-20.146,57.423
			c-1.342,8.293-0.963,16.979-0.5,25.675c0.693,13.022,5.928,25.036,10.662,36.969l5.716,14.406
			c6.938,17.486,14.925,43.357,9.774,61.796c-1.34,4.798-1.289,10.029-4.39,13.732c-0.235-2.992-3.249-5.358-3.207-8.404
			c2.266-7.12,4.003-14.544,3.214-22.536c-0.959-9.71-13.355-1.893-17.049-5.033c4.655,0.471-0.429-15.985-0.786-21.11
			c-0.618-8.852-8.977-31.409-8.959-30.943l-0.413-10.499c-0.283-7.186-4.183-13.798-5.171-21.301l-0.929-7.05
			c-0.581-4.412-1.738-8.59,0.049-13.211c-3.469-6.338-1.764-12.79-0.411-19.178c1.516-7.16,4.629-12.699,11.727-15.898
			c2.857-1.288-2.345-12.609,2.043-27.875c0.535-1.861-1.04-3.58-2.276-4.055l11.769-28.289l8.96-5.004
			C753.798,392.362,755.344,390.233,757.706,390.142z"/>
		<path style="fill:#FEFCBC;" d="M546.769,696.239l1.451,13.035l-16.276,20.484l3.285,7.87c-1.89,2.209-0.961,5.925-2.319,8.338
			L507,792c-4.422,0.758-4.936,5.379-8.236,9.935c-1.228-4.89-4.444-7.091-6.764-9.935c-2.175-2.665-3.486-6.494-3.971-9.706
			c2.397-0.617,7.104-1.996,9.521-3.439c4.376-2.613-3.973-20.591-3.353-25.669c6.559-10.061,10.92-21.512,16.386-32.731
			c0.734-1.506,2.925-1.685,3.79-3.127c3.057-5.1,5.84-9.791,9.215-14.774L546.769,696.239z"/>
		<path style="fill:#FEFCBC;" d="M292.06,600.123c1.952,0.261,3.349,3.732,3.194,5.777l-2.128,27.963
			c-3.213,3.824-16.546-0.95-24.173,0.499c-4.019,0.764-6.335,7.425-6.953,10.637c-2.858,1.446-7.752,3.271-11,2
			c-2.823-1.105-4.667-3.275-9.364-1.856c2.603-2.392,2.028-5.266,3.364-7.144c8.61-12.099,15.441-25.618,22.766-38.638l1.234-0.139
			C276.565,598.37,284.357,600.423,292.06,600.123z"/>
		<path style="fill:#FEFDDB;" d="M757.706,390.142c-2.362,0.091-3.908,2.22-6.145,3.47l-8.96,5.004l-11.769,28.289
			c-0.852,0.806-2.457,1.524-2.871,2.837l-17.992,6.231c5.099-8.228,9.444-16.916,14.997-24.116
			C735.622,398.038,743.368,380.794,753,365c3.225,5.837,3.524,12.934,4.2,19.918L757.706,390.142z"/>
		<path style="fill:#FEFDDB;" d="M748,355l-41.16-0.273l4.105-5.696c2.754-1.638,14.845-11.998,15-15.005
			C736.527,338.062,742.337,345.611,748,355z"/>
		<path style="fill:#FEFDDB;" d="M291.953,348.215l1.32,6.648L247,355c2.233-7.466,13.079-14.988,12.388-14.299l26.449,6.672
			C288.067,347.935,290.013,348.57,291.953,348.215z"/>
		<path style="fill:#8F01D3;" d="M616.898,377.753c11.182-2.055,22.246-4.863,33.249-7.717c3.231-0.838,7.113,1.758,9.714-1.102
			l2.921,0.052c0.441,1.31,2.234,0.829,3.304,0.958c12.353,1.493,24.428,4.79,36.922,7.94c2.251,0.568,3.835,1.433,4.606,3.084
			c1.379,2.953-6.263,17.23-9.387,20.019c0.8,10.253-1.289,33.027-0.959,39.745c0.268,5.463-0.398,11.085-1.611,16.814
			l-19.877,4.482l-1.766,16.111l-28.052,10.964l10.228,19.055l-7.883,16.472l-26.163,0.691l-6.069,13.93l4.464,8.239l9.245,27.424
			l-40.457,6.436L586.199,602c-0.389,2.568,1.998,4.347,3.232,6.886c28.489-4.542,15.394,1.985,38.639-16.465l4.039-16.167
			l14.014-0.747l3.304-26.928c0.616-5.02,1.74-9.596,4.65-13.959c12.673,4.191,25.638,7.306,36.185,13.272l10.885,13.131
			c-0.817,4.621-4.203,9.815-3.094,15.048l6.474,30.557c-8.11,2.814-16.355,7.191-25.013,8.773
			c-9.869,1.803-20.221-0.254-30.205,2.235c-4.866,1.213-5.493,5.989-15.734,6.267c-5.317,3.935-10.283,8.016-14.774,12.391
			l-23.743-7.593c-0.394-1.012-1.066-1.883-1.787-2.638c-0.807-0.846-2.022-0.791-3.381-0.144l-28.134,13.402l6.815,24.567
			c-13.391,1.037-25.208-1.556-38.249-0.632c-1.309,0.499-1.917,4.021-1.904,5.639l18.569,23.136
			c0.176,1.403-0.371,2.83-0.218,4.207l-23.181,6.315c-3.375,4.983-6.158,9.674-9.215,14.774c-0.864,1.442-3.056,1.621-3.79,3.127
			c-5.467,11.22-9.828,22.67-16.386,32.731c-18.56-2.822-12.398-2.677-24.304-13.396c0.158-1.385-0.682-3.362-0.071-4.669
			l12.613-24.512l-23.503-12.535l13.299-33.553c-21.825-1.773-13.643,2.753-33.1-7.644l-3.786-21.171l-11.572-5.644
			c-3.506-1.71-5.551-5.512-8.433-8.157l2.651-15.701l-17.334-13.907c1.282-4.813,3.72-8.448,4.309-12.985
			c-5.771-3.606-11.633-6.476-16.44-11.242l13.401-20.562l-35.608,6.641c1.98,21.071-1.281,12.319-2.69,19.175
			c-1.391,6.771,2.225,14.142,1.713,20.884c4.496,3.186,7.911,5.282,11.851,8.768l-2.48,24.705l-26.443-6.605
			c-14.615,10.837-17.609,6.375-24.072,22.755l-31.073-9.966l2.128-27.963c0.156-2.045-1.241-5.516-3.194-5.777l-1.032-30.904
			l6.205-8.167l31.007,7.239c2.618-3.263,3.995-7.114,5.259-11.071l-5.457-27.121c0.626-1.62,0.945-3.343,0.793-5.079
			c1.864,0.398,3.819-1.946,5-3.031c9.581-0.231,19.264-0.646,29.883-2.44c-7.488-13.699-14.379-25.418-20.633-38.548
			c-5.528,0.819-10.453,0.372-14.917,2.093c-0.068-0.433-0.901-0.891-1.273-0.984c-0.959-20.086-1.031-11.526,5.033-31.528
			l-20.767-13.873c-1.913-4.06,0.572-9.488-2.269-12.599l-10.031-10.988c0.213-6.322,3.775-12.08,3.649-18.142
			c-0.164-7.875-5.686-22.235-3.547-25.974l28.281-4.997c0.971,1.92,3.044,3.5,5.483,4.284l24.132,7.757l4.041-5.336
			c8.211-1.943,17.974-1.788,25.283-4.686c5.314,2.97,13.755,3.892,16.71,8.953l7.609,13.033l27.278-24.935
			c19.091,23.937,3.335,12.641,34.629,22.724l7.222,12.749l27.292-8.658l9.424-25.032c-3.609-4.669-6.996-8.945-11.093-13.141
			l-29.137,21.346l-13.064-32.652c0.936-2.675,4.36-4.149,4.495-6.725c1.198-22.877,4.007-5.5-6.725-25.529l8.989-26.415l28-6.101
			c1.876-0.409,4.106-2.853,6.201-2.16c11.983,3.969,23.533,8.407,34.732,15.357l-17.271,16.822l9.695,13.08
			c1.993,2.689-0.464,7.436,1.203,10.122l14.925,14.864l-13.213,22.436c2.232,2.336,3.602,6.544,6.693,7.984
			c3.466,1.614,9.347,1.695,12.973,0.303l13.343-5.124l10.651,10.428c6.268-0.844,12.041-3.564,18.279-3.581
			C602.895,376.156,615.76,380.446,616.898,377.753z"/>
		<path style="fill:#FAF0DF;" d="M665.142,331.99c-7.958-0.078-15.97,1.098-24.356,1.476c-2.2,0.099-3.619,1.97-3.974,3.561
			c-6.389,0.366-18.863,12.127-22.186,6.316c-9.456-16.538-4.142-22.792-26.528-26.413c-10.304-13.145,3.357-9.923-19.979-18.874
			c1.113-5.624-11.262-13.069-9.607-19.554c1.484-5.815,0.628-10.553-5.334-13.056l-10.821-4.542
			c-2.637-1.107-4.715-3.034-7.345-2.468c-0.506-0.916-1.312-1.682-2.01-2.436c-0.014-0.331-0.037-0.671,0-1l2.113-19.01
			c2.604,0.098,4.996,1.872,6.597,4.293c2.566,3.881,6.617,6.023,9.531,9.412c4.207,4.893,7.544,10.471,12.083,14.852
			c7.976,7.7,11.781,15.894,18.89,23.01c4.001,4.005,3.918,7.432,5.453,12.379c1.91,6.155,10.764,9.767,14.788,14.202
			c4.355,4.801,7.972,2.344,12.838,2.146c8.499-0.347,16.395,6.096,23.834,9.317C647.783,329.349,657.383,328.196,665.142,331.99z"
			/>
		<path style="fill:#FAF0DF;" d="M475.895,237.971c0.219,0.551-0.099,1.425-0.081,2.029c-3.499,5.592-7.128,11.16-9.885,17.16
			c-0.264,0.105-0.646,0.106-0.932,0.116c-4.613,0.15-9.652-0.695-14.655,0.331c-1.247,5.025,1.745,12.157-2.212,15.468
			l-7.031,5.883c-5.268-1.705-10.074,8.37-15.575,14.672c-10.238,11.728-6.509,18.081-6.302,16.549
			c-0.438,3.23-1.642,7.677-3.955,9.969c-6.317,3.143-13.497,4.138-20.276,6.037c-0.937,0.262-2.206-0.499-3.207-0.315
			c0.574-3.137-8.038-5.444-8.837-7.887c4.109,1.798,12.569-5.68,16.394-8.697c6.251-4.932,19.798-17.497,20.348-25.388
			c0.446-6.405,4.005-9.388,7.894-13.232c11.218-11.089,28.501-43.847,46.185-39.589
			C475.087,233.225,475.089,235.944,475.895,237.971z"/>
		<path style="fill:#F9EEDC;" d="M382.948,317.982c0.799,2.444,9.411,4.75,8.837,7.887c-5.047,0.926-12.448,6.85-30.03,10.839
			c-2.763,0.627-5.01,2.177-6.728,3.557c-15.747,2.659-15.634-0.783-22.22,14.63l-0.772,0.071h-38.047l-0.714-0.102l-1.32-6.648
			c2.631-4.039,3.979-8.85,7.22-13.035c2.17-2.802,6.992-4.696,10.304-3.892l16.497,4.007c2.577,0.626,26.655-4.724,30.1-6.291
			c3.279-1.491,3.559-5.637,5.792-8.163C366.895,315.149,375.76,312.474,382.948,317.982z"/>
		<path style="fill:#F5DCD8;" d="M636.811,337.026l3.039,5.895c2.163,4.196,5.323,6.551,9.889,7.49l13.034,2.68
			c0.854,0.176,1.124,1.217,1.062,1.583l-18.139,0.593l-31.958-0.202c-1.802-2.976-35.424-7.79-30.556-11.984l4.916-26.152
			c22.386,3.621,17.072,9.874,26.528,26.413C617.948,349.153,630.422,337.392,636.811,337.026z"/>
		<path style="fill:#F5DCD8;" d="M415.268,320.147c2.941,3.617,5.076,7.857,7.328,11.937c0.117,0.212-0.071,0.601,0.058,0.803
			c-2.296,1.19-3.033,3.972-4.334,6.449c-2.498,4.757-6.249,8.642-7.417,13.517c-1.732-1.016-4.147-0.573-5.895-1.037
			c-4.984-2.983-10.827-4.239-16.142-6.643c1.159-6.537,3.835-12.756,6.126-18.99C401.77,324.285,408.951,323.29,415.268,320.147z"
			/>
		<path style="fill:#FEFDD0;" d="M355.026,340.265c0.574,1.448,2.026,2.466,3.937,2.907l24.994,5.768l4.909-3.767
			c5.315,2.404,11.158,3.66,16.142,6.643c-0.926,1.614-2.59,3.185-5.065,3.181l-67.137-0.103
			C339.392,339.482,339.28,342.924,355.026,340.265z"/>
		<path style="fill:#FEFDD0;" d="M568.118,298.055c23.336,8.951,9.675,5.729,19.979,18.874l-4.916,26.152l-29.186-52.339
			C558.427,294.178,563.034,296.105,568.118,298.055z"/>
		<path style="fill:#F1C7CA;" d="M645.696,355.268c0.452,4.154,5.363,10.602,4.451,14.769c-11.004,2.854-22.067,5.662-33.249,7.717
			l-3.16-22.688L645.696,355.268z"/>
		<path style="fill:#F9EEDC;" d="M568.118,298.055c-5.084-1.95-9.691-3.877-14.123-7.312l-2.018-1.564l-16.966-30.743
			c2.631-0.566,4.709,1.361,7.345,2.468l10.821,4.542c5.962,2.502,6.818,7.24,5.334,13.056
			C556.856,284.986,569.232,292.431,568.118,298.055z"/>
		<path style="fill:#F7E2C7;" d="M332.034,354.966c-1.291,3.154-3.048,6.115-4.79,9.042l-28.281,4.997l-4.976-14.039H332.034z"/>
		<path style="fill:#F9EEDC;" d="M441.1,278.958L441.142,299c-1.213,2.006-0.388,3.361-3.331,4.302
			c-6.297,2.013-12.15,5.326-18.588,6.877c-0.208,1.532-3.937-4.821,6.302-16.549C431.026,287.328,435.832,277.253,441.1,278.958z"
			/>
		<path style="fill:#FEFDD0;" d="M464.997,257.276c-7.205,14.245-15.581,28.039-23.856,41.724l-0.042-20.042l7.031-5.883
			c3.957-3.311,0.965-10.443,2.212-15.468C455.345,256.581,460.384,257.425,464.997,257.276z"/>
		<path style="fill:#FAEEC5;" d="M521.459,231.352c0.332,0.557,0.724,0.661-0.089,0.932l-15.32,1.653
			c-1.853,0.2-3.459-1.072-4.339-2.043c-1.076-1.188,1.755-22.013,3.142-23.901c1.387-0.301,2.708,0.058,3.594,1.544
			L521.459,231.352z"/>
		<path style="fill:#FEFDD0;" d="M422.596,332.084c-2.252-4.081-4.387-8.32-7.328-11.937c2.314-2.292,3.517-6.739,3.955-9.969
			c6.438-1.55,12.291-4.864,18.588-6.877c0.523,1.543-0.459,2.733-1.307,4.23L422.596,332.084z"/>
		<path style="fill:#F7E2C7;" d="M535.01,258.436l16.966,30.743c-3.351-0.481-6.813-0.65-10.406-1.64
			c-3.287-9.658-8.2-22.699-8.57-31.538C533.698,256.754,534.505,257.52,535.01,258.436z"/>
		<path style="fill:#FEFDDB;" d="M535.113,235.99L533,255c-1.966-1.749-3.19-4.408-2.615-7.555l-9.015-15.161
			c0.813-0.271,0.421-0.375,0.089-0.932c-0.217-1.538,12.643-0.604,12.922-0.207C535.448,232.663,535.273,234.55,535.113,235.99z"/>
		<path style="fill:#F3D0CA;" d="M410.903,352.853c1.168-4.875,4.919-8.76,7.417-13.517c1.3-2.477,2.037-5.259,4.334-6.449
			c2.148,3.365,3.275,7.236,5.569,11.298l-12.41,7.79C414.298,352.926,412.331,353.691,410.903,352.853z"/>
		<path style="fill:#F7E2C7;" d="M465.929,257.16c2.757-6,6.386-11.568,9.885-17.16c0.093,3.141,1.26,6.136,1.127,9.723
			C473.443,252.973,469.886,255.591,465.929,257.16z"/>
		<path style="fill:#FEFCBC;" d="M469.822,735.121c-4.661-0.603-5.935-4.897-12.798-8.252c-2.136-1.044-3.293-4.081-5.131-5.465
			c0.26-1.672-0.88-2.806-1.871-4.522l-41.385-71.633c-8.021-0.352-16.033,1.917-22.828-0.002l-1.756-0.496
			c-1.34-3.662-2.098-7.488-5.312-11.176c-5.665,3.551-11.235,6.982-15.598,11.381c-0.97,0.01-1.937,0.373-2.929,0.333
			c-11.489-0.461-23.785,2.604-34.53,0.034l-1.514-0.362c0.247-0.146,0.362-1.025,0.031-1.131
			c6.463-16.379,9.457-11.917,24.072-22.755l26.443,6.605l2.48-24.705c-3.939-3.486-7.354-5.582-11.851-8.768
			c0.512-6.742-3.104-14.113-1.713-20.884c1.409-6.856,4.67,1.895,2.69-19.175l35.608-6.641l-13.401,20.562
			c4.807,4.766,10.669,7.636,16.44,11.242c-0.59,4.538-3.028,8.172-4.309,12.985l17.334,13.907l-2.651,15.701
			c2.881,2.645,4.926,6.447,8.433,8.157l11.572,5.644l3.786,21.171c19.457,10.397,11.276,5.871,33.1,7.644l-13.299,33.553
			l23.503,12.535L469.822,735.121z"/>
		<path style="fill:#F9EEDC;" d="M363.142,644.955c6.971-0.075,14.633-1.978,20.911-0.205l1.756,0.496l20.397,18.522
			c8.888,8.071,11.407,21.098,17.788,31.493c17.521,10.769,10.447,8.227,14.08,15.003c2.758,5.143,9.504,7.892,13.819,11.14
			c1.839,1.384,2.995,4.42,5.131,5.465c-1.697,1.205,7.336,14.271,7.953,15.018c0.953,1.154,0.754,4.394,1.853,5.244l-5.861-2.491
			c-3.589-1.525-10.464,6.175-17.734,3.851c-5.279-1.687-6.161-21.497-11.919-25.734c-13.11-9.648-19.433-31.621-36.296-39.421
			l-9.643-4.461c-4.678-2.164-9.677-3.938-12.31-8.974l-19.367-7.423c-3.245-1.244-5.523-3.66-6.638-6.492
			c4.495-3.416,9.929-6.062,13.152-10.698C361.205,645.328,362.172,644.966,363.142,644.955z"/>
		<path style="fill:#FAEEC5;" d="M469.892,739.79c11.907,10.719,5.745,10.575,24.304,13.396c-0.62,5.078,7.73,23.055,3.353,25.669
			c-2.417,1.443-7.125,2.822-9.521,3.439c-0.517,0.133-1.741-0.395-2.184-1.178l-17.16-30.29c-0.866-1.528-0.395-2.566-1.855-3.695
			c-1.099-0.85-0.9-4.09-1.853-5.244C466.263,740.544,468.069,739.954,469.892,739.79z"/>
		<path style="fill:#FAEEC5;" d="M293.126,633.864l31.073,9.966c0.331,0.106,0.215,0.985-0.031,1.131l-21.224,0.106
			c0.236,1.788,2.193,0.028,3.075,1.776l-44.929,0.212c-0.037-1.112,0.854-1.412,0.91-2.054c0.618-3.213,2.933-9.873,6.953-10.637
			C276.58,632.913,289.913,637.688,293.126,633.864z"/>
		<path style="fill:#FEFDD0;" d="M360.213,645.289c-3.223,4.636-8.658,7.283-13.152,10.698c-13.625-0.54-13.245,2.156-21.378-10.664
			C336.427,647.893,348.724,644.828,360.213,645.289z"/>
		<path style="fill:#F9EEDC;" d="M296.921,486.181c0.166,0.705,0.51,1.359,1.076,1.819l-3.168,19.847l-2.979,3.895
			c-2.928,3.828,5.754,28.188,5.598,33.856c-0.065,2.374-0.704,4.164-1.262,6.394c-2.722,2.006-3.81,5.435-5.649,8.598
			l-18.384,31.63c-1.405,2.418-3.021,4.481-3.153,7.003l-1.234,0.139c-1.269,0.143-2.62-0.129-3.853-0.762
			c-1.113-0.571-7.246-14.23-1.735-24.581c2.568-4.824,3.756-9.484,5.39-14.808l12.605-41.044c5.83-4.337,6.373-10.477,6.068-17.214
			c-0.342-7.551,0.022-14.714-2.16-21.599C288.344,481.675,292.549,484.14,296.921,486.181z"/>
		<path style="fill:#F9EEDC;" d="M272.824,411.15c0.35-0.031,0.917,0.567,1.123,0.84c2.704,4.183,5.95,11.034,9.27,15.008
			c-0.153,0.298-0.145,0.685-0.26,1c-3.975,10.95-10.753,8.277-1.843,24.071c-0.839,3.656-3.195,8.369-4.257,11.793
			c-2.15-0.342-1.155-2.784-1.916-4.577c-2.323-5.473-3.656-12.213-7.346-16.916c-3.214-4.097-6.62-6.612-7.769-12.429
			c-0.644-3.263-3.574-7.279-0.486-10.634C271.036,406.598,269.566,411.441,272.824,411.15z"/>
		<path style="fill:#F5DCD8;" d="M295.894,449.844c2.241,3.784,3.909,8.008,6.857,11.232c-0.06,0.331,0.164,0.754,0.073,1.073
			l-4.327,15.251c-0.878,3.095-1.683,5.94-1.576,8.78c-4.372-2.041-8.578-4.506-12.84-6.827c-2.679-1.459-5.897-3.869-8.49-6.247
			c-1.891-1.735,0.559-6.964,1.267-9.246c1.062-3.424,3.418-8.136,4.257-11.793C286.108,451.983,290.975,450.621,295.894,449.844z"
			/>
		<path style="fill:#FAEEC5;" d="M268.787,402.163c-0.473,0.085-0.874,0.806-1.654,0.755c0.045-2.81-11.322-20.545-11.189-19.971
			l-0.922-3.981c5.25,1.1,10.62,2.084,16.046,3.896C272.456,386.687,268.317,401.115,268.787,402.163z"/>
		<path style="fill:#FAF0DF;" d="M735.958,598.026c-5.536-7.651-8.939-23.524-15.34-31.764c-2.48-3.192-7.081-3.812-10.518-4.32
			c-0.278-0.283-0.861-0.876-1.249-0.958c-4.073-7.632-7.579-16.196-13.493-22.383c-0.044-0.816,0.071-1.853-0.357-2.601
			c1.818,1.199,8.059-11.834,8.251-13.776l-13.57-21.134c-0.899-1.401-1.255-3.037-1.579-4.227l17.916-12.908
			c7.55-5.44,2.299-12.014,5.703-14.435l8.623-6.133c3.505-2.493,13.385-29.74,7.615-33.644c0.414-1.313,2.02-2.031,2.871-2.837
			c1.236,0.475,2.81,2.195,2.276,4.055c-4.387,15.266,0.815,26.587-2.043,27.875c-7.098,3.2-10.211,8.739-11.727,15.898
			c-1.353,6.388-3.057,12.84,0.411,19.178c-1.787,4.621-0.63,8.799-0.049,13.211l0.929,7.05c0.988,7.503,4.888,14.115,5.171,21.301
			l0.413,10.499c-0.018-0.465,8.341,22.091,8.959,30.943C735.529,582.041,740.613,598.498,735.958,598.026z"/>
		<path style="fill:#FEFDD0;" d="M654.173,645.092c0.188,4.22-0.88,8.616-5.041,10.992c-2.456,1.402-3.2,4.576-4.962,5.863
			c-1.88,1.374-4.087,3.496-6.314,4.705c-4.397,2.192-9.665-1.416-13.765-0.831c-0.313-2.516-2.109-5.274-2.139-7.787
			c-0.053-4.402-0.774-8.691-1.839-12.989L654.173,645.092z"/>
		<path style="fill:#FEFDDB;" d="M735.958,598.026c3.694,3.141,16.09-4.677,17.049,5.033c0.789,7.993-0.948,15.416-3.214,22.536
			l-21.947-35.729c-0.488-0.725-0.481-0.117-1.422,0.865L710.1,561.942c3.437,0.509,8.039,1.128,10.518,4.32
			C727.019,574.503,730.422,590.376,735.958,598.026z"/>
		<path style="fill:#F9EEDC;" d="M655.969,644.843l27.22,0.15c0.418,3.686,1.201,7.326,0.969,11.073
			c-15.961,7.819-13.215,3.782-18.275,4.119c-7.541,0.501-19.345,4.378-21.712,1.763c1.762-1.288,2.506-4.461,4.962-5.863
			c4.161-2.376,5.229-6.772,5.041-10.992L655.969,644.843z"/>
		<path style="fill:#FEFDDB;" d="M712.178,647c-0.677,5.67-1.167,11.917-3.638,17.608c-1.601,3.687-7.178,2.57-9.845,0.847
			l-14.538-9.389c0.232-3.747-0.551-7.388-0.969-11.073c3.624,0.02,7.242-0.299,10.846,0.344c-1.084,1.433-2.834-0.163-3.089,1.617
			L712.178,647z"/>
		<path style="fill:#F3D0CA;" d="M618.801,636.294c0.304,2.901,0.61,5.913,1.314,8.751l-29.119,0.104
			c1.189-5.525,2.379-11.053,4.063-16.449L618.801,636.294z"/>
		<path style="fill:#FAEEC5;" d="M739.257,646.811l-25.205,0.203L715,645c2.333-4.916,8.156-8.128,12.67-11.856l12.275,5.93
			C740.287,642.056,739.441,644.438,739.257,646.811z"/>
		<path style="fill:#F7E2C7;" d="M708.85,560.984c-2.348-0.497-5.347-0.695-7.703,0.039l-10.885-13.131l5.094-9.291
			C701.272,544.788,704.778,553.352,708.85,560.984z"/>
		<path style="fill:#F7E2C7;" d="M683.189,644.992l-27.22-0.15c6.369-4.69,13.642-7.942,21.337-12.15
			C680.605,636.295,682.681,640.515,683.189,644.992z"/>
		<path style="fill:#F8E7DF;" d="M585.013,694.045c-0.711,2.555-1.951,5.679-3.359,8.422c-3.101,6.041-2.043,13.998-5.961,19.52
			c-3.801,5.356-3.127-0.56-13.141,20.627c-1.324,2.801-4.665,4.055-6.625,6.622c-10.852-3.185-18.64-0.046-19.853-11.548
			c4.337-9.193,10.794-17.82,15.735-26.562c7.338,7.399,10.47-12.508,19.585-11.235c3.533,0.493,11.581-2.48,10.746-6.891
			C582.889,693.784,583.945,694.095,585.013,694.045z"/>
		<path style="fill:#F9EEDC;" d="M586.858,665.782c5.059,1.042,10.345,1.037,15.22,2.205l7.067,1.693
			c1.745,0.418,3.334,1.29,3.844,2.554c-9.847,6.652-19.593,13.203-27.976,21.811c-1.068,0.051-2.124-0.26-2.874-1.045
			l-4.325-22.832L586.858,665.782z"/>
		<path style="fill:#F3D0CA;" d="M551.808,711.126c-4.941,8.742-11.398,17.369-15.735,26.562l-0.845-0.06l-3.285-7.87l16.276-20.484
			l-1.451-13.035c-0.153-1.377,0.394-2.805,0.218-4.207c4.021-1.582,24.831-22.317,28.087-22.071L551.808,711.126z"/>
		<path style="fill:#F8E7DF;" d="M621.953,658.034c0.03,2.513,1.826,5.272,2.139,7.787c-2.857,3.566-7.897,4.247-11.102,6.412
			c-0.51-1.264-2.099-2.135-3.844-2.554l-7.067-1.693C600.768,665.661,620.295,657.746,621.953,658.034z"/>
		<path style="fill:#F8E7DF;" d="M665.142,331.99l1.895,0.927l6.281,12.942l-4.966,9.113c-0.396,0.004-0.813,0.271-1.207,0.239
			c-1.091-0.09-2.206-0.572-3.31-0.535c0.062-0.366-0.208-1.407-1.062-1.583l-13.034-2.68c-4.566-0.939-7.726-3.294-9.889-7.49
			l-3.039-5.895c0.356-1.591,1.774-3.462,3.974-3.561C649.172,333.087,657.184,331.911,665.142,331.99z"/>
		<path style="fill:#FAF0DF;" d="M710.945,349.031l-4.105,5.696c-4.126-0.027-8.519-0.024-12.643,0.013
			c-7.383-7.213-9.85-11.743-20.879-8.882l-6.281-12.942c7.197,0.105,14.473,1.955,21.633,4.489
			c1.405,0.497,2.008,2.724,3.612,3.123C699.274,342.269,705.325,345.255,710.945,349.031z"/>
		<path style="fill:#F1C7CA;" d="M328.168,483.094l3.211,20.473c0.991,6.319,0.989,12.534,2.455,18.422
			c-1.181,1.085-3.136,3.429-5,3.031l-13.782-6.081c3.529-5.579,5.517-12.301,10.129-18.193l-9.402-16.04l0.087-0.622
			c3.684-0.002,7.444-1.351,11.029-1.974C327.267,482.203,328.1,482.661,328.168,483.094z"/>
		<path style="fill:#FEFDD0;" d="M315.866,484.084l-0.087,0.622L297.997,488c-0.566-0.46-0.91-1.114-1.076-1.819
			c-0.107-2.84,0.697-5.686,1.576-8.78l4.327-15.251L315.866,484.084z"/>
		<path style="fill:#FEFDD0;" d="M295.894,449.844c-4.918,0.777-9.785,2.139-14.778,2.224c-8.911-15.794-2.132-13.121,1.843-24.071
			L295.894,449.844z"/>
		<path style="fill:#F7E2C7;" d="M283.218,426.997c-3.321-3.974-6.566-10.825-9.27-15.008c4.545,1.447,9.401,1.639,14.267,4.284
			C286.741,420.216,284.93,423.664,283.218,426.997z"/>
		<path style="fill:#F3D0CA;" d="M302.751,461.076c-2.948-3.224-4.616-7.447-6.857-11.232c2.401-0.379,4.98-0.749,7.891-0.87
			C305.269,453.548,303.778,457.327,302.751,461.076z"/>
		<path style="fill:#F8E7DF;" d="M727.961,429.743c5.77,3.904-4.11,31.151-7.615,33.644l-8.623,6.133
			c-3.405,2.421,1.847,8.996-5.703,14.435c-0.517-5.311,3.484-8.469,1.856-15.707c-3.318-3.684-6.582-7.073-10.53-9.312
			c4.19-7.116,8.015-14.702,11.622-22.01c0.391-0.089,0.639-0.762,1.003-0.953L727.961,429.743z"/>
		<path style="fill:#F1C7CA;" d="M708.966,436.927c-3.607,7.308-7.432,14.895-11.622,22.01
			c-5.486,9.318-11.715,18.321-16.367,28.163c-0.203-0.03-0.4-0.006-0.593,0.063c-1.824-3.195-4.025-6.192-6.37-9.024l1.766-16.111
			l19.877-4.482c1.213-5.728,1.879-11.35,1.611-16.814C701.451,440.817,704.89,437.856,708.966,436.927z"/>
		<path style="fill:#F3D0CA;" d="M663.835,354.675c1.103-0.036,2.219,0.446,3.31,0.535l-7.283,13.724
			c-2.601,2.86-6.483,0.264-9.714,1.102c0.911-4.167-3.999-10.615-4.451-14.769L663.835,354.675z"/>
		<path style="fill:#FEFDD0;" d="M694.197,354.74l-25.845,0.231l4.966-9.113C684.347,342.997,686.814,347.527,694.197,354.74z"/>
		<path style="fill:#F3D0CA;" d="M666.087,369.945c-1.07-0.129-2.863,0.352-3.304-0.958c0.542-0.762,1.455-1.111,2.182-0.552
			C665.493,368.842,666.47,369.191,666.087,369.945z"/>
		<path style="fill:#F7E2C7;" d="M297.234,561.052l-6.205,8.167l1.032,30.904c-7.704,0.299-15.495-1.753-23.06-0.9
			c0.133-2.522,1.748-4.585,3.153-7.003l18.384-31.63c1.839-3.163,2.927-6.592,5.649-8.598
			C295.455,554.911,297.802,558.092,297.234,561.052z"/>
		<path style="fill:#FDFABC;" d="M674.013,478.139c2.345,2.832,4.546,5.829,6.37,9.024c-1.384,4.382-5.482,7.449-6.162,12.495
			L695,536c0.428,0.748,0.312,1.785,0.357,2.601l-5.094,9.291c-10.546-5.966-23.512-9.081-36.185-13.272
			c-2.911,4.363-4.035,8.939-4.65,13.959l-3.304,26.928l-14.014,0.747l-4.039,16.167c-23.245,18.45-10.151,11.924-38.639,16.465
			c-1.234-2.54-3.621-4.318-3.232-6.886l3.127-20.65l40.457-6.436l-9.245-27.424l-4.464-8.239l6.069-13.93l26.163-0.691
			l7.883-16.472l-10.228-19.055L674.013,478.139z"/>
		<path style="fill:#FDFABC;" d="M595.058,628.701c-1.684,5.395-2.874,10.924-4.063,16.449c-1.476,6.86-3.595,13.637-4.136,20.633
			l-9.045,4.386l-2.74-0.207c-3.256-0.246-24.066,20.489-28.087,22.071l-18.569-23.136c-0.013-1.618,0.595-5.14,1.904-5.639
			c13.04-0.924,24.858,1.669,38.249,0.632l-6.815-24.567l28.134-13.402c1.359-0.648,2.575-0.702,3.381,0.144
			C593.991,626.818,594.664,627.688,595.058,628.701z"/>
		<path style="fill:#FDFABC;" d="M328.042,530.1l5.457,27.121c-1.264,3.957-2.641,7.808-5.259,11.071l-31.007-7.239
			c0.569-2.961-1.779-6.141-1.047-9.06c0.559-2.23,1.197-4.02,1.262-6.394c0.85,0.023,1.745-0.04,2.499-0.444L328.042,530.1z"/>
		<path style="fill:#FDFABC;" d="M333.835,521.99c-1.466-5.888-1.464-12.104-2.455-18.422l-3.211-20.473
			c4.464-1.721,9.389-1.274,14.917-2.093c6.254,13.13,13.145,24.849,20.633,38.548C353.098,521.343,343.415,521.758,333.835,521.99z
			"/>
		<path style="fill:#F3D0CA;" d="M328.835,525.021c0.152,1.735-0.167,3.459-0.793,5.079l-28.094,15.055
			c4.03-9.24,9.756-17.758,15.105-26.215L328.835,525.021z"/>
		<path style="fill:#F7E2C7;" d="M469.822,735.121c-0.612,1.307,0.228,3.285,0.071,4.669c-1.824,0.164-3.63,0.754-4.916,2.097
			c-0.617-0.747-9.65-13.814-7.953-15.018C463.887,730.224,465.161,734.518,469.822,735.121z"/>
		<path style="fill:#F8E7DF;" d="M391.785,325.869c1.001-0.184,2.271,0.577,3.207,0.315c-2.291,6.233-4.967,12.453-6.126,18.99
			l-4.909,3.767l-24.994-5.768c-1.911-0.441-3.363-1.459-3.937-2.907c1.718-1.38,3.965-2.931,6.728-3.557
			C379.337,332.719,386.738,326.795,391.785,325.869z"/>
		<path style="fill:#FEFDD0;" d="M451.892,721.404c-4.315-3.248-11.061-5.997-13.819-11.14c-3.633-6.775,3.441-4.234-14.08-15.003
			c-6.381-10.395-8.9-23.422-17.788-31.493l-20.397-18.522c6.795,1.919,14.807-0.35,22.828,0.002l41.385,71.633
			C451.013,718.598,452.153,719.732,451.892,721.404z"/>
		<path style="fill:#F7E2C7;" d="M384.052,644.751c-6.278-1.773-13.94,0.13-20.911,0.205c4.364-4.399,9.933-7.831,15.598-11.381
			C381.955,637.263,382.712,641.089,384.052,644.751z"/>
		<path style="fill:#F5DCD8;" d="M315.78,484.706l9.402,16.04c-4.613,5.892-6.601,12.615-10.129,18.193
			c-5.349,8.457-11.075,16.975-15.105,26.215c-0.754,0.404-1.648,0.467-2.499,0.444c0.155-5.668-8.527-30.028-5.598-33.856
			l2.979-3.895L297.997,488L315.78,484.706z"/>
		<path style="fill:#FEFDD0;" d="M688.102,496.864c0.324,1.19,0.68,2.826,1.579,4.227l13.57,21.134
			c-0.192,1.942-6.433,14.974-8.251,13.776l-20.779-36.343c0.681-5.046,4.778-8.113,6.162-12.495
			c0.193-0.069,0.39-0.093,0.593-0.063C682.748,490.686,685.318,493.996,688.102,496.864z"/>
		<path style="fill:#F5DCD8;" d="M706.018,483.955l-17.916,12.908c-2.785-2.868-5.354-6.178-7.126-9.764
			c4.653-9.842,10.881-18.845,16.367-28.163c3.948,2.238,7.213,5.628,10.53,9.312C709.503,475.486,705.501,478.644,706.018,483.955z
			"/>
		<path style="fill:#F5DCD8;" d="M620.114,645.045c1.065,4.298,1.785,8.587,1.839,12.989c-1.658-0.288-21.185,7.627-19.874,9.953
			c-4.875-1.168-10.161-1.163-15.22-2.205c0.542-6.996,2.661-13.773,4.136-20.633L620.114,645.045z"/>
		<path style="fill:#F5DCD8;" d="M577.814,670.168L582.139,693c0.836,4.411-7.213,7.384-10.746,6.891
			c-9.116-1.273-12.247,18.634-19.585,11.235l23.265-41.165L577.814,670.168z"/>
	</g>
</g>
</svg>
