<?xml version="1.0" encoding="iso-8859-1"?>
<!-- Generator: Adobe Illustrator 30.1.0, SVG Export Plug-In . SVG Version: 9.03 Build 0)  -->
<svg version="1.1" id="Layer_1" xmlns="http://www.w3.org/2000/svg" xmlns:xlink="http://www.w3.org/1999/xlink" x="0px" y="0px"
	 viewBox="0 0 1000 1000" style="enable-background:new 0 0 1000 1000;" xml:space="preserve">
<g>
	<g>
		<path style="fill:#FED552;" d="M504,204c1.092,4.628,4.185,8.664,7.168,12.113c1.3,2.717,2.011,7.049,4.971,8.879
			c-0.648,1.742,1.919,2.906,2.176,4.013c-0.094,3.282,5.162,7.151,5.832,9.992c1.136,4.817,7.71,12.57,10.016,17.076
			c5.698,11.135,11.484,22.98,18.979,33.013c-0.2,2.249,1.715,3.793,2.84,5.917c6.326,11.951,13.189,23.072,20.081,34.112
			c5.148,8.247,8.698,17.87,14.662,25.808l49.417-0.257c10.323-0.054,20.634-0.064,30.966-0.034l21.034,0.06
			c5.88,0.017,12.007,1.109,17.953-0.081c2.764-0.553,8.09,0.789,10.921,0.034c1.483-0.395,4.545-0.04,6.068,0.113
			c2.713,0.272,6.334-0.074,9.071-0.058c3.938,0.023,7.88,0.526,11.845,0.299c2.887-0.165,5.475-0.098,9.245,0.257
			c-2.978,1.834-2.928,5.563-4.245,7.743c-5.542,6.013-8.109,14.167-12.567,21.034c-2.752,4.238-4.981,8.453-7.194,12.966
			c-1.724,3.516-5.807,6.765-5.974,10.976c-1.941,1.27-3.758,3.523-3.478,6.381c-1.402-0.576-7.242,9.686-6.717,10.669
			c-5.266,5.181-6.895,13.105-10.966,18.987c-5.117,7.394-9.357,15.356-13.9,23.205l-18.396,31.78
			c4.572,7.419,7.777,15.68,13.197,21.687c-0.155,2.297,1.546,4.482,2.819,6.498l9.352,14.807
			c5.266,8.338,9.233,17.761,14.934,25.987c3.026,4.366,4.203,11.317,8.874,14.63c-0.469,3.317,3.364,5.86,4.223,8.381
			c1.356,3.981,3.716,6.488,5.913,9.774c2.704,4.044,3.288,10.285,7.887,13c-1.001,3.982,3.961,6.436,5.066,9.247
			c1.801,4.58,3.932,8.955,6.927,12.992c1.971,2.658,2.228,6.284,5.171,8.822c-4.376,0.208-7.604,0.104-11.171,0.178l-13.848,0.286
			c-2.421,0.05-5.672,0.392-8.003,0.013c-4.021-0.654-8.053-0.039-11.995-0.008l-11.22,0.089c-7.579,0.06-15.201,0.21-22.78-0.097
			c-13.354-0.541-26.704-0.196-40.045,0.084c-9.312,0.195-18.652-0.871-27.99-0.008c-7.008,0.648-14.256-1.416-21.881-0.168
			l-17.143,30.843l-20.926,35.117c-1.028,1.724-2.133,3.105-1.987,4.849c-5.865,6.758-8.978,15.592-13.864,23.1
			c-3.14,4.826-5.752,9.757-8.129,14.906c-1.3,2.815-4.914,6.933-5.864,10.005c-0.599,1.939-3.552,4.384-3.963,6.9
			c-0.296,1.811-4.307,3.622-3.336,6.286c-1.091,0.355-1.758,1.788-1.911,2.811c-3.187,3.011-5.161,8.046-7.118,11.992
			c-1.602,3.229-4.281,5.365-5.871,9.817c-2.096-3.827-3.774-5.947-5.129-8.817c-1.902-4.03-4.538-7.517-7.16-11
			c-1.728-2.296-0.117-4.714-4.026-5.129c0.658-3.863-1.89-7.61-4.94-9.861c0.46-3.548-3.029-5.837-4.181-8.911
			c-1.388-3.702-4.33-6.532-6.039-9.987c-2.084-4.213-4.064-8.267-6.942-11.99c-2.973-3.845-3.668-10.169-7.863-13.115
			c-0.058-1.399-0.521-2.813-1.541-4.334c-8.52-12.699-14.388-27.058-23.461-38.674c0.034-2.001-1.156-3.642-2.3-5.616
			l-16.919-29.171c-6.776-1.129-13.41,0.603-19.773,0.075c-8.667-0.719-17.341,0.176-25.992-0.01
			c-11.007-0.237-21.988,0.035-32.99,0.037l-20.008,0.003l-14.963,0.058c-4.616,0.018-9.293-0.743-14.005,0.029
			c-3.366,0.552-9.11-0.841-12.042-0.092c-1.694,0.433-5.134,0.11-6.958,0.055c-4.283-0.129-8.574-0.639-12.895-0.367
			c-2.175,0.137-4.282,0.022-7.07-0.125c1.475-2.432,2.657-4.454,3.07-6.875c3.169-3.209,5.835-7.574,6.824-11.995
			c2.715-0.052,1.97-3.92,3.06-5.005c2.135-2.126,3.636-5.391,4.979-8.176c0.902-1.871,2.873-3.592,3.05-5.845
			c2.076-2.733,4.866-5.482,5.076-9.202c3.732-2.361,4.42-7.339,6.782-10.777c2.308-3.359,8.52-11.988,8.231-16.176
			c1.481,0.477,1.958-0.794,2.708-2.089l8.087-13.954c1.306-2.254,3.501-4.576,3.216-7.093c4.587-4.146,13.018-21.953,15.877-26.969
			c3.712-6.511,8.665-12.516,12.178-20.202l-19.32-33.375c-5.501-9.503-10.742-19.141-16.9-28.147
			c-3.632-5.31-5.847-14.471-10.869-18.74c-1.255-2.584-2.491-7.416-5.294-9.283c0.107-1.369-4.709-11.032-6.693-10.722
			c0.259-3.997-2.907-6.876-5.113-9.989c-0.992-1.4-1.413-3.968-3.005-5.005c-0.261-3.43-3.55-6.096-4.992-8.971
			c-2.632-5.247-5.097-10.741-8.882-15.283c-1.176-1.411-0.508-4.647-3.298-5.64c2.824-0.594,4.417-0.472,6.298-0.349
			c3.987,0.26,7.977-0.287,11.934-0.294l7.916-0.013l8.016-0.003c2.092-0.001,4.97,0.07,7.01,0.05l8.982-0.089l8.963,0.092
			l11.016-0.039c5.649-0.02,11.437-0.572,17.018-0.003c8.029,0.819,16.076-0.181,24.045-0.131l57.073,0.357l20.063-34.953
			c7.646-13.321,16.057-26.269,22.871-40.008c3.535-7.128,9.355-13.241,11.969-20.882c0.999-2.919,4.343-5.671,4.992-9.105
			c0.447-2.367,3.619-5.572,4.984-7.99l3.908-6.919c0.805-1.426,2.649-4.254,3.73-6.089l4.042-6.869
			c0.823-1.398,2.123-3.361,3.003-4.848c2.594-4.384,5.33-8.645,7.465-13.276c0.825-1.79,2.94-3.181,3.327-6.199
			C501.433,199.842,501.749,202.65,504,204z M566.654,354.788L499.889,238.94l-67.261,116.122L566.654,354.788z M721.836,374.841
			L276.05,374.94l222.958,386.156L721.836,374.841z M722.11,623.951l-60.16-104.518l-60.421,104.574L722.11,623.951z
			 M396.49,624.001L336.9,521.066L277.409,623.99L396.49,624.001z"/>
		<path style="fill:#DEC9B6;" d="M749.142,563.26c-1.221,4.079,0.314,8.627,1.553,13.063c0.778,2.785-0.408,5.95,0.479,8.523
			c1.838,5.334-1.099,32.89-5.1,38.162c-1.105-2.81-6.067-5.265-5.066-9.247c6.102-16.121,0.442-43.269-5.595-60.216l-10.714-30.078
			c-4.019-11.284-4.534-22.627-2.64-34.458c1.699-10.615,5.526-20.151,8.682-30.304l10.174-32.738
			c1.318-8.027,5.012-37.425-0.482-41.932c4.458-6.867,7.025-15.021,12.567-21.034c1.017,5.119,3.227,10.299,3.785,15.969
			l1.085,11.032c1.171,11.9-3.057,23.28-6.204,34.786c-4.845,17.718-19.141,42.829-20.417,62.236
			c-1.597,24.288,0.824,31.345,8.961,52.748L749.142,563.26z"/>
		<path style="fill:#DEC9B6;" d="M252.882,376.283c-4.942,7.276-4.294,26.275-3.425,35.388c2.798,29.331,18.13,53.566,22.063,80.789
			c2.321,16.07-1.828,31.335-7.487,46.365c-8.869,23.555-18.676,51.919-11.746,76.91c0.585,2.109,0.787,4.332,2.598,5.265
			c-1.09,1.085-0.345,4.953-3.06,5.005c-1.017-0.632-1.916-1.751-2.384-3.317c-4.651-15.565-5.678-31.461-3.414-47.637
			c0.277-1.98-0.11-3.889-1.029-5.001c6.125-22.653,21.463-45.322,20.642-73.016c-0.502-16.932-8.316-36.777-15.119-52.488
			c-1.705-3.938-2.437-8.025-4.305-11.795c-1.748-3.527-2.633-6.702-3.63-10.542c-3.14-12.098-6.661-24.397-5.291-36.884
			c0.966-8.805,2.335-17.292,6.704-24.325C247.785,365.542,250.25,371.036,252.882,376.283z"/>
		<path style="fill:#DEC9B6;" d="M488.535,217.276c-0.88,1.487-2.18,3.45-3.003,4.848c-4.844-0.964-9.465,1.173-14.136,3.006
			c-22.545,8.849-38.185,26.419-50.928,46.249c-4.205,6.543-8.98,12.248-13.62,18.41c-11.636,15.455-27.859,24.364-46.768,28.393
			c-12.676,2.701-25.054,4.888-38.035,6.812c-14.312,2.121-50.113,15.39-55.195,29.71l-7.916,0.013
			c0.12-1.01,0.409-2.202,1.352-3.299c10.616-12.353,23.795-21.405,39.065-26.946c1.742-0.632,3.38-1.698,3.748-3.106l9.797-1.762
			c7.829-1.408,15.511-2.824,23.5-3.057c3.812-0.111,7.124-1.652,10.722-2.25c21.302-3.542,39.6-13.263,53.589-29.604
			c5.591-6.531,11.037-12.884,16.008-19.924l12.006-17.003c3.174-4.495,5.802-9.266,10.441-11.873
			c0.902-0.507,2.21-0.482,3.387-1.415C453.508,225.793,475.232,215.581,488.535,217.276z"/>
		<path style="fill:#DEC9B6;" d="M552.635,229.774c6.533,5.673,11.684,13.139,17.052,20.474l19.957,27.273
			c4.961,6.779,11.615,12.238,17.767,17.971c15.451,14.4,39.914,19.304,60.117,21.967l15.706,2.07l13.871,2.823
			c0.345,1.644,2.172,2.832,4.059,3.712c11.293,5.266,31.299,16.907,34.991,28.637c-2.737-0.016-6.358,0.33-9.071,0.058
			c-8.174-14.405-36.498-27.343-52.894-30.73c-13.534-2.796-26.776-3.176-39.851-7.476l-13.401-4.407
			c-13.016-4.281-24.801-13.635-32.398-24.868l-12.813-18.944c-6.951-10.277-14.398-19.268-23.823-27.421
			c-7.211-6.238-26.639-16.685-35.765-15.92c-2.96-1.831-3.671-6.163-4.971-8.879c9.037-0.189,24.317,5.447,32.733,9.953
			C546.786,227.611,549.771,229.644,552.635,229.774z"/>
		<path style="fill:#DEC9B6;" d="M268.853,645.312c-0.382,2.01,1.28,2.773,2.752,4.044c23.152,19.987,51.406,21.143,80.38,26.618
			c60.005,11.34,61.163,73.236,117.864,97.141c4.233,1.785,8.857,3.32,12.966,3.756c3.909,0.415,2.298,2.833,4.026,5.129
			c-11.69-0.071-22.798-4.927-33.608-10.328c-3.088-1.543-5.71-3.688-8.891-3.506c-7.216-7.64-14.233-15.805-20.566-24.826
			l-9.952-14.174c-9.18-13.074-27.443-32.642-42.029-38.761c-13.6-5.706-30.846-10.001-45.179-10.954
			c-5.234-0.348-10.072-1.611-14.686-2.857c-0.142-0.622-0.578-1.62-1.658-1.86c-16.652-3.699-31.517-11.44-43.831-23.103
			c-2.104-1.992-4.049-3.609-4.545-6.263C263.719,645.422,267.159,645.745,268.853,645.312z"/>
		<path style="fill:#DEC9B6;" d="M733.152,645.286c-1.439,4.867-6.058,8.101-10.449,11.577
			c-14.045,11.117-31.465,16.541-49.162,19.748c-1.712,0.31-3.231,0.466-3.467,1.954L668,679c-0.36-1.424-2.159-0.985-3.494-1.079
			c-1.174-0.083-1.868,0.723-1.506,2.079h-2c-0.36-1.424-2.159-0.985-3.494-1.079c-1.174-0.083-1.868,0.723-1.506,2.079
			l-1.937-0.257c1.958-2.867-21.442,3.412-19.639,2.664l-9.219,3.828c-1.314,0.546-1.786,1.786-2.077,2.598
			c-9.254,6.187-19.312,12.042-27.135,21.253c-4.287,5.048-8.895,9.617-12.788,15.166l-12.344,17.596
			c-4.9,6.985-9.97,13.073-15.248,19.176c-1.086-0.112-2.254,0.149-3.472,0.989c-11.554,7.974-26.322,16.077-40.024,15.995
			c0.152-1.023,0.82-2.456,1.911-2.811c15.833,1.228,50.131-28.363,55.777-42.241c5.1-7.095,10.007-14.422,15.86-21.462l5.363-6.451
			c4.666-5.612,9.772-10.87,15.334-15.696c31.961-27.729,74.416-11.334,114.735-40.281c2.206-1.584,4.345-3.009,4.051-5.766
			C727.481,645.678,730.731,645.336,733.152,645.286z"/>
		<path style="fill:#E5D1B7;" d="M747,645c-6.289,14.762-33.899,27.358-48.943,29.915l-19.774,3.36
			c-2.985,0.507-5.632,1.139-8.21,0.289c0.236-1.487,1.755-1.643,3.467-1.954c17.697-3.207,35.118-8.631,49.162-19.748
			c4.391-3.476,9.01-6.71,10.449-11.577L747,645z"/>
		<path style="fill:#E5D1B7;" d="M496,204c-2.135,4.631-4.87,8.892-7.465,13.276c-13.304-1.695-35.027,8.517-45.986,17.202
			c-1.177,0.933-2.485,0.908-3.387,1.415c-0.368-2.122,1.764-3.009,3.166-4.603C455.8,215.966,475.916,204.097,496,204z"/>
		<path style="fill:#E5D1B7;" d="M251.824,626.005c-0.989,4.42-3.655,8.785-6.824,11.995l-5.021-12.866
			c-3.574-9.159-3.06-19.843-1.372-29.506l2.355-13.484c0.808-4.627,3.009-8.298,4.035-12.094c0.92,1.113,1.306,3.022,1.029,5.001
			c-2.264,16.176-1.237,32.072,3.414,47.637C249.908,624.254,250.807,625.374,251.824,626.005z"/>
		<path style="fill:#E5D1B7;" d="M753,636c-2.994-4.037-5.126-8.412-6.927-12.992c4.001-5.271,6.937-32.828,5.1-38.162
			c-0.886-2.573,0.299-5.738-0.479-8.523c-1.239-4.436-2.774-8.984-1.553-13.063C759.094,589.434,763.238,608.659,753,636z"/>
		<path style="fill:#E5D1B7;" d="M303.1,321.365c-0.368,1.408-2.006,2.474-3.748,3.106c-15.27,5.541-28.45,14.593-39.065,26.946
			c-0.943,1.097-1.232,2.289-1.352,3.299c-3.957,0.007-7.947,0.554-11.934,0.294C257.463,334.608,281.607,325.23,303.1,321.365z"/>
		<path style="fill:#E5D1B7;" d="M261.895,645.367c0.496,2.654,2.441,4.27,4.545,6.263c12.314,11.663,27.179,19.404,43.831,23.103
			c1.08,0.24,1.516,1.238,1.658,1.86c-13.976-0.523-21.872-4.092-34.94-8.628c-3.472-1.205-5.938-4.061-9.261-5.69
			C259.85,658.412,253.575,651.959,249,645C253.321,644.728,257.612,645.238,261.895,645.367z"/>
		<path style="fill:#E5D1B7;" d="M555.614,763.024C542.115,778.633,526.258,789.989,505,792c1.957-3.946,3.932-8.982,7.118-11.992
			c13.702,0.082,28.47-8.021,40.024-15.995C553.36,763.173,554.528,762.912,555.614,763.024z"/>
		<path style="fill:#E5D1B7;" d="M552.635,229.774c-2.864-0.13-5.85-2.163-8.735-3.708c-8.416-4.507-23.695-10.143-32.733-9.953
			c-2.983-3.449-6.076-7.485-7.168-12.113c15.492,1.065,30.015,8.602,41.846,19.083
			C548.433,225.375,551.299,226.861,552.635,229.774z"/>
		<path style="fill:#E5D1B7;" d="M748,355c-3.965,0.227-7.907-0.276-11.845-0.299c-3.692-11.73-23.698-23.371-34.991-28.637
			c-1.887-0.88-3.713-2.068-4.059-3.712C715.938,326.184,738.931,336.836,748,355z"/>
		<path style="fill:#E5D1B7;" d="M486.84,782c2.622,3.483,5.258,6.97,7.16,11c-2.543-1.514-5.923-0.34-8.951-1.086
			c-15.936-3.923-29.983-12.395-40.708-23.749c3.181-0.182,5.803,1.963,8.891,3.506C464.041,777.073,475.15,781.929,486.84,782z"/>
		<path style="fill:#E5D1B7;" d="M654.063,680.743c-4.92,2.586-14.82,3.329-22.903,6.43c-2.853,1.095-5.149,3.207-8.032,2.66
			c0.29-0.812,0.763-2.052,2.077-2.598l9.219-3.828C632.621,684.155,656.021,677.876,654.063,680.743z"/>
		<path style="fill:#E5D1B7;" d="M668,679c-1.279,1.4-3.259,1-5,1c-0.363-1.356,0.331-2.162,1.506-2.079
			C665.841,678.015,667.64,677.576,668,679z"/>
		<path style="fill:#E5D1B7;" d="M661,680c-1.323,1.314-3.27,1.23-5,1c-0.363-1.356,0.331-2.162,1.506-2.079
			C658.841,679.015,660.64,678.576,661,680z"/>
		<polygon style="fill:#3E0062;" points="721.836,374.841 499.008,761.096 276.05,374.94 		"/>
		<polygon style="fill:#3E0062;" points="566.654,354.788 432.628,355.062 499.889,238.94 		"/>
		<polygon style="fill:#3E0062;" points="722.11,623.951 601.529,624.007 661.95,519.433 		"/>
		<polygon style="fill:#3E0062;" points="396.49,624.001 277.409,623.99 336.9,521.066 		"/>
		<path style="fill:#D5BCAB;" d="M741.008,613.761c-4.599-2.715-5.183-8.956-7.887-13c5.842-33.25-19.01-63.181-20.58-96.343
			c-0.271-5.711,0.82-18.137,2.509-23.353l12.258-37.851c4.934-15.234,8.547-30.957,5.931-46.214
			c2.213-4.513,4.443-8.727,7.194-12.966c5.494,4.508,1.8,33.906,0.482,41.932l-10.174,32.738
			c-3.156,10.154-6.982,19.689-8.682,30.304c-1.894,11.832-1.379,23.175,2.64,34.458l10.714,30.078
			C741.45,570.492,747.109,597.64,741.008,613.761z"/>
		<path style="fill:#C9AC9F;" d="M710.094,354.612c-5.946,1.19-12.073,0.098-17.953,0.081c-0.161-1.369-1.342-2.183-2.761-2.983
			c-24.019-13.54-56.209-11.41-83.116-23.941c-8.134-3.788-16.018-8.541-21.765-15.1l-7.086-8.086l-24.108-30.808
			c-2.205-2.818-16.092-19.019-19.143-17.702c-2.306-4.506-8.88-12.259-10.016-17.076c9.391,1.377,27.573,17.859,33.703,26.165
			l11.921,16.153c6.77,9.174,12.951,18.593,21.564,26.374c31.846,28.774,67.002,18.496,102.794,36.276
			C700.032,346.898,706.221,349.557,710.094,354.612z"/>
		<path style="fill:#D3BAAA;" d="M721.016,354.646c-2.832,0.754-8.157-0.587-10.921-0.034c-3.873-5.054-10.062-7.714-15.966-10.646
			c-35.792-17.78-70.948-7.502-102.794-36.276c-8.612-7.782-14.793-17.201-21.564-26.374l-11.921-16.153
			c-6.13-8.306-24.312-24.789-33.703-26.165c-0.67-2.841-5.926-6.71-5.832-9.992c10.569,0.566,29.309,13.617,36.767,21.816
			c5.517,6.066,10.237,12.475,15.037,19.109l12.129,16.765c4.371,6.042,8.745,11.624,14.566,16.59
			c26.604,22.7,52.934,18.83,83.191,27.699C692.912,334.769,714.729,343.163,721.016,354.646z"/>
		<path style="fill:#DAC2AF;" d="M280.895,645.404c2.75,7.056,27.765,16.3,36.035,17.81l31.153,5.689
			c9.63,1.759,19.046,3.643,27.862,8.24c7.478,3.898,15.094,8.836,20.681,15.156l8,9.05c19.274,21.804,30.454,45.183,57.702,60.248
			c5.029,2.781,10.169,5.161,15.546,5.413c3.05,2.251,5.597,5.997,4.94,9.861c-4.108-0.436-8.732-1.971-12.966-3.756
			c-56.7-23.905-57.859-85.801-117.864-97.141c-28.973-5.475-57.228-6.631-80.38-26.618c-1.472-1.271-3.133-2.035-2.752-4.044
			C271.785,644.563,277.529,645.956,280.895,645.404z"/>
		<path style="fill:#C9AC9F;" d="M701.934,645.381c-1.392,5.539-25.913,11.599-31.957,12.671l-32.171,5.707
			c-17.634,3.128-33.227,11.643-45.223,24.869c-5.215,5.75-10.258,10.816-14.87,17.198c-11.481,15.89-32.229,41.913-50.523,48.179
			c2.377-5.148,4.988-10.08,8.129-14.906c3.432,0.911,18.135-15.01,20.576-18.059l17.862-22.316
			c7.213-9.012,20.695-25.182,30.831-30.317c4.264-2.16,8.036-5.468,12.86-7.098c26.962-9.11,38.355-7.337,59.896-14.001
			c1.139-0.352,1.675-1.236,1.81-2.026C686.734,645.59,694.355,645.441,701.934,645.381z"/>
		<path style="fill:#D3B9A8;" d="M294.9,645.375c1.18,2.576,4.377,3.979,7.4,5.312c27.908,12.31,51.273,8.455,76.415,20.775
			c8.294,4.064,16.029,9.689,22.178,16.45c15.603,17.159,24.489,30.571,39.421,47.816c3.587,4.143,27.471,24.678,33.379,22.371
			c1.153,3.073,4.641,5.363,4.181,8.911c-5.376-0.252-10.516-2.632-15.546-5.413c-27.249-15.065-38.428-38.445-57.702-60.248
			l-8-9.05c-5.587-6.32-13.204-11.258-20.681-15.156c-8.816-4.596-18.232-6.481-27.862-8.24l-31.153-5.689
			c-8.27-1.51-33.285-10.754-36.035-17.81C285.608,644.632,290.284,645.393,294.9,645.375z"/>
		<path style="fill:#BF9E95;" d="M692.142,354.693l-21.034-0.06c1.519-2.248-17.577-6.356-19.818-6.814l-21.579-4.41
			c-21.813-4.458-41.944-12.225-56.054-30.074l-17.179-21.731c-1.041-1.316-1.881-2.483-3.336-2.517
			c-7.495-10.033-13.281-21.878-18.979-33.013c3.052-1.317,16.938,14.883,19.143,17.702l24.108,30.808l7.086,8.086
			c5.747,6.558,13.631,11.312,21.765,15.1c26.908,12.531,59.097,10.401,83.116,23.941C690.8,352.51,691.98,353.324,692.142,354.693z
			"/>
		<path style="fill:#D8C0AD;" d="M725.15,645.299c0.294,2.757-1.844,4.182-4.051,5.766c-40.319,28.948-82.774,12.552-114.735,40.281
			c-5.562,4.826-10.669,10.084-15.334,15.696l-5.363,6.451c-5.853,7.04-10.76,14.367-15.86,21.462
			c-1.841-0.153-2.528,1.61-3.803,2.979l-9.195,9.869c-7.166,7.691-15.613,13.318-25.048,17.873
			c-4.802,2.318-9.27,5.491-14.395,5.234c0.412-2.517,3.364-4.962,3.963-6.9c2.514,1.598,18.456-8.279,20.795-10.072
			c31.433-24.095,39.904-51.847,66.284-71.499c29.263-21.8,65.334-11.52,98.074-31.021c2.835-1.689,5.968-3.101,6.674-6.127
			C717.096,645.26,721.128,644.645,725.15,645.299z"/>
		<path style="fill:#DAC2AF;" d="M257.874,385.255c-7.297,19.271,0.807,50.428,8.195,69.776c3.428,8.978,6.201,17.848,8.944,27.051
			c1.384,4.643,1.688,9.171,2.276,13.843c3.758,29.899-19.094,59.791-20.189,91.949c-0.301,8.852-0.243,17.329,2.764,24.951
			c-1.343,2.785-2.844,6.05-4.979,8.176c-1.811-0.934-2.014-3.157-2.598-5.265c-6.93-24.99,2.877-53.354,11.746-76.91
			c5.659-15.03,9.809-30.295,7.487-46.365c-3.932-27.222-19.265-51.458-22.063-80.789c-0.869-9.113-1.517-28.111,3.425-35.388
			C254.324,379.159,257.613,381.825,257.874,385.255z"/>
		<path style="fill:#D3B9A8;" d="M713.155,645.291c-0.706,3.025-3.839,4.438-6.674,6.127c-32.74,19.502-68.81,9.222-98.074,31.021
			c-26.38,19.652-34.851,47.404-66.284,71.499c-2.339,1.793-18.281,11.67-20.795,10.072c0.95-3.073,4.564-7.19,5.864-10.005
			c18.294-6.266,39.042-32.289,50.523-48.179c4.612-6.383,9.654-11.448,14.87-17.198c11.996-13.226,27.588-21.741,45.223-24.869
			l32.171-5.707c6.044-1.072,30.565-7.132,31.957-12.671L713.155,645.291z"/>
		<path style="fill:#D8C0AD;" d="M485.533,222.123l-4.042,6.869c-10.065-0.314-24.878,9.819-33.002,16.304
			c-2.816,2.247-4.633,4.706-7.038,7.318c-8.098,8.795-15.16,17.945-21.667,28.061c-3.82,5.938-8.343,10.915-12.695,16.207
			c-10.583,12.868-28.245,22.595-44.699,25.571l-35.496,6.42c-17.423,3.151-38.153,10.587-50.836,23.282
			c-0.831,0.831-1.279,1.618-1.192,2.545l-8.016,0.003c5.082-14.32,40.883-27.589,55.195-29.71
			c12.981-1.924,25.359-4.111,38.035-6.812c18.908-4.029,35.131-12.938,46.768-28.393c4.64-6.163,9.416-11.868,13.62-18.41
			c12.744-19.83,28.383-37.4,50.928-46.249C476.068,223.296,480.689,221.159,485.533,222.123z"/>
		<path style="fill:#C9AC9F;" d="M309.864,645.318c0.417,1.926,2.408,2.698,4.5,3.374c25.596,8.27,53.715,6.22,77.844,23.939
			c7.409,5.441,13.542,10.977,19.155,18.015l23.954,30.042c9.028,11.322,19.406,21.912,32.337,27.425
			c1.709,3.455,4.651,6.285,6.039,9.987c-5.907,2.307-29.791-18.228-33.379-22.371c-14.932-17.245-23.818-30.656-39.421-47.816
			c-6.148-6.761-13.884-12.386-22.178-16.45c-25.142-12.32-48.507-8.465-76.415-20.775c-3.024-1.334-6.22-2.736-7.4-5.312
			L309.864,645.318z"/>
		<path style="fill:#BF9E95;" d="M679.155,645.283c-0.135,0.79-0.671,1.673-1.81,2.026c-21.541,6.664-32.934,4.891-59.896,14.001
			c-4.824,1.63-8.596,4.938-12.86,7.098c-10.136,5.135-23.618,21.305-30.831,30.317l-17.862,22.316
			c-2.44,3.049-17.143,18.97-20.576,18.059c4.886-7.508,7.999-16.342,13.864-23.1c2.77-0.961,4.678-3.612,6.741-6.187l15.941-19.907
			c17.814-22.247,34.888-37.665,64.393-42.577c1.423-0.237,2.818-0.849,2.852-1.961
			C652.451,645.087,665.801,644.743,679.155,645.283z"/>
		<path style="fill:#DAC2AF;" d="M727.084,354.759c-1.523-0.153-4.585-0.508-6.068-0.113c-6.287-11.483-28.103-19.876-41.012-23.66
			c-30.256-8.869-56.587-5-83.191-27.699c-5.821-4.966-10.195-10.548-14.566-16.59l-12.129-16.765
			c-4.799-6.634-9.52-13.043-15.037-19.109c-7.457-8.199-26.198-21.25-36.767-21.816c-0.257-1.107-2.824-2.271-2.176-4.013
			c9.126-0.766,28.553,9.682,35.765,15.92c9.425,8.152,16.872,17.143,23.823,27.421l12.813,18.944
			c7.598,11.233,19.382,20.587,32.398,24.868l13.401,4.407c13.076,4.3,26.317,4.68,39.851,7.476
			C690.586,327.416,718.91,340.353,727.084,354.759z"/>
		<path style="fill:#C9AC9F;" d="M272.685,410.971c-0.861-0.228-1.179,0.392-1.425,0.83c-0.286,0.509,0.321,1.414,0.34,1.954
			c0.416,12.054,3.673,22.863,7.453,34.147c2.379,7.103,4.254,13.987,7.07,20.974c5.738,14.239,7.829,28.668,6.908,44.258
			c-3.206,16.906-8.991,32.718-14.822,48.958c-1.224,3.41-6.264,23.119-3.436,24.908c-2.362,3.438-3.051,8.416-6.782,10.777
			c-2.735-3.704,1.235-26.124,2.825-31.01l13.483-41.417c4.789-14.712,4.354-30.474-0.5-45.11l-8.733-26.334
			c-4.537-13.682-12.873-40.731-9.072-53.657C267.976,399.939,272.792,409.602,272.685,410.971z"/>
		<path style="fill:#D3BAAA;" d="M260.879,390.26c-4.823,16.261,3.448,44.905,9.386,61.727
			c10.448,29.598,18.473,48.249,7.346,79.605l-9.76,27.503c-4.609,12.987-7.736,25.767-6.795,39.943
			c0.193,2.915-0.13,5.991,1.857,7.941c-0.177,2.253-2.148,3.974-3.05,5.845c-3.007-7.621-3.065-16.099-2.764-24.951
			c1.095-32.158,23.947-62.049,20.189-91.949c-0.587-4.672-0.892-9.2-2.276-13.843c-2.744-9.204-5.516-18.073-8.944-27.051
			c-7.387-19.348-15.491-50.504-8.195-69.776C259.466,386.292,259.888,388.86,260.879,390.26z"/>
		<path style="fill:#CFB4A5;" d="M477.761,235.081L473.853,242c-3.928-1.541-19.116,10.134-22.07,13.032
			c-11.181,10.966-20.303,23.463-29.281,36.509c-14.042,20.406-33.492,34.261-58.054,38.859l-32.076,6.005
			c-11.344,2.124-35.072,9.433-41.513,18.257l-8.982,0.089c5.93-10.994,36.703-20.543,49.172-22.792l30.445-5.491
			c15.467-2.789,29.865-8.756,41.652-19.352c19.179-17.242,32.875-51.571,61.567-67.338
			C468.984,237.43,473.087,235.297,477.761,235.081z"/>
		<path style="fill:#BC9B91;" d="M463.877,259.094c-2.613,7.641-8.433,13.754-11.969,20.882c-2.566,0.144-3.747,2.565-5.377,4.667
			c-27.517,35.476-36.532,51.482-83.862,60.905c-6.778,1.349-32.885,5.155-34.814,9.163c-5.581-0.569-11.369-0.018-17.018,0.003
			c-0.252-3.794,26.771-10.449,30.612-11.162c24.512-4.548,52.055-8.403,70.472-26.537c3.426-3.373,6.982-6.202,9.987-10.182
			l16.818-22.276C442.123,280.057,459.14,258.616,463.877,259.094z"/>
		<path style="fill:#CFB4A5;" d="M733.121,600.761c-2.198-3.286-4.557-5.793-5.913-9.774c3.25-7.092-3.528-28.388-6.359-36.685
			l-10.438-30.593c-2.562-7.508-4.151-23.25-2.451-31.687c1.975-9.804,3.896-19.247,7.421-28.709
			c4.148-11.133,7.233-22.114,10.574-33.557c0.443-1.518,5.299-23.992,1.311-21.779c0.167-4.211,4.25-7.46,5.974-10.976
			c2.616,15.257-0.998,30.98-5.931,46.214l-12.258,37.851c-1.689,5.215-2.78,17.642-2.509,23.353
			C714.111,537.58,738.963,567.511,733.121,600.761z"/>
		<path style="fill:#D3BAAA;" d="M481.491,228.992c-1.08,1.836-2.924,4.663-3.73,6.089c-4.674,0.215-8.777,2.349-13.048,4.696
			c-28.693,15.767-42.388,50.097-61.567,67.338c-11.787,10.596-26.185,16.563-41.652,19.352l-30.445,5.491
			c-12.469,2.249-43.242,11.798-49.172,22.792c-2.04,0.02-4.918-0.051-7.01-0.05c-0.086-0.926,0.362-1.714,1.192-2.545
			c12.683-12.695,33.413-20.131,50.836-23.282l35.496-6.42c16.454-2.976,34.116-12.703,44.699-25.571
			c4.352-5.292,8.875-10.269,12.695-16.207c6.507-10.116,13.569-19.266,21.667-28.061c2.405-2.612,4.222-5.071,7.038-7.318
			C456.613,238.811,471.426,228.678,481.491,228.992z"/>
		<path style="fill:#CFB4A5;" d="M265.992,400.249c-3.801,12.926,4.535,39.975,9.072,53.657l8.733,26.334
			c4.854,14.636,5.289,30.398,0.5,45.11l-13.483,41.417c-1.59,4.885-5.561,27.306-2.825,31.01c-0.21,3.72-3,6.47-5.076,9.202
			c-1.986-1.95-1.664-5.026-1.857-7.941c-0.941-14.176,2.187-26.955,6.795-39.943l9.76-27.503
			c11.127-31.355,3.102-50.007-7.346-79.605c-5.938-16.822-14.209-45.466-9.386-61.727
			C263.085,393.373,266.251,396.252,265.992,400.249z"/>
		<path style="fill:#C9AC9F;" d="M473.853,242c-1.365,2.417-4.537,5.622-4.984,7.99c-5.72,1.268-18.805,12.874-22.966,18.127
			c-5.417,6.838-11.322,13.217-16.22,20.647c-10.169,15.426-23.967,31.491-41.528,38.483c-6.082,2.422-11.625,4.9-18.126,6.154
			l-18.27,3.525c-10.691,2.063-47.166,8.283-51.937,17.829l-8.963-0.092c6.441-8.823,30.169-16.133,41.513-18.257l32.076-6.005
			c24.562-4.598,44.013-18.453,58.054-38.859c8.977-13.046,18.1-25.543,29.281-36.509C454.737,252.134,469.925,240.459,473.853,242z
			"/>
		<path style="fill:#C4A599;" d="M329.871,645.315c-2.332,1.929,17.49,4.736,20.485,5.42l17.156,3.917
			c10.792,2.464,27.063,12.739,29.386,13.267c0.38,3.289,3.871,4.715,6.269,7.029c18.762,18.114,30.252,42.032,53.143,59.612
			c1.432,1.1,2.975,1.492,4.402,1.563c2.879,3.723,4.858,7.777,6.942,11.99c-12.931-5.513-23.31-16.103-32.337-27.425
			l-23.954-30.042c-5.612-7.039-11.746-12.575-19.155-18.015c-24.129-17.719-52.248-15.669-77.844-23.939
			c-2.092-0.676-4.083-1.448-4.5-3.374L329.871,645.315z"/>
		<path style="fill:#C4A599;" d="M272.685,410.971c2.803,1.867,4.039,6.7,5.294,9.283c0.564,13.177,7.78,30.94,11.778,43.966
			c5.952,19.397,8.36,22.3,9.039,43.739c0.574,18.11-16.322,55.202-15.793,62.864c0.289,4.188-5.923,12.817-8.231,16.176
			c-2.828-1.789,2.212-21.498,3.436-24.908c5.831-16.24,11.617-32.052,14.822-48.958c0.921-15.59-1.169-30.019-6.908-44.258
			c-2.816-6.988-4.691-13.872-7.07-20.974c-3.78-11.284-7.037-22.093-7.453-34.147c-0.019-0.54-0.626-1.445-0.34-1.954
			C271.506,411.363,271.824,410.743,272.685,410.971z"/>
		<path style="fill:#C4A599;" d="M468.869,249.99c-0.649,3.434-3.994,6.186-4.992,9.105c-4.737-0.479-21.754,20.962-25.151,25.462
			l-16.818,22.276c-3.005,3.981-6.561,6.809-9.987,10.182c-18.417,18.133-45.96,21.988-70.472,26.537
			c-3.841,0.713-30.864,7.368-30.612,11.162l-11.016,0.039c4.771-9.546,41.246-15.766,51.937-17.829l18.27-3.525
			c6.501-1.254,12.044-3.732,18.126-6.154c17.561-6.992,31.359-23.057,41.528-38.483c4.898-7.43,10.803-13.808,16.22-20.647
			C450.063,262.864,463.149,251.257,468.869,249.99z"/>
		<path style="fill:#B38F8A;" d="M671.108,354.633c-10.332-0.03-20.643-0.02-30.966,0.034c-0.049-1.169-1.254-1.754-2.727-2.027
			c-16.16-3.003-31.853-6.892-46.568-14.344c-5.402-2.735-9.348-7.489-14.785-9.18c-6.892-11.04-13.755-22.161-20.081-34.112
			c-1.125-2.124-3.04-3.668-2.84-5.917c1.455,0.034,2.295,1.2,3.336,2.517l17.179,21.731c14.11,17.849,34.241,25.616,56.054,30.074
			l21.579,4.41C653.531,348.276,672.626,352.385,671.108,354.633z"/>
		<path style="fill:#B38F8A;" d="M388.853,645.289c0.237,2.341,2.83,2.834,4.809,4.038c10.307,6.268,23.578,17.813,30.148,27.929
			c1.002,1.542,2.63,2.475,4.036,2.745c9.073,11.616,14.941,25.976,23.461,38.674c1.02,1.52,1.483,2.934,1.541,4.334
			c-4.571-1.842-7.5-5.969-10.871-10.102l-19.245-23.595l-11.121-12.944l-4.566-4.276c-21.504-20.141-17.87-14.216-44.184-26.811
			C371.512,645.464,380.186,644.57,388.853,645.289z"/>
		<path style="fill:#BC9B91;" d="M288.848,438.995c-0.782,0.409-0.644,2.112-0.257,3.24l7.746,22.574
			c5.435,15.839,9.764,32.072,8.414,49.069c-1.019,12.831-8.108,30.538-7.738,33.81c0.285,2.517-1.909,4.839-3.216,7.093
			l-8.087,13.954c-0.75,1.295-1.227,2.566-2.708,2.089c-0.528-7.662,16.367-44.754,15.793-62.864
			c-0.679-21.439-3.087-24.342-9.039-43.739c-3.997-13.026-11.214-30.789-11.778-43.966
			C283.001,424.524,285.216,433.684,288.848,438.995z"/>
		<path style="fill:#B38F8A;" d="M451.908,279.976c-6.814,13.739-15.225,26.687-22.871,40.008c-1.608,0.271-2.879,1.439-4.246,2.804
			c-8.508,8.497-18.039,15.367-29.371,19.595c-13.142,4.903-26.217,7.979-40.087,9.944c-1.588,0.225-3.095,1.088-3.432,2.253
			c-7.969-0.05-16.015,0.95-24.045,0.131c1.928-4.008,28.036-7.813,34.814-9.163c47.33-9.423,56.345-25.429,83.862-60.905
			C448.161,282.542,449.342,280.12,451.908,279.976z"/>
		<path style="fill:#BC9B91;" d="M714.11,567.976c-5.701-8.226-9.668-17.649-14.934-25.987c0.523,0.161,1.046-1.106,0.763-1.911
			c-10.935-31.181-8.781-45.419,1.084-76.106l5.823-18.114c0.24-0.745-0.247-1.924-0.741-1.846
			c4.071-5.881,5.7-13.806,10.966-18.987c0.898,5.164-1.704,10.438-3.017,16.022c-2.472,10.505-6.391,20.177-9.593,30.469
			c-7.374,23.701-7.717,39.986,0.339,63.789l10.101,29.844C715.269,566.24,714.736,567.708,714.11,567.976z"/>
		<path style="fill:#C4A599;" d="M722.984,582.606c-4.671-3.313-5.848-10.264-8.874-14.63c0.626-0.268,1.159-1.737,0.791-2.826
			L704.8,535.306c-8.056-23.803-7.713-40.088-0.339-63.789c3.202-10.292,7.121-19.964,9.593-30.469
			c1.314-5.584,3.916-10.857,3.017-16.022c-0.525-0.983,5.315-11.245,6.717-10.669c1.179,12.002-7.132,35.113-11.556,47.864
			c-6.797,19.589-9.201,27.699-8.09,48.758c0.875,16.584,13.987,43.926,18.689,64.25C723.437,577.85,722.85,580.35,722.984,582.606z
			"/>
		<path style="fill:#B38F8A;" d="M639.11,645.367c-0.034,1.112-1.428,1.724-2.852,1.961c-29.506,4.913-46.579,20.331-64.393,42.577
			l-15.941,19.907c-2.062,2.575-3.97,5.226-6.741,6.187c-0.146-1.744,0.96-3.125,1.987-4.849l20.926-35.117
			c3.685-1.173,5.532-4.796,8.281-7.633c8.126-8.385,17.475-14.858,27.729-20.249c1.436-0.755,2.601-1.621,3.013-2.793
			C620.458,644.496,629.798,645.563,639.11,645.367z"/>
		<path style="fill:#B38F8A;" d="M305.748,467.142c-1.097,0.925-0.443,2.445-0.014,4.018c2.34,8.58,5.865,16.822,6.285,25.813
			c0.255,5.452,1.825,10.523,0.788,15.805c-0.566,2.884-1.084,5.53,0.082,7.941c-2.859,5.015-11.29,22.822-15.877,26.969
			c-0.371-3.271,6.718-20.979,7.738-33.81c1.35-16.997-2.978-33.23-8.414-49.069l-7.746-22.574c-0.387-1.128-0.525-2.831,0.257-3.24
			C295.006,448,300.247,457.639,305.748,467.142z"/>
		<path style="fill:#C9AC9F;" d="M727.207,590.987c-0.859-2.521-4.692-5.063-4.223-8.381c-0.134-2.256,0.452-4.757-0.154-7.377
			c-4.702-20.323-17.814-47.666-18.689-64.25c-1.111-21.059,1.293-29.169,8.09-48.758c4.424-12.751,12.735-35.862,11.556-47.864
			c-0.281-2.858,1.537-5.111,3.478-6.381c3.988-2.214-0.868,20.261-1.311,21.779c-3.34,11.443-6.426,22.424-10.574,33.557
			c-3.525,9.462-5.446,18.905-7.421,28.709c-1.7,8.437-0.111,24.179,2.451,31.687l10.438,30.593
			C723.679,562.599,730.457,583.895,727.207,590.987z"/>
		<path style="fill:#A87F80;" d="M429.037,319.984l-20.063,34.953L351.9,354.58c0.337-1.165,1.844-2.028,3.432-2.253
			c13.87-1.965,26.945-5.041,40.087-9.944c11.332-4.228,20.863-11.098,29.371-19.595
			C426.157,321.424,427.428,320.255,429.037,319.984z"/>
		<path style="fill:#B38F8A;" d="M699.176,541.99l-9.352-14.807c-1.273-2.016-2.973-4.201-2.819-6.498
			c0.591-3.752-0.574-7.5-0.86-11.661c-0.91-13.235,2.357-25.98,6.507-38.373c0.47-1.404,0.166-2.66-0.448-3.433
			c4.543-7.849,8.783-15.811,13.9-23.205c0.493-0.079,0.98,1.1,0.741,1.846l-5.823,18.114c-9.864,30.687-12.018,44.925-1.084,76.106
			C700.222,540.884,699.698,542.15,699.176,541.99z"/>
		<path style="fill:#A87F80;" d="M640.142,354.667l-49.417,0.257c-5.964-7.939-9.513-17.562-14.662-25.808
			c5.437,1.691,9.383,6.445,14.785,9.18c14.714,7.452,30.408,11.341,46.568,14.344C638.888,352.913,640.092,353.498,640.142,354.667
			z"/>
		<path style="fill:#BF9E95;" d="M407.045,672.089l4.566,4.276l11.121,12.944l19.245,23.595c3.371,4.133,6.3,8.26,10.871,10.102
			c4.195,2.946,4.89,9.27,7.863,13.115c-1.427-0.072-2.97-0.464-4.402-1.563c-22.891-17.58-34.381-41.498-53.143-59.612
			c-2.398-2.315-5.889-3.741-6.269-7.029C402.932,669.29,402.043,672.205,407.045,672.089z"/>
		<path style="fill:#BC9B91;" d="M362.861,645.278c26.314,12.595,22.68,6.67,44.184,26.811c-5.001,0.115-4.112-2.799-10.147-4.171
			c-2.322-0.528-18.594-10.803-29.386-13.267l-17.156-3.917c-2.995-0.684-22.817-3.491-20.485-5.42
			C340.873,645.313,351.854,645.042,362.861,645.278z"/>
		<path style="fill:#A87F80;" d="M312.89,520.719c-1.167-2.411-0.648-5.058-0.082-7.941c1.036-5.282-0.534-10.353-0.788-15.805
			c-0.42-8.991-3.946-17.233-6.285-25.813c-0.429-1.573-1.083-3.093,0.014-4.018l19.32,33.375
			C321.554,508.203,316.601,514.208,312.89,520.719z"/>
		<path style="fill:#A87F80;" d="M687.005,520.685c-5.42-6.007-8.625-14.268-13.197-21.687l18.396-31.78
			c0.614,0.773,0.918,2.029,0.448,3.433c-4.15,12.393-7.417,25.139-6.507,38.373C686.432,513.185,687.596,516.933,687.005,520.685z"
			/>
		<path style="fill:#A87F80;" d="M427.845,680c-1.406-0.27-3.034-1.203-4.036-2.745c-6.57-10.116-19.84-21.661-30.148-27.929
			c-1.979-1.204-4.572-1.697-4.809-4.038c6.362,0.527,12.996-1.204,19.773-0.075l16.919,29.171
			C426.689,676.358,427.879,677.999,427.845,680z"/>
		<path style="fill:#A87F80;" d="M611.121,645.36c-0.413,1.172-1.577,2.038-3.013,2.793c-10.255,5.391-19.604,11.863-27.729,20.249
			c-2.749,2.837-4.595,6.46-8.281,7.633l17.143-30.843C596.865,643.944,604.113,646.008,611.121,645.36z"/>
		<path style="fill:#DAC2AF;" d="M569.806,734.955c-5.646,13.879-39.943,43.47-55.777,42.241c-0.971-2.664,3.04-4.475,3.336-6.286
			c5.125,0.256,9.593-2.916,14.395-5.234c9.436-4.555,17.882-10.182,25.048-17.873l9.195-9.869
			C567.278,736.565,567.965,734.802,569.806,734.955z"/>
	</g>
</g>
</svg>
