<?xml version="1.0" encoding="UTF-8"?>
<svg id="Layer_1" data-name="Layer 1" xmlns="http://www.w3.org/2000/svg" viewBox="0 0 130 46">
  <defs>
    <style>
      .cls-1 {
        fill: #375f65;
      }

      .cls-2 {
        fill: #476d84;
      }

      .cls-3 {
        fill: #bbdbcd;
      }

      .cls-4 {
        fill: #b0dad9;
      }

      .cls-5 {
        fill: #9dcdc5;
      }

      .cls-6 {
        fill: #6f92a9;
      }

      .cls-7 {
        fill: #567469;
      }

      .cls-8 {
        fill: #4e675d;
      }

      .cls-9 {
        fill: #8dced1;
      }

      .cls-10 {
        fill: #3a5e69;
      }

      .cls-11 {
        fill: #799d95;
      }

      .cls-12 {
        fill: #9fcdc4;
      }

      .cls-13 {
        fill: #315554;
      }

      .cls-14 {
        fill: #7ca1ad;
      }

      .cls-15 {
        fill: #90b5bf;
      }

      .cls-16 {
        fill: #c1eddf;
      }

      .cls-17 {
        fill: #7cb5c2;
      }

      .cls-18 {
        fill: #7bbbce;
      }

      .cls-19 {
        fill: #2b4c4d;
      }

      .cls-20 {
        fill: #386f7c;
      }

      .cls-21 {
        fill: #86b9b5;
      }

      .cls-22 {
        fill: #5c7c71;
      }

      .cls-23 {
        fill: #90d4da;
      }

      .cls-24 {
        fill: #86c8db;
      }

      .cls-25 {
        fill: #1c3838;
      }

      .cls-26 {
        fill: #7baabb;
      }

      .cls-27 {
        fill: #748f8b;
      }

      .cls-28 {
        fill: #386968;
      }

      .cls-29 {
        fill: #2e6170;
      }

      .cls-30 {
        fill: #5e8075;
      }

      .cls-31 {
        fill: #7197b1;
      }

      .cls-32 {
        fill: #2c4b4d;
      }

      .cls-33 {
        fill: #89c8d1;
      }

      .cls-34 {
        fill: #65837a;
      }

      .cls-35 {
        fill: #8abfc7;
      }

      .cls-36 {
        fill: #7094ae;
      }

      .cls-37 {
        fill: #b4eadd;
      }

      .cls-38 {
        fill: #25474a;
      }

      .cls-39 {
        fill: #8eb7c2;
      }

      .cls-40 {
        fill: #90bac6;
      }

      .cls-41 {
        fill: #244140;
      }

      .cls-42 {
        fill: #85bed7;
      }

      .cls-43 {
        fill: #6d90a5;
      }

      .cls-44 {
        fill: #86b7c2;
      }

      .cls-45 {
        fill: #365c6f;
      }

      .cls-46 {
        fill: #93b5ad;
      }

      .cls-47 {
        fill: #95bcc7;
      }

      .cls-48 {
        fill: #5b7c6f;
      }

      .cls-49 {
        fill: #396b6b;
      }

      .cls-50 {
        fill: #80bcd1;
      }

      .cls-51 {
        fill: #93b3be;
      }

      .cls-52 {
        fill: #6c90a8;
      }

      .cls-53 {
        fill: #a2cad5;
      }

      .cls-54 {
        fill: #355a6e;
      }

      .cls-55 {
        fill: #9ed0c7;
      }

      .cls-56 {
        fill: #dbf0eb;
      }

      .cls-57 {
        fill: #99cecc;
      }

      .cls-58 {
        fill: #94c8cc;
      }

      .cls-59 {
        fill: #7caec1;
      }

      .cls-60 {
        fill: #2c6369;
      }

      .cls-61 {
        fill: #214454;
      }

      .cls-62 {
        fill: #9accd0;
      }

      .cls-63 {
        fill: #a6e6e4;
      }

      .cls-64 {
        fill: #5b7d6e;
      }

      .cls-65 {
        fill: #3c7070;
      }

      .cls-66 {
        fill: #2e605e;
      }

      .cls-67 {
        fill: #a2c4b0;
      }

      .cls-68 {
        fill: #7d9e98;
      }

      .cls-69 {
        fill: #b5e5df;
      }

      .cls-70 {
        fill: #a1c3c0;
      }

      .cls-71 {
        fill: #a6cfcb;
      }

      .cls-72 {
        fill: #7eb6c6;
      }

      .cls-73 {
        fill: #a2cdc8;
      }

      .cls-74 {
        fill: #99c3cc;
      }

      .cls-75 {
        fill: #7fb2bc;
      }

      .cls-76 {
        fill: #70abb7;
      }

      .cls-77 {
        fill: #7bbacd;
      }

      .cls-78 {
        fill: #56776b;
      }

      .cls-79 {
        fill: #82b3c3;
      }

      .cls-80 {
        fill: #173635;
      }

      .cls-81 {
        fill: #1b3e50;
      }

      .cls-82 {
        fill: #d0eddc;
      }

      .cls-83 {
        fill: #bcebe0;
      }

      .cls-84 {
        fill: #b3ded2;
      }

      .cls-85 {
        fill: #97ced2;
      }

      .cls-86 {
        fill: #1c3939;
      }

      .cls-87 {
        fill: #1c3937;
      }

      .cls-88 {
        fill: #bde1cb;
      }

      .cls-89 {
        fill: #7abbcd;
      }

      .cls-90 {
        fill: #8bc3cf;
      }

      .cls-91 {
        fill: #66877d;
      }

      .cls-92 {
        fill: #254241;
      }

      .cls-93 {
        fill: #cdefd7;
      }

      .cls-94 {
        fill: #9bbdc6;
      }

      .cls-95 {
        fill: #89c2c9;
      }

      .cls-96 {
        fill: #1d3a38;
      }

      .cls-97 {
        fill: #8cb8c4;
      }

      .cls-98 {
        fill: #b1dbcf;
      }

      .cls-99 {
        fill: #2d616c;
      }

      .cls-100 {
        fill: #1e3b3c;
      }

      .cls-101 {
        fill: #789795;
      }

      .cls-102 {
        fill: #2c5e68;
      }

      .cls-103 {
        fill: #98c5d4;
      }

      .cls-104 {
        fill: #74a2b2;
      }

      .cls-105 {
        fill: #406376;
      }

      .cls-106 {
        fill: #4c6f7d;
      }

      .cls-107 {
        fill: #547267;
      }

      .cls-108 {
        fill: #bfe1cc;
      }

      .cls-109 {
        fill: #99ced1;
      }

      .cls-110 {
        fill: #a1cac5;
      }

      .cls-111 {
        fill: #cff0db;
      }

      .cls-112 {
        fill: #8bb7c6;
      }

      .cls-113 {
        fill: #7eb2ba;
      }

      .cls-114 {
        fill: #a7cdbd;
      }

      .cls-115 {
        fill: #395d6f;
      }

      .cls-116 {
        fill: #7da2c2;
      }

      .cls-117 {
        fill: #79adc2;
      }

      .cls-118 {
        fill: #214658;
      }

      .cls-119 {
        fill: #779ab6;
      }

      .cls-120 {
        fill: #234243;
      }

      .cls-121 {
        fill: #4b685d;
      }

      .cls-122 {
        fill: #74b0b3;
      }

      .cls-123 {
        fill: #8bcdd3;
      }

      .cls-124 {
        fill: #2a4643;
      }

      .cls-125 {
        fill: #83afce;
      }

      .cls-126 {
        fill: #aed9d6;
      }

      .cls-127 {
        fill: #bdece1;
      }

      .cls-128 {
        fill: #91cbd2;
      }

      .cls-129 {
        fill: #a6c9c9;
      }

      .cls-130 {
        fill: #a6d6cf;
      }

      .cls-131 {
        fill: #26464d;
      }

      .cls-132 {
        fill: #204253;
      }

      .cls-133 {
        fill: #2e5466;
      }

      .cls-134 {
        fill: #507481;
      }

      .cls-135 {
        fill: #5f8175;
      }

      .cls-136 {
        fill: #a8d4cc;
      }

      .cls-137 {
        fill: #698279;
      }

      .cls-138 {
        fill: #395e70;
      }

      .cls-139 {
        fill: #0a0e0e;
      }

      .cls-140 {
        fill: #376973;
      }

      .cls-141 {
        fill: #79a1be;
      }

      .cls-142 {
        fill: #2a5c68;
      }

      .cls-143 {
        fill: #64867a;
      }

      .cls-144 {
        fill: #aedad6;
      }

      .cls-145 {
        fill: #b0d2d3;
      }

      .cls-146 {
        fill: #537266;
      }

      .cls-147 {
        fill: #214557;
      }

      .cls-148 {
        fill: #346665;
      }

      .cls-149 {
        fill: #78adb4;
      }

      .cls-150 {
        fill: #bbe3d4;
      }

      .cls-151 {
        fill: #b3d4c4;
      }

      .cls-152 {
        fill: #b8dfcd;
      }

      .cls-153 {
        fill: #aad3c8;
      }

      .cls-154 {
        fill: #2b5c68;
      }

      .cls-155 {
        fill: #cdebd9;
      }

      .cls-156 {
        fill: #87ada6;
      }

      .cls-157 {
        fill: #245965;
      }

      .cls-158 {
        fill: #5a8a8f;
      }

      .cls-159 {
        fill: #426568;
      }

      .cls-160 {
        fill: #9bd4d0;
      }

      .cls-161 {
        fill: #4b848a;
      }

      .cls-162 {
        fill: #496d78;
      }

      .cls-163 {
        fill: #71a1b7;
      }

      .cls-164 {
        fill: #b6dac9;
      }

      .cls-165 {
        fill: #3b5f6f;
      }

      .cls-166 {
        fill: #89d4e0;
      }

      .cls-167 {
        fill: #254757;
      }

      .cls-168 {
        fill: #254a5c;
      }

      .cls-169 {
        fill: #1d3a39;
      }

      .cls-170 {
        fill: #97cacd;
      }

      .cls-171 {
        fill: #4f827e;
      }

      .cls-172 {
        fill: #beddd5;
      }

      .cls-173 {
        fill: #2a4d52;
      }

      .cls-174 {
        fill: #506f62;
      }

      .cls-175 {
        fill: #98ccce;
      }

      .cls-176 {
        fill: #335654;
      }

      .cls-177 {
        fill: #2e666c;
      }

      .cls-178 {
        fill: #83c4d1;
      }

      .cls-179 {
        fill: #5d6867;
      }

      .cls-180 {
        fill: #a0c1bf;
      }

      .cls-181 {
        fill: #86c0d6;
      }

      .cls-182 {
        fill: #234142;
      }

      .cls-183 {
        fill: #b3e0d2;
      }

      .cls-184 {
        fill: #7a988d;
      }

      .cls-185 {
        fill: #2e5559;
      }

      .cls-186 {
        fill: #b3dbcd;
      }

      .cls-187 {
        fill: #c3e5d2;
      }

      .cls-188 {
        fill: #80b3cd;
      }

      .cls-189 {
        fill: #7aa1bc;
      }

      .cls-190 {
        fill: #cbe9d4;
      }

      .cls-191 {
        fill: #386c7a;
      }

      .cls-192 {
        fill: #7dc0cd;
      }

      .cls-193 {
        fill: #91b8c1;
      }

      .cls-194 {
        fill: #214043;
      }

      .cls-195 {
        fill: #a0c2ca;
      }

      .cls-196 {
        fill: #264447;
      }

      .cls-197 {
        fill: #8fc3c8;
      }

      .cls-198 {
        fill: #353535;
      }

      .cls-199 {
        fill: #adcecd;
      }

      .cls-200 {
        fill: #2c4e5e;
      }

      .cls-201 {
        fill: #4b7c79;
      }

      .cls-202 {
        fill: #73aac0;
      }

      .cls-203 {
        fill: #799c90;
      }

      .cls-204 {
        fill: #7fb7c8;
      }

      .cls-205 {
        fill: #2e5061;
      }

      .cls-206 {
        fill: #80b4c8;
      }

      .cls-207 {
        fill: #2a4846;
      }

      .cls-208 {
        fill: #c4e5cf;
      }

      .cls-209 {
        fill: #7cb0c8;
      }

      .cls-210 {
        fill: #3f6265;
      }

      .cls-211 {
        fill: #34596b;
      }

      .cls-212 {
        fill: #7cb2b0;
      }

      .cls-213 {
        fill: #9ec9bf;
      }

      .cls-214 {
        fill: #83afbd;
      }

      .cls-215 {
        fill: #3c757e;
      }

      .cls-216 {
        fill: #294b54;
      }

      .cls-217 {
        fill: #77aabe;
      }

      .cls-218 {
        fill: #23474b;
      }

      .cls-219 {
        fill: #80abc9;
      }

      .cls-220 {
        fill: #628178;
      }

      .cls-221 {
        fill: #8db6c2;
      }

      .cls-222 {
        fill: #85a9ae;
      }

      .cls-223 {
        fill: #8dc5cc;
      }

      .cls-224 {
        fill: #447a87;
      }

      .cls-225 {
        fill: #496d82;
      }

      .cls-226 {
        fill: #7cb8bd;
      }

      .cls-227 {
        fill: #5a8595;
      }

      .cls-228 {
        fill: #5f7f75;
      }

      .cls-229 {
        fill: #aacdd9;
      }

      .cls-230 {
        fill: #8ec4c1;
      }

      .cls-231 {
        fill: #8bccd2;
      }

      .cls-232 {
        fill: #416878;
      }

      .cls-233 {
        fill: #97c0bb;
      }

      .cls-234 {
        fill: #386f77;
      }

      .cls-235 {
        fill: #224557;
      }

      .cls-236 {
        fill: #7eb7c9;
      }

      .cls-237 {
        fill: #88aeb9;
      }

      .cls-238 {
        fill: #264859;
      }

      .cls-239 {
        fill: #a3d6cb;
      }
    </style>
  </defs>
  <path class="cls-71" d="M130,27v2.94c-1.67.2-3.41.47-5,1.06-1.64-.34-1.45-5.04,0-6,.31-.42.64-.41,1,0,1.59-.91,3.41.45,4,2Z"/>
  <path class="cls-114" d="M88,45c.87.28.86.62,0,1h-3c-.01-.72-.89-1.43-1.62-1.27-1.27-1.59-.27-3.05,1.71-2.86-.65-1.49.25-2.37,1.81-1.84,3.15-1.14,1.96,2.79,1.11,4.96Z"/>
  <path class="cls-190" d="M125,0c-.05,2,0,4,.13,6-1.91,2.17-4.57.79-4.13-2-2.66-.32-2.54-1.24,0-2,.28-.87.62-.86,1,0l1-1c-.87-.28-.86-.62,0-1h2Z"/>
  <path class="cls-213" d="M7,25c.28-.87.62-.86,1,0,1.27-.68,1.71-.22,1,1,.21.42.36.83.28,1.19-.17.82-7.02.48-8.28-.19-.33.87-.67.87-1,0v-1c.36-.31.7-.64,1-1,.61-1.32,5.25-2.11,6,0Z"/>
  <path class="cls-12" d="M128,22c.06,1.13,1.2,2.31,2,3v2c-1.57-.08-3.06-.72-4-2-.83-.1-1.16-.43-1-1-.7-.29-.69-.63,0-1-1.01-2.73-.09-2.81,2-1,.32-.9.66-.89,1,0Z"/>
  <path class="cls-162" d="M94,44c-.24.55-1.37,1.45-2,1-1.53.92-1.28-1.17-1.23-1.07.37.85.37,1.91-.77,2.07h-2v-1c.22-2.12.89-3.46,2-4,.29-.81.62-.8,1,0,2.6-.4,3.39.41,3,3Z"/>
  <path class="cls-97" d="M92,45v1h-2c.08-.84-.23-1.64.2-3.05,1.23.27,1.15,1.59,1.8,2.05Z"/>
  <path class="cls-172" d="M123,0v1l-1,1h-1c-.28.87-.62.86-1,0-.87-.28-.86-.62,0-1-.32-.43.01-.76,1-1h2Z"/>
  <path class="cls-179" d="M1,28c.87.28.86.62,0,1-.28.87-.62.86-1,0v-2c.33-.02.67.04,1,0,.87.28.86.62,0,1Z"/>
  <path class="cls-101" d="M1,31c-.31.44-.64.43-1,0v-2h1c2.66.32,2.54,1.24,0,2Z"/>
  <path class="cls-56" d="M121,0c-.15.45-.51.89-1,1-.25.83-.58.8-1,0V0h2Z"/>
  <path class="cls-198" d="M0,32v-1h1c-.16.48-.5.87-1,1Z"/>
  <path class="cls-70" d="M50.67,10.19c1.45.35,1.32,1.04-.39,2.09,2.7,1.42,1.82,4.17-1.19,3.72,1.52,1.59,1.37,1.96-.79,1.97-1.92,2.62-4.74.99-4.29-1.97-1.36.79-3.02.26-5-1.57-.24.93-.57.91-1,0-2.85-.46-2.59-1.49,0-2.43,1.4-.54,3.19-.44,5.01-.63,2.59-.27,4.94-2.43,7.66-1.19Z"/>
  <path class="cls-77" d="M112,12c-2.28.47-5.57-.26-6-2.9-1.74.22-1.95-.76-1-2.1-2.58,1.11-3.04-.18-1-2-.87-.28-.86-.62,0-1,1.09-3.37,5.18-1.01,8-3,.79,3.07.93,8.04,0,11Z"/>
  <path class="cls-59" d="M69,7.78c2.35-.46,2.68.17,2.08,2.33,1.35,1.12.29,3.99-1.23,4.82.73.22.67.5-.07.85-.22,2.64-2.21,4.2-4.77,3.23-2.33,3.08-6.47-.99-3.16-3.16-.32-2.66.35-7.62,4.16-6.84.78-.82,1.9-1.16,3-1.22Z"/>
  <path class="cls-39" d="M66,9c-3.48,3.65-.03,3.64-4.16,6.84.95,2.83-1.19,3.47-2.84,1.16-1.57.78-1.94.58-1-1-1.83-2.27-1.83-3.61,0-4-.31-1.44.69-2.49,3.01-3.14,1.66-.8,3.26-1.01,4.99.14Z"/>
  <path class="cls-62" d="M104,4v1c-.39,2.35-2.92,5.71-5.56,3.84-1.4,2.94-4.84,1.12-3.44-1.84-2.86-.06-2.73-2.32,0-3,2.89-1.57,5.86-1.01,9,0Z"/>
  <path class="cls-124" d="M113,4c2.59-.12.92,3.32,0,5,2.75-.14,2.09,1.67.3,3.08,2.16.02,3.13.48,2.7,2.92-.58,2.29-1.16,4.54-1.74,6.74,2.3,1.09,2.53,1.69-.18,2.28-.46,2.99-1.55,3.26-3.35.83-.98-2.06-1.36-5.06.27-6.86-.87-.28-.86-.62,0-1-1.51-1.78-1.6-4.32,1-5V1h1c2.22-.2,2.13,2.67,0,3Z"/>
  <path class="cls-119" d="M77,7c2.1-.8,2.75.17,1.19,1.81.58.96.6,1.82-.22,1.94-2.05.32-6.45.92-6.9-.64-1.06.1-1.81-1.57-2.08-2.33,2.61-.76,5.33-1.5,8-.78Z"/>
  <path class="cls-16" d="M8,20c2.28.22,2.69,5.73,0,5h-1c-1.87-.28-2.8-1.17-2.05-3.04-2.58-.22-3.24-1.81-1.59-3.8.25.01.51-.04.76-.05,1.84-1.19,3.03.1,3.88,1.89Z"/>
  <path class="cls-109" d="M93,8c1.77,2.28.68,3.67-2,3-.2,2.66-.87,2.66-2,0-1.46.93-1.88.39-.9-1-1.62-.01-1.61-1.66.03-4.94l1.25.12c2.07-.66,5.02.32,3.62,2.81Z"/>
  <path class="cls-127" d="M13,16c.87.28.86.62,0,1,.94,2.13.49,3.73-2,3-1.17,2.67-2.17,2.67-3,0-1.62-1.43-1.92-2.42-.89-2.96,1.23-1.95,4.25-.73,5.89-1.04Z"/>
  <path class="cls-63" d="M18.23,15c2.61.17,2.54,1.16.77,3l-1.02,1.11c.73,1.82-.05,2.04-1.19.35-1.05,1.87-1.69,1.25-2.46-.62-1.74.31-2.09-.32-1.32-1.84v-1l5.23-1Z"/>
  <path class="cls-21" d="M23,14c1.35,0,1.72.38,1.09,1.15,2.09,2.4.96,3.08-2.09,2.85-.22,2.35-1.87,1.59-3,0-.49-.93-.73-1.95-.77-3l4.77-1Z"/>
  <path class="cls-200" d="M83,6c.87.28.86.62,0,1,1.23,1.53,2.2,4.77,1,6.15-.27,2.8-.99,2.52-2.01-.03-1.38.73-1.84.21-.99-1.12-1.69-.48-2.41-.93-.74-2-1.43-1.62-1.57-3.27.74-4h2Z"/>
  <path class="cls-85" d="M95,4v3c.27,2.65-.07,2.76-2,1l-3.62-2.81c1.08-2.17,4.11-.37,5.62-1.19Z"/>
  <path class="cls-185" d="M33,13c3.21.33,2.07,1.33,0,3-1.07,1.91-1.88,1.55-3,0-1.77.65-4.21.04-5.91-.85-.39-.36-.75-.75-1.09-1.15,3.39-.71,6.52-.61,10-1Z"/>
  <path class="cls-108" d="M4.95,21.96c2.06,2.25-2.61,3.14-3.76,1.1-.11-1.06-.35-2.08-.08-3.37.19-.89,1.05-1.6,2.25-1.53.48,1.29,1.02,2.55,1.59,3.8Z"/>
  <path class="cls-145" d="M38,12v2.43c-.22,2.62-3.22,3.26-5,1.57v-3c1.29-.15,3.8-.54,5-1Z"/>
  <path class="cls-195" d="M81,6c-.11,1.32.49,3.12-.74,4-.94,1.63-2.82.7-2.07-1.19l-1.19-1.81c1.05-1.08,2.57-1,4-1Z"/>
  <path class="cls-228" d="M7,25H1c-.02-.64.25-1.31.18-1.94,1.37.21,3.06.31,3.76-1.1,1.26.51,1.94,1.72,2.05,3.04Z"/>
  <path class="cls-223" d="M87,5c1.31,1.85.38,5.73-2,4-.74.25-1.41-.42-2-2v-1c1.04-1.09,2.57-1.08,4-1Z"/>
  <path class="cls-26" d="M61.01,8.86c-.63,1.35-1.57,2.6-3.01,3.14,0,2.1-1.5,2-2,0-1.5-.03-1.5-1.69,0-2,1.15-1.72,3.55-.45,5.01-1.14Z"/>
  <path class="cls-184" d="M56,10v2c1.54,1.08.85,2.24-1,2-.3.87-.65.86-1.05,0-2.91-.13-2.22-1.94.05-3-1-.07-1.67-.41-2-1,.01-1.18,1.4-1.01,2.19-.81.62.16,1.21.44,1.81.81Z"/>
  <path class="cls-82" d="M116,1c.87.28.86.62,0,1,2.64.71,2.63,1.02.06,2-1.29,2.18-2.32,2.77-3.06,0V1h3Z"/>
  <path class="cls-102" d="M88.1,10c-.09,3.35-1.9,3.08-3.1,0-.89-.33-.88-.66,0-1,1.7-.56,2.26-2.33,2-4l1.13.06-.03,4.94Z"/>
  <path class="cls-135" d="M7.11,17.04c.65.8.39,2.13.89,2.96-1.21-.82-2.36-1.93-3.88-1.89-.32-1.06.86-.9,1.35-1.05.41-.13,1.44.23,1.65-.01Z"/>
  <path class="cls-174" d="M54,11c-.4,2.85-1.73,3.49-3.72,1.28.14-.69.06-1.44.39-2.09.32.14.97-.15,1.33-.19.87-.09,2.02-.12,2,1Z"/>
  <path class="cls-153" d="M119,1c.32,0,.69.07,1,0v1c.63,3.17-3.85,3.38-4,0v-1h3Z"/>
  <path class="cls-80" d="M39.03,29.1c.38-1.92,1.17-1.67,1.21.36.94,1.41.96,3.84-1.06,4.33-1.91,1.87-4.55,1.79-6-.56-2.88.41-5.88.34-9.01-.19.14,1.53-.25,1.85-1.18.96-2.06.46-4.45,1.92-5.96,0-1.21-1.88,1.11-3.6,2.92-4,1.73-2.3,2.71-1.86,3.2.85.08-3.02,6.41-2.75,6.85.15.1-.9.45-.85,1,0,.17-1.69,1.54-1.92,4.12-.71l1.88-.85c-.16-.89.16-.98.91-.36.39-.92.77-.92,1.13.02Z"/>
  <path class="cls-226" d="M53,33.13c4.37-2.97,4.2,1.16,3,4.87.66.33.66.67,0,1l-1,1.12-4-.12c-3.86-2.28-3.48-3.62-1-7,.28-.87.62-.86,1,0,.47-1.09,1.13-1.05,2,.13Z"/>
  <path class="cls-44" d="M42,30c2.15.61,3.98,3.8,3.93,6,1.93.2,1.86,1.17.07,2-1.05-.09-2.77,1.74-4,1-2.3-1.21-2.96-2.59-1.97-4.14-1.51,1.25-2,.57-.85-1.07-.13-1.53-.06-3.19,1.06-4.33.14-.89.43-.89.87-.05.74-.47,1.04-.27.88.59Z"/>
  <path class="cls-182" d="M62,33c1.12.34,1.79,1.34,2,3,1.77.78,3.67,1.72,5,3,.24-.91.58-.89,1,0,.87.28.86.62,0,1,1.53,1.94,1.47,2.05-1,2.14-1.03-.31-2.74-.47-3.81-.44-2.04-.39-3.97-1.09-3.09-3.45-2.56-.62-3.6-1.7-3.1-3.25-1.67-.65-.49-1.69,1-2-.27-.44.06-.77,1-1,1.52-1.34,1.79-.81,1,1Z"/>
  <path class="cls-110" d="M15.09,30.97c2.74.79,2.44,2.24-.09,3.03-2.29,0-4.67-.7-7-1-2.66-.32-2.54-1.24,0-2-.87-.28-.86-.62,0-1-.4-.85-.02-1.15,1-1-.45-.88-.07-1.18,1-1,2.01-2.52,6.19.03,5.09,2.97Z"/>
  <path class="cls-57" d="M39.18,33.79c.41.23.52.8.85,1.07.96,2.21.38,3.11-2.03,3.14-1.67-.21-3.26-1.18-5-.97-1.82-.7-1.76-1.97.18-3.8,2.02-.36,4.17-.45,6,.56Z"/>
  <path class="cls-156" d="M77,40c1.41,1.96.22,3.17-3.56,3.6-1.66-.03-2.92-1-4.44-1.46.08-.81.39-1.59,1-2.14,1.75-.97,5.08-.78,7,0Z"/>
  <path class="cls-181" d="M33.18,33.23c-.14,2.72-2.39,3.89-3.94,1.77h-2.24s-2-1-2-1l-.82-.96c2.61-1.65,6.61-1.91,9.01.19Z"/>
  <path class="cls-69" d="M20,29c.86.33.83.66-.05,1-.09,1.89-1.41,3.11-2.92,4h-2.04c.09-1,.15-2.01.09-3.02-.44-3.28,2.83-4.26,4.91-1.97Z"/>
  <path class="cls-65" d="M51,40c-2-.06-2.99-1.81-5-2-.12-.66-.17-1.34-.07-2,.19-1.74,1.14-2.56,2.78-3,.6-1.22.94-1.36,1.29,0-.92,2.52-.28,4.72,1,7Z"/>
  <path class="cls-8" d="M65.19,41.7c-1.75.08-3.94.91-5.19-.7-1.55-1.94-1.51-2.01.98-2-.25-.9.16-1.11,1.12-.75,1.29.9,2.6,1.91,3.09,3.45Z"/>
  <path class="cls-137" d="M85.08,41.88c-.5.99-1.07,1.95-1.71,2.86-1.64.36-3.48.53-4.59-.94-.31-2.26,2.23-4.26,4.22-2.79,1.13-1.52,2.08-1.1,2.08.88Z"/>
  <path class="cls-146" d="M78.78,43.79c-1.79.23-3.57-.15-5.35-.18,2.93-3.28,2.56.63,3.56-3.6.35-.86.72-.83,1.1.04,2.67.72,2.79,2.14.68,3.74Z"/>
  <path class="cls-126" d="M8,30v1c-.44,1.82-4.39.92-6,0h-1v-2c1.87-.93,5.91-1.06,7,1Z"/>
  <path class="cls-1" d="M33,37.03c-.98.12-2,.08-3.17-.14-.99-.18-.88-.94-.59-1.9,1.36,0,3.32-.29,3.94-1.77.13,1.27-.11,2.53-.18,3.8Z"/>
  <path class="cls-152" d="M60.98,39c-.11.76-.4,1.48-.98,2-.56-.09-1.47.18-2.07-.27-.5-.38-.79-1.07-.93-1.73-.65-.29-.64-.63,0-1,1.34-2.29,4.13-1.47,3.98,1Z"/>
  <path class="cls-27" d="M8,31v2c-2.15-.27-4.79.28-6-2h6Z"/>
  <path class="cls-32" d="M42,39c-1.28-.77-2.56-.82-4-1,.41-1.2,1.06-2.31,2.03-3.14,1.25,1.02,1.85,2.55,1.97,4.14Z"/>
  <path class="cls-123" d="M25,34c.86.25.84.58,0,1-.78-.04-1.73-.14-2-1,.43-.1.79-.72,1.18-.96l.82.96Z"/>
  <path class="cls-23" d="M27,35h-1c-.25-.08-.71.02-1,0,.03-.33-.06-.67,0-1,.86-.14,2.13-.18,2,1Z"/>
  <path class="cls-93" d="M57,39c-.33-.03-.67.05-1,0,0-.33.04-.67,0-1,.18-.9.52-.86,1,0v1Z"/>
  <path class="cls-67" d="M55,40.12c-.17-.7.27-1.23,1-1.12.01.59-.45,1.13-1,1.12Z"/>
  <path class="cls-139" d="M26,35h1c-.33.4-.69.45-1,0Z"/>
  <path class="cls-43" d="M103,37c2.61.62,2.52,1.18,1,3-1.77,1.51-4.09,1.97-6.27,2.64-1.1-.11-1.35-.63-.75-1.56-2.88-3.14-2.37-5.52,2.02-6.08-.53-1.88.27-2.02,1.23-.23,1.65-3.09,4.7-.62,2.77,2.23Z"/>
  <path class="cls-79" d="M111,35c2.28-.17,2.3,1.07.11,1.78-2.11,1.55-4.55,2.67-7.11,3.22-1.41-.43-.54-2.13-1-3-2.22-3.07,1.38-5.23,3-2,.62-1.37,1.34-2.04,2.17-2,2.07-2.1,3.57-.56,2.83,2Z"/>
  <path class="cls-94" d="M96.98,41.08c.18.55.43,1.07.75,1.56-1.26.39-2.4,1.19-3.73,1.36-1.35-.58-2.37-1.68-3-3,.25-.92,1.25-1.58,3-2,.83-1.18,1.83-.49,2.98,2.08Z"/>
  <path class="cls-11" d="M125,25v6c-.66.24-1.27.81-2,1-1.88-.39-.62-4.29,0-6-1.09-1.77.76-2.32,2-1Z"/>
  <path class="cls-151" d="M123,32c-.67.18-1.14,1.13-2,1-.89-1.46-.74-5.01,1-6-1.25-1.48-.66-2.07,1-1v6Z"/>
  <path class="cls-6" d="M115,34c-.14,1.96-2.07,2.8-3.89,2.78l-.11-1.78c-1.11-2.58.18-3.04,2-1-.55-1.35-.14-1.71,1.27-1.27.27-.86.54-.81.82.09,1.95-.04,1.89.74-.09,1.18Z"/>
  <path class="cls-151" d="M120,33c-.55.66-1.21,1.28-1.96,1.61-1.09.47-2.18.07-3.04-.61l.09-1.18c.53-2.62,3.18-2.51,4.91-.82.64.3.63.63,0,1Z"/>
  <path class="cls-48" d="M121,33c-.33-.05-.67.02-1,0v-1c-2.93,0-2.8-3.34,0-4-.06-.62.31-.93,1-1,.28-.87.62-.86,1,0-.52,1.97-1.16,3.95-1,6Z"/>
  <path class="cls-73" d="M126,15c1.02,1.81-.4,2.54-1.78,1-4.14,1.06-5.01-2.57-3.22-6-.23-2.58,1.94-3.51,4-2,2.59,1.47,2.46,4.63,1,7Z"/>
  <path class="cls-164" d="M125.13,6c.05.66-.13,1.34-.13,2-1.22.89-2.43,1.93-4,2-.36.86-.66.76-.9-.21-.23.88-.55.85-.95-.02-1.79-.46-2.05-3.34.01-3.6-.89-2.38-.65-2.67,1.84-2.18,1.45.5,2.77,1.31,4.13,2Z"/>
  <path class="cls-187" d="M128,18c-1.66,1.57-3,1.57-4,0-.77-.45-.72-.78.15-1-.85-.39-.83-.73.07-1l1.78-1c1.31.42,2,1.66,2,3Z"/>
  <path class="cls-3" d="M128,19c.94.93.25,2.05,0,3-.3.07-.73-.14-1,0-.93.27-1.27-.07-1-1-1.79-2.48-.16-3.11,2-2Z"/>
  <path class="cls-7" d="M128,18v1c-.42-.02-.96-.08-1.41.15-.63.32-.68,1.2-.59,1.85-2.65.66-3.65-.82-2-3h4Z"/>
  <path class="cls-4" d="M125,24c.38.28.73.6,1,1h-1c-.87,0-1.59.25-2,1-.2.37-.88.54-1,1h-1c-.95-.49-1.52-2.05-1-3,1.17-1.49,4.11-1.95,5,0Z"/>
  <path class="cls-64" d="M90,40c.76.3.75.63,0,1-.48,1.35-1.08,2.87-2,4,.11-1.75.42-3.78-1.11-4.96-.93-.15-.9-.47-.02-.95-.05-1.04.66-1.82,2.13-2.35-1.13-1.46-.55-1.79,1-.74,3.08.23,2.65,2.9,0,4Z"/>
  <path class="cls-46" d="M86.87,39.09c-.03.32-.02.63.02.95-.22.91-.92,1.57-1.81,1.84-.65-.39-1.35-.68-2.08-.88-1.75-1.01-.55-1.34,1.15-1.79-.53-2.35,2.01-2.03,2.71-.12Z"/>
  <path class="cls-155" d="M120,2h1v2c-.37.9-1.04,1.63-1.84,2.18-.32,2.72-2.23,2.23-3.16-.18v-1c-.85-.34-.82-.67.06-1l-.06-2c1.32.44,2.78.87,4,0Z"/>
  <path class="cls-121" d="M122,2c.3-.37.63-.7,1-1,0,.54-.46,1-1,1Z"/>
  <path class="cls-143" d="M10,28c-.36.31-.69.64-1,1-2.75-.16-5.42-.5-8-1v-1c2.71-.31,5.84.98,8-1,.28-.87.62-.86,1,0,2.66.32,2.54,1.24,0,2Z"/>
  <path class="cls-107" d="M11,20c1.96,1.18,1.3,2.5,0,3.97,2.44,1.38,1.69,2.55-1,2.03h-1c-.68.15-.94-.42-1-1,1.59-1.39.98-3.4,0-5h3Z"/>
  <path class="cls-180" d="M124,18c.38,1.17,1.05,2.22,2,3,.36.3.66.67,1,1l-2,1c-1.09.09-2.52-.07-3-1-1.66.1-1.52-3.46,0-4-.69-.46-.35-.8,1-1-.17-1.28.37-1.06,1.15,0,0,.31-.24.71-.15,1Z"/>
  <path class="cls-41" d="M125,23v1c-1.47-1.07-3.29-.05-5,0-.9-.23-.93-.61-.12-1.12.46-1.88.85-2.66,2.12-.88,1-.41,2.25.23,3,1Z"/>
  <path class="cls-61" d="M94,39c-.69,1.05-1.86,1.58-3,2h-1c-.25-.29,0-.68,0-1,.34-3.43,2.03-3.71,4-1Z"/>
  <path class="cls-233" d="M9,29c-.31.36-.64.69-1,1-2.07-1.33-4.62-1-7-1v-1c2.71.05,5.63-.51,8,1Z"/>
  <path class="cls-129" d="M48.29,17.97c.85.44.76.78-.2,1.02-.56,2.5-2.38,5.14-4.14,7.12-.02,1.52-1.36,3.06-2.84,3.31l-.87.05-1.21-.36c-.99-.73-1.73-4.49-.03-5.1-2.24-1.92-.72-5.81,2.13-6-.24-2.27.84-2.26,2.87-2,1.55.33,2.64,1.94,4.29,1.97Z"/>
  <path class="cls-84" d="M38,14.43c.32.02.69.07,1,0,2.08.69,4.17,2,2.13,3.57-.41,2.09-1.31,4.04-2.13,6-.32,2.66-1.24,2.54-2,0-1.41,1.33-1.92.77-1-1-1.12-1.89-2.12-3.89-3-6-.87-.28-.86-.62,0-1,1.57-.86,3.18-1.71,5-1.57Z"/>
  <path class="cls-83" d="M54,11l-.05,3c2.36.84,2.54,2.17.05,3,1.11,2.57-.17,3.05-2,1-2.17,2.45-3.59.92-2.92-2,.58-1.15.93-2.47,1.19-3.72,1.21-.51,2.44-.98,3.72-1.28Z"/>
  <path class="cls-150" d="M52,18c2.59,1.38.66,4.04-2,3-.28.87-.62.86-1,0-2.53,1.04-2.6,0-.91-2.01,0-.33.26-.69.2-1.02-.15-.84.47-1.33.79-1.97.59,1.11,1.78,1.61,2.92,2Z"/>
  <path class="cls-220" d="M44,16c-.74.93-1.77,1.57-2.87,2-.24-1.43-1.06-2.62-2.13-3.57,1.92-.42,3.23,1.19,5,1.57Z"/>
  <path class="cls-128" d="M112,12c0,1.75.42,3.68-1,5-1,.97-3.55.65-5,0-.28.87-.62.86-1,0-.87-.27-.85-.61,0-1-2.59-.02-2.98-.61-2-3-1.71-1.39-1.71-2.06,0-2-1.24-1.43-.69-1.93,1.02-.98-.37-1.34,1.07-2.32,1.98-.92,2.4.39,4.84.58,6,2.9Z"/>
  <path class="cls-18" d="M104,5l1,2c.01.88-.32,1.89-.98,3.02-.33.18-.66.81-1.02.98-.04.89-1.04,1.02-3.02.42-1.36,1.7-1.81.79-1.54-1.42-1.31-.22-1.3-.86,0-1.16,1.64-1.45,3.59-2.87,5.56-3.84Z"/>
  <path class="cls-224" d="M106,9.1c-.56.04-1.46.63-1.98.92-1.51-.03-.75-1.16-.23-1.78.41-.49.7-.98,1.21-1.24.63.52.94,1.3,1,2.1Z"/>
  <path class="cls-221" d="M65,19c2.66.32,2.54,1.24,0,2,.26.93-.07,1.26-1,1,.42,2.01-.08,2.94-2,2-.51,2.39-1.5,2.4-2.18.02-1.2-.49-2.92-1.31-2.71-2.61-2.71,0-2.94-.35-1.11-2.41-1.86-2.27.94-3.98,3-2,.84-.56,1.99-.5,2.84-1.16.04,1.79,1.56,2.74,3.16,3.16Z"/>
  <path class="cls-217" d="M69.77,15.77c.82,1.08,1.23,2.49,1.23,4.23,2.52-1.16,2.95.02,1,2-.28.87-.62.86-1,0-1.56.54-3.72,1.02-5,0-1.15,1.01-1.64.4-1-1v-2c1.28-1.46,2.81-2.89,4.77-3.23Z"/>
  <path class="cls-225" d="M80.26,10c.33.63.58,1.3.74,2-.31.8-.64.75-.98-.08-2.62,1.05-5.19,2.05-7.71,3,.22,1.95-.62,1.99-1.3.08-.49,1.7-.86,1.69-1.15-.07.33-1.63.71-3.25,1.23-4.82,2.43-.22,5.55.84,7.12-1.3l2.07,1.19Z"/>
  <path class="cls-165" d="M71,20c-1.13-1.13-1.24-2.67-1.23-4.23,0-.28.02-.57.07-.85l1.15.07c2.33,1.54,3.74,5.07,0,5Z"/>
  <path class="cls-103" d="M58,16l1,1-3,2c-2.49,1.94-3.89.52-2-2-.1-.98-.07-2.02-.05-3h1.05c1.64-2.22,2.62-.29,3,2Z"/>
  <path class="cls-10" d="M58,12v4c-.72-1.04-1.7-2-3-2,.16-.74.47-1.45,1-2h2Z"/>
  <path class="cls-175" d="M98.44,8.84c.49.35.66.87,0,1.16,1.07,1.16.92,2.83-.44,5,.18,3.2-.82,4.87-3,5,.87.28.86.62,0,1-.28.87-.62.86-1,0-.87-.28-.86-.62,0-1-3-.84-6.79-2.57-3-5-.77-.97-1.36-3.35,0-4,.32-1.07,1.48-2.01,2-3,.3-.58,1.53-.58,2-1,.81,1.1,2.19,1.43,3.44,1.84Z"/>
  <path class="cls-33" d="M111,18c1.29,2.15,1.65,5.04-.27,6.86.86.24.79.48-.13.71-1.06,1.58-2,1.38-2.35-.49-1.46,1.65-4.7.31-4.25-2.08-2.01.95-3.11.23-3-2-1.65.41-2.39-.35-2-2,.36-.55,1.03-.88,2-1,1.02-.75,2.65-1.07,4-1h1c1.73.33,3.4.66,5,1Z"/>
  <path class="cls-144" d="M116,15c1.19-1.34,1.53-.97,1,1.11,1.34-1.44,2.18-1.07,2,.89.87.28.86.62,0,1,.7,1.79-.52,5.25-3.11,4.08-.62,1.7-1.32,1.47-1.63-.34-.88-1.98-1.69-4.04-1.19-6.6,1.27-.29,2.12-.15,2.93-.14Z"/>
  <path class="cls-186" d="M119.15,9.77l.95.02c1.53,2.85.42,6.42-3.1,6.32-.41-.27-.63-.8-1-1.11-1.32-.8-3.03-1.16-2.7-2.92.23-1.88,1.39-3.37,3.25-2.36.37-2.5,1.74-2.34,2.59.05Z"/>
  <path class="cls-88" d="M115.73,24.87c2.82,1.03,1.08,5.53-1.73,5.13-.05,1.56-1.33,1.21-1.9-.2-.34.82-.56.79-.65-.09-2.34-1.25-3.22-2.42-.86-4.14-.05-.21.13-.48.13-.71,1.16-.09,2.31-.29,3.35-.83,1.26-1.36,1.97-.97,1.65.85Z"/>
  <path class="cls-91" d="M116,6c2.37.42,2.88,3,.56,3.72-.91,1.01-1.9,2.05-3.25,2.36.19-.97-.3-2.09-.3-3.08.62-3.17,1.62-4.5,3-4-.02.32-.05.68,0,1Z"/>
  <path class="cls-25" d="M115.89,22.08c1.49-1.92,3.05-1.2,3.99.8l.12,1.12c.41,1.48.23,1.75-1,.77-.89,2.59-2.22,2.63-3.27.1-.57-.24-1.12-.52-1.65-.85l.18-2.28c.46.21,1.24.04,1.63.34Z"/>
  <path class="cls-126" d="M116.06,4l-.06,1c-1.26,1.22-1.2,3.48-3,4v-5h3.06Z"/>
  <path class="cls-99" d="M111,17v1c-1.66-.13-4.05.73-5-1h5Z"/>
  <path class="cls-170" d="M88.1,10c.5-.11.72.69.9,1,1.67.41,1.83,2.69,1,4-.89,1.72-1.55,1.67-2-.16-1,1.38-1.57,2.01-2,.16-.66-.27-.63-.6,0-1-1.33-.8-2.1-2.86-1-4,1.04.33,2.18.76,3.1,0Z"/>
  <path class="cls-140" d="M91,11c-.3,1.23.11,2.73,0,4-.28.87-.62.86-1,0,.08-1.36-.4-2.92-1-4h2Z"/>
  <path class="cls-199" d="M14.32,18.84c1.6.81,2.51,3.18.83,4.17,1.3,3.26-3.17,4.33-4.15.97-1.34-1.07-.92-2.74,0-3.97.72-.96,1.33-2.01,2-3,.89.24,1.16,1.02,1.32,1.84Z"/>
  <path class="cls-192" d="M19.22,18.99c1.85-.74,2.83.18,2.92,2.76,2.92-.44,3.33.63.86,2.24-.25.89-.59.83-1-.08-1.07,2.61-2.82,2.65-4,.08-1.91.6-2.17.28-.77-.97-1.64-.73-1.96-2.54-.45-3.56l1.19-.35c.37-.6.76-.65,1.24-.12Z"/>
  <path class="cls-13" d="M16.79,19.46c.21,1.18.34,2.37.45,3.56-.25,2.1-1.29,2.01-2.08-.02l-.83-4.17c.77.38,1.61.59,2.46.62Z"/>
  <path class="cls-161" d="M19.22,18.99l-1.24.12c.06-.44.49-1.14,1.02-1.11.92.09.98.43.22.99Z"/>
  <path class="cls-204" d="M30,16c2.1,1.52,1.48,2.42-1,3,.27,2.48-.73,2.82-3,1-2.15,1.6-3.12.52-3-2-.33.66-.66.66-1,0,.91-.79,1.39-1.91,2.09-2.85.65-.88,2.04-1.29,3.3-1.19,1,.08,1.5,1.49,2.61,2.04Z"/>
  <path class="cls-215" d="M22,18c.29-.04.73-.1,1,0,1.84,1.9,1.61,2.85-.86,3.76-1.17-.69-2.14-1.66-2.92-2.76l-.22-.99c1,.05,2,.12,3,0Z"/>
  <path class="cls-189" d="M84,13.15c1.23-.9,1.68-.48,1,.85.67.26.64.6,0,1,.47.61.14,1.27-1,2l1,1c.66.29.64.63,0,1-.04,3.9-6.08,5.84-9,4-.86-.97-.74-3.8,0-5,.76-1.68,4.09-5.4,5.99-4.88.65-.02,1.37.21,2.01.03Z"/>
  <path class="cls-105" d="M81.99,13.12l-5.99,4.88c-.28.87-.62.86-1,0-.87-.28-.86-.62,0-1-.95-3.17,2.41-4.44,5.02-5.08.31,0,.69-.02.98.08.48.16,1.14.53.99,1.12Z"/>
  <path class="cls-19" d="M85,9c.04.33-.08.68,0,1l1,4c-.29.66-.63.64-1,0,.11-.72-.32-1.04-1-.85l-1-6.15c.93.35,1.65,1.07,2,2Z"/>
  <path class="cls-166" d="M33,16v1c.89,1.21,1.73,2.67,1,4-.5.28-5,1.35-5.27,1.24s-1.06-3.01.27-3.24c.15-1.05.46-2.08,1-3,0-.19.17-1.51.48-1.76.27-.21,1.85,1.63,2.52,1.76Z"/>
  <path class="cls-72" d="M30,25c.87.28.86.62,0,1,1.37,1.39.75,3.53,0,5l-6.85-.15c-2.1-.95-2.17-2.73-.15-3.85-.66-1.57.34-2.57,3-3,2.64-1.55,3.63-1.51,2.97.11l1.03.89Z"/>
  <path class="cls-230" d="M22,23.92c2.27.05,2.34,1.54,1,3.08.12,1.28.17,2.56.15,3.85-1.09-.02-2.13-.68-3.2-.85l.05-1c-3.24.61-4.42-2.76-2-5,1.33-.2,2.67-.22,4-.08Z"/>
  <path class="cls-236" d="M33.17,28.06c1.71-1.23,3.04-.28,3.83,1.38-.57,2.66-3.91,1.28-6,1.56-1.03-.85-.76-4.38,1-2.9-.24-1.93.54-1.95,1.17-.04Z"/>
  <path class="cls-212" d="M37,26c1.58-.23,1.75,2.01.91,3.08-.31.03-.6.29-.91.36-1.43.99-2.81-.28-3.83-1.38-.93-3.24,1.72-4.69,3.83-2.06Z"/>
  <path class="cls-30" d="M39,24l.03,5.1c-.34-.1-.77-.05-1.13-.02-.17-1.06-.44-2.11-.91-3.08-2.66-.32-2.54-1.24,0-2h2Z"/>
  <path class="cls-60" d="M32,28.1c-1.33.1-.91,1.95-1,2.9-.33.04-.67,0-1,0v-5c2.24-2.2,3.85-.51,2,2.1Z"/>
  <path class="cls-148" d="M61,32c-.24.3-.5,1.02-1,1-1.57.86-2.57,2.19-3,4,.87.28.86.62,0,1-.33-.02-.67,0-1,0-.15-1.45.42-3.14-.27-4.82-1.01-.42-2.2-.04-2.73-.06-.87-.32-.86-.7,0-1.13.55-1.89,1.97-4.14,4.15-3.03,1.64.03,2.99,1.69,3.85,3.03Z"/>
  <path class="cls-113" d="M55,27c.09,2.35-.58,4.01-2,5v1.13c-.24,0-.45.58-.8.62-.51.06-.92-.38-1.2-.75-.19-.32-.33-.63-.29-.91.29-1.98.85-4.68,1.29-6.09,1.28-.87,4.29-1.08,3,1Z"/>
  <path class="cls-49" d="M52,26c-.35,2.32,1.04,5.4-1,7h-1c-.93-.02-.7-1.31,0-2-.51-1.16-.51-2.49,0-4-1.22-1.94.28-2.06,2-1Z"/>
  <path class="cls-231" d="M47,29c.85-.6,1.15-.33.94.74.98-.1,1.33.32,1.06,1.26.64.3.63.63,0,1-.5.31-.84.65-.29,1,.01.65.25,1.48-.19,2.08-.55.76-1.7.84-2.6.92-2.44-1.06-4.24-3.27-3.93-6-.04-1.55.9-2.29,2-1,1.18-2.42,1.73-2.02,3,0Z"/>
  <path class="cls-90" d="M44.85,26.15c1.37.9,1.25,3.18-.85,2.85-.55.27-1.23,1.11-2,1-.33-.05-.61-.42-.88-.59.25-1.57,1.33-2.83,2.84-3.31.24-.87.54-.83.9.04Z"/>
  <path class="cls-206" d="M72.75,33.44c2.31.69,2.26,4.44.07,5.42.13.96-2.09.84-2.81.14-.32.02-.69-.07-1,0-.87-.28-.86-.62,0-1-2.48-2.21-2.48-3.55,0-4,.58-1.52,2.9-2.39,3.75-.56Z"/>
  <path class="cls-38" d="M65,28c.87.28.86.62,0,1-.38,1.65-1.04,2.31-2,2,.77,1.39.64,2.43-1,2,.11-.36-.63-.97-1-1-2.03-1.18-1.73-1.65,0-3,.33-.93,1.14-1.8,2-2,.28-.87.62-.86,1,0,.81.11,1.15.44,1,1Z"/>
  <path class="cls-229" d="M69,38v1c-2.45.55-3.89-1.1-5-3l.75-1.4c2.81.6,4.23,1.73,4.25,3.4Z"/>
  <path class="cls-78" d="M62.1,38.25c-.36.27-.74.52-1.12.75-.57-1.54-2.66-.93-3.98-1v-1c.27-2.08.94-2.75,2-2,1.15.97,2.37,1.9,3.1,3.25Z"/>
  <path class="cls-239" d="M60,33l-1,2-2,2c0-.99-.34-2.18.19-3.36.41-.91,1.84-.68,2.81-.64Z"/>
  <path class="cls-96" d="M72.81,38.86c1.32-2.48,2.11-2.44,3.19.14,1.55-1.19,2.11-.67,1,1h-7v-1l2.81-.14Z"/>
  <path class="cls-117" d="M64,36c-.53-.91-2.54-1.29-2-3,.7-.41.93-1.23,1-2,.91-1.55,2.41,4.03,2.32,4.33-.1.33-.65.52-1.32.67Z"/>
  <path class="cls-208" d="M17.23,23.03c.75-.51.72.58.77.97.22,1.81,1.17,3.4,2,5-1.55.81-3.57.86-4.91,1.97-1.61-1.14-3.23-2.29-5.09-2.97v-2l1-2.03c1.47.2,3.02.06,4.15-.97.69.1,1.39.13,2.08.02Z"/>
  <path class="cls-158" d="M25,34c-.63.1-1.22-.31-.82-.96.63-.14.92.4.82.96Z"/>
  <path class="cls-9" d="M50,33h-1.29c-.41-.44-.29-.77.29-1v-1c.28-.87.62-.86,1,0-.15.61.22,1.41,0,2Z"/>
  <path class="cls-183" d="M84.15,39.21c-.46.49-.6,1.39-1.15,1.79-1.33.97-2.31,2.91-4.22,2.79-.7-1.11-.57-2.48-.68-3.74-1.8-1.28,5.2-2.45,5.44-2.16.3.37.47.83.62,1.33Z"/>
  <path class="cls-207" d="M85,36c1.26-.6,3.4-.66,4,.74-.01,1.24-.85,2.34-2.13,2.35l-2.71.12c-2.06.09-4.36-.6-6.05.83l-1.1-.04c.16-.69-.35-1.05-1-1-2.18-.07-2.14-1.53,0-2,.29-.66.63-.64,1,0,.84-.71,2.2-.22,2,1,.86-1.06,1.53-1.34,2,0l1-1c-.24-.91.09-1.24,1-1,.3-.85,1.51-.68,2,0Z"/>
  <path class="cls-104" d="M104,30c1.48-.94,2.67-.87,2,1,2.17.41,1.43,2.75,0,4-1.32.05-2.68.62-3,2-.53-1-1.82-2.4-2.77-2.23-2.59-1.49-2.11-3.73.62-4.62-.5-1.48-.2-2.02,1.15-1.15,1.18-1.37,2.67-1,2,1Z"/>
  <path class="cls-36" d="M100.85,30.15c0,1.56-.33,3.09-.62,4.62l-1.23.23c-2.81,1.44-4.14,1.44-4,0-1.63-.95-1.96-1.64,0-2-2.61-.69-2.6-1.12,0-2,1.01-.81,3.68-1.53,4.96-.89.24-.87.54-.83.89.04Z"/>
  <path class="cls-205" d="M99,35c-.7.79-2.56.83-2.85,1.71-.52,1.57.75,3.06.83,4.37-1-.68-1.91-1.5-2.98-2.08-1.8-1.99-1.55-3.1,1-4,1.17.42,2.87.21,4,0Z"/>
  <path class="cls-222" d="M111.46,29.7c.22.01.43.07.65.09,1.46,0,1.34.71-.1,1.2v1c1.36.2,1.94.86,1,2l-2,1-2.83-2c-1.25.15-1.31-1.44-.17-2-1.41-1.48-.93-2.26,1.05-1.82.94-1.58,1.75-1.15,2.41.52Z"/>
  <path class="cls-167" d="M108,31c-.17.61.27,1.37.17,2-.44.93-1.21,1.63-2.17,2,.42-1.32.95-2.81,0-4-.02-2.04,1.63-2.02,2,0Z"/>
  <path class="cls-111" d="M119,24.77c1.3.25,1.68,2.06,1,3.23v4c-1.44,1.01-3.21,1-4.91.82l-.82-.09c-.9.07-.88-.22-.09-.82-1.19-.11-1.69-1.59-.18-1.91l1.73-5.13c1.08-.21,2.18-.25,3.27-.1Z"/>
  <path class="cls-86" d="M114.18,31.91c-.03.27.08.55.09.82l-1.27,1.27-1-2h1c-.28-1.54.43-1.53,1.18-.09Z"/>
  <path class="cls-151" d="M121,27c-.32.35-.65.68-1,1-.16-1.12-.5-2.21-1-3.23.34-.13.64-.76,1-.77.52.93.83,1.95,1,3Z"/>
  <path class="cls-136" d="M124.22,16c-.01.33-.07.67-.07,1h-1.15c-1.07.73-2.79.43-4,0-.66-.29-1.39-.49-2-.89.68-2.3,2.84-3.85,3.1-6.32.3,0,.61.22.9.21,1.03,2.09.81,5.15,3.22,6Z"/>
  <path class="cls-34" d="M119.16,6.18v3.6c-.87-.02-1.74-.16-2.6-.05.64-1.22-.36-2.46-.56-3.72l3.16.18Z"/>
  <path class="cls-74" d="M95,35c0,1.39-.22,2.82-1,4-1.41-.09-2.81.23-4,1v-4c-.87-.28-.86-.62,0-1-.87-.28-.86-.62,0-1,1.52-1.24,4.48-.95,5,1Z"/>
  <path class="cls-141" d="M90,35v1c-.4.15-.73.41-1,.74-1.4.31-2.96.38-4-.74-.87-.28-.86-.62,0-1-.29-2.22,4.82-1.61,5,0Z"/>
  <path class="cls-203" d="M122,18v4l-2.12.88c-3.21.28-1.34-3.28.12-4.88.12-1.08,1.44-.91,2,0Z"/>
  <path class="cls-22" d="M123,17c-.13.43-.51,1-1,1h-2c-.28.87-.62.86-1,0v-1c1.2-.85,2.66,0,4,0Z"/>
  <path class="cls-68" d="M49,21c1.15,2.26.43,2.8-1.91,3.21.87,0,.82.23-.03.65-.76,1.43-1.49,1.86-2.21,1.29l-.9-.04c-.4-3.11,1.87-5.26,4.14-7.12,0,.76-.11,1.99.91,2.01Z"/>
  <path class="cls-160" d="M34,22c.39-1.63,1.06-1.29,2,1l1,1v2c-1.51.14-2.73,1.07-3.83,2.06l-1.17.04c-.39-.92-1.08-1.69-2-2.1v-1c-1.82-.47-2.47-1.84-1.95-4.1l5.95,1.1Z"/>
  <path class="cls-176" d="M36,23c-.42-.42-1.34-.96-2-1-.87-.28-.86-.62,0-1-.74-1.2-1-2.6-1-4,2.36.91,2.4,3.81,3,6Z"/>
  <path class="cls-37" d="M56,19c.56.61.64,1.72,1.11,2.41,1.82,1.22,1.43,2.3-.71,2.25,0,2.82-2.26,2.66-4.4,1.34-.33.67-.67.67-1,0-2.04-1.28-2.9-2.12-1-4l2-3,2-1c.11,1.07,1.35,1.42,2,2Z"/>
  <path class="cls-201" d="M51,25c-1.87,1.88-2.91,1.69-3.91-.79.46-1.17,1.23-2.17,1.91-3.21h1l1,4Z"/>
  <path class="cls-24" d="M103,13c.95.77,1.61,1.84,2,3-.79,1.27-2.74,1.83-4,1-1.8,1.29-3.24-.4-2-2-2.34-4.12,1.94-5.03,4-2Z"/>
  <path class="cls-157" d="M103,11v2c-.75-.55-1.79-.97-2.54-1.05-2.03-.21-1.48,1.82-1.46,3.05-.28.87-.62.86-1,0,.73-1.59-1.63-4.09.44-5,1.22,1.14,2.98,1.06,4.56,1Z"/>
  <path class="cls-20" d="M105,16c.1.3-.06.69,0,1-1.03,1.08-2.58,1.15-4,1-.87-.28-.86-.62,0-1,1.36-.24,2.66-.68,4-1Z"/>
  <path class="cls-5" d="M59.82,24.02l2.18-.02c2.07,0,2.04,1.61,0,2,.72.77.06,2.04-1,2,.1,3.29-3.42,3.17-4,0-1.41,1.08-1.93.54-1-1-1.4-.73-.98-1.76,1.28-3.09.72-1.48,1.6-1.18,2.55.12Z"/>
  <path class="cls-31" d="M65,27c-.31.44-.64.43-1,0h-1c-.84.39-1.14.01-1-1v-2c.76-.56,1.39-1.28,2-2,1.95.38,1.85,3.36,1,5Z"/>
  <path class="cls-169" d="M59.82,24.02c-.85.09-1.72.1-2.55-.12-.32.8-.61.66-.87-.25.2-.76.42-1.52.71-2.25,1.38.23,2.82,1.08,2.71,2.61Z"/>
  <path class="cls-238" d="M66,22c.87.28.86.62,0,1,2.93,0,2.8,3.34,0,4-.33.7-.67.7-1,0,.11-1.73-.04-3.52-1-5,.3-.36.66-.68,1-1,0,.63.39,1,1,1Z"/>
  <path class="cls-163" d="M74,24c1.9,1.93,1.61,2.4-1.05,1.83l-.99,1.53c1.16,2.39.03,2.43-1.96.64-1.25,1.08-3.17.14-4-1v-4c1.49-.35,3.16-.68,5-1h1c1.66-1.11,2.59.34,2,2Z"/>
  <path class="cls-47" d="M75,17v1c.86.97.74,3.8,0,5,.25.91-.09,1.25-1,1-1.02-.3-1.52-1.13-2-2-.33-.59-.53-1.53-1-2,1.53-1.33-.64-3.35,0-5l1.3-.08c2.54-1.11,3.14-.63,2.7,2.08Z"/>
  <path class="cls-133" d="M71,22c-1.29,1.38-3.26,1.1-5,1v-1h5Z"/>
  <path class="cls-51" d="M80.02,11.92c-1.16,2.11-2.95,3.85-5.02,5.08-1.02-.53-1.8-1.38-2.7-2.08-.22-.81-.96-2.75.62-3.06,2.69-.52,4.95.1,7.09.06Z"/>
  <path class="cls-197" d="M95,21c3.33.99,3.47,3.94,3,7,.87.28.86.62,0,1-.17,1.94-3.82,1.95-4,0-1.43,1.21-2.97-.13-3.42-1.64-.25.9-.49.84-.72-.12-.91-.48-.86-.92.14-1.24-.2-2.44.31-4.76,3-5,.29-.66.63-.64,1,0h1Z"/>
  <path class="cls-95" d="M90,15h1c-.19,2.15,2.14,3.17,3,5-1.77.88-4.98.73-7,0-1.45,1.09-1.95.55-1-1-.66-.29-.64-.63,0-1,.3-1.64.97-2.69,2-3.16.54-.67,1.4-.29,2,.16Z"/>
  <path class="cls-209" d="M98,20c1.03-.04,1.76.99,2,2,.87.28.86.62,0,1-.06,2.69-.72,4.36-2,5-.94-2.38-3-4.43-3-7v-1c1.99-1.69,2.99-1.69,3,0Z"/>
  <path class="cls-142" d="M101,18c-.52.61-1.27.79-2,1,1.38,1.3.74,1.9-1,1h-3c1.46-1.23,2.19-3.23,3-5,.37,1.61,1.37,2.61,3,3Z"/>
  <path class="cls-154" d="M94,20v1h-1c-1.35,2.38-3.21,2.95-4,0-.28.87-.62.86-1,0-1.47,1.38-2.04.79-1-1h7Z"/>
  <path class="cls-42" d="M108.25,25.08c2.31,1.61,1.43,2.78-1.25,1.92-.54,1.03-2.9,1.65-2.92-.09-1.79.39-2.33-.83-.85-1.91-2.47-.83-1.84-2.31.78-2l4.25,2.08Z"/>
  <path class="cls-100" d="M110.6,25.56c.34,1.37.66,2.74.86,4.14-.83-.04-1.65-.18-2.41-.52-1.16,1.4-2.34.67-2.05-1.14-.87-.3-.86-.65,0-1.05.63-.47,1.07-1.15,1.25-1.92.81,0,1.61.14,2.35.49Z"/>
  <path class="cls-202" d="M104,23l-.78,2c-.18,2.08-1.7,1.96-2.22,0l-1-1v-2c-.4-.85-.02-1.15,1-1,1.15.42,2.2,1.07,3,2Z"/>
  <path class="cls-191" d="M101,21c-.31.35-.64.69-1,1-1.17.09-1.96-.88-2-2,.31-.28.57-.88,1-1,.63.7,1.3,1.37,2,2Z"/>
  <path class="cls-98" d="M119.88,22.88c-1.29.54-2.89.18-3.99-.8l3.11-4.08h1l-.12,4.88Z"/>
  <path class="cls-130" d="M114,30c-.19.53.24,1.34.18,1.91l-1.18.09-1-1,.1-1.2,1.9.2Z"/>
  <path class="cls-218" d="M88,14.84c-.5,1.15-.73,2.64-2,3.16-.66-.29-.64-.63,0-1-1.92.02-1.58-1.14,0-2l2-.16Z"/>
  <path class="cls-92" d="M86,15c-.28.87-.62.86-1,0,.03-.33-.05-.67,0-1h1c.08.31,0,.68,0,1Z"/>
  <path class="cls-17" d="M26,20c5.07.08,4.01,3.54,0,4-1.93,1.44-2.93,1.44-3,0,.02-.84-.26-1.65-.86-2.24-.17-1.32.2-2.61.86-3.76,1.12.41,2.25,1.04,3,2Z"/>
  <path class="cls-234" d="M26,24c-.89,1.1-1.98,2.03-3,3-.87-.78-1.09-1.95-1-3.08.33.03.67.08,1,.08h3Z"/>
  <path class="cls-177" d="M34,21v1c-1.5-.09-2.99,0-4.92.04-.38,1.48.42,2.17.92,2.96l-4-1c.42-.52,1.68-.98,1.93-1.58.52-1.24-1.39-1.73-1.93-2.42,1.04-.2,2.06-.5,3-1,.17,2.6,2.97,2.17,5,2Z"/>
  <path class="cls-40" d="M85,19c.4.53.6.53,1,0,.46.16.76.61,1,1s.61.73,1,1c.07,2.24.69,4.32,1.86,6.24.22.04.51.16.72.12,1.33.55,1.71,1.76.42,2.64,1.99,1.87,1.31,2.19-1,3-.18,1.57-4.9.94-6,0-.27.7-.61.68-1,0-2.26.76-3.06-.01-2.4-2.31-2.8-.1-5.44-4.03-4.6-6.69-.41-.31-.4-.65,0-1,1.21-1.45,3.12-1.24,5.02-1.85,1.58-.51,2.46-2.35,3.98-2.15Z"/>
  <path class="cls-106" d="M76,23v1c-1.41,1.51-2.02.91-1-1v-5h1v5Z"/>
  <path class="cls-134" d="M86,17c-.29.66-.63.65-1,0-.3.58-.63.56-1,0-1.91-.73.73-1.36,1-2h1v2Z"/>
  <path class="cls-81" d="M85,18c-.56-.08-1.13-.34-1-1h1c.66.29.64.63,0,1Z"/>
  <path class="cls-14" d="M86,19c-.29.52-.63.5-1,0v-1c.26-.66.6-.63,1,0v1Z"/>
  <path class="cls-35" d="M55,27c.27-.88.61-.87,1,0,.42.17.84.57,1,1l.15.97c-1.09,1.53-2,3.68-4.15,3.03l-.05-3.45c-.02-.98.58-1.97,2.05-1.55Z"/>
  <path class="cls-122" d="M61,28c.87.28.86.62,0,1,.71.93.72,2.09,0,3-.85-.07-2.29.33-3.25-.21-.83-.47-.5-1.95-.6-2.82-.04-.3-.05-.69-.15-.97,1.19.95,2.68.42,4,0Z"/>
  <path class="cls-171" d="M56,27c-.29-.12-.69.07-1,0-.74-.99-1.88-1-3-1-.86-.25-.84-.58,0-1,1.62.34,3.27-.11,4.4-1.34.31.01.6.09.87.25-.22,1.11-.67,2.14-1.28,3.09Z"/>
  <path class="cls-55" d="M51,25c.32.04.68-.07,1,0-.02.33.05.67,0,1-.98,0-1.42.27-2,1,.82,1.45-.31,3.36-2.06,2.74-.23-.34-.55-.6-.94-.74-2.57.18-1.67-2.99.06-4.14.06-.2-.05-.46.03-.65,1.36-.12,2.73.08,3.91.79Z"/>
  <path class="cls-149" d="M50,31h-1c-.4-.38-.75-.81-1.06-1.26.48-1.07,1.35-1.85,2.06-2.74.95-.13.99.97,1.05,1.58.1.97-.33,1.84-1.05,2.42Z"/>
  <path class="cls-28" d="M47.06,24.86c-.43,1.37-1.06,2.92-.06,4.14-.82.88-2.03.12-3,0,.5-.87.77-1.85.85-2.85.55-.69,1.32-1.18,2.21-1.29Z"/>
  <path class="cls-66" d="M48.71,33c-1.27.01-.62-1.13.29-1,0,.33-.29.67-.29,1Z"/>
  <path class="cls-115" d="M74.94,32.18l1.06.82c1.98.24,1.9,1.23,0,2,.66.29.64.63,0,1,.87.28.86.62,0,1v2c-1.06.08-2.13-.19-3.19-.14.06-1.82-.53-3.63-.07-5.42-.76-.53-.66-.89.28-1.08-.35-2.06,1.01-2.02,1.91-.19Z"/>
  <path class="cls-168" d="M65,30c.39,2.11,1.06,3.77,2,5,.47-2.16,1.14-2.49,2-1v4c-.98-1.78-3.07-2.3-5-2-.15-1.67.71-4.1-1-5,.36-.93,1.05-1.68,2-2,.9.18.86.52,0,1Z"/>
  <path class="cls-15" d="M70.82,31.02c.76-2.22,3.25-.6,2.21,1.35l-.28,1.08c-1.38-.13-2.36,1.53-3.75.56-1.5-.02-1.47-1.62,0-2-1.51-1.79.27-2.44,1.82-.98Z"/>
  <path class="cls-232" d="M68,29.18c1.83,1.02,1.02,2.13-1,1.82,1.13.92,1.52,1.63,0,2-.9,1.08-1.56.08-2-3,.03-.33,0-.67,0-1v-1c1.04-.92,2.73-.21,3,1.18Z"/>
  <path class="cls-86" d="M66,27c1.34.13,2.65,1,4,1,.84.39.84.75-.03,1.09-.66,1.79-1.44,1.98-1.97.09-.88-.64-1.92-1.03-3-1.18-.4-.26-.75-.59-1-1h1c.33,0,.67-.03,1,0Z"/>
  <path class="cls-75" d="M63,27c-.06.43-.15.87-.36,1.27-.3.58-.99.78-1.64.73v-1c0-.76.46-1.46,1-2,.37.3.7.63,1,1Z"/>
  <path class="cls-210" d="M80,36c.89.8.26,1.88-1,2-.77-.01-1.47-.48-2-1l1-1c.29-.66.63-.64,1,0,.29-.66.63-.64,1,0Z"/>
  <path class="cls-45" d="M82,35c.77.3,1.1.63,1,1-.28.38-.64.7-1,1h-1c-.98.75-1.11.2-1-1-.66-.29-.64-.63,0-1,.28-.87.62-.86,1,0,.28-.87.62-.86,1,0Z"/>
  <path class="cls-214" d="M84,35c.28-.85.61-.83,1,0v1h-2c-.72.13-1-.34-1-1,.3-.61.63-.59,1,0,.14-.7.49-.64,1,0Z"/>
  <path class="cls-188" d="M81,37c.43.31.41.64,0,1-.64.08-1.35,0-2,0l1-2c.54,0,1,.46,1,1Z"/>
  <path class="cls-219" d="M78,36c-.2.45-.55.8-1,1h-1v-1c.29-.66.63-.64,1,0,.29-.66.63-.64,1,0Z"/>
  <path class="cls-210" d="M81,38v-1h1c-.3.25-.57.94-1,1Z"/>
  <path class="cls-52" d="M109.05,29.18c-.22.64-.87,1.17-1.05,1.82h-2l-2-1c-.99-2.01,1.36-2.86,3-1.95.78.17,1.49.56,2.05,1.14Z"/>
  <path class="cls-76" d="M101,25c1.57-.05,2.07,1.99,1,3,.87.28.86.62,0,1-.36.41-.75.79-1.15,1.15l-.89-.04c-.86-.35-.83-.72.04-1.11-1.25-.64-1.25-2.31,0-5,.46.19.79.56,1,1Z"/>
  <path class="cls-173" d="M107,27v1.05c-1.19.32-2.29.93-3,1.95l-2-1v-1c-.62-1.83.65-2.34,2.08-1.09l2.92.09Z"/>
  <path class="cls-194" d="M94,31c.18-.9.52-.86,1,0v2c-1.1.76-2.77.76-5,0,0-1.1.15-2.24,1-3,1.12-.93,2.62-.64,3,1Z"/>
  <path class="cls-196" d="M98,29c.5-2.04,1.51-2.11,2,0l-.04,1.11c-1.52.8-3.25.97-4.96.89-.33-.02-.67,0-1,0-1.99-.11-2.03-1.65,0-2,1.08.74,3.19,1.05,4,0Z"/>
  <path class="cls-120" d="M95,33v2c-1.6-.67-3.2-1.29-5-1-.87-.28-.86-.62,0-1,1.64-.69,3.22-.34,5,0Z"/>
  <path class="cls-87" d="M113,32h-1v-1c.37.3.7.63,1,1Z"/>
  <path class="cls-131" d="M90,33v2c-1.63-.63-3.37-.61-5,0-.29.11-.69-.03-1,0-.66-.29-.64-.63,0-1-.87-.28-.86-.62,0-1,1.82-1.31,4.09.8,6,0Z"/>
  <path class="cls-89" d="M101,17v1c-.73-.15-1.73.28-2.49-.04-.97-.41-.38-2.05-.51-2.96h1c-.04.44.07.88.3,1.27.34.57,1.04.85,1.7.73Z"/>
  <path class="cls-237" d="M76,24c1.87,1.08,3.77,4.4,4.6,6.69.07.89-.19.89-.73.1.15,2.26-3.56,1.61-4.94.21-3.57-.12-5.03-2.34-1.98-5.17.47-.51.62-1.29,1.05-1.83.29-.37.65-.69,1-1,0,.4.69.82,1,1Z"/>
  <path class="cls-216" d="M74.93,31c1.94-.08,1.95.69,0,1.18l-1.91.19c-.49-.77-1.32-1.21-2.21-1.35-2.09.27-2.47-.57-.85-1.93-.07-.35.07-.74.03-1.09,1.23,0,2.21-1.37,2.95-2.17-.39.78-1.46,2.18-.31,2.93.63.41,1.69,1.27,2.29,2.24Z"/>
  <path class="cls-58" d="M93,21c-.17,2.05-1.65,3.55-3,5-2.02-.16-2.2-3.41-1-5h4Z"/>
  <path class="cls-50" d="M94,29v2c-1.08.02-2.58.25-3-1-.51-.8-1.15-1.84-.42-2.64,1.61-.35,2.35.91,3.42,1.64Z"/>
  <path class="cls-159" d="M90,26l-.14,1.24c-2.61-.5-2.63-4.12-1.86-6.24h1c-.12,1.73.09,3.49,1,5Z"/>
  <polygon class="cls-29" points="100 24 100 29 98 29 98 28 100 23 100 24"/>
  <path class="cls-178" d="M103.22,25c.34.61.63,1.25.85,1.91-.57.57-1.3.92-2.08,1.09-.85-.75-1.03-1.91-1-3h2.22Z"/>
  <path class="cls-53" d="M86,18c-.33-.03-.67.05-1,0v-1h1v1Z"/>
  <path class="cls-235" d="M83,33l-2,2h-1c-.29.66-.63.64-1,0-.29.66-.63.64-1,0-.29.66-.63.64-1,0-.29.66-.63.64-1,0,0-.66-.07-1.34,0-2,.93-.91,2.22-1.65,3.87-2.21.25,0,.49-.08.73-.1l2.4,2.31Z"/>
  <path class="cls-112" d="M83,33c.27-.04.78.16,1,0v1c-.26.67-.6.65-1,0l-1,1h-1c-.13-.68-.1-1.54.59-1.81.48-.19.99-.12,1.41-.19Z"/>
  <path class="cls-132" d="M85,19c.31.04.71-.1,1,0,.04,1.17-1.04,1.17-1,0Z"/>
  <path class="cls-54" d="M76,33c-.48.03-1.29-.13-1.06-.82,1.25-1.03,1.83-.65,1.06.82Z"/>
  <path class="cls-147" d="M77,36h-1v-1h1c.66.29.64.63,0,1Z"/>
  <path class="cls-193" d="M67,33c1.63.07,1.16,1.03,0,2-1.57.4-2.22-.39-2.06-1.56.19-1.34-.02-2.39.06-3.44l2,3Z"/>
  <path class="cls-138" d="M69,32v2c-.69.25-1.29.82-2,1v-4c.81-1.54,2.7-.84,2,1Z"/>
  <path class="cls-227" d="M69.97,29.09c.14.69.49,1.33.85,1.93-.3.95-1.78-.38-1.82.98l-2-1,1-1.82c.66.02,1.32,0,1.97-.09Z"/>
  <path class="cls-2" d="M80,36h-1c-.66-.29-.64-.63,0-1h1v1Z"/>
  <path class="cls-125" d="M79,36h-1c-.66-.29-.64-.63,0-1h1v1Z"/>
  <path class="cls-211" d="M84,35c-.33.04-.67,0-1,0-.6-.3-.59-.63,0-1,.33.05.67-.03,1,0v1Z"/>
  <path class="cls-118" d="M83,35h-1c0-.67.27-1.11,1-1v1Z"/>
  <rect class="cls-2" x="77" y="35" width="1" height="1"/>
  <path class="cls-116" d="M79.87,30.79c.02.91.41,1.73-.09,3.29-1.27-1.04-2.5-1.15-3.78-1.08.07-.71-.49-.88-1.06-.82.12-.37-.07-.8,0-1.18,1.5.35,3.4-.19,4.94-.21Z"/>
</svg>