<?xml version="1.0" encoding="UTF-8"?>
<svg id="Layer_1" data-name="Layer 1" xmlns="http://www.w3.org/2000/svg" viewBox="0 0 219 200">
  <defs>
    <style>
      .cls-1 {
        fill: #8dc1cd;
      }

      .cls-2 {
        fill: #375f65;
      }

      .cls-3 {
        fill: #b0c8bd;
      }

      .cls-4 {
        fill: #43686f;
      }

      .cls-5 {
        fill: #30443a;
      }

      .cls-6 {
        fill: #8cb5c4;
      }

      .cls-7 {
        fill: #93c6cf;
      }

      .cls-8 {
        fill: #6e9da8;
      }

      .cls-9 {
        fill: #4d6977;
      }

      .cls-10 {
        fill: #8db9ca;
      }

      .cls-11 {
        fill: #435c53;
      }

      .cls-12 {
        fill: #3b5248;
      }

      .cls-13 {
        fill: #46746e;
      }

      .cls-14 {
        fill: #8bb2c5;
      }

      .cls-15 {
        fill: #86a0b4;
      }

      .cls-16 {
        fill: #455e67;
      }

      .cls-17 {
        fill: #aadccf;
      }

      .cls-18 {
        fill: #93c3d2;
      }

      .cls-19 {
        fill: #2d4239;
      }

      .cls-20 {
        fill: #36635d;
      }

      .cls-21 {
        fill: #8fcacf;
      }

      .cls-22 {
        fill: #98ccd5;
      }

      .cls-23 {
        fill: #4b777d;
      }

      .cls-24 {
        fill: #3f5f5b;
      }

      .cls-25 {
        fill: #385c61;
      }

      .cls-26 {
        fill: #3e564d;
      }

      .cls-27 {
        fill: #34585d;
      }

      .cls-28 {
        fill: #61897c;
      }

      .cls-29 {
        fill: #4a636c;
      }

      .cls-30 {
        fill: #cde5c8;
      }

      .cls-31 {
        fill: #305b5e;
      }

      .cls-32 {
        fill: #405b64;
      }

      .cls-33 {
        fill: #416161;
      }

      .cls-34 {
        fill: #bce4cf;
      }

      .cls-35 {
        fill: #48746c;
      }

      .cls-36 {
        fill: #94d3d1;
      }

      .cls-37 {
        fill: #8eb2c6;
      }

      .cls-38 {
        fill: #bfe5d2;
      }

      .cls-39 {
        fill: #96ccd0;
      }

      .cls-40 {
        fill: #94c1c3;
      }

      .cls-41 {
        fill: #a5dbd2;
      }

      .cls-42 {
        fill: #3d6963;
      }

      .cls-43 {
        fill: #677f68;
      }

      .cls-44 {
        fill: #92c1c6;
      }

      .cls-45 {
        fill: #92cacf;
      }

      .cls-46 {
        fill: #447274;
      }

      .cls-47 {
        fill: #d0ebcd;
      }

      .cls-48 {
        fill: #d9f0d1;
      }

      .cls-49 {
        fill: #315149;
      }

      .cls-50 {
        fill: #93cfd5;
      }

      .cls-51 {
        fill: #768b79;
      }

      .cls-52 {
        fill: #507e7c;
      }

      .cls-53 {
        fill: #96c8bf;
      }

      .cls-54 {
        fill: #a8d0ce;
      }

      .cls-55 {
        fill: #c2e6d1;
      }

      .cls-56 {
        fill: #acddd1;
      }

      .cls-57 {
        fill: #90bec6;
      }

      .cls-58 {
        fill: #8ca38a;
      }

      .cls-59 {
        fill: #95c4cc;
      }

      .cls-60 {
        fill: #668470;
      }

      .cls-61 {
        fill: #96d1d2;
      }

      .cls-62 {
        fill: #4f7568;
      }

      .cls-63 {
        fill: #9bc4c2;
      }

      .cls-64 {
        fill: #3a524c;
      }

      .cls-65 {
        fill: #366263;
      }

      .cls-66 {
        fill: #6c8b92;
      }

      .cls-67 {
        fill: #3c544e;
      }

      .cls-68 {
        fill: #5c8e89;
      }

      .cls-69 {
        fill: #9dc5c3;
      }

      .cls-70 {
        fill: #528581;
      }

      .cls-71 {
        fill: #b6cfc5;
      }

      .cls-72 {
        fill: #d8f1d0;
      }

      .cls-73 {
        fill: #344e58;
      }

      .cls-74 {
        fill: #3b534e;
      }

      .cls-75 {
        fill: #81b8ba;
      }

      .cls-76 {
        fill: #8cc7cf;
      }

      .cls-77 {
        fill: #47746f;
      }

      .cls-78 {
        fill: #3c6861;
      }

      .cls-79 {
        fill: #89a4b7;
      }

      .cls-80 {
        fill: #b5dfcc;
      }

      .cls-81 {
        fill: #375b60;
      }

      .cls-82 {
        fill: #577864;
      }

      .cls-83 {
        fill: #9ad1d5;
      }

      .cls-84 {
        fill: #527e7c;
      }

      .cls-85 {
        fill: #a0cfce;
      }

      .cls-86 {
        fill: #4a7677;
      }

      .cls-87 {
        fill: #3a5f64;
      }

      .cls-88 {
        fill: #55797c;
      }

      .cls-89 {
        fill: #3a5854;
      }

      .cls-90 {
        fill: #344d57;
      }

      .cls-91 {
        fill: #98bdc6;
      }

      .cls-92 {
        fill: #4e7067;
      }

      .cls-93 {
        fill: #abded8;
      }

      .cls-94 {
        fill: #c4e8ce;
      }

      .cls-95 {
        fill: #9bd6d1;
      }

      .cls-96 {
        fill: #a9c4c5;
      }

      .cls-97 {
        fill: #3e5650;
      }

      .cls-98 {
        fill: #a5d4d7;
      }

      .cls-99 {
        fill: #44706c;
      }

      .cls-100 {
        fill: #9cd9da;
      }

      .cls-101 {
        fill: #a0c4c9;
      }

      .cls-102 {
        fill: #5c7583;
      }

      .cls-103 {
        fill: #cbe8cb;
      }

      .cls-104 {
        fill: #8eb6c6;
      }

      .cls-105 {
        fill: #a2baaf;
      }

      .cls-106 {
        fill: #456069;
      }

      .cls-107 {
        fill: #e1f9d9;
      }

      .cls-108 {
        fill: #39524c;
      }

      .cls-109 {
        fill: #46626e;
      }

      .cls-110 {
        fill: #bee3cf;
      }

      .cls-111 {
        fill: #394e43;
      }

      .cls-112 {
        fill: #708972;
      }

      .cls-113 {
        fill: #619193;
      }

      .cls-114 {
        fill: #added1;
      }

      .cls-115 {
        fill: #94c2c8;
      }

      .cls-116 {
        fill: #3b6761;
      }

      .cls-117 {
        fill: #2b3f36;
      }

      .cls-118 {
        fill: #8dbdcc;
      }

      .cls-119 {
        fill: #699487;
      }

      .cls-120 {
        fill: #aed2d1;
      }

      .cls-121 {
        fill: #94ced0;
      }

      .cls-122 {
        fill: #91c5ce;
      }

      .cls-123 {
        fill: #afddd0;
      }

      .cls-124 {
        fill: #bbe0cb;
      }

      .cls-125 {
        fill: #a5dbd1;
      }

      .cls-126 {
        fill: #a9cfcd;
      }

      .cls-127 {
        fill: #47746e;
      }

      .cls-128 {
        fill: #adc5bb;
      }

      .cls-129 {
        fill: #9ed2cd;
      }

      .cls-130 {
        fill: #396464;
      }

      .cls-131 {
        fill: #9cc5c3;
      }

      .cls-132 {
        fill: #5f745f;
      }

      .cls-133 {
        fill: #93c7d5;
      }

      .cls-134 {
        fill: #355b54;
      }

      .cls-135 {
        fill: #3e6869;
      }

      .cls-136 {
        fill: #b3cdc4;
      }

      .cls-137 {
        fill: #95c9d0;
      }

      .cls-138 {
        fill: #8ab9c7;
      }

      .cls-139 {
        fill: #93b8c8;
      }

      .cls-140 {
        fill: #4b675e;
      }

      .cls-141 {
        fill: #95c2c9;
      }

      .cls-142 {
        fill: #49635a;
      }

      .cls-143 {
        fill: #2b3f37;
      }

      .cls-144 {
        fill: #89afbe;
      }

      .cls-145 {
        fill: #2f5a5b;
      }

      .cls-146 {
        fill: #a0cccd;
      }

      .cls-147 {
        fill: #31463e;
      }

      .cls-148 {
        fill: #558885;
      }

      .cls-149 {
        fill: #55746c;
      }

      .cls-150 {
        fill: #2d423a;
      }

      .cls-151 {
        fill: #3e6d68;
      }

      .cls-152 {
        fill: #adc5c7;
      }

      .cls-153 {
        fill: #38554d;
      }

      .cls-154 {
        fill: #9fcaca;
      }

      .cls-155 {
        fill: #2c4138;
      }

      .cls-156 {
        fill: #364d47;
      }

      .cls-157 {
        fill: #2e423a;
      }

      .cls-158 {
        fill: #496e62;
      }

      .cls-159 {
        fill: #5f867a;
      }

      .cls-160 {
        fill: #aec9bd;
      }

      .cls-161 {
        fill: #acd9d0;
      }

      .cls-162 {
        fill: #afdccc;
      }

      .cls-163 {
        fill: #344e46;
      }

      .cls-164 {
        fill: #4e7276;
      }

      .cls-165 {
        fill: #3b564d;
      }

      .cls-166 {
        fill: #a1d9d2;
      }

      .cls-167 {
        fill: #445f68;
      }

      .cls-168 {
        fill: #99c0c9;
      }

      .cls-169 {
        fill: #d6edd1;
      }

      .cls-170 {
        fill: #b4dcd1;
      }

      .cls-171 {
        fill: #37625c;
      }

      .cls-172 {
        fill: #3e5662;
      }

      .cls-173 {
        fill: #8fbdc3;
      }

      .cls-174 {
        fill: #88a2b5;
      }

      .cls-175 {
        fill: #445d53;
      }

      .cls-176 {
        fill: #4e7579;
      }

      .cls-177 {
        fill: #cbe7c8;
      }

      .cls-178 {
        fill: #5f7d69;
      }

      .cls-179 {
        fill: #466069;
      }

      .cls-180 {
        fill: #cdebd0;
      }

      .cls-181 {
        fill: #acded0;
      }

      .cls-182 {
        fill: #93cdce;
      }

      .cls-183 {
        fill: #406d6f;
      }

      .cls-184 {
        fill: #3d5658;
      }

      .cls-185 {
        fill: #5f8f8d;
      }

      .cls-186 {
        fill: #3f6b67;
      }

      .cls-187 {
        fill: #2a3e35;
      }

      .cls-188 {
        fill: #88bcb9;
      }

      .cls-189 {
        fill: #afded1;
      }

      .cls-190 {
        fill: #38635e;
      }

      .cls-191 {
        fill: #bbdfd2;
      }

      .cls-192 {
        fill: #476c60;
      }

      .cls-193 {
        fill: #95d2ce;
      }

      .cls-194 {
        fill: #72866f;
      }

      .cls-195 {
        fill: #3b534d;
      }

      .cls-196 {
        fill: #2c4038;
      }

      .cls-197 {
        fill: #8da8be;
      }

      .cls-198 {
        fill: #395047;
      }

      .cls-199 {
        fill: #627d7a;
      }

      .cls-200 {
        fill: #405e56;
      }

      .cls-201 {
        fill: #46615a;
      }

      .cls-202 {
        fill: #b4e1cf;
      }

      .cls-203 {
        fill: #aed2cb;
      }

      .cls-204 {
        fill: #435e58;
      }

      .cls-205 {
        fill: #9bd0c6;
      }

      .cls-206 {
        fill: #6a8f80;
      }

      .cls-207 {
        fill: #83b1ba;
      }

      .cls-208 {
        fill: #3e5952;
      }

      .cls-209 {
        fill: #afc9cb;
      }

      .cls-210 {
        fill: #4b6f67;
      }

      .cls-211 {
        fill: #527f80;
      }

      .cls-212 {
        fill: #314946;
      }

      .cls-213 {
        fill: #293c34;
      }

      .cls-214 {
        fill: #dcf2d5;
      }

      .cls-215 {
        fill: #447072;
      }

      .cls-216 {
        fill: #8bc7ce;
      }

      .cls-217 {
        fill: #96cacf;
      }

      .cls-218 {
        fill: #364a3f;
      }

      .cls-219 {
        fill: #8dc0cd;
      }

      .cls-220 {
        fill: #bbe3ce;
      }

      .cls-221 {
        fill: #4b646d;
      }

      .cls-222 {
        fill: #738a77;
      }

      .cls-223 {
        fill: #a3c8c6;
      }

      .cls-224 {
        fill: #6b826b;
      }

      .cls-225 {
        fill: #c4e6cd;
      }

      .cls-226 {
        fill: #1e3028;
      }

      .cls-227 {
        fill: #8ebaca;
      }

      .cls-228 {
        fill: #51817e;
      }

      .cls-229 {
        fill: #3f605b;
      }

      .cls-230 {
        fill: #334740;
      }

      .cls-231 {
        fill: #94cfd1;
      }

      .cls-232 {
        fill: #90c4cd;
      }

      .cls-233 {
        fill: #425e68;
      }

      .cls-234 {
        fill: #53796c;
      }

      .cls-235 {
        fill: #8eb7c6;
      }

      .cls-236 {
        fill: #3c5764;
      }

      .cls-237 {
        fill: #6a9398;
      }

      .cls-238 {
        fill: #bce2d2;
      }

      .cls-239 {
        fill: #d6efcd;
      }

      .cls-240 {
        fill: #96c2c8;
      }

      .cls-241 {
        fill: #a6cecc;
      }

      .cls-242 {
        fill: #5c8984;
      }

      .cls-243 {
        fill: #96c3c9;
      }

      .cls-244 {
        fill: #7d9783;
      }

      .cls-245 {
        fill: #a5c2c4;
      }

      .cls-246 {
        fill: #8bbec3;
      }

      .cls-247 {
        fill: #355c5c;
      }

      .cls-248 {
        fill: #a4c2c3;
      }

      .cls-249 {
        fill: #3d5861;
      }

      .cls-250 {
        fill: #a7cfcd;
      }

      .cls-251 {
        fill: #677b65;
      }

      .cls-252 {
        fill: #426e68;
      }

      .cls-253 {
        fill: #dcf5d5;
      }

      .cls-254 {
        fill: #497064;
      }

      .cls-255 {
        fill: #547b80;
      }

      .cls-256 {
        fill: #324942;
      }

      .cls-257 {
        fill: #3a6560;
      }

      .cls-258 {
        fill: #4e7069;
      }

      .cls-259 {
        fill: #80b8bc;
      }

      .cls-260 {
        fill: #629593;
      }

      .cls-261 {
        fill: #afc8cc;
      }

      .cls-262 {
        fill: #42686e;
      }

      .cls-263 {
        fill: #314b43;
      }

      .cls-264 {
        fill: #8eb4c5;
      }

      .cls-265 {
        fill: #94d2d3;
      }

      .cls-266 {
        fill: #aadace;
      }

      .cls-267 {
        fill: #8ebcc9;
      }

      .cls-268 {
        fill: #92c3d1;
      }

      .cls-269 {
        fill: #9dcbce;
      }

      .cls-270 {
        fill: #44746f;
      }

      .cls-271 {
        fill: #709ea0;
      }

      .cls-272 {
        fill: #334b44;
      }

      .cls-273 {
        fill: #7ba8b3;
      }

      .cls-274 {
        fill: #3b5f67;
      }

      .cls-275 {
        fill: #386464;
      }

      .cls-276 {
        fill: #7b9178;
      }

      .cls-277 {
        fill: #c2dec1;
      }

      .cls-278 {
        fill: #36615b;
      }

      .cls-279 {
        fill: #9dcec9;
      }

      .cls-280 {
        fill: #a1cecf;
      }

      .cls-281 {
        fill: #9cd7d2;
      }

      .cls-282 {
        fill: #54796d;
      }

      .cls-283 {
        fill: #93c8cf;
      }

      .cls-284 {
        fill: #a7dbd0;
      }

      .cls-285 {
        fill: #4c6565;
      }

      .cls-286 {
        fill: #395c56;
      }

      .cls-287 {
        fill: #537062;
      }

      .cls-288 {
        fill: #b1e0cf;
      }

      .cls-289 {
        fill: #578789;
      }

      .cls-290 {
        fill: #40554b;
      }

      .cls-291 {
        fill: #4c7773;
      }

      .cls-292 {
        fill: #4d7268;
      }

      .cls-293 {
        fill: #457375;
      }

      .cls-294 {
        fill: #3d6a64;
      }

      .cls-295 {
        fill: #44716c;
      }

      .cls-296 {
        fill: #98c9d9;
      }

      .cls-297 {
        fill: #497172;
      }

      .cls-298 {
        fill: #779da9;
      }

      .cls-299 {
        fill: #93c0c3;
      }

      .cls-300 {
        fill: #669a97;
      }

      .cls-301 {
        fill: #35605b;
      }

      .cls-302 {
        fill: #9fd2cd;
      }

      .cls-303 {
        fill: #304942;
      }

      .cls-304 {
        fill: #778c75;
      }

      .cls-305 {
        fill: #d6f0cf;
      }

      .cls-306 {
        fill: #93c1c7;
      }

      .cls-307 {
        fill: #d6efcf;
      }

      .cls-308 {
        fill: #43686c;
      }

      .cls-309 {
        fill: #6b806d;
      }

      .cls-310 {
        fill: #a1cdce;
      }

      .cls-311 {
        fill: #a8d7d0;
      }

      .cls-312 {
        fill: #a3d6d0;
      }

      .cls-313 {
        fill: #cbebcd;
      }

      .cls-314 {
        fill: #b9e4d8;
      }

      .cls-315 {
        fill: #3a5f67;
      }

      .cls-316 {
        fill: #3f5951;
      }

      .cls-317 {
        fill: #96cfd2;
      }

      .cls-318 {
        fill: #2c4037;
      }

      .cls-319 {
        fill: #4a7874;
      }

      .cls-320 {
        fill: #9bd7d9;
      }

      .cls-321 {
        fill: #83ada8;
      }

      .cls-322 {
        fill: #abd8cf;
      }

      .cls-323 {
        fill: #9ccfd6;
      }

      .cls-324 {
        fill: #4b645e;
      }

      .cls-325 {
        fill: #598682;
      }

      .cls-326 {
        fill: #3e6a66;
      }

      .cls-327 {
        fill: #45736f;
      }

      .cls-328 {
        fill: #b7e1d5;
      }

      .cls-329 {
        fill: #92cacc;
      }

      .cls-330 {
        fill: #95cfd2;
      }

      .cls-331 {
        fill: #55847d;
      }

      .cls-332 {
        fill: #a9ddd2;
      }

      .cls-333 {
        fill: #3f636c;
      }

      .cls-334 {
        fill: #96cdd1;
      }

      .cls-335 {
        fill: #c6e9cc;
      }

      .cls-336 {
        fill: #aec8bd;
      }

      .cls-337 {
        fill: #91cccd;
      }

      .cls-338 {
        fill: #416e67;
      }

      .cls-339 {
        fill: #4a746e;
      }

      .cls-340 {
        fill: #b9dbce;
      }

      .cls-341 {
        fill: #82997e;
      }

      .cls-342 {
        fill: #304950;
      }

      .cls-343 {
        fill: #6e9690;
      }

      .cls-344 {
        fill: #6d8c93;
      }

      .cls-345 {
        fill: #3f6d6e;
      }

      .cls-346 {
        fill: #375d63;
      }

      .cls-347 {
        fill: #3e5861;
      }

      .cls-348 {
        fill: #354c47;
      }

      .cls-349 {
        fill: #8da9c0;
      }

      .cls-350 {
        fill: #a0d9d2;
      }

      .cls-351 {
        fill: #b5e2d0;
      }

      .cls-352 {
        fill: #96c4cb;
      }

      .cls-353 {
        fill: #46625b;
      }

      .cls-354 {
        fill: #bae0d0;
      }

      .cls-355 {
        fill: #98d4d7;
      }

      .cls-356 {
        fill: #426f6b;
      }

      .cls-357 {
        fill: #91bcc9;
      }

      .cls-358 {
        fill: #99d0d1;
      }

      .cls-359 {
        fill: #b6cec3;
      }

      .cls-360 {
        fill: #405851;
      }

      .cls-361 {
        fill: #b2dfd1;
      }

      .cls-362 {
        fill: #406b64;
      }

      .cls-363 {
        fill: #3f6569;
      }

      .cls-364 {
        fill: #637862;
      }

      .cls-365 {
        fill: #8cbfcc;
      }

      .cls-366 {
        fill: #57847d;
      }

      .cls-367 {
        fill: #497977;
      }

      .cls-368 {
        fill: #50767b;
      }

      .cls-369 {
        fill: #3f5852;
      }

      .cls-370 {
        fill: #8fadc4;
      }

      .cls-371 {
        fill: #3c696b;
      }

      .cls-372 {
        fill: #9bb5b6;
      }

      .cls-373 {
        fill: #607c8e;
      }

      .cls-374 {
        fill: #455f68;
      }

      .cls-375 {
        fill: #9bc0c8;
      }

      .cls-376 {
        fill: #8aa7ba;
      }

      .cls-377 {
        fill: #e2fada;
      }

      .cls-378 {
        fill: #355a5f;
      }

      .cls-379 {
        fill: #3c5662;
      }

      .cls-380 {
        fill: #4b7870;
      }

      .cls-381 {
        fill: #6c959a;
      }

      .cls-382 {
        fill: #9cdbda;
      }

      .cls-383 {
        fill: #2e4239;
      }

      .cls-384 {
        fill: #31463d;
      }

      .cls-385 {
        fill: #acc8c8;
      }

      .cls-386 {
        fill: #82b1b6;
      }

      .cls-387 {
        fill: #8db3c3;
      }

      .cls-388 {
        fill: #b9ddcb;
      }

      .cls-389 {
        fill: #bbd7ce;
      }

      .cls-390 {
        fill: #9fc9c9;
      }
    </style>
  </defs>
  <path class="cls-261" d="M203,68c1.65-.91,5.4-.26,6.87,1.01,3.51-1.24,5.95-.81,7.31,1.28.75,1.52,1.35,3.21,1.82,5.06v7.65c-.52,2.25-1.15,2.97-3,1-1.85,1.39-3.93.81-6,0-.53,1.91-1.4,1.93-2,.04-1.15.16-1.82-.51-2-2.04-4.27.66-6.16-6.41-7-10-.92-.24-.9-.58,0-1,1.52-3.75,2.86-4.75,4-3Z"/>
  <path class="cls-370" d="M219,105v14c-3.82.47-7.31,2.06-11,3-1.67.54-2.34.21-2-1-.55-.14-.99-.29-1-.47-.29-4.48-.29-10.39,0-14.87.02-.24.45-.45,1-.66.34-1.23,2-1.89,5-2,1.84-2.09,6.29.1,8,2Z"/>
  <path class="cls-250" d="M219,35v15c-1.24.82-3.34.99-5,1,.21,1.51-.32,1.7-1.57.57-1.94-.41-3.6-.13-4.97.83l-.64-1.33c-2.6.7-3.8-.53-2.82-3.07-1.5-1.07-1.96-1.68,0-2,1.55-5.3,7.64-10.72,13-12,1.1-2.16,1.5-.94,2,1Z"/>
  <path class="cls-349" d="M210,84c2.29.25,3.62.91,4,2,2.34-.7,4.01.83,5,4.58v1.42c-1.7,3.74-5.02,10.53-9,11-1.01.54-2.52,1.1-3,0-.42-1.85-1.1-19.05-.27-19.59.2-.13.69.18,1.27.63.66-.03,1.34-.04,2-.04Z"/>
  <path class="cls-376" d="M219,105c-2.96.78-5.39-.62-8-2h-1c2.3-4.12,4.96-8.48,9-11v13Z"/>
  <path class="cls-94" d="M219,12c-.16.91-.49,1.58-1,2,.94,1.17.45,1.7-1,1-3.35-.16-4.85-1.76-3-5-2.32-.99-2.32-1.99,0-3-.08-2.6.58-4.27,2-5-.54-1.54,1.59-1.44,3-1v11Z"/>
  <path class="cls-269" d="M219,51v15c-.22.88-.56.85-1,0l-2.06-1.05c-.75-3.38-1.89-6.65-3.43-9.82l1.44-1.91c-.71-.43-.69-.84.04-1.23.97-1.28,3.68-1.92,5-1Z"/>
  <path class="cls-160" d="M219,19.6v8.4c-.32,2.66-1.24,2.54-2,0-2.33,1.82-4.82-1.96-2.87-4-2.79.29-2.71-1.25-.14-2.15-1.22-2.95,3.18-4.01,5.01-2.25Z"/>
  <path class="cls-239" d="M219,18v1.6l-5.01,2.25c-1.48,3.67-6.24-.56-2.87-2.8-.84-.29-.81-.59.05-.9.01-2.77.9-3.13,2.83-1.14,1.69-1.63,3.65-.52,5,1Z"/>
  <path class="cls-37" d="M219,83v7.58c-2.33-.59-3.66-2.76-5-4.58-1.52-.72-.85-1.38,2-2,.87,0,1.82-1.63,3-1Z"/>
  <path class="cls-55" d="M212,0h7v1c-.84.72-2.08.54-3,1-.46,1.51-2.12,2.18-5,2-1.64.78-2.97.78-4,0l5-4Z"/>
  <path class="cls-277" d="M219,28v7l-2-1c-2.43,1.73-4.88-1.92-3-4-1.86-2.27.94-3.98,3-2h2Z"/>
  <path class="cls-230" d="M216,66.86c.88-.36,1.55.36,2,2.14.28-.87.62-.86,1,0v1c-.06,2.35-.56,2.34-1.82.29-2.34-.8-5.07-.17-7.31-1.28-1.67-.61-1.65-.95.13-1.19.98-2.45,2.23-2.57,4-.71.05-2.78.79-2.71,2-.26Z"/>
  <path class="cls-305" d="M8,195c-.1-1.96,1.58-1.85,2,0,2.97.05,2.73,1.99.16,2.85l-3.16,2.15h-1v-4c-.85-2.34.77-3.22,2-1Z"/>
  <path class="cls-224" d="M1,169c-.38.43-.71.09-1-1v-2c.89-.31.84-1.24,1-2,1.33-2.05,2.31-2.39,2.94-1.01,3.66,1.95-.07,10.48-2.94,6.01Z"/>
  <path class="cls-372" d="M219,70v5.35c-1.25-1.5-3.23-3.19-1.82-5.06.53.18,1.27-.37,1.82-.29Z"/>
  <path class="cls-58" d="M217,15c.93-.46,1.59.21,2,2v1c-1.64-.44-3.29-.95-5-1-2.76-2.38.95-4.99,3-2Z"/>
  <path class="cls-308" d="M219,50v1c-1.71.05-3.36.56-5,1-.88-.33-.88-.67,0-1,1.5-.91,3.27-1.12,5-1Z"/>
  <path class="cls-253" d="M219,17c-.71-.35-1.98-1.05-2-2,.33-.08.92-.65,1-1,.28-.87.62-.86,1,0v3Z"/>
  <path class="cls-214" d="M1,169c1.94.56,1.94,1.44,0,2H0v-3c.42.13.97.51,1,1Z"/>
  <path class="cls-262" d="M219,69h-1c-1.06-1.05-1.37-2.19,0-3,.29-.12.69.07,1,0v3Z"/>
  <path class="cls-304" d="M219,14h-1c.17-.75.27-1.57,1-2v2Z"/>
  <path class="cls-330" d="M38.03,102.02c1.46-1.36,2.02-.78.97.98-.07,1.69.26,3.36,1,5,3.58-1.56,4.92,5.9,2.43,6.03-.12,0,.23-1.63.57.97.87.28.86.62,0,1,1.74,1.36,1.75,2.02.04,1.97-1.76,1.28-1.67,3-1.04,5.03.87.28.86.62,0,1-.78.8-2.17.88-3,0l-8.41-.85-.59-1.15c-1.26.49-3.11.99-4,0-.81-.47-1.15-1.81-1-4l-1-5c-2.52.28-2.48-.09-1-2,5.07-2.55,9.38-7.11,15.03-8.98Z"/>
  <path class="cls-284" d="M66,86c3.83.15,7.29,4.2,7,8,2.66.32,2.54,1.24,0,2l-.24,1.37c1.89.27,1.63,1.15-.76,2.63,2.66.32,2.54,1.24,0,2,.11,3.16-4.83,5.74-7.86,6-1,3.37-6.07,1.14-6.14-2-2.09-.52-2.75-2.73-1-4-.93-1.73.35-4.05,2.01-5-2.79-2.55-.22-6.8,2.99-8-.47-2.59,2.81-2.24,4-3Z"/>
  <path class="cls-146" d="M82.9,76.11c1.29-.23,1.66.4,1.1,1.89.87.28.86.62,0,1l1.12,5c1.47-1.36,2.01-.73.88,1-.38,2-1.14,3.1-3,4-.93,3.14-6.92,6.05-10,5-2.51-2.47-4.8-5.24-7-8,3.91-4.4,11.91-6.82,16.9-9.89Z"/>
  <path class="cls-358" d="M43,99.11c1.55-.16,3.22.14,5,.89l4,1c1.74-1.44,1.77-1.29,2,1,2.17-.89,3.09,2.29,1,3-.66,1.21-1.32,2.54-2,4,1.9,2.01.78,4.88-2,5,2.05,1.72,1.72,2.39-1,2-1.38,2.28-2.15,2.82-3,0-.54,1.41-3.08.04-4-1-.44-.11-.97.14-1.97-.31,1.17-2.39.56-4.94-1.03-6.69-.82-1.69-1.15-3.35-1-5-.25-.39-.62-.7-.97-.98,1.47-.49,2.92-3.82,4.97-2.91Z"/>
  <path class="cls-310" d="M197,11c1.22,1.14,1.55,2.14,1,3-.06,1.33-.31,3-1,4-.14,2.2-.81,3.87-2,5,.47.38.14.72-1,1,2.53,1.23,1.64,2.47-.99,1.87-.55,3.83-5.99,3.73-7.01.13-1.91,2.03-2.17,1.73-2-1-.87-.28-.86-.62,0-1-1.82-.46-1.78-2.61-1-4-.9-.1-.85-.45,0-1-.29-2.87,2.99-3.37,5.35-4.63,3-1.6,5.52-4.65,8.65-3.37Z"/>
  <path class="cls-203" d="M139,44c2.49-1.94,4.2-1.61,5.15,1,2.59-1.1,3.01.18.85,2,1.06.53,1.52,1.08,1,2,2.89.08,2.7,2.34,0,3,.77,1.34.87,2.47.29,3.4-.5.61-14.34.89-15.29-.4h-1c-.9-1.78-.71-4.96,0-7,3.14-1.19,5.56-3.75,9-4Z"/>
  <path class="cls-335" d="M161,42l-2,1c1.26,2.86-7.42,5.61-9,3-2.29,1.45-3.95,1.79-5,1-.22-.58-.38-1.55-.85-2-3.23-.78-3.24-2.42-.04-4.92l11.9-6.88c3.44-1.16,7.3,6.33,5,8.8Z"/>
  <path class="cls-202" d="M170,27.93c1.34.01,1.67,1.37,1,4.07,2.43,1.39,1.69,2.54-1,2-.38,1.48-1.04,2.48-2,3,0,2.11-.67,3.78-2,5-.59,1.09-2.25,1.09-5,0-1.56-3.01-2.77-6.23-5-8.8,3.65-2.11,7.52-3.88,11-6.2,2.39-1.01,3.39-.69,3,.93Z"/>
  <path class="cls-351" d="M102,65c3.82-2.32,5.07,4.22,2,6.16-.61,2.64-4.81,6.39-7,3.63-1.64,2.26-10.37,2.49-13,2.19-.39-.05-.75-.41-1.1-.87,6.23-3.82,12.06-8.71,19.1-11.11Z"/>
  <path class="cls-219" d="M23,111c.65.46.93,1.23,1,2l1,5c.61,1.48.73,2.98-1,3-.21,1.46-3.67.52-5,0-2.02.87-3.69.87-5,0-1.55,2.15-3.8,1.34-5-.91.39-1.95,1.45-2.76,3.4-3.74l10.6-5.34Z"/>
  <path class="cls-76" d="M62,89c-1.06,2.66-2.28,5.22-2.99,8-1.21,1.13-2.21,2.46-3.01,4,.11,2.53-.11,2.65-2,1-.71-.26-1.72-.03-2-1-1.12-.06-2.45-.39-4-1-2.07-.14-3.33-.82-3.77-2.04l12.41-7.26c1.84-1.07,3.54-1.97,5.36-1.7Z"/>
  <path class="cls-61" d="M8.15,141.02c2.28-.71,8.27,3.47,6.85,5.98,3.23-.68,3.66,1.46,1,3l-1,2c-.28.87-.62.86-1,0-3.72-.37-7.38-.7-11-1-.57-3.35.99-6.51,1.13-9.87,1.23-.64,3.11-1.04,4.03-.11Z"/>
  <path class="cls-217" d="M14,154c.84-.4,1.15-.02,1,1,2.22,1.51.09,4.69-1.29,6.26-.38,2.89-.83,2.69-2.98,1-.63,1.25-3.44.46-3.6-1.06-1.22.82-3.23.58-3.98-.75.05.93-.2.89-.7,0-2.28-1.84-.09-4.21-.46-6.47,3.56-.89,8.14-.81,12,0Z"/>
  <path class="cls-154" d="M109,62c.26-.83.6-.81,1,0,3.13-1.36,2.92,1.85,2,4,.89,1.38,1.47,3.42,1,5-1.47.66-3.41.89-5.84.69-.31,1.42-1.04,1.28-2.16-.45-.35.85-.69.81-1-.08-1.16-1.93.85-4.77-2-6.16,2.38-.81,4.22-5.28,7-3Z"/>
  <path class="cls-124" d="M205.87,5.11c1.77,3.35,1.84,5.69.19,7.02,1.68,2.1-.36,5.63-3.06,4.87-2.52,1.7-3.66.57-2-2-1.73-.72-3.07-2.33-4-4,1.24-3.64,5.6-4.87,8.81-6.66.89.03.88.3.06.77Z"/>
  <path class="cls-220" d="M123,57c.97,2.97-6.03,6.32-8,4-2.4-.58-2.1-1.17-1-3,3.41-2.7,7.09-5.04,11-7,.5,1,.83,2.5,1,4.52l-3,1.48Z"/>
  <path class="cls-100" d="M14,121c1.46.95,1.09,1.62-1.11,2,1.69,2.66.21,4.75-2.86,4.17-.82,2.48-1.11,2.69-3.03.83-2.35-2.66-.07-5.99,2-7.91,1.73-.21,3.5,0,5,.91Z"/>
  <path class="cls-246" d="M8,139c.05,1.91-2.55,2.18-4,1,1.45-3.1.84-6.52,2.09-9.68,3.72-4.8,3.13,4.16,2.89,7.46-.05.64-.35,1.02-.97,1.22Z"/>
  <path class="cls-280" d="M183,19c.03.33,0,.67,0,1-.17,1.69-.5,3.02-1,4-2,.92-10.53,1.31-7-2,4.6-2.3,6.01-4.79,8-3Z"/>
  <path class="cls-300" d="M10.03,127.17c2.39,1.62,3.01,9.74-.03,10.83,1.39,1.53.79,2.09-1,1-.3.58-.63.57-1,0-.39-2.08,1.26-8.27-.47-8.96-.36-.14-.99.29-1.44.28l.91-2.32c.92-.55,1.97-.77,3.03-.83Z"/>
  <path class="cls-180" d="M173,25c2.86.06,2.73,2.32,0,3-1.66,2.39-2.66,2.37-3-.07l-3-.93,6-4c1.72.27,1.94,1.79,0,2Z"/>
  <path class="cls-12" d="M129,55c.28-.87.62-.86,1,0h1c.09,1.68-3.67,2.05-5,1,.8,2.84-1.49,3.41-3,1,1.49-1.67,2.4-3.75,2-6l2-1c.52,1.62,1.19,3.29,2,5Z"/>
  <path class="cls-321" d="M114,58c1.27.41,1.16,1.9,1,3-.25.95-.59.93-1,0-.84,2.29-2.17,2.62-4,1-.26-.09-.8.17-1,0-.74-3.4,3.38-2.72,5-4Z"/>
  <path class="cls-162" d="M129,55c-.82,0-1.7.18-3.02-.15-.12-1.99.69-3.33,1.02-4.85l2-1c.86,1.29.76,4.48,0,6Z"/>
  <path class="cls-27" d="M182,24c.22-2.55.89-2.55,2,0v1c-.68,3.16-10.05,3.02-11,0v-2l2-1c-.01.42-.19,1.11.04,1.45.32.49,1.03.61,1.92.6l5.04-.05Z"/>
  <path class="cls-20" d="M14,152h1c1.67,1.03.47,3.1-1,2-4.08-.36-8.08-.69-12-1v-1c3.61-.87,8.3-.82,12,0Z"/>
  <path class="cls-323" d="M14,154H2c-.05-.33,0-.67,0-1,4,.56,8.38-1.27,12,1Z"/>
  <path class="cls-60" d="M144.15,45c-1.7-.41-3.39-.93-5.15-1,1.25-1.72,3.33-2.89,5.1-3.92-.68,1.68-1.42,3.53.04,4.92Z"/>
  <path class="cls-320" d="M14,152H2c0-.58.43-1,1-1h9.06c1.04-.01,2.01.2,1.94,1Z"/>
  <path class="cls-177" d="M3.94,162.99c-.98.27-1.87,1-2.94,1.01.26-1.25.97-2.36,1.46-3.53.21-.04.51.09.7,0,2.35-.01,2.86,1.32.79,2.53Z"/>
  <path class="cls-78" d="M9,139c1.95,1.77,1.79,2.1-.85,2.02-1.27.65-2.7.51-4.03.11.01-.33-.26-.83-.13-1.13,1.4.02,2.8-.26,4-1h1Z"/>
  <path class="cls-82" d="M130,55h-1v-6c.39-.2.58-.84,1-1v7Z"/>
  <path class="cls-215" d="M48,100c-1.84.38-3.39-.18-5-.89.37-.41.74-.87,1.23-1.15,1.17.84,2.7,1.04,3.77,2.04Z"/>
  <path class="cls-43" d="M211,4c1.67,3.41-4.31,4.56-5.13,1.11l-.06-.77c.31-.17.84-.34,1.19-.34h4Z"/>
  <path class="cls-370" d="M204.62,103.28c.53.84.32,1.42-.62,1.72.55.14.99.29,1,.47.29,4.48.29,10.39,0,14.87-.02.24-.45.45-1,.66,1.43.87.87,1.82-1.69,2.86-3.74.2-6.63,4.83-10.31,5.14-2.11-.51-3.78-1.51-5-3l-2.21.42c-1.4-1.21-9.27-10.53-9.28-11.5,0-.81.77-1.44,1.48-1.92-.49-1.31-.09-1.85,1-1l.93-2.73c5.26-2.19,10.32-4.75,15.18-7.68l2.77.4c2.03-1.98,5.98-.59,7.75,1.28Z"/>
  <path class="cls-161" d="M128,122c3.15-2.34,6.27,3.95,5,7,1.3-1.32,1.62-.76,1,1,1.99.17,3.41,1.95,4.25,5.36,1.65,1.57,2.24,3.12,1.75,4.64,2.16.27,1.91,2.89,0,4,2.36-.43,3.26,2,1,3-.54.03-.65.8-1,1h-1c-1.58-1.36-3.58-2.36-6-3-3.53,2.14-8.47,1.29-11-2-3.04.35-6.05-7.56-5-10-2.44-1.4-1.68-2.54,1-2-1-1.88-.63-4.07,0-6-2.22-1.53-1.92-3.88,1-4,.92-3.54,8.04-2.5,9,1Z"/>
  <path class="cls-357" d="M187,126c2.98,1.18,3.31,2.29,1,3.33-2,2.12-4.9,2.96-7.82,3.9l-8.18,2.63-2.25-.18c-.97-3.61-2.58-6.88-4.83-9.81l.08-1.88c-2.09-1.55-1.06-7.22,2-6,.87-3.64,5.45-6.12,9-5,.28-.87.62-.86,1,0,.22,2.68,6.63,8.53,10,13Z"/>
  <path class="cls-243" d="M157.31,133.3c2.16.23,2.08,1.37.06,2.33,3.42.93,2.64,4.61-.37,6.36-3.52,1.48-6.99,3.92-11,3-1.21-.47-2.21-1.47-3-3-2.82.66-2.08-1.65.06-3-3.41-1.51-1.15-10.91,1.94-12,2.38-4.03,11.38,3.04,12.31,6.3Z"/>
  <path class="cls-311" d="M133,145c2.46.64,4.46,1.64,6,3,.26.15.71-.09,1,0-7.1,4-15.17,6.68-23,9-1.65.14-1.39-2.51,0-3-3.25-.64-2.24-6.65,1.1-6-1.98-1.31.23-2.32,1.96-2.97-.94-2.5-.36-2.74,1.94-2.03,3.68.54,7.38,1.13,11,2Z"/>
  <path class="cls-96" d="M103,158c1.2,1.04,2.27,3.09.9,3.96-3.81,2.77-8.55,3.5-12.9,5.04-3.17.72-8.2-2.76-6.9-6-2.97-1.4.08-7,2.9-6,.96-1.31,1.96-1.98,3-2-1.39-1.48-.83-2.07.96-1.04,4.34.22,9.61,1.93,12.04,6.04Z"/>
  <path class="cls-283" d="M80,159c1.24-2.69,4.8-.78,4.1,2l6.9,6c-1.41.5-3.66,1.29-5,2-2.96,1.17-5.62,1.17-8,0-1.57,1.86-3.25,1.23-4-1-2.13-2.04-1-8.29,2-9,.33-2.78,2.49-1.65,4,0Z"/>
  <path class="cls-45" d="M63,177c.87.28.86.62,0,1-6.13,2.84-12.57,4.97-19,7-2-1.27-2.6-2.94,0-4-1.22-2.19-1.22-3.88,0-5.06-.16-.92.1-1.58.94-1.51,5.52.5,11.61.94,17.07,0,1.43.29,1.72,1.23.99,2.58Z"/>
  <path class="cls-48" d="M40.1,177.13c1.29-1.99,1.92-1.7,1.9.87,1.18,0,1.85.99,2,3-.2,1.11,1.2,2.77,0,4-3.26,1.03-6.23,3.46-9.87,3.87-.44-.07-.83-.18-1-.43-.33-.48.63-9.93.87-11.44,1.45-.68,4.52-1.04,6.1.13Z"/>
  <path class="cls-50" d="M118.1,148c-.88,1.82-1.1,4.04-1.1,6-.66,1.23-1.33,2.56-2,4h-1c-2.25,1.55-4.92-.91-3.92-3.32-1.08,1.43-1.77.87-2.08-1.68-2.52,2.49-5.81-.98-4-4-2.3-1.67-1.75-2.44,1-2l1.65-1.34c3.89,1.01,7.83,1.26,11.83.75l-.38,1.59Z"/>
  <path class="cls-248" d="M172,135.87c-3.4,1.09-6.61,2.6-9.92,3.99-2.65,1.18-2.88.17-1.08-1.86.07-1.92.42-3.73,2.02-5-1.94-.64-1.87-1.55.12-2-1.24-1.74-.64-4.59.86-6-.87-.28-.86-.62,0-1,.28-.87.62-.86,1,0,4.42,2.16,5.06,7.6,7,11.87Z"/>
  <path class="cls-389" d="M29,187c.06-2.86,2.32-2.73,3,0,1.14-.04,1.51,1.1,1,2-4.07,2.7-9.09,4.85-14,5-1.25.72-3.25.6-3-1-.93-1.28-1.47-2.62.23-3-2.45-1.66-.88-3.45,1.77-3,.28-.87.62-.86,1,0,2.98-.86,7.05-.72,10,0Z"/>
  <path class="cls-57" d="M74,168c1.43-.18,2.95-.08,4,1,2.18.36,2.85,1.02,2,2-2.34,1.87-5.35,2.55-8,4-1.06.15-1.46.02-1-1-1.89-1.25-2.1-2.23-.64-2.93-1.76-2.56,1.49-5.95,3.64-3.07Z"/>
  <path class="cls-79" d="M114,158c-1.93,2.19-5.25,2.69-8,3-1.39.59-1.78.37-1-1,1.55-2.41,3.25-4.18,5.08-5.32,1.59.79,2.68,2.02,3.92,3.32Z"/>
  <path class="cls-170" d="M161,138l1.08,1.86-5.08,2.14c.76-2.06,1.12-4.26.37-6.36.05-1.63,1.83-1.98,2.6-.57,2.14-.29,1.97,1.28,1.03,2.94Z"/>
  <path class="cls-191" d="M12,195c2.45-1.12,4.45-1.12,6,0-2.33,1.53-5.03,2.83-7.84,2.85l-.16-2.85c-.09-1.67,1.49-1.49,2,0Z"/>
  <path class="cls-188" d="M143,143c1.68-.09,2.74,2.23,1,3l-1.13,1.55c-.36.5-1.36.15-1.87-.55.06-1.09-.8-2.01-1-3,.25-2.82,1.02-3.05,3-1Z"/>
  <path class="cls-51" d="M34.13,188.87l-1.13.13c-.83.24-1.39-1.47-1-2-1.26-2.68-2.14-8.65,1-10,.21-.7.55-.66,1,0l.13,11.87Z"/>
  <path class="cls-193" d="M71,174c.39.27.7.63,1,1-1.35.74-3.77.42-5,1-.87-.28-.86-.62,0-1-2.1,0-2.01-1.52,0-2,1.7-1.44,3.42-1.3,4,1Z"/>
  <path class="cls-356" d="M86,169c-1.86.98-3.93,1.8-6,2l-2-2h8Z"/>
  <path class="cls-6" d="M206,121c.58.49,1.26.82,2,1-1.87.78-3.2,1.73-5.69,1.86l1.69-2.86c.32-2.66,1.24-2.54,2,0Z"/>
  <path class="cls-9" d="M192,129l-4,.33c-.2-1.11-.29-2.39-1-3.33,1.94.62,5.21.37,5,3Z"/>
  <path class="cls-137" d="M67,175v1c-1.04,1.47-2.57,1.34-4,2v-1c-2.34-1.71-1.59-2.42,1-2,.29-1.24,2.69-1.47,3,0Z"/>
  <path class="cls-52" d="M146,145c-.43.76-1.62.48-2,1-.15-1.06-.5-2.06-1-3-.9-.32-.9-.65,0-1,1.48.45,3.17,1.23,3,3Z"/>
  <path class="cls-21" d="M117,154v3c-.66.2-1.19,1-2,1-.09-.76-.03-1.52-.05-2.5-.02-1.06.71-1.9,2.05-1.5Z"/>
  <path class="cls-218" d="M19,194c-.32.33-.61.74-1,1h-6c-1.35-1.42-.76-1.82,1-1,.52-2.5,1.12-2.6,3-1,.93.34,1.97,1.03,3,1Z"/>
  <path class="cls-29" d="M105,159c.57.3.55.63,0,1,0,.53.48.93,1,1-.45.58-1.57.58-2.1.96l-.9-3.96c1.39-2.43,2.54-1.69,2,1Z"/>
  <path class="cls-101" d="M175.96,63.07c1.38.09,2.93.28,4.04,1.01.36-.88.69-.82,1,.12.22-.3.43-.54.62-.52,2.29.27,7.87.95,9.78,1.4.27.06.45.5.6,1.04-.05-3,5.45-2.96,6-.12.25-.48.59-.44,1,0,.85-.41,1.16-.03,1,1,1.32.25.99,1.59-1,4-.07.3-.02.69,0,1-.32,2.66-1.24,2.54-2,0l-.74,2.57c-6.69,3.2-13.39,6.4-20.08,9.61l-2.18-1.18c-.67,1.11-3.66.62-3-1-3.06-.23-2.51-3.95,0-5l.76-6.82c-.62-1.96-.21-2.68,1.24-2.18-1.25-3.32-.95-7.15,2.96-4.93Z"/>
  <path class="cls-385" d="M206,82l.96,1.71c-.28,6.51-.59,12.94-.96,19.29-.3.9-.76,1-1.38.28-2.63,1.11-5.22-.24-7.75-1.28-2.82.76-3.11-1.93-1.88-4-1.49-1.32-1.83-1.96,0-3l1-7c.3-1.78.64-3.45,1-5-.94-.74-.07-2.51,1-3-2.99-.1-2.77-2.36,0-3-.43-1.7-.41-4.04,1-5,3.05,2.7,4.51,6.79,7,10Z"/>
  <path class="cls-73" d="M208,84.04c-.52-.27-.94.33-.94,1.05l-.06,17.92c-.25.85-.58.83-1,0v-21c.54.69,1.92.89,2,2.04Z"/>
  <path class="cls-156" d="M210,67.82l-.13,1.19c-2.27-1.12-4.74.22-6.87-1.01-2.1-.2-1.87-1.63.27-1.73.09-.89.38-.85.86-.01,1.74-2.13,5.46-1.17,5.88,1.57Z"/>
  <path class="cls-285" d="M203.27,66.27l-.27,1.73c-2.18-.27-2.32,2.34-4,3l1-4c-2.29-3.22,2.87-4.6,3.27-.73Z"/>
  <path class="cls-379" d="M216,84l-2,2c-1.08-.87-3.2-.64-4-2h6Z"/>
  <path class="cls-373" d="M206,105v16h-2v-16c.7-1.22,1.65-1.43,2,0Z"/>
  <path class="cls-236" d="M207,103h4l-5,2h-2c.13-.6.34-1.18.62-1.72.42-.18.93-.18,1.38-.28.32-.07.67,0,1,0Z"/>
  <path class="cls-54" d="M198,47.11c1.89-.97,5.44-1.2,6,.89,1.03.68,2.27,1.9,2.82,3.07,2.29.1,2.95.79.79,1.48l.38,2.45c2.91,1.1,2.13,3.21-1,3,.28,2.33-1.93,3.44-4,3-.22.67-.56.63-1,0-1.71-.73-3.52-.79-5.45-.17l-.55-.83c-1.66,1.21-2.59-.09-3-2-2.95,1.01-4.78-7.77-2-9-2.2-3.86,5.77-5.03,7-1.89Z"/>
  <path class="cls-122" d="M213,30c.28-.87.62-.86,1,0l3,4c-4.02,4.28-8.53,8.18-13,12,.24,1.49-2.05.79-3,0-.66-.29-.65-.63,0-1,.35-2.99.69-5.99,1-9-.87-.28-.86-.62,0-1,.92-3.77,4.37-5.5,8-4,.72-1.55,2.05-2.71,3-1Z"/>
  <path class="cls-378" d="M214,51c.02.33-.04.67,0,1,.05.38-.16.87-.04,1.23.38,1.27.2,1.52-.96.77-.88-1.85-3.35-1.91-5-1,2.66.32,2.54,1.24,0,2-1.75-.57-.62-2.75-1.18-3.93l7.18-.07Z"/>
  <path class="cls-164" d="M200,46c.19-.88.52-.84,1,0h3v2c-1.75-1.16-3.98-1.16-6-.89-2.14-2.63.41-4.14,2-1.11Z"/>
  <path class="cls-340" d="M6,172.99c1.27,1.09,2.52,2.27,2.81,4.01.86.32.84.65-.04,1,4.3-.05,3.34,6.61-.78,5.86-1.1,2.62-4.13,2.98-4.87.01-.74-4.3-2.29-8.5-2.13-12.87,1.68-2.16,5.14-.63,5,1.99Z"/>
  <path class="cls-128" d="M13.07,188.91c1.61.69,2.59,2.05,2.93,4.09-.74.93-1.9.99-3,1-1.84.2-4.88.32-5-2-.14,2.03-1.28,1.99-2,0-.1-.52-.74-.65-1-1-.84-4.17.11-6.17,2.85-6,1.61-3.75,6.92.9,5.22,3.91Z"/>
  <path class="cls-47" d="M8,183.86c.83.43.77.81-.15,1.14l-2.85,6c-1.48-2.02-1.46-4.72-1.87-7.13h4.87Z"/>
  <path class="cls-30" d="M8,192c2.54,1.29,2.86,2.03,0,3-.81,0-1.7.16-2,1-.18-.48-1.03-.98-1.04-1.64-.01-.93.34-1.77,1.04-2.36.57.21,1.48-.3,2,0Z"/>
  <path class="cls-110" d="M214,7c-.02.99.1,2.01,0,3,1.69,3.2-.79,5.51-4,4-1.84,2.14-3.78.59-3.94-1.87-.01-1.58-1.03-2.84-1.79-4.59-.49-1.13,1.01-1.94,1.6-2.43,1.85.01,3.76.27,5.13-1.11,3.47-1.49,4.77-.55,3,3Z"/>
  <path class="cls-336" d="M217,15c-1.32.08-2.57.68-3,2-.9.48-1.84.89-2.83,1.14-3.02-.2-3.68-2.4-1.17-4.14,1.56-1.12,3.21-2.2,4-4-.26,2.47,2.95,2.63,3,5Z"/>
  <path class="cls-112" d="M214,7c.02-.69.28-1.67-.09-2.41-.49-1.01-2-.59-2.91-.59,1.28-1.29,3.39-1.2,5-2-.42,1.76-.52,3.8-2,5Z"/>
  <path class="cls-144" d="M213,54c.31.05,1.15-.34.96-.77,1.39,4.25,4.04,8.35,4.04,12.77-.3,1.72-.84,2.3-2,.86-.56.24-1.51-.09-2,.26-3.9-.61-7.16-5.4-7-9.11.58-.9,1-1.93,1-3v-2c1.67-.92,4.3-.87,5,1Z"/>
  <path class="cls-3" d="M211.12,19.04c.16,1.55,1.3,2.74,2.87,2.8l.14,2.15c.4,2.86-.7,3.58-3.13,2-.19.89-.52.85-1,0-1.85-1.57-2.85-3.24-3-5-1.11-3.45,2.11-4.95,4.12-1.96Z"/>
  <path class="cls-105" d="M217,28l-3,2h-1c-2.08.53-2.28-.52-1-2-2.58,1.11-3.04-.18-1-2,1.02-.7,2.04-1.42,3.13-2l2.87,4Z"/>
  <path class="cls-136" d="M210,14c.27,1.41.76,2.77,1.17,4.14.08.27-.08.61-.05.9-1.61.01-3.17.62-4.12,1.96-.28.87-.62.86-1,0-2.74.15-3.98-1.38-3-4,.87-1.71,1.71-3.48,3.06-4.87,1.53.03,2.69,1.09,3.94,1.87Z"/>
  <path class="cls-10" d="M207,58c2.22.57,2.58,3.08,3.98,4.99,1.12,1.53,3.35,2.18,3.02,4.12-1.22.86-2.57.85-4,.71-2.04-.19-4.03-.67-5.88-1.57-3.12-.69-4.4-2.78-1.12-4.25-.87-.28-.86-.62,0-1,.65-1.71,2.17-2.88,4-3Z"/>
  <path class="cls-298" d="M218,69c-1.03-.29-1.71-1.14-2-2.14l2-.86v3Z"/>
  <path class="cls-290" d="M13,194c-.44,0-.82.68-1,1h-4v-3c1.62.94,3.8.56,5,2Z"/>
  <path class="cls-225" d="M7.16,163.01c.87-.61,2.09-.59,3.66.08,1.98-1.61,2.98.18,2.18,2.23.49,3.22-.67,9.89-5,8.49-.64.72-1.3.45-2-.82-1.81-.26-3.41-1.11-5-1.99.02-.66.04-1.34,0-2,.44.13,1,.12,1.67-.31.6-2.12,1.02-3.9,1.27-5.7-.2-2.31,2.66-1.82,3.21.02Z"/>
  <path class="cls-138" d="M47,118c2.3-1.22,1.36,1.55,0,3,2.24,1.89,1.93,2.82-1,3-.08,1.39-1.7,1.41-2,0-.77.5-1.43.78-2,0v-1c-.66-1.66-.8-4.37,1.04-5.03l-.04-1.97c1.22-.49,3.69.46,4,2Z"/>
  <path class="cls-208" d="M39,124c.87.28.86.62,0,1-1.14.76-2.5.44-2-1-2.57.82-5.43.93-8,0-.87-.28-.86-.62,0-1-.62-.57-.28-.9,1-1,2.92,1.3,6.3.21,9,2Z"/>
  <path class="cls-289" d="M43.04,117.97c-.47,1.65-.99,3.3-1.04,5.03-1.05-.79-1.11-2.14-1.11-3.48,0-1.26.79-1.87,2.15-1.55Z"/>
  <path class="cls-297" d="M47,116c1.97-.09,1.87,1.58,0,2l-4-2v-1l4,1Z"/>
  <path class="cls-371" d="M40,108c-1.1-1.21-2.88-4.01-1-5,.96,1.48,1.1,3.27,1,5Z"/>
  <path class="cls-135" d="M26,122c-.67.71-1.38.73-2,0-.87-.28-.86-.62,0-1,.47-.93.93-1.94,1-3,1.22.97,1.17,2.56,1,4Z"/>
  <path class="cls-150" d="M26,122c1.19.33,2.88-.5,4,0l-1,1c-1.71,1.74-4.14,3.31-5,0-.59-.3-.57-.63,0-1,.65.11,1.37-.18,2,0Z"/>
  <path class="cls-183" d="M25,118c-1.51-1.19-1.03-3.28-1-5,1.39,1.26,1.12,3.27,1,5Z"/>
  <path class="cls-147" d="M42,124c.65.11,1.34,0,2,0,.55,2.42-3.22,2.22-5,1v-1c.8.29,2.12-.14,3,0Z"/>
  <path class="cls-34" d="M80,114c.99-.21,1.37.5,1.13,2.12l.87,2.88c2.33,1.61,1.74,2.47-1,2-.29.66-.62.64-1,0l-2,2c-.68.55-1.28.5-2,0-.65.79-1.11.69-1.39-.29-3.01-.83-9.81-3.2-8.5-6.78-2.85-.11-3.54-1.48-2.12-3.93-2.99-.75-2.91-3.46.14-4,1.49-3.05,5.02-4.37,7.86-6,1.62-.05,9.32,9.31,9.2,9.99-.14.81-.62,1.46-1.2,2.01Z"/>
  <path class="cls-181" d="M92,92c.68.08,1.06.28,1,1,3.66,1.63-.56,8.14-4,8-1.84,1.98-3.08,1.37-4-1-3.53.35-6.53-.32-9-2-2.06,1.18-4.43,1.23-3-2v-2c2.88-2.3,6.46-3.97,10-5,1.27-1.53,2.3-1.87,3.1-1,2.01-2.3,7,1.25,5.9,4Z"/>
  <path class="cls-17" d="M76,99l9,1c1.19-.57,2.98.54,4,1,2.66.32,2.54,1.24,0,2,.62,2.76-3.1,8.79-6,9-1.2,2.49-2.2,3.16-3,2-2.48-5.2-8-8.21-8-12v-2c.38-2.64,2.07-1.93,4-1Z"/>
  <path class="cls-202" d="M58,106c2.14.45,3.89,2.1,6.14,2-.26,1.05-.25,2.94-.14,4-1.17,2.84-5.23,8.15-8,5-.33.91-.66.91-1,0-2.76,1.79-5.01.2-4-3,.39-1.78,1.01-3.45,2-5,.03-1.57,1.38-3.26,3-3,.08-2.59.75-2.59,2,0Z"/>
  <path class="cls-263" d="M56,101c.85-.41,1.15-.03,1,1,.02,1.4.26,2.8,1,4-.63-.13-1.36.1-2,0-.85.41-1.15.03-1-1,.06-1.01.15-2.59-1-3,.42-.65,1.43-.74,2-1Z"/>
  <path class="cls-187" d="M59.01,97c-.44,1.71-2.14,3.09-2.01,5-.35-.31-.69-.65-1-1,.33-1.81.6-4.24,3.01-4Z"/>
  <path class="cls-254" d="M76,98c.87.28.86.62,0,1-1.12-.54-3.01.5-4,1,0-1.43-.12-2.97,1-4-.21.81,0,1.54.64,1.88.8.42,1.73-.13,2.36.12Z"/>
  <path class="cls-38" d="M95,77c.89,4.33.82,10.45,0,15-.31.95-2.09.57-3,0l-5.9-4c-1.44.32-1.47-.68-.1-3-.29-.32-.51-.76-.88-1l-1.12-5v-1c-.29-.56-.47-1.03-.31-1.23.46-.56,10.05-.45,11.31.23Z"/>
  <path class="cls-282" d="M96,77c-.28.87-.62.86-1,0h-9.06c-1.04-.01-2.01.2-1.94,1-.42-.21-.81-.36-1-.61-.25-.31-.43-.98-.1-1.28,3.17-.16,6.51-.25,10.14.04,1.93.15,2.83-1.12,3.97-1.36,2.52,1.38,1.87,2.53-1,2.21Z"/>
  <path class="cls-62" d="M86.1,88c-.96.54-2.06.7-3.1,1,.87-1.43,1.71-2.91,3-4l.1,3Z"/>
  <path class="cls-234" d="M85.12,84c-1.69-1.08-1.12-3.24-1.12-5,1.7.98.95,3.33,1.12,5Z"/>
  <path class="cls-69" d="M55,117c.86,2.14.79,5.86.01,8.11-.22,1.25-1.77,1.17-3.01.89-.28.87-.62.86-1,0-2.07,1.73-3.35,2.63-4.81-.19-1.93-.3-2.02-1.11-.19-1.81.55-.92.76-1.97,1-3,.67-2.65,1.67-4.32,3-5,.27-.61.82-1.42,1-2,1.05,1.28,2.59,2.21,4,3Z"/>
  <path class="cls-64" d="M50,116c-.81,1.82-.97,4.28-3,5,.24-1.01.92-2.17,0-3v-2h3Z"/>
  <path class="cls-165" d="M56,106c-.92,1.08-1.98,2.02-3,3-1.25-1.54.51-3.31,2-4,.35.31.69.65,1,1Z"/>
  <path class="cls-46" d="M52,101c-.63.54-1.41.82-2.11.55-.86-.33-1.32-1.02-1.89-1.55.87.32,4.67-1.28,4,1Z"/>
  <path class="cls-264" d="M193.01,25.87c2.7.65,7.81,5.32,5.81,8.13l1.88,1.35c.03,3.66-.2,7.21-.7,10.65-.84-.06-1.86.13-2,1.11-6.68.87-4.5-.24-7,1.89-.67,3.84-5.41,1-2.89-2-.57-.77-.98-1.77-1.24-3-3.32,1.41-4.25-2.06-.87-3,.85-1.66.58-3.36,0-5.07-3.22.65-3.78-2.75-.82-3.93-.85-1.04-.58-2.71.82-5-.89-.24-.87-.58,0-1,2.38.5,4.78,1,7.01-.13Z"/>
  <path class="cls-227" d="M184,25c.7.2,1.29.85,2,1,.03.33-.05.67,0,1-.41,2.67-1.41,4.01-3,4,2.14,3.21-6.01,9.06-8.78,7.05.21.91-.87,1.23-3.22.95-.32,2.66-1.24,2.54-2,0-.7-1.55.12-3.6,1-5l1-2c-.25-1.87-.02-3.94,2-4v-3h11Z"/>
  <path class="cls-387" d="M201,24c2.38.37,4.71.7,7,1,.6-.76,1.27-.43,2,1,.33-.02.67,0,1,0l1,2c-.06,1.03-.72,2.03-2,3-2.69,1.25-5.41,2.54-8,4-1.06,2.4-1.95,1-3.19-1-1.49-3.1-5.39-4.5-5.81-8.13l.99-1.87c2-.9,4.86-.66,7,0Z"/>
  <path class="cls-255" d="M198,18c2.28,1.55,1.3,3.81-1,5-.26.83-1.47.72-2,0,.29-1.8.73-3.64,2-5,.28-.87.62-.86,1,0Z"/>
  <path class="cls-274" d="M197,23c.36-3.43,5.23-2.34,4,1h-7c.2-.37.54-1,1-1h2Z"/>
  <path class="cls-108" d="M201,15c-.32,2.66-1.24,2.54-2,0-1.16.72-1.38.25-1-1-.59-.9-1.12-1.9-1-3,1.68.76,3.13,2.35,4,4Z"/>
  <path class="cls-176" d="M184,24h-2c.04-1.35-.52-3.35,1-4-.02,1.4.26,2.8,1,4Z"/>
  <path class="cls-368" d="M199,15c1.6,1.85,1.67,2.35-1,3h-1c-.12-1.42-.12-2.99,1-4,.68-.15.98.42,1,1Z"/>
  <path class="cls-313" d="M159,43c1.79-1.09,6.01-1.22,6,1,.64,1.34-.78,4.02-2,5,.12,1.37-.32,4.53-2,5,.51.48.49,1.73,0,2.13-.96.79-11.33.53-13.01-.13-1.68.23-2.34-1.11-2-4v-3c-.35-1.29.99-2.29,4-3l9-3Z"/>
  <path class="cls-140" d="M148,56c-1.07.77-2.92.74-4,0-1.82.28-3.82.62-6,1,.29,3.06-10.84,2.31-12.11,1.58-.76-.44-.49-1.67.11-2.58,1.78.99,3.62-.98,5-1l14.77-.17c.52-.75.22-2.23.23-2.83,1,1.14,1.46,2.6,2,4Z"/>
  <path class="cls-178" d="M150,46l-4,3c-.14-.29-.96-.4-1.46-.97-.24-.27.06-.69.46-1.03,1.64-.44,3.29-.95,5-1Z"/>
  <path class="cls-287" d="M161,42h5c.28-.87.62-.86,1,0,2.17,1.66,1.73,2.21-1,2-.28.87-.62.86-1,0-1.57-1.58-4.14-1.62-6-1,.2-.92,1.21-1,2-1Z"/>
  <path class="cls-213" d="M169,39c-1.87,1.92-2.03.02-1-2,.02-1.33.71-2.56,2-3,.23,1.79-.21,3.43-1,5Z"/>
  <path class="cls-204" d="M169,39c2.32,2.02,1.01,3.77-2,3h-1c.29-1.8.72-3.64,2-5-.15.84,0,2,1,2Z"/>
  <path class="cls-195" d="M173,28l-2,4c-1.52-.88.05-2.87-1-4.07l3,.07Z"/>
  <path class="cls-131" d="M104,71.16l1,.08c1.36,0,2.03,1.25,2,3.76,3.17-1.13,5.44,4.62,2.23,5.84.51.55,1.05,1.32.76,1.94-.24.5-6.31,8.4-6.75,8.81-.55.51-1.46.46-2.23.42.32,2.2-2,1.45-3,0-.26.83-1.47.72-2,0-.89-4.33-.82-10.45,0-15,.56-.61.85-1.4,1-2.21,2.77-.58,4.29-3.85,7-3.63Z"/>
  <path class="cls-316" d="M19,121c.87.28.86.62,0,1,.23,1.27-.77,1.6-3,1-.09,2.89-2.42,2.7-3.11,0,.39-.66.76-1.32,1.11-2,1.77-.77,3.39-.86,5,0Z"/>
  <path class="cls-155" d="M24,121v2c-1.53,2.18-3.84,1.27-5-1v-1h5Z"/>
  <path class="cls-114" d="M29,147c3.15-.47,1.3,2.22,0,4,1.42,2.05.71,5.16-2.19,4.81-.11,1.93-1,1.99-1.81.19-1.75-.36-3.46-.64-5.15-.83-1.13,2.84-3.47,1.73-2.85-1.17-2.09.6-1.61-2.24-1-4-.08-.86-.33-2.39-1-3-.04-2.19,1.77-4.2,4-3,.13-.66.26-1.08,1-1,2.03-4.23,8.23.85,9,4Z"/>
  <path class="cls-266" d="M15,137c1.08-2.15,1.49-.92,2,1,1.39-1.51,2.01-.87,1,1,2.28.07,1.83,3.13,1,5-1.13,1.33-2.05,3.17-4,3-2.42-1.93-5.36-3.17-6.85-5.98.28-.65.41-1.44.85-2.02.26-.35.9-.48,1-1,.93-2,3.5-3.07,5-1Z"/>
  <path class="cls-186" d="M17,154c.27,2.64-.05,2.73-2,1-.36-.31-.7-.64-1-1,.98.62,1.15-1.38,1-2-.16-.67.25-1.84,1-2,.13,1.39.13,2.82,1,4Z"/>
  <path class="cls-173" d="M19.85,155.17c.89.15.88.44.04.88,3.97.7.32,9.71-3.04,8.09-.5,1.71-2.41,1.36-3.03-.12-2.04-.9-2.19-1.82-.1-2.77-1.4-2.19.1-4.2,1.29-6.26.33-.57,1.52-.6,2-1,.9.34,1.85,1.12,2.85,1.17Z"/>
  <path class="cls-92" d="M7.13,161.21c1.66.77,1.91,1.47.02,1.8-1.02.18-2.21-.29-3.21-.02-.12-.88-.3-1.77-.79-2.53,1.38-.66,2.98-.46,3.98.75Z"/>
  <path class="cls-286" d="M10.74,162.26c.89.09.9.36.08.82-1.03,1.02-2.52.62-3.66-.08l-.02-1.8,3.6,1.06Z"/>
  <path class="cls-271" d="M13.71,161.26c-.09.92-.02,1.85.1,2.77,1.76.08,1.93.72.18,1.29-.3.86-.63.85-1,0-.19-1.17-.93-2.2-2.18-2.23l-.08-.82c.96-.44,1.95-.79,2.98-1Z"/>
  <path class="cls-163" d="M116.12,74.38c1.63,1.83,1.26,2.7-1.12,2.62-.28.87-.62.86-1,0-2.84-.38-3.51-2.35-1-4-1.53-1-1.91-1.59,0-2-.32-1.65-1.07-3.29-1-5,.28-.87.62-.86,1,0,3.02.16,3.99,5.96,3.12,8.38Z"/>
  <path class="cls-158" d="M113,71c.12.64-.05,1.35,0,2-1.92.64-3.92,1.3-6,2-.77-1.2-1.56-2.37-2-3.76,2.6.21,5.33-.25,8-.24Z"/>
  <path class="cls-318" d="M114,61c2.23,1.42,1.24,4-1,5h-1c.07-1.66-.1-3.58-2-4,1.03-1.12,2.57-1.15,4-1Z"/>
  <path class="cls-14" d="M201,15c.53,1,1.21,1.3,2,2,1.23,1.09,2.52,2.43,3,4,1.04.75,1.94,2.09,1,3-1.37,1-4.2.66-6,0-1.02-1.18-2.52-1-4-1-.25-1.79.25-3.42,1-5,.43-.9-.26-2.44,1-3h2Z"/>
  <path class="cls-334" d="M138,57h1c.95,1.84.71,4.85,0,7l-1,7c.03,5.96-1.63,7.96-5,6-2.92.09-5.92-.24-9-1-.55,1.97-1.43,1.95-2,0-1.93.42-3.6.09-5-1-.69.62-.96.38-.88-.62-1.94-1.49-2.1-3.57-3.12-8.38-.36-1.68.19-3.56,1-5,.28.03.75.11,1,0l8-4c.82-.41,2.22-.54,3-1-.07.8.9,1.01,1.94,1.01h10.06Z"/>
  <path class="cls-121" d="M16,123c1.39,1.17,1.46,1.59.48,2.95.11,3.65.13,7.21-.36,10.84-.02.12-.5.17-1.12.21-1.6.69-3.37,2.02-5,1,.08-3.62-.78-7.27.03-10.83.97-1.38,2.01-2.72,2.86-4.17h3.11Z"/>
  <path class="cls-209" d="M174,84c2.27-.46,4.53.39,6.8,2.55,5.38,1.91,9.12,4.72,11.2,8.43,1.66.82,2.66,1.83,3,3.02,1.38.66,1.28,2.83,1.88,4-5.54,4.52-12.58,6.61-18.88,10-1.02-.04-1.69-1.37-2-4l-1-5-1-5-1-5-1-5c-2,.46-1.38-3.25,0-4,.07-.95,1.3-.66,2,0Z"/>
  <path class="cls-347" d="M178,112c.34.51-.61,1-1,1h-1c-2.75-.87-3.21-4.53,0-5,1.27.63,1.3,2.94,2,4Z"/>
  <path class="cls-322" d="M111,118c1.22-2.56,6.44-1.48,7,1.14,2.55-.96,2.94-.05,1,1.86-.44,1.15-.25,3-1,4-.62,1.98-.96,4.07,0,6l-1,2c.7,3.13-8.4,5.61-10,3-2.56.7-2.75-.08-1-2-3.32-1.64-3.98-3.31-2-5-1.21-4.28,1.12-9.83,5-12,.85-1.54,1.52-1.21,2,1Z"/>
  <path class="cls-39" d="M141,118c.76.41,1.53.85,2.08,1.52,1.33,1.62,4.8,6.56,1.92,7.48-.32,4.06-2,7.9-1.94,12-.96,2.99-1.98,3.33-3.06,1-3.51-1.92-4.77-6.32-6-10,.05-1.24.39-2.57,1-4l1-5c-1.18-1.88-1.19-3.06,1-4,.18-2.87,3.8-1.41,4,1Z"/>
  <path class="cls-118" d="M117,133c2.68,2.68,3.45,6.6,5,10,.25,1.24-1.7,1.34-1.94,2.03-1.14,1.11-1.8,1.75-2.06-.03-3.59.85-7.41.91-11,0-.51-.22-.49-.52,0-.86-1.57,1.13-2.06.54-1.01-1.14-2.13-3.3-1.8-4.97,1.01-5-2.6-.62-2.53-1.27-.01-2l10-3Z"/>
  <path class="cls-182" d="M137,117c.39,1.59.43,3.03-1,4l-1,5c-.16,2.08-.83,3.08-2,3-2.02-2.02-2.48-5.48-5-7-2.03-.83-2.14-1.39,0-2,0-3.03,2.88-6.12,6-5l2-1c.28-.87.62-.86,1,0,2.66,1.04,2.66,2.04,0,3Z"/>
  <path class="cls-329" d="M123,113.31c.01-1.77.68-1.54,2,.69,2.89-.38,4.09,3.57,3,6v2c-2.74-1.26-6.08-.98-9-1,0-.61-.81-1.26-1-1.86-2.67-1.51-1.84-3.51,1.07-3.07.33-1.66.97-2.36,1.93-2.07-.78-2.95.82-3.49,2-.69Z"/>
  <path class="cls-339" d="M143,142c.07.3-.14.74,0,1-1.05.15-2.08.46-3,1-.25-1.28.19-2.7,0-4,1.07-.15,2.11-.47,3.06-1,.01,1-1.29,2.24-.06,3Z"/>
  <path class="cls-84" d="M139,148c-2-1.11-4.69-1.03-6-3,2.24.54,6.07,0,6,3Z"/>
  <path class="cls-130" d="M118,131c-1.98-1.41-1.26-4.32,0-6v6Z"/>
  <path class="cls-301" d="M134,130l-1-1,2-3c-.04,1.35.52,3.35-1,4Z"/>
  <path class="cls-375" d="M172,84v4c.35,1.63.68,3.3,1,5l1,5,1,5,1,5c-.57,1.48.42,3.46,0,5-2.82,1.89-5.95,3.53-9,5-2.04,1.8-2.71,1.47-2-1,.03-2.24.36-4.24,1-6-.37-1.73-.04-2.73,1-3-.82-2.11-.86-7.1,1-8-1.05-1.81-.29-6.05,1.07-8-2.93.05-2.86-3.29-.07-4,.25-1.43.59-2.76,1-4-.02-1.56,1.37-1.38,2,0Z"/>
  <path class="cls-212" d="M167,118c-2.26,1.09-2.26,3.79-2,6h-1c-4.48,1.22-3.92-7.06,0-7,.28-.87.62-.86,1,0l2,1Z"/>
  <path class="cls-306" d="M162,110.83c4.36-2.04,4.28,4.04,2,6.17-.56,2.38-2.05,5.11,0,7v1c-.67,2.11-1.62,3.44-2.87,4,1.37,2.22.9,4.49-1.86,4.11.02,1.6-1.43,1.77-1.96.19-3.47-.66-7.31-5.8-12.31-6.3-.77-4.61-4-2.63-4-9-2.24-1.85-2.24-2.85,0-3,1.07-2.58,3-2.84,5-1,2.36.05,4.7-.28,7-1-.98-3.51,7.77-5.04,9-2.17Z"/>
  <path class="cls-171" d="M159.27,133.11c1.32-1.42,2.08-1.02,1.78.87,1.14,1.49.6,2.04-1.08,1.08-.84.31-1.72.47-2.6.57.11-.78.09-1.56-.06-2.33.6.12,1.39-.39,1.96-.19Z"/>
  <path class="cls-345" d="M107,145c3.6.9,7.38.84,11,0l2.06.03c-.39,1.12-1.47,1.96-1.96,2.97-.25-.6-.97-1.04-2.03-1.04l-11.07.04c-2.6-1.91-.67-4.88,2.01-2.86v.86Z"/>
  <path class="cls-91" d="M80,142c3.89-.43,10.82,6.56,8,10,1.51,1.12.55,2.28-1,3-.9,2.05-2.36,3.81-2.9,6l-4.1-2c-2.04-.82-3.37-1.82-4-3-.88-.24-.95-.63-.21-1.17-2.37-.99-.89-5.63.25-7.83-2.87-2.13-1.67-6.17,1.96-6,.8-.93,2.51-.42,2,1Z"/>
  <path class="cls-245" d="M99,145c2.64-.71,5.54,1.09,5,4,.98,1.57,2.22,3.27,4,4,2.17,2.1-.85,5.01-3,6l-2-1c-2.45,1.51-3.56-2.28-6.34-2.72-2.42-.39-4.87-1.31-5.7-3.32-.81-2.89.41-9.18,4.04-8.96,2.14-.69,2.87.34,4,2Z"/>
  <path class="cls-152" d="M95,142c.89.29.88.63,0,1-1.95,2.85-1.39,6.71-4.04,8.96-.3.26-.82.68-.96,1.04-1.13,1.38-2.67.92-2-1-4.95-9.19-3.79-4.29-8-10-.71-1-.73-1.44.24-1.45,4.47-.08,7.68-.39,12-.87.24-.03.49.12.75.32,2.53-1.99,3.98-.53,2,2Z"/>
  <path class="cls-179" d="M90,153c-.44,1.33-1.6,2.09-3,2,.43-.97.91-1.92,1-3l2,1Z"/>
  <path class="cls-281" d="M66,148c1.19,1.09,2.19,2.09,3,3,2.38-2.11,4.61.11,3.99,3.1,1.62-1.76,2.21-1.52,2.79.73.05.38.25.79.21,1.17,1.96,1,2.16,2.31,0,3-.49,3.03-.81,6.17-2,9-1.89.21-2.25,2.18-3.64,3.07-.13.91-1.25,1.55-3.36,1.93-.41,1.4-1.84,1.47-3,.74-1.44,1.47-1.97,1.01-1.7-1.04-2.43.78-2.66.39-1.3-1.7-2.1-1.42-2.48-2.97-1-5-.6-1.78.27-4.17,1-6-1.53-.05-1.52-1.64,0-2-.66-2.47-.61-6.11,1-8-2.7-.99-1.82-3.18,1-3,1.38-2.13,2.92-1.68,3,1Z"/>
  <path class="cls-229" d="M80,159c-1.24-.6-2.85-.87-4,0,.16-.97-.1-2.02,0-3,1.88,0,3.31,1.32,4,3Z"/>
  <path class="cls-260" d="M44.18,171c6.04.96,12.08,1.53,18.12,1.7.49.37,1.5.21,1.7,1.04,1.95-.19,1.94.63,0,1.26l-1,2c.52-2.14-16.77-1.13-19-1.06-.24,2.66-1.16,2.58-2,.06-1.67-1.52-1.74-2.53,0-4-.87-.28-.86-.62,0-1,.53-2.63,1.42-2.56,2.18,0Z"/>
  <path class="cls-290" d="M44,175.94c.31,1.73.3,3.39,0,5.06-1-.73-1.59-1.85-2-3-1.28-.85-1.59-1.65,0-2l2-.06Z"/>
  <path class="cls-359" d="M39,172c.75-2.86,2.25-2.75,3,0,.88,1.24,1.03,2.83,0,4v2c-.43-.28-1.69-.38-1.9-.87-2.05-.55-4.08-.92-6.1-1.13-.86-.97-.74-3.8,0-5,.93-1,2.59-.66,5,1Z"/>
  <path class="cls-364" d="M33,176c.28-.93.61-.91,1,0,1.73.76,5.55-1.72,6.1,1.13l-6.1-.13c-.33,0-.67,0-1,0,0,2.93-3.34,2.8-4,0-.87-.28-.86-.62,0-1,0-2.93,3.34-2.8,4,0Z"/>
  <path class="cls-216" d="M102.61,139.7c1.97-1.66,3.1-.56,3.39,3.3l1.01,1.14c-1.2.48-1.47,1.8-2.01,2.86l-1,2c-1.77-1.23-3.91-2.07-5-4-2.53-1.53-3.43-2.69,0-3-1.93-2.71,1.67-4.71,3.61-2.3Z"/>
  <path class="cls-221" d="M110.08,154.68c-1.07,2.26-2.96,4.04-5.08,5.32v-1c1.21-2.06,3.65-3.45,3-6,.88.36,1.35,1.31,2.08,1.68Z"/>
  <path class="cls-278" d="M164,125c0,2.05-.04,4.11-.86,6-1.45,1.1-2.12.43-2.01-2,.21-1.78.9-3.76,2.87-4Z"/>
  <path class="cls-386" d="M163.14,131c-.24.54-.07,1.41-.12,2-.6,1.87-1.26,2.2-1.96.98-.67-.1-1.19-.63-1.78-.87,1.28-.99,1.67-2.57,1.86-4.11.56.77,1.26,1.42,2.01,2Z"/>
  <path class="cls-353" d="M161,138c-.25-1.01-.59-2-1.03-2.94l1.08-1.08c.62-.39,1.28-.71,1.96-.98-.16,1.85-.22,4.01-2.02,5Z"/>
  <path class="cls-238" d="M17,178c2.3,0,3.17.58,1.44,2.1.62,2.92.47,5.22-.44,6.9,0,1.09-1.51,2.01-1.77,3-.57,1.04-1.62.68-3.15-1.09-1.8-1.41-2.8-3.92-5.22-3.91.16-.33.03-.79.15-1.14,1.36-1.78,2.13-3.91.78-5.86.03-2.88,1.4-2.83,3.22-1,2.51-.96,4.18-.63,5,1Z"/>
  <path class="cls-71" d="M29,177h4c-.43,3.38,1.12,7.15-1,10h-3c-.88-.2-.85-.49,0-.88-3.94-.58-5.61-1.95-5.01-4.12-1.33-1.39-1.34-3.17.86-3,.55-2.61,1.82-2.89,4.14-2Z"/>
  <path class="cls-251" d="M21,177c2.53-.07,2.58.99,1.15,3-.85,1.58-1.57,3.25-2.15,5,.87.28.86.62,0,1,.29.42-.04.75-1,1h-1c-.03-3.05.55-6.3-1-9-.9-.32-.9-.65,0-1,1.24-1.82,2.66-1.62,4,0Z"/>
  <path class="cls-309" d="M29.01,186.12v.88h-10.01c.1-.51.51-.86,1-1,2.5-2.37,5.5-2.33,9.01.12Z"/>
  <path class="cls-222" d="M16.23,190c-.26.95-.15,2.04-.23,3-1.84-.53-1.61-3.05-2.93-4.09,1.11.18,2.16.57,3.15,1.09Z"/>
  <path class="cls-228" d="M70.36,171.07c.52.89.64,1.92.64,2.93-1.17-.82-2.58-1.14-4-1,.42-1.47,1.94-1.95,3.36-1.93Z"/>
  <path class="cls-367" d="M67,173v2h-3v-1.26c.91-.53,1.96-.72,3-.74Z"/>
  <path class="cls-168" d="M198,77c.19.96-.3,2.07,0,3l-2,3c.98,1.02.55,3.51,0,5l-1,7c-.27,2.45-1.95,1.79-3-.02-2.28.1-3.58-2.21-5.65-3.22-4.56-2.23-8.86-4.49-12.35-7.75-.87-.28-.86-.62,0-1l23-11c.96,1.05,1.29,2.72,1,5Z"/>
  <path class="cls-56" d="M171,77c.56,1.51-.26,3.44,0,5,.32,1.18-.93,1.34-2,1,.88,1.27.42,1.76-1,1-1.39.72-2.86.72-4.3.08-.99,1.29-2.25,1.63-3.78,1.01.1-1.07-.54-1.77-1.91-2.09-.05,1.65-1.88.49-3-.32-2.82,1.82-4.92-1.9-1.98-3.68-.92-.16-.89-.5-.02-1-2.89-.95-2.02-3.57,1-3-.37-1.8,2.3-2.45,4-2,1.55-3.46,8.49-6.61,12-5,.84-.67,1.5-.28,1.93.73l-.93,8.27Z"/>
  <path class="cls-120" d="M181,52c-.27,1.95-.26,2.87,1.04,4,2.84.35,2.58,2.25.02,3,.11,1.9-.24,3.24-1.06,4,1.74.02,1.82.77,0,1.2-.29-.1-.67-.1-1-.12-1.18-.12-2.61-.65-2.83-1.82l-3.25.24c-1.42,1.1-2.06.94-1.92-.5-1.7,1.89-2.07,1.48-2-1-1.01-1.02-1.67-2.35-2-4-1.89.68-2.84-.62-1-2,.42-.42,1.08-.76,2-1,.33-2.92,8.73-6.04,11-4,2.65-.42,2.92.12,1,2Z"/>
  <path class="cls-241" d="M196,61c1.29-.73,1.75-.37,1,1,1.34-.62,1.89-.29,1.15,1,2.63.51,2.44,1.43-.15,2v1l-6,.12c-2.81.1-2.61-1.42,0-2.12-2.88-1.01-1.92-3.35,1-3,.18-1.61,1.99-.9,3,0Z"/>
  <path class="cls-98" d="M203,62c0,1.5.38,2.95,1.12,4.25-.23-.11-.6.07-.86.01-1.11-.24-2.89-.75-3.27.73-.35-.32-.68-.65-1-1l-1-1,.15-2c-.63-1.98,3.5-1.97,4.85-1Z"/>
  <path class="cls-369" d="M182.99,63.07c2.27-2.26,7.23-1.74,9.01.93v2.12c-2.52.05-5.34.12-7.86-.79l-3.14-1.13v-1.2c.42-2.64,1.32-2.49,1.99.07Z"/>
  <path class="cls-360" d="M172,67c.51-.34.84,0,1,1-1.48,2.87,0,6.46-2,9-1.43-3.87,1.78-7.47-1-9-.71-2.8.21-3.32,2-1Z"/>
  <path class="cls-196" d="M177.17,62.26c2.2,1.07.76,2.12-1.2.81-.6.09-1.96-.48-2.62.25-1.22,1.36.27,3.49-.35,4.68-.51-.1-.86-.51-1-1-2.99-.07-2.76-4.46,0-5,1.73-.14,3.45.11,5.17.26Z"/>
  <path class="cls-66" d="M199,72c.1,1.73-.08,3.5-1,5-1.73-.95-.87-3.34-1-5h2Z"/>
  <path class="cls-199" d="M180,64.08c-1.38.98-3.14.34-4.04-1.01.47-.07,1.63-.04,1.2-.81,1.26.11,2.68.31,2.83,1.82Z"/>
  <path class="cls-342" d="M171,82c.7.42,1.96,1.5,3,1v1h-4c-.75.59-1.04-.02-1-1,.18-.68,1.42-1.35,2-1Z"/>
  <path class="cls-324" d="M199,66c-.33-.03-.67,0-1,0v-1c.35.32.68.65,1,1Z"/>
  <path class="cls-233" d="M195,95c0-2.3-.98-5.33,1-7,0,2.34,1,5.39-1,7Z"/>
  <path class="cls-249" d="M195,95v3c-1.39-.66-2.93-1.18-3-3.02.87.81,2.09.76,3,.02Z"/>
  <path class="cls-344" d="M198,80c.38,1.2-.76,2.12-1,3-.28.87-.62.86-1,0,0-.71-.19-1.47.12-2.36.24-.71,1.09-.83,1.88-.64Z"/>
  <path class="cls-32" d="M196,88v-5h1c-.17,1.81.56,3.69-1,5Z"/>
  <path class="cls-7" d="M191,49l2,9c1.71,2.18,1.71,3.18,0,3-.26,1-1,1.9-1,3-3.04.19-6.07-.14-9.01-.93-1.44-.58-1.54-2.7-.93-4.07-.26-.84.05-2.09-.02-3-1.51-.63-1.5-2.53-1.04-4-.34-.56-.7-1.47-1-2-.91-3.21,4.72-4.93,6-2,.81-1.18,1.52-1.52,2.11-1,.29.9,1.95,2.8,2.89,2Z"/>
  <path class="cls-88" d="M202,61c-1.59.53-3.51.89-5,1-.16-.36-1-.49-1-1-.87-.28-.86-.62,0-1,1.99.19,4.74-.87,6,1Z"/>
  <path class="cls-299" d="M202,61c.33-.03.67,0,1,0v1c-1.7-.09-3.63-.38-4.85,1-.53.17-.97-.6-1.15-1,.95-1.73,3.34-.87,5-1Z"/>
  <path class="cls-25" d="M196,60v1h-3c.24-.92.2-2.11,0-3,.71,1.09,1.69,1.87,3,2Z"/>
  <path class="cls-346" d="M202,35v1c-.35,2.99-.69,5.99-1,9v1c-.33,0-.67.02-1,0-.11-4.06.61-8.26-1.19-12,.99.54,2.06.92,3.19,1Z"/>
  <path class="cls-22" d="M201,45v-7.05c-.01-1.05.19-2.03,1-1.95v7.05c.01,1.05-.19,2.03-1,1.95Z"/>
  <path class="cls-2" d="M213,30c-1.1,0-2.04.55-3,1-.04-1.35.63-2.66,2-3l1,2Z"/>
  <path class="cls-139" d="M213,54c-1.39-.75-3.34-1.22-5-1,.36-1.42,2.16-.98,3.49-1.08,1.17-.08,1.87.72,1.51,2.08Z"/>
  <path class="cls-388" d="M16.79,166.79c2.08-.08,3.95.53,3.35,2.77,2.89.09,2.48,2.38-.26,2.77,1.33,2.6-1.76,4.61-3.88,2.66.55,1.36-.78,2.02-4,2-.64.88-2.34.68-3.22,1l.04-1c-.79-1.14-1.06-2.2-.81-3.19,4.32-3.62,1.3-6.17,5-8.49.24-.15.72.1,1,0,1.34-.53,2.99-.29,2.79,1.48Z"/>
  <path class="cls-132" d="M8,173.81c1.21.59.85,2.07.81,3.19-1.17-1.19-2.65-2.25-2.81-4.01.68.1,1.39.52,2,.82Z"/>
  <path class="cls-74" d="M210,26c-.78.04-1.43-.7-2-1-.75-.21-1.09-.54-1-1-.63-.9-.69-1.99-1-3h1c.94,1.78,3.06,2.86,3,5Z"/>
  <path class="cls-362" d="M37,124c.68.09,1.32,1.01,2,1,1.67-.03,4.09.65,5-1h2c.07.6.15,1.21.19,1.81-.12,2.64-4.38,3.66-6.35,2.2h-11.45s-1.39-2.01-1.39-2.01c-1.38-1.86-.06-2.75,2-2,2.59.91,5.39.81,8,0Z"/>
  <path class="cls-361" d="M19,122c1.73-.12,3.49.1,5,1h5v1c-.88.43-1.57,1.13-2,2,1.14,1.59.6,2.18-1.08,1.17-1.07,3.45-7.92,1.24-6.92-2.17-1.94.26-2.94-.41-3-2,.77-.84,1.89-1.09,3-1Z"/>
  <path class="cls-125" d="M37,124c-1.93,1.62-6.19,1.8-8,0h8Z"/>
  <path class="cls-63" d="M64,112c.9,1.09,1.71,2.65,2.12,3.93,2.49,2.93-3.53,6.89-5.96,8.4.19,2.42-2.66,1.62-4.16.67-.84-2.11-.79-5.8,0-8,6.99-3.07,3.37-4.91,8-5Z"/>
  <path class="cls-129" d="M74.61,122.71c-1.46.89-3.33,1.32-5.61,1.29-1.75.78-3.81.88-6.18.28-1.15,1.02-2.42,1.78-2.67.05,1.48-5.66,4.15-4.53,5.96-8.4,2.8,2.32,6.66,3.57,8.5,6.78Z"/>
  <path class="cls-28" d="M83,118c.87.27.85.61,0,1-.28.87-.62.86-1,0-1.72-1-1.97-3.14-2-5l3-2c2.2,1.37,1.18,4.23,0,6Z"/>
  <path class="cls-67" d="M74.61,122.71c.46.08.92.29,1.39.29l1,1c.9.18.86.52,0,1-1.42,1.91-6.58,1.9-8,0-.87-.28-.86-.62,0-1,1.78-.65,3.49-1.66,5.61-1.29Z"/>
  <path class="cls-247" d="M84.07,120.71c6.93-.12-.51,6.76-3.07,1.29-.68-.29-.67-.62,0-1l1-2h1c1.85-.47,2.31.26,1.07,1.71Z"/>
  <path class="cls-75" d="M80,122c.62.9.11,1.28-1,1-.28.87-.62.86-1,0,.41-.89,1.01-1.72,2-2,.64.3.62.63,0,1Z"/>
  <path class="cls-259" d="M78,123c.78,1.19.29,1.67-1,1-.37-.3-.7-.63-1-1h2Z"/>
  <path class="cls-355" d="M81,122c-.28.87-.62.86-1,0v-1c.31-.09.68.06,1,0-.13.26,0,.7,0,1Z"/>
  <path class="cls-85" d="M98,93c1.64-.81,2.62.27,3,2,1.33-2.69,3.21-1.94,3.33,1.07,3.05.18,4.98,4.1,4.67,6.93,2.27.74-.35,2.33-2,3-.4,2.43-2.61,4.11-5,3-.93.76-1.93,1.09-3,1,1.04,2.91-1.58,3.66-3,1-3.05.18-7.68-4.99-7-8v-2c1.18-2.84,3.93-4.84,4-8,.97-.86,3.8-.74,5,0Z"/>
  <path class="cls-119" d="M85,100c-2.75,1.31-6.52.74-9-1v-1c2.91,1.17,6.21.51,9,2Z"/>
  <path class="cls-292" d="M95,92c.28-.87.62-.86,1,0h2c.87.28.86.62,0,1h-5c-.44-.19-.63-.75-1-1h3Z"/>
  <path class="cls-80" d="M96,111c2.86,2.68-2.98,5.95-5,3l-3,3.06c-.02,2.23-4.21,2.68-5,.94-1.77-1.46-.76-4.05,0-6,1.29-3.33,3.22-6.78,6-9,2.68,2.23,5.25,5,7,8Z"/>
  <path class="cls-192" d="M56,125c-.09.88-.43.88-.99.11v-8.11c.24,0,.74.11.99,0v8Z"/>
  <rect class="cls-206" x="95" y="77" width="1" height="15"/>
  <path class="cls-174" d="M60.19,127.91c3.86-1.18,4.67,5.45,1.81,7.09.38.42.05.75-1,1,2.33,2.86-3.46,6.01-6,4-.3,2.7-.86,2.41-2,0-1.94.6-2.62-.08-2-2-2.58-.33-5-7.1-2.21-8.29-1.98-1.98-1.24-3.21,2.21-3.71h1c3.11-.5,5.86-.42,8.26.25l-.07,1.66Z"/>
  <path class="cls-348" d="M60.16,124.33c.83-.18,1.87.3,2.67-.05.88.2.85.51,0,.9.51,2.34-.31,2.84-2.63,2.73-4.33-3.91-5.84.64-8.19-1.91.93-.51,1.96-.78,3.01-.89.33-.03.66-.1.99-.11,1.41-.05,2.79-.36,4.16-.67Z"/>
  <path class="cls-117" d="M51,126c-.77,1.23-2.06,2.2-2.21,3.71-2.49,2.98-6.01-1.92-2.6-3.9l4.81.19Z"/>
  <path class="cls-126" d="M185.18,32c0,.98.13,3.1.82,3.93.6,1.63.91,3.5,0,5.07.09.96-.56,2.65.87,3,1.05,1.36.81,3.24-.87,4-2.03.46-4.19.9-6,2-1.81,2.26-6.06-5.96-6.1-6.87-.03-.79.57-1.51,1.1-2.13-2.32-1.77-2.58-2.75-.78-2.95,2.99-2.2,6.6-4.03,8.78-7.05,1.96-2.18,2.83-1.93,2.18,1Z"/>
  <path class="cls-4" d="M185.18,32c-.53-.66-1.35-.97-2.18-1,.98-1.35,1.64-2.96,3-4,.25,1.76.06,3.51-.82,5Z"/>
  <path class="cls-315" d="M188.11,47c-.48.76-1.32.82-2.11,1,.78-1.19.96-2.61.87-4,.23-.64.14-1.46.83-2.06.84,2.06-.05,3.63.4,5.06Z"/>
  <path class="cls-81" d="M186,41c-.17-1.68.04-3.39,0-5.07,1.16,1.41,1.95,4,0,5.07Z"/>
  <path class="cls-232" d="M171,39c1.45-.74,2.78-.07,4,2l5,9c-.83.5-8.87,4-11,4-1.64.72-4.35.91-6,0-1.46-.97-.28-3.94,1-5,.06-1.72.92-3.58,2-5,.57-.36.57-1.63,1-2,.95-.83,1.44-1.9,2-3h2Z"/>
  <path class="cls-363" d="M174.22,38.05c-.2,1.07.34,2.17.78,2.95-1.5-.33-2.47-2-4-2,.2-1.65,2.47-.4,3.22-.95Z"/>
  <path class="cls-333" d="M207,24c.49.14.9.48,1,1-2.35-.31-5.3.97-7-1h6Z"/>
  <path class="cls-5" d="M162,57c.37,2.96-13.89,2.38-14.58,2-.76-.42-1.16-1.2-1.42-2-.75,2.64-1.12,2.57-2,0-.87-.28-.86-.62,0-1,1.32-.11,2.67,0,4,0l10.06.04c1.62,0,2.61-.95,2.94-2.04.29-.73.62-.71,1,0,2.44,1.43,2.96,1.93,0,3Z"/>
  <path class="cls-11" d="M163,54c-.28.87-.62.86-1,0h-1l2-5c.29-.73.62-.71,1,0-.75,1.27-1.01,3.57-1,5Z"/>
  <path class="cls-142" d="M164,49h-1l2-5h1c-.11,1.84-1.11,3.48-2,5Z"/>
  <path class="cls-175" d="M144,56v1c0,2.93-3.34,2.8-4,0-.28.87-.62.86-1,0h-1c1.27-1.85,4.01-.83,6-1Z"/>
  <path class="cls-390" d="M112,84c1.71.83,2.57,1.53,1,3,1.19,3.89-4.78,9.81-8.67,9.07-1.03-.6-2.2-.76-3.33-1.07-1.49-1.24-2.25-2.59,0-3,0-1.88,6.85-10.43,8.23-11.16,2.73-2.67,4.99.89,2.77,3.16Z"/>
  <path class="cls-80" d="M113,73c.1,1.34.98,2.66,1,4,.49,2.25,1.17,4.59,2.03,7,.87.19.84.53,0,1-1.24,1.08-3.5.9-4.03-1-.39-1.5-1.11-2.75-2.77-3.16-.21-2.08-1.09-4.08-2.23-5.84-.02-.81-.16-1.63.13-2.9,2.29-.39,4.24-.12,5.87.9Z"/>
  <path class="cls-343" d="M101,92v3c-1.17-.32-2.2-1.11-3-2v-1h3Z"/>
  <path class="cls-330" d="M42,151c1.71.2,1.74,3.64,1,5,.64,3.36-7,11.45-10.21,8.91-.92.63-1.51.41-1.79-.67-2.8-.43-6.45-5.89-4.19-8.43.74-1.48.68-3.81,2.19-4.81.76-2.43,2.09-4.09,4-5,1.45-1.01,3.23-.54,5.34,1.41,2.68.14,5.14.55,3.66,3.59Z"/>
  <path class="cls-350" d="M33,135c1.12.87,1.82,2.62,2.11,5.23,1.92,2.53.44,7.03-3.11,5.77-.47,1.84-2.19,3.21-3,1-4.68-1.13-4.62-4.38-9-4-.77-1.66-1.29-3.87,1.03-3.97-1.52-2.86,5.28-6.37,7.97-6.03,1.43-2.56,5.47-.94,4,2Z"/>
  <path class="cls-95" d="M25,156c.6,0,1.2-.29,1.81-.19.95,3.1,3.86,5.19,4.19,8.43,1.14,1.13.97,4.9-.96,4.82-.31,2.61-1.19,2.38-2.04-.06-.93-.44-1.93-.77-3-1-1.83,2-2.93,1.81-3.31-1-1.15,1.59-3.12.58-3.69-1l-.45-.86c-1.79.49-1.96.4-.7-1,1.64-2.43,3.19-5.15,3.04-8.09.9-.87,3.64-.79,5.11-.05Z"/>
  <path class="cls-68" d="M33,146c-1.16,1.88-2.16,3.78-4,5,.42-1.32.95-2.81,0-4,.98.24,2.14-.71,3-1h1Z"/>
  <path class="cls-380" d="M21.03,139.03c-1.07.7-.74,2.99-1.03,3.97-.24.41-.7.65-1,1,.1-1.72-.04-3.52-1-5,.09-2.86,2.37-2.71,3.03.03Z"/>
  <path class="cls-295" d="M25,156l-5.11.05-.04-.88c1.7.09,4.23-1.05,5.15.83Z"/>
  <path class="cls-231" d="M19,125c2.09,1.3,4.46,2.15,6.92,2.17,2.89-.91,4.33,3.5,3.08,5.83-.41,1.72-2.1,2.22-3.72,3.27l-4.25,2.76-3.03-.03c-.24-.37-.6-.8-1-1-.99-.91-.76-13.56-.16-13.96l2.16.96Z"/>
  <path class="cls-35" d="M19,125c-.42-.01-1.09-.18-1.45.04-.47.3-.61,1.02-.6,1.88l.06,11.08-2-1c2.09-4.28.53-9.31,1-14,1.26.15,2,1.38,3,2Z"/>
  <path class="cls-49" d="M16.85,164.14c.2.33.37.78.7,1l-.74.77c.43.33.43.63-.02.88-.78-.57-2.5-.08-2.79-1.48l-.18-1.29c1.01-.08,2.03-.06,3.03.12Z"/>
  <path class="cls-314" d="M117,75c2.05.4,3.05,1.4,3,3l3.01.75c1.89,1.95,8.32,11,8.83,13.16.25,1.04-.25,2.11-.75,3.05-3.2,2.35-12.36-1.82-12.07-5.95-1.92.32-3.12.1-2.77-2.02-.9-.21-.91-.54-.09-1-.91-.21-.96-.54-.14-1,0-.33-.03-.67,0-1-1.04-2.12-1.95-4.83-1.03-7-.01-.96.47-1.94,1.12-2.62.28.22.59.42.88.62Z"/>
  <path class="cls-384" d="M116.03,84c-2.42-1.43-1.99-4.5-2.03-7h1c.03,2.39,1.26,4.59,1.03,7Z"/>
  <path class="cls-317" d="M122,76c.65-.11,1.37.19,2,0,3.19.28,6.19.94,9,2,1.79-.16,3.22-.63,4.3-1.41l.7,1.41c2.5-.08,3.08,1.98,2,4,2.47,1.33,1.74,2.81-1,3,1.06,3.3-3.92,13.36-7.9,9.97-2.72-6.13-7.19-11.49-11.1-16.97-2.28-2.48-.69-3.01,2-2Z"/>
  <path class="cls-99" d="M138,78c-1.6-.3-3.43.41-5,0-.87-.28-.86-.62,0-1,1.01.09,3.75.45,3.89-.72.3-2.53-.31-4.05,1.11-5.28,3.03.35,2.89,6.4,0,7Z"/>
  <path class="cls-327" d="M133,77v1c-2.96-.78-6.43-.27-9-2,2.59-.77,6.75.79,9,1Z"/>
  <path class="cls-257" d="M122,76c-.42-.02-.96-.08-1.41.15-.63.32-.68,1.2-.59,1.85-.74-1.04-2.82-1.36-3-3,1.74-.13,3.68-.32,5,1Z"/>
  <path class="cls-127" d="M138,71c0-2.35-.84-5.26,1-7,3.6.84,3.02,8.29-1,7Z"/>
  <path class="cls-77" d="M139,64v-7h1c3.35,1,3.03,8.08-1,7Z"/>
  <path class="cls-106" d="M176,108c-2.08-1.03-.08-3.73-1-5,.23,1.63,1.79,2.96,1,5Z"/>
  <path class="cls-167" d="M175,103c-1.23-1.7-.75-3.02-1-5,1.08,1.77.72,3.01,1,5Z"/>
  <path class="cls-16" d="M174,98c-.18-1.48-2.01-3.13-1-5,1.02.84.23,3.73,1,5Z"/>
  <path class="cls-374" d="M173,93c-1.33-1.34-1-3.25-1-5,2.38.32-.01,4.17,1,5Z"/>
  <path class="cls-1" d="M109,117c-1.42,4.07-3.13,8.11-5,12,.58,2.27-.75,3.27-4,3-.69.33-1.52.62-2.17.26-.51-.29-5.47-8.94-5.86-10.07l1.03-2.21c.73-2.77,7.45-6.69,10-4.98,1.99.84,3.99,1.51,6,2Z"/>
  <path class="cls-365" d="M119,102c1.41,2.3,1.68,3.96.8,5,1.14,1.23,2.38,3.99.35,5.01-.16,1.47-.51,2.82-1.07,4.07-.26.98-1.09,1.97-1.07,3.07-2.39.13-4.69-.59-7-1.14-1.1-.89-1.49-1.66,0-2,.37-3.98.7-7.98,1-12-.87-.28-.86-.62,0-1-.72-2.77,1.6-3.94,3.87-2.11,1.41-2.58,3.09-1.56,3.13,1.11Z"/>
  <path class="cls-207" d="M106,134c.42.54.71,1.38,1,2,.26.57-.17,1.4.01,2-1.17,2.97-3.21,1.84-5.01,0-2.48,2.07-4.11,1.17-4-2-2.29-2.4-1.33-4.32,2-4,2.34-1.35,3.68-1.25,4.02.3l1.98,1.7Z"/>
  <path class="cls-145" d="M111,116v2c-.71-.17-1.3-.79-2-1-.82-.33-.82-.66,0-1,.38-3.61.71-7.28,1-11,.28-.87.62-.86,1,0,.88,3.07.81,7.65,0,11Z"/>
  <path class="cls-86" d="M106,134c-2.15-.32-3.68-2.32-6-2,.96-1.25,3.29-1.52,4-3-.28,1.95.86,3.52,2,5Z"/>
  <path class="cls-366" d="M141,115v3c-1.25-.93-2.64-2.43-4-1-.23-.94.18-2.05,0-3,1.58-2.19,3.08-1.42,4,1Z"/>
  <path class="cls-319" d="M135,126c.04-1.64-.6-3.92,1-5,.12,1.81.04,3.45-1,5Z"/>
  <path class="cls-268" d="M118,145c-2.99,1.68-8.04,1.79-11,0h11Z"/>
  <path class="cls-293" d="M107.01,138c-.92,1.5-1.13,3.27-1.01,5-1.06-1.2-1.7-2.89-3.39-3.3-2.02.56-2.29-.35-.61-1.7,1.54.47,3.44-.35,5.01,0Z"/>
  <path class="cls-328" d="M152.86,94.86c.59-.21,1.1-.33,1.34-.13,2.3,1.92,9.47,8.36,10.94,10.27.37.47,1.14,4.07-.14,4.01.63,2.6-.37,3.21-3,1.83-3.07.83-6.21.63-9,2.17-2.31.78-4.64,1.11-7,1-1.49.95-3.28,1.01-5,1-1.4-.01-2.79-.26-4-1h-1c-.78.04-1.03-.63-.74-2-2.92-.86-3.39-3.2-1.08-5.17-.27-.39-.5-.78-.58-1.21-.17-.91,12.77-10.56,14.28-11.5l2.13-.13c1.61-2.12,2.38-1.83,2.86.86Z"/>
  <path class="cls-115" d="M127.87,104.89c1.31.54,2.68.91,4.13,1.11,1.03-1.91,2.05-1.39,2.17.83.51,1.69.82,3.42,1.08,5.17.33,1.35.22,2.6-1.26,3-2.08,1.61-3.55,3.96-6,5-1.69-1.5-2.22-3.89-3-6-1.31-.78-1.92-2.49-1.95-4.05-2.45.66-3.17-1.88-1.03-2.95-1.32-.27-2.02-.86-1.02-2,1.24-.65,2.91-.98,5-1,1.4-1.62,2.26-1.22,1.87.89Z"/>
  <path class="cls-190" d="M136,114c-.18.41-.56,1.05-.95,1.38-.27.22-.73,0-1.05-.38.5-.96.91-1.97,1.26-3,.1.64.9,1.24.74,2Z"/>
  <path class="cls-273" d="M122.02,107c.4.78.21,2.39,1.03,2.95.56,1.42.54,2.54-.05,3.36-.67-.23-1.7-.04-2,.69-1.67.6-1.81-.74-.85-1.99-.34-1.71-1.76-3.54-.35-5.01.15-2.08,1-1.42,2.22,0Z"/>
  <path class="cls-256" d="M125,114l-2-.69c-.03-1.09-1.56-2.97.05-3.36,1.48,1.01,1.4,2.55,1.95,4.05Z"/>
  <path class="cls-65" d="M121,114c-.37.9-.96,1.76-1.93,2.07.21-1.36-.83-3.74,1.07-4.07.14.71-.14,1.77.85,1.99Z"/>
  <path class="cls-334" d="M163.7,84.08c.41.19.17.5-.7.92,1.58.92,3.39.74,5,0,.3-.59.63-.58,1,0,.73.42.73,1.42,0,3l.07,4c-1.07,2.15-1.66,4.55-1.77,7.19l-1.3.81c1.47.29,1.08,3.11,0,4-.16.81-.3,1.43-.37,1.41-1.29-.35-12.02-10.6-12.02-11.43,0-.33.17-.65.39-.98-2.12-2.19-.97-8.05,2-9,.43-.85,2.59.12,3.22.7.1.09-2.39-.57-1.22-1.7,1.95,0,3.94.19,5.7,1.08Z"/>
  <path class="cls-242" d="M166,104c.32,1.08.66,2.42,1,4,.15,1.09-.2,2.24-1,3-1.6.02-2.42-.89-1-2-.31-.75.31-2.35-.7-3.26-4.09-3.7-7.29-7.87-11.45-10.89-2.09-1.98-1.53-2.81,1.14-1.86.48,1.04,11.04,12.51,12,11Z"/>
  <path class="cls-19" d="M168,100c-.58,2.61-1.16,2.58-2,0,1.97-2.77-.34-7.37,3.07-8,.05,2.73-.86,5.29-1.07,8Z"/>
  <path class="cls-153" d="M166,111c.1,2.05.15,4.23-1,6h-1c.28-1.18.78-2.35.96-3.58.19-1.33-1.49-2.99-2.96-2.59,1-.61,2.11-1.05,3-1.83.27.65,1.03,1.19,1,2Z"/>
  <path class="cls-383" d="M168,100c-.21,2.71-1.37,5.28-1,8-1.41-.64-1.15-2.67-1-4,.14-1.23-.39-2.85,0-4h2Z"/>
  <path class="cls-143" d="M170,84c.22,1.42.04,2.95-1,4v-3c-.84-.23-1.18-.57-1-1l1-1c.49.1.92.49,1,1Z"/>
  <path class="cls-291" d="M153,113c-2,1.1-5.29,3.04-7,1,2.08-1.32,4.62-1.05,7-1Z"/>
  <path class="cls-197" d="M75.27,135c2.99-.58,4.06,2.74,2.73,5,1.49.2,1.46.82,0,1-1.42,1.79-1.62,3.89-1.96,6-.4,1.58-1.03,2.27-1.86,2.08-1.13,1.75-2.18,1.73-3.18-.08-1.84,1.35-4.11,1.31-5-1-.74-.42-2.49-.15-3-1-3.32.37-10.21-3.38-8-7,1.87-1.47,4.74-1.98,6-4,1.96-.29,3.96-.62,6-1,.66-2.74,2.09-2.47,3,.12,3.38-2.41,5.14-2.45,5.27-.12Z"/>
  <path class="cls-90" d="M93,139c.87.28.86.62,0,1-.96,2.47-13.48-.46-13,2l-2-1c-.47-.29-.49-.73,0-1l.88-2.09c4.3-.21,8.34.15,12.12,1.09.4-2.75,1.13-2.58,2,0Z"/>
  <path class="cls-102" d="M75.79,154.83c-1.19.42-1.92-.17-2.79-.73-1.97-2.01-1.38-3.88,1.18-5.02.55-.76,1.16-1.46,1.86-2.08-.41,2.6-.64,5.17-.25,7.83Z"/>
  <path class="cls-89" d="M99,142c-.79.89-.79,2.11,0,3-1.51-.26-2.8-1.08-4-2,.16-.23-.09-.72,0-1,0-2.93,3.34-2.8,4,0Z"/>
  <path class="cls-279" d="M98,136c1.25.67,2.64,1.58,4,2,.08.6.29,1.18.61,1.7-1.52.09-2.46,1.42-3.61,2.3h-4c-.41-.89-1.03-1.73-2-2v-1c-1.31-2.9,2.83-5.53,5-3Z"/>
  <path class="cls-123" d="M53,140c.64.14,1.35-.09,2,0,1.61,3.52,6.06,3.78,8,7l-1,3c-.28.87-.62.86-1,0-2.13,4.91-7.54,10.12-13,9-1.94.5-2.54-.77-1-2-.76-1.55.23-3.53,1-5-2.66-.32-2.54-1.24,0-2-1.99-1.98-.49-5.4,2.2-6-.41-2.22.47-6.64,2.8-4Z"/>
  <path class="cls-265" d="M57,167c1.73.93,2.77,2.1,4,4,.78.13.84,1.35,1.3,1.7-.56,1.01-1.66,1.66-3.26,1.53-8.57-.69-14.72,1.44-14.86-3.23-1.63-.85-1.28-1.78.6-2,.34-2.9,1.41-4.9,3.22-6,1.8-3.27,7.74,1.38,9,4Z"/>
  <path class="cls-15" d="M74.18,149.08c-.01,1.74-.26,3.52-1.18,5.02-1.41-.92-2.49-2.31-3.99-3.1-1.64-.81-.97-1.48,2-2,1.07-.12,2.67-1.48,3.18.08Z"/>
  <path class="cls-148" d="M61,158c-1.56.98-1.58-.46-1-2-2.36-.88-2.03-2.88,1-6h1c-.8,2.4-.74,5.29-1,8Z"/>
  <path class="cls-270" d="M61,171c-2.21-.36-3.66-2.15-4-4l2-1c.28-.87.62-.86,1,0,.02,1.72.57,3.35,1,5Z"/>
  <path class="cls-184" d="M71,149l-2,2c-.76-.4-2.03.03-2.54-.97-.32-.64-.52-1.32-.46-2.03,1.5.86,3.27,1.19,5,1Z"/>
  <path class="cls-382" d="M61,158v2c-.12.7-.45,1.03-1,1-4.12,2.39-4.46-6.31,0-5,.16.74.47,1.45,1,2Z"/>
  <path class="cls-70" d="M60,166h-1c-2.99-.85-2.01-5.27,1-5,.12-.45.68-.73,1-1,0,2.06-.48,4.03-1,6Z"/>
  <path class="cls-141" d="M45,160c1.64,1.17.28,2.28-1.09,3,.24.31.43.61.39.89-.24,2.04-.84,6.39-2.3,7.11v1c-.85.33-2.23-.47-3,0-1.79-1.06-3.72-1.72-5.78-1.96l-.22-1.04c-2.56.32-2.17-3.31-.21-4.09,3.94-2.01,6.14-5.57,10.21-8.91.28-.87.62-.86,1,0,2.07.51,3.24,2.9,1,4Z"/>
  <path class="cls-201" d="M44.78,169c-.07.7-.29,1.37-.6,2h-2.18c0-2.75.87-5.45,1.91-8,.31-.87.68-.86,1.09,0,1.46.93,1.38,2.93-.22,6Z"/>
  <path class="cls-111" d="M39,172c-1.77,1.08-3.01-1.75-5-1-.26.91-.6.9-1,0-1.37,1.04-1.91.48-1-1-1.35-1.78-.81-2.31,1-1,2.04,1.23,5.27.48,6,3Z"/>
  <path class="cls-341" d="M34,176c-.28-.13-.69,0-1,0-2.99-.07-2.76-4.46,0-5,.32-.06.7.11,1,0v5Z"/>
  <path class="cls-72" d="M30.04,169.06c1.28-1.41,1.98-.91,1.96.94.37.06,1,.6,1,1v5h-4c-1.67,1.6-4.01,1.66-4-1-.28.87-.62.86-1,0-2.57-1.45-.76-4.65,2-4,.11-2.5.78-3.16,2-2,.62.17,1.45-.19,2.04.06Z"/>
  <path class="cls-276" d="M29,176v1l-4.14,2c-2.32-1.49-2.2-2.61.14-4,1.2.75,2.6,1,4,1Z"/>
  <path class="cls-244" d="M16,175c2.48-.44,2.51.07,1,2,.08.29-.15.75,0,1-1.54-1.01-3.62.14-5-1,1.03-1.42,2.74-1.13,4-2Z"/>
  <path class="cls-3" d="M29.01,186.12l-9.01-.12v-1c-.92-2.29.69-3.53,3-3,.28-.87.62-.86,1,0,1.92,1.03,3.37,2.72,5.01,4.12Z"/>
  <path class="cls-169" d="M25,175c.02,1.33-.02,2.67-.14,4-.52.92-.79,1.95-.86,3h-1c-2.65.14-2.79-.2-.85-2-.66-.88-1.05-1.91-1.15-3-1.23-2.33-.29-2.61,2-2,.28-.87.62-.86,1,0h1Z"/>
  <path class="cls-354" d="M23,175c-.21,1.11-1.2,1.46-2,2-1.27.87-2.76,1.08-4,0-.54-.54-.87-1.25-1-2l3.88-2.66c2.3-.93,4.12.01,3.12,2.66Z"/>
  <path class="cls-307" d="M22.15,180c.34.64.63,1.31.85,2-.58,1.35-1.66,2.4-3,3-1.43-1.43-1.26-3.53-.77-6.03,1.05.78,1.92.97,2.92,1.03Z"/>
  <path class="cls-352" d="M162,57c.18-.91.52-.88,1,0,2.03.95,3.7,1.95,5,3,.55-.98,1.22-.65,2,1,.74.16,1.44.48,2,1v5c-.89-.18-1.36.7-2,1-3.93,1.85-7.81,3.81-12,5-1.42-.3-2.83.03-4.23.99l-.77-.99-2.29-.71c-.93-1.15-7.66-13.64-7.19-14.29.53-.75,1.55-.94,2.48-.99h16Z"/>
  <path class="cls-332" d="M144,57h2c-2.61,2.51,4.45,6.42,7,16,2.48-.31,2.44.18,1,2-.69.78-.75,2.05-1,3-1.85,1.7-5.37,1.98-8,2-.29,2.54-2.98,3.25-5,2-1.24-.89-2-2.45-2-4v-7c1.91-1.66,1-4.71,1-7,1.89-1.79.77-4.61,1-7h4Z"/>
  <path class="cls-240" d="M155,82.68c1.03.23,1.36.67,1,1.32-.39,3.04-.86,6.14-2,9-.24.6-1.27,1.01-1.14,1.86-.65-.47-2.31-.05-2.86-.86-1.82.43-3.54-.4-5.17-2.48-3.85-1.81-5.8-3.98-5.83-6.52.39-.78.44-2.18,1-3,.81-1.18,3.56-2.21,5-2,2.73-.24,5.4-.57,8.02-1,.02,1.5.98,2.65,1.98,3.68Z"/>
  <path class="cls-325" d="M153,78c-.08.31.02.68.02,1-2.65,1-5.71,2.5-8.02,1,2.49-1.28,5.39-1.09,8-2Z"/>
  <path class="cls-257" d="M158,73c-1.38.39-3.04.92-4,2-.95-.28-.8-1.26-1-2,1.69.3,4.01-1.88,5,0Z"/>
  <path class="cls-42" d="M168,84c.6.01,1,.38,1,1h-1c-1.53.77-3.49.96-5,0-.18-.51-.05-1.26.7-.92,1.43-.08,2.87-.1,4.3-.08Z"/>
  <path class="cls-185" d="M158,83c.01.7,1.23.81,1.94,1.48-.98,1.23-2.82.28-3.94-.48-.46-.33-.63-.94-1-1.32l3,.32Z"/>
  <path class="cls-223" d="M167,55l1,2v1c-.98,1.78-3.62.16-5-1-.3-.08-.68,0-1,0v-3h1c1.34.41,2.68.74,4,1Z"/>
  <path class="cls-237" d="M182.04,56c-1.28.27-2.3-.06-2.1-1.5.12-.92-.3-2.49,1.07-2.5.77,1.25.93,2.57,1.04,4Z"/>
  <path class="cls-381" d="M182.99,63.07l-1.99-.07c0-1.36-.55-3.44,1.06-4,.45,1.33,1.1,2.6.93,4.07Z"/>
  <path class="cls-33" d="M170,61c-.74-.16-1.44-.48-2-1-1.92-.63-2.05-1.55,0-2v-1c1.3.93,1.91,2.44,2,4Z"/>
  <path class="cls-87" d="M169,54c-.17.87-1.28,1.09-2,1-1.08-.13-3.99.76-4-1h6Z"/>
  <path class="cls-103" d="M25,168c2.33-.98,2.27,1.19,1,3l-2,4h-1c-1.06-.9-2.68-1.24-3.12-2.66l.26-2.77c-.92-2.2-.82-2.35,1.55-2.56.98.51,2.43.15,3.31,1Z"/>
  <path class="cls-377" d="M21.69,167c.1,1.12-.5,2.13-1.55,2.56-1.32-.63-2.21-1.94-3.35-2.77l1.21-.79c1.39-.18,2.52.4,3.69,1Z"/>
  <path class="cls-40" d="M46.19,125.81c.11,1.69.92,3.36,2.6,3.9.65,2.81,2.2,5.39,2.21,8.29-.28.87-.62.86-1,0-2.59,1.07-5.86,1.2-9.81.36-2.83.84-4.56.72-5.19-.36-1.02-.27-1.14-2.71.19-2.93-1.28-2.76,1.55-7.34,4.65-7.06,1.47-1.31,4.5-2.27,6.35-2.2Z"/>
  <path class="cls-41" d="M39.84,128.01c-1.35,2.42-2.75,4.93-4.65,7.06-.44,2.48-1.17,2.45-2.19-.07-.92-1.27-2.9-1.1-4-2-1.7-1.4-2.04-3.98-3.08-5.83l1.08-1.17,13.99.04c-.16,1.06-.98,1.34-1.15,1.97Z"/>
  <path class="cls-157" d="M69,124v1c-.43,2.96-5.37,2.86-6.18.18v-.9c1.87-.82,4.37.38,6.18-.28Z"/>
  <path class="cls-302" d="M102,111c3.26-.64,3.68,2.61,1,4-3.17,1.98-6.29,4.26-10,4.98-.24.91-.58.89-1,0-1.51.88-3.47.86-5,.02-.01.81-.99,1.05-2.93.71-.42-.52-.83-1.08-1.07-1.71-.11-.29.07-.69,0-1,1.69-.1,3.38-.43,5-.94l3-3.06c1.83-.8,4.14-1.03,5-3,.96-.29,2.18-.35,3-1,1.03-.91,3.05-.65,3,1Z"/>
  <path class="cls-104" d="M77,125c2.51,1.88,2.78,4.85-.86,4.98-1.53,3.05-2.91,4.08-6.14,5.14-1,.15-2.01-.12-3-.12-1.5.69-3.72.95-5,0-.83-2.43.19-5.29-1.81-7.09.03-1.23,1.36-2.5,2.63-2.73,2.02-.37,4.15-.03,6.18-.18,2.61-1.11,5.39-1.11,8,0Z"/>
  <path class="cls-113" d="M79,124c.42.31.41.64,0,1h-1c-.27.91-.61.9-1,0-.07-.32.04-.67,0-1,.27-.35.81-.59,1-1h1c.87.28.86.62,0,1Z"/>
  <path class="cls-267" d="M87,120c1.63.81,3.39.81,5-.02.32,0,.68.06,1,0l7,12.02c-.91,1.19-1.76,2.53-2,4-1.98.4-3.33,2.01-5,3-.56.2-1.5-.29-2,0-2.3,1.58-10.49-7.93-10.56-8.64-.08-.86.05-1.64.56-2.36l-1-1-1-1v-1l1-1c-.51-.83.23-1.59,1-2,1.53,0,2.92.27,5.07-.22-.57-.83-1.39-.75-2-1.07.43-1.22,2.02-.71,2.93-.71Z"/>
  <path class="cls-23" d="M80,124h-1v-1l1-1h1c0,.85-.3,1.55-1,2Z"/>
  <path class="cls-288" d="M116.17,86l.09,1c.6,1.2.85,2.53.74,4,2.89.75,2.89,2.56-.06,3.13,1.47,4.38,1.11,6.63-1.08,6.76-1.35.55-2.46,1.67-3.87,2.11-.86,1.27-2.58,1.7-3,0-2.49-1.44-3.48-4.4-4.67-6.93,3.05-2.84,6.23-5.7,8.67-9.07-.76-2.27,1.52-2,3.17-1Z"/>
  <path class="cls-312" d="M107,106c1.37-1.39,2.04-1.39,2,0,.86,2.74.82,7.03,0,10-1.47.93-4.37.07-6-1-.54-1.14.09-2.97-1-4-1.92-.87-2.07-1.46,0-2,1.32-1.48,2.98-3,5-3Z"/>
  <path class="cls-272" d="M112,103v1c-.18.8-.51,1.13-1,1h-1c-.13.65-.24,1.08-1,1h-2l2-3c.93-.21,2.09.29,3,0Z"/>
  <path class="cls-24" d="M102,109v2c-.88-.74-2.43.17-3-1,.51-.41.49-1.67,1.45-1.6.54.04,1.07.29,1.55.6Z"/>
  <path class="cls-149" d="M91,114c.14,1.7-1.53,2.61-3,3.06-.06-.96.17-1.93.96-2.58.58-.48,1.42-.21,2.04-.48Z"/>
  <path class="cls-198" d="M53,140c-1.95-.42-2.38,2.3-2.8,4-3.14,3.63-3.88-3.8-.2-5-.87-.28-.86-.62,0-1h1c.97.3,1.67,1.05,2,2Z"/>
  <path class="cls-172" d="M67,135c-1.27,1.9-4.02.76-6,1,.19-.31.57-1,1-1h5Z"/>
  <path class="cls-159" d="M116.03,85c0,.34.11.67.14,1-.86.31-2.55.14-3.17,1-.87-.64-.74-2-1-3l4.03,1Z"/>
  <path class="cls-189" d="M41,142c1.82.22,2.82,1.56,3,4,3.69-.89,3.8,3.81,0,4,.87.28.86.62,0,1-.41,2.74-.95,2.44-2,0-3.77-3.79-1.47,1.53-9-5h-1c2.08-1.27,1.48-4.08,3.11-5.77.33-.47.64-.48.93,0,3.7-.89,5.35-.3,4.96,1.78Z"/>
  <path class="cls-116" d="M32.79,164.91c-.8,1.3-.71,2.88.21,4.09-.54.11-1.16.32-1,1-.74-.13-1.3-.66-1.96-.94.16-1.58,1.12-3.21.96-4.82.59.25,1.17.51,1.79.67Z"/>
  <path class="cls-151" d="M44,151c2.94-.25,1.51,3.85,0,5h-1c-.05-1.71-.56-3.36-1-5h2Z"/>
  <path class="cls-338" d="M35.19,135.07l-.19,2.93c2.84.01,2.35,1.05.11,2.23-1.84-1.17-.91-3.66-2.11-5.23l2.19.07Z"/>
  <path class="cls-194" d="M28,169c-.7.63-1.37,1.3-2,2,.05-1.09.22-2.54-1-3,.51-.69,1.48-1.33,2.22-.86.63.4.69,1.23.78,1.86Z"/>
  <path class="cls-226" d="M18,166c-.44.62-.84.59-1.19-.09.25-.33.06-1.14.74-.77.38.26.41.42.45.86Z"/>
  <path class="cls-107" d="M16.79,166.79c-.46-.3-.41-.6.02-.88.39-.03.8.14,1.19.09.07.79-.47,1.27-1.21.79Z"/>
  <path class="cls-166" d="M119.03,89.02c3.6,2.75,7.87,4.34,12.07,5.95.96.16,1,.53.17,1.1.53,3.1.44,6.08-.27,8.94-.38.89-2.44.86-3.13-.11-.46-.36-1.27-.79-1.87-.89-1.87.69-4.65.62-6-1-.48.37-.81.04-1-1-1.29-2.13-1.98-4.75-2.06-7.87.45-.69-.09-2.33.06-3.13-1.57-2.58-.45-3.5,2.03-1.98Z"/>
  <path class="cls-210" d="M119.03,89.02c-.42,0-.9.06-1.41.31s-.72,1.01-.62,1.68c-.38-.59-1.4-1.14-1.68-2.03-.25-.79.09-1.53.94-1.97,1.19.29,1.87,1.33,2.77,2.02Z"/>
  <path class="cls-44" d="M150,94c.73,2.06-13.79,11.61-15.83,12.83-.67-.4-1.41-.67-2.17-.83-.91-.1-.86-.45,0-1-.45-2.76-.69-5.74-.73-8.94.06-.36-.11-.75-.17-1.1,4.62-1.15,4.42-7.17,7.9-9.97,3.76,2.87,8.34,5.03,11,9Z"/>
  <path class="cls-211" d="M109,116c0,.31.1.71,0,1-2.02-.03-4.99.13-6-2l6,1Z"/>
  <path class="cls-200" d="M119,102l-3.13-1.11c1.54-2.11-.28-4.67,1.08-6.76,1.36,2.42,3.22,5.21,2.06,7.87Z"/>
  <path class="cls-133" d="M111,116v-11c.14-.49.49-.9,1-1v10.06c.01,1.04-.21,2.02-1,1.94Z"/>
  <path class="cls-303" d="M120,103c1.94.72,2.27,1.39,1,2l1.02,2h-2.22c.11-1.56-1.2-3.47-.8-5,.39.14.82.64,1,1Z"/>
  <path class="cls-93" d="M109,116v-10l1-1,.02,10.06c0,.82-.57,1.02-1.02.94Z"/>
  <path class="cls-13" d="M126,104c-.95,1.73-3.34.87-5,1l-1-2,6,1Z"/>
  <path class="cls-326" d="M131,105c.28-.87.62-.86,1,0,.04.33-.02.67,0,1-1.01-.4-4.72,1.24-4.13-1.11l3.13.11Z"/>
  <path class="cls-83" d="M168,85c-.86,1.51-4.36,1.83-5,0h5Z"/>
  <path class="cls-235" d="M79,126l1,1,1,1,10,11c-3.94,2.31-8.67.4-13,1-1.69-1.27-1.6-3.34-2.73-5-2.43-.32-2.13-1.99.87-5.02.65-1.46,1.23-3.25.86-4.98.27.12.7-.02,1,0l1,1Z"/>
  <path class="cls-109" d="M75.27,135c-1.63-1.05-3.49-.15-5.27.12l6.14-5.14c-.52,1.18-1.64,3.89-.87,5.02Z"/>
  <path class="cls-36" d="M60,156c-1.67,1-1.19,5.69,0,5-.44,1.65-.94,3.29-1,5-.06.36.04,1.59-.49,1.82-.38.16-1.14-.82-1.51-.82-3.58.12-5.61-3.42-9-4-.85.18-1.18-.15-1-1-2.18.27-1.38-1.84,0-3,.33-.71.66-.71,1,0,4.51-2.67,9.08-5.53,13-9-.63,1.91-.99,4.03-1,6Z"/>
  <path class="cls-59" d="M50.2,144c-.52,2.09-.87,4.16-2.2,6-.59,2.45-3.35,2.94-4,0,.96-1.2.95-2.8,0-4-1.27-2.37-1.27-3.71,0-4-1.27-2.11.8-2.29,2.55-1.85-.43-1.67,2.07-1.58,3.45-1.15,0,4.46-1.83,5.13.2,5Z"/>
  <path class="cls-205" d="M48,150v2c-.5,1.59-1.17,2.93-2,4-.22,2.55-.89,2.55-2,0v-6h4Z"/>
  <path class="cls-258" d="M46,156c.79-.96,1.13-.63,1,1,.44.59.6,1.38,1,2-.3.07-.73-.14-1,0-.42,1.71-.76,2.65-2,1,.01-1.4-.27-2.79-1-4,.63,0,1.4-.09,2,0Z"/>
  <path class="cls-26" d="M47,157c-.24-.32-.79-.66-1-1,.15-1.54.6-3.17,2-4,0,1.71-.56,3.36-1,5Z"/>
  <path class="cls-53" d="M47,162c.43.22.77.58,1,1-.37,2.31-1.29,4.6-3.22,6-1.38-1.78.44-3.91.22-6-.44-1.75.89-2.74,2-1Z"/>
  <path class="cls-134" d="M47,162c-.75.14-1.46.46-2,1h-1.09c.4-.98.45-2.11,1.09-3l2-1v3Z"/>
  <path class="cls-97" d="M168,58v2c-2.01-.31-4.22-.99-5-3,1.65.42,3.29.95,5,1Z"/>
  <path class="cls-294" d="M50,138v1c-1.02.71-2.33.72-3.45,1.15-3.43.24-6.93.26-10.5.07-.48.4-.42.43-.93,0l-.11-2.23h15Z"/>
  <path class="cls-275" d="M92,119.98c-.83,1.68-4.14,1.66-5,.02l5-.02Z"/>
  <path class="cls-18" d="M79,126c-.34-.32-.68-.65-1-1,.32.02.68.04,1,0v1Z"/>
  <path class="cls-31" d="M79,125v-1h1c-.35.23-.47.93-1,1Z"/>
  <path class="cls-296" d="M80,127c-.39-.27-.74-.6-1-1,.34.32.68.66,1,1Z"/>
  <path class="cls-8" d="M81,128c-.35-.31-.69-.65-1-1,.32.34.69.65,1,1Z"/>
  <path class="cls-337" d="M46.55,140.15c-.93.36-1.55,1.62-2.55,1.85.08,1.64-.92,1.64-3,0-1.38-1.35-3.49-.67-4.96-1.78,2.75-2.27,7.51-1.79,10.5-.07Z"/>
  <path class="cls-252" d="M44,142v4c-1.05-1.31-1.67-2.94-3-4,.96-.16,2.05.22,3,0Z"/>
  <path class="cls-331" d="M132,105h-1c.07-2.98-.25-5.99.27-8.94,1.59,2.62.39,5.94.73,8.94Z"/>
</svg>