<?xml version="1.0" encoding="UTF-8"?>
<svg id="Layer_1" data-name="Layer 1" xmlns="http://www.w3.org/2000/svg" viewBox="0 0 186 113">
  <defs>
    <style>
      .cls-1 {
        fill: #6b8675;
      }

      .cls-2 {
        fill: #346460;
      }

      .cls-3 {
        fill: #356668;
      }

      .cls-4 {
        fill: #b5d0cd;
      }

      .cls-5 {
        fill: #4d766e;
      }

      .cls-6 {
        fill: #8bc7d2;
      }

      .cls-7 {
        fill: #a4c9cb;
      }

      .cls-8 {
        fill: #93d2d3;
      }

      .cls-9 {
        fill: #99c6bd;
      }

      .cls-10 {
        fill: #7a9aa2;
      }

      .cls-11 {
        fill: #364f45;
      }

      .cls-12 {
        fill: #42646d;
      }

      .cls-13 {
        fill: #37605e;
      }

      .cls-14 {
        fill: #cde8ce;
      }

      .cls-15 {
        fill: #d5edd7;
      }

      .cls-16 {
        fill: #3c6c68;
      }

      .cls-17 {
        fill: #d4efd5;
      }

      .cls-18 {
        fill: #a8dbd3;
      }

      .cls-19 {
        fill: #93c5cd;
      }

      .cls-20 {
        fill: #467772;
      }

      .cls-21 {
        fill: #3a6a66;
      }

      .cls-22 {
        fill: #88b6cc;
      }

      .cls-23 {
        fill: #caefdd;
      }

      .cls-24 {
        fill: #86b7cb;
      }

      .cls-25 {
        fill: #a3c4c9;
      }

      .cls-26 {
        fill: #528380;
      }

      .cls-27 {
        fill: #99d1cc;
      }

      .cls-28 {
        fill: #97d4d7;
      }

      .cls-29 {
        fill: #2f5f60;
      }

      .cls-30 {
        fill: #a1d7cd;
      }

      .cls-31 {
        fill: #8dc4d0;
      }

      .cls-32 {
        fill: #a0d5cb;
      }

      .cls-33 {
        fill: #a1d6cc;
      }

      .cls-34 {
        fill: #92cacf;
      }

      .cls-35 {
        fill: #19312c;
      }

      .cls-36 {
        fill: #43615e;
      }

      .cls-37 {
        fill: #44636d;
      }

      .cls-38 {
        fill: #2c4b58;
      }

      .cls-39 {
        fill: #d1edd2;
      }

      .cls-40 {
        fill: #80a1b7;
      }

      .cls-41 {
        fill: #365664;
      }

      .cls-42 {
        fill: #325965;
      }

      .cls-43 {
        fill: #8aafb9;
      }

      .cls-44 {
        fill: #bde4d5;
      }

      .cls-45 {
        fill: #3a5d57;
      }

      .cls-46 {
        fill: #759fb1;
      }

      .cls-47 {
        fill: #617b69;
      }

      .cls-48 {
        fill: #466967;
      }

      .cls-49 {
        fill: #92c9c7;
      }

      .cls-50 {
        fill: #a0d9d1;
      }

      .cls-51 {
        fill: #8ccdd3;
      }

      .cls-52 {
        fill: #86b8c3;
      }

      .cls-53 {
        fill: #85a6bc;
      }

      .cls-54 {
        fill: #98d6d2;
      }

      .cls-55 {
        fill: #95d4d1;
      }

      .cls-56 {
        fill: #29433c;
      }

      .cls-57 {
        fill: #8ac0ce;
      }

      .cls-58 {
        fill: #4f7669;
      }

      .cls-59 {
        fill: #3f675d;
      }

      .cls-60 {
        fill: #3f5b57;
      }

      .cls-61 {
        fill: #346668;
      }

      .cls-62 {
        fill: #304944;
      }

      .cls-63 {
        fill: #477772;
      }

      .cls-64 {
        fill: #2a433c;
      }

      .cls-65 {
        fill: #83abc0;
      }

      .cls-66 {
        fill: #94c7cf;
      }

      .cls-67 {
        fill: #c4e7d6;
      }

      .cls-68 {
        fill: #496d60;
      }

      .cls-69 {
        fill: #34625c;
      }

      .cls-70 {
        fill: #a8d9cd;
      }

      .cls-71 {
        fill: #7b9883;
      }

      .cls-72 {
        fill: #83c2c9;
      }

      .cls-73 {
        fill: #c9e5c9;
      }

      .cls-74 {
        fill: #365752;
      }

      .cls-75 {
        fill: #90c0c7;
      }

      .cls-76 {
        fill: #bae8de;
      }

      .cls-77 {
        fill: #b0d0c9;
      }

      .cls-78 {
        fill: #7fa4bb;
      }

      .cls-79 {
        fill: #87bece;
      }

      .cls-80 {
        fill: #96cbcc;
      }

      .cls-81 {
        fill: #bce3cc;
      }

      .cls-82 {
        fill: #718e7f;
      }

      .cls-83 {
        fill: #95bcc0;
      }

      .cls-84 {
        fill: #bae1d1;
      }

      .cls-85 {
        fill: #a0d4cc;
      }

      .cls-86 {
        fill: #77927b;
      }

      .cls-87 {
        fill: #487672;
      }

      .cls-88 {
        fill: #a7ddd3;
      }

      .cls-89 {
        fill: #afe6da;
      }

      .cls-90 {
        fill: #263e37;
      }

      .cls-91 {
        fill: #87c8d0;
      }

      .cls-92 {
        fill: #80b1c3;
      }

      .cls-93 {
        fill: #35524b;
      }

      .cls-94 {
        fill: #3c564e;
      }

      .cls-95 {
        fill: #356768;
      }

      .cls-96 {
        fill: #4a7a75;
      }

      .cls-97 {
        fill: #a9ddd3;
      }

      .cls-98 {
        fill: #3a5a68;
      }

      .cls-99 {
        fill: #a2c3c7;
      }

      .cls-100 {
        fill: #28403a;
      }

      .cls-101 {
        fill: #8dcbd6;
      }

      .cls-102 {
        fill: #3c5956;
      }

      .cls-103 {
        fill: #97d5d1;
      }

      .cls-104 {
        fill: #456572;
      }

      .cls-105 {
        fill: #588378;
      }

      .cls-106 {
        fill: #8ebabd;
      }

      .cls-107 {
        fill: #375763;
      }

      .cls-108 {
        fill: #b3cfc9;
      }

      .cls-109 {
        fill: #75a49f;
      }

      .cls-110 {
        fill: #2d4b5a;
      }

      .cls-111 {
        fill: #8cbec7;
      }

      .cls-112 {
        fill: #3b6b67;
      }

      .cls-113 {
        fill: #a4ced0;
      }

      .cls-114 {
        fill: #3d6c68;
      }

      .cls-115 {
        fill: #517566;
      }

      .cls-116 {
        fill: #3c6160;
      }

      .cls-117 {
        fill: #3e7070;
      }

      .cls-118 {
        fill: #5b7561;
      }

      .cls-119 {
        fill: #9ed9d3;
      }

      .cls-120 {
        fill: #bbe4d4;
      }

      .cls-121 {
        fill: #ceeccf;
      }

      .cls-122 {
        fill: #a1caca;
      }

      .cls-123 {
        fill: #a2c2c9;
      }

      .cls-124 {
        fill: #a9c8cc;
      }

      .cls-125 {
        fill: #4b6a7a;
      }

      .cls-126 {
        fill: #afd4d5;
      }

      .cls-127 {
        fill: #96c6b9;
      }

      .cls-128 {
        fill: #92cfcf;
      }

      .cls-129 {
        fill: #3a616e;
      }

      .cls-130 {
        fill: #588882;
      }

      .cls-131 {
        fill: #345a64;
      }

      .cls-132 {
        fill: #93bcbc;
      }

      .cls-133 {
        fill: #9ec3ca;
      }

      .cls-134 {
        fill: #92ced1;
      }

      .cls-135 {
        fill: #32535f;
      }

      .cls-136 {
        fill: #48655c;
      }

      .cls-137 {
        fill: #b1e0d1;
      }

      .cls-138 {
        fill: #37686a;
      }

      .cls-139 {
        fill: #8ead9d;
      }

      .cls-140 {
        fill: #587e73;
      }

      .cls-141 {
        fill: #79a0b2;
      }

      .cls-142 {
        fill: #335561;
      }

      .cls-143 {
        fill: #344f48;
      }

      .cls-144 {
        fill: #bee5d2;
      }

      .cls-145 {
        fill: #4c7a79;
      }

      .cls-146 {
        fill: #659b9d;
      }

      .cls-147 {
        fill: #8fcfd4;
      }

      .cls-148 {
        fill: #548884;
      }

      .cls-149 {
        fill: #bae3d0;
      }

      .cls-150 {
        fill: #7e9fb4;
      }

      .cls-151 {
        fill: #203730;
      }

      .cls-152 {
        fill: #b2dcce;
      }

      .cls-153 {
        fill: #2e4b46;
      }

      .cls-154 {
        fill: #85aac3;
      }

      .cls-155 {
        fill: #92c4d4;
      }

      .cls-156 {
        fill: #4d756a;
      }

      .cls-157 {
        fill: #50796f;
      }

      .cls-158 {
        fill: #305451;
      }

      .cls-159 {
        fill: #bfdec9;
      }

      .cls-160 {
        fill: #496878;
      }

      .cls-161 {
        fill: #a1d8d3;
      }

      .cls-162 {
        fill: #386868;
      }

      .cls-163 {
        fill: #98c6ca;
      }

      .cls-164 {
        fill: #395a54;
      }

      .cls-165 {
        fill: #9ac2c8;
      }

      .cls-166 {
        fill: #c3e8d4;
      }

      .cls-167 {
        fill: #1e3630;
      }

      .cls-168 {
        fill: #a1d6d0;
      }

      .cls-169 {
        fill: #4f7985;
      }

      .cls-170 {
        fill: #b7d2cf;
      }

      .cls-171 {
        fill: #98bbbe;
      }

      .cls-172 {
        fill: #a7c5cc;
      }

      .cls-173 {
        fill: #94d7e0;
      }

      .cls-174 {
        fill: #95cfc9;
      }

      .cls-175 {
        fill: #4c7c7f;
      }

      .cls-176 {
        fill: #91bcd4;
      }

      .cls-177 {
        fill: #a0d3c7;
      }

      .cls-178 {
        fill: #273f39;
      }

      .cls-179 {
        fill: #b0cec9;
      }

      .cls-180 {
        fill: #395b57;
      }

      .cls-181 {
        fill: #4a6d77;
      }

      .cls-182 {
        fill: #587262;
      }

      .cls-183 {
        fill: #5e7769;
      }

      .cls-184 {
        fill: #a6c4cb;
      }

      .cls-185 {
        fill: #3e665e;
      }

      .cls-186 {
        fill: #4c7164;
      }

      .cls-187 {
        fill: #233c37;
      }

      .cls-188 {
        fill: #ade0d7;
      }

      .cls-189 {
        fill: #3b6b6c;
      }

      .cls-190 {
        fill: #547066;
      }

      .cls-191 {
        fill: #647d6b;
      }

      .cls-192 {
        fill: #a4dad1;
      }

      .cls-193 {
        fill: #538681;
      }

      .cls-194 {
        fill: #92c4c2;
      }

      .cls-195 {
        fill: #415f6b;
      }

      .cls-196 {
        fill: #b1ddcc;
      }

      .cls-197 {
        fill: #738f83;
      }

      .cls-198 {
        fill: #d2f3dc;
      }

      .cls-199 {
        fill: #2d4741;
      }

      .cls-200 {
        fill: #a1c9ca;
      }

      .cls-201 {
        fill: #316162;
      }

      .cls-202 {
        fill: #a7dcd2;
      }

      .cls-203 {
        fill: #99d8da;
      }

      .cls-204 {
        fill: #94d4d2;
      }

      .cls-205 {
        fill: #abdcd0;
      }

      .cls-206 {
        fill: #90c2cc;
      }

      .cls-207 {
        fill: #3e7275;
      }

      .cls-208 {
        fill: #abddd0;
      }

      .cls-209 {
        fill: #54716b;
      }

      .cls-210 {
        fill: #b2d0cc;
      }

      .cls-211 {
        fill: #b9e2d5;
      }

      .cls-212 {
        fill: #a5c7ca;
      }

      .cls-213 {
        fill: #8ec0c7;
      }

      .cls-214 {
        fill: #587d82;
      }

      .cls-215 {
        fill: #93c8d8;
      }

      .cls-216 {
        fill: #334f48;
      }

      .cls-217 {
        fill: #2a453f;
      }

      .cls-218 {
        fill: #243c37;
      }

      .cls-219 {
        fill: #88bdcb;
      }

      .cls-220 {
        fill: #b1d7cc;
      }

      .cls-221 {
        fill: #a4c3c7;
      }

      .cls-222 {
        fill: #81a28e;
      }

      .cls-223 {
        fill: #b4ddcb;
      }

      .cls-224 {
        fill: #8cc0ba;
      }

      .cls-225 {
        fill: #41726e;
      }

      .cls-226 {
        fill: #8fbccb;
      }

      .cls-227 {
        fill: #8ecbc8;
      }

      .cls-228 {
        fill: #afe0d4;
      }

      .cls-229 {
        fill: #b5d8d2;
      }

      .cls-230 {
        fill: #b3dac6;
      }

      .cls-231 {
        fill: #b0dccb;
      }

      .cls-232 {
        fill: #568787;
      }

      .cls-233 {
        fill: #8abacc;
      }

      .cls-234 {
        fill: #35575b;
      }

      .cls-235 {
        fill: #396b6c;
      }

      .cls-236 {
        fill: #bbd6d3;
      }

      .cls-237 {
        fill: #94cfd2;
      }

      .cls-238 {
        fill: #29413a;
      }

      .cls-239 {
        fill: #437470;
      }

      .cls-240 {
        fill: #8acad3;
      }

      .cls-241 {
        fill: #89bacb;
      }

      .cls-242 {
        fill: #bde5dd;
      }

      .cls-243 {
        fill: #b6ddd4;
      }

      .cls-244 {
        fill: #a4cbcc;
      }

      .cls-245 {
        fill: #30515d;
      }

      .cls-246 {
        fill: #2c545f;
      }

      .cls-247 {
        fill: #4b8080;
      }

      .cls-248 {
        fill: #3c6571;
      }

      .cls-249 {
        fill: #3b5853;
      }

      .cls-250 {
        fill: #427478;
      }

      .cls-251 {
        fill: #3e7172;
      }

      .cls-252 {
        fill: #a2d4d0;
      }

      .cls-253 {
        fill: #8bb9ca;
      }

      .cls-254 {
        fill: #93c8cf;
      }

      .cls-255 {
        fill: #cbe7df;
      }

      .cls-256 {
        fill: #93cfd1;
      }

      .cls-257 {
        fill: #7aa7b9;
      }

      .cls-258 {
        fill: #354f4c;
      }

      .cls-259 {
        fill: #b9e2d1;
      }

      .cls-260 {
        fill: #b1e1d5;
      }

      .cls-261 {
        fill: #5b756b;
      }

      .cls-262 {
        fill: #92d2d5;
      }

      .cls-263 {
        fill: #689d9d;
      }

      .cls-264 {
        fill: #98d7d3;
      }

      .cls-265 {
        fill: #284344;
      }

      .cls-266 {
        fill: #a9dcd4;
      }

      .cls-267 {
        fill: #d5f1d6;
      }

      .cls-268 {
        fill: #30525e;
      }

      .cls-269 {
        fill: #37534c;
      }

      .cls-270 {
        fill: #3a5958;
      }

      .cls-271 {
        fill: #90cfd0;
      }

      .cls-272 {
        fill: #406f6a;
      }

      .cls-273 {
        fill: #3e706f;
      }

      .cls-274 {
        fill: #cee9d1;
      }

      .cls-275 {
        fill: #4f7467;
      }

      .cls-276 {
        fill: #4b7367;
      }

      .cls-277 {
        fill: #8cbfc7;
      }

      .cls-278 {
        fill: #5b7464;
      }

      .cls-279 {
        fill: #53796b;
      }

      .cls-280 {
        fill: #76a2a7;
      }

      .cls-281 {
        fill: #a2d6cc;
      }

      .cls-282 {
        fill: #a7d9d2;
      }

      .cls-283 {
        fill: #8eced2;
      }

      .cls-284 {
        fill: #b3d7d8;
      }

      .cls-285 {
        fill: #2e4847;
      }

      .cls-286 {
        fill: #6a8372;
      }

      .cls-287 {
        fill: #b8ebde;
      }

      .cls-288 {
        fill: #92beca;
      }

      .cls-289 {
        fill: #88aac2;
      }

      .cls-290 {
        fill: #243c35;
      }

      .cls-291 {
        fill: #92cecb;
      }

      .cls-292 {
        fill: #34504a;
      }

      .cls-293 {
        fill: #d0edd0;
      }

      .cls-294 {
        fill: #355762;
      }

      .cls-295 {
        fill: #2f4a45;
      }

      .cls-296 {
        fill: #405d57;
      }

      .cls-297 {
        fill: #adcccf;
      }

      .cls-298 {
        fill: #87b1c4;
      }

      .cls-299 {
        fill: #9dd3ce;
      }

      .cls-300 {
        fill: #c3e8cf;
      }

      .cls-301 {
        fill: #9dddda;
      }

      .cls-302 {
        fill: #263e38;
      }

      .cls-303 {
        fill: #314b44;
      }

      .cls-304 {
        fill: #5b7764;
      }

      .cls-305 {
        fill: #95d3d3;
      }

      .cls-306 {
        fill: #789281;
      }

      .cls-307 {
        fill: #3b605c;
      }

      .cls-308 {
        fill: #497369;
      }

      .cls-309 {
        fill: #96d5d2;
      }

      .cls-310 {
        fill: #476c5f;
      }

      .cls-311 {
        fill: #8cbfc8;
      }

      .cls-312 {
        fill: #749080;
      }

      .cls-313 {
        fill: #346566;
      }

      .cls-314 {
        fill: #8fc4c9;
      }

      .cls-315 {
        fill: #406f6b;
      }

      .cls-316 {
        fill: #87b1bb;
      }

      .cls-317 {
        fill: #a8c6c9;
      }

      .cls-318 {
        fill: #7c9da4;
      }

      .cls-319 {
        fill: #b3e2d1;
      }

      .cls-320 {
        fill: #5c786c;
      }

      .cls-321 {
        fill: #294757;
      }

      .cls-322 {
        fill: #5c9097;
      }

      .cls-323 {
        fill: #51827d;
      }

      .cls-324 {
        fill: #467874;
      }

      .cls-325 {
        fill: #a7d8d1;
      }

      .cls-326 {
        fill: #cae6ce;
      }

      .cls-327 {
        fill: #b3e2d4;
      }

      .cls-328 {
        fill: #b4e1d5;
      }

      .cls-329 {
        fill: #40616e;
      }

      .cls-330 {
        fill: #87b1c7;
      }

      .cls-331 {
        fill: #b0e3db;
      }

      .cls-332 {
        fill: #92c8ce;
      }

      .cls-333 {
        fill: #2c5460;
      }

      .cls-334 {
        fill: #b9e0d9;
      }

      .cls-335 {
        fill: #a6c5c9;
      }

      .cls-336 {
        fill: #5b8d87;
      }

      .cls-337 {
        fill: #507173;
      }

      .cls-338 {
        fill: #4d807d;
      }

      .cls-339 {
        fill: #95bcc1;
      }

      .cls-340 {
        fill: #45746f;
      }

      .cls-341 {
        fill: #ade3d9;
      }

      .cls-342 {
        fill: #38665f;
      }

      .cls-343 {
        fill: #8acbcf;
      }

      .cls-344 {
        fill: #83b2b6;
      }

      .cls-345 {
        fill: #3e5d5a;
      }

      .cls-346 {
        fill: #86aec5;
      }

      .cls-347 {
        fill: #3b6964;
      }

      .cls-348 {
        fill: #96b59d;
      }

      .cls-349 {
        fill: #6a8476;
      }

      .cls-350 {
        fill: #4a6a79;
      }

      .cls-351 {
        fill: #98c3ce;
      }

      .cls-352 {
        fill: #7b9fb5;
      }

      .cls-353 {
        fill: #8fbfc5;
      }

      .cls-354 {
        fill: #2e4844;
      }
    </style>
  </defs>
  <path class="cls-327" d="M68,95.1c3.42-1.61,4.15,4.55,3,6.9,1.84.71,1.8,1.71-.12,3,.34,2.5-.22,3.79-1.66,3.88l-.1,1.65c-2.41,1.06-5.12,1.88-8.11,2.47h-12c-1.8-2.73,3.38-11.5,6.85-10.96-.16-2.3,1.71-4.15,5.6-5.56,1.52-1.68,3.03-2.17,4.55-1.47.67-1.78,1.52-1.73,2,.1Z"/>
  <path class="cls-211" d="M46,96c.82,1.6.67,5.13,0,7,.86,2.76.81,7.14,0,10h-5c-3.73-.78-9.15-7.31-7.27-10.71-.54-.6-.93-2.08-.75-2.79.37-1.5,6.11-3.86,7.88-4.5-.18-1.93.59-1.93,1.14,0,1.93-.31,3.26.03,4,1Z"/>
  <path class="cls-17" d="M33.73,102.29l7.27,10.71h-17c-.88-.22-.86-.56,0-1-4.27-.03-1.43-7,2.01-6.12-1.96-3.17,4.91-6.32,6.9-3.52-.06-.92.23-.9.82-.07Z"/>
  <path class="cls-260" d="M147,103.12c1.03-1.41,1.56-1.81,1.93,0,3.48-.46,6.56,4.75,7.07,7.88,2.66.32,2.54,1.24,0,2h-12.93c-2.35-.43-3.37-1.41-3.07-2.94-2-1.2-1.85-1.7,0-3.06-.83-1.17-.65-2.07.87-2.01,1.18-2.05,4.51-4.65,6.13-1.88Z"/>
  <path class="cls-305" d="M55.85,102.04l-6.85,10.96h-2c-.86-2.76-.81-7.14,0-10-.81-.99-.85-6.91-.24-7.72.2-.26.68-.3,1.24-.28,2.33-2.22,9.22,4.29,7.85,7.04Z"/>
  <path class="cls-226" d="M107,102c1.35-3.08,4.7-.78,3,2,1.09-.75,1.76-.75,2,0,2.86.06,2.73,2.32,0,3-2.41,1.79-4.41,3.79-6,6h-4c-3.61,0-3.35-3.08,0-3-2.17-1.62-2.43-4.21-.79-7.78.83-2.97,4.83-3.18,5.79-.22Z"/>
  <path class="cls-103" d="M99,107l3,3c-.27.85-1,2.16,0,3h-12c-3.12-1.61-2.49-4.81,1-5-1.34-1.56-.86-2.4,1.16-2-1.95-1.91-.7-3.63,1.84-4,3.15-1.22,6.04,1.89,5,5Z"/>
  <path class="cls-134" d="M82,105c1.76.33,3.43.67,5,1,1.49-.78,4.57.2,4,2-.94,1.49-1.12,3.26-1,5h-7c-3.79-.76-5.46-2.42-5-5-1.33-1.19-1.66-2.19-1-3,1-1.03,3.51-.56,5,0Z"/>
  <path class="cls-202" d="M165,103c1.11,1.31.75,4.23,0,6,1.61-.48,2.21.46,2.31,2,2.58.72,2.32,1.62-.31,2h-11v-2c-.83-3.66,4.52-11.81,8-9,1.36-1.52,1.89-.87,1,1Z"/>
  <path class="cls-254" d="M92,0l-.04,2.1c.12,3.93-7.07,11.73-10.96,9.9-.72,1.92-1.58.51-2.24-1-2.3.25-2.69-1.18-1.64-3.04,3.88-3.25,9.13-4.45,12.88-7.96h2Z"/>
  <path class="cls-128" d="M75,105c1.04-.07,2.04.93,3,3,2.03,1.23,3.8,2.94,5,5h-12c-1.98-1.25-1.78-1.41.35-2.27-1.2-1.25-1.35-2.96.35-3.53-.99-4.13.43-5.69,3.3-2.2Z"/>
  <path class="cls-163" d="M177,104c1.12-2.88,3.18-2.11,3,1,.07,2.84-1.6,5.25-2,8h-7c-2.84-.84-1.74-3.9,1-4-.59-2.29.57-4.6,3-5,.2-1.77,1.77-1.95,2,0Z"/>
  <path class="cls-70" d="M134,112c.38.47.05.8-1,1h-3c-1.73-.43-2.69-.76-1-2,.04-2.03.37-3.69,1-5-1.84-2.28.62-4.66,3-5,.28-.87.62-.86,1,0,.96.79,1.08,2.55.37,5.3.88,2.9.76,4.8-.37,5.7Z"/>
  <path class="cls-49" d="M183.68,92.88l2.32.12v3c-1.04.7-1.59,1.84-2,3-2.13,1.24-7.15.69-5-2-1.59-2.39-.56-3.92,2.2-3.91-.19-2.22,1.28-1.7,2.47-.21Z"/>
  <path class="cls-172" d="M121,109c.33-.88.67-.88,1,0,1.69-.09,1.84.74.77,2,1.95-.84,2.42.19,1.23,2h-7.79c-2.65-.36-3.23-1.08-1.21-3-1.56-2.11,4.4-1.88,6-1Z"/>
  <path class="cls-205" d="M128,107c1.87.23,1.76,2.4,1,4l1,2h-6c-.39-.68-.76-1.38-1.23-2,.22-1.37,1.56-5.01,3.07-4.96,1.28-2.48,2.53-1.78,2.15.96Z"/>
  <path class="cls-124" d="M113,108c1.77.37,2.44,1.04,2,2,.75.74.8,2.1,1.21,3h-8.21c-.92-2.01.41-4.01,4-6,1.56-1.49,2.11-.92,1,1Z"/>
  <path class="cls-255" d="M71.35,110.73c.11.8.49,1.59-.35,2.27h-10c2.1-2.42,5.7-2.24,8.21-4.12,1.23-1.09,1.94-.48,2.13,1.85Z"/>
  <path class="cls-223" d="M172,109l-1,4h-4l.31-2c-1.88-1-.45-3.52,1.44-3.02,1.11-3.29,4.55-2.32,3.25,1.02Z"/>
  <path class="cls-271" d="M143.07,113h-10.07c.27-.26.57-.96,1-1,.39-2.6.96-2.93,2.87-1,.23-2.87,1.38-3.16,3.12-.94,1.45.42,2.32,1.71,3.07,2.94Z"/>
  <path class="cls-212" d="M3,104c1.14,3.16,1.21,9.01-3,6v-3c1.25-.42,1.02-1.92,1-3,.27-.8,1.52-.76,2,0Z"/>
  <path class="cls-104" d="M112,107c-1.03,2.38-4.12,3.32-4,6h-2c.53-2.85,3.1-5.6,6-6Z"/>
  <path class="cls-12" d="M4,105c2.1,1.21,3.01,6.35,0,7l-4-1v-1c.56-.06,2.16.4,2.68-.25.83-2.02.14-3.98.32-5.75.28-.87.62-.86,1,0,.87.28.86.62,0,1Z"/>
  <path class="cls-100" d="M47,113h-1v-10c.28-.87.62-.86,1,0v10Z"/>
  <path class="cls-57" d="M148,56c.82,1.54.7,3.41,0,5-.27,2.2-.61,4.2-1,6-.26.85-.59.83-1,0-.9.49-1.57.49-2,0-3.52-1.5-12.44-6.07-9.9-10-1.38-.97-.69-2.81.9-3-1.35-2.75,3.85-6.05,6-4,3.18.56,5.12,3.54,7,6Z"/>
  <path class="cls-75" d="M92.86,2.14c.77,2.52.88,5.68.95,8.42.03,1.17-.39,1.58-1.81,1.44.41,3.59-5.4,8.14-8,4.88-1.99,2.87-2.99,2.91-3,.12-1.99-.24-1.9-1.23,0-2-1.03-1.07-1.63-2.66,0-3,4.27-2.53,7.18-6.72,10.96-9.9.29.06.63-.05.9.04Z"/>
  <path class="cls-220" d="M119.92,29.04c.68,2.66-3.04,8.97-5.92,8.96.65,1.58-1.71,1.77-3,1-1.06,2.33-1.94,2.35-3,0-2.22.09-1.1-5.71,1-6-1.65-3.12,2.26-7.32,5.34-8,1.84,1.35,5.05,1.41,5.58,4.04Z"/>
  <path class="cls-120" d="M124,32l.95,1.7c-.91,1.78-1.23,3.55-.95,5.3,2.49,1.93.76,4.74-2,2.99-.85,3.43-7.79,1.27-7-1.99-1.73-.43-2.69-.76-1-2,1.41-3.31,3.08-6.68,5.92-8.96,1.35.69,3.42,1.47,4.08,2.96Z"/>
  <path class="cls-73" d="M114.34,25c-.87,3.19-3.82,5.17-5.34,8-1.09,1.43-1.7,1.78-1.86-.14-2.85.18-4.2-3.09-2.24-5.31-2.33-1.83-.82-4.98,1.19-6.55-.61-2.6.65-3.36,2.88-2,2.94.64,4.19,3.62,5.37,6Z"/>
  <path class="cls-6" d="M141,50l-6,4c-1.59,2.32-2.11,1.64-2-1l-1-5c-2.53-1.1-2.81-3-1-5-.63-1.73.21-2.64,2-2,3,2.61,6.94,5.07,8,9Z"/>
  <path class="cls-332" d="M101,16c2.35.39,4.69.72,7,1,.46.6.85,1.24.97,2-.95.61-1.82,1.56-2.88,2-.89,3.07-4.88,6.77-7.92,5.01-2.46,1.22-2.19-1.05-1.26-3.03-1.92-2.13.07-7.24,3.09-6.98.33-1.16.67-1.16,1,0Z"/>
  <path class="cls-196" d="M179.08,88.13c1.16,1.22,1.14,1.82-.07,1.78,1.08,2.8-3.46,4.47-5.02,2.09-1.27.51-1.87-.75-2-2-1.06-1.75-1.09-4.13-.08-7.14-1.89-.86-1.85-1.29.1-1.79,3.23,1.03,4.59,5.07,7.06,7.06Z"/>
  <path class="cls-144" d="M129.81,38c.69,1.03-.77,2.25-1.81,3,1.83,1.45-.38,4.09-2,4.58-3.05,2.01-5.72-.35-4-3.59,1.17-.63,1.41-1.93,2-2.99-.39-1.68.03-5.42,2-5,1.53.93,3.14,2.27,3.81,4Z"/>
  <path class="cls-257" d="M162.62,70.72l3.38,4.28c.89.45,1.27,2.66,0,3,.52,2.87-.59,3.54-3,2-.99,1.74-2.09.77-2-1-2.41,1.45-2.96.03-1.02-1.85-1.37-2.61-1.4-4.32-.1-5.12-.22-2.59.76-3,2.75-1.32Z"/>
  <path class="cls-262" d="M154,63.38c1.62,1.49,1.19,2.24-.95,1.83.46,1.88-2.63,2.21-3.95,1.49-.25.85-.48.78-.71-.13-1.38-1.36-1.08-3.73-.39-5.57.3-1.41.63-2.74,1-4,2.32,1.57,4.9,3.39,5,6.38Z"/>
  <path class="cls-66" d="M101,10c.05,2.95-1.27,3.39-3,1,.32,2.24-1.9,1.33-3,0-2.58,1-1.6-5.9-1-8,2.98,1.61,4.76,4.64,7,7Z"/>
  <path class="cls-50" d="M107,16c-1.38.98-4.21.7-6,0-.31-.19-.7-.42-1,0-1.53,1.3-2.07.75-1.02-.98-2.09-2.1-2.41-3.44-.98-4.02,1.02-.25,2.03-.58,3-1,1.9,2.01,4.8,3.29,6,6Z"/>
  <path class="cls-158" d="M156.73,65.73c.3.74,1.39,1.25,1.19,2.27,2.11.37,2.05,1.55-.07,2.16.99,1.47.9,1.74-.7,1.06-2.06,1.59-5.02-1.39-6.15-3.27-.2.91-.54.9-1,.05-.43-.03-.73-.46-.9-1.3,1.16-.7,2.67-1.18,3.95-1.49.66-1.37,3.08-.75,3.69.53Z"/>
  <path class="cls-298" d="M162.62,70.72c-.98.28-1.84.86-2.75,1.32-1.69,1.5-2.46.1-2.02-1.87.04-.71-.07-1.46.07-2.16,2.22-.41,3.42,1.11,4.7,2.72Z"/>
  <path class="cls-276" d="M183.68,92.88l-2.47.21c-3.03.81-3.99-.65-2.19-3.18l.07-1.78c1.65,1.33,3.84,2.23,4.6,4.76Z"/>
  <path class="cls-232" d="M94,3c.31,2.71-.98,5.84,1,8,.87.28.86.62,0,1-.08,2.89-2.34,2.7-3,0,1.77-2.95.83-6.54.86-9.86.46.14.73.65,1.14.86Z"/>
  <path class="cls-101" d="M133,41c-.33.94-1.05,1.68-2,2-.26.9-.6.89-1,0-1.81,1.17-1.98-.46-1-2-.57-.79.89-2.52,2-2,1.07.26,1.31,1.39,2,2Z"/>
  <path class="cls-106" d="M170,78c1,.79,1.94,1.68,2.02,3.06-.66,1.34-2.77,1.67-2.93-.2-1.19,1.52-1.84.98-1.09-.86-.89-1.2-.89-1.86,0-2-.36-1.5.31-1.5,2,0Z"/>
  <path class="cls-282" d="M156.73,65.73c-1.26.4-2.58-.15-3.69-.53.27-.63.59-1.25.95-1.83.67-.06,1.29.08,1.96.26,1.05.28.49,1.41.77,2.1Z"/>
  <path class="cls-222" d="M126,34c-1.44,1.3-1.11,3.39-2,5-2.31.48.64-5.46,0-7,.29.65,1.73,1.24,2,2Z"/>
  <path class="cls-340" d="M107,16c.17.39.73.65,1,1-2.32-.35-5.4,1.05-7-1h6Z"/>
  <path class="cls-246" d="M168,78v2c-1.89,2.16-3.44.41-2-2v-3h1c.9.8,1.86,2.09,1,3Z"/>
  <path class="cls-235" d="M149,57c.19,1.46.19,3-1,4v-5c.25.33.66.77,1,1Z"/>
  <path class="cls-280" d="M170,78h-2c-.51-.93-.82-1.95-1-3,1.66,0,1.95,2.16,3,3Z"/>
  <path class="cls-74" d="M131,39l-2,2c-.28.87-.62.86-1,0,.43-1.1.94-2.19,1.81-3,.36.2.79.9,1.19,1Z"/>
  <path class="cls-252" d="M22,44c1.82-3.82,7.16.93,5.76,4,1.74,1.2,1.08,1.72-.76,2.27,1.46,3.34-3.85,4.71-6,2.73-3.67.83-8.43.85-12,0-.3-2.48.02-4.77,1-7,2.09-2.29,6.24-4.96,9-4,.84-.5,1.84.17,3,2Z"/>
  <path class="cls-122" d="M41,28c1.99.9,2.65,1.9,2,3,.65,1.63,1.2,3.88.33,5.44,2.32,2.24-.65,5.25-3.33,3.56.86,2.91-2.52,4.27-5,3-1.12,1.62-1.79.96-2-2-2.78,1.54-4.01-.51-2-3,.14-1.21-.19-2.54-1-4,1.95-4.05,8.03-3.52,11-6Z"/>
  <path class="cls-200" d="M31,38c.41,1.15,1.04,2.23,2,3,.83,1.12.83,2.46,0,4,1.49,2.4.96,3.51-2,3-1,1.24-2.75,1.76-3.24,0-2.18-1.37-3.03-4.19-5.76-4-1.58-1.12-2.89-3.18-2-5,2.51-2.42,6.04-3.24,9-5,1.39.69,2.65,2.65,2,4Z"/>
  <path class="cls-192" d="M20,54c2.41,1.59-.7,7.71-3.19,7.86,1.04,1.62-1.05,2.29-2.71,2.45.13,3.39-5.68,4.34-8.09,2.7,1.32-4.15,1.69-8.66,2-13,3.65-.86,8.5-.83,12,0Z"/>
  <path class="cls-328" d="M77.12,7.96c1.01.67,1.61,1.81,1.64,3.04,1,1.09,1.75,2.43,2.24,4,0,.66.06,1.34,0,2,1.11.73,1.44,2.06,1,4,.87.28.86.62,0,1,.75,2.41-1.82,4.79-4,3-.65,2.64-4.11,4.5-6,2-2.64-.45-2.48-1.36.1-2-2.51-.8-.99-2.12.9-3-1.14-1.26-.2-3.75,1-5-2.95.58-3.52-1.31-1-3-.43-2.02-.28-3.54,2-4-.08-.69.09-1.45.65-1.79.44-.27,1.19-.02,1.47-.25Z"/>
  <path class="cls-208" d="M20,63.86c1.45-3.32,8.29-2.8,8,1.14,3.07.35,6.07.69,9,1,.51,2.27-4.98,1.76-7,1,.39,1.3-1,1.34-2,1-1.67,1.08-4.81.47-7,0l-.25,1.45c-4.38-.17-8.63.01-12.75.55.86,1.41-.59,2.12-1.74,1,.04-1.24-.65-2.77-.26-4,2.59-1.3,5.74-1.02,8.09-2.7,1.9-1.14,3.85-1.31,5.91-.45Z"/>
  <path class="cls-24" d="M56.4,23.81c1.52,1.07,1.72,3.13.6,6.19.04,1.85-1.73,1.77-3,.69-1.36-.45-2.45-.25-3.29.59l-.71-1.28c-1.59.62-3.44.84-5,0-1.03.44-2.37-.23-4-2,3.26-2.72,7.39-3.7,11-6,2.84-1.36,4.64-1.85,4.4,1.81Z"/>
  <path class="cls-7" d="M73,14c-.17,1.05.8,2.11,1,3-.96,1.58-1.67,3.25-2.12,4.99.23,1.19-1.06,1.93-3.88,2.23,1.24,1.54.6,2.02-1,.78-2.7-.29-4.38-3.05-2-5-1.01-1.94-.9-4.57,1-6,1.05-.11,2.07-.52,3-1,1.52-1.46,3.26-1.09,4,1Z"/>
  <path class="cls-31" d="M63,16.01c2.4-1.75,1.85,2.14,1,3.99,1.7,2.59-5.75,6.18-7.6,3.81-1.31-.94-2.77-1.72-4.4-1.81,3.17-2.52,6.68-5.28,11-5.99Z"/>
  <path class="cls-25" d="M6,100c.87.28.86.62,0,1-.77,2.01-3.19,3.24-5,2,.09-2.38,1.23-4.59,1-7,.42-1.36.89-2.23,2-1,2.16.64,4.3,3.21,2,5Z"/>
  <path class="cls-81" d="M19,40c1.21.21,1.44,1.8,0,2l-9,4c1.71-3.89,2.35-3.59,9-6Z"/>
  <path class="cls-141" d="M7.88,83.02c1.77.86,1.01,2.29-.92,1.63-1.37,1.36-2.42-.04-2.96-1.65,0-1.41.24-2.8,1-4,.68-.8,1.35-1.13,2-1,3.2-1.53,2.92,4.2.88,5.02Z"/>
  <path class="cls-311" d="M75,10c.2,1.66-.18,3.59-2,4-1.41.11-2.81-.23-4-1,.99-2.3,3.63-3.04,6-3Z"/>
  <path class="cls-197" d="M9,73.12c2.05,1.1,2.14,2.72,0,3.88-.13,2.2-1.01,1.85-2,0-.28.87-.62.86-1,0-.47-.75-.99-1.62-.91-2.5.07-.71.64-1.22,1.14-1.64.58-1.51,1.54-1.96,2.77-.87.87.32.86.7,0,1.12Z"/>
  <path class="cls-186" d="M21,53c.31.98-.02,1.31-1,1h-12c.04-.61.36-1,1-1h12Z"/>
  <path class="cls-142" d="M7,87c.64.3.63.63,0,1,.83.12.77.46,0,1-.88,1.22-1.88,2.22-3,3-.28.87-.62.86-1,0,.24-.87-.05-2.08,0-3,.42-1.43,1.08-2.1,2-2,.02-2.1,1.58-2.06,2,0Z"/>
  <path class="cls-131" d="M65,20c-.23.88-.56.85-1,0-.06-1.34.54-3.38-1-3.99.88-.51,1.78-1.88,3-2.01-.32,1.92-1.47,4.01-1,6Z"/>
  <path class="cls-115" d="M22,44c-1.13.08-2.29-1.34-3-2v-2c.31-.35.66-.67,1-1l2,5Z"/>
  <path class="cls-37" d="M4,104H1c0-.33-.01-.68,0-1,1.93.25,3.55-.83,5-2,3.47,1.16.86,5.19-2,3Z"/>
  <path class="cls-294" d="M6.96,84.65c1.88-.12,1.87.72.04,1.35v1h-2c-.87-.09-1.21-.76-1-2v-2c1.02.5,2.01,1.04,2.96,1.65Z"/>
  <path class="cls-310" d="M31,38l-2-4c.25-.15.71.07,1,0,.72.43,1.2,1.11,1.59,1.9s.85,2.11-.59,2.1Z"/>
  <path class="cls-154" d="M4,95c-.53.48-1.43.56-2,1-.14-1.45.44-2.73,1-4h1c1.73-.51,1.73.49,0,3Z"/>
  <path class="cls-170" d="M9,71c.87.28.86.62,0,1-.85.49-1.79.78-2.77.87.07-.62.01-1.25.03-1.87l1.74-1c1.35-.42,1.7-.24,1,1Z"/>
  <path class="cls-316" d="M5,87c-.38.91-1.11,1.59-2,2,.08-1.4.21-2.8,1-4,.81.32,1.02,1.2,1,2Z"/>
  <path class="cls-151" d="M7,78c-.32.81-1.2,1.02-2,1,.4-.63.66-1.34,1-2h1c.87.28.86.62,0,1Z"/>
  <path class="cls-237" d="M85,93c.29-.66.63-.64,1,0-.18-1.94.61-1.94,1.21,0,1.63-.1,2.91.88,3.85,2.92,2.93,2.17,3.91,4.19,2.94,6.08-.14,1.51-.93,2.82-1.84,4-1.36.84-3.07.5-5.16-1-1,1.02-3.51.57-5,0-1.77-.33-3.43-.66-5-1,.07,2.02-1.25,1.76-2,0-3,.34-4.33-.32-4-2-2.53-1.56-.9-4.94-3-6.9-1.74-1.64-1.76-3.35,1-2.1,5.07.89,10.95.85,16,0Z"/>
  <path class="cls-264" d="M51,88.03l1.82-1.65c3.75,1.09,7.61,2.15,11.58,3.17l.6,2.45c3.74.75,4.75,1.18,1,3-2.36,3.33-6.91,4.82-10.15,7.04l-7.85-7.04c-1.94.18-1.8-4.31-.87-5.87.03-3.05,2.09-3.65,3.87-1.1Z"/>
  <path class="cls-342" d="M67,92c.28-.87.62-.86,1,0,4.93-.82,11.08-.92,16,0,.32-2.66,1.24-2.54,2,0,.71.29.7.63,0,1h-1c-5.1.88-10.87.86-16,0-1.07,0-1.14,1.32-1,2.1-.67.1-1.34.02-2-.1.4-.64,1.22-1.4.44-1.89-.59-.37-1.03-.74-1.44-1.11.32-2.66,1.24-2.54,2,0Z"/>
  <path class="cls-127" d="M71.7,107.2c.24,1.13-.5,2.4-.35,3.53-.78-.53-1.51-1.13-2.13-1.85.63-1.28.67-2.82,1.66-3.88.61.27.89,1,.82,2.2Z"/>
  <path class="cls-324" d="M75,104c.87.28.86.62,0,1-.7-.34-1.92-1.53-2.53-.96-.98.93-.44,2.39-.78,3.16-.15-.72-.85-1.39-.82-2.2l.12-3c1.4.54,2.86,1,4,2Z"/>
  <path class="cls-67" d="M37,78c2.62.65,5.29.65,8,0,1.34-1.48,1.85-.83,1,1,1.66.18,1.46,4.29,0,5,2.78-.18,3.46,1.38,1,3-.24,2.57-.58,4.9-1,7-.61,1.53-2.45,1.28-4,1h-1.14c-2.56-.88-9.12-5.81-6.9-8.96-2.43-1.58-2.37-2.4.04-4.04-2.66-.32-2.54-1.24,0-2,.27-1.98,1.38-3.4,3-2Z"/>
  <path class="cls-229" d="M33.96,86.04c2.01,4.14,5.1,3.5,6.9,8.96.5,4.12-5.56,2.5-7.13,7.29-.27.05-.56,0-.82.07-3.22-1.61-10.2-9.2-6.79-12.36-2.03-1.67-1.85-2.77.9-3-1.59-2.91.85-4.32,2.98-2,2.23-1.94,3.55-1.6,3.96,1.04Z"/>
  <path class="cls-187" d="M47.13,89.13c.12,1.98-.2,4.1.87,5.87-1.79,2.22-1,5.28-1,8h-1v-7c-1.95-.56-1.96-1.44,0-2,.33-2.32-1.03-5.4,1-7,2.84-.2,2.65,1.04.13,2.13Z"/>
  <path class="cls-139" d="M46,94c-.09.65,0,1.34,0,2-1.42.14-3,.16-4-1,1.19-.77,2.6-1.02,4-1Z"/>
  <path class="cls-15" d="M26.12,90c3.02,8.67,4.82,5.61,6.79,12.36-2.26.65-5.22,1.76-6.9,3.52-.46.76-1.37,1.65-1.89,1.32-2.69-1.75-8.89-8.31-7.1-11.27-.23-.89.09-1.2.97-.93-.95-1.97-.28-3.46,2-3,.08-2.86,4.46-4.52,6.12-2Z"/>
  <path class="cls-179" d="M17.03,95.93c.51,1.13,7.84,10.34,8.98,9.95-.67,1.92-3.07,4.08-2.01,6.12h-4c-1.71-.45-2.7-.78-1-2-2.3-2.2-3.3-4.53-3-7-2.67-.15-3.6-3.91-1-5-.92-.88-1.37-1.49,0-2,.5-1.97,1.38-2,2.03-.07Z"/>
  <path class="cls-206" d="M163,97.99c1.66-1.23,1.7.55,1,2.01,1.25.55,1.25,1.39,0,2-3.91,1.65-4.98,6.27-8,9-3.38-1.43-4.7-5.27-7.07-7.88-.97-1.07-.78-5.56.07-7.12-.55-.43-.22-.77,1-1-.87-.28-.86-.62,0-1-.42-2.55.83-2.93,3-2,2.96-.27,9.48,3.03,10,5.99Z"/>
  <path class="cls-88" d="M139,96l5,1c.57-.87,2.64-1.4,3,0,2.31-.92,2.15,5.6,0,6.12-2.2.38-3.78,2.94-6.13,1.88-1.88-.18-3.5-1.51-4.87-3.99-1.32,1.22-1.68.65-1-1-1.53.36-1.4-.7-.94-2-2.88-.03-2.76-2.22-.06-3,1.35-.35,4.07-.26,5,1Z"/>
  <path class="cls-111" d="M140,107c.45.96.8,2.12,0,3.06-.96.53-2.14.52-3.12.94-3.33.56-3.45-8-.87-9,1.63.7,4.48,3.19,4,5Z"/>
  <path class="cls-26" d="M140.87,104.99c.5.87-.51,1.54-.87,2.01l-4-5c-.87-.28-.86-.62,0-1,1.91.98,3.03,2.91,4.87,3.99Z"/>
  <path class="cls-2" d="M149,96l-.07,7.12c-.61.2-1.32-.11-1.93,0,.93-1.83,2.04-4.8,0-6.12-.59-1.49.8-1.77,2-1Z"/>
  <path class="cls-354" d="M101,54c1.67.54,1.95,1.77,0,2,.3,1.48.64,3.15,1,5,1.56-1.25,2.08-.69,1,1-.22,5.51-.15,11.07.22,16.68l-1.17,2.26c.99,2.68,1.31,5.7.95,9.05l-1,8c2.4,1.05,1.92,4-.79,4.22-.42,2.52-.43,5.59.79,7.78-1.58-.09-4.4-1.26-3-3-.78-5.98-1.35-12.04-1.7-18.18,1.08-.11,1.65-.39,1.7-.82.6-4.37.73-8.9.38-13.59-1.12-.7-.83-1.15.62-1.41-.87-.28-.86-.62,0-1-.89-.19-.85-.53,0-1-1.88-1-2.33-3.3-1.34-6.9-1.35-1.61-1.57-2.99-.66-4.13.13-1.6.13-3.59,0-5.97.84-2.6,2.05-2.67,3,0Z"/>
  <path class="cls-99" d="M121,101c.28-.87.62-.86,1,0,2.31-.26,2.31.74,0,3,1.47,1,.6,3.3-1,4-2.11.58-6.02,1.29-8,0-.1-.38-.51-1.07-1-1v-3c.21-1.24,2.88-4.28,4-3-.82-2.61.2-2.82,2-1,2.09-2.3,2.55-2.11,3,1Z"/>
  <path class="cls-352" d="M107,93c2.84.04,3.17,1.04,1,3,3.29.45,2.11,6.37-1,6-1.93-.11-3.86.15-5.79.22.2-1.16.09-3.25.79-4.22.05-2.89.23-7.66,4-7,2.66-.34,2.87.07,1,2Z"/>
  <path class="cls-53" d="M112,97c1.94-1.98,2.59-.13,2,2,2.42,1.78-1.88,4.39-4,5-.84-.81-1.74-1.93-3-2,.45-1.98,1.15-3.95,1-6-.03-.97.03-1.34,1-1,1.79-.8,3.66,0,3,2Z"/>
  <path class="cls-160" d="M116,101l-4,3h-2c1.54-1.64,4.2-2.47,4-5,.28-.87.62-.86,1,0,2.62-1.11,3.09.04,1,2Z"/>
  <path class="cls-80" d="M183,100c-.21,2.05-1.07,4.09-3,5-.92-.53-1.94-1-3-1-2.39-.48-.57-3.32,1-4,.1-1.33,1.76-1.33,5,0Z"/>
  <path class="cls-185" d="M184,99c-.16.47-.55.82-1,1h-5l-1-1c-2.4-1.83-1.64-2.16,1.12-2.01.15-.92.45-.89.88,0,.04,2.7,2.95,2.11,5,2Z"/>
  <path class="cls-147" d="M96,87.69c.69-2.62,2.24-2.29,3,.31-.09-5.07,2.75,20.9,0,19-1.13-2.12-3.54-3.2-5-5-2.44-3.01-5.8-5.16-6.79-9-2.13-3.7-.5-5.81,3.79-6,.1-.9.45-.85,1,0,1.69.89,3.02,1.12,4,.69Z"/>
  <path class="cls-63" d="M92.16,106c-.45.63-.75,1.35-1.16,2-1.21-.83-2.44-1.98-4-2-.87-.28-.86-.62,0-1,1.76,0,3.45.62,5.16,1Z"/>
  <path class="cls-96" d="M77,104c.87.28.86.62,0,1,.51.93.83,1.95,1,3-1.31-.64-2.44-1.63-3-3v-1h2Z"/>
  <path class="cls-347" d="M82,105h-5v-1c1.72,0,3.8-.51,5,1Z"/>
  <path class="cls-112" d="M87,105v1c-1.75-.02-3.78.54-5-1h5Z"/>
  <path class="cls-5" d="M168.75,107.98l-1.44,3.02c-.67,0-1.53-.01-1.99-.69-.21-.31-.32-.87-.32-1.31.23-1.36.67-2.39,1.31-3.09.26-2.07.78-3.11,2.8-1.83,2.91.27,2.49,3.53-.36,3.91Z"/>
  <path class="cls-303" d="M166,103c-.28.87-.62.86-1,0,0-.49-.58-.9-1-1-.43-.63-.66-1.46,0-2-.39-1.32-.26-1.72,1-1,.31-1.94,1.12-1.75,1.28.27,2.93-.03,2.45,3.26-.28,3.73Z"/>
  <path class="cls-90" d="M166.31,105.91c-.08,1.15-.31,2.41-1.31,3.09v-6h1c2.65-.48,2.02,1.43.31,2.91Z"/>
  <path class="cls-87" d="M81,12v3c-1.81-.47-2.2-2.34-2.24-4l2.24,1Z"/>
  <path class="cls-194" d="M173,102c.28-.87.62-.86,1,0,2.42-.81,2.59.44,1,2-.17,2.05-1.09,4.09-3,5-.5-1.29-2.12-.97-3.25-1.02l.36-3.91c-2.02-1.43-1.44-2.52.89-3.08.68-2.1,2.46-.95,3,1Z"/>
  <path class="cls-164" d="M178,100c-.67,1.23-.97,2.61-1,4h-2l-1-2c.19-1.14,1.14-1.67,2-2,.29-.87,1.47-.64,2,0Z"/>
  <path class="cls-54" d="M134,95l.06,3c.29,1.46-.06,2.46-1.06,3,.19,2.16-1.93,3.26-3,5-.25,1.84-.73,2.62-2,1l-2.15-.96c-1.39.12-1.47-1.01-.63-1.96l.24-1.49c-2.15-.37-1.97-1.23.54-2.59-.84-.34-.77-.66.14-.95-1.38-1.92-.52-3.3,1.77-2.06-1.01-2.83,3.57-4.4,5.09-1.99.3-.44.63-.43,1,0Z"/>
  <path class="cls-175" d="M136,101v1c-1.86,2.64-1.79,6.97.87,9-.94.41-1.82.9-2.87,1v-11c-.16-.82.18-1.16,1-1,.23.3.67.83,1,1Z"/>
  <path class="cls-20" d="M129,111c-.01-1.4-.24-2.81-1-4,.47-.45,1.65-.43,2-1-.13,1.66.73,4.05-1,5Z"/>
  <path class="cls-239" d="M135,100c-.2.45-.55.8-1,1h-1c-.1-1.11.19-2.26,1.06-3,.36.63.5,1.42.94,2Z"/>
  <path class="cls-224" d="M181.2,93.09c-.32,1.5-1.39,2.64-2.2,3.91-.28.05-.61-.09-.88,0-2.71,2.76-7.07-.67-5.12-3.99-.33-.99,0-1.33,1-1l5.02-2.09c.66,1.11,1.21,2.31,2.19,3.18Z"/>
  <path class="cls-345" d="M125.22,104.08c.26.64.49,1.28.63,1.96-1.38,1.64-.77,4.56-3.07,4.96-.44-.59-.85-1.23-.77-2-.21-1.78.72-4.51,2-6-2.06-2.13,2.61-2.72,1.22,1.08Z"/>
  <path class="cls-155" d="M122,109c-.33.02-.67-.04-1,0-.87-.28-.86-.62,0-1,0-1.4.27-2.79,1-4,.41-1.69.75-2.59,2-1,.12,2.23,0,4.68-2,6Z"/>
  <path class="cls-195" d="M121,108v1c-1.98.24-4.73-.9-6,1-.66-.65-1.73-.96-2-2h8Z"/>
  <path class="cls-123" d="M7,106c.87.28.86.62,0,1,2.11-.35,2.45.98,1,4-1.03,1.05-2.61,1.35-4,1v-7c1.88-1.94,2.67-1.64,3,1Z"/>
  <path class="cls-92" d="M19,110l1,2c-2.56,0-5.12-.04-7.68-.16-1.51-1.29-1.25-2.38.68-2.84-.39-.98.27-1.65,2-2,1.72-.76,3.05.24,4,3Z"/>
  <path class="cls-165" d="M13,109c-.07.98-.28,1.94-.68,2.84-1.18-.06-2.5.29-3.32-.84-.88-.61-1.21-2.68-.37-3.36.65-.53,6.68-.45,4.37,1.36Z"/>
  <path class="cls-181" d="M15,107c-.41.89-1.11,1.6-2,2,0-1.43-1.66-.95-2.54-1.05-1.96-.22-1.52,1.71-1.46,3.05h-1l-1-4c2.07-.67,6.29-1.06,8,0Z"/>
  <path class="cls-339" d="M16,104c.58.74.98,1.73.44,2.4-.31.38-8.2.26-9.44-.4-1.06.03-2.08-.56-3-1v-1c1.28-.47,2-1.64,2-3v-1c.28-.87.62-.86,1,0,2.62-2.03,8.05.92,9,4Z"/>
  <path class="cls-325" d="M131,57c2.14-1.66,3.18-1.66,3.1,0,3.24,5.02,6.37,4.35,9.9,10-2.36,1.01-6.43.69-9,0-1.74,1.36-3.83,1.59-5-.32-2.23,2.15-7.03-4.47-5-6.68-.87-.28-.86-.62,0-1,.07-2.99,3.72-3.56,6-2Z"/>
  <path class="cls-97" d="M148.39,66.57l.71.13.91,7.7-1,.6c2.43,1.39,1.69,2.54-1,2-1.33,2.62-7.39-2.59-9.2-4.29-2.47-1.45-3.07-3.02-1.8-4.71,2.91-.31,5.91-.64,9-1,.29.04.75-.09,1,0,.49-1.28.95-1.42,1.39-.43Z"/>
  <path class="cls-290" d="M144,67h2c-2.5,2.06-5.96.62-9,1-.71,2.52-1.24,2.46-2,0-.87-.28-.86-.62,0-1h9Z"/>
  <path class="cls-3" d="M135,54c-.56.91-.81,1.95-.9,3h-3.1c-1.35-1.94-.03-3.46,2-4l2,1Z"/>
  <path class="cls-201" d="M148.39,66.57c-.33.7-.91,1.13-1.39.43.12-2.02-.75-4.55,1-6-.04,1.86.09,3.73.39,5.57Z"/>
  <path class="cls-19" d="M95,12c1.63-.68,2.96.33,3.98,3.02.35.27.58.8,1.02.98-1,2.34-1.68,4.83-3.09,6.98.22,2.47-.42,4.17-1.91,5.11-.36.85-.69.8-1-.09-.53.69-1.23,1.48-2.01,1.38-1.23-.15-10.36-4.67-10.34-5.71.01-.56.16-1.12.35-1.67v-1c-.79-2.27.16-3.05,2-4.12,3.37-.25,5.21-3.3,8-4.88h3Z"/>
  <path class="cls-315" d="M84,16.88l-2,4.12c-1.19-1-1.12-2.57-1-4,.97,1.38,2.05-.04,3-.12Z"/>
  <path class="cls-82" d="M109,33c-.93,1.71-2,4.29-1,6,.92.27.9.6,0,1-.32,2.66-1.24,2.54-2,0-3.24-.96-2.31-7.39,1.14-7.14l1.86.14Z"/>
  <path class="cls-47" d="M111,39c.87.28.86.62,0,1,1.82,1.68,1.27,2.55-1.05,3.05-2.73.97-3.59-1.01-1.95-3.05-.08-.29.15-.74,0-1h3Z"/>
  <path class="cls-304" d="M115,40c0,2.93-3.34,2.8-4,0v-1c1.06,0,2.07-.51,3-1l1,2Z"/>
  <path class="cls-108" d="M115,40c2.24.98,4.52,2.01,7,1.99.78,1.71,2.26,2.93,4,3.59.72-.07.72.4,0,1.42,3.38,1.14-.05,9.16-3,9-1.16.72-3.37.58-3.13-1-3.55.12-7.01-4.15-7.46-7.55-1.07.08-.95-.54-.41-1.45-2.69,1.03-3.87-.81-2.05-2.95-.06-1.13.16-2.29,1.05-3.05h4Z"/>
  <path class="cls-77" d="M104.9,27.55c.65,1.83,1.94,3.39,2.24,5.31-.92,2.19-1.14,4.76-1.14,7.14-.6,2.62-.96,2.34-2-.06-.28,2.92-2.42,3.61-4,1.06l-2.09-3c-2.99.5-4.42-4.65-1.87-6.11.57-2.78,8.91-8.98,8.87-4.34Z"/>
  <path class="cls-152" d="M104.9,27.55c.31-2.55-7.32,5.79-8.87,4.34-2.33,1.21-2.92.87-3.07-1.75-2.44-1.36-1.7-2.6,1.03-2.14l1,.09c.53-1.35,1.74-2.65,3.18-2.08,2.58-1.79,5.01-3.8,7.92-5.01-.15,2.22.14,4.66-1.19,6.55Z"/>
  <path class="cls-168" d="M131,43c.95,1.48,1.08,3.27,1,5l1,5c.29,1.67-.58,3.14-2,4-1.79,1.22-3.92,1.5-6,2-1.89.94-3.69-.13-2-2-.89-.18-.85-.52,0-1,.66-3.13,2.73-5.8,3-9,1.07-2.85,2.4-4.19,4-4,.31-.06.7.1,1,0Z"/>
  <path class="cls-251" d="M133,53c-1.77-.89-.9-3.31-1-5,1.3,1.33,1.13,3.26,1,5Z"/>
  <path class="cls-114" d="M98.18,26.01c-.43,1.4-1.74,2.21-3.18,2.08.11-1.87.48-3.81,1.91-5.11-.02,1.15.26,2.35,1.26,3.03Z"/>
  <path class="cls-59" d="M172,90c-.29.78-.62.77-1,0-2.17,1.87-3.58.11-2-2.22.46-.79.51-2,.15-3.63l1.96-1.3c.11-.89.38-.86.81,0,.06,1.79.14,5.2.08,7.14Z"/>
  <path class="cls-270" d="M172.02,81.06c.75.37-.12,1.31-.1,1.79h-.81c-.42,3.68-3.34,3.78-3.11.14-2.42-1.43-1.61-2.65,1.09-2.14.93,0,2.05-.23,2.93.2Z"/>
  <path class="cls-105" d="M174,92c-.38.28-.72.62-1,1-.28.87-.62.86-1,0-2.64.02-2.65-1.02-1-3h1c.96.31,1.67,1.05,2,2Z"/>
  <path class="cls-296" d="M130,43l-4,4v-1.42c1.02-1.36,1.8-2.89,2-4.58h1l1,2Z"/>
  <path class="cls-119" d="M159.98,77.15l1.02,1.85c1.1,1.5.54,2.03-1,1,1.04,1.95-1.17,4.96-3,5,1.79,2.54-.98,3.99-3,2l-6.39-6.84.39-1.16c-2.69-.36-2.6-1.24,0-2l1-2c.45-2.78.85-2.41,2,0,.76-1.38,2.58-1.73,4-1-.86-2.68.44-3.13,2.21-1.04,1.55-.43,2.48.96,2.77,4.19Z"/>
  <path class="cls-176" d="M168,80c.32.32.8.49,1.09.86l-1.09,2.14c1.55,1.2,1.1,1.81-.76,1.08-1.52.91-3.42-.2-4.03-1.76-1.9.91-2.63-3-.21-2.32.87-.85,2.06-1.24,3-2l2,2Z"/>
  <path class="cls-234" d="M159.87,72.03c.28,1.69.35,3.42.1,5.12-.77-1.38-2.11-2.61-2.77-4.19-2.08-.17-2.07-1.09-.06-1.75.03-.38.59-.69.7-1.06.44.84,1.12,1.53,2.02,1.87Z"/>
  <path class="cls-116" d="M163,80c-.22.22-.42.62-.5,1-.1.49.35.97.71,1.32,1.86.69,1.77,1.47-.21,1.68,1.34,1.5.72,2.06-1,1-1.8.63-2.23-.57-1-2-.78-.35-1.12-1.35-1-3,.04-.43.74-.72,1-1,.32.58,1.39.6,2,1Z"/>
  <polygon class="cls-323" points="98 11 98.98 15.02 95 12 95 11 98 11"/>
  <path class="cls-89" d="M157.15,71.22c-.04.51-.14,1.27.06,1.75l-2.21,1.04c-1.41-.03-2.41-.36-3-1-1.92.28-2.03-3.67-1-5.05,2.67-.63,4.41,1.49,6.15,3.27Z"/>
  <path class="cls-2" d="M150,68c.44,1.82.77,3.82,1,6,.87.28.86.62,0,1h-2l.1-8.3c.57.32.9.68.9,1.3Z"/>
  <path class="cls-281" d="M152,73c.75,1.22.28,1.63-1,1-1.6-1.57-.99-3.94-1-6,.33-.05.68.03,1-.05-.09,1.75-.36,3.73,1,5.05Z"/>
  <path class="cls-319" d="M30,50l2.38.4c2.04,2.66,7.81,12.52,4.62,14.6-2.52.98-6.16.69-9,0-2.16-1.61-5.44-1.02-8-1.14-3,.12-4.07-.54-3.2-2,.23-2.89,2.03-5.26,3.19-7.86.4-.26.66-.68,1-1,1.73-1.63,4.48-.84,6-2.73.72-1.49,2.38-1.85,3-.27Z"/>
  <path class="cls-58" d="M31,48c2.19,1.42,1.59,2.16-1,2l-3,.27c.19-.78.44-1.54.76-2.27h3.24Z"/>
  <path class="cls-166" d="M40,40c.72.06,1.43.16,2.1.38,3.29,1.11,12.09,14.23,10.9,18.62,2.12.06,2.12.73,0,2,1.12,1.08-2.48,5.28-4,4l-1.4,2.56c-1.8-1.23-4.34-1.41-7.6-.56-1.12.88-2.82.56-3-1-.9-.18-.86-.52,0-1-1.99-7.19-3.68-7.52-7-15,.43-.58.48-1.5,1-2,.81-.78,1.08-2.38,2-3-.05-1.53.54-2.76,2-2,1.39-1.39,3.39-2.04,5-3Z"/>
  <path class="cls-149" d="M50,36c1.77.34,2.51.97,2.2,1.91,3.05-.84,3.94,1.19,3.8,4.09.99-.22,1.33.44,1,2,2.57-1.11,3.05.17,1,2,3.21,1.03,3.55,2.7,1,5,2.32,1.63,1.05,5.98-2,6-1.26,3.18-2.6,3.84-4,2-3.73-6.66-7.95-13.32-13-19,1.17-.8,2.6-2.38,3.33-3.56.26-.4.52-.42.78-.02.9-2.06,2.16-2.54,3.8-1.45,1.73-2.21,2.43-1.74,2.09,1.04Z"/>
  <path class="cls-269" d="M45,30c.9.05,1.24.39,1,1,3.26-.17,3.45,1.09,1,3-.8,2.06-1.8,1.39-3-2-.49.49-.82.16-1-1-.45-1.15-1.74-1.76-2-3,1.7-.44,2.6,1.28,4,2Z"/>
  <path class="cls-68" d="M44,32c2.52,2.64,2.56,4.11.11,4.42-.21.53-.48.45-.78.02-.33-1.79-.43-3.62-.33-5.44.14.36,1,.59,1,1Z"/>
  <path class="cls-140" d="M35,43c-.67.67-1.17,1.43-2,2-1.53-.7.29-2.69,0-4l2,2Z"/>
  <path class="cls-275" d="M20,63.86c-1.99-.1-4.04,1.83-5.91.45.67-1.05,1.57-1.94,2.71-2.45.99.78,2.14,1.32,3.2,2Z"/>
  <path class="cls-34" d="M78,25c2.67.16,2.61,1.09.12,2,.64,1.1,1.2,2.56-.12,3,.98,3.29.98,6.29,0,9,1.16,3.16-3.32,5.65-6.12,5.02-1.97,1.08-4.6.63-4.06-1.85-3.14-1.43-2.32-5.45,1.18-5.18-.04-2,.54-4.69,2-6-3.81.3-3.81-4.12,0-4,.25-.87.58-.85,1,0,2.14-.45,3.7-2.12,6-2Z"/>
  <path class="cls-137" d="M94,28l-1.03,2.14c.14,3.13-1.44,3.87-3.87,1.96-.94,1.08-1.97,1.72-3.1,1.9-.26,1.52-3.05,2.05-4,1-2.11.13-2.63-2.41-2-4-1-.91-1.62-2.24-1.88-4l-.12-2c1.27-.79,2.32-2.76,4-3,1.49,2.17,3.85,2.76,6.68,3.31,2.06.41,3.4,2.52,5.32,2.69Z"/>
  <path class="cls-22" d="M72.1,25l-.1,2c-.31.07-.68-.02-1,0-1.72,2.89-3.85,2.37-4-1-.87-.28-.86-.62,0-1,.29-.29.75-.45,1-.78,1.96-1.03,4.29-1.84,4.1.78Z"/>
  <path class="cls-36" d="M73,22c-.03,1.03-.85,1.99-.9,3-1.22-.79-2.67-1.01-4.1-.78.94-1.24,2.45-1.7,3.88-2.23.38-.88.75-.88,1.12.01Z"/>
  <path class="cls-218" d="M73,22c-.35.08-.79-.13-1.12-.01-.14-1.93-.04-4.42,2.12-4.99-.29,1.67-.95,3.29-1,5Z"/>
  <path class="cls-136" d="M21,68c.96.1,1.63.43,2,1,1.83,2.92-.94,4.77-2.92,1.99-1.17,1.62-2.11,1.02-3.08-.31-2.25.58-4.58.69-7,.32-.23.89-.56.87-1,0-.42-.21-.7-.66-1-1,3.84-2.21,8.7-.72,13-2Z"/>
  <path class="cls-238" d="M40,67c1.68-.67,2.16-.47,1,1-.73,3.02-8.09,3.03-9,0,.2,2.24-2.78.67-2-1,2.39-.12,5.09.72,7-1,.92.55,1.95.84,3,1Z"/>
  <path class="cls-279" d="M37,65c.09.31-.05.68,0,1-3.15-.27-6.42.92-9-1h9Z"/>
  <path class="cls-320" d="M30,67c.2.91,1.21,1,2,1,2.99.07,2.76,4.46,0,5-.28.87-.62.86-1,0-1.57-.78-2.24-2.11-2-4l-1-1c.2-.95,1.21-.96,2-1Z"/>
  <path class="cls-64" d="M28,68c.36.3.7.63,1,1-.01,3-5.51,2.85-6,0-.8.02-1.68-.19-2-1,2.15-.64,4.8.47,7,0Z"/>
  <path class="cls-346" d="M65,20c.41,1.73,2,3.11,2,5v1c1.49,2.44.89,3.76-2,4-.22,1.43-1.58,1.91-3,2,.35,2.7-.06,2.84-2,1-1.59.88-3.91-1.45-3-3-.64-.49-1.4-.93-1.92-1.94.61-1.61,1.14-2.89,1.32-4.25l7.6-3.81c.27-.14.7.07,1,0Z"/>
  <path class="cls-65" d="M54,30.69c.13.96-1.34.72-1.26.69,2.6-.95,7.62.55,5.26,3.62.59.98.1,1.39-1,1-1.82.64-5.12,1.22-7,0-.32-.56-1.58-.69-2.09-1.04-.89.23-1.19-.09-.91-.96-.18-1.02-.37-2.14-1-3,1.16-.41,2.49-.74,4-1,1.38-.12,2.84-.15,4,.69Z"/>
  <path class="cls-129" d="M60,33c2.09,1.62,1.58,2.22-1,2-.28.87-.62.86-1,0,.14-1.56-.71-2.84-1.74-2.9l-5.01-.29c.15-1.48,1.95-.61,2.76-1.11,1.05.06,2.1-.13,3-.69.64,1.31,1.65,2.42,3,3Z"/>
  <path class="cls-42" d="M50,30c-1.05,1.08-2.57,1.18-4,1-.23-.31-.66-.83-1-1h5Z"/>
  <path class="cls-284" d="M9,97c2.59,1.38.66,4.04-2,3h-1c0-1.83-1.2-3.38-2-5,.32-2.11.98-2.77,2-2,1.06,1.41,2.06,2.74,3,4Z"/>
  <path class="cls-261" d="M21,77c.87.28.86.62,0,1-.33.89-.67.89-1,0-.5,1.04-1.97,1.2-4.38.5l-5.04.08c.12,1.94-.07,3.75-.58,5.43-.99,2.24-2.56,1.28-2.12-.98.81-1.44.51-3.75-.88-5.02v-1h2c.1-.9.45-.85,1,0,2.96-.23,5.94-.62,8.92-1.19l1.09.24c.89-.28,1.22.03.98.94Z"/>
  <path class="cls-285" d="M10,84c.66.29.65.63,0,1,2.16-.44,2.16.56,0,3-.29.67-.63.66-1,0-.63-.03-.97-.37-1-1l-1-1c0-.44-.24-1-.04-1.35l.92-1.63,2.12.98Z"/>
  <path class="cls-243" d="M19.26,74.93c1.63-1.03,2.02-.4.75,1.13l-1.09-.24c-2.98.53-5.95.93-8.92,1.19-.33.05-.67,0-1,0-.4-1.29-.9-2.71,0-3.88,1.07-.94,2.97-1.13,5.69-.58,3.35-1.55,4.88-.76,4.57,2.39Z"/>
  <path class="cls-183" d="M20.08,70.99c2.28,1.64,1.94,3.34-.82,3.94-2.16-3.23-6.64-1.8-10.26-1.81v-2.12c.27.13.7-.07,1,0,2.36.2,4.7.09,7-.32,1.29-.98,1.92-.68,3.08.31Z"/>
  <path class="cls-268" d="M9,89c.29-.64.62-.63,1,0,2.38,2.42-.2,4.93-3,3-.29.66-.63.64-1,0-1.49-.9-.43-2.25,1-3,.04-.33,0-.67,0-1,.29-.66.63-.64,1,0,.62.05.95.38,1,1Z"/>
  <path class="cls-330" d="M7,89c-.13,1.06-.45,2.08-1,3-.8,1.29-1.87,1.75-2,0,0-.93.15-1.96.97-2.53.59-.4,1.34-.47,2.03-.47Z"/>
  <rect class="cls-318" x="7" y="87" width="1" height="1"/>
  <path class="cls-135" d="M8,87h-1v-1c.35.31.69.65,1,1Z"/>
  <path class="cls-245" d="M6,92h1c.87.28.86.62,0,1-.28.87-.62.86-1,0-.91.38-1.3,1.37-2,2v-3h2Z"/>
  <path class="cls-28" d="M85,93c.07.78-.91,1.02-1.95,1.02h-12.1c-1.04,0-2.03-.24-1.95-1.02h16Z"/>
  <path class="cls-162" d="M91,87c-.51,1.25-2.59.44-3.59,1.47s-.48,3.44-.2,4.53h-1.21v-1c-2.75-1.04-1.84-5.42,1-5,0-2.93,3.34-2.8,4,0Z"/>
  <path class="cls-256" d="M66,81c3.75.12,4.88,3.61,2,6,.8,1.57.62,3.97-1,5h-2c-3.16-1.48-6.55-2.55-10.39-2.44-1.28-.68-2.46-1.57-3.61-1.53-2.03-3.07.1-10.89,3-13.03.23-.83.57-.8,1,0,2.71-2.34,10.52,2.81,11,6Z"/>
  <path class="cls-314" d="M53,73c.8.26,1.36,1.11,1,2-.18,4.44-1.62,8.82-3,13.03-1.33.05-2.58.83-3.87,1.1l-.13-2.13c-.07-1.08-1-2.01-1-3,1.06-1.69,1.57-4.81,1.52-9.37l.48-.63c-.87-.51-.76-2.98,0-4,.28-.87.62-.86,1,0,2.2-1.02,3.71.92,4,3Z"/>
  <path class="cls-109" d="M87,87c-1.29,1.34-1,3.26-1,5h-2c-.95-.2-1.34-.59-1.18-1.18-2.64-.4-2.41-1.3.18-1.82-.87-.28-.86-.62,0-1-1.45-1.98-.18-3.54,2-4,.28-.87.62-.86,1,0,2.72.1,3.11,1.29,1,3Z"/>
  <path class="cls-203" d="M82.82,90.82c.54.22,1.03.6,1.18,1.18h-16c-.69-1.06-.16-1.53,1-1,3.49-3.09,10.09-2.84,13.82-.18Z"/>
  <path class="cls-193" d="M69,91c-.49,0-.9.58-1,1h-1c.49-1.64.88-3.29,1-5,.28-.87.62-.86,1,0,2.93,0,2.8,3.34,0,4Z"/>
  <path class="cls-39" d="M33,76c.97-.3,1.3.03,1,1,1.73-.53,1.73.47,0,3v2c-.86,2.04-2.19,3.04-4,3-.79.73-2.63.69-2.98,2-2.95,2.37-9.05-4.02-7.02-7-2.1-.57-2.17-1.44,0-2,.33,0,.68.05,1,0,1.53-1.11,3.99-2.41,6-2-.65-2.54.02-2.56,2-1,1.95-1.38,3.02-1.24,4,1Z"/>
  <path class="cls-102" d="M46,84v-5c.17-1.52.41-3.41,1-5,.28-.87.62-.86,1,0l.06,8.08c0,.86-.13,1.58-.6,1.88-.36.23-1.03.06-1.45.04Z"/>
  <path class="cls-190" d="M47,74c0,1.66.71,4.05-1,5,0-.46-.64-.82-1-1-1.48-2.06-1.82-6.18,1-7,.28-.87.62-.86,1,0,.86.29.72,2.3,0,3Z"/>
  <path class="cls-23" d="M45,78c-1.85,2.2-5.86,1.22-8,0,1.82-.34,3.82-.68,6-1,1.4-2.44,2.54-1.68,2,1Z"/>
  <path class="cls-1" d="M34,82c-.84,1.23-.43,2.7-.04,4.04-1.16-.81-2.57-1.06-3.96-1.04,1.25-1.15,2.09-2.97,4-3Z"/>
  <path class="cls-191" d="M37,77c.87.28.86.62,0,1-1.14-.65-2.44,1.27-3,2v-3c.06-2.86,2.32-2.73,3,0Z"/>
  <path class="cls-274" d="M27.02,87c-.26,1-.2,2.14-.9,3-2.07.62-3.98,1.61-6.12,2-1.73,1.82-2.81,1.38-2.94-1.14-2.75.26-4.08-1.19-3.06-3.86-1.61-1.36-.92-1.59,1-2-2.11-2.34,1.2-5.81,4-5,.32-.83.65-.83,1,0,1.95,2.64,4.16,5.37,7.02,7Z"/>
  <path class="cls-326" d="M14,87c1.17,1.17,2.5,2.27,3.06,3.86,1.35.99,1.78,2.59.94,4.14-.25.37-.64.64-.97.93-.68-.02-1.35.01-2.03.07-1.33.7-2.37-.64-1.7-2-2.67.11-3.8-2.7-3.3-5-.28-.11-.75.16-1,0v-1h1c.08-2.82,3.43-3.43,4-1Z"/>
  <path class="cls-278" d="M20,92l-2,3c-1.22-.98-2.04-2.82-.94-4.14.88.61,1.89.96,2.94,1.14Z"/>
  <path class="cls-215" d="M15,98c.4,1.66,1,3.28,1,5,.48.31.47.64,0,1-3.2-.84-6.04-2.55-9-4l2-3c-1.33-1.41-.77-1.92,1-1-1.11-2.58.18-3.04,2-1,1.53.16,2.47,1.59,3,3Z"/>
  <path class="cls-83" d="M19,110c-1.63-.54-2.77-1.86-4-3H7v-1c3.14-.08,6.98.78,9-2v-1c2.57,1.15,2.69,4.45,3,7Z"/>
  <path class="cls-258" d="M15,96c.11.64-.15,1.37,0,2-1.34-.6-2.4-1.66-3-3-1.7-2.04-.86-2.55,1.3-1,.27.79,1.25,1.32,1.7,2Z"/>
  <path class="cls-204" d="M154,88c2.15,1.36,1.73,3.84-1,4-.32,1.15-2.04,1.73-3,2-2.9.78-8.47-1.28-7-4.81-1.86-.71-1.86-1.44,0-2.19l-.57-3.03c-1.05-1.48-.86-2.14.57-1.97-.23-2.47.86-3.46,3.11-2.01,3.16.82,6.63,4.68,7.89,8.01Z"/>
  <path class="cls-309" d="M159,86c1.44-1.68,2.41-1.24,2.1.94,3.07.28,3.27,5.48,2.82,8.06,1.74.57.88,3.67-.92,2.99-.59.51-10.97-4.82-10-5.99.36-1.3.03-2.86,1-4v-1c.77-.84,2.33-1.08,3-2,1.82-2.04,2.45-1.68,2,1Z"/>
  <path class="cls-301" d="M150,94v1c-2.14,1.23-3.48,1.23-4,0-1.63.73-4.37.85-6,0-1.37.47-4.3.35-5-1-.94-.3-.47-1.32,0-2,.19-2.72,6.36-5.34,8-2.81,2.39,1.57,4.24,3.92,7,4.81Z"/>
  <path class="cls-56" d="M166,95c2.38.52.88,3.42-1,4-.11.45-.68.73-1,1l-1-2.01c.78-.73,1.18-1.93.92-2.99.31-.87.67-.86,1.08,0,.28-.87.62-.86,1,0Z"/>
  <path class="cls-227" d="M150,95c-.32.24-.62.9-1,1-.85-.05-1.34.73-2,1-.88.36-2.09-.28-3,0-.87-.28-.86-.62,0-1,.26-.42.92-.75,2-1h4Z"/>
  <path class="cls-336" d="M135,94c1.71.03,3.35.59,5,1,.87.28.86.62,0,1h-1c-1.41-.65-3.72.42-5-1-.3.08-.72-.11-1,0-1.4-1.59-.83-2.16,1-1,.24-.92.57-.9,1,0Z"/>
  <path class="cls-341" d="M144,96v1c-1.94.59-3.41-.27-5-1h1c.55-.88,3.05-.75,4,0Z"/>
  <path class="cls-133" d="M103,62c2.33-2.16,9.12,3.11,8,6,1.97-.49,2.97.51,3,3,2.56-2.43,5.82,2.35,3.87,4.9.91.2.91.53.06.98.08,2.69-.02,4.12-2.93,2.88-.44,2.8-4.64,5.85-6.86,3.32-2.04,2.86-6.17,1.39-6.09-2.13-.81-1.27-1.1-2.91-1.1-4.88v-12.14c-.01-.86.13-1.59.6-1.89.36-.23,1.03-.06,1.45-.04Z"/>
  <path class="cls-317" d="M107,56c1-.78,2.93-.84,4,0,1.2-.61,2.37-.4,2,1,2.09-.06,4.09.27,6,1,2.55-.98,3.04.15,1,2,.32,1.03-.35,1.7-2,2,1.69,2.56.03,5.23-3,5-1.11,2.2-2.44,2.53-4,1l-8-6c-.36-.27-.56-.8-1-1-.73-1.48-.95-3.74,0-5,.13-1.36,3.67-.47,5,0Z"/>
  <path class="cls-300" d="M104,39.94c1.69,1.93,1.59,8.92,0,11.06,1.91,2.31,1.14,3.58-1.79,3-.41.89-.81.9-1.21,0-.86-.3-2.22.45-3,0-1.77,2.19-2.92,1.87-3-1-.95.36-2.27-.28-3-1-2.66-.19-2.66-.86,0-2-1.58-1.76-.31-5.16,1.18-6.85.27-2.2,2.97-3.34,4.82-2.15.57-1.89,1.44-1.88,2,0l4-1.06Z"/>
  <path class="cls-266" d="M100,71c-2.48.29-5.15.62-8,1-1.03.7-1.7.03-2-2-2.72-.46-3.08-3.85-1.78-6-2.68-.03-2.66-.96-.22-2,.37-1.36,3.72-.56,5,0,1.15-.83,2.49-1.5,4-2.03.18-.92.52-.88,1,0l1.88,2.11c1.82,2.04-.08,6.12.12,8.93Z"/>
  <path class="cls-240" d="M91,53c1.14-.41,2.47-.41,4,0,.9.43,2.09.48,3,1,1.06.64,1.84,1.64,1.99,2.56.33,1.94.28,4.06-1.99,3.41-.33-.03-.67-.03-1,0-1.08.87-2.74,1.41-4,1.03-1.62.99-4.74.64-6-1-2.6.11-4.03-3.21-2.03-4.97-.81-.99-.13-1.67,2.03-2.03.28-2,3.4-1.63,4,0Z"/>
  <path class="cls-150" d="M108.14,83.08c2.89.95-.08,6.75-2.88,5.92.48,1.81-1.03,2.53-2.26,1-2.92-1.88-2.8-6.36-.95-9.05,1.67.96,4.08,2.05,6.09,2.13Z"/>
  <path class="cls-288" d="M106,91c-1.8,2.14-1.72,5.14-4,7-1.22,1.04-1.62-6.84-.42-7.86.33-.28,1.01.03,1.42-.14.76-.31,1.46-.78,2.26-1,2.69-.58,2.85.31.74,2Z"/>
  <path class="cls-188" d="M100,73l.02,14.06c0,.74-.57,1.09-1.02.94l-2.02-.84-.2-11.1c-4.68.68-6.61-.34-5.78-3.06,2.1-.92,6.46-.76,9,0Z"/>
  <path class="cls-29" d="M92,72c2.46-.86,5.7-.83,8,0v1h-9c-.28.87-.62.86-1,0-.82-.33-.82-.66,0-1-2.66-.32-2.54-1.24,0-2,.62.72,1.25,1.42,2,2Z"/>
  <path class="cls-331" d="M100,71c.02.33,0,.67,0,1h-8c1.94-2.16,5.35-.55,8-1Z"/>
  <path class="cls-167" d="M107,55c.87.28.86.62,0,1h-5c-.28.87-.62.86-1,0v-2c.37.13.82-.07,1.21,0,1.78-1.46,4.13-1.6,4.79,1Z"/>
  <path class="cls-133" d="M102,61c-1.72-.95-1-3.34-1-5h1v5Z"/>
  <path class="cls-241" d="M119.11,94.88c1.03-.21,1.32.16.89,1.12.81,1.64.24,4.44-2,4-.43.73-1.43.57-2,1-.16-.74-.47-1.45-1-2-1.94-.82-1.18-4.17.12-5.41-.51-.8-.23-.96.74-.57,1.4-2.83,2.51-.45,3.25,1.86Z"/>
  <path class="cls-184" d="M124.81,94.27c1.11,1.11,2.15,3.34,1.33,4.79l-.14.95c-.21,2.81-2.57,2.71-4,1h-1c-2.27-1.25-.68-4.4,1-6-.85-.33-.85-.66,0-1,1.18-2.59,1.89-2.3,2.81.27Z"/>
  <path class="cls-329" d="M121,101c-.91-.56-1.93-.91-3-1,1.24-1,1.01-2.77,2-4-.93-1.9.44-2.06,2-1-.53,1.97-1.16,3.94-1,6Z"/>
  <path class="cls-337" d="M125.22,104.08c-.14-.36-.06-.84-.21-1.53s-1.09-.71-1.01.45l-2,1v-3c1.4,0,2.81-.23,4-1-.2,1.33.44,3.19-.78,4.08Z"/>
  <path class="cls-253" d="M115,79.76c3.09-2.53,3.78,2.43,1,3.23.7,3.45.04,4.76-1.96,3.94-.49,2.57-1.46,4.54-2.91,5.91-1.52,1.15-3.22,2.12-4.13.17-.35-.65-.71-1.32-1-2s-.38-1.38-.74-2l2.88-5.92c2.38-.58,4.3-3.13,6.86-3.32Z"/>
  <path class="cls-98" d="M111.13,92.83c1.11-.23,1.4.16.87,1.17-.15,1.08-1.15,1.41-3,1-.25.39-.71.64-1,1-.08-1.08-.5-2.06-1-3,1.38.03,2.76,0,4.13-.17Z"/>
  <path class="cls-110" d="M115.12,93.59l-.12,5.41h-1l-2-2c-.48-.68-.15-1.35,1-2-1.48-1.86-.7-2.67,1.37-1.44.13-.88.38-.84.75.03Z"/>
  <path class="cls-351" d="M112,94c1.34-1.32,1.78-.75,1,1,.24.37.65.82.41,1.11-.43.52-1.03.84-1.41.89-.77-.96-1.84-1.6-3-2,.64-1.03,1.87-1.15,3-1Z"/>
  <path class="cls-33" d="M178.12,96.99l-1.12,2.01c-1,.94-3.59.62-5,0-.53-.09-.86-.75-1-2-1.48-1.31-2.3-2.53,0-3-1.33-1.41-.77-1.92,1-1h1c1.96,1.61,2.23,4.87,5.12,3.99Z"/>
  <path class="cls-157" d="M177,99c.66,0,1.13.28,1,1h-2c-.25,1.43-2.64,1.51-3,0-1.29,1.05-1.8.55-1-1h5Z"/>
  <path class="cls-18" d="M99,88c-.88-.29-2.18.15-3-.31-1.02.58-2.36.35-4-.69-.32.05-.67,0-1,0h-4c-.51-.93-.83-1.95-1-3-1.37-2.34-.66-7.22,2-8,.24-2.35.91-3.35,2-3h1c1.61,2.11,5.14.54,7.75,1l.25,14Z"/>
  <path class="cls-263" d="M96,87.69c.25,1.57-1.05,1.53-2.11.91-.66-.38-1.42-.87-1.89-1.6,1.44-.22,2.76-.02,4,.69Z"/>
  <path class="cls-231" d="M171,97c1.37,2.83,1.03,4.16-1,4,.02,1.1-.21,2.2-.89,3.08-.83.76-1.68,1.55-2.8,1.83l-.31-2.91.28-3.73c-.48-1.61.9-3.6,2.72-3.27.87-1.84,1.62-.7,2,1Z"/>
  <path class="cls-177" d="M169,96c-.5,1.38-1.38,2.62-2.72,3.27l-1.28-.27,1-4c-.84-1.24-.35-1.75,1-1,1.82.24,2.49.91,2,2Z"/>
  <path class="cls-308" d="M172,99l1,1c2.08,0,2.05,1.6,0,2-.93-.53-1.95-.83-3-1,.74-1.2,1-2.6,1-4,.68.44.95,1.22,1,2Z"/>
  <path class="cls-132" d="M176,100c.02.42.08.96-.15,1.41-.32.63-1.2.68-1.85.59h-1v-2h3Z"/>
  <path class="cls-287" d="M132,89c2.87.26,3.46,1.56,2,4,.66.29.64.63,0,1-.49.11-.85.55-1,1l-5.09,1.99c-1.7.78-2.66-1.28-3.1-2.73-1.87-.12-1.89-.87,0-1.27.21-1.53,1.94-3.07,3.36-3.82,1.11-1.92,2.6-1.94,3.83-.17Z"/>
  <path class="cls-48" d="M127.91,96.99l-1.77,2.06c-1.52-1.06-2.51-3.18-1.33-4.79,1.89-.43,2.56,1.12,3.1,2.73Z"/>
  <path class="cls-289" d="M130,66.68c1.84.54,2.64.88,1,2.32.87.27.86.61,0,1-.24,1.54-.91,2.54-2,3-.25.83-.58.81-1,0-1.37.98-3.04,1.65-5,2-1.35.93-2.69,1.23-4,.91.17,1.91-.58,1.89-1.13-.01-1.26-1.43-2.09-3.97-3.87-4.9-1.66-2.04-1.37-2.88,1-4,.86-1.75,1.95-3.35,3-5l1.43-.93c2.28.15,3.81-.21,4.57-1.07.28-.85.62-.84,1,0l5,6.68Z"/>
  <path class="cls-40" d="M123,57c.34.94,1.08,1.63,2,2v1h-1c-.27,1.52-3.53,1.57-4,0-.13-.75-.45-1.46-1-2-.87-.28-.86-.62,0-1,.23-1.58,2.93-.89,4,0Z"/>
  <path class="cls-153" d="M135,67v1c1.11,2.57-.17,3.05-2,1-.42,2.74-1.31,2.65-2,0-.8-.49-.54-1.71-1-2.32,1.66.19,3.33.31,5,.32Z"/>
  <path class="cls-277" d="M137,68c1.39,2.07,3.48,3.51,5.77,5.18l5.23,3.82c-.28.56.13,1.37,0,2,.45,1.91-.26,1.85-1.89.99-.83.79-1.88,2.01-3.11,2.01l-.78,1.81c-.77-1.09-2.18-1.7-4.22-1.81-.75.09-1.71.14-2.1-.41-1.9-2.74-5.23-10.06-2.9-12.59l2-1c.56-.28,1.36.08,2,0Z"/>
  <path class="cls-293" d="M108,40c.34,1.22,1.13,2.14,1.95,3.05s1.34,2,2.05,2.95c-.27,3.12-.6,6.12-1,9-.3.64-.63.63-1,0-3.96-.6-5.29-1.94-4-4-1.68-1.91-1.59-8.89,0-11h2Z"/>
  <path class="cls-259" d="M119.87,55c1.32,1.83-2.3,1.79-3.87,1-1.93.3-3.27-.03-4-1-.8-2.22-.98-5.68.41-7.55,2.86,2.11,5.5,4.58,7.46,7.55Z"/>
  <path class="cls-86" d="M112.41,47.45c-.44,2.49-.48,5.03-.41,7.55-.31.46-.64.44-1,0v-7.05c-.01-1.05.18-2.02,1-1.95.29.38.17,1.04.41,1.45Z"/>
  <path class="cls-35" d="M123,56c-.07.32.04.68,0,1h-4c-.89,1.08-3.72.74-3-1,1.38.11,2.93.14,3.87-1,.99.48,2.05.79,3.13,1Z"/>
  <path class="cls-14" d="M96.04,31.89l1.87,6.11c2.27.68,2.41,2.59.09,3-.98,1.4-3.3,2.68-4.82,2.15-.6,2.98-6.68.73-6.18-2.15-2.48.15-2.57-.15-1-2-3.52,1.04-3.36-2.1,0-3-.87-.28-.86-.62,0-1l3.1-2.9c1.27-.7,2.7-1.09,3.87-1.96,1.16.31,2.2.93,3.07,1.75Z"/>
  <path class="cls-348" d="M106,40v11c-.32,2.66-1.24,2.54-2,0v-11.06c.62-.17,1.35.06,2,.06Z"/>
  <path class="cls-118" d="M100,41c-.63.17-1.35-.09-2,0,.84-.9.76-2.13-.09-3,.86-.06,1.69.1,2.63.91.7.6-.02,1.22-.54,2.09Z"/>
  <path class="cls-27" d="M169,87.78l2,2.22c.55.92.85,1.95,1,3l-1,1c.11,1.75-1.23,1.75-4,0-.51,0-.89.56-1,1h-1c-1.35-2.66-3.66-9.2,1.4-8.27,1.32-2.47,2.68-1.73,2.6,1.05Z"/>
  <path class="cls-113" d="M171.11,82.85c-.19,1.48.27,3.07-.41,4.93-.22.61-1.43.2-1.7,0-.78-.54-1.66-.92-2.6-1.05-.4-.41-.34-.66.2-.73-1.93-1.64-1.89-1.72.64-1.91.24-.37.56-.69.76-1.08.93.85,2.21.69,3.11-.15Z"/>
  <path class="cls-338" d="M154,87v1c-2.29-3.03-5.05-5.52-7.89-8.01.5-.47,1.35-.57,1.89-.99,1.39,3.14,6,4.7,6,8Z"/>
  <path class="cls-148" d="M161,83c.35,1.35-.52,2.97-2,3l-2-1c1.17-1.62,2.8-2.99,3-5,1.07.57,1.05,1.9,1,3Z"/>
  <path class="cls-130" d="M155,74l-4,1v-1c.68.15.95-.42,1-1,1.09-.05,2.54-.22,3,1Z"/>
  <path class="cls-46" d="M167.24,84.08c-.08.68-.21,1.37-.64,1.91-2.42,2.17-4.11,1.18-3.6-2,.17-.53.12-1.14.21-1.68,1.44.36,2.89.79,4.03,1.76Z"/>
  <path class="cls-45" d="M166.6,86c.54.23.08.47-.2.73-2.32,2.14-.83,5.41-1.4,8.27h-1.08c-.7-2.79-2.81-5.07-2.82-8.06-1.43-1.14-.93-2.31.9-1.94.15-.39.87-.57,1-1,1.11.83,2.22,1.7,3.6,2Z"/>
  <path class="cls-291" d="M162,85c-.26.67-.41,1.39-.9,1.94-.72-.26-1.41-.6-2.1-.94-.04-1.35.63-2.66,2-3,.52.56.84,1.26,1,2Z"/>
  <path class="cls-174" d="M55,62c1.12,2.38-3.19,9.42-6,8h-1c-1.9-2.71-1.57-4.38,1-5l4-4c1.16-3.5,4.01-1.42,2,1Z"/>
  <path class="cls-217" d="M49,65c-1,1.48-1,3.27-1,5v4h-1v-3c-.19-1.94-.86-3.27-2-4,.53,2.93-2.63,3.52-4,1,.14-.64-.45-.92-1-1,2.51-2.07,6.17-.45,9-2Z"/>
  <path class="cls-93" d="M57,57c1.94,1.43,1.42,3.39,0,5-.56,1.89-1.43,1.91-2,0,.1-.26.11-1.8-.4-1.86-.41-.05-1.31.57-1.6.86v-2l4-2Z"/>
  <path class="cls-79" d="M65,32c2.51-1,3.89.33,3,3,1.12-.41,1.45.25,1,2-1.11,1.45-1.14,3.44-1.18,5.18,1.51,2.16.87,2.9-1.71,2.74.27,2.42-1.1,2.66-3.12,2.08-2.13,1.95-3.29,1.16-5-1l-1-2c-.3-1.95.07-4.29,1-6-.66-1.1-.21-2.45,1-3,.22-.63.63-1.45,1-2s1.55-.49,2-1c1.39-.63,2.39-.63,3,0Z"/>
  <path class="cls-283" d="M63,48c3.21-3.51,3.27,1.14,2.08,4,3.12.23,2.46,4.03-.08,5,1.74,1.93-.15,5.66-2.85,5.01-1.57,2.88-2.69,3.21-3.37.98-1.98,1.77-2.34,1.6-1.78-.99-1.41-1.59-.83-3.35,0-5,.89-1.77.92-4.32,2-6,.23-3.37,1.57-4.37,4-3Z"/>
  <path class="cls-126" d="M57,37c.89.25.87.58,0,1,.83,1.01.49,3.74-1,4l-3.8-4.09c-1.45-1.89,3.31-1.84,4.8-.91Z"/>
  <path class="cls-230" d="M47,34c.34.28.65.6.91.96-.92.94-2.58,2.82-3.8,1.45.94-1.29-.12-2.89-.11-4.42l3,2Z"/>
  <path class="cls-143" d="M63,47c.87.28.86.62,0,1-1.34.3-3.15,1.69-4,3,1.01-1.82-.15-3.3-1-5,1.66.41,3.27,1.09,5,1Z"/>
  <path class="cls-333" d="M57,44c-.32-.64-1.21-1.15-1-2l1-4c.28-.87.62-.86,1,0,.1,2.05.15,4.23-1,6Z"/>
  <path class="cls-214" d="M57,36c.87.28.86.62,0,1-1.58.13-3.9-.7-4.8.91-.69-.74-1.78-.81-2.2-1.91h7Z"/>
  <path class="cls-84" d="M86,36c-.75.88-.82,2.14,0,3-.3,1.44-1.58,2.82-3.83,4.14-1.36,2.19-2.75,3.42-4.17,3.71-1.64,2.92-6.58,1.36-6.19-1.98-.86-.26-.81-.54.08-.84,1.39-2.42,4.32-2.98,6.12-5.02.22-1.1.66-2.23,2-2.01.34-2.65,1.26-2.53,2,.01.49-1.78,2.78-2.42,4-1Z"/>
  <path class="cls-244" d="M71,27c-1.01,1.17-.92,2.79,0,4-1.01,1.07-1.62,2.38-1.81,3.92l-1.19.08c-.87-1.12-2.48-1.55-3-3-1.95.08-1.35-.95,0-2,.57-1.39,1.03-2.84,2-4,1.18.8,2.59,1.09,4,1Z"/>
  <path class="cls-292" d="M71.88,44.02l-.08.84c.36,3.35-3.25,3.73-4.04.58-1.04,1.73-1.81,1.47-1.65-.53.61-.89,1.2-1.79,1.71-2.74,1.14,1.01,2.6,1.48,4.06,1.85Z"/>
  <path class="cls-145" d="M79,31c1.36,1.18,2.05,4.29,1,5.99.35,1.53-1.45,1.39-2,2.01v-9c1.04-1,1.36-.44,1,1Z"/>
  <path class="cls-249" d="M71,31c-.47,2.1-.68,4.28-2,6-.83-.31-.6-1.48-1-2,1.17-.74.76-3.01,1.63-3.84.3-.29.92-.26,1.37-.16Z"/>
  <path class="cls-272" d="M80,31c-.28.87-.62.86-1,0-.06-.49-.54-.92-1-1l.12-3c1.55.79,1.3,2.66,1.88,4Z"/>
  <path class="cls-344" d="M82,35c2.66.2,2.66.86,0,2h-2c-1.9-1.23-.75-4.01-1-6h1c.58,1.35,2,2.34,2,4Z"/>
  <path class="cls-302" d="M86,34c.87.28.86.62,0,1v1c-1.4-.01-2.79.27-4,1v-2l4-1Z"/>
  <path class="cls-178" d="M89.1,32.1c-.48,1.47-1.39,3-3.1,2.9v-1c.44-1.34,1.73-2,3.1-1.9Z"/>
  <path class="cls-210" d="M29,69c.81-.11,1.64.2,1.83.74.4,1.17.25,2.34.17,3.26,1.7,1.1,1.03,1.77-2,2-.63.63-1.26.69-2,1-2.07.3-4.07.63-6,1-.32-.31-.73-.57-.98-.94l-.75-1.13c.1-1.34.36-2.67.82-3.94,1.25-.06,2.33-.93,2.92-1.99h6Z"/>
  <path class="cls-334" d="M17,70.68c-1.07,2.47-5.16,1.75-7,.32,2.11-1.31,4.77-1.4,7-.32Z"/>
  <path class="cls-44" d="M41,68c.85.33.85.66,0,1l1,6c2.66-.58,3.05.19,1,2-1.87.58-4.4.99-6,0h-3c-.35-.31-.61-.74-1-1-2.12-1.35-2.46-2.35-1-3v-5h9Z"/>
  <path class="cls-349" d="M33,76c-1.18-.79-2.6-1.01-4-1l2-2h1c.51.93.82,1.95,1,3Z"/>
  <path class="cls-248" d="M65,32c-.09,0-3.95,1.29-3,0,.81-.92,1.82-1.63,3-2-.24.58.17,1.39,0,2Z"/>
  <path class="cls-169" d="M59,35c-.34.99-.38,2.1-1,3h-1c.08-.31,0-.68,0-1v-1l1-1h1Z"/>
  <path class="cls-171" d="M10,96l-1,1c-1.98-.43-3.58-1.88-3-4h1c2.63-.84,4.01.29,3,3Z"/>
  <path class="cls-236" d="M20,78v2c-.29-.07-.75.14-1,0-1.38,1.14-3.22,1.45-5.52.92-.13,2.27-.95,3.63-2.48,4.08-.28.87-.62.86-1,0v-1c0-1.83-.19-3.63.09-5.97l9.91-.03Z"/>
  <path class="cls-242" d="M18.92,75.81c-2.24,2.47-5.89.72-8.92,1.19-.12-.49.33-.88,1.04-.91l7.88-.28Z"/>
  <path class="cls-306" d="M27,76c-1.95.81-3.89,1.7-6,2v-1c1.97-.38,4.56-3.11,6-1Z"/>
  <path class="cls-286" d="M15,85c-.45.57-.78,1.28-1,2-.65-.42-1.46-.9-2.28-.66-.75.23-1.23,1.04-1.72,1.66v-3h1c0-2.93,3.34-2.8,4,0Z"/>
  <path class="cls-135" d="M9,88c-.31.43-.64.42-1,0-.15-.26.07-.7,0-1,.38.28.72.61,1,1Z"/>
  <path class="cls-78" d="M13.3,94l-1.3,1-2,1c-1-1.01-2.33-1.68-3-3v-1c1.37-.55,2.38-1.67,3-3,2.07.8,2.63,3.06,3.3,5Z"/>
  <path class="cls-10" d="M9,89c-.38-.23-.78-.61-1-1h1v1Z"/>
  <path class="cls-353" d="M63.27,67.85c2.2-1.48,6.9,2.5,4.64,5.08,1.83,2.08,1.95,3.43.35,4.06,2.98,1.75,1.04,5.02-2.27,4.01-3.97-1.39-7.14-4.37-11-6-.87-.31-1.36-1.19-1-2,.72-2.56,5.25-7.15,7.86-5.12,0-1.93.77-1.92,1.41-.04Z"/>
  <path class="cls-213" d="M71,77c1.93-.44,2.93.22,3,2,2.6-.66,3.11.67,2,3,2.79,3.56-4.12,5.13-7,5h-1c.15-2.2-.94-4.11-2-6,1.23-1.02,2.05-2.43,2.27-4.01-.47-2.39,2.1-1.72,2.73.01Z"/>
  <path class="cls-69" d="M55,75c-.28-.12-.7.07-1,0l-1-2c.28-.87.62-.86,1,0l1,2Z"/>
  <path class="cls-30" d="M57,62c.64.17,1.17.74,1.78.99,1.3-.01,4.21,3.31,3.08,4.89-2.95,1.41-4.51,5.12-7.86,5.12h-1c-1.89,0-3.27-1.35-4-3,2.15-2.59,3.32-5.89,6-8,.64.12,1.38-.17,2,0Z"/>
  <path class="cls-343" d="M78,74c3.29-1.64,9.87,7.21,7,10,.09,1.61-.67,3.1-2,4-1.38.04-2.71-.63-4-2-2.67.74-4.49-1.65-3-4-.87-.86-1.64-1.79-2-3-1.91-1-1.9-1.95,0-3-.45-1.04-.21-2,1-2-.79-1.28-.57-2.84,1-2,1.71-1.01,2.58.21,2,2Z"/>
  <path class="cls-8" d="M79,86l4,3-.18,1.82c-4.6.32-9.21.14-13.82.18v-4c1.6-3.73,6.43-1.94,7-5,1.17,1.16,2.24,2.53,3,4Z"/>
  <path class="cls-219" d="M84,73c2.89-1.27,6.61-.97,4,3,.36,2.83-.85,5.46-2,8h-1c1.09-.78-6.15-9.13-7-10-1.45-1.34-.98-2.42,1-2,1.36-1.17,3.99-.56,5,1Z"/>
  <path class="cls-295" d="M83,88v1c-1.97.06-3.17-1.39-4-3,1.55.14,2.79,1.09,4,2Z"/>
  <path class="cls-198" d="M45,67c1.71.35,1.89,2.63,1,4-.13,2.19.55,5.15-1,7l-2-1c-.13-.72-.62-1.38-1-2l-1-6c.04-.33-.07-.68,0-1l4-1Z"/>
  <path class="cls-159" d="M47,71h-1c.08-1.4-.26-2.81-1-4,.79-.2,1.84-.21,1.95.61.18,1.35.05,2.39.05,3.39Z"/>
  <path class="cls-182" d="M43,77c-1.6,1.54-3.93.97-6,1v-1h6Z"/>
  <path class="cls-4" d="M19,80l-4,5h-4l.07-5.88c2.99-.34,5.68-.4,7.93.88Z"/>
  <path class="cls-32" d="M143,87c.83.54.48,1.5,0,2.19-2.69.93-5.16,2.44-8,2.81-.13.8-.46,1.13-1,1-1-1.15-1.45-2.6-2-4,.66-.89,1.66-1.89,3-3-.57-2.56.48-3.51,3-3,3.25-1.73,4.92-.4,5,4Z"/>
  <path class="cls-16" d="M143,82v5c-1.17-.62-.53-2.44-1.44-3.58-.84-1.05-2.68-.28-3.56-.42-.82-.26-.8-.6,0-1h5Z"/>
  <path class="cls-21" d="M146,95c-.2.92-1.21,1-2,1h-4v-1h6Z"/>
  <path class="cls-9" d="M135,94c-.32,0-.69-.07-1,0v-1c.26-.29.56-.94,1-1v2Z"/>
  <path class="cls-335" d="M129,78c2.66.32,2.54,1.24,0,2,1.09,1.66,1.09,2.66,0,3-.49,1.58-1.19,2.92-2.09,4.02.88.27.87.62.02,1.03-.36.97-.98,1.18-1.85.61-3.36.65-6.25-4.59-5.98-7.78-2.25.17-2.68-2.24-1.18-4-.08-.28.1-.76-.06-.98h1.13c1.33.26,2.67-.04,4-.9,1.68-.74,3.35-1.08,5-1,1.71-.24,1.72,2.5,1,4Z"/>
  <path class="cls-41" d="M119.1,80.88c.74,3.43,1.32,6.94,1.75,10.54l-1.68,1.57c1.47,1.05,1.81,1.61-.07,1.89l-3.25-1.86c-.46-3.06-.42-6.41.14-10.03l.41-2.51c.08-.51-.86-.64-1.41-.72.94-1,1.87-2.01,2.93-2.88l1.18,4Z"/>
  <path class="cls-107" d="M115,67c-.62,1.27-1.14,2.54-1,4-1.45-.77-1.83-2.12-3-3l4-1Z"/>
  <path class="cls-125" d="M124,60c.01.42.19,1.11-.04,1.45-.33.49-1.04.61-1.92.6l-4.04-.05c.48-.75.93-2,2-2h4Z"/>
  <path class="cls-209" d="M116,56c.36,1.77-1.55,1.34-3,1-.41-.39-1.62-.47-2-1-.3-.42.04-.75,1-1,1.4,0,3.09-.27,4,1Z"/>
  <path class="cls-297" d="M119,57v1c-1.9.22-4.77.17-6-1,1.05-.18,2.07-.49,3-1,.73,1.02,1.84,1,3,1Z"/>
  <path class="cls-11" d="M110,55h2c-.14.49-.48.91-1,1-1.29-.1-2.7,0-4,0v-1c-.39-1.58.61-1.58,3,0Z"/>
  <path class="cls-121" d="M87,41l6.18,2.15c1.11,2.42.53,4.85-1.18,6.85-.75,2.81-4.35,2.63-5-.13-.33.86-.66.83-1-.05-1.82.17-3.65-.72-4.92-2-.21.88-.51.85-.89-.02-1.94-2.03,4.26-8.05,6.8-6.8Z"/>
  <path class="cls-267" d="M106,51l4,4h-3c-1.68,0-3.61.43-4.79-1,.66-.96,1.29-1.95,1.79-3h2Z"/>
  <path class="cls-307" d="M92,50v2c.4.85.03,1.15-1,1-1.32.14-2.67,0-4,0-1.77-1.46-1.8-1.66,0-3.13,1.63.7,3.54,1.41,5,.13Z"/>
  <path class="cls-216" d="M95,53c-.71,1.45-2.68-.14-4,0,.31-.35.65-.69,1-1,1.29-.45,2.04.54,3,1Z"/>
  <path class="cls-52" d="M90,70v2c-.7,1.87-1.31,2.21-2.57.57-1.43.12-2.58-.07-3.43-.57-1.75-.17-3.42-.51-5-1-.87-.28-.86-.62,0-1-2.61-1.77.26-6.16,3-5-.22-1.22.69-1.39,2.74-.5l2.26-.5c-.18-1.94.62-1.94,1.22,0,1.33,1.72,1.78,3.85,1.78,6Z"/>
  <path class="cls-299" d="M84.97,55.03c.99,1.53,1.77,3.16,2.03,4.97,1.56.73,1.89,1.39,1,2l.22,2h-1.22c-2.33,1.06-4.64.82-5-2l-1-6c-.87-.28-.86-.62,0-1,.06-2.44.73-3.11,2-2,1.79.4,2.45,1.07,1.97,2.03Z"/>
  <path class="cls-146" d="M97,59.97c-.52,1.83-2.31,2.03-4,2.03-.87-.28-.86-.62,0-1,1.05-1.07,2.57-1.18,4-1.03Z"/>
  <path class="cls-95" d="M93,61v1h-5c-.08-.71-.9-1.29-1-2,1.97.54,3.94,1.19,6,1Z"/>
  <path class="cls-207" d="M87,53c-.64.72-1.35,1.36-2.03,2.03-.8-.46-1.66-1.11-1.97-2.03-.27-1.97,3.76-2.14,4,0Z"/>
  <path class="cls-138" d="M90,72c0,.31.1.7,0,1-.38,1.16-1.07,2.21-2,3,.07-1.03.36-2.33-.61-2.91s-2.49.33-3.39-.09c-.69-.29-.68-.63,0-1h6Z"/>
  <path class="cls-233" d="M115.86,93.02c-.28.14-.52.34-.74.57l-.75-.03c-3.09-.95-1.62-4.48-.34-6.64,1.11-.9,1.62-2.66,1.96-3.94,1.66,3.04,1.67,7.05-.14,10.03Z"/>
  <path class="cls-43" d="M122,94c-.05.32.08.69,0,1l-2,1c-.24-.41-.54-.79-.89-1.12-.09-.6.21-1.3.07-1.89,1.87-1.99,2.66-1.67,2.82,1.01Z"/>
  <path class="cls-221" d="M125.09,88.67c2.05,1.09,1.75,3.37-.28,4.33v1.27c-.84.19-1.93-.24-2.81-.27-1-.03-1.93-.63-2.82-1.01-.98-4.04-2.12-8.32-.07-12.11,2.41,2.2,4.13,5.11,5.98,7.78Z"/>
  <path class="cls-41" d="M114.37,93.56c-.5.34-1.2.84-1.37,1.44l-1-1c-.17-.47-.44-.9-.87-1.17-.6-2.52,1.08-4.41,2.91-5.91-.02,2.22-.02,4.45.34,6.64Z"/>
  <path class="cls-156" d="M171,94v3l-2-1c-.7-.63-1.37-1.3-2-2h4Z"/>
  <path class="cls-38" d="M128.17,89.17c-.04.99-.2,2.05-.68,2.84-.57.96-1.72,1.01-2.69.98-.01-1.45.09-2.89.28-4.33.6-.25,1.21-.47,1.85-.61,1.77-1.34,2.38-.78,1.23,1.12Z"/>
  <path class="cls-76" d="M131,86c.82.27.81.6,0,1,2.61-.35,2.95.32,1,2-1.22.59-2.48.53-3.83.17-.18-.57-.62-1.05-1.23-1.12l-.02-1.03c.49-1.35.99-2.22,2.09-1.02.32-2.66,1.24-2.54,2,0Z"/>
  <path class="cls-55" d="M133,69c.71,5.18,4.87,10.39,5,13,.01.29.1.73,0,1-.52,1.39-1.71,2.34-3,3-.76,1.85-2.81,2.76-4,1-.07-.24-.04-.76,0-1-.83-1.75-1.49-3.75-2-6v-2c.11-1.97.44-3.3,1-4-.2-1.19.14-2.53,1-4-.1-.3.07-.69,0-1,.64-.1,1.44.28,2,0Z"/>
  <path class="cls-265" d="M130,74c-.57,1.15.85,3.5-1,4,0-1.4-.26-2.8-1-4-.87-.28-.86-.62,0-1,.3-.06.7-.05,1,0,1.2-1.64,1.73-.96,1,1Z"/>
  <path class="cls-350" d="M128,73v1c-1.48.97-3.27,1.1-5,1,1.29-1.35,3.22-1.67,5-2Z"/>
  <path class="cls-199" d="M130,74c-.13-.47-.5-.92-1-1,.39-1.16.97-2.29,2-3,.54,1.58-.37,2.75-1,4Z"/>
  <path class="cls-321" d="M123,75c-.56.59-1.1,1.19-1.97,1.63-.74.37-1.59.26-2.03-.72,1.22-.68,2.61-.9,4-.91Z"/>
  <path class="cls-71" d="M87,41c-3.1.71-6.16,3.67-6.8,6.8-1.88,2.03-2.55,1.77-2.2-.95,2.16-3.08,5.19-5.38,8-7.85.53.56.97,1.19,1,2Z"/>
  <path class="cls-189" d="M66.12,44.92c.55.1,1.08.53,1.65.53,2.26,1.87.63,7.4-2.69,6.56.03-1.77.22-4.08-2.08-4v-1c.34-1.41,1.74-2.03,3.12-2.08Z"/>
  <path class="cls-51" d="M80,51c2.42.86,2.06,3.04,0,4,.37,4.09-5.51,11.61-10,11-.52,2.09-2.41,1.17-4,.17-.42.9-.8.84-1.14-.13-2.74,1.79-7.1-2.84-2.71-4.03.8-1.38,1.43-3.97,2.85-5.01l.7-2.27c1.69-1.1,12.49-6.24,13.21-5.74.4.28.75.63,1.09,1.01.86.25.84.58,0,1Z"/>
  <path class="cls-91" d="M71.81,44.87c1.93,1.04,4.03,1.67,6.19,1.98.74.11,1.4.94,2.2.95,1.04,1.12,1.39,1.82-.2,2.2-4.28,1.58-10.03,5.87-15,7l.08-5c1.66-1.83,1.24-4.59,2.69-6.56,1.37-.01,2.9.3,4.04-.58Z"/>
  <path class="cls-13" d="M62.15,62.01c-.22.38-1.38,1.14-1.13,1.51,1.26,1.73,2.92,1.57,3.84,2.52,1.4,2.39.97,2.88-1.59,1.81l-1.41.04c-1.05-1.64-2.68-2.93-3.08-4.89,1.17-.13,2.29-.52,3.37-.98Z"/>
  <path class="cls-312" d="M42,75c-1.05-1.75-2.58-4.24-1-6,1.15,1.78,1.11,3.95,1,6Z"/>
  <path class="cls-173" d="M70,69c1.72-2.65,4.32-.96,3,2,.64.79,1.48,3.58,0,4,.98,1.44.62,3.38-1,2-2.19-.81-3.67-1.54-4.08-4.08-1.08-2.07-2.3-4.01-4.64-5.08.57-.56,1.1-1.16,1.59-1.81.26.11.84.16,1.14.13,2.3.32,3.63,1.26,4,2.83Z"/>
  <path class="cls-180" d="M72,77c-.29.66-.63.64-1,0h-2.73c-.23-1.36-.34-2.71-.35-4.08.85,1.39,3.84,1.94,4.08,4.08Z"/>
  <path class="cls-62" d="M74,76v3c-1.3-.11-2.67-.65-3-2h1c1.11,0,1-1.18,1-2,1.25-.99,1.73-.46,1,1Z"/>
  <path class="cls-72" d="M74,71c.91-.08,1.25.92,1,3-.03.78-.17,1.7-1,2-.15-.49-.49-.89-1-1v-4c-.39-2.05.4-2.12,1,0Z"/>
  <path class="cls-322" d="M79,70v1c.87.28.86.62,0,1-.54.55-.85,1.25-1,2-.9-.4-1.65-1.07-2-2,.02-.65.35-.98,1-1-.83-2.79.17-3.24,2-1Z"/>
  <path class="cls-61" d="M77,71c-.35.31-.62.73-1,1-.66.46-.97,1.2-1,2-1.22-.46-1.05-1.91-1-3,.06-2.86,2.32-2.73,3,0Z"/>
  <path class="cls-250" d="M84,72v1c-1.58-.74-3.21-1.25-5-1v-1c1.74-.13,3.67-.31,5,1Z"/>
  <path class="cls-225" d="M132,89c-.27-.68-.79-1.3-1-2,1.4.02,2.81-.23,4-1-.04.71-.25,1.38-.53,2.01-.47,1.08-1.7.61-2.47.99Z"/>
  <path class="cls-228" d="M131,86h-2c-1.7.19-1-1.96,0-3v-3c1.56,1.38,3.11,4.09,2,6Z"/>
  <path class="cls-60" d="M129,86c-.58.54-1.32.85-2.09,1.02-.04-1.65.29-3.59,2.09-4.02v3Z"/>
  <path class="cls-85" d="M86,49.82l1,.05c.74.95.82,2.2,0,3.13h-4c-.86.37-1.86-.3-3-2,.03-.33-.05-.67,0-1,.1-.72.05-1.48.2-2.2l.89.02c1.43,1.3,2.97,1.99,4.92,2Z"/>
  <path class="cls-94" d="M86,49.82c-1.6,1.63-4.27-.1-4.92-2,1.65.67,3.59.75,4.92,2Z"/>
  <path class="cls-161" d="M81,56l1,6c1.65,2.03,1.65,3.03,0,3-.95,1.71-2.28,3.18-3,5-.82-.09-1.44.61-2,1h-3c-.31-.2-.7-.45-1,0-.74-1.07-1.86-1.53-3-2-1.72-1.31-2.49-2.38,0-3,.26-1.76,2.47-2.06,3.62-3.43l6.38-7.57c.31-.47.64-.45,1,0v1Z"/>
  <path class="cls-117" d="M87,64c-1.29,1.35-3.26,1.11-5,1v-3c1.35,1.48,2.82,2.58,5,2Z"/>
  <path class="cls-247" d="M83,53c-.72.61-1.37,1.29-2,2h-1c1.01-1.18.95-2.79,0-4,1.42-.1,2.55.67,3,2Z"/>
  <path class="cls-273" d="M82,62c-1.52-1.67-1-3.8-1-6,1.88,1.27,1,4.01,1,6Z"/>
  <path class="cls-313" d="M70,66v3c-1.53-.62-3.29-1.27-4-2.83,1.33-.12,2.66-.22,4-.17Z"/>
</svg>