<?xml version="1.0" encoding="UTF-8"?>
<svg id="Layer_1" data-name="Layer 1" xmlns="http://www.w3.org/2000/svg" viewBox="0 0 500 500">
  <defs>
    <style>
      .cls-1 {
        fill: #898989;
      }

      .cls-2 {
        fill: #f9f9f9;
      }

      .cls-3 {
        fill: #fefefe;
      }
    </style>
  </defs>
  <path class="cls-1" d="M201.19,325.02c0-42.1-34.13-76.22-76.22-76.22s-76.22,34.13-76.22,76.22,34.13,76.22,76.22,76.22,76.22-34.13,76.22-76.22ZM180.95,325c0-30.9-25.05-55.94-55.94-55.94s-55.94,25.05-55.94,55.94,25.05,55.94,55.94,55.94,55.94-25.05,55.94-55.94Z"/>
  <path class="cls-1" d="M452.25,325.02c0-42.1-34.13-76.22-76.22-76.22s-76.22,34.13-76.22,76.22,34.13,76.22,76.22,76.22,76.22-34.13,76.22-76.22ZM431.95,325c0-30.9-25.05-55.94-55.94-55.94s-55.94,25.05-55.94,55.94,25.05,55.94,55.94,55.94,55.94-25.05,55.94-55.94Z"/>
  <path class="cls-1" d="M326.21,121.97c0-42.1-34.13-76.23-76.23-76.23s-76.23,34.13-76.23,76.23,34.13,76.23,76.23,76.23,76.23-34.13,76.23-76.23ZM305.95,122c0-30.9-25.05-55.94-55.94-55.94s-55.94,25.05-55.94,55.94,25.05,55.94,55.94,55.94,55.94-25.05,55.94-55.94Z"/>
  <path class="cls-3" d="M300.61,314.01c-1.21,8.26-1.05,16.66.47,24.86h-101.16c1.52-8.21,1.67-16.61.47-24.87h100.22Z"/>
  <path class="cls-3" d="M346.42,254.79c-7.75,3.27-14.91,7.8-21.18,13.4l-46.39-75.67c8.03-3.29,15.44-7.92,21.92-13.7l45.65,75.97Z"/>
  <path class="cls-3" d="M222.02,192.88l-46.26,75.31c-6.26-5.59-13.4-10.12-21.13-13.38l46.02-74.73c6.37,5.41,13.59,9.73,21.37,12.8Z"/>
  <circle class="cls-2" cx="125" cy="325" r="55.94"/>
  <circle class="cls-2" cx="376" cy="325" r="55.94"/>
  <circle class="cls-2" cx="250" cy="122" r="55.94"/>
</svg>