<svg xmlns="http://www.w3.org/2000/svg" width="256" height="256" viewBox="0 0 128 128">
  <defs>
    <radialGradient id="mindGateAura">
      <stop offset="0%" stop-color="#040426" stop-opacity="1" />
      <stop offset="40%" stop-color="#06063b" stop-opacity="0.75" />
      <stop offset="100%" stop-color="#00000000" stop-opacity="0" />
    </radialGradient>

    <!-- Glow filter -->
    <filter id="glow" x="-50%" y="-50%" width="200%" height="200%">
      <feGaussianBlur in="SourceAlpha" stdDeviation="3" result="blur" />
      <feMerge>
        <feMergeNode in="blur" />
        <feMergeNode in="blur" />
        <feMergeNode in="SourceGraphic" />
      </feMerge>
    </filter>
  </defs>

  <circle cx="64" cy="64" r="56" fill="url(#mindGateAura)" opacity="1" />

  <g filter="url(#glow)" fill="#fbffb0" stroke="#06063b" stroke-width="3" stroke-linejoin="round">
    <path
      d="M254 625Q213 587 187.5 547 162 507 151 458.5 140 410 140 345 140 317 146.5 290.5 153 264 165 238 205 292 250 338.5 295 385 335 419 417 489 486.5 519 556 549 595 549 658 549 699.5 515.5 741 482 761.5 427 782 372 782 306 782 251 764 195 746 139 711 92.5 676 46 624 18 572 -10 503 -10 421 -10 374.5 31.5 328 73 328 140 328 190 349.5 217 371 244 408 244 432 244 447 230.5 462 217 462 194 462 162 441 148.5 420 135 394 132 391 123 391 112 391 71 423 50.5 455 30 495 30 546 30 579 56 612 82 632 122 652 162 661.5 203.5 671 245 674 278 677 311 677 322 677 336 674 363.5 671 391 660 420.5 649 450 626 471 603 492 564 492 518 492 465.5 465 413 438 360 394 312 354 267 304 222 254 185 200 207 162 233.5 125.5 260 89 284 53 308 17 323.5 -19.5 339 -56 339 -95 339 -159 305.5 -200 272 -241 218 -241 169 -241 129.5 -217 90 -193 67 -151 44 -109 44 -56 44 -6 62 47.5 80 101 107 149 82 192 65.5 238.5 49 285 49 337 49 397 69.5 447.5 90 498 120.5 538 151 578 183 605.5 215 633 238 647ZM249 -134Q249 -93 231 -53.5 213 -14 186 26.5 159 67 131 110 109 67 97 25.5 85 -16 85 -51 85 -98 104 -131 123 -164 150 -181.5 177 -199 200 -199 223 -199 236 -182 249 -165 249 -134Z"
      transform="translate(64 79) scale(0.0176 -0.0176) translate(-413 0)"
    />
  </g>
</svg>
