<svg xmlns="http://www.w3.org/2000/svg" width="256" height="256" viewBox="0 0 128 128">
  <defs>
    <radialGradient id="mindGateAura">
      <stop offset="0%" stop-color="#fbffb0" stop-opacity="1" />
      <stop offset="30%" stop-color="#ffb82b" stop-opacity=".8" />
      <stop offset="60%" stop-color="#ffc145" stop-opacity=".4" />
      <stop offset="100%" stop-color="#ffffff" stop-opacity="0" />
    </radialGradient>

    <!-- Soft glow filter keeps the rune visible on mobile Safari implementations. -->
    <filter id="glow" x="-50%" y="-50%" width="200%" height="200%">
      <feGaussianBlur in="SourceAlpha" stdDeviation="3.5" result="blur" />
      <feMerge>
        <feMergeNode in="blur" />
        <feMergeNode in="blur" />
        <feMergeNode in="SourceGraphic" />
      </feMerge>
    </filter>
    
    <!-- Mind-gate psychic energy particles -->
    <circle id="mindGate1" r="2" fill="#ffe890" opacity="0">
      <animate attributeName="opacity" 
        values="0;0.7;0.7;0" 
        keyTimes="0;0.2;0.7;1" 
        dur="4s" 
        repeatCount="indefinite" />
      <animateTransform attributeName="transform" type="translate"
        values="64,64; 50,40; 40,30; 30,20"
        keyTimes="0;0.33;0.66;1"
        dur="4s" 
        repeatCount="indefinite" />
    </circle>
    
    <circle id="mindGate2" r="2" fill="#ffd47a" opacity="0">
      <animate attributeName="opacity" 
        values="0;0.7;0.7;0" 
        keyTimes="0;0.2;0.7;1" 
        dur="4s" 
        begin="1s"
        repeatCount="indefinite" />
      <animateTransform attributeName="transform" type="translate"
        values="64,64; 78,40; 88,30; 98,20"
        keyTimes="0;0.33;0.66;1"
        dur="4s" 
        begin="1s"
        repeatCount="indefinite" />
    </circle>
    
    <circle id="mindGate3" r="2" fill="#ffe890" opacity="0">
      <animate attributeName="opacity" 
        values="0;0.7;0.7;0" 
        keyTimes="0;0.2;0.7;1" 
        dur="4s" 
        begin="2s"
        repeatCount="indefinite" />
      <animateTransform attributeName="transform" type="translate"
        values="64,64; 50,88; 40,98; 30,108"
        keyTimes="0;0.33;0.66;1"
        dur="4s" 
        begin="2s"
        repeatCount="indefinite" />
    </circle>
    
    <circle id="mindGate4" r="2" fill="#ffd47a" opacity="0">
      <animate attributeName="opacity" 
        values="0;0.7;0.7;0" 
        keyTimes="0;0.2;0.7;1" 
        dur="4s" 
        begin="3s"
        repeatCount="indefinite" />
      <animateTransform attributeName="transform" type="translate"
        values="64,64; 78,88; 88,98; 98,108"
        keyTimes="0;0.33;0.66;1"
        dur="4s" 
        begin="3s"
        repeatCount="indefinite" />
    </circle>
    
    <!-- Pulsing aura ring -->
    <circle id="mindGateRing" cx="64" cy="64" r="40" fill="none" stroke="#ffde90" stroke-width="1" opacity="0">
      <animate attributeName="opacity" 
        values="0;0.4;0" 
        keyTimes="0;0.5;1" 
        dur="3s" 
        repeatCount="indefinite" />
      <animate attributeName="r" 
        values="40;50;56" 
        keyTimes="0;0.5;1" 
        dur="3s" 
        repeatCount="indefinite" />
    </circle>
  </defs>

  <circle cx="64" cy="64" r="56" fill="url(#mindGateAura)" opacity="1" />
  
  <!-- Mind-gate psychic particles (behind the rune) -->
  <g id="particles">
    <use href="#mindGateRing" />
    <use href="#mindGate1" />
    <use href="#mindGate2" />
    <use href="#mindGate3" />
    <use href="#mindGate4" />
  </g>

  <!-- Consciousness wavelength animation (sine wave behind the letters) -->
  <g id="consciousnessWave" opacity="0.5">
    <path id="waveform" d="M 20,64 Q 28,50 36,64 T 52,64 Q 60,78 68,64 T 84,64 Q 92,50 100,64 T 116,64" 
          fill="none" stroke="#ff7800" stroke-width="2.5" stroke-linecap="round">
      <!-- Animate the wave by shifting the sine pattern -->
      <animate attributeName="d" 
        values="M 20,64 Q 28,50 36,64 T 52,64 Q 60,78 68,64 T 84,64 Q 92,50 100,64 T 116,64;
                M 20,64 Q 28,78 36,64 T 52,64 Q 60,50 68,64 T 84,64 Q 92,78 100,64 T 116,64;
                M 20,64 Q 28,50 36,64 T 52,64 Q 60,78 68,64 T 84,64 Q 92,50 100,64 T 116,64" 
        dur="2s" 
        repeatCount="indefinite" />
      <!-- Animate opacity to create pulsing effect -->
      <animate attributeName="opacity"
        values="0.4;0.6;0.4"
        dur="2s"
        repeatCount="indefinite" />
    </path>
    <!-- Add a subtle glow layer -->
    <path d="M 20,64 Q 28,50 36,64 T 52,64 Q 60,78 68,64 T 84,64 Q 92,50 100,64 T 116,64" 
          fill="none" stroke="#ff7800" stroke-width="4" stroke-linecap="round" opacity="0.2">
      <animate attributeName="d" 
        values="M 20,64 Q 28,50 36,64 T 52,64 Q 60,78 68,64 T 84,64 Q 92,50 100,64 T 116,64;
                M 20,64 Q 28,78 36,64 T 52,64 Q 60,50 68,64 T 84,64 Q 92,78 100,64 T 116,64;
                M 20,64 Q 28,50 36,64 T 52,64 Q 60,78 68,64 T 84,64 Q 92,50 100,64 T 116,64" 
        dur="2s" 
        repeatCount="indefinite" />
    </path>
  </g>

  <!-- Convert the ð”Šâ„˜ glyphs into explicit outlines so they render without bundling a binary font. -->
  <g filter="url(#glow)" fill="#fffed6" stroke="#06063b" stroke-linejoin="round">
    <path
      d="M404 -23Q292 -23 209 26Q126 75 80.5 164 35 253 35 373 35 477 68 556.5 101 636 158.5 680.5 216 725 290 725 328 725 360 712L395 741 408 728Q401 723 395 716 389 709 384 701 417 684 440 665L426 646Q404 668 370 682Q354 658 354 640 354 616 385 557 416 499 416 466 416 440 377 372 406 395 438 406 473 418 513 438 553 458 575 486 599 516 599 542 599 565 578 584L522 637Q507 651 507 657 507 665 523 682L567 729 581 718Q579 714 577 711 575 708 575 706 575 694 626 643 651 618 659 612.5 667 607 670 607 676 607 683 610L692 599Q677 587 660.5 567.5 644 548 626 519 608 491 591 471.5 574 452 560 439 626 409 662 356.5 698 304 698 239 698 161 661.5 102 625 43 559 10 493 -23 404 -23ZM258 331Q293 331 315.5 351.5 338 372 338 410 338 447 308 511 277 578 277 590 277 608 290.5 629.5 304 651 334 685L342 694Q320 700 298 700 211 700 165.5 630 120 560 120 426V422Q199 331 258 331ZM415 -1Q475 -1 521 23.5 567 48 593.5 90.5 620 133 620 187 620 243 597.5 286 575 329 538.5 354 502 379 458 379 442 379 427 375.5 412 372 396 361 368 342 335.5 324 303 306 266 306 196 306 121 387 141 196 217.5 97.5 294 -1 415 -1Z"
      stroke-width="27"
      transform="translate(61.44 78.4) scale(0.0416 -0.0416) translate(-366.5 0)"
    />
    <path
      d="M254 625Q213 587 187.5 547 162 507 151 458.5 140 410 140 345 140 317 146.5 290.5 153 264 165 238 205 292 250 338.5 295 385 335 419 417 489 486.5 519 556 549 595 549 658 549 699.5 515.5 741 482 761.5 427 782 372 782 306 782 251 764 195 746 139 711 92.5 676 46 624 18 572 -10 503 -10 421 -10 374.5 31.5 328 73 328 140 328 190 349.5 217 371 244 408 244 432 244 447 230.5 462 217 462 194 462 162 441 148.5 420 135 394 132 391 123 391 112 391 71 423 50.5 455 30 495 30 546 30 579 56 612 82 632 122 652 162 661.5 203.5 671 245 674 278 677 311 677 322 677 336 674 363.5 671 391 660 420.5 649 450 626 471 603 492 564 492 518 492 465.5 465 413 438 360 394 312 354 267 304 222 254 185 200 207 162 233.5 125.5 260 89 284 53 308 17 323.5 -19.5 339 -56 339 -95 339 -159 305.5 -200 272 -241 218 -241 169 -241 129.5 -217 90 -193 67 -151 44 -109 44 -56 44 -6 62 47.5 80 101 107 149 82 192 65.5 238.5 49 285 49 337 49 397 69.5 447.5 90 498 120.5 538 151 578 183 605.5 215 633 238 647ZM249 -134Q249 -93 231 -53.5 213 -14 186 26.5 159 67 131 110 109 67 97 25.5 85 -16 85 -51 85 -98 104 -131 123 -164 150 -181.5 177 -199 200 -199 223 -199 236 -182 249 -165 249 -134Z"
      stroke-width="27"
      transform="translate(80.8 78.4) scale(0.0176 -0.0176) translate(-413 0)"
    />
  </g>
</svg>
