<?xml version="1.0" encoding="iso-8859-1"?>
<!-- Generator: Adobe Illustrator 30.1.0, SVG Export Plug-In . SVG Version: 9.03 Build 0)  -->
<svg version="1.1" id="Layer_1" xmlns="http://www.w3.org/2000/svg" xmlns:xlink="http://www.w3.org/1999/xlink" x="0px" y="0px"
	 viewBox="0 0 132.75 128.25" style="enable-background:new 0 0 132.75 128.25;" xml:space="preserve">
<g>
	<g>
		<path style="fill:#FEFEFE;" d="M23.119,128.25h-5.221c-6.619-1.299-12.734-4.196-16.114-10.76
			c-0.475-0.922-0.429-2.372-1.785-1.916v-7.456c1.641,0.81,1.804-4.077,5.13-5.062c6.77-2.005,6.097,5.937,17.056-0.189
			c6.049-3.382,7.95-12.572,7.783-18.628c-0.266-9.638-1.504-3.609-2.041-14.939c-0.099-2.09-1.358-3.572-1.532-5.299
			c-0.701-6.949-0.973-16.602,2.2-22.846l3.577-7.039c-7.446,2.268-15.429,4.068-22.63,0.96c-4.688-2.024-6.959-10.787-5.721-16.491
			C6.688,5.37,19.804-3.725,23.04,2.196c1.679,3.071,1.54,6.992,6.087,8.519c16.056,5.394,30.71-5.569,38.449-7.157
			C83.937,0.201,73.755,1.8,85.694,3.349c6.498,0.843,12.912,5.733,15.339,11.823c2.653,6.657-3.839,20.946-6.387,27.947
			c-1.18,3.243-2.9,6.007-4.288,9.047c-1.97,4.313-2.676,8.918-5.227,12.974c-1.034,1.01-3.886,2.43-5.38,2.526
			c-7.289,0.471-10.857-5.987-10.57-12.444c0.152-3.425,0.136-6.012,1.569-9.065l7.401-15.762c1.734-3.693-4.624-7.207-7.805-6.573
			c-2.213,0.441-3.569-0.447-5.583,0.065c-8.603,2.188-16.48,9.425-17.599,18.465c-0.835,6.744-0.054,13.348,2.214,19.402
			c1.56,4.165,1.34,8.614,2.455,12.552c1.846,6.522,0.804,11.743,0.05,18.182C49.87,109.649,39.771,124.749,23.119,128.25z"/>
		<path style="fill:#FEFEFE;" d="M71.631,112.441c-2.47-1.134-7.886-1.837-10.895-7.769c-2.774-5.468-3.653-11.697,2.876-15.172
			c2.833-1.508,6.249-3.933,9.728-1.509c1.442,1.005,2.559,3.961,5.014,4.668c5.851,1.687,12.842,0.77,18.794-1.511
			c4.47-1.713,7.766-5.049,11.444-7.991c8.986-7.186,11.573-20.346,14.5-32.073c3.531,1.773,3.119,5.372,3.891,8.527
			c1.12,4.574,2.52,9.41,0.277,14.039c-0.905,1.867-0.327,4.201-1.116,6.267c-6.32,16.552-19.44,29.719-37.434,33.005
			C82.798,114.003,77.578,115.172,71.631,112.441z"/>
		<path style="fill:#FEFEFE;" d="M129.829,38.355c-3.142,3.864-11.993,5.712-17.151,0.255c-3.506-3.71-4.201-8.842-1.638-13.624
			c1.999-3.729,7.057-6.218,12.085-5.43c4.146,0.649,8.703,4.486,8.951,9.329C132.269,32.659,131.992,35.695,129.829,38.355z"/>
	</g>
</g>
</svg>
