<?xml version="1.0" encoding="iso-8859-1"?>
<!-- Generator: Adobe Illustrator 30.1.0, SVG Export Plug-In . SVG Version: 9.03 Build 0)  -->
<svg version="1.1" id="Layer_1" xmlns="http://www.w3.org/2000/svg" xmlns:xlink="http://www.w3.org/1999/xlink" x="0px" y="0px"
	 viewBox="0 0 175 174" style="enable-background:new 0 0 175 174;" xml:space="preserve">
<g>
	<g>
		<path style="fill:#FEFEFE;" d="M175,55v4.984c-1.974,4.83-6.085,12.441-12.225,11.87c-1.148-0.107-3.398-2.436-2.679-3.565
			c2.168-3.404,2.61-5.635,0.486-8.777c-4.393-6.499-11.531-8.563-17.623-3.996c-6.356,4.765-6.764,12.58-0.951,18.657l15.07,15.755
			c2.403,2.512,3.817,6.065,6.288,8.585c3.094,3.155,3.549,6.836,4.608,10.428c3.831,13.002-1.322,24.475-9.087,34.856
			c-6.974,9.325-16.152,15.545-26.534,20.796c-10.978,5.552-22.758,8.578-35.329,8.448c-0.669-0.007-1.142,0.548-1.024,0.958H79
			c-0.091-1.295-1.703-0.856-2.948-0.932c-20.242-1.234-47.022-15.857-53.891-36.205c-2.579-7.638-1.506-17.06,1.469-23.857
			c2.89-6.603,6.902-10.103,12.001-14.416c13.438-11.369,29.524-12.368,46.513-8.541l-7.035-11.296
			C63.826,60.635,42.486,40.54,19.884,50.766c-6.571,2.973-10.728,8.063-13.37,14.926C2.86,64.505,2.237,61.989,0,61V51
			c1.892-1.881,2.181-4.775,3.723-7.346c6.392-10.658,17.578-18.163,30.122-18.639c7.867-0.298,15.415-0.109,22.302,2.747
			c6.439,2.67,12.375,5.047,17.674,9.498c7.76,6.518,17.433,16.174,21.03,26.06c1.069,2.938,3.224,5.481,4.223,8.805
			c4.677,15.563,17.743,30.208,12.558,48.426c-3.102,10.9-12.892,19.039-24.721,17.681c-4.077-0.468-9.63-0.097-11.634-4.677
			c-1.235-2.822,2.81-5.556,5.415-5.8c4.013-0.375,7.105-2.605,7.275-6.899c0.129-3.257-0.011-8.047-2.201-10.457
			c-3.56-3.918-9.07-3.149-13.72-3.478c-7.642-0.541-13.903,1.36-18.746,8.169c-5.087,7.151-1.587,20.886,3.613,26.043
			c5.656,5.61,13.361,9.99,21.223,11.463c11.169,2.093,22.376,2.298,33.244-0.31c5.368-1.288,9.902-4.608,14.587-7.428
			c4.437-2.67,7.493-7.048,10.793-11.359c4.449-5.81,4.713-14.739,3.775-21.759c-1.668-12.484-18.536-17.876-26.47-37.414
			c-4.952-12.196-1.581-24.268,7.549-32.663c10.701-9.839,22.558-15.309,36.405-6.773C169.062,41.696,168.088,39.612,175,55z"/>
		<path style="fill:#FEFEFE;" d="M87.921,23.748c-4.848,1.864-7.395,7.236-13.116,4.935c-4.245-1.708-7.773-5.118-7.912-10.722
			C66.488,1.552,89.857,5.88,101.172,7.401c4.468-5.739,10.979-7.153,16.811-3.706c5.48,3.239,7.324,11.767,2.737,17.021
			C110.927,31.933,95.842,20.704,87.921,23.748z"/>
	</g>
</g>
</svg>
