<?xml version="1.0" encoding="iso-8859-1"?>
<!-- Generator: Adobe Illustrator 30.1.0, SVG Export Plug-In . SVG Version: 9.03 Build 0)  -->
<svg version="1.1" id="Layer_1" xmlns="http://www.w3.org/2000/svg" xmlns:xlink="http://www.w3.org/1999/xlink" x="0px" y="0px"
	 viewBox="0 0 174 167" style="enable-background:new 0 0 174 167;" xml:space="preserve">
<g>
	<g>
		<path style="fill:#FEFEFE;" d="M150,0c-0.076,0.463-0.135,1.116,0.084,1.447c-0.313-0.473,7.419,1.248,15.746,8.786
			c8.286,7.501,9.781,19.827,3.65,29.32c-1.219,1.888-4.302,3.225-6.168,3.267c-8.827,0.199-10.02-7.709-13.336-13.299
			c-3.841-6.473-17.889-1.067-19.203,5.788c-5.02,26.185,10.273,27.711,12.573,54.64c1.37,16.042-4.919,25.817-15.524,36.908
			c3.484-0.188,5.985-1.723,9.136-0.601c9.377-1.547,17.229,1.517,23.128,8.145c8.479,9.527,9.533,23.615-1.087,32.6h-3
			c-3.823-0.664-3.835-5.441-6.308-7.681c-10.915-9.886-30.799-3.421-45.697-0.267l-13.153,2.784
			c-16.061,3.4-31.288,4.19-46.221-2.972c-9.49-4.552-20.086-16.393-22.929-27.725c-1.573-6.27-0.836-14.015-0.211-20.971
			c0.937-10.415,13.533-29.707,20.178-38.466l7.345-9.682c3.06-4.034,4.797-7.509,5.609-12.689c0.392-2.502,1.793-3.195,0.086-6.109
			c-0.568-0.969-3.713-12.127-9.435-12.712c-3.487-0.356-8.881-1.757-12.433,0.531c-4.301,2.771-9.259,7.981-10.693,12.873
			c-1.197,4.084,4.075,6.63,5.433,9.483c1.817,3.817-1.946,8.382-5.746,9.291C8.207,65.948,4.557,55.176,0,47V34
			c1.153-0.054,1.293-0.993,1.734-2.18C8.768,12.878,26.964,0.441,46.966,1.652c16.193,0.98,31.883,9.115,37.393,25.043
			c2.634,7.615,5.299,15.346,3.16,23.999c-1.362,5.51-3.443,11.811-6.493,16.315l-6.488,9.581c-2.105,3.108-5.317,5.403-7.44,8.491
			l-3.681,5.354c-8.08,11.753-11.511,26.62-1.508,37.512c4.828,5.257,10.101,7.158,17.078,7.349
			c12.849,0.351,23.509-6.28,28.007-18.469c4.111-11.141,1.745-28.668-0.438-40.319l-2.217-11.83
			c-2.282-12.179-3.906-22.328-0.289-34.584c4.429-15.009,14.412-24.889,29.868-28.082C136.116,1.557,138.664,2.502,139,0H150z"/>
	</g>
</g>
</svg>
