<?xml version="1.0" encoding="iso-8859-1"?>
<!-- Generator: Adobe Illustrator 30.1.0, SVG Export Plug-In . SVG Version: 9.03 Build 0)  -->
<svg version="1.1" id="Layer_1" xmlns="http://www.w3.org/2000/svg" xmlns:xlink="http://www.w3.org/1999/xlink" x="0px" y="0px"
	 viewBox="0 0 126.75 135.75" style="enable-background:new 0 0 126.75 135.75;" xml:space="preserve">
<g>
	<g>
		<path style="fill:#FEFEFE;" d="M70.856,111.416c8.055,1.99,12.695-0.961,17.315-0.942c2.675,0.011,5.293-2.329,8.161-2.986
			c4.422-1.012,8.444-3.851,11.505-6.959c2.041-2.073,2.368-4.895,3.27-7.271c0.907-2.39,3.475-2.269,5.045-1.845
			c4.439,1.199,1.81,3.134,4.529,6.795c0.499,0.672-1.243,1.398-1.187,2.074c0.375,4.52-2.004,8.244-4.277,11.993
			c-4.682,7.721-11.224,13.24-19.296,17.433c-6.072,3.155-15.589,5.842-22.902,5.346c-6.315-0.428-12.673,0.47-18.787-1.437
			l-6.25-1.95c-6.714-2.095-12.654-6.369-17.897-11.042c-1.899-1.692-3.111-3.909-4.702-5.94
			c-10.158-12.968-10.643-29.928-9.36-46.013c0.366-4.591,1.553-8.641,1.297-13.57c-0.179-3.455,0.249-14.073-1.151-17.54
			c-0.651-1.611-1.199-3.885-1.682-5.668C9.062,11.858-1.006,12.772,1.015,7.454c0.634-1.67,2.109-2.898,4.229-2.995
			c10.288-0.472,19.662,4.302,26.209,11.982c4.575,5.367,8.256,10.926,9.263,18.476l9.9-13.396c1.347-1.823,2.111-4.31,3.982-5.608
			c2.21-1.533,3.42-3.48,5.302-5.171c5.4-4.849,14.589-8.09,21.585-9.601c9.073-1.96,23.066,1.701,29.685,7.697
			c7.569,6.857,6.924,6.231,11.429,14.663c2.627,4.917,3.324,11.127,3.218,16.483c-0.134,6.819-2.755,11.737-5.546,17.53
			c-7.263,15.076-22.466,26.742-39.702,21.033c-6.66-2.206-9.815-7.063-11.036-13.299c-0.512-2.617-0.991-3.525-0.182-6.265
			c1.427-4.838,3.443-9.51,9.136-11.149c3.373-0.971,7.959,0.936,8.341,4.491c-0.861,1.411-4.328,2.734-3.222,5.056
			c0.658,1.383,2.448,3.542,3.593,4.287c4.874,1.665,8.66-1.752,10.791-5.344c3.004-5.064,4.052-10.155,1.466-15.567
			c-2.86-5.986-7.54-10.555-14.347-11.798c-0.972-0.178-1.866-1.426-3.102-1.407L70.084,27.74c-2.531,0.04-5.073,2.191-7.291,2.862
			c-4.183,1.265-6.334,3.962-9.144,6.704c-9.12,8.901-8.762,16.007-11.449,28.208c-1.335,6.061-1.68,11.48-0.091,17.661l1.709,6.65
			c2.545,9.902,11.673,17.794,21.925,20.327L70.856,111.416z"/>
	</g>
</g>
</svg>
