<?xml version="1.0" encoding="iso-8859-1"?>
<!-- Generator: Adobe Illustrator 30.1.0, SVG Export Plug-In . SVG Version: 9.03 Build 0)  -->
<svg version="1.1" id="Layer_1" xmlns="http://www.w3.org/2000/svg" xmlns:xlink="http://www.w3.org/1999/xlink" x="0px" y="0px"
	 viewBox="0 0 160 181" style="enable-background:new 0 0 160 181;" xml:space="preserve">
<g>
	<g>
		<path style="fill:#FEFEFE;" d="M90,0c3.811,3.32,9.064,0.873,20.115,3.875l14.075,3.824c4.197,1.14,7.001,3.452,10.458,5.51
			c5.984,3.564,10.203,7.434,13.79,13.416c4.342,7.242,4.215,21.829-4.614,23.107c-3.682,0.533-2.667-12.627-17.175-14.487
			c-4.814-0.617-10.073,3.969-10.681,8.325c-2.824,20.215,17.562,19.732,35.731,43.755c6.191,8.185,7.51,22.647,6.774,32.899
			c-0.696,9.686-3.665,18.024-9.494,25.81c-6.608,8.825-7.077,9.385-15.928,16.04c-5.481,4.121-10.695,7.398-17.29,9.845
			c-5,1.855-22.251,7.58-25.898,7.689c-9.388,0.282-19.079,1.489-27.88-0.434c-10.32-2.255-20.198-5.674-28.053-11.878
			c-9.835-7.768-13.09-19.437-9.876-31.416c2.411-8.985,5.083-12.895,12.775-19.041c8.827-7.053,20.87-8.879,31.308-5.062
			c8.344,3.052,14.924,12.085,12.289,20.668c-1.531,4.988-8.084,3.143-10.804,1.572c-5.664-3.272-10.169-0.941-13.318,3.246
			c-2.719,3.615-3.221,6.88-0.263,10.929c5.775,7.904,17.199,11.874,26.854,9.445c6.472-1.628,12.382-4.636,18.278-7.466
			c11.812-5.669,19.655-14.487,22.453-27.314c2.667-12.225-3.924-32.14-14.017-39.448c-11.943-8.648-20.92-21.89-20.237-36.768
			c0.505-10.986,4.222-15.268,11.275-23.745c-2.337-2.037-4.4-0.179-6.456-0.909c-8.452-3.002-28.496,1.507-36.946,5.252
			c-11.721,5.194-19.871,17.259-17.85,30.408c1.98,12.877,20.716,20.443,31.577,16.4c4.106-1.528,7.526-3.972,11.524-5.717
			c3.027-1.321,4.648,3.212,5.923,5.239l6.009,9.547C78.62,92.562,75.46,97.597,55.922,98.175
			C39.358,98.664,23.09,93.49,11.219,81.841c-4.327-4.246-8.439-8.727-9.108-14.926C1.911,65.067,1.71,63.262,0,63v-5
			c2.705-1.954,1.643-10.558,4.076-14.884c2.401-4.269,3.73-8.695,6.487-12.424c8.364-11.314,19.355-18.851,32.578-22.62
			l14.733-4.199C68.523,0.837,74.275,3.371,78,0H90z"/>
	</g>
</g>
</svg>
