<?xml version="1.0" encoding="iso-8859-1"?>
<!-- Generator: Adobe Illustrator 30.1.0, SVG Export Plug-In . SVG Version: 9.03 Build 0)  -->
<svg version="1.1" id="Layer_1" xmlns="http://www.w3.org/2000/svg" xmlns:xlink="http://www.w3.org/1999/xlink" x="0px" y="0px"
	 viewBox="0 0 131.25 120.75" style="enable-background:new 0 0 131.25 120.75;" xml:space="preserve">
<g>
	<g>
		<path style="fill:#FEFEFE;" d="M131.25,96.75v7.5c-1.277,0.707-0.583,2.586-1.327,3.96c-3.115,5.753-8.851,9.853-15.072,11.824
			c-1.145,0.362-2.739-0.572-2.99,0.716h-6.712c-8.505-2.072-16.412-7.546-20.698-16.075c-3.13-6.228-5.953-12.19-6.501-19.705
			l-33.034-0.22c-2.407,1.034-5.87,8.295-6.203,9.529c-0.98,3.623-2.681,6.384-3.977,9.693c-0.999,2.552-2.953,4.39-4.367,6.937
			c-3.089,5.564-9.094,8.032-14.708,9.841H5.22c-0.535-0.853-1.644-0.739-2.881-0.785c-0.082-0.517-0.378-1.895,0.011-2.052
			c10.4-4.178,16.881-12.567,21.509-22.659l6.099-13.299c1.994-4.348,4.501-7.638,9.812-8.22l7.973-0.872
			c8.238-0.901,22.071,0.99,30.12-11.692c4.24-6.681,3.671-14.773,0.999-22.494c6.525,1.509,9.736,7.345,11.365,13.142
			c1.007,3.583,5.145,11.924,6.587,17.397c1.948,7.393,8.852,25.683,15.439,28.588c2.085,0.919,6.091,0.867,8.104,0.01
			c2.57-1.094,4.348-3.459,7.144-4.193L131.25,96.75z"/>
		<path style="fill:#FEFEFE;" d="M21.271,27.752c-2.838,3.221-3.397,7.295-5.415,10.583c-1.324,2.157-4.336,4.209-6.463,2.496
			c-7.691-6.192-3.818-19.41,1.788-26.626c1.481-1.907,1.787-3.282,4.323-5.063c8.8-6.179,21.634-11.365,32.697-7.184
			C68.163,9.503,70.854,9.374,93.853,7.23c-7.329,6.172-15.56,11.788-24.539,11.953l-29.572,0.542
			C32.852,19.851,26.064,22.313,21.271,27.752z"/>
		<path style="fill:#FEFEFE;" d="M47.142,55.249c-5.833-1.788-7.725-8.295-5.971-13.957c1.49-4.811,6.508-7.238,11.283-6.728
			c4.572,0.489,8.373,4.163,9.215,8.842c0.855,4.749-1.676,10.449-6.732,11.732C52.578,55.736,49.418,55.946,47.142,55.249z"/>
	</g>
</g>
</svg>
