<?xml version="1.0" encoding="iso-8859-1"?>
<!-- Generator: Adobe Illustrator 30.1.0, SVG Export Plug-In . SVG Version: 9.03 Build 0)  -->
<svg version="1.1" id="Layer_1" xmlns="http://www.w3.org/2000/svg" xmlns:xlink="http://www.w3.org/1999/xlink" x="0px" y="0px"
	 viewBox="0 0 120 135" style="enable-background:new 0 0 120 135;" xml:space="preserve">
<g>
	<g>
		<path style="fill:#FEFEFE;" d="M13.433,132.715c-2.374,2.466-6.44-0.145-8.027-2.298c-8.579-11.643-4.664-26.026,3.516-36.432
			c0.682-0.868,0.749-2.177,1.7-2.822c2.507-1.7,4.928-3.534,6.318-6.293c0.844-1.675,2.756-1.733,3.943-2.813
			c5.539-5.038,11.891-8.415,17.987-12.602l11.021-7.572c7.586-5.211,15.132-12.281,17.045-21.359
			c2.539-12.045-7.097-17.571-16.959-19.947c-4.971-1.198-9.36-2.097-14.38,0.276l-8.492,4.015
			c-4.368,2.065-6.435,6.163-6.417,10.94c0.012,3.159,0.711,5.415,2.952,7.406c2.058,1.828,5.642,2.145,8.299,0.57l-0.258-6.054
			c-0.074-1.726,2.777-1.218,4.364-1.181c2.046,0.048,6.046,5.333,5.586,9.506c-0.767,6.957-5.23,11.948-11.806,14.567
			C18.568,65.103,6.27,58.397,2.252,46.86c-2.943-8.449-1.684-17.244,3.17-25.226C18.237,0.563,46.635-2.342,68.619,2.786
			c5.125,1.196,9.22,3.354,13.575,5.914c5.297,3.114,9.252,7.138,11.863,12.791l2.835,6.139c5.362,11.611-3.395,25.011-5.287,34.561
			c-2.362,11.926-1.332,21.369-1.26,34.675c0.01,1.787,1.978,4.583,3.059,5.778c2.252,2.489,5.896,1.747,8.647,0.639
			c2.53-1.019,4.227-3.969,4.498-7.221c0.639-7.678-6.521-13.186-4.041-15.95c5.07-5.65,16.473,8.812,16.407,15.439l-0.096,9.593
			c-0.056,5.577-4.31,10.091-6.834,14.129c-1.697,2.714-2.827,3.747-5.325,5.465c-18.226,12.533-35.128,7.766-53.488,4.848
			l-9.962-1.583c-6.721-1.068-9.993-2.467-18.791-0.125C20.522,128.915,16.719,129.302,13.433,132.715z M59.474,109.413
			c2.511-0.178,5.184-1.748,6.444-2.877c-0.542-8.988-0.489-17.224-0.118-25.847c0.119-2.775,1.763-5.283,1.431-8.251
			c-0.21-1.874,2.213-3.191,0.966-5.423c-0.186,1.942-1.617,2.375-3.005,3.443L50.266,81.934l-5.132,4.33
			c-3.139,2.648-14.638,12.943-15.237,16.546C30.323,111.833,53.125,109.863,59.474,109.413z"/>
	</g>
</g>
</svg>
