<?xml version="1.0" encoding="iso-8859-1"?>
<!-- Generator: Adobe Illustrator 30.1.0, SVG Export Plug-In . SVG Version: 9.03 Build 0)  -->
<svg version="1.1" id="Layer_1" xmlns="http://www.w3.org/2000/svg" xmlns:xlink="http://www.w3.org/1999/xlink" x="0px" y="0px"
	 viewBox="0 0 126 128.25" style="enable-background:new 0 0 126 128.25;" xml:space="preserve">
<g>
	<g>
		<path style="fill:#FEFEFE;" d="M126,88.731v9.693c-0.441,0.091-0.801,0.337-1.067,0.685c0.581-0.761-0.976,12.937-17.645,23.054
			c-7.071,4.292-9.33,3.176-16.33,6.086h-20.13c-13.628-3.272-18.459-4.726-30.861-13.702c-0.223,1.611-20.084,14.746-16.875,8.513
			c1.744-3.388,5.07-5.804,6.128-9.505c0.802-2.804,2.468-5.65,2.576-8.553l0.592-15.894c0.318-8.541-0.008-17.046,0.46-25.722
			c0.154-2.852,1.099-5.549,1.541-8.154c1.478-8.7,4.767-16.194,10.289-23.239c5.097-6.503,1.053-1.332,9.057-7.774
			c-12.549-2.416-24.67-2.074-30.01,10.884c-2.313,5.613-1.868,11.462,4.529,14.45c1.732,0.809,1.761,3.141,1.6,5.172
			c-0.267,3.372-12.69,9.942-22.812-1.42c-5.443-6.11-8.054-13.952-5.516-21.897c1.855-5.806,4.455-10.792,9.093-14.859
			c2.917-2.558,5.268-5.713,8.875-7.45l10.579-5.094c9.829-4.733,36.732-3.843,47.209-0.043c5.1,1.849,10.238,3.452,15.129,5.869
			c2.829,1.398,4.988,3.957,7.725,5.562c1.31,0.768,1.297,2.869,2.219,3.689c3.546,3.155,4.776,6.803,6.303,11.056
			c2.461,6.855,2.597,14.838-1.508,21.069c-1.506,2.287-2.497,4.843-4.568,6.619c-1.566,1.343-3.186,1.978-4.542,4.543
			c2.981,0.09,4.897,1.951,7.432,2.866c4.895,1.767,8.13,5.58,11.76,9.144c3.304,3.243,6.727,6.52,7.189,11.462
			C124.544,87.163,124.747,88.543,126,88.731z M95.58,98.563c2.885-6.814,0.525-14.213-4.551-17.413
			c-11.083-6.986-17.714-2.089-26.534-5.904C58.378,59.2,77.236,60.064,83.011,52.722c4.903-6.234,3.371-14.569-2.234-19.357
			c-3.235-2.763-6.83-5.799-11.389-4.827c-6.164,2.03-10.82,13.627-11.705,19.232c-0.328,2.078-1.464,4.121-1.489,5.98
			l-0.444,32.678l-0.802,6.67c-0.215,1.789-2.237,3.215-1.872,4.77c6.265,6.278,19.713,9.363,27.535,8.28
			C85.55,105.462,93.544,103.371,95.58,98.563z"/>
	</g>
</g>
</svg>
