<?xml version="1.0" encoding="iso-8859-1"?>
<!-- Generator: Adobe Illustrator 30.1.0, SVG Export Plug-In . SVG Version: 9.03 Build 0)  -->
<svg version="1.1" id="Layer_1" xmlns="http://www.w3.org/2000/svg" xmlns:xlink="http://www.w3.org/1999/xlink" x="0px" y="0px"
	 viewBox="0 0 186 167" style="enable-background:new 0 0 186 167;" xml:space="preserve">
<g>
	<g>
		<path style="fill:#FEFEFE;" d="M149,167h-14c-0.145-1.801-1.697-1.38-3.191-1.73c-15.293-3.588-24.784-16.677-28.102-31.933
			c-1.683-7.735-0.591-15.641,1.304-23.357c7.541-30.706,24.987-38.634,28.961-60.935c1.611-9.042-3.315-15.717-12.118-18.186
			c-20.807-5.836-40.649,13.473-43.356,32.019c-0.475,3.255-2.373,6.266-1.59,10.156c0.888,4.41-0.83,8.653-0.844,12.919
			l-0.059,19.044c-0.007,2.184-1.872,4.038-1.85,6.118c0.15,14.172-7.733,32.481-18.819,42.255
			c-5.244,4.623-10.325,9.691-17.6,11.416c-1.619,0.384-3.491,0.538-3.737,2.215H20c-4.583-3.668-10.911-8.744-7.168-15.48
			c2.524-4.543,12.137,0.392,22.36-16.452c3.792-6.248,7.474-12.831,7.574-20.747l0.574-45.326c0.036-2.851-0.742-4.672-0.893-7.142
			c-0.576-9.41-1.682-18.827-8.308-25.987c-1.992-2.153-3.665-3.259-6.626-3.086c-2.398,0.14-3.74,2.01-5.87,3.926
			c-4.116,3.704-3.803,9.432-3.297,14.601c0.382,3.897-4.528,5.222-7.628,4.297C0.373,52.519,3.598,45.316,0,44v-6
			c2.373-0.297,1.579-2.92,2.156-4.909C4.75,24.135,8.697,18.073,15.75,12.682c8.784-6.714,19.356-9.957,30.136-6.667
			c5.874,1.793,10.311,4.095,14.51,8.678c4.79,5.227,10.175,10.096,11.101,17.914c4.557-4.762,5.936-11.838,11.417-16.51
			c9.249-7.883,19.353-12.708,31.114-13.58c14.433-6.455,46.383,9.3,50.192,24.223l2.218,8.689c1.409,5.521,1.671,9.651-0.02,14.84
			c-1.246,3.826-1.564,7.755-3.852,11.427c-3.307,5.305-6.131,10.929-9.945,16.187c-9.345,12.882-21.392,31.54-17.113,48.914
			c0.84,3.412,3.364,8.45,5.764,10.331c4.58,3.59,10.911,3.136,14.612,0.462c4.278-3.092,6.33-7.059,6.349-12.627
			c0.045-13.154-14.509-5.495-13.4-17.022c0.4-4.155,1.368-8.516,5.696-10.497c5.634-2.579,13.95-2.911,18.84,0.767
			c9.629,7.242,12.001,17.628,10.848,28.779c-0.41,3.962-2.678,6.764-3.608,10.344c-0.562,2.166-0.391,3.347-1.762,5.552
			c-5.96,9.59-14.03,18.138-25.239,21.761C151.759,165.243,149.33,164.912,149,167z"/>
	</g>
</g>
</svg>
