<?xml version="1.0" encoding="iso-8859-1"?>
<!-- Generator: Adobe Illustrator 30.1.0, SVG Export Plug-In . SVG Version: 9.03 Build 0)  -->
<svg version="1.1" id="Layer_1" xmlns="http://www.w3.org/2000/svg" xmlns:xlink="http://www.w3.org/1999/xlink" x="0px" y="0px"
	 viewBox="0 0 137.25 116.25" style="enable-background:new 0 0 137.25 116.25;" xml:space="preserve">
<g>
	<g>
		<path style="fill:#FEFEFE;" d="M137.25,53.654v16.394c0,7.576-2.456,14.625-5.745,21.608c-4.358,9.253-12.35,14.203-22.68,13.638
			c-15.004-0.82-16.861-5.091-25.773-13.882c-1.055-1.04-0.746-3.074-2.669-3.737c-6.878,12.177-15.605,22.097-29.458,26
			c-8.546,2.408-12.914,2.2-21.253-0.003c-7.931-2.096-15.415-6.419-19.836-13.254c-6.405-9.902-9.224-19.114-7.922-31.26
			c1.254-11.7,11.058-20.638,22.979-19.722c2.358,0.181,4.391,1.378,6.288,1.964c5.106,1.578,7.457,4.624,10.052,8.868
			c2.479,4.055,3.285,8.531-1.222,11.975c-1.419,1.084-3.575,1.209-5.343,0.09c-3.176-2.01-0.618-6.213-5.426-7.388
			c-1.686-0.412-3.468,0.061-4.954,1.129c-4.661,3.35-4.173,10.854-0.364,16.458c3.09,4.547,7.299,6.164,12.204,7.47
			c3.458,0.921,5.564,1.156,9.062-0.038c4.852-1.656,9.275-3.383,12.919-7.412c12.96-14.331,6.781-10.563,14.839-24.663
			c2.858-5,8.309-8.321,14.411-8.303c4.545,0.013,13.65,4.728,12.462,8.726c-0.552,1.857-9.171,1.961-8.831,11.847
			c0.081,2.369-0.406,7.507,2.48,8.589c2.093,0.785,5.143,0.893,7.401,1.405c5.361,1.216,13.083-5.547,15.059-11.41
			c0.922-2.736,2.128-5.191,2.04-8.336c-0.07-2.489,1.674-4.946,1.259-7.424l-1.166-6.959c-0.773-4.61-3.602-8.468-6.528-12.227
			c-2.456-3.154-6.546-3.939-10.179-5.42c-7.967-3.249-19.491,2.467-26.186,7.303c-6.335,4.576-12.967,9.247-20.578,11.121
			c-8.883,2.186-17.062,0.789-24.532-3.671c-2.14-1.277-4.753-2.271-6.669-4.064c-5.084-4.76-9.44-10.835-12.072-17.44
			c-0.686-1.721-1.384-12.47,5.469-15.851c3.177-1.568,6.137-0.34,8.239,1.558c4.169,3.766,0.21,4.039,5.03,12.672
			c5.155,9.232,18.927,11.442,26.321,4.328l14.073-13.539c8.055-7.749,21.545-13.008,33.016-8.481
			c7.133,2.815,13.067,6.553,17.756,12.265l3.308,4.029c5.041,6.141,7.117,12.664,9.808,19.349
			C136.415,43.118,135.811,48.596,137.25,53.654z"/>
	</g>
</g>
</svg>
