<?xml version="1.0" encoding="iso-8859-1"?>
<!-- Generator: Adobe Illustrator 30.1.0, SVG Export Plug-In . SVG Version: 9.03 Build 0)  -->
<svg version="1.1" id="Layer_1" xmlns="http://www.w3.org/2000/svg" xmlns:xlink="http://www.w3.org/1999/xlink" x="0px" y="0px"
	 viewBox="0 0 168 170" style="enable-background:new 0 0 168 170;" xml:space="preserve">
<g>
	<g>
		<path style="fill:#FEFEFE;" d="M116,0l18.242,4.832c3.754,0.994,11.605,6.22,15.284,8.713c7.178,4.864,23.473,25.804,8.202,36.321
			c-9.776,6.733-1.901-15.836-22.756-14.047c-4.309,0.37-8.049,0.705-9.841,5.653c-7.86,21.708,16.182,22.314,29.729,33.621
			c14.98,12.504,9.645,21.474,11.684,22.867c0.344,0.235,1.037,0.048,1.455,0.039v9c-0.425-0.01-1.084-0.154-1.749,0.234
			c0.779,11.984-5.301,21.938-12.809,31.126c-9.263,11.334-21.961,19.558-35.753,25.309c-2.59,1.08-5.533,0.643-7.858,2.122
			c-4.495,2.859-9.922,1.527-14.779,2.425c-9.432,1.745-27.179-0.547-36.528-3.629c-22.291-7.349-45.889-24.249-54.06-47.101L0,105
			V80c7.489-23.874,5.938-21.788,19.159-40.729c2.663-3.816,5.562-6.964,9.567-9.609c3.058-2.02,5.107-5.624,8.141-7.724L46.895,15
			c6.407-4.433,13.704-7.684,21.269-9.78L87,0H116z M43.019,97.477c-5.725,11.354,8.485,31.078,12.186,33.231l5.789,3.367
			c2.472,1.438,5.639,3.608,8.615,4.104c2.37,0.394,4.439,2.384,6.567,2.501c16.57,0.915,22.424,1.154,37.809-6.789
			c12.602-6.506,24.997-23.079,20.236-36.005c-6.187-16.799-23.347-18.026-29.798-39.179c-0.856-2.806-1.042-7.666,0.013-10.388
			c6.341-16.361,2.438-10.194,16.656-25.043c-15.334-0.807-7.617-2.018-23.183-0.606c-10.663,0.967-12.538,2.029-22.132,6.039
			C58.463,35.946,45.584,49.42,37.399,66.662c-2.607,5.491-3.197,11.924-4.717,18.565c9.071-8.798,13.511-13.235,26.119-15.716
			c2.787-0.548,4.889-1.908,8.329-1.81c9.226,0.263,11.321-0.582,19.096,1.825c11.278,3.491,15.604,8.655,19.974,18.332
			c2.31,5.116,2.097,8.623,0.539,13.699c-1.751,5.704-3.984,9.726-9.291,13.101c-3.387,2.154-5.68,3.935-10.528,3.594
			c-3.331-0.234-7.671,2.542-10.642-0.401c-1.137-1.127-2.256-2.916-2.076-4.206c0.621-4.459,6.842-2.84,8.415-8.744
			c0.641-2.406,0.481-5.31-1.092-7.523C73.022,85.409,48.627,86.357,43.019,97.477z"/>
	</g>
</g>
</svg>
