<?xml version="1.0" encoding="iso-8859-1"?>
<!-- Generator: Adobe Illustrator 30.1.0, SVG Export Plug-In . SVG Version: 9.03 Build 0)  -->
<svg version="1.1" id="Layer_1" xmlns="http://www.w3.org/2000/svg" xmlns:xlink="http://www.w3.org/1999/xlink" x="0px" y="0px"
	 viewBox="0 0 114.75 133.5" style="enable-background:new 0 0 114.75 133.5;" xml:space="preserve">
<g>
	<g>
		<path style="fill:#FEFEFE;" d="M19.373,0c1.912,1.829,4.74,2.86,5.507,6.268c-1.22,2.048-3.727,2.605-5.629,4.449
			c1.982,5.194,7.066,7.508,12.392,6.212l7.2-1.752c1.858-0.452,27.484-8.87,28.174-9.202c6.591-3.169,12.996-3.775,20.149-3.907
			c8.762-0.161,16.665,2.342,22.624,8.961c4.08,4.533,5.14,12.368,3.519,16.107c-5.753,13.274-21.147,17.91-25.33,14.681
			c-1.351-1.043-3.832-3.252-2.782-5.362c0.888-1.785,2.146-2.882,2.098-4.623c-0.176-6.457-7.505-5.329-12.042-5.621
			c-8.92-0.576-17.577,3.927-21.12,11.839l-0.164,4.069c-0.107,2.656,3.689,5.868,6.465,7.151c2.488,1.15,11,3.789,16.955,6.28
			l7.375,3.085c5.177,2.166,9.104,4.93,13.547,8.147c6.066,4.392,9.329,11.116,11.892,18.106c1.381,3.765,0.752,6.731-0.348,10.609
			l-1.466,5.168c-0.715,2.52-2.54,4.217-3.468,6.21c-2.054,4.408-4.454,6.618-7.955,9.526c-5.996,4.98-12.359,8.937-19.675,11.76
			c-4.152,1.602-7.723,3.068-12.391,3.465c-2.084,0.177-4.04,2.049-6.922,1.116c-1.089-0.353-3.157-0.193-3.583,0.757h-8.942
			c-0.233-0.866-1.89-1.054-2.858-0.766c-2.587,0.771-4.34-0.803-6.368-1.042c-4.392-0.518-8.011-2.148-12.026-3.721
			c-5.993-2.348-11.084-5.43-15.078-10.454C3.775,110.791,1,103.265,2.959,94.362c1.651-7.505,6.664-14.049,13.409-17.886
			c15.801-8.989,14.699-4.144,20.075-5.257c5.602-1.159,10.05,0.479,14.919,3.267c4.101,2.349,6.552,6.927,7.409,12.2
			c1.298,7.982-10.225,19.02-17.202,15.443c-0.971-0.798-1.295-2.709-2.23-4.013c2.557-2.998,6.651-7.623,2.917-10.978
			c-2.9-2.605-6.763-2.228-9.875-0.832c-3.637,1.631-4.847,5.668-4.972,9.62c-0.203,6.366,2.817,11.25,8.552,13.544
			c1.819,0.728,8.295,3.527,11.003,3.169c4.395-0.581,8.698,0.464,12.78-0.608c8.213-2.158,15.569-6.148,19.169-13.74
			c1.783-3.761,2.078-6.733,0.616-10.263c-2.07-4.998-4.608-8.878-9.37-11.841c-4.565-2.84-9.126-5.336-14.374-7.089l-7.28-2.432
			c-9.856-3.293-21.125-7.161-20.336-20.228c0.25-4.136,0.072-7.638,3.667-11.714c-9.935,1.662-5.437,2.087-15.405,2.862
			C8.436,38.207,1.901,33.752,0,26.25V19.5c1.146-5.167,3.973-9.196,7.583-12.656c2.544-2.438,4.937-5.456,8.722-5.953
			c0.527-0.069,1.27,0.632,1.432,0.004C17.82,0.575,17.878,0.277,17.883,0H19.373z"/>
	</g>
</g>
</svg>
