<?xml version="1.0" encoding="iso-8859-1"?>
<!-- Generator: Adobe Illustrator 30.1.0, SVG Export Plug-In . SVG Version: 9.03 Build 0)  -->
<svg version="1.1" id="Layer_1" xmlns="http://www.w3.org/2000/svg" xmlns:xlink="http://www.w3.org/1999/xlink" x="0px" y="0px"
	 viewBox="0 0 182 168" style="enable-background:new 0 0 182 168;" xml:space="preserve">
<g>
	<g>
		<path style="fill:#FEFEFE;" d="M108,0c0.619,1.989,3.167,0.392,5.022,0.889C150.156,10.829,173.667,29.733,182,67v22
			c-1.275,9.056-8.329,27.745-14.826,35.552l-6.243,7.501c-9.674,11.623-20.235,18.275-33.489,25.375
			c-23.012,12.328-61.578,14.091-84.336-1.486c-2.796-1.914-11.921-7.315-13.133-9.913c-1.619-3.471-5.34-4.703-7.693-7.382
			C10.676,125.44,6.349,116.651,2.271,99.989C1.184,95.547,2.659,90.539,0,87v-2c2.619-4.681,1.165-9.997,2.455-14.733l3.377-12.402
			c2.563-9.412,8.586-16.355,13.801-24.053c4.241-6.26,10.03-10.604,15.518-15.63c3.373-3.089,7.501-4.373,11.377-6.698
			C56.731,5.365,67.799,2.214,79,0H108z M48.543,115.523c13.486,15.59,12.577,13.1,30.471,20.416
			c2.249,0.92,5.382-0.733,7.411,0.536c4.8,3.004,9.102,1.091,13.779,0.032c10.034-2.272,21.777-5.727,29.154-13.128
			c7.317-7.34,14.707-16.875,17.129-27.217l1.868-7.975c1.304-5.567-0.007-16.746-1.611-21.752
			c-3.868-12.071-12.298-25.178-23.422-31.802c-7.97-4.746-14.827-10.149-25.24-9.581c-6.436-3.312-13.447-2.563-19.846-0.105
			c-9.286,1.21-18.063,4.928-24.881,12.808c13.931-3.859,33.207-1.439,43.909,9.067c5.893,0.883,10.43,11.235,12.914,15.022
			c4.099,6.248,5.436,12.34,4.956,20.558c-0.979,16.752-13.484,33.183-30.783,36.943c-8.73,1.897-19.712-5.423-22.038-13.386
			c-0.869-6.018,15.078-8.677,18.155-15.482c4.087-9.041,3.143-21.935-7.364-28.419c-5.251-3.241-12.791-2.793-17.663,0.153
			C36.565,73.622,37.742,103.036,48.543,115.523z M52.635,39.5c0-0.351-0.284-0.635-0.635-0.635s-0.635,0.284-0.635,0.635
			s0.284,0.635,0.635,0.635S52.635,39.851,52.635,39.5z"/>
	</g>
</g>
</svg>
