<?xml version="1.0" encoding="iso-8859-1"?>
<!-- Generator: Adobe Illustrator 30.1.0, SVG Export Plug-In . SVG Version: 9.03 Build 0)  -->
<svg version="1.1" id="Layer_1" xmlns="http://www.w3.org/2000/svg" xmlns:xlink="http://www.w3.org/1999/xlink" x="0px" y="0px"
	 viewBox="0 0 170 176" style="enable-background:new 0 0 170 176;" xml:space="preserve">
<g>
	<g>
		<path style="fill:#FEFEFE;" d="M129,0c24.778,4.438,40.826,31.651,36.251,55.129c-2.73,14.011-10.14,25.113-17.376,36.588
			l-8.148,12.922c-2.292,3.635-5.596,8.284-6.149,12.441c-0.387,2.913-2.429,6.636-2.03,8.682l1.789,9.175
			c1.593,8.171,11.572,11.458,17.817,7.539c1.132-2.398,1.815-4.083,2.607-6.334c-2.76-3.301-2.597-8.788,1.421-10.996
			c2.234-1.228,4.421,1.712,6.17,2.412c8.295,3.321,6.304,8.653,8.649,12.442v3c-0.855-0.154-1.621-0.029-2.03,0.519
			c-0.664,0.89,1.188,2.298,1.01,2.993C165.422,160.438,155.131,171.329,142,176h-14c-1.397-1.844-4.267-1.296-6.36-2.64
			l-7.402-4.752c-4.832-3.102-7.776-10.27-9.544-16.266c-5.678-19.261,1.776-39.874,10.294-57.511
			c5.429-11.241,12.454-21.599,15.655-33.952c2.424-9.351-1.145-21.453-8.729-27.439c-3.456-2.728-7.057-2.938-10.373-4.13
			c-4.319-1.551-6.673-1.745-10.955,0.252c-2.02,0.942-4.08,1.274-6.446,2.764c-5.765,3.631-12.02,10.404-10.194,17.803
			c0.687,2.786,3.494,4.551,1.377,7.711c-1.37,2.045-2.867,3.216-6.01,3.552c-6.144,0.657-10.705-3.305-13.488-8.326
			c-3.165-5.71-2.339-14.027-0.167-20.116c4.744-13.299,14.256-21.767,26.978-27.451C97.337,3.4,102.931,0.427,108,0H129z"/>
		<path style="fill:#FEFEFE;" d="M29,176h-8c-12.303-4.48-20.752-14.503-20.163-29.073c0.215-5.313,0.049-10.655,5.071-14.272
			c2.152-1.55,5.887-0.471,6.808,2.718c1.055,3.653,5.614,7.801,9.831,6.217c11.693-4.394,15.534-17.154,12.616-28.791
			c-3.352-13.37-16.209-29.182-22.373-45.447C11.745,64.592,7.604,51.303,7.903,48.9C10.781,25.771,26.942,6.898,49.941,2.092
			c5.603-1.171,9.456,0.956,12.679,4.996c2.326,2.915,4.155,9.625,0.314,12.942c-35.164,30.372-1.054,56.638,3.025,85.172
			l1.366,9.558c0.718,5.021,0.357,8.397-0.259,12.585c-0.514,3.497-0.098,6.624-1.314,10.147
			c-2.702,7.831-5.741,14.942-11.166,21.252c-3.187,3.707-5.382,7.212-9.927,10.149C39.7,172.097,34.848,174.888,29,176z"/>
		<path style="fill:#FEFEFE;" d="M73.503,87.228c-1.155-3.806-1.075-9.255,0.441-11.966c4.04-7.226,12.066-9.889,18.653-7.355
			c7.502,2.886,10.995,9.835,9.268,18.321c-1.221,6-7.56,10.395-13.472,10.763C82.548,97.354,75.507,93.829,73.503,87.228z"/>
	</g>
</g>
</svg>
