<?xml version="1.0" encoding="iso-8859-1"?>
<!-- Generator: Adobe Illustrator 30.1.0, SVG Export Plug-In . SVG Version: 9.03 Build 0)  -->
<svg version="1.1" id="Layer_1" xmlns="http://www.w3.org/2000/svg" xmlns:xlink="http://www.w3.org/1999/xlink" x="0px" y="0px"
	 viewBox="0 0 165 172" style="enable-background:new 0 0 165 172;" xml:space="preserve">
<g>
	<g>
		<path style="fill:#FEFEFE;" d="M108,0c0.994,2.314,3.675,1.515,5.996,1.953c14.322,2.698,25.927,12.397,31.712,25.287
			c5.544,12.353,5.246,30.163-0.257,42.224c-3.374,7.395-16.769,25.852-22.248,31.885c-2.84,3.127-4.467,7.526-6.686,11.214
			c-5.242,8.713-4.997,21.284,0.683,25.789c3.685,2.923,8.485,5.206,13.378,3.092c3.072-1.328,6.254-3.987,7.833-6.874l4.819-8.808
			c-1.964-5.001-7.11-7.058-10.893-10.116c-3.774-3.051-0.024-8.396,2.12-10.862c3.228-3.714,6.225-3.664,10.479-3.95
			C159.05,99.883,161.915,110.666,165,120v11c-3.217,11.685-8.781,23.314-19.675,30.169c-3.745,2.357-7.47,5.02-11.53,6.469
			l-9.013,3.215c-1.941,0.692-4.888-0.948-5.782,1.147h-8c-7.932-1.457-13.9-5.247-19.355-10.586
			c-5.295-5.183-8.113-10.681-7.936-18.476c0.127-5.574-0.113-15.067,2.113-21.244c7.415-20.576,23.269-38.815,27.769-55.04
			c3.841-13.849-1.006-28.658-14.035-35.151c-2.221-1.107-6.526-1.691-8.831-1.822c-5.897-0.334-10.468,4.028-14.821,7.063
			c-3.989,2.781-5.211,6.123-5.123,10.771c0.075,3.962,3.522,6.293,7.512,8.284c2.873,1.433,1.288,4.621,0.881,6.693
			c-0.594,3.032-3.146,2.788-5.488,4.125c-3.954,2.257-7.284,1.574-11.072-0.114c-9.58-4.268-10.602-13.268-10.114-22.718
			c0.343-6.629,2.606-11.617,5.923-17.436C65.591,13.774,78.105,5.779,92.41,2.512c4.382-1,8.867-0.626,12.59-2.512H108z"/>
		<path style="fill:#FEFEFE;" d="M0,57v-4c1.196-1.394,1.412-3.28,1.004-4.847c-0.908-3.494,0.928-5.601,1.551-8.375
			C6.551,21.987,21.982,6.538,40.277,3.105c6.367-1.195,11.909-2.22,18.611,1.357c2.114,1.128,3.622,3.912,2.857,6.735
			c-2.231,8.234-19.245,11.413-24.17,34.442c-2.439,11.403,0.912,21.365,5.939,31.803L51.7,94.44
			c1.735,3.603,2.397,7.309,3.723,10.712c4.488,11.517,5.304,32.401-0.688,44.456c-3.871,7.789-8.803,13.129-16.515,16.707
			c-9.708,4.504-30.443,6.326-32.235-7.417c-0.535-4.102,1.935-7.724,6.315-8.82c10.624-2.66,20.155-12.248,18.449-24.109
			c-2.152-14.957-17.32-29.217-25.542-49.201c-1.645-3.997-3.476-8.199-4.233-12.699C0.536,61.463,1.948,58.666,0,57z"/>
	</g>
</g>
</svg>
