<?xml version="1.0" encoding="iso-8859-1"?>
<!-- Generator: Adobe Illustrator 30.1.0, SVG Export Plug-In . SVG Version: 9.03 Build 0)  -->
<svg version="1.1" id="Layer_1" xmlns="http://www.w3.org/2000/svg" xmlns:xlink="http://www.w3.org/1999/xlink" x="0px" y="0px"
	 viewBox="0 0 129 135" style="enable-background:new 0 0 129 135;" xml:space="preserve">
<g>
	<g>
		<path style="fill:#FEFEFE;" d="M129,44.006v5.221c-0.806,0.183-1.268,0.771-1.441,1.336c-0.226,0.74,0.159,1.849,0.394,2.683
			c1.671,5.946-5.824,18.705-8.405,23.694c-3.31,6.398-14.423,16.578-21.208,19.404l-5.364,2.234
			c-8.92,3.715-19.719,2.134-25.127-6.456c-1.639-2.603-3.719-9.319-2.293-12.834c3.148-7.76,2.001-7.617,10.127-14.449
			c2.901-2.439,6.952-3.234,10.237-4.534c2.275,3.923,0.938,7.273-1.223,10.463c-0.839,1.239-0.417,3.22-2.044,4.208l2.541,3.646
			c7.437,2.339,13.74-2.005,17.035-8.334c1.836-3.527,1.862-6.712,2.17-10.605c0.636-8.011-2.078-14.482-8.158-19.772
			c-5.164-4.493-11.632-7.91-18.978-7.78c-3.982,0.07-7.907-0.326-11.743,0.195c-0.154,0.021-7.782,8.972-7.874,16.321
			c-0.096,7.732,0.6,15.269-0.203,22.886c-0.217,2.062,0.497,2.924,0.696,4.67c0.749,6.562,0.451,13.287,0.12,19.913
			c-0.096,1.933-1.645,3.089-0.746,5.495c1.062,2.842-0.507,6.416,0.406,9.422c0.794,2.614,3.545,4.006,5.785,4.233
			c7.238,0.732,8.15-7.286,13.983-0.71c3.282,3.7,1.229,8.584-1.255,12.027c-2.909,4.033-6.262,5.031-10.698,6.107
			c-3.303,0.801-5.119,0.943-8.454-0.128c-7.056-2.267-18.372-1.917-25.813-1.937c-8.962-0.024-8.283,6.351-16.99,1.841
			c-3.595-1.862-5.299-7.032-3.163-10.719c4.828-8.334,10.164-4.829,14.492-7.964c2.39-1.731,4.852-3.943,6.451-6.342
			c1.6-2.4,5.28-10.531,5.763-13.429c2.458-14.751-3.34-19.889-2.419-36.768c0.319-5.843,1.579-10.542,4.797-15.643
			c1.954-3.098,3.599-6.554,7.74-7.842c1.312-2.98,3.727-4.064,6.838-5.925c-12.129-0.353-19.049-1.849-28.795,7.339
			c-3.562,3.358-5.516,8.69-6.218,13.378c-1.44,9.62,4.203,12.864,0.635,17.009c-1.176,1.366-2.957,3.932-5.58,3.001
			c-1.904-0.676-4.238-1.363-5.995-2.199c-8.014-3.81-8.694-15.403-7.8-23.184C3.314,24.975,16.337,10.484,33.705,5.135
			c3.102-0.955,5.544-2.394,8.948-2.26c1.057,0.042,2.031-1.305,3.17-1.307L62.13,1.538c0.861-0.002,1.661,1.463,2.445,1.391
			c4.1-0.375,7.32,1.416,11.011,2.326L86.971,8.06l5.813,0.804l12.549,0.421c8.655,0.29,26.484,24.105,22.049,33.31
			c-0.211,0.438,0.212,1.271,0.498,1.405C128.158,44.131,128.673,43.96,129,44.006z"/>
	</g>
</g>
</svg>
