<?xml version="1.0" encoding="iso-8859-1"?>
<!-- Generator: Adobe Illustrator 30.1.0, SVG Export Plug-In . SVG Version: 9.03 Build 0)  -->
<svg version="1.1" id="Layer_1" xmlns="http://www.w3.org/2000/svg" xmlns:xlink="http://www.w3.org/1999/xlink" x="0px" y="0px"
	 viewBox="0 0 135 132" style="enable-background:new 0 0 135 132;" xml:space="preserve">
<g>
	<g>
		<path style="fill:#FEFEFE;" d="M41.25,0c0.519,1.338,2.343,0.529,3.769,0.696c4.314,0.505,7.811,2.787,11.588,4.885
			c16.481,9.155,19.298,27.684,10.613,44.13c-4.02,7.613-7.839,14.96-12.813,22.176c-5.323,7.722-9.732,16.205-9.611,25.783
			c0.018,1.394,1.123,3.677,1.555,4.981c0.738,2.228,3.296,3.603,5.317,5.112c7.568-17.431,17.474-22.107,33.461-29.052
			c14.743-6.405,27.237-19.942,26.738-36.976c-0.126-4.317-0.409-8.31-3.036-12.255c-2.191-3.29-5.444-8.129-9.416-8.89l-9.033-1.73
			c-1.055-3.512-0.52-8.074,2.6-10.732c8.028-6.837,24.182-0.832,30.52,5.52l4.866,4.877c3.893,3.902,4.799,9.543,6.63,14.288
			v15.661c-0.607-0.09-1.267-0.078-1.514,0.399c-0.372,0.719,0.717,1.554,0.638,2.189c-2.07,16.659-20.24,34.973-35.759,41.535
			l-24.327,10.287c-5.094,2.154-10.203,5.74-13.055,10.58c-3.167,5.375-2.067,14.988-8.266,16.606
			c-10.158,2.652-19.683-5.605-25.746-12.914c-2.618-3.156-3.695-7.396-4.873-11.052c-3.645-11.314,3.104-21.938,9.591-31.402
			c3.21-4.684,6.04-9.334,8.989-14.213c5.112-8.458,8.39-11.885,7.197-22.487c-0.466-4.134-3.771-7.387-6.845-10.254
			c-3.623-3.379-8.932-4.607-14.19-3.789c-7.714,1.199-12.845,9.224-11.603,16.658c0.726,4.348,7.17,5.356,6.766,5.476
			c4.245-1.262,3.74-5.863,7.852-7.212c2.066-0.118,2.568,3.042,3.216,4.17c3.466,6.039-0.538,15.452-4.051,17.259
			C17.828,66.07,5.188,55.965,1.504,45.51C1.11,44.391,1.106,43.349,0,43.254V30.576c2.423-3.278,2.803-7.689,5.073-11.45
			C11.553,8.391,22.713,2.487,34.5,0H41.25z"/>
	</g>
</g>
</svg>
