<?xml version="1.0" encoding="iso-8859-1"?>
<!-- Generator: Adobe Illustrator 30.1.0, SVG Export Plug-In . SVG Version: 9.03 Build 0)  -->
<svg version="1.1" id="Layer_1" xmlns="http://www.w3.org/2000/svg" xmlns:xlink="http://www.w3.org/1999/xlink" x="0px" y="0px"
	 viewBox="0 0 161 171" style="enable-background:new 0 0 161 171;" xml:space="preserve">
<g>
	<g>
		<path style="fill:#FEFEFE;" d="M100,0c-10.788-2.045,24.594,8.004,14.339,5.603l8.937,2.092
			c24.182,5.66,24.901-11.585,32.159-3.131c6.099,7.105,1.743,7.682,5.565,9.436v9c-2.247,0.357-1.83,2.835-2.081,4.936
			c-0.555,4.653-4.378,7.688-6.257,11.632c-1.716,3.603-5.67,5.096-8.269,7.718c-3.108,3.137-6.304,3.336-10.249,5.277
			c-5.566,2.74-16.644,2.115-17.566-5.53c-1.131-9.372-5.001-16.077-14.66-17.332C85.247,27.535,68.227,29.72,55.311,41.35
			c-5.875,5.29-11.618,11.435-14.815,18.248c-2.282,4.865-2.711,9.899-4.275,14.673c-2.083,6.355-1.758,19.992,0.48,26.323
			c0.692,1.957,0.23,5.37,1.043,6.858l4.559,8.337c5.162,9.438,14.165,15.884,23.496,20.404c5.076,2.459,10.026,2.181,14.893,3.379
			c5.125,1.261,7.86,1.2,12.835,0.22c7.403-1.458,14.515-2.074,20.677-7.843c6.81-6.376,5.791-22.364,4.197-25.467
			c-3.396-6.61-9.956-12.155-17.346-13.266c-22.492-3.382-21.367,15.887-27.335,20.395c-5.228,3.95-11.746,0.787-15.093-4.404
			c-3.127-4.851-3.259-11.317-1.458-17.266c2.185-7.216,7.994-12.328,12.465-18.473c2.966-4.078-9.533-11.322-0.425-21.265
			c6.004-6.554,17.121-10.428,22.19-4.544c2.404,2.79-0.588,8.104-0.052,11.231c0.452,2.639,4.916,2.7,7.113,3.204l11.519,2.641
			c6.859,1.573,15.85,5.065,21.831,8.604c11.478,6.791,20.854,19.15,20.029,33.2c-0.685,11.668,2.81,0.627-1.45,23.369
			c-0.872,4.655-4.709,8.543-6.496,12.871c-2.026,4.908-5.922,7.295-9.443,10.641c-9.133,8.681-24.79,15.787-37.188,15.762
			c-0.744-0.001-1.161,1.692-1.265,1.816H79c-1.276-2.676-4.286-1.467-7.123-1.904c-10.95-1.687-22.016-5.454-30.921-11.986
			c-8.031-5.891-17.057-13.144-22.61-21.178c-5.562-8.047-10.522-15.982-13.254-25.163c-1.394-4.684-3.738-8.56-3.132-13.743
			C2.092,95.903,0.556,95.109,0,95V72c2.219-1.2,1.71-4.101,2.367-6.617c1.131-4.336,2.945-8.411,4.597-12.412
			c7.912-19.172,29.118-38.485,48.061-45.046l11.009-3.813C73.838,1.408,82.876,2.987,84,0H100z"/>
	</g>
</g>
</svg>
