<?xml version="1.0" encoding="iso-8859-1"?>
<!-- Generator: Adobe Illustrator 30.1.0, SVG Export Plug-In . SVG Version: 9.03 Build 0)  -->
<svg version="1.1" id="Layer_1" xmlns="http://www.w3.org/2000/svg" xmlns:xlink="http://www.w3.org/1999/xlink" x="0px" y="0px"
	 viewBox="0 0 150 171" style="enable-background:new 0 0 150 171;" xml:space="preserve">
<g>
	<g>
		<path style="fill:#FEFEFE;" d="M0,48V38c1.024-0.124,2.306-1.525,1.992-2.89c-0.799-3.47,1.592-5.127,2.557-7.572
			C12.157,8.282,37.755-0.924,58.121,1.627c5.595,0.701,10.845,0.889,16.252,3.041c3.845,1.53,8.182,1.417,12.104,2.846
			l16.314,5.949c10.753,3.921,23.196,6.096,32.269-2.76c2.651-2.588,8.44-8.081,12.11-2.673c4.083,6.015-0.697,27.953-22.09,32.456
			c-5.239,1.103-8.27,2.501-13.678,0.203c-4.532-1.926-10.519-1.781-15.552-3.527l-10.399-3.607
			c-8.001-2.776-6.109-6.681-26.42-5.505c20.846,26.666-10.15,48.597-9.828,68.874c0.08,5.055-1.136,10.069-0.261,14.264
			c2.213,10.61,6.668,20.287,14.764,26.876c3.383,2.754,7.496,3.493,11.015,5.225c10.933,5.381,31.254,1.899,39.021-12.512
			c3.661-6.792,4.319-16.754,2.664-23.121l-4.255-16.374c-3.374-12.982,3.629-27.371,18.421-29.884
			c1.748-0.297,4.535-2.299,6.808-1.535c1.341,0.451,3.721,1.676,3.173,4.348c-0.558,2.719-4.706,4.756-7.279,5.754
			c-2.599,1.008-3.202,2.884-4.601,4.641c-2.805,3.523-1.976,6.714,0.729,10.092c9.112,11.377,14.606,10.153,17.108,24.468
			c5.674,32.47-22.847,58.567-51.925,60.5c-16.759,1.114-27.513,0.152-43.117-5.264c-5.721-1.986-9.909-6.884-15.133-9.599
			c-4.288-2.229-6.696-5.951-9.691-9.43c-4.896-5.687-8.773-11.78-9.728-19.396c-4.785-38.148,6.127-40.797,18.746-72.36
			c1.932-4.832,1.711-8.119-0.636-12.582c-2.238-4.257-4.784-6.158-10.084-6.239c-4.807-0.074-8.182,1.528-10.13,6.218
			c-0.977,2.353-1.776,3.999-0.853,7.1c1.096,3.678-1.633,8.853-5.816,8.574C3.097,56.353,1.834,47.622,0,48z"/>
		<path style="fill:#FEFEFE;" d="M96.691,115.797c-0.857,3.609-7.786,7.697-10.966,6.535c-5.067-1.851-6.964-7.488-10.016-10.856
			c-13.68-15.098-15.872-32.242-0.511-46.322c5.314-4.87,10.042-10.31,17.115-12.696c6.545-2.208,14.043-2.48,19.947,1.658
			c-2.918,8.647-9.137,14.894-13.971,22.082l-5.271,7.839C82.69,99.396,98.808,106.883,96.691,115.797z"/>
	</g>
</g>
</svg>
