<?xml version="1.0" encoding="iso-8859-1"?>
<!-- Generator: Adobe Illustrator 30.1.0, SVG Export Plug-In . SVG Version: 9.03 Build 0)  -->
<svg version="1.1" id="Layer_1" xmlns="http://www.w3.org/2000/svg" xmlns:xlink="http://www.w3.org/1999/xlink" x="0px" y="0px"
	 viewBox="0 0 152 176" style="enable-background:new 0 0 152 176;" xml:space="preserve">
<g>
	<g>
		<path style="fill:#FEFEFE;" d="M152,29v16c-0.597,0.285-1.772,0.877-2.088,1.883c-3.839,12.218-15.803,17.853-28.121,15.446
			c-3.903-0.763-8.945-1.499-9.827-6.276c-2.15-11.641,10.395-3.119,14.278-12.398c1.658-3.963,1.138-7.662-1.189-10.399
			c-5.386-6.332-14.634-5.121-20.795-2.386c-6.716,2.981-9.053,8.035-11.014,14.694c-0.987,3.353-1.256,3.894-0.288,7.23
			c1.853,6.39,3.685,11.567,9.362,16.118c2.374,1.903,4.134,5.017,7.381,6.461c8.312,3.695,14.296,11.366,19.088,15.674
			c8.092,7.274,14.259,23.142,12.23,34.797c-1.732,9.946-5.263,18.259-12.493,25.935c-12.238,12.991-29.27,21.455-47.391,23.428
			C78.806,175.46,76.03,173.886,75,176H64c-16.003-1.386-30.993-5.701-44.304-15.636c-18.447-13.769-23.125-34.48-8.464-54.267
			c3.895,23.878,23.162,39.367,45.603,43.538c10.187,1.893,14.004,2.432,24.533-0.159c15.303-3.766,26.225-16.854,23.314-33.876
			c-1.787-10.447-15.093-22.713-23.797-29.565c-4.629-3.644-8.286-8.243-12.62-12.292c-2.147-2.006-2.868-5.17-4.704-7.228
			c-2.732-3.062-2.628-6.824-3.922-10.209c-2.245-5.871-2.191-10.72-0.086-16.648c1.047-2.946,1.694-5.919,3.147-8.801
			C69.362,17.642,81.072,9.285,95.275,5.071c20.921-6.207,45.945-0.757,54.868,21.824C150.606,28.066,151.027,28.843,152,29z"/>
		<path style="fill:#FEFEFE;" d="M0,51V35c2.399-0.249,1.496-2.945,2.174-4.865C7.187,15.956,19.191,5.775,33.586,2.257
			c3.207-0.784,5.838-2.085,9.287-0.608c6.27-2.131,14.282,0.177,16.787,6.647c-3.889,9.43-13.199,8.288-18.855,20.797
			c-10.077,22.291,12.192,45.53,28.82,58.266l6.92,5.301c3.816,2.923,7.134,7.794,9.587,11.913
			c6.164,10.351,2.335,22.057-7.272,28.352c-3.697,2.423-9.753,3.656-12.85-0.158c3.539-12.26-2.575-23.163-13.263-29.734
			L36.177,92.846C21.712,83.953,8.572,71.656,2.156,55.83C1.407,53.983,2.444,51.204,0,51z"/>
	</g>
</g>
</svg>
