<?xml version="1.0" encoding="iso-8859-1"?>
<!-- Generator: Adobe Illustrator 30.1.0, SVG Export Plug-In . SVG Version: 9.03 Build 0)  -->
<svg version="1.1" id="Layer_1" xmlns="http://www.w3.org/2000/svg" xmlns:xlink="http://www.w3.org/1999/xlink" x="0px" y="0px"
	 viewBox="0 0 184 186" style="enable-background:new 0 0 184 186;" xml:space="preserve">
<g>
	<g>
		<path style="fill:#FEFEFE;" d="M184,53v15c-1.848,0.173-1.596,2.212-2.156,3.775c-6.237,17.405-28.092,30.504-44.038,23.632
			c-5.935-2.557-9.6-6.682-9.03-13.468c0.284-3.376,0.7-5.624,2.717-8.525c2.67-3.839,7.132-7.291,12.009-4.826
			c2.923,1.477,1.952,5.446,2.977,8.13c1.167,3.052,7.126,3.36,9.19,1.081c4.141-4.572,4.501-11.197,2-16.619
			c-5.334-11.561-23.142-10.357-30.201-5.652c-19.359,12.903-12.143,33.279-12.92,42.181c-0.297,3.406,0.509,3.476,1.474,6.089
			c3.181,8.612,3.342,21.592,1.081,31.305c-0.819,3.518-3.963,5.488-5.013,8.758c14.775-0.104,3.947-4.162,23.098-0.447
			c11.161,2.165,18.196,9.811,18.057,21.813c-0.089,7.652-4.537,18.139-13.398,18.855c-3.143-6.547-8.253-12.408-16.993-11.215
			c-5.87,0.801-12.451-0.86-18.135,1.945c-3.646,1.799-7.755,1.994-11.457,3.556c-4.68,1.975-16.236,5.827-21.208,5.743
			c-2.012-0.034-3.989,0.677-5.055,1.891h-8c-1.225-2.485-4.291-1.593-6.931-2.071c-10.742-1.945-19.009-9.137-25.425-17.57
			c-3.57-4.692-3.906-10.365-5.473-15.596c-1.256-4.192-1.239-6.278,0.162-10.378c1.297-3.796,1.062-8.044,2.944-11.991
			c6.907-14.481,16.134-24.57,18.6-30.421c4.417-10.479,9.206-18.051,6.68-30.864c-0.53-2.687-7.727-15.658-17.538-11.102
			c-5.471,2.541-12.048,6.972-10.945,14.016c1.347,8.607,15.593,7.434,9.277,14.58c-4.308,4.874-12.71,6.27-18.447,2.443
			c-3.893-2.596-6.845-6.861-9.042-10.824C1.619,73.978,2.163,71.121,0,70V59c1.762-0.416,1.117-2.319,1.544-3.648
			c2.01-6.27,5.984-11.702,10.719-15.96c8.04-7.23,17.022-10.125,27.803-9.592c8.005,0.396,16.49,0.387,22.327,6.915
			c2.218,2.481,5.172,4.824,7.278,7.683c9.641,13.091,10.107,24.874,9.002,40.471c-0.535,7.555-15.839,34.462-20.157,42.563
			c-1.699,3.187-3.697,6.955-4.022,10.64c-0.448,5.083,3.94,12.217,8.455,14.716c11.104,6.145,23.009-1.64,26.393-12.451
			c2.246-7.174,3.58-12.969,1.8-20.482c-0.963-4.064-4.31-25.314-3.509-22.567c-2.23-7.647-1.956-14.523-0.556-22.016
			c3.817-20.425,11.099-32.552,27.845-44.326c10.241-7.201,19.391-7.458,31.07-7.309c15.304,0.195,32.908,9.494,36.054,25.475
			C182.358,50.696,181.968,52.848,184,53z"/>
		<path style="fill:#FEFEFE;" d="M80.921,23.748c-4.848,1.864-7.395,7.236-13.116,4.935c-4.245-1.708-7.773-5.118-7.912-10.722
			C59.488,1.552,82.857,5.88,94.172,7.401c4.468-5.739,10.979-7.153,16.811-3.706c5.48,3.239,7.324,11.767,2.737,17.021
			C103.927,31.933,88.842,20.704,80.921,23.748z"/>
	</g>
</g>
</svg>
