<?xml version="1.0" encoding="iso-8859-1"?>
<!-- Generator: Adobe Illustrator 30.1.0, SVG Export Plug-In . SVG Version: 9.03 Build 0)  -->
<svg version="1.1" id="Layer_1" xmlns="http://www.w3.org/2000/svg" xmlns:xlink="http://www.w3.org/1999/xlink" x="0px" y="0px"
	 viewBox="0 0 127.5 128.25" style="enable-background:new 0 0 127.5 128.25;" xml:space="preserve">
<g>
	<g>
		<path style="fill:#FEFEFE;" d="M97.675,128.25H82.763c-0.916-1.851-3.175-1.178-5.137-1.551c-6.608-1.256-12.887-3.1-19.32-4.529
			l-13.557-3.011c-5.573-1.238-11.862-0.548-17.857-0.379c-3.625,0.102-7.06,2.318-9.892,4.013
			c-2.589,1.55-10.384,3.633-12.641,1.455c-3.732-3.603,0.687-16.04,7.703-20.574c7.915-5.114,6.294-4.418,16.246-4.999
			c9.708-0.567,15.8-6.445,18.727-15.181c2.328-6.948-2.98-18.789-4.489-25.421l-2.9-12.747c-0.773-3.398-0.569-5.15,0.131-8.381
			c1.108-5.117,2.058-10.341,6.061-14.854c-2.957-1.516-5.339,0.188-8.285,0.558c-6.578,0.826-13.22,3.209-17.045,9.086
			c-1.038,1.595-1.433,3.933-2.438,5.743c-1.163,2.095,3.512,8.077,5.434,8.158c4.343,0.185,3.001-3.168,5.351-3.806
			c2.614-0.71,5.905,4.762,5.313,6.581c-0.704,2.165-1.265,4.622-2.377,6.714c-1.622,3.05-5.478,6.132-8.904,7.168
			C14.23,64.913,4.338,60.03,1.217,50.101C0.953,49.259,0.885,48.555,0,48.467V35.045c0.893-0.078,1.07-0.771,1.215-1.625
			c0.784-4.604,3.536-8.14,5.942-12.052c2.743-4.458,14.713-13.4,19.818-14.415c2.985-0.594,5.574-2.847,8.692-3.242
			c3.02-0.383,5.576-1.393,8.355-1.944c6.261-1.239,26.918-1.513,32.779-0.016l7.05,1.801c13.6,3.474,16.453,8.984,23.335,18.261
			c5.327,7.18,8.351,17.566,8.583,26.641c0.056,2.196,0.732,3.846,0.128,6.275c-1.036,4.169,0.199,9.607-2.344,13.42
			c-0.997,1.495-1.273,2.056-1.683,3.741c-2.526,10.382-15.339,13.119-12.179,24.275c1.067,3.768,3.255,5.669,6.906,5.409
			c2.47-0.176,3.929-0.274,5.37-1.951c2.973-3.462-0.089-9.984,3.226-11.078c3.838-1.267,6.768,1.908,8.375,4.807
			c5.55,10.012,3.918,16.132-4.366,24.336c-3.306,3.274-6.443,5.733-10.997,7.096c-2.42,0.724-4.624,2.157-7.554,1.997
			C99.385,126.712,98.157,127.401,97.675,128.25z M79.21,105.672c-3.048-6.213,1.329-17.892,4.999-22.984
			c3.46-4.8,5.982-9.864,8.574-15.394c5.11-10.903-0.038-24.191-5.755-34.284c-2.851-5.033-10.774-11.624-17.119-8.6
			c-6.206,2.958-9.274,9.388-9.056,15.754l0.179,5.227c0.635,18.536,5.832,15.988,4.354,37.441
			c-0.419,6.077-4.534,11.274-7.035,16.943C59.461,103.55,74.295,106.352,79.21,105.672z"/>
	</g>
</g>
</svg>
