<?xml version="1.0" encoding="iso-8859-1"?>
<!-- Generator: Adobe Illustrator 30.1.0, SVG Export Plug-In . SVG Version: 9.03 Build 0)  -->
<svg version="1.1" id="Layer_1" xmlns="http://www.w3.org/2000/svg" xmlns:xlink="http://www.w3.org/1999/xlink" x="0px" y="0px"
	 viewBox="0 0 170 171" style="enable-background:new 0 0 170 171;" xml:space="preserve">
<g>
	<g>
		<path style="fill:#FEFEFE;" d="M170,111v12c-2.184,0.149-1.435,2.232-1.934,4.093c-3.694,13.802-12.69,25.726-24.775,33.055
			c-5.221,3.166-10.314,5.164-15.72,7.443c-9.031,3.806-11.922,1.14-14.571,3.409H95c-6.472-0.575-12.723-3.333-18.653-6.103
			c-3.48-1.626-5.443-3.866-8.123-6.07c-9.184-7.556-12.891-17.986-12.436-29.859c0.215-5.601,0.662-10.112,2.652-15.336
			c4.76-12.494,12.232-25.901,22.287-34.952c7.41-6.671,12.746-11.224,19.386-18.529c2.022-2.224,2.019-6.369,0.798-8.177
			c-1.628-2.411-6.068-3.489-8.93-3.173c-9.937,1.098-16.428,7.648-22.273,14.708c-5.784,6.988-20.757,12.354-28.31,7.499
			C57.252,46.378,63.88,38.254,92.734,31.746c6.528-1.473,13.241-0.76,20.392-0.569c7.181,0.192,14.959,4.873,18.1,11.402
			c1.689,3.51,1.19,9.309,0.055,12.736c-5.375,16.233-21.641,21.011-25.274,24.717l-4.906,5.005
			c-1.835,1.872-4.088,3.41-5.497,5.367c-3.843,5.336-8.399,16.547-10.164,22.829c-1.631,5.805-0.147,14.121,2.778,19.506
			c7.745,14.255,33.732,18.3,48.204,2.638c6.455-6.986,6.223-17.167,1.513-22.403c-2.102-2.336-3.486-4.875-6.705-5.032
			c-5.179-0.253-9.17,3.267-9.3,5.55c-0.052,0.909,1.383,1.921,1.75,2.925c-1.789,3-6.262,7.049-10.515,5.366
			c-5.572-2.204-7.311-8.293-7.985-13.403c-0.723-5.482,2.792-9.76,6.483-13.668c7.812-8.27,17.951-11.509,29.471-10.837
			c5.614,0.328,10.159,3.269,14.968,5.923C163.799,94.046,166.656,105.345,170,111z"/>
		<path style="fill:#FEFEFE;" d="M81,0c4.308,2.555,9.679,2.616,14.8,4.23C107.196,7.822,109.044,9.583,120,0h5
			c8.193,8.541-8.675,23.21-16.166,23.66c-19.646,1.18-13.282,0.214-29.774-1.98c-7.557-1.006-14.182-0.93-21.289,2.06
			c-9.659,4.063-17.381,10.297-21.842,20.253c-1.052,2.348-4.131,5.657-4.363,7.953c-0.56,5.554-2.697,11.196-1.669,15.8
			c2.88,12.905,7.406,18.629,11.879,33.813c5.948,20.19-0.189,42.907-15.643,57.349c-4.474,4.181-9.611,7.386-15.373,8.456
			c-2.258,0.419-5.718-1.361-7.422-2.578C1.72,163.631,1.739,161.33,0,161v-3c2.587-3.656,7.108-4.533,11.01-7.091
			c11.287-7.398,10.393-28.493,7.077-34.16C-3.011,80.696-7.478,43.493,27.479,14.464C41.138,3.121,45.546,5.754,58,0H81z"/>
	</g>
</g>
</svg>
