<?xml version="1.0" encoding="iso-8859-1"?>
<!-- Generator: Adobe Illustrator 30.1.0, SVG Export Plug-In . SVG Version: 9.03 Build 0)  -->
<svg version="1.1" id="Layer_1" xmlns="http://www.w3.org/2000/svg" xmlns:xlink="http://www.w3.org/1999/xlink" x="0px" y="0px"
	 viewBox="0 0 176 175" style="enable-background:new 0 0 176 175;" xml:space="preserve">
<g>
	<g>
		<path style="fill:#FEFEFE;" d="M153,0c5.81,1.642,12.948,9.713,15.142,15.843c6.103,17.048-1.962,28.149-7.128,40.288
			l-2.969,6.977c-5.125,12.045-11.12,23.131-12.659,36.213c-0.212,1.805-1.963,3.337-1.613,5.682
			c0.989,6.626-0.699,13.303,0.63,19.815c0.497,2.434,1.838,4.734,2.613,7.426c1.342,4.665,7.972,8.457,12.467,6.277
			c3.341-1.621,4.896-5.215,7.892-7.377c8.239,1.412,6.618,7.045,8.625,9.856v2c-0.585-0.14-0.793,0.296-0.822,1.094
			c-0.438,11.893-8.439,22.557-19.947,24.783c-24.648,4.769-36.555-19.695-45.182-39.041c-9.075,19.816-24.7,34.389-44.092,40.262
			c-5.088,1.541-10.368,1.527-15.443,2.594c-3.733,0.785-5.295,0.75-9.017-0.002c-6.001-1.211-11.977-1.257-18.149-4.379
			c-7.215-3.649-13.778-10.189-18.224-17.291C3.255,148.037,1.117,138.53,0,139v-11c1.596-0.592,1.434-2.369,1.916-4.1
			c5.357-19.228,15.642-31.692,35.201-37.038c12.885-3.522,27.238,2.614,32.071,16.108c3.177,8.87-2.2,19.874-10.818,23.332
			c-2.874-1.605-4.038-3.796-6.398-5.634c3.131-4.866-3.787-11.776-8.452-11.929c-3.14-0.103-4.885,1.862-7.354,3.195
			c-4.341,2.342-4.461,5.528-5.888,9.484c-1.247,3.455-1.159,5.086-0.337,8.357c1.678,6.67,5.756,9.896,12.02,12.533
			c6.173,2.598,11.733,1.93,18.162,0.233c11.761-3.105,22.103-9.53,27.991-20.57c2.171-4.07,6.481-8.88,6.574-13.555
			c-3.449-5.558-6.732-10.938-9.182-16.918c-3.228-7.879-8.074-14.633-11.69-22.198c-3.547-7.42-11.963-19.548-18.02-25.257
			c-6.806-6.416-16.445-11.37-25.772-10.344c-5.251,0.578-11.007,4.499-11.853,9.029c-0.298,1.597,2.594,3.289,2.035,4.798
			c-0.473,1.275-1.15,3.739-3.354,4.803C11.12,55.098,3.54,50.398,1.893,44.207C1.433,42.482,1.652,41.1,0,41v-6
			c1.632-0.84,1.876-2.9,2.01-4.959c0.194-2.988,2.971-4.516,4.126-6.844c2.931-5.908,7.478-9.925,13.504-12.61
			c2.54-1.131,4.629-4.12,7.73-4.09c2.841,0.027,5.114-2.068,7.746-2.179c5.449-0.231,11.323-1.181,16.625,0.116
			c9.542,2.333,18.908,7.019,25.324,14.511C81.56,24.194,85.77,29.496,89.728,35.1l22.008,31.165
			c3.894,5.514,6.411,11.023,10.984,16.259c-0.211-15.675,19.506-37.917,9.687-51.628c-1.7-2.375-3.926-3.999-5.908-4.035
			c-6.619-0.121-6.484,5.056-11.48,5.072c-4.633-4.311-3.888-11.817,0.132-17.064C120.933,7.319,130.055,2.598,139,0H153z"/>
	</g>
</g>
</svg>
