<?xml version="1.0" encoding="iso-8859-1"?>
<!-- Generator: Adobe Illustrator 30.1.0, SVG Export Plug-In . SVG Version: 9.03 Build 0)  -->
<svg version="1.1" id="Layer_1" xmlns="http://www.w3.org/2000/svg" xmlns:xlink="http://www.w3.org/1999/xlink" x="0px" y="0px"
	 viewBox="0 0 153 178" style="enable-background:new 0 0 153 178;" xml:space="preserve">
<g>
	<g>
		<path style="fill:#FEFEFE;" d="M97,0c0.051,0.935,1.771,1.336,2.842,1.061c3.479-0.894,5.797,0.75,8.616,1.382
			c11.298,2.532,21.847,5.961,30.819,13.232c10.08,8.168,15.454,21.147,10.867,33.464c-3.665,9.842-11.478,16.936-20.932,21.079
			c-3.659,1.604-7.548,3.762-11.554,4.198c-8.141,0.886-4.738,4.141-25.684,2.297c-4.307-0.379-8.658-3.085-12.519-5.412
			c-5.324-3.208-9.437-10.065-10.244-16.284c-1.271-9.799,12.239-17.579,14.104-17.728c11.058-0.883,11.88-1.091,15.647,3.55
			c1.057,1.302-1.52,3.348-1.635,4.917c-0.368,5.002,6.849,7.814,11.126,7.269c5.859-0.747,8.888-6.169,8.772-12.027
			c-0.289-14.602-28.655-18.118-41.425-16.466c-10.082,1.304-15.146,2.932-23.626,8.7c-17.488,11.897-10.469,32.298,0.342,46.228
			c5.757,7.418,11.038,14.756,18.436,20.54c3.049,2.384,5.99,4.51,8.394,8.885c-12.387-2.204-23.597-7.122-35.329-11.773
			l-6.429-2.549C24.63,89.422,4.85,74.783,0.986,59.955C0.524,58.184,1.874,55.638,0,55v-6c1.869-1.378,0.205-3.842,1.023-6.067
			C8.819,21.728,29.391,9.129,50.595,3.703l9.509-2.434C62.566,0.639,66.151,1.203,68,0H97z"/>
		<path style="fill:#FEFEFE;" d="M75,178h-7c-6.715-2.534-13.976-1.688-21.156-3.77c-13.585-3.939-25.922-10.412-34.061-21.852
			c-4.252-5.976-4.999-11.395-5.053-18.31c-0.055-7.164,1.37-12.065,6.031-17.243c16.558-18.395,47.11-11.057,53.267-0.666
			c0.643,1.086,5.709,8.203,5.116,11.263c-0.246,1.272-7.698,12.72-11.816,7.252c-1.95-2.59-2.307-6.407-5.302-9.151
			c-3.242-2.97-9.145-2.092-12.333,1.53c-2.675,3.04-3.485,8.728,0.058,12.188c2.752,2.687,5.807,6.204,9.641,7.206l11.883,3.105
			c4.825,1.261,10.779,1.428,15.535,0.098l7.898-2.208c6.88-1.923,14.127-5.456,17.161-12.721
			c3.633-8.698,2.863-20.493-1.651-28.583c-1.009-1.809-15.363-20.702-18.482-20.229c2.019-2.626,3.45-0.969,5.677-0.343
			c13.887,3.903,27.763,8.926,39.128,17.574c7.188,5.47,10.144,13.177,12.376,20.914c1.312,4.548,1.254,7.388,0.007,11.711
			c-3.162,10.958-9.764,18.622-18.536,25.658c-7.844,6.292-16.651,10.125-26.536,12.517C83.482,177.176,79.658,174.677,75,178z"/>
	</g>
</g>
</svg>
