<?xml version="1.0" encoding="iso-8859-1"?>
<!-- Generator: Adobe Illustrator 30.1.0, SVG Export Plug-In . SVG Version: 9.03 Build 0)  -->
<svg version="1.1" id="Layer_1" xmlns="http://www.w3.org/2000/svg" xmlns:xlink="http://www.w3.org/1999/xlink" x="0px" y="0px"
	 viewBox="0 0 173 178" style="enable-background:new 0 0 173 178;" xml:space="preserve">
<g>
	<g>
		<path style="fill:#FEFEFE;" d="M115,0c0.652,1.05,2.267,2.188,3.968,2.006c5.847-0.627,10.716,1.434,15.934,2.805
			c10.777,2.831,20.682,6.809,28.091,15.296C167.108,24.823,171.046,29.279,173,35v13c-5.783,13.667-6.876,19.895-21.057,28.052
			c-6.689,3.847-13.02,5.537-20.988,5.115c-5.236-0.277-9.824-0.17-14.462-2.546c-8.565-4.387-14.088-10.946-16.96-20.411
			c-2.318-7.639,2.482-14.412,9.326-18.466c3.996-2.367,7.232-2.375,11.377-0.015c3.447,1.962,4.738,5.405,4.555,9.116
			c-0.112,2.275,3.709,6.269,6.219,6.119c6.999-0.418,11.718-9.24,8.012-15.039c-2.616-4.092-9.798-10.081-14.515-11.353
			c-15.896-4.285-42.053-5.951-55.955,3.028c-6.256,4.04-12.301,9.717-11.736,18.116c1.085,16.133,18.588,20.983,27.855,24.727
			L107,83.465l23.401,9.965l8.885,3.208c6.019,2.173,10.871,5.33,15.817,9.194c16.213,12.663,17.632,39.466,3.228,54.544
			c-6.94,7.265-15.066,12.504-24.882,15.198c-2.086,0.572-3.723,2.193-6.549,1.427c-0.827-0.224-2.065,0.325-1.899,1h-23.969
			c-14.295-4.843-23.806-15.377-18.925-31.657c3.485-11.624,13.079-20.06,25.935-16.936c-2.046,4.652,2.817,6.479-4.059,11.697
			c-3.825,2.903-1.953,7.601,0.484,10.219c3.512,3.776,6.601,3.761,11.644,3.825c5.651,0.072,11.807-0.477,15.495-5.03
			c3.434-4.24,6.011-10.055,3.841-15.373c-2.518-6.169-7.492-9.106-13.202-11.113l-8.119-2.854
			c-4.619-1.623-26.889-8.912-29.879-8.335c-1.229,0.237-2.313,3.237-2.223,4.48c0.69,9.539-4.621,16.618-8.476,23.548
			c-9.572,17.206-31.677,30.193-51.355,27.161C11.187,165.937,4.022,159.444,0,150v-16c3.958-14.326,25.399-27.676,39.594-21.504
			c2.418,1.496,3.61,5.148,5.539,7.143l-5.693,3.97c-3.635,2.535-9.894,5.01-10.154,10.441c-0.203,4.254,5.467,8.264,9.516,7.833
			c10.561-1.124,20.043-7.81,22.866-18.056c0.928-3.369,1.218-15.376-3.206-19.188c-3.67-3.163-7.045-6.527-11.146-8.836
			c-5.971-3.363-10.602-8.105-14.717-13.37c-12.83-16.414-11.385-39.914,1.222-55.564c3.288-4.081,5.976-7.781,10.45-10.815
			c7.764-5.264,15.382-9.639,24.691-11.958C77.98,1.849,85.147,2.232,86,0H115z"/>
	</g>
</g>
</svg>
