<?xml version="1.0" encoding="iso-8859-1"?>
<!-- Generator: Adobe Illustrator 30.1.0, SVG Export Plug-In . SVG Version: 9.03 Build 0)  -->
<svg version="1.1" id="Layer_1" xmlns="http://www.w3.org/2000/svg" xmlns:xlink="http://www.w3.org/1999/xlink" x="0px" y="0px"
	 viewBox="0 0 172 171" style="enable-background:new 0 0 172 171;" xml:space="preserve">
<g>
	<g>
		<path style="fill:#FEFEFE;" d="M46,0c-0.533,1.74,11.408,3.529,16.723,7.316c5.173,3.686,10.594,7.456,14.728,11.997
			c10.033,11.023,15.99,23.691,20.744,37.502c0.997,2.897,1.913,6.281,3.217,8.843c2.847,5.593,4.212,10.81,6.35,16.812
			c4.546,12.762,5.293,27.764-3.1,39.053c-6.835,9.194-19.629,11.413-29.074,6.064c-2.136-1.21-1.664-3.94-1.208-5.551
			c1.678-5.933,13.248-2.253,12.795-14.929c-0.296-8.259-6.142-13.163-14.195-13.334c-6.936-0.147-13.056,1.139-17.619,6.253
			c-7.841,8.787-6.532,21.106-0.569,31.268c10.978,18.709,42.984,20.392,59.55,12.744c11.529-5.323,20.458-16.601,23.678-28.838
			c3.501-13.305-1.393-24.551-10.46-33.684c-7.439-7.493-13.269-16.754-16.228-26.54c-4.183-13.834,0.452-26.183,9.062-36.416
			c10.003-11.889,25.422-14.472,37.971-4.871c9.698,7.42,8.582,9.534,13.636,20.311v7c-2.154,5.878-4.959,12.151-11.346,13.876
			c-1.526-0.7-3.054-2.625-3.557-3.6c-0.82-1.588,1.55-2.64,1.821-4.586c0.746-5.362-3.416-12.168-9.079-13.425
			c-8.056-1.789-14.368,6.14-13.894,13.628c0.889,14.047,21.111,25.551,27.163,42.709c4.576,12.975,4.188,26.662-1.856,38.511
			c-7.011,13.744-17.289,24.283-30.503,31.747c-9.81,5.541-24.624,11.325-35.732,10.083c-0.596-0.067-1.163,0.775-1.017,1.057H77
			c-24.718-4.058-49.586-18.601-56.261-45.803c-5.242-21.361,11.037-44.852,34.076-51.48c13.861-3.987,11.322-0.593,26.266,1.355
			C72.18,59.94,70.701,53.53,58.386,40.584C50.99,32.81,41.307,26.591,30.18,27.211c-10.225,0.57-18.697,7.51-22.231,16.59
			c-0.581,1.492-2.111,3.485-3.163,3.072C2.997,44.859,1.996,42.747,0,42V31C4.41,20.997,5.257,15.955,14.556,8.564
			C25.993-0.527,21.018,6.544,30,0H46z"/>
	</g>
</g>
</svg>
