<?xml version="1.0" encoding="iso-8859-1"?>
<!-- Generator: Adobe Illustrator 30.1.0, SVG Export Plug-In . SVG Version: 9.03 Build 0)  -->
<svg version="1.1" id="Layer_1" xmlns="http://www.w3.org/2000/svg" xmlns:xlink="http://www.w3.org/1999/xlink" x="0px" y="0px"
	 viewBox="0 0 171 171" style="enable-background:new 0 0 171 171;" xml:space="preserve">
<g>
	<g>
		<path style="fill:#FEFEFE;" d="M88,0c0.59,2.209,2.613,2.123,4.68,2.619c10.744,2.58,20.875,9.069,27.572,17.802
			c4.452,5.806,10.016,19.43,9.855,27.629c-0.09,4.545,2.123,9.278,1.643,13.695l-1.782,16.401
			c-2.365,21.764-11.322,42.046-22.611,59.383c5.46,3.009,10.673,2.608,15.014,4.218c3.62,1.342,4.77,0.407,7.985,0.048
			c8.001-0.892,12.871-5.492,14.922-14.216c0.921-3.916-3.054-9.605-8.029-9.535c-0.924,0.013-1.831,2.437-2.698,1.92
			c-4.6-2.741-2.956-13.203,2.53-18.38c4.211-3.973,10.626-5.961,15.987-3.868c9.271,3.621,15.67,11.201,16.009,21.114
			c0.051,1.504,1.009,2.71,1.923,3.17v6c-1.193,0.172-2.077,1.457-2.037,2.918c0.291,10.613-5.746,18.411-12.487,25.528
			c-8.76,9.249-16.762,10.855-27.477,14.554h-14l-16.888-5.102c-4.164-1.258-8.909-3.019-13.048-3.115
			c-15.158-0.352-22.892,6.178-27.25,6.846c-15.757,2.415-26.826-5.102-37.126-16.244c-3.301-3.571-5.951-6.443-8.279-10.81
			c-4.964-9.311-9.769-18.78-11.46-29.599C0.666,111.168,1.819,108.663,0,108V94c2.058-1.639,0.391-4.483,0.938-7.037
			c3.275-15.292,8.535-29.459,15.84-43.178C26.07,26.336,39.915,11.98,58.289,4.477C62.535,2.744,70.715,3.073,71,0H88z
			 M34.919,87.798c-4.806,12.466-1.234,25.725,5.618,36.517c5.221,8.224,17.416,14.801,28.544,13.706
			c4.393-0.432,10.038,0.937,13.618-2.41c10.675-15.527,11.764-34.229,15.296-48.529l1.597-6.467
			c2.035-8.239,0.168-16.869,0.364-25.455c0.037-1.616-1.458-2.559-1.818-4.522c-2.458-13.391-16.797-24.998-30.33-20.9
			C54.595,33.74,45.909,44.57,41.064,56.029c16.508-2.447,12.186-5.914,23.242-2.615c6.133,1.83,12.219,3.783,15.652,9.702
			c3.358,5.79,6.049,11.872,5.079,19.036c-1.854,13.693-10.985,24.72-23.282,30.583c-2.52,1.201-4.322,1.592-6.302,0.163
			c-6.635-4.788,5.562-14.42,6.146-15.383c2.705-4.458,1.929-11.737-0.924-16.215c-1.577-2.475-6.624-5.616-9.254-4.967
			C44.968,77.925,38.04,79.704,34.919,87.798z"/>
	</g>
</g>
</svg>
