<?xml version="1.0" encoding="iso-8859-1"?>
<!-- Generator: Adobe Illustrator 30.1.0, SVG Export Plug-In . SVG Version: 9.03 Build 0)  -->
<svg version="1.1" id="Layer_1" xmlns="http://www.w3.org/2000/svg" xmlns:xlink="http://www.w3.org/1999/xlink" x="0px" y="0px"
	 viewBox="0 0 180 182" style="enable-background:new 0 0 180 182;" xml:space="preserve">
<g>
	<g>
		<path style="fill:#FEFEFE;" d="M109,0c1.282,1.46,3.679,1.952,5.94,1.994c4.177,0.077,7.391,1.798,10.942,2.95
			c10.583,3.433,23.79,12.319,27.251,22.163c3.032,8.626,2.872,9.952-0.194,17.607c-4.428,11.056-12.893,18.634-22.44,25.846
			c-0.779,0.588-11.665,10.824-10.193,13.159c7.431,11.786,35.813,7.994,53.924,33.958c2.519,3.611,4.346,15.776,5.771,15.323v6
			c-1.595,1.04-1.429,3.083-1.808,5.14c-1.974,10.729-7.867,20.335-16.647,26.43c-7.115,4.939-15.188,9.357-24.495,9.527
			c-1.205,0.022-1.914,1.181-2.05,1.903h-24c-0.957-2.916-3.284-0.921-12.24-4.69c-8.02-3.375-13.022-9.635-15.467-17.829
			c-3.33-11.156,2.245-21.06,10.971-28.398c4.942-4.156,12.662-4.715,18.256,0.008c-2.348,4.327-6.005,6.752-9.855,9.587
			c9.245,14.192,17.842,15.61,33.131,11.442c6.154-1.678,8.003-5.865,8.546-12.219c0.382-4.474,0.228-7.535-3.53-10.864
			c-2.871-2.544-5.597-4.944-9.263-6.766l-7.312-3.633c-11.848-5.886-10.982-2.168-26.828-13.04
			c-3.314-2.274-5.644-5.725-8.63-8.349c-1.381-1.213-0.924-3.844-1.821-5.037c-3.384-4.5-1.985-8.962-0.453-13.414
			c2.634-7.659,7.105-13.042,13.148-18.292l8.89-7.723c9.297-8.076,3.677-20.609,2.622-21.5c-3.863-3.26-16.82-1.786-20.194-1.659
			c-7.953,0.299-13.848,2.297-19.465,8.09c-5.17,5.332-11.048,11.346-12.035,19.592c-1.517,12.68-4.04,3.154,0.451,23.893
			c4.247,19.609,12.272,21.217,13.519,41.597c0.869,14.209-3.281,28.113-12.203,39.523c-4.602,5.887-11.068,11.409-18.704,13.175
			c-15.001,3.469-28.767,0.364-37.513-12.086c-3.312-4.715-2.867-9.378-3.253-14.309c-0.303-3.879,1.216-5.859,2.276-8.755
			c6.384-17.44,28.443-21.757,31.699-13.6c1.677,4.201-3.29,6.466-5.665,12.434c0.799,4.38,5.765,6.63,9.516,6.833
			c3.915,0.211,9.222-1.093,10.853-5.591c2.249-6.203,2.695-14.659-0.099-20.768c-5.454-11.928-20.627-27.121-24.337-42.522
			c-3.069-12.74,0.457-23.467,5.015-34.853c3.638-9.089,14.919-20.545,23.335-26.11C65.231,8.98,77.919,4.33,90.95,1.94
			C93.385,1.494,95.987,2.326,97,0H109z"/>
	</g>
</g>
</svg>
