<?xml version="1.0" encoding="iso-8859-1"?>
<!-- Generator: Adobe Illustrator 30.1.0, SVG Export Plug-In . SVG Version: 9.03 Build 0)  -->
<svg version="1.1" id="Layer_1" xmlns="http://www.w3.org/2000/svg" xmlns:xlink="http://www.w3.org/1999/xlink" x="0px" y="0px"
	 viewBox="0 0 145 175" style="enable-background:new 0 0 145 175;" xml:space="preserve">
<g>
	<g>
		<path style="fill:#FEFEFE;" d="M72,175H57c5.815,0.607-15.81-4.465-10.519-3.438c-17.083-3.317-33.42-18.648-36.632-34.746
			c-0.593-2.97-0.12-7.563,0.301-10.83c1.944-15.104,13.776-26.108,28.789-29.127c7.623-1.533,15.823-0.747,23.904-0.61
			c2.43,0.041,5.099,2.261,7.375,2.477c6.75,0.641,8.44,6.525,9.301,11.773c0.93,5.668,0.375,9.528-2.751,14.366
			c-1.956,3.027-2.914,5.977-8.009,5.279c-1.77-0.243-3.532-0.265-4.71-1.735c-0.924-1.153-0.947-2.582-1.157-4.175
			c-0.628-4.773-3.369-6.844-7.978-6.422c-3.921,0.359-9.688-0.007-12.01,4.093c-3.04,5.367,0.228,12.266,3.905,15.916
			c10.241,10.166,22.669,12.045,35.606,7.75c10.909-3.622,20.083-8.409,27.063-18.228c6.631-9.328,10.624-19.441,9.6-31.412
			c-0.412-4.814-0.076-9.51-3.438-14.566c6.464,2.318,9.315,7.27,12.038,12.994c2.467,5.188,4.431,9.628,4.861,15.41
			c1.064,14.31-2.396,29.4-12.6,40.223c-10.419,11.051-20.235,17.961-35.732,21.388c-2.431,0.538-4.218,2.361-7.275,1.686
			C74.935,172.625,72.836,173.619,72,175z"/>
		<path style="fill:#FEFEFE;" d="M88,0c1.458,2.889,8.418,1.336,18.196,3.882c11.76,3.063,22.532,8.023,30.419,17.225
			c3.686,4.302,4.74,8.542,5.983,13.622c1.312,5.358,2.223,9.157-0.236,14.574c-1.858,4.094-3.528,7.761-7.023,11.115
			c-5.174,4.964-11.037,8.975-18.847,9.247c-11.346,0.394-23.914-1.779-33.178-10.084c9.001,2.711,18.351,2.932,26.247-1.933
			c4.496-2.77,5.548-7.735,5.629-12.615c0.122-7.326-2.737-13.882-9.926-16.35c-11.461-3.933-24.843-7.481-36.789-5.138
			l-9.412,1.846c-7.742,1.518-16.827,5.267-22.341,11.2c-8.091,8.706-6.702,21.718-2.103,31.68
			c3.222,6.979,8.541,10.914,13.76,16.943c-10.568-0.947-20.728-3.761-28.982-9.545l-6.059-4.246
			c-7.222-5.06-12.15-15.175-11.865-23.966c0.471-14.494,9.419-24.703,20.737-32.333c8.746-5.896,18.543-8.39,28.77-11.133
			C64.713,0.307,65.805,3.778,73,0H88z"/>
		<path style="fill:#FEFEFE;" d="M61.724,71.789c-10.044-1.191-15.071-9.85-12.312-18.917c2.33-7.654,11.916-12.301,19.935-8.173
			c6.099,3.139,8.777,9.878,7.239,16.327C75.127,67.145,69.334,72.691,61.724,71.789z"/>
	</g>
</g>
</svg>
