<?xml version="1.0" encoding="iso-8859-1"?>
<!-- Generator: Adobe Illustrator 30.1.0, SVG Export Plug-In . SVG Version: 9.03 Build 0)  -->
<svg version="1.1" id="Layer_1" xmlns="http://www.w3.org/2000/svg" xmlns:xlink="http://www.w3.org/1999/xlink" x="0px" y="0px"
	 viewBox="0 0 125.25 128.25" style="enable-background:new 0 0 125.25 128.25;" xml:space="preserve">
<g>
	<g>
		<path style="fill:#FEFEFE;" d="M92.153,63.061c12.349-3.45,26.75,6.004,29.813,18.289c5.259,21.093-8.395,37.268-27.128,44.066
			c-8.703,3.158-30.694,2.859-38.988-0.045c-20.193-7.07-30.059-26.62-24.04-47.108c3.082-10.493,7.739-19.972,13.59-29.086
			c4.673-7.28,4.389-8.964,10.896-16.739c1.572-1.878,2.258-4.434,4.948-5.781c-2.47-3.095-17.254-2.669-21.681-2.907
			c-5.203-0.279-9.081,0.93-12.677,4.79c-2.823,3.03-6.434,6.276-6.654,10.979c-0.131,2.802,3.103,4.553,4.935,5.06
			c6.434,1.781,6.443-4.65,9.904-3.282c0.886,0.35,1.04,1.982,1.599,2.687c1.685,2.124,1.021,3.778,0.078,6.154
			c-2.138,5.387-6.055,9.359-11.924,10.568C14.907,62.749,5.906,57.95,2.332,48.991C-2.451,37.003,5.8,20.903,12.947,15.273
			l4.662-3.672c5.809-4.576,12.525-7.337,19.732-9.381c9.931-2.817,20.317-1.379,30.514,0.824L79.62,5.585
			c1.78,0.385,3.307,1.116,5.362,1.354c4.38,0.506,8.879,0.966,13.08,1.745c3.173,0.589,4.876,0.758,8.017-0.118
			c3.136-0.875,6.039-0.87,8.329-3.835c1.139-1.474,3.42-1.911,5.12-1.806c2.088,0.129,2.764,2.395,3.897,3.987
			c1.894,2.663,0.851,4.436,0.142,6.905c-1.461,5.084-4.575,8.549-8.468,11.779c-5.181,4.299-10.535,6.488-17.502,5.773
			c-3.832-0.393-7.756,0.467-11.526-1.256c-1.969-0.9-5.329-2.107-7.459-1.599c-7.01,7.185-10.761,16.124-14.406,25.289
			c-1.794,4.511-2.49,9.292-4.093,14.046c-2.066,6.13-3.021,19.7-0.206,26.391c5.967,14.183,23.352,17.552,33.35,10.741
			c5.171-3.523,7.789-10.841,5.029-17.017c-1.424-3.186-6.237-4.704-9.237-4.385c-8.348,0.888-4.432,9.249-5.951,13.684
			c-3.039,1.265-5.974,0.085-8.086-2.372c-4.108-4.779-4.599-11.349-1.821-17.516C76.491,70.055,84.182,65.287,92.153,63.061z"/>
	</g>
</g>
</svg>
