<?xml version="1.0" encoding="iso-8859-1"?>
<!-- Generator: Adobe Illustrator 30.1.0, SVG Export Plug-In . SVG Version: 9.03 Build 0)  -->
<svg version="1.1" id="Layer_1" xmlns="http://www.w3.org/2000/svg" xmlns:xlink="http://www.w3.org/1999/xlink" x="0px" y="0px"
	 viewBox="0 0 128.25 131.25" style="enable-background:new 0 0 128.25 131.25;" xml:space="preserve">
<g>
	<g>
		<path style="fill:#FEFEFE;" d="M128.25,35.795v16.406c-1.119,0.312-0.437,1.825-0.886,2.804l-3.812,8.318
			c-4.931,10.762-14.444,17.379-25.62,21.264c-12.343,4.29-28.86,1.297-38.099-7.65c-1.743-1.688-3.293-4.681-3.961-7.031
			c-3.125-10.994,5.592-21.309,15.345-23.721c2.296-0.568,4.07,2.592,5.565,3.867c-4.974,3.743-5.515,10.035-1.484,14.591
			c4.364,4.932,11.805,6.426,17.426,3.126c11.18-6.563,16.493-25.593,6.168-38.053c-9.814-11.844-27.611-10.962-40.074-1.766
			c-2.154,1.59-4.487,2.61-5.865,5.473c-1.2,2.494-3.069,5.633-3.804,8.455l-1.556,5.976l-0.645,35.54
			c0.002-0.105-3.285,13.874-5.663,15.029c0.483,1.039,13.33,4.609,16.773,5.682c8.82,2.746,23.517,8.609,30.095,1.411
			c2.776-3.038,1.57-7.157,4.794-10.93c1.733-2.028,4.014-2.527,7.092-2.086c4.431,0.635,11.941,12.649,2.919,25.66
			c-9.312,13.43-27.723,13.333-42.178,10.027l-6.713-1.535c-8.596-1.966-21.869-7.052-29.95-4.266
			c-3.508,1.209-6.934,1.9-10.333,3.987c-1.299,0.798-4.464,0.91-6.033,0.96c-5.163-2.364-5.008-8.656-2.254-12.999
			c3.641-5.743,9.115-9.26,14.473-13.284c5.902-4.433,8.276-18.228,6.592-26.264c-2.38-11.364-3.82-30.485,4.862-40.796
			c-2.603-0.268-4.685,0.763-6.473,1.963c-2.641,1.772-5.475,1.559-8.347,2.294c-6.424,1.643-12.509-0.62-14.815-7.301
			C1.447,29.956,1.093,28.512,0,28.338v-8.203c1.633-0.108,1.092-1.686,1.446-3.043C4.263,6.308,16.432-3.657,18.672,2.967
			c0.538,1.59-0.492,3.656,0.307,4.993c2.149,3.601,6.371,4.154,10.242,4.04c4.991-0.146,9.64,0.228,14.191-1.627
			C50.348,7.547,77.811,0.329,71.89,2.91l3.191-1.391c4.688-2.043,11.526-1.116,17.005,0.343l5.846,1.556
			C114.324,7.782,123.31,21.156,128.25,35.795z"/>
	</g>
</g>
</svg>
