<?xml version="1.0" encoding="iso-8859-1"?>
<!-- Generator: Adobe Illustrator 30.1.0, SVG Export Plug-In . SVG Version: 9.03 Build 0)  -->
<svg version="1.1" id="Layer_1" xmlns="http://www.w3.org/2000/svg" xmlns:xlink="http://www.w3.org/1999/xlink" x="0px" y="0px"
	 viewBox="0 0 184 167" style="enable-background:new 0 0 184 167;" xml:space="preserve">
<g>
	<g>
		<path style="fill:#FEFEFE;" d="M184,117v8c-2.529,1.623-1.08,5.116-2.225,7.892c-5.496,13.327-9.754,17.23-20.605,24.371
			c-12.546,8.256-28.887,11.078-43.169,6.924c-18.962-5.515-28.731-23.15-27.204-42.223c2.164-27.014,19.808-39.323,25.4-56.707
			c1.754-5.455,0.501-11.28,0.672-16.865c-6.883-12.61-19.564-18.871-34.086-17.352c-14.398,1.506-28.911,11.386-31.964,25.522
			c-0.582,2.696-2.168,5.198-2.378,7.634c-0.539,6.229-1.313,13.303,0.222,19.153c1.441,5.492,2.112,10.769,4.209,15.764
			c1.556,3.707,1.698,7.248,2.989,11.146c2.882,8.7,3.367,19.127,0.252,27.735c-2.145,5.928-8.544,18.356-15.518,19.499
			c-1.865,4.071-6.147,4.109-9.513,5.627c-5.566,2.511-11.079,2.742-16.809,0.593C4.797,160.161,5.279,159.977,0,151v-10
			c2.431,0.117,3.404-2.287,5.066-3.941c4.795-4.771,13.368,2.922,19.414-3.992c4.315-4.934,2.847-18.339,0.791-25.164l-2.765-9.182
			L19.43,86.746c-1.68-6.535-1.847-19.418-0.866-26.514l0.856-6.191c0.458-3.316,1.934-7.244,3.284-10.194
			c5.603-12.247,13.562-22.447,24.49-29.562c8.615-5.609,16.726-9.298,26.738-11.385c11.896-2.48,24.44-3.045,36.432-0.051
			c3.341,0.834,6.295,2.37,9.9,3.075c6.016,1.177,17.861,10.62,20.176,13.565c5.769,7.337,9.204,12.763,11.03,21.804
			c4.391,21.74-11.737,42.389-23.462,59.646c-6.654,9.794-7.287,22.749-0.666,32.572c2.383,3.535,4.977,4.215,8.556,5.817
			c5.007,2.241,9.06,2.342,14.381-0.057c9.8-4.419,7.708-8.58,7.51-20.506c-9.832-3.932-12.446,5.848-16.136,5.046
			c-3.841-0.835-7.577-15.264,4.68-25.946c5.723-4.987,14.779-4.473,22.199-1.365c6.256,2.62,11.25,7.941,13.302,15.799
			C182.303,114.099,182.235,116.282,184,117z"/>
		<path style="fill:#FEFEFE;" d="M82.484,81.005c-8.732,1.726-16.029-3.79-17.242-11.696c-1.11-7.237,4.247-14.515,12.366-15.82
			c7.059-1.134,14.001,4.237,15.27,10.192C94.585,71.694,90.981,79.325,82.484,81.005z"/>
	</g>
</g>
</svg>
