<?xml version="1.0" encoding="iso-8859-1"?>
<!-- Generator: Adobe Illustrator 30.1.0, SVG Export Plug-In . SVG Version: 9.03 Build 0)  -->
<svg version="1.1" id="Layer_1" xmlns="http://www.w3.org/2000/svg" xmlns:xlink="http://www.w3.org/1999/xlink" x="0px" y="0px"
	 viewBox="0 0 130.5 131.25" style="enable-background:new 0 0 130.5 131.25;" xml:space="preserve">
<g>
	<g>
		<path style="fill:#FEFEFE;" d="M130.5,117.827v4.474c-1.727,0.658-0.928,3.38-5.706,7.003c-4.43,1.312-9.115,0.071-13.363-1.298
			c-5.199-1.677-24.681-1.938-28.985,0.002c-3.868,1.743-12.129,1.907-14.028-1.789c-2.057-4.004,0.32-9.524,3.698-12.179
			c3.029-2.38,6.586-1.672,9.721-3.11c4.105-1.883,7.681-6.914,7.524-11.641c-0.066-1.997-1.387-5.095-2.427-6.336
			c-4.099-4.888-10.151-6.053-16.051-6.626c-5.186-0.504-9.817-1.082-15.069,0.168c-2.356,0.561-6.885-0.606-8.462,1.782
			c-1.367,3.017-2.56,7.063-2.919,10.407c-0.402,3.747-1.787,6.608-2.693,9.964c-3.181,11.792-10.984,19.481-23.817,19.091
			c-5.01-0.152-8.481-1.27-11.92-4.739c-3.79-3.823-5.55-7.791-5.48-13.403c0.057-4.569,1.497-7.224,4.565-10.61
			c1.397-1.542,3.469-2.503,5.52-2.104c1.307,0.254,4.194,0.831,4.016,2.543c-0.185,1.787-1.052,4.08,0.143,5.27
			c0.881,0.877,2.683,2.43,4.273,1.717c7.032-3.151,8.867-10.494,9.496-17.707l0.768-8.806c0.178-2.046,1.696-3.775,1.324-6.101
			c-0.711-4.456,2.879-8.372,7.351-8.141c3.081,0.159,5.961-0.276,8.98,0.121c2.661,0.35,5.412,1.166,8.131,0.462
			c2.377-0.616,3.8,1.047,5.493,1.265c6.039,0.778,11.718,1.623,17.526,3.455l7.669,2.419c-0.244-3.742-0.43-6.812-0.552-10.179
			l-0.551-15.286l-1.85-6.401c-1.568-5.424-7.295-12.342-10.053-13.62l-7.266-3.365c-6.69,5.116-9.386,16.398-12.241,20.698
			c-2.721,4.099-9.324,6.269-13.565,4.076c-6.628-3.426,4.086-16.918,6.481-21.369c-1.839-1.466-3.614,0.473-5.487,0.894
			C21.29,33.18,23.118,46.466,17.142,47.451c-1.258,0.208-3.679,0.262-4.261-1.24c-3.609-9.324-0.249-6.737-0.382-8.901
			c-0.25-4.057,1.433-6.762,2.749-10.001c3.251-8,8.435-13.607,15.686-18.109c7.76-4.818,18.71-8.76,28.006-8.545
			c6.337,0.147,12.433-0.128,18.421,1.701c7.773,2.375,16.298,6.569,21.957,12.535c15.69,16.54,11.102,29.698,11.749,50.736
			c0.059,1.926,0.761,3.125,1.113,4.779c0.905,4.25,1.021,8.433,2.474,12.543c4.386,12.406,6.433,14.926,12.377,26.425
			C130.409,115.908,127.876,116.833,130.5,117.827z"/>
	</g>
</g>
</svg>
