<?xml version="1.0" encoding="iso-8859-1"?>
<!-- Generator: Adobe Illustrator 30.1.0, SVG Export Plug-In . SVG Version: 9.03 Build 0)  -->
<svg version="1.1" id="Layer_1" xmlns="http://www.w3.org/2000/svg" xmlns:xlink="http://www.w3.org/1999/xlink" x="0px" y="0px"
	 viewBox="0 0 130 146" style="enable-background:new 0 0 130 146;" xml:space="preserve">
<g>
	<g>
		<path style="fill:#FBFBFB;" d="M77,0l53,67v3l-21,43c-2.516-0.224,0.521-5.618,2-6c0.054-3.909,2.293-11.669,5.735-13.819
			c-1.987-0.143-1.862-1.034,0.197-1.289C114.175,90.848,112.865,89.55,113,88c-0.563-0.422-0.602-0.776,0-1.197l1.475-1.537
			c3.077,1.61,4.573-0.416,4.487-6.077L120.937,78c2.245-1.105,5.392-6.766,5.228-9.346c-2.669-3.409-5.469-6.802-8.4-10.181
			l-0.695-2.613c-2.44,0.807-2.375-0.011-1.743-2.078c-0.9-0.067-0.93-0.365-0.147-0.879c-3.852-3.193-7.404-6.969-10.656-11.327
			l0.501-2.497c-1.136-0.209-1.526-0.628-1.171-1.257c-2.082-0.333-3.845-2.992-2.751-4.848C99.968,33.434,99.267,32.776,99,31
			c-0.726,1.022-1.393,0.689-2-1c-1.531,1.465-2.005,0.859-1-1c-2.179-0.556-4.6-3.901-3-6l-1-1c-2.689-0.25-3.673-0.877-2.952-1.88
			C87.288,18.602,86.605,17.229,87,16c-2.512,0.667-3.212-0.337-2.1-3.013c-1.543,0.75-2.835,0.159-3.877-1.774
			C78.377,12.182,76.036,12.444,74,12l-1.25-0.592C74.249,4.114,72,4.311,66,12c-0.284,0.873-0.618,0.86-1,0
			c-3.22-0.374-1.625-2.331-1.321-1.645c1.005,2.267-0.958,2.424-2.626,0.65C60.804,13.1,60.12,13.765,59,13
			c0.51,2.139-1.157,3.806-5,5c-1.327,1.86-3.538,3.418-6.633,4.674C45.651,23.811,44.195,25.253,43,27c1.325,1.405,0.767,1.92-1,1
			c-1.396,1.299-1.835,0.718-1-1c-0.657-1.087-2.681,0.011-6.072,3.294C33.967,30.987,32.991,31.222,32,31
			c1.256,1.5,0.702,2.055-1,1c-0.142,2.193-1.667,3.917-4.576,5.171c-2.314,0.702-3.803,1.716-4.466,3.042
			c1.33,1.867,0.953,2.524-1.131,1.971c0.571,0.754,0.337,0.957-0.625,0.661c-1.622,1.267-3.683,1.66-6.184,1.178
			c0.823,1.178,0.008,1.675-2.446,1.492c0.778,0.357,0.451,0.745-0.982,1.164c0.905,2.402-0.379,2.945-2.583,2.32
			c-2.681,0.909-3.364,1.526-2.047,1.85l1.167,0.373c1.452,3.433,3.015,6.724,4.691,9.874c0.508-0.775,0.854-0.676,1.045,0.257
			c2.643,0.052,2.848,0.531,1.105,2.559c2.57,0.435,3.393,1.252,2.467,2.451C19.152,64.758,22.04,69.572,23,72
			c0.873,0.284,0.86,0.618,0,1c3.049-0.482,6.072,3.227,6.927,5.942C30.281,78.086,30.639,78.119,31,79
			c1.916,1.379,3.875,2.754,5.876,4.126C37.945,85.023,39.32,86.981,41,89c1.263,0.036,2.14,0.863,2.632,2.482
			C46.193,94.334,48.982,96.84,52,99c1.903,2.999,4.412,5.01,7.528,6.031l1.606,1.928c1.388,0.848,1.885,2.712,1.491,5.593
			c0.993-1.323,1.822-0.522,2.486,2.404c1.304-1.572,1.964-0.923,0.934,0.934c1.847,0.486,2.499,1.189,1.955,2.11
			c6.041,2.472,12.578,8.931,15,15c0.917-1.066,1.584-0.399,2,2c0.77-0.487,1.756-0.774,2.397-0.205
			c0.643,0.755,5.018,5.746,5.549,5.153c1.747-1.952,5.945-12.219,6.34-14.626c0.077-0.467,0.365-0.899,0.714-1.321
			c1.729-2.831,3.302-5.775,4.717-8.831L107,115c0.284-0.873,0.618-0.86,1,0c-1.546,7.829-11.195,22.876-13,31h-3
			c-0.015-1.227-0.528-2.167-1.764-3.394L0,53v-3L74,0H77z M80.096,7.594c-0.212-1.575-1.925-3.433-3.157-4.009
			c-0.966-0.423-0.957,1.584-0.995,2.322c-0.111,2.141-0.087,2.929,1.483,3.399C78.268,9.557,80.354,9.515,80.096,7.594z"/>
		<path style="fill:#DBDBDB;" d="M108,78c1.655,0.336,2.178,1.691,1.569,4.064c3.655,1.219,4.799,2.799,3.431,4.739V88
			c-2.506,1.61-1.365,2.531,3.425,2.763l0.507,1.129c-0.225,0.293-0.056,0.95-0.197,1.289c-3.622,2.721-5.513,9.364-5.735,13.819
			c-0.786,1.894-2.6,3.694-2,6c-0.266,0.545-0.536,1.559-1,2h-1c-0.885-0.224-0.858-0.56,0-1c-1.735-0.373-2.278-0.626-1-2
			c0.418-2.041-0.249-3.708-2-5c-1.229-1.225-0.332-2.493,2.691-3.805l3.282-8.387c-3.105-0.197-5.096-1.133-5.974-2.809
			c-0.873-0.284-0.86-0.618,0-1c-0.148-1.718,0.926-2.384,3.222-1.997c-0.158-2.448-2.271-4.434-6.339-5.959
			C100.233,84.312,99.272,84.964,98,85c-0.077,2.886-2.345,2.705-3,0c-0.577-1.377-0.159-2.946,1.255-4.705
			C91.815,78.415,90.064,76.317,91,74c0.93-1.725,2.838-1.749,5.724-0.071C97.287,70.795,98.712,69.486,101,70
			c2.148,0.269,2.261,2.656,0.339,7.159c2.394,2.067,3.818,2.335,4.269,0.804L108,78z"/>
		<path style="fill:#EDEDED;" d="M87,16c-0.325,2.19-0.46,2.692-2.742,1.764c1.905,3.233-2.088,4.482-4.774,3.301L79,22
			c0.131,1.997-0.892,1.382-2,0l-1.192,2.018c-9.14,2.677-13.71,4.016-13.71,4.016L61,27c0.214,1.436-0.129,2.154-1.029,2.152
			C61.398,31.975,64.051,41.134,60,42c-0.284,0.873-0.618,0.86-1,0l-1.983-1.595c0.54-8.1-1.8-10.05-7.021-5.848
			C48.425,36.303,46.76,37.117,45,37c-2.01-0.111-3.892,1.642-5.646,5.259L37,42c-1.355-0.366-1.355-0.366,0,0l1.392,1.694
			c-0.743,1.887-1.573,3.653-2.491,5.3c1.353,1.25,0.966,2.021-0.23,3.104C41.313,59.415,47.756,65.049,55,69l2.058-0.762
			c3.158,2.001,6.714,3.148,10.669,3.44c3.068-1.136,5.83-1.32,8.289-0.549C74.765,69.753,75.293,69.151,77,70
			c-1.482-1.766-1.394-4.451,1.034-5.239c0.695-2.579,1.569-2.339,1.934,0.286c0.593,1.582,1.96,2.541,4.1,2.877
			c0.896-0.089,0.966,0.199,0.27,0.837c1.6,0.755,1.334,1.407-0.459,1.509c1.048,1.587,0.561,2.359-1.15,1.604
			c-1.142,1.534-3.15,2.37-6.024,2.507c-6.348,0.749-8.44,3.376-6.277,7.882L69,84c-0.786,11.612-1.178,17.418-1.178,17.418
			l-2.105,0.653c-0.965,0.325-1.264-0.698-0.898-3.071c-1.631-1.203-2.212-3.116-1.743-5.738l-0.785-2.033
			c1.845-4.737,2.659-9.689,2.443-14.857L62,75c-1.351,1.088-1.866,0.504-1-1c-2.708,1.991-9.86,5.277-11,1l-3,1
			c-0.452,1.189-1.579,2.053-3.383,2.591C42.534,81.1,40.995,82.236,39,82c0.348,2.83-0.021,3.026-2.124,1.126
			c-3.401-0.712-1.533-3.331,0.726-4.817c0.313-2.493,0.204-4.995-0.328-7.506L39,69c1.867-0.771,3.113,0.17,3.736,2.825L46,68
			c-2.009-0.424-2.676-1.09-2-2c-4.004-0.061-8.12-5.147-9-9c-1.234,1.467-1.529,0.558-2-1c-0.954,0.106-1.308-0.306-1.063-1.234
			c-2.215-0.473-2.386-0.664-0.858-2.591c-2.397,0.606-4.348-1.721-3.837-4.05C23.941,47.35,22.86,46.229,24,44.761
			c-0.002-2.936,2.447-3.02,4-0.761c2.217,3.231,3.568,3.598,4.055,1.102C31.751,43.421,32.065,42.053,33,41
			c-1.306-0.751-2.306-1.751-3-3c-0.984-1.467-0.727-2.357,0.917-2.711C29.84,34.135,29.798,33.345,31,32
			c0.398-0.193,0.631-0.743,1-1c1.936-0.599,3.301-0.593,4.096,0.018c1.074,1.133,0.977,2.574-0.29,4.325
			c2.214,3.072,3.541-3.653,0.29-4.325C34.591,29.421,39.444,25.877,41,27c0.167,0.42,0.691,0.708,1,1
			c2.153,0.413,2.138,1.734,1.669,3.646c1.774-0.125,2.848-0.637,3.221-1.536l1.364-1.548c3.987-0.569,7.756-2.027,11.308-4.374
			l2.448,0.974C61.473,22.44,62.136,22.052,64,24c2.144-3.306,8.612-6.422,12.273-6.953l0.929-2.186
			c2.638-0.499,5.204-1.123,7.698-1.875C86.003,13.744,86.477,14.964,87,16z"/>
		<path style="fill:#595959;" d="M79,91l2.725,0.493c0.642,3.816,1.755,7.583,3.34,11.302c-3.254,3.918-5.758,9.38-6.136,14.479
			c-4.653,0.117-8.948-0.344-12.885-1.384c-0.127-0.285-0.673-0.773-0.934-0.934c-1.797-1.633-1.202-5.264,1-5.803
			c-0.423-3.18,5.5-16.929,7.458-18.488c0.642-0.511,1.595-0.43,2.432-0.329C77.358,87.513,79.136,87.879,79,91z"/>
		<path style="fill:#646464;" d="M99,123c1.497-1.254,2.047-0.704,1,1c0.348,0.709,1.64,1.733,1.721,2.683l-8.222,16.666
			c-2.971-2.065-6.775-6.072-8.499-8.348c-1.403-1.836-0.872-11.612,0.165-12.385C86.655,121.505,97.827,120.01,99,123z"/>
		<path style="fill:#585858;" d="M115.328,53.782c1.23-0.112,1.397,1.286,1.743,2.078L113,65c0.259,3.72-1.618,4.865-5.63,3.437
			c-3.779,0.78-5.902,0.301-6.37-1.437c-2.705-1.345-3.211-2.683-1.52-4.016c0.489-3.827,0.26-7.149-0.687-9.965L101,52l0.772-1.315
			C106.088,52.047,110.607,53.08,115.328,53.782z"/>
		<path style="fill:#6D6D6D;" d="M116,72c2.561-1.126,3.099-0.587,2,2c2.167,0.508,3.146,1.842,2.937,4
			c0.173,3.993-0.518,8.032-3.514,11.126c-1.516-1.48-3.34-1.751-4.423-2.322c-0.867-1.913-3.764-2.063-5.328-3.753
			c-0.665-1.065,0.372-3.741,0.328-5.05l2-7C109.32,67.003,111.32,67.337,116,72z"/>
		<path style="fill:#898989;" d="M54,18c2.161-1.815,3.732-0.435,4,2c4.37,1.788,5.707,3.509,4.01,5.163
			c-4.157,2.102-11.92,7.015-15.121,4.948C44.586,31.613,42.756,29.493,43,27c-0.227-0.979-0.933-2.256-0.443-3.048
			C42.719,23.691,50.661,16.847,54,18z"/>
		<path style="fill:#6D6D6D;" d="M126.165,68.654c0.799,2.304-1.538,5.744-4.213,5.276c-0.524,2.608-1.842,2.632-3.953,0.071
			c-0.53-0.767-1.401-1.294-2-2c-1.619-1.299-3.199-2.576-4.741-3.831L113,65l4.071-9.14
			C118.017,54.602,129.328,67.754,126.165,68.654z"/>
		<path style="fill:#686868;" d="M35,64c2.581-1.112,3.038,0.184,1,2c1.543,1.48-3.296,5.452-5.291,4.79L23,72
			c-3.213-0.062-4.382-3.64-6.564-5.635c-0.232-0.637-0.372-1.169-0.184-1.337c0.411-0.368,8.809-6.188,9.293-5.922
			c1.592,1.52,3.797,2.395,6.615,2.624C33.067,60.144,34.013,60.901,35,64z"/>
		<path style="fill:#C4C4C4;" d="M85,90c-0.252,3.875,0.486,7.184,2.214,9.927l7.703,0.945c2.042-4.322,4.368-6.315,6.978-5.977
			l1.686,2.099c-3.5,3.966-4.027,7.635-1.581,11.006c0.947,0.858,0.881,1.914-0.197,3.166c1.822-0.63,3.221-0.352,4.197,0.834
			c0.325,0.668,0.718,1.311,1,2c-0.834,1.443-2.602,2.27-5.303,2.484c-0.942,2.101-2.174,3.606-3.697,4.516
			c-1.53,0.91-2.024,0.499-1-1l-1.705-1.483c3.556-11.33,2.243-13.326-8.978-13.488c-0.65-0.009-4.617,8.465-4.901,10.86
			c2.489,1.982,3.03,3.673,1.621,5.074c-0.135,2.398-1.919,2.224-5.352-0.522c-3.598-0.204-6.826-1.018-9.685-2.441
			c-0.595-0.706-1.792-0.987-1.955-2.11c3.726,0.088,7.531,0.349,11.783-0.029c1.814-4.679,3.616-8.866,5.825-13.306
			C82.982,99.097,81.748,92.331,79,91C79.611,88.321,83.249,87.974,85,90z"/>
		<path style="fill:#676767;" d="M64.819,99c0.307,4.408,0.383,6.428-3.685,7.959c-5.594,0.929-9.748-5.668-9.742-5.441
			C51.371,100.695,51.829,99.812,52,99c-2.282-1.486-1.677-2.291,1-2l0.34-1.174L60,94c0.861-2.304,1.279-2.421,3.076-0.738
			c0.586-0.14,1.589-0.214,1.782,0.833C65.215,96.022,64.735,97.545,64.819,99z"/>
		<path style="fill:#7E7E7E;" d="M83.037,120.963c1.69-1.351,2.21-0.772,0.963,1.037c1.831,0.051,1.558,0.536,0.46,1.916
			c0.43,3.71-0.056,6.738-1.46,9.084c-5.371-4.56-10.459-9.61-15-15C81.643,116.5,80.295,121.59,83.037,120.963z"/>
		<path style="fill:#7D7D7D;" d="M87,16c2.058,1.647,3.431,3.897,5,6c-1.672,3.019-2.174,6.689-1.506,11.01
			c-0.272,0.666-0.665,1.102-0.738,1.042c-3.546-2.913-7.847-7.178-10.914-10.615C78.627,23.197,78.763,22.643,79,22
			c-0.592-0.81-1.572-0.725-3.096-1.359c2.546-2.605,6.078,0.638,8.354-2.877c2.045,2.454,2.045,2.454,0,0
			C84.759,16.99,85.566,15.558,87,16z"/>
		<path style="fill:#717171;" d="M105.026,39.079c3.615,4.365,8.28,8.511,10.155,13.824c-4.399,0.03-8.948-0.495-13.646-1.574
			c0.507-4.528,0.202-8.843-0.916-12.946C102.328,38.17,103.798,38.402,105.026,39.079z"/>
		<path style="fill:#898989;" d="M39,69c2.752,15.644-2.336,8.702-2.124,14.126c-1.435,0.804-3.289,0.864-4.332-0.24
			C31.652,81.942,30.507,80.223,31,79c-0.334-1.556,0.468-4.261,2-5c-0.141-1.393-0.608-2.387-1.402-2.983
			C35.41,67.286,37.877,66.614,39,69z"/>
		<path style="fill:#515151;" d="M20.916,52.152c2.296-1.518,3.944,0.231,3.816,2.848c1.31-1.871,1.432,4.376,1.309,4.671
			c-0.264,0.634-10.941,7.053-12.073,4.242c-0.27-0.871-1.072-1.582-1.105-2.559c1.304-3.748,2.663-7.541,4.079-11.38
			C18.358,49.774,19.682,50.499,20.916,52.152z"/>
		<path style="fill:#8E8E8E;" d="M74,12c-0.023,2.409-1.023,3.743-3,4c0.812,2.449-0.071,2.673-2,1l-2.461,1.359
			C66.266,16.159,66.087,14.039,66,12c-1.802-5.542,7.598-9.174,8.53-7.721C76.09,6.708,74.318,9.768,74,12z"/>
		<path style="fill:#EDEDED;" d="M97,30c1.51,1.484,0.472,6.577-2.01,6.866C96.713,37.237,96.738,37.579,95,38l0.91,2.066
			c-1.407,2.616-2.374,5.422-2.901,8.418c1.806,1.072,2.1,2.24,0.881,3.505c-0.206,1.837-0.948,2.2-2.443,1.473
			c-0.919,3.14-2.13,5.904-3.634,8.291c-0.772,4.176-2.047,5.926-3.826,5.248c-1.178-0.378-2.055-1.421-2.633-3.131
			C79.924,61.157,84.765,56.89,87,55l0.325-1.074c-2.215-1.075-1.575-1.554,0.816-1.915l-1.178-2.473
			C89.43,45.344,89.775,41.831,88,39c-0.873-0.284-0.86-0.618,0-1c0.084-1.778,1.131-2.377,3.139-1.795
			c0.14-0.886,0.422-0.877,0.837-0.037C91.923,31.191,93.264,28.802,96,29C95.878,29.607,96.463,29.998,97,30z"/>
		<path style="fill:#595959;" d="M47,88l6,7c2.44,0.225,1.912,0.74,0,2c-0.106,0.716-0.851,1.293-1,2
			c-2.92,2.717-4.669-1.821-9.307-5.676C41.132,92.026,40.919,90.562,41,89c-0.374-2.299,2.694-2.048,5.039-1.768
			C46.385,87.273,46.697,87.596,47,88z"/>
		<path style="fill:#787878;" d="M84.9,12.987c-0.722,3.706-5.837,3.455-8.627,4.06c-1.786,1.967-2.412,1.202-1.168-1.152
			C72.072,15.689,72.684,14.317,74,12c1.896-1.427,4.332-2.978,7.076-2.769C83.272,9.398,83.63,12.114,84.9,12.987z"/>
		<path style="fill:#DDDDDD;" d="M28,54c1.536-0.004,2.849,0.251,3.937,0.766C32.348,55.126,32.704,55.541,33,56
			c-2.443,3.775-2.443,3.775,0,0c0.787,0.092,1.388,0.554,2,1c1.908,2.17,2.56,5.198,0,7c-10.714-5.777-11.173-2.042-18.564,2.365
			c-0.887-0.811-2.07-1.172-2.467-2.451c2.132,1.188,13.555-4.677,10.764-8.913C24.832,51.989,26.261,51.587,28,54z"/>
		<path style="fill:#5E5E5E;" d="M107,114c0.117,0.286-0.072,0.695,0,1c-1.384,3.185-3.498,5.873-4.321,9.992
			c-0.916-0.629-1.736-0.941-2.679-0.992c-0.203-0.412-0.741-0.623-1-1c-1.609-0.794-1.942-1.461-1-2
			c-0.111-2.293,0.957-4.864,2.508-6.108C102.488,113.304,104.955,114.144,107,114z"/>
		<path style="fill:#C3C3C3;" d="M24,44.761c0.734,1.324,1.905,2.578,3.241,3.365c-1.247,1.237-2.957,1.855-5.13,1.855l-1.196,2.171
			c-0.533-0.498-2.643-0.993-3.228-0.452l-4.825,9.654l-1.045-0.257C9.813,59.465,10.733,56.92,13,56
			c-0.293-1.582,0.214-3.552,1.519-5.91c-1.135-1.244-2.445-2.381-3.929-3.41c-0.621-1.081-0.198-1.763,0.466-2.031
			c1.09-0.44,2.459-0.26,2.961-0.625c1.371-0.903,2.537-0.359,3.498,1.633c1.427,0.985,2.323,0.047,2.686-2.812
			c0.247-0.183,0.455-0.406,0.625-0.661C23.009,40.087,25.611,41.818,24,44.761z"/>
		<path style="fill:#626262;" d="M13,56c-2.986,2.769-7.395-3.329-4.937-6c-0.888-0.236-0.893-0.571-0.055-1
			c0.319-1.236,1.527-1.957,2.583-2.32c2.133-0.839,5.124-0.022,5.855,2.955C17.009,51.93,14.816,54.814,13,56z"/>
		<path style="fill:#777777;" d="M33,41c0.956,3.279-2.395,5.176-5,3c-1.222,0.55-2.719,0.442-4,0.761
			c-0.688-1.242-1.925-1.974-3.173-2.577c-0.824-1.081,0.968-1.128,1.131-1.971C23.293,37.845,27.817,35.501,30,38
			c0.875-0.312,2.25,0.002,3.469,0.081C34.554,38.151,33.597,40.255,33,41z"/>
		<path style="fill:#737373;" d="M30,38c-2.616,0.934-5.275,1.839-8.042,2.213c-0.63-0.282-1.528-0.161-2.046-1.018
			C24.159,36.525,27.223,33.833,31,32c0.633,1.128,1.991,2.106,2.088,3.553C33.2,37.216,30.919,37.017,30,38z"/>
		<path style="fill:#999999;" d="M58,20c-1.888,0.34-2.664-1.539-4-2c-0.227-0.56-0.658-1.05-0.955-1.557L59,13l1.223-0.262
			c0.903,3.061,2.356,5.151,4.358,6.268c-1.172,4.466-2.2,5.496-3.084,3.089L58,20z"/>
		<path style="fill:#DADADA;" d="M101.105,32.974c-0.392,2.222,0.525,3.838,2.751,4.848c0.168,0.463,0.847,0.867,1.171,1.257
			c-0.67-0.022-1.96-0.391-2.919,0.144l-0.054,11.545l13.128,2.135c0.097,0.275,0.068,0.597,0.147,0.879
			C110.461,54.225,105.85,52.006,101,52l-1.803-1.654L98.69,40.305C96.711,40.123,95.481,39.355,95,38l-0.01-1.134
			c1.616-1.294,2.518-2.94,2.706-4.937L99,31C99.409,31.636,100.701,32.102,101.105,32.974z"/>
		<path style="fill:#626262;" d="M93,23c1.306,1.965,3.506,3.476,3,6c-1.98,2.084-1.419,5.486-4.024,7.168
			c-1.238-0.8-2.927-2.768-1.554-3.709c-0.078-1.472-0.186-9.502,0.379-9.902C91.395,22.135,92.478,22.437,93,23z"/>
		<path style="fill:#777777;" d="M8.063,50c0.154,2.792,2.781,4.503,4.937,6c0.135,1.786-0.059,3.653-1.181,5.097
			C7.86,60.122,5.933,54.908,5.961,50.85C5.684,49.352,7.031,49.005,8.063,50z"/>
		<path style="fill:#DBDBDB;" d="M79,22c3.019,4.131,6.954,7.225,10.712,11.145c0.354-3.9,0.966-7.098-0.531-10.722
			c0.515-0.828,1.811-0.33,2.82-0.423c0.278,0.373,0.741,0.611,1,1c-3.438-2.708-2.02,12.857-1.024,13.168l-0.837,0.037
			c-0.374,0.43-0.749,0.766-1.129,0.771C88.234,37.002,77.24,26.996,78,24c-2.501,1.29-3.005,0.009-1-2H79z"/>
		<path style="fill:#878787;" d="M32,73c0.299,1.707-0.722,4.679-2.073,5.942C26.851,78.777,24.975,75.147,23,73
			C24.719,71.108,35.228,69.028,32,73z"/>
		<path style="fill:#DCDCDC;" d="M65,12h1c0.475,1.461,1.26,4.554,1.624,4.86C67.948,17.133,68.56,17.087,69,17l0.147,2.486L64,24
			c-0.719,0.259-1.314,0.821-1.99,1.163C62.136,21.57,59.06,22.593,58,20c1.703-0.306,3.075,1.37,5.072,2.005
			C62.82,18.333,61.005,15.377,59,13c0.421-0.897,1.168-1.546,2.052-1.995l1.994,0.9C62.908,13.915,63.56,13.946,65,12z"/>
		<path style="fill:#888888;" d="M120.937,78c-1.499-2.374-1.16-3.731,1.016-4.071c0.887-2.072,3.142-3.314,4.213-5.276
			c5.488-3.271-3.461,10.935-3.563,12.392C121.61,79.3,121.598,78.573,120.937,78z"/>
		<path style="fill:#CDCDCD;" d="M98,121c0.444,0.583,0.585,1.395,1,2c-4.535-1.673-9.507-1.21-14.157,0.623L85,135
			c-0.434-0.573-1.451-1.534-2-2c0.74-2.977,1.274-8.246,1-11c0.757-2.268,3.324-3.338,7.7-3.208c2.624-0.968,4.39-0.565,5.3,1.208
			C97.039,120.571,97.739,120.658,98,121z"/>
		<path style="fill:#D8D8D8;" d="M44,66c0.583,0.747,1.436,1.11,2,2c-0.626,2.73-5.002,2.521-7,1
			c-1.536-0.812-2.972-0.941-4.182,0.361C33.27,71.028,33.173,72.192,33,74c-0.999,0.333-1.333,0-1-1c2.055-3.614-7.914-0.343-9,0
			v-1c3.336-2.449,10.03,0.277,13-6C37.712,63.968,41.773,65.074,44,66z"/>
		<path style="fill:#6E6E6E;" d="M20.202,42.845c0.737,0.651,1.774,1.774,1.527,2.599c-0.322,1.074-1.563,2.482-2.946,2.645
			c-2.531,0.298-3.72-2.428-4.766-4.065c0.905-0.658,1.426-2.251,2.67-2.369C17.957,41.535,19.051,42.599,20.202,42.845z"/>
		<path style="fill:#696969;" d="M116.735,93.181L111,107c-1.022,0.04-1.292-1.667-0.912-2.816l3.274-9.904
			C113.859,92.777,115.789,92.989,116.735,93.181z"/>
		<path style="fill:#767676;" d="M46.89,30.11c3.356,2.943-3.393,2.889-5.841,4.941C41.214,32.185,42.128,30.268,42,28l1-1
			C44.651,27.498,45.804,28.822,46.89,30.11z"/>
		<path style="fill:#8F8F8F;" d="M65,12c0.084,1.563,0.492,3.051,1.141,5.127c-0.465,0.88-1.112,1.468-1.824,1.884
			c-2.016-2.751-3.33-5.199-3.264-8.006l3.528-1.788C65.095,10.47,64.963,11.244,65,12z"/>
		<path style="fill:#D5D5D5;" d="M65.717,102.071c1.508,0.933,1.639,3.294,0.394,7.081c-0.252,1.749-1.48,3.904-1,5.803
			c-1.313-0.206-1.63-1.696-2.486-2.404c0.117-2.413-0.38-4.277-1.491-5.593c2.205-2.445,3.778-4.579,3.685-7.959
			C64.874,99.952,64.641,101.761,65.717,102.071z"/>
		<path style="fill:#7D7D7D;" d="M113,88c1.558,1.047,5.603,1.722,3.932,3.892c-1.978-0.334-5.518,1.158-6.687-0.553
			c-0.772-1.13-0.38-3.461,0.188-4.26C110.882,86.449,112.334,87.553,113,88z"/>
		<path style="fill:#747474;" d="M40,84c2.294,2.557,2.628,4.223,1,5c-1.725,1.042-2.97-0.747-3.911-1.593
			c-1.697-1.525-0.158-2.865-0.213-4.281C37.506,82.773,38.525,82.547,39,82C41.636,81.719,41.943,82.222,40,84z"/>
		<path style="fill:#757575;" d="M99,31c0.024,1.341,0.178,2.712-0.121,4.3c-0.303,1.604-2.221,1.867-3.889,1.566
			C94.967,34.44,96.119,32.231,97,30c0.341-0.406,0.918-0.683,1.087-0.419L99,31z"/>
		<path style="fill:#767676;" d="M80.096,7.594c0.258,1.921-1.828,1.964-2.669,1.712c-1.571-0.47-1.594-1.258-1.483-3.399
			c0.038-0.738,0.03-2.745,0.995-2.322C78.171,4.161,79.884,6.018,80.096,7.594z"/>
		<path style="fill:#8B8B8B;" d="M41,27c-2.264,0.694-3.809,2.05-4.904,4.018C34.773,31.196,32.664,32.704,32,31
			c2.849-1.988,5.882-3.642,8.668-6.036C41.36,25.954,40.828,26.566,41,27z"/>
		<path style="fill:#585858;" d="M62.625,112.551c-1.373-1.137-1.658-3.894-1.491-5.593c0.755-0.126,1.741-0.656,2.567-0.979
			C64.578,108.326,63.226,110.711,62.625,112.551z"/>
		<path style="fill:#838383;" d="M103.856,37.822c-1.166,0.22-2.751,0.248-3.42-0.774c-0.815-1.245-0.995-3.729,0.669-4.074
			C101.892,34.673,103.211,36.049,103.856,37.822z"/>
		<path style="fill:#767676;" d="M8.008,49l0.055,1c-0.831-0.027-1.502,0.319-2.102,0.85c-0.912,0.807-1.86,1.951-4.057,0.79
			C3.729,50.068,5.668,48.187,8.008,49z"/>
		<path style="fill:#D1D1D1;" d="M33,74c-0.166,1.74-1.367,3.429-2,5l-1.073-0.058C30.796,77.002,30.366,74.477,32,73
			C32.28,73.383,32.61,73.728,33,74z"/>
		<path style="fill:#585858;" d="M98,85c2.799-0.109,8.036,2.966,6,6v1c2.054,2.146,0.541,4.13-2.105,2.895
			c-2.725,1.898-3.362,5.505-6.232,8.156c-3.417-0.812-6.802-1.269-10.426-1.088C83.471,96.189,81.526,93.638,85,90
			c-1.03-2.685,2.832-5.579,4.895-3.105c0.343-2.145,1.607-2.612,3.793-1.4L95,85H98z"/>
		<path style="fill:#5A5A5A;" d="M104,107c0.702,2.734-0.036,2.97-2,1c-1.841-0.616-2.977-1.149-3.461-2.47
			c-1.87-5.11,3.115-5.34,3.356-10.635c0.706-0.964,1.521-1.85,2.105-2.895c2.786-0.114,5.49,0.157,8.43,1.746
			C107.081,111.743,105.999,103.335,104,107z"/>
		<path style="fill:#646464;" d="M101,67c2.477,1.2,2.477,2.2,0,3c-1.955,1.865-2.054,4.801-3.602,7.123
			C94.954,75.563,93.142,74.431,91,74c-6.095-2.346-7.184-4.396-3.267-6.152c0.839-2.107,1.665-2.557,2.477-1.352
			c3.115-0.668,6.109-1.474,8.982-2.421L101,67z"/>
		<path style="fill:#6A6A6A;" d="M110,71l-2,7c-0.939,1.023-1.097,2.334-2.366,4.135c-1.796-1.722-5.914-2.391-6.544-5.065
			c-0.039-2.546,2.547-4.817,1.91-7.07c0.13-2.132,8.201-1.94,9.984-1.375C111.106,68.663,110.421,70.292,110,71z"/>
		<path style="fill:#696969;" d="M91,74c1.172,2.368,4.378,2.642,6.585,4.823C99.395,80.611,96.796,83.874,95,85
			c-2.229,1.597-3.896,0.597-5-3c-3.018,0.769-3.689-0.602-2-3l-3-4c-2.714,1.128-3.575-0.587-2.27-3.126
			c0.196-0.665,0.706-1.115,1.15-1.604c2.011-1.049,3.04-1.009,1.87,1.047L91,74z"/>
		<path style="fill:#565656;" d="M104,91c-1.395-2.629-4.971-3.012-6-6c0.569-1.686,0.442-3.438,1.633-5.251
			c3.217,2.537,6.778,3.691,9.143,6.246c0.823,0.889,0.621,4.402-0.349,4.883C107.391,91.392,105.205,90.826,104,91z"/>
		<path style="fill:#585858;" d="M106,112c-1.407,0.822-5.006,1.988-5.827,0.344c-1.131-2.261,0.883-3.622,1.827-4.344
			c0.49-0.374,1.715-0.477,2-1c1.595,0.14,3.184,0.063,4.859-1.035C109.511,108.926,107.964,110.852,106,112z"/>
		<path style="fill:#787878;" d="M50,49c2.257,1.392,3.924,3.059,5,5c2.75-1.434,4.629,2.427,3.176,4.824
			c2.162,0.994,2.842,3.218,0.291,3.445L55,69c-2.968,0.956-6.326-0.019-8.894-3.207c-3.995-4.96-9.476-8.414-13.12-14.045
			l2.916-2.754l5.788-3.268l3.008,1.391C47.543,47.075,49.31,47.703,50,49z"/>
		<path style="fill:#585858;" d="M82.73,71.874c0.893,0.907,1.46,2.151,2.27,3.126l3,4c0.842,0.769,1.071,2.342,2,3
			c2.49,2.784,2.455,4.415-0.105,4.895C88.028,87.33,86.785,89.422,85,90c-1.843,0.597-4.06,1.285-6,1
			c-0.962-0.141-1.807-1.108-3-0.664c-1.894,2.669-4.25-0.033-2-2.336l-5-4c-1.044-2.05-2.265-7.264-0.107-8.76
			C69.753,74.644,80.979,70.096,82.73,71.874z"/>
		<path style="fill:#525252;" d="M63.076,93.262C62.248,94.021,61.122,94.258,60,94c-2.808,1.355-5.141,1.688-7,1l-6-7
			c-0.364-1.18,0.302-2.18,2-3l5-4l4-3c-0.475-0.928-0.195-1.315,0.837-1.163c1.08-0.71,2.134-1.322,3.163-1.837
			c0.735-1.119,2.372-0.841,3.241-0.554c1.479,0.489,2.428,2.408,1.643,4.361C64.531,84.655,67.918,88.827,63.076,93.262z"/>
		<path style="fill:#616161;" d="M59,42c2.101,2.475-0.803,4.217-3,2c-3.525,3.236-10.72,4.909-14.952,2.498
			C40.643,46.268,41.364,44.728,42,44l2-5c-1.556-1.654-1.304-2.175,1-2c3.374-5.091,4.081-3.858,12.647-8.193
			C57.946,33.357,59.214,37.597,59,42z"/>
		<path style="fill:#616161;" d="M61,74c0.593,1.33-0.817,2.492-2.163,2.837C58.554,77.183,58.175,77.588,58,78l-4,3l-5,4
			c-3.513,3.492-7.184,4.373-9-1c-0.499-0.357-0.571-1.518-1-2c2.902-3.964,2.703-6.576,8-6c0.574-2.147,0.863-2.763,1.782-0.666
			L50,75C53.587,75.549,57.385,73.662,61,74z"/>
		<path style="fill:#6E6E6E;" d="M76.016,71.129c-2.633,0.661-5.734,2.981-8.803,2.489C62.699,72.894,57.631,72.01,55,69
			c2.575-5.669,3.863-8.503,3.863-8.503c5.447,3.27,11.086,6.441,16.918,9.513L76.016,71.129z"/>
		<path style="fill:#585858;" d="M69,84l5,4c0.408,0.662,1.196,2.233,2,2.336l-9.89,18.816c-1.338-2.142-0.501-4.62-0.394-7.081
			c-0.095,2.18,1.965-21.186,1.341-17.467C67.202,83.744,68.137,84.066,69,84z"/>
		<path style="fill:#838383;" d="M87,55c0.22,3.806-3.178,6.204-5.646,8.869c2.128,1.849,0.88,2.929-1.386,1.178l-1.934-0.286
			C75.333,65.96,73.924,63.624,75,61c-2.912-2.666-3.282-4.369-1.11-5.11C71.364,54.401,73.387,51.844,76,53l0.192-2.148
			c3.427,1.423,7.185,2.08,11.276,1.972L87,55z"/>
		<path style="fill:#676767;" d="M69,36c1.458-1.369,1.959-0.822,1,1c2.828,2.854,2.781,4.473-0.142,4.858
			c1.933,2.221-0.743,4.055-2.948,2.231c-1.801,2.66-3.393,2.706-4.777,0.139C60.078,46.77,57.703,44.391,60,42
			c0.83-5.175-2.285-9.767-0.029-12.848c0.849-0.406,1.979,0.055,3.388,1.384c2.869,0.549,3.967,1.356,3.294,2.423L69,36z"/>
		<path style="fill:#676767;" d="M75,61c1.019,1.017,2.175,2.628,3.034,3.761C78.276,66.424,78.379,68.901,77,70
			c-5.67-2.688-11.473-5.407-17.409-8.157C59.799,60.798,60.935,59.851,63,59c1.906-2.9,3.04-3.405,3.4-1.514
			C71.025,56.775,73.892,57.947,75,61z"/>
		<path style="fill:#757575;" d="M77,22c0.03,0.813,0.623,1.364,1,2c1.005,1.169,1.046,1.848,0.123,2.037
			c-1.263,2.525-2.043,3.241-2.34,2.147c-3.604,0.974-6.603,2.373-8.996,4.196C62.92,31.056,60.992,29.263,61,27
			C69.229,24.254,68.791,22,77,22z"/>
		<path style="fill:#D7D7D7;" d="M101,52c-0.852,4.982-1.968,10.048,0,15c-4.277-3.039-13.39,0.049-15.037,3.882
			C88.458,71.305,90.132,72.247,91,74c-2.61-0.525-5.437-1.655-7.121-3.73c0.326-0.359,0.192-1.1,0.459-1.509
			c1.74-1.844,2.898-4.181,3.474-7.009C88.122,59.473,88.608,59.014,90,61c0.893,2.597,3.218,2.941,6.977,1.033
			C98.001,57.248,97.008,54.904,94,55c-2.862,0.039-2.816-2.232-0.11-3.012C94.506,48.912,100.019,49.109,101,52z"/>
		<path style="fill:#838383;" d="M62.134,44.228c1.937,0.72,2.499,1.545,1.686,2.475C61.753,47.205,59.813,48.304,58,50
			c0.228,2.547-0.702,3.28-3,2c-1.6-0.121-3.266-1.121-5-3l-0.521-1.301L56,44c0.722-0.655,2.522-0.899,3-2h1
			C60.291,43.086,61.152,43.772,62.134,44.228z"/>
		<path style="fill:#737373;" d="M27.241,48.126c1.766,1.04,3.264,2.019,3.837,4.05C32.281,54.008,29.075,55.478,28,54
			c-1.069,0.375-2.254,0.426-3.268,1c-1.498-0.55-2.854-1.673-3.816-2.848c-0.364-1.059-1.144-1.874-1.969-2.802
			C21.867,47.391,24.627,47.314,27.241,48.126z"/>
		<path style="fill:#7A7A7A;" d="M45,37c-0.418,0.63-0.282,1.471-1,2l-2,5l-0.064,2.146l-6.034,2.849l-2.176-0.463
			C36.619,47.528,35.798,43.501,37,42l4.824-6.027c0.582-0.727,2.023-1.068,2.647-0.956C45.222,35.152,45.056,36.37,45,37z"/>
		<path style="fill:#6D6D6D;" d="M44,66c-1.974,2.133-5.557,1.017-8,0l-1-2c-0.998-2.241,0.052-4.625,0-7
			C38.417,59.494,41.406,62.677,44,66z"/>
		<path style="fill:#777777;" d="M75.105,15.895l1.168,1.152C73.989,20.92,68.335,22.437,64,24c-0.642-3.374,2.727-4.925,5-7
			c0.439-0.401,1.444-0.852,2-1C72.852,13.806,74.22,13.771,75.105,15.895z"/>
		<path style="fill:#D2D2D2;" d="M63,59c-0.414,0.711-0.89,1.457-1.969,2.502C66.251,64.513,72.175,66.356,77,70
			c-0.333,0.265-0.543,1.018-0.984,1.129c-4.814-4.034-11.318-5.573-16.694-9.167C57.799,64.95,57.549,67.855,55,69
			c0.382-3.688,3.905-6.417,3.176-10.176C59.802,57.406,61.702,56.884,63,59z"/>
		<path style="fill:#707070;" d="M50,75c-0.789,0.649-1.871,1.123-3,1c-0.59-0.63-1.42-0.816-2.234-2.037
			c1.334-1.481,2.843-4.251,4.98-3.811c2.894,0.596,5.128,1.973,8.373,2.131c-2.964,2.325-6.207,1.754-10.1,1.687
			C48.011,75.424,49.232,75.055,50,75z"/>
		<path style="fill:#8D8D8D;" d="M36.096,31.018c1.394-0.187,2.303-1.136,3.717-2.041c0.211,2.961,0.878,6.513-1.219,8.555
			c-1.674,1.63-4.428,0.204-4.738-1.898C33.588,33.82,35.179,32.666,36.096,31.018z"/>
		<path style="fill:#777777;" d="M46,68c1.898,2.994-2.806,5.612-4.534,8.082C39.869,73.312,41.066,70.529,39,69
			C41.003,67.584,43.554,67.897,46,68z"/>
		<path style="fill:#8A8A8A;" d="M28,44c1.779-0.8,3.711-1.52,5-3c1.942,2.169,1.331,7.145-1.717,7.778
			c-1.394,0.289-2.84-1.412-3.52-1.875C26.882,46.302,27.21,44.819,28,44z"/>
		<path style="fill:#CCCCCC;" d="M78.123,26.037c1.67,2.463,3.153,5.035,4.447,7.713L81,36c-1.709,2.466-3.2,0.657-4.318-1.612
			C75.739,28.991,70.494,32.543,69,36c-1.636-0.531-2.877-4.025-9.029-6.848C59.938,28.351,60.125,27.292,61,27
			C63.151,34.64,73.932,27.797,78.123,26.037z"/>
		<path style="fill:#6A6A6A;" d="M83.987,67c0.896,0.126,0.899,0.439,0.081,0.924c-1.523,0.756-2.804,1.92-4.916,2.11
			c-0.416-2.108-0.168-3.733,0.816-4.987c0.638,0.094,1.019-0.783,1.386-1.178c1.226-0.378,1.817-1.63,3.657-1.871
			C84.422,64.027,83.838,65.388,83.987,67z"/>
		<path style="fill:#737373;" d="M87.813,61.752c0.057,1.181,0.446,3.547-0.206,5.034c-0.455,1.038-1.585,2.083-3.269,1.975
			l-0.27-0.837L83.987,67C86.414,66.39,84.796,62.376,87.813,61.752z"/>
		<path style="fill:#6D6D6D;" d="M31.937,54.766c-2.199,0.329-3.828,1.757-5.785,3.382C25.506,55.765,27.574,55.364,28,54
			c1.121-0.394,2.561-0.694,3.079-1.824C31.296,52.946,32.725,53.621,31.937,54.766z"/>
		<path style="fill:#787878;" d="M37,42c-1.621,1.353-2.004,0.701-2.006,0.353l-0.014-2.47c-0.007-1.303,1.694-1.252,1.994-0.377
			C37.204,40.174,36.882,41.148,37,42z"/>
		<path style="fill:#CACACA;" d="M62,75c-0.776,1.181-1.454,2.308-3.163,1.837C59.591,75.916,60.381,75.022,61,74
			C61.494,74.046,61.893,74.557,62,75z"/>
		<path style="fill:#D9D9D9;" d="M116,72c-1.729-0.094-3.005-1.169-4.347-2.994c-0.671,0.746-0.882,1.625-1.653,1.994
			c-1.043-3.734-6.11-2.107-9-1c-0.254-0.898,0.343-2.138,0-3c2.43,1.726,6.651,1.298,9.609,0.573
			c1.185-0.29,1.881-1.967,2.391-2.573C112.607,67.941,114.06,69.787,116,72z"/>
		<path style="fill:#CCCCCC;" d="M113,65c0.435-3.26,1.731-6.738,4.071-9.14C117.332,58.789,114.628,63.064,113,65z"/>
		<path style="fill:#D7D7D7;" d="M108,78c-0.079-2.335,0.202-5.468,2-7C110.074,73.487,109.721,76.126,108,78z"/>
		<path style="fill:#DBDBDB;" d="M121.953,73.929c-0.45,1.052-0.754,2.989-1.016,4.071c-1.263-1.096-2.002-2.648-2.937-4
			C119.313,74.429,120.812,74.943,121.953,73.929z"/>
		<path style="fill:#676767;" d="M97,120l-13,2c-0.037-0.371-0.54-1.134-0.963-1.037c-0.525-1.605-2.784-2.706-3.943-4.336
			c1.409-4.572,3.415-9.253,6.1-13.689c3.515,0.322,7.397,0.111,10.777,1.581C101.765,107.041,97.55,116.992,97,120z"/>
		<path style="fill:#CBCBCB;" d="M60,94c-1.856,1.937-4.817,1.6-7,3c0.087-0.592,0.082-1.407,0-2C55.248,95.322,57.735,93.48,60,94z
			"/>
		<path style="fill:#DDDDDD;" d="M84.258,17.764c1.968,1.185,3.148,1.65,3.781,3.167C85.866,21.225,84.145,19.316,84.258,17.764z"/>
		<path style="fill:#E1E1E1;" d="M75.105,15.895L71,16c0.927-1.35,1.658-2.99,3-4C73.807,13.353,74.168,14.97,75.105,15.895z"/>
		<path style="fill:#828282;" d="M88,39c1.158-0.015,2.341-0.16,4.079,0.152c-0.7,4.75-2.333,8.775-3.938,12.859
			c-1.08,1.066-6.896,0.753-9.004,0.161C74.196,50.784,73.858,42.517,78,40c-0.393-2.478,0.029-2.531,2-1
			C81.666,36.221,85.495,37.804,88,39z"/>
		<path style="fill:#666666;" d="M101,52c-2.055-0.003-5.2-0.137-7.11-0.012c-0.043-1.162-1.77-1.065-3.535-1.671
			C91.871,46.083,92.103,41.232,95,38c1.084,0.119,5.382-0.743,5.585,1.232C101.018,43.445,101.655,48.173,101,52z"/>
		<path style="fill:#D4D4D4;" d="M78,40c-2.731,2.864-3.405,9.035,0.521,11.283c3.041,1.742,6.776,0.223,9.62,0.727
			C87.779,52.934,87.873,54.315,87,55c2.913-2.707-11.391-2.55-11-2c-3.046-1.386-10.071-2.737-8.425,2.006
			c2.427-0.308,4.532-0.014,6.315,0.884c0.103,1.753,0.694,3.415,1.11,5.11c-3.296-3.292-7.809-3.728-12-2
			c-1.157-1.327-1.253-3.185-0.289-5.576l-0.176-3.313C60.454,51.717,58.942,51.68,58,50c0.822-2.839,6.893-3.039,4.134-5.772
			c1.544,0.717,3.235,0.511,4.777-0.139c0.299,2.578,2.309,3.5,6.033,2.765C72.359,43.711,73.045,41.759,75,41
			C74.215,38.162,76.558,37.401,78,40z"/>
		<path style="fill:#7F7F7F;" d="M91.139,36.205C91.202,37.676,89.369,38.391,88,38c-1.59,0.397-6.901,0.005-7-2
			c-0.652-5.798-5.862-6.918-2.877-9.963C77.96,25.443,78.319,24.538,78,24L91.139,36.205z"/>
		<path style="fill:#5B5B5B;" d="M93.89,51.988L94,55c2.566,2.35-0.823,7.096-4,6c-0.751,0.182-1.484,0.43-2.187,0.752
			c-0.152-3.161-0.092-7.107,2.397-9.734C91.2,50.973,93.059,52.043,93.89,51.988z"/>
		<path style="fill:#CECECE;" d="M88,38v1c-2.743,0.035-5.467-1.345-8,0c-2.058-1.765-1.591-2.781,1-3L88,38z"/>
		<path style="fill:#CACACA;" d="M49,85c-0.616,1.031-1.451,1.925-2,3c-2.07-0.133-4.2-0.088-6,1c0.089-1.706-0.657-3.362-1-5
			l3.199,2.944C44.823,88.438,47.028,85.062,49,85z"/>
		<path style="fill:#BDBDBD;" d="M53,95c-2.429-1.707-5.632-4.003-6-7C49.391,89.826,52.567,91.884,53,95z"/>
		<path style="fill:#656565;" d="M33,56c-0.039,2.497,0.151,3.472-0.105,4.999c-2.697,0.185-4.701-0.613-6.933-1.535
			C29.28,58.817,30.311,55.874,33,56z"/>
		<path style="fill:#CECECE;" d="M95,85c-1.321,1.495-3.318,1.479-5.105,1.895C91.276,85.536,90.548,83.637,90,82
			C91.428,83.011,93.052,86.222,95,85z"/>
		<path style="fill:#CACACA;" d="M88,79c-1.68-0.694-3.004-2.123-3-4C86.684,75.702,87.939,77.14,88,79z"/>
		<path style="fill:#6E6E6E;" d="M63,59c-1.579,0.651-3.589,1.244-4.824-0.176C56.817,57.67,56.11,55.271,55,54
			c-1.051-1.317-1.051-1.984,0-2c0.74-0.85,1.808-1.843,3-2c1.91-0.251,2.882-1.719,5.45-3.455C65.391,50.67,65.11,55.379,63,59z"/>
		<path style="fill:#D3D3D3;" d="M56,44l-6,5c-2.838-0.203-5.572-2.159-8.824-1.902c-2.031,0.16-3.394,2.296-5.274,1.896
			C37.866,47.138,40.305,46.23,42,44C43.8,49.908,52.94,45.06,56,44z"/>
		<path style="fill:#DDDDDD;" d="M55,52v2c-1.493-1.709-4.276-2.575-5-5C52.115,49.151,53.194,50.921,55,52z"/>
		<path style="fill:#CCCCCC;" d="M74,88c-2.278-0.125-3.994-2.024-5-4C71.255,83.828,73.003,86.383,74,88z"/>
		<path style="fill:#C0C0C0;" d="M54,81c-1.031,1.928-2.706,3.928-5,4C50.134,83.102,51.63,81.071,54,81z"/>
		<path style="fill:#C3C3C3;" d="M58,78c-0.725,1.702-2.112,2.943-4,3C54.853,79.404,56.016,77.935,58,78z"/>
		<path style="fill:#D9D9D9;" d="M42,44c-0.522-1.715,0.666-4.017,2-5C44.451,41.189,43.14,42.5,42,44z"/>
		<path style="fill:#898989;" d="M76,53l-2.11,2.89c-2.102,1.491-4.812,1.352-7.827,0.966c-0.843-2.235-0.951-4.366,0.078-6.774
			c3.421-0.144,6.427-0.336,9.641,0.122C76.307,50.898,75.98,52.428,76,53z"/>
		<path style="fill:#616161;" d="M81,36c0.117,1.041-0.594,2.108-1,3c-0.644,0.342-1.174,1.015-2,1c-1.091-0.02-2.007,0.742-3,1
			c-2.509,0.113-4.176-1.221-5-4c-0.283-0.273-0.638-0.882-1-1c-0.004-1.48-1.025-2.467-2.196-3.907l9.906-3.23
			C78.061,32.038,78.435,35.267,81,36z"/>
		<path style="fill:#727272;" d="M75,41l-0.078,8.068c-3.177-0.45-6.405,0.197-9.265-0.904c-1.757-0.677,0.277-3.335,1.254-4.075
			l2.948-2.231C70.034,39.496,71.748,39.21,75,41z"/>
		<path style="fill:#DBDBDB;" d="M75,41c-1.644,0.426-3.534,0.286-5.142,0.858C71.302,40.544,70.545,38.632,70,37
			C71.544,38.489,73.255,39.746,75,41z"/>
		<path style="fill:#666666;" d="M90,61c1.876-2.085,3.144-3.922,4-6c1.243-1.196,3.567-2.759,4.72-1.811
			c0.627,3.44,0.261,6.969,0.218,10.552l-9.933,2.381C88.979,64.042,89.423,62.286,90,61z"/>
	</g>
</g>
</svg>
