<?xml version="1.0" encoding="iso-8859-1"?>
<!-- Generator: Adobe Illustrator 30.1.0, SVG Export Plug-In . SVG Version: 9.03 Build 0)  -->
<svg version="1.1" id="Layer_1" xmlns="http://www.w3.org/2000/svg" xmlns:xlink="http://www.w3.org/1999/xlink" x="0px" y="0px"
	 viewBox="0 0 126 117" style="enable-background:new 0 0 126 117;" xml:space="preserve">
<g>
	<g>
		<path style="fill:#FAFAFA;" d="M126,73v3l-12.064,29.364L35,117h-5l-1.632-0.46c-9.141-9.516-18.154-19.151-27.039-28.904L0,84v-3
			L78.702,2.85c1.363-1.353,4.089-3.456,5.508-1.039L126,73z M78,6c-1.96,0.947-2.713,2.9-4.197,4.357
			c-1.053,1.034-3.101,1.404-2.696,3.47c-0.392,0.37-0.755,0.769-1.087,1.194c-2.237-0.568-2.172,2.516-3.199,3.094
			c-1.861,0.878-4.067,1.924-4.879,4.168c-0.305,0.844-1.916,1.379-1.677,2.646c-2.165-0.149-2.537,2.08-3.703,3.215
			c-0.931,0.906-2.955,0.906-3.234,2.638c-0.085,0.527-0.944,1.09-1.262,1.533c-0.286,0.397-0.849,1.042-1.276,1.244
			C49.999,33.832,49.382,34.285,49,35c-0.166,0.312-0.723,0.788-1,1c-1.665,0.645-3.001,2.654-4,4
			c-0.51,0.546-1.532,1.535-2.005,2.123c-1.188,0.9-2.184,2.121-2.093,3.861c-4.451-0.243-5.882,5.001-8.677,7.04
			c-3.518,2.566-6.499,5.47-8.875,8.781c-0.773,1.077-2.316,1.717-2.412,3.281C16.563,66.271,14.011,69.104,12,72v1
			c-1.358-1.067-8.539,7.06-10.265,8.924c1.681,2.834,4.342,5.549,6.556,6.914c0.54,0.559,1.714,1.612,2.039,2.31
			c0.813,1.741,2.416,3.212,3.514,4.845c0.621,0.924,1.689,1.257,2.307,2.016c3.092,3.795,6.375,7.453,9.874,10.879
			c0.881,0.863,1.342,2.338,2.755,2.629c0.285,0.366,1.091,1.021,1.219,1.484c1.15,4.173,15.041,0.68,17,0
			c0.278-0.097,0.704-0.021,1,0c2.511,0.176,5.078-0.396,7.005-2.092c2.353,2.733,5.775-0.032,8.806-0.097
			c2.761-0.06,5.455-0.39,8.189-0.811l13-2c0.306-0.047,0.694-0.052,1,0c1.809,0.305,3.37-0.275,4.919-1.06
			c1.145-0.581,2.874,0.155,4.081-0.144c0.585-0.145,1.537-0.177,1.966-0.631c0.558-0.591,0.089-1.506-0.103-2.072
			c2.73,1.876,5.714,1.191,9.066,0.326c2.712-0.701,5.899,0.261,7.07-2.417c0.172-0.394,0.858-0.567,1-1
			c0.332-1.013,0.705-2.01,1.102-3c0.117-0.29-0.054-0.694,0.024-1c1.999-2.059,2.599-5.259,2.874-8c0.561-0.446,0.648-1.441,1-2
			c1.736-2.754,3.687-5.911,2-9c0.548,0.218,0.977,0.781,1.616,0.924c1.976-2.97,1.85-6.165-0.616-7.924c0.03-0.819-0.752-1.332-1-2
			c-0.963-2.597-5.194-10.812-9-12c0.567,0.126,2.065,0.028,1.808-0.442c-1.325-2.421-1.799-4.657-3.808-5.558
			c0.175-0.823-0.864-1.366-1-2c-1.041-4.858-4.674-8.648-7-13c-0.548-1.026-0.837-2.515-2-3c-0.876-2.37-2.305-5.012-3.866-7.126
			c-0.369-0.5-0.714-1.427-1.134-1.882c-0.649-1.826-1.494-4.215-3.693-4.106c0.404-0.33,0.613-1.093,0.64-1.601
			c0.034-0.641-0.812-0.944-1.115-1.285c0.018-2.566-2.897-4.237-3.832-6c-1.52-2.865-1.695-6.851-5.005-9.407
			C80.112,2.825,79.544,5.254,78,6z"/>
		<path style="fill:#1F1F1F;" d="M48,89c6.155,0.982,14.354,6.322,17,12c1.09,0.351,0.757,1.351-1,3l-0.637,2.045
			c-1.175-0.494-2.296-0.175-3.363,0.955c4.142,2.554-2.858,3.847-4.995,3.908c-1.928,1.696-4.494,2.268-7.005,2.092
			c-0.728-2.568-1.394-5.234-2-8c-0.503-0.072-0.898-0.159-0.917-0.298c-0.163-1.158,0.114-16.143,0.692-16.752L48,89z"/>
		<path style="fill:#3D3D3D;" d="M109,56c1.509-2.31,2.709-1.682,3,1c3.806,1.188,8.037,9.403,9,12c0.827,2.165,0.692,5.557-1,7
			c-1.907,1.684-8.887,1.591-11,0c-2.769,0.414-3.102-0.253-1-2l-4.866-18.438C105.643,54.706,107.598,54.852,109,56z"/>
		<path style="fill:#4B4B4B;" d="M105,78c3.619-1.442,10.062-1.367,14.355-1c0.242,0.021,0.448,0.452,0.645,1
			c0.275-0.919,0.609-0.905,1,0c1.687,3.089-0.264,6.246-2,9c-4.215,1.781-8.671,3.15-13.37,4.105
			c-5.712-3.691-6.666-8.013-6.876-13.924C100.956,77.385,103.038,77.658,105,78z"/>
		<path style="fill:#C5C5C5;" d="M89,20c1.097-1.319,1.95-2.126,2.307-0.114C91.874,22.217,91.438,24.588,90,27l-1.815,13.135L89,42
			c5.834-0.147,11.501,2.367,16,6c-0.337-1.464,0.33-1.464,2,0c0.604-0.575,1.271-0.242,2,1c0.136,0.634,1.175,1.177,1,2
			c0.174,2.672-0.768,2.729-2,0.378c-2.689,0.175-5.413-0.116-8.173-0.872c1.181,1.593,1.905,3.091,2.173,4.494
			c-0.074,2.988-4.463,2.758-5,0c-2.83-0.535-2.296-4.965-1.48-6.913C90.903,47.685,87.396,45.989,85,43v-1
			c-2.927-0.002-2.803-3.341,0-4c-0.873-0.284-0.86-0.618,0-1c-1.91-1.828-0.593-6.927,1-9c-0.543-2.05-1.876-3.717-4-5
			c-0.265,2.533-1.287,2.465-2,0c-0.299,2.332-2.925,3.058-4.907,2l-3.318,0.113c-1.383,0.75-3.599,0.894-4.556-0.698
			c-0.319,1.432-1.481,2.086-3.484,1.964c0.878,1.522,1.201,2.542-0.636,3.706c2.201,1.658,0.082,4.047-1.921,4.751
			C62.058,35.355,61.997,35.743,61,36c0.563,1.43,0.62,4.231-1,5c0.912,0.102,0.859,0.448,0,1c2.852,0.946,1.474,8.135-1,9
			c0.896,0.244,0.874,0.579,0,1l0.91,2.161c2.365-0.693,3.729-0.08,4.09,1.839c1.69-0.325,3.024,0.008,4,1
			c0.265-0.906,0.599-0.889,1,0c0.54,0.302,0.527,0.636,0,1c-1.136,2.544-5.364,3.161-6,0c-0.225,0.809-0.563,0.78-1,0
			c-0.479,1.696-0.788,2.565-2,1c-6.163-0.224-10.876,3.557-14.137,11.345c-1.001,0.733-1.964,0.659-2.851-0.288
			c-1.024,0.054-1.33-0.954-0.917-3.022c-2.323-2.213,1.633-4.536,3.966-4.44l-0.374-2.194c1.806-0.958,0.412-3.666-1.515-2.745
			c-0.983,0.47-1.812,0.072-2.436-0.867c-1.338-0.896-1.824-2.526-1.458-4.889c-1.567-2.582-1.692-4.555-0.376-5.917
			c2.071-2.641,3.047-1.02,3.728,1.754c1.71,2.72,2.833,3.141,3.37,1.261c-0.737-2.563,0.041-2.737,2-1
			c1.959,0.372,2.526,1.45,2,3.407c-2.268,5.568,1.434,5.586,5,1.593c-1.455-1.62-2.372-3.851,0-5
			c1.337,0.993,1.398-0.173,0.181-3.497C57.533,42.544,57.472,41.376,56,41c-2.532,0.975-2.95,0.553-2-2l1.202-1.821
			C56.465,37.62,57.086,37.592,57,36c-0.039-2.032,1.145-2.039,2.69-1.108c-1.837-2.511-1.718-4.14,0.357-4.885
			c-1.191-1.815-1.199-3.361,0.218-5.079c-0.239-1.266,1.372-1.802,1.677-2.646c1.601-1.045,3.599-1.727,5.058-0.06
			c0.336-0.907,0.728-0.935,1.176-0.079c1.298-2.052,5.733-2.278,7.9-0.908c0.174-0.88,0.456-0.861,0.84-0.005
			C78.399,20.145,80.427,19.735,83,20C84.595,19.121,87.41,18.876,89,20z"/>
		<path style="fill:#4B4B4B;" d="M108,95c1.96,2.169,3.627,4.502,5,7c-1.171,2.678-4.358,1.717-7.07,2.417
			c-3.353,0.866-6.336,1.55-9.066-0.326c-1.558,1.267-2.066,0.583-0.864-1.092c-1.697,0.429-1.697-0.905,0-4
			c-1.64-1.923-1.471-2.437,1-3l0.741-3.202C97.107,91.946,98.193,91.014,101,90c-0.303-0.97,0.03-1.303,1-1
			C104.51,89.817,106.51,91.817,108,95z"/>
		<path style="fill:#1D1D1D;" d="M46,105c1.086,2.726,1.419,5.393,1,8c-1.959,0.68-15.85,4.173-17,0c0.817-1.077,2.15-2.077,4-3
			c-0.756-3.156,7.745-7.249,10-5C45.065,103.496,45.679,103.04,46,105z"/>
		<path style="fill:#313131;" d="M12,73c1.283-0.248,1.283,1.085,0,4c3.584,0.427,1.907,9.451-1.696,8
			c-0.397,2.909-1.068,4.189-2.013,3.837c-2.214-1.365-4.875-4.08-6.556-6.914C3.461,80.06,10.642,71.933,12,73z"/>
		<path style="fill:#1C1C1C;" d="M25,95l1.211-0.046C26.421,98.634,26.684,99.649,27,98c3.409-0.926,4.34,3.055,1,4
			c-0.438,2.529-0.622,5.129-0.554,7.801l-1.42-0.914c-3.499-3.426-6.782-7.084-9.874-10.879c-1.598-0.583-1.058-1.335,1.621-2.256
			l0.367-1.303C20.499,94.665,22.786,94.848,25,95z"/>
		<path style="fill:#2B2B2B;" d="M79,102c0.245-0.911,0.58-0.89,1,0c1.177-2.132,3.488-0.657,4.144,1.241
			c2.345-0.367,1.522,2.905,0.856,4.759l-13,2c-2.656-0.319-2.541-1.239,0-2l0.518-2.486C71.431,101.344,73.592,100.173,79,102z"/>
		<path style="fill:#363636;" d="M39.902,45.984c1.958,3.646,3.498,6.826,1.833,10.806l-0.803-0.081
			C39.929,59.452,36.321,58.763,36,56c-1.888-1.006-3.555-1.006-5,0c0.943,2.466,0.601,2.839-1.919,2.081L25,61
			c1.272,1.546,0.705,2.079-1,1c-0.643,0.727-1.194,0.662-1.651-0.194c2.376-3.312,5.357-6.215,8.875-8.781
			C34.02,50.985,35.451,45.741,39.902,45.984z"/>
		<path style="fill:#333333;" d="M87,11c0.935,1.763,3.85,3.434,3.832,6c0.88,1.306-0.437,2.6-1.832,3
			c-0.969,0.686-2.034,1.644-3.483,1.612C84.679,21.593,84.072,20.248,83,20c-3.007,1.291-4.725-1.47-3-4
			c-0.873-0.284-0.86-0.618,0-1c-0.944-2.339,1.798-5.135,4.113-3.861C85.226,8.497,85.494,8.699,87,11z"/>
		<path style="fill:#BBBBBB;" d="M105,77c0.873,0.284,0.86,0.618,0,1c-1.477,0-2.989-0.333-4.874,0.295
			c-1.17,4.292,1.78,11.062,6.715,11.404C111.174,90,115.166,87.284,119,87c-0.352,0.559-0.439,1.554-1,2l-1.063,2.01
			c-4.034,0.092-7.013,1.422-8.937,3.99c-2.217-1.711-4.292-3.785-6-6c-3.267,1.073-7.677-5.613-5-8c1.718,0.031,1.385-0.969-1-3
			l-3-4c-1.365,1.48-1.964,0.827-1-1c-0.46-0.222-0.836-0.465-0.918-0.784c-1.399-5.429,5.736-0.65,7.322,1.867
			C101.413,74.632,103.611,75.604,105,77z"/>
		<path style="fill:#1A1A1A;" d="M84.113,11.139C83.007,12.676,81.727,14.166,80,15c-1.988,2.385-5.02,2.434-3.887-1.113
			c-2.846,0.118-4.97-1.049-2.31-3.53C75.287,8.9,76.04,6.947,78,6C81.49,2.717,86.925,8.21,84.113,11.139z"/>
		<path style="fill:#393939;" d="M118,89c-0.275,2.741-0.875,5.941-2.874,8c-2.901,1.415-5.49,1.401-7.126-2
			c-0.317-1.42-0.729-2.481-2.074-3.734C110.556,90.841,114.015,88.847,118,89z"/>
		<path style="fill:#151515;" d="M72,108v2c-2.734,0.421-5.428,0.751-8.189,0.811c-2.868,0.003-2.576-2.315,0.189-2.811
			c-1.684-1.859-1.684-3.192,0-4c1.664-2.331,4.681-3.227,9.05-2.687C72.717,103.523,72.367,105.752,72,108z"/>
		<path style="fill:#151515;" d="M100,33c0.668,1.138,1.436,2.575,0,3c1.269,1.506,0.716,2.059-1,1
			c0.407,2.566-1.097,3.305-4.511,2.215C95.128,37.744,94.965,36.006,94,34c-2.992,0.059-3.075-2.455-1-4
			c-2.439-2.005,0.938-4.344,3.134-4.126C97.695,27.988,99.124,30.63,100,33z"/>
		<path style="fill:#B2B2B2;" d="M27,83c1.385,3.863-7.176,6.634-10.638,6.919c-1.028,2.427-4.3,3.71-6.031,1.228
			c-0.326-0.697-1.5-1.751-2.039-2.31c0.538-1.453,1.122-2.536,2.013-3.837l1.295,0.67c3.078-2.954,5.596-3.477,7.552-1.568
			c1.166,1.107-1.295,1.812,0.284,0.668C21.386,83.359,25.255,80.957,27,83z"/>
		<path style="fill:#151515;" d="M102,36c2.326,4.352,5.959,8.142,7,13c-0.842,0.07-1.568-0.289-2-1
			c-3.152-2.626-6.214-5.48-9.186-8.563C97.735,38.536,98.131,37.723,99,37c0.413-0.196,0.649-0.723,1-1
			C99.942,33.964,100.845,34.58,102,36z"/>
		<path style="fill:#484848;" d="M87,11c-0.96,0.093-1.923,0.151-2.887,0.139C84.401,7.789,80.737,6.994,78,6
			c1.544-0.746,2.112-3.175,3.995-4.407C85.305,4.149,85.48,8.135,87,11z"/>
		<path style="fill:#2A2A2A;" d="M64,108l-0.189,2.811c-3.03,0.066-6.453,2.83-8.806,0.097c0.688-0.605,0.725-2.192,2.23-2.329
			c0.718-0.065,1.431,0.087,1.9-0.098c0.604-0.237,0.563-1.227,0.865-1.481C62.603,104.951,63.398,104.571,64,108z"/>
		<path style="fill:#1E1E1E;" d="M16.362,89.919C18.932,87.876,20.249,90.969,17,92c4.52,3.14,0.349,5.616-3.155,3.992
			c-1.098-1.633-2.702-3.105-3.514-4.845C12.438,90.966,14.143,89.259,16.362,89.919z"/>
		<path style="fill:#171717;" d="M95,23.992c0.459,2.431-2.917,5.335-5,3.008c-1.752-2.447-0.953-5.272,1.307-7.114
			C93.506,19.777,94.351,22.166,95,23.992z"/>
		<path style="fill:#373737;" d="M110,51c2.008,0.901,2.483,3.137,3.808,5.558c0.257,0.47-1.24,0.568-1.808,0.442
			c-1.058-0.33-2.004-0.418-3-1c-3.608-0.401-4.274-1.401-2-3c-2.193-1.6-1.619-2.377,1-1.622L110,51z"/>
		<path style="fill:#BCBCBC;" d="M92.053,103.094c2.501,0.988,3.484,2.221,2.947,3.701c-1.207,0.3-2.936-0.437-4.081,0.144
			c-1.896-0.322-3.535,0.031-4.919,1.06c-0.306-0.052-0.694-0.047-1,0c0.051-1.632,0.018-3.334-0.856-4.759
			c-0.34-0.923-0.018-1.384,0.966-1.381C86.478,99.775,91.702,100.487,92.053,103.094z"/>
		<path style="fill:#979797;" d="M76.113,13.887C75.598,15.257,75.894,16.961,77,19c2.795,0.253,2.56,1.637-0.084,2.231l-0.84,0.005
			c-2.589,0.551-4.393-0.334-4.133-3.136c-0.915-0.723-1.193-2.147-0.835-4.274c-0.406-2.065,1.643-2.436,2.696-3.47
			C72.854,11.728,75.252,12.797,76.113,13.887z"/>
		<path style="fill:#343434;" d="M59.69,34.892C59.264,35.78,57.797,35.83,57,36c-1.243,2.021-2.175,1.622-2-0.777
			c-2.294-0.031-3.71-0.214-2.934-2.908c0.319-0.443,1.178-1.006,1.262-1.533c0.818-1.19,2.011-0.871,3.578,0.956
			C58.352,30.425,59.281,31.476,59.69,34.892z"/>
		<path style="fill:#858585;" d="M25,94c0.873,0.284,0.86,0.618,0,1c-1.756,0.869-9.191,0.95-8.848,3.008
			c-0.618-0.758-1.686-1.092-2.307-2.016c1.034,0.084,2.566,0.261,3.683-0.908C18.127,94.457,17.203,93.089,17,92
			C19.478,91.085,23.762,91.418,25,94z"/>
		<path style="fill:#A5A5A5;" d="M56.562,28.144c0.436,0.311,1.421-0.05,2.954-1.083l0.532,2.947
			c-0.43,1.486,0.348,3.417-0.357,4.885c-1.881-1.808-3.763-3.529-6.362-4.11C53.606,29.05,55.631,29.05,56.562,28.144z"/>
		<path style="fill:#383838;" d="M45,48c1.16-1.011,1.834-0.535,2,1c0.697,0.731,1.743,3.648,0.059,3.819
			c-3.368,0.342-2.232-5.458-7.157-6.835c-0.09-1.74,0.905-2.961,2.093-3.861c2.467-2.049,3.317-0.521,2.551,4.585L45,48z"/>
		<path style="fill:#1F1F1F;" d="M66.822,18.115c2.024-0.397,2.084,0.972,0.178,4.108c-1.392,0.884-4.008,1.608-5.058,0.06
			C62.754,20.04,64.961,18.993,66.822,18.115z"/>
		<path style="fill:#4D4D4D;" d="M21,67c0.664,2.711-0.569,3.458-3,2l-4.85,3.916L12,72c2.011-2.896,4.563-5.729,7.937-6.913
			C22.308,64.739,22.267,65.004,21,67z"/>
		<path style="fill:#484848;" d="M60.265,24.929c1.889,1.17,0.246,3.475-0.218,5.079c-0.893-0.285-0.9-1.375-1.556-2.011
			l-0.72,2.998c-0.19,0.79-2.361-0.273-1.969-1.151l0.759-1.7C57.729,27.009,58.1,24.78,60.265,24.929z"/>
		<path style="fill:#424242;" d="M53.043,38c2.048,2.724,1.435,4.76-1.196,2.469C50.004,41.393,49.388,40.903,50,39
			c-2.222-0.013-1.872-2.22-1-4c0.382-0.715,0.999-1.168,1.79-1.441C52.402,33.683,53.153,35.164,53.043,38z"/>
		<path style="fill:#353535;" d="M96,103c0.309,0.316,0.493,0.837,0.864,1.092c0.192,0.566,0.66,1.481,0.103,2.072
			c-0.429,0.455-1.381,0.486-1.966,0.631c-1.094-1.088-4.446-1.885-2.947-3.701C94.461,101.557,95.776,101.525,96,103z"/>
		<path style="fill:#444444;" d="M121,78c-0.52-2.124-0.187-4.458,1-7c2.466,1.759,2.593,4.953,0.616,7.924
			C121.977,78.781,121.548,78.218,121,78z"/>
		<path style="fill:#878787;" d="M70.021,15.021l1.922,3.079c0.841,1.579-0.415,2.927-3.767,4.044
			c-0.362-0.092-0.805,0.134-1.176,0.079l-0.178-4.108C67.849,17.537,67.784,14.453,70.021,15.021z"/>
		<path style="fill:#A1A1A1;" d="M18,69c2.002,2.396-3.33,8.388-6,8v-4v-1L18,69z"/>
		<path style="fill:#A5A5A5;" d="M45,41l1.233-0.666C51.287,39.559,53.876,40.781,54,44c2.956-0.515,3.208,1.016,1,3
			c-1.61,1.585-3.723,0.389-5-1c-2.677-0.961-3.674-0.709-2.99,0.756L45,48c-2.447-0.685,0.827-7.401-3.005-5.877
			C42.468,41.535,43.49,40.546,44,40C44.873,39.562,45.174,39.941,45,41z"/>
		<path style="fill:#222222;" d="M71.943,18.1c-0.806-0.236-2.256,0.402-2.913-0.599c-0.518-0.79,0.681-1.796,0.991-2.48
			c0.331-0.425,0.695-0.824,1.087-1.194c1.169-0.649,1.689,0.813,1.589,1.62C72.591,16.306,72.46,17.363,71.943,18.1z"/>
		<path style="fill:#292929;" d="M90.919,106.94c-1.549,0.786-3.109,1.366-4.919,1.06c0.015-1.127-0.172-2.24,0.327-3.78
			C88.195,104.922,89.55,105.915,90.919,106.94z"/>
		<path style="fill:#898989;" d="M28.781,111.516c-1.413-0.29-1.874-1.766-2.755-2.629c1.811,1.431,0.088-7.839,1.974-6.887
			C30.74,103.061,31.832,110.401,28.781,111.516z"/>
		<path style="fill:#808080;" d="M96.134,25.874C94.442,26.66,92.974,28.039,93,30c-2.157,2.137-5.162-0.739-3-3
			c2.181,0.187,4.286-0.885,5-3.008C95.42,24.447,95.765,25.374,96.134,25.874z"/>
		<path style="fill:#A6A6A6;" d="M55,35.223c0.069,1.3-0.583,2.226-1.957,2.777c-1.166-1.219-2.21-2.716-2.253-4.441
			c0.426-0.203,0.99-0.847,1.276-1.244L55,35.223z"/>
		<path style="fill:#C4C4C4;" d="M115.126,97c-0.077,0.306,0.093,0.71-0.024,1c-0.793,0.847-1.249,1.779-1.102,3
			c-0.142,0.433-0.828,0.606-1,1c-2.118-1.801-4.382-4.228-5-7C110.105,96.624,112.366,97.576,115.126,97z"/>
		<path style="fill:#B6B6B6;" d="M122,71c0.259,2.415-0.95,4.616-1,7c-0.275-0.109-0.697,0-1,0c-2.656-0.319-2.541-1.239,0-2
			c0.661-2.283,1.249-4.614,1-7C121.248,69.668,122.03,70.181,122,71z"/>
		<path style="fill:#808080;" d="M48,113c-0.296-0.021-0.722-0.097-1,0c-0.414-2.716-0.993-5.272-1-8
			C47.893,107.039,47.718,110.328,48,113z"/>
		<path style="fill:#797979;" d="M46.924,39.01C48.391,41.523,47.631,42.16,45,41c-0.321-0.345-0.655-0.679-1-1
			c0.999-1.346,2.335-3.355,4-4C49.156,37.323,48.86,39.057,46.924,39.01z"/>
		<path style="fill:#A1A1A1;" d="M24,62c4.141-0.241,5.807,0.759,5,3c-0.663,2.85-7.316,1.644-9.063,0.087
			c0.096-1.564,1.639-2.204,2.412-3.281C22.906,61.797,23.459,61.868,24,62z"/>
		<path style="fill:#414141;" d="M115.102,98c-0.397,0.99-0.77,1.987-1.102,3c-1.151-0.658-2.203-1.396-3.088-2.793
			C112.768,97.757,113.883,98.095,115.102,98z"/>
		<path style="fill:#7C7C7C;" d="M34,110c-0.662,1.682-2.426,2.344-4,3c-0.128-0.463-0.933-1.118-1.219-1.484
			C28.762,108.487,31.851,108.03,34,110z"/>
		<path style="fill:#747474;" d="M91.307,19.886L89,20c0.413-1.111,0.931-2.205,1.832-3c0.303,0.341,1.148,0.644,1.115,1.285
			C91.92,18.793,91.711,19.556,91.307,19.886z"/>
		<path style="fill:#BABABA;" d="M50,39c-0.032,2.608-2.475,2.583-3.076,0.01C47.533,38.112,47.868,37.073,48,36
			c0.277-0.212,0.834-0.688,1-1C48.978,36.402,49.229,37.81,50,39z"/>
		<path style="fill:#757575;" d="M102,36h-2v-3C101.163,33.485,101.452,34.974,102,36z"/>
		<path style="fill:#232323;" d="M58,88c1.985-2.247,4.333-0.78,4,2c2.135,0.981,4.212,2.126,6.232,3.433
			c3.869,0.681,5.413,1.89,4.634,3.627c1.2,0.677,1.117,4.191-0.267,4.881c-0.356,0.177-6.971-0.588-7.599-0.941
			c-5.652-4.013-11.612-7.651-17-12c-1.782,0.028-2.782-0.972-3-3c-2.951,0.435-3.157-1.078-0.871-2.95
			c-0.857-0.366-0.788-0.7,0.136-1.005c2.817,0.287,5.534,1.201,8.151,2.743C54.183,85.122,56.044,86.193,58,88z"/>
		<path style="fill:#999999;" d="M79,102c-1.822,0.062-3.658-0.205-5.966,0.094c-0.141,2.365,0.438,4.49-1.034,5.906
			c-0.043-1.813,0.151-3.659-0.051-5.807c-3.336-0.918-5.794,0.05-7.949,1.807c0.134-1.058,0.447-2.085,1-3
			c2.44-0.237,5.117,0.491,7.705-0.253c0.67-0.916,0.293-2.899,0.161-3.687c0.572-1.984,1.308-1.725,1.47,0.346
			c1.332,1.379,2.93,2.549,4.793,3.511L79,102z"/>
		<path style="fill:#878787;" d="M48,89c-0.422-0.014-1.089-0.181-1.453,0.042c-0.493,0.302-0.588,1.026-0.585,1.886L46,105h-2
			c-0.688-0.383-1.258-0.957-1.305-1.787c-0.214-3.773-0.156-12.356,0.308-15.819L45,86C46.149,86.827,46.91,88.12,48,89z"/>
		<path style="fill:#8A8A8A;" d="M64,108c-0.535-0.257-0.928-1.724-1.499-1.704c-0.772,0.027-1.663,0.787-2.501,0.704
			c0.435-1.955,2.728-1.962,4-3V108z"/>
		<path style="fill:#545454;" d="M102,55c2.492,0.201,2.955,0.662,1.39,1.382L108,74c0.001,0.673,0.864,1.337,1,2
			c-0.463,1.417-2.742,1.632-4,1c-10.852,2.376-12.51-10.926-13-4c-1.656,2.04-1.777,1.646-1.937-0.805
			c-2.691-4.486-4.036-6.729-4.036-6.729L93,59c-2.51-2.376,1.177-5.591,4-4H102z"/>
		<path style="fill:#B4B4B4;" d="M109,56c-1.143-0.667-3.283,0.414-4.755,0.05C105.564,62.353,108,67.939,108,74l-6-19
			c0.569-2.429,2.921-2.797,5-2C107.1,54.297,107.952,55.294,109,56z"/>
		<path style="fill:#8D8D8D;" d="M109,76h11v2h-15v-1C106.452,76.682,107.213,76,109,76z"/>
		<path style="fill:#2C2C2C;" d="M69,58l7.351,0.653c-0.428,1.213-0.538,2.329-0.33,3.347c3.275-0.927,4.788,5.269,1.979,7l2,7
			c1.77,1.506,2.555,2.234,0,3c2.265,1.707,1.681,2.919-1,3c-1.036,2.355-5.691,6.258-8,4c-2.436,0.478-4.797-0.056-4-3
			c-1.828-0.555-2.494-2.222-2-5c-2.638-0.535-3.157-2.18-1-4c-1.856-4.905-1.731-10.879-1-16C64.826,58.487,67.246,57.322,69,58z"
			/>
		<path style="fill:#333333;" d="M97,55c-1.415,1.366-3.198,2.2-4,4c-2.788,2.094-4.134,3.397-5.491,6.445
			c-0.851,1.912-4.549-1.779-5.452-3.335c-1.036-0.986-1.91-2.076-2.624-3.269C80.692,55.199,82.214,51.919,84,49
			c-0.517-2.384-0.183-4.384,1-6c3.907,1.045,7.863,2.286,11.862,3.908C97.205,50.1,96.953,52.545,97,55z"/>
		<path style="fill:#323232;" d="M55.719,83.213C52.956,87.787,48.789,83.347,51,79c-0.98-0.4-1.451-2.014-1-3
			c-1.231-2.618-1.158-3.936,0.218-3.953C47.736,70.474,50.38,66.855,53,68l3-4c-0.985-2.503,1.089-6.557,4-5
			c0.585-0.425,1.385-0.632,2-1c2.168,8.715-0.119,15.281-4.728,22.906C58.475,81.635,57.957,82.404,55.719,83.213z"/>
		<path style="fill:#303030;" d="M60,59c-1.738,1.263-1.982,4.011-4,5l-3,4l-2.782,4.047c0.35,1.418-0.387,1.563-2.212,0.436
			c-6.026,0.814-7.691,0.005-4.994-2.426c4.215-1.894,4.896-13.618,16.085-13.096C60.188,57.012,60.161,58.448,60,59z"/>
		<path style="fill:#0D0D0D;" d="M90,27c0.522,1.403,2.062,1.902,3,3c0.986,1.155,0.436,2.817,1,4l1.937,5.276L91,41
			c0.989,1.49,0.322,1.823-2,1c-0.517-0.015-3.194,0.347-3.002-0.855l1.953-12.225C88.158,27.626,89.144,26.994,90,27z"/>
		<path style="fill:#131313;" d="M85,38v4c-0.356,2.054-1.023,2.721-2,2c-3.008,0.077-5.674-0.59-8-2c-2.153,0.991-1.734-3.193-1-5
			c0.017-1.414,0.633-2.682,1.847-3.804C78.712,34.619,81.763,36.22,85,38z"/>
		<path style="fill:#1B1B1B;" d="M63.239,41.638c0.137-0.945,0.422-0.882,0.837,0.066C66.693,41.535,68.543,44.879,67,47
			c1.333-0.646,1.799,0.068,1.397,2.144c0.849,0.366,1.5,0.695,1.463,0.898C69.458,52.221,60.906,51.744,59,51
			c-0.448-3.055,0.671-5.972,1-9C61.969,40.57,63.049,40.449,63.239,41.638z"/>
		<path style="fill:#0D0D0D;" d="M86,28c1.203,2.801,0.327,6.343-1,9c-2.748-0.17-8.711-2.051-6-5
			c-1.923-1.78-0.27-4.294,1.766-5.139c-0.064-1.972,1.004-2.038,2.234-0.451C84.509,23.732,86.997,25.062,86,28z"/>
		<path style="fill:#111111;" d="M105,48c-5.296-1.85-11.446-2.718-16-6c0.537-0.45,1.529-0.478,2-1
			c2.443-0.573,3.777-1.522,4.002-2.845c1.384-0.073,9.654,6.796,10.106,8.609C105.202,47.144,105.125,47.566,105,48z"/>
		<path style="fill:#323232;" d="M108,51.378c-0.401,0.404-0.719,1.115-1,1.622c-1.048,1.893-2.998,2-5,2
			c-0.351-1.112-2.728-0.611-3.569-1.404c-1.042-2.064-0.496-4.631-0.121-6.512C101.525,49.093,107.845,49.253,108,51.378z"/>
		<path style="fill:#C0C0C0;" d="M84,49l-1.694,5.309c-0.964,3.021-1.262,5.216-0.249,7.801l-1.936,1.122
			c-1.762-1.673-3.128-2.084-4.1-1.232c-2.728-4.702-0.196-1.361-7.021-4v-1l1.67-1.347c2.906,0.997,5.353,0.726,7.343-0.812
			C78.63,53.336,79.625,52.389,81,52c-1.12-1.04-0.786-1.707,1-2c-2.491-1.365-1.803-2.416,1-2C83.84,47.609,84.141,47.988,84,49z"
			/>
		<path style="fill:#2A2A2A;" d="M55,47c1.451-1.346,1.972-0.812,1,1c0.454,1.716,1.53,3.662,0,5c-1.874,2.268-4.64,1.209-5-1.593
			c-1.569-0.185-2.433-1.923-2-3.407c-2.165-1.839-1.77-2.656,1-2C51.63,44.866,53.597,45.456,55,47z"/>
		<path style="fill:#444444;" d="M56,53c0.416,0.676,1.135,1.741,0.822,2.386c-0.128,0.263-5.471,3.922-7.299,1.737
			c-0.66-0.789-1.798-2.784-1.397-4.162c0.232-0.797,2.003-1.595,2.874-1.555C52.52,51.477,54.562,52.522,56,53z"/>
		<path style="fill:#6E6E6E;" d="M82,50c-0.067,0.751-0.558,1.425-1,2l-1.337,1.139l-9.262-0.038C71.049,55.146,70.582,56.445,69,57
			c-0.32,0.058-0.691-0.098-1,0c-1.007-0.258-1.982-0.958-2-2c-1.461-1.102-3.36-1.434-5.699-0.994L59,52
			c-0.029-0.33,0.048-0.672,0-1l9.051-0.059C67.973,49.321,67.209,48.108,67,47c0.485-2.607,1.038-2.795,3-1
			c2.454,2.137,6.004,2.803,10.65,1.998L82,50z"/>
		<path style="fill:#1D1D1D;" d="M67.218,24.415c1.692,0.49,2.731,1.054,1.475,2.585c2.249-0.562,2.351,0.438,0.307,3
			c0.501,2.567-2.838,2.093-4,0c-0.652,1.246-1.255,1.041-1.903,0.084c-0.053-1.228-1.954-3.241-1.21-4.494
			C63.102,23.545,65.461,24.325,67.218,24.415z"/>
		<path style="fill:#323232;" d="M54,39c0.652,0.681,1.445,1.227,2,2c1.909,2.18,0.835,4.175-2,3
			c-0.902,0.026-2.303,0.341-2.748-0.602c-0.33-0.699,0.907-1.357,0.539-2.526c-2.015,0.044-2.156,2.553-3.795,1.819
			C46.889,42.195,45.77,41.825,45,41c0.868-0.408,1.517-1.128,1.924-1.99L50,39c0.741-0.003,1.659,1.363,2.49,0.976
			c0.752-0.35,0.525-1.466,0.554-1.976C54.472,36.705,54.969,37.265,54,39z"/>
		<path style="fill:#757575;" d="M99,37c-0.826,4.067,5.017,6.098,8,11c-0.616-0.15-1.404,0.208-2,0
			c-2.055-2.991-4.955-5.557-7.945-8.214C94.572,40.182,92.883,40.933,91,41c0.924-1.025,2.066-1.643,3.827-2.237
			C94.238,37.047,93.826,35.558,94,34c0.711,1.492,1.907,2.616,2.195,5.136C97.379,38.233,97.987,37.48,99,37z"/>
		<path style="fill:#242424;" d="M66,55c0.831,1.428,0.164,1.761-2,1c-1.477-0.716-4.103,0.891-5.667-0.319
			C57.251,54.845,58.17,52.48,59,52l7.977,0.038C66.991,53.45,66.371,54.185,66,55z"/>
		<path style="fill:#232323;" d="M83,20c0.014,1.559-1.22,2.16-2.49,2.143c-1.313-0.017-2.59-0.133-3.594-0.912L77,19
			c-1.738-2.739,0.252-4.058,3-3C81.136,17.266,81.618,19,83,20z"/>
		<path style="fill:#282828;" d="M56,48c-0.115-0.435-0.716-0.687-1-1c-0.094-1.068-0.418-2.097-1-3c1.034-0.708,1.609-1.836,2-3
			c6.042-3.609,0.9,3.125,2.027,8.022C56.9,48.791,56.641,48.089,56,48z"/>
		<path style="fill:#2C2C2C;" d="M76.076,21.236c-2.281,1.465-5.315,1.564-7.9,0.908c-0.516-1.143,0.29-2.471,1.468-2.873
			c0.616-0.21,1.645-0.238,2.299-1.171C73.669,18.606,74.839,19.998,76.076,21.236z"/>
		<path style="fill:#2D2D2D;" d="M80,23c1.644,0.231,1.685,2.281-0.105,2.365C80.199,28.194,78.768,31.316,76,29
			c-0.322,0.897-0.656,0.895-1,0c-1.872-0.539-1.841-1.872,0.093-4C76.258,23.414,78.043,23,80,23z"/>
		<path style="fill:#191919;" d="M65,30c2.977,0.94,3.349,1.979,1.115,3.115C68.285,35.285,66.272,37.119,64,35
			c-0.992,2.535-1.933,2.48-2.824-0.165c-0.578-1.942,0.977-3.366,1.921-4.751c0.147-0.255,0.496-0.433,0.9-0.801
			C64.508,28.819,64.635,29.879,65,30z"/>
		<path style="fill:#191919;" d="M86,28c-0.759-0.899-1.951-1.131-3-1.591c-1.991,0.048-2.707-2.375-1-3.409
			c2.017,0,4.124-0.55,6.242,0.485C87.451,25.703,86.846,26.951,86,28z"/>
		<path style="fill:#2D2D2D;" d="M55,35.223c0.579,0.573,1.535,0.332,2,0.777c0.617,0.591,1.655,0.826,2.384,2.36
			C57.464,39.627,55.701,38.778,54,39l-0.957-1c0.038-0.686-0.127-1.447,0.075-2.387C53.283,34.849,54.268,35.041,55,35.223z"/>
		<path style="fill:#A5A5A5;" d="M64,74c-1.841,1.206-1.84-0.511-1.616-2.04c0.06-0.412,1.078,5.954-1.344,7.622L65,78
			c0.685,1.48,2.135,3.106,2,5c-1.733,2.078-9.753,2.677-11.281,0.213l6-13.354C63.394,66.13,61.585,61.684,62,58
			c0.22-0.115,0.749-0.067,1,0C62.799,63.366,63.023,68.703,64,74z"/>
		<path style="fill:#8C8C8C;" d="M64,35c2.312,1.64,0.681,4.758-0.761,6.638C62.173,41.859,61.088,41.971,60,42
			c0.036-0.327-0.008-0.67,0-1c1.387-1.393,1.566-3.093,1-5c0.082-0.315,0.268-0.857,0.176-1.165L64,35z"/>
		<path style="fill:#494949;" d="M71.774,25.113C73.811,24.715,73.761,26.037,72,27c-1.098,0.668-2.752,1.196-3.307,0
			c-0.707-0.723-1.248-1.595-1.475-2.585C68.756,24.493,70.391,24.189,71.774,25.113z"/>
		<path style="fill:#2B2B2B;" d="M75.093,25c-0.401,2.157-1.125,3.526-3.093,2l-0.226-1.887c0.505-0.716,1.085-1.718,1.76-1.886
			C74.917,22.882,75.113,24.101,75.093,25z"/>
		<path style="fill:#C3C3C3;" d="M85,43c0,1.965-0.39,4.088-1,6c-0.368-0.297-0.703-0.632-1-1c-2.118-1.174-1.863-1.72,0-3
			c-0.873-0.284-0.86-0.618,0-1l2-2V43z"/>
		<path style="fill:#828282;" d="M79,32c-0.138,0.871-0.358,2.443,0.986,2.919C81.959,35.617,83.602,36.086,85,37v1
			c-5.566-0.76-6.753-5.884-11-1c-1.429,0.32-1.698-0.662-2-2c0.078-2.036,0.771-5.374,3-6c0.291-0.082,0.743,0.143,1,0
			C77.271,29.86,78.271,30.86,79,32z"/>
		<path style="fill:#1F1F1F;" d="M60,41c0.042-1.716,0.571-3.351,1-5c1.257,0.169,0.947,1.679,1.075,2.491
			C62.334,40.128,61.79,41.494,60,41z"/>
		<path style="fill:#8B8B8B;" d="M82,23c0.191,1.174,0.543,2.312,1,3.409c-0.712,0.286-1.469,0.419-2.234,0.451
			c-1.421,0.975-1.712,0.477-0.871-1.496C79.753,24.608,80.077,23.77,80,23H82z"/>
		<path style="fill:#2F2F2F;" d="M68,57c-1.584,0.503-2.746-0.364-4-1c0.8,0.023,1.682-0.19,2-1C67.139,54.985,68.031,55.858,68,57z
			"/>
		<path style="fill:#383838;" d="M97,96c0.044,1.095-0.22,2.203-1,3c-0.187,2.978-1.27,3.421-3.947,4.094
			c-2.208,0.053-4.902-0.15-6.943-1.234c-3.03,0.748-6.074-2.392-3.969-4.861l1.482-5.739c4.063,0.42,8.147,0.455,12.252,0.104
			C97.974,89.694,98.656,92.872,97,96z"/>
		<path style="fill:#313131;" d="M91,78c1.387-1.889,4.554-0.162,5,2c1.53-1.31,2.096-0.745,1,1c1.078,2.883,3.097,5.532,5,8
			c-0.348,0.317-0.702,0.634-1,1c-2.981,2.817-3.888,3.234-6.072-0.521C91.001,86.311,88.025,82.818,86,79
			C83.539,75.219,89.215,74.656,91,78z"/>
		<path style="fill:#AEAEAE;" d="M86,79c3.219,4.202,7.272,7.764,11.355,11.695c0.903,0.723,2.893-0.746,3.645-0.695
			c-1.526,1.873-2.795,3.907-4,6c-0.006-1.155,0.223-2.275-0.163-4.011l-13.567,0.108c-1.096,1.809-0.71,3.882-2.129,4.904
			c-3.505-0.552-2.222-6.128,0.858-7l1.708-1.409c0.678,0.617,6.927,0.749,6.789,0.436c-0.544-1.231-7.209-8.277-9.271-8.062L80,79
			c0.211-0.911-0.012-2.062,0-3C80.998,73.119,86.835,76.19,86,79z"/>
		<path style="fill:#BDBDBD;" d="M96,103l-3.947,0.094c1.2-1.453,3.404-2.076,3.947-4.094V103z"/>
		<path style="fill:#181818;" d="M44.129,83.05c0.036,1.042,0.35,2.051,0.871,2.95l0.032,15.069
			c0.003,1.636-0.374,2.945-1.032,3.931l-10,5c-1.585,0.792-3.535,0.943-5.219,1.516C28.744,108.309,27.763,105.19,28,102
			c0.106-1.431,0.136-2.953-1-4c-0.675-0.838-1.597-3.575,0-4c-0.302-0.686-0.602-1.646-0.135-2.065
			c1.89-1.691,13.369-10.227,15.037-10.134C42.777,81.851,43.805,82.223,44.129,83.05z"/>
		<path style="fill:#2A2A2A;" d="M24,71c2.505,2.026,3.04,3.222,1.604,3.588C26.185,78.64,24.984,81.111,22,82
			c0.758,1.343-1.49,2.577-2.848,2.102c-3.424,0.33-5.743,3.194-8.958,4.927c-0.488-1.628,0.125-2.871,0.11-4.03
			C11.84,82.758,12,79.585,12,77c1.35-3.154,4.047-5.232,6-8c0.884-0.442,1.939-1.774,3-2C24.083,66.095,25.907,68.28,24,71z"/>
		<path style="fill:#898989;" d="M27,94v4c-0.174,1.007,0.678,2.518-0.864,3.101C25.74,98.511,26.648,96.391,25,95v-1
			C25.319,91.344,26.239,91.459,27,94z"/>
		<path style="fill:#313131;" d="M77,98c1.174-2.329,1.63-1.956,1.73,0.538c2.061-0.556,3.535,2.582,1.27,3.462
			c-0.309-0.068-0.682-0.011-1,0c-0.465-1.489-2.361-0.698-4.148-1.05c-1.57-0.309-0.634-2.575-0.516-3.543
			C74.999,96.887,75.887,97.085,77,98z"/>
		<path style="fill:#BCBCBC;" d="M85.11,101.861c-0.276,0.491-0.593,0.958-0.966,1.381c-1.375-0.433-2.734-0.93-4.144-1.241
			c-0.227-1.218-0.688-2.372-1.27-3.462c-0.627-2.844,0.164-3.358,2.412-1.538C81.557,99.074,83.074,100.779,85.11,101.861z"/>
		<path style="fill:#242424;" d="M36,56c1.668,0,3.28,0.52,4.932,0.709c3.217-0.661,5.549,2.697,5.129,5.887
			c-0.049,2.273-2.816,2.753-3.966,4.44C40.777,67.979,39.517,68.881,39,67l-5-1l-5-1c-1.236-1.877-5.001,0.167-5-3
			c0.272-0.343,0.817-0.588,1-1l4.081-2.919C29.525,57.255,30.312,56.605,31,56C32.271,54.52,34.393,55.358,36,56z"/>
		<path style="fill:#282828;" d="M46.06,62.596c-2.502-1.209-3.059-4.192-5.129-5.887c0.265,0.03,0.54,0.034,0.803,0.081
			c2.077,0.377,0.99-2.67,1.489-4.622c2.08,1.666,6.571,6.352,5.08,8.523C47.851,61.351,46.874,62.011,46.06,62.596z"/>
		<path style="fill:#A5A5A5;" d="M36,56h-5c0.303-1.215,1.137-1.98,2.115-1.612C34.345,54.851,35.356,55.161,36,56z"/>
		<path style="fill:#1B1B1B;" d="M76.113,13.887C76.976,14.981,78.78,14.89,80,15v1c-1.103,0.893-2.147,1.862-3,3
			c-1.769,0.231-2.79-1.027-3.017-2.497C73.696,14.651,74.196,13.576,76.113,13.887z"/>
		<path style="fill:#C4C4C4;" d="M92,73c0.397,0.201,0.601,0.836,1,1c0.983,0.994,1.533,1.7,0,2c1.062,1.72-0.849,1.681-2.152,0.795
			c-3.895,1.442-4.463-3.704-0.785-4.6C90.628,72.592,91.39,72.692,92,73z"/>
		<path style="fill:#5B5B5B;" d="M97,81c-0.156-0.417-0.687-0.71-1-1c-1.433-1.497-1.433-2.163,0-2
			c0.832,0.003,1.767-0.034,2.389,0.18c1.087,0.375,0.51,1.578,0.637,3.298C98.412,82.426,97.745,81.14,97,81z"/>
		<path style="fill:#646464;" d="M96,78c-0.643,1.046-3.684-0.593-3-2v-2C94.678,74.691,95.913,76.152,96,78z"/>
		<path style="fill:#1B1B1B;" d="M44.265,82.045c-0.008,0.334-0.148,0.672-0.136,1.005C43.248,80.757,29.498,93.676,27,94h-2
			c-2.89,0-5.889,0.166-8-2c-0.117-0.631,0.33-2.099-0.638-2.081C18.846,86.104,24.033,86.186,27,83
			c7.777-3.867,11.666-5.801,11.666-5.801l0.442,1.342C41.595,79.265,43.314,80.433,44.265,82.045z"/>
		<path style="fill:#353535;" d="M26,81c1.316-0.969,1.797-0.404,1,1c0.873,0.284,0.86,0.618,0,1
			c-3.123-0.075-5.609,1.832-8.823,3.073c-0.299-1.097,0.853-1.35,0.975-1.971C20.15,83.546,20.915,82.404,22,82
			C24.262,80.12,25.595,79.786,26,81z"/>
		<path style="fill:#989898;" d="M29.081,58.081C28.232,59.664,26.891,61.004,25,61C25.748,59.318,27.14,57.889,29.081,58.081z"/>
		<path style="fill:#222222;" d="M29,65l5,1l5,1c2.201,0.644,0.559,2.073-1,3c2.02,2.245-0.689,5.542-3,3
			c-0.466,1.247-1.984,1.408-4.553,0.483C26.862,74.157,24.713,73.329,24,71c-0.575-1.569-2.009-2.728-3-4
			c-0.431-0.553-0.976-1.187-1.063-1.913l3.046-0.741C25.005,63.854,27.098,65.392,29,65z"/>
		<path style="fill:#272727;" d="M50,46c-0.52,0.491-0.791,1.284-1,2c-0.669,0.313-1.293,0.771-2,1c-0.832,0.27-1.874-0.066-2-1
			l0.038-4.859C47.771,42.231,49.485,44.126,50,46z"/>
		<path style="fill:#4D4D4D;" d="M67,83c1.358,0.987,3.143,1.488,4,3c-0.466,1.864-0.694,2.678-2,1l-4,3
			c0.275,1.544-0.725,1.544-3,0c-1.318-0.244-2.776-1.621-4-2c-5.088-2.318-5.849-3.914-2.281-4.787
			C58.413,82.727,65.107,81.624,67,83z"/>
		<path style="fill:#C0C0C0;" d="M50.218,72.047C49.868,73.15,50.056,74.869,50,76c-0.284,0.873-0.618,0.86-1,0
			c-1.835-0.827-4.26-1.835-6.095-0.609c-2.787,1.862,4.883,5,6.987,3.609c0.318-0.874,0.688-0.86,1.108,0
			c-0.172,1.395-0.205,3.05,0.916,4.407c1.058,1.281,2.441,0.051,3.803-0.194l-0.699,0.862c-0.957,1.18,2.73,3.14,2.98,3.925
			c-4.801-1.485-9.135-4.028-13.735-5.955c-3.919-1.643-6.63-5.37-11.511-0.83C31.647,82.245,28.643,83.039,27,83v-1
			c-0.089-0.481-0.136-0.953-0.037-1.392c0.19-0.832,6.53-3.603,8.037-3.608l4.355-5.894c1.553-1.49,2.772-1.84,3.657-1.048
			c0.131,0.345-0.144,1.541,0.225,1.657C45.552,72.438,48.131,71.801,50.218,72.047z"/>
		<path style="fill:#BABABA;" d="M77,98c-0.837-0.177-1.913,0.022-2.664-0.593c-0.417-0.342-0.936-0.518-1.47-0.346
			C69.744,94.08,64.487,93.596,62,90h3c3.638,0.834,5.021,0.633,4.149-0.602C69.357,88.161,69.974,87.362,71,87
			c2.513-0.503,3.925,1.364,4.237,5.6C77.265,94.576,77.853,96.376,77,98z"/>
		<path style="fill:#B5B5B5;" d="M93,59c-1.048,2.351-3.732,3.517-5.305,6.179c2.253,2.28,3.602,4.494,2.368,7.016
			c-3.595,2.157-10.969-7.084-8.006-10.085c1.244,0.401,2.934,2.686,4.495,1.614C88.965,62.067,90.44,59.648,93,59z"/>
		<path style="fill:#424242;" d="M82.057,62.11c1.512,3.859,4.593,7.684,8.006,10.085c0.453,1.44-1.702,4.43,0.785,4.6
			c1.905-0.426,2,0.367,0.152,1.205c-1.713-0.011-4.059-1.017-5,1l-6-3l-2-7c-0.385-1.977-1.03-5.364-1.979-7
			c0.058-0.453-0.161-1.138-0.003-1.499C77.01,58.227,81.753,62.012,82.057,62.11z"/>
		<path style="fill:#434343;" d="M79,82c0.912,0.101,0.858,0.448,0,1l3,7c-0.064,2.437-1.354,4.521-0.858,7
			c-0.758,0.546-1.836,0.696-2.412,1.538C78.193,98.732,77.446,98.094,77,98c-6.55-6.563-2.352-6.405-6-11
			c-0.659-0.294-0.645-0.628,0-1C73.98,84.877,75.649,81.553,79,82z"/>
		<path style="fill:#484848;" d="M82,90l-3-7c-0.032-0.328,0.013-0.67,0-1c-0.044-1.104,0.767-1.997,1-3
			c1.135,0.064,3.077-0.439,4.212,0.716l10.824,11.006C90.864,90.771,85.858,92.088,82,90z"/>
		<path style="fill:#393939;" d="M64,74c0.215,1.168,1.298,2.58,1,4c0.04,0.719,0.267,1.661-0.13,2.341
			c-0.259,0.444-7.844,2.784-7.239,0.871c2.356-3.704,3.856-6.788,4.817-10.281C63.32,72.362,63.131,73.412,64,74z"/>
		<path style="fill:#ADADAD;" d="M80,76c-2.37-1.185-1.567-4.777-2-7C79.832,70.755,80.031,73.553,80,76z"/>
		<path style="fill:#7A7A7A;" d="M51,79h-1.108c-3.175,0.385-3.689-1.431-0.892-3h1C50.638,76.857,51.145,77.823,51,79z"/>
		<path style="fill:#A6A6A6;" d="M53,68c0.358-1.964,1.179-3.108,3-4C56.004,65.877,54.68,67.306,53,68z"/>
		<path style="fill:#5D5D5D;" d="M83,44v1c-1.258,2.702-8.777,1.302-8-2c-0.873-0.284-0.86-0.618,0-1
			C77.613,42.913,80.51,42.716,83,44z"/>
		<path style="fill:#969696;" d="M75,42v1c-0.441,2.578-1.107,2.454-2,0c-3.467-0.424-2.809-6.716,1-6
			C73.9,38.743,73.615,40.71,75,42z"/>
		<path style="fill:#0D0D0D;" d="M72,35c0.692,0,1.62-0.225,1.904,0.566c0.169,0.47,0.12,1.005,0.096,1.434
			c-1.474,1.694-1.084,3.777-1,6c1.836,2.342-0.455,4.751-3,3c-0.956,0.473-1.921,0.897-3,1c-1.418-1.476-2.416-3.288-2.924-5.297
			c-0.669-3.726,3.3-8.24,6.924-6.703C71.284,34.127,71.618,34.14,72,35z"/>
		<path style="fill:#1F1F1F;" d="M70,33c2.568-1.112,3.046,0.174,1,2c-2.602,1.846-4.999,4.158-6.924,6.703
			c-0.272-0.091-0.554-0.125-0.837-0.066C62.954,39.385,62.652,36.947,64,35c0.987-0.307,1.499-1.157,2.115-1.885
			C65.775,30.526,68.798,30.929,70,33z"/>
		<path style="fill:#1B1B1B;" d="M80.766,26.861C80.228,28.662,80.604,30.798,79,32c-0.711,0.533-0.66,1.777-2.397,2.352
			C75.404,32.477,76.213,30.696,76,29c1.562-0.87,3.286-1.886,3.895-3.635C79.993,25.891,80.624,26.332,80.766,26.861z"/>
		<path style="fill:#1D1D1D;" d="M81,52c0.134,3.585-2.904,6.572-6.992,6.135C71.981,57.919,70.294,57.936,69,57
			c0-1.718-1.215-3.349-0.617-5.531C69.176,50.775,83.043,50.485,81,52z"/>
		<path style="fill:#121212;" d="M75,43c2.518,1.214,5.373,1.132,8,2c0.765,0.778,0.445,2.087,0,3c-0.331,0.68-0.926,1.173-1,2
			l-13.004-0.018C68.831,48.192,69.929,47.264,70,46c1.306-0.647,1.857-2.078,3-3C73.586,43.183,74.453,42.736,75,43z"/>
		<path style="fill:#8A8A8A;" d="M75,29c-1.284,1.474-4.409,1.309-6,1l-0.307-3c1.131-0.959,2.183-0.353,3.307,0
			c1.161,0.365,2.504-1.199,3.093-2L75,29z"/>
		<path style="fill:#828282;" d="M69,30c2.647-0.049,2.667,1.014,1,3c-1.261-0.399-2.872-1.079-3.885,0.115
			C65.885,32.031,65.547,30.968,65,30C66.221,30.404,67.977,31.057,69,30z"/>
		<path style="fill:#CBCBCB;" d="M93,76l3,2v2c-1.445-1.342-3.087-1.987-5-2l-0.152-1.205L93,76z"/>
		<path style="fill:#A6A6A6;" d="M35,73c2.957-0.03,2.675,3.249,0,4c-2.201-0.445-4.422-0.835-6.663-1.169
			C28.36,78.45,27.581,80.173,26,81c-1.315,0.324-2.727,0.526-4,1c3.95-2.538,3.516-6.865,2-11C26.822,73.951,31.126,72.892,35,73z"
			/>
		<path style="fill:#AAAAAA;" d="M42.094,67.035C43.27,69.073,39.523,72.639,38,70c0.452-0.899,1.171-1.931,1-3
			C39.852,66.728,41.256,67.077,42.094,67.035z"/>
		<path style="fill:#AAAAAA;" d="M34,66c-1.625-0.633-3.766,0.874-5-1C30.93,64.603,32.442,65.037,34,66z"/>
		<path style="fill:#ADADAD;" d="M39,67c-1.98,0.632-3.379-0.368-5-1C35.366,66.844,38.616,64.6,39,67z"/>
		<path style="fill:#2F2F2F;" d="M43.012,70.057C39.41,71.675,38.63,79.609,35,77v-4c1.523,0.043,2.147-2.328,3-3
			c1.941-0.137,3.061-1.449,4.094-2.965c0.415-0.021,1.845-0.102,1.751,0.419C43.723,68.137,42.753,69.379,43.012,70.057z"/>
		<path style="fill:#484848;" d="M35,77c-0.948,3.285-5.02,3.996-8,5c-0.603,0.062-0.911-0.467-1-1
			c0.24-2.314-0.559-4.837,0.365-6.879C30.787,73.209,33.203,74.124,35,77z"/>
		<path style="fill:#2E2E2E;" d="M71,87c0,1.937,0.293,3.592,1.065,6.758C69.507,93.3,66.416,92.314,65,90l4-3
			c0.679-0.094,1.354-0.757,2-1V87z"/>
		<path style="fill:#A9A9A9;" d="M69,87c-0.9,1.516-2,3.419-4,3C65.504,88.223,67.258,87.24,69,87z"/>
		<path style="fill:#2B2B2B;" d="M49,76c0.017,1.607,0.323,2.397,0.892,3c-0.179,1.621,0.619,2.472-0.063,4.193
			c-3.872-2.119-7.161-4.063-10.724-5.523c1.408-3.501,3.296-5.287,6.948-4.713c1.062,0.167,2.424-0.428,2.884,0.604
			C49.239,74.238,48.97,75.261,49,76z"/>
		<path style="fill:#ABABAB;" d="M82,90c-2.239-1.212-2.786-4.799-3-7C80.912,84.739,82.069,87.394,82,90z"/>
		<path style="fill:#191919;" d="M75,29c-0.064,2.773-0.061,5.177-3,6h-1l-1-2c-0.476-0.952-0.891-1.936-1-3
			c0.811-0.838,1.372-1.967,2.58-2.02C72.896,27.921,74.012,28.345,75,29z"/>
	</g>
</g>
</svg>
