<?xml version="1.0" encoding="iso-8859-1"?>
<!-- Generator: Adobe Illustrator 30.1.0, SVG Export Plug-In . SVG Version: 9.03 Build 0)  -->
<svg version="1.1" id="Layer_1" xmlns="http://www.w3.org/2000/svg" xmlns:xlink="http://www.w3.org/1999/xlink" x="0px" y="0px"
	 viewBox="0 0 124 110" style="enable-background:new 0 0 124 110;" xml:space="preserve">
<g>
	<g>
		<path style="fill:#FBFBFB;" d="M124,23v12c-2.051-0.527-0.244,7.867-1.324,9.671c-5.87,5.939-11.674,11.564-17.698,17.325
			L83.014,83.001c-6.55,6.265-12.668,12.507-19.265,18.744c-1.247,1.179-2.166,2.428-3.749,2.255
			c-1.004-1.006-0.819-2.99,1.01-2.247c-0.92-0.833-0.937-1.335,0.294-1.619c0.415-2.142,2.001-5.001,4.562-4.092
			c-1.33-2.74,2.523-4.896,4.974-4.034c0.085-1.435,0.547-1.888,1.383-1.36c-0.036-3.652,4.088-6.624,7.596-7.451
			c-0.538-0.628-0.128-1.035,1.228-1.22c-1.345-1.439-0.79-1.982,0.929-0.927c0.223-1.088,0.627-1.497,1.213-1.228
			c0.675-3.207,3.34-7.054,6.819-5.772c0.339-2.201,1.952-3.318,3.887-4.186l-0.496-1.413c1.85-0.139,3.411-1.294,4.685-3.464
			c-1.771-0.581-1.734-1.319,0.042-1.772c0.552-2.422,4.414-5.132,6.774-5.918c-0.813-2.483-0.025-2.98,2.184-1.472
			c0.535-2.822,5.781-8,8.719-7.824c-1.061-1.753-0.454-2.304,1.197-1.092c1.531-3.059,2.53-6.668,2.998-10.827L122,35
			c-0.431-1.157-0.812-2.703-1.142-4.638c1.628-3.414,2.563-6.802-2.27-6.105L118,22c-1.405,1.325-1.92,0.767-1-1
			c-2.645-0.378-3.979-1.378-4-3h-1c-2.225-0.472-2.891-1.138-2-2c-1.464,0.462-3.514-1.467-4-3
			c-2.797,1.27-4.104,0.646-3.669-2.685c-2.446,1.39-3.896,0.48-4.176-2.244C96.387,9.205,94.336,8.181,92,5
			c-2.607-0.63-5.295-0.922-8.063-0.874c-1.431,2.016-5.247,1.681-5.898-0.887c-2.288,0.948-4.969,1.169-8.045,0.664
			c-3.373,0.016-6.78,0.113-10.222,0.291L58,3c-1.467,1.735-2.49,1.686-4,0c-1.357,0.993-1.822,0.463-1-1
			c-0.873-0.284-0.86-0.618,0-1c13.602,0.513,25.513-0.922,40.51,1.406C103.561,7.674,114.825,18.764,124,23z"/>
		<path style="fill:#F7F7F7;" d="M2,29c2.67,0.535,3.057,0.98,1,3c0.417,0.301,0.399,0.635,0,1c0.39,2.723,0.409,5.307,0.055,7.751
			c0.405,0.247,0.779,0.517,1.048,0.868c0.43,0.56,0.086,12.794-0.107,14.012L2,57c0.885,0.186,0.849,0.525,0,1l1.213,0.627
			c0.714,3.352,1.059,6.98,1.034,10.886c1.415,1.146,2.546,2.371,3.393,3.676C10.449,73.778,14.369,76.088,15,79
			c2.257-0.321,4.669,0.899,7.236,3.659l6.294,3.924l0.287,2.257c1.334-1.09,3.238-0.501,3.961,1.192
			c1.303,1.161,2.795,1.843,4.475,2.047C38.58,93.178,40.542,95.194,40,97c1.38,0.328,2.86,0.685,2.003,2.115
			c1.269-0.983,4.169,0.631,4.304,2.352l2.582-0.754c2.821,1.707,5.525,3.422,8.111,5.145c0.408-0.516,0.741-0.467,1,0.142
			c-1.038,1.077-1.764,2.562-2,4h-3c0.208-1.405-0.946-1.935-2.212-2.832L1.032,71.906L0.994,6.09C0.994,5.355,1.64,4.882,2,5
			C2.813,12.865,2.813,20.865,2,29z"/>
		<path style="fill:#EBEBEB;" d="M49,0c0.652,1.547,2.645,0.949,4,1v1c-0.785,1.562-2.727,2.064-5.827,1.507L47,5.15
			c-0.585,2.854-4.286,2.75-5.031,0.058c-1.412-1.179-2.954-1.641-4.626-1.386l-1.34-1.971C35.796,2.742,35.462,2.792,35,2
			l-2.065,0.926C33.184,5.512,32.752,7.238,30,6c-1.385-0.144-2.109-1.142-2.172-2.993C25.812,2.207,23.869,1.871,22,2
			c-1.299,2.883-2.745,2.131-3-1c-0.259,0.815-0.594,0.795-1,0C17.43,4.127,8.839,3.988,8,1C7.716,1.873,7.382,1.86,7,1
			C5.138,2.962,4.44,5.587,4.906,8.876L4,14c1.232,1.363,1.462,3.353,0.691,5.968C5.537,24.021,4.974,26.698,3,28
			c0.873,0.284,0.86,0.618,0,1c-0.246,0.862-0.582,0.839-1,0V5V0H49z"/>
		<path style="fill:#DCDCDC;" d="M61.01,101.753L60,104c-0.457,1.016-1.335,1.31-2,2c-0.307,0.04-0.709-0.234-1-0.142
			c-1.162-1.127-1.386-1.984-0.147-2.82C55.046,100.586,55.095,98.907,57,98C58.54,95.99,60.275,99.978,61.01,101.753z"/>
		<path style="fill:#C8C8C8;" d="M78.039,3.239c1.695,0.585,1.959,2.251,0.792,5c-0.183,1.863,1.187,2.458,4.111,1.786l1.252,2.138
			C86.839,13.126,87.049,14.049,85,16c-1.736,1.013-1.482,2.451,0.762,4.315l-0.59,1.606c-1.19,1.661-1.19,1.661,0,0
			c-1-2.482-0.072-2.755,1.721-0.803c2.681,2.427,6.182,2.903,10.184,1.593c-0.158-1.731-0.603-2.49-2.076-1.454
			c-0.782,2.983-4.594,2.538-4.903-0.682C90.496,19.252,90.417,18.296,89,18c-2.423-1.332-1.442-7.07,1-8
			c1.649-2.612,4.552-0.779,3,2c-1.299,1.456-0.632,1.789,2,1c2.728-0.493,5.172-1.388,7.331-2.685
			c1.224,0.931,2.524,1.65,3.669,2.685c-0.268,0.627-0.604,0.604-1,0c0.637,1.803,0.258,2.469-1.136,2
			c1.069,0.975,1.135,2.495,0.197,4.56c1.485-0.305,2.465,0.175,2.939,1.44c0.882-2.604,1.234-2.516,2,0.093
			c0.906,1.3,0.183,2.172-2.171,2.617c3.043,3.63-1.759,6.31-4.097,2.69c-0.514,0.758-0.824,0.653-0.94-0.278
			c-1.559-0.816-2.547-0.744-2.682,1.157c0.893,0.061,1.857,0.635,2.89,1.722c0.879,0.186,0.842,0.525,0,1
			c1.423,1.674,2.756,2.341,4,2c0.284-0.873,0.618-0.86,1,0c0.884,0.247,0.862,0.582,0,1c2.524,0.809,2.779,4.114,1,6
			c-1.822,1.277-3.822,1.944-6,2c-2.83-0.914-1.867-3.98,1-4c-0.425-1.041-0.081-1.412,1.031-1.111
			C101.82,34.472,99.81,33.176,98,32c-0.573,1.9-1.368,1.885-2,0c-0.573-2.031-1.628-3.217-3.164-3.56
			C93.485,30.997,92.873,32.517,91,33c-1.596,2.033-2.93,0.287-4.002-5.238c-1.946-0.229-3.874-0.466-5.785-0.712
			c-2.654-0.652-5.129,0.956-7.425,4.824c0.043,0.493,0.033,0.957-0.165,1.318c-0.928,1.696-3.465,5.841-5.224,4.727
			c1.2,2.687-0.905,5.414-3.566,6.111C66.507,46.714,65.222,49.677,62,49v-1c-2.69-0.431-2.578-2.703,0.334-6.814
			c0.322-1.691-1.288-2.767-4.83-3.227l-0.36-2.403c-3.473-3.488-7.477-6.641-12.013-9.461l-0.459-2.109
			c-2.098,1.127-3.531-2.922-1.551-3.984c0.529-2.632,1.423-2.56,2.186-0.003c1.736-0.308,3.255,0.58,4.557,2.665
			c2.366,2.929,4.455,3.371,6.267,1.327l2.146,0.663l3.624,8.036c2.101-0.318,2.842,0.71,3.639,2.392
			c2.938-3.188,3.768-7.744,2.492-13.669L70,20c0.173-2.793,1.535-2.636,2.234,0.016c0.854,0.306,0.808,0.632-0.073,0.976
			c-1.016,2.135-1.71,6.216,0.94,7.029c0.541-3.043,0.53-5.963-0.034-8.761C71.488,17.788,69.467,16.701,67,16
			c-1.786-0.726-1.966-3.131-2-5c0.621-2.2,3.328-2.19,4,0c2.059,1.259,2.178-0.22,1-2c-2.328,1.307-2.765,0.52-1.139-1.572
			c-1.693-1.863-1.715-3.327,1.134-3.525C71.737,0.98,75.635,1.54,78.039,3.239z"/>
		<path style="fill:#C8C8C8;" d="M65,18.161l1.457,1.733c0.009,2.787-1.024,14.011-4.555,12.797
			c-0.708-0.671-1.624-1.851-1.718-2.792C59.889,26.963,60.009,18.733,63,18C63.532,15.378,64.443,15.568,65,18.161z"/>
		<path style="fill:#1C1C1C;" d="M79,69.924c1.589-0.964,2.402,0.296,2,2.076c0.303-1.314,1.159-1.119,2.569,0.585
			c-0.952,2.789-1.483,5.61-1.593,8.465c-0.341,0.251-0.652,0.606-0.929,0.927c-3.571,0.552-7.267,0.784-11.088,0.697
			C69.834,84.246,69.181,84.021,68,82c-1.92,1.7-2.144,1.569-2-1c-2.659-0.934-2.992-1.934-1-3l4-8c-0.619-1.207-0.643-1.95,1-2
			c1.076-0.378,7.75-0.744,8.078-0.48C78.73,68.046,79.136,69.098,79,69.924z"/>
		<path style="fill:#313131;" d="M66,81c0.685,0.232,1.486,0.481,2,1c2.756,0.525,3.201,1.184,1.333,1.978
			c1.753,2.867,2.256,5.544,1.507,8.03c-0.553,1.528-3.773,2.971-4.974,4.034C63.923,97.745,59.485,95.678,60,93
			c-3.492-0.177-3.492-2.511,0-7c-2.811-1.48-0.906-4.572,2-4C61.977,78.639,64.613,77.975,66,81z"/>
		<path style="fill:#CECECE;" d="M58.885,60.9c0.903,0.225,0.927,0.594,0.115,1.1l0.681,1.807c5.839,1.25,11.595,1.525,17.269,0.825
			c-0.211-2.126,0.648-2.465,1.953-0.774c1.243,0.809,2.275,1.9,3.097,3.273c0.342-0.557,0.765-0.623,1.268-0.202
			c2.683-0.724,5.55-1.034,8.601-0.929c-0.527-1.785-0.15-1.785,1.131,0c1.865-1.727,3.559-2.065,5.084-1.013
			c0.204,2.623-2.779,3.136-4.189,4.877c-1.48,1.393-2.794,1.868-3.942,1.425c-1.233,1.73-2.272,1.474-2.564-0.63
			c-1.517,0.307-3.541,0.151-4.262-1.533C82.721,69.995,82.346,69.933,82,69c-0.516,1.63-1.682,1.924-3,0.924
			c-2.95-0.896-5.874-2.292-9-1.924c-2.139,1.714-5.139,2.059-9,1.037c-1.704,2.239-6.315,0.048-8-1.869
			c-0.95,0.308-0.975-0.135-0.076-1.331C51.415,62.438,54.534,56.189,58,55c0.284-0.873,0.618-0.86,1,0l1.838,1.508
			C59.567,58.202,58.916,59.666,58.885,60.9z"/>
		<path style="fill:#4E4E4E;" d="M83.937,4.126C85.93,3.863,87.866,3.623,87,6c4.073-0.387,2.196,3.109-1,4
			c2.815,1.582,0.783,4.247-1.806,2.163c-1.696-0.534-4.931,0.723-6.417-0.923c-2.052-2.274-0.229-5.668,0.262-8.001
			C79.806,3.315,82.278,2.877,83.937,4.126z"/>
		<path style="fill:#2B2B2B;" d="M106.121,48c1.623,1.381,2.39,6.077,0.963,7.824c-0.75,0.286-1.239,1.437-2.184,1.472
			c-0.81,1.719-1.813,1.706-1.9-0.297c-5.567-0.303-6.439-1.516-6-7c1.174-1.489,2.507-3.155,4-5
			C103.242,43.04,105.817,45.574,106.121,48z"/>
		<path style="fill:#484848;" d="M115.803,48c-2.139,3.305-5.01,6.412-8.719,7.824c-1.882-2.31-2.28-5.131-0.963-7.824
			c-2.132-2.993,2.672-4.909,4.879-3C112.092,43.317,117.044,45.113,115.803,48z"/>
		<path style="fill:#555555;" d="M69.995,3.903c-0.5,0.839,0.069,2.791-1.134,3.525C69.58,10.245,64.819,10.073,63,9
			c-2.15,1.733-3.608,0.733-4.373-3C56.06,5.2,56.348,4.594,58,3C58.131,1.571,70.559,1.006,69.995,3.903z"/>
		<path style="fill:#262626;" d="M122,35c0.063,4.678-0.729,9.343-5,11.908c-1.654,1.087-3.271-1.192-2-2.908
			c-1.069-2.066-1.268-3.473-0.598-4.221c-0.177-3.025,0.689-4.284,2.598-3.779c0.718-2.413,1.2-2.541,3-0.785
			C121.291,33.368,121.958,33.296,122,35z"/>
		<path style="fill:#3B3B3B;" d="M58,3c1.32,0.302,0.404,1.981,0.627,3l2.21,3.534c0.226,1.232-10.673,1.241-11.082,0.842
			c-0.579-0.564-1.366-5.974,1.283-5.337C50.298,3.078,52.538,2.568,54,3C55.17,1.992,56.78,2.114,58,3z"/>
		<path style="fill:#ADADAD;" d="M122,35l-2,0.215c-0.868-2.92-2.786-3.995-5.754-3.227L113,30c-2.045-0.224-1.957-1.225,0-2
			c0.319-2.656,1.239-2.541,2,0h5l-0.874-1.084c0.22,1.457-1.857,1.589-2.157,0.052C115.194,24.953,115.497,23.1,118,22
			c1.639,0.437,4.001,1.191,4.766,3.013C124.309,28.686,121.959,31.966,122,35z"/>
		<path style="fill:#1D1D1D;" d="M79.819,83.197c-1.516,2.569-5.365,5.995-7.596,7.451c-0.463-0.767-3.421-7.187-3.259-7.572
			C69.297,82.286,78.668,82.027,79.819,83.197z"/>
		<path style="fill:#484848;" d="M103,57l1.9,0.297c-0.672,3.085-3.631,5.654-6.774,5.918C95.49,61.776,94.448,60.372,95,59
			c-0.978-2.156-0.312-2.822,2-2c-0.136-1.683,0.531-1.873,2.001-0.571L103,57z"/>
		<path style="fill:#6F6F6F;" d="M98.155,8.071C99.88,11.091,97.249,13.949,94,12c-0.284,0.873-0.618,0.86-1,0
			c-0.7-1.104-1.97-1.379-3-2c-2.912-1.826-0.686-3.891,2-5c0.773-0.429,2.092-1.061,3.043-0.114
			C96.017,5.856,96.835,7.828,98.155,8.071z"/>
		<path style="fill:#313131;" d="M89.953,71.289c1.312,0.237,1.331,1.158,0.055,2.761c-2.451,1.735-4.029,4.502-6.819,5.772
			c-1.887-2.381-1.555-3.83,0.065-6.175c-1.439-1.08-0.489-1.594,2.851-1.542c-1.56-1.936-1.019-2.385,1.283-1.446
			C88.232,70.913,89.087,71.127,89.953,71.289z"/>
		<path style="fill:#444444;" d="M102.331,10.315c0.086,1.632-0.499,3.22-1.965,3.488C98.403,14.163,96.544,13.897,95,13
			c-1.405,1.325-1.92,0.767-1-1c2.38,0.259,2.478-2.703,4.155-3.929C99.915,8.394,100.944,9.26,102.331,10.315z"/>
		<path style="fill:#313131;" d="M60,93c2.087,0.759,4.217,1.53,5.866,3.042c-1.298,1.448-1.829,4.336-4.562,4.092
			C58.979,99.245,56.954,96.416,58,94C56.5,90.979,57.571,90.466,60,93z"/>
		<path style="fill:#2B2B2B;" d="M117,21l1,1c0.111,1.724-0.066,3.5-1.031,4.969c0.714,1.519-0.564,1.633-1.969,1.031h-2
			c-0.165-1.615-0.825-2.681-1.981-3.197l2.29-3.025C113.122,19.334,114.353,19.075,117,21z"/>
		<path style="fill:#3F3F3F;" d="M98.126,63.215c0.285,0.463-0.109,1.273-0.042,1.772c-1.602,0.737-2.758,2.155-4.16,3.378
			C92.863,67.895,93.401,66.565,93,66c-2.034-2.154-3.749-4.631,0-5C94.416,60.051,96.124,60.789,98.126,63.215z"/>
		<path style="fill:#565656;" d="M53,2c0.472-0.054,0.913,0.617,1,1c-0.814,0.702-1.771,2.007-2.961,2.039
			C50.287,7.342,48.941,7.379,47,5.15c-1.456-1.032-3.181-0.786-4.51-2.781C46.917,1.272,49.872,2.357,53,2z"/>
		<path style="fill:#979797;" d="M81.047,81.976c-0.368,0.425-0.946,0.741-1.228,1.22c-3.31-0.047-6.651-0.724-10.161,0.228
			c1.394,3.072,2.349,4.997,2.565,7.223c-0.406,0.265-1.218,0.902-1.383,1.36C70.994,88.497,69.162,85.265,68,82L81.047,81.976z"/>
		<path style="fill:#C4C4C4;" d="M110,40c1.951,0.879,3.284,2.213,4,4c0.401-0.517,0.734-0.517,1,0
			c1.027,0.074,2.29-0.39,2.989,0.475c-1.017,0.717-1.52,1.118-1.993,1.996c-0.149,0.276,0.538,0.704,1.004,0.437
			c-0.37,0.222-0.964,0.732-1.197,1.092c-1.547-1.152-2.764-2.885-4.803-3c-2.495,1.718-5.361-4.215-3-6c0.284-0.873,0.618-0.86,1,0
			C109.745,39.105,110.079,39.438,110,40z"/>
		<path style="fill:#272727;" d="M58,94c0.981,2.109,2.124,4.128,3.304,6.134c-0.085,0.54-0.074,1.129-0.294,1.619
			c-1.798-0.756-2.27-2.909-4.01-3.753c-3.182-3.855-3.515-5.855-1-6C57.49,90.798,58.434,92.499,58,94z"/>
		<path style="fill:#555555;" d="M92,5c-2.387,2.952-4.054,3.285-5,1l-3.063-1.874C86.453,2.708,91.146,1.514,92,5z"/>
		<path style="fill:#8F8F8F;" d="M110,16c0.548,0.701,1.89,0.849,2,2c-1.008,0.512-2.008,1.179-3,2c0.874,0.313,0.86,0.678,0,1.093
			L107,21c-1.597-1.961-2.642-3.961-3.136-6c0.349-0.62,0.113-1.846,1.136-2C106.743,14.84,108.41,15.84,110,16z"/>
		<path style="fill:#C9C9C9;" d="M117,21c-1.05-0.045-3.051-0.426-3.691,0.778c-2.302,0.644-3.738,0.415-4.309-0.685V20
			c0.826-1.01,2.159-1.677,4-2C114.609,18.62,115.817,19.817,117,21z"/>
		<path style="fill:#444444;" d="M93.895,69.864c-1.211,1.494-2.279,3.048-3.887,4.186c-0.097-0.917-0.124-1.841-0.055-2.761
			C91.054,70.345,92.469,69.967,93.895,69.864z"/>
		<path style="fill:#989898;" d="M86.105,72.105c-3.321,1.27-3.578,4.497-2.916,7.717c-0.476,0.216-0.783,0.911-1.213,1.228
			c0.477-1.748-0.237-3.519-1.831-4.681c1.235-0.755,1.699-1.445,2.454-2.291C83.472,73.101,81.932,72.532,81,72
			c-1.025-1.606-0.929-2.529,1-3c0.357-0.011,0.776,0.181,1.126,0.126C84.456,69.787,85.703,70.693,86.105,72.105z"/>
		<path style="fill:#383838;" d="M110,16c0.175,0.923-0.786,1.339-1.629,0.761c-1.602-1.098-2.612-2.459-3.371-3.761
			c0.321-0.048,0.676,0.032,1,0C107.235,14.116,108.935,14.637,110,16z"/>
		<path style="fill:#222222;" d="M112,18c0.312,0.036,0.709-0.112,1,0c-0.792,1.418-2.478,1.778-4,2
			c-0.187-0.777-0.064-1.661,0.651-1.875C110.51,17.867,111.291,17.917,112,18z"/>
		<path style="fill:#414141;" d="M30,74c0.551-0.255,3.825,4.318,3.808,4.654c-0.02,0.396-0.625,0.764-1.398,1.123
			c-0.257,3.862-1.439,6.578-3.547,8.148c0.87,0.246,0.83,0.553-0.047,0.916C26.455,88.291,15.731,80.944,15,79
			c-1.753-2.379,0.518-4.498,3-3l2.829-4.565C23.763,72.614,26.82,73.47,30,74z"/>
		<path style="fill:#454545;" d="M7,41c-2.305,0.167-0.638,0.501,5,1c1.41,0.243,1.688,0.617,0.56,1.155
			c-1.306,4.69-1.375,8.972-0.209,12.844L9,56.848c0.423,2.435-0.032,2.508-2,1.047C6.104,59.127,3.314,57.746,2,57L1.963,44.953
			c-0.005-1.744,0.492-3.08,1.092-4.202c-0.751-1.773-0.273-2.277,1.26-0.995C5.3,36.332,9.392,38.328,7,41z"/>
		<path style="fill:#3C3C3C;" d="M18,33c0.437,3.325,0.696,6.897,0.78,10.715C15.294,42.353,12.034,40.115,9,37
			c-2.673-1.114-4.673-2.781-6-5c-0.376-0.941-1-1.947-1-3c0.33,0.031,0.673-0.054,1,0c3.756-1.811,7.961-1.759,12.151-1.136
			C15.448,29.533,16.398,31.245,18,33z"/>
		<path style="fill:#212121;" d="M57,98c-0.036,1.732,1.544,3.061,1.778,4.989c0.151,1.246-1.452,2.099-1.778,2.87
			c-4.102,1.298-7.2-2.483-10.693-4.391C45.475,100.92,45.066,100.063,46,99c-1.789-1.132-1.789-1.798,0-2
			c0.129-2.436,0.891-2.873,2.285-1.309L51,95c-1.19-2.594-0.555-3.222,2-2l1.37-0.199C54.77,94.673,55.646,96.406,57,98z"/>
		<path style="fill:#3F3F3F;" d="M18,76l-3,3c-3.012-1.009-6.301-2.683-7.36-5.811C5.66,71.012,6.184,70.089,9,71l0.835-2.896
			c0.33-0.356,9.144-0.079,9.577,0.141c0.971,0.492,3.175,5.065,0.626,5.069L18,76z"/>
		<path style="fill:#181818;" d="M45,86c1.242-0.212,1.377,0.576,0.406,2.364L46,91c0.136,2.1,0.803,3.692,2,4.776L46,97
			c-0.507,1.372-4.584,0.863-6,0c-0.724-0.867-2.599-0.805-2.918-1.899c-0.289-0.99-0.374-2.308,0.17-3.022
			c-2.425-0.959-2.056-2.237,0.488-2.803C35.453,86.629,44.775,83.061,45,86z"/>
		<path style="fill:#464646;" d="M9,66c1.86,1.734,1.86,3.401,0,5c-0.529,0.684-1.32,1.195-1.36,2.189
			c-1.837,0.559-4.853-1.023-5.34-3.293C1.408,65.733,2.319,61.77,2,58C6.051,57.444,8.384,60.11,9,66z"/>
		<path style="fill:#606060;" d="M37.74,89.276c-0.243,0.762,0.119,2.007-0.488,2.803c-1.05,1.343-2.021,2.487-3.755,0.901
			c-0.753-0.689-1.525-1.633-0.72-2.948c-2.254-1.03-1.07-2.401,1.102-1.801C35.264,86.95,37.174,87.335,37.74,89.276z"/>
		<path style="fill:#979797;" d="M7,57.895c3.025-0.712,5.546,6.478,3,8.105c-0.284,0.873-0.618,0.86-1,0
			c-3.096-3.491,0.026-6.922-7-8c-0.028-0.331,0.001-0.668,0-1C3.7,57.067,5.327,57.61,7,57.895z"/>
		<path style="fill:#6B6B6B;" d="M5,37c2.848,0.518,2.092,2.761-0.685,2.756c-0.539,0.267-0.967,0.447-1.26,0.995
			C1.368,38.616,1.329,35.152,3,33C4.391,33.374,5.058,34.707,5,37z"/>
		<path style="fill:#CCCCCC;" d="M9,37c-0.89,2.215-2.595,1.563-4,0c-1.044-1.114-1.445-2.609-2-4c-0.066-0.306,0.115-0.713,0-1
			C5.154,33.535,7.398,34.864,9,37z"/>
		<path style="fill:#393939;" d="M33.879,88.231l-1.102,1.801c-1.648,1.134-2.757-0.912-3.961-1.192l0.047-0.916
			C30.284,86.143,31.329,85.835,32,87C33.392,86.36,34.78,86.696,33.879,88.231z"/>
		<path style="fill:#1E1E1E;" d="M46,99c0.039,0.355,0.648,0.948,0.767,1.429c0.083,0.337,0.078,0.779-0.46,1.038l-4.304-2.352
			C39.727,96.81,45.372,96.92,46,99z"/>
		<path style="fill:#A0A0A0;" d="M46,97c0,0.653-0.071,1.352,0,2c-0.715-0.507-1.552-0.901-2.518-0.979
			c-0.656-0.053-1.693,0.068-1.479,1.095C41.069,98.605,40.661,97.791,40,97C41.762,96.413,44.345,97.809,46,97z"/>
		<path style="fill:#3C3C3C;" d="M18,1c0.271,3.451,0.779,6.981,1.525,10.591l-1.822,0.483c-0.326,0.993-5.66,11.408-5.945,10.856
			C8.282,16.21,6.192,8.265,8,1H18z"/>
		<path style="fill:#474747;" d="M22,2h1c4.632,4.137,8.965,8.47,13,13c0.38,1.926-2.365,5.573-4,3c-2.601,1.649-6.67,1.121-8-2
			c-2.299,1.913-3.698,0.689-2.157-1.903c-0.71-2.133-1.804-2.873-3.281-2.22C18.318,8.109,18.464,4.483,19,1
			C19.944,1.486,20.942,2,22,2z"/>
		<path style="fill:#414141;" d="M3,28c0-4.662-1.172-9.75,1-14c-0.504-1.666,0.032-3.812,2-3c0.715-0.078,1.294-0.09,1.401,0.128
			c1.283,2.625,2.902,7.335,3.647,10.201c0.08,0.309,0.481,0.535,0.973,0.737c-0.728,2.218-0.559,4.116,0.509,5.694
			C9.212,27.714,6.035,27.794,3,28z"/>
		<path style="fill:#A5A5A5;" d="M18,1c0.298,0,0.74-0.117,1,0c-0.728,13.8,1.918,6.675,2.843,13.097
			c-2.46-0.412-6.973,8.201-7.121,9.902C16.083,23.413,16.995,23.653,18,25c1.468,1.545,0.666,4.996,0,7
			c0.941,0.254,0.922,0.589,0,1c-9.583-9.457-8.861-2.994-15-4v-1c2.426-0.878,4.784-0.976,8.265-1.144
			C10.457,21.209,9.108,15.365,6,11C4.449,9.21,4.037,1.442,7,1h1c-0.586,7.005,0.43,13.516,4.092,20.759l5.596-10.949
			C19.227,7.8,17.458,3.945,18,1z"/>
		<path style="fill:#3D3D3D;" d="M47,5.15c2.112-0.112,2.994,1.345,2.647,4.37c2.116-0.189,2.104,0.618-0.038,2.423
			c0.33,4.27-0.539,5.289-2.609,3.058l-4-3c-1.4,1.242-1.974,0.623-1-1c-2.781-1.36-3.415-2.823-1-5
			c-1.221-1.451-0.606-1.944,0.969-0.793C43.636,4.971,45.332,5.195,47,5.15z"/>
		<path style="fill:#484848;" d="M7,1C6.863,4.421,7.651,7.932,6,11c-0.57,1.059-1.288,2.097-2,3
			c-0.435,0.113-0.936-0.343-0.94-1.038L3.002,1.156C4.719,0.782,5.848,1,7,1z"/>
		<path style="fill:#3D3D3D;" d="M35,2c0.3,1.02,1.109,7.188,0.961,7.55C35.652,10.306,34.78,10.696,34,11
			c-1.598,0.721-6.726-3.937-4-5c1.83-0.626,0.325-3.247,1.301-4.633C32.101,0.231,34.477,1.188,35,2z"/>
		<path style="fill:#383838;" d="M41.969,5.207C41.641,5.43,41.383,5.865,41,6c-0.889,2.47-1.889,3.47-3,3
			c-3.777,3.041-2.648-4.642-1.997-7.15c1.667,0.105,3.775-0.603,5.573,0.555C42.479,2.987,41.918,4.634,41.969,5.207z"/>
		<path style="fill:#595959;" d="M30,6c-0.817,4.058-5.516-1.817-7-4h-1c1.73-1.959,5.013-0.869,7.918-0.88
			C30.145,3.164,30.038,4.474,30,6z"/>
		<path style="fill:#C1C1C1;" d="M38,9c2.161,3.007-1.545,4.764-4,2c1.544-2.753,0.939-5.933,1-9
			c0.335-0.009,0.669-0.171,1.003-0.15l-0.074,5.23c-0.013,0.909,0.204,1.725,0.661,1.773L38,9z"/>
		<path style="fill:#2C2C2C;" d="M57.144,35.556c2.018,1.472,7.589,1.032,7.326,5.214C64.327,43.046,61.238,45.499,62,48
			c-0.512,2.486-1.512,3.819-3,4c-0.279,0.59-0.555,1.048-0.816,1.04c-3.142-0.096-9.924-0.774-12.885-1.456
			C45.089,51.535,45.024,50.857,45,50c-1.392,1.535-2.028,0.894-1-1c-1.922-1.485-2.404-2.786-1.445-3.903
			C42.277,42.772,42.425,40.74,43,39c-1.161-2.248,2.598-5.781,4.843-5.026C48.827,29.291,56.305,32.067,57.144,35.556z"/>
		<path style="fill:#2A2A2A;" d="M70,48c1.912-2.173,3.439-0.374,2,2c3.222,0.599,3.589,1.966,1.102,4.102
			C75.651,55.622,73.564,58.153,71,57c0.229,3.115-2.133,3.428-4,1l-8.115,2.9C55.336,61.016,59.042,58.325,59,55
			c0.643-2.137,1.516-4.281,3-6c0.526-1.406,2.58-3.564,2.833-4.97L70,48z"/>
		<path style="fill:#535353;" d="M70,20l0.257,11.086c0.064,2.78-2.777,4.732-4.411,7.099c-2.19-1.553-2.823-3.605-3.944-5.494
			c2.511-4.284,0.951-9.904,3.098-14.53C67.466,16.19,69.933,16.586,70,20z"/>
		<path style="fill:#535353;" d="M57,16c2.092-2.513,3.425-2.513,4,0c1.383-3.198,4.57-0.49,2,2l-1.098,14.691
			c-3.475-1.421-5.221-4.898-5.77-8.699c-3.073,0.062-4.217-4.81-1.092-6.005C51.846,15.987,55.014,12.625,57,16z"/>
		<path style="fill:#323232;" d="M73.787,31.874C76.756,32.196,82.784,35.851,80,38c2.956,0.847-0.101,7.649-3,7
			c-0.194,2.656-0.86,2.656-2,0c-3.012,2.311-9.035-3.932-6.601-7.081C70.01,35.74,70.117,31.764,73.787,31.874z"/>
		<path style="fill:#4A4A4A;" d="M91,33c0.873,0.284,0.86,0.618,0,1c1.857,2.27-0.94,3.983-3,2c0.087,1.824-0.781,2.036-2.607,0.636
			C81.007,37.15,78.876,35.938,79,33c-0.819-1.369-0.039-2.954,1-4c-1.711-1.872-1.292-2.072,1.213-1.95
			c1.457-1.856,3.943-1.999,5.732-1.469C91.595,26.958,88.65,33.371,91,33z"/>
		<path style="fill:#454545;" d="M44.672,23.987c3.059-0.266,13.605,10.677,13.606,10.223c0,0.453-0.923,0.871-1.133,1.347
			c-2.737-1.997-5.777-2.383-9.302-1.583C45.382,34.553,42.313,34.156,43,31c-0.586-0.268-0.916-7.414-0.683-7.755
			C42.609,22.819,43.943,23.448,44.672,23.987z"/>
		<path style="fill:#393939;" d="M53,17c1.848-1.628,2-1.413,2.039,0.987c-0.291,2.063,0.775,3.817,1.092,6.005
			c-0.482,1.372,0.227,2.626-0.568,5.39c-3.866-2.706-8.204-5.263-10.256-9.382c-2.176-1.96,0.162-4.376,2.693-3
			c0.201-0.767,0.686-1.434,1.458-2C50.225,16.179,51.406,16.846,53,17z"/>
		<path style="fill:#434343;" d="M42,11c0.329,0.119,0.844,0.682,1,1l4,3c2.094-0.498,2.562,0.679,1,2l-2.693,3l-2.186,0.003
			C41.696,21.313,41.145,20.782,42,19c-1.063,0.394-2.079-0.437-3.046-2.494L37,15c-1.468-0.808-3.749-2.451-3-4
			c1.519,0.231,3.126-0.723,4-2C39.006,8.285,40.34,8.952,42,11z"/>
		<path style="fill:#484848;" d="M75,45c3.321,2.576,1.245,10.083-3,5l-2-2l-5.167-3.97c0.275-2.801,2.047-4.056,3.566-6.111
			C69.674,40.923,72.271,43.139,75,45z"/>
		<path style="fill:#3C3C3C;" d="M108,39l3,6c-1.261,1.659-3.908,1.013-4.879,3c-2.199,0.124-3.322-2.021-5.121-3
			c-0.725-0.291-0.712-0.625,0-1c-2.756-0.426-2.426-0.902,0-2c-1.325-1.405-0.767-1.92,1-1c0.87-0.87,1.646-1.775,2.225-2.379
			C105.452,37.342,106.933,38.31,108,39z"/>
		<path style="fill:#2A2A2A;" d="M113.309,21.778C112.19,23.95,112.155,25.743,113,28c0.008,0.664-0.071,1.341,0,2
			c-0.215,2.984-3.917,2.948-6,2h-1c-1.515,0.91-2.986-0.661-4-2c0.005-0.333-0.026-0.668,0-1c-2.407-0.342-1.289-2.55,0.732-2.601
			l4.474-0.723c-1.513-1.767-3.379-0.044-4.41-2.257c2.484-0.345,4.796-0.375,6.203-2.326l3.736-0.432
			C113.814,20.536,113.805,21.116,113.309,21.778z"/>
		<path style="fill:#3A3A3A;" d="M98,32c1.9,0.27,4.695,3.118,5,5l-1,4l-1,1c-0.284,0.873-0.618,0.86-1,0
			c-3.36,0.768-9.582-3.982-7-7c-1.348-0.999-0.348-1.999,3-3C96.582,32.003,97.484,32.058,98,32z"/>
		<path style="fill:#AEAEAE;" d="M43.121,20.003c0.192,1.437,0.572,2.884,1.551,3.984C41.923,25.08,43.437,28.798,43,31l0.073,3.489
			C44.211,36.33,44.187,37.834,43,39c0.404,3.206-0.517,6.91,1,10c-2.036,2.379-5.742-0.258-4-3
			c0.062-3.607-0.562-7.249-1.873-10.927c-1.969,0.256-3.702-3.032-2.515-4.345c3.484-0.305,4.991-1.865,4.52-4.681
			C38.954,23.613,38.91,21.598,40,20c-0.857-2.714-0.103-2.662,2-1L43.121,20.003z"/>
		<path style="fill:#3B3B3B;" d="M90.097,20.575c1.548,0.732,3.278,0.437,4.903,0.682c1.925-2.598,3.757-1.259,2.076,1.454
			c-0.513,0.85-0.127,2.821-1.568,2.734c-2-0.12-6.679,0.091-8.082-1.441c-0.538-0.588-0.512-1.904-0.535-2.887
			C84.485,19.666,85.303,18.459,88,19c0.284-0.873,0.618-0.86,1,0C90.607,18.551,91.073,19.219,90.097,20.575z"/>
		<path style="fill:#343434;" d="M90,10c0.404,2.697-0.288,5.419-1,8c0.819,0.329,0.818,0.663,0,1h-1c-2.159,2.339-4.583-0.466-3-3
			c-0.307-1.272-0.74-2.522-0.806-3.837C85.397,12.012,85.499,10.779,86,10C88.636,6.806,89.97,6.806,90,10z"/>
		<path style="fill:#424242;" d="M80.819,13.099c0.392,2.701,0.251,5.07,0.034,7.96c-3.412-0.096-6.402-3.354-5.521-6.778
			C75.771,12.575,78.392,12.877,80.819,13.099z"/>
		<path style="fill:#303030;" d="M113,33c2.446-0.873,2.706,0.063,1,2c1.679-0.106,0.649,5.793,0.396,6.035
			c-1.7-0.907-3.499-1.586-5.396-2.035h-1c-0.842-1.685-1.41-3.908-1-6C108.431,32.437,112.426,31.454,113,33z"/>
		<path style="fill:#4B4B4B;" d="M81.213,27.05C80.79,27.588,80.818,28.717,80,29c-0.623,1.111-1.29,2.111-2,3
			c-0.348,1.199-1.753,1.157-4.213-0.126c-2.218-1.842,3.821-8.326,5.249-7.478C80.099,25.027,80.807,26.054,81.213,27.05z"/>
		<path style="fill:#474747;" d="M96,32c-2.042,1.515-3.709,1.848-5,1c0-2.157-0.023-4.32-0.768-6.483
			c3.342-0.634,6.021,0.733,7.754,3.073C96.734,30.473,96.559,31.409,96,32z"/>
		<path style="fill:#393939;" d="M97.076,22.711c0.018-0.646-1.39-1.35-2.076-1.454c0.417-1.732,0.286-3.948,1.676-5.772
			c0.714-0.937,4.241-0.846,4.288,0.246C100.85,18.899,98.775,21.18,97.076,22.711z"/>
		<path style="fill:#454545;" d="M73.066,19.26c1.609,1.562,1.002,2.134-0.832,0.756L70,20c-1.581-0.848-3.184-1.692-5-1.839
			c-2.04-2.357-0.49-4.037,2-2.161c1.525-0.917,2.721-1.059,4.787-0.389C73.575,16.189,74.155,17.151,73.066,19.26z"/>
		<path style="fill:#4A4A4A;" d="M85,16c1.175,0.731,1.569,2.551,3,3l-1.108,2.118l-1.721,0.803
			c-0.006-1.524-2.668-0.64-2.937-1.937c-0.497-2.406-0.541-4.498,0.161-7.11C83.041,14.55,83.778,15.239,85,16z"/>
		<path style="fill:#343434;" d="M107,21c-0.91-0.042-2.663,1.219-3.536,0.628c-2.858-1.934-0.773-4.549,0.4-6.628
			c1.216,0.521,2.202,1.432,3.227,2.438C108.117,18.445,108.039,19.824,107,21z"/>
		<path style="fill:#4E4E4E;" d="M73.1,28.021c-2.327,1.627-2.139-5.085-0.94-7.029c-0.021-0.324,0.07-0.651,0.073-0.976
			c0.455,0.003,1.183-0.097,0.832-0.756c2.262,0.641,3.223,3.447,1.82,5.714C74.151,26.16,73.534,27.084,73.1,28.021z"/>
		<path style="fill:#4D4D4D;" d="M74.534,13.045c-1.102-2.341-1.105-4.335-2.301-6.352c-0.48-1.129-0.007-1.637,0.519-2.237
			c0.525-0.599,1.542-0.225,2.286,0.729C76.578,7.159,76.943,10.836,74.534,13.045z"/>
		<path style="fill:#3F3F3F;" d="M90.097,20.575C89.493,20.289,89.037,19.671,89,19c-0.017-0.305-0.081-0.708,0-1
			c0.934-0.977,4.57-3.189,5.407-1.661C95.833,18.944,92.105,20.378,90.097,20.575z"/>
		<path style="fill:#3E3E3E;" d="M69,11c-2.45-1.365-1.592-2.53,1-2c0.479-0.32,0.896-0.79,1.813-0.775
			c-0.048,2.035,1.218,3.667,0.941,5.742c-0.489,0.751-2.599,0.314-3.143-0.294C69.045,13.04,68.86,11.739,69,11z"/>
		<path style="fill:#505050;" d="M68.861,7.428L70,9l-1,2c-1.315,0.155-2.702-0.25-4,0c-1.593-0.404-2.26-1.07-2-2L68.861,7.428z"/>
		<path style="fill:#727272;" d="M103,37c-2.047-1.211-3.789-2.953-5-5c0.286-0.032,0.451-0.739,0.791-0.803
			c0.382-0.072,0.929-0.057,1.414,0.439l4.793,4.888C104,37.091,103.456,36.977,103,37z"/>
		<path style="fill:#1A1A1A;" d="M106,32c-0.103,1.024,0.403,2.255-0.461,2.97c-1.959-1.777-3.567-2.95-3.539-4.97
			C103.566,30.08,105.057,30.721,106,32z"/>
		<path style="fill:#434343;" d="M93,12h1l1,1c-0.113,1.261-0.813,2.012-1.549,2.043c-1.441,0.061-2.728,0.143-2.561-1.539
			C91.024,12.158,91.549,11.687,93,12z"/>
		<path style="fill:#535353;" d="M85.171,21.921c0.205,0.132,1.04,1.557,0.427,1.801c-2.487,0.991-4.759-0.217-6.717-1.367
			C81.452,21.533,83.262,22.275,85.171,21.921z"/>
		<path style="fill:#535353;" d="M73.1,28.021c-0.267,0.577-0.748,1.169-1.111,1.531c-0.687,0.686-1.018,0.277-1.014-0.044
			l0.031-2.5c0.029-2.337-0.959-5.201,1.154-6.016C72.312,23.32,70.838,26.561,73.1,28.021z"/>
		<path style="fill:#2D2D2D;" d="M101.793,26.121c0.32,1.772-1.526,2.834-2.682,1.157c-0.291-0.519-2.004-0.618-1.533-1.333
			c0.367-0.558,3.954-2.446,4.24-1.397C101.971,25.112,101.794,25.663,101.793,26.121z"/>
		<path style="fill:#949494;" d="M102.732,26.399c-0.764,0.473-0.672,1.835-0.732,2.601c-0.768,0.364-1.325,1.271-2.084,0.589
			c-0.684-0.615-0.469-1.709-0.806-2.311c0.975-0.164,1.623-1.405,2.682-1.157L102.732,26.399z"/>
		<path style="fill:#D5D5D5;" d="M62,49c-0.335,2.262-1.341,4.415-3,6c-2.149-1.919-2.149-2.919,0-3l3-4
			C61.969,48.329,62.048,48.674,62,49z"/>
		<path style="fill:#9C9C9C;" d="M113,33h-6c0.063-0.324-0.036-0.671,0-1c2.261,0,4.762,0.112,6-2
			C115.802,30.502,115.603,32.027,113,33z"/>
		<path style="fill:#252525;" d="M70,68c0.303,0.69-0.114,2.131-1,2c-0.105,1.004-0.53,2.423-2,2c-0.981,2.886-6.824-0.151-6-2.963
			C63.368,67.006,67.009,68.352,70,68z"/>
		<path style="fill:#969696;" d="M69,70c2.161,1.728-3.2,7.749-4,8c-2.725-1.312-0.917-6.303,2-6C67.559,71.384,67.701,69.163,69,70
			z"/>
		<path style="fill:#909090;" d="M65,78c0.513,0.932,0.808,1.957,1,3c-0.686-0.233-1.433-1.212-2.307-0.748
			C63.154,80.538,62.252,81.351,62,82c-2.241-0.089-2.925-2.178-2-4C60.789,75.569,64.083,75.71,65,78z"/>
		<path style="fill:#222222;" d="M82,69c-0.146,1.055-0.457,2.081-1,3c-0.762-0.435-1.191-1.756-2-2.076
			C79.409,68.687,80.959,69.033,82,69z"/>
		<path style="fill:#181818;" d="M60,78c1.41,0.86,2.287,2.333,2,4c-0.517,1.33-1.738,2.586-2,4
			c-1.558,1.793-2.377,3.785-2.457,5.975L56,92c-1.113,2.233-2.734,0.838-4.864-4.183c-2.235-1.372-2.887-2.31-1.955-2.812
			c-1.449-1.851-1.766-3.658-0.953-5.421c-2.103-0.678-1.682-1.284,0.422-1.767C47.732,74.621,47.992,74.491,51,74
			C52.75,71.361,60.487,74.949,60,78z"/>
		<path style="fill:#949494;" d="M60,93c-0.659-0.24-2.136,0.14-2,1c-0.379-0.815-1.492-1.276-2-2c1.295-2.065,1.61-4.974,4-6
			c-0.315,1.699-1.274,3.086-1.827,5.072C57.951,91.871,59.71,92.582,60,93z"/>
		<path style="fill:#3E3E3E;" d="M58,55c-1.271,3.778-3.202,7.325-5.076,10.837c-0.911,2.028-3.134,5.4-3.577,2.149
			c-4.936-3.494-7.404-5.242-7.404-5.242c-2.453,0.208-6.332-3.14-4.562-5.798c-1.489-2.676,2.732-5.75,4.575-2.992l3.351-2.477
			c0.617-0.238,12.68,0.995,13.123,1.487C58.961,53.556,58.909,54.941,58,55z"/>
		<path style="fill:#464646;" d="M71,57c3.189-1.409,7.629,4.843,5.95,7.633c2.211,5.222-17.232,0.726-20.913,0.847
			c-0.699-0.456-0.001-2.159,0.554-2.644C57.116,62.377,58.526,62.348,59,62c2.032-1.826,4.699-3.16,8-4
			C68.262,57.785,69.837,57.529,71,57z"/>
		<path style="fill:#BEBEBE;" d="M37.381,56.948c3.267,4.495,8.757,6.584,12.898,10.997c1.276-0.669,1.769-1.474,2.645-2.108
			L53,67.168c1.532,2.104-0.428,5.158-2,6.832c-3.452,4.574-3.006,9.541,0.981,14.061C53.284,89.539,53.432,92.536,56,92
			c-1.676,2.673,1.057,3.28,1,6c-1.95-0.946-3.146-3.048-4-5l-2.154,0.065C49.755,88.523,48.14,87.835,46,91
			c-1.44-1.27-1.076-3.232-1-5c1.312-1.096,1.645-2.096,1-3c-1.801-2.7-13.763-4.271-12.034,1.683L32,86c0.873,0.284,0.86,0.618,0,1
			c-0.963,0.544-2.049,0.777-3.136,0.924C31.452,83.447,33.439,78.501,30,74c-1.112-2.581,0.184-3.038,2-1l1.885,0.779
			c0.134,2.661,3.736,3.389,10.806,2.185c0,0,0.459-1.025,1.377-3.076c4.238-2.738-2.73-8.528-5.139-5.808
			C38.805,68.796,36.822,65.871,36,64c-2.723-0.289-3.523-3.729-1-5c-0.883-0.225-0.856-0.562,0-1c-1.754-0.407-2.689-0.744-1-2
			C34.922,53.059,37.47,53.975,37.381,56.948z"/>
		<path style="fill:#1B1B1B;" d="M61,69.037L67,72l-2,6c-1.2,0.376-3.613,0.617-5,0l-9-4c-1.355-2.393,0.466-4.855,2-6.832
			C55.957,66.386,58.698,67.9,61,69.037z"/>
		<path style="fill:#383838;" d="M83,58c2.02,2.197-1.438,6.601-4.097,5.858c-0.698,0.123-1.368,0.371-1.953,0.774
			C74.919,62.121,73.348,59.227,71,57l2.102-2.898c0.243-1.627,1.489-3.041,3.74-4.243c1.705,1.801,4.146,2.651,7.323,2.551
			C85.108,55.057,84.719,56.92,83,58z"/>
		<path style="fill:#2F2F2F;" d="M86,58l2.663,3.394c-2.253,1.831-4.474,3.743-6.663,5.738c-1.036,0.597-2.551,0.816-2.915,0.004
			c-0.463-1.034-0.397-2.596-0.182-3.277C79.894,61.669,81.658,59.991,83,58C83.63,54.682,84.63,54.682,86,58z"/>
		<path style="fill:#2B2B2B;" d="M91.869,66c-0.966,3.496-5.961,2.325-8.601,0.929c0.829-1.58,2.027-2.993,3.594-4.238
			C88.379,58.614,92.369,62.228,91.869,66z"/>
		<path style="fill:#A2A2A2;" d="M93,61c-1.124,1.591-1.134,3.402,0,5h-1.131c-1.018-1.242-0.969-3.063-2.827-4.456
			c-2.393,1.987-3.72,4.114-5.774,5.385c-0.372,0.152-0.922,0.003-1.268,0.202c3.393-6.029,6.009-2.785,4-9.131
			C88.113,56.654,91.315,59.444,93,61z"/>
		<path style="fill:#A8A8A8;" d="M59,52v3h-1c3.297-2.088-11.39-2.669-10.952-2.673c-1.762,0.02-3.524,1.428-5.092,1.629
			C40.045,51.596,42.524,49.885,45,50C49.389,52.032,54.212,52.23,59,52z"/>
		<path style="fill:#2F2F2F;" d="M87.388,70.659c-0.476,0.325-0.737,1.237-1.283,1.446c-0.897-0.062-2.362,0.305-3-0.69
			c-0.379-0.59,0.042-1.647,0.021-2.289C84.798,68.863,86.999,68.622,87.388,70.659z"/>
		<path style="fill:#A2A2A2;" d="M67,58c-2.029,2.395-5.533,2.19-8,4l-0.115-1.1C60.951,58.762,64.175,58.481,67,58z"/>
		<path style="fill:#B8B8B8;" d="M92,5c-1.041,1.745-2.304,2.972-2,5c-1.287-0.776-2.605-0.549-4,0c0.849-1.32,2.507-2.616,1-4L92,5
			z"/>
		<path style="fill:#AEAEAE;" d="M101,45c0,2.334-2.065,3.926-4,5c-0.318,0.933-0.652,0.929-1,0c-2.21,0.359-4.21,0.692-6,1
			c3.295,0.706,5.755,2.921,7,6c-0.415,0.819-1.081,1.695-2,2c-3.2,0.833-7.42-5.262-9-8c-2.334-1.922-0.811-4.643,2-3l1.605-0.904
			C93.495,47.582,96.96,46.55,100,44c0.284-0.873,0.618-0.86,1,0V45z"/>
		<path style="fill:#B4B4B4;" d="M103,57h-6c-1.988-1.401-3.892-4.731-1-6c-0.88-0.331-0.879-0.664,0-1c0.29-0.002,0.755,0.136,1,0
			c0.911,1.63,0.067,4.713,1.92,5.827C100.279,56.644,102.668,55.415,103,57z"/>
		<path style="fill:#BEBEBE;" d="M51.039,5.039c-0.76,0.972-1.624,3.52-0.816,4.682c2.764,0.717,5.696,0.1,8.684,0.282
			c0.211-1.717-0.028-2.855-0.28-4.003C59.945,7.406,60.79,9.578,63,9l2,2c-0.247,2.329-1.298,2.095-3.143,1.385
			C62.379,13.901,62.371,14.8,61,16h-4c0.105-2.819-1.531-3.823-4.907-3.012C52.317,14.234,52.619,15.571,53,17h-5l-1-2
			c0.877-0.041,1.763,0.267,1.955-0.601c0.45-2.033,0.921-7.212-1.955-9.249L51.039,5.039z"/>
		<path style="fill:#353535;" d="M120,35.215c-0.817,0.713-1.937,0.927-3,0.785c-1.667,2.417-2.667,2.083-3-1
			c-0.291-0.514-0.88-1.396-1-2c-0.192-0.961,0.105-2.024,0-3l6.016-0.058C121.071,31.24,121.199,33.608,120,35.215z"/>
		<path style="fill:#B2B2B2;" d="M117,36c-2.903,1.515-1.914,5.086-2,8c-0.007,1.142-0.827,1.119-1,0c-0.927-1.983-2.18-2.824-4-4
			c-0.445-0.099-0.734-0.686-1-1c1.595,0,3.195-0.107,4.838,1.066c0.38-2.151,0.079-3.54,0.162-5.066
			C114.82,35.641,115.994,35.865,117,36z"/>
		<path style="fill:#1F1F1F;" d="M119.126,26.916c1.583-1.128,2.142-0.444,0.874,1.084c-1.085,1.225-3.757,1.756-5,0l1.969-1.031
			L119.126,26.916z"/>
		<path style="fill:#2E2E2E;" d="M120,28c-0.05-0.51-0.354-0.975-0.874-1.084c-0.451-0.769,0.186-2.58,0.835-2.136
			c0.805,0.551,1.933,1.224,1.93,1.769C121.889,27.196,120.355,27.599,120,28z"/>
		<path style="fill:#AFAFAF;" d="M98.126,63.215L93,61c-2.275-2.09-0.463-3.95,2-2C96.146,60.28,97.224,61.752,98.126,63.215z"/>
		<path style="fill:#AFAFAF;" d="M113,28c-0.791-0.966-1.044-2.311-1.778-2.824c-1.326-0.927-3.258,1.187-4.325-0.754
			c2.917-0.661,5.198-0.361,6.412-2.645C112.969,23.825,112.974,25.93,113,28z"/>
		<path style="fill:#303030;" d="M114,44c-1.717-0.88-3.096-2.299-4-4c0.975,0.216,1.998,0.342,2.777,0.729
			C114.098,41.384,114.209,42.758,114,44z"/>
		<path style="fill:#BABABA;" d="M35,58c0.139,0.278-0.081,0.697,0,1l-1.306,2.007c-3.998-0.274-7.928-0.053-11.791,0.663
			C22.076,63.034,21.514,63.543,20,64c2.656,0.319,2.541,1.239,0,2c1.355,0.613,2.456,1.902,3.303,3.867
			C27.893,70.054,30.125,71.431,30,74c-2.51,0.622-5.013-1.167-7.874-0.866C20.44,73.397,18.948,75.052,18,76
			c0.126-1.768,1.682-2.757,2.376-5.483C17.13,68.184,11.482,67.788,9,71v-5h1l6.977-0.02C16.532,62.979,16.873,60.652,18,59
			c1.857-1.524,3.857-2.858,6-4c0.284-0.873,0.618-0.86,1,0C28.364,55.688,31.697,56.688,35,58z"/>
		<path style="fill:#2C2C2C;" d="M9,56.848c2.327-2.063,3.53-2.26,3.61-0.592L15,57c0.244-0.91,0.58-0.888,1,0
			c2.665-1.559,3.585-0.636,2,2c1.432,2.548,1.166,5.579,0.872,8.96C9.418,68.005,11.054,68.847,10,66l-3-8.105
			C7.538,57.503,8.263,56.797,9,56.848z"/>
		<path style="fill:#3B3B3B;" d="M9,37c2.379,1.191,3.379,2.525,3,4c-0.976,0.867-3.722,0.644-5,0
			c0.123-0.543-0.211-0.994-0.553-0.973c-0.861,0.051-1.563-0.553-2.132-0.271L5,37c0.044-0.487-0.34-1.045,0.39-2.099
			C6.393,36.213,7.594,36.769,9,37z"/>
		<path style="fill:#B5B5B5;" d="M15.192,43.958c-1.383,2.659-2.539,0.68-1.221,0.251c0.564-0.183,0.881,0.193,0.994,0.799
			C13.776,49.359,13.308,52.829,15,57c-2.004,0.068-4.002-0.014-6-0.152c1.789-0.723,1.804-2.622,2.021-4.844L12,42
			c-0.867-0.183-0.83-0.523,0-1C13.511,39.71,16.892,42.509,15.192,43.958z"/>
		<path style="fill:#BFBFBF;" d="M7,41h5c0.03,0.33,0.031,0.681,0,1l-7.084-0.172C5.412,40.823,6.34,41.136,7,41z"/>
		<path style="fill:#C7C7C7;" d="M22,32c-1.487,4.148-1.331,7.967-0.215,12.446c2.005,1.316,1.968,1.487-0.202,2.593
			c-1.967,2.272-5.742-0.518-6.391-3.081C14.833,42.395,13.511,41.398,12,41l-3-4c3.503,0.576,5.177,4.019,8.882,5.685
			C18.184,39.137,17.904,36.024,18,33c0.009-0.298,0.11-0.73,0-1C18.002,29.073,21.341,29.197,22,32z"/>
		<path style="fill:#161616;" d="M53,93c-0.541,0.711-1.627,1.161-2,2c-3.253,1.976-4.919,0.642-5-4c0-1.699-0.746-4.05,1.438-4.115
			c1.758-0.052,3.019,0.302,3.757,1.988L53,93z"/>
		<path style="fill:#A1A1A1;" d="M51,95c-0.759,1.709-3.356,1.196-5,2v-6c1.018,0.898,0.721,2.623,1.261,3.346
			C48.188,95.588,49.927,94.993,51,95z"/>
		<path style="fill:#C9C9C9;" d="M46,83c1.89,1.267,1.285,2.774-1,3c-2.63-1.518-5.734,0.912-7.26,3.276
			c-1.38,0.136-2.766-0.173-3.861-1.045C33.483,87.539,32.779,87.126,32,87v-1c1.157-1.56,3.171-2.313,6.04-2.259
			C41.441,81.931,44.094,81.685,46,83z"/>
		<path style="fill:#333333;" d="M21.843,14.097C22.474,15.181,23.153,15.278,24,16c1.721,1.587,2.054,2.644,1,3.171
			c1.339,1.403,0.676,1.948-1,0.829l-5,4c1.444,1.464,0.809,2.096-1,1c-1.82,0.144-3.453,2.659-6.336,1.973
			c1.167-5.322,4.416-9.082,6.396-14.395C18.63,11.05,21.232,13.049,21.843,14.097z"/>
		<path style="fill:#9A9A9A;" d="M37,16c0.655,2.681,0.026,5.74-1.887,9.179C34.945,28.747,33.907,31.354,32,33
			c-2.484,2.535-7.997,1.884-10-1c-1.675-2.761,0.821-4.139,3-2c4.179-0.469,6.104-3.632,5.777-9.489L32,19
			c-0.873-0.284-0.86-0.618,0-1c1.594-0.315,3.22-1.69,4-3c0.305-0.491,0.639-0.478,1,0C37.873,15.284,37.86,15.618,37,16z"/>
		<path style="fill:#CDCDCD;" d="M30,6c-0.063,2.521,2.261,3.64,4,5l3,4h-1c-2.832-1.545-4.45-4.598-7.388-6.609
			C26.076,6.655,23.239,4.91,23,2C28.973,5.866,26.022,7.36,30,6z"/>
		<path style="fill:#BCBCBC;" d="M32,18v1c0.021,2.442-2.199,2.62-4,2c-1.464,0.136-2.464-0.474-3-1.829
			c-0.502-0.997-0.835-2.067-1-3.171C26.199,17.876,29.046,18.584,32,18z"/>
		<path style="fill:#3A3A3A;" d="M28,21c3.052,1.751,0.755,10.343-3,9c-0.74,0.784-2.49,0.804-3,2h-4
			c-0.594-1.456-1.972-2.338-3.031-3.555C16.492,27.119,17.408,26.195,18,25c0.333-0.113,0.813-0.699,1-1l5-4
			c0.359-0.142,0.656-0.751,1-0.829c0.775-0.031,1.645-0.26,2.476-0.128C28.232,19.161,28.053,20.392,28,21z"/>
		<path style="fill:#B1B1B1;" d="M42,11c-1.471-0.246-2.838-1.087-4-2c0.822-1.201,1.523-2.478,3-3C39.994,7.818,40.555,9.602,42,11
			z"/>
		<path style="fill:#B0B0B0;" d="M47,15c-1.907,0.09-3.254-1.424-4-3C44.888,11.988,46.189,13.379,47,15z"/>
		<path style="fill:#242424;" d="M35,43l5,3c0.806,1.438,2.8,2.003,4,3c0.194,0.395,0.599,0.814,1,1
			c0.07,2.056-2.273,2.371-3.045,3.955c-1.746,0.223-3.065,2.265-4.575,2.992C36.289,56.709,35.151,55.956,34,56l-3.947-3.093
			c-4.602-2.564-5.898-4.84-3.89-6.829c-0.783-2.934,3.28-4.678,5.916-3.782c0.117-0.897,0.43-0.903,0.921-0.089
			C34.721,40.056,35.407,40.294,35,43z"/>
		<path style="fill:#363636;" d="M47.843,33.974C46.932,36.167,44.972,37.748,43,39c-1.598-2.651-3.562-6.405,0-8
			C44.387,32.5,47.507,31.62,47.843,33.974z"/>
		<path style="fill:#AAAAAA;" d="M77,45l1.764,1.235c-0.808,3.23,1.004,4.259,5.435,3.086L86,51c1.416,1.909,2.131,5.407,0,7
			c-0.677-0.757-2.362-0.947-3,0c-0.091-0.81,1.467-2.699,0.701-3.622c-2.817-3.395-8.282-3.468-10.599-0.276
			C72.985,52.695,73.008,51.008,72,50c0.695-0.228,2.062,1.106,2.642,0.76C77.001,49.353,75.994,46.59,75,45H77z"/>
		<path style="fill:#A6A6A6;" d="M70,48c-2.333-0.089-3.891-2.172-5.167-3.97C67.366,43.587,68.438,46.438,70,48z"/>
		<path style="fill:#333333;" d="M88,41c2.272,2.269,2.501,3.383,0.687,3.341L88,48c-1.167,0.63-1.297,2.048-2,3
			c-2.717,0.53-6.473,1.552-9.027-0.955C76.846,48.499,76.535,46.086,77,45l3-7l-0.028-2.375C85.345,35.798,88.021,37.589,88,41z"/>
		<path style="fill:#B7B7B7;" d="M78,32c0.726-1.074,1.059-0.741,1,1c1.256,3.728,5.493,3.144,9,3c2.988,0.074,2.758,4.463,0,5
			c-0.911-1.379-1.433-3.56-2.709-3.901C83.669,36.666,80.86,36.952,80,38c0.071-3.571-3.805-4.127-6.213-6.126L78,32z"/>
		<path style="fill:#494949;" d="M93,35c1.632,2.966,4.629,4.653,7,7c0.219,0.415,0.366,0.805,0.259,1.105
			c-0.193,0.543-11.003,0.977-11.488,0.667L88,41v-5l3-2C92.494,33.039,93.842,33.098,93,35z"/>
		<path style="fill:#B6B6B6;" d="M96,32c-0.976,1.034-2.373,1.673-3,3c-0.369-0.533-1.467-0.653-2-1v-1
			C92.695,32.732,94.277,31.99,96,32z"/>
		<path style="fill:#AFAFAF;" d="M79,33c-0.124-0.368-0.887-0.554-1-1c-0.104-1.399,0.691-2.548,2-3L79,33z"/>
		<path style="fill:#505050;" d="M57,16c-0.404,0.29-1.505,0.049-1.776,0.677c-0.187,0.434-0.239,0.902-0.185,1.31
			C54.178,18.054,53.592,17.499,53,17c-1.008-0.85-2.551-0.953-2.824-1.864c-0.246-0.821-0.607-3.583,0.131-3.819
			c2.694-0.808,5.676-0.124,8.592-0.302C59.612,13.269,57.971,14.663,57,16z"/>
		<path style="fill:#363636;" d="M65,11c0.692,0.692,2.477,0.808,2.797,1.663C68.229,13.815,66.962,15.005,67,16
			c-1.078,0.648-1.453,0.984-2,2.161L63,18c0.063-0.839-1.143-2-2-2c-0.866-1.451-1.94-4.98-0.315-5.825
			C62.263,10.036,63.872,11.217,65,11z"/>
		<path style="fill:#D5D5D5;" d="M42,19l-2,1c-2.617,0.516-3.314-1.873-3-4v-1C39.339,15.203,40.418,17.584,42,19z"/>
		<path style="fill:#B4B4B4;" d="M100,42h1v2h-1c-1.926,1.823-4.913,2.497-8.961,2.024C90.554,47.883,90.098,48.662,88,48v-7
			C90.231,44.378,99.024,43.306,100,42z"/>
		<path style="fill:#353535;" d="M40,20c1.531,3.106,3.284,6.632,1.263,10.358c-0.961,1.772-3.327,1.288-5.332,1.978
			c0.911,1.219,2.198,0.422,3.879,0.959l2.281,9.695c0.202,0.859-0.063,1.612-0.127,2.436C41.907,46.159,40.818,46.084,40,46l-5-3
			c-0.66-0.069-1.277-0.863-2-0.793c-0.565-0.899-0.836-7.627-0.354-8.199c0.594-0.705,2.664-0.462,2.556-0.39
			C34.767,33.907,31.443,34.474,32,33c-0.05-5.907,1.918-11.967,5-17C39.199,16.425,39.251,18.48,40,20z"/>
		<path style="fill:#454545;" d="M40.929,67.079c1.413-1.363,1.954-0.722,0.866,0.987l3.396,3.869
			c1.452-1.466,2.017-0.869,0.877,0.953c-0.101,1.458,1.178,2.45,2.321,4.824c-4.868,0.411-9.347,0.53-14.468,0.102
			C32.376,77.685,31.598,74.147,32,73l4-9C38.301,63.423,39.589,65.552,40.929,67.079z"/>
		<path style="fill:#2D2D2D;" d="M46,83c-4.621,1.79-8.983,3.917-14,3c0-1.651-0.453-5.537,1.42-6.501
			c4.668-1.371,9.507-0.033,14.618-0.523L46,83z"/>
		<path style="fill:#454545;" d="M34,66c0.29,2.033-0.377,4.366-2,7l-2,1c-1.743-1.609-4.376-1.345-6.951-2.113
			C20.418,71.102,20,68.105,20,66c0.072-0.55,0.16-0.982,0.299-1c2.734-0.346,10.451-0.427,13.048,0
			C33.613,65.044,33.815,65.467,34,66z"/>
		<path style="fill:#333333;" d="M35,59c0.439,1.646,0.949,3.288,1,5c-0.238,0.924-0.574,0.901-1,0
			c-3.508,1.611-10.139,1.31-14.355,1c-0.238-0.017-0.446-0.45-0.645-1c0-1.001-0.353-2.219,0.174-3.29
			C21.353,58.315,32.551,59.111,35,59z"/>
		<path style="fill:#444444;" d="M46.068,72.887c0.022-0.323-0.575-0.827-0.877-0.953l-3.396-3.869l-0.866-0.987
			c0.325-1.208-1.478-2.127-0.305-3.536c3.867,0.564,7.194,2.708,8.769,5.794c0.684,1.341-0.969,3.731-0.488,5.716L46.068,72.887z"
			/>
		<path style="fill:#373737;" d="M30.053,52.907L34,56l1,2l-9.11,0.096C24.711,57.243,24.891,56.003,25,55
			c-0.762-1.599-1.371-6.006,0.601-6.088L30.053,52.907z"/>
		<path style="fill:#333333;" d="M40.918,62.539c0.345,0.815-2.444,1.293-3.066,0.557c-0.587-0.695-0.623-1.999-1.729-3.866
			C37.678,59.189,39.929,60.204,40.918,62.539z"/>
		<path style="fill:#313131;" d="M45,86c0.047-1.101,0.518-2.049,1-3c0.381-0.147,1.085,0.006,1.441,0.112
			c0.768,0.228,0.314,1.486,1.519,2.517C47.958,85.984,45.994,86.484,45,86z"/>
		<path style="fill:#2F2F2F;" d="M95,59c-1.068,0.355-1.416,1.173-2,2c-3.025,0.911-5.047-0.814-7-3c-0.759-2.397-1.588-4.848,0-7
			C89.872,51.757,92.453,56.154,95,59z"/>
		<path style="fill:#4E4E4E;" d="M100,44c-0.431,3.705-3.878,5.728-8.054,5.016C90.574,48.782,88,49.741,88,48
			c0.943-0.509,0.682-2.855,1.374-3.659C92.905,43.39,96.633,44,100,44z"/>
		<path style="fill:#313131;" d="M96,51c0.522,1.972,1.207,3.941,1,6c-3.107-0.292-5.122-3.681-7-6C91.33,50.176,94.476,50.24,96,51
			z"/>
		<path style="fill:#4E4E4E;" d="M96,50c0.054,0.317-0.082,0.69,0,1h-6c-0.417,0.134-1.094-0.034-0.93-0.953L96,50z"/>
		<path style="fill:#333333;" d="M24,55c0.209,1.821-0.215,3.192-1.995,3.612C20.6,58.944,19.307,59.131,18,59
			c-0.48-0.854-0.925-1.776-2-2c-0.517-3.938,1.763-7.195,5.659-8l0.705-1.229C25.326,47.498,25.872,49.908,24,55z"/>
		<path style="fill:#BEBEBE;" d="M26.163,46.079c0.405,2.825,2.435,4.481,3.89,6.829c-1.769,0.123-2.96-0.976-4.218-2.557
			C24.421,51.82,25.123,53.497,25,55h-1c-0.272-2.375,0.794-5.743-2.341-6c-2.007-0.47-2.023-1.343-0.076-1.961
			c-0.121-0.884-0.425-1.833,0.202-2.593C22.626,40.933,28.349,42.799,26.163,46.079z"/>
		<path style="fill:#7F7F7F;" d="M35,64c0.844,0.924,0.302,2.325-1,2H20v-2H35z"/>
		<path style="fill:#464646;" d="M15.192,43.958c2.484,0.119,4.264,1.962,6.391,3.081c0.086,0.632-0.145,1.33,0.076,1.961
			c-1.788,2.743-3.639,5.422-5.659,8c-0.308-0.064-0.684-0.011-1,0c-5.572-1.484-2.395-8.636-1.743-14.003
			C14.051,43.473,14.525,43.814,15.192,43.958z"/>
		<path style="fill:#3F3F3F;" d="M32,33c2.313-0.17,2.509,0.457,0.587,1.881c0.123,2.631-0.047,5.103-0.508,7.415
			c-1.504,1.853-3.893,2.603-5.916,3.782c-0.228-1.59-3.289-1.451-4.378-1.633c-3.035-0.56-2.757-3.506-2.922-6.406
			C18.682,34.864,19.107,32.77,22,32C25.393,32,28.656,32.478,32,33z"/>
		<path style="fill:#A3A3A3;" d="M24,20c-1.109,1.925-2.643,3.912-5,4C19.875,22.59,21.811,19.774,24,20z"/>
		<path style="fill:#3C3C3C;" d="M32,19c2.128-0.763-0.669,12.046-2.414,12.055C28.019,31.063,25.72,31.546,25,30
			c2.158-2.4,2.318-5.993,3-9C28.336,19.519,30.789,18.71,32,19z"/>
		<path style="fill:#BEBEBE;" d="M33,42.207l-0.921,0.089L32,33c1.317,0.206,2.834-0.57,4.018,0.511
			c-0.963,0.858-2.719,0.335-2.94,1.536C32.598,37.652,33.221,39.981,33,42.207z"/>
		<path style="fill:#A0A0A0;" d="M40,46c-2.022-0.207-4.171-1.033-5-3C37.185,43.229,38.942,44.113,40,46z"/>
		<path style="fill:#D2D2D2;" d="M34,56c-2.216,0.084-2.962-1.503-3.947-3.093C31.946,52.776,33.231,54.461,34,56z"/>
		<path style="fill:#A7A7A7;" d="M32,73c-0.166-2.565,1.578-4.567,2-7c0.111-0.637,1.199-1.168,1-2c0.323,0,0.688,0.078,1,0
			C36.095,67.2,33.869,70.658,32,73z"/>
		<path style="fill:#B0B0B0;" d="M45.192,71.934c-1.317-0.549-3.477-2.024-3.396-3.869C43.6,68.581,45.046,70.022,45.192,71.934z"/>
	</g>
</g>
</svg>
