<?xml version="1.0" encoding="iso-8859-1"?>
<!-- Generator: Adobe Illustrator 30.1.0, SVG Export Plug-In . SVG Version: 9.03 Build 0)  -->
<svg version="1.1" id="Layer_1" xmlns="http://www.w3.org/2000/svg" xmlns:xlink="http://www.w3.org/1999/xlink" x="0px" y="0px"
	 viewBox="0 0 166 202" style="enable-background:new 0 0 166 202;" xml:space="preserve">
<g>
	<g>
		<path style="fill:#FDFDFD;" d="M84,0l53.265,35.673C147.19,42.32,156.819,48.202,166,55v8c-1.254,0.369-1.207,2.399-1.081,3.914
			c0.523,6.286-0.157,11.956-0.833,18.024c-0.579,5.2,1.834,21.95-5.13,20.166L9.211,196.993C6.643,198.569,4.609,199.487,4,202H0
			v-9l6.574-34.816L71.448,14.731C73.941,9.219,75.873,4.446,79,0H84z M80.016,3.076c-1.258,1.231-2.467,3.136-1.402,4.814
			l-0.037,0.777c-2.345,0.245-2.427,2.75-3.475,4.333c-0.607,0.917-0.969,2.074-1.092,3.068c-2.427,3.965-4.055,8.126-6.185,12.915
			c3.558,0.2,5.76,0.047,8.175,0.016l-0.181,2.181c-2.044-1.357-4.731-1.56-7.498-0.988c-0.995,1.746-1.023,3.203-1.122,4.634
			c-1.235-0.436-2.803,0.091-3.029,1.362c-0.29,1.628-1.036,3.151-1.192,4.811c-0.222,2.371-2.14,3.609-2.874,5.782l-0.795,2.354
			c-0.09,0.266-0.12,0.605-0.136,0.908c-2.379,1.383-3.077,4.202-3.094,6.84c-0.326,0.438-0.652,0.888-1.05,1.265
			c-1.305,1.236-2.214,2.872-2.654,4.562l-0.339,1.302c-0.575,2.212-2.433,3.959-2.794,6.616L57,71l-0.843,1.016
			c0.427,0.146-5.908-0.362-7.401,0.152c-0.742,0.256-0.544,1.472-0.765,2.079c-1.304,1.278-2.347,2.971-2.908,4.753
			c-0.193,0.612-0.8,1.437-1.087,2.076l-3.971,8.85c-0.717,1.598-3.021,2.95-1.131,4.85c-0.124,1.524,0.007,3.052,0.325,4.546
			l-1.257,0.73c-2.626-0.447-3.642,1.816-4.545,4.218c-1.789,4.76-4.974,8.79-4.552,13.582c-0.307-0.13-0.981-0.391-1.415-0.307
			c-2.352,5.513-5.634,11.156-7.249,16.675c-0.094,0.322-0.049,0.686-0.126,1.013c-3.423,3.798-4.551,9.331-6.966,13.766
			c-0.285,0.162-0.877,0.262-1.054,0.659c-0.192,0.431-0.007,0.93,0.412,1.208c0.281,0.187,0.756,0.225,1.217,0.269l0.087,0.903
			c-0.307,0.312-0.579,0.654-0.822,1.018c-2.06,0.569-3.779,3.06-4.24,5.646c-2.356,13.196-4.733,26.056-6.325,39.39l31.455-19.167
			c0.789-0.48,1.709-1.136,2.249-1.795c6.775-3.159,12.892-7.613,19.67-11.672c0.771-0.462-0.404-2.295-0.559-2.485
			c1.952,4.323,22.101-11.547,22.585-11.853c-1.563,0.988,21.279-10.536,21.055-12.989c3.839-0.825,7.663-3.105,10.16-6.131
			l0.139-1.01c5.202-0.269,9.512-4.102,13.719-7.045c0.427-0.298,0.851-0.601,1.257-0.927c1.682-0.3,3.293-1.16,3.95-2.793
			c0.249,0.184,0.571,0.215,0.883,0.36c0.5,0.233,0.703-0.483,1.052-0.586c1.597-0.472,2.443-2.391,2.154-4.035
			c5.159,1.026,10.799-4.191,16.009-7.303c1.411-0.843,2.452-1.133,3.63-2.357c1.967-2.044,6.507-2.324,8.382-5.004
			c2.067-2.954,1.014-8.203,0.694-11.416l-0.134-1.341c0.485-0.498,1.064-1.34,1.124-2.489l0.994-18.907L163.018,65l0.334-5.942
			c0.151-2.677-1.887-2.474-3.056-3.15c4.59-0.363-14.748-11.447-15.297-11.827c-0.535-0.755-1.165-1.58-2.142-2.018
			c-6.356-2.856-10.865-8.992-13.774-6.106c0.065-0.538,1.396-1.415,0.387-2.245c-1.929-1.586-3.83-2.682-6.035-3.935
			c-0.707,1.086-0.215,1.668-0.292,2.129c-0.958-1.428-1.168-3.624-3.097-3.885c-0.281-0.038-0.605-0.217-0.885-0.184
			C119.157,26.141,117.406,25.51,116,25c-0.404-0.267-0.658-0.827-1.092-1.045c-4.086-2.051-7.531-5.531-11.832-7.087
			c-0.272-0.425-0.48-1.089-1.004-1.396c-0.64-0.376-1.458-0.133-2.09,0.241c-0.31-3.31-5.228-2.913-6.336-4.612
			C92.04,8.641,87.323,7.214,85,8l0.021-1.021c0.697-0.111,1.474,0.451,2.966-0.512L82,3c-0.217-0.253-0.403-0.754-0.714-0.924
			C80.235,1.501,80.365,2.734,80.016,3.076z M37.536,96.215c-1.311,0.501-1.859,1.607-1.534,2.276
			c0.316,0.649,0.924,0.615,1.513,0.517c0.867-0.145,0.83-0.983,0.562-1.429C37.878,97.245,38.006,96.036,37.536,96.215z"/>
		<path style="fill:#3E3E3E;" d="M12.95,153.058c3.715-0.725,7.521-0.992,11.419-0.801c0.828-1.996,1.453-1.444,1.631,0.743
			c0.34-0.693,0.856-1.679,1.447-1.626c2.347,0.21,10.91,2.852,10.553,5.626c2.849,0.547,4.516,1.547,5,3
			c2.632,2.275-1.38,11.467-5,10c-1.211,3.089-2.598,6.065-4.16,8.927L2.385,198.094c1.592-13.335,3.969-26.194,6.325-39.39
			C9.172,156.118,10.89,153.626,12.95,153.058z"/>
		<path style="fill:#545454;" d="M37.963,100.052l11.956,0.859c1.624,1.447,3.903,2.352,6.835,2.715l-0.276,10.192
			c1.031,2.023,0.826,3.75-0.616,5.181c1.669,0.531,1.637,0.813-0.107,0.846c2.92,1.213-0.741,3.936-2.714,3.096
			c-7.158,0.563-14.406,0.701-21.744,0.416c-1.113-1.328-1.923-3.163-2.432-5.506c-0.422-4.792,2.763-8.823,4.552-13.582
			C34.321,101.869,35.337,99.605,37.963,100.052z"/>
		<path style="fill:#494949;" d="M98,137c1.582-1.146,2.047-0.456,0.84,1.131c0.224,2.453-22.618,13.977-21.055,12.989
			c-2.741,1.659-5.12,0.032-4.785-3.121c-2.454-1.225-3.952-2.381-5-5c-2.584,1.592-3.798-0.948-2-3c-1.581-0.727-1.581-1.727,0-3
			c-2.079-2.452,0.176-4.594,3-3c-0.012-0.896,0.03-1.897,0.633-2.602C70.474,130.414,83.411,125.842,85,128l1.942-1.373
			C90.506,130.28,94.192,133.738,98,137z"/>
		<path style="fill:#363636;" d="M150,51l7,3c0.588-1.488,2.987,0.545,3.297,1.908c1.168,0.676,3.206,0.473,3.056,3.15L163.018,65
			l-0.715,1.128l-13.017,1.298c-2.261,1.51-4.024,0.702-5.287-2.426l-2.594-1.184c-1.354,0.018-2.489-0.9-3.406-2.753
			c-2.384-0.695-5.64-2.783-3.105-4.816c-0.251-0.964,0.118-1.38,1.105-1.247l6.045-4.955C140.658,48.699,141.194,48.16,143,49
			l0.687-1.003L150,51z"/>
		<path style="fill:#606060;" d="M109,132c-2.497,3.026-6.321,5.306-10.16,6.131c-0.371-0.307-0.526-0.789-0.84-1.131
			c-3.704-3.281-7.382-6.64-11.036-10.079L87,125c-1.181-2.021-1.376-3.533-0.585-4.535c0.072-1.915,0.436-8.533,1.212-9.484
			c0.242-0.297,6.07,4.125,5.429,4.469C98.52,120.456,104.464,126.329,109,132z"/>
		<path style="fill:#393939;" d="M157,85c2.445-2.505,4.422,0.786,3.735,3.543l0.134,1.341c0.042,5.707-5.39,13.569-10.459,15.005
			c-0.588,4.044-3.255,1.844-3.927-1.244c0.244-6.649,0.097-13.16-0.443-19.534l7.734,0.339C155.221,82.394,156.296,82.577,157,85z"
			/>
		<path style="fill:#E9E9E9;" d="M103.076,16.869c3.543,3.449,6.678,7.235,9.404,11.356c-0.064-2.274,0.745-3.697,2.428-4.269
			c0.434,0.218,0.688,0.777,1.092,1.045l3.163,2.837c0.28-0.033,0.603,0.146,0.885,0.184c0.97,2.661-0.899,4.192-5.606,4.593
			c2.039,0.22,1.952,1.015-0.26,2.386c3.363,0.572,2.252,3.452-0.908,2.168c-1.152,1.07-0.909,2.347,0.727,3.832
			c1.405-1.325,1.92-0.767,1,1c1.187,0.291,1.873,0.937,1,2c-1.132,2.08-2.888,1.743-5.267-1.014L110,45
			c-0.754,1.475-1.598,2.053-2.914,1.236c-2.1,2.996-4.263,4.299-6.491,3.908C99.117,50.9,99.27,50.438,100,49l-1.712,1.132
			C90.871,47.1,83.442,44.39,76,42l-3.777-2.035c-3.574-0.571-6.258-1.829-8.053-3.776c0.226-1.272,1.794-1.798,3.029-1.362
			l1.468-1.603l13.183,5.156c1.105-2.77,3.943-1.178,3.337,1.568c3.167,0.634,6.399,1.494,9.696,2.58L96,45l2.264-1.007
			c1.518,1.489,2.988,1.199,4.41-0.869C100.055,43.582,98.497,42.874,98,41c-0.836-0.324-0.833-0.658,0-1
			c0.247-0.878,0.582-0.856,1,0l1.882-2.086c5.339,1.105,7.84,0.331,7.505-2.322l1.42-1.621c-3.88-4.454-6.516-9.173-7.908-14.157
			c-0.351,0.553-0.673,0.56-0.963-0.008c-2.677-0.413-2.674-2.139-0.953-4.092c0.632-0.374,1.45-0.617,2.09-0.241
			C102.596,15.78,102.804,16.444,103.076,16.869z"/>
		<path style="fill:#575757;" d="M46,159l5.073,1.927c1.735-2.155,3.65-1.397,4.239,1.081c0.835,0.375,0.785,0.696-0.113,0.966
			c0.155,0.191,1.33,2.024,0.559,2.485c-6.777,4.059-12.895,8.513-19.67,11.672l-0.85-0.513c0.793-2.252,1.714-4.458,2.761-6.619
			c2.569-2.785,3.521-6.532,5-10C43.034,158.394,45.444,157.062,46,159z"/>
		<path style="fill:#575757;" d="M73,148c1.721,0.813,3.009,2.389,4.785,3.121c-0.485,0.306-20.634,16.176-22.585,11.853
			l0.113-0.966l-0.72-2.179c0,0,3.994-4.379,11.982-13.138L69,147C69.851,145.856,71.184,146.189,73,148z"/>
		<path style="fill:#404040;" d="M148.163,108.661c-5.21,3.112-10.85,8.329-16.009,7.303c-2.314-1.358,0.392-10.023,2.846-8.965
			c1.146-2.188,3.749-5.264,6-5c2.054,1.882,3.826,2.454,5.318,1.718c1.951,2.46,2.926,3.689,2.926,3.689L148.163,108.661z"/>
		<path style="fill:#808080;" d="M99.982,15.714c0.659,1.266,1.037,2.66,0.953,4.092c0.017,2.232-0.627,3.63-1.934,4.194
			c-2.789,0.613-5.805,0.793-9.049,0.541C90.021,26.513,89.371,26.333,88,24c-3.057-1.24-3.39-2.574-1-4l3-4l3-4
			c-0.62-0.708-0.367-0.989,0.646-0.898C94.754,12.801,99.672,12.404,99.982,15.714z"/>
		<path style="fill:#3A3A3A;" d="M162.853,67.147l-0.994,18.907c-0.06,1.149-0.639,1.991-1.124,2.489
			C159.317,87.532,158.628,85.76,157,85c-2.178,0.424-2.512-0.91-1-4c-0.656-3.78-1.207-9.283,0-13
			C155.439,65.892,161.901,65.34,162.853,67.147z"/>
		<path style="fill:#6A6A6A;" d="M45,91.97c-5.468,1.556-7.126,0.875-4.974-2.044l3.971-8.85c2.954-0.431,6.051-0.978,9.292-1.64
			c0.023,4.129,0.231,8.29,0.623,12.485C50.768,91.141,47.797,91.158,45,91.97z"/>
		<path style="fill:#808080;" d="M76,29c-2.415,0.03-4.616,0.184-8.175-0.016c2.13-4.789,3.758-8.951,6.185-12.915
			c-0.389-1.363,5.443-0.04,5.858,0.196c0.317,0.18,3.423,6.145,3.317,6.494C83.047,23.213,77.184,28.056,76,29z"/>
		<path style="fill:#868686;" d="M85,8c2.323-0.786,7.04,0.641,8.646,3.102C93.412,11.388,93.197,11.688,93,12l-3,4l-3,4
			c0.314,2.18-0.58,3.017-2.68,2.508c-1.983,1.482-2.728,1.123-2.236-1.076c-0.61-2.327-1.771-4.156-3.483-5.488
			C79.792,15.235,80.591,13.92,81,12C81.039,9.217,81.749,4.217,85,8z"/>
		<path style="fill:#D1D1D1;" d="M76,42c1.421,0.842,2.2,2.241,2.335,4.195l17.927,3.578C97.509,48.858,98.755,48.6,100,49
			c0.095,0.429,0.293,0.825,0.596,1.144c2.281,2.393,2.996,4.632,2.144,6.719c-2.241,1.801-4.047-0.676-4.53-2.85
			C97.8,54.875,97.396,54.87,97,54c-7.342-0.912-14.676-1.912-22-3l-1.901-1.522c0.475-2.447-1.542-3.224-6.049-2.331
			C67.56,49.84,66.877,51.458,65,52c-1.369,2.906-6.611,1.263-5.827-1.955c0.017-0.303,0.047-0.642,0.136-0.908l0.83-1.131
			c2.454,0.266,2.442-0.142-0.035-1.224c0.734-2.173,2.652-3.411,2.874-5.782c1.728-0.093,3.618,0.317,5.669,1.23
			C71.348,41.762,73.799,41.685,76,42z"/>
		<path style="fill:#525252;" d="M122.858,123.945c-4.207,2.943-8.517,6.775-13.719,7.045c-1.542-0.527-3.487-2.675-2.139-3.99
			c-1.001-3.243,3.329-5.241,6-4l5-3c2.625-3.157,4.438-2.15,5.44,3.021L122.858,123.945z"/>
		<path style="fill:#717171;" d="M88,31c2.741,0.214,4.074,1.214,4,3l-6.813,5.949l-3.337-1.568C80.069,38.939,79.663,38.384,81,37
			l-4-5c-0.896,0.452-1.29,0.179-1.181-0.819L76,29c1.193-1.344,2.193-1.677,3-1C82.026,26.193,86.639,27.762,88,31z"/>
		<path style="fill:#767676;" d="M55.057,96.122c-4.257,4.231-10.494,6.385-15.837,3.201c-0.318-1.494-0.449-3.022-0.325-4.546
			c-0.005-2.015,2.03-2.951,6.105-2.806c2.138-0.761,4.432-0.868,6.882-0.32C53.609,89.018,54.972,93.942,55.057,96.122z"/>
		<path style="fill:#616161;" d="M76,42c-1.483,3.019-11.451,3.418-13.021-1c0.156-1.66,0.902-3.183,1.192-4.811
			c1.459-0.975,10.706,2.516,11.224,2.951C76.258,39.863,75.998,40.999,76,42z"/>
		<path style="fill:#E9E9E9;" d="M163.018,65l-0.165,2.147c-2.342,0.011-5.017-0.93-6.853,0.853c-0.247,0.876-0.583,0.855-1,0
			c-1.006,1.524-3.011,2.301-6.015,2.331l-4.001,6.779c1.17,1.758,0.685,3.917-1.207,4.898c0.56,1.624-0.412,3.619-2.913,5.987
			c1.564,3.549-0.47,9.163-3.864,11.005c-0.333,0.855-0.666,0.855-1,0l-1.561-2.558c2.038-6.116,3.857-12.242,5.458-18.379
			c1.596-2.853,2.741-5.905,3.435-9.156c-1.389-1.426-1.5-2.729-0.333-3.907h1c2.235,2.381,5.088,1.96,8.466,1.484L163.018,65z"/>
		<path style="fill:#616161;" d="M75.819,31.181C76.216,31.444,76.585,31.765,77,32l4,5c0.036,0.498,0.685,0.926,0.85,1.381
			c0.1,0.158-0.226,1.541-0.725,1.364l-13.926-4.918c0.098-1.431,0.127-2.888,1.122-4.634
			C71.088,29.621,73.775,29.824,75.819,31.181z"/>
		<path style="fill:#DDDDDD;" d="M55.057,96.122c1.944,1.404,1.169,2.489-0.536,3.74c3.523,0.409,5.727,1.712,6.61,3.909
			c0.662,0.755,0.285,1.164-1.131,1.228c-1.181,3.34-1.515,7.006-1,11c0.864,0.308,0.838,0.656-0.026,1.042
			c0.333,1.384-1.85,2.948-3.112,1.958c0.17-4.669,0.393-9.604-0.121-14.632c-6.24-2.051-12.375-1.878-17.778-4.315l1.257-0.73
			C44.707,100.095,50,98.171,55.057,96.122z"/>
		<path style="fill:#525252;" d="M151.793,106.304c-2.376,1.482-3.529,0.426-1.383-1.415l7.391-10.073
			c1.363-1.857,3.083-2.761,3.068-4.932c0.321,3.213,1.373,8.462-0.694,11.416C158.3,103.981,153.76,104.261,151.793,106.304z"/>
		<path style="fill:#414141;" d="M142.858,42.063c1.507,2.285,0.758,7.404-1.858,3.937c-2.213,2.428-11.208-2.326-10.874-5.604
			c-1.77-0.076-2.549-3.597-1.041-4.44C131.993,33.071,136.502,39.207,142.858,42.063z"/>
		<path style="fill:#797979;" d="M114.908,23.955c-0.127,2.589,0.014,5.63-2.275,7.752c-2.21-2.85-9.704-12.504-9.557-14.839
			C107.377,18.424,110.822,21.904,114.908,23.955z"/>
		<path style="fill:#717171;" d="M28.866,117.852L31,124c1.754,2.734-0.154,4.482-2.798,5.67c-1.055,2.688-2.543,3.798-4.464,3.33
			c0.922,2.362-2.922,3.876-3.535,1.22c1.615-5.518,4.898-11.162,7.249-16.675C27.885,117.461,28.56,117.722,28.866,117.852z"/>
		<path style="fill:#B9B9B9;" d="M157,85l-9.75,0.148c0.488,3.092-2.544,26.11,3.16,19.742c0.338,0.468,0.443,2.229,1.383,1.415
			c-1.178,1.224-2.219,1.514-3.63,2.357c-0.683-4.849-5.958-3.571-7.163-6.661c0.216-1.546,1.054-2.274,2.337-1.445
			c0.601-0.235,1.118-13.016,0.603-12.628c-1.07,0.805-1.67,1.006-3.077,0.067c0.916-2.013,1.73-4.1,2.913-5.987
			c2.117-0.799,4.771-0.796,7.961,0.01L155,81c0.284-0.873,0.618-0.86,1,0L157,85z"/>
		<path style="fill:#7B7B7B;" d="M56.157,72.016c3.513-2.025,8.079,0.207,4.147,3.396c0.277,0.965-0.167,1.204-1.21,0.84L55,79
			l-1.192,1.798C53.172,79.836,52.236,79.237,51,79c-2.632,0.621-4.685-2.543-3.008-4.753c0.221-0.606,0.023-1.823,0.765-2.079
			C50.249,71.653,56.584,72.161,56.157,72.016z"/>
		<path style="fill:#656565;" d="M57,71l-7.757-0.371c0.36-2.658,2.218-4.405,2.794-6.616c0.676-0.644,4.451-1.996,5.013-1.748
			c0.954,0.421,3.291,8.215,3.1,9.471C60.071,72.25,57.318,72.221,57,71z"/>
		<path style="fill:#777777;" d="M65,52c2.424-1.183,2.784-0.303,1.176,1.824C68.21,55.08,66.893,55.499,65,56
			c2.092,2.347-0.618,4.601-2.835,2.165C61.215,59.936,59.827,59.881,58,58c-1.262,1.136-2.127,0.393-1.921-1.115
			c0.018-2.638,0.715-5.456,3.094-6.84C60.949,51.104,62.989,51.581,65,52z"/>
		<path style="fill:#D2D2D2;" d="M87,107c4.584,2.944,6.876,4.416,6.876,4.416c3.62-2.574,5.994-2.713,7.124-0.416
			c0.815,2.08-0.418,3.698-3.699,4.853c2.814,3.282,5.865,6.231,9.152,8.847L107,127c0.43,1.34,1.032,2.922,2.139,3.99L109,132
			l-20.63-20.012c-1.369,4.639-1.585,8.817-1.37,13.012c-3.006,0.638-4.223-1.334-3-4c0.147-4.384,0.147-9.051,0-14
			c0.104-0.894,0.451-0.84,1,0C85.567,105.099,86.447,105.118,87,107z"/>
		<path style="fill:#636363;" d="M20,141c2.519,3.133-2.228,8.753-5.439,9.318c-1.683,0.296-2.556,0.234-1.451-1.318
			c2.415-4.435,3.543-9.968,6.966-13.766c1.86-0.79,2.765-0.55,2.715,0.718C21.546,137.284,20.615,138.967,20,141z"/>
		<path style="fill:#DFDFDF;" d="M37,136l0.54,2.292l-8.112,5.474C29.249,146.241,28.44,147.653,27,148c-0.284,0.873-0.618,0.86-1,0
			c-1.852-0.813-3.902-0.055-6.153,2.274c-2.163,0.841-4.217,1.128-6.162,0.863c-0.461-0.044-0.936-0.083-1.217-0.269
			c-0.419-0.278-0.604-0.777-0.412-1.208c0.177-0.397,0.769-0.497,1.054-0.659c-0.276,1.103,0.743,1.228,1.226,0.861l1.387-1.057
			c3.23-2.461,4.585-4.375,4.277-7.804c0.301-0.874,0.654-0.86,1.055,0l1.966,0.456c3.196-3.013,6.189-4.165,8.979-3.456
			c-1.255-1.66,0.256-2.648,1.971-2.276c-0.103-2.744,0.544-3.012,2.029-0.724C36.84,134.609,37.141,134.988,37,136z"/>
		<path style="fill:#565656;" d="M26,148c0.67,0.537-0.496,4.062-0.958,4.362c-0.481,0.312-10.007,0.088-11.27-0.323l-0.087-0.903
			c4.547-1.243,7.607-5.048,12.153-7.099C25.963,145.509,26.348,146.974,26,148z"/>
		<path style="fill:#5C5C5C;" d="M160.297,55.908L157,54l-7-3c-5.941-1.403-8.047-3.974-6.316-7.714L145,44.081
			C145.549,44.461,164.887,55.545,160.297,55.908z"/>
		<path style="fill:#E4E4E4;" d="M58,58c0.481,2.277,1.143,4.636,1.986,7.079c1.492,0.526,2.356,1.88,2.592,4.064
			c1.559,1.611,2.053,3.165,1.48,4.663c-0.476,1.486-1.401,2.757-2.959,1.568c-0.061,0.891-0.333,0.874-0.795,0.039
			c-0.065-0.734,0.358-1.272,0.737-2.339c-2.332,0.263-3.491-0.581-4.884-1.057L57,71c0.432,0.113,2.021,0.028,1.922-0.901
			c-0.279-2.604-1.337-4.565-2.196-7.134c-1.818,0.385-3.147,1.158-4.689,1.048l0.339-1.302c1.742-1.053,2.626-2.574,2.654-4.562
			c0.398-0.377,0.723-0.827,1.05-1.265C57.036,56.652,57.39,57.64,58,58z"/>
		<path style="fill:#DBDBDB;" d="M87,20c0,1.429,0.212,2.781,1,4c-0.222,1.661-1.366,2.015-3.431,1.061
			C82.669,27.125,80.812,28.105,79,28c-0.938,0.374-1.955,0.987-3,1c0.984-2.384,3.668-3.415,5.273-5.93
			c0.868-1.36-0.586-4.305-1.577-5.393c-1.31-1.438-3.973-1.522-5.685-1.609c0.122-0.994,0.485-2.151,1.092-3.068
			c1.954,0.721,3.587,0.388,4.898-1c0.284-0.87,0.618-0.858,1,0c-1.276,3.117,0.105,7.459,2.608,10.276L87,20z"/>
		<path style="fill:#E2E2E2;" d="M55,79c1.182,2.033,1.459,4.722,0.832,8.068l1.519,6.974l-1.354,2.097
			c-0.206,0.816-0.523,0.78-0.94-0.017c-0.682-0.804-0.769-3.429-2.478-3.737c-2.185-0.394-5.605-1.032-7.579-0.415
			c2.024-1.841,4.832-0.719,7.962-0.933c0.002-4.026,0.296-7.557-0.207-10.906c-3.258,1.59-6.087,0.695-8.758,0.945
			c0.287-0.639,0.894-1.464,1.087-2.076c1.705-1.063,4.48-1.783,5.916,0C52.384,78.035,53.499,78.775,55,79z"/>
		<path style="fill:#E1E1E1;" d="M137,99c0.275-0.903,0.61-0.889,1,0c0.533,0.302,0.52,0.636,0,1c-0.629,1.64-1.629,3.307-3,5
			c0.241,0.699,0.241,1.366,0,2c-2.473,2.21-3.38,5.931-2.846,8.965L130,120c-0.348,0.103-0.551,0.819-1.052,0.586
			c-0.311-0.145-0.634-0.177-0.883-0.36c-1.933,0.288-1.969-0.516-0.066-1.226c-1.167-1.422-0.64-1.883,1-1
			c-2.407-2.726,0.526-12.485,4-13c-1.557-0.753-1.224-1.42,1-2c-2.754-1.804-1.047-4.984,2-4C136.332,99.019,136.67,98.959,137,99z
			"/>
		<path style="fill:#838383;" d="M80,12c-0.123,1.009,0.535,3.884-0.59,3.813C76.93,15.657,74.554,14.73,75.102,13
			c1.048-1.584,1.13-4.088,3.475-4.333C83.554,5.426,82.549,8.627,80,12z"/>
		<path style="fill:#5C5C5C;" d="M128,119l0.066,1.226c-0.657,1.633-2.268,2.493-3.95,2.793c-0.983-1.922-2.19-3.311-3.622-4.165
			L122,114C123.722,113.658,127.234,117.197,128,119z"/>
		<path style="fill:#BFBFBF;" d="M33.971,135.724c-0.262,1.117-1.092,1.704-1.971,2.276c-5.654-0.001-8.48-0.001-8.48-0.001
			c-0.056,1.881-0.877,2.882-2.464,3.001H20c-0.152-1.69,2.207-4.079,0.076-5.766c0.077-0.327,0.032-0.691,0.126-1.013
			c0.478,0.626,1.35,0.859,1.827,0.283c0.459-0.554,1.353-0.907,1.709-1.503c3.827-0.499,7.213-0.134,10.156,1.096L33.971,135.724z"
			/>
		<path style="fill:#424242;" d="M123.144,31.906c1.522-0.895,2.001-0.322,0.856,1.094c-1.935,0.402-6.851,0.968-9.019,0.705
			c-0.221-0.027-0.388-0.496-0.54-1.091l5.606-4.593C121.977,28.281,122.186,30.477,123.144,31.906z"/>
		<path style="fill:#3F3F3F;" d="M129.085,35.957c0.334,1.957-0.694,1.972-3.085,0.043c-2.727,0.935-3.393-0.065-2-3
			c-0.105-0.406-0.621-0.745-0.856-1.094c0.077-0.461-0.415-1.043,0.292-2.129c2.205,1.253,4.106,2.349,6.035,3.935
			C130.481,34.541,129.15,35.418,129.085,35.957z"/>
		<path style="fill:#616161;" d="M51,79c-1.626,1.133-4.795,1.907-5.916,0c0.561-1.783,1.605-3.475,2.908-4.753
			C49.162,75.724,50.338,77.221,51,79z"/>
		<path style="fill:#CDCDCD;" d="M82,3c1.419,1.336,2.426,2.662,3.021,3.979L85,8c-0.644,0.218-2.151-0.515-2.653,0.711L81,12h-1
			c0.147-1.209,1.203-2.132,0.956-4.01c-1.034,0.357-1.633,0.829-2.378,0.677l0.037-0.777c0.58-1.496,1.047-3.101,1.402-4.814
			c0.349-0.342,0.22-1.575,1.27-1C81.597,2.246,81.783,2.747,82,3z"/>
		<path style="fill:#BBBBBB;" d="M145,44.081c-1.43-0.114-1.064,1.609-1.077,2.468C143.89,48.891,147.203,47.984,150,51
			c-2.525,0.266-4.483-1.637-7-2c-2.552,0.83-3.181-0.912-2-3c1.336,0.393,2.103-0.374,2.019-1.499
			c-0.069-0.933-0.039-1.687-0.161-2.438C143.835,42.502,144.465,43.326,145,44.081z"/>
		<path style="fill:#BABABA;" d="M26,153c-4.017-1.339-8.781,0.443-13.05,0.058c0.242-0.364,0.515-0.707,0.822-1.018l10.904-0.142
			L26,148h1C29.836,149.109,28.622,152.299,26,153z"/>
		<path style="fill:#CECECE;" d="M124.115,123.018c-0.406,0.326-0.831,0.628-1.257,0.927c0.033-1.335-0.498-2.6-1.309-3.981
			c-0.822-1.401-2.172-0.021-3.55,0.036c-1.488-2.252,1.331-6.548,4-6C121.627,117.268,122.944,119.964,124.115,123.018z"/>
		<path style="fill:#585858;" d="M59.31,49.136l0.795-2.354c1.309-0.259,2.386-0.832,3.571-1.77
			c0.404,1.543,0.861,3.743-0.143,4.843C62.772,50.689,60.444,49.463,59.31,49.136z"/>
		<path style="fill:#B3B3B3;" d="M36.089,177.131c-0.541,0.659-1.461,1.315-2.249,1.795c0.419-3.205,1.944-6.524,4.16-8.927
			C38.352,172.636,36.107,174.561,36.089,177.131z"/>
		<path style="fill:#8B8B8B;" d="M78.614,7.89c-1.066-1.677,0.144-3.582,1.402-4.814c0.885,0.569,1.065,1.747,1.605,3.029
			C82.148,7.355,79.448,7.081,78.614,7.89z"/>
		<path style="fill:#E0E0E0;" d="M45,91.97c-2.059,0.643-4.664,1.146-6.105,2.806c-1.89-1.9,0.414-3.252,1.131-4.85
			c0.031,0.296-0.337,1.628,0.17,1.782C42.067,92.275,43.559,91.733,45,91.97z"/>
		<path style="fill:#747474;" d="M52.375,62.711c0.439-1.69,1.349-3.326,2.654-4.562c0.531,0.795,1.405,2.075,0.891,3.237
			C55.432,62.49,53.507,62.634,52.375,62.711z"/>
		<path style="fill:#8B8B8B;" d="M85.021,6.979C83.313,6.33,81.997,4.878,82,3l5.987,3.467C86.495,7.43,85.718,6.868,85.021,6.979z"
			/>
		<path style="fill:#929292;" d="M119.163,27.837c-1.005,0.118-1.85,0.535-2.985,1.231c-0.403-1.806-0.105-2.884-0.178-4.069
			C117.406,25.51,119.157,26.141,119.163,27.837z"/>
		<path style="fill:#595959;" d="M130,120c-0.285-1.242,0.31-4.402,2.154-4.035C132.443,117.609,131.597,119.528,130,120z"/>
		<path style="fill:#747474;" d="M37.536,96.215c0.47-0.18,0.342,1.03,0.542,1.363c0.268,0.446,0.305,1.285-0.562,1.429
			c-0.589,0.098-1.198,0.132-1.513-0.517C35.677,97.822,36.225,96.717,37.536,96.215z"/>
		<path style="fill:#3A3A3A;" d="M44,132c1.833,3.712,2.833,7.378,3,11c1.706-0.162,2.055,1.171,1.047,4c0.873,0.284,0.86,0.618,0,1
			c-0.832,1.298-1.514,2.632-2.047,4c-0.575,7.027-1.656,8.144-8,5l-12-4c-0.125-1.729,0.806-3.328,1-5
			c0.208-1.789-0.678-4.221,1.195-5.786c2.886-2.412,6.528-3.628,8.805-6.214C37.475,133.949,41.815,131.635,44,132z"/>
		<path style="fill:#C0C0C0;" d="M46,159c-1.063-0.008-2.09,0.516-3,1l-5-3l5.983,1.027C44.9,155.874,45.444,153.865,46,152
			c0.284-0.873,0.618-0.86,1,0C49.394,153.637,47.72,157.324,46,159z"/>
		<path style="fill:#E9E9E9;" d="M85,107c-0.323,0.052-0.672,0.015-1,0c-0.806,1.633-2.534,2.725-5.185,3.279
			c-3.157,2.955-6.429,4.528-9.815,4.721c0.183,2.256-1.575,4.088-5.274,5.496c-1.585,1.774-3.167,2.313-4.744,1.617
			c-0.899,2.491-2.987,4.368-6.264,5.633C49.886,130.57,46.98,131.988,44,132c-1.753,1.591-5.212,1.969-7,4
			c-0.368-0.297-0.703-0.632-1-1c1.676-5.797,10.312-9.197,16-11c-0.733-0.48-0.386-0.832,1.042-1.058
			c1.17-0.694,2.764-2.395,2.82-3.942c1.626-0.283,2.946-0.269,3.959,0.045c-0.559-1.664,0.401-2.712,2.178-2.268l0.726-2.552
			l7.907-5.218l-8.857-1.76L60,105c0.388-0.34,0.648-1.001,1.131-1.228c-0.396-1.833,0.198-1.653,1.747-0.848l1.752-1.236
			c5.002,2.24,11.041,4.03,16.426,2.415c-0.163-1.586-0.138-2.536,1.773-3.101c-1.817-3.357-1.468-4.383,1.05-3.079
			C87.074,98.715,86.338,104.897,85,107z"/>
		<path style="fill:#D4D4D4;" d="M53.042,122.942c-0.404,0.24-0.681,0.749-1.042,1.058c-2.101,2.011-18.054,2.856-19.595,2
			c-0.759-0.422-1.153-1.204-1.405-2c-2.195-1.282-1.938-3.927-2.134-6.148c1.235,0.523,1.648,2.632,1.941,4.857L53.042,122.942z"/>
		<path style="fill:#565656;" d="M63,139c1.694-0.711,2.744-1.097,3,1c0.944,0.738,1.118,2.225,2,3c1.828,2.004,2.162,3.338,1,4
			l-13.688,15.008c-1.565,0.539-2.902-0.903-4.239-1.081L46,159c-1.385-2.265,0.364-4.572,1-7c-0.756-1.007-0.074-3.102,1.047-4v-1
			l-0.055-2.908c4.096-1.199,8.098-2.563,12.008-4.092C60.246,137.312,61.145,137.19,63,139z"/>
		<path style="fill:#4D4D4D;" d="M58.982,122.113c1.822-2.225,3.396-0.522,2.018,1.887l3,4l3,4c2.176-2.321,3.849-0.609,2,2
			c-1.39,0.816-2.107,1.695-3,3c-0.013,1.481-1.013,2.147-3,2c-0.393,0.685-2.252,0.813-3,1c-3.379,1.434-7.602,2.979-11.138,3.863
			C48.659,143.914,48.346,143.52,48,143c-1.32-3.584-2.654-7.251-4-11C48.441,127.971,53.553,124.404,58.982,122.113z"/>
		<path style="fill:#454545;" d="M69,115c2.086-0.932,3.086-0.599,3,1l12,5c1.286,1.064,1.891,2.79,3,4c2.113,2.635,1.447,3.635-2,3
			c-5.184,2.513-11.056,3.098-16,6c-0.342-0.943-1.089-1.614-2-2l-3-4l-3-4l-2.018-1.887C61.372,118.876,65.772,117.17,69,115z"/>
		<path style="fill:#C0C0C0;" d="M98,137c-3.537,0.517-9.299-10.794-13-9c0.963-0.706,2.067-1.687,2-3L98,137z"/>
		<path style="fill:#C3C3C3;" d="M73,148c-1.209-0.571-2.722-0.648-4-1l-1-4C69.766,144.552,71.595,146.1,73,148z"/>
		<path style="fill:#CACACA;" d="M66,140c-0.832-0.65-2.018-0.756-3-1c0.516-0.899,2.439-1.276,3-2V140z"/>
		<path style="fill:#4E4E4E;" d="M141,46c1.075,0.554,1.631,1.975,2,3l-0.955,1.045L136,55c-0.324,0.45-0.722,0.849-1.105,1.247
			c-1.036,1.768-2.46,1.45-4.272-0.956c-3.012-0.046-3.999-0.804-2.959-2.275C125.736,51.67,125.515,49.665,127,47l1.757-6.596
			l1.369-0.008L141,46z"/>
		<path style="fill:#DDDDDD;" d="M117,42c2.66,1.038,5.173,2.726,7.539,5.064L127,47c-0.713,5.717,3.779,8.731,7.895,9.247
			c0.296,2.058,2.314,3.029,3.105,4.816c-0.067,2.046-1.005,2.037-1.79,0.092c-2.11,2.441-4.452,1.256-7.026-3.557
			C127.058,59.172,125.33,59.306,124,58c-2.435,1.734-4.884-1.915-3-4c2.101-0.873,1.451-2.42-1.95-4.639
			c-2.367-1.189-5.011-2.769-3.05-5.361l-1-2C115.632,39.42,116.285,39.482,117,42z"/>
		<path style="fill:#DBDBDB;" d="M144,65h-1c-0.313,1.398-1.306,1.875-2.98,1.429c0.366,3.892-0.641,5.415-3.02,4.571
			c-3.026-0.347-2.893-6.4,0-7c-0.298-1.156,0.24-2.063,1-2.937C140.536,61.25,142.128,63.471,144,65z"/>
		<path style="fill:#AFAFAF;" d="M142.045,50.045c-1.772,1.937-3.256,4.732-6.045,4.955
			C137.545,52.854,139.213,50.152,142.045,50.045z"/>
		<path style="fill:#B1B1B1;" d="M157,54c-2.615,0.022-5.214-1.075-7-3C152.773,50.708,154.984,52.394,157,54z"/>
		<path style="fill:#505050;" d="M110,45c1.575-1.39,2.16-0.784,1,1l4,3c1.405-1.325,1.92-0.767,1,1l4,3
			c1.452-1.204,1.993-0.656,1,1l3,4c1.21,1.381,0.681,1.866-1,1l-1.372,2.337c-4.551-0.021-8.834,0.633-12.847,1.963L108,62
			c-2.803,2.358-6.503-2.194-5.26-5.136c-1.451-2.219-3.99-4.19-2.144-6.719C108.414,41.152,106.461,44.896,110,45z"/>
		<path style="fill:#7C7C7C;" d="M100,49c-0.983,0.91-1.51,2.602-2.527,2.762c-1.452,0.229-2.893-0.396-4.261-0.66l-16.956-3.272
			C75.686,45.674,76.004,43.751,76,42c0.353-0.72,1.244-0.989,2.139-2.04L100,49z"/>
		<path style="fill:#858585;" d="M102,30c2.086-3.052,7.382,1.143,7.806,3.971c1.035,1.281,0.874,4.942-1.012,5.625
			C105.485,40.793,102.027,39.581,99,40c-1.292-2.236-2.591-4.385-3.897-6.445c2.297-1.135,4.125-2.969,5.485-5.503L102,30z"/>
		<path style="fill:#707070;" d="M98,40c-0.072,0.302,0.137,0.727,0,1c2.574,1.454,0.758,4.646-2,4
			c-3.712-1.487-8.892-1.271-10.813-5.051L92,34c0.809-0.718,2.496-1.011,5.06-0.881C96.628,35.221,96.942,37.515,98,40z"/>
		<path style="fill:#6B6B6B;" d="M116,44c1.974,3.947,12.26,8.815,11.359,10.397c-0.442,0.776-1.981,1.846-2.929,1.273
			c-1.343-0.81-2.209-1.644-3.43-1.671c-0.266-0.354-0.818-0.59-1-1l-4-3l-1-1l-4-3c-0.17-0.314-0.645-0.99-1-1
			c-0.254-0.887-1.378-1.515-1.598-2.157c-0.315-0.916,0.679-1.823,1.356-1.889C112.992,40.638,112.695,43.952,116,44z"/>
		<path style="fill:#6D6D6D;" d="M109.806,33.971c-2.729-0.967-5.023-3.14-7.806-3.971c-3.404,0.535-2.287-8.396-0.102-10.186
			C103.264,20.844,113.096,33.637,109.806,33.971z"/>
		<path style="fill:#626262;" d="M121,38c1.751,3.219-0.774,5.71-4,4c-0.544,0.258-1.406-0.154-2,0l-1-1
			c-1.528-1.14-2.605-2.622-0.727-3.832c0.989-0.03,1.066-1.358,0.908-2.168C116.931,31.558,129.583,33.357,121,38z"/>
		<path style="fill:#D7D7D7;" d="M101.898,19.814C100.642,23.052,100.338,26.887,102,30c-2.028-0.606-4.026,2.419-5.033,3.951
			C97.282,36.524,98.263,38.154,99,40c-0.328,0.045-0.669-0.027-1,0c-1.354-1.153-1.398-3.066-2.034-5.033
			c-0.6-1.86-3.085-0.511-3.966-0.967l-4-3c-0.041-2.03,0.959-2.363,3-1c1.543,0.169,2.984,0.356,4.323,0.56
			C96.48,28.48,97.705,26.626,99,25c-0.536-0.376-0.536-0.709,0-1c0.821-1.324,0.601-3.189,1.934-4.194
			C101.361,19.484,101.482,19.501,101.898,19.814z"/>
		<path style="fill:#888888;" d="M96,45l2-4l9.159,0.235c-1.923,1.779-3.319,4.05-5.55,5.387C99.44,47.921,97.516,45.608,96,45z"/>
		<path style="fill:#C9C9C9;" d="M124,33c0.309,1.197,0.913,2.329,2,3c1.047,2.811-3.485,4.403-5,2
			c0.399-1.059,1.477-1.455,2.407-3.534c-3.189-0.829-6.587-0.966-9.226,0.534c-0.148-0.76,0.305-1.619,0.26-2.386
			C117.582,33.303,120.808,32.691,124,33z"/>
		<path style="fill:#5F5F5F;" d="M113.273,37.168c0.145,1.294,0.422,2.567,0.727,3.832c-0.794-0.483-3.215-0.908-2.915-2.266
			C111.268,37.904,112.178,35.621,113.273,37.168z"/>
		<path style="fill:#BEBEBE;" d="M51.073,160.927c-1.981-0.265-3.896,0-5.073-1.927C47.787,159.013,50.155,159.26,51.073,160.927z"
			/>
		<path style="fill:#ACACAC;" d="M141,102c-2.07,1.54-4.072,3.277-6,5c-0.764,0.185-1.122-0.532-0.842-1.185
			c0.125-0.29,0.782-0.527,0.842-0.815c1.024-1.76,2.035-3.496,3-5v-1C140.779,96.97,143.029,99.277,141,102z"/>
		<path style="fill:#E8E8E8;" d="M99,24c1.137,0,1.129,0.842,0,1c-0.095,1.986-2.087,2.67-5.977,2.054c0,0-0.674,0.982-2.023,2.946
			c-3.318,1.293-5.555-3.838-3-6H99z"/>
		<path style="fill:#DADADA;" d="M90,16c0.004-1.877,1.329-3.28,3-4C93.014,13.885,91.665,15.28,90,16z"/>
		<path style="fill:#D7D7D7;" d="M87,20c0.001-1.893,1.306-3.267,3-4C89.996,17.902,88.488,19.001,87,20z"/>
		<path style="fill:#C8C8C8;" d="M156,81h-1c-3.287-0.732-2.29-7.374-1-10c-2.069-1.598-1.617-2.679,1-3c0.326-0.058,0.67,0.032,1,0
			V81z"/>
		<path style="fill:#666666;" d="M102.74,56.864c1.955,1.407,2.909,4.282,5.26,5.136c2.145,0.314,2.595,1.021,0.496,1.408
			c-0.455,0.72-0.241,16.046-0.014,17.033c0.692,3.01-1.803,1.194-3.482-0.441c-3.125,1.21-9.377-2.49-9-6
			c-2.924-1.264-4.129-3.388-2-6c-1.44-2.115-1.502-4.287-0.185-6.516c-0.279-1.164,0.415-2.42,2.082-3.767
			c0.226-2.475,0.997-3.709,2.314-3.704C100.388,53.584,101.247,55.789,102.74,56.864z"/>
		<path style="fill:#E9E9E9;" d="M97,54c0.396,0,0.822,0.09,1.21,0.013C96.019,58.684,93.691,62.852,94,68
			c-0.284,0.873-0.618,0.86-1,0c-1.058,0.396-0.908-1.24-0.664-2.115C92.435,65.531,90.629,71.116,92,72
			c2.577,1.885,2.172,3.537-1,3c-1.43-0.791-2.387,0.261-2.871,3.156l-2.497,0.101c-0.194,0.869-0.447,0.812-0.753-0.084
			C83.221,77.561,82.928,76.169,84,74c0.994-1.211,1.66-2.545,2-4c1.183-1.589,2.015-3.328,2.497-5.218l2.33-0.57
			c-0.367-0.707,0.053-1.109,1.26-1.207l-1.833-1.503C85.778,61.8,81.36,61.632,77,61c-1.389,0.858-2.643,1.243-4,0
			c-2.149-1.735-1.877-4.419,1-5c1.001-1.036,3.465,0.557,3.135,0.893C76.658,57.378,74.387,55.912,74,55
			c-0.848-0.231-0.822-0.568,0-1c-3.171-1.147-2.118-3.686,1-3l2.198,1.006C83.881,52.107,90.482,52.771,97,54z"/>
		<path style="fill:#646464;" d="M75,51c-0.123,0.885-1.632,1.797-1,3c-1.151,2.294-7.388,2.346-7.824-0.176
			C65.644,53.38,65.476,52.499,65,52l0.07-6.966l9.861-0.002C74.946,47.34,75.248,49.215,75,51z"/>
		<path style="fill:#7F7F7F;" d="M97,54l-21.862,0.006C74.986,52.752,74.796,51.702,75,51l1.343-1.667
			C79.938,50.999,97.36,51.617,97,54z"/>
		<path style="fill:#505050;" d="M122,103c0.781-1.889,3.135-2.179,1.494,0.343c-0.809,1.243-1.022,8.169-0.495,10.076L122,114
			c-1.084,2.377-2.198,4.157-4,6l-5,3c-1.472,1.867-4.403,2.25-6,4c-1.165-0.321-2.638-0.929-3.819-2.156l-9.756-10.133
			c3.042-1.415,5.932-1.425,7.576-3.711c0.275-2.264,4.074-4.59,6-3l12.563-6.04C119.824,99.462,121.237,100.989,122,103z"/>
		<path style="fill:#C4C4C4;" d="M118,120c-1.409,1.44-2.547,3.154-5,3C114.333,121.31,115.62,120.098,118,120z"/>
		<path style="fill:#858585;" d="M88,24c1.221,1.889,0.886,4.701,3,6c-0.068,1.594-1.911,0.925-3,1c-3.087-0.696-6.096-1.748-9-3
			c1.255-1.706,2.643-4.114,5.039-4.841C85.519,22.71,86.927,24,88,24z"/>
		<path style="fill:#D1D1D1;" d="M92,34c-1.537,2.535-3.952,4.472-6.813,5.949C86.778,37.555,88.988,34.32,92,34z"/>
		<path style="fill:#D2D2D2;" d="M81,37c-1.925-1.109-3.912-2.643-4-5C78.958,33.107,80.831,34.649,81,37z"/>
		<path style="fill:#797979;" d="M139.898,78.063c0.503,0.343,1.749,1.128,1.987,1.914C139.954,86.571,136.972,92.536,136,99
			c-0.663,1.133-1.929,2.474-2,4c-2.881,1.751-10.313,0.11-7-4c-2.591-1.221-1.79-2.86,1-3l4.629-12.036
			c-0.972-0.791-0.515-1.779,1.371-2.964c-1.845-2.175-0.554-3.589,2-3c-0.155-2.211,0.635-2.781,2.136-1.136
			C139.639,74.482,140.778,75.51,139.898,78.063z"/>
		<path style="fill:#535353;" d="M141,102c-0.526-1.348-1.706-2.431-3-3c-0.275-0.121-0.697,0.038-1,0
			c0.875-3.797,2.253-7.466,3.864-11.005c1.861-0.901,2.172-3.492,5.215-3.32l-0.324,19.607
			C143.334,103.396,142.568,101.775,141,102z"/>
		<path style="fill:#404040;" d="M155,81c0.036,0.821,0.162,1.771-0.15,2.377c-0.604,1.171-9.753,0.748-11.073-1.369
			c-0.832-1.481-0.312-3.882,1.207-4.898c0.967-3.564,5.49-7.314,9.016-6.11c0.807-0.069,1.012,0.897,1.011,1.943L155,81z"/>
		<path style="fill:#565656;" d="M143,65c0.262,1.113,2.128,2.113,2.623,3.226l-2.632,8.833c-0.401,1.345-2.309,1.031-3.094,1.004
			l-1.761-1.199C135.949,76.905,135.57,74.951,137,71c1.514-1.075,0.647-2.976,1.137-4.968C138.688,63.793,141.583,64.398,143,65z"
			/>
		<path style="fill:#5A5A5A;" d="M155,68c-0.317,0.869-0.237,2.325-1,3c-2.698,2.387-6.039,4.121-9.016,6.11
			c-0.279-2.592,0.446-6.346,2.769-8.335C149.775,67.045,152.914,68.37,155,68z"/>
		<path style="fill:#616161;" d="M60,105c5.119,0.638,10.229,1.401,15.207,3.514c-4.822,3.106-8.802,6.37-13.207,8.263
			c-1.215,1.179-2.602,0.989-3-0.777c-0.899,0.051-2.097-0.438-2.078-1.88l0.135-10.159C58.281,104.636,59.043,104.881,60,105z"/>
		<path style="fill:#767676;" d="M58,97c0.981,0.921,1.981,1.185,3.001,0.792l1.877,5.131c-0.473,0.491-1.164,0.574-1.747,0.848
			l-10.369-2.731c1.169-2.298,3.572-2.935,4.295-4.918c0.234-0.014,0.729-0.095,0.94,0.017C57.388,93.767,58.352,94.243,58,97z"/>
		<path style="fill:#686868;" d="M58.974,117.042c1.882-0.525,2.111,0.477,0.848,2.003c-0.849,0.428-1.8,1.252-2.375,1.704
			c-1.208,0.95-2.075-1.352-1.584-1.748C56.882,118.177,57.771,117.007,58.974,117.042z"/>
		<path style="fill:#AAAAAA;" d="M62,116.777c-0.388,1.004-1.186,1.767-2.178,2.268c-0.324-0.645-0.664-1.3-0.848-2.003
			c-0.085-0.324,0.079-0.71,0.026-1.042C60.037,116.016,61.358,115.784,62,116.777z"/>
		<path style="fill:#C1C1C1;" d="M129.085,35.957c-0.17,1.399,0.391,3.184,1.041,4.44C128.182,42.161,128.21,44.832,127,47
			l-1.81-1.576L126,36C126.91,35.636,128.065,36,129.085,35.957z"/>
		<path style="fill:#6E6E6E;" d="M52,124c-4.907,4.198-10.759,7.194-16,11c-0.534,0.387-1.517,0.212-2.029,0.724
			c-1.854-2.002-9.152,1.105-10.234-2.724c7.146-11.983,1.773-0.049,7.262-9H52z"/>
		<path style="fill:#707070;" d="M58,97c-0.412-0.503-1.442-0.563-2.003-0.861C53.846,90.679,52.804,84.511,55,79l4.094-2.748
			c0.426-0.246,0.832-0.525,1.21-0.84l0.795-0.039l1.346-0.232c3.782,10.575,5.673,15.862,5.673,15.862
			c-2.779,0.036-6.365,5.203-6.408,8.326C60.475,98.96,59.238,98.184,58,97z"/>
		<path style="fill:#D6D6D6;" d="M59.094,76.252C58.276,77.588,56.759,79.264,55,79C55.69,77.269,57.15,75.936,59.094,76.252z"/>
		<path style="fill:#575757;" d="M74,56c-0.315,1.549-0.179,3.574-1,5c2.192,2.077-0.39,5.369-3,4c-0.227,1.358-1.561,1.025-4-1
			l-3-2c-2.814,1.258-4.123-3.722-0.835-3.835C63.306,58.211,64.197,56.693,65,56C66.887,54.723,72.028,55.288,74,56z"/>
		<path style="fill:#DFDFDF;" d="M62.165,58.165c-0.493,0.545-1.363,1.321-1.005,2.156C61.492,61.092,62.475,61.453,63,62
			c-0.308,0.454-0.642,0.441-1,0c2.401,1.779,0.707,3.963-2.014,3.079C59.017,62.848,58.096,60.323,58,58L62.165,58.165z"/>
		<path style="fill:#D0D0D0;" d="M74,54c0.139,0.265-0.021,0.697,0,1c0.916,0.244,0.894,0.58,0,1h-9l1.176-2.176
			C68.374,55.659,71.606,55.392,74,54z"/>
		<path style="fill:#646464;" d="M112,85c3.044-1.073,4.161,0.591,2,3c0.517,0.083,0.954,0.211,1.107,0.492
			c0.768,1.412,5.781,11.864,5.703,12.551c-0.087,0.777-11.784,6.116-13.81,6.957c-1.39,1.214-3.848,3.391-6,3
			c-2.831-0.515-5.255,2.658-7.922,2.503c-2.267-0.132-6.406-4.269-6.078-6.503c0.805-2.373,1.805-3.706,3-4
			c-0.959-1.574,0.233-3.479,2-2l7-8c-0.779-2.882,0.381-3.933,3.178-2.906c1.803-2.434,3.743-4.799,5.822-7.094
			C110.152,82.367,112.905,82.133,112,85z"/>
		<path style="fill:#4D4D4D;" d="M84,107c3.294,2.973,2.131,6.49,1.969,11.189l-0.075,2.173c-0.025,0.71-0.986,0.798-1.894,0.638
			l-12-5c-1.048-0.183-2.089-0.421-3-1C73.651,111.874,77.782,106.719,84,107z"/>
		<path style="fill:#515151;" d="M89,99c0.023,3.051-0.644,5.718-2,8c-0.609,0.171-1.373-0.101-2,0
			c-1.109-2.915-0.995-6.009-1.121-9.079l-1.998-0.928c1.477-1.045,1.9-2.376,1.268-3.993c-1.178-1.116-0.887-4.335-0.247-6.113
			c-1.349-1.444-0.719-1.944,1.063-0.879C83.949,83.637,85.547,81.778,88,82c0.284-0.873,0.618-0.86,1,0
			c2.379,0.537,3.469,0.964,1.435,2.438C90.582,89.287,90.103,94.141,89,99z"/>
		<path style="fill:#666666;" d="M32,138l-10.797,7.025c-0.273-1.542-0.389-3.104-0.148-4.025c0.288-1.101-0.04-3.87,1.475-4.659
			C25.345,134.876,30.342,135.541,32,138z"/>
		<path style="fill:#D0D0D0;" d="M64.059,73.805C64.888,74.248,64.869,74.646,64,75c1.288,1.131,2.042,2.682,2.262,4.653
			C67.341,82.885,68.92,85.667,71,88l1.511,1.834c3.655,1.761,6.848,3.831,9.579,6.211c0.209-1.196,0.562-2.211,1.06-3.045
			c1.111,1.195,0.664,3.307,0.73,4.921c-1.16,0.407-0.881,2.075-1.05,3.079c-10.258-4.567-15.386-6.85-15.386-6.85l-3.084,3.42
			c0.609,2.817,0.115,4.602-1.481,5.353C60.821,101.328,59.605,99.035,58,97l2.892,0.816l5.952-8.478L61.1,75.373
			C61.765,74.355,62.868,73.945,64.059,73.805z"/>
		<path style="fill:#7E7E7E;" d="M66,64c3.289,1.259,4.49,4.263,3.603,9.014C70.622,73.366,70.421,74.028,69,75
			c-0.964,1.633-4.049,0.302-4.941-1.195c-2.965-2.083-4.446-5.178-4.073-8.726L62,62L66,64z"/>
		<path style="fill:#6C6C6C;" d="M59.986,65.079C58.022,63.827,55.799,59.753,58,58C60.459,59.45,60.263,62.451,59.986,65.079z"/>
		<path style="fill:#6E6E6E;" d="M133,105l-4,13c-6.156-0.418-8.115-10.538-5.543-14.839c0.967-1.617,3.126-2.188,4.11-0.421
			C130.132,103.052,131.943,103.806,133,105z"/>
		<path style="fill:#CDCDCD;" d="M134,103c-0.033,0.703-0.793,1.327-1,2c-2.437-1.178-4.879-1.084-8.548-2.234
			c-0.379,2.783-2.188,5.998-1.256,9.124c0.84,2.82,3.895,4.538,5.804,6.11c-0.132,0.43-0.698,0.733-1,1l-6-5
			c-0.34,2.978,1.584-16.083,0-11v-1c0.515-2.046,2.899-3.709,5-3c-0.077,0.865-0.286,2.358,0.881,3.06
			C129.913,103.282,132.099,103.031,134,103z"/>
		<path style="fill:#3B3B3B;" d="M138,100c1.836,2.179-1.207,3.775-3,5C135.422,102.98,135.386,99.74,138,100z"/>
		<path style="fill:#B4B4B4;" d="M60,140c-2.171,3.387-11.544,2.205-11.953,7c-0.822-1.164-0.815-2.641-1.047-4
			c0.284-0.873,0.618-0.86,1,0L60,140z"/>
		<path style="fill:#B7B7B7;" d="M48,143h-1c-0.647-3.788-2.902-7.12-3-11C46.51,134.922,47.387,139.2,48,143z"/>
		<path style="fill:#CBCBCB;" d="M47,152h-1c0.447-1.501-0.221-3.746,2.047-4L47,152z"/>
		<path style="fill:#808080;" d="M82.829,101c-0.182,1.082,0.889,3.542-0.168,4.404c-4.026,3.286-16.802-0.169-19.784-2.481
			l-0.643-4.541c-0.365-2.579,3.566-4.541,5.013-7.39C72.573,94.746,81.356,95.879,82.829,101z"/>
		<path style="fill:#B8B8B8;" d="M67,132c-1.675-0.709-2.985-2.123-3-4C65.666,128.718,67.013,130.116,67,132z"/>
		<path style="fill:#B8B8B8;" d="M64,128c-1.666-0.718-3.013-2.116-3-4C62.679,124.711,63.985,126.123,64,128z"/>
		<path style="fill:#B4B4B4;" d="M84,121c-4.183-0.736-8.726-2.27-12-5C76.19,116.73,80.706,118.276,84,121z"/>
		<path style="fill:#555555;" d="M136.21,61.155c1.43,0.274,1.596,1.839,0.79,2.845v7l-0.613,5.26
			c-2.951-1.205-6.08-1.959-9.387-2.26c-1.219,0.38-1.885-0.62-2-3l-2-5c-2.458-0.545-2.586-1.114-1-3c-2.189-0.49-1.855-1.823,1-4
			c0.274-0.292,0.637-0.856,1-1c1.95-0.775,3.731-2.569,6.228-2.542C132.072,58.074,133.263,61.157,136.21,61.155z"/>
		<path style="fill:#3C3C3C;" d="M126,36c2.959,1.826,1.909,3.704,1,11l-1.99,3.566c-3.899-5.093-8.044-4.895-8.01-8.566
			c1.733-0.848,3.215-2.236,4-4L126,36z"/>
		<path style="fill:#757575;" d="M138,61.063c0.116,1.038,1.597,1.541,0.879,2.305C138.346,63.935,137.58,63.921,137,64
			c-1.27-0.297-0.872-1.859-0.79-2.845C136.809,61.154,137.409,61.184,138,61.063z"/>
		<path style="fill:#D5D5D5;" d="M122,63l-0.961,0.987c-1.588-0.203-9.689,0.424-10.045,1.199
			c-0.305,0.664-0.484,14.141,0.071,14.617c1.299-0.708,2.086-0.098,2.935,1.197c1.76,1.885,0.525,4.017-2,4
			c-1.182-1.009-2.507-1.649-4-2c-1.543,0.817-2.48,0.854-2-1c-1.52,0.61-2.023,0.344-1-1c-0.873-0.284-0.86-0.618,0-1
			c0.975-0.046,1.712,0.51,2.968,0.994L108,62c3.623-0.165,12.667-0.51,15-3L122,63z"/>
		<path style="fill:#CACACA;" d="M120,53c-1.888,0.024-2.806-1.806-4-3C117.89,49.974,119.264,51.345,120,53z"/>
		<path style="fill:#CACACA;" d="M115,49c-1.866,0.259-3.276-1.659-4-3C112.89,45.973,113.805,47.805,115,49z"/>
		<path style="fill:#6B6B6B;" d="M99,25c0.654,3.292-0.785,7.747-5.066,7.945C92.732,33.001,91.655,30.595,91,30
			c-0.025-1.524-0.593-2.923-1.145-4.918L99,25z"/>
		<path style="fill:#5A5A5A;" d="M96,74c2.902,2.161,6.227,3.691,9,6v1c-3.333,2.123-7.552,2.627-12.657,1.512
			C90.83,84.385,89.716,84.215,89,82c-2.329-1.407-0.816-7.25,2-7c0.377-1.047,1.336-1.607,1-3C92.892,71.467,94.225,72.133,96,74z"
			/>
		<path style="fill:#B9B9B9;" d="M96,74c-1.104-0.822-3.024-0.736-4-2c-2.378-0.244-0.796-3.747,1-4h1
			C94.139,70.325,93.187,72.056,96,74z"/>
		<path style="fill:#7C7C7C;" d="M78,71c0.998-2.881,6.835,0.19,6,3c0.535,0.268,1.597,1.007,1.668,1.601
			c0.084,0.708-0.785,1.987-0.789,2.573c0.453,0.644-3.043,6.25-3.417,6.349c-0.734,0.194-11.302-7.18-12.713-8.253
			C68.598,76.154,68.755,75.635,69,75c0.681-1.139,2.014-2.139,4-3C75.702,69.393,77.369,69.06,78,71z"/>
		<path style="fill:#666666;" d="M74,56c0.064-0.315,0.022-0.678,0-1l21.802,0.128c0.811,2.007-1.495,4.093-3.746,4.051
			l-15.079-0.281C75.406,58.869,75.03,56.506,74,56z"/>
		<path style="fill:#717171;" d="M77,61c2.433,2.555,2.844,3.89,1.234,4.004l1.534,1.531C77.62,68.39,75.364,70.211,73,72
			c-0.565,0.445-3.064,2.058-3.179,1.913c-0.26-0.327-1.01-7.862-0.92-8.27C68.963,65.361,69.424,65.168,70,65
			c0.954-1.317,2.188-2.59,3-4c0.79-0.051,1.734-1.775,2.463-1.759C76.009,59.253,76.66,60.567,77,61z"/>
		<path style="fill:#E4E4E4;" d="M69,75c3.111,3.51,7.99,5.095,12.268,7.839c1.892-1.561,1.702-3.857,3.612-4.666l0.753,0.084
			c2.461,0.261,2.673,0.843,0.911,2.64l-2.577,5.11c-0.376,0.118-0.745,0.63-1.063,0.879c-0.129,1.06-0.498,1.765-1.108,2.113
			c-2.707,0.253-2.863-2.071-2.459-4.218c-0.893-0.101-0.898-0.389-0.079-0.85c-3.446-0.146-10.744-3.62-13.494-5.793
			C64.66,77.267,63.893,76.6,64,75c0.122-0.358-0.094-0.829,0.059-1.195C65.389,74.74,67.501,74.663,69,75z"/>
		<path style="fill:#7C7C7C;" d="M90.827,64.213C89.616,67.135,89.61,70.83,86,70c-1.688,1.864-1.971,1.404-2-1l-3.737-2.121
			c-2.329,1.434-2.836-2.828-2.256-3.88C78.325,62.422,89.702,63.99,90.827,64.213z"/>
		<path style="fill:#595959;" d="M92.087,63.005c-4.428,0.585-9,0.801-13.715,0.647L77,61c0.094-0.4,0.064-1.047,0.976-1.035
			l14.677,0.187C93.14,61.162,92.398,62.366,92.087,63.005z"/>
		<path style="fill:#606060;" d="M84,69c0.896,0.033,1.367,0.471,2,1c1.501,1.255,2.064,1.415,1.222,2.773
			C86.273,74.303,85.24,74.159,84,74l-6-3c-4.693,1.886,0.346-4.87,0.742-4.949C79.184,65.962,83.046,68.353,84,69z"/>
		<path style="fill:#D2D2D2;" d="M92.087,63.005c-0.245,0.503-0.945,0.748-1.26,1.207c-4.002,0.008-8.018-0.955-12.586,0.41
			C80.571,67.235,83.4,66.581,84,69c-1.184-0.043-2.383-0.624-3.661-1.427c-1.181-0.742-1.677,0.276-2.407,0.886
			C77.07,69.178,77.157,70.112,78,71c-1.468-0.734-3.454,0.945-5,1c0.831-2.13,3.456-3.141,4.662-5.434
			C78.604,64.777,76.611,62.653,77,61C80.007,64.835,85.884,62.303,92.087,63.005z"/>
		<path style="fill:#585858;" d="M91,75c-0.82,2.276-0.82,4.841-2,7h-1c-1.452,1.435-2.165,0.864-1.457-1.102
			c-0.437-0.577-1.229-1.926-0.911-2.64c1.363-1.407,1.525-3.962,3.142-5.226c0.711-0.555,2.176,0.087,2.227,0.468
			C91.059,73.921,90.987,74.53,91,75z"/>
		<path style="fill:#656565;" d="M93,68c-0.567,1.142-1.322,2.665-1,4c-0.636-0.47-2.518,0.645-2.925-0.454
			c1.588-2.535,2.46-4.485,3.406-6.56C93.474,66.403,92.888,67.262,93,68z"/>
		<path style="fill:#C5C5C5;" d="M116,88c2.538,2.115,6.144,8.557,7.175,11.894L122,102c0.135,0.266-0.074,0.703,0,1
			c-1.439-2.773-11.497,5.965-15,5c3.623-3.165,8.647-4.198,12.997-7.172C117.93,96.43,115.118,92.428,114,88
			C114.319,85.344,115.239,85.459,116,88z"/>
		<path style="fill:#676767;" d="M136,78c-0.198,1.192-1.483,2.07-2,3c-0.968,2.251-1.877,2.861-2.728,1.831L119,87
			c0.295,2.822-1.479,3.574-3,1h-2c-0.3-1.189-1.092-2.225-2-3c0.307-1.294,0.864-3.106,2-4c-0.837-2.931,2.733-4.35,5-3l5-3
			c1.266-2.014,2.266-2.347,3-1l9.234,1.568C137.286,76.96,137.208,77.771,136,78z"/>
		<path style="fill:#616161;" d="M128,96c-0.404,0.762-0.558,2.264-1,3c-1.106,1.839-2.806,3.536-5,3l-4.718-9.307
			C116.44,91.032,115.877,89.536,116,88c1.028,0,2.056-0.924,3-1c4.514-1.935,9.179-3.385,13.995-4.349L128,96z"/>
		<path style="fill:#C4C4C4;" d="M128,96c0.134-3.931,2.551-7.69,4.226-12.699C127.554,84.18,123.581,86.632,119,87
			c0.915-2.135,12.265-4.312,15-6C132.828,86.196,130.908,91.548,128,96z"/>
		<path style="fill:#D4D4D4;" d="M138.136,76.864L136,78c0.767-3.701-7.711-2.098-9-4c2.874-0.438,5.614,0.545,8.639,1.125
			c0.576-1.808,0.366-3.418,1.361-4.125C137,73.014,136.417,75.693,138.136,76.864z"/>
		<path style="fill:#DEDEDE;" d="M70,65l0.1,8.058c1.15-0.722,1.937-1.024,2.9-1.058c-0.628,1.61-2.49,2.353-4,3
			c0.814-12.544-2.055-7.93-3-11L70,65z"/>
		<path style="fill:#D2D2D2;" d="M66,64c-1.495-0.374-3.179-0.54-4-2h1C64.388,62,65.593,62.677,66,64z"/>
		<path style="fill:#4F4F4F;" d="M108,83l-5.822,7.094C101.182,91.109,100.08,92.074,99,93l-7,8c-0.653,0.556-1.534,1.286-2,2
			c-2.32,1.971-1.668-1.894-1-4l1.67-9.902L92,89c-0.925-2.861,2.329-5.312,5-5c2.507-1.28,5.507-1.947,9-2
			C106.77,81.974,107.361,82.849,108,83z"/>
		<path style="fill:#C3C3C3;" d="M92,101c0.686-3.565,4.337-5.717,7-8C98.308,96.558,94.67,98.726,92,101z"/>
		<path style="fill:#C2C2C2;" d="M102.178,90.094c-0.014-3.201,3.476-5.216,5.822-7.094
			C107.743,86.161,104.311,87.923,102.178,90.094z"/>
		<path style="fill:#D9D9D9;" d="M90,103c-0.831,1.46-1.183,3.489-3,4c0.367-2.503,0.714-5.786,2-8
			C88.948,100.349,88.527,102.351,90,103z"/>
		<path style="fill:#C5C5C5;" d="M106,82c-2.517,2.032-6.156,0.511-9,2l-0.857,0.994C93.704,84.054,92.323,85.389,92,89
			c-2.684,2.629-1.058,6.658-3,10c0.295-7.688,1.98-13.828,0-17c5.318,0,11.048,1.364,16-1C105.465,81.072,105.671,81.878,106,82z"
			/>
		<path style="fill:#656565;" d="M86.543,80.898C86.908,81.379,87.535,81.636,88,82c-0.708,1.874-2.11,3.405-4.034,4.008
			c-1.715-0.486-0.924-3.105-0.184-4.321C84.303,80.831,85.18,80.135,86.543,80.898z"/>
		<path style="fill:#F2F2F2;" d="M83.15,93c0.044,1.086-0.013,2.465-1.06,3.045c-3.041-0.233-3.159-6.311-0.294-7.045
			c-0.032-0.764,0.531-1.66,1.108-2.113L83.15,93z"/>
		<path style="fill:#616161;" d="M79.257,83.932C76.77,85.66,74.017,87.016,71,88c-0.831,0.025-3.049,0.525-3.542-0.347
			C66.262,83.203,62.574,79.192,64,75C69.262,77.753,74.932,80.069,79.257,83.932z"/>
		<path style="fill:#787878;" d="M81.795,89l0.294,7.045c-4.823,0.91-8.216-4.737-13.623-5.37C69.567,88.521,70.395,88.695,71,88
			l8.336-3.218C81.379,85.132,81.245,87.343,81.795,89z"/>
		<path style="fill:#4D4D4D;" d="M122,63c0.895,0.721,1.066,1.898,1,3l2,5c1.171,1.952,1.187,3.071-1,4l-5,3
			c-1.064,1.592-3.605,1.902-5,3c-1.527,0.313-2.849,1.188-5.006,1.01l0-18.852C114.585,62.972,117.726,60.529,122,63z"/>
		<path style="fill:#CDCDCD;" d="M125,71c-1.594-1.158-2.11-3.076-2-5C124.684,67.157,125,69.092,125,71z"/>
		<path style="fill:#D2D2D2;" d="M127,74c-0.935,0.423-1.949,0.941-3,1c0.652-1.326,1-2.498,1-4
			C125.989,71.719,126.579,72.892,127,74z"/>
		<path style="fill:#CBCBCB;" d="M79.336,84.782C77.469,86.488,73.265,87.931,71,88c2.083-2.395,5.464-2.742,8.257-4.068
			L79.336,84.782z"/>
		<path style="fill:#C8C8C8;" d="M124,75c-0.948,1.928-2.878,2.788-5,3C120.187,76.223,121.728,75.127,124,75z"/>
		<path style="fill:#646464;" d="M97,84c-0.919,2.344-3.346,3.38-5,5c-1.289-0.617-1.559-3.254-0.747-5.316
			C91.893,82.061,95.811,82.837,97,84z"/>
	</g>
</g>
</svg>
