<?xml version="1.0" encoding="iso-8859-1"?>
<!-- Generator: Adobe Illustrator 30.1.0, SVG Export Plug-In . SVG Version: 9.03 Build 0)  -->
<svg version="1.1" id="Layer_1" xmlns="http://www.w3.org/2000/svg" xmlns:xlink="http://www.w3.org/1999/xlink" x="0px" y="0px"
	 viewBox="0 0 72 170" style="enable-background:new 0 0 72 170;" xml:space="preserve">
<g>
	<g>
		<path style="fill:#FCFCFC;" d="M69,0h3v133c-0.284,0.873-0.618,0.86-1,0c-0.673-0.293-0.659-0.628,0-1
			c-0.653-3.814-0.975-7.722-0.964-11.724C68.333,119.589,68.334,118.83,70,118l-2.037-1.035c0.493-3.323-0.161-5.645-1.963-6.965
			c-0.273-0.908-1.461-0.886-3.563,0.063l-11.668,1.008L49,109c0.154,1.705-0.512,1.705-2,0l-1.118,1.992L34,111
			c-0.284,0.873-0.618,0.86-1,0c-2.651-0.332-2.945-1.113-1-3c0.634-1.853,1.978-2.16,4.033-0.921L39,107
			c1.482-1.444,3.877-1.777,7.184-0.997c2.487-0.885,4.45-0.795,5.887,0.27c0.188-0.883,0.503-0.799,0.924,0.105l2.001-1.628
			l13.339,0.184L70,107c0.69-5.033,0.816-10.141,0.379-15.324C68.575,90.734,68.449,89.842,70,89c-0.902-0.263-0.885-0.597,0-1
			c-0.766-0.479-0.594-1.61,0.516-3.393c0.458-4.759,0.127-8.469-0.991-11.13c0.048,0.928-0.191,0.886-0.682-0.003
			C68.512,70.091,68.898,66.932,70,64v-1c-1.643-3.908-1.31-6.574,1-8c-1.915-0.118-1.472-0.827,0-2c-2.999-0.011-2.851-5.513,0-6
			c-1.646-0.872-1.857-1.439,0-2c-2.449-0.758-2.6-2.178-1-4c-1.538-2.017-1.323-4.845,0-7c-2.198-1.565-1.361-3.885,1-5
			c-0.906-0.183-0.87-0.522,0-1c-2.543-1.235-2.752-3.941-1-6c-0.771-2.474-1.104-4.808-1-7c-0.482-1.575-0.394-3.428,0.267-5.558
			C68.307,12.99,66.552,15.176,64,16c0.828,0.269,0.811,0.604,0,1c0.453,2.029-0.172,4.289-1.874,6.78
			c0.067,0.975,0.004,2.075-0.189,3.3c-0.509,1.473-2.141,4.011-3.908,4.707C59.851,32.656,59.841,33.394,58,34
			c1.972,0.298,2.719,0.692,1,2c0.338,0.384,0.265,0.716-0.181,1c-1.111,0.635-2.369,1.042-3.774,1.22
			c1.395,1.943-0.741,5.042-2.659,5.929c2.646,2.764-1.091,4.436-3.667,4.99C49.715,49.623,49.808,50.243,49,51
			c1.808,0.017,2.091,0.417,0.848,1.202c1.081,1.577,0.415,3.107-1.997,4.591c-0.974,2.417-2.03,4.937-3.166,7.558l-2.34,0.442
			c1.274,0.891,0.803,1.618-1.415,2.181c2.619,0.795,2.409,2.818-0.045,3.89C40.469,73.622,39.034,79.518,36,80
			c-0.689,1.32-1.022,2.653-1,4c-1.673,4.366-3.456,8.679-5.35,12.939l0.415,1.045c1.641,1.154,1.25,1.911-0.74,1.399
			c-0.301,2.728-0.076,4.474,0.675,5.236c0.478-0.792,0.859-0.752,1.142,0.126c2.521,0.597,2.75,1.501,0.858,3.255
			c-1.773,1.227-4.199,1.741-7.277,1.542l-1.982,1.744c0.074,2.317-1.151,5.479-3.74,5.714c-0.181,1.982-0.848,2.982-2,3
			c0.444,1.37,0.617,2.512-1,2c0.584,2.124-0.086,5.223-0.908,7.084c2.052,1.01,3.197,3.04,1.244,4.835
			c-1.137,2.382-2.32,1.557-3.126-0.719c-0.285,1.689-1.329,3.01-3.134,3.963c1.288,2.321,0.488,3.554-2.076,3.837
			c1.325,1.405,0.767,1.92-1,1c2.514,1.836,1.181,6.467-2.11,5.874c2.334,1.082,1.998,1.791-1.008,2.126
			c1.851,2.176,5.002,6.468,3.273,9.147c1.707-0.254,2.815,1.514,3.325,5.304c3.223,0.154,5.397,1.004,6.52,2.549
			c2.656,0.319,2.541,1.239,0,2c-10.262,2.886-14.742-3.883-17-13v-3L69,0z"/>
		<path style="fill:#F3F3F3;" d="M37.404,134.386c0.589,0.147,0.584,0.465,0.092,0.921c1.479,0.969,2.069,2.737,1.77,5.302
			c1.144,2.411,1.119,4.303-0.075,5.677c0.645,1.867,1.248,3.771,1.808,5.714c0.644,0.295,0.63,0.629,0,1
			c-0.39,2.588-0.239,5.112,0.455,7.573L40,163c1.509-0.723,1.943-0.453,1,1c1.872,1.555,1.222,2.592-1.097,3.021
			c1.105,1.157,9.236,2.007,13.249-0.057c4.474,1.334,9.367,1.66,14.679,0.978c-1.136-0.508-0.328-0.695,1.169-0.942l-1.092-1.485
			c0.624-3.476,0.322-6.648-0.908-9.515c-0.873-0.284-0.86-0.618,0-1c0.544-2.702,1.544-4.702,3-6c0.284-0.873,0.618-0.86,1,0
			c0.069,13.632,0.103,20.448,0.103,20.448L70,170H32c-5.047-0.37-10.047-0.703-15-1v-2c0.31-1.839,1.669-2.545,4.076-2.118
			c0.531-2.849,1.978-2.485,1.724,0.373l1.259,0.747c3.143-1.241,7.325-1.462,9.94,0.999c-0.723-1.343-0.296-1.871,1-1l1.447-1.97
			c-1.283-4.104-0.824-7.063,1.377-8.878c-1.571-0.371-2.202-0.966-0.824-2.152c-2.492-1.71-3.973-10.416-1-12
			c-0.928-0.098-0.875-0.445,0-1c-2.459-0.518-3.597-6.063-1-7c0.074-0.919,0.407-1.253,1-1
			C38.463,129.861,40.196,132.681,37.404,134.386z"/>
		<path style="fill:#717171;" d="M70,107c-5.67-0.356-11.453,0.763-17.005-0.622c-0.729-1.066-1.218-3.836,0.005-4.378
			c-2.274-2.268,2.994-9.925,6-9l0.75-1.961C61.812,91.427,63.895,91.414,66,91c0.283-0.68,3.008-0.967,3.438-0.808
			C71.283,90.871,70.654,104.17,70,107z"/>
		<path style="fill:#777777;" d="M47,109c1.857,0.656,3.484,4.827,2,6c2.394,1.767,0.839,4.087-2,3
			c-0.968,3.076-2.046,3.989-3.237,2.74c-2.194,1.487-4.449,2.573-6.763,3.26c-0.284,0.873-0.618,0.86-1,0
			c-1.533,0.162-1.415-0.622-1-2c-0.842-3.639-1.175-7.305-1-11c-0.11-0.946,0.416-2.089,1.891-2.079L47,109z"/>
		<path style="fill:#5E5E5E;" d="M51,102c1.817,0.466,1.807,2.845,1.071,4.273C48.159,108.724,43.297,108.236,39,107l-5-2.986
			c-2.912,0.848-4.331-5.602-1.218-4.914c0.47-2.004,1.411-2.085,2.218-0.192L39,99c2.062-0.794,4.062-1.128,6-1
			C48.123,98.157,50.123,99.49,51,102z"/>
		<path style="fill:#525252;" d="M14,154c1.841-0.188,2.636,1.273,3,3c2.599-0.265,6.765,6.203,4.076,7.882
			C20.82,167.004,18.786,167.209,17,167c-1.973-0.231-4.59,0.506-6.639-0.337c-3.478-1.431-2.241-5.4-3.206-7.516
			C5.866,156.735,6.489,156.304,9,157l3.158-4.664L14,154z"/>
		<path style="fill:#6D6D6D;" d="M70,64c1.615,3.13,1.823,7.234-1.157,9.475c-0.664,2.458-0.986,2.53-2.696,0.672
			c-2.068,1.596-3.12,0.547-3.157-3.147L60,64c-1.309-2.665-2.192-6.577,2-7c1.564-1.33,2.513-1.458,1.576,0.282
			C66.066,59.233,68.207,61.472,70,64z"/>
		<path style="fill:#6D6D6D;" d="M32,108c0.447,0.944,1,1.921,1,3c1.025,0.981,1.557,4.397,0,5c0.692,1.658,1.089,4.446-1,4
			c-0.319,2.656-1.239,2.541-2,0c-1.574,0.162-2.908-1.171-4-4c-2.634,1.325-5.717-2.798-3.26-4.714
			c-0.072-0.562-1.063-2.359-0.472-2.74C25.595,106.398,28.927,107.276,32,108z"/>
		<path style="fill:#4C4C4C;" d="M22.74,111.286c0.841,1.732,2.241,3.094,3.26,4.714c2.385,2.161,2.709,4.161,0.974,6
			c0.3,3.188-0.743,4.515-3.129,3.982c0.343,0.834,0.004,1.038-0.919,0.701C21.911,129.16,20.603,129.599,19,128
			c-0.599-0.127-1.069-0.266-1.087-0.451C17.719,125.594,18.658,119.283,19,117C19.491,114.673,20.273,112.049,22.74,111.286z"/>
		<path style="fill:#565656;" d="M67,83c1.978-0.822,2.637,0.676,1,2c1.696,0.982,2.362,1.982,2,3c-0.033,0.244-0.022,0.755,0,1
			c1.031,2.095-2.418,1.569-4,1c-2.542,1.738-6.938,3.136-7-1l-1-5c-0.56-0.586-0.979-1.062-0.907-1.154
			c0.913-1.166,6.155-5.757,7.096-4.846L67,83z"/>
		<path style="fill:#EEEEEE;" d="M62,39c1.297-0.912,1.614-0.325,0.976,1.144c1.48,0.309,2.771,1.206,3.875,2.691
			C69.107,42.732,70.49,43.453,71,45c-0.057,0.656,0,1.341,0,2l-5,3c-0.161,1.719-0.761,1.775-1.136,0
			c-2.643-0.744-5.674-0.192-9.092,1.657c-2.332,1.76-4.306,1.941-5.924,0.545C49.339,52.02,49.048,51.524,49,51
			c0.564-0.747,0.438-1.362-0.281-1.861l3.667-4.99c0.094-2.073,1.043-2.223,2.74-1.979C54.76,40.593,55.137,39.398,57,39
			c0.186-0.865,0.526-0.828,1,0c2.453,3.743,2.453,3.743,0,0c-2.07-1.188-1.514-2.348,0.819-2L59,36
			C61.305,34.455,62.932,36.817,62,39z"/>
		<path style="fill:#737373;" d="M66,110c1.28,2.654-0.96,4.432-3,2c-0.847,2.236-2.153,2.973-3.919,2.208
			C57.13,114.906,55.77,114.837,55,114c-0.306,0.816-0.963,2.389-1.505,2.728c-0.186,0.117-3.417-2.191-3.571-2.347
			c-0.55-0.559-1.88-4.791-0.924-5.381C56.798,109.649,70.317,105.597,66,110z"/>
		<path style="fill:#6E6E6E;" d="M19,128c2.117-0.548,3.087,0.481,2.911,3.089c2.33-1.919,5.243,2.98,3.089,4.911
			c3.517,3.449-5.67,5.463-7,1c-2.304,0.712-3.292-1.284-1.664-3.081c-0.841-1.565-2.071-3.174-1.244-4.835
			c-0.422-1.595,0.536-2.625,1.706-1.084C17.715,126.511,18.832,126.057,19,128z"/>
		<path style="fill:#7D7D7D;" d="M51.192,70.381c2.307,1.652,1.419,2.796-1.105,2.761C51.867,75.757,49.459,76.916,48,74
			c-1.827,1.666-3.16,2-4,1c-2.182,2.054-5.039-2.013-3.115-4.136c-0.043-1.284-0.361-2.638,0.045-3.89
			C45.985,64.704,50.064,63.996,51.192,70.381z"/>
		<path style="fill:#555555;" d="M55.772,51.657L59,57c1.405,1.184-0.276,3.394-2,2c0.001,3.199-2.384,3.507-4,1
			c-1.744,2.291-2.413,1.746-2-1c-2.374,1.559-3.797,0.55-3.15-2.207c-1.443-1.675,0.573-3.355,1.997-4.591
			c0.938-0.814,2.445-0.931,3.676-1.763C54.185,49.993,55.059,51.139,55.772,51.657z"/>
		<path style="fill:#545454;" d="M40.885,70.864L44,75c1.947,0.078,0.488,4.187-1,5c0.873,0.284,0.86,0.618,0,1
			c-2.69,2.079-10.283,4.518-7-1C37.152,76.808,37.336,72.121,40.885,70.864z"/>
		<path style="fill:#858585;" d="M70,118c-0.68,1.189-2.182,1.99-4.505,2.4c-0.936-2.528-2.697-4.702-5.283-6.523L63,112
			c1.315-0.24,1.95-1.467,3-2c1.18-0.6,2.805-0.59,3.652-2.131L70,118z"/>
		<path style="fill:#757575;" d="M35,84c0.881,1.82,2.37,5.8,1.066,7.192c1.44,1.331,0.873,1.907-0.874,0.874l-4.316,4.966
			c0.309,1.07,0.039,1.388-0.81,0.953C24.757,100.767,33.78,81.029,35,84z"/>
		<path style="fill:#7C7C7C;" d="M47.85,56.793C48.979,57.41,50.017,58.173,51,59c1.019,0.362-1.087,6.787-1.444,6.925
			c-0.373,0.144-7.418,0.141-7.212-1.132l2.534-6.21C45.452,57.175,46.753,56.688,47.85,56.793z"/>
		<path style="fill:#4D4D4D;" d="M69,15c1.053,2.682-0.01,3.124-2,1c-0.017,2.53-1.017,2.53-3,0
			c2.154-3.551,2.667-7.732,6.095-11.76C71.555,7.66,72.107,12.757,69,15z"/>
		<path style="fill:#6B6B6B;" d="M68.843,73.475c0.197,0.016,0.523,0.068,0.682,0.003C71.083,75.999,71.609,90.339,68,85
			c0.037-0.839-0.716-1.394-1-2l-2.811-5c-1.949-1.992-1.337-4.424,1.958-3.853C66.906,73.496,67.876,73.395,68.843,73.475z"/>
		<path style="fill:#DEDEDE;" d="M63,112c-0.52,0.697-1.033,1.599-0.812,2.348c0.185,0.629,3.46,4.61,5.288,4.62
			c0.836,0.005,1.758-0.43,2.524-0.968c0.155,4.509,1,9.199,1,14c-0.284,0.873-0.618,0.86-1,0l-2.005-1.091l-0.04-8.347
			c-1.519,1.677-2.837,1.823-3.955,0.438c-0.873-0.284-0.86-0.618,0-1c-1.917-3.855-4.269-5.437-7.056-4.743L55,116
			c-1.841-0.374-1.413-0.922,0-2C57.681,114.576,60.336,112.486,63,112z"/>
		<path style="fill:#EDEDED;" d="M64,122v1l1.977,1.522c-1.155,6.142,0.186,8.634,4.023,7.478h1v1v16h-1l-2.001-0.856l-0.01-10.902
			c-1.987-0.41-3.983-0.157-5.989,0.758c-1.994-0.232-2.092-1.271-2-3c-0.873-0.284-0.86-0.618,0-1c-0.487-0.305-0.474-0.639,0-1
			c0.885-1.093,1.252-2.459,1.103-4.099C60.57,125.929,60.869,123.629,62,122C62.319,119.344,63.239,119.459,64,122z"/>
		<path style="fill:#6F6F6F;" d="M16,142c2.703,2.071-0.419,4.699-3,3c-1.186,2.02-2.067,0.85-3-1c-0.935-0.998-1.602-1.998-2-3
			c0.097-1.567,1.042-2.782,2.076-3.837c0.739-3.531,2.237-2.995,4.493,1.607C16.512,140.217,16.989,141.294,16,142z"/>
		<path style="fill:#626262;" d="M9,157c-0.158,0.882-1.317,1.522-1.845,2.147c-1.288-2.826-4.75-6.031-3.273-9.147
			C9.783,148.46,15.485,151.234,9,157z"/>
		<path style="fill:#666666;" d="M69.039,20.961C70.046,20.673,70.366,21.02,70,22c1.16,1.771,1.092,3.951,1,6
			c-5.183,1.059-10.359,1.985-6-5C65.477,19.557,66.823,18.877,69.039,20.961z"/>
		<path style="fill:#585858;" d="M71,29c0.091,1.729-0.11,3.489-1,5c0.679,3.15-1.495,3.561-3,1c-4.571,1.818-4.52-1.462-3-5
			C63.299,27.713,68.894,28.231,71,29z"/>
		<path style="fill:#7F7F7F;" d="M71,47v6c0.606,1.711-6.001,1.869-6.299,1.668C64.49,54.526,64.874,50.26,66,50
			c-0.002-1.391-0.398-3.574,1.52-3.621C68.642,46.352,69.939,46.544,71,47z"/>
		<path style="fill:#6C6C6C;" d="M71,55c-0.271,2.712,0.933,5.811-1,8c-1.116-0.769-6.83-5.719-6.855-6.369
			c-0.044-1.174,3.123-5.513,3.791-2.175C68.867,54.088,70.222,54.269,71,55z"/>
		<path style="fill:#C5C5C5;" d="M66,50c0.055,1.415-0.759,4.035,1.427,4.076C68.561,54.097,69.996,53.696,71,53
			c0,0.664,0.066,1.34,0,2c-2.478,0.093-5.457-0.778-7.023,1.513c2.335,2.479,4.7,4.124,6.023,6.487v1l-8-7
			c-1.2-2.162-0.416-7.968,2.864-7H66z"/>
		<path style="fill:#535353;" d="M68,40.32c1.145-1.46,1.982-1.178,2,0.68c1.098,1.047,1.123,2.574,1,4
			c-1.58,0.044-3.896,0.416-5.603-0.696c-1.115-0.726-1.931-2.545-2.421-4.16C63.242,38.373,66.455,39.426,68,40.32z"/>
		<path style="fill:#5D5D5D;" d="M70,34c1.792,1.948,1.147,4.807,0,7c-0.71-0.077-1.405-0.277-2-0.68
			c-4.528-0.278-5.874-2.291-4.039-6.038C64.753,35.66,65.763,35.608,67,35C67.833,34.172,69.447,35.199,70,34z"/>
		<path style="fill:#CCCCCC;" d="M13,145c0.994,2.384,1.327,5.05,1,8c0.595,0.298,0.581,0.632,0,1c-2.141-0.059-3.223,2.063-5,3
			c0.309-1.726,1.541-2.768,2.435-5.328c-2.59-1.29-5.098-1.705-7.553-1.672l1.008-2.126c2.605-0.355,4.309-1.646,5.11-3.874
			C10.888,144.592,11.956,144.836,13,145z"/>
		<path style="fill:#6C6C6C;" d="M10,144c0.315,2.043,1.69,4.019,0.648,5.882c-2.279-1.471-4.738-0.176-5.758-2.008
			C5.776,146.005,6.664,144.096,7,142C8.434,141.26,9.351,142.813,10,144z"/>
		<path style="fill:#4D4D4D;" d="M64,23c0.546,1.63-0.158,4.933-2.063,4.081C61.06,25.529,57.742,27.163,64,17
			C67.369,16.462,67.323,21.488,64,23z"/>
		<path style="fill:#6F6F6F;" d="M61.937,27.081C63.176,26.379,65.51,29.115,64,30l-0.718,4.508
			c-3.058-0.629-4.809-1.536-5.253-2.721c0.222-1.222-0.102-2.58,0.568-3.815C59.287,26.7,60.825,27.442,61.937,27.081z"/>
		<path style="fill:#C8C8C8;" d="M53,60c0.775,1.552,0.466,3.417-0.926,5.597c1.374,2.079,1.377,3.644,0.007,4.695
			c-0.097,0.854-0.4,0.857-0.89,0.089c-1.411-1.095-1.602-3.133-3.126-4.647c-2.764,0.529-4.888,1.518-7.136,1.24
			c0.262-0.808,1.098-1.404,1.415-2.181c1.56-0.172,3.672,0.869,5.636,0.021C50.119,63.891,50.426,60.795,51,59L53,60z"/>
		<path style="fill:#D8D8D8;" d="M67,35c-0.659,0.655-1.544,0.729-2.782,1.332c-0.481,0.235-0.315,1.744-0.179,2.173
			c0.256,0.81,1.814,0.514,2.988,0.457c1.679-0.217,2.562,0.55,0.973,1.359c-1.663-0.256-3.347-0.326-5.024-0.176L62,39
			c-0.33-2.323-1.663-3.99-4-5c-1.202-0.64-0.135-1.314,0.029-2.213c1.019,0.904,2.532,1.656,4.247,1.096
			C63.143,32.6,63.043,30.663,64,30c0.312,1.102-0.161,2.425-0.115,3.52C63.958,35.247,65.468,35.239,67,35z"/>
		<path style="fill:#CFCFCF;" d="M43,81c1.83-1.335,2.409-0.771,1,1c-0.745,2.113-2.565,3.347-5.457,3.702
			C39.273,87.87,39.092,89.636,38,91c-0.045,2.67-0.946,2.65-1.934,0.192C36.156,88.753,35.224,86.439,35,84
			c-0.07-0.764-1.182-1.394-0.84-2.38C34.443,80.8,35.325,80.382,36,80c-0.029,0.676-0.322,3.152,0.727,2.943
			C39.312,82.43,40.961,80.982,43,81z"/>
		<path style="fill:#656565;" d="M16.336,133.919c0.532,0.99,1.432,1.946,1.664,3.081c1.488,1.408,1.821,2.408,1,3
			c-2.938,2.631-9.345-5.621-5.79-6.801C14.285,133.166,15.337,133.592,16.336,133.919z"/>
		<path style="fill:#E2E2E2;" d="M70,107l-0.027-15.913C68.51,91.198,66.969,90.723,66,91c-0.873-0.284-0.86-0.618,0-1
			c1.246-0.427,2.926,0.083,4-1C71.339,87.876,71.624,109.733,70,107z"/>
		<path style="fill:#606060;" d="M70,22c-0.243-0.372-0.613-0.762-0.961-1.039c-1.861,0.152-2.792,0.228-2.792,0.228
			C65.257,17.758,65.508,16.028,67,16c0.954,0,1.342-0.525,2-1c0.856-0.219,1.728-0.024,1.884,0.629
			C71.069,16.401,71.516,22.535,70,22z"/>
		<path style="fill:#A3A3A3;" d="M57,39c-0.127,1.24,0.294,2.821-0.153,3.971c-0.7,1.798-3.337,0.933-4.461,1.179
			c-0.494-2.264,0.966-4.716,2.659-5.929C56.178,36.858,56.83,37.118,57,39z"/>
		<path style="fill:#E5E5E5;" d="M49,109c0.705,2.856,0.576,5.009,3.623,5.798c0.714,0.185,1.652-0.49,2.377-0.798
			c-0.098,0.628,0.165,1.4,0,2c1.528,1.034,1.584,1.631,0,3c-0.327,2.178-0.993,2.844-2,2c-1.58-0.204-2.251-1.348-2.013-3.432
			c-1.388-0.386-1.973-0.85-1.987-2.568c0.244-2.213-1.002-4.103-2-6C47.662,109.005,48.341,108.945,49,109z"/>
		<path style="fill:#CACACA;" d="M19,140c1.494,2.903-0.764,4.061-3,2c-1.262-1.923-2.355-3.875-4.269-5.942
			c-0.752,0.166-1.172,0.778-1.655,1.104c0.347-0.647-0.491-2.251,0.527-3.018c0.59-0.444,1.653-0.915,2.606-0.945
			C13.117,136.464,15.397,140.66,19,140z"/>
		<path style="fill:#C0C0C0;" d="M32.782,99.1c-1.477,2.006,0.357,3.275,1.218,4.914c-0.363,2.678-1.209,2.929-2.858,0.732
			c-0.342,0.095-0.785-0.167-1.142-0.126c-0.915-1.286-0.851-3.526-0.675-5.236c0.404-0.241,0.429-1.052,0.74-1.399
			c0.262-0.292,0.446-0.754,0.81-0.953C33.084,96.716,33.064,97.001,32.782,99.1z"/>
		<path style="fill:#C9C9C9;" d="M70,88c-1.348-0.323-2.058-1.661-2-3c0.639,0.107,0.914,0.755,1.941,1.004
			c0.071-4.601,0.342-8.546-0.417-12.526c0.488-0.608,1.47-0.658,1.622,0.363C70.248,78.917,72.355,83.976,70,88z"/>
		<path style="fill:#818181;" d="M34,104.014L39,107c-1.186,1.49-4.962,1.48-7,1c-0.482-1.018-0.642-2.161-0.858-3.255
			C32.054,104.492,33.023,103.963,34,104.014z"/>
		<path style="fill:#474747;" d="M62,39c-0.89-1.043-2.063-1.923-3-3c-0.425-0.488-0.491-1.658-1-2
			c1.17,0.334,3.512-0.737,4.569,0.356C63.661,35.487,63.31,38.562,62,39z"/>
		<path style="fill:#CFCFCF;" d="M71,28c-0.015,0.329-0.017,0.671,0,1c-2.331,0.016-4.978-0.401-7,1
			c-0.309-1.09-1.514-1.948-2.063-2.919C63.572,26.55,63.353,24.22,64,23c0.301-0.55,0.635-0.537,1,0
			c0.135,1.588-0.782,2.88-1.11,4.903L71,28z"/>
		<path style="fill:#FBFBFB;" d="M35,122c-0.545,2.544-2.366,0.962-1-1c-0.896-0.37-1.073-1.427-0.533-3.172L33,116v-5h1
			C35.316,114.523,35.034,118.284,35,122z"/>
		<path style="fill:#515151;" d="M16.858,127c0.854,0.337,0.822,0.67-0.06,1l-1.706,1.084c-2.06,0.167,1.457-8.181,0.908-7.084
			C18.422,121.329,17.917,125.265,16.858,127z"/>
		<path style="fill:#C5C5C5;" d="M67,16c-1.759,1.864,0.444,3.686,2.039,4.961C67.377,20.746,65.909,21.631,65,23h-1l1.535-2.895
			C66.146,18.951,65.106,17.684,64,17c0.073-0.291-0.149-0.754,0-1H67z"/>
		<path style="fill:#636363;" d="M30,104.619c-0.65,0.358-0.793,0.773-1.19,0.585c-1.289-0.608-0.626-5.141,0.516-5.821
			C30.433,100.989,31.433,102.981,30,104.619z"/>
		<path style="fill:#B8B8B8;" d="M19,128h-2.202l0.06-1c0.886-2.083,0.933-4.416,0.142-7c0.528-1.055,1.356-2.118,2-3V128z"/>
		<path style="fill:#818181;" d="M58.819,37c-0.121,0.667-0.812,1.307-0.819,2c-0.326,0.03-0.674,0.034-1,0
			c-0.69-0.072-2.149,0.344-1.955-0.78c0.474-0.588-0.402-2.974,1.02-3.142C57.101,34.956,58.048,36.585,58.819,37z"/>
		<path style="fill:#545454;" d="M26.673,104.728c0.047,1.147-1.134,1.16-1.872,0.919c-0.425-0.139-0.33-0.991,0.118-2.215
			C25.446,100.853,26.068,102.887,26.673,104.728z"/>
		<path style="fill:#858585;" d="M16.858,127c0.099-1.643,0.905-4.079-0.858-5l1-2C18.653,121.595,18.872,125.646,16.858,127z"/>
		<path style="fill:#5B5B5B;" d="M49,51c-0.057-0.626-0.13-1.25-0.281-1.861c0.941-0.023,1.783-0.372,3.328,0.036
			C51.376,50.659,50.272,51.284,49,51z"/>
		<path style="fill:#D0D0D0;" d="M10,144l-3-2l1-1C9.536,141.301,9.799,142.694,10,144z"/>
		<path style="fill:#E2E2E2;" d="M53,102l-0.005,4.378c-0.299-0.075-0.621-0.046-0.924-0.105c-0.048-1.487-0.243-3.006-1.071-4.273
			c0.306-0.478,0.64-0.465,1,0C52.284,101.127,52.618,101.14,53,102z"/>
		<path style="fill:#DFDFDF;" d="M47.192,135.992C48.43,136.68,49.366,138.016,50,140c1.715,0.105,2.922,1.442,3.621,4.011
			c1.811-0.166,2.938,0.497,3.379,1.989c0.873,0.284,0.86,0.618,0,1c-1.214,1.934-3.097,3.496-5.65,4.685
			c-4.103,2.868-3.425,5.879,2.034,9.031l0.606,2.449c1.264,1.362,1.895,2.044,1.895,2.044l11.93-0.321L69,167
			c-0.077,0.341,0.136,2-1.009,1.997l-27.766-0.062c-0.405-0.479-0.297-1.549-0.323-1.914C42.6,164.877,42.966,163.87,41,164
			c-0.289-0.288-0.906-0.557-1-1c-0.043-2.132,1.043-3.99,3.258-5.575c-2.271-1.443-3.024-2.918-2.258-4.425v-1
			c2.936-0.503,10.525-4.307,6.647-8.008c-2.75,1.093-4.556,0.85-5.419-0.73l-2.064-0.927c0.205-2.783-0.685-5.126-2.669-7.028
			c0.07-0.26-0.04-0.653-0.092-0.921c0.891-2.226,4.325-2.067,6.32-1.179C45.266,133.534,46.767,134.381,47.192,135.992z"/>
		<path style="fill:#919191;" d="M70,149c0.002,1.758,0.431,3.744-0.339,5.731C69.244,155.43,67.517,154.924,67,155
			c-1.262,1.083-2.737-0.223-3-2l-3-4c-2.393-1.855-2.726-3.521-1-5c-1.524-1.854-0.735-5.833,2-6
			c0.441-1.567,1.514-3.069,2.688-3.052c1.728,0.024,3.548-0.261,5.299,0.31L70,149z"/>
		<path style="fill:#8E8E8E;" d="M67,156c1.011,0,2.667-0.352,2.93,0.586C69.868,156.367,70.738,167.188,69,167
			c-3.452-0.63-13.787,1.46-15.012-0.603c-0.459-0.773-0.265-2.141,0.001-3.231c-1.119-3.123,7.27-8.954,10.01-7.165
			C63.625,153.854,65.907,154.762,67,156z"/>
		<path style="fill:#4F4F4F;" d="M36,141c0.215,3.968,1.567,8.06,1,12c0.964,2.22-2.389,1.745-4,1l-2.871,2.67l-3.116-4.197
			C24.66,151.944,24.322,150.453,26,148c-1.947-1.834-1.388-3.154,1-4l0.735-3.487C30.613,140.205,33.368,140.367,36,141z"/>
		<path style="fill:#5F5F5F;" d="M25,164c1.382,2.014-0.576,2.892-2.199,1.255c-0.676,0.139-1.075-1.083-1.724-0.373
			C19.96,162.115,17.669,159.949,17,157c-1.394-1.951-1.394-2.951,0-3c-1.375-1.628-0.793-2.184,1-1
			c4.756-1.55,7.134-2.325,7.134-2.325c4.329,2.792,5.599,6.086,3.81,9.883c1.3,1.337,0.707,2.067-1.78,2.191L25,164z"/>
		<path style="fill:#858585;" d="M41,152c-1.393-0.25-2.955-0.796-2.973-2.5c-0.012-1.084,0.511-2.253,1.165-3.214
			c-0.248-2.333,0.636-3.394,3.037-3.024c1.518-0.007,2.913-1.171,4.909-1.293c2.435-0.149,3.595,2.537,3.802,4.534
			c0.182,1.757-6.039,7.076-6.426,7.141C43.367,153.838,42.188,152.213,41,152z"/>
		<path style="fill:#4C4C4C;" d="M37.824,155.152c-0.058,3.774,0.244,7.431,1.19,11.595C37.358,167.187,35.6,166.596,35,166
			c-1.018-0.313-2.018-0.98-3-2l-4.118-1.78l1.509-3.431c-0.559-3.334,0.644-4.597,3.609-3.789
			C34.197,154.212,37.07,153.903,37.824,155.152z"/>
		<path style="fill:#616161;" d="M34.864,129.076c0.871,1.046,0.79,2.678,0.136,3.924c0.543,2.312,1.337,4.59,1,7
			c-1.929,0.431-6.521,1.051-8.552,0.692c-0.242-0.043-0.362-0.77-0.448-1.692c-1.692-0.5-1.271-2.166,1.264-5
			c-0.071-3.778,1.173-5.66,3.731-5.646C34.012,126.169,34.394,125.942,34.864,129.076z"/>
		<path style="fill:#989898;" d="M39.903,167.021c-0.059-0.837,0.255-2.493,1.097-3.021c1.968-1.233,3.371-2.727,5.402-5.057
			c1.946,2.432,5.263,3.272,6.39,7.487C48.325,168.176,43.977,166.513,39.903,167.021z"/>
		<path style="fill:#8E8E8E;" d="M39,127l5,2c2.716,1.566,2.88,2.783-0.276,4.207c-1.628,1.801-4.08,1.902-6.32,1.179
			c-0.179-0.927-0.527-1.924-1.404-2.386C34.727,128.544,34.681,124.57,39,127z"/>
		<path style="fill:#999999;" d="M42.228,143.262c-0.456,1.457-1.476,2.77-3.037,3.024c-1.825-3.25-2.668-7.347-1.696-10.979
			c1.234,0.264,2.561,0.182,4.273,0.814L42.228,143.262z"/>
		<path style="fill:#797979;" d="M41,153c1.407,1.603,3.648,1.757,5.031,4.358C44.17,159.369,42.25,161.661,40,163
			C39.294,159.66,36.976,154.31,41,153z"/>
		<path style="fill:#5C5C5C;" d="M32,164c1.738,0.846,2.404,1.846,2,3l-10.032,0.101c-0.935,0.009-1.654-0.347-1.6-0.984
			c0.023-0.27,0.217-0.581,0.432-0.862c0.889-0.014,1.819-0.402,2.199-1.255C27.987,161.391,29.031,161.44,32,164z"/>
		<path style="fill:#F6F6F6;" d="M37,124c0.709,0.291,0.696,0.626,0,1c2.2,0.148,2.866,0.815,2,2
			c-0.892-0.089-2.614-0.385-2.903,0.579C35.654,129.06,36.13,130.593,36,132c-0.045,0.494-0.545,0.913-1,1
			c-0.288-1.227-0.043-2.665-0.136-3.924c-2.377-0.618-1.162-5.649,1.136-5.076H37z"/>
		<path style="fill:#D4D4D4;" d="M36,140c-0.045,0.321-0.018,0.676,0,1c-2.123,0.245-4.44-0.49-6.993,0.157
			c-1.239,0.314-1.314,2.245-2.007,2.843c-2.982-1.268-2.854-3.674,0-5C29.717,140.597,32.956,139.89,36,140z"/>
		<path style="fill:#D5D5D5;" d="M37.824,155.152c-1.529,0.211-3.323-0.567-4.824-0.152c-0.722-0.291-0.709-0.625,0-1
			c1.342-0.24,3.384,0.633,4-1C37.399,153.596,37.836,154.368,37.824,155.152z"/>
		<path style="fill:#E1E1E1;" d="M67,155v1h-3c-2.86-0.064-2.733-2.324,0-3L67,155z"/>
		<path style="fill:#BABABA;" d="M35,166c-0.097,0.416-0.513,0.995-1,1l-2-3C33.339,164.437,34.444,164.481,35,166z"/>
		<path style="fill:#575757;" d="M55,83c1.609-0.598,3.147-0.938,3,1l1,5c2.467,2.257,2.467,3.59,0,4l-6,9h-1
			c-3.711-2.037-4.378-3.704-2-5c-1.413-0.207-1.196-2.591-1-4c-0.9-1.44-0.708-4.416,0-6c-1.583,0.061-1.469-2.644,0-3
			c0.437-0.953,2.042-1.427,3-1C52.038,80.623,53.038,80.623,55,83z"/>
		<path style="fill:#E0E0E0;" d="M66,90v1l-7,2v-4C60.615,91.788,63.265,90.937,66,90z"/>
		<path style="fill:#E1E1E1;" d="M53,121c2.175,1.262,1.992,7.155,0,9c-3.693,1.301-5.462-1.095-1.007,0.213
			c0.38,0.111,0.701,0.421,1.007,0.787l0.69,2.095c-1.651,0.773-1.215,2.075,1.31,3.905c1.064,3.352-2.602,5.483-5,3
			c-1.104-1.417-1.771-3.084-2-5c-1.041-0.564-2.466-1.162-4.276-1.793c0.483-1.372,1.142-2.881,0.276-4.207
			c-0.051-1.7-0.048-3.45,0.008-5.25c-2.613,1.825-4.949,2.242-7.008,1.25v-1l10-6c1.6,0.945,2.263,3.315,1.989,7.111
			C49.759,121.892,51.096,120.522,53,121z"/>
		<path style="fill:#787878;" d="M53,121c-0.821,0.801-1.189,2.079-1.387,3.504c-0.329,2.371-1.416,2.626-3.147,2.595
			c-2.395-0.043-1.937-7.522-1.466-9.099c0.972-0.583,1.25-2.134,2-3c1.166,0.224,2.785,0.395,3.406,1.148
			C53.664,117.677,52.822,119.515,53,121z"/>
		<path style="fill:#D0D0D0;" d="M34,121c0.042,0.685,0.23,1.763,1,1c0.395-0.025,0.991,0.198,0.975,0.519
			C35.959,122.839,36.226,123.74,36,124c-1.192,1.368-1.268,3.305-1.136,5.076c-0.965-0.731-2.203-0.592-3.138,0.582L28.264,134
			l-1.367-0.128c-1.18-2.49-2.197-5.12-3.051-7.89c0.928-1.423,1.964-2.753,3.129-3.982c1.5,0.62,2.81,1.915,3.929,3.885
			c-0.202-2.084,0.164-3.712,1.097-4.885C32.65,119.366,33.778,119.069,34,121z"/>
		<path style="fill:#717171;" d="M38,91c2.575-1.684,6.854,3.659,5,6c0.5,1.913-3.437,1.89-5,1c-0.238,1.443-1.766,1.478-3,0.908
			c-0.742,0.025-1.482,0.09-2.218,0.192c-1.12-0.03-1.891-0.976-1.906-2.068l4.316-4.966c0.353-0.177,0.566-0.636,0.874-0.874L38,91
			z"/>
		<path style="fill:#D0D0D0;" d="M48,98c0.474-2.148,1.141-2.482,2-1c-0.247,1.934,0.821,3.549,2,5h-1c-1.882-1.519-4.312-2.24-6-4
			c-0.873-0.284-0.86-0.618,0-1C46.775,94.852,47.706,95.422,48,98z"/>
		<path style="fill:#DDDDDD;" d="M45,97v1c-1.726,1.069-4.076,1.082-6,1c-0.889,0.46-1.19,0.082-1-1c1.747,0.044,3.682,0.384,5-1
			C43.118,94.337,44.141,94.467,45,97z"/>
		<path style="fill:#D1D1D1;" d="M39,107c-2.18-0.627-3.873-0.842-5-2.986C35.963,104.117,38.312,105.067,39,107z"/>
		<path style="fill:#B2B2B2;" d="M38,98c0.297,0.368,0.632,0.703,1,1c-0.468,0.33-1.004,0.987-1.648,1.042
			c-0.972,0.083-1.782-0.415-2.352-1.134C35.934,98.57,36.97,97.974,38,98z"/>
		<path style="fill:#CACACA;" d="M17,154v3l-3-3v-1C15.559,150.871,16.403,151.491,17,154z"/>
		<path style="fill:#CACACA;" d="M66.147,74.147c-1.12,0.961-1.703,2.518-1.958,3.853c-2.295,1.425-4.992,3.407-6.189,6
			c-0.934-0.365-2.089-0.551-3-1c-0.873-0.284-0.86-0.618,0-1c1.196-1.656,2.697-3.203,4.501-4.639
			c-2.202-1.705-2.277-3.033-0.225-3.983c0.503-1.331,1.741-2.123,3.715-2.378C64.115,71.978,64.891,73.308,66.147,74.147z"/>
		<path style="fill:#CECECE;" d="M62,57c-2.482,1.618-2.12,4.222-2,7c-0.319,2.656-1.239,2.541-2,0c-1.304-1.231-1.638-2.897-1-5
			l2-2C59.064,54.14,61.324,54.267,62,57z"/>
		<path style="fill:#CFCFCF;" d="M62.99,71c-3.57,2.166-6.263-5.395-2.99-7C61.955,65.733,63.088,68.406,62.99,71z"/>
		<path style="fill:#4D4D4D;" d="M30,120h2c0.873,0.284,0.86,0.618,0,1c1.202,1.72,2.107,6.485-1.009,6.831
			c-2.518,0.28-3.976-3.995-4.016-5.831C27.227,118.3,28.235,117.633,30,120z"/>
		<path style="fill:#C4C4C4;" d="M30,120c-1.388,0-2.164,1.091-3.026,2c-0.04-1.833-0.329-4.167-0.974-6
			C27.683,116.932,29.121,118.278,30,120z"/>
		<path style="fill:#777777;" d="M34,121h-2v-1c1.099-1.035,1.178-2.573,1-4C34.306,117.331,34.134,119.257,34,121z"/>
		<path style="fill:#737373;" d="M28.264,134c-0.749,1.955-1.786,4.014-3.264,2l-3.089-4.911c-1.365-2.445-1.391-2.871,1.016-4.407
			c0.285-0.26,0.593-0.494,0.919-0.701C27.379,126.346,27.797,130.92,28.264,134z"/>
		<path style="fill:#D2D2D2;" d="M22.927,126.682c-0.592,1.401-0.921,2.89-1.016,4.407c-0.738-1.174-2.009-1.996-2.911-3.089
			C20.361,127.731,21.648,127.21,22.927,126.682z"/>
		<path style="fill:#C9C9C9;" d="M67,83c-1.702-0.992-3.363-2.954-2.811-5C66.187,78.742,66.503,81.144,67,83z"/>
		<path style="fill:#DADADA;" d="M59,89c-0.751-1.297-1.803-3.26-1-5C59.844,84.72,59,87.46,59,89z"/>
		<path style="fill:#717171;" d="M64.864,50c-1.63,1.978-0.438,5.419-2.864,7h-3l-3.228-5.343c-0.967-3.003,6.74-4.476,8.3-4.621
			C65.112,46.939,65.036,49.4,64.864,50z"/>
		<path style="fill:#989898;" d="M58,39c2.496-0.228,3.123,2.239,4.882,4.544c-1.216,0.744-3.466,0.966-4.362-0.51
			C57.873,41.965,57.987,40.285,58,39z"/>
		<path style="fill:#7B7B7B;" d="M57.988,45.846c-0.978,1.041-1.823,3.081-4.479,2.818c-1.379-0.137-0.476-3.164,1.045-3.773
			C55.543,44.496,56.875,43.564,57.988,45.846z"/>
		<path style="fill:#8C8C8C;" d="M57.988,45.846c1.071-1.14,3.871-1.333,4.735-0.162c-1.839,0.413-2.527,0.832-3.401,1.144
			C58.843,47,58.153,46.704,57.988,45.846z"/>
		<path style="fill:#CCCCCC;" d="M27,139c-0.326,3.468-6.947,4.432-8,1c-0.475-1.006-0.786-1.953-1-3
			c1.31,1.022,2.78,2.174,4.503,2.11c1.732-0.064,2.451-1.496,2.497-3.11c1.287-0.29,2.464-0.996,3.264-2
			C28.522,135.705,26.966,137.332,27,139z"/>
		<path style="fill:#7A7A7A;" d="M52,82c-1.663,1.86-5.197,1.942-7,0c-0.262,0.8-0.597,0.78-1,0c0.173-0.561-0.486-0.995-1-1v-1
			c1.222-2.858,2.889-4.858,5-6c0.748-0.133,1.708-0.014,2.087-0.858c1.4-2.393,3.957-1.495,2.349,0.901
			C52.663,77.026,52.517,79.678,52,82z"/>
		<path style="fill:#E0E0E0;" d="M56.01,73.357C54.84,75.936,54.504,78.817,55,82v1c-0.685-0.297-2.26-0.116-3,0
			c-0.873-0.284-0.86-0.618,0-1l-0.077-7.05c-0.008-0.762-0.355-1.396-0.683-1.645c-0.265-0.201-0.747-0.183-1.153-0.164
			c0.405-0.904,0.818-1.812,1.105-2.761c0.274,0.045,0.635-0.185,0.89-0.089c0.055-2.507,1.094-2.474,2.987-1.142
			C56.664,70.234,57.571,71.763,56.01,73.357z"/>
		<path style="fill:#DADADA;" d="M48,74c-0.609,1.153-2.269,1.613-2.739,3.28l-0.548,1.944C44.534,79.861,43.844,80.253,43,80
			c0.873-1.512,1.128-3.272,1-5C45.381,74.874,46.646,74.241,48,74z"/>
		<path style="fill:#585858;" d="M57,59c0.794,0.23,1.83,0.82,1.786,1.631C58.723,61.769,58.477,63.06,58,64
			c1.974,2.598,0.453,6.054-2.932,5.15c-0.77,0.688-2.021,1.506-2.987,1.142c-0.577-1.768-2.393-3.352-1.916-5.519
			C50.498,63.26,51.957,61.496,53,60C54.027,59.214,55.969,60.031,57,59z"/>
		<path style="fill:#CECECE;" d="M59,57c-2.258-0.711-2.584-3.341-3.228-5.343C57.503,52.918,59.198,54.729,59,57z"/>
		<path style="fill:#CECECE;" d="M30.876,97.031c-0.034-2.438,2.306-3.959,4.316-4.966C34.875,94.406,32.859,95.952,30.876,97.031z"
			/>
		<path style="fill:#939393;" d="M70,132c0.123,2.564-2.592,2.203-5.677,1.954C63.507,130.401,64,126.676,64,123
			c2.073-0.871,2.695-3.614,5.942-3.095L70,132z"/>
		<path style="fill:#777777;" d="M64,122h-2c-2.638-1.716-4.804-2.256-6.497-1.62L55,119l-0.769-1.671
			C54.031,116.896,54.71,116.435,55,116c2.096-1.211,4.781-1.888,6.97,0.37C63.359,117.803,66.174,119.613,64,122z"/>
		<path style="fill:#858585;" d="M62,138c-0.58,2.063-0.191,4.428-2,6c0.138,3.036-0.862,3.702-3,2
			c-1.63-0.064-4.123,0.79-5.194-1.193c-0.635-1.175-1.761-3.151-1.806-4.807c1.756-0.453,3.791-1.701,5-3l5-2
			c0.658,0.093,1.488,0.299,1.77,0.79C62.207,136.55,62.07,137.339,62,138z"/>
		<path style="fill:#949494;" d="M62,122c2.053,3.516,0.758,8.287,0.771,12.239C60.8,133.888,60.578,133.184,60,133
			c-2.136-0.579-3.136-2.245-3-5l-1-5c-0.505-0.919-1.017-2.967,0.159-3.491C56.462,119.373,61.148,121.57,62,122z"/>
		<path style="fill:#777777;" d="M55,131c2.727-0.441,3.464,0.585,5,3v1l-5,2c-0.832,0.1-2.813,0.399-3.646-0.506
			c-0.565-0.614-1.572-2.475-0.787-3.212L53,131c-0.756-0.254-0.732-0.59,0-1C54.397,127.562,55.541,128.324,55,131z"/>
		<path style="fill:#E7E7E7;" d="M60,133v1l-5-3c-0.165-1.422,0.502-2.422,2-3C58.348,129.407,58.731,131.529,60,133z"/>
		<path style="fill:#515151;" d="M27,139c0.033,1.614-0.244,3.407,0,5c0.269,1.754-0.302,2.582-1,4
			c0.21,2.189,0.315,3.283,0.315,3.283c-2.802,0.663-5.573,1.236-8.315,1.717c-0.356,0.217-1,0.493-1,1
			c-1.055-0.146-2.081-0.457-3-1c-2.93-1.21-2.639-5.572-1-8c0.703-1.041,2.664-1.5,3-3c0.455-0.78,2.701-0.797,3-2
			C21.718,140.281,24.392,139.765,27,139z"/>
		<path style="fill:#585858;" d="M44,82c0.255-0.059,0.766-0.101,1,0c1.142,0.564,1.809,1.23,2,2c1.079,0.414,1.412,1.747,1,4
			c0.913,1.304,0.68,4.306,0,6c1.654,0.17,1.375,3.02,0,4c-1.076,0.099-2.053-0.657-3-1c-0.587-0.213-1.387,0.14-2,0l-5-6
			c-1.26-1.512-1.065-3.78-2.126-6.525C38.621,83.587,41.265,82.631,44,82z"/>
		<path style="fill:#9A9A9A;" d="M56,123l1,5c-0.006,0.706,0.181,1.488-0.121,2.358C56.636,131.059,55.795,131.19,55,131l-2-1
			c-1.489-2.964,0.37-5.918,0-9c0.675-0.659,1.237-1.432,2-2c1.467-0.225,1.636,0.312,0.506,1.611L56,123z"/>
		<path style="fill:#868686;" d="M57,147c1.379-1.74,2.712-1.073,4,2l3,4v3l-10.01,7.165c-2.905-0.968-6.553-4.194-7.702-7.74
			C47.532,151.263,52.683,147.425,57,147z"/>
		<path style="fill:#9F9F9F;" d="M47.996,140.703c-1.659,0.662-3.001-0.222-4.632,1.222c-0.374-0.956-0.979-4.426,0.694-4.909
			C45.747,136.527,47.136,138.65,47.996,140.703z"/>
		<path style="fill:#A1A1A1;" d="M48,135c0.464,0.928,0.195,1.259-0.808,0.992c-0.857,0.025-1.655,0.009-2.507-0.298
			c-0.915-0.33-1.328-1.444-0.96-2.488c0.87-0.962,2.331-1.342,3.929-0.483C48.361,133.104,49.044,133.753,48,135z"/>
		<path style="fill:#929292;" d="M50,140c-1.905,0.492-2.943-2.572-2.808-4.008c0.332-0.275,0.604-0.612,0.808-0.992
			C50.749,135.17,49.945,137.962,50,140z"/>
		<path style="fill:#E5E5E5;" d="M61,149c-1.292-0.672-2.376-2.16-4-2v-1c1.332-0.164,2.077-1.198,3-2
			C60.058,145.712,60.55,147.357,61,149z"/>
		<path style="fill:#E1E1E1;" d="M64,153c-1.674-0.711-2.984-2.124-3-4C62.609,149.837,64,151.027,64,153z"/>
		<path style="fill:#C4C4C4;" d="M33,154v1c-2.447,0.677-2.941,2.306-3.525,5.135c-0.356,1.724,1.304,2.034,2.525,3.865
			c-2.352-0.768-4.669-1.156-7,0c0.536-1.201,1.996-1.768,2.937-2.966c1.835-2.336,1.376-5.08-0.255-7.098
			C23.581,148.86,18.83,156.473,18,153c3.653-2.223,5.784-0.218,8-5c-1.133,2.302,3.498,6.33,4.636,6.811
			C31.502,155.177,32.224,154.139,33,154z"/>
		<path style="fill:#E5E5E5;" d="M44,129c-1.907,0.226-3.835-0.45-5-2C39.733,123.414,46.348,125.666,44,129z"/>
		<path style="fill:#979797;" d="M44,129c-0.797-1.768-3.278-1.828-5-2c-0.191-0.821-3.823-0.779-2-2l7.785-4.019
			C46.855,123.76,46.819,127.716,44,129z"/>
		<path style="fill:#D7D7D7;" d="M52,82v1c-1.005,0.157-1.893,1-3,1c-0.191,2.386-1.37,2.344-2,0c-0.913-0.376-1.588-1.113-2-2
			C47.281,82.983,49.723,82.998,52,82z"/>
		<path style="fill:#A5A5A5;" d="M50,97c-0.669,0.182-1.301,0.936-2,1v-4l1-1C50.086,94.04,50.182,95.575,50,97z"/>
		<path style="fill:#DEDEDE;" d="M49,93c-0.297,0.368-0.632,0.703-1,1v-6c-0.924-1.334-0.453-1.866,1-1V93z"/>
		<path style="fill:#A8A8A8;" d="M49,84v3c-0.421,0.097-1,0.51-1,1c-1.467-0.644-0.943-2.632-1-4H49z"/>
		<path style="fill:#747474;" d="M53,130c0.115,0.228,0.144,0.865,0,1c-1.901,0.789-5.996,1.704-6.832-1.004
			c-0.534-1.732,2.832-2.549,4.016-1.851C50.975,128.611,51.895,129.447,53,130z"/>
		<path style="fill:#757575;" d="M56.01,73.357c0.506-2.845,2.551-2.733,3.265,0.021c-0.548,1.641,1.29,1.785,3.725,2.536
			C61.067,78.738,58.636,82.417,55,82c-3.421,1.387-1.669-9.367-1.94-8.451C53.322,72.665,55.081,73.351,56.01,73.357z"/>
		<path style="fill:#666666;" d="M60,64c0.113,2.615,0.96,5.234,2.99,7c-0.04,1.063,0.237,2.893-1.334,3.132
			c-0.694,0.106-1.518-0.749-2.381-0.754l-3.265-0.021c-1.103-1.255-2.242-2.735-0.942-4.207C56.547,67.828,57.121,65.733,58,64H60z
			"/>
		<path style="fill:#E4E4E4;" d="M62,122c-2.039,0-3.97-0.583-5.706-2.085c-0.626,1.424-0.213,2.257-0.294,3.085
			c-1.238-0.968-1.101-2.55-1-4C57.244,119.153,60.716,119.8,62,122z"/>
		<path style="fill:#DFDFDF;" d="M60,135c-0.673,1.778-3.468,1.816-5,2C56.315,135.587,57.957,134.657,60,135z"/>
		<path style="fill:#ECECEC;" d="M57,128c-1.318-1.375-1.182-3.14-1-5C57.521,124.189,57.015,126.285,57,128z"/>
	</g>
</g>
</svg>
