<?xml version="1.0" encoding="iso-8859-1"?>
<!-- Generator: Adobe Illustrator 30.1.0, SVG Export Plug-In . SVG Version: 9.03 Build 0)  -->
<svg version="1.1" id="Layer_1" xmlns="http://www.w3.org/2000/svg" xmlns:xlink="http://www.w3.org/1999/xlink" x="0px" y="0px"
	 viewBox="0 0 151 215" style="enable-background:new 0 0 151 215;" xml:space="preserve">
<g>
	<g>
		<path style="fill:#FEFEFE;" d="M4,0l28.861,14.139l28.285,13.688l27.699,13.334c7.061,3.399,13.795,6.763,20.775,10.183
			c2.147,1.052,3.13,2.991,3.805,5.384L151,190v4l-1.119,3.197c-36.931,5.327-74.096,10.566-111.494,15.715L9,215H0V0H4z
			 M3.454,10.278c0.081,1.057-0.445,2.777-0.263,3.962c0.164,1.07,1.018,3.235,2.746,2.651c-0.901,0.869-1.426,1.916-1.957,2.998
			C1.688,24.56,3.623,29.973,3,35c-0.041,0.328,0,0.67,0,1v2c0,1.681,0.258,3.392,0.941,4.945C1.809,45.07,3.492,48.374,3,51
			c-0.242,1.295,0.145,2.689,0,4c-0.066,0.598,0.194,1.215,0.181,1.819C3.173,57.21,2.945,57.614,3,58
			c0.133,0.939-0.448,2.375,0.162,3.435C3.817,62.575,5.877,61.821,7,61.89c1.369,0.083,3.289-0.335,4,1.11l-7.304,0.04
			c-1.224,3.276-1.783,8.096,1.365,9.868c-3.268-4.899-2.318,22.393-1.076,21.123c-0.414,1.036-2.016,3.34-0.349,4.437
			c1.113,0.732,2.535,0.984,3.475,1.474l-4.064,0.053L3,115v2l0.168,4.832C3.251,124.216,3,126.608,3,129v2l0.006,20.918
			c1.079,0.107,1.426-0.634,1.918-0.902c2.581,1.789,5.495-1.365,8.076-1.239L14,150c-0.008,0.323,0.029,0.715,0,1
			c-3.339,0.493-6.895,1.16-10.252,2.757c-0.913,0.434-0.229,1.785-0.385,2.277c-1.037,3.269,0.255,10.106,0.131,13.667
			C3.317,174.757,2.597,179.873,3,185c0.026,0.328,0.015,0.671,0,1c-0.214,4.693,0.113,9.356,0.375,14.01
			c0.229,4.079-1.213,8.326-0.097,12.755c0.289,0.49,1.426-0.12,1.721,0.09c1.075,0.764,2.16-0.65,3-0.756l18.828-2.365
			c1.771-0.222,3.236-0.635,4.172-1.69c0.307,0.055,0.752-0.249,1.034-0.131c4.037,1.677,8.483-0.713,13.07-0.7
			c1.85,0.005,1.724-1.38,1.994-2.213c0.467,0.277,1.05,1.563,1.948,1.444l18.886-2.498c1.235-0.163,1.79-1.199,1.968-1.946
			l1.1,0.039c4.493,0.161,9.128,0.495,13.22-1.551c2.326,1.725,7.287,0.984,8.919-1.509l1.971-0.152l0.903,0.021
			c1.785,2.046,5.147,0.524,6.969-0.961c0.318-0.011,0.768-0.199,1.055-0.074c1.901,0.833,4.264-0.336,5.877-0.743
			c0.099,1.027,12.867,0.541,11.087-3.071h1c-0.359,4.421,9.371,0.148,10.223,0.168c1.405,0.033,10.926,0.665,10.871-2.147
			L143.055,190c1.144,0.623,2.749,3.984,4.82,1.603c-0.204-2.787-1.465-6.895-2.729-9.879c-0.615-1.453-2.561-0.364-3.14,0.168
			c-0.057-0.928-0.078-1.864-0.063-2.793c1.92,0.885,2.284-1.148,2.127-2.539c-0.105-0.934-0.832-2.892-2.044-2.719
			c0.07-4.436,0.005-10.232-3.703-12.998c0.064-0.285-0.089-0.647,0.013-0.919c1.467-3.914-0.966-8.489-4.273-10.916
			c4.682,0.756-0.817-11.306-2.415-11.058l-0.654-2.113c1.314-1.329,1.275-3.401-0.097-4.672c-0.021-0.36,0.126-0.74,0.081-1.097
			c-0.062-0.488-0.189-0.979-0.304-1.457l-3.052-12.623c-0.587,1.525-1.316,2.407-1.446,3.011L126,115v-1
			c1.45-1.491-0.027-3.301,0-5c0.015-0.963-1.287-1.664-2-2c1.817-2.082-0.043-4.148-0.987-6.144
			c-0.719-1.52-0.247-3.942-1.932-4.99c-0.309-0.718-0.577-1.951-0.609-2.764c-0.106-2.666-0.594-5.925-2.425-8.079
			c0.887-2.534-0.354-5.861-2.039-7.958c0.333-2.105-0.611-4.049-1.008-6.066c-0.354-1.798-0.649-4.113-2.976-3.787
			c-0.345,0.048-0.707-0.132-1.055-0.108L111,66c0.663-0.09,1.501-0.291,1.762-0.792c1.997-3.827-6.517-7.07-6.762-7.208
			c0.228-0.383,0.557-0.69,0.966-0.869c0.774,0.795,2.774,1.398,4.145,1.763c0.119-5.482-5.012-6.338-8.83-7.647
			c-3.469-2.956-7.954-5.211-12.438-5.979c-1.207-0.207-2.9-1.078-3.803-1.934c-1.541-1.46-13.687-8.712-15.811-6.583
			c-0.584-2.845-4.583-4.861-7.228-3.794c-3.019-2.537-6.046-5.409-9.864-3.175c2.785-2.427-11.982-8.419-14.136-8.984
			c-0.306-0.08-0.684,0.109-1,0.066c-0.279-0.342-0.691-0.558-1-0.864c-0.808-0.799-1.795-1.83-3-2c-4.981-0.702-8.685-5.72-8.896-1
			c-1.378-0.579-2.42-2.04-4.096-1.874c0.878-4.878-4.731-4.387-7.787-5.934C10.032,7.577,7.176,4.955,3.122,4.03
			C2.602,6.376,3.308,8.373,3.454,10.278z"/>
		<path style="fill:#EBEBEB;" d="M38,20.864c0.316,0.044,0.694-0.146,1-0.066c2.91,1.27,3.102,8.276,0,9.202
			c3.136,1.706,3.533,10.628,0,12l1.752,1.744c-1.237,5.131-1.302,10.166-0.196,15.105c1.357,1.374,3.186,2.06,5.487,2.056L47,63
			c0.257-0.9,0.592-0.882,1,0c1.691-1.318,4.089-1.951,7.192-1.897l6.615-3.085L64,59c0.57-1.711,1.236-2.044,2-1
			c0.68-2.93,1.68-3.356,3-1.276c1.881,0.043,1.829,0.762,0,1.276c0.427,1.261-0.573,1.594-3,1c0.451,1.512-0.882,2.519-4,3.021
			c0.27,1.048-0.048,1.987-0.955,2.818C64.809,66.45,66.794,68.503,67,71c3.162-0.704,8.945,3.107,8.063,6.917
			C74.825,78.667,74.467,78.675,74,78c-4.962-1.894-9.672-4.341-14.129-7.342c0,0,0.043,1.114,0.129,3.342
			c3.083,7.313,4.625,10.969,4.625,10.969C66.794,85.026,67.71,85.747,67,88l-0.623,2.163c2.05,2.576,2.897,4.842,2.542,6.798
			c0.07,3.621-1.364,1.015-0.553,0.596c0.514-0.266,4.282,4.969,0.891,5.793c1.219-0.598,1.8,0.286,1.743,2.651
			c2.914,0.136,4.771,6.967,3,9c0.87,0.273,0.854,0.608,0,1l2.315,0.634c1.794,4.49,3.35,8.99,4.666,13.5
			c1.309-0.976,1.848-0.616,1.018,0.866c-0.834,2.361-0.792,2.646,0.127,0.853c0.96,12.57,14.419,10.253,8.662-1.554L91,128
			c-0.811-0.286-0.798-0.621,0-1c0.067-2.671,0.195-9.363-3.636-8.049L86,117c-0.874-0.296-0.86-0.642,0-1.037
			c-0.644-1.759,0.265-1.847,2.724-0.265c-0.994-2.333,0.142-2.951,2.276-1.698l0.43,0.668c-2.541-6.321-3.335-12.472-2.383-18.453
			c-0.354-1.004-0.932-1.959-1.732-2.866c-2.557,0.069-3.191-2.03-1.543-3.882c-5.155-3.516-7.732-5.274-7.732-5.274
			C78.63,87.316,77.95,89.252,76,90c-1.384,3.031-3.751,2.255-3-1l0.274-2.806c-1.188-2.87-0.972-4.883,0.65-6.04
			c-1.408-0.637-1.029-1.383,1.139-2.238C76.606,76.8,77.585,75.161,78,73c0.002-2.927,3.341-2.803,4,0
			c0.747,1.465,0.74,3.555-0.022,6.272c3.718,5.033,5.912,5.21,6.582,0.53L91,80c1.978,0.959,2.282,3.065,0.912,6.321
			C95.998,87.507,99.361,88.066,102,88c0.284-0.871,0.618-0.859,1,0c5.213,1.246,10.624,2.165,16.232,2.756l1.24,2.346
			c0.032,0.813,0.3,2.045,0.609,2.764c-1.766,1.537-3.46,1.915-5.081,1.134c-2.882-2.439-5.173-2.783-6.873-1.032L107,96
			c-1.481-0.832-2.814-2.165-4-4c-1.32,1.037-2.32,1.037-3,0c-1.66,1.044-3.922,1.093-6.787,0.147
			C93.068,95.161,92.997,98.112,93,101c1.121,1.62,1.466,3.925,1.035,6.916c1.375,2.786,1.74,5.118,1.093,6.995
			c-0.071,1.874-0.723,3.179-1.955,3.916c2.535-0.033,2.69,0.456,0.827,2.173c2.844-0.508,3.163,1.838,1.136,3.42l1.967,8.013
			l-1.145,2.391c0.757,3.468,4.089,4.528,9.994,3.18c0.696,0.93,1.354,1.215,2.164,0.261c0.97-2.226,2.953-1.21,1.796-0.538
			c-1.75,1.016-1.29-5.172,2.088-3.727c1.585,0.514,2.228,1.843,1.929,3.988c3.747,1.217,5.11-0.669,4.088-5.66L120,131
			c-0.715-0.291-0.702-0.625,0-1c0.284-0.873,0.618-0.86,1,0c0.873,0.284,0.86,0.618,0,1c1.887,0.528,2.622,2.469,2.205,5.823
			c2.048-2.441,3.98-3.382,5.795-2.823c1.268-0.128,1.782,0.66,1.995,1.837l0.654,2.113c-0.496,1.48-1.806,2.29-3.929,2.43
			c-1.768,1.34-3.601,1.803-5.498,1.388c-0.623,1.401-0.567,2.951,0.169,4.649L121,147c-1.418,1.998-1.457-0.088-1.213-2
			c-1.793-1.488-3.698-2.013-5.714-1.575l-1.95-1.354c-0.75,0.883-1.019,1.172-1.402,0.005L109,143.678l-7.475-0.939
			c-3.041,0.925-5.542,0.95-7.505,0.077c-2.392,1.385-5.065,2.446-8.021,3.184c-1.003,0.336-1.336,0.003-1-1
			c-6.336-1.668-12.003-2.668-17-3c-0.284,0.873-0.618,0.86-1,0c-3.898-0.943-7.854-1.501-11.866-1.674l-2.21-1.526
			c-1.207,0.748-1.983,0.488-1.924-0.955c-2.567,1.402-8.277,1.573-10-0.845c-1.571,2.198-3.081,1.427-4-1
			c-0.284,0.873-0.618,0.86-1,0c-2.014,4.573-4.326,5.928-6.937,4.063c-3.25-2.278,2.432-6.114,4.937-7.063
			c-1.539-0.568-1.237-1.568,0.906-3c-1.659-0.045-2.324-1.379-1.997-4.003c-6.592-1.19-9.219,0.078-7.879,3.804L23,131
			c1.443,1.29,0.831,1.693-1,1c-1.861-0.491-2.524-2.161-1.987-5.008c-5.605,0.071-10.543-0.802-14.816-2.619L5,122.856
			c-0.049-0.873,0.268-2.158,0.879-2.132C12.454,122.069,18.495,122.161,24,121c3.062-0.022,6.243-0.042,9.543-0.059
			c0,0,0.486-0.98,1.457-2.941c-0.729-2.887-0.676-6.019,0.16-9.399l0.294-7.798C33.54,101.45,32.055,101.182,31,100
			c-0.873-0.284-0.86-0.618,0-1c-0.9-0.183-0.864-0.523,0-1c0.459-1.899,2.164-2.529,5.114-1.892L38,81c-0.873-0.284-0.86-0.618,0-1
			l0.097-4.082c-3.17-0.683-6.574-0.505-10.213,0.533L26,75c-2.656-0.319-2.541-1.239,0-2l0.714-2.059l12.117-0.901
			c3.311-9.288-6.954-8.31-12.399-5.597L24.055,64c-3.352,0.474-5.703-0.192-7.055-2c-0.031,3.53-2.956,0.771-4-1
			c-0.407-1.876,0.334-1.987,1.297-0.223l1.4-1.896l10.38-1.239C26.133,54.987,25.108,52.774,23,51c-2.14-1.52-1.397-4.143,1-5
			c2.212-1.12,2.586-0.042,2.987,2.049c3.128-0.61,5.133-0.073,6.013,1.612c1.201,1.588,0.365,2.94-2.507,4.057
			c0.326,7.524,7.705,2.481,3.561-2.219C33.522,50.896,33.745,49.866,34,49c1.385-4.378,1.576-10.714,0-15
			c-0.59-3.256,1.516-3.955,3-1c0.813-3.157,0.885-6.483,0.17-9.67C33.045,22.763,34.79,19.438,38,20.864z"/>
		<path style="fill:#3C3C3C;" d="M19,171c0.279,2.247,0.441,4.482,0.486,6.703C18.132,178.131,16.97,179.23,16,181
			c1.417,1.306,0.775,1.907-1,1c-0.138,2.834-1.512,3.654-4.12,2.46C8.061,185.388,5.434,185.568,3,185
			c-0.403-5.127,0.317-10.243,0.493-15.299C3.832,166.487,8.185,162.819,11,165l5-3c0.564-1.481,2.653-1.436,3.597-0.526
			C19.946,161.81,19.476,170.029,19,171z"/>
		<path style="fill:#E0E0E0;" d="M11,135c-2.421,7.776,1.11,15.06,8.418,6.382c-0.158-1.677,0.321-2.756,1.436-3.237
			c2.065-0.685,6.353,0.666,8.209,1.917c2.699,1.49-0.021,4.635-2.276,5.205c-0.121,1.37-0.985,2.267-2.592,2.691
			c1.158,0.672,2.396,0.078,3.715-1.783c1.254-3.582,5.256-0.963,3.089,1.94c0.244,1.693-0.447,3.175-2.074,4.443
			c1.407,1.797,2.764,2.944,4.074,3.441c0.288-0.873,0.626-0.86,1.013,0c2.118,0.519,3.192,3.331,3.034,5.36
			c1.175,1.044,1.883,2.101,2.126,3.171c2.381,1.77,4.656,3.26,6.827,4.47l0.157-1c1.962-0.217,3.925,0.762,5.89,2.937
			c0.708,1.157,0.843,2.556,0.406,4.197c2.604,1.788,3.787,3.825,3.547,6.113c0.36,0.901-0.008,1.119-1,0.753l-1.068,2.106
			C48.8,184.328,43.822,183.959,39,183c1.112,2.581-0.184,3.038-2,1c-0.873-0.284-0.86-0.618,0-1c-0.873-0.284-0.86-0.618,0-1
			c-2.026-1.538-1.472-2.055,1-2c0.294-0.793,0.628-0.782,1,0l1.716-1.383l9.416,1.373L50,179.05
			c-1.429-1.196-2.198-2.261-2.31-3.194c-2.453-1.346-4.35-2.965-5.69-4.856c-0.421,0.596-0.778,0.629-1.194,0
			c-2.074-0.406-3.996-1.901-5.767-4.485c-3.273-1.472-5.286-3.297-6.039-5.475c-0.874-0.296-0.86-0.644,0-1.039
			c-2.913-2.719-6.063-5.648-9.449-8.79c-2.369,1.02-3.886,0.616-4.551-1.21c-0.334,0.867-0.667,0.867-1,0l-1-0.223
			c-0.207-0.939,0.632-1.435,2.518-1.488C12.042,149.613,9.536,149.517,8,148l-1.941-1.385C6.076,141.156,5.057,135.951,3,131v-2
			C5.497,127.133,11.364,132.253,11,135z"/>
		<path style="fill:#464646;" d="M69.9,202c-0.178,0.747-0.734,1.783-1.968,1.946l-18.886,2.498
			c-0.898,0.119-1.481-1.167-1.948-1.444c-0.433-0.333-0.813-0.689-1.01-1.128C45.761,203.145,55.363,193.185,58,194l6-1
			c0.909-1.212,2.674-1.084,5.295,0.384L69.9,202z"/>
		<path style="fill:#5D5D5D;" d="M22,115c2.951-0.607,4.357,4.54,2,6c0.918,6.374-13.272,0.648-19,1.856
			c-1.061,0.452-1.764,0.026-1.832-1.024L3,117c2.37-2.144,5.37-3.811,9-5C14.478,109.773,20.356,112.258,22,115z"/>
		<path style="fill:#808080;" d="M5,122.856c4.834,2.124,10.909,1.137,16.896,2.459c0.331,2.232,0.009,4.579,0.104,6.686
			c-0.231,2.809-1.231,4.558-3,5.247c-1.25,3.681-7.756,1.502-8-2.247c-3.127-1.416-5.245-3.989-8-6
			c0-2.392,0.251-4.784,0.168-7.168c0.299-0.336,1.064-0.139,1.236,0.122L5,122.856z"/>
		<path style="fill:#E7E7E7;" d="M128,169c0.547,0.301,0.534,0.635,0,1c1.498,2.08-0.028,7.68-2.26,9.063
			c-1.256,0.874-1.256,0.874,0,0c1.413-1.819,2.166-1.507,2.26,0.937c0.3-0.793,0.633-0.784,1,0c1.639-1.484,4.17-1.393,7.593,0.274
			c2.309-0.099,4.113,0.44,5.413,1.618c2.838,1.073,4.146,6.861,1.049,8.108c-0.927,0.604-0.871,1.28,0.039,2.021
			c0.055,2.812-9.466,2.18-10.871,2.147l-1.112-1.229c-3.461,0.736-5.566,0.09-6.315-1.939c-2.61-0.589-2.4-1.498,0.205-2
			c1.904-0.416,1.772-1.714-0.396-3.895l-0.693-2.02c-1.691,2.074-2.263-0.7-1.479-0.669c0.501,0.02,0.991,0.306,1.479,0.669
			c1.477,1.645,2.495,2.849,0.089,3.915c-1.588,2.14-3.047,1.367-4-1l-1.884-1.314c-0.141-3.1-0.513-2.329-1.116,2.314
			c-1.088,2.112-1.755,4.112-2,6c1.792,3.247-2.449,3.847-5.087,4.071l-1.124-2.419c3.921-8.625,2.952-9.898-2.906-3.819
			l-2.088-1.012c-2.804-0.848-1.604-3.975,1.205-3.821c0.817-2.563,4.304-7.391,7-5c1.482,2.049,1.482,2.049,0,0
			c-2.947-0.866-2.343-2.945,0.772-2.727c0.102-2.715,2.325-5.854,4.475-7.462c0.93,0.777,1.515,2.173,1.753,4.189
			c0.291-1.769,1.579-2.044,3.866-0.823c0.436-2.623,1.481-4.349,3.134-5.177C126.319,166.344,127.239,166.459,128,169z"/>
		<path style="fill:#4E4E4E;" d="M34,205c2.151,2.137,0.647,2.983-1.966,2.913c-0.283-0.117-0.727,0.187-1.034,0.131
			c-3.701,1.532-10.562-2.187-10-6.045c-3.15-0.546-4.067-1.6-2.752-3.16c-2.268-1.413-2.554-2.299-0.858-2.659l0.7-5.449
			c4.861,0.619,9.788,1.031,14.78,1.236c-0.203,3.915,0.29,7.777,1.481,11.584C35.193,204.079,35.013,204.559,34,205z"/>
		<path style="fill:#4B4B4B;" d="M17,188c0.894,0.186,0.858,0.525,0,1l1.912,1.478c-1.181,1.995-1.619,4.352-1.314,7.072
			c-2.334,0.055-4.533,0.538-6.598,1.45c-0.341,3.485-7.197,5.12-7.625,1.01C3.113,195.356,2.786,190.693,3,186
			c3.481-0.781,7.094-1.446,10.84-1.997C14.146,185.583,15.199,186.915,17,188z"/>
		<path style="fill:#676767;" d="M24,46c0,1.732,0.019,3.516-1,5c0.005,2.439-1.925,3.537-4,2l-3.507,2.234L14,53
			c-2.378,1.777-4.731-0.602-3-3l-3.771-3.32c-1.1,0.167-2.196-1.078-3.288-3.735C3.258,41.392,3,39.681,3,38
			c6.68,1.789,13.372,3.825,20.075,6.106L24,46z"/>
		<path style="fill:#848484;" d="M114,80c2.357,0.405,3.812,2.698,4.047,5.024c1.832,2.154,2.319,5.413,2.425,8.079
			c-1.965-0.722-16.406-2.481-16.414-2.485c-0.709-0.35-1.724-2.01-1.059-2.618l1.758-8.328c2.711,0.146,5.567-0.078,8.568-0.67
			L114,80z"/>
		<path style="fill:#3E3E3E;" d="M74,188c2.817-1.03,9.86,3.1,9.921,6.234c3.985,0.484,4.395,2.104,1.228,4.861
			c2.141,1.125,1.36,2.082-0.929,1.394c-4.092,2.046-8.728,1.712-13.22,1.551c-1.223-1.712-1.767-3.989-1.631-6.831
			c-0.817-0.931-0.244-3.694,0.224-4.665C70.146,189.397,73.413,185.335,74,188z"/>
		<path style="fill:#444444;" d="M63,32.957c1.664,2.195,2.092,3.067-1,3.043c-0.824,4.623-7.423,8.862-12,8
			c-1.282,1.504-2.282,1.837-3,1c-2.177-1.73-2.51-3.397-1-5c-1.989-1.711-1.603-2.217,1-2c1.137-1.961,1.472-3.766,1.003-5.416
			L52,31c-1.276-1.519-0.682-2.135,1.136-1.218C56.954,27.548,59.981,30.419,63,32.957z"/>
		<path style="fill:#757575;" d="M5.06,72.908C6.824,70.88,7.581,71.392,7,74c2.135,0.881,3.468,1.881,4,3
			c2.644-2.391,4.856,2.445,2,4c2.807,0.23,2.807,0.897,0,2c-0.778,2.56-1.811,4.894-3.1,7c1.215,2.959-3.44,6.542-5.916,4.031
			C2.743,95.301,1.792,68.009,5.06,72.908z"/>
		<path style="fill:#DFDFDF;" d="M86,146c2.829,1.137,0.706,6.525-2,6.365c1.532,0.851,2.085,2.383,1.079,3.835
			c-0.577,0.95-1.155,1.926-1.735,2.928c-0.431,3.903-1.574,6.975-3.428,9.214c0.447,1.075-0.811,2.385-1.916,2.659
			c0.615,1.121,0.238,2.119-1.134,2.995c0.456,0.109,0.888,0.251,1.235,0.508C78.988,175.159,75.038,186.019,74,188
			c-4.47,0.162-4.358,10.27-3,14.039L69.9,202c-0.776-1.327-0.848-3.005-0.903-4.947c-0.085-3.026-2.598-4.471-4.997-4.053
			c-1.588-0.803-1.588-1.803,0-3c0.406-0.959,1.739-1.292,4-1c1.141-0.69,1.971-2.794,2.491-6.312L73,181
			c-1.812-0.38-1.544-1.084,0-2c-1.506-1.373-1.573-2.697,0-4h1c-0.546-1.926-0.213-3.97,1-6.13c-0.387-4.164-0.387-4.164,0,0
			c1.189,2.887-2.186,4.572-3.967,2.13c-2.566-0.871-2.673-1.674-0.264-3c-0.243-4.043-0.615-8.059-1.114-12.046
			c-2.549,0.514-4.101-0.137-4.655-1.954c-0.95-0.172-0.913-0.512,0-1c0.779-2.368,1.201-2.405,2,0l2.214-1.983l11.622,0.036
			c0.016-4.428,1.405-6.446,4.164-6.053C85.275,145.388,85.608,145.73,86,146z"/>
		<path style="fill:#606060;" d="M7.11,99.942c2.003-1.957,7.183-0.7,7.89,2.058l2.345,0.032c-0.646,2.474-1.428,4.797-2.345,6.968
			c0.527,1.832-0.473,2.832-3,3c-3.18,1.922-6.18,2.922-9,3l0.047-15.004L7.11,99.942z"/>
		<path style="fill:#535353;" d="M7,156c2.695-0.202,5.154-0.646,7.375-1.333L15,156c2.696-1.087,3.468,0.681,2,3
			c2.762,1.911,2.034,2.355-1,3l-5,3l-7.507,4.701c0.124-3.561-1.168-10.398-0.131-13.667C3.752,154.007,6.05,154.301,7,156z"/>
		<path style="fill:#666666;" d="M11,63c-0.218-1.785,3.375-1.147,4.147-0.396c0.397,0.387,1.753,7.411,1.715,7.829
			c-0.06,0.658-2.719,2.897-3.741,3.359C14.17,75.186,13.596,75.771,12,75c-1.219,1.692-3.622,0.102-5-1l-1.94-1.092
			c-3.148-1.772-2.589-6.592-1.365-9.868L11,63z"/>
		<path style="fill:#B4B4B4;" d="M54,194c0.002-2.927,3.341-2.803,4,0c-4.264,2.769-9.307,6.073-10.902,11
			c-0.358,0.436-0.731,0.795-1.16,0.883C43.359,206.412,34.272,207.742,34,205l-2.328-11.727l-12.102-2.366
			C16.855,195.401,18.307,198.914,21,202c-3.845,3.97-8.179,7.337-13,10.1c-0.84,0.105-1.925,1.52-3,0.756l-0.762-1.133
			c2.657-3.892,5.826-7.544,9.508-10.957c0,0-0.915-0.589-2.746-1.766c0.809-1.89,4.318-0.956,5.45-2.451
			c1.571-2.076,0.07-5.367,0.55-7.549l2.388-1.329l11.417,2.093c1.119-2.536,2.517-3.124,4.196-1.764l1.671,1.756
			c-2.003,1.656-1.078,11.233-0.041,12.163c2.691,2.417,13.863-4.442,14.958-8.193L54,194z"/>
		<path style="fill:#4E4E4E;" d="M21,202c3.337,1.972,6.226,5.068,10,6.045c-0.936,1.056-2.401,1.468-4.172,1.69L8,212.1
			c2.638-4.103,6.817-6.853,10.114-10.894C19.296,201.681,20.284,201.577,21,202z"/>
		<path style="fill:#3A3A3A;" d="M86.039,43.333c4.698,3.61-5.159,7.229-8.039,4.46c-2.796-1.801-5.741-2.963-8.835-3.487
			C69.033,43.988,68.551,38.368,69,38c-0.195-1.011,0.214-1.428,1.228-1.249C72.353,34.621,84.498,41.873,86.039,43.333z"/>
		<path style="fill:#7C7C7C;" d="M11,90c3.323-0.165,8.157,4.679,8,8c2.192,1.407-2.873,7.395-4,4
			c-2.678-0.209-5.496-0.81-7.89-2.058c-0.94-0.49-2.362-0.741-3.475-1.474c-1.667-1.097-0.066-3.401,0.349-4.437
			C6.395,93.44,7.814,91.265,9.9,90C10.216,89.126,10.583,89.14,11,90z"/>
		<path style="fill:#515151;" d="M5,212.856c-0.295-0.21-1.432,0.4-1.721-0.09c-1.116-4.429,0.326-8.676,0.097-12.755
			c2.601,1.231,4.986-0.578,7.625-1.01c1.538-0.252,9.07-1.977,6.082,1.161L5,212.856z"/>
		<path style="fill:#888888;" d="M126.937,145.181l7.126,3.827c3.307,2.427,5.74,7.002,4.273,10.916
			c-1.794,1.711-3.555,3.28-4.02,0.329c-3.434,0.408-4.539-0.343-3.315-2.253c-2.624,0.909-3.083-0.139-1-2l-3-5
			c-2.677,0.742-3.754-1.888-2.113-3.916C122.669,143.708,124.006,142.545,126.937,145.181z"/>
		<path style="fill:#575757;" d="M53.136,29.782C52.653,30.065,52.426,30.674,52,31l-3.192,2.385L44,31c-0.259,2.984-5.034,1.86-5-1
			v-9.202C41.154,21.363,55.922,27.355,53.136,29.782z"/>
		<path style="fill:#676767;" d="M110.969,67.105c0.348-0.024,0.711,0.156,1.055,0.108c1.336,0.417,1.467,2.29,1.471,3.649
			c0.007,2.023-0.171,6.924-1.495,7.138c0.033,0.57,0.022,1.028-0.145,1.094c-0.653,0.26-7.029,2.341-7.392,2.201
			c-0.456-1.923-1.277-3.688-2.464-5.295c-1.875-0.836-2.181-1.864-0.157-2.287l2.6-6.655
			C106.761,66.81,108.936,66.826,110.969,67.105z"/>
		<path style="fill:#888888;" d="M134,171l4,3c3.131,1.002,3.338,1.901,3.943,5.098c-0.015,0.929,0.006,1.865,0.063,2.793
			c-2.294,2.106-10.13-0.847-13.006-1.892c0.591-2.425,1.398-4.94,2.42-7.545C129.159,170.9,132.504,169.986,134,171z"/>
		<path style="fill:#7C7C7C;" d="M109.913,197.071c-1.613,0.406-3.976,1.576-5.877,0.743c-3.637-0.755-2.188-5.668-0.241-7.993
			c6.243-3.993,4.213-5.741,9.948-4.493C112.647,189.897,111.564,193.496,109.913,197.071z"/>
		<path style="fill:#7C7C7C;" d="M131.648,137.95c1.598-0.249,7.097,11.813,2.415,11.058l-7.126-3.827
			c-2.072,0.428-3.824-1.661-4.717-3.413C124.71,139.298,128.02,137.389,131.648,137.95z"/>
		<path style="fill:#777777;" d="M8,148c2.05,1.773-0.972,3.01-3.076,3.016c-0.492,0.268-0.839,1.009-1.918,0.902L3,131
			c2.94,1.378,4.788,4.155,3.905,7.905C8.076,142.095,8.175,145.121,8,148z"/>
		<path style="fill:#4D4D4D;" d="M105,186l-1.205,3.821c-1.011,4.699-4.396,7.275-8.685,9.006l-1.971,0.152
			c-2.289,1.145-3.259,0.618-3-2.016c-0.775-0.631-0.759-1.242,0.048-1.831L95,191c-1.535-2.281-0.443-2.871,2-2l4-3
			c-1.552-1.286-0.967-1.925,0.924-1.076C102.764,182.822,103.789,183.181,105,186z"/>
		<path style="fill:#545454;" d="M11,50c0.914,0.935,1.965,2.151,3,3c2.522,0.556,2.379,2.705-0.431,6.447
			c-3.472-0.96-6.935-1.836-10.388-2.628C3.194,56.215,2.934,55.598,3,55c0.461-1.693,2.514-9.234,3.246-9.275L11,50z"/>
		<path style="fill:#888888;" d="M142.026,173.841c0.02,2.685-1.322,2.738-4.026,0.159l-4-3l-1.265-0.428
			c1.793-2.854,2.799-6.097,3.018-9.731l2.57,0.002C142.03,163.608,142.095,169.404,142.026,173.841z"/>
		<path style="fill:#676767;" d="M106,58c0.245,0.138,8.759,3.382,6.762,7.208c-0.261,0.5-1.099,0.702-1.762,0.792
			c-2.251,0.523-4.513,1.356-6.786,2.501c-0.713-3.395-1.612-6.799-2.697-10.211C99.272,57.855,99.969,57.06,102,56
			C103.212,54.985,105.853,56.421,106,58z"/>
		<path style="fill:#5C5C5C;" d="M130.979,130.068c0.045,0.357-0.102,0.737-0.081,1.097c0.718,1.655,0.064,4.103-1.898,2.835
			c-2.152,2.526-4.254,4.902-7.921,5.956L121,131C123.428,129.638,129.108,128.111,130.979,130.068z"/>
		<path style="fill:#C1C1C1;" d="M124,112c0.284-0.873,0.618-0.86,1,0c1.124-0.56,1.236,0.835,1,2v1c-1,1.641-1.333,4.308-1,8
			c0.873,0.284,0.86,0.618,0,1c-2.514,1.061-3.667,2.563-3.458,4.506L120,130v1c-2.225,1.412-5.4,2.398-8,3
			c-2.759-0.956-2.936-3.128,0-4c0.957-1.237,2.369-2.3,4.235-3.187c0.923-1.653,0.845-3.257-0.235-4.813
			c-1.971-2.462-3.948-5.087-5.931-7.875L111,112c0.518-2.548,2.204-2.322,5.058,0.678C118.731,112.34,121.378,112.114,124,112z"/>
		<path style="fill:#535353;" d="M21.008,15.126c-0.325,0.719-0.918,1.45-1.78,2.194C18.172,21.984,12.267,19.634,12,16
			c-1.006,0.206-1.651-0.733-1.937-2.818L12,12c-1.384-2.05-1.225-2.417,1.22-2.808C16.277,10.739,21.886,10.248,21.008,15.126z"/>
		<path style="fill:#565656;" d="M13.22,9.192C13.26,10.274,12.863,11.323,12,12c0.028,2.482-1.305,2.816-4,1
			c-2.027,0.917-4.852-0.174-4.546-2.722C3.308,8.373,2.602,6.376,3.122,4.03C7.176,4.955,10.032,7.577,13.22,9.192z"/>
		<path style="fill:#D4D4D4;" d="M34,18c1.205,0.17,2.192,1.201,3,2c-1.797,2.069-4.474,3.573-8.03,4.513
			c-2.747,1.014-3.737,2.42-2.97,4.217c2.452,2.111-0.834,5.585-3.131,3.39c-2.602,1.842-4.252,0.829-3.869-2.308
			c1.097-3.532,2.703-5.565,4.819-6.099C24.145,22.781,23.908,22.188,23,22c-1.699,2.686-4.397,0.951-3-2
			c0.154-2.157,3.214-2.702,5.104-3l1.105-0.838C28.764,17.775,31.361,18.387,34,18z"/>
		<path style="fill:#666666;" d="M37,20c0.309,0.306,0.721,0.522,1,0.864C33.418,19.61,41.405,24.789,37,33l-2.004-1.079
			c0.805-3.924-0.143-6.18-2.843-6.769L26,28.73C17.45,28.315,34.699,19.045,37,20z"/>
		<path style="fill:#BFBFBF;" d="M13,61c1.431,0.405,2.209,1.432,4,1c1.828,0.481,2.423,2.306,1.785,5.475
			c1.589-2.505,3.345-3.663,5.27-3.475c2.953,0.547,1.841,5.993-1.055,6c-2.144,2.139-7.508,6.941-9.879,3.793
			c2.837-2.388,2.191-10.262,1.317-10.692C13.522,62.65,12.001,62.995,11,63c-0.711-1.445-2.631-1.027-4-1.11
			C6.179,58.416,10.813,59.415,13,61z"/>
		<path style="fill:#AEAEAE;" d="M115,71c-0.679,2.283-0.165,4.165,1.008,6.066c1.685,2.097,2.926,5.424,2.039,7.958
			c-1.379-1.621-4.517-2.255-4.047-5.024c-0.866-0.553-1.533-1.219-2-2l0.024-10.787C114.351,66.887,114.646,69.202,115,71z"/>
		<path style="fill:#464646;" d="M47.098,205c-0.27,0.834-0.144,2.218-1.994,2.213c-4.587-0.012-9.033,2.378-13.07,0.7L34,205
			C41.289,205.909,43.106,202.633,47.098,205z"/>
		<path style="fill:#515151;" d="M121.081,95.866c1.685,1.047,1.213,3.469,1.932,4.99c0.913,2.326,0.48,3.643-1.216,1.706
			c-5.832,0.551-8.098-0.303-6.797-2.561c-2.209-1.36-1.757-3.026,1-3c0.657-0.825,1.888-1.721,2.632-2.09
			C119.516,94.47,120.526,95.324,121.081,95.866z"/>
		<path style="fill:#757575;" d="M132.223,194.168c-0.852-0.02-10.582,4.253-10.223-0.168c-0.925-1.338-0.732-2.337,1-2
			c-1.007-2.483-0.122-2.837,1.795-1c2.594,0.079,5.57-0.269,8.319,0.78C133.455,192.529,132.59,193.66,132.223,194.168z"/>
		<path style="fill:#C7C7C7;" d="M20,39c0.472-2.742,3.305-2.803,4,0c3.003,0.319,2.916,6.371,0,7c-6.772-3.215-14.023-5.277-21-8
			v-2c0.283-0.725,0.617-0.709,1,0l15.879,4.697L20,39z"/>
		<path style="fill:#8A8A8A;" d="M143.055,190c-0.054-2.747-0.879-5.357-1.049-8.108c0.58-0.532,2.525-1.622,3.14-0.168
			c1.264,2.985,2.525,7.093,2.729,9.879C145.804,193.984,144.199,190.623,143.055,190z"/>
		<path style="fill:#656565;" d="M121,194c1.78,3.612-10.988,4.098-11.087,3.071c1.919-1.015,3.396-2.721,5.087-4.071
			c-0.075-2.98,1.995-3.235,4-1.68c0.214-0.893,0.549-0.907,1-0.08C121.766,191.829,122.677,192.777,121,194z"/>
		<path style="fill:#D3D3D3;" d="M89.843,45.268c2.079,1.125,3.028,2.391,2.848,3.795c0.955,1.111,0.502,1.391-0.761,0.701
			c-1.059,0.845-2.573,0.965-4.541,0.359c-2.556,1.905-4.352,1.938-5.388,0.1c-1.357,2.402-2.038,2.35-3-0.223
			c-2.676,0.83-3.131-0.462-1-2.207c2.235-0.1,9.451-0.771,8.039-4.46C86.943,44.19,88.635,45.061,89.843,45.268z"/>
		<path style="fill:#D3D3D3;" d="M104.037,197.814c-0.287-0.126-0.737,0.063-1.055,0.074c-2.192,0.756-4.631,1.516-6.969,0.961
			l-0.903-0.021c2.858-3.009,5.181-6.765,8.685-9.006L104.037,197.814z"/>
		<path style="fill:#D5D5D5;" d="M138.336,159.924c-0.102,0.271,0.051,0.634-0.013,0.919c-1.652,0.443-2.052,2.021-2.581,3.914
			L134,171c-3.366-0.046-2.596,7.367-5,9c-0.232-0.153-0.715,0.075-1,0l-1.031-0.866c1.202-3.25,1.545-6.294,1.031-9.134v-1
			c0.55-1.415,1.642-1.688,3.276-0.818c2.002-4.959,1.904-6.533-0.293-4.721L129,162c-1.945-2.069-0.523-3.921,2-4
			C132.961,159.953,135.679,160.401,138.336,159.924z"/>
		<path style="fill:#DADADA;" d="M100,52c1.042,0.691,0.472,2.864-1,2c-5.144,0.245-4.144,0.911,3,2
			c-0.043,3.687,1.405,7.307,3.065,11.056c2.408-0.547,4.059-1.257,5.935-1.056l-0.031,1.105c-1.838,0.127-4.488,0.09-6.161,1.77
			C102.92,70.77,102.61,73.766,102,76c-1.618,1.507-3.989,1.567-7.115,0.179C94.313,77.392,93.361,77.356,92,77
			c-3.199-0.318-3.685-5.461,0-5c1.756-1.231,4.301-1.241,7.635-0.031c3.473-2.22,0.95-11.368-1.332-12.029
			C90.386,57.648,89.951,65.657,90,71c-1.412,2.652-3.102,1.948-3-1c-2.794-0.84-2.697-9.118-1-11
			c0.609-1.467,2.177-2.459,4.706-2.975c-1.067-3.705-0.659-5.792,1.223-6.261c0.131-0.403,0.218-0.935,0.761-0.701
			C94.226,47.21,99.405,50.118,100,52z"/>
		<path style="fill:#383838;" d="M14,151c0.759,0.952,0.843,2.405,0.253,4.357C11.739,155.27,9.321,155.484,7,156
			c-1.064,0.852-2.41,0.104-3.638,0.034c0.156-0.492-0.527-1.843,0.385-2.277C7.105,152.16,10.661,151.493,14,151z"/>
		<path style="fill:#4F4F4F;" d="M130.675,128.612c-1.928,1.026-2.648,0.606-2.675-1.612c-2.381,1.708-4.511-0.532-3-3v-1
			c-0.47-2.165-0.078-3.499,1.176-4c0.13-0.605,0.86-1.487,1.446-3.011L130.675,128.612z"/>
		<path style="fill:#767676;" d="M102.281,51.247c0.751,0.225,0.717,0.524-0.026,0.89c-1.375,1.912-2.127,1.867-2.255-0.136
			c-2.562-0.155-4.965-1.798-7.31-2.937c-1.231-0.598-3.541-2.688-2.848-3.795C94.327,46.036,98.812,48.291,102.281,51.247z"/>
		<path style="fill:#6E6E6E;" d="M106.966,57.131c-2.594-0.622-9.72-3.515-4.711-4.995l0.026-0.89
			c3.817,1.309,8.948,2.165,8.83,7.647C109.74,58.529,107.74,57.926,106.966,57.131z"/>
		<path style="fill:#424242;" d="M90.139,196.963c1.151,0.434,2.354,0.91,3,2.016c-1.632,2.494-6.593,3.234-8.919,1.509
			c0.537-0.269,0.66-0.939,0.929-1.394C86.385,195.8,87.661,193.327,90.139,196.963z"/>
		<path style="fill:#767676;" d="M13,61c-1.79-0.507-4.765-0.283-6,0.89c-1.123-0.068-3.183,0.685-3.838-0.455
			C2.552,60.375,3.133,58.939,3,58C5.349,57.022,14.369,57.927,13,61z"/>
		<path style="fill:#7A7A7A;" d="M8,13c2.351,0.161,3.368,0.877,3.052,2.148l-5.115,1.743c-1.728,0.584-2.581-1.581-2.746-2.651
			c-0.182-1.185,0.344-2.905,0.263-3.962C5.198,10.943,7.302,11.071,8,13z"/>
		<path style="fill:#C5C5C5;" d="M19,53c0.453,2.328-2.337,7.263-4.703,7.777C13.876,60.727,13.425,61.014,13,61
			c-1.945-3.295-6.51-2.729-10-3c-0.055-0.386,0.173-0.79,0.181-1.181c3.914-0.57,10.177,3.816,11.599-0.517
			C15.079,55.391,14.999,53.819,14,53C15.638,53.475,17.356,53.426,19,53z"/>
		<path style="fill:#494949;" d="M3,35c0.623-5.027-1.312-10.44,0.98-15.11c1.899,1.113,2.374,3.386,1.427,6.818
			C6.605,32.766,5.802,35.53,3,35z"/>
		<path style="fill:#505050;" d="M12,16c1.94,2.22,2.054,2.882-1,3c1.367,2.941-0.846,4.181-3,2c-1.605,2.453-2.945,2.083-4.02-1.11
			c0.531-1.082,1.056-2.129,1.957-2.998c2.159-0.519,3.683-1.329,4.574-2.429L12,16z"/>
		<path style="fill:#DDDDDD;" d="M8,21c0.835,1.479,0.754,3.382-0.243,5.71C8.421,29.512,8.169,31.609,7,33
			c1.395,0.62,1.764,1.655,1,3c-0.628,1.73-2.85,1.121-4,0c-0.309-0.104-0.677,0.054-1,0c0-0.33-0.041-0.672,0-1
			c3.673,0.102,1.723-12.897,0.98-15.11C5.23,20.608,6.546,21.123,8,21z"/>
		<path style="fill:#6C6C6C;" d="M143.055,190l0.039,2.021c-3.048-0.21-6.663,1.016-9.506-2.153
			C136.267,188.342,140.341,188.523,143.055,190z"/>
		<path style="fill:#CACACA;" d="M11,50c-1.891-0.256-3.295-1.472-4.588-3.121C4.693,49.963,4.974,52.97,3,55
			c0.145-1.311-0.242-2.705,0-4c0.732-2.578,1.045-5.263,0.941-8.055C6.657,44.753,9.092,47.31,11,50z"/>
		<path style="fill:#D7D7D7;" d="M123.013,100.856c0.944,1.996,2.804,4.062,0.987,6.144c0.532,0.302,0.519,0.636,0,1
			c-2.211,2.333-3.155-0.309-2.928-2.786l-6.824-0.237L113,103c-2.496-1.985-1.046-3.923,2-3c-0.217,0.852-0.036,1.718,0.631,1.881
			C116.098,101.995,123.873,102.698,123.013,100.856z"/>
		<path style="fill:#707070;" d="M13,149.777c-2.581-0.126-5.495,3.028-8.076,1.239C5.898,149.95,7.309,149.335,8,148
			c2.678,0.245,5.383-0.545,8.044,0.431C14.79,149.048,13.636,149.423,13,149.777z"/>
		<path style="fill:#7C7C7C;" d="M34,18c-2.326,2.47-6.11,0.17-8.896-1C25.315,12.28,29.019,17.298,34,18z"/>
		<path style="fill:#575757;" d="M25.104,17c-0.113,2.541-2.907,3.094-5.104,3c-2.723,0.262-2.387-1.363,1.008-4.874
			C22.684,14.96,23.726,16.421,25.104,17z"/>
		<path style="fill:#414141;" d="M70.228,36.751C69.817,37.163,69.437,37.613,69,38c-1.738-0.074-6.279-2.981-6-5.043
			C65.646,31.889,69.645,33.906,70.228,36.751z"/>
		<path style="fill:#4D4D4D;" d="M126,115l0.176,4c-0.165,1.411,0.098,3.01-1.176,4C123.974,124.681,122.559,112.976,126,115z"/>
		<path style="fill:#C1C1C1;" d="M130.675,128.612c0.116,0.478,0.243,0.968,0.304,1.457c-3.381-0.436-6.649,0.386-9.979,0.932v-1
			l0.32-2.405c2.536-0.372,4.763-0.57,6.68-0.595C128.608,127.608,129.746,128.228,130.675,128.612z"/>
		<path style="fill:#DEDEDE;" d="M102.255,52.136c-0.353,0.504-1.018,0.794-1.319,1.708c2.893,0.622,4.504,1.719,6.03,3.286
			C106.557,57.31,106.228,57.617,106,58c-1.384-0.782-2.711-1.141-4-2c-2.788,0.389-3.788-0.277-3-2l1-2L102.255,52.136z"/>
		<path style="fill:#B9B9B9;" d="M15,156H7c1.062-1.992,3.757-0.534,6.181-1.041c1.468-0.307,0.714-2.946,0.819-3.959
			c0.029-0.285-0.008-0.677,0-1c0.321,0.072,0.677-0.069,1,0C17.999,150.011,17.851,155.513,15,156z"/>
		<path style="fill:#C4C4C4;" d="M12,112c-2.556,2.369-6.016,3.273-9,5v-2C6.291,114.444,8.569,112.007,12,112z"/>
		<path style="fill:#616161;" d="M3,51c0.492-2.626-1.191-5.93,0.941-8.055C5.13,45.645,5.259,48.903,3,51z"/>
		<path style="fill:#666666;" d="M116.008,77.066c-0.949-0.654-2.757-0.547-2.151-2.568c0.362-1.206-0.389-3.058,1.143-3.497
			C115.397,73.016,116.341,74.961,116.008,77.066z"/>
		<path style="fill:#505050;" d="M130.995,135.837c-0.394,0.041-0.951,0.178-1.442-0.009c-0.655-0.25-0.648-1.199-0.553-1.828
			c0.745-0.874,1.676-1.626,1.898-2.835C132.27,132.436,132.309,134.508,130.995,135.837z"/>
		<path style="fill:#888888;" d="M141.943,179.098c-1.761-3.09-1.734-4.843,0.083-5.258c1.212-0.173,1.939,1.785,2.044,2.719
			C144.227,177.951,143.863,179.983,141.943,179.098z"/>
		<path style="fill:#757575;" d="M102.982,197.887c-1.822,1.485-5.184,3.007-6.969,0.961
			C98.176,197.814,100.629,197.968,102.982,197.887z"/>
		<path style="fill:#CACACA;" d="M126,109c-0.156,1.33-0.489,2.33-1,3h-1c-2.927-0.002-2.803-3.341,0-4v-1
			C124.713,107.336,126.015,108.037,126,109z"/>
		<path style="fill:#C9C9C9;" d="M123,192c-0.106,0.761-0.423,1.483-1,2h-1c-0.006-1.038-0.632-1.856-1-2.76
			C120.83,188.177,123.1,188.821,123,192z"/>
		<path style="fill:#717171;" d="M126,114c-0.199-0.69-0.901-1.284-1-2c-0.141-1.022-0.224-2.77,1-3
			C125.973,110.699,127.45,112.509,126,114z"/>
		<path style="fill:#B6B6B6;" d="M17,188c-10.308-5.419-2.111-2.405-14-2c0.015-0.329,0.026-0.672,0-1c4.114-0.184,8.71-0.384,12-3
			C17.242,183.971,17.909,185.971,17,188z"/>
		<path style="fill:#393939;" d="M119.787,145c-0.036,6.355-0.478,12.72-1.324,19.095c1.593,0.896-0.622,3.613-2.24,3.155
			c1.072,2.929-1.33,3.493-2.223,0.441c-2.052,2.373-3.385,2.476-4,0.31c-2.212,1.651-5.161-0.443-3.877-3.123
			c-1.968,0.543-2.676-0.416-2.123-2.877l-1.192-3.517c2.685-5.782,5.79-11.253,9.316-16.412c1.978-1.065,5.229-1.369,7.321,0.213
			C120.271,142.908,119.65,144.417,119.787,145z"/>
		<path style="fill:#888888;" d="M83,57c1.381-2.588,4.038-0.664,3,2c1.671,3.304,1.012,7.299,1,11l-5,3h-4
			c-1.677,2.271-2.639,1.754-2-1l-5-3l-1.388-0.192c0.424-4.351,0.502-8.233-3.842-8.175L66,59c0.868-0.327,2.105-0.824,3-1
			C72.919,55.035,79.428,52.143,83,57z"/>
		<path style="fill:#363636;" d="M110.722,142.076c-2.538,5.683-5.169,11.623-7.893,17.821c-1.712-1.075-3.774-1.679-6.184-1.812
			L93,155c-2.942,1.29-4.237-0.074-3-3c-3.197-1.614,1.021-9.504,4.021-9.184C98.617,139.762,105.527,140.56,110.722,142.076z"/>
		<path style="fill:#818181;" d="M54,74.846c0.713,0.913,3.018,1.504,3.642,2.541c3.228,5.357,5.385,11.572,6.164,17.419
			c-1.091,1.238-2.975,2.203-5.652,2.894C57.946,96.571,57.228,95.671,56,95l-4-3c-1.386,1.144-1.919,0.546-1-1
			c-1.918,0.084-2.917-1.604-2.995-5.066l0.617-12.558C50.477,73.389,52.269,73.879,54,74.846z"/>
		<path style="fill:#666666;" d="M51,91c0.457,0.042,0.837,0.627,1,1l4,3l3.531,1.732l-3.471,7.329
			c2.02,1.895,0.604,4.496-2.178,4.05c0.807,0.992,0.279,1.978-1.584,2.959c-4.095-1.421-8.279-2.74-12.553-3.957
			c-0.499-0.93-0.327-2.614,0.362-3.472C40.217,99.446,42.964,93.466,47,92C48.263,88.914,49.596,88.581,51,91z"/>
		<path style="fill:#515151;" d="M43,42c1.63-0.63,2.964,0.37,4,3c1.418-0.578,1.751,0.089,1,2c2.728-0.711,3.214,0.246,1,2
			c0.473,1.373,1.237,2.448,2.291,3.225C50.044,56.027,48.614,59.619,47,63c-2.274-0.189-7.338-0.602-8.326-3.545
			C36.789,53.842,38.183,47.4,39,42C39.608,38.742,43.052,38.362,43,42z"/>
		<path style="fill:#898989;" d="M39.756,108.081c1.533-0.157,14.063,2.082,13.947,2.805c-0.069,0.434-0.476,0.813-0.978,1.177
			c0.548,4.455,0.985,8.872,1.31,13.251L51,126c-4.2,2.641-6.533,2.641-7,0c-0.445-1.463-0.473-3.126-2-4
			c-2.715-0.265-2.943-1.244-1-3C41.746,115.911,35.38,108.833,39.756,108.081z"/>
		<path style="fill:#6D6D6D;" d="M85,145c-2.104,1.903-1.43,5.182-3.206,7.627C76.616,153.299,71.719,153,67,153
			c-1.387-2.108-0.567-8.743,1-11c-0.027-0.738,0.275-1.557,0.772-1.837c0.848-0.479,1.77-0.002,2.803,0.177l11.139,1.925
			C84.353,142.547,85.062,143.688,85,145z"/>
		<path style="fill:#585858;" d="M26,73c-2.372,2.425-4.931-0.201-3-3l1.055-6c3.282-4.358,15.018-4.271,16.728-0.62
			c1.172,2.502-0.193,5.589,0.196,8.506L26,73z"/>
		<path style="fill:#828282;" d="M86,117c1.38,0.093,4.12-0.675,5.255,0.68c0.362,0.432,3.914,10.083-0.255,9.32
			c-2.785,1.723-6.125,2.768-10.018,3.134c-1.727-0.056-2.453-1.404-3.084-3.177L74,116C77.892,114.392,82.236,115.571,86,117z"/>
		<path style="fill:#585858;" d="M31,98c-1.534,0.586-2.2-0.081-2-2c-3.064,0.022-3.936-1.564-2-4c-1.184-1.615-3.208-4.638-2-6
			c-0.952-2.371,0.511-3.793,3-2.89l-0.203-1.32C31.292,81.548,34.693,81.284,38,81c1.11-0.066,2.002,0.536,2.01,1.411
			c-0.051-5.59-1.796,19.175-2.64,15.724L31,98z"/>
		<path style="fill:#555555;" d="M34,49c1.044,1.522,0.374,1.928-1,0.661c-2.334-0.068-5.235,1.235-7.57-0.127
			C24.524,48.881,25.106,46.525,24,46v-7c0.461-3.065,0.823-3.846,4-4c1.609-0.537,3.448-0.988,5,0c-1.261-1.43-0.688-1.972,1-1
			c0.644,0.003,1.953-0.301,2.914,0.256l-0.007,14.489C35.973,49.302,34.635,48.996,34,49z"/>
		<path style="fill:#3F3F3F;" d="M64,59c-4.954,3.185-10.173,5.76-16,4c0.769-3.478,1.657-7.087,2.666-10.826L53,52l5-2
			c-0.355-2.529,0.1-2.621,2-1l5-2c0.526-0.589,1.845-0.553,1.818-0.134C66.578,50.553,65.81,56.022,64,59z"/>
		<path style="fill:#898989;" d="M102,76c0.811,1.893,1.973,3.273,3.484,4.139c-1.026,2.789-2.187,5.409-3.484,7.861
			c0.017,0.735-0.178,1.591-0.728,1.859c-0.589,0.288-1.196,0.195-1.997,0.029l-10.333-2.14C90.362,85.201,90.76,82.584,91,80
			c-1.898-1.86-1.627-2.585,1-3l1.883-3.168C96.951,74.745,99.546,75.017,102,76z"/>
		<path style="fill:#5E5E5E;" d="M124.887,147.084c0.861,0.947,1.749,2.7,2.113,3.916l3,5c0.201,0.528,0.592,1.594,1,2
			c0.03,1.645-1.309,2.671-2,4c-3.12,3.172-4.681,4.758-4.681,4.758c-2.189-0.922-4.161-0.976-5.915-0.162
			c-0.043-6.184,0.737-13.986,2.596-19.596c0.268-2.057-0.393-3.632,1.22-5.232C123.767,143.132,125.391,144.922,124.887,147.084z"
			/>
		<path style="fill:#6B6B6B;" d="M82,131l-0.016-0.887c2.952-0.895,5.957-1.6,9.016-2.113c3.276,1.649,4.185,7.865,2.409,11.579
			c-1.161,2.427-7.718,3.334-9.489,1.535c-2.359-2.397-2.684-6.089-3.892-9.229C79.632,130.857,81.553,131.268,82,131z"/>
		<path style="fill:#666666;" d="M67,142c-0.14,3.491-0.459,7.071-0.957,10.74L65,153c-0.098,0.27-0.051,0.714,0,1
			c-1.171,1.256-3.131,2.556-4,0c-2.731-0.461-3.731-1.461-3-3c-2.48,1.085-2.819,0.162-1.105-1.895L55,144
			c-0.791-1.777-1.483-3.51-2.076-5.199C52.53,137.619,69.051,138.604,67,142z"/>
		<path style="fill:#747474;" d="M35,118l-4-3l-5.355-3.639L26.186,110c-2.538-2.01,1.666-10.422,4.814-10
			c1.455-0.819,4.985-2.002,6.334-0.393C37.949,100.34,37.009,117.221,35,118z"/>
		<path style="fill:#676767;" d="M31,99v1l-4.814,10c0.624,1.168-0.165,1.765-2.369,1.789L22,113c-3.038-0.363-10.857-1.515-6-4
			c-0.673-4.126,1.612-9.433,6-10c3.099-0.486,5.888-0.826,8.367-1.021L31,99z"/>
		<path style="fill:#8F8F8F;" d="M90,71c1.077-2.813,3.035-1.866,2,1c-1.296,1.354,0.272,3.301,0,5c-0.174,1.084-0.341,2.191-1,3
			c-1.882,1.468-0.979,4.036-3.295,6.498c-2.327-1.741-5.222-3.112-6.879-5.245C78.753,78.586,80.435,75.059,82,73l5-3
			C87.966,70.061,88.933,71.146,90,71z"/>
		<path style="fill:#717171;" d="M73.924,80.155c1.614,5.9,2.299,8.221-0.924,8.845l-6-1c-0.75-1.406-3.577-0.6-4.07-1.926
			C62.367,84.561,57.086,71.744,60,74l9.759,4.26C71.959,78.492,73.347,79.124,73.924,80.155z"/>
		<path style="fill:#4B4B4B;" d="M96,102c2.707,1.36,4.475,1.34,5.304-0.059L103,104c3.328,1.421,3.804,4.282,1.428,8.582
			c-1.494,0.282-3.026,1.032-4.596,2.25c1.522,1.125,1.007,1.784-0.832,1.168c-1.296,1.283-1.963,1.283-2,0
			c-1.386,1.919-2.377,1.221-1.871-1.089c-3.19-3.462-4.28-9.715-2.129-13.911C94.704,98.869,95.918,99.266,96,102z"/>
		<path style="fill:#616161;" d="M106,120c0.949,2.517,0.949,4.517,0,6c1.126,1.399,0.566,1.948-1,1l-4.51,4.049
			c-1.363-1.065-2.527-2.415-3.49-4.049c-1.768,1.644-2.361-0.773-1.864-2.58c-0.762-0.897-0.74-2.36-1.136-3.42l-0.078-1.257
			c1.807-1.14,3.499-2.387,5.078-3.743c0.249-0.411,0.434-0.867,0.832-1.168l4.033-2.891C104.929,114.518,105.641,117.204,106,120z"
			/>
		<path style="fill:#8C8C8C;" d="M57,127c3.748,1.233,4.415,2.566,2,4c-1.341,1.155-0.59,3.402-1.501,4.988
			c-1.309,2.279-14.383-0.692-14.588-2.077c-1.669-1.262-1.042-2.136,1.089-1.911l1.285-4.325L51,126
			c2.083-2.219,3.161-2.435,3.235-0.648L57,127z"/>
		<path style="fill:#646464;" d="M48,73c0.776,4.007,1.22,9.707-1,13c1.189,2.705-4.105,5.336-6,3
			c-1.14,2.745,1.367-27.267,2.848-21.927C46.839,66.123,49.892,70.208,48,73z"/>
		<path style="fill:#606060;" d="M100,92c1.199-0.329,1.569,0.408,1.111,2.209c2.12,8.345,0.416,10.942-5.111,7.791
			c-1.045-0.181-2.064-0.498-3-1c-3.265-2.214-1.7-6.099-1.953-11.024C94.435,90.239,97.539,90.316,100,92z"/>
		<path style="fill:#7C7C7C;" d="M67,105c-0.204,1.771-1.871,2.771-5,3l-4.77,2.175c-1.837,1.433-6.171,0.272-3.348-2.065
			c0.789-1.218,1.111-3.008,2.178-4.05c1.437-2.538,2.078-4.958,1.922-7.26c2.248-0.478,4.235-0.642,5.96-0.494
			C64.63,98.962,69.577,102.123,67,105z"/>
		<path style="fill:#585858;" d="M23,51c0.816,0.175,2.831-0.655,3.516,0.401c1.668,2.573,1.281,5.584,1.89,8.374
			c-5.567,0.034-9.669,1.532-14.109,1.002C14.778,57.429,16.17,54.815,19,53C20.085,52.304,21.463,50.67,23,51z"/>
		<path style="fill:#6E6E6E;" d="M31,115l4,3c0.181,1.144,1.482,3.491,0.639,4.425C35.184,122.929,25.836,124.523,24,121
			c-0.981-1.883-1.186-4.031-2-6c-1.443-1.427-1.443-2.094,0-2C24.429,110.671,27.429,111.338,31,115z"/>
		<path style="fill:#656565;" d="M23,70c0.575,1.351,1.664,2.401,3,3v2c-0.663,2.678-1.763,3.811-3.299,3.398L19,80
			c-1.993,1.549-3.855,2.602-6,1c-0.633-1.221-0.677-3.276-2-4c-2.48-1.496-1.583-1.936,1-2c0.211-0.423,0.576-1.139,1.121-1.207
			C16.878,73.321,19.031,68.984,23,70z"/>
		<path style="fill:#575757;" d="M37,33c-1.101-0.136-2.224,0.189-3,1c-0.326,0.341-0.61,0.724-1,1c-1.615-0.964-3.327-0.506-5,0
			c-2.902,1.801-4.235,1.468-4-1c-2.595,0.923-2.952,0.13-1.131-1.879c1.297-0.94,2.396-1.978,3.131-3.39l6.152-3.578
			c1.479-0.353,2.728-1.951,4.808-2.128L37,33z"/>
		<path style="fill:#686868;" d="M116,97c-0.585,0.735-0.097,2.302-1,3c-0.972,0.752-1.595,1.859-2,3c0.867,3.107-3.754,5.551-6,3
			c-1.277,1.576-2.842-0.667-2-2c-1.533-2.08-1.133-7.593,2-8c0.163-0.996,0.98-1.736,1.352-2.376
			c0.677-1.167,6.432-0.686,7.202,0.428C116.074,94.807,116.058,96.011,116,97z"/>
		<path style="fill:#5D5D5D;" d="M38,80c-5.679,2.543-9.609,2.756-14.393-1.913L26,75c4.498-1.851,9.724-1.08,14.945-2.276
			C39.004,76.485,41.42,79.959,38,80z"/>
		<path style="fill:#8A8A8A;" d="M54,74.846c-2.102-0.928-4.102-1.544-6-1.846c-0.955-2.307-2.955-3.806-4.152-5.927l-0.692-3.2
			l10.367,1.719c1.061,2.804,2.397,5.276,3.13,8.398C56.253,74.723,54.605,74.685,54,74.846z"/>
		<path style="fill:#5C5C5C;" d="M67,88l6,1c0.759,0.898,1.827,1.209,3,1c1.215-0.714,1.649-0.229,1,1c1.697-0.315,1.697,0.352,0,2
			c2.927,0.002,2.803,3.341,0,4c1.047,2.464,0.116,2.756-1.719,0.843c0.034,1.983-0.717,2.045-1.362,0.154l-5-1.035
			c-4.315-3.199-5.45-8.554-4.39-8.913C65.316,87.78,66.344,87.972,67,88z"/>
		<path style="fill:#6E6E6E;" d="M85.772,89.467c0.794,1.014,1.633,2.525,1.543,3.882c2.386,0.2-0.992,7.123-2.07,9.025
			c-0.191,0.337-1.691-0.545-2.245-1.374c-2.012,2.373-6.768-1.248-6-4v-4c0.784-1.685,2.45-2.685,5-3
			C82.224,87.096,84.765,86.688,85.772,89.467z"/>
		<path style="fill:#606060;" d="M47,92c-1.795,4.183-4.05,8.098-6.892,11.64C37.579,104.137,40.437,89.857,41,89l6-3
			C49.081,85.583,49.929,91.046,47,92z"/>
		<path style="fill:#4C4C4C;" d="M44,31l5.135,1.498L47,38c-0.438,0.561-0.411,1.427-1,2c0.125,3.19-0.875,3.856-3,2
			c-1.145-1.291-2.621,0.212-4,0c0.59-3.901,0-8.066,0-12L44,31z"/>
		<path style="fill:#767676;" d="M34.906,130c-1.552,3.162-9.737,2.572-11.906,1c0.29-1.685-0.986-5.696,1.184-6.531
			c3.397-1.307,7.089,0.07,10.722-0.718C35.466,126.534,34.781,128.141,34.906,130z"/>
		<path style="fill:#606060;" d="M108,126c2.787,0.952,4.121,2.286,4,4c-0.311,1.271,0.217,2.707,0,4
			c-1.142,1.18-1.04,2.815-1.05,4.932c-1.291,0.168-2.042-0.404-2.835-0.667c-2.477,1.766-4.846,0.038-2.115-2.265l-4-3
			c-1.389,1.116-1.92,0.518-1-1l-0.9-2.076c1.396-0.067,3.029-1.041,4.9-2.924c0.22-0.275,0.59-0.994,1-1
			C106.228,123.167,106.766,123.586,108,126z"/>
		<path style="fill:#6A6A6A;" d="M36,136c0.539,4.297,0.788,8.759,0.746,13.388l-1.396-0.148c-0.512,1.82-1.962,1.446-4.35-1.123
			c-0.923-0.924-1.295-2.411-3.089-1.94c-0.883,2.813-3.081,1.468-1.123-0.908c-0.438-2.235,1.585-3.315,2.276-5.205
			C35.129,137.598,34.454,133.751,36,136z"/>
		<path style="fill:#7A7A7A;" d="M74.026,122.906c1.271,0.844,1.829,2.622,1.365,4.06c0.58,0.472,0.483,0.829-0.249,1.079
			c-2.146,1.802-4.343,3.533-6.589,5.193L64,130c-3.557-0.965-4.072-1.889-1.547-2.772L67,122l0.495-1.337
			C69.386,121.738,71.563,122.485,74.026,122.906z"/>
		<path style="fill:#656565;" d="M34,133c-1.009,4.576-3.662,3.575-4.937,7.063c-3.436,1.396-5.699,0.957-8.209-1.917
			c-1.326-0.024,0.512-4.801,1.122-5.406c0.895-0.889,9.481-1.074,11.367-0.907C33.594,131.855,33.803,132.359,34,133z"/>
		<path style="fill:#717171;" d="M33,49.661c0.452-0.533,0.707-0.639,1-0.661c0.689,1.161,2.678,0.753,2.871,1.944
			c0.448,2.758,0.235,5.172-0.111,7.801c-2.544,0.246-4.258,0.749-6.934,1.306l-1.965-9.009C30.308,51.069,32.223,51.365,33,49.661z
			"/>
		<path style="fill:#484848;" d="M120,131c0,2.796,0.287,5.482-0.15,8.826c-3.069,0.425-5.696,0.628-8.519-0.535
			c0.844-2.119,0.227-3.909,0.669-5.291C113.042,130.742,117.139,129.396,120,131z"/>
		<path style="fill:#454545;" d="M101,132c0.476,0,0.826,0.608,1,1l4,3c0.169,1.147,0.983,2.018,2.115,2.265
			c0.455,0.192,0.979,1.694,0.127,1.696c-6.737,0.011-13.175,1.306-13.065-2.593c0.021-0.756,0.377-1.691,0.78-2.544
			c-0.615-2.707,0.423-3.707,3.042-2.824C98.93,129.986,100.297,130.212,101,132z"/>
		<path style="fill:#787878;" d="M67,71c-3.122-2.017-6.343-3.653-9.899-6.72c1.66-0.045,3.138-2.253,4.899-2.259
			C69.695,56.908,72.839,67.309,67,71z"/>
		<path style="fill:#797979;" d="M64,130l3.705,2.249c1.189-0.601,1.621,0.649,1.295,3.751c-0.009,0.867,0.294,2.482-0.552,2.935
			c1.131-0.605-10.177-0.849-10.428-2.099c0.132-2.107,0.662-4.018,0.98-5.835c-1.323-2.176-0.539-3.087,2.352-2.733
			C61.921,127.04,62.803,127.617,64,130z"/>
		<path style="fill:#636363;" d="M44,126c2.593,0.522,2.593,2.522,0,6c-0.376,0.63-0.788,1.239-1.089,1.911
			c-1.534,0.507-5.1,2.184-6.471-0.419c-0.854-1.622-0.998-6.172,0.894-7.05C38.984,125.675,42.597,125.285,44,126z"/>
		<path style="fill:#4F4F4F;" d="M94.021,142.816c-1.037,3.206-3.375,5.838-4.021,9.184c1.13,2.568-0.199,3.071-2.068,1.058
			c-1.396,2.912-3.529,1.997-3.932-0.693c0.244-2.238,1.535-4.235,2-6.365C86.734,142.639,90.994,141.282,94.021,142.816z"/>
		<path style="fill:#707070;" d="M77.016,105.898c2.012,1.589,5.525,6.857,1.984,8.102c0.791,1.856-3.549,1.868-5,1
			c-1.737-2.714-2.245-5.91-3-9c-2.079-1.204,2.69-5.709,3.054-5.682C75.101,100.397,77.889,104.663,77.016,105.898z"/>
		<path style="fill:#D2D2D2;" d="M121,147c-0.726,5.576-1.301,11.131-1.762,17.258c-0.103,1.373,2.331,1.564,3.336,1.613
			c2.721,0.134,2.77-3.689,6.426-3.871c2.011,2.479-1.464,5.617-4,6c-0.935,1.061-2.299,1.23-4.09,0.509
			c0.617,3.302-0.02,5.466-1.91,6.491c-1.136-1.074-1.252-2.781-1.753-4.189c-2.912,0.248-2.534-1.76-1.024-3.562
			c3.092-2.316,1.992-20.777,3.564-22.249C119.933,145.619,120.157,146.807,121,147z"/>
		<path style="fill:#616161;" d="M85.772,89.467C84.543,89.497,83.285,89.833,82,90c-1.858,0.928-3.524,1.261-5,1
			c-0.711,0.131-1.004-0.34-1-1l0.054-7.995c1.985-1.769,10.631,5.805,10.565,5.532C86.793,88.255,85.967,88.969,85.772,89.467z"/>
		<path style="fill:#747474;" d="M88.724,115.698L86,115.963c-1.846,0.856-6.181,0.015-7-1.963c0.3-3.065-3.524-5.149-1.984-8.102
			c-1.333-1.111-1.592-2.466,0.027-3.339c4.069,4.385,8.135,8.302,12.198,11.75L88.724,115.698z"/>
		<path style="fill:#676767;" d="M74,78c0.094,1.283-0.906,1.512-3,0.687L60,74c-2.053-2.075-4.347-5.031-3.538-8.132L74,78z"/>
		<path style="fill:#C8C8C8;" d="M38.068,147.016c1.282,1.718,1.653,1.805,1.112,0.261c4.962,2.213,10.092,3.766,15.39,4.66L56,154
			c1.496,2.663-2.759,6.315-5,4c-4.22-2.56-8.874-4.494-13.964-5.8c-0.479,2.093-1.486,3.359-3.023,3.8H33
			c-2.331-1.61-2.85-5.316-2-7.884c1.195-0.394,4.093,1.984,4.655-0.374C36.608,143.742,35.682,139.69,36,136h1
			C40.28,137.48,39.122,144.024,38.068,147.016z"/>
		<path style="fill:#868686;" d="M76,72c0.586,0.238,1.184,1,2,1c1.265,1.895,1.463,4.198,0.667,7.105
			c-0.895-1.509-2.554-1.514-3.604-2.188C72.454,75.757,69.827,72.827,67,71c1.254-0.543,2.18-1.535,2.778-2.974L71,69L76,72z"/>
		<path style="fill:#D3D3D3;" d="M88.911,111.041c1.532-1.612,2.388,1.221,2.089,2.959c-0.742,0.399-1.384,1.611-2.276,1.698
			l-11.261-11.786c-0.962,1.044-0.448,1.581-0.448,1.985c-1.754,0.013-1.517-2.529-2.787-3.488
			c-1.514-1.143-3.622,1.979-3.228,3.591c-0.681-0.776-1.395-1.654-1.743-2.651c0.041-2.494,2.381-4.78,4.662-5.353
			c0.431-0.111,0.964,0.041,1.362-0.154c4.799,3.413,8.995,7.8,12.586,13.161L88.911,111.041z"/>
		<path style="fill:#D4D4D4;" d="M53.882,108.11c0.134,1.66,1.877,2.076,3.348,2.065c2.231,0.342,2.53,0.901,0.896,1.678
			c-0.219,0.862-0.639,1.732-1.448,1.906c-1.275,0.273-1.133,7.337-0.666,9.573c1.439,1.032,2.122,1.799,0.988,3.668
			c-1.929-0.345-3.995-1.423-6-1c3.929-2.84,1.6-14.821,0.257-15.145l-11.501-2.774c-0.082-0.285,0.127-0.712-0.01-0.969
			C43.367,107.613,52.209,110.79,53.882,108.11z"/>
		<path style="fill:#828282;" d="M73,132c0.421-0.249,0.848-0.456,1.294-0.515c1.188-0.156,4.732,4.852,5.703,6.297
			c3.957,3.623-8.951,1.953-9.864,0.564C69.68,137.657,70.077,136.725,70,136c-0.842-0.771-2.191-2.909-2.171-3.97
			C67.835,131.718,73.563,130.311,73,132z"/>
		<path style="fill:#686868;" d="M107,96c-0.445,2.713-0.765,5.494-2,8c0.298,1.631-0.369,1.631-2,0
			c-1.896-0.338-2.891-0.73-1.162-1.462c-0.628-3.952-0.64-7.506-0.034-10.664L103,92c1.157,0.117,3.273-0.569,3.893,0.588
			C107.456,93.636,106.83,95.059,107,96z"/>
		<path style="fill:#606060;" d="M91,114c-0.175-1.355-1.485-1.934-2.089-2.959c-0.723-2.473-1.821-4.823-3.293-7.05
			c-1.747-2.223,1.368-7.387,3.429-7.777C89.844,94.984,92.86,121.154,91,114z"/>
		<path style="fill:#6E6E6E;" d="M41,137c2.984-0.208,3.157,0.97,1,3c2.397,1.074,2.397,2.074,0,3
			c1.815,2.494-1.676,7.015-3.932,4.016c-2.347-3.26-0.532-7.341-1.068-11.016C38.394,136,39.791,136.279,41,137z"/>
		<path style="fill:#575757;" d="M24.055,64c-1.73,2.297-2.774,5.093-6.486,6.304C16.123,67.615,17.051,64.687,17,62
			c1.656-0.399,3.694,0.112,5.833,0.037C24.118,61.993,24.155,63.433,24.055,64z"/>
		<path style="fill:#676767;" d="M79.997,137.782c-3.326,0.169-5.065-3.415-6.997-5.782c-1.806-1.545,0.237-3.077,2.142-3.955
			l0.249-1.079C78.669,129.097,79.487,134.068,79.997,137.782z"/>
		<path style="fill:#AFAFAF;" d="M112.123,142.071c-2.717,4.858-5.142,9.927-7.781,15.308c-0.764,1.558-0.24,3.342-0.342,4.621
			c-1.546,0.62-2.543,0.391-2.928-1.145c-2.745,0.68-4.435,0.062-5.072-1.855c-2.435,1.734-4.884-1.915-3-4
			c0.226-0.991,7.68,5.935,9.485,2.545l8.236-15.469C111.077,142.18,111.769,142.096,112.123,142.071z"/>
		<path style="fill:#696969;" d="M125,124l3,3c0.916,3.555-4.131,0.877-7,3h-1c-0.87-1.38-0.305-3.473-0.002-4.74
			C120.447,123.381,124.121,123.121,125,124z"/>
		<path style="fill:#7D7D7D;" d="M41,119c0.793,0.599,0.634,2.192,1,3c0.195,0.894,0.073,2.894-0.798,2.9
			c-1.466,0.011-2.765,0.585-3.493,0.146c-2.062-1.242,0.106-8.945,0.821-11.161C39.293,116.291,39.518,117.88,41,119z"/>
		<path style="fill:#666666;" d="M67,109v2c1.675,2.516-0.817,4.304-3,2c-0.488,1.563-2.749,0.609-4,0
			c-1.575,2.152-2.436,1.482-1.874-1.147c-0.284-0.549-0.412-1.236-0.896-1.678L62,108C65.598,106.008,67.265,106.341,67,109z"/>
		<path style="fill:#C6C6C6;" d="M89.047,96.215c-7.261,8.414,1.504,10.162-0.136,14.826c-2.627-1.57-4.939-4.183-6.937-7.841
			L83,101c3.41-0.306,4.117-4.643,4.315-7.651c0.916-0.128,1.506-0.758,2.474-1.439C90.406,93.9,89.617,95.04,89.047,96.215z"/>
		<path style="fill:#BBBBBB;" d="M34,133l-11.7,0.092c-0.522,2.048-1.219,3.539-1.446,5.054c-1.332,2.494-2.395,1.898-1.854-0.899
			c1.702-1.345,1.435-3.815,3-5.247c0.342-0.313,0.776-0.569,1-1c4.002-0.386,8.338,0.997,11.906-1
			C34.982,131.134,34.223,131.986,34,133z"/>
		<path style="fill:#D4D4D4;" d="M112,78c0.585-0.216,1.646,0.124,2.419,0.009c0.298-0.044,0.668,0.552,0.299,0.909
			c-0.293,0.284-0.662,0.754-0.718,1.082c-2.676,0.154-6.9-0.61-8.795,2.053c-1.327,1.864-0.671,4.545-2.205,5.947h-1
			c3.813-10.941-0.758-9.227,0-12c1.426,0.571,2.009,2.652,3.072,3.52C107.518,79.579,109.992,78.741,112,78z"/>
		<path style="fill:#515151;" d="M51,137.845c1.228,0.953,0.561,1.671-2,2.155c0.028,2.905-1.234,3.335-3,1
			c-1.746,1.047-3.937,1.22-4-1c-0.134-1.058-0.447-2.085-1-3C44.18,135.956,47.897,136.887,51,137.845z"/>
		<path style="fill:#C9C9C9;" d="M38,80v1l-10,2.11c-1.305,0.496-2.768-0.176-4.39-2.017C21.319,81.84,19.782,81.476,19,80l7-5
			c-0.877,1.741-0.638,3.187,0.402,4.142c1.457,1.338,2.611,2.324,4.607,1.998L38,80z"/>
		<path style="fill:#6B6B6B;" d="M74.026,122.906c-4.739-0.334-7.249-2.149-7.53-5.443C68.399,117.412,69.9,116.258,71,114
			C72.926,116.275,75.339,119.952,74.026,122.906z"/>
		<path style="fill:#424242;" d="M97,127c2.329,2.17,2.996,3.837,2,5c-0.66,1.273-1.944,1.965-3.042,2.824
			c-0.71-1.035-3.082-9.852-0.822-10.404C95.759,125.153,96.257,126.435,97,127z"/>
		<path style="fill:#868686;" d="M71,114c-2.703,4.694-5.636,5.852-7,0c-0.917-0.268-0.901-0.603,0-1c1.287,0,1.994-1.516,3-2
			c0.799-0.384,2.546-0.061,3.391,0.14C71.469,111.396,70.766,113.285,71,114z"/>
		<path style="fill:#D4D4D4;" d="M71,69c-1.533,0.117-2.221,2.937-4,2c2.03-2.441,2.774-5.345,1.677-9.003L62,62.021
			c1.162-1.093,2.456-2.44,4-3.021c0.242,1.121,3.095,0.564,3.493,1.484L71,69z"/>
		<path style="fill:#B6B6B6;" d="M103,92c-1.336,0.425-1.284,2.383-1.07,3.986L103,104c-2.491,0-5.113-0.275-7-2
			c1.591-0.162,3.208-0.049,4.828,1.031c0.796-4.197-0.33-7.48-0.828-11.031C101.169,91.343,101.956,90.845,103,92z"/>
		<path style="fill:#5E5E5E;" d="M68.919,96.961l5,1.035c-0.048,2.279-2.524,5.17-4.662,5.353c-0.694-1.991-1.092-4.008-2.324-6.117
			C67.989,97.087,68.552,96.888,68.919,96.961z"/>
		<path style="fill:#D5D5D5;" d="M75.142,128.045c-1.135,1.078-1.889,2.452-2.142,3.955c-0.836,0.259-2.649-0.202-3.553,0.932
			c-0.572,0.718,0.44,2,0.553,3.068h-1c-0.939-2.613-3.255-3.953-5-6c1.803,0.096,3.309,1.677,5.402,1.659
			C71.47,130.108,72.867,127.927,75.142,128.045z"/>
		<path style="fill:#CBCBCB;" d="M74,78c0.578-0.095,0.919-0.008,1.063-0.083c-0.259,1.242-0.685,1.76-1.139,2.238
			C71.691,80.019,61.669,75.688,60,74C65.514,73.804,69.365,79.391,74,78z"/>
		<path style="fill:#D4D4D4;" d="M63.806,94.806c0.061,0.455,0.327,1.058,0.136,1.501c-7.422,1.45-4.004,3.969-7.882,7.753
			c-0.435-1.906,0.787-3.478,1.634-5.479C58.32,97.105,56.441,95.994,56,95C58.587,96.088,61.343,96.244,63.806,94.806z"/>
		<path style="fill:#B5B5B5;" d="M53,52c-2.934,1.983-3.122,7.637-5,11c-0.28-0.085-0.743,0.021-1,0c1.526-7.742,3.92-6.019,2-14
			C51.252,47.493,52.813,49.857,53,52z"/>
		<path style="fill:#B3B3B3;" d="M67,46c0.312-0.401,0.646-0.389,1,0c2.079,3.036,0.793,9.596-2,12c-0.619,0.263-1.391,0.608-2,1
			c0.209-2.408,3.39-12.095,1-12C63.283,44.391,65.349,43.27,67,46z"/>
		<path style="fill:#BCBCBC;" d="M68,142c-0.071,3.729-1.596,7.282-1,11h-2c2.073-5.742-0.064-11.069,2-11H68z"/>
		<path style="fill:#D3D3D3;" d="M86,115.963V117c-4.044-0.272-7.946-1.541-12-1c-0.105-0.295,0.069-0.692,0-1
			c1.731,0.544,3.677-0.266,5-1C81.221,114.669,83.524,116.204,86,115.963z"/>
		<path style="fill:#BFBFBF;" d="M91,128c-1.974,1.771-6.969,1.782-9,3c-0.296-0.203-0.623-0.853-1.018-0.866
			C81.412,128.192,89.16,128.438,91,127V128z"/>
		<path style="fill:#CACACA;" d="M69,106c-0.398,1.431-1.065,2.431-2,3c-1.894-0.943-3.487-1.192-5-1c1.664-1.636,3.368-2.333,5-3
			C68.219,104.502,68.984,105.399,69,106z"/>
		<path style="fill:#6B6B6B;" d="M95.129,114.911c0.47,0.51,1.349,0.639,1.871,1.089c1.196,1.493-2.783,5.059-3.827,2.827
			c-0.136-0.982-0.335-2.115-0.057-3.195C93.317,114.85,94.407,114.841,95.129,114.911z"/>
		<path style="fill:#D0D0D0;" d="M31,98c-0.026,0.325,0,0.673,0,1h-9l0.702-2.557C25.414,96.201,27.514,96.053,29,96
			C29.297,96.709,31.094,96.832,31,98z"/>
		<path style="fill:#BFBFBF;" d="M52.924,138.801c1.638,1.207,2.178,3.227,2.076,5.199l-2.314,0.462
			c-0.931-1.746-2.16-3.233-3.686-4.462c0.721-0.666,1.387-1.389,2-2.155C51.681,138.055,52.29,138.488,52.924,138.801z"/>
		<path style="fill:#C8C8C8;" d="M99,116c-1.234,2.033-2.943,3.8-5,5c-0.266-0.711-0.721-1.41-0.827-2.173
			c1.822,0.183,3.137-1.246,3.827-2.827H99z"/>
		<path style="fill:#636363;" d="M69,106c0.037,1.345,0.573,1.954,0.981,2.522c0.594,0.828-0.563,1.993-1.385,1.478L67,109
			c0-0.714-0.152-1.485,0.12-2.358C67.342,105.932,68.221,105.817,69,106z"/>
		<path style="fill:#505050;" d="M37,183v1c2.489,1.844,0.689,4.388-2,4c-1.543,0.254-1.998,2.885-3.283,3.891
			C26.704,191.142,21.479,190.614,17,189c0.071-0.323-0.033-0.67,0-1c-1.453-2.065-3.688-3.599-2-6c0.346-0.275,0.598-0.838,1-1
			l2.922-4.63C24.862,178.84,30.887,181.05,37,183z"/>
		<path style="fill:#ADADAD;" d="M37,182v1l-17.606-4.87c-1.216,0.905-2.315,2.435-3.394,2.87c1.2-3.311,3.017-6.407,3-10
			c0.284-0.873,0.618-0.86,1,0c1.569,0.281,2.29,1.738,2.164,4.371l14.089,4.309L37,182z"/>
		<path style="fill:#C2C2C2;" d="M25,161c0.873,0.284,0.86,0.618,0,1c-0.216,1.832-1.236,2.214-2.922,1.948
			c0.62,3.666-0.073,6.017-2.078,7.052h-1l-0.041-8.857C17.668,161.87,16.807,161.909,16,162c0.21-1.002,1.097-1.881,1-3
			C19.113,157.8,23.613,158.811,25,161z"/>
		<path style="fill:#B2B2B2;" d="M16,162c-0.531,2.537-3.377,1.983-5,3C11.819,163.032,13.981,162.229,16,162z"/>
		<path style="fill:#4C4C4C;" d="M40.806,171c-0.298,1.394,0.081,2.591,1.137,3.592L40,176c-0.2,1.846-0.867,3.179-2,4
			c-0.311,0.681-0.387,1.478-1,2l-16.753-5.124c-0.508-2.253-0.256-4.123-0.247-5.876l0.041-8.896
			c1.999-0.294,3.471-0.08,4.959-0.104c0.742-1.198,2.637-1.525,4-0.961C34.034,162.668,38.832,166.013,40.806,171z"/>
		<path style="fill:#393939;" d="M50,191l4,3c-7.042,8.019-6.988,9.835-18.885,9.985C31.311,190.379,34.898,191.112,35,188
			c0.046-1.396,1.779-2.615,2-4l2-1C42.916,183.121,49.874,187.003,50,191z"/>
		<path style="fill:#474747;" d="M55,182c1.125-0.03,2.209,0.318,3.253,1.042c0.153,1.621,1.258,3.45,3.314,5.488
			c1.287-2.575,3.165-1.158,2.433,1.47c0.086,0.453,0.86,0.926,0.912,1.504c0.037,0.413-1.136,0.82-0.912,1.496l-6,1h-4l-4-3
			c-3.716-2.61-7.789-4.792-11-8C43.897,180.552,49.688,182.692,55,182z"/>
		<path style="fill:#4E4E4E;" d="M65,172c2.87,0.6,3.21,1.779,1.022,3.537l-2.622,5.422c1.02,1.47-0.159,1.873-3.535,1.208
			c-2.16,1.595-3.448,1.289-3.865-0.921c-2.53-2.036-4.668-4.467-7.113-6.875c1.758-1.264,2.338-2.383,3.16-3.434
			c-0.727-2.514-0.3-2.864,1.953-1.58c2.207-2.769,4.54-4.555,7-5.357C63.667,164.503,66.799,169.585,65,172z"/>
		<path style="fill:#4E4E4E;" d="M51,158l-3,4c0.873,0.284,0.86,0.618,0,1l-3.171,3.186c-3.159-1.299-5.753-2.908-7.782-4.826
			c-2.25-1.005-3.463-2.947-3.034-5.36c0.362-2.04,0.276-4.255,1.747-6.353l16.115,5.535C51.622,156.304,51.022,157.098,51,158z"/>
		<path style="fill:#757575;" d="M61,154c2.564,0.406,3.02,1.016,1.367,1.829L61,162c-1.97,2.632-4.303,5.085-7,7.357
			c-0.305,0.695-1.49,1.114-1.953,1.58c-1.135,0.203-2.169,0.928-3.589,0.897c-0.709-1.724-1.191-3.038-2.301-3.834
			c-2.228-1.576-1.614-3.243,1.843-5v-1l3-4c1.867-1.036,3.355-2.672,5-4C58.119,152.47,58.762,152.449,61,154z"/>
		<path style="fill:#585858;" d="M11,135c2.566,1.162,5.067,2.566,8,2.247c0.509,0.491,1.16,0.783,1.854,0.899
			c-0.117,0.778,0.826,1.866,0.952,2.544c0.331,1.78-6.847,9.677-12.676,5.437C9.784,140.202,4.871,133.787,11,135z"/>
		<path style="fill:#525252;" d="M29,160c-0.731,0.972-2.76,1.222-4,1c-2.867,0.248-5.925,0.183-8-2c-0.812-0.855-1.272-2.077-2-3
			v-6c1.552,0.332,3.845-1.336,5.492-0.57C21.716,150.575,33.106,159.92,29,160z"/>
		<path style="fill:#C2C2C2;" d="M74,175h-1l-1.884,1.58c-3.412-1.693-6.841,5.086,0.028,0.98L73,179c-0.119,0.637,0.164,1.374,0,2
			c-1.232,2.731-5.322,3.576-8.108,3.88c-0.907,1.772-2.015,2.988-3.325,3.65c-2.564-1.549-4.875-3.898-6.567-6.53
			c0.354-0.222,0.691-0.472,1-0.753c1.717,0.351,3.442,0.619,5.408,0.191c1.602-0.349,5.263-6.057,3.592-9.438
			c2.207-1.678,4.218-2.012,6.033-1C73.389,171.162,74.942,172.571,74,175z"/>
		<path style="fill:#484848;" d="M50,179.05c1.027,0.532,2.463,0.149,3.053,1.979c-5.09-0.675-9.949,1.31-14.053-1.029
			c0.113-1.268,0.447-2.601,1-4l1.075-2.681C44.262,175.055,47.237,176.966,50,179.05z"/>
		<path style="fill:#5E5E5E;" d="M33,156c-0.094,0.852,0.359,1.868-0.86,2.563l-6.141-6.089c1.958-1.805,3.183-3.527,5.001-4.358
			C33.128,150.247,33.324,153.053,33,156z"/>
		<path style="fill:#6C6C6C;" d="M26.787,145.268c-0.472,0.708,0.738,1.009,1.123,0.908l0.701,0.863
			c0.536,0.66-2.883,4.985-4.547,3.474c-1.03-0.935-2.642-2.015-1.703-3.522C23.216,145.62,25.341,145.322,26.787,145.268z"/>
		<path style="fill:#BABABA;" d="M48,163c-1.191,1.436-2.214,3.094-1.843,5c0.061,0.314-0.177,0.679-0.157,1
			c-2.195-1.177-4.471-2.667-6.827-4.47c-0.474-0.354-1.756-0.836-2.144-1.554c-0.235-0.435-0.213-0.966,0.018-1.616
			c2.5,0.476,5.232,4.016,7.307,3.154L48,163z"/>
		<path style="fill:#ADADAD;" d="M42,171c1.688,1.845,3.584,3.463,5.69,4.856c0.644,0.976,2.878,1.335,2.31,3.194l-7.375-3.72
			C41.696,174.861,40.52,175.578,40,176c-0.024-1.712-0.312-3.567,0.806-5H42z"/>
		<path style="fill:#6D6D6D;" d="M46,169c0.351,1.629-0.716,2.632-1.501,0.756c-2.289-1.531-4.59-3.088-5.326-5.225
			C42.015,163.949,44.697,166.486,46,169z"/>
		<path style="fill:#525252;" d="M47.69,175.856c-2.319-0.315-4.324-1.472-6.682-3.103c0.227-0.774,0.762-1.205,0.992-1.752
			C44.779,171,46.282,173.72,47.69,175.856z"/>
		<path style="fill:#818181;" d="M19.344,146.889c0.39-1.576,1.71-3.144,4.296-4.041C23.54,144.619,22.6,145.713,19.344,146.889z"/>
		<path style="fill:#949494;" d="M29,160v1.039c-1.224,0.679-2.61,0.938-4,0.961v-1C26.045,159.924,27.577,159.82,29,160z"/>
		<path style="fill:#B2B2B2;" d="M39,180c-0.257-0.146-0.712,0.089-1,0c0.617-1.353,0.8-3.027,2-4
			C40.019,177.352,40.489,179.35,39,180z"/>
		<path style="fill:#BFBFBF;" d="M64,193c-1.608,1.551-3.937,1-6,1C59.81,192.825,61.675,192.705,64,193z"/>
		<path style="fill:#CECECE;" d="M16,109c-0.244,0.278-0.841,1.243-0.565,1.732c2.28,0.675,4.575,1.375,6.565,2.268
			c-0.06,0.509-0.193,1.532,0,2c-2.846-2.504-6.378-3.007-10-3c1.044-0.968,1.723-2.348,3-3C15.284,108.127,15.618,108.14,16,109z"
			/>
		<path style="fill:#8A8A8A;" d="M142.021,187.983c-7.002-0.487-12.199,1.801-15.26-5.906
			C131.417,182.44,143.04,182.463,142.021,187.983z"/>
		<path style="fill:#858585;" d="M125,168c1.405-1.325,1.92-0.767,1,1c-0.095,2.596-0.67,5.227-1.602,7.794L119,175
			c-0.056-2.86-0.276-5.594,0.085-9.022C121.418,166.514,123.69,166.69,125,168z"/>
		<path style="fill:#3D3D3D;" d="M112.772,178.273c-0.603,0.772-0.744,1.766-0.772,2.727c-2.81,1.138-3.676,4.93-7,5
			c-2.227-1.185-1.836-4.074-1-6c0.893-0.695,1.893-1.362,3-2c0.305-3.022,1.882-3.712,4.236-1.714
			C113.547,175.005,114.17,176.023,112.772,178.273z"/>
		<path style="fill:#595959;" d="M116.223,167.249c1.369,0.786,0.619,2.424,1.024,3.562c0.322,3.307-1.613,5.946-4.475,7.462
			c-0.327-0.664-1.412-1.212-1.535-1.987c-2.915-0.427-3.057-2.445-0.236-3.286c-0.021-3.21,0.979-4.98,3-5.31
			C114.721,167.378,115.902,168.187,116.223,167.249z"/>
		<path style="fill:#828282;" d="M128,180c-0.86,1.19-1.463-0.606-2.26-0.937c0.383-3.117,0.222-6.549,2.26-9.063l3.157,1.769
			L128,180z"/>
		<path style="fill:#737373;" d="M124,187c2.335-1.06,2.973,0.326,1,2l-0.205,2L123,192c-0.874-0.63-1.927-0.846-3-0.76
			c-1.595-1.658-2.582-4.394,0-5.24C121.405,185.952,122.81,186.23,124,187z"/>
		<path style="fill:#8D8D8D;" d="M117,187c1.585-0.273,2.252,1.167,2,4.32c-0.93,1.598-2.766,0.695-4,1.68
			c-0.604,0.037-1.765,0.257-1.974-0.517c0.139,0.515,0.771-4.524,1.639-5.328C115.292,186.574,116.371,187.249,117,187z"/>
		<path style="fill:#858585;" d="M125,189l-1-2c-0.543-1.087,0.174-2.624-0.089-3.915c2.646,1.388,4.382,3.853,7.109,6.489
			C129.082,190.533,126.81,190.033,125,189z"/>
		<path style="fill:#5D5D5D;" d="M120,186c-0.977,2.512-1.977,2.846-3,1c-0.981-1.458-2.371-2.911-1.788-4.117
			c0.823-1.704,3.283-2.811,4.473-1.433C120.42,182.3,120.108,184.941,120,186z"/>
		<path style="fill:#636363;" d="M120.471,179.545c0.028,0.241-3.878,1.511-4.544-0.957c-0.207-0.767,0.936-2.712,1.659-2.266
			C118.849,177.104,120.272,177.825,120.471,179.545z"/>
		<path style="fill:#888888;" d="M125.74,179.063c-0.098,0.797,0.759,1.784-0.684,2.272l-3.163-3.492
			C123.555,177.935,124.653,178.611,125.74,179.063z"/>
		<path style="fill:#8B8B8B;" d="M112,181c1.483-1.059,2.001-1.512,2.47-1.395c0.734,0.183,0.497,0.674,0.561,0.987
			c-0.056-0.276-0.517,3.677-2.409,3.457c-0.491-0.057-1.854,0.213-1.218-0.927C111.667,182.652,112.192,181.947,112,181z"/>
		<path style="fill:#5D5D5D;" d="M123.911,183.085c-1.096,0.24-0.921,1.015-1.1,1.394c-0.446,0.944-1.856,0.802-1.854-0.417
			c0.001-0.955,0.123-1.585,0.03-2.489c-0.083-0.805,1.319-0.735,2.101-0.219C123.555,181.661,123.458,182.453,123.911,183.085z"/>
		<path style="fill:#434343;" d="M86,171c2.694,0.403,4.656,1.637,5.883,3.704L97,177c2.24-1.087,4.849-0.082,6.113,1.987
			c0.848,0.348,0.788,0.686-0.113,1.013c0.862,1.673,1.415,5.498-1.076,4.924c-0.27,0.357-0.742,0.667-0.924,1.076l-4,3
			c-0.37,1.057-1.357,1.285-2,2l-4.813,4.132c-2.571,1.831-4.435,0.675-2.218-2.126c0.18-0.392,0.18-0.392,0,0
			c1.411,3.977-1.523,3.405-4.047,1.228C81.14,192.771,75.6,189.915,74,188c-1.172-1.403-0.892-3.158-0.204-5.144l3.07-8.861
			C78.723,171.606,82.945,169.54,86,171z"/>
		<path style="fill:#B4B4B4;" d="M90.187,195.132c0.06,0.61,0.045,1.225-0.048,1.831c-2.05-0.772-3.877,0.384-4.99,2.131
			c1.028-1.734,0.647-3.874-1.228-4.861c0.678,0.249,1.443,0.851,2.402,0.461c0.55-0.224,0.563-1.594,1.645-1.689
			C88.095,194.175,89.058,194.952,90.187,195.132z"/>
		<path style="fill:#515151;" d="M67,46c-0.793,0-1.546,0.337-2,1l-5,2c-0.429,0.637-1.407,0.74-2,1l-5,2
			c-1.974,0.003-2.831-1.549-4-3c-0.012-0.558-0.661-1.556-1-2c-0.532-1.234,0.134-2.234,2-3c4.078-2.497,8.246-5.049,12-8
			c3.863-3.219,7.292,4.652,8.538,8.284L67,46z"/>
		<path style="fill:#B8B8B8;" d="M69,38c1.315,9.05,5.242,4.88,9,9.793c-0.888,2.35-3.215,2.144-6.981-0.616
			c0,0-1.006-0.392-3.019-1.177h-1c0.781-1.142,1.969-2.304,1.958-3.517C68.938,40.356,65.372,35.117,62,36
			c0.438-0.977,0.767-1.998,1-3.043L69,38z"/>
		<path style="fill:#BCBCBC;" d="M52,31c-2.365,1.811-3.179,4.667-5,7c-0.416-1.248,1.38-3.367,0.658-4.47
			C46.763,32.162,44.455,32.414,44,31C46.702,31.54,49.493,32.167,52,31z"/>
		<path style="fill:#B9B9B9;" d="M47,45c-1.435-0.82-2.891-1.75-4-3c1.401-0.024,2.109-1.133,3-2C45.986,41.728,46.653,43.334,47,45
			z"/>
		<path style="fill:#BDBDBD;" d="M50,44l-2,3c-0.388-0.507-0.839-1.227-1-2C47.795,44.261,49.152,44.519,50,44z"/>
		<path style="fill:#DADADA;" d="M19,80c1.467,2.093,0.321,3.164-2,3.346c-1.562,1.939-2.683,1.454-4-0.346
			c-0.009-0.558,0.252-1.513,0-2L19,80z"/>
		<path style="fill:#CFCFCF;" d="M11,90H9.9c0.777-2.442,1.038-5.327,3.1-7C16.452,83.842,14.26,90.804,11,90z"/>
		<path style="fill:#D4D4D4;" d="M12,75l-1,2c-1.491-0.816-3.329-1.236-4-3C8.645,74.444,10.287,74.946,12,75z"/>
		<path style="fill:#505050;" d="M65,156c4.747-0.112,6.263,7.978,5.769,12c0.343,0.667,0.241,2.223,0.264,3
			c-1.933,1.349-3.964,2.97-6.033,1c-1.314-2.66-4-5.142-4-8c-1.335,0.292-1.335-0.374,0-2l1.812-7.467
			C64.082,154.489,64.723,154.712,65,156z"/>
		<path style="fill:#686868;" d="M75,168.87c-0.609-0.425-2.058-0.156-2.051-1.85l0.055-12.899c2.846-0.251,5.118-0.366,8.26,0.159
			C80.4,159.867,78.186,164.632,75,168.87z"/>
		<path style="fill:#767676;" d="M70.769,168l-2.116-5.453c-0.98-2.526-2.796-4.3-3.653-6.547c-1.355-1.185-1.963-1.718,0-2
			c2.147,0,4.325-0.167,6.967,0.084C72.028,154.307,72.17,171.608,70.769,168z"/>
		<path style="fill:#353535;" d="M85.079,156.199c0.413,0.119,0.734,0.237,0.733,0.354c-0.015,3.527-0.324,9.432-0.788,12.879
			C84.993,169.664,84.554,169.84,84,170c-0.89,0.837-2.53,1.24-3,0c-1.784,1.141-2.467-0.111-1.084-1.659
			C78.801,166.804,81.62,154.485,85.079,156.199z"/>
		<path style="fill:#5C5C5C;" d="M73,175c0.965,1.225,1.395,2.974,0,4c-2.876,1.033-5.418,2.355-9.114,2.994
			c0.863-3.312,1.984-6.147,4.504-7.664C69.902,173.42,71.755,175,73,175z"/>
		<path style="fill:#646464;" d="M73,181c-0.697,2.661-1.365,5.486-2.753,8.351C69.687,190.508,68.5,189.263,68,189l-3.108-4.12
			C65.791,181.726,70.149,181.507,73,181z"/>
		<path style="fill:#666666;" d="M64.892,184.88L68,189c-0.047,1.299,1.566,2.181,0.705,4.162c-1.508-1.587-2.786-3.037-4.705-3.162
			l-2.433-1.47c0.562-2.003-1.733-3.281-3.193-5.036C60.726,181.342,62.923,183.736,64.892,184.88z"/>
		<path style="fill:#ABABAB;" d="M87.932,153.058l1.221,2.077c-1.283,4.29-1.673,8.753-1.168,13.39L86,170
			c-0.626,0.676-1.331,0.671-2,0l1.079-13.801l-1.81-1.864c-0.724-0.745,0.655-1.274,0.731-1.971
			C85.252,152.857,86.595,153.004,87.932,153.058z"/>
		<path style="fill:#626262;" d="M74,175c-1.454-1.108-2.909-2.079-2.967-4c1.288-0.899,2.934-0.756,3.967-2.13
			C77.105,170.339,76.085,173.929,74,175z"/>
		<path style="fill:#B2B2B2;" d="M84,170c0.661-0.075,1.336,0.041,2,0c0.873,0.284,0.86,0.618,0,1
			c-3.387-0.595-6.089,1.77-9.134,2.995c0.339-0.979,0.025-2.339,1.134-2.995c1.232-1.035,2.232-1.368,3-1
			C81.925,169.79,83.045,170.109,84,170z"/>
		<path style="fill:#3C3C3C;" d="M79.916,168.341L81,170c-0.636,0.353-1.155,1.154-1.843,1.629
			c-0.606,0.419-1.194,0.442-1.157-0.629C78.061,169.791,78.671,168.603,79.916,168.341z"/>
		<path style="fill:#CECECE;" d="M22,99c-3.577,2.259-5.395,5.836-6,10h-1c0.1-2.431,1.77-4.966,0-7c2.222,0.173,3.982-1.894,4-4
			C20.845,96.132,21.648,96.396,22,99z"/>
		<path style="fill:#575757;" d="M17,83.346c1.571-2.063,1.885-1.947,2,0.654c4.588,2.137,5.87,3.4,8,8c0.446,1.339,1.452,2.691,2,4
			c0.438,4.037-2.688,0.277-7,3c-0.962,0-2.218-0.438-3-1c-3.04-2.184-5.813-4.968-8-8c0.981-2.229,2.039-4.524,2-7
			C14.232,82.001,15.712,82.622,17,83.346z"/>
		<path style="fill:#D4D4D4;" d="M126.937,145.181c-0.407-0.03-0.968-0.159-1.377,0.018c-0.717,0.31-0.686,1.253-0.673,1.885
			c-1.348-1.483-3.477-3.045-2.667-5.316C124.349,141.605,125.883,143.622,126.937,145.181z"/>
		<path style="fill:#D5D5D5;" d="M134.063,149.008c-2.556-0.412-5.619-1.597-7.126-3.827
			C129.663,145.384,132.605,146.63,134.063,149.008z"/>
		<path style="fill:#D6D6D6;" d="M130,156c-2.2-0.739-2.423-3.07-3-5C129.049,151.78,129.635,154.03,130,156z"/>
		<path style="fill:#DADADA;" d="M142.026,173.841l-0.083,5.258c-1.269-2.031-2.882-3.374-3.943-5.098
			C139.987,174.571,140.844,174.367,142.026,173.841z"/>
		<path style="fill:#D8D8D8;" d="M138,174c-1.667-0.479-3.545-1.025-4-3C135.817,170.559,136.846,172.123,138,174z"/>
		<path style="fill:#C4C4C4;" d="M105,186c-0.964-0.517-2.014-0.83-3.076-1.076c1.068-1.412,1.189-3.203,1.076-4.924
			c0.291-0.72,0.625-0.707,1,0C103.823,182.056,104.514,184.02,105,186z"/>
		<path style="fill:#B4B4B4;" d="M95,191c-1.394,1.549-2.417,4.264-4.813,4.132C90.63,192.997,92.826,191.218,95,191z"/>
		<path style="fill:#B7B7B7;" d="M101,186c-0.737,1.656-2.107,3.024-4,3C97.598,187.292,99.205,186.017,101,186z"/>
		<path style="fill:#686868;" d="M124,108v4c1.526,2.474-8.31,2.785-8.578,2.653c-1.705-0.847-2.559-2.984-4.422-2.653
			c-1.852,2.347-5.225-0.471-4-3c-1.518,0.133-1.537-2.762,0-3c2.203-0.353,4.113-2.118,6-3c2.874-0.022,6.73-0.369,9.725,0.327
			C123.649,104.315,122.25,107.6,124,108z"/>
		<path style="fill:#636363;" d="M111,112l1.278,1.766c1.847,2.554,5.177,5.225,3.722,8.234c2.401,2.238-0.118,4.852-3,4
			c-0.837,2.69-2.504,2.69-5,0c-1.205-1.02-1.872-3.02-2-6c-0.274-2.848-1.009-5.393-2.207-7.634
			c1.054-2.496,2.123-3.618,3.207-3.366L111,112z"/>
		<path style="fill:#5E5E5E;" d="M122.264,122.617c-1.961,1.785-6.287-3.74-4.925-5.987c1.169-1.413,3.897-1.543,5.603-1.603
			C122.589,117.152,124.03,120.196,122.264,122.617z"/>
		<path style="fill:#5E5E5E;" d="M112,130c-2.049-2.49-2.077-3.09,1-4c1-1.305,2.263-2.476,3-4c0.983-0.034,2.056,0.253,2.588,0.96
			c1,1.329-0.395,6.171-2.563,6.627C114.812,129.843,113.151,130.435,112,130z"/>
		<path style="fill:#CFCFCF;" d="M20,20c-0.249,2.645-2.321,2.457-4,1c-0.498,2.456-1.254,2.443-2,0c-1.78,0.608-2.536-0.292-3-2
			c0.361-0.98,1-1.902,1-3c1.777,0.706,2.459,2.871,4.964,3.304c1.752-1.373,1.971-4.007,4.043-4.178
			C22.59,17.264,17.822,16.65,20,20z"/>
		<path style="fill:#D4D4D4;" d="M12,16l-6.063,0.892c1.124-0.38,1.987-2.116,4.166-2.126C9.555,13.65,8.292,13.807,8,13
			c1.402,0.022,2.81-0.229,4-1V16z"/>
		<path style="fill:#585858;" d="M19,29.813c1.181,0.749,2.483,1.806,3.869,2.308C23.356,32.605,23.458,33.586,24,34
			c1.64,0.773,1.64,2.439,0,5c-1.203-0.243-2.864,0.363-4,0c-2.427,1.567-8.998-0.497-11.941-1.658C7.889,37.275,7.916,36.709,8,36
			c-0.483-0.453-1.263-0.814-1.504-1.55C6.339,33.97,6.77,33.405,7,33c0.282-2.938,2.264-4.347,5-3l2.463-2.616
			C15.543,28.661,17.055,29.471,19,29.813z"/>
		<path style="fill:#6A6A6A;" d="M20,20c0.681,1.047,1.861,1.574,3,2c1.936-0.714,2.304,0.196,0.819,1.714L21.974,29.1
			c-0.396,1.155-2.217,0.632-2.974,0.713l-4.854-1.268C14.109,25.258,14.727,22.743,16,21C17.027,19.812,18.567,19.938,20,20z"/>
		<path style="fill:#7C7C7C;" d="M23.819,23.714C23.639,23.103,23.314,22.551,23,22c0.621-1.333,1.945-2.577,3.628-2.68
			c1.263-0.077,3.28,0.453,4.098,1.315C27.489,22.075,25.959,23.231,23.819,23.714z"/>
		<path style="fill:#C7C7C7;" d="M32.152,25.152C30.618,26.898,28.43,28.848,26,28.73C27.221,26.385,29.681,25.393,32.152,25.152z"
			/>
		<path style="fill:#5E5E5E;" d="M8,36c3.825,1.924,8.332,0.847,12,3c1.693,0.981,4.08,1.131,2.774,4.285L6.028,37.943
			C4.881,37.577,4.224,36.773,4,36C5.148,36.387,6.927,35.461,8,36z"/>
		<path style="fill:#D8D8D8;" d="M120,186c-0.935,1.574-0.719,3.473,0,5.24l-1,0.08c-0.656-1.418-1.119-3.011-2-4.32
			C117.972,186.616,118.915,186.037,120,186z"/>
		<path style="fill:#797979;" d="M91.929,49.764c-0.611,1.873,1.31,4.094,0.874,6.272C92.234,58.877,88.187,59.063,86,59l-3-2
			c-4.424-1.385-6.108-5.619-1-6.777C85.009,50.302,86.401,45.698,91.929,49.764z"/>
		<path style="fill:#5F5F5F;" d="M78,47.793L79,50c1.099,3.94-6.718,6.587-10,6.724L66,58c0.152-4.005,0.686-8.216,2-12
			C72.121,43.154,73.776,47.975,78,47.793z"/>
		<path style="fill:#E7E7E7;" d="M82,50.223c-1.919,2.122-0.809,4.864,1,6.777c-2.5-1.667-9.877,0.187-14,1v-1.276L79,50
			C80.003,49.927,81.005,50.197,82,50.223z"/>
		<path style="fill:#797979;" d="M128,169h-2l-1-1c0.053-2.607,2.834-3.755,4-6c1.773-0.088,2.609-2.256,5.645-1.255
			c0.586,2.626-0.541,5.688-1.708,8.451C132.154,171.05,129.148,169.713,128,169z"/>
		<path style="fill:#747474;" d="M92,72c-0.658-0.271-1.133-1.119-2-1c-3.081-3.283-1.885-5.454-0.403-10.382
			c2.68-3.187,7.291-2.906,11.255-2.446c2.243,11.776,5.194,4.069,0.125,15.84C97.401,74.028,94.662,73.098,92,72z"/>
		<path style="fill:#545454;" d="M14,21c1.068,1.055,1.22,2.838,0.455,5.349C15.782,27.992,14.963,29.208,12,30
			c-1.586,1.103-3.055,2.424-5,3c-1.873-3.642-1.806-8.844,1-12c0.734-0.826,2.524-0.708,3-2c0.661-0.075,1.441-0.19,2.184,0.256
			C13.667,19.546,13.911,20.339,14,21z"/>
		<path style="fill:#757575;" d="M99,54l3,2c-2.328,1.104-4.848,1.454-7.758,0.84l-1.29-5.896C95.864,50.839,97.297,52.864,99,54z"
			/>
		<path style="fill:#585858;" d="M106.123,164.877c1.018,1.259,2.959,1.704,3.877,3.123c2.143-0.225,2.476,1.442,1,5
			c-0.006,1.051,0.071,2.25,0.236,3.286c-1.499,0.413-2.81,1.352-4.236,1.714c-0.996,1.019-2.681,1.853-3.887,0.987
			c-2.324,0.59-4.503-0.313-6.113-1.987c-2.064-1.106-4.068-1.76-6.014-1.962c-1.185-2.57-0.847-3.583,1.014-3.038
			c-1.136-3.031,7.602-8.079,10-6C103.83,163.837,105.204,163.462,106.123,164.877z"/>
		<path style="fill:#C7C7C7;" d="M114,167.69c-1.765,1.332-1.641,3.714-3,5.31c0.01-1.758-0.014-3.475-1-5
			C111.301,167.79,112.725,168.038,114,167.69z"/>
		<path style="fill:#BCBCBC;" d="M106.123,164.877L102,166c-1.493-2.309-0.65-3.725,2-4
			C104.819,162.876,105.393,163.973,106.123,164.877z"/>
		<path style="fill:#DBDBDB;" d="M87,70c-0.006,1.985-3.489,3-5,3C83.207,71.413,84.707,69.855,87,70z"/>
		<path style="fill:#DCDCDC;" d="M76,72c-2.095-0.337-4.628-0.9-5-3C72.994,68.847,75.188,70.29,76,72z"/>
		<path style="fill:#3F3F3F;" d="M93,155l3,4c1.228,4.687-2.006,10.469-6.635,11.892C89.041,172.435,87.23,171.704,86,171v-1
			c0-5.736-0.85-11.795,1.932-16.942L90,152C90.93,153.073,91.766,154.259,93,155z"/>
		<path style="fill:#DBDBDB;" d="M54,74.846c-1.113,0.297-2.975-0.631-4.998-0.939l-0.005,13.123C48.996,88.806,50.308,89.943,51,91
			c-1.407-0.13-2.807,0.268-4,1c0.824-1.92,1.648-4.498,0-6c0.926-4.297,1.262-8.611,1-13C49.253,71.66,52.893,73.43,54,74.846z"/>
		<path style="fill:#D5D5D5;" d="M56,95c-1.885-0.013-3.272-1.334-4-3C53.898,91.975,55.265,93.344,56,95z"/>
		<path style="fill:#D6D6D6;" d="M51,126c-2.562,1.852-5.356,3.25-7,6c0.441-2.054,0.606-4.007,0-6
			C46.035,127.086,48.565,126.514,51,126z"/>
		<path style="fill:#7D7D7D;" d="M28,83.11c-0.896,0.853-1.53,2.592-3,2.89c-0.331,0.528-0.619,0.929-0.758,0.882
			C22.714,86.373,20.383,84.971,19,84c-0.708-0.236-1.343-0.284-2-0.654c0.08-1.382,0.868-2.538,2-3.346
			c1.885-0.314,3.939-1.523,5.891-0.552C26.174,80.087,27.241,81.753,28,83.11z"/>
		<path style="fill:#D0D0D0;" d="M25,86l2,6c-1.98-0.455-2.001-3.065-3.457-4.528C22.077,85.998,19.458,85.987,19,84L25,86z"/>
		<path style="fill:#DDDDDD;" d="M28,35c-1.576,1.112-3.086,2.138-4,4v-5C25.123,34.858,26.641,35,28,35z"/>
		<path style="fill:#EBEBEB;" d="M33,35h-5C29.455,33.973,31.842,32.938,33,35z"/>
		<path style="fill:#BCBCBC;" d="M65,47c-1.11,1.619-3.117,2.028-5,2C60.758,47.213,63.495,47.06,65,47z"/>
		<path style="fill:#BEBEBE;" d="M58,50c-1.082,1.624-3.131,1.997-5,2C54.112,50.371,56.108,49.917,58,50z"/>
		<path style="fill:#4E4E4E;" d="M49,140c0.774-0.294,2.711-0.319,3.53,0.439c1.241,1.147,1.288,2.815,2.47,3.561l1.895,5.105
			c0.52,0.459,0.626,1.384,1.105,1.895c1.736,1.663,1.069,2.663-2,3c-5.772,0-12.529-2.964-18.58-5.307
			c-0.394-0.254,0.459-1.536,0.648-1.677c2.053-0.321,2.347-3.029,3.932-4.016c0.182-1.14,1.516-1.807,4-2
			C47.008,140.718,48.059,140.357,49,140z"/>
		<path style="fill:#D4D4D4;" d="M65,154c0.11,0.61-0.219,1.426,0,2l-1.796-0.935C62.25,157.549,62.832,160.523,61,162
			c0-2.725,1.779-5.512,0-8H65z"/>
		<path style="fill:#DCDCDC;" d="M61,154h-5c0.977-0.788,1.919-1.658,2-3C58.952,152.016,60.183,152.858,61,154z"/>
		<path style="fill:#CACACA;" d="M56.895,149.105C55.433,147.813,54.9,145.928,55,144C56.705,145.077,57.108,147.217,56.895,149.105
			z"/>
		<path style="fill:#CECECE;" d="M31,115c-3.817-0.209-3.282-4.301-9-2c0.235-1.999,3.007-2.086,4.186-3L31,115z"/>
		<path style="fill:#D2D2D2;" d="M35,118c-1.802,0.342-2.88-1.837-4-3C32.766,115.097,34.477,116.31,35,118z"/>
		<path style="fill:#DCDCDC;" d="M73,89c-1.439,0.278-5.355,0.21-6-1C69.027,88.086,71.545,87.278,73,89z"/>
		<path style="fill:#C0C0C0;" d="M105,104c0.337,0.94,1.06,1.663,2,2v3c-1.083,0.822-1.989,2.033-1.925,3.806
			c0.997,2.558,0.925,4.906,0.925,7.194c-1.653-1.792-0.811-4.405-2.355-7.083c-1.029,1.222-2.335,1.988-3.813,1.915
			c1.862-3.204,4.973-2.052,5.263-7.23c0.069-1.226-1.82-2.362-2.095-3.602H105z"/>
		<path style="fill:#C2C2C2;" d="M105,127l-4,5h-2l-2-5c1.222,0.929,2.509,1.753,3.597,3.098
			C102.021,128.126,103.254,127.005,105,127z"/>
		<path style="fill:#D3D3D3;" d="M108,126c-0.568-0.163-1.401-0.009-2,0v-6C107.565,121.697,106.798,124.124,108,126z"/>
		<path style="fill:#D4D4D4;" d="M64,130c-0.652-0.035-1.93-0.618-2.66-0.818c-0.755-0.207-2.192,0.972-2.34,1.818
			c0.452-1.441-1.504-2.824-2-4c0.921-1.375,1.788-1.982,3.247-1.41c2.249-3.575,4.501-4.772,6.753-3.59
			C66.123,126.767,60.983,126.46,64,130z"/>
		<path style="fill:#D7D7D7;" d="M62,108c-1.167,1.147-3.115,2.805-4.77,2.175C57.245,108.108,60.407,108.202,62,108z"/>
		<path style="fill:#565656;" d="M83,101l5.911,10.041c-0.245,0.697-0.201,0.864-0.263,2.008l-11.461-11.266
			c-1.255-1.234-2.264-2.378-1.906-3.941L77,97L83,101z"/>
		<path style="fill:#D2D2D2;" d="M82,90l-5,3v-2C78.5,89.927,80.309,90.22,82,90z"/>
		<path style="fill:#D7D7D7;" d="M73.919,97.996c-2.006,0.518-3.503,0.074-5-1.035C70.235,97.221,73.963,95.914,73.919,97.996z"/>
		<path style="fill:#C2C2C2;" d="M113,126c-0.543,1.105-0.702,2.784-1,4c-1.803-0.681-3.01-2.454-4-4
			C109.675,126.498,111.535,127.276,113,126z"/>
		<path style="fill:#C3C3C3;" d="M106,136c-1.891,0.021-3.264-1.344-4-3C103.878,132.989,105.289,134.331,106,136z"/>
		<path style="fill:#D8D8D8;" d="M71,114c0.491,2.618-3.012,3.025-3.436,6.23c2.004,1.772,5.149,0.658,6.462,2.675
			C71.61,123.55,69.408,121.845,67,122c-2.182-0.963-5.779-4.667-4-7c-0.46-0.889-0.082-1.19,1-1
			c0.672,1.114,1.562,3.054,3.304,2.911C68.615,116.803,69.183,114.424,71,114z"/>
		<path style="fill:#646464;" d="M58.126,111.853c0.297,0.574,1.67,0.55,1.874,1.147c2.316,0.35,3.316,1.016,3,2
			c1.561,2.49,4.561,3.949,4,7c-8.464,6.275-3.12,6.232-10,5c-0.465-1.101-2.463-1.729-2.852-3.074
			c-0.379-4.067-0.024-7.781-0.864-12.331C55.226,110.567,56.562,112.139,58.126,111.853z"/>
		<path style="fill:#CFCFCF;" d="M46,141c-0.644,1.727-2.826,1.269-4,2v-3C43.19,140.771,44.598,141.022,46,141z"/>
		<path style="fill:#515151;" d="M104,162c-0.125,1.557-1.089,2.786-2,4l-10,6c-1.316,2.418-2.329,1.103-2.635-1.108
			c2.526-3.788,4.747-7.744,6.635-11.892l5.406-0.086C102.906,158.89,102.89,160.813,104,162z"/>
		<path style="fill:#E0E0E0;" d="M64,113c0.094,0.287-0.153,0.747,0,1c-0.368,0.297-0.703,0.632-1,1c-0.535-0.854-2.58-0.77-3-2H64z
			"/>
		<path style="fill:#AFAFAF;" d="M54,194c-1.886,0-3.294-1.314-4-3C51.279,191.898,53.861,191.686,54,194z"/>
		<path style="fill:#C3C3C3;" d="M61,164c-2.603,1.29-4.085,4.681-7,5.357c1.417-3.127,4.386-5.25,7-7.357V164z"/>
		<path style="fill:#C8C8C8;" d="M48,162c0-2.009,1.415-3.121,3-4C50.955,159.869,49.702,161.316,48,162z"/>
		<path style="fill:#B8B8B8;" d="M107,178c-0.338,1.376-1.642,2-3,2h-1c-0.022-0.332,0.116-0.679,0.113-1.013L107,178z"/>
		<path style="fill:#BCBCBC;" d="M89.365,170.892c0.785,0.467,1.564,1.3,2.635,1.108c-1.937,3.034,1.753,1.624,5,5
			c-2.044,0.109-3.957-0.614-5.722-2.056l-1.759,11.175c-1.763-4.38,0.88-7.874,0.635-12.164C89.006,172.353,86.752,172.54,86,171
			C87.053,171.185,88.359,170.631,89.365,170.892z"/>
		<path style="fill:#C1C1C1;" d="M87.969,193.006c0.349-3.327-0.678-5.305,0.648-7.07C89.008,188.527,89.96,191.493,87.969,193.006z
			"/>
		<path style="fill:#C7C7C7;" d="M68,189c-1.431-0.751-3.651-2.218-3.108-4.12C66.494,185.811,68.075,186.917,68,189z"/>
		<path style="fill:#CECECE;" d="M16,21c0.305,2.038-1.915,4.43-0.618,6.519L19,29.813c-2.259,0.241-4.96-1.233-7,0.187
			c2.476-2.343,2.13-5.783,2-9H16z"/>
		<path style="fill:#898989;" d="M75.218,54.671l4.452-2.728c0.535,1.116,0.494,1.896,0.291,2.547
			C79.696,55.342,78.278,55.115,75.218,54.671z"/>
	</g>
</g>
</svg>
