<?xml version="1.0" encoding="iso-8859-1"?>
<!-- Generator: Adobe Illustrator 30.1.0, SVG Export Plug-In . SVG Version: 9.03 Build 0)  -->
<svg version="1.1" id="Layer_1" xmlns="http://www.w3.org/2000/svg" xmlns:xlink="http://www.w3.org/1999/xlink" x="0px" y="0px"
	 viewBox="0 0 118 74" style="enable-background:new 0 0 118 74;" xml:space="preserve">
<g>
	<g>
		<path style="fill:#FCFCFC;" d="M103,0h15v4c-0.899,0.072-1.342,1.726-1.134,2.893c0.24,1.348-1.665,41.703-3.557,45.621
			L63.83,71.808C62.497,72.328,61.65,72.778,62,74h-5c0.007-1.18-0.613-2.263-1.686-3.31L29.995,45.978L1.21,17.829
			c-0.525-0.514-0.215-1.867-0.19-2.28c0.026-0.414,0.737-0.791,1.68-0.928L103,0z M104,2c-4.331,0.412-8.82,0.674-12.945,2.257
			c-0.279-0.506-0.792-0.913-1.182-0.776c-0.899,0.316-1.424,1.005-1.912,1.589c0.976-1.572-18.72,0.928-16.029,2.879
			c-0.415-0.037-1.915,0.223-1.843,0.882c-0.707-1.293-2.093-1.804-3.591-1.786c-1.332,0.015-2.834,0.407-3.383,1.839
			c-1.196-0.896-3.494-0.015-4.764-0.661C56.924,7.496,56.031,8.889,55,9c-3.994,0.428-8.225,1.84-12,2l-5.039,0.214
			C38.616,12.209,38.99,13.04,39,14c-0.29-0.108-0.692,0.064-1,0c-0.239-0.395-0.72-0.636-1-1c0.081-0.667,0.072-1.505-0.589-1.97
			C35.352,10.286,34.632,11.77,34,12c-2.144-0.188-4.979-0.238-6.832,1c-1.535,1.026-4.932-1.293-6.168,1h-1h-5
			c-0.979,0.785-1.235,2.041-2,3c-2.92,0.249-5.979-0.939-9.199,1.37c5.279,2.722,5.08,7.65,10.159,6.593
			c-0.143,0.874-0.963,0.832-0.927,1.319c0.045,0.599,0.929,1.852,1.449,1.669c0.332-0.116,0.952-0.758,1.309-1.285
			c0.714-1.053-0.755-1.954-0.915-2.704C14.555,22.451,14.395,20.474,14,19c0.321-0.346,0.656-0.678,1-1
			c-0.025,1.318,1.13,2.722,0.945,4.029C15.751,23.399,16.671,23.959,17,25c0.557,1.763,1.232,3.328,3.189,4.031
			c0.401,1.172,0.352,2.822,0.907,3.911c-0.904,0.179-1.01-0.291-1.168-0.575c-0.37-0.663-2.128-0.329-1.781,0.095
			c1.018,1.243,1.846,2.725,2.949,0.48c5.263,4.936,4.784,1.943,10.659,2.902C34.141,36.234,36.599,35.925,39,36
			c0.329,0.01,0.676,0.054,1,0c2.652-0.442,6.064,1.157,8-1c0.258,0.187,0.471,0.464,0.712,0.785
			c0.366,0.487-0.508,0.849-0.549,1.215H44c-2.388,0-5.076-0.691-7,1c-3.721-0.867-7.508-0.785-12.151-1.166
			c0.765,3.152,2.824,3.783,4.245,5.116c0.833,0.782,1.136,2.46,2.74,2.197c0.008,0.252-0.032,0.546,0.034,0.787
			c0.481,1.758,2.216,2.255,3.493,3.205c0.984,0.731,1.329,2.376,2.706,2.711c0.399,0.097,0.661,0.652,1.037,0.832
			c0.592,0.284,1.214,0.498,1.861,0.612c-0.28,2.502,1.043,2.967,3.102,3.717c0.154,1.938,1.494,3.726,3.516,4.401
			c0.458-0.315,0.738-1.02,0.998-1.278c-0.247,2.529,2.481,3.33,3.404,4.756c1.423,2.199,5.431,7.427,7.628,7.18
			c0.756-0.085,1.428-0.958,1.582-1.954c1.549,1.604,3.118-1.215,4.732-1.026C67.118,68.228,68.133,68.6,69,67
			c0.732-0.262,2.179,0.193,3.017-0.453C72.771,65.966,72.6,64.806,73,64l1.097-2.21c2.006,0.987,3.437,2.19,5.714,1.207
			l2.207-0.953c0.977-0.421,1.904-1.028,1.982-2.388c0.307-0.459,0.706-0.323,1.018,0.052C86.91,61.984,89.2,59.164,91,58.118
			c2.151-1.25,4.759-1.441,7-2.118c1.952-0.59,4.13-1.221,6-2c2.009-0.837,3.692-2.655,6-3c0.408-0.061,0.993,0.071,1.398-0.175
			c0.777-0.472,0.291-1.459,0.46-2.056c0.438-1.541,1.181-3.129,1.142-4.769c-0.091-3.84,0.11-7.653,0.661-12.113
			c-0.993-0.478-1.832,0.111-2.661,0.113c-0.502,0.001-1.095-0.478-1-1c3.092-0.537,2.578-2.697,3.076-4.318
			C114.125,23.266,115,19.75,115,16v-1v-3c1.839-1.272,0.852-4.012,1-6c0.11-1.467,0.124-3.034-0.124-4.865L109,1
			C106.943,0.96,105.602,1.847,104,2z M12.977,15.594c-2.949-0.932-4.616-1.023-6.06,0.001C9.316,16.311,11.17,16.26,12.977,15.594z
			"/>
		<path style="fill:#E4E4E4;" d="M71.932,7.95c1.475-1.241,1.951-0.663,0.919,1.034c1.108,2.13,0.825,2.802-0.85,2.016
			c0.799,2.896-0.856,6.619-4,7c1.457,0.224,1.124,0.891-1,2c1.135,1.666,0.666,4.092-1.407,7.278
			C67.931,27.497,70.495,28.289,70,31c-0.616,1.305-2.002,1.803-4.16,1.494l0.113,8.158L63.945,42
			c1.857,1.094,2.014,2.029-0.125,2.061c-0.135,1.591-0.515,2.925-1.141,4.002c-0.903,0.973-2.148,1.132-3.735,0.476
			c0.073-1.126-0.269-2.181-1.028-3.163c-1.326,0.072-2.605,0.371-3.837,0.898C54.151,47.014,53.791,46.923,53,46
			c-1.904,0.975-2.602-1.37-1.75-2.904c0.268-1.301,0.839-1.299,1.713,0.004c-0.468-1.138-1.332-1.407-1.713-0.004
			c0.4,1.315,0.388,3.066-1.174,3.31c0.648,1.727-1.108,2.6-1.97,0.66c-2.369-1.208-2.369-1.208,0,0
			c0.923,0.208,1.852,0.502,2.789,0.881c0.596-1.179,1.432-0.937,2.509,0.724l0.73,0.108c1.94-0.309,2.886,0.159,2.84,1.402
			c2.168-2.192,3.486-2.201,3.953-0.026c1.056,0.872,1.6,0.462,1.633-1.228c-0.88-0.23-0.801-0.52,0.12-0.864
			C62.823,46.314,63.53,46.219,64,48c3.187-0.979,4.849,3.108,2,5c0.091,2.014-1.52,1.983-3,1c-2.413-0.084-2.413-0.084,0,0
			c1.133,0.037,2.211-0.072,3-1c1.547-2.317,3.091-1.506,4,1c0.284-0.873,0.618-0.86,1,0c1.861,0.362,1.721,1.142-0.234,1.286
			C71.137,56.783,71.549,58.355,72,60c0.211,2.503,0.065,2.612-2,1.173c-0.253,3.118-4.142,2.445-5-0.173
			c-0.873-0.284-0.86-0.618,0-1c1.819-1.245-0.132-2.153-5.853-2.726l-0.759-0.959C57.852,58.082,57.396,57.754,57,56l-1.445,1.713
			c-2.889-1.159-5.456-0.973-7.702,0.557l-1.22,0.349c-0.846-3.119-1.701-3.988-2.565-2.609c-2.059-0.749-3.382-1.214-3.102-3.717
			c-0.479-0.587-1.104-0.776-1.861-0.612c-0.375-0.18-0.638-0.735-1.037-0.832c-1.775-1.738-0.3-3.387,1.125-4.829
			c1.135-1.651,2.756-2.985,4.862-4.002c1.08-2.183,2.449-3.856,4.108-5.02c0.042-0.366,0.915-0.728,0.549-1.215
			C48.471,35.464,48.258,35.187,48,35c-1.219-0.31-2.122-0.635-2-2.008c0.317-2.3-0.297-4.825-1.842-7.574L45,24
			c-0.901-0.265-0.884-0.599,0-1c2.173-0.648,4.294,0.769,6.363,4.252c0.539-1.873,1.444-2.956,2.714-3.252l2.4,0.004
			c1.547,3.503,6.458-2.286,7.383-5.075C64.711,20.529,64.758,20.219,64,18c-0.481-0.306-0.468-0.64,0-1
			c0.051-1.241,0.877-2.138,2.477-2.69c0.072-1.712,0.482-2.372,2.51-2.255c-2.064-1.862-1.42-2.722,1.102-3.223
			C70.016,8.174,71.517,7.913,71.932,7.95z"/>
		<path style="fill:#D8D8D8;" d="M91.055,4.257c2.142,1.092,1.922,2.491-0.066,3.659c-0.482,5.447-1.588,11.766-3.013,17.404
			c2.341,0.011,2.71,1.253,1.108,3.725l2.523,11.017c0.566-2.571,1.694-3.959,3.384-4.166C94.67,34.365,95.462,33.504,97,33
			c1.462-1.377,2.095-0.744,1.218,1.126c2.048-0.225,2.464-1.241,1.782-3.126c-1.627-2.674-0.623-3.738,2-2
			c1.981,0.148,2.592-1.567,1.835-5.147c-2.853-0.457-3.034-2.939-0.953-4.627c3.018-1.693,7.004,1.307,6.231,4.677
			c-1.816,2.25-1.736,5.478,0.887,7.097c-0.095,0.522,0.498,1.001,1,1c1.396,2.609-1.058,6.959-4,5
			c-3.221-1.855,0.59-3.436-0.707-1.147c-3.086,0.498-3.695,7.275-2.293,9.147c2.703-0.359,2.672-0.092,1,2
			c-0.855,2.156-2.91,2.772-5,2c-2.86-0.064-2.733-2.324,0-3l-0.51-6.56L98,40c-0.284,0.873-0.618,0.86-1,0
			c0.062-1.44-0.605-0.774-2,2c0.236,0.504-0.098,1.17-1,2c1.947-0.161,1.988,0.691,0.134,1.417C94.742,47.514,94.364,48.375,93,48
			c-0.211,2.153-1.679,5.812-4.1,6.005l0.013,0.924c1.211,2.165-1.715,5.124-3.895,4.78c-0.312-0.376-0.711-0.512-1.018-0.052
			c-1.357,0.518-2.017,1.314-1.982,2.388l-2.207,0.953c-1.963-1.352-3.867-1.755-5.714-1.207L73,64c-0.323,0.875-0.699,0.86-1.123,0
			c-2.665,1.148-3.743-0.667-1.877-2.827c0.498-0.547,1.209-1.01,2-1.173c-0.364-1.54-0.441-2.802-0.231-3.787
			c1.22-1.566,3.407-1.076,6.56,1.469l2.86-0.356c0.105-0.894,0.4-0.899,0.869-0.081c2.51-3.135,4.352-6.57,5.526-10.306
			C85.309,46.788,83.448,46.142,82,45c-2.114-1.563-1.496-2.395,1-3c1.103-1.59,2.08-1.285,3.485-0.654
			c-0.765-4.009-0.965-7.828-0.598-11.459c-1.999-3.879-4.349-3.652-7.049,0.681C80.913,29.807,82.353,29.431,83,32
			c3.127,0.57,2.988,9.161,0,10c-2.47,1.933-3.843,0.992-3-2c1.032-5.211-0.301-5.878-4-2c1.151,2.871-0.156,4.164-3,3
			c-1.86-0.368-1.908-2.326-0.143-5.872C70.606,33.964,69.654,32.588,70,31c0.676-1.455,2.01-2.455,4-3
			c3.242-2.339,4.344-4.194,3.303-5.563l0.773-2.177c-0.277-2.265,1.302-2.42,1.004-0.899c-0.069,0.352-0.487,0.635-1.004,0.899
			c1.677,2.567,0.475,4.33-2.247,2.774c-1.347-1.374-2.021-2.061-2.021-2.061C70.601,21.714,68.332,21.389,67,20l1-2
			c1.275-1.513,3.376-2.329,6.303-2.446C72.281,14.224,71.513,12.706,72,11c0.535-0.416,0.502-1.477,0.85-2.016
			c2.458,0.341,5.076,0.394,7.853,0.158L82,11c2.167,1.872,1.781,2.496-1,2c-3.493,0.862-3.493,0.862,0,0l1.719,1.322
			c0.346,6.626,1.399,5.414,3.159-3.636C87.233,10.812,87.273,10.4,86,9.451c-1.437-2.068,0.147-3.33,1.961-4.381
			c0.488-0.584,1.013-1.274,1.912-1.589C90.263,3.345,90.776,3.751,91.055,4.257z"/>
		<path style="fill:#BFBFBF;" d="M37,13c-0.392,2.064-1.392,4.064-3,6c-0.707,1.185-2.022,1.508-3.944,0.968
			c-1.405,7.811,1.674,7.435,5.828,1.65L38,21c0.624-2.316,2.291-1.983,5,1c0.148-0.909,0.814-0.576,2,1c0.06,0.312-0.09,0.698,0,1
			c0.772,2.628,0.658,2.969-2,2c-2.222-1.306-4.527-0.319-6.916,2.961C34.65,31.391,32.955,33.071,31,34
			c-2.118,0.316-3.72-1.285-4.807-4.803C24.304,29.601,22.907,29.202,22,28c-0.834-0.378-1.299-0.983-1.311-1.864
			C27.005,22.407,25.776,22.028,17,25c-0.329-1.041-1.249-1.601-1.055-2.971C16.114,20.668,16.466,19.658,17,19
			c6.305-0.354,7.399-0.768,3.28-1.242C18.407,18.359,16.981,18.106,16,17c0.256,0.922-0.078,1.255-1,1
			c-0.344,0.322-0.679,0.654-1,1c-2.583,1.751-3.706-0.468-1-2c0.765-0.959,1.021-2.215,2-3c1.58,0.805,3.419,0.811,5,0h1
			c2.127,0.343,4.194,0.341,6.202-0.005c2.091,0.712,3.589,0.454,4.493-0.775C33.372,13.279,34.14,12.873,34,12
			c0.632-0.23,1.352-1.714,2.411-0.97C37.072,11.495,37.081,12.333,37,13z"/>
		<path style="fill:#5E5E5E;" d="M104,2c8.083-1.024,4.374,4.31-0.042,7.407c-2.222,3.78-3.874,4.644-4.958,2.593
			c-1.829,2.542-8.695-1.113-8.01-4.084c-0.529-1.059-0.696-2.526,0.066-3.659C95.18,2.674,99.669,2.412,104,2z"/>
		<path style="fill:#484848;" d="M43,26c3.105,1.156,2.165,3.958-1,3l-0.708,2.473C41.954,32.743,41.19,34.252,39,36
			c-2.401-0.075-4.859,0.234-7.244-0.155C30.008,35.258,29.756,34.643,31,34c-1.875-1.434,9.576-14.226,11.947-10.498
			C43.328,24.102,42.832,25.346,43,26z"/>
		<path style="fill:#4A4A4A;" d="M115,12v3c-2.007,0.46-12.212,1.131-13.376,0.451c-0.133-0.078-0.939-2.648-0.887-2.948
			c2.984-2.54,5.661-5.269,8.033-8.186l1.211,1.143C115.23,4.904,116.807,7.334,115,12z"/>
		<path style="fill:#676767;" d="M115,16c0,3.75-0.875,7.266-1.924,10.682c-1.347,3.417-5.934-0.039-3.963-2.78
			c-1.896-1.734-4.055-3.35-6.231-4.677c-1.405-1.122-2.521-5.423,0.145-3.771C107.194,15.286,111.185,15.467,115,16z"/>
		<path style="fill:#4E4E4E;" d="M113,44c-1.094,2.374-4.704,7.161-6.126,4.126C105.287,50.403,104.539,49.68,105,47
			c-0.48-0.546-0.607-1.398-1-2l2-5c-2.771-1.529-2.113-3.531,1-3c2.086-1.085,2.113-3.704,4-5c0.829-0.001,1.668-0.591,2.661-0.113
			C113.11,36.347,112.909,40.16,113,44z"/>
		<path style="fill:#686868;" d="M65,61c1.547-0.417,3.438,0.448,5,0.173L71.877,64c0.663,1.707-1.248,2.738-2.877,2
			c-0.616,0.966-1.64,1.663-3.071,2.089c-1.614-0.189-3.183,2.63-4.732,1.026c-2.397,1.227-3.753-0.789-2.294-3.018
			c-0.528-1.852-1.517-3.095-2.964-3.73c1.154-0.944,1.879-2.27,2.177-3.978C60.49,59.278,62.785,60.148,65,61z"/>
		<path style="fill:#575757;" d="M87.961,5.071C89.06,6.724,87.301,8.266,86,9.451c1.403,2.945-2.448,4.313-4,1.549
			c-1.814,0.426-4.003-0.385-6.186,1.079c-1.436-0.958-2.086-2.106-2.964-3.094L71.932,7.95C69.241,5.999,88.936,3.499,87.961,5.071
			z"/>
		<path style="fill:#616161;" d="M31,34c0.32,0.604,0.913,1.054,0.756,1.845c-5.876-0.959-5.396,2.034-10.659-2.902
			c-0.555-1.09-0.506-2.74-0.907-3.911C19.58,26.732,20.053,26.653,22,28c1.54-0.199,3.246-1.067,4.758-2.011L31,34z"/>
		<path style="fill:#333333;" d="M63.115,8.885c2.471-1.185,6.924-0.073,5.871,3.171c-0.539,1.038-0.215,2.543-0.952,3.459
			C67.008,16.792,65.497,17.072,64,17c-4.696-0.187-5.02-1.162-5.396-5.711c-1.773-1.523-1.857-2.545-0.253-3.066
			C59.622,8.87,61.919,7.988,63.115,8.885z"/>
		<path style="fill:#C5C5C5;" d="M109,1c1.629-0.045,2.279,0.468,1.895,1.927C114.261,2.591,115.963,3.615,116,6
			c-0.148,1.988,0.839,4.728-1,6c0-1.268,0.661-4.209-0.643-5.141c-5.905-4.221-13.745,6.421-12.123,7.852
			C106.441,15.51,110.957,14.73,115,15v1l-13.061,0.076c1.122,1.045,0.47,2.427,0.943,3.151c-0.329,2.071-1.124,2.112-1.664,0.086
			C98.825,18.706,97.688,13.956,99,12c0.862-0.065,1.903-0.298,2.765-1.175l6.595-6.705C107.242,1.967,105.568,1.822,104,2
			C105.602,1.847,106.943,0.96,109,1z"/>
		<path style="fill:#5D5D5D;" d="M57,56c2.383,2.659,2.561,4.081,0.533,4.266c-0.182,3.144-0.806,3.887-1.873,2.229l-3.674,1.395
			c-0.923-1.426-3.651-2.226-3.404-4.756c-1.028,0.991-1.484,0.451-0.73-0.864c0.114-0.786-0.348-3.063,0.959-3.234
			C52.012,54.618,54.57,55.449,57,56z"/>
		<path style="fill:#828282;" d="M13,17c-0.594,0.745,0.846,1.439,1,2c0.395,1.474,0.555,3.451,0.877,4.963
			c0.581,1.386,0.38,1.825-0.916,1c-5.08,1.057-4.88-3.871-10.159-6.593C7.021,16.061,10.08,17.249,13,17z"/>
		<path style="fill:#525252;" d="M55,9c2.312-0.778,3.078,0.859,1,2.136c0.996,2.524-0.151,2.868-2,0.864l-4,3.144
			c1.396,1.572,0.734,2.155-1,0.856c0.223,1.483-0.444,1.483-2,0c-0.265,0.893-0.598,0.919-1,0.079
			c-2.801,0.808-4.091-2.721-3-5.079C46.775,10.84,51.006,9.428,55,9z"/>
		<path style="fill:#5C5C5C;" d="M22,28c-0.5,0.247-1.02,1.233-1.811,1.031C18.232,28.328,17.557,26.763,17,25
			c-1.141-3.486,6.845-3.839,8.288-3.744c0.973,0.064,2.212,2.518,1.374,3.279C25.019,26.027,22.492,25.915,22,28z"/>
		<path style="fill:#5F5F5F;" d="M38,14c3.405,2.315,5.072,4.982,5,8c-1.734,0.235-3.332-0.939-5-1c-1.3,3.166-5.255,1.175-4-2
			c-0.561-0.699-1.114-1.518-0.999-2.803C34.303,14.724,35.662,13.831,37,13C37.28,13.364,37.761,13.605,38,14z"/>
		<path style="fill:#5C5C5C;" d="M109.113,23.903c1.205,1.102,2.074,2.644,3.963,2.78c-0.498,1.621,0.016,3.78-3.076,4.318
			c-1.336,0.232-2.312,1.39-3.896,2.032l-0.178-9.269C107.051,23.351,108.116,23.812,109.113,23.903z"/>
		<path style="fill:#D0D0D0;" d="M113,44c0.039,1.64-0.704,3.229-1.142,4.769c-0.851,0.623-1.47,1.367-1.858,2.231
			c-2.308,0.345-3.991,2.163-6,3c-2.768,0.634-3.46-0.288-2-2.738l1.651-1.638c1.016,0.712,2.09,0.213,3.223-1.498
			c1.015-0.146,2.256-0.414,2.726-1.058c1.623-2.22-1.643-5.556-0.215-8.193c1.139,1.827,1.639,3.589,1.752,6.151
			C112.025,44.726,112.376,44.12,113,44z"/>
		<path style="fill:#808080;" d="M58.903,66.097c0.961,0.791,1.474,2.104,2.294,3.018c-0.155,0.996-0.827,1.869-1.582,1.954
			c-2.197,0.248-6.205-4.981-7.628-7.18C55.901,61.362,58.207,62.098,58.903,66.097z"/>
		<path style="fill:#C3C3C3;" d="M37,38c0.873,0.284,0.86,0.618,0,1c-1.387,1.566-3.12,2.611-5.197,3.136
			c-0.362,1.005-1.265,0.943-2.709-0.186c-1.421-1.333-3.48-1.964-4.245-5.116C29.492,37.215,33.279,37.133,37,38z"/>
		<path style="fill:#535353;" d="M43,11c1.635,1.221,2.091,3.323,3,5.079c0.424,2.384-0.385,2.581-2.039,0.882
			C43.146,20.184,41.492,19.198,39,14c-0.01-0.96-0.384-1.791-1.039-2.786L43,11z"/>
		<path style="fill:#6F6F6F;" d="M116,6c-1.588-1.285-3.655-0.722-6.218-1.105C108.333,4.678,109.117,1.971,109,1l6.876,0.135
			C116.124,2.966,116.11,4.533,116,6z"/>
		<path style="fill:#3C3C3C;" d="M34,12c0.164-0.167,0.481-0.079,1.068,0.491c-1.724,1.105-2.777,3.758-5.131,4.46
			c-1.715,0.511-2.09-2.257-2.736-2.956c-0.86-0.3-0.871-0.632-0.034-0.995C29.021,11.762,31.856,11.812,34,12z"/>
		<path style="fill:#424242;" d="M102,51.262c0.712,0.879,1.417,1.766,2,2.738c-1.87,0.779-4.048,1.41-6,2c-4.2,0.58-4.031-2.07-1-4
			c-0.464-2.01,0.132-2.088,2-1.808c0.284-0.873,0.618-0.86,1,0C101.762,48.38,102.109,48.799,102,51.262z"/>
		<path style="fill:#B3B3B3;" d="M58.352,8.223C60.769,15.884,57.72,14.263,64,17v1c-1.429,1.822-4.316,1.278-6,0
			c-1.431-1.153-1.992-3.125-1.682-5.919c1.313,0.238,1.207-0.077-0.318-0.945C55.991,10.307,55.628,9.54,55,9
			C56.031,8.889,56.924,7.496,58.352,8.223z"/>
		<path style="fill:#3D3D3D;" d="M70.089,8.832c0.15,1.358-0.543,2.145-1.102,3.223c-1.49-1.808-4.029-1.79-5.871-3.171
			c0.548-1.432,2.05-1.823,3.383-1.839C67.996,7.028,69.382,7.539,70.089,8.832z"/>
		<path style="fill:#4F4F4F;" d="M44,37c0.873,0.284,0.86,0.618,0,1c-0.235,2.753-6.758,6.311-7,3c-2.656-0.319-2.541-1.239,0-2v-1
			C38.924,36.309,41.612,37,44,37z"/>
		<path style="fill:#BFBFBF;" d="M97,52c0.012,0.605-1.225,1.451-0.75,2.314C96.639,55.02,97.365,55.52,98,56
			c-2.241,0.677-4.849,0.868-7,2.118c-2.359,1.776-4.04-1.09-2.087-3.189c0.034-0.302-0.075-0.627-0.013-0.924l0.907-1.036
			c1.57,0.638,3.301,0.314,5.193-0.97C95.452,50.091,95.966,50.477,97,52z"/>
		<path style="fill:#545454;" d="M48.163,37c-0.139,1.222-0.174,2.74-0.82,3.88c-0.462,0.815-2.306,1.763-3.288,1.139
			C41.346,41.434,42.331,39.446,44,38v-1H48.163z"/>
		<path style="fill:#A7A7A7;" d="M47.853,58.27l0.73,0.864c-0.26,0.258-0.541,0.962-0.998,1.278
			c-2.023-0.675-3.362-2.463-3.516-4.401c-0.175-0.758-0.216-1.902,0.464-1.987c1.033-0.128,2.448-0.363,2.471,0.862
			C47.033,56.499,47.209,57.508,47.853,58.27z"/>
		<path style="fill:#747474;" d="M79.811,62.997c-2.277,0.983-3.707-0.221-5.714-1.207c-0.26-2.237,1.483-1.952,3.242-1.512
			C78.637,60.603,79.875,61.379,79.811,62.997z"/>
		<path style="fill:#434343;" d="M91,58.118c-1.8,1.046-4.09,3.866-5.982,1.591c1.401-1.556,1.861-3.971,3.895-4.78L91,58.118z"/>
		<path style="fill:#707070;" d="M48,35c-1.936,2.157-5.348,0.558-8,1c-0.565-1.877,1.673-5.136,2.721-2.512L46,32.992
			c0.379,0.057,1.281,0.149,1.836,0.405C48.308,33.615,48.254,34.294,48,35z"/>
		<path style="fill:#DCDCDC;" d="M43.961,16.961C46.259,17.6,46.564,21.402,45,23l-2-1c-1.246-2.906-3.366-5.304-5-8
			c0.308,0.064,0.71-0.108,1,0c1.558,0.579,2.04,2.188,3.231,4.022C42.885,17.696,43.523,17.311,43.961,16.961z"/>
		<path style="fill:#6C6C6C;" d="M39.193,46.022c1.537,1.624-0.051,3.326-1.125,4.829c-1.377-0.335-1.722-1.98-2.706-2.711
			c-1.351-1.125-1.177-1.495,0.551-1.029C35.741,44.658,37.27,44.891,39.193,46.022z"/>
		<path style="fill:#3E3E3E;" d="M27.168,13c-0.035,0.325,0.105,0.676,0.034,0.995c-0.151,0.682,0.012,1.431-0.529,3.045
			C24.444,16.426,22.917,14.893,21,14C22.236,11.707,25.633,14.026,27.168,13z"/>
		<path style="fill:#C1C1C1;" d="M46,32.992c-1.473,1.999-5.385-0.043-6,3.008c-0.324,0.054-0.671,0.01-1,0
			c0.632-2.434,1.438-4.99,3-7C43.554,29.844,44.887,31.175,46,32.992z"/>
		<path style="fill:#757575;" d="M40.966,52.294c-0.647-0.113-1.269-0.328-1.861-0.612c1.037-1.215,2.654-4.179,4.036-3.054
			c0.124,0.96,1.554,2.638,1.258,3.616C43.533,55.097,41.283,50.366,40.966,52.294z"/>
		<path style="fill:#D5D5D5;" d="M37,44c2.637-0.725,3.403-0.734,2.193,2.022c-1.16,0.105-2.306,0.45-3.28,1.089l-4.045-2.176
			c-0.066-0.241-0.027-0.536-0.034-0.787c-1.242-0.74-1.603-1.779-0.031-2.011C33.649,40.417,36.08,41.999,37,44z"/>
		<path style="fill:#6F6F6F;" d="M35.913,47.11l-0.551,1.029c-1.278-0.95-3.012-1.447-3.493-3.205l2.636,0.008
			C35.645,44.945,36.317,45.725,35.913,47.11z"/>
		<path style="fill:#7E7E7E;" d="M31.803,42.136c-0.026,0.669,0.012,1.342,0.031,2.011c-1.604,0.264-1.907-1.415-2.74-2.197
			C29.546,41.513,31.308,41.656,31.803,42.136z"/>
		<path style="fill:#A3A3A3;" d="M13.961,24.963c0.076-0.419,0.673-0.676,0.916-1c0.16,0.75,1.629,1.65,0.915,2.704
			c-0.357,0.527-0.977,1.168-1.309,1.285c-0.52,0.183-1.404-1.07-1.449-1.669C12.997,25.795,13.817,25.837,13.961,24.963z"/>
		<path style="fill:#616161;" d="M69,67c-0.873-0.284-0.86-0.618,0-1c1.132-0.383,2.168-1.025,2.877-2H73
			c-0.4,0.806-0.229,1.966-0.983,2.547C71.179,67.193,69.732,66.738,69,67z"/>
		<path style="fill:#656565;" d="M111.858,48.769c-0.17,0.597,0.317,1.583-0.46,2.056c-0.405,0.246-0.99,0.114-1.398,0.175
			c-1.002,0.177-1.371-1.056-0.976-1.525C109.85,48.495,111.066,48.739,111.858,48.769z"/>
		<path style="fill:#777777;" d="M12.977,15.594c-1.807,0.666-3.661,0.717-6.06,0.001C8.36,14.571,10.028,14.662,12.977,15.594z"/>
		<path style="fill:#5D5D5D;" d="M84,59.656c-0.077,1.361-1.005,1.967-1.982,2.388c-1.002,0.066-1.646-0.417-1.163-1.409
			c0.29-0.594,0.79-1.251,1.495-1.426C82.827,59.092,83.448,59.283,84,59.656z"/>
		<path style="fill:#B8B8B8;" d="M69,66v1c-0.867,1.6-1.882,1.228-3.071,1.089C66.176,66.63,67.641,66.055,69,66z"/>
		<path style="fill:#585858;" d="M20,14c-0.863,1.639-4.137,1.639-5,0H20z"/>
		<path style="fill:#A7A7A7;" d="M21.096,32.943c-1.103,2.244-1.931,0.762-2.949-0.48c-0.347-0.424,1.411-0.757,1.781-0.095
			C20.087,32.652,20.193,33.122,21.096,32.943z"/>
		<path style="fill:#4F4F4F;" d="M70,31c1.564,0.829,4.589,1.951,4.871,4.008C75.199,37.401,72.895,39.015,73,41
			c-1.516,4.394-2.632,5.496-3.348,3.305c-2.53-0.346-4.433-1.114-5.707-2.305c0.11-3.766-0.612-7.35,0.203-12.064
			C66.071,30.417,68.471,30.19,70,31z"/>
		<path style="fill:#505050;" d="M75.829,23.034C77.958,24.997,76.507,27.599,74,28c0.055,0.84,0.194,2.478-0.658,2.809
			C72.616,31.091,70.631,31.442,70,31c-1.507-1.054-4.356-1.472-6.027-2.886C63.637,24.585,65.792,22.416,67,20
			c2.732-0.827,5.539-1.506,8.766-0.721C76.162,20.723,75.91,21.917,75.829,23.034z"/>
		<path style="fill:#717171;" d="M81.189,57.325c-0.15,0.796-0.459,1.843-1.086,2.155c-0.961,0.478-2.196,0.31-3.189-0.269
			l-5.145-2.999c-0.303,2.003-2.28,0.499-1.003-0.927C70.963,54.933,70.742,54.305,71,54c0.531-2.656,0.6-5.372,0.207-8.149
			c0.155-0.454,0.551-0.732,0.975-0.672c0.311,0.044,5.641,1.66,5.881,1.861C78.498,47.403,81.029,55.984,81.189,57.325z"/>
		<path style="fill:#363636;" d="M46,16.079C46.332,16.085,46.669,16,47,16c1.693,0.837,3.026,2.171,4,4
			c2.513-1.631,3.616-0.477,2,2c1.488-0.981,1.847-0.315,1.077,2c-0.453,0.855,0.187,3.098-0.371,3.953
			c-0.502,0.769-2.712,1.913-3.388,1.139L45,23c-1.233-1.413-1.73-4.636-1.039-6.039C44.566,16.476,45.174,16.062,46,16.079z"/>
		<path style="fill:#313131;" d="M64,18c0.61,0.007,1.613,0.106,1.908,0.62c0.064,0.112-2.034,8.665-10.357,8.876
			c-0.545-1.14-0.511-2.607-1.474-3.496c-0.237-1.275,0.404-2.609,1.923-4c-2.162-1.886-0.41-3.443,2-2
			C59.8,16.707,62.207,16.688,64,18z"/>
		<path style="fill:#C5C5C5;" d="M80,46c1.664,2.79,2.927,5.953,3.79,9.486l-1.732,1.758l-0.869,0.081
			c-2.006-2.753-2.213-6.316-3.954-9.615c-0.546-1.035-4.308-1.242-4.9-0.316C71.491,49.4,72.441,52.296,71,54h-1l-1.64-1.81
			c2.068-5.146,0.259-8.157-4.36-4.19c-0.425-0.053-0.901,0.141-1.321,0.063c-0.412-2.075,1.21-4.16,1.266-6.063
			c2.017,0.063,3.861,1.489,6.204,1.858L73,41c1.17,0.37,1.719,1.283,1.646,2.737C76.895,43.998,78.679,44.752,80,46z"/>
		<path style="fill:#545454;" d="M70,54c-1.438,0-2.735-0.43-4-1c-0.03-1.859-1.087-3.434-2-5c0.047-1.169-0.19-2.284,0.174-4.042
			c1.8,0.215,5.095-0.052,6.312,1.624C72.227,47.982,70.406,51.528,70,54z"/>
		<path style="fill:#555555;" d="M68,18c1.215-2.431,1.789-5.281,4-7c1.866,1.139,3.691,2.865,5.28,5.076
			C74.44,19.173,71.039,17.718,68,18z"/>
		<path style="fill:#464646;" d="M46,32.992c-1.105-0.165-3.269,0.594-3.891-0.569C41.55,31.377,42.179,29.935,42,29
			c0.686-0.883,1.239-1.767,1-3c0.636-0.697,1.292-1.376,2-2c0.704,2.358,3.081,4.309,4.19,7.059
			C48.591,32.12,46.594,32.186,46,32.992z"/>
		<path style="fill:#C3C3C3;" d="M65,60v1c-1.853,0.499-3.83-1.179-6.239-0.792c-1.967,0.316-0.33,4.735,1.223,5.205
			c-0.509,0.716-0.846,0.822-1.081,0.684c-1.019-0.839-1.71-1.928-2.797-3.194c-1.642,0.71-2.827,1.421-4.119,0.986
			c1.016-1.847,3.488-1.388,4.202-2.446C57.405,59.643,57.074,57.554,57,56l1.388,0.315c1.171,0.348,1.645,0.72,1.423,1.118
			C65.039,57.997,66.769,58.853,65,60z"/>
		<path style="fill:#777777;" d="M65,60c3.832,0.242-5.607-1.068-6.097-2.056c-0.223-0.451-0.24-0.937-0.515-1.629
			c3.51,0.796,7.747-0.331,11.173,2.449C68.35,60.68,66.317,60.083,65,60z"/>
		<path style="fill:#B3B3B3;" d="M62.679,48.063c0.055,0.275-0.135,0.581-0.12,0.864c0.95,1.708,0.097,2.219-1.633,1.228
			l-3.953,0.026c-0.746-0.744-1.692-1.211-2.84-1.402l-0.73-0.108C52.071,48.218,51.745,46.953,53,46
			c0.291,0.173,0.829,0.052,1.079,0.273c0.802-0.857,2.706-1.422,3.837-0.898C59.403,46.513,60.823,47.718,62.679,48.063z"/>
		<path style="fill:#535353;" d="M44.055,42.02c-0.085,1.151-0.16,2.709-1.182,3.438c-1.039,0.741-2.507,0.458-3.68,0.564
			C38.51,45.3,37.723,44.681,37,44c-0.298-1.332,0.529-1.988,2.481-1.967C42.604,39.404,44.129,39.4,44.055,42.02z"/>
		<path style="fill:#535353;" d="M48.106,47.067c-0.684,0.92-3.667,3.167-4.208,0.736c-0.46-2.068,2.926-4.611,4.664-4.821
			C49.124,44.794,47.93,45.834,48.106,47.067z"/>
		<path style="fill:#666666;" d="M58.945,30.688c1.729-0.892,2.683-0.746,3.101,0.766c0.216,0.781-0.371,1.79-1.352,2.506
			c-0.552,0.403-1.873-0.008-2.573-1.105C57.702,32.198,57.052,31.665,58.945,30.688z"/>
		<path style="fill:#757575;" d="M50.588,52.332c-0.469,1.518-5.622,1.022-5.573-1.545C45.262,49.01,50.27,50.448,50.588,52.332z"/>
		<path style="fill:#4C4C4C;" d="M53,46c0.503,0.835,1.239,1.806,0.404,2.672c-0.321,0.417-0.924,0.803-1.244,0.495l-1.265-1.219
			c-1.42,0.469-1.801-0.318-0.819-1.541c-0.297-1.266-0.063-2.68,1.174-3.31L53,46z"/>
		<path style="fill:#818181;" d="M57.879,39.165c0.235,0.972,0.135,1.76-0.555,1.857c-1.468,0.207-3.428,0.213-2.935-1.442
			c0.17-0.569,1.085-0.975,1.608-1.408C57.444,36.728,58.254,37.155,57.879,39.165z"/>
		<path style="fill:#5F5F5F;" d="M70.766,55.286c-0.49,0.809,0.62,0.704,1.003,0.927C72.114,57.452,74.083,59.569,72,60
			c-0.906-1.863-2.641-2.951-4.089-4.661C69.223,54.678,70.019,55.315,70.766,55.286z"/>
		<path style="fill:#595959;" d="M60.878,41.173c-0.932-1.777-1.836-4.376,0.648-6.243C62.427,36.666,62.32,39.096,60.878,41.173z"
			/>
		<path style="fill:#6D6D6D;" d="M55.764,52.935c-0.776,0.57-0.939,1.018-1.448,1.073c-0.952,0.101-2.975,0.185-2.346-1.483
			c0.194-0.515,0.385-1.478,1.498-1.509C54.158,50.997,54.806,52.022,55.764,52.935z"/>
		<path style="fill:#5C5C5C;" d="M50.147,31.632c0.337-1.155,1.698-0.569,2.326-0.614c0.854-0.061,0.55,1.699,0.234,2.371
			c-0.172,0.366-0.346,0.587-0.963,0.621C51.007,34.051,49.658,33.309,50.147,31.632z"/>
		<path style="fill:#737373;" d="M50.895,47.948c-0.272,0.31-0.414,1.102-0.901,1.42c-0.532,0.347-1.263-0.074-1.41-0.57
			c-0.155-0.524-0.39-1.119-0.478-1.731c0.714,0.11,1.444-0.348,1.97-0.66C50.347,46.836,51.506,47.485,50.895,47.948z"/>
		<path style="fill:#585858;" d="M56.974,50.181c-1.136,0.008-2.254-0.38-2.84-1.402c1.73-0.077,2.528-2.026,4.945-1.748
			C58.425,48.477,57.292,49.027,56.974,50.181z"/>
		<path style="fill:#8A8A8A;" d="M57.879,39.165c-0.609-0.365-1.237-0.696-1.882-0.992l2.663-3.274
			C59.622,36.956,58.82,38.192,57.879,39.165z"/>
		<path style="fill:#868686;" d="M60.878,41.173c0.583,1.112,1.664,2.001,0.703,2.77c-0.376,0.301-0.675,1.277-1.559,0.655
			c-0.806-0.567-1.274-1.439-0.36-2.395C60.004,41.845,60.181,41.723,60.878,41.173z"/>
		<path style="fill:#737373;" d="M54.256,31.609c0.743-1.581,1.894-0.292,1.868,0.869c-0.014,0.614,1.606,1.219,0.301,1.521
			C54.676,34.403,53.207,33.84,54.256,31.609z"/>
		<path style="fill:#6D6D6D;" d="M51.25,43.096c-0.296-0.31-0.491-0.797-0.848-1.081c-0.685-0.545-0.165-1.021,0.179-1.007
			c0.712,0.028,1.647-0.257,2.131,0.199c0.702,0.661,1.41,1.011,1.33,2.213C53.956,44.721,52.715,43.234,51.25,43.096z"/>
		<path style="fill:#565656;" d="M57.916,45.375c-1.031,1.132-2.531,2.051-3.837,0.898c-0.001-1.012,0.651-1.652,1.56-1.988
			C56.776,43.865,57.177,44.81,57.916,45.375z"/>
		<path style="fill:#6C6C6C;" d="M66,53c0.016,0.966,0.423,1.741,1.05,2.922C64.88,56.335,64.045,54.915,63,54
			C63.862,53.908,65.046,52.742,66,53z"/>
		<path style="fill:#555555;" d="M60.927,50.155c0.486-0.483,1.025-0.909,1.633-1.228c0.49,0.706,0.926,1.216,1.166,1.698
			c0.524,1.055-0.199,1.483-1.239,1.476C61.259,52.093,61.068,51.288,60.927,50.155z"/>
		<path style="fill:#575757;" d="M52.418,35.205c0.421-0.241,0.861,0.615,1.147,0.844c0.841,0.674,0.214,1.504-0.27,1.828
			c-0.636,0.425-2.053,0.398-2.234-0.394C50.927,36.894,51.468,35.748,52.418,35.205z"/>
		<path style="fill:#737373;" d="M55.764,52.935c0.069-0.23,0.371-2.123,0.734-1.791c0.639,0.583,1.573,0.877,2.079,0.964
			c0.658,0.113,0.825,2.059-0.541,1.94C56.978,53.955,56.441,52.928,55.764,52.935z"/>
		<path style="fill:#676767;" d="M63,54c-0.617,0.409-0.824,0.533-1.095,0.737c-0.598,0.45-1.717,0.38-1.949-0.267
			c-0.443-1.238,0.8-1.581,1.457-1.547C61.935,52.951,62.272,53.711,63,54z"/>
		<path style="fill:#505050;" d="M90.99,7.916L99,12c1.893,1.979,2.3,4.644,2.218,7.312C103.121,22.449,99.773,25.364,97,23
			c-0.485,2.384-1.49,3.004-3.016,1.857c-3.572,2.22-5.574,2.374-6.007,0.463c-0.258-0.234-1.55-0.653-1.436-1.373l2.101-13.26
			C88.913,8.976,90.001,8.256,90.99,7.916z"/>
		<path style="fill:#575757;" d="M82.058,57.244C81.884,53.828,77.709,47.997,80,46c-1.112-2.581,0.184-3.038,2-1
			c2.567-1.283,6.229-0.406,8.888,1.428C87.999,50.79,86.941,56.787,82.058,57.244z"/>
		<path style="fill:#707070;" d="M83,42V32c-0.742-3.003,0.249-3.726,2.887-2.113c3.375,3.716,1.07,7.321,3.326,14.014
			C86.308,44.608,84.91,42.63,83,42z"/>
		<path style="fill:#4F4F4F;" d="M81,13c0.202-0.658,1.08-1.18,1-2c1.203-0.283,3.062-0.694,4-1.549
			c4.647-2.997-0.768,8.319-0.401,12.962C81.557,20.676,79.741,17.1,81,13z"/>
		<path style="fill:#555555;" d="M80,40c0.99,0.787,1.742,1.585,3,2c-0.134,1.058-0.447,2.085-1,3l-2,1
			c-2.102,1.051-5.189,0.208-7.929-1.278C71.911,43.264,73.062,42.167,73,41c0.881-0.883,2.212-1.938,3-3
			C77.915,36.363,80.243,37.224,80,40z"/>
		<path style="fill:#6E6E6E;" d="M85.887,29.887C84.766,30.349,83.761,31.052,83,32c-2.835-0.582-5.175,2.149-8.555,0.295
			c2.991-3.054,5.095-6.194,8.099-7.666c1.183-0.048,3.135,1.887,3.896,2.452C87.282,27.706,86.545,29.109,85.887,29.887z"/>
		<path style="fill:#686868;" d="M102.882,19.226c0.863,1.318,0.67,3.293,0.953,4.627c0.826,4.224,0.214,5.939-1.835,5.147
			c-0.913,0.531-1.525,1.031-2,2l-1.049,0.859c-0.741-2.74-2.177-5.135-4.308-7.186L97,23c1.847-0.528,3.332-2.063,4.218-3.688
			C101.77,19.457,102.348,19.427,102.882,19.226z"/>
		<path style="fill:#4F4F4F;" d="M94.992,35.896c-0.699,3.779-1.646,6.525-4.512,9.841c-0.467-6.075-3.176-11.662-1.396-16.691
			l1.393-0.027C91.286,31.569,92.791,33.862,94.992,35.896z"/>
		<path style="fill:#5E5E5E;" d="M107,37c-0.834,0.523-0.77,2.155-1,3l-2,5c-0.485,0.315-0.83,0.858-2.052,0.783
			c0.47-3.124-0.704-6.4,0.448-9.494c0.688-1.849,3.664-2.401,5.562-2.215C107.482,35.284,107.006,36.038,107,37z"/>
		<path style="fill:#515151;" d="M80,40c-1.157-0.919-3.253-0.483-4-2c0.547-0.737-0.643-2.453,0.124-3.349
			c0.205-0.239,5.653-2.329,5.864-1.11c0.103,0.597,0.097,4.822-0.094,5.805C81.777,39.951,80.939,40.249,80,40z"/>
		<path style="fill:#626262;" d="M93,48c1.69-0.79,3.013,2.697,2,4c-0.18,1.404-0.951,3.338-2.637,3.866
			c-1.175,0.368-2.339-1.428-3.462-1.861C89.423,51.485,90.139,48.373,93,48z"/>
		<path style="fill:#BEBEBE;" d="M97,23c-2.034,0.929,2.199,7.579,3,8c2.416,1.986,0.998,3.433-1.782,3.126
			C97.873,33.695,97.407,33.366,97,33c-0.907-0.195-0.874-0.534,0-1l-1.221-1.243c-0.673-2.475-2.294-3.789-4.865-3.941
			c0.382,2.237,0.567,3.36-1.829,2.229c-0.495-1.207-1.161-2.373-1.108-3.725C91.234,26.507,93.865,23.896,97,23z"/>
		<path style="fill:#737373;" d="M74,28c0.937-1.532,0.618-3.568,1.829-4.966c0.74-0.853,1.927-1.603,2.247-2.774l2.369,2.784
			C81.28,24.023,75.665,30.234,74,28z"/>
		<path style="fill:#636363;" d="M105,47c0.468,0.533,1.315,0.715,1.874,1.126c1.077,1.199,0.268,2.358-0.377,3.163
			c-1.331,1.66-2.951,0.145-4.497-0.026c-0.753-0.169-1.459-0.514-2-1.071c-1.723-0.186-1.771-0.795,0-1.192
			C101.004,47.192,103.037,46.63,105,47z"/>
		<path style="fill:#5F5F5F;" d="M100,46v3v1.192h-1c-1.11,1.162-2.11,0.765-3-1.192c-1.793,0.566-2.403-1.887-1.866-3.583
			C93.976,44.998,94.072,44.444,94,44C95.71,40.843,97.71,41.509,100,46z"/>
		<path style="fill:#585858;" d="M100,46c-0.94-1.788-2.214-3.031-3.824-3.73L98,40c-0.22-1.788,1.247-3.734,2.968-3.679
			C100.721,40.453,101.96,43.638,100,46z"/>
		<path style="fill:#595959;" d="M98.218,34.126c1.074-0.51,1.268-2.077,1.782-3.126c1.264,0.664,3.033,0.19,4.508,2.238
			c-2.089,1.301-3.977,1.491-5.815,2.133C98.396,34.756,98.394,34.346,98.218,34.126z"/>
		<path style="fill:#575757;" d="M93.068,30.029c1.94-1.34,3.407-0.06,3.932,1.971c-0.022,0.536-0.014,0.874,0,1
			c0.174,1.523-0.028,2.262-0.69,2.565c-0.409,0.187-0.868,0.265-1.318,0.331C92.931,33.75,87.824,28.117,93.068,30.029z"/>
		<path style="fill:#515151;" d="M102,29c1.948-1.133,0.251-3.822,1.835-5.147c1.47,1.569,1.442,3.484,1.17,6.334
			c-0.112,1.174-1.476,0.872-2.232,0.512C102.251,30.451,102.208,29.733,102,29z"/>
		<path style="fill:#545454;" d="M96,49c1.792,1.19,2.125,2.19,1,3c-0.617,0.181-1.368-0.129-2,0l-2-4
			c0.176-0.938,0.514-1.848,1.134-2.583C94.604,46.666,95.616,47.719,96,49z"/>
		<path style="fill:#BBBBBB;" d="M100,46c-1.597-0.421-2.043-2.036-3.052-2.577C95.849,42.834,94.842,43.338,94,44
			c-0.133-0.817,0.231-1.653,1-2c0.472-1.116,1.139-1.783,2-2h1C97.342,42.494,100.204,43.657,100,46z"/>
		<path style="fill:#959595;" d="M78.077,20.26c0.206-0.752-0.648-1.936-0.343-2.481c0.672-1.203,1.042-0.526,1.369-0.21
			c0.687,0.665,1.403,1.376,0.88,1.909C79.55,19.918,78.704,19.944,78.077,20.26z"/>
		<path style="fill:#545454;" d="M97,40c-0.35,0.931-1.105,1.597-2,2c0.025-0.667,0.237-1.397,0.894-2.561
			C96.003,37.359,97.617,38.167,97,40z"/>
		<path style="fill:#595959;" d="M34,19c1.003,0.955,2.397,1.941,4,2c-0.061,0.868-0.295,1.909-1.173,2.76l-6.394,6.195
			c-1.814-3.743-4.51-7.88-1.769-11.336C29.598,17.44,33.034,18.081,34,19z"/>
		<path style="fill:#505050;" d="M17,19c-1.191,0.591-1.601-0.884-1-2c3.07-2.129,7.546-1.518,11.396,1.811
			C24.018,20.78,19.598,21.912,17,19z"/>
		<path style="fill:#646464;" d="M17,19c0.183,1.072,0.207,2.717-1.055,3.029C16.13,20.722,14.975,19.318,15,18
			c0.339-0.317,0.615-0.733,1-1C16.216,17.69,16.877,18.283,17,19z"/>
		<path style="fill:#C4C4C4;" d="M104,45c-0.164-1.881,0.339-3.951,2-5C105.545,41.668,105.947,44.244,104,45z"/>
		<path style="fill:#373737;" d="M58,18l-2,2c-0.897,2.013-1.897,2.68-3,2c-0.475-0.667-1.307-1.563-2-2
			c-1.477-1.387-2.143-2.72-2-4c0.354,0,0.879-0.524,1-0.856L54,12c0.695-0.019,1.348-0.69,2-0.864
			c0.427-0.305,0.744-0.573,1.058-0.714C58.536,9.762,59.046,16.648,58,18z"/>
		<path style="fill:#B8B8B8;" d="M49,16c0.912,1.207,1.858,2.453,2,4c-1.626-1.025-3.165-2.207-4-4H49z"/>
		<path style="fill:#B0B0B0;" d="M54,12c-0.725,1.672-2.119,3.046-4,3.144C50.654,13.353,52.06,12.053,54,12z"/>
		<path style="fill:#5E5E5E;" d="M37,39v2c2.197,1.138,2.207,1.555,0,3c-2.048,0.407-3.774-0.486-5.197-1.864
			c0.054-1.394,0.588-2.761,1.886-3.012C34.898,38.89,35.956,38.902,37,39z"/>
		<path style="fill:#CDCDCD;" d="M99,50.192c-0.401,0.799-1.109,1.547-2,1.808c-0.474-0.908-0.704-2.012-1-3
			C96.953,49.508,97.966,49.885,99,50.192z"/>
		<path style="fill:#B9B9B9;" d="M44,38c0,1.336,0.154,2.683,0.055,4.02C41.583,40.448,39.548,43.108,37,44
			c0.076-1.138-1.001-2.298,0-3C40.476,43.546,41.558,37.632,44,38z"/>
		<path style="fill:#B8B8B8;" d="M54.077,24c-0.62-0.572-0.639-1.385-1.077-2l3-2C56.083,21.634,54.766,22.7,54.077,24z"/>
		<path style="fill:#6F6F6F;" d="M81,13c-1.018-0.737-1.599,1.982-2.317,1.947c-1.94-0.095-0.861-2.842-1.03-2.18
			c-0.199,0.778,0.586,0.097,1.843-0.768C79.929,11.701,80.654,13.299,81,13z"/>
		<path style="fill:#E0E0E0;" d="M93.068,30.029c-0.41,0.182-1.071,0.142-1.45,0.546c0.924,2.238,3.242,3.172,3.374,5.32
			c-2.704-1.312-4.755-4.038-5.907-6.85c1.066-0.816,1.245-1.789,1.829-2.229C93.541,26.79,94.102,27.596,93.068,30.029z"/>
		<path style="fill:#646464;" d="M97,32c-1.639,0.289-3.104-0.566-3.932-1.971c-1.027-0.838-1.849-1.908-2.155-3.213
			c1.211-0.912,2.538-1.622,3.558-1.477C95.456,25.479,99.224,31.436,97,32z"/>
	</g>
</g>
</svg>
