<?xml version="1.0" encoding="iso-8859-1"?>
<!-- Generator: Adobe Illustrator 30.1.0, SVG Export Plug-In . SVG Version: 9.03 Build 0)  -->
<svg version="1.1" id="Layer_1" xmlns="http://www.w3.org/2000/svg" xmlns:xlink="http://www.w3.org/1999/xlink" x="0px" y="0px"
	 viewBox="0 0 174 193" style="enable-background:new 0 0 174 193;" xml:space="preserve">
<g>
	<g>
		<path style="fill:#FDFDFD;" d="M138.269,190.615c-4.023,1.101-6.83,0.135-10.493-0.439L24.147,173.923
			c-9.247-1.45,1.627-5.59-5.96-19.006c-3.266-5.776-3.977-11.233-4.621-17.763L1.831,18.112C1.124,12.238,0.276,7.183,1.495,1.066
			l104.693-0.099l61.002,69.703c2.758,3.151,5.077,5.631,3.48,10.478c1.572,4.909,3.406,22.073,1.665,26.324L138.269,190.615z"/>
		<path style="fill:#444444;" d="M39.832,75.168c3.391-0.638,5.442,6.774,2.068,7.832c0.902,3.576,2.016,7.03,3.342,10.362L43,101
			c2.736,1.162,1.995,4.339-1,4c-0.433,2.015-1.1,3.682-2,5c-2.061,0-4.376,0.515-6-1c-0.93-0.374-1.837-0.783-2.667-1.312
			c-0.796-0.508-1.548-1.045-2.109-1.735C23.93,99.451,17.754,90.949,16,83l-2.062-3.323L19,78l5-1.882
			c-0.305-2.583,0.136-2.765,2-0.919c4.205-1.501,8.521-2.743,12.949-3.726L39.832,75.168z"/>
		<path style="fill:#595959;" d="M71,90c1.486,0.185,2.877,0.522,4.173,1.011L78,107c2.97-0.534,3.624,0.887,1.231,2.769L41,110
			c-0.244-1.45,0.23-3.509,1-5c0.541-1.316,0.684-2.646,1-4l2.004-7.94L47,93c-1.07-2.781,3.479-4.416,5-2
			c2.63-1.883,5.611-2.432,8.944-1.648c2.308-0.681,3.866-0.671,4.674,0.029L71,90z"/>
		<path style="fill:#E8E8E8;" d="M148,96c0.873,0.284,0.86,0.618,0,1c1.452,1.231,0.893,2.283-1,2l0.966,2.023
			c-3.303,4.237-4.667,8.573-4.93,13.804c1.865,1.919,3.77,5.63,3.902,8.134c-0.586,1.505-0.496,2.067,0.27,1.685l2.902,9.555
			c2.034-0.389,3.998-0.79,5.891-1.201c1.117,0.269,1.741,1.548,1.871,3.837l-1.089,1.302c-0.956,1.397-2.639,1.664-5.048,0.801
			c0.867,2.366,0.623,4.052-0.734,5.059c-0.361,0.266-0.675,0.589-0.927,0.961c-2.009,0.891-2.57-0.289-3.05-2.092
			c-2.804,0.622-4.544,0.018-5.22-1.811c-0.897-0.096-0.906-0.396-0.097-0.885c-0.025-1.817,1.278-2.528,3.911-2.134l-2.627-6.935
			l1.193-2.104c-3.355,0.209-3.407-5.854-2.658-8.336l-2.044-3.112c-0.296-2.678-1.123-3.862-2.48-3.552
			c-0.404,1.343-1.404,2.01-3,2c0.599,1.814-0.787,3.772-2,5c-0.284,0.873-0.618,0.86-1,0v-1c-1.447-1.004-1.651-1.812-0.868-3.211
			c-3.282,2.533-5.465,4.923-5.132,9.046c-1.917,2.95-6.428,0.829-7.084-2.189c-1.279-2.25-4.055-4.035-6.661-2.856
			c1.147,2.802-2.982,3.735-4.252,1.273c-0.566-1.565-0.9-1.253-1.003,0.937c2.17,2.866,4.503,5.532,7,8c2.656,1.396,1.955,3.13-1,3
			l-2.028,1.096c-2.586-3.102-5.397-5.428-8.435-6.979L101,125.965l-0.737-1.198c1.862-1.751,0.132-1.774-5.19-0.067
			c-1.62,0.563-3.618,2.807-2.047,4.425c2.463,1.535,1.664,3.377-0.963,3.742l-0.799,1.52c-0.031,3.224-0.786,6.429-2.263,9.613
			c2.64,0.972,2.704,1.171,0,2l-1.962,1.751L87,161c2.905,0.682,2.657,3.209,0,4c-2.486,0.853-3.404-0.639-3-3l-1.321-1.279
			c-3.193,0.878-5.086,0.305-5.679-1.721c-0.873-0.284-0.86-0.618,0-1c0.608-1.765,2.27-2.451,4.988-2.058
			c0.21-0.476,0.305-10.033-0.063-10.401c-0.327-0.327-8.63,1.923-8.923,2.305c0.382,3.754-0.619,5.139-3.004,4.153l-1.355-0.351
			c-0.199-3.058-1.868-3.821-5.008-2.288c0,0-1.545,2.88-4.635,8.639c-1.265,2.284-2.212,4.309-2,7
			c2.191,1.712,1.58,2.5-1.152,2.081L54,165l-1.084-2.795l4.011-13.689c-1.901-0.326-3.21-1.165-3.927-2.517l-9.667-5.955L42,137
			c-1.267,1.035-1.322,0.539-1-1l-2.781,0.585c-4.286-3.159-8.802-5.913-13.549-8.262l-1.069-2.551l-1.184,0.47
			c-1.545-1.851-3.066-2.529-4.564-2.037c-1.59,2.407-2.345,1.757-2.136-1.069c-0.197-1.345-0.468-2.758-0.814-4.238l0.898-0.171
			l1.72-1.444c1.891,0.784,3.83,1.356,5.818,1.717c1.601,1.459,3.154,2.792,4.661,4c0.284-0.873,0.618-0.86,1,0
			c1.833,2.231,4.001,4.026,6.506,5.383c1.41,0.092,2.575,0.631,3.494,1.617c2.346,2.118,4.88,4.001,7.602,5.648L47,138
			c1.657-0.099,2.324,0.235,2,1c3.08-1.111,7.363,2.419,9,5c3.753,0.964,7.753,0.297,12-2c1.462-0.997,3.471-1.178,6.029-0.545
			c2.375-1.101,4.379-1.314,6.013-0.639c4.078-2.292,4.957-7.338,5.184-11.725l1.858-1.233c1.627-4.95,1.627-4.95,0,0
			c-0.614,3.469-4.291,1.338-3.161-1.661c-0.447-3.17,0.245-5.236,2.076-6.197c0.311-0.416,0.645-0.403,1,0
			c-0.187-1.294-0.826-2.885-1.918-4.774L88,114h1c2.375-0.476,4.061,1.484,5.059,5.88l3.521-1.52
			c0.875-3.668,2.348-5.121,4.42-4.36c1.585,1.031,1.653,1.861,0.877,3.332l12.297-2.951L117,116
			c-0.24-2.407,1.906-0.828,3.195,0.264c0.922,0.783,1.004,1.956,0.249,3.521c0.161,1.76,5.311-3.569,2.352-2.829
			c-1.626,1.36-2.438,1.581-2.6-0.692c-1.73-0.493-1.918-0.627-0.195-1.264c-0.081-0.836,0.013-1.984,0.661-2.168
			c8.84-0.476,15.632-3.779,20.376-9.908l3.587-7.613L147,95C148.405,93.675,148.92,94.233,148,96z"/>
		<path style="fill:#555555;" d="M70,111c1.294,1.25,1.782,3.476,1.463,6.676c0.918,1.538,0.12,2.946-2.394,4.223L66,126l-3,4
			c-0.951,1.942-1.951,2.609-3,2c-2.545,2.111-10.803-3.841-10-7l-4-3c-3.94-0.672-4.306-5.535-3-9
			c-0.03-0.485,0.111-0.981,0.322-1.305c0.459-0.704,1.422-0.777,2.568-0.773L70,111z"/>
		<path style="fill:#5F5F5F;" d="M16,83c5.874,8.762,11.561,17.621,18,26c-1.97,1.684-16.32,1.014-20.593,0.815
			c-1.004-10.38-2.661-20.01-2.328-29.663C13.798,78.763,14.948,80.256,16,83z"/>
		<path style="fill:#EAEAEA;" d="M76.092,4.034C78.543,5.567,78.521,6.582,76,8c-0.398,2.475-0.731,4.809-1,7
			c0.997,0.865,1.688,2.034,2.076,3.506c-1.641,10.139,0.968,14.866,9.833,19.395l1.799-0.263c0,0,5.47,2.121,16.411,6.363
			l4.913,2.832c3.719,0.623,6.042,2.012,6.969,4.168l2.347-0.711c1.159,0.243,12.216,5.528,12.517,6.165
			c0.207,0.439,0.202,0.978,0.137,1.546c0.329-0.451,0.662-0.448,1,0c3.583,0.896,8.132,2.143,11.474,3.724
			c0.308,0.146,0.442,0.658,0.526,1.276c1.987-1.988,2.653-1.654,2,1c3.369-1.735,12.667,1.868,13.084,5.866
			c-0.591,0.356-0.934,1.164-1.486,1.575c-0.007,0.889-0.263,0.837-0.732-0.024c-7.499-2.339-14.924-5.017-22.276-8.034
			l-1.322-2.236c-0.769,2.843-1.971,2.311-3.268-0.021c-0.459,3.183-3.56,2.201-3-0.858c-1.185-1.179,0.416-1.114,0.507-0.84
			c0.488,1.461-27.381-10.472-28.27-11.826L99,48c-4.703-1.814-9.429-3.846-14.177-6.096l0.192,8.008
			c1.161,3.398,1.161,6.121-0.001,8.169C84.744,59.461,85.406,60.434,87,61c0.874,0.293,0.86,0.637,0,1.029
			c0.131,1.867-1.461,2.49-3,2.971c0.824,1.85,1.231,5.615-1,4c-1.73-0.636-1.824-1.45,0-2l-2.025-1.653
			c0.336-4.846,0.168-9.65-0.504-14.412L82,49c-2.735-1.105-3.069-2.105-1-3c-2.927-0.033-2.768-3.375,0.042-4.005
			C78.946,40.648,78.649,39.65,80.15,39c-2.267-1.148-4.51-2.779-6.731-4.894c-0.71,1.635-1.423,2.316-3.403,1.636
			c0.731,2.785-2.874,3.081-4.906,2.295c-0.096,1.086-0.279,1.403-1.226,0.811c-1.981,3.671-8.678,8.176-12.673,10.193
			c-2.732,1.38-1.875-0.635-1.922-0.489C49.141,49.018,49.061,49.506,49,50c0.874,0.318,0.86,0.688,0,1.108
			c-1.179,2.968-2.827,3.957-4.945,2.969c-0.702-1.083-2.56-0.124-5.572,2.876l-1.418,0.009C38.021,59.946,30.993,63.31,29,61
			c-0.605-0.297-0.591-0.632,0-1c-0.168-3.636,5.734-6.581,9.003-7.147C37.627,51.325,39.229,50.563,40,52
			c0.265-1.719,1.409-2.868,3.432-3.448l0.259-2.169c-1.559,0.173-2.338,0.259-2.338,0.259c-1.818-2.758-4.543-6.166-6.502-5.642
			c-1.156,1.379-2.386,1.006-3.69-1.121c-2.717-0.059-2.689-1.015-0.154-2.013c-1.206-0.879-0.917-1.381,0.865-1.507
			c-0.695-0.877-0.319-1.074,1.129-0.591c1.408-2.474,2.278-2.342,3.034,0.409C39.135,38.583,40.79,38.524,41,36
			c0.064-2.86,2.324-2.733,3,0c0.903,1.62,1.269,3.743,1.099,6.369c2.127,2.273,3.656,2.577,4.589,0.911L52,44
			c-0.941-1.36-0.274-1.694,2-1l0.287-2.599l8.48-5.308C61.147,35.249,60.393,34.772,60,33c-0.873-0.284-0.86-0.618,0-1
			c0.591-1.923,1.591-3.257,3-4l1.444-0.348c0.869,1.436,1.757,3.021,2.663,4.755c0.271-0.866,0.588-0.819,0.948,0.066
			c5.038-2.136,4.579-6.7,3.695-11.734L73,19c-0.883-0.224-0.855-0.56,0-1c-0.521-3.841-0.966-10.209-0.498-14.33
			c0.025-0.224,0.617-0.384,1.369-0.525C74.643,3.141,75.348,3.838,76.092,4.034z"/>
		<path style="fill:#676767;" d="M54,165c-0.629,1.633-0.228,3.588-1.607,5.158c-1.785-2.158-2.864-3.769-4.766-4.266
			c-0.91,0.184-1.121-0.112-0.627-0.892c-1.504-2.61-3.329-4.133-5.477-4.57c0,0,0.714-4.203,2.141-12.608L53,146
			c1.4-0.734,5.555,0.361,5.999,2.02C58,153.842,55.986,159.847,54,165z"/>
		<path style="fill:#717171;" d="M107,103l-3,7c1.743,2.206,0.845,4.103-2,4c-2.121,1.172-1.045,5.551-4.613,6.771
			c-1.297,0.443-4.009,2.045-5.002,0.011C91.246,118.45,90.416,115.533,89,114c-0.841-0.911-0.817-4.066,0.097-4.903
			C88.414,107.4,89.222,106.048,91,107c2.569-1.809,5.521-4.339,6.647-7.186c3.121,0.805,6.063,0.741,8.826-0.191
			C107.164,100.896,107.34,102.021,107,103z"/>
		<path style="fill:#3F3F3F;" d="M87,108c0.114,1.023-0.418,2.187-1.921,2.102l-5.848-0.333C79.113,108.724,78.479,107.89,78,107
			l-2.758-14.607c-1.651-1.605-1.305-2.711,1.037-3.317C74.554,86.725,75.372,85.74,78,87l3-4c-0.363-2.137,0.362-2.653,2.176-1.549
			c0.687-0.101,1.237-0.142,1.309,0.025c1.038,2.39,1.966,9.405,1.681,11.82C86.54,98.329,86.818,103.23,87,108z"/>
		<path style="fill:#8B8B8B;" d="M151.105,57.906c0.968,1.574,0.448,2.084-1.105,1.094c-2.018,2.427-3.582,2.824-4.693,1.192
			c-3.912-1.429-7.831-2.578-11.759-3.447C132.238,53.11,130.722,49.528,129,46c-1.97-1.846-1.665-2.461,1-2l8.06-0.958
			C142.964,47.357,149.373,51.614,151.105,57.906z"/>
		<path style="fill:#757575;" d="M42,113c0.719,2.903,0.976,5.698,0.77,8.384L42,124c0.021,2.851-0.417,4.129-1.314,3.834L39,130
			c-3.864,2.827-9.995-4.18-9.533-3.056c-0.401-0.978-1.044-3.043-0.467-3.944c0.456-3.823,1.456-7.49,3-11
			C32.016,110.731,43.31,109.724,42,113z"/>
		<path style="fill:#666666;" d="M41,145c2.419-0.626,2.703-0.295,2,2c0.952-0.026,1.905,0.516,1.633,1.143
			c-1.424,3.283-2.245,7.785-1.852,11.579c-0.237,0.83-1.498,1.289-3.781,1.378c-4.529-1.391-7.678-5.243-12-7.1
			c-1.161-2.189,1.118-3.967,3-5c-0.332-0.996,0.001-1.329,1-1l4-3c0.732-0.732,2.324-0.906,4.776-0.524
			C40.353,143.246,40.751,143.502,41,145z"/>
		<path style="fill:#7A7A7A;" d="M29.882,4.068C34.941,10.019,24.794,17.425,19,15l-4-3c-1.894,2.448-3.833,1.056-3.076-1.811
			C12.07,9.487,11.81,8.689,12,8c-1.411-1.544-0.88-2.154,1.071-1.299c1.147-0.569,1.824-2.628,3.431-2.934
			C21.105,2.889,25.881,2.468,29.882,4.068z"/>
		<path style="fill:#707070;" d="M68,177.118c-5.805,2.059-14.098-4.647-13.732-6.392c0.232-1.107,0.94-2.52,1.58-3.645
			c0.403-0.708,0.865-1.284,1.152-2.081c-0.437-1.14-0.293-2.201,1-2c1.284-3.986,3.745-4.466,7.614-3.322l2.624,15.43
			C69.193,176.302,69.113,176.972,68,177.118z"/>
		<path style="fill:#7C7C7C;" d="M87.446,4.142c0.761-0.481,0.951-0.255,0.612,0.625C91.613,6.7,90.873,11.581,90,15
			c-1.169,0.621-9.877,1.906-10.775,1.705C75.031,15.766,74.653,11.583,76,8c-0.006-1.322,0.012-2.646,0.092-3.966
			C79.469,1.952,83.835,2.871,87.446,4.142z"/>
		<path style="fill:#7C7C7C;" d="M80,112c2.96,2.08,5.626,4.746,8,8c-0.042,2.327,0.872,5.773-2.076,6.197
			c-1.742,2.879-4.895,1.018-3.924-2.197c-3.022-1.059-5.689-2.443-8-4.152c-0.858,0.32-2.513,0.674-2.663,0.251
			c-0.463-1.301-0.288-8.132,0.663-9.098C74.357,111.373,78.116,110.034,80,112z"/>
		<path style="fill:#DCDCDC;" d="M73,18c-0.136,0.268,0.085,0.706,0,1l-1.109,2.575c0.407,5.484-0.871,9.117-3.836,10.898
			l-0.948-0.066c-1.204-0.361-1.716-1.474-1.535-3.339c1.764-6.569,1.282-9.151-1.444-7.746C65.549,25.106,65.173,27.332,63,28
			l-2.476-0.864c-1.137-4.066-2.638-7.966-4.503-11.701c-7.836,5.305-7.382,14.473,3.325,14.105L60,32v1
			c-1.679,1.375-4.22,1.759-7.624,1.154L54,43c-0.638,0.45-1.312,0.684-2,1c-3.173,0.833-6.555-8.713-4.121-10.598
			c-1.095-1.266-1.082-1.998-0.275-3.162C45.908,28.45,45.373,26.704,46,25c0.042-2.54,0.376-4.873,1-7c0.995-2.92,6.944-10.4,10-8
			c0.651-0.535,1.337-0.686,2.065-0.348C60.395,13.433,62.373,16.216,65,18l1-1c1.382-1.387,2.073-2.081,2.073-2.081
			c-0.78-4.597-0.205-8.498,1.725-11.701c0.444,0.019,0.901-0.061,1.341-0.063l1.327,0.464C72.337,8.603,72.515,13.396,73,18z"/>
		<path style="fill:#595959;" d="M18,47l-3.567,12.798L11,59.114C9.491,57.695,7.109,58.585,7.864,50
			c-0.468-1.668-1.315-7.794-0.345-8.682l6.899,0.082c0.168-1.633,2.357,0.173,3.438,1.238c1.766,1.741,1.877,1.893,0.862,3.048
			C18.383,46.067,18.16,46.519,18,47z"/>
		<path style="fill:#ECECEC;" d="M95.931,143.909c0.676,1.266,0.472,2.474-0.612,3.624l4.816,6.439
			c2.923-1.361,4.878-1.018,5.865,1.028c0.873,0.284,0.86,0.618,0,1c0.873,0.284,0.86,0.618,0,1c0.057,1.724-0.943,1.724-3,0
			c0.273,1.477-0.393,1.477-2,0c-0.585,5.472-0.047,10.795,1.612,15.966l-0.746,1.957c2.931-0.802,4.981,6.404,2.31,7.919L103,184
			c-1.108-1.036-2.509-1.676-4.203-1.919c-0.917-0.256-0.961-0.617-0.131-1.081c0.831-1.638,0.869-3.64,0.113-6.005
			c-1.582-0.837-3.508-0.418-5.78,1.257c-0.257,1.523-0.84,2.232-2.19,1.787c-0.241,2.253-1.422,3.299-3.771,2.693
			c-1.325-0.781-3.579-0.404-4.945-1.575c-1.361,0.4-2.539,0.238-2.094-1.266c1.065-1.452,2.869-2.664,5.41-3.637l-0.342-7.851
			L87,165c2.197,0.265,3.535,2.394,4.013,6.387c6.002-1.801,6.76-6.851,2.987-11.387c0.161-1.473,0.558-2.673,1.191-3.599
			l-6.13-7.664L89,146c-0.163-0.583,0.273-1.476,0-2C90.635,142.261,95.287,140.734,95.931,143.909z"/>
		<path style="fill:#4D4D4D;" d="M117,171c4.468-0.147,3.478,3.616,0,5c-0.276,4.016-4.473,6.946-8.399,5.84
			c-1.341,0.814-2.84,1.161-4.425,1.003l-2.31-7.919L107,172c1.989-0.991,3.443-2.126,4.363-3.407L117,171z"/>
		<path style="fill:#414141;" d="M150.073,144.961c0.429,1.766,1.427,4.623,1.153,6.914c-0.159,1.334-1.719,2.168-2.487,1.416
			c-0.324-0.317-1.274-0.01-1.739-0.404c-1.371,0.549-4.022,0.39-5-0.887c-1.851,1.485-2.851,1.485-3,0
			c-2.109-0.532-2.443-1.199-1-2c-1.183-1.749-1.183-2.749,0-3c-2.019-2.495,0.713-6.536,3.803-5.942
			c2.055,0.213,4.645-0.749,6.787,0.289C148.786,142.56,149.867,144.108,150.073,144.961z"/>
		<path style="fill:#646464;" d="M23,70c2.484-2.35,6.085-0.278,5,3c0.313,0.882-0.354,1.615-2,2.199
			c-0.587,0.133-1.318,0.949-2,0.919L19,78c-3.108,2.308-5.822,2.642-8.142,1C9.614,77.616,9.987,74.02,12,73.152
			c2.413-2.435,5.245-4.292,8.496-5.571L23,70z"/>
		<path style="fill:#787878;" d="M122.01,23.163c3.265,3.405,7.188,6.66,8.955,11.058c1.445,3.121-2.287,4.682-3.966,1.78
			c-2.607,1.983-4.273,2.317-5,1l-3.087-4.063l-2.095-0.868c1.728-2.443,1.943-5.382,0.646-8.819
			C119.346,22.666,120.861,22.637,122.01,23.163z"/>
		<path style="fill:#747474;" d="M58.929,4.618c-0.205,1.049-1.046,1.399-2.522,1.049l-19.22,2.786
			c-3.777,1.869-7.211-0.218-6.054-4.379c8.918-2.206,18.562-0.762,27.787-0.751C58.938,4.156,58.901,4.514,58.929,4.618z"/>
		<path style="fill:#EEEEEE;" d="M122.837,143.003c1.832,2.046-0.208,5.733-2.845,6.118c0.872,0.281,0.891,0.615,0.06,1.003
			l0.884,2.515c2.7,0.541,4.331,1.6,4.895,3.178c0.409-0.877,0.798-1.149,1.168-0.816c0.284-0.873,0.618-0.86,1,0
			c1.907,0.027,3.573,0.361,5,1c1.96-1.264,4.23-0.822,5.85,0.94c0.452-0.22,0.835,0.133,1.15,1.06
			c1.435-2.791,3.674-2.098,3.656,0.932L143.577,160c0.672,2.346-1.31,3.274-2.562,1.131c-1.989,0.359-3.333-0.267-4.031-1.877
			c-0.482,2.015-1.343,2.021-1.759-0.016c-1.632,2.077-7.424,1.372-8.226-1.239c-0.285,0.884-0.651,0.882-1.094,0.037
			c-1.54,0.705-3.185,1.359-4.935,1.963l-1.43,0.455c-1.815-1.912-4.329-3.397-7.54-4.455c0.371,1.143-3.831,0.705-5.413,0.509
			c-0.214-0.027-0.404-0.241-0.587-0.509v-1l0.633-2c-1.332-2.535-1.877-4.868-1.633-7c0.386-2.646,2.041-2.639,4-1
			c1.572,2.295,2.485,5.196,2.738,8.702c4.611-1.817,5.855-7.283,6.262-10.957c1.071-1.741,2.587-4.004,4.803-2.745
			C125.696,140.837,125.268,141.623,122.837,143.003z"/>
		<path style="fill:#666666;" d="M11.924,10.189C12.872,10.512,13.861,11.923,15,12l4,3c2.291,0.18,2.624,0.847,1,2
			c1.712,2.318-1.583,6.801-3.937,4.202c-0.24,2.442-9.361-3.626-10.454-4.771l-0.769-2.55c0.084-0.93-2.468-2.86-0.654-3.527
			C6.809,9.389,9.595,10.256,11.924,10.189z"/>
		<path style="fill:#4E4E4E;" d="M27,140c1.724-2.074,2.174-1.7,2,1l5,2c1.766,0.715,2.1,1.381,1,2l-4,3c-0.342,0.31-0.77,0.589-1,1
			c-1.423,1.145-2.8,2.189-4.131,3.131c-1.494-0.234-2.595-1.25-3.722-2.189C20.94,147.875,21.263,145.241,22,143
			c0.321-3.442,0.482-5.163,0.482-5.163L27,140z"/>
		<path style="fill:#595959;" d="M128,178c1.783-2.768,3.724-2.257,4,1c1.376,0.238,2.061,1.61,2.054,4.117
			c2.18,3.679,1.798,5.295-1.146,4.849c-4.003,0.551-8.006-1.376-9.908-4.966c-2.227,0.328-2.561-0.339-1-2
			C119.975,176.733,121.975,175.733,128,178z"/>
		<path style="fill:#656565;" d="M121,176c2.399,0.652,2.86,0.862,0.578,1.465c-0.428,1.364-0.287,2.542,0.422,3.535
			c1.197,0.092,0.669,1.375,1,2c-5.89,5.105-14.595,1.794-14.904,0.553c-0.121-0.485,0.165-1.122,0.505-1.713
			c2.919-1.772,5.746-3.678,8.399-5.84C119.654,172.831,120.988,172.831,121,176z"/>
		<path style="fill:#676767;" d="M65,18c-0.936,0.158-1.806,0.507-3.391,1.122L57,10c-2.079-1.527-1.444-3.109,1.241-3
			c-1.632-0.995-0.761-1.567,0.688-2.382c1.573-0.341,4.987-3.393,5.693-0.547C65.781,8.738,64.552,13.707,65,18z"/>
		<path style="fill:#656565;" d="M138.118,41.971c-2.165,1.396-4.871,2.072-8.118,2.029c-1.148,0.971-2.815,0.304-5-2
			c-0.733,0.2-1.314,0.33-1.367,0.216c-1.568-3.39,0.081-5.362,3.367-6.216c1.415-0.241,3.252-0.707,3.966-1.78
			C134.126,35.798,136.472,38.885,138.118,41.971z"/>
		<path style="fill:#686868;" d="M12.055,22.299C13.38,23.401,13.361,23.968,12,24c0.524,1.425,1.5,7.942,0.862,8.035
			c-0.503,0.073-1.032-0.038-1.568-0.2c-1.556,0.833-3.679,1.081-5.273,0.087c-1.317-4.186-1.183-8.69-1.562-13.052
			C5.304,14.497,12.886,19.902,12.055,22.299z"/>
		<path style="fill:#7C7C7C;" d="M109.052,8.848c-4.786,0.64-12.742,0.171-17.563-1.636c-0.834,0.292-1.978-0.524-3.431-2.445
			l-0.612-0.625c2.779-2.28,6.848-0.574,10.521-1.172C103.385,2.087,107.483,3.96,109.052,8.848z"/>
		<path style="fill:#484848;" d="M162.995,76.113c3.931,0.719,4.998,3.93,5.184,7.709c1.093,1.725,1.223,4.062,1.583,5.997
			c0.134,2.041-1.32,2.901-1.855,0.618c-0.962,0.444-1.554,0.712-1.906-0.436c-1.405,1.325-1.92,0.767-1-1l-4.501-3.97
			c-2.232,0.041-3.127-0.93-2.687-2.915c-1.863-1.751-1.165-3.841,1.402-4.114c0.234-1.083,0.606-2.264,1.785-2
			C161.751,73.766,162.442,73.779,162.995,76.113z"/>
		<path style="fill:#727272;" d="M160.084,69.866C156.18,67.117,151.178,66.446,147,64c-1.598-2.143-0.598-3.809,3-5
			c0.255-0.455,0.697-0.787,1.105-1.094c1.38,0.15,2.586,0.983,3.679,2.269l7.502,8.828
			C161.626,70.062,160.612,69.548,160.084,69.866z"/>
		<path style="fill:#808080;" d="M24,115c2.73,0.793,2.105,3.755-0.661,4c-0.749,0.324-1.891,2.116-3.087,1.611l-4.451-1.884
			c-1.596-0.675-1.711-3.29-1.801-4.727c-0.692-1.556,0.481-2.297,2-2.152c2.135-1.274,5.057-1.211,7.802-0.56
			C24.392,112.27,23.901,114.086,24,115z"/>
		<path style="fill:#E1E1E1;" d="M86,71c0.284-0.873,0.618-0.86,1,0c2.978,0.676,4.311,2.009,4,4c1.403,1.246,1.162,1.913-0.724,2
			c-1.925,0.124-2.888,0.186-2.888,0.186c-0.881,4.731-0.032,8.72,2.548,11.967l-1.001,2.138c-0.471,0.832-0.445,2.706,0.08,5.623
			L87,98c0.896,0.103,0.843,0.45,0,1c3.099,1.266,4.557,7.594,1,9h-1c-1.808-3.906-1.146-24.563-3.824-26.549
			c-1.399-1.038-1.834-2.771-1.304-5.199C80.804,72.652,81.18,70.235,83,69c1.774-0.005,0.857-2.885,1-4
			C86.211,64.426,86.877,66.426,86,71z"/>
		<path style="fill:#E5E5E5;" d="M16.063,21.202c3.558,2.217,7.197,4.568,10.917,7.052l0.088,2.347
			c2.459-2.174,6.157,2.373,5.932,5.168l-1.129,0.591l-0.864,0.594c0,0-3.074-1.965-9.223-5.894
			c-1.896,1.992-2.705,1.658-2.63-1.094c-2.898-2.221-5.265-4.776-7.1-7.667c-2.005-2.141-4.626-3.573-7.596-3.43
			c-0.136-1.567,0.244-3.47,0.381-4.987C9.248,15.359,11.427,20.226,16.063,21.202z"/>
		<path style="fill:#767676;" d="M31,112c-0.048,3.293-0.895,8.153-3,11c-0.102,0.697,0.028,1.467-0.596,2.444
			c-2.326-0.602-4.376-4.156-4.065-6.444c0.14-1.031,0.342-3.019,0.661-4c0.431-1.327,0.9-3.315,1.826-3.832
			C27.222,110.389,30.118,110.925,31,112z"/>
		<path style="fill:#545454;" d="M17.853,124.205c1.929-0.847,4.09,0.741,3.147,2.795c0.705,2.527,0.898,7.28,0.46,10.059
			c-0.011,0.072-0.647,0.024-1.46-0.059c1.151,3.026-1.429,3.714-2.924,1.076c-1.951-4.297-2.793-10.531-1.36-14.94
			C16.37,123.606,17.057,124.018,17.853,124.205z"/>
		<path style="fill:#505050;" d="M11,59.114c3.241-0.458,4.574,0.171,4,1.886l2,0.78c-1.265,0.786-1.932,2.526-2,5.22
			c0.787,0.999-0.154,2.215-1,3c0.535,1.21-0.423,2.214-2.874,3.01c-0.804-0.294-1.616-1.066-1.725-2.309L8.404,59.322
			C9.388,58.962,10.236,59.106,11,59.114z"/>
		<path style="fill:#D2D2D2;" d="M28.887,164.223c1.051-0.918,2.497,0.093,3.493,1.037c2.671,1.379,4.576,1.661,5.714,0.848
			c0.169-1.803,0.906-1.623,2.018-0.271c1.147,1.565,3.109,2.619,5.888,3.163c0.316,0.347,0.706,0.63,1,1
			c-1.276,0.735-0.943,0.735,1,0c1.096,0.045,1.257,1.545,1.906,2c1.68,1.329,1.653,1.96-0.079,1.892
			c-1.52-0.803-2.666,0.795-3.583,0.541c-1.371-0.38-2.438-1.033-3.879-0.709c-3.077-2.28-5.866-2.521-8.365-0.724
			c-0.648,0.235-1.022-0.557-0.958-1.066c-1.696-0.507-2.377-1.818-2.042-3.934c-1.507,0.485-1.884,0.171-1.129-0.942
			c-2.4,0.62-6.359,0.371-4.966-2.969c0.265-0.074,0.833-0.351,1.094-0.247C26.874,161.855,28.606,161.976,28.887,164.223z"/>
		<path style="fill:#666666;" d="M11.381,32.651c0.938-3.188,2.668-1.189,2.491,1.129c0.861,2.146,1.558,4.489,2.089,7.029
			c-1.68,0.722-3.879,0.963-6.599,0.723c-1.87,2.093-2.538,0.287-2.849-2.222C6.735,37.289,5.48,35.075,5.906,33
			C7.375,32.222,9.736,32.254,11.381,32.651z"/>
		<path style="fill:#696969;" d="M163.882,115.386c4.033,0.577-0.762,7.857-1.895,9.591c-1.248,0.514-4.932,1.748-4.987,0.024
			c-1.353,0.209-1.536-0.315-0.547-1.572c0.412-2.534,0.18-4.96-0.698-7.276c1.861,0.393,8.609,0.825,5.245-0.152
			C157.67,113.506,163.582,111.036,163.882,115.386z"/>
		<path style="fill:#4B4B4B;" d="M140.992,171c0.775,2.307,0.017,4.348-1.992,5.74c0.768,2.704-1.886,3.65-4,2.26
			c-1.13,1.876-2.13,1.876-3,0c-3.145-2.276,1.684-11.122,5.115-11.013C138.408,162.638,140.902,167.22,140.992,171z"/>
		<path style="fill:#8B8B8B;" d="M13.071,6.701C12.681,6.894,12.116,7.578,12,8C9.548,9.356,6.521,9.262,3.577,9.005
			c-0.522-1.88-0.632-3.026-0.604-5.327c3.956-0.672,7.876-0.646,11.67,0.032C14.224,5.229,13.557,5.897,13.071,6.701z"/>
		<path style="fill:#515151;" d="M167.181,110.974c0.026,1.108,0.101,2.308-0.428,3.332c-0.458,0.886-1.856,1.25-2.871,1.079
			c-1.075-0.181-2.814-1.114-2.882,0.614c-1.816,0.248-3.213,0.86-4.191,1.836c-0.317-0.109-4.544-4.479-4.629-4.804
			c-0.11-0.42,2.275-3.612,2.69-1.446L158,111c0.281-2.685,2.264-2.624,4-1C164.548,108.568,166.275,108.893,167.181,110.974z"/>
		<path style="fill:#949494;" d="M69.798,3.218c0.303,4.405,0.234,8.824,0.196,13.571C68.237,17.223,67.138,17.047,66,17
			l0.044-13.454C67.626,3.085,68.723,3.172,69.798,3.218z"/>
		<path style="fill:#DCDCDC;" d="M29,60v1l0.993,2.102C27.121,65.254,24.79,67.554,23,70c-5.658-2.318-4.009,0.139-11,3.152
			c-0.28-0.079-0.601-0.042-0.874-0.142C12.044,71.995,13.214,71.117,14,70c0.483-1.28,0.931-2.062,2-1c1.003-2.293,1.003-2.959,0-2
			c-0.284,0.873-0.618,0.86-1,0v-6c0.261-0.808,0.596-0.788,1,0c0.843-2.951,6.567-2.514,8.955-1.045
			C26.275,58.438,27.668,58.511,29,60z"/>
		<path style="fill:#666666;" d="M156.782,138.139c-2.123,2.538-2.629,6.802-4.117,10.914c-1.54-1.462-1.12-3.367-1.666-5.054
			c-0.698-2.158-1.538-4.245-2.102-6.857C152.048,136.589,154.455,137.189,156.782,138.139z"/>
		<path style="fill:#6E6E6E;" d="M167.181,110.974c-2.6-1.964-2.635-5.284-0.104-9.96l1.634-8.589L170,92
			C170.07,98.028,173.307,106.399,167.181,110.974z"/>
		<path style="fill:#6D6D6D;" d="M20,137c3.001-1.46,3.18,3.178,2,6c-0.307,2.108-0.703,4.052-1.186,5.832
			c-4.563-0.051-5.06-8.067-3.738-10.756C17.968,137.43,19.386,138.073,20,137z"/>
		<path style="fill:#6D6D6D;" d="M91,107c-0.36,0.796-1.328,1.57-1.903,2.097c-0.299-0.194-1.162-0.634-1.097-1.097
			c0.427-3.057-0.657-5.972-1-9c1.675-0.175,3.544-0.032,5.607,0.43C99.853,98.298,99.317,100.821,91,107z"/>
		<path style="fill:#CACACA;" d="M120.656,21.761c0.305,0.52,0.933,0.962,1.354,1.402c-1.596-0.398-3.154,0.617-3.434,2.729
			c-0.351,2.642,0.171,4.891,0.337,7.046C116.455,35.109,110.858,38.152,108,36c-0.873-0.284-0.86-0.618,0-1
			c-0.5-0.674-0.619-1.365-0.253-2.076c6.845-1.653,9.37-4.028,7.575-7.125c-2.031-3.161-3.295-6.181-3.791-9.06L113,16l1.382-0.222
			C116.176,18.385,118.267,20.38,120.656,21.761z"/>
		<path style="fill:#464646;" d="M142,153c1.532-0.19,3.923-0.293,5,1c0.82,0.059,1.553-0.206,3.048,0.18
			c-0.168,1.868-0.744,4.067-1.956,4.51c-1.463,0.535-3.191,0.538-4.436,0.242c-1.214-0.288-2.334-1.012-3.656-0.932
			C138.699,155.916,139.104,151.298,142,153z"/>
		<path style="fill:#CBCBCB;" d="M19,42c3.027-0.364,5.027,0.303,6,2c0.873,0.284,0.86,0.618,0,1c-0.521,2.516-4.793,2.415-7,2
			c-0.042-1.601-0.063-3.92-2.442-4.633c-1.801-0.539-5.398-0.975-6.944,0.047C7.205,44.547,8.062,47.739,7.864,50
			c-1.699-3.212-1.743-7.148-1.352-10.69c2.121,2.249,5.829,2.146,8.814,1.208c-0.961-3.017-1.496-4.719-1.455-6.738
			c0.12-0.898,0.435-0.903,0.929-0.089l2.25,0.49C17.41,36.899,18.06,39.505,19,42z"/>
		<path style="fill:#C4C4C4;" d="M136.984,159.255l1.955,1.475c-0.544,1.321-0.256,2.1,0.864,2.339
			c2.57-1.331,4.936-1.744,7.097-1.239c0.351,1.306-0.245,2.229-0.982,3.165c-2.442,1.835-3.766,2.194-3.971,1.075l-0.262,1.917
			c-0.068,0.287,0.03,0.644-0.052,0.924c1.494,0.926,1.065,2.198-0.64,2.089c-0.912-0.729-0.986-2.114-1.869-3.248
			c-0.571-0.734-1.627-0.139-2.008,0.235l-2.159-1.073c-2.787,1.202-4.439,0.897-4.956-0.914c-0.873-0.284-0.86-0.618,0-1
			c-2.064-2.78,1.023-3.054,3.661-2.919c-0.372-1.423,0.078-2.194,1.564-2.842C135.663,159.43,136.502,159.279,136.984,159.255z"/>
		<path style="fill:#8B8B8B;" d="M73.871,3.144C73.467,8.08,75.316,13.432,73,18c-1.19-0.212-2.056-1.33-2.033-2.959l0.172-11.886
			L73.871,3.144z"/>
		<path style="fill:#CECECE;" d="M53,146c-2.186,1.146-5.334,2.01-8.674,2.471C42.207,165.262,42.168,154.839,47,165l-0.732,0.46
			c-2.788-2.337-4.877-3.49-6.268-3.46c-0.251-0.259-0.669-0.799-1-0.9c4.057-1.861,4.015-10.175,4-14.1
			C43.28,143.803,51.744,143.168,53,146z"/>
		<path style="fill:#C5C5C5;" d="M169.761,89.819c0.131,0.703,0.231,1.467,0.239,2.181c-2.249,3.03-1.067,7.493-2.931,11.06
			c-1.534,2.934-0.832,5.168,0.113,7.915c-1.472,0.077-3.76-2.058-5.181-0.974c-1.032-1.401-0.678-2.495,1-3
			c0.748-4.093,1.575-8.27,2.483-12.531c-2.064,0.542-3.528,1.641-4.39,3.295c-0.207,2.768-0.238,5.513-0.093,8.236
			c-0.843,2.423-4.962,3.632-7,2c-3.02,0.907-4.792-2.316-2-4c0.749-0.976,1.965-1.049,3.647-0.219
			c0.235-2.801,0.686-5.394,1.353-7.781c-0.874-1.448-1.416-2.51-0.11-3.89c2.673-1.503,5.71-2.206,9.11-2.11L169.761,89.819z"/>
		<path style="fill:#E5E5E5;" d="M109.052,8.848c0.929,0.057,1.566,0.377,2.087,1.157c0.593,1.251,0.458,2.717-1.139,2.995
			c-0.284,0.873-0.618,0.86-1,0c-5.044-1.619-10.353-2.529-15.927-2.729C93.645,13.39,92.954,15.3,91,16
			c-1.288,0.855-1.78,0.403-1-1c0.086-3.618,0.542-7.391-1.942-10.234l4.099,2.012C97.268,9.287,103.571,8.51,109.052,8.848z"/>
		<path style="fill:#828282;" d="M120.656,21.761l-2.455,1.139c-1.827-2.571-3.249-4.949-5.201-6.9c-2.379,1.753-4.498-0.518-3-3
			c-0.093-1.122-0.245-2.718,1.139-2.995C113.951,14.222,118.085,17.387,120.656,21.761z"/>
		<path style="fill:#4D4D4D;" d="M139,176.74c3.757-0.199-1.426,8.19-2.205,9.425c-2.173,2.965-4.837-7.212-1.795-7.165
			C135.919,177.893,137.777,177.2,139,176.74z"/>
		<path style="fill:#D6D6D6;" d="M58.929,4.618c0.247,0.92-0.221,1.674-0.688,2.382C51.09,9.316,43.676,10.649,36,11
			c-0.345,1.445-1.55,1.702-3.613,0.771C31.709,13.488,31.124,14.514,29,14c-0.223,0.886-0.56,0.858-1,0
			c-1.234,3.642-4.74,4.958-8,3l-1-2c3.026,0.013,6.543-0.695,9.063-2.784c2.898-2.402,2.996-5.245,1.819-8.148
			c0.291,0.116,0.945,0.081,1.252,0.005c0.76,1.108-0.086,4.377,3.272,4.043C40.725,7.488,52.886,5.928,58.929,4.618z"/>
		<path style="fill:#6D6D6D;" d="M161.827,126.147l-3.955,10.69c-0.797,0.241-1.779,0.255-1.797-0.475
			c-0.03-1.241-0.381-2.41-0.075-3.362c-2.231-1.926-1.888-3.363,1-4C157.365,125.817,158.798,124.314,161.827,126.147z"/>
		<path style="fill:#7E7E7E;" d="M88,114c0.678,1.944,3.588,4.766,1,6c-3.093-2.139-6.934-5.657-8-9
			c1.745,0.069,3.688-0.371,5.722,0.294C88.084,111.74,87.751,113.285,88,114z"/>
		<path style="fill:#515151;" d="M27,155.871c1.376,3.241,0.202,4.338-2.896,5.144c-1.989-2.479-3.138-5.448-4.158-9.062
			C23.114,152.646,24.786,154.564,27,155.871z"/>
		<path style="fill:#747474;" d="M167.026,75.304c2.06,2.282,2.096,5.68,1.152,8.517c-1.658-2.616-3.366-5.207-5.184-7.709
			C161.597,72.947,164.883,74.137,167.026,75.304z"/>
		<path style="fill:#696969;" d="M74.853,176.147L80,177.892c0.546,0.768,1.478,0.737,2.094,1.266
			c2.27,2.051-15.559-0.694-14.094-2.039l0.506-1.451c0.79,0.852,1.955,0.963,3.494,0.333c-1.509-1.357-0.875-1.984,1-1.055
			C74.842,172.977,75.485,173.539,74.853,176.147z"/>
		<path style="fill:#909090;" d="M93,176.252c1.008-1.04,1.518-0.628,1,0.748c0.721,0.864,0.418,2.21-0.909,4.037
			c-2.195,0.714-3.958,0.928-6.051-0.305c1.315-0.715,1.471-2.202,2.192-3.719C89.868,175.673,92.002,176.24,93,176.252z"/>
		<path style="fill:#333333;" d="M35.139,161.987c-0.028,3.655-5.538,3.544-5.997-0.129c-1.26,1.359-1.788,0.902-1.142-0.858
			c-2.001,0.406-2.001-0.928,0-4C30.61,158.25,33.366,159.655,35.139,161.987z"/>
		<path style="fill:#606060;" d="M29.871,167.058C29.164,169.192,24.805,170.8,23,169c0.134-1.759,0.153-4.226,1.906-4.911
			C26.22,165.627,28.663,165.295,29.871,167.058z"/>
		<path style="fill:#7B7B7B;" d="M146.9,161.829c-2.175,1.357-4.868,3.124-7.097,1.239c-1.385-1.641-0.869-2.47,1.213-1.937
			c1.02,0.21,1.662-0.921,2.562-1.131c0.86-0.201,2.042-0.098,3.484,0.186C147.918,160.355,147.11,161.529,146.9,161.829z"/>
		<path style="fill:#828282;" d="M42.365,173.724C39.57,174.352,36.852,171.966,34,173c0.648-1.319,1.212-2.543,1.729-4.349
			l6.154,3.556C42.625,172.635,43.02,173.311,42.365,173.724z"/>
		<path style="fill:#5B5B5B;" d="M33.042,171.934c-2.715,0.164-5.358-0.577-8.042-0.934c-0.863-1.5,4.414-2.747,6-3
			C33.155,167.979,33.297,170.194,33.042,171.934z"/>
		<path style="fill:#BDBDBD;" d="M135,179c-1.872,2.255-0.843,6.154,1.795,7.165c0.034,0.782,0.43,1.478-0.013,2.884
			c-1.299-0.856-2.591-1.26-3.874-1.083c2.811-2.507,0.484-6.004-0.908-8.966C132.864,179.34,134.086,178.78,135,179z"/>
		<path style="fill:#545454;" d="M157.866,71.417c0.214,0.093,0.501-0.025,0.732,0.024l0.134,0.706
			c1.709,1.125-0.457,4.392-1.732,5.853c0.181,1.932-0.586,1.934-1.142,0c-1.678,0.14-1.946-0.703-0.858-2
			c-1.236-2.585-1.236-3.918,0-4C154.76,69.755,156.765,69.816,157.866,71.417z"/>
		<path style="fill:#8B8B8B;" d="M98,179c2.27-0.586,2.672,0.732,0.667,2c-0.032,0.357,0.134,0.722,0.131,1.081
			c-1.92,1.97-4.2-0.008-5.707-1.043C93.87,178.127,96.828,175.352,98,179z"/>
		<path style="fill:#D2D2D2;" d="M72,111c-0.069,3.15-0.979,6.998,2,8.848c0.281,0.687-0.396,1.064-2.031,1.134
			c0.05,2.811-1.329,3.209-2.9,0.918c1.866-3.451,2.343-7.13,0.931-10.9C70.659,111.002,71.35,110.897,72,111z"/>
		<path style="fill:#C9C9C9;" d="M89,120h-1c-3.223-2.013-5.557-5.188-8-8c0.105-0.399,0.516-1.019,1-1L89,120z"/>
		<path style="fill:#656565;" d="M47,165c0.261,0.18,0.373,0.671,0.627,0.892c-0.106,0.16-0.254,0.825-0.552,0.813
			C44.26,165.31,41.895,163.954,40,162c-0.14-0.656,0.288-0.935,0.648-0.983C43.874,160.586,43.953,163.525,47,165z"/>
		<path style="fill:#C4C4C4;" d="M32,112c-1.228,3.643-0.878,7.694-3,11h-1l3-11H32z"/>
		<path style="fill:#D4D4D4;" d="M46,122c-0.762,1.584-2.285,2.303-4,2v-11h1C42.198,116.628,43.58,119.397,46,122z"/>
		<path style="fill:#616161;" d="M145.919,164.995c-0.604,0.767-0.413,2.051-1.052,2.561c-0.931,0.742-2.257,0.876-3.181,0.431
			c-0.531-0.279-1.042-0.566-1.332-0.933c-0.632-0.8,0.664-1.611,1.713-1.884C143.472,164.804,145.599,163.141,145.919,164.995z"/>
		<path style="fill:#BCBCBC;" d="M19,78c-0.804,1.146-2.121,1.595-3.896,2.275C15.445,81.292,15.913,82.105,16,83
			c-0.97-1.446-3.379-2.653-4.921-2.848c0.011-0.312-0.11-0.879-0.22-1.152C13.631,79.502,16.24,78.09,19,78z"/>
		<path style="fill:#4A4A4A;" d="M46,169c-1.424-0.04-3.1,0.585-4.911,0.112c-1.97-0.514-0.787-2.434-0.977-3.276
			C42.401,166.094,44.462,167.312,46,169z"/>
		<path style="fill:#494949;" d="M28,161c0.468,0.076,0.792,0.606,1.142,0.858c1.407,1.835,1.322,2.623-0.255,2.365
			c-0.799-0.41-2.053-0.047-2.887-0.381c-1.078-0.563-1.642-1.669-1.896-2.827C26.468,159.503,27.767,159.498,28,161z"/>
		<path style="fill:#ACACAC;" d="M35.139,161.987c0.285,0.061,0.642,0.01,0.9,0.165c1.671,1.962,1.505,2.413-1.039,2.848
			c0.274,1.509-0.6,1.595-2.619,0.26c-1.304,0.021-2.387-0.47-3.493-1.037l0.255-2.365c1.027,0.741,1.957,2.231,3.356,2.162
			C33.66,163.962,34.369,162.683,35.139,161.987z"/>
		<path style="fill:#555555;" d="M40.112,165.837c-0.655-0.074-1.358,0.295-2.018,0.271c-0.864,1.719-2.907,0.675-3.094-1.108
			c0.124-1.019,0.425-2.016,1.039-2.848C37.599,163.087,39.675,163.895,40.112,165.837z"/>
		<path style="fill:#9F9F9F;" d="M31,168l-6,3c-0.748-0.1-2.064-1.163-2-2c2.342-0.102,5.293-0.033,6.871-1.942
			C30.141,167.451,30.702,167.62,31,168z"/>
		<path style="fill:#3E3E3E;" d="M49.827,173.892L49.906,172c2.009,1.291,4.65,1.447,6.241,3.808
			C53.402,176.468,51.646,174.853,49.827,173.892z"/>
		<path style="fill:#515151;" d="M162.249,72.045c1.966,2.398,1.532,2.921-1.249,3.955c-0.33,0.871-0.916,1.628-1.785,2
			c-0.919-0.088-0.975-0.426-0.215-1c-1.269-1.007,0.295-4.344,2-5c0.314-0.661,0.609-0.785,1.331-0.848
			C163.19,71.426,163.14,71.724,162.249,72.045z"/>
		<path style="fill:#8B8B8B;" d="M147,152.887V154c-1.66-0.12-4.05,0.72-5-1c-0.873-0.284-0.86-0.618,0-1
			C143.752,151.864,145.598,151.703,147,152.887z"/>
		<path style="fill:#C4C4C4;" d="M166.013,73.801c0.589,0.296,0.628,1.078,1.013,1.504c-1.407-0.149-2.926-0.187-4.031,0.808L161,76
			c0.255-1.365,0.703-2.681,1.249-3.955C163.572,71.895,164.992,72.87,166.013,73.801z"/>
		<path style="fill:#333333;" d="M47,170c0.31-0.057,0.686-0.013,1,0c0.33,1.487-0.28,2.083-1.535,2.178
			c-1.363,0.103-2.077-0.481-4.198-1.532C43.725,169.262,45.463,170.283,47,170z"/>
		<path style="fill:#DBDBDB;" d="M138.118,41.971l-0.058,1.071c-2.48,1.283-5.694,1.904-8.06,0.958
			C132.212,41.991,135.571,43.364,138.118,41.971z"/>
		<path style="fill:#5E5E5E;" d="M140.992,171c-0.193-0.638,0.467-1.496,0.64-2.089c1.001-0.089,2.696-0.044,2.215,1.324
			c-0.262,0.744-0.697,1.451-1.13,3.515C141.756,173.103,141.946,171.762,140.992,171z"/>
		<path style="fill:#B4B4B4;" d="M28,157v4c-1.294-0.211-2.626,0.481-3.896,0.016c-0.939-1.972,3.608,0.157,2.896-5.144
			C27.409,156.113,27.58,156.799,28,157z"/>
		<path style="fill:#595959;" d="M166.013,73.801c-1.526,0.21-3.038-0.361-3.764-1.756l0.081-0.892
			C164.095,70.998,165.711,71.994,166.013,73.801z"/>
		<path style="fill:#EAEAEA;" d="M161,72c-0.776,1.632-1.884,3.148-2,5c-0.334,1.486-1.048,2.523-2,1
			c0.085-2.119,2.139-3.707,1.732-5.853L161,72z"/>
		<path style="fill:#D2D2D2;" d="M161.987,124.976l-0.16,1.171c-0.89-0.079-1.918-0.48-3.04,0.081
			c-0.815,0.407-1.093,1.889-1.786,2.772c-2.546-1.296-2.593-2.699,0-4L161.987,124.976z"/>
		<path style="fill:#787878;" d="M15.717,123.136c-0.7-0.504-1.326-1.151-1.556-1.809c-0.377-1.078-0.431-2.207,0.742-2.43
			c0.651,0.612,1.647,1.14,2.013,1.769C17.687,121.992,16.34,122.642,15.717,123.136z"/>
		<path style="fill:#C3C3C3;" d="M30,149c-0.979,1.75-3.032,2.877-3,5c-0.656-0.282-0.867-1.306-1.131-1.869
			C26.663,150.444,28.038,148.974,30,149z"/>
		<path style="fill:#D4D4D4;" d="M22.147,149.942l-1.333-1.11c0.2-2.007-0.417-4.345,1.186-5.832
			C21.933,145.312,21.981,147.637,22.147,149.942z"/>
		<path style="fill:#BDBDBD;" d="M41,110h-1c0.417-1.76,0.519-3.796,2-5C41.39,106.484,42.45,108.684,41,110z"/>
		<path style="fill:#C9C9C9;" d="M16,111.848c-0.31,0.994-0.995,1.823-2,2.152c-0.214-0.407-0.905-0.829-1.066-1.458
			c-0.238-0.929,0.324-1.639,1.032-1.228C14.347,111.535,15.477,112.16,16,111.848z"/>
		<path style="fill:#9B9B9B;" d="M103,184c-1.605-0.048-3.101-0.758-4.203-1.919c0.495-0.507,1.951,0.089,2.707-0.106
			C102.598,181.693,103.386,182.729,103,184z"/>
		<path style="fill:#D8D8D8;" d="M11.294,31.835c1.981-0.714,2.181,0.045,0.087,0.816C9.566,32.918,7.743,33.124,5.906,33
			c0.062-0.3,0.206-0.791,0.115-1.079C7.778,32.047,9.542,32.023,11.294,31.835z"/>
		<path style="fill:#555555;" d="M44,66c8.164,0.667,16.316,1.945,24.457,3.834l-2.347,3.058l1.013,2.214
			c-2.702,3.61-4.983,7.44-6.843,11.49L58,87c-1.478,1.773-3.478,3.107-6,4l-5,2l-1.79,1.718L41.9,83
			c-0.048-2.718-0.992-5.463-2.068-7.832c-1.763-2.353-1.922-3.633-0.478-3.839L40,69C40.473,66.159,41.102,64.284,44,66z"/>
		<path style="fill:#C2C2C2;" d="M47,93c-1.517,0.607-4.629,10.691-4,8c2.452-12.658-0.959-10.067-1.1-18
			C44.57,84.066,43.603,94.213,47,93z"/>
		<path style="fill:#C9C9C9;" d="M39.832,75.168c-0.682-1.803-2.329-2.578-4.607-2.061L26,75.199c0.57-0.816,1.258-1.538,2-2.199
			l1.481-2.022c0,0,3.506-0.659,10.519-1.978L39.832,75.168z"/>
		<path style="fill:#BFBFBF;" d="M24,76.118c-1.15,1.544-3.177,1.822-5,1.882C20.133,76.386,22.09,75.846,24,76.118z"/>
		<path style="fill:#C5C5C5;" d="M58,87c2.01,0.861,0.866,2.295,0.421,1.101C57.878,86.639,63.659,86.389,65,87
			c3.725-0.654,5.725,0.346,6,3c-6.364,0.166-13.101-1.36-19,1C53.821,89.459,55.791,87.922,58,87z"/>
		<path style="fill:#C0C0C0;" d="M78,107c-2.454-4.56-1.679-10.221-3.757-15.205L71,90c1.15-2.653,3.259-2.879,5.278-0.924
			C74.984,95.79,78.613,100.337,78,107z"/>
		<path style="fill:#5A5A5A;" d="M139,98c3.189-0.689,4.399,2.685,2.037,4.924c1.512,8.901-15.285,10.885-21.037,12.076
			c-0.671,0.831-1.567,0.549-2.359-0.072c-0.437-0.342-4.386-9.599-2.641-9.928c0.107-2.71,1.223-3.185,3-1
			C125.021,101.428,132.021,99.428,139,98z"/>
		<path style="fill:#595959;" d="M71.969,120.982l1.163,0.15c3.433,4.497,8.115,12.266,10.158,17.678l-1.247,2.007
			C78.7,143.907,73.872,144.338,70,142c-2.559,2.153-9.167-1.925-7.806-5.194C58.95,137.118,60.683,131.78,63,130l3-4l3.069-4.1
			C70.005,121.47,70.991,121.268,71.969,120.982z"/>
		<path style="fill:#797979;" d="M23.601,125.772C29.822,127.906,35.395,132.474,41,136l-0.482,8.182
			C38.31,144.865,35.622,144.735,34,143l-5-2c-0.362-0.559-1.583-0.472-2-1c-2.69-0.608-4.651-1.747-5.883-3.418
			c0.235-3.333,0.529-6.527,0.883-9.582C21.089,124.919,21.828,124.352,23.601,125.772z"/>
		<path style="fill:#979797;" d="M112,134c2.242,0.497,2.248,2.166,0.015,5.007c0.487,2.3,0.149,3.298-1.015,2.993
			c1.913,2.47,0.862,3.664-2,3c-1.189,0.74-2.599,1.081-4,1c-1.441,2.546-2.436,2.436-3.244-0.386
			c-0.954-1.01-2.349-1.629-4.185-1.856c-0.416-0.763,1.471-14.933,1.985-17.132c0.074-0.316,0.683-0.507,1.445-0.662
			C108.061,127.248,105.851,130.459,112,134z"/>
		<path style="fill:#6D6D6D;" d="M82,124c0.973,1.077,2.421,1.917,3.924,2.197c0.933,0.173,1.986,2.121,3.161,1.661
			c0.827,3.069-2.084,16.814-7.043,12.958c-1.54-3.413-9.519-16.877-8.911-19.685C75.909,121.144,78.865,122.1,82,124z"/>
		<path style="fill:#606060;" d="M77,158c-1.51,0.132-7.423-0.117-7.625-0.518c-0.533-1.054,0.142-4.171,0.623-5.482
			c1.587-1.148,0.694-3.988,1.163-5.931l12.748-3.273L84,157.953C81.285,157.989,79.15,158.161,77,158z"/>
		<path style="fill:#767676;" d="M110,103c1.397-2.438,2.541-1.676,2,1c2.561,1.997,4.771,7.449,5.688,10.772
			c0.089,0.322-0.24,0.759-0.688,1.228l-17.105,4.105c0.545-2.481,1.434-4.266,2.105-6.105c0.446-1.221,1.181-2.993,2-4l3-7
			C106.738,100.676,108.578,101.938,110,103z"/>
		<path style="fill:#757575;" d="M89,146c3.733,3.097,6.538,7.308,9.711,12.046c-1.963,1.439-3.659,0.802-4.711,1.954l-7,1
			c-1.049-0.334-2.056-1.34-2.043-2.928l0.111-14.136C86.642,144.82,87.639,145.654,89,146z"/>
		<path style="fill:#434343;" d="M150,101c2.796-1.226,4.285,0.907,2,3c0.43,1.515,1.03,2.737,2,4l-0.433,1.9
			c0.429,1.198,0.365,2.467-0.191,3.806c-3.289-0.247-6.736,0.127-10.341,1.12c-5.018-2.844,2.371-13.95,3.965-15.827
			C149.188,97.968,150.29,98.371,150,101z"/>
		<path style="fill:#606060;" d="M146.937,122.961L154,124l1.372,0.379c0.79-2.081,1.039-1.495,1.628,0.621
			c-0.01,1.288,0.274,2.744,0,4c-0.292,1.339-0.576,2.683-1,4c-0.832,1.405-1.417,3.165-2.625,3.043
			c-1.393-0.14-4.458,0.664-4.931-0.487c-1.518-3.694-2.123-7.459-3.487-11.339C144.525,122.989,146.375,122.841,146.937,122.961z"
			/>
		<path style="fill:#7A7A7A;" d="M69.998,152c-0.359,3.937-0.539,5.906-0.539,5.906l-1.512-0.047
			c-2.185,2.846-3.565,3.349-4.137,1.51c-3.523,0.838-5.126,0.382-4.81-1.369c-0.926-3.09,0.223-7.523,3.073-9.959
			c1.996-1.706,5.406-0.78,7.754-2.251C70.192,148.528,69.856,150.107,69.998,152z"/>
		<path style="fill:#464646;" d="M154,124l-7.063-1.039c-3.32-1.429-4.381-4.643-3.902-8.134c6.769-1.583,10.153-2.374,10.153-2.374
			c0.396,2.021,1.986,3.425,3.795,4.254C157.172,122.538,156.177,124.969,154,124z"/>
		<path style="fill:#555555;" d="M141.525,120.664c2.618,1.975,1.535,6.065,2.658,8.336L139,132c-0.951,2.049-2.617,1.049-5-3
			c-0.726-0.92-0.885-2.316-0.477-4.188c-1.641-1.499,0.528-5.502,2.11-7.114c0.173-0.177,0.717,0.011,1.367,0.302
			C139.654,116.348,141.138,117.812,141.525,120.664z"/>
		<path style="fill:#7F7F7F;" d="M125,125.835c4.175,0.961,0.811,9.179-2.137,8.309c-1.069,0.4-9.098,2.484-9.594,2.437
			c-0.748-0.071-1.107-1.567-1.27-2.58c0.09-0.913,1.121-1.964,1-3c-1.545-1.93,1.777-7.152,3.976-7.399
			c0.131-0.884,0.455-0.819,0.94,0.045C120.451,123.865,122.45,125.779,125,125.835z"/>
		<path style="fill:#7F7F7F;" d="M111.255,120.79c1.49-1.918,5.608,0.495,5.722,2.811c-0.124,2.94-2.005,5.321-3.976,7.399
			c-0.32,3.164-10.664-6.301-7-8c-0.864-1.421-0.409-1.912,1.003-0.937L111.255,120.79z"/>
		<path style="fill:#606060;" d="M53,146l-10,1c-0.925,0.092-1.577-1.281-2-2c-1.522-0.434-1.748-1.032-0.501-1.819
			c-0.515-2.878-0.015-4.939,1.501-6.181c3.813,2.134,7.948,4.473,11.891,7.288L53,146z"/>
		<path style="fill:#E2E2E2;" d="M131,121c2.107,0.668,2.179,1.401,0,2l0.922,1.084c-1.093,2.72-1.697,4.729-1.812,6.026
			c0.324,1.622-0.417,3.293-2.221,5.014c-0.333,2.458-1.246,4.034-2.742,4.729c0.301,1.866-2.035,1.996-2.344,0.147
			c-1.187-0.351-1.889-1.269-2.104-2.752c-4.858-0.004-6.783,1.637-5.777,4.923c-0.121,2.92-3.404,2.657-3.921-0.171
			c0.39-2.695,1.202-5.293,1-8c3.421,1.97,9.021,1.015,11.974-1.896c1.68-1.657,0.684-4.659,1.026-6.27
			c-0.387-2.361,3.654-6.274,6-5.835V121z"/>
		<path style="fill:#7A7A7A;" d="M70,142c0.346,0.594,1.487,1.963,0.858,2.811c-4.844-0.232-9.404,3.015-11.571,1.465
			C58.616,145.795,58.164,144.91,58,144c-1.168-2.211-0.523-5.152,2-6c0.467-1.799,0.79-2.894,2.194-1.194
			C64.467,139.024,67.322,140.383,70,142z"/>
		<path style="fill:#808080;" d="M77,159c2.368,0.113,7.502-0.767,7.589,1.436c0.018,0.454-0.271,1.032-0.589,1.564l-5,4
			c1.501,1.241,0.938,1.88-0.89,1.11c-2.103,0.989-3.154,1.483-3.154,1.483c-0.578-0.221-5.341-10.528-5.386-11.146
			C69.542,157.06,76.469,158.024,77,159z"/>
		<path style="fill:#424242;" d="M141.706,140.173c-3.044,1.982-4.733-0.232-2.706-3.173c-2.421,1.047-2.714,0.126-1-1.874
			c-1.073-1.652-1.232-3.486,1-3.126l5.183-3c1.619,3.271,3.267,6.575,3.79,10.963L141.706,140.173z"/>
		<path style="fill:#9D9D9D;" d="M92.063,132.866c4.636-0.88,5.451,4.681,3.961,8.205c1.653,0.427,1.761,2.764-0.093,2.839
			c-2.454-0.415-4.948,1.877-6.931,0.091C87.263,142.595,89.11,130.298,92.063,132.866z"/>
		<path style="fill:#838383;" d="M96.024,141.071c0.209-3.107-1.925-5.989-3.961-8.205c-0.2-1.349,0.776-2.489,0.963-3.742
			c0.989-2.542,4.644-5.727,6.701-2.754c0.46,0.664-1.809,16.184-2.576,15.928C96.69,142.144,96.341,141.656,96.024,141.071z"/>
		<path style="fill:#797979;" d="M131,120c-1.199,2.683-3.33,4.738-6,5.835l-2.981-2.868c3.132-3.974,5.807-8.656,10.972-9.381
			C132.552,116.267,131.772,118.273,131,120z"/>
		<path style="fill:#666666;" d="M60,138c0,2.119-0.332,4.522-2,6c-3.594-0.005-6.247-2.919-9-5
			c0.126-2.681,1.538-3.555,4.237-2.621c2.354-0.424,4.608-0.55,6.763-0.379C61.628,136.297,61.172,136.98,60,138z"/>
		<path style="fill:#585858;" d="M147,95l-3.339,6.854c-0.327,0.67-0.776,1.227-1.318,1.344c-0.356,0.077-0.862-0.147-1.306-0.274
			c-0.286-1.684-1.232-3.438-2.037-4.924c-1.856,0.231-1.717-0.408,0-1.231c-1.574-2.206-0.528-3.649,2-3.769
			c0.705-0.845,2.408-0.942,5.109-0.291C150.363,92.186,150.216,93.04,147,95z"/>
		<path style="fill:#777777;" d="M47,138c-2.953-1.477-5.441-3.558-8.699-5.305c0.153-1.067,0.494-1.855,0.699-2.695l2.73-3.618
			c6.584,6.643,9.877,9.964,9.877,9.964C50.119,137.977,48.583,138.529,47,138z"/>
		<path style="fill:#484848;" d="M153.478,89.73c2.556-1.146,3.57-0.379,3.412,2.381c0.342,0.691,1.042,1.144,1.661,1.924
			c0.614,0.775-0.992,1.381-1.55,1.966c0.808,3.254-2.972,4.149-4,1c-3.674,2.119-5.341,2.119-5,0v-1
			c-0.803-1.153,3.164-7.614,4.418-7.47C152.812,88.576,153.152,89.086,153.478,89.73z"/>
		<path style="fill:#DCDCDC;" d="M159.215,78l-1.402,4.114c-1.072,1.55-2.343,2.845-3.813,3.886c1.621,0.208,1.477,0.636,0,1.176
			c1.941,1.417,1.463,1.727-0.522,2.554c-3.964,0.13-3.318,4.86-5.478,6.27l-1-1c0.224-0.549,0.925-0.972,0.888-1.881L141,93
			c-2.575-0.569-2.339-1.38,0.157-2l1.743-1.403c4.519,1.796,7.997-1.831,10.433-10.883L155.858,78H157l2-1
			C158.98,77.325,159.205,77.673,159.215,78z"/>
		<path style="fill:#D1D1D1;" d="M60,135c0.793,0.287,0.78,0.621,0,1c-4.112,2.521-6.601-0.981-11,3l-2-1
			c0.979,0.085,1.922-0.141,3.007-1.479l-8.348-8.466L39,130c0.531-2.17,1.686-4.194,3-6c0.806-0.036,1.673,0.117,1.989,0.787
			c1.951,4.133,8.615,11.521,13.968,7.992C59.28,132.904,60.01,133.607,60,135z"/>
		<path style="fill:#4D4D4D;" d="M141.706,140.173l0.097,0.885c-1.212,2.025-2.701,3.861-3.803,5.942c-0.918,0.87-1.918,0.203-3-2
			c-1.318-1.228-1.652-2.228-1-3c-0.73-2.489,2.362-6.217,5-5C139.308,138.477,140.279,139.625,141.706,140.173z"/>
		<path style="fill:#464646;" d="M141.525,120.664c-1.367-1.031-3.234-1.475-4.525-2.664c-1.978-0.234-2.567-3.695,0-4
			c0.439-0.87,0.358-2.197,2.269-2.891c1.464,3.131,2.244,6.094,3.014,9.404C142.058,120.656,141.768,120.639,141.525,120.664z"/>
		<path style="fill:#D7D7D7;" d="M77,158v1c-1.784-0.085-3.401-1.461-6.323-0.836c0.595,3.842,3.37,6.017,4.617,9.651
			c1.132-0.284,1.89-0.621,2.816-0.705c2.482,2.236-0.644,4.992-3.11,2.89c-0.749,0.381-1.941,0.687-2.234,0.158
			c-1.935-3.481-4.616-8.585-4.819-12.3c1.196-1.502,0.314-4.601,2.051-5.858c0.106,1.418-0.23,2.818,0.157,4.787
			C72.68,157.296,74.856,157.84,77,158z"/>
		<path style="fill:#9E9E9E;" d="M101,125.965c-0.806,2.268-1.804,2.078-2.994-0.568c-2.13,0.546-3.108,0.314-2.933-0.698
			c-0.867-1.986,7.252-4.593,8.225-2.787c0.364,0.674,0.694,1.958-0.034,2.665C102.798,125.029,101.468,125.061,101,125.965z"/>
		<path style="fill:#9D9D9D;" d="M117.916,123.646c-0.307-0.027-0.636,0.006-0.94-0.045c-2.197-0.366-3.611-2.279-5.722-2.811
			c-0.027-1.544,1.155-2.198,2.299-1.971c2.16,0.429,4.33,1.834,5.297,3.629C119.051,122.821,118.153,123.182,117.916,123.646z"/>
		<path style="fill:#CACACA;" d="M115,105c-0.294,1.03,2.828,11.234,5,10l0.195,1.264c-1.018-0.099-2.196-0.503-3.195-0.264
			c-1.034-4.2-2.595-8.396-5-12C113.479,101.705,114.489,102.354,115,105z"/>
		<path style="fill:#717171;" d="M23.601,125.772c-0.71,0.12-1.3,0.575-1.601,1.228c-0.284,0.873-0.618,0.86-1,0
			c-1.041-0.995-2.536-1.456-3.147-2.795c0.091-0.549-0.061-1.18,0.393-2.283C20.686,122.143,22.489,124.154,23.601,125.772z"/>
		<path style="fill:#DEDEDE;" d="M42,137c-1.506,2.372-0.948,5.293-1,8h-6c-0.117-0.734-0.626-1.372-1-2
			c1.843,0.157,3.6,1.577,6.038,0.89c-0.016-2.922-0.475-5.707,0.962-7.89C41.387,136.243,41.606,136.779,42,137z"/>
		<path style="fill:#7C7C7C;" d="M89.085,127.858c-0.563-2.087-0.407-5.266,0.652-7.356
			C93.569,122.459,91.291,126.579,89.085,127.858z"/>
		<path style="fill:#C6C6C6;" d="M137,114c-0.979,1.17-0.836,2.775,0,4c-3.989,2.048-2.896,6.977-3,11c-0.296,2.669-1.174,2.528-2,0
			c-1.181-0.688-1.327-1.897-0.44-3.627L131,123v-2h1c1.349-1.17,2.374-3.127,2-5c0.287-0.592-0.064-1.493,0.72-1.794
			C135.435,113.93,136.421,114.13,137,114z"/>
		<path style="fill:#8D8D8D;" d="M120.444,119.785c-0.386-1.848,0.404-3.138,2.352-2.829c0.972-1.011,2.165-2.156,4.298-1.671
			c-2.07,2.383-4.142,4.152-6.394,6.175C120.293,120.725,120.456,120.222,120.444,119.785z"/>
		<path style="fill:#7D7D7D;" d="M58,163c-0.022,0.883-0.747,1.3-1,2c-2.057-1.485-0.125-6.346,2-7
			c2.363,0.796,2.562,1.622,0.597,2.479L58,163z"/>
		<path style="fill:#BBBBBB;" d="M153,97c0.617,1.848-0.383,3.182-3,4c-0.747-0.885-2.183-1.174-3-2c0.43-0.506,0.178-1.679,1-2
			C149.318,98.122,151.357,96.975,153,97z"/>
		<path style="fill:#C5C5C5;" d="M122.795,116.955l-2.352,2.829c-0.894-1.029-1.016-2.381-0.249-3.521
			C121.08,116.35,121.922,116.798,122.795,116.955z"/>
		<path style="fill:#898989;" d="M95.073,124.699c0.43,1.164-0.253,2.639-2.047,4.425c-1.811,0.827-2.293,1.485-1.988,0.341
			c0.256-0.959,1.258-4.294,1.853-4.918C93.346,124.07,94.257,124.279,95.073,124.699z"/>
		<path style="fill:#6B6B6B;" d="M132,121c0.153-1.842,1.212-3.376,2-5c0.617-0.17,0.913,0.291,0.975,0.658
			c0.082,0.491,0.036,1.257-0.269,2.05C133.632,119.196,133.2,122.831,132,121z"/>
		<path style="fill:#858585;" d="M107.003,122.063c-0.434,0.13-0.728,0.618-1.003,0.937c-0.473-0.648-0.95-1.08-1.083-1.547
			c-0.235-0.825,0.483-1.675,1.455-1.497c0.486,0.089,1.929-0.36,1.217,0.978C107.432,121.231,107.09,121.689,107.003,122.063z"/>
		<path style="fill:#5D5D5D;" d="M46,122l4,3l10,7c1.687-0.342,0.811,1.829,0,3c-2.291-1.059-5.542,1.419-7.958,0.646
			c-3.616-1.156-5.647-5.646-8.839-7.828C41.812,126.868,42,125.07,42,124c0.506-0.696,0.847-2.255,1.545-2.621
			C44.2,121.036,45.338,122.134,46,122z"/>
		<path style="fill:#DADADA;" d="M62.194,136.806L60,138v-2v-1v-3l3-2C62.844,132.679,59.217,133.9,62.194,136.806z"/>
		<path style="fill:#C8C8C8;" d="M50,125c-2.224,0.328-2.835-1.747-4-3C48.259,121.542,48.669,124.068,50,125z"/>
		<path style="fill:#C9C9C9;" d="M66,126c0.009-1.949,1.389-3.329,3.069-4.1C68.201,123.504,68.303,125.413,66,126z"/>
		<path style="fill:#C8C8C8;" d="M63,130c0.098-1.682,1.237-3.551,3-4C65.991,127.931,64.506,128.996,63,130z"/>
		<path style="fill:#595959;" d="M120,58c0.838-2.463,6.682,0.643,8,2.268c0.813,0.079,1.865,1.221,3,0.858
			c0.881,0.091,1.523,0.166,1.882,0.96c0.493,1.09,1.235,9.871-1.882,7.914c0.179,3.214-1.522,4.12-4,2l-7,4
			c-0.195,2.981-7.801,7.623-10,5c-2.736,2.433-6.579-1.895-5-5c-2.06-1.254-3.06-2.588-3-4c-0.558-0.087-0.993-0.182-1-0.303
			c-0.119-1.942-0.829-16.337-0.333-17.033c0.254-0.357,0.758-0.536,1.333-0.664c0.281-0.782,0.616-0.767,1,0L120,58z"/>
		<path style="fill:#717171;" d="M99,48l1.374,4.159c1.187,1.121,1.062,1.735-0.374,1.841l-3,2c1.88,2.959-3.278,5.787-5.94,4.06
			c-1.784,2.32-2.804,2.3-3.06-0.06c-1.766,1.003-4.168,0.152-2.987-1.919c-2.438-4.89-2.192-12.2-2.65-18.879
			c3.954,0.522,7.21,3.055,11.036,4.285C96.25,44.403,97.968,45.464,99,48z"/>
		<path style="fill:#8E8E8E;" d="M118.913,32.937L122,37c2.303,0.663,2.138,5.272,0,7c2.705,1.514-2.239,8.214-5,7
			c-1.726-0.109-14.523-3.568-11.882-7c-1.68-1.606-1.461-3.449,1.071-4c-0.15-2.971,0.454-4.304,1.811-4
			C111.679,34.866,115.008,32.076,118.913,32.937z"/>
		<path style="fill:#909090;" d="M63,28c0.249,1.582,0.182,3.621-0.638,3.882C61.806,32.059,60.453,32.38,60,32
			c-1.431-1.2-6.413-0.815-8.047-1.868c-3.319-2.14-3.946-7.315-2.383-10.759c1.342-2.956,4.782-4.421,6.778-7.348
			C59.906,16.91,60.789,22.583,63,28z"/>
		<path style="fill:#666666;" d="M79.921,18.937L83,24l3,5c2.511,2.588,3.511,4.922,3,7c1.485,2.372,0.462,3.017-2.092,1.9
			c-4.14,2.703-11.01-6.289-11.335-7.354C74.019,25.448,75.46,19.956,75,15c0.103-1.551,0.633-1.525,1.591,0.078
			C79.739,15.628,80.85,16.914,79.921,18.937z"/>
		<path style="fill:#585858;" d="M82,49c1.759,5.278,0.818,11.972,1,18c-1.19,1.483-8.06,0.994-7-2c-3.085,1.486-6.998-5.714-5-8
			c-1.374-0.765-1.37-2.098,0.012-4c0.732-2.797,1.621-3.593,2.667-2.387l7.019-3.427L82,49z"/>
		<path style="fill:#656565;" d="M157.866,71.417C156.842,70.974,155.759,72,155,72c0.341,1.469-0.34,1.651-2.044,0.546
			c-5.684-0.307-11.119-0.045-16.304,0.787L136,72c-3.115-1.914-4.955-9.943-1.732-10.853c7.517,0.892,13.86,5.903,21.584,8.024
			C157.11,69.516,157.783,70.559,157.866,71.417z"/>
		<path style="fill:#515151;" d="M63.885,38.848c1.857,4.998,3.233,10.385,4.128,16.162L59,53c-3.791-0.488-7.124-1.488-10-3
			c-0.385-0.304-0.783-0.544-1.178-1.001C53.04,45.297,58.155,41.505,63.885,38.848z"/>
		<path style="fill:#676767;" d="M106.189,40c-0.36,1.335,0.387,3.094-1.071,4c-0.546,0.34-1.188,1.676-2.085,1.866
			c-1.745-0.616-18.09-6.339-16.125-7.965c0.786-0.513,1.397-1.281,2.092-1.9l0.453-1.333c5.788,0.696,11.62,1.133,17.497,1.313
			L106.189,40z"/>
		<path style="fill:#666666;" d="M129,46c1.39,3.873,3.287,7.443,5.691,10.708L132,58c-5.003-2.5-10.74-3.376-15-7l5-7
			c1.107-2.603,2.107-3.27,3-2C127.267,43.198,128.6,44.532,129,46z"/>
		<path style="fill:#515151;" d="M128,60.268c-2.327,0.463-5.851-2.055-8-2.268c-6.058-0.973-11.724-2.639-17-5
			c-1.76,0.877-3.094-0.789-4-5c-0.128-0.769-0.223-1.638,0.516-2.027c0.852-0.448,1.107,0.444,1.837,0.755l28.021,11.972
			C129.986,58.962,128.361,60.603,128,60.268z"/>
		<path style="fill:#787878;" d="M60,33c2.132,0.141,4.681-0.382,6.289,2C62.196,38.514,57.81,40.312,54,43
			c-0.436,0.079-1.028,0.127-1.374-0.136c-0.402-0.305-0.551-0.955-0.725-1.728l-2.024-8.975C53.753,31.252,56.791,32.787,60,33z"/>
		<path style="fill:#636363;" d="M70.016,35.742l4.572,4.277c-0.746,1.344-1.235,3.004-1.466,4.981
			c-1.186,2.316-1.195,4.148-0.026,5.498L71.012,53c-0.101,2.301-1.95,3.807-3.116,1.706c-1.235-2.224-2.993-13.869-2.785-16.669
			C65.81,35.999,68.557,36.354,70.016,35.742z"/>
		<path style="fill:#888888;" d="M67.108,32.407c-0.365,0.256-0.69,0.474-0.999,0.561C63.857,33.599,64.642,29.441,63,28
			c0.668-2.099-1.159-4.656-0.739-7.101c0.365-2.125,4.691-2.107,6.776-1.751L67.108,32.407z"/>
		<path style="fill:#B3B3B3;" d="M76,65c1.6,1.764,4.895,1.987,7,2c0.02,0.661-0.063,1.343,0,2c-0.703,2.757-4.415,1.417-6,0
			c-3.423,0.448-6.28,1.804-8.572,4.068l-2.318-0.175C70.734,67.181,54.952,69.702,44,66c-0.873-0.284-0.86-0.618,0-1l1.408-1.807
			c8.443,1.783,16.88,2.744,25.309,2.882C72.808,64.739,74.569,64.38,76,65z"/>
		<path style="fill:#848484;" d="M73,19c1.288,0.462,2.084,11.494-0.393,12.397c-1.425,0.52-3.811,3.759-4.551,1.075
			c1.466-4.094,1.631-8.553,2.07-14.031C70.81,17.8,71.9,19.219,73,19z"/>
		<path style="fill:#5C5C5C;" d="M81.042,41.995L81,46c0.251,0.67,0.404,1.227,0.217,1.388c-0.367,0.315-8.293,3.845-8.776,3.879
			c-0.649,0.045-0.122-5.52,0.68-6.267c0.567-1.928,0.74-3.947,0.521-6.056C73.97,38.673,81.175,40.886,81.042,41.995z"/>
		<path style="fill:#D8D8D8;" d="M150,59c-0.979,1.747-3.03,2.876-3,5c-0.554-0.324-1.407-0.779-2-1l-0.109-1.32
			C140.937,60.31,136.974,59.083,133,58c-0.294-0.08-0.733,0.134-1,0c2.892-2.971-3.613-7.471-3-12c2.906,2.119,2.664,7,5.626,9.471
			C136.25,56.826,147.533,61.419,150,59z"/>
		<path style="fill:#3F3F3F;" d="M80.15,39c0.185,0.79,0.313,1.408,0.242,1.418c-1.798,0.256-3.454-0.224-5.136-0.722
			c-0.314-0.093-0.746,0.209-1.211,0.625c0,0-1.343-1.526-4.028-4.578c1-0.785,1.651-4.257,4.048-3.432
			C76.958,33.307,79.354,36.351,80.15,39z"/>
		<path style="fill:#C4C4C4;" d="M90,15c-0.009,0.399,0.633,0.957,1,1c1.874-2.164,2.659-1.781,2,1c-0.308,0.452-0.642,0.439-1,0
			l-1.504,1.985l-10.575-0.048C77.851,18.083,77.451,15.207,75,15c-0.21-2.266-0.65-5.436,1-7c0.009,2.011-0.376,4.193,0.58,6.652
			C81.235,15.457,85.659,14.796,90,15z"/>
		<path style="fill:#BEBEBE;" d="M71.012,53c-0.029,1.332,0.146,2.668-0.012,4c-2.738,1.511-12.117-0.09-12-4
			c2.55-0.161,4.935,0.587,8.221,1.191l-3.337-15.343c0.385-0.179,0.878-0.593,1.226-0.811c0.113,5.664,2.825,10.835,3.987,17.039
			C70.361,54.545,70.208,53.459,71.012,53z"/>
		<path style="fill:#757575;" d="M87,62.029c3.346-0.967,0.939,7.332-1,8.971c-0.262,0.982,0.721,2.792-0.891,3.037
			C84.394,70.581,86.242,67.09,84,65c0.115-0.897-0.186-2.197,0.745-2.714C85.444,61.897,86.329,62.078,87,62.029z"/>
		<path style="fill:#BCBCBC;" d="M81,46l1,3c-1.098-1.075-2.456-0.869-4.015,0.021L71.012,53c0.061-2.769,0.131-5.924,2.11-8
			c-0.217,1.474-0.103,2.989-0.001,5.054L81,46z"/>
		<path style="fill:#7B7B7B;" d="M145,63c-4.039-1.503-8.338-2.718-12-5c0.802-0.634,1.833-0.642,3.097-0.21l9.023,3.08
			c0.827,0.282,1.083,1.036,0.903,1.559C145.899,62.789,145.576,63.13,145,63z"/>
		<path style="fill:#BABABA;" d="M80.15,39c0.322,1.071,0.906,1.689,0.892,2.995c-1.959-0.695-4.016-1.535-6.39-1.744
			c-0.626,2.1-0.527,3.697-1.53,4.749c0.538-3.652-0.79-6.428-3.106-9.258C73.747,37.134,76.522,41.572,80.15,39z"/>
		<path style="fill:#B5B5B5;" d="M134.268,61.147c-1.38,3.955,0.403,7.22,1.732,10.853c-2.073,1.966-4.264,0.286-5-2
			c1.443-2.724,1.601-6.202,0-8.874C131.926,60.83,133.308,61.033,134.268,61.147z"/>
		<path style="fill:#C6C6C6;" d="M91.06,60.06C92.627,62.338,90.545,72.632,87,71h-1c0.772-2.897,3.218-6.406,1-8.971V61
			c-0.391-0.84-0.012-1.141,1-1L91.06,60.06z"/>
		<path style="fill:#717171;" d="M88,60c-0.297,0.368-0.632,0.703-1,1c-0.82,0.109-1.561,0.018-2.251-0.077
			c-0.949-0.131-0.978-1.246-0.579-1.973c0.169-0.308,0.454-0.555,0.843-0.869C85.378,59.426,86.683,59.974,88,60z"/>
		<path style="fill:#CCCCCC;" d="M110,103h-3c-2.56-4.686-9.892-1.939-12.702,2.161c-0.944,1.377-2.502,1.375-3.298,1.839
			l6.118-6.768C93.296,99.488,89.78,100.757,87,99c-0.037-0.324-0.015-0.674,0-1l0.22-1.371c2.859-0.401,5.995,0.018,9.408,1.255
			c1.88-0.79,4.288-0.736,7.224,0.163l3.866-15.189L110,82l1.926,2.083l-2.767,15.199C110.934,100.018,111.385,101.381,110,103z"/>
		<path style="fill:#CDCDCD;" d="M104,110c0.105-2.499,1.008-5.433,3-7C107.301,105.769,105.636,107.989,104,110z"/>
		<path style="fill:#5F5F5F;" d="M83,69c0.41,4.253,1.684,8.323,0.176,12.451C83.053,82.592,81.872,82.682,81,83l-3,4
			c-0.645,0.631-1.229,1.32-1.722,2.076C74.625,89.949,72.809,89.953,71,90c-4.607-2.55-6.342,0.678-6-3
			c-0.591-0.512-1.412-1.325-1.166-1.857c0.855-1.85,9.411-14.824,10.698-16.048L77,69C78.823,67.475,80.945,68.654,83,69z"/>
		<path style="fill:#BEBEBE;" d="M78,87c0.119-1.817,1.278-3.371,3-4C81.004,84.877,79.68,86.306,78,87z"/>
		<path style="fill:#D8D8D8;" d="M130,44l-1,2c-1.566-1.142-3.169-2.142-4-4L130,44z"/>
		<path style="fill:#C8C8C8;" d="M35,145c-0.655,1.705-2.159,2.908-4,3C31.678,146.334,33.158,145.021,35,145z"/>
		<path style="fill:#D4D4D4;" d="M19,15c-1.886-0.008-3.293-1.303-4-3C16.865,12.126,18.165,13.33,19,15z"/>
		<path style="fill:#CDCDCD;" d="M67.947,157.858c0.793,5.135,1.736,10.315,2.829,15.54c0,0,0.408,0.867,1.224,2.602
			c-0.807,1.606-2.709,0.66-4,1.118c-1.911-5.103-0.773-11.593-3.601-16.593c-1.45-2.563-5.254,1.052-6.399,2.475
			c0.038-1.563,1.48-3.399,1-5C61.766,159.801,64.751,158.435,67.947,157.858z"/>
		<path style="fill:#CECECE;" d="M74,119.848c2.846,0.834,5.826,2.114,8,4.152c-3.187,0.247-5.777-2.471-8.869-2.869l-1.163-0.15
			C72.576,120.803,73.146,119.598,74,119.848z"/>
		<path style="fill:#717171;" d="M36,11c3.851-1.543,11.265,2.775,11,7c2.042,1.785,1.836,7.976-1,7l-11.858-1.54
			c-2.736,1.374-3.746,0.656-3.028-2.154C30.397,18.808,29.692,16.373,29,14l2.68-5.238L36,11z"/>
		<path style="fill:#7A7A7A;" d="M58.241,7c-0.51,0.773-0.348,2.435-1.241,3c-4.537,2.866-6.799,8.031-10,8
			c-3.076-2.688-6.835-4.842-11-7c-0.071-0.43-0.155-1.062,0.085-1.42c0.333-0.497,1.038-0.466,1.859-0.591L55.45,6.336
			C56.744,6.14,57.763,5.905,58.241,7z"/>
		<path style="fill:#6A6A6A;" d="M46,25c1.358,0.695,2.529,2.965,3.311,4.314c0.752,1.297-0.449,2.945-1.432,4.087
			C48.99,36.417,46.437,37.784,44,36h-3c-1.723,1.997-2.174,1.427-2-1c-2.689,0.037-3.049-1.184-1-3
			c-2.218-2.806-3.704-5.689-4.457-8.649L46,25z"/>
		<path style="fill:#686868;" d="M52,44c-1.262,0.621-2.682,3.307-4.287,2.439c-2.157-1.167-4.539-2.466-4.729-4.002
			C42.686,40.026,42.951,37.677,44,36c1.145-0.979,2.883-1.441,3.879-2.598L52,44z"/>
		<path style="fill:#BCBCBC;" d="M16,61c-0.295,0.008-0.737,0.123-1,0c-1.32-0.618-2.913-0.864-4-1.886
			c5.902,0.06,2.378-5.425,7-12.114c0.534,0.296,1.016,0.627,1.314,1.079C20.543,49.943,17.942,59.414,16,61z"/>
		<path style="fill:#5F5F5F;" d="M87,165l0.441,8.761c0.167,3.321-4.929,4.393-7.441,4.13l-5.147-1.745
			c-0.42-0.557-1.383-0.68-1.853-1.202c-1.222-2.354-0.511-4.111,2-4.945c1.049-0.725,2.564-1.557,3.11-2.89
			c0.17-0.416,0.623-0.741,0.89-1.11l5-4C85.215,162.149,86.586,163.888,87,165z"/>
		<path style="fill:#9D9D9D;" d="M101.756,145.614c1.016,0.341,2.184,0.325,3.244,0.386c2.38,0.976,4.613,8.602,3.481,8.944
			c-0.829,0.251-1.85,0.12-2.481,0.056c-2.206-0.225-4.1,0.848-6.812,1.03l-7.283-9.716c1.49-1.301,3.495-0.931,4.026-2.404
			l1.927-1.439C98.413,143.696,99.712,144.744,101.756,145.614z"/>
		<path style="fill:#555555;" d="M101,157c1.969,1.143,3.636,2.81,5,5c2.578-0.652,3.864,0.289,3,3l1.591,2.144
			c2.736,0.992,1.539,2.611-3.591,4.856l-5.134,2.923c-3.425-1.784-3.073-16.002-2.806-17.315C99.19,156.974,100.089,157,101,157z"
			/>
		<path style="fill:#5D5D5D;" d="M87,165c-0.374-1.114,0.253-2.811,0-4l7-1c1.13-0.247,2.203-0.08,4.021,0.173
			c-0.443,2.993,1.002,6.751-0.76,9.389c-1.501,2.247-4.894,3.034-7.499,4.888L87,165z"/>
		<path style="fill:#5D5D5D;" d="M106,157c0.372-0.79,4.465-0.791,5.103-0.319c3.782,2.797,8.921,8.347,10.897,12.319
			c-1.749,3.742-3.416,4.409-5,2c-3.824-1.141-6.07-2.376-8-6c-0.828-0.717-2.74-1.815-3-3c-1.775-1.609-2.775-3.275-3-5
			C103.932,157,105.145,156.828,106,157z"/>
		<path style="fill:#C6C6C6;" d="M112,156c2.872,0.732,5.266,2.379,7.18,4.942c0.941,2.654,2.214,4.006,3.82,4.058l1.455-1.643
			c-0.965-2.901-0.482-4.674,1.45-5.32L127,158l1.988,0.822c-0.409,2.347-0.072,4.406,1.012,6.178v1c-0.799,2.138-6.119,4.55-8,3
			c-3.228-4.146-7.211-7.834-11.368-11.638c-1.162-1.063-3.583-0.15-4.632-0.362v-1H112z"/>
		<path style="fill:#8A8A8A;" d="M98.78,174.995c0.836,1.055,0.479,1.565-0.78,1.005c-0.328,2.034-2.582,2.115-4,1
			c-0.489-0.027-1.164-0.085-1-0.748c0.118-2.497,2.749-4.733,5.288-4.772C99.057,172.342,98.848,174.206,98.78,174.995z"/>
		<path style="fill:#929292;" d="M98.667,181c0.067-0.743-0.522-1.345-0.667-2c-2.756-1.033-2.756-2.033,0-3
			c-0.047-0.382,0.205-1.505,0.78-1.005c1.744,1.293,2.855,3.39,3.337,5.833C100.501,181.206,99.618,180.95,98.667,181z"/>
		<path style="fill:#C6C6C6;" d="M103,157c1.267,1.664,2.558,2.983,3,5c-2.047-1.211-3.789-2.953-5-5H103z"/>
		<path style="fill:#C0C0C0;" d="M117,171c-3.615-1.337-6.534-0.401-10,1c0.775-1.455,2.097-2.093,4.126-3.311
			c-1.171-1.124-2.083-2.251-2.126-3.689C111.532,167.194,114.262,169.074,117,171z"/>
		<path style="fill:#C5C5C5;" d="M121,176c-1.221-0.858-2.677-0.431-4,0c0.702-0.572,1.482-1.948,1.846-2.711
			c0.422-0.882-1.214-1.844-1.846-2.289c1.693,0.626,3.763-1.028,5-2C124.387,170.695,122.359,174.09,121,176z"/>
		<path style="fill:#C1C1C1;" d="M107,172c-0.968,1.818-3.059,3.268-5.134,2.923C102.56,172.698,105.194,172.73,107,172z"/>
		<path style="fill:#C1C1C1;" d="M137,149c0.533-0.444,0.866-0.111,1,1c0.271,0.615,0.907,1.342,1,2c-0.309,2.819-2.099,2.482-3,0
			c-2.381,0.307-3.002-0.853-2-3C133.758,146.61,134.758,146.61,137,149z"/>
		<path style="fill:#CBCBCB;" d="M142,152v1c-2.734-0.038-2.085,2.963-2,5c-0.459,0.028-1.163-0.609-1.15-1.06
			c-3.086,0.084-2.234-4.257,0.15-4.94C139.975,151.834,141.013,152.077,142,152z"/>
		<path style="fill:#BCBCBC;" d="M138,147v3c-0.178-0.404-0.728-0.643-1-1c-3.3-0.599-4.599-1.292-2-4
			C135.865,145.816,137.083,146.245,138,147z"/>
		<path style="fill:#555555;" d="M37.066,56.961C38.718,55.297,39.536,55.678,39,58l1.469-0.075
			c-0.552,3.499-0.006,5.972,1.638,7.418C40.895,66.127,40.192,67.346,40,69c-0.298,0.58-0.896,1.797-1.425,2.645
			C34.831,72.136,31.446,73.095,28,73c-1.178-1.439-3.357-2.327-5-3c-0.464-0.962-1.314-1.797-1.928-2.493
			C24.199,65.175,27.391,63.817,29,61L37.066,56.961z"/>
		<path style="fill:#DCDCDC;" d="M127,36c-0.754,0.824-1.96,1.35-2.517,2.047c-1.169,1.464-0.024,2.744,0.517,3.953
			c-0.879,0.658-2.257,1.226-3,2c1.188-2.337,0.726-4.64,0-7C123.565,36.95,125.445,36.265,127,36z"/>
		<path style="fill:#DCDCDC;" d="M122,37c-1.778,0.057-2.982-2.707-3.087-4.063C121.022,33.402,121.471,35.28,122,37z"/>
		<path style="fill:#949494;" d="M114.921,142.171c0.796-2.918,2.777-2.46,3.079,0.575c0.712,0.899,1.771,1.808,1.869,2.809
			c-0.098-0.999-2.68,11.798-9.344,9.502c-1.088-3.096-2.694-6.807-1.525-10.057c0.378-1.05,1.792-1.911,2-3L114.921,142.171z"/>
		<path style="fill:#808080;" d="M122.803,140c-1.376,1.627-2.535,3.852-4.803,2.745c-0.971-0.473-2.03-0.529-3.079-0.575
			c-0.273-1.098-2.567-0.905-2.606-1.683c-0.246-4.802,6.61-5.022,11.673-5.621C123.661,137.173,122.647,138.328,122.803,140z"/>
		<path style="fill:#4B4B4B;" d="M135.226,159.239c0.095,1.174,1.18,3.797-0.262,4.515c-1.786,0.89-4.216-0.434-4.963,1.246
			c-1.003,0.109-2.254,0.297-3.089-0.896L127,158C129.828,157.905,132.626,158.102,135.226,159.239z"/>
		<path style="fill:#606060;" d="M120.97,160l2.03,5c-0.115,0.684-0.131,1.378-0.58,1.998C118.734,162.815,114.789,160,112,156
			c1.996,0,4.44-0.548,6.578,0.578C119.894,157.272,119.91,159.302,120.97,160z"/>
		<path style="fill:#555555;" d="M126,151c1.031,1.179,0.975,2.785-0.168,4.816c-0.822-0.123-6.643,0.039-7.006-3.333
			c-0.091-0.85,0.69-1.678,1.226-2.36C122.01,149.332,126.054,148.25,126,151z"/>
		<path style="fill:#4A4A4A;" d="M125.906,158.037c-0.1,1.683,1.019,7.483-1.355,7.537c-0.441,0.01-1.027-0.264-1.55-0.574l-2.03-5
			c-0.033-1.269-0.312-3.131,1.509-3.092C123.621,156.932,125.028,157.057,125.906,158.037z"/>
		<path style="fill:#5B5B5B;" d="M136,152l-3,4c-1.045,0.598-2.234,1.102-3.514,1.069c-1.055-0.027-1.576-0.972-1.486-2.069
			c0.457-1.919,1.79-3.585,4-5c-0.804-2.813,0.126-2.939,2-1C135.049,149.736,136.013,150.65,136,152z"/>
		<path style="fill:#5D5D5D;" d="M126,142c1.645,2.436,1.645,4.102,0,5c-0.167,3.442-3.332,2.93-6.008,2.121
			c0.411-2.25,1.477-4.299,2.845-6.118C122.987,140.913,124.919,140.384,126,142z"/>
		<path style="fill:#474747;" d="M139,152l-0.15,4.94c-1.942,1.09-4.284,0.592-5.85-0.94l3-4
			C136.822,151.635,138.103,152.153,139,152z"/>
		<path style="fill:#4A4A4A;" d="M132,150c-0.224,2.322-2.021,3.941-4,5h-1c-1.942-2.247,0.71-3.907,3-5
			c-0.745-2.901-0.015-2.801,2-1C132.732,149.29,132.719,149.624,132,150z"/>
		<path style="fill:#484848;" d="M141.016,161.131c-0.528,0.561-0.914,1.229-1.213,1.937c-0.693,0.325-1.219,0.995-2.673,0.984
			c-0.356-1.999-0.11-3.367-0.146-4.798c0.913-0.045,2.03-0.402,3.079,0.142C140.563,159.656,140.892,160.41,141.016,161.131z"/>
		<path style="fill:#C0C0C0;" d="M130,139c1.803,1.917,1.573,2.023-1,2c-0.23,2.538-1.167,2.555-3,1
			c-0.794,0.617-2.369,0.226-3.163,1.003c0.109-1,0.059-2.005-0.034-3.003l2.344-0.147C126.053,137.055,128.197,136.672,130,139z"/>
		<path style="fill:#C9C9C9;" d="M126,151c-1.787-1.087-3.915-1.172-5.948-0.877c0.032-0.325-0.119-0.683-0.06-1.003
			c2.366,0.189,4.682-0.047,6.008-2.121C128.619,147.062,128.717,150.523,126,151z"/>
		<path style="fill:#C5C5C5;" d="M130,150c-1.041,1.927-3.838,2.565-3,5c-0.059,0.82-0.439,0.926-1.168,0.816
			c0.094-1.604,0.168-3.21,0.168-4.816C126.23,148.086,128.478,147.436,130,150z"/>
		<path style="fill:#636363;" d="M28,29c2.236,1.462,1.648,2.198-0.932,1.601c-0.801-0.525-11.792-6.074-11.005-9.399
			C17.98,20.663,18.31,17.817,20,17c2.713-0.843,5.367-1.905,8-3c1.785,2.18,2.881,4.889,3.291,8.126l1.141,0.991
			C30.643,24.272,29.166,26.233,28,29z"/>
		<path style="fill:#D3D3D3;" d="M27,140c-1.275,0.09-2.516-0.129-3.706-1.027c-0.43,1.903-0.343,3.144-1.294,4.027
			c0.066-2.264,0.545-5.136-2-6c1.679-3.052,0.833-6.624,1-10h1l0.135,9.813C23.778,138.268,25.836,138.528,27,140z"/>
		<path style="fill:#CFCFCF;" d="M34,143c-1.903-0.162-3.86-0.21-5-2C30.847,140.977,32.984,141.291,34,143z"/>
		<path style="fill:#5C5C5C;" d="M137.115,167.987c-1.676,3.692-4.299,7.023-5.115,11.013c-1.276-0.574-2.547-1.107-4-1
			c-2.548-1.016-4.689-1.199-6.424-0.55L121,176c-1.736-2.397,0.23-4.44,1-7c2.432-1.91,4.88-3.345,8-3
			c1.736,0.192,3.667-1.7,5.93-0.773C137.061,165.689,137.079,167.158,137.115,167.987z"/>
		<path style="fill:#CFCFCF;" d="M128,178c-1.915,0.14-3.87,0.268-5.824-1.039c-0.395,1.801-0.107,2.849-0.176,4.039
			c-2.534-0.195-0.303-3.695-1-5C123.362,176.472,126.182,176.269,128,178z"/>
		<path style="fill:#505050;" d="M19.155,29.966c0.903,2.801-2.481,4.276-4.255,2.045c-1.824,0.595-2.612-1.372-2.365-5.9L12,24
			c0.088-0.558-0.002-1.139,0.055-1.701C13.642,23.255,22.316,27.719,19.155,29.966z"/>
		<path style="fill:#C5C5C5;" d="M14.9,32.01c1.87,0.491,1.781,1.23-0.1,1.68l-0.929,0.089c-0.605-0.695-1.527-1.271-2.491-1.129
			c0.469-0.339,0.489-0.618-0.087-0.816C13.439,29.862,11.584,26.65,12,24C14.053,24.154,11.924,29.698,14.9,32.01z"/>
		<path style="fill:#5F5F5F;" d="M165,89l1,1c-1.836,3.126-5.863,3.196-9.11,2.11c-1.333-0.445-2.407-1.446-3.412-2.381
			c-0.592-0.849-0.111-1.835,0.522-2.554c1.978-0.719,3.583-1.765,4.815-3.137C160.95,85.576,163.011,87.23,165,89z"/>
		<path style="fill:#BDBDBD;" d="M165,89c-2.372,0.32-3.325-2.76-5.38-3.505c-1.535-0.355-3.803,2.338-5.62,1.68
			c-0.535-0.439-0.151-0.744,0-1.176c1.301-1.442,2.572-2.737,3.813-3.886C160.777,83.6,163.055,86.346,165,89z"/>
		<path style="fill:#525252;" d="M105,76c1.407,1.8,2.81,3.977,5,5c0.873,0.284,0.86,0.618,0,1l-4.486,17.624
			c-2.357,1.297-6.781-0.302-8.886-1.74c-1.696,0.962-3.001-0.014-1.761-1.774c-1.486-1.798-2.058-4.17-1.714-7.115
			c-3.623-1.9-5.469-8.811-2.877-11.995c-0.126-0.789-0.182-1.737,0.724-2c-1.347-1.309-0.708-1.887,1-1
			C97.58,71.867,101.913,72.534,105,76z"/>
		<path style="fill:#595959;" d="M100,72l-0.115,0.815L92,74c-0.278,0.332-0.549,0.869-1,1c-0.821-1.15-3.121-0.702-3.771-1.728
			C86.822,72.631,86.933,71.766,87,71c1.694-0.625,1.717-8.839,4.06-10.94c1.66-1.487,4.47-2.15,5.94-4.06
			c0.928-0.666,3.346-2.28,3.982-0.973c0.357,0.734,0.146,14.099,0.017,16.32C100.986,71.583,100.553,71.795,100,72z"/>
		<path style="fill:#6B6B6B;" d="M90.276,77c0.655,4.091,1.938,7.999,2.877,11.995c1.568,5.529,0.492,6.555-3.228,3.079
			c-1.102,1.599-1.781,1.064-0.99-0.782l-2.792-4.33c-2.007-3.113,0.333-7.924-1.277-11.756C87.573,74.326,89.025,75.529,90.276,77z
			"/>
		<path style="fill:#5D5D5D;" d="M88.934,91.291c0.175,0.272,0.835,0.472,0.99,0.782c2.738,0.894,4.385,2.24,4.942,4.037
			c0.424,0.647,1.086,1.313,1.761,1.774C94.998,100.725,89.769,97.456,87,98c0.096-2.128-0.288-4.308,0.188-6.847
			C87.68,90.852,88.57,91.31,88.934,91.291z"/>
		<path style="fill:#747474;" d="M38,32c0.104,0.984,1.153,1.905,1,3c1.409,3.05-1.516,4.153-2.966,1.178
			c-0.963-0.29-2.091-0.266-3.034-0.409c-2.491-0.98-3.855-3.807-5.932-5.168L28,29c1.235-2.265,2.565-4.415,3.99-6.448
			c1.452,0.854,1.962,1.519,1.53,1.997L38,32z"/>
		<path style="fill:#525252;" d="M21.785,31.06C23.823,30.932,25.358,32.954,23,34c1.615,2.106,1.615,3.106,0,3l-3,4
			c1.196,1.454,0.648,1.992-1,1c-4.122-0.339-2.111-2.152-4.199-8.31c-0.167-0.493,0.203-1.165,0.1-1.68l4.255-2.045
			C20.069,30.235,20.958,30.584,21.785,31.06z"/>
		<path style="fill:#676767;" d="M31.871,36.36c0.181,0.312,0.238,0.64,0.118,0.864c-0.187,0.347-0.901,0.417-0.984,0.643
			C26.8,37.586,24.131,36.297,23,34c0-1.069-0.688-2.041-1.215-2.94C23.615,28.21,30.288,36.852,31.871,36.36z"/>
		<path style="fill:#9D9D9D;" d="M16,67c2.037-0.071,1.357,0.801,0,2c-0.602,0.251-1.349,0.89-2,1c-0.08-1.103,0.166-2.231,1-3H16z"
			/>
		<path style="fill:#525252;" d="M35,165c1.103,0.041,2.144,0.61,3.094,1.108c0.292,0.787,1.372,1.173,0.961,3.003
			c-2.876-0.71-5.235-1.873-6.675-3.85C33.249,165.246,34.136,164.968,35,165z"/>
		<path style="fill:#CCCCCC;" d="M158,111c-0.935,0.005-2.209,1.781-4.171,1.074c0.562,3.99,4.175,4.266,7.171,3.926
			c0.662,0.136,1.564-0.153,2.092,0.798l-6.028,0.296L157,125c-1.204,0.006-2.255,0.039-3-1c0.454-0.081,1.027,0.151,1.462-0.036
			c0.704-0.303,0.397-0.995,0.577-1.972c0.737-3.993-1.535-8.378-5.898-7.964c-2.605,0.247-4.889,1.611-7.106,0.799l9.271-2.721
			c1.252-0.367,0.342-3.404,1.693-4.106C155.831,107.971,157.213,109.418,158,111z"/>
		<path style="fill:#606060;" d="M161,106c1.892-2.05,2.184-1.737,2,1c0.516,0.7,1.3,0.976,2.075,1.667
			c-1.552,0.559-2.449,0.54-3.075,1.333c-1.316,1.003-2.424,0.992-4,1c-1.033,0.034-2.179,0.195-3.364-0.091
			c-1.368-0.33-0.131-2.252-0.636-2.909C156.203,106.856,158.433,105.511,161,106z"/>
		<path style="fill:#5F5F5F;" d="M25,45c1.603-1.485,2.936-0.152,4,4c2.709,0.496,2.709,1.496,0,3
			c3.122,2.07-0.738,7.617-4.045,7.955C22.26,61.565,19.033,60.923,16,61c-1.79-2.009,2.144-8.529,2-14
			C19.646,44.618,22.231,44.773,25,45z"/>
		<path style="fill:#515151;" d="M38.003,52.853C36.275,56.439,32.024,57.557,29,60c-1.242,1.004-2.953,1.293-4.045-0.045
			C26.009,57.147,28.475,55.009,29,52C30.427,48.163,36.003,51.006,38.003,52.853z"/>
		<path style="fill:#454545;" d="M16,69v-2c0-1.495-0.188-2.928,0.1-4.988c3.485,0.076,6.297-0.371,9.991,0.321
			C22.238,64.183,19.754,67.431,16,69z"/>
		<path style="fill:#6D6D6D;" d="M113,16c-1.826,0.343,9.059,12.743,3.364,15.277L108,35c-0.897,1.938-1.997,2.843-2.391,0.498
			l-15.562-0.099C88.973,33.992,87.954,32.325,90,32l2-5l2-5c0.107-2.482,0.774-3.482,2-3l13-6h1L113,16z"/>
		<path style="fill:#E7E7E7;" d="M90,32c-0.085,0.573-0.309,2.927,0.937,2.932L108,35v1c-0.644,1.256-1.441,2.629-1.811,4
			c-0.106-1.135,0.008-2.282-0.383-3.994L89,36c-0.351-2.673-2.887-4.232-3-7C88.331,26.429,89.71,29.507,90,32z"/>
		<path style="fill:#5F5F5F;" d="M31.006,37.866c-0.089,0.627,0.101,1.374,0.154,2.013C33.439,42.332,30.307,45.671,28,43
			c0.556,2.595-0.444,2.928-3,1c-2.316,0.118-5.893,0.908-6-2c0.343-0.276,0.589-0.81,1-1l3-4l0.758-1.065L31.006,37.866z"/>
		<path style="fill:#CACACA;" d="M28,43c2.966-0.468,3.729,5.032,1,6c-2.838-2.743-0.884-3.745-4-4v-1
			C25.922,43.953,27.013,43.163,28,43z"/>
		<path style="fill:#595959;" d="M163,107c-0.684-0.204-1.296-0.866-2-1c-3.054-2.144-3.13-8.513-0.364-11.089
			c2.199-2.047,5.04-2.24,7.374-4C167.961,93.239,165.547,108.936,163,107z"/>
		<path style="fill:#8C8C8C;" d="M109,13l-13,6c-1.21,1.02-2.21,0.353-3-2c-0.623-0.466-1.188-0.906-2-1l0.104-8.185l17.782,2.357
			C109.153,11.287,108.949,12.175,109,13z"/>
		<path style="fill:#616161;" d="M75,170c0.042,1.85-0.695,3.569-2,4.945c-0.304,0.321-0.808,0.673-1,1.055
			c-0.398-1.08-1.655,0.222-2.861-0.283c-0.29-3.273-4.752-17.954-1.192-17.859C70.484,158.376,73.143,167.278,75,170z"/>
		<path style="fill:#D6D6D6;" d="M80,177.892c-1.89-0.198-3.843-0.012-5.147-1.745C76.726,175.898,78.844,176.267,80,177.892z"/>
		<path style="fill:#EAEAEA;" d="M98,179c-0.802-0.534-1.802-1.471-2.847-0.493c-0.553,0.517-0.54,2.134-2.062,2.531
			c-0.461-1.501,0.704-2.651,0.909-4.037c1.408,0.079,2.806-0.241,4-1C98.12,176.969,97.789,178.049,98,179z"/>
		<path style="fill:#5A5A5A;" d="M155,76c0.572,0.44,1.25,1.168,0.858,2c-2.016,4.278-3.657,9.101-6.859,13.231
			c-1.631,2.104-6.015,0.717-7.842-0.231c-2.251,2.003-4.345-9.494-4.3-10.136L138,79c-0.775-2.418-1.024-4.552-0.749-6.401
			l16.728,0.068L155,76z"/>
		<path style="fill:#D5D5D5;" d="M155,72v4c-0.654-0.502-0.822-2.672-1.989-2.908l-15.93,0.11c1.291,2.332,0.963,4.127,0.919,5.799
			c-3.513,1.185-4.685-5.125-2-7H155z"/>
		<path style="fill:#434343;" d="M77,69L65,87c-1.607,2.41-5.805,2.384-7.918,1.665C57.704,87.712,57.877,87.315,58,87
			c2.537-7.104,3.746-6.6,8.11-14.108C68.055,69.546,74.609,65.513,77,69z"/>
		<path style="fill:#CCCCCC;" d="M44,65v1c-2.299-0.777-3.083,1.214-4,3c0.1-3.686,0.93-7.683-1-11c-1.126-1.597,2.548-4.202,4-3
			l1.092,0.876C42.704,59.366,42.674,62.408,44,65z"/>
		<path style="fill:#525252;" d="M131,70c1.937-0.699,3.512,1.428,5,2c0.873,2.385,0.312,4.864,2,7
			c2.601,3.293,1.719,8.191,3.157,12c0.201,0.531-0.159,1.42-0.157,2c0.005,1.51-1.13,2.632-2,3.769
			c-6.797,2.796-13.797,5.206-21,7.231c-0.879,0.059-2.061,1.176-3,1c-0.984-0.317-2.102-0.551-3-1l-2-1
			c-0.202-1.111-2.284-2.159-2.706-3.331C108.008,93.582,110,87.861,110,82v-1c3.53-1.279,6.41-3.948,10-5l7-4
			C128.414,71.594,129.76,70.754,131,70z"/>
		<path style="fill:#C0C0C0;" d="M139,96.769V98c-7.162,1.517-13.672,5.506-21,6C124.616,100.784,131.916,98.83,139,96.769z"/>
		<path style="fill:#DEDEDE;" d="M101,125.965c-1.385,5.375-2.788,11.809-2.806,17.435c1.417,0.793,4.502,0.426,3.562,2.215
			c-1.904-0.639-3.832-1.368-5.825-1.705c0.265-0.838,0.033-1.956,0.093-2.839c1.047,3.144,4.793-17.996,0.922-15.439
			c-1.549,1.231-2.511,2.848-3.92,3.492c0.247-1.665,1.174-2.953,2.047-4.425C97.122,124.708,99.013,125.603,101,125.965z"/>
		<path style="fill:#E1E1E1;" d="M94,160c-1.755,1.922-4.623,0.733-7,1C88.682,158.784,91.753,160.491,94,160z"/>
		<path style="fill:#464646;" d="M157,96c1.498,2.064,1.713,6.011,0.478,8.463c-1.306,2.593-4.202,0.866-5.478-0.463
			c-0.276-0.974-1.352-2.232-2-3c-0.717-2.177,1.282-3.142,3-4C154.237,97.019,156.116,96.837,157,96z"/>
		<path style="fill:#CFCFCF;" d="M154,124c-2.725,0.485-4.835-0.081-7.063-1.039C148.752,123.348,152.581,122.021,154,124z"/>
		<path style="fill:#C2C2C2;" d="M139,132c-0.62,0.931-0.888,2.023-1,3.126c-0.884,2.583-1.449,2.548-2-0.126
			c-3.822-2.609-4.489-4.609-2-6C135.906,129.712,136.627,132.303,139,132z"/>
		<path style="fill:#BCBCBC;" d="M144.183,129c-0.921,1.969-3.157,2.649-5.183,3C140.042,130.193,142.045,128.774,144.183,129z"/>
		<path style="fill:#525252;" d="M134,129c-0.093,3.592,4.4,3.269,2,6c0.521,2.888-3.554,5.836-6,4
			c-1.589,0.454-3.2,0.749-4.853,0.853c-0.511-4.011,1.423-7.775,4.963-9.743c-1.062-1.975,0.294-2.698,1.89-1.11
			C132.602,128.792,133.376,129.144,134,129z"/>
		<path style="fill:#414141;" d="M132,129c-0.67,0.232-1.273,0.768-1.89,1.11c-0.543-0.067-1.32-0.094-1.553-0.689
			c-0.427-1.087,2.097-5.013,2.443-6.422c1.601-0.01,2.246,1.141,2.119,2.46C132.991,126.781,132.688,127.986,132,129z"/>
		<path style="fill:#7E7E7E;" d="M127.533,126.02c1.807-1.612-1.865,7.713-1.608,2.426
			C125.978,127.348,126.374,126.945,127.533,126.02z"/>
		<path style="fill:#D1D1D1;" d="M84,162c-0.955,1.943-2.745,3.857-5,4C80.269,164.244,81.578,161.741,84,162z"/>
		<path style="fill:#434343;" d="M138,135.126c0.175,0.664,0.862,1.21,1,1.874c-1.787,1.616-2.658,4.159-5,5
			c-1.34,0.701-3.007,0.368-5-1c0.291-0.532,0.454-1.637,1-2c2-1.329,3.84-2.936,6-4C136.662,135.097,137.331,135.145,138,135.126z"
			/>
		<path style="fill:#656565;" d="M157.813,82.114c-0.286,0.84,0.522,2.034-0.434,2.762c-0.96,0.731-2.222,0.974-3.379,1.124
			c0.552-1.584,1.145-2.973,2.396-4.992C156.894,81.363,157.295,81.855,157.813,82.114z"/>
		<path style="fill:#BFBFBF;" d="M134,142c0.555,0.908,0.882,1.942,1,3c-2.672,1.728-6.859-0.959-6-4
			C130.706,141.138,132.339,141.53,134,142z"/>
		<path style="fill:#AAAAAA;" d="M100,54c0.05-2.11,0.998-1.71,2,0v18c-0.114,1.368-1.286,1.018-2,0l-0.037-17
			c-1.25,0.501-1.988,1.042-2.963,1C97.799,54.961,98.342,54,100,54z"/>
		<path style="fill:#CACACA;" d="M120,58c-5.73-0.566-11.696-1.566-17-4c-0.873-0.284-0.86-0.618,0-1
			C108.475,55.345,114.734,55.266,120,58z"/>
		<path style="fill:#C4C4C4;" d="M127,72c-1.314,2.56-4.412,3.242-7,4C121.315,73.456,124.405,72.744,127,72z"/>
		<path style="fill:#C6C6C6;" d="M100,72c0.543-0.281,1.415,0.197,2,0l3,4c-1.459,0.024-3.036-2.648-4.521-2.551L92,74
			C94.184,72.061,97.474,73.309,100,72z"/>
		<path style="fill:#D2D2D2;" d="M103,53v1c-0.272-0.125-0.698,0-1,0h-2l-1-6c0.363,0.892,1.821,1.558,1.829,3.17
			C100.838,52.932,102.267,52.686,103,53z"/>
		<path style="fill:#D5D5D5;" d="M86,29c-1.949-0.94-2.748-2.898-3-5C85.767,21.033,89.564,27.181,86,29z"/>
		<path style="fill:#D5D5D5;" d="M83,24c-1.586-0.621-3.47-3.535-3.079-5.063C82.906,16.4,86.411,21.895,83,24z"/>
		<path style="fill:#5C5C5C;" d="M49,51.108c3.307,0.332,6.64,0.962,10,1.892c3.844,2.672,7.278,0.859,12,4
			c1.813,2.415,2.932,5.72,5,8c-2.961,4.071-8.538,3.608-14.037,2.762L44,65c-0.6-0.092-2.253,0.479-2.594-0.239
			C39.695,61.154,41.868,58.068,43,55c-1.043-1.326-0.445-1.771,1.055-0.924C45.855,52.88,46.591,50.08,49,51.108z"/>
		<path style="fill:#B3B3B3;" d="M59,53c-3.373,0.213-6.935-0.585-10-1.892V50C52.261,51.188,56.091,50.977,59,53z"/>
		<path style="fill:#737373;" d="M92,17c2.313,1.094,3.451,2.717,2,5l-2,5l-2,5c-1.896-0.187-2.473-2.263-4-3
			c-0.08-1.957-1.123-4.265-3-5c-0.251-2.095-1.052-4.227-3.079-5.063C80.734,15.766,84.413,17,92,17z"/>
		<path style="fill:#DEDEDE;" d="M96,19c-0.641,0.854-0.926,2.359-2,3c0.073-1.936-0.697-3.543-2-5h1
			C93.961,17.718,94.984,18.364,96,19z"/>
		<path style="fill:#D4D4D4;" d="M46,25c-3.911,0.147-7.635,0.075-12.131-1.185C35.438,27.194,37.681,28.992,38,32
			c-2.882-1.771-3.722-5.153-5.963-8.743C30.124,25.696,30.253,28.244,28,29c2.275-8.287,4.366-3.417,0-15
			c0.286-0.119,0.696,0.074,1,0c1.963,2.31,2.117,5.547,3.224,8.723L46,25z"/>
		<path style="fill:#7E7E7E;" d="M41,36c1.016,1.632,1.319,3.578,0.812,6.06c-1.444-0.487-7.672-4.39-5.778-5.881
			C37.122,36.507,38.366,35.848,39,35C39.858,34.807,40.42,35.677,41,36z"/>
		<path style="fill:#464646;" d="M34.85,41c1.901,2.523,2.058,3.835,0.472,3.935L33,48c0.791,2.798-3.335,3.449-4,1l-1-6
			c1.541-0.255,2.333-2.042,3.16-3.121c0.373-0.487,1.58-0.766,1.978-0.41L34.85,41z"/>
		<path style="fill:#434343;" d="M43.69,46.383c1.693,2.251-3.3,5.019-3.69,1.617l-2.627-3.257c-1.316,0.7-2.156-0.548-2.522-3.743
			C34.588,36.629,43.14,45.719,43.69,46.383z"/>
		<path style="fill:#585858;" d="M44.055,54.076C43.672,54.331,43.368,54.724,43,55l-4,3l-1.934-1.039
			c1.411-2.393,4.116-3.483,6.638-5.069C44.229,53.065,43.942,53.568,44.055,54.076z"/>
		<path style="fill:#6F6F6F;" d="M40,52c-2.074,0.473-2.074-0.527,0-3c-0.873-0.284-0.86-0.618,0-1
			c1.422,0.437,3.036-0.332,3.69-1.617c0.501,0.605,1.479,0.449,2.556,2.052C43.777,49.333,42.393,51.627,40,52z"/>
		<path style="fill:#575757;" d="M129,141c1.515,1.929,4.213,2.315,6,4c0.172,1.543,1.079,2.791,2,4h-3l-2,1v-1l-1.187,0.205
			c-2.212-2.345-3.817-4.747-4.813-7.205C126.985,141.235,127.675,140.893,129,141z"/>
		<path style="fill:#C8C8C8;" d="M123,165c-1.728-0.809-1.984-3.261-2.03-5C122.607,161.077,123.2,163.111,123,165z"/>
		<path style="fill:#BBBBBB;" d="M133,156c-0.349-1.866,1.401-3.289,3-4C135.983,153.788,134.682,155.442,133,156z"/>
		<path style="fill:#C7C7C7;" d="M132,149l-2,1c-1.509-0.246-2.842-1.246-4-3v-5L132,149z"/>
		<path style="fill:#565656;" d="M130,150l-4,1v-4c0.762-1.192,2.154-0.706,2.611-0.055C129.257,147.864,130.512,149.052,130,150z"
			/>
		<path style="fill:#CFCFCF;" d="M94.866,96.11c-2.035-0.789-3.945-2.037-4.942-4.037c0.984-0.039,1.81,0.259,2.913,0.994
			l0.315-4.073C93.687,91.273,95.745,93.454,94.866,96.11z"/>
		<path style="fill:#CCCCCC;" d="M31.006,37.866C28.305,38.716,25.74,36.376,23,37v-3C24.596,36.936,28.618,35.693,31.006,37.866z"
			/>
		<path style="fill:#C5C5C5;" d="M20,41c0.057-1.66,1.252-3.602,3-4C23,38.901,21.633,40.247,20,41z"/>
		<path style="fill:#BFBFBF;" d="M40,49v3c-0.686,0.107-1.638,0.107-1.997,0.853C34.978,51.893,31.772,49.849,29,52
			c0.163-0.935,0.154-2.075,0-3c1.49,1.44,2.631-0.132,4-1C35.471,48.868,37.531,48.992,40,49z"/>
		<path style="fill:#D7D7D7;" d="M109,13c-3.894,2.634-8.308,5.447-13,6C99.843,16.29,104.33,13.647,109,13z"/>
		<path style="fill:#DADADA;" d="M92,27c0.083-1.847,0.238-3.949,2-5C93.927,23.924,93.722,25.835,92,27z"/>
		<path style="fill:#DBDBDB;" d="M90,32c-0.184-1.861,0.39-3.911,2-5C91.922,28.723,91.692,31.205,90,32z"/>
		<path style="fill:#BCBCBC;" d="M40,48l-0.945,1.051C37.138,48.63,35.12,48.279,33,48c0.669-2.424,2.464-4.366,1.85-7
			C35.414,41.048,40,46.267,40,48z"/>
		<path style="fill:#5C5C5C;" d="M40,48v1c-0.894,1.586-2.449,2.478-4.279,1.879C34.461,50.467,32.513,49.764,33,48
			c1.298-0.823,2.471-1.82,3.546-3.047C37.952,46.397,38.708,47.603,40,48z"/>
	</g>
</g>
</svg>
