<?xml version="1.0" encoding="iso-8859-1"?>
<!-- Generator: Adobe Illustrator 30.1.0, SVG Export Plug-In . SVG Version: 9.03 Build 0)  -->
<svg version="1.1" id="Layer_1" xmlns="http://www.w3.org/2000/svg" xmlns:xlink="http://www.w3.org/1999/xlink" x="0px" y="0px"
	 viewBox="0 0 264 123" style="enable-background:new 0 0 264 123;" xml:space="preserve">
<g>
	<g>
		<path style="fill:#FDFDFD;" d="M9,1c2.656,0.319,2.541,1.239,0,2c1.619,1.476,1.286,2.476-1,3c1.587,0.012,1.476,1.522,0,2
			c2.227,0.315,2.722,0.89,0.551,1.458C9.445,11.887,9.261,13.068,8,13c0.77,0.187,1.103,0.52,1,1c0.487,0.305,0.474,0.639,0,1
			c-0.135,2.554-0.421,4.935-0.856,7.144c2.708,0.151,2.777,0.48,0.428,1.911c0.726,1.642,0.028,2.067-1.413,0.951
			c-0.779,2.42-0.469,4.907,0.931,7.46C7.267,35.056,7.237,37.234,8,39c0.184,1.839-1.173,5.162-3,6c0.873,0.284,0.86,0.618,0,1
			c1.524,1.844,1.491,4.134-1,5c1.928,0.294,1.816,1.086,0,2c1.568,0.254,2.092,1.203,2.257,2.69
			c1.988-0.49,1.992-0.152,0.013,1.016c-0.146,0.872-1.667,0.68-1.575,0.67c2.494-0.276,5.041-0.502,3.317,2.372
			c-0.571,1.746-1.43,1.659-2.851,1.326C5.495,66.09,4.441,70.066,2,73c0.872,0.186,0.835,0.526,0,1
			c2.772,1.047,2.233,4.632,0.15,6.176c0.871,1.281,2.225,2.036,4.064,2.265L6.05,83.984c3.446,0.033,6.879,1.734,10.298,5.103
			c3.498,1.416,5.772,3.42,6.823,6.013c3.046-0.833,6.781,2.839,7.696,5.651c0.646-0.105,1.024,0.365,1.136,1.409
			c2.011-1.785,4.48,0.242,5.785,1.991c1.955,0.749,4.277,1.999,5.129,3.977c2.634-0.108,5.355,2.257,5.892,4.806
			c0.732-0.804,1.118-0.443,1.157,1.084c1.898-1.266,3.768-0.427,3.942,1.995c1.358-0.27,2.953,0.369,4.785,1.92
			c1.899-1.213,3.717-1.839,5.454-1.878c0.515-1.882,1.343-1.902,1.853,0.003c0.457-1.728,1.124-2.112,2-1.152
			c-0.989-1.566,0.344-2.941,2.075-2.801l1.109-2.175c4.468-1.53,8.628-3.718,12.48-6.564L86,104
			c-0.673-2.851,2.602-4.522,5.129-4.047c0.631-0.801,1.942-1.101,3.934-0.9c-0.166-0.459-0.293-0.918-0.286-1.375
			c0.008-0.55,7.682-4.802,9.351-5.292c1.664-2.118,5.269-4.192,7.848-5.024c0.517-1.188,2.172-1.172,3.024-0.362
			c0.473-1.891,2.14-2.858,5-2.9c-0.075-0.554,0.592-0.92,2-1.1c0.02-2.227,0.944-4.841,2.868-6.091
			c0.162-0.914,0.55-0.968,1.15-0.217c1.918,1.175,4.223,1.26,3.982-1.278c0.088-0.974,0.433-1.079,1.034-0.31
			c-0.104-1.515,0.492-1.623,1.788-0.324l1.343-0.595c0.414-1.521,1.706-2.386,3.875-2.596c1.739-1.592,3.359-2.095,4.862-1.509
			c0.412-2.421,2.688-3.482,4.945-2.861c0.344-0.433,0.727-0.476,1.15-0.123c-0.333-2.255,1.65-4.097,5.949-5.526
			c2.834-2.348,5.185-2.872,7.053-1.571c0.137-1.223,0.523-1.657,1.16-1.302c0.349-1.573,1.73-2.773,4.141-3.6
			c0.856-1.185,1.756-2.263,2.701-3.235c0.116-1.869,0.901-1.828,1.312,0.063c1.232-0.118,2.731-1.189,4.499-3.212l2.1,1.186
			c-0.272-1.984,2.38-3.422,4.268-3.018l0.813-2.149c4.952-2.58,9.954-4.491,15.006-5.733c-0.724-1.209-0.098-1.932,1.877-2.168
			c-1.367-1.355-0.841-1.877,0.934-0.992c0.253-0.566,0.602-0.594,1.039-0.123c0.992-2.882,5.213-6.35,8.15-4.593
			c-0.756-1.593-0.399-2.097,1.113-1.042c0.251-2.32,1.91-3.153,4.084-2.769c0.08-0.905,0.391-0.936,0.916-0.15
			c0.875-2.627,6.594-6.776,8.887-4.163c0.047-1.284,0.431-1.716,1.152-1.297c0.959-3.467,8.463-8.28,11.848-6.572
			c-0.862-2.522-0.165-2.703,2-1.268l-0.434-1.334c1.827-1.253,3.01-2.998,3.55-5.235c1.137,0.077,2.48,0.38,4.031,0.909
			c2.805-4.091,6.422-5.812,10.853-5.163c0.435-1.146,1.102-1.826,2-2.042c0.719,0,1.696-0.18,2.486,0.043
			c0.818,0.23,0.618,1.615,0.472,2.432c-0.136,0.762-1.314,0.519-2.499,1.215L59,123h-3L2.939,85.085
			C1.873,84.323,0.814,84.194,0,84v-9L6.924,4.014C7.04,2.817,6.757,1.685,7.52,1.06C7.829,0.807,8.548,1,9,1z"/>
		<path style="fill:#F2F2F2;" d="M260,1c0.058,0.424,0.054,0.939-0.143,1.394c-0.326,0.75-1.302,0.389-1.857,0.648
			C253.05,3.306,247.691,3.971,243,5c1.276,1.399,1.315,2.164,0.116,2.295c-1.308,1.798-3.064,0.731-5.267-3.201
			C235.144,4.271,232.861,3.906,231,3c-1.216,2.396-7.13,1.361-8-1c-0.552,1.976-1.438,1.966-2,0l-0.872,1.776
			c-5.964-0.319-11.584-0.022-16.859,0.893L201,4c-0.883-0.859-1.788-0.841-2.715,0.052l-13.882-0.203
			C181.313,4.643,178.845,4.36,177,3c-0.261,0.932-0.595,0.914-1,0c-3.899,0.676-7.918,1.151-12.057,1.426L162,3
			c-0.285,0.543-0.62,0.523-1,0l-3.351,1.315c-7.185-0.506-14.398-0.573-21.638-0.203L134,2c-0.001,1.589-2.277,0.995-3,0
			l-3.775,2.014C118.686,4.094,110.278,4.089,102,4c-6.832-0.106-13.832-0.106-21,0c-0.284,0.873-0.618,0.86-1,0
			c-2.634-0.946-4.395,1.474-5.284,7.261c-0.874,0.467-1.747,0.37-2.618-0.177L72,10c-2.423-1.148-1.801-4.682,1-5l-1.463-1.822
			C67.046,5.031,63.866,4.639,62,2c-0.187,0.864-0.527,0.827-1,0c-0.597,1.601-2.597,1.935-6,1c-1.409,2.286-5.475,1.694-6-1
			c-0.284,0.873-0.618,0.86-1,0c-1.143,2.713-7.169,1.94-9,0c-0.284,0.873-0.618,0.86-1,0c-1.083,3.66-7.494,2.148-10,0
			c0.287,1.44-0.379,1.44-2,0c-0.172,2.866-4.108,2.006-6.071,1.281C20.469,4.594,20.24,4.798,19,4c-0.331,0.852-0.665,0.851-1,0
			c-1.17,0.031-2.256-0.003-3-1c-1.201,0.265-2.709,0.296-4,0c-0.375,2.708-1.047,2.471-2,0V1H260z"/>
		<path style="fill:#E1E1E1;" d="M72.097,11.084l1.642,2.09c-2.595,6.707-4.82,13.494-6.674,20.36L65,35c0.873,0.284,0.86,0.618,0,1
			l-3.882,11.141c1.821,1.499,3.995,2.568,6.522,3.208L69,53c0.254-1.312,0.896-1.227,1.927,0.255
			C73.568,51.876,79.637,49.352,81,53l-0.396,2.121c-2.049,0.469-3.584,1.102-4.604,1.901c-0.71,2.344-5.855,4.276-7.866,2.805
			c-1.396-0.182-2.19-1.646-2.383-4.392C63.235,53.793,60.984,53.315,59,54c0.668,3.671,0.334,7.004-1,10
			c0.873,0.284,0.86,0.618,0,1l-1.861,12.412L54,79c1.714,1.952,1.552,2.27-1,2c1.708,1.388,2.374,3.724,2,7.008l-0.121,1.994
			C58.37,92.821,60.41,96.153,61,100c0.704-0.036,1.037,0.297,1,1l2.238-0.333c2.257,2.684,4.177,5.462,5.762,8.333
			c3.108,0.614,3.113,2.132,0.075,3.104c-1.161,0.521-1.853,1.454-2.075,2.801c-0.662,0.369-0.982,1.354-2,1.152
			c-1.783-1.281-2.471-3.551-2.064-6.81C62.84,108.289,62.195,107.207,62,106c-0.85-0.249-0.828-0.584,0-1
			c-2.678-1.276-5.012-2.942-7-5c-0.873-0.284-0.86-0.618,0-1c-0.168-1.304,1.246-1.619,2.024-1.029
			c0.534,0.404-4.346,0.691-3.053-2.658c-2.143,0.578-2.483-0.316-2.958-2.082c-1.47,2.195-3.053,3.467-4.748,3.817
			c1.372,2.969-5.821,8.803-8.478,7.104c-3.522-1.679,1.042-7.296,4.22-6.288c0.523-1.637,1.704-3.436,3.543-5.399l-0.729-2.05
			C47.772,87.89,49.831,84.752,51,81c-0.613-0.318-0.607-0.651,0-1c-0.468-3.5-0.078-11.966,4-13c-0.811-0.321-0.808-0.654,0-1
			l-1.761-2.5l2.37-11.644C55,50.557,54.797,49.272,55,48c-0.873-0.284-0.86-0.618,0-1c3.111-7.403,4.666-11.105,4.666-11.105L62,35
			l-1.082-2.715c1.961-5.927,4.361-11.363,7.2-16.309C67.566,13.511,68.938,9.143,72,10C71.975,10.352,72.15,10.736,72.097,11.084z"
			/>
		<path style="fill:#606060;" d="M223,8c1.607,5.069,2.274,10.069,2,15c-3.284,0.773-5.428,4.297-8.887,4.163
			c-2.136-2.958-4.152-6.074-6.049-9.348L213,14l5-6c-1.146-2.509-0.539-2.819,2-2C221.423,2.429,222.423,3.096,223,8z"/>
		<path style="fill:#5F5F5F;" d="M231,3l7.658,10.998L238,15.131c-4.014,2.083-7.611,4.943-11.848,6.572
			C224.921,17.299,223.87,12.732,223,8c-1.574-2.953-1.574-4.953,0-6C225.72,1.529,228.571,2.24,231,3z"/>
		<path style="fill:#505050;" d="M15,81l7,3l7.352,3.101c1.3,3.322,1.182,5.288-0.352,5.899c-0.104,2.856-3.863,3.901-5.829,2.1
			c-6.248-2.592-11.711-7-17.121-11.115l-1.7-1.886c3.332-0.645,6.484-1.688,9.455-3.128L15,81z"/>
		<path style="fill:#DBDBDB;" d="M25,15.367c-1.339,1.889-1.46,2.184-0.364,0.883l1.375,5.362c1.89,0.741,3.388,2.579,4.494,5.514
			c1.887,1.79,3.036,3.693,3.446,5.709c2.256,1.884,8.809,9.281,5.044,11.278c-1.891,1.668-3.637,2.197-5.238,1.587
			c-1.565-1.753-3.599-3.369-6.103-4.849l0.232-2.693c0.413-1.653,1.058-2.034,2.532-1.592c-0.609-1.939-2.99-4.648-4.472-4.43
			c-0.872,0.128-1.587-0.572-2.077-1.376l-1.503-1.532c0.531-4.936-2.98-6.662-10.534-5.178c-1.741-0.164-2.97-0.799-3.687-1.905
			C7.135,19.396,7.507,17.667,10,20c4.546-0.765,4.546-0.765,0,0c-1.86-1.159-1.468-3.139-1-5v-1c0.861-0.057,1.861-0.057,3,0
			c0.143-2.081,1.037-1.57,2,0.112c1.59,1.541,3.807,1.98,5.919,1.717c-1.038-1.516-1.338-3.306-0.9-5.37
			c-1.771-0.149-1.842-0.842-0.04-1.347L19,4c0.585,0.139,0.7-0.316,0.929-0.719c2.594,0.308,3.889,2.582,3.884,6.823
			C25.542,12.162,25.937,13.917,25,15.367z"/>
		<path style="fill:#DFDFDF;" d="M119.913,59.069c2.279,1.62,2.023,2.6-0.766,2.876c-1.129,2.536-2.721,4.871-4.775,7.005
			l-2.341-0.852c-1.698-0.064-1.698-0.064,0,0c0.951,0.198,1.593,0.854,1.925,1.968c3.102-0.604,5.116,0.041,6.044,1.934
			c1.456,2.039,0.155,3.103-3.906,3.191c1.091,1.423,1.551,2.401-0.094,3.809c2.251,0.977,4.251,2.311,6,4
			c-0.663,0.223-1.162,1.157-2,1.1c-2.165,1.216-3.831,1.182-5-0.1c-1.32-0.52-2.32-1.853-3-4c-0.419-2.678-0.419-2.678,0,0
			c0.793,1.883,1.793,3.217,3,4c1.762,0.316,1.762,1.316,0,3c-0.697,1.082-2.044,1.089-3.024,0.362
			c-2.97,0.649-4.294-2.531-1.976-4.362c-2.872,0.111-3.205-0.556-1-2l-1.166-0.35c-1.775-3.523-3.382-7.141-4.82-10.854
			c-0.316,0.676-0.665,0.659-1.047-0.01C97.566,70.83,91.124,66.44,88,63c-1.185,2.083-2.629,1.494-2-1
			c-2.026,2.314-3.775,1.001-3-2l1.657-1.812c5.42,1.123,9.865,3.426,13.335,6.907c0.504-1.824,1.107-1.487,1.961,0.108
			c1.819,0.176,3.712,0.669,5.68,1.479l11.661-8.7L119.913,59.069z"/>
		<path style="fill:#393939;" d="M22,61c1.287,3.221-3.802,5.692-6,3c-0.549,2.109-1.549,1.775-3-1
			c-2.345,2.367-6.601-0.148-4.987-3.252c-0.857-1.379-1.391-2.333-4.15-1.707c0.401-1.568,1.595-1.324,2.408-1.335l0.701-1.133
			c3.011-0.212,5.907-0.913,8.688-2.103c0.969-1.193,7.254-2.81,8.193-2.333c0.068,0.035-0.22,0.638-0.611,1.405
			c0.259,1.419,0.684,8.08-0.023,8.457C22.903,61.168,22.468,61.116,22,61z"/>
		<path style="fill:#434343;" d="M79.803,98.094c2.431-1.025,6.11,3.528,6.197,5.906c-4.873,3.358-9.964,7.31-15.925,8.104
			c0.63-0.999-0.059-2.081-0.075-3.104c-0.631-3.879,3.151-10.06,7-11C76.092,95.664,80.678,95.609,79.803,98.094z"/>
		<path style="fill:#3E3E3E;" d="M161,56c1.848,0.268,1.803,2.419,1,4l-13.003,7.097c-1.68-0.722-4.987-2.378-3.997-4.097
			c-1.574-1.984-0.577-3.403,2-3l1.596-2.882l9.014-1.495C159.151,54.525,160.281,54.65,161,56z"/>
		<path style="fill:#545454;" d="M2.15,80.176C1.115,78.269,2.056,76.086,2,74c4.385-2.397,8.874-4.778,13.466-7.144
			c-0.404,2.243,0.079,3.721,1.447,4.434c-2.126,1.678-3.07,5.695-3.303,8.522c-0.201,0.382-7.819,2.421-8.251,2.425
			C4.285,82.246,2.36,81.412,2.15,80.176z"/>
		<path style="fill:#4F4F4F;" d="M8.013,59.748C8.985,61.313,11.47,62.179,13,63c1.683,0.512,2.748,2.905,1.885,4.337
			C14.516,67.948,3.685,73.124,2,73l1.429-14.784C5.6,58.47,6.604,59.487,8.013,59.748z"/>
		<path style="fill:#717171;" d="M8.572,24.055C11.543,22.717,18.159,25.846,19,29c5.315,1.948,5.491,5.166,0.529,9.654
			c-2.361-1.64-5.124-2.347-8.287-2.122L11,34c-2.75,0.478-3.111-0.181-1-2l-2.841-6.994C7.568,24.586,7.956,24.151,8.572,24.055z"
			/>
		<path style="fill:#DCDCDC;" d="M47,46c2.089,1.494-0.138,2.04-2,1.131l-0.998,1.974c0.499,2.731-0.15,4.378-1.947,4.94
			c-3.231,2.217-3.312-2-3.121-4.739c-4.406,1.24-8.753,2.581-13.04,4.023C26.726,57.589,26.095,60.48,24,62
			c-1.678,2.52-3.007,1.864-2-1c2.256-1.921,0.976-6.921,0.386-9.133c-4.788,0.865-7.421,3.724-11.427,4.826
			C9.45,57.108,7.37,55.292,6.27,56.706c0.539-0.384,0.704-0.737-0.013-1.016l-0.813-1.387l6.63-2.231
			c1.14-1.549,3.999-3.35,5.925-2.073c0.697,0.521,1.419,0.629,2.165,0.323C20.955,48.814,22.432,48.397,24,48
			c2.274-1.343,5.954-1.808,8,0c-0.885-0.764-0.588-1.549,0.892-2.354c0.271-0.825,0.559-0.792,0.864,0.053
			c1.71,0.161,3.456-0.368,5.238-1.587C40.728,42.499,46.376,43.595,47,46z"/>
		<path style="fill:#6A6A6A;" d="M23.868,30.76C22.436,31.166,20.813,30.579,19,29c-3.708-0.937-7.163-2.978-10.428-4.945
			l-0.428-1.911c3.72,0.164,7.753-0.696,12.022-0.055C24.06,22.673,25.493,27.843,23.868,30.76z"/>
		<path style="fill:#5F5F5F;" d="M87,93c2.316-1.702,3.016-0.907,2.089,1.803c2.162,1.186,3.634,3.117,2.039,5.15
			C89.98,102.252,87.732,102.807,86,104c-2.494-0.589-5.248-3.93-6.197-5.906C77.649,97.21,78.048,96.179,81,95
			c-1.273-2.511,0.949-4.153,3-2C85.097,90.486,86.097,90.486,87,93z"/>
		<path style="fill:#737373;" d="M243.116,7.295c0.517,1.461,1.739,3.132,0.371,4.562c-0.834,0.871-2.447,1.139-3.487,2.007
			l-1.179,0.399L231,3c2.136-0.788,5.753-2.234,8.446-0.243C240.997,3.903,241.263,6.689,243.116,7.295z"/>
		<path style="fill:#DFDFDF;" d="M177,3c3.61-0.364,7.739,7.825,8.892,11.186l-0.756,2.619c-0.219,0.873-0.572,0.927-1.06,0.168
			C184.61,19.879,183.51,25.997,180,26c0.849,0.277,0.834,0.612,0,1c0.162,4.014-0.809,9.706-3,13
			c-0.444,1.562-0.417,2.881,0.081,3.959c0.588,1.098,0.206,2.157-1.146,3.177c-1.111,2.739-2.651,4.336-4.62,4.791
			c-0.395-0.123-0.992,0.18-1.312-0.063c-1.203,1.503-1.777,1.035-1.085-0.824c-2.276-1.762,0.673-4.633,2.193-6.1
			c-0.231-1.336-0.347-2.004-0.347-2.004c0.372-1.331,4.444-12.813,5.06-13.16c0.687-0.387,1.374-0.712,2.177-0.775
			c-0.816-0.262-0.796-0.597,0-1c-2.656-0.319-2.541-1.239,0-2c-1.242-1.456-0.637-2.002,1-1c-1.491-2.185-1.216-4.791,0.826-7.818
			c0.177-3.693-1.305-7.241-4.445-10.645L176,4c-0.311,0.415-0.645,0.402-1,0c-1.176-0.891-0.843-1.225,1-1
			C176.239,3.056,176.759,3.06,177,3z"/>
		<path style="fill:#7A7A7A;" d="M142,69c1.569-0.977,2.013-0.398,0.903,1.081c-1.972,2.824-5.3,4.417-8.738,4.105
			c-0.003,1.656-0.836,1.555-2.499-0.303c-0.293-3.003-1.241-5.594-2.845-7.773c1.395-0.613,2.744-1.851,2.355-3.44
			c2.524,0.217,4.797,1.11,6.82,2.677L142,69z"/>
		<path style="fill:#B4B4B4;" d="M16,64c1.879,0.299,2.565,1.822,2.059,4.569C23.45,68.869,28.764,69.346,34,70
			c1.838-1.967,2.303-1.788,2.36,0.903C39.027,69.227,41.076,71.632,39,74c-1.004,1.737-3.06,2.931-5,2
			c-1.472-1.317-2.208-1.976-2.208-1.976l-13.384,0.013C17.112,76.22,15.976,78.541,15,81c-1.784-0.054-9.925-0.368-8.95,2.984
			c-4.809-3.658-0.819,0.523-3.583-2.037c-0.534-0.495-0.072-1.319-0.317-1.771c2.195,1.448,5.866,0.867,9.052-0.66
			c3.243-1.554,3.947-7.712,3.766-11.368C10.228,69.923,6.564,72.943,2,74c-0.009-0.332-0.032-0.67,0-1l11.412-5.645
			C14.472,65.744,13.854,64.18,13,63C13.781,63.419,15.242,63.514,16,64z"/>
		<path style="fill:#CBCBCB;" d="M139.835,60.902c-0.178,0.807-0.63,1.514-1.452,1.568c-1.507,0.1-0.817-0.668,0.198,0.062
			c0.644,0.463,0.571,1.559,0.419,2.468c2.236-1.353,5.011,1.871,3,4c-2.656,0.659-6.587-7.324-10.223-4.641
			c-2.569,1.896,0.066,11.056,2.388,9.827c-0.1,0.745,0.26,1.586-0.611,2.787c-0.404-1.064-1.367-1.902-2.52-1.869
			c-1.63-0.926-2.682-3.027-3.157-6.302c-1.639,1.02-3.008,1.086-4.108,0.197c-2.33-0.825-2.755-2.39-0.769-4l1.852-1.437
			c2.198,0.732,4.007-0.123,5.426-2.563c1.8,0.098,2.971-0.266,3.51-1.091c-2.376-1.071-3.028-2.438-1.954-4.101
			c0.117-0.743,0.434-0.803,0.94-0.215c1.395-1.11,3.202-1.28,5.423-0.509C139.826,56.461,141.104,58.901,139.835,60.902z"/>
		<path style="fill:#666666;" d="M205,26c2.16-1.606,3.111-0.532,3,2c1.317,0.668,2.844,1.736,2,3.123
			c-2.833,1.405-4.978,4.217-8.15,4.593c-1.757-0.467-4.128-3.394-4.195-5.056c-0.024-0.589,1.095-5.296,2.321-4.595
			C202.549,24.878,204.224,24.856,205,26z"/>
		<path style="fill:#585858;" d="M215.197,27.312c-0.473,1.83-2.28,2.693-4.084,2.769c-1.029-0.416-2.066-1.109-3.113-2.081
			c-1.15-0.415-2.223-1.044-3-2c-2.231,0.324-2.231-0.676,0-3c-0.155-3.598,0.845-4.931,3-4c0.841-0.954,1.814-1.494,2.92-1.621
			C212.167,20.759,213.593,24.07,215.197,27.312z"/>
		<path style="fill:#575757;" d="M58,112c0.264,2.784-1.292,4.372-4.092,4.013c-1.253-0.364-3.349-0.354-3.942-1.995
			c-0.98-1.147,0.536-9.411,0.881-9.77c0.299-0.311,7.948,2.173,8.025,2.598C59.044,107.788,58.354,110.926,58,112z"/>
		<path style="fill:#6D6D6D;" d="M47,98c1.781-0.374,2.276,0.326,1.383,1.775c2.165,0.304,1.704,1.379-1.383,3.225
			c2.618,1.554-1.532,6.556-4.084,5.129c-2.362,0.533-5.234-1.139-5.129-3.977l8.478-7.104C47.238,96.803,47.483,97.121,47,98z"/>
		<path style="fill:#646464;" d="M258,3.042c-1.668,0.779-3.868,0.8-5.625,1.829c-0.77,0.451-0.854,2.539-1.948,3.107
			c-0.836,0.435-2.056,0.847-3.281,0.227C245.74,9.442,243.665,6.567,243,5c-0.034-0.671-0.755-2.4-0.022-2.656
			C243.121,2.294,260.76,1.515,258,3.042z"/>
		<path style="fill:#525252;" d="M131.034,75.105c-0.339,0.01-0.707,0.212-1.034,0.31c0.173,2.393-2.225,2.944-3.982,1.278
			c-0.328,0.178-0.801,0.08-1.15,0.217c-1.271-0.196-1.831-1.499-1.682-3.909c-0.818-0.295-0.836-0.629-0.052-1
			c-3.012-1.606-2.642-2.859,0.635-3c1.143-0.738,3.239-3.145,5.068-1.865C131.339,68.886,130.657,72.7,131.034,75.105z"/>
		<path style="fill:#525252;" d="M39,96c1.343-0.778,2.561-0.626,2,1c1.208-1.55,1.838-0.988,1.008,0.864
			c-1.318,2.251-3.928,3.588-4.22,6.288c-2.173,1.123-3.989-0.741-5.785-1.991c-0.766-2.372-0.564-4.891,0.606-7.556
			C34.77,95.199,36.901,95.665,39,96z"/>
		<path style="fill:#838383;" d="M59,112c2.184-2.691,7.571,1.211,5.147,4.055c-0.93,1.97-3.317,3.835-5.52,3.859
			c-2.293,0.025-3.804-2.22-4.719-3.901c0.964-1.663,2.359-3.189,4.092-4.013C58.259,111.084,58.594,111.101,59,112z"/>
		<path style="fill:#A8A8A8;" d="M11,3c1.643-0.241,2.749,0.12,3.318,1.084C16.9,3.077,17.16,4.476,14.87,5.988
			c-0.489,1.009-1.222,2.032-2.247,1.219C12.287,6.94,13.707,5.14,14.87,5.988C15.355,4.276,16.307,2.608,18,4
			c1.432,1.004,1.557,3.441,0.978,5.112C18.186,9.506,17.855,10.133,18,11c2.598,1.417,0.613,4.048-2,3
			c0.267,1.901-1.367,1.758-2,0.112c-0.874-0.32-0.86-0.691,0-1.112c0.213-1.234-0.366-2.206-1.039-3.186
			C12.646,11.798,11.79,11.808,11,10c-1.022-0.181-1.022,0.485,0,2c0.988-2.47,2.798,1.188,1,2c-1.357,0.218-2.69-0.115-4-1V8
			c1.37-1.362,1.37-2.029,0-2c0-1.108,0.134-2.236,1-3H11z"/>
		<path style="fill:#717171;" d="M66,116.058c-0.594-0.118-1.249,0.16-1.853-0.003C63.475,113.75,60.782,113.318,59,112
			c-2.183-4.343-1.183-6.343,3-6c2.019,0.037,4.042,1.441,4.03,4.002L66,116.058z"/>
		<path style="fill:#727272;" d="M48.808,112.934c-2.657-0.489-4.925-2.499-5.892-4.806L47,103c1.486-5.576,5.207,0.955,4.981,1.328
			c-0.192,0.317-0.651,0.473-1.186,0.583C50.442,107.827,49.78,110.502,48.808,112.934z"/>
		<path style="fill:#313131;" d="M198,39c-5.54,1.928-10.011,6.927-15.819,7.882c-0.883-0.158-0.868-0.438-0.018-0.832
			c-2.176-1.946-2.211-2.952-0.105-3.018C181.314,39.852,191.056,36.534,193,39C196.016,36.42,197.682,36.42,198,39z"/>
		<path style="fill:#3A3A3A;" d="M110,83c0.702,1.403,1.175,2.999,1.976,4.362c-0.523,3.164-4.778,5.691-7.848,5.024l-1.21-0.683
			c1.623-3.249,2.704-6.555,3.243-9.919C107.723,81.861,109.002,82.266,110,83z"/>
		<path style="fill:#686868;" d="M10,32c0.287,0.623,0.486,1.425,1,2c1.942,2.31,1.73,2.813-1,4c-0.419,1.661-0.871,2.479-2,1
			c-0.889,0.009-2.622,0.311-2.96-0.534c-0.336-0.838,0.196-2.02,0.547-2.876c1.514-3.7-1.116-7.818,1.573-10.585L10,32z"/>
		<path style="fill:#5D5D5D;" d="M122,76.761c0.92-2.627,1.488-1.877,2.868,0.148c0.688,2.557-0.315,5.232-2.868,6.091
			c-1.307,0.208-2.602-0.156-3.982-0.368C115.821,82.295,116.44,80.579,116,79C115.395,75.992,120.599,73.846,122,76.761z"/>
		<path style="fill:#4B4B4B;" d="M29,93c0.364-1.972,3.178,0.845,3.805,1.932c0.14,0.243-1.039,4.11-1.394,5.179
			c-0.082,0.246-0.294,0.449-0.545,0.639c-3.221-0.635-5.692-3.614-7.696-5.651C24.928,93.967,26.963,93.406,29,93z"/>
		<path style="fill:#545454;" d="M178.735,45.916c1.03,1.527,0.556,3.049-0.822,3.984c-2.047,0.459-6.332,6.168-6.598,2.026
			c4.097-10.134,2.173-4.431,5.766-7.968C179.657,41.675,180.935,43.553,178.735,45.916z"/>
		<path style="fill:#AFAFAF;" d="M30,86c1.704,0.577,2.878,2.599,3.522,6.068C36.128,92.625,37.954,93.603,39,95
			c0.873,0.284,0.86,0.618,0,1c-1.708,0.039-4.509-0.639-5.825,0.618c-1.361,1.3-1.141,3.825-1.172,5.542
			c-0.483-0.337-0.697-1.02-1.136-1.409c-0.356-1.777,0.797-3.574,0.631-5.544C31.397,94.019,29.638,93.471,29,93
			c0.651-1.497,0.808-4.879-0.997-5.777C25.601,86.028,23.453,85.794,22,84C22.354,80.927,30.208,83.012,30,86z"/>
		<path style="fill:#525252;" d="M12,50c-0.163,1.853-2.507,1.822-4,1c-0.662,1.217-3.541,1.707-4,0c-0.105-1.747-0.348-3.68,1-5
			c1.908-0.237,3.669-0.725,5.284-1.465C12.705,46.388,13.277,48.209,12,50z"/>
		<path style="fill:#3E3E3E;" d="M104.128,92.386c-0.11,0.734-0.394,1.642-1.396,2.223l-7.669,4.444
			c-3.202,2.311-5.408-2.956-2.26-3.244C92.823,93.12,98.847,90.661,101,92C103.225,90.426,104.267,90.555,104.128,92.386z"/>
		<path style="fill:#707070;" d="M147.848,67.22c-0.902,1.885-2.925,2.719-4.945,2.861c-0.463-0.22-0.62-0.704-0.903-1.081l-3-4
			c-1.011-2.311-0.318-2.615,2-2C143.303,62.195,146.389,65.314,147.848,67.22z"/>
		<path style="fill:#434343;" d="M195.819,29.829c1.964,1.318,3.628,3.322,4.992,6.011l-0.934,0.992
			c-2.168,1.995-3.794,1.051-4.877-2.832c-2.435,1.734-4.884-1.915-3-4c-1.551-1.395-1.9-1.903,0.163-2.736
			C193.09,26.085,194.308,26.94,195.819,29.829z"/>
		<path style="fill:#777777;" d="M10,42l1.086,4.082C8.992,45.73,6.963,45.369,5,45c0-1.135-0.329-2.63,0.205-4.164
			C5.512,39.958,7.072,39.815,8,39C9.057,38.381,9.724,39.381,10,42z"/>
		<path style="fill:#4F4F4F;" d="M170.003,51.864c0.17,3.872-3.455,5.742-6.843,6.835c-0.999,0.052-1.382-2.342-0.16-2.698
			c-1.558-1.498-1.007-2.09,0.963-1.037l4.954-3.924L170.003,51.864z"/>
		<path style="fill:#C8C8C8;" d="M216.113,27.163c-0.305-0.012-0.61,0.137-0.916,0.15c-3.646-3.083-2.61-9.266-7.197-8.312
			c-2.707-2.355,2.609-7.475,5-5c-0.041,1.072-1.729,2.679-1.465,3.617C212.589,21.163,214.817,24.085,216.113,27.163z"/>
		<path style="fill:#DADADA;" d="M199.976,26.065c-1.899,3.11-0.694,7.217,1.874,9.652l-1.039,0.123
			c-2.408-1.141-4.218-3.476-4.992-6.011c0.289-1.665,0.708-3.023,1.257-4.073C197.919,23.155,199.242,23.477,199.976,26.065z"/>
		<path style="fill:#5B5B5B;" d="M12.075,52.073c0.11,3.044-6.515,2.15-5.818,3.617c-0.677,0.049-1.466-0.12-1.959-0.636
			C3.756,54.488,3.998,53.667,4,53c0.678-1.28,2.647-1.37,4-1C8.881,51.204,11.619,50.747,12.075,52.073z"/>
		<path style="fill:#CACACA;" d="M240,13.864c-0.657,0.549-1.246,0.877-2,1.268L231,3L240,13.864z"/>
		<path style="fill:#818181;" d="M126.018,76.693c1.237-0.672,2.641-0.878,3.982-1.278c0.439,0.388,1.867,0.749,1.911,1.524
			c0.044,0.769-4.561,3.411-5.204,3.027C125.529,79.262,126.057,77.51,126.018,76.693z"/>
		<path style="fill:#717171;" d="M9,15c0.564,0.519,1.587,0.989,1.728,1.694C10.971,17.911,10.077,18.911,10,20
			c-0.875,0.408-2.21,0.985-1.856,2.144C6.428,20.12,5.693,15.377,9,15z"/>
		<path style="fill:#363636;" d="M182.163,46.05l0.018,0.832c-0.745,1.787-2.388,2.597-4.268,3.018
			c-1.206-0.946-0.4-3.409,0.822-3.984C178.466,41.735,181.275,41.917,182.163,46.05z"/>
		<path style="fill:#DBDBDB;" d="M14,47c2.691,1.727,0.918,4.384-2,3c-0.038-1.064,0.288-3.07-1.251-3.671
			C8.709,45.533,6.709,46.139,5,46v-1c1.485-0.021,2.96,0.206,4.846-0.115C10.184,43.634,10.036,42.81,10,42
			C12.824,41.155,14.399,44.579,14,47z"/>
		<path style="fill:#DFDFDF;" d="M145,63c1.069,1.559,2.588,2.812,3.997,4.097c-0.323,0.176-0.792,0.018-1.15,0.123L141,63
			c-2.532,1.022-2.857,0-1.165-2.098C141.254,58.161,145.813,60.1,145,63z"/>
		<path style="fill:#B4B4B4;" d="M199.877,36.832c-0.244,1.015-0.889,1.824-1.877,2.168c-0.78-1.313-3.601-0.515-5,0
			c-1.006-1.526-0.34-3.192,2-5C196.199,35.598,197.732,37.692,199.877,36.832z"/>
		<path style="fill:#BFBFBF;" d="M92.803,95.808c-0.353,0.819-0.546,1.85-0.322,2.478c0.389,1.091,1.809,0.982,2.582,0.766
			c-1.295,0.75-2.416,2.247-3.934,0.9c0.019-1.886-1.031-3.574-2.039-5.15C90.522,92.384,92.272,93.3,92.803,95.808z"/>
		<path style="fill:#7A7A7A;" d="M70.075,112.104c-0.078,1.386-0.975,2.189-2.075,2.801c-1.653-0.808-1.271-3.591-0.538-4.961
			C68.753,111.082,68.993,112.405,70.075,112.104z"/>
		<path style="fill:#6C6C6C;" d="M120,84.1c-1.285,1.512-3.124,2.339-5,2.9c-1.56-0.342-0.014-2.035,0-3
			C116.588,83.035,118.243,83.826,120,84.1z"/>
		<path style="fill:#D1D1D1;" d="M226.152,21.703C225.69,21.881,225.487,22.885,225,23l-2-15
			C224.771,12.294,225.687,17.082,226.152,21.703z"/>
		<path style="fill:#CDCDCD;" d="M51,97c1.304,0.562,2.637,1.229,4,2v1l-0.42,2.761c2.516,0.775,4.989,1.522,7.42,2.239
			c-0.061,0.325,0.037,0.671,0,1c-2.851,0.797-3.626,3.25-3,6c-0.251-0.014-0.756-0.062-1,0c-0.096-1.101,0.545-3.19-0.752-4.188
			c-1.858-1.43-3.791-2.24-6.056-2.992l-1.226,9.199c-0.165-0.456-0.936-0.634-1.157-1.084c-0.755-3.302,3.644-9.734,0.638-10.892
			c-0.674-0.26-1.869,0.622-2.446,0.958c1.037-1.302,1.13-3.579,0-5C47.018,95.366,49.631,94.366,51,97z"/>
		<path style="fill:#636363;" d="M247.147,8.205c0.012,0.448-0.249,1.9-1.199,1.95c-1.199-1.119-1.531-2.434-2.832-2.859L243,5
			L247.147,8.205z"/>
		<path style="fill:#A5A5A5;" d="M8,51c0.873,0.284,0.86,0.618,0,1c-1.142,0.852-2.506,1.34-4,1c0.002-0.651,0.039-1.35,0-2H8z"/>
		<path style="fill:#3B3B3B;" d="M8,8V6c0.639,0.052,1.315-1.259,1.629-0.813c0.481,0.682,0.674,1.813,0.378,2.229
			C9.701,7.847,8.551,8.313,8,8z"/>
		<path style="fill:#CBCBCB;" d="M163,56l0.16,2.698c-0.445,0.29-0.696,1.048-1.16,1.302c0.116-1.45-0.35-2.749-1-4
			C161.558,54.114,162.433,54.093,163,56z"/>
		<path style="fill:#D2D2D2;" d="M211.113,30.081c-0.409,0.273-0.671,0.823-1.113,1.042L208,28
			C209.346,28.085,210.875,28.611,211.113,30.081z"/>
		<path style="fill:#404040;" d="M12,14c-0.779,1.114-2.065,0.734-3,0c-0.326-0.256-1-0.455-1-1C9.437,12.836,10.69,13.475,12,14z"
			/>
		<path style="fill:#646464;" d="M102,4l2,5c0.848,0.333,0.847,0.666,0,1c0.468,0.307,0.455,0.641,0,1c-0.083,4.125-0.75,7.791-2,11
			c0.747,2.73,0.747,5.397,0,8c0.649,1.131,0.484,2.457-0.496,3.979c1.306,0.474,1.049,0.807-0.504,1.021
			c0.417,3.104-0.158,3.148-3,2c-1.639,2.349-2.337,2.013-2-0.795L82,28c-1.221,2.556-2.429,1.826-2-1
			c-0.807,0.386-2.292,0.405-2.334-0.102C77.584,25.881,79.242,19.165,80,18c-0.856-2.098-0.792-5.8,0-8
			c-0.308-1.647-0.449-4.725,1-6c-1.772-3.182,11.353-1.801,17.049-2.128C100.277,1.744,100.941,3.019,102,4z"/>
		<path style="fill:#686868;" d="M161,3c-1.453,1.862-2.211,3.804-2.273,5.826c-3.137,1.524-3.997,2.473-3.812,6.137
			c-0.962,1.721-2.437,3.012-4.424,3.875L137,12c-0.284,0.873-0.618,0.86-1,0c-2.258-0.822-2.231-2.203-1-4
			c-0.642-1.936-1.381-3.667-2.217-5.194L134,2C142.999,2.693,152.336,0.62,161,3z"/>
		<path style="fill:#676767;" d="M131,2l-0.129,1.5l-9.822,9.973c-0.226,3.461-6.677,4.29-9.049,1.527c-3.046,2.545-7.332-1.617-8-5
			c0-0.33-0.038-0.672,0-1l-2-5c0.069-0.36-0.259-1.669,0.231-1.89L131,2z"/>
		<path style="fill:#676767;" d="M80,4c0.398,2.264,0.065,4.264-1,6c0.856,2.098,0.792,5.8,0,8c-0.113,2.728-0.287,5.524-0.523,8.39
			l-6.921,6.668c0.717,1.16-0.312,1.779-3.089,1.856C66.699,37.065,65.543,37.094,65,35c0-8.272,5.835-15.545,7.097-23.916
			c2.575-0.998,1.675-9.051,5.402-9.206C78.873,1.821,80.128,2.346,80,4z"/>
		<path style="fill:#595959;" d="M201,4c-1.04,1.17-1.531,2.445-1.471,3.824L198,8c2.339,2.587-1.186,5.996-4,4l-6.059,5.269
			c-1.66,0.814-2.595,0.66-2.805-0.464C182.268,12.283,180.383,7.155,177,3c7.273-2.45,15.822-0.107,23.737-1.183
			C201.216,2.95,201.017,3.584,201,4z"/>
		<path style="fill:#777777;" d="M221,2c1.86,1.007,0.871,3.297-1,4c-0.334,0.71-1.378,1.523-2,2l-5,6c-1.937,1.311-3.907,2.864-5,5
			c-0.629,0.717-1.636,1.615-2.394,1.12c-0.636-0.415-6.218-12.919-6.102-13.669L201,4c1.186-0.787,1.595-2.182,3.967-2.159L221,2z"
			/>
		<path style="fill:#2C2C2C;" d="M26,2c2.323,1.254,4.374,3.802,6,6c0.284-0.873,0.618-0.86,1,0c2.649-0.425,2.169,3.014,0,4
			c-0.8,1.824-1.8,3.157-3,4c0.261,2.284-2.942,1.564-4,0c-0.874,0.653-1.207,0.442-1-0.633c-5.446-5.904-2.083-6.905-5.071-12.087
			C21.153,1.124,23.882,2,26,2z"/>
		<path style="fill:#414141;" d="M176,3l-1,1c-1.814,2.298-3.814,4.631-6,7c1.308,1.542,0.766,2.103-1,1l-0.315,1.422
			c-2.421-0.126-9.9-4.186-9.852-4.767c0.145-1.76,2.58-4.648,4.167-5.655C166.147,1.279,171.873,1.303,176,3z"/>
		<path style="fill:#CECECE;" d="M162,3c-0.533,1.425-2.812,3.065-2.563,4.391c1.647,4.151,4.931,5.463,8.563,4.609
			c3.122-0.661,3.917,2.539,1,4c-2.334,0.41-4.668-0.59-7-3c-1.116,0.806-2.34,0.432-3.669-1.123
			c-0.76,0.455-0.204,1.496,1.669,3.123c1.011,1.3,1.036,3.03,0.073,5.19c0.492,3.625-0.199,5.895-2.073,6.81
			c-0.284,0.873-0.618,0.86-1,0c-1.897-0.395-2.566-2.477-2.009-6.247c-3.14,0.362-5.877,3.166-8.211,8.411
			c1.132,1.303,1.414,2.325,0.22,3.835c-2.093,2.607-4.712,1.254-4-2v-1l-1.427-1.926l5.35-8.498l-9.842-5.009L137,12
			c4.583,0.166,8.44,3.687,13.238,5.797C154.598,13.065,156.554,6.874,161,3C161.245,3.067,161.769,3.096,162,3z"/>
		<path style="fill:#444444;" d="M55,3c1.545-0.657,4.147-0.108,4,2c2.079-0.342,2.553-0.274,2,2
			c0.583,0.794,0.256,1.161-0.827,1.173L54,13c-0.147,1.675-1.169,2.127-2.668,1.333C49.604,13.417,46.417,10.144,49,9
			c-2.613-1.531-1.493-5.033,0-7C50.982,2,53.125,2.245,55,3z"/>
		<path style="fill:#B8B8B8;" d="M134,2l1,6c-1.139,1.35-2.359,1.032-3.662-0.955c-8.316,6.56-7.412,8.301,2.711,5.221l1.134,0.826
			c1.553,2.61-2.629,12.489-6.184,10.908c-1.843-0.88-2.065-2.579-0.667-5.098c-4.865,0.409-9.321,0.105-13.366-0.914
			c-2.362,2.284-4.684-0.207-2.967-2.988c1.962,0.552,4.713,1.706,6.639-0.233C122.988,10.388,127.493,6.556,131,2
			C131.992,1.996,133.011,1.924,134,2z"/>
		<path style="fill:#333333;" d="M73,5c-0.551,1.234-0.059,3.822-1,5c-1.546,1.935-1.396,4.818-3.882,5.976
			c-0.256,1.418-0.582,1.473-1.134,0.121C64.78,14.568,61.213,9.841,64,8c-1.545-0.678-0.878-1.345,2-2
			C67.061,3.717,73.198,1.551,73,5z"/>
		<path style="fill:#464646;" d="M73,5c-2.348-1.94-1.784,1.654-7,1c-4.097,2.16-6.154-0.01-4-4C72.653,3.004,75.44-0.461,73,5z"/>
		<path style="fill:#3C3C3C;" d="M38,2c0.942,0.945,1.957,3.125,0,3.186C38.383,6.079,38.012,6.317,37,6
			c-1.852,3.483-3.185,4.15-4,2h-1c-2.209-2.109-3.542-4.109-4-6H38z"/>
		<path style="fill:#4C4C4C;" d="M48,2c0.349,1.519-0.015,5.644-2,4l-5-1c-2.132-0.193-3.083-1.11-2-3H48z"/>
		<path style="fill:#3E3E3E;" d="M61,2c0.991,2.991,1.686,5.708-2,3c-1.617,0.008-2.644-1.454-4-2C56.269,1.104,59.017,2.236,61,2z"
			/>
		<path style="fill:#BFBFBF;" d="M66,6l-2,2c-1.687,2.07-2.958,1.811-3-1l-2-2c0.764,0.186,1.654,0.033,1.873-0.647
			C61.151,3.491,61.062,2.707,61,2c0.326-0.039,0.673-0.031,1,0c0.171,0.946-0.435,2.374,0.106,3.422
			C62.731,6.633,64.876,5.852,66,6z"/>
		<path style="fill:#9A9A9A;" d="M49,9c-0.284,0.873-0.618,0.86-1,0c-2.763,1.763-4.512-1.083-2-3c1.453-0.862,1.239-2.71,2-4h1
			C48.512,4.407,48.039,6.701,49,9z"/>
		<path style="fill:#AAAAAA;" d="M81,4c0.011,2.063,0.537,4.389-1,6c-0.284,0.873-0.618,0.86-1,0c0-1.988-0.796-4.728,1-6H81z"/>
		<path style="fill:#D0D0D0;" d="M223,2v6c-0.307-0.744-1.034-1.28-1.194-2.307C221.62,4.489,220.771,5.718,220,6l1-4
			C221.65,2.006,222.36,2.111,223,2z"/>
		<path style="fill:#979797;" d="M28,2c0.993,2.322,4.021,3.197,4,6c-2.391-1.506-4.452-3.639-6-6H28z"/>
		<path style="fill:#545454;" d="M18,4c-1.26,0.621-1.881,1.735-3.13,1.988c0.586-0.516-0.07-1.622-0.552-1.904
			C13.225,3.138,13.548,2.583,15,3c0.583-0.344,1.159-0.782,1.784-0.849C17.773,2.045,17.988,3.205,18,4z"/>
		<path style="fill:#4C4C4C;" d="M15,3c-0.095,0.408,0.004,1.44-0.682,1.084C13.144,3.961,11.54,4.33,11,3
			C12.211,2.039,13.937,1.735,15,3z"/>
		<path style="fill:#424242;" d="M18.978,9.112L18,4c0.326,0.046,0.681-0.076,1,0C20.144,5.557,20.508,7.726,18.978,9.112z"/>
		<path style="fill:#C5C5C5;" d="M41,5c0.112,2.859-2.154,2.872-3,0.186V2h1C38.99,3.421,40.198,4.07,41,5z"/>
		<path style="fill:#313131;" d="M39,74c2.594-0.857,5.246,0.306,6,3c2.317,1.081,4.317,2.414,6,4
			c3.213,3.693-2.951,9.149-5.449,11.465C45.26,93.951,44.244,95.191,43,94c-1.645,1.994-2.978,2.327-4,1
			c-2.113,0.199-5.547,0.243-7.123-1.817C30.3,91.122,30.357,88.15,30,86l2-5l2-5l2.007-2.467C36.659,72.731,38.066,73.891,39,74z"
			/>
		<path style="fill:#4B4B4B;" d="M45,47.131c1.06,0.696,1.97,0.34,2.732-1.067L49,48c1.7-0.751,4.467-0.827,6,0l3.109,1.909
			C56.84,55.582,55.374,60.729,55,66c-1.57,0.035-14.538,0.177-14.711-0.544c-0.195-0.812,0.128-6.339,0.266-7.6
			c0.07-0.638,0.153-1.27,0.446-1.855c-1.866-1.743-1.454-2.245,1.055-1.955c0.261-2.004-0.666-4.379,0.407-6.517
			C42.822,46.812,44.568,47.234,45,47.131z"/>
		<path style="fill:#4C4C4C;" d="M71.045,88.955L74,93c2.496-1.09,2.716-0.553,2,2c2.535,0.947,2.869,1.947,1,3
			c-2.056,3.793-4.294,7.641-7,11c-1.393-0.038-2.719-0.826-3.754-2.232L62,101c-0.572-2.502,0.049-6.263,2-8
			c-2.36-1.432-1.72-2.32,1-2l1.294-2.332c-1.33-1.462-0.195-1.592,1.79-1.628c0.427-0.887,0.827-0.879,1.199,0.029
			C71.489,84.718,73.261,86.59,71.045,88.955z"/>
		<path style="fill:#5A5A5A;" d="M81,53c-4.473-0.742-7.28,2.773-10.073,0.255l-0.808-0.227C69.48,49.697,68.773,46.354,68,43
			c-2.78,0.117-3.11-2.53-1-4c-1.728-2.982,0.699-4.359,3.671-5.152c1.328-0.354,1.581-0.129,1.173,1.449l15.722,15.685L81,53z"/>
		<path style="fill:#555555;" d="M55,67c-2.238,4.115-0.553,9.553-4,13c-2.045-0.499-4.147-1.799-6-3c-2.273-0.334-4.488-1.189-6-3
			c-0.668-1.198-1.562-2.249-2.64-3.097C34.168,68.94,36.345,65.964,39,67c1.53-3.118,2.525-3.617,2.985-1.498
			C41.985,65.502,46.323,66.002,55,67z"/>
		<path style="fill:#626262;" d="M76,57.022L83,60c0.828,0.928,1.89,1.445,3,2c2.292,1.624,1.378,3.001-2.739,4.132L82,67.36
			c1.154,3.211-3.415,5.524-5.677,2.808c-1.474,0.129-2.648,0.521-3.521,1.176c0,0-1.288-1.442-3.865-4.326
			C65.947,68.264,65.196,66.966,66,64c-0.634-0.749-0.3-1.749,1-3c-1.196-1.511-0.607-2.096,1.134-1.173
			C70.481,57.974,73.055,56.944,76,57.022z"/>
		<path style="fill:#636363;" d="M91,52l3.145,0.382c0.781,0.702,5.025,11.314,3.847,12.713C92.423,64.544,88.928,60.416,83,60
			l-7-2.978l-2.088-1.875C76.947,55.619,79.086,53.059,81,53c2.41-0.258,4.388-1.031,5.934-2.319L91,52z"/>
		<path style="fill:#515151;" d="M62,35c-1.498,2.564-2.457,2.653-3.919,0.021c-2.798,0.872-3.693-2.392-1.223-3.879
			c-1.329-1.067-1.448-2.177-0.355-3.329l0.173-8.819c0,0,2.441,0.002,7.324,0.006c0.312-1.63,1.528-2.394,2.984-2.903l1.134-0.121
			C67.319,22.669,64.417,28.726,62,35z"/>
		<path style="fill:#434343;" d="M65,36c1.811-1.742,2.478-0.742,2,3c0.618,0.927,0.879,2.794,1,4c1.372,3.638,1.706,6.971,1,10
			c-3.337-1.332-7.136-2.351-10.399-4.647l3.203-9.541C62.419,36.982,63.375,35.755,65,36z"/>
		<path style="fill:#585858;" d="M54,79c0.2-3.91,1.314-7.86,1.805-12.114C56.025,64.978,57.14,65.376,58,65
			c2.084-2.463,4.173-2.403,7.185-1.289c-1.846,4.613-3.732,10.457-3.009,15.277C57.126,81.847,54.401,81.851,54,79z"/>
		<path style="fill:#BFBFBF;" d="M80,18c0,5.085-2.18,5.568,0,9l-0.009,1.348c-2.059,1.713-3.882,3.656-5.467,5.829
			c5.172,5.487,10.589,10.605,16.251,15.355L91,52c-3.396-0.074-6.609,0.896-10,1c1.454-0.432,3.104-1.324,5.153-2.277
			L72.756,37.216c-1.351-1.363-2.093-2.783-4.46-1.601C67.145,36.19,67.512,37.29,67,39l-2-3v-1
			c3.363,1.476,11.837-7.883,12.806-10.062C78.829,22.636,76.918,19.496,79,18C79.284,17.127,79.618,17.14,80,18z"/>
		<path style="fill:#2C2C2C;" d="M62,35c-3.164,8.212-3.031,12-7,12c-0.553,0.879-3.048,0.745-4,0c-4.796,1.322-3.223-5.696,0-5
			c-0.258-3.261,3.836-7.232,7.081-6.979C59.387,35.095,60.695,35.064,62,35z"/>
		<path style="fill:#424242;" d="M68.134,59.827C67.716,60.156,67.464,60.709,67,61c-1.792,3.486-2.949,4.327-3.471,2.523
			C60.975,63.695,60.132,62.52,61,60c-1.992-0.62-2.659-2.62-2-6c0.314-0.815-0.58-2.553,0.521-2.983
			c0.288-0.113,7.195,2.301,7.938,3.172C68.839,55.809,68.005,58.065,68.134,59.827z"/>
		<path style="fill:#B8B8B8;" d="M67,61c-0.304,0.933-0.298,2.229-1,3l0.977,2.508C65.316,71.028,64.324,75.525,64,80
			c-0.676,2.532-3.879,2.751-6,2c-0.854,2.995-5.265,2-5-1c-0.016-0.761,0.79-1.419,1-2c0.542,0.825,1.622,1.896,2.526,1.611
			c7.4-2.337,3.797-6.44,7.332-16.247C61.972,63.371,59.913,64.163,58,65v-1c-0.508-1.911,0.492-3.245,3-4
			c0.176,0.912,1.834,2.531,2.696,2.888C64.789,63.339,66.022,61.333,67,61z"/>
		<path style="fill:#494949;" d="M55,88.008c2.156,0.171,3.489,0.835,4,1.992c2.313-1.861,3.969,0.992,2,3
			c2.837,1.118,1.245,4.725,0,7c-2.992-3.459-6.129-6.902-9.219-11.138C52.207,87.62,54.147,88.059,55,88.008z"/>
		<path style="fill:#626262;" d="M62,105c-3.771,2.304-9.115,0.32-11.399-3.601c2.3-0.055,3.34-1.13,4.399-1.399
			C57.98,99.243,62.571,101.947,62,105z"/>
		<path style="fill:#454545;" d="M58,82c2.314-1.122,2.724-0.37,2,2c2.353,1.507,2.353,2.507,0,3c1.448,1.375,0.808,1.995-1,1
			c-0.928,0.937-2.261,0.939-4,0.008c-0.747-0.704-1.851-0.992-2.727-1.992c0.366-1.9,0.76-3.452,0.727-5.016
			C54.651,81.421,56.286,81.953,58,82z"/>
		<path style="fill:#676767;" d="M53.971,95.312C54.972,97.77,52.745,98.741,51,97l-4,1c-0.249-0.313-0.398-0.708-0.735-0.953
			c0.689-1.912,1.895-5.432,4.845-5.866C53.299,90.859,53.117,94.441,53.971,95.312z"/>
		<path style="fill:#C2C2C2;" d="M55,66c-0.021,0.292,0.137,0.749,0,1c-7.008,0.972-11.106-2.838-16,0
			c-2.117-2.003-2.087-12.41,2-11l0.061,9.13C46.136,64.394,50.482,65.566,55,66z"/>
		<path style="fill:#5A5A5A;" d="M61,60c0.717,2.177-1.282,3.142-3,4c-2.233-2.832-0.188-6.919,1-10
			C60.305,55.645,60.684,58.149,61,60z"/>
		<path style="fill:#575757;" d="M55,99c-1.858,0.4-3.513,1.381-6.107,0.834C49.663,98.617,50.587,98.04,51,97l2.971-1.688
			c1.416,0.854,3.138,1.54,4.06,3.476C56.654,99.252,55.833,98.933,55,99z"/>
		<path style="fill:#4A4A4A;" d="M42.008,97.864L41,97c-1.6-0.517-0.933-1.517,2-3c0.68-0.313,2.002-1.026,2.551-1.535
			C46.507,95.178,43.069,96.052,42.008,97.864z"/>
		<path style="fill:#BCBCBC;" d="M70.927,53.255C70.124,53.782,69.696,53.278,69,53l-1-10
			C70.323,45.915,69.385,49.975,70.927,53.255z"/>
		<path style="fill:#C8C8C8;" d="M64,93c-0.444,2.757-2.078,5.205-2,8c-0.273-0.372-0.696-0.649-1-1c0.377-2.354,1.372-4.942,0-7
			C62.479,91.244,62.519,91.242,64,93z"/>
		<path style="fill:#A9A9A9;" d="M51,80c0.095,0.274-0.182,0.791,0,1c-2.088-1.255-4.953-1.64-6-4
			C47.234,77.329,49.519,78.295,51,80z"/>
		<path style="fill:#EDEDED;" d="M51,47h4v1h-6C46.931,45.461,48.469,45.622,51,47z"/>
		<path style="fill:#424242;" d="M69.168,55.376c0.588-0.845,1.463-0.362,1.789,0.049c0.302,0.38,1.588,1.137,0.471,1.446
			c-0.471,0.131-1.432,0.701-1.955,0.954C69.036,58.037,68.71,56.034,69.168,55.376z"/>
		<path style="fill:#CACACA;" d="M213,14c0.108-2.827,2.958-4.435,5-6C217.744,10.758,215.183,12.522,213,14z"/>
		<path style="fill:#B1B1B1;" d="M22,84c-2.375-0.594-5.296-1.16-7-3C17.265,77.719,22.972,80.031,22,84z"/>
		<path style="fill:#444444;" d="M47,46c-2.816,0.175-5.676-0.231-8.006-1.888c0.309-3.153-5.417-6.263-5.044-11.278
			C32.757,31.092,33.385,30.629,35,32c0.927-3.238,1.85-3.989,2.77-2.253L42,28.114c1.256-2.361,1.914-2.641,1.973-0.838
			c2.4,0.221,3.204,1.083,2.41,2.584c0.287,4.305,1.221,8.417,2.801,12.337C48.71,44.391,47.982,45.658,47,46z"/>
		<path style="fill:#3A3A3A;" d="M35,32c-0.265,0.307-1.005,0.227-1.05,0.835c-1.787,1.358-9.158-9.831-7.94-11.223
			C24.503,19.878,24.719,19.309,27,19c-0.239-1.864,0.73-2.403,2.408-1.68c0.685,0.295,8.77,8.833,6.924,10.917
			C37.573,28.724,37.129,29.979,35,32z"/>
		<path style="fill:#737373;" d="M24,36.226c1.715-2.421,4.354-1.068,3.885,1.932c1.445,2.212,4.213,2.597,6.312,4.639
			c0.361,1.142-1.171,1.966-0.441,2.902c-0.254-0.081-0.635,0.075-0.864-0.053c-0.996,0.383-2.405,0.058-4.228-0.974l-5.545-1.503
			c-3.021,2.987-4.138-5.272-3.937-5.754C19.312,37.104,24.72,33.163,24,36.226z"/>
		<path style="fill:#5A5A5A;" d="M27.885,38.157c-0.999-0.785-2.741-1.278-3.885-1.932c-1.71,0.265-1.983-0.984-0.819-3.749
			c-1.007-1.457-1.248-1.895,0.687-1.717c1.504-0.049,2.069-1.632,3.796-1.876c1.684,3.907,5.207,5.713,5.639,10.346L27.885,38.157z
			"/>
		<path style="fill:#323232;" d="M25,15.367C25.253,15.641,25.592,16,26,16c2.847,0.318,3.089,0.994,1,3
			c-0.046,0.958-0.349,1.888-0.99,2.612c-2.098-0.247-3.04-2.087-3.002-4.626c0.013-0.876-0.285-1.734,0.499-1.938
			C23.91,14.944,24.581,15.449,25,15.367z"/>
		<path style="fill:#747474;" d="M10,20c1.218-0.568,1.861-2.043,3.326-2.543c2.64,0.982,4.619,1.788,6.744,3.392
			C16.347,19.969,12.635,22.058,10,20z"/>
		<path style="fill:#454545;" d="M19.919,15.829C18.291,16.537,15.424,15.942,16,14l2-3c-0.033-0.883,0.306-1.063,1.018-0.541
			c1.177,0.31,1.685,1.329,1.922,2.127C21.393,14.103,20.27,14.913,19.919,15.829z"/>
		<path style="fill:#414141;" d="M16,14l3.919,1.829c-0.982,2.56-6.759-0.103-6.814-0.25c-0.159-0.427,0.931-0.94,0.895-1.467L16,14
			z"/>
		<path style="fill:#7E7E7E;" d="M38.994,44.112c-0.141,1.444-0.73,2.03-2.232,2.495c-1.162,0.36-2.376,0.466-3.006-0.908
			c0.532,1.624,2.497-2.27,3.713-2.434C37.978,43.196,38.581,43.819,38.994,44.112z"/>
		<path style="fill:#464646;" d="M18.978,9.112l0.04,1.347C18.716,10.704,18.37,10.882,18,11c-1.314-0.92-3.914-1.841-2.181-4.143
			C17.575,7.116,17.689,9.09,18.978,9.112z"/>
		<path style="fill:#7F7F7F;" d="M12.961,9.814C14.719,9.922,14.831,11.708,14,13v1.112L12,14c-0.02-0.374,0.059-1.133-0.001-1.46
			C11.943,12.238,11.142,12.277,11,12c-0.971-0.983-1.521-1.714,0-2C11.614,9.822,12.372,10.059,12.961,9.814z"/>
		<path style="fill:#5F5F5F;" d="M123,50c1.072,0.557,2.034,2.024,2.884,4.401c-1.651,1.644-3.642,3.2-5.971,4.668
			c-6.107,1.77-11.776,11.316-15.933,9.449c-1.471-0.661-3.635-1.333-4.028-3.316l-1.038-0.366l-3.709-9.755
			C93.335,53.13,93.267,51.437,95,50l3.511-11.581c0.362-1.908,1.464-1.836,3.305,0.215C109.259,42.015,116.321,45.803,123,50z"/>
		<path style="fill:#5D5D5D;" d="M119.148,61.945L123,65c0.658,1.044,1.211,2.769,0.769,4c-0.351,0.978-1.084,1.821-0.635,3
			c-1.285,1.934-1.759,1.544-3.134,0c-2.365-0.293-5.112,0.599-7.677-0.267c-2.093-0.706-0.488-2.548-0.292-3.635
			C115.073,66.791,114.817,62.448,119.148,61.945z"/>
		<path style="fill:#797979;" d="M129.402,59.008c2.819-0.935,3.284,0.263,0.877,1.992c0.012,0.622,0.842,1.965,0.375,2.657
			c-1.932,2.861-5.186,2.437-7.653,1.343l-3.852-3.055c0.205-0.969,0.421-1.944,0.766-2.876
			C124.608,53.996,127.77,53.976,129.402,59.008z"/>
		<path style="fill:#404040;" d="M101.966,69.785c-1.19,5.778-3.216,6.939-6.079,3.48c-2.84,0.419-3.801-0.629-2.79-3.362
			c-2.107-1.052-3.825-2.644-5.155-4.774C85.679,65.479,86.055,64.337,88,63C92.536,65.268,98.04,66.509,101.966,69.785z"/>
		<path style="fill:#3A3A3A;" d="M109,81c-0.565,2.595-1.504,3.594-2.864,0.529L103,79c-2.444,1.814-5.259-0.593-3-3
			c-0.887-1.578,1.422-4.526,3.013-6.205C107.755,69.843,107.882,78.765,109,81z"/>
		<path style="fill:#646464;" d="M123.134,72c0.105,0.277,0.078,0.703,0.052,1c0.609,1.894,1.141,3.945-1.186,3.761
			c-2.108,0.391-4.019,1.471-6,2.239c-0.418-1.498-3.272-3.838-1.535-5.758c1.29-0.845,4.443,0.581,5.535-1.242
			C120.64,70.931,122.374,71.344,123.134,72z"/>
		<path style="fill:#7B7B7B;" d="M112,80c-3.178,0.033-3.382-5.119-4.726-8.63c3.697-2.197,6.764,5.281,6.461,6.911
			C113.609,78.959,112.588,79.405,112,80z"/>
		<path style="fill:#B1B1B1;" d="M109,81l1,2c-4.187-1.672-5.432,6.442-5.872,9.386c-1.027-0.223-2.085-0.29-3.128-0.386
			c0.258-2.987,1.085-6.033,2.482-9.138c-1.238-1.296-1.801-2.213-0.482-3.862C105.532,78.818,109.365,83.998,109,81z"/>
		<path style="fill:#B2B2B2;" d="M88,63c-0.664,1.163,3.457,5.142,5.097,6.903c-1.896,3.435-5.925-0.066-6.482-2.971
			C85.739,68.59,83.49,68.703,82,67.36c0.769-3.156,4.132-1.875,4-5.36L88,63z"/>
		<path style="fill:#6D6D6D;" d="M115,84c-0.964,0.582-1.833,1.777-2.866,1.679C111.576,82.939,110.7,81.316,112,80
			c0.835-0.009,2.598-0.402,2.906,0.566C115.253,81.66,115.014,83.001,115,84z"/>
		<path style="fill:#AEAEAE;" d="M103.013,69.795c-0.968,2.071-1.866,4.219-3.013,6.205c1.609,3.254-2.292,4.665-3,1
			c-1.361-1.131-2.284-1.957-1.113-3.735l3.835,0.602c0.757-1.726,1.144-3.142,2.243-4.083L103.013,69.795z"/>
		<path style="fill:#BEBEBE;" d="M99.953,65.202c-0.653-0.026-1.31-0.043-1.961-0.108C94.721,51.643,93.244,54.372,91,52
			c0.096-2.452,1.965-2.783,4-2C95.059,56.874,98.179,58.544,99.953,65.202z"/>
		<path style="fill:#828282;" d="M112.031,68.098c-1.014,0.436-1.641,1.296-3.357,2.265c-1.317-1.423,0.747-1.906,1.315-2.88
			C110.525,66.564,112.279,66.726,112.031,68.098z"/>
		<path style="fill:#4D4D4D;" d="M24,62l4,3c1.912-2.173,3.439-0.374,2,2l4,3c0.118,0.407-0.091,1.041-0.948,1.039l-16.961-0.042
			L16,64c2.052-0.302,4.376-1.617,6-3C22.295,61.826,23.214,61.992,24,62z"/>
		<path style="fill:#C4C4C4;" d="M81,95c-0.53,0.976-0.904,2.025-1.197,3.094c-0.173-0.36-0.941-0.824-1.337-0.864
			C77.994,97.182,77.358,97.8,77,98c-0.755-0.751-0.504-2.217-1-3C77.498,93.317,79.713,92.788,81,95z"/>
		<path style="fill:#505050;" d="M145,54c2.23-1.561,3.37-0.486,3,2c1.69,0.146,1.357,1.48-1,4c-0.718,0.92-0.754,2.448-2,3
			c-1.543-0.675-3.486-1.643-5.165-2.098c-1.592-1.516-2.784-3.704-1.638-5.818c-1.665-1.166-1.067-2.074,1.008-2.084
			c0.167-2.924,0.766-3.591,1.795-2L145,54z"/>
		<path style="fill:#C6C6C6;" d="M161,56c0.25,0.067-10.512-0.464-14,4l1-4c0.656-1.863,2.772-2.575,6.348-2.134l4.754-0.968
			C161.818,51.286,163.217,53.849,161,56z"/>
		<path style="fill:#CCCCCC;" d="M23.868,30.76c-0.763,1.369-0.249,4.141,0.132,5.466c-1.149-0.657-3.032,0.778-3.388,1.751
			c-1.993,5.456,7.587,5.037,12.28,7.669C33.091,46.479,33.183,47.947,32,48c-3.55-0.932-6.913-1.869-10.089-2.811
			c0.384,2.431-0.198,4.142-1.745,5.134c-0.31,0.315-0.365,1.496-1.012,1.659C18.265,52.205,18.025,50.535,18,50
			c-1.061-1.186-2.033-2.457-2.916-3.814c-2.046-1.325-1.171-3.271,2.626-5.838l-2.871-1.225C12.712,39.713,11.099,39.339,10,38
			c0.727-1.207,1.011-2.599,1-4c2.089,2.338,6.223,3.718,9.409,2.283c1.383-0.764,1.706-2.989,2.641-4.026
			C21.194,31.041,19.646,30.534,19,29C20.682,29.425,22.396,29.774,23.868,30.76z"/>
		<path style="fill:#CFCFCF;" d="M10,32c-1.7-1.909-3.333-4.353-2.841-6.994C8.938,26.73,9.936,29.514,10,32z"/>
		<path style="fill:#4B4B4B;" d="M42.055,54.045C41.885,54.581,41.442,55.618,41,56c-2.128,1.839-0.133,8.24-2,11l-2.64,3.903
			C35.553,70.656,34.764,70.357,34,70l-4-3l-2-2l-4-3l-0.13-10.613c6.036-1.231,10.985-3.043,17.029-4.728
			C41.485,49.81,39.914,52.671,42.055,54.045z"/>
		<path style="fill:#A8A8A8;" d="M49,27c0.501,5.345,1.168,10.345,2,15c-0.719,0.521-1.473,2.004-1.849,2.716
			C48.591,45.776,50.471,46.36,51,47c-0.792,0-1.798,0.077-2,1c-1.334,0-3.225,0.483-4-0.869c1.927,0.088,1.813-0.234,2-1.131
			l1.008-4.836c-0.333,1.6-2.045-11.345-3.135-12.54c-0.748-0.819-1.915-0.372-2.872-0.51c-2.004-1.351-1.409-3.733,0.066-5.306
			c0.371-2.584,1.71-3.29,3.934-1.808l1.469,1.41C46.585,24,47.096,25.53,49,27z"/>
		<path style="fill:#7B7B7B;" d="M18,50l-2.752,2.585c-0.772,0.725-2.185-0.494-3.173-0.512C9.46,51.919,9.435,51.229,12,50
			c1.039-0.691,1.573-1.864,2-3c-0.289-0.879,0.112-1.114,1.084-0.814c1.417-0.283,2.325-1.307,3.77-2.279
			C19.29,46.727,18.084,48.162,18,50z"/>
		<path style="fill:#656565;" d="M32,48c-2.773,0.124-6.21,2.409-8,0c-2.534,1.349-3.579-0.663-2.089-2.811
			C19.4,41.066,35.372,47.215,32,48z"/>
		<path style="fill:#5A5A5A;" d="M21.911,45.189L24,48c0.105,1.07-0.296,2.287-1.558,2.688c-0.621,0.197-1.525-0.065-2.277-0.365
			C19.888,48.29,19.054,45.036,21.911,45.189z"/>
		<path style="fill:#5F5F5F;" d="M103,79l2.756,3.512C104.21,86.289,103.969,89.997,101,92c-2.224,2.095-5.314,3.114-8.197,3.808
			c-1.32,0.082-2.515-0.53-3.714-1.005C88.668,94.145,87.481,93.604,87,93c-1.518-0.339-2.045-2.132-1.581-5.377
			C84.22,86.857,84.484,86.327,86,86c-2.082-1.648-1.474-2.252,1-2l-0.132-1.435C89.242,82.098,91.619,80.909,94,79
			c-0.806-3.012,0.612-3.729,3-2c0.702,0.832,2.513-0.156,3-1C100.459,77.447,102.141,77.905,103,79z"/>
		<path style="fill:#484848;" d="M76,85c1.122-0.429,9.187,1.286,9.399,1.726C85.959,87.887,86.056,93.267,84,93
			c-1.13,0.307-1.898,1.627-3,2c-1.651,0.559-3.571,1.217-5,0c-0.644-0.489-1.654-1.222-2-2l-2.955-4.045
			c0.005-0.826-1.096-1.635-1.761-1.887C67.119,86.543,66.867,85.955,69,85C68.24,81.466,73.768,83.558,76,85z"/>
		<path style="fill:#C4C4C4;" d="M86,86c-0.066,2.166-0.31,5.077,1,7c-0.829,0.014-2.169-0.226-3,0
			c0.974-1.599,1.445-3.585,0.805-5.766L76,85c-0.873-0.284-0.86-0.618,0-1C76.39,80.843,85.708,82.958,86,86z"/>
		<path style="fill:#3D3D3D;" d="M163,36c2.072,0.914,3.739,2.581,5,5l3.11,3.939c1.201,2.547-0.901,4.066-2.193,6.1l-4.954,3.924
			c-0.457,0.004-0.989,0.601-0.963,1.037c-0.644-0.117-1.37,0.17-2,0c-0.561-1.08-0.915-2.289-1.898-3.102
			C154.131,50.614,150.28,42.435,151,37c-0.444-0.691-0.774-1.24-0.705-1.296C155.656,31.367,157.971,32.19,163,36z"/>
		<path style="fill:#4D4D4D;" d="M179,25c-2.673-1.125-5.293-3.179-7.861-6.163c-1.781,0.087-2.494-0.858-2.139-2.837
			c0.128-1.381-0.429-2.783-1-4c0.538-0.07,0.649-0.754,1-1c1.9-2.684,4.418-4.966,7-7C186.224,17.737,180.962,16.218,179,25z"/>
		<path style="fill:#3E3E3E;" d="M178,29c-1.85,4.406-4.744,16.383-6.89,15.939L168,41c-2.434-2.279-3.045-3.922-1.835-4.929
			c-0.267-2.757,1.955-5.646,4.882-5.003C170.663,28.089,175.578,28.247,178,29z"/>
		<path style="fill:#424242;" d="M178,26v2c-4.017,1.396-7.923,1.205-12,0c-3.084-0.132-3.019-0.795-1-3l3-5l1.697-2.181
			C173.111,20.177,175.879,22.905,178,26z"/>
		<path style="fill:#525252;" d="M186.097,18.997c1.738,0.025,2.118,0.818,0.814,2.003c1.142,2.345,1.487,7.605-1.911,6
			c-2.051,1.059-3.781,1.245-5-1c1.69-2.89,1.253-6.855,4.076-9.026C185.817,17.281,186.49,17.955,186.097,18.997z"/>
		<path style="fill:#3D3D3D;" d="M181,29c0.994,1.333,0.656,4.211,0,6c-0.671,2.287-0.904,4.666-0.698,7.135
			c-1.019,0.111-1.74-0.355-2.208-1.311c-1.075,0.969-1.61,0.595-1.094-0.824c-2.217-0.478,2.603-12.161,3-13
			C182.385,26.506,183.609,27.858,181,29z"/>
		<path style="fill:#B3B3B3;" d="M179,25c-0.096,0.431-0.747,0.682-1,1c-2.242-0.902-5.931-6.202-7.641-6.826
			C169.472,18.851,168.82,19.763,168,20c-2.315-1.908-1.88-3.376,1-4L179,25z"/>
		<path style="fill:#C3C3C3;" d="M194,12c1.999,2.981-2.929,7.912-5.953,6.076c0.188,2.619-0.23,2.47-1.95,0.921
			c-0.927-0.376-1.733-1.044-2.021-2.024c0.335,0.027,0.736-0.242,1.06-0.168c1.607,0.367,3.615-0.27,4.555-2.01
			C190.837,12.675,192.64,12.802,194,12z"/>
		<path style="fill:#BDBDBD;" d="M176,4c-1.848,2.723-4.308,5.114-7,7c0.446-3.174,3.848-4.848,6-7H176z"/>
		<path style="fill:#2D2D2D;" d="M177,40c0.431,0.143,1.475,0.124,1.094,0.824c3.224,0.186,2.278,3.992-1.014,3.135
			c-1.02-0.16-2.162,0.49-2.997-0.373C175.266,41.818,175.27,39.96,177,40z"/>
		<path style="fill:#C4C4C4;" d="M185,27c0.873,0.284,0.86,0.618,0,1c-0.037,2.5-1.263,2.607-3,1c-0.284,0.873-0.618,0.86-1,0
			c0-0.791-0.049-1.8-1-2c0.128-0.271-0.15-0.743,0-1C181.645,26.444,183.287,26.946,185,27z"/>
		<path style="fill:#B4B4B4;" d="M178,28c0,0.301,0.115,0.727,0,1c-2.418-0.277-5.323-0.002-6.953,2.068
			c-4.385,0.34-6.067-0.682-5.047-3.068C170.026,28.109,173.991,28.557,178,28z"/>
		<path style="fill:#484848;" d="M34,76l-2,5l-2,5l-8-2c-1.655-2.044-4.485-2.924-7-3c-2.36-2.547,0.58-5.153,1.326-8.961
			l18.687-0.018C34.2,73.599,33.913,74.686,34,76z"/>
		<path style="fill:#DDDDDD;" d="M143,31c0.569,0.533,1.124,1.131,1.386,1.879c0.262,0.748-7.951,12.684-8.532,13.322l-1.932,0.797
			c0.12,1.51-0.546,3.066-1.999,4.667c1.208,1.171,1.684,2.23,0.852,3.928l-0.94,0.215c-0.952,0.872-1.763,1.938-2.433,3.199
			c-1.472-0.567-3.18-2.711-5.187-1.874c-1.692,0.705-2.914,1.533-4.301,1.936c0.383-1.034,1.182-1.918,2.337-2.779
			c2.201-1.64,2.541-4.628,0.749-6.29c-0.722-0.41-0.765-0.766-0.039-1.215c0.108-0.897,0.414-0.904,0.903-0.092
			c1.259-0.663,2.587-0.14,1.241,1.307c1.339,0.665,3.186-0.26,5.543-2.774c-1.328,0.063-1.169-0.657,0.478-2.16
			c-0.156-2.083,0.965-4.215,3.363-6.397c1.005-3.165,2.509-5.054,4.511-5.669c-1.29-2.464,1.788-3.993,4-3V31z"/>
		<path style="fill:#3D3D3D;" d="M133.921,46.998c5.196,0.654,6.957,2.654,5.283,6.002c-0.286,0.753-0.63,1.386-1.008,2.084
			c-0.686,0.575-1.182,1.578-1.872,1.721c-1.265,0.261-2.647-0.686-3.551-1.212c-0.735-1.112-1.796-1.866-3.213-2.916
			C130.057,50.108,131.548,47.762,133.921,46.998z"/>
		<path style="fill:#5B5B5B;" d="M131.835,55.808c0.756,1.211,2.375,1.638,3.524,2.921c1.147,1.281-0.265,2.94-1.262,3.81
			c-1.349,1.177-2.768-0.378-3.819-1.54c-0.011-0.589-0.203-1.732-0.877-1.992c-0.296-1.204-1.086-2.403-0.455-4.174
			C130.379,54.678,131.006,55.494,131.835,55.808z"/>
		<path style="fill:#5E5E5E;" d="M139.835,60.902c0.552,0.526,0.661,1.524,1.165,2.098c-0.351,0.932-1.068,1.649-2,2
			c-0.616-0.821-2.038-0.715-2.646-1.117c-0.904-0.598-1.129-2.609,0.224-3.499C137.333,59.887,138.865,60.638,139.835,60.902z"/>
		<path style="fill:#DDDDDD;" d="M205,26c-1.668-0.038-3.359,0.216-5.024,0.065c-1.609-2.811,2.769-4.407,5.024-3.065V26z"/>
		<path style="fill:#CECECE;" d="M208,19c-0.785,1.534-2.018,2.641-3,4l-1.335-0.204c-1.463-4.452-3.538-8.675-6.224-12.67L198,8
			c0.74-1.777,1.409-2.945,3-4c-0.04,0.964-1.236,2.415-0.626,3.658l4.946,10.082C205.817,18.754,207.274,19.151,208,19z"/>
		<path style="fill:#DBDBDB;" d="M124.868,76.909c-0.911,0.356-1.988-0.311-2.868-0.148c0.782-1.095,1.072-2.435,1.186-3.761
			C124.131,74.073,124.499,75.536,124.868,76.909z"/>
		<path style="fill:#B9B9B9;" d="M43,94l-2,3c-0.769,0.102-1.441-0.86-2-1v-1C40.196,94.887,41.926,94.494,43,94z"/>
		<path style="fill:#434343;" d="M14.87,5.988l-1.042,2.406C13.4,9.384,12.03,8.899,11.562,7.992
			c-0.404-0.783-0.788-2.525,0.45-2.624C13.204,5.273,14.016,6.74,14.87,5.988z"/>
		<path style="fill:#292929;" d="M14,13c-1.277-0.486-1.03-2.055-1.039-3.186c0.514-0.214,1.86-0.294,2.418,0.281
			c0.381,0.393,0.771,0.951,0.243,1.831C15.346,12.386,14.644,12.554,14,13z"/>
		<path style="fill:#353535;" d="M11,10v2c-0.568-0.189-1.143-0.54-2.031-1.511C8.595,8.87,10.507,8.185,11,10z"/>
		<path style="fill:#323232;" d="M185,28c1.971-2.548,3.305-2.548,4,0c2.198-0.212,3.198,0.454,3,2l3,4
			c0.079,0.918,1.277,2.331,0.469,2.989L193,39l-10.942,4.031l-2.6-0.201c0.459-2.552,0.973-5.162,1.542-7.83
			c0.356-2.083,0.69-4.083,1-6C182.733,28.049,183.89,28,185,28z"/>
		<path style="fill:#B1B1B1;" d="M182.058,43.031l0.105,3.018l-1.602-1.729l-1.826,1.595c-0.198-0.787-0.668-1.803-1.654-1.957
			c0.901-0.887,1.716-1.826,1.014-3.135c3.378-0.118,0.687-3.964,2.906-5.824C181,37.756,179.865,40.993,182.058,43.031z"/>
		<path style="fill:#DEDEDE;" d="M10,38c2.927,0.002,2.803,3.341,0,4c-0.73-0.958-1.04-2.204-2-3C8.643,38.436,9.175,38.212,10,38z"
			/>
		<path style="fill:#DFDFDF;" d="M12.075,52.073L8,52v-1c1.393,0,2.82-0.215,4-1L12.075,52.073z"/>
		<path style="fill:#E6E6E6;" d="M188.047,18.076c3.206,0.428,8.886,4.866,6.488,8.026c1.827-0.571,2.962,2.805,1.283,3.726
			c-1.395-0.599-2.373-1.794-3.656-2.565c-2.016-0.258-3.354-1.905-4.014-4.941c-0.392,0.294-0.805-0.147-1.239-1.323
			c-0.084-0.699-0.663-1.315-0.814-2.003C186.166,17.933,187.534,18.451,188.047,18.076z"/>
		<path style="fill:#BDBDBD;" d="M192,30c-0.709-0.945-2.325-0.786-3-2c-0.493-2.941,1.607-3.3,3.163-0.736
			C192.648,28.168,191.931,29.078,192,30z"/>
		<path style="fill:#B6B6B6;" d="M168.917,51.039c-1.193,1.877-2.479,3.901-4.954,3.924
			C165.213,53.242,166.538,50.753,168.917,51.039z"/>
		<path style="fill:#6E6E6E;" d="M205,23c-1.31,1.812-3.465,1.616-5.024,3.065c-0.895-0.081-2.06-0.004-2.9-0.309
			c-0.639,2.381-1.088,2.202-2.541,0.346c-1.117-3.244-5.355-4.583-6.488-8.026c2.286-1.669,4.433-3.685,5.953-6.076
			c1.455-0.857,3.36-2.464,4-4C200.508,9.479,205,18.86,205,23z"/>
		<path style="fill:#575757;" d="M197.076,25.756c0.331,1.142,1.635,3.349,0.461,4.443c-0.319,0.297-1.433-0.428-1.718-0.37
			l-1.283-3.726C195.41,25.501,196.163,25.424,197.076,25.756z"/>
		<path style="fill:#7D7D7D;" d="M15.084,46.186C14.747,46.489,14.384,46.761,14,47c-2.259-0.698-2.664-3.245-4-5v-4
			c1.95-0.502,3.85-1.224,5.898-0.708c1.605,0.404,4.724,1.747,3.515,4.216C18.469,43.435,15.148,43.9,15.084,46.186z"/>
		<path style="fill:#595959;" d="M80,27c0.511,0.622,1.285,0.757,2,1l14,8.205c0.642,0.138,1.206,0.986,2,0.795l1.285,0.705
			C97.546,41.567,96.117,45.666,95,50c-1.002,1.516-2.25,2.038-4,2c-0.725-0.766-2.229-0.878-3.158-1.8L71.636,34.129
			C74.564,31.224,76.507,27.563,80,27z"/>
		<path style="fill:#515151;" d="M112,15c0.756,1.146,1.671,2.395,2.967,2.988L118,23c1.191,1.2,1.482,1.85-0.294,2
			c0.931,3.192-9.928,7.751-12.562,7.841c-0.371,0.013-0.755-0.359-1.144-0.841c-2.444,1.341-2.77,0.413-2-2
			c0.288-2.771,0.621-5.437,1-8c0.151-3.504,0.365-7.397,1-11v-1C106.7,11.627,109.091,13.756,112,15z"/>
		<path style="fill:#BBBBBB;" d="M122.961,48.785L123,50L99.34,38.119C97.946,41.991,97.346,46.45,95,50
			c-0.051-5.996,2.703-7.504,3-13l3-2c7.117,3.48,14.139,7.384,21.065,11.711L122.961,48.785z"/>
		<path style="fill:#D3D3D3;" d="M104,32c-0.598,0.977-0.897,1.465-0.897,1.465c5.646-1.642,11.497-2.133,17.554-1.475
			c0.997-1.156,1.625-1.786,3.343-0.99c1.887,0.186,2.292,1.566,1.214,4.141c1.352,3.958,0.947,6.577-1.214,7.859
			c-2.286,0.637-3.506-1.331-3.659-5.904l-16.51-0.086c-1.581-0.109-2.524-0.779-2.831-2.01c0.234-1.721-0.678-3.783,1-5
			C101.895,30.836,103.356,31.838,104,32z"/>
		<path style="fill:#BCBCBC;" d="M96,36.205C94.65,35.914,81.818,29.362,82,28C87.028,29.711,92.498,32.234,96,36.205z"/>
		<path style="fill:#CFCFCF;" d="M103,22c-0.284,0.873-0.618,0.86-1,0c1.161-5.868,0.855-11.675,2-11
			C104,14.811,104.504,18.517,103,22z"/>
		<rect x="79" y="10" style="fill:#D6D6D6;" width="1" height="8"/>
		<path style="fill:#D0D0D0;" d="M102,30c0.327-2.594-0.506-5.44,0-8h1C101.954,24.421,104.546,28.153,102,30z"/>
		<path style="fill:#C7C7C7;" d="M104,9c-1.537-0.768-2.291-3.471-2-5C103.432,5.325,104.236,6.946,104,9z"/>
		<path style="fill:#565656;" d="M143,30c-0.385,1.255-3.056,2.492-4,3c-1.811,2.066-2.07,1.732-2-1l-9-4
			c-0.203-1.236,0.13-2.57,1-4c2.912-3.027,3.507-7.595,6.184-10.908c-1.355-1.295-0.888-1.881,0.816-1.092h1
			c3.557,2.951,8.193,4.281,12.742,6.74C147.31,23.208,144.222,26.021,143,30z"/>
		<path style="fill:#5F5F5F;" d="M135,8c1.411,0.811,1.336,2.525,1,4c-0.093,0.41-0.558,0.772-0.816,1.092
			c-4.397,3.225-7.149,2.416-14.401,1.746l11.919-12.006C133.316,5.221,133.39,7.075,135,8z"/>
		<path style="fill:#A9A9A9;" d="M30,16c2.142,2.121,4.46,4.192,6.956,6.214l0.088,1.405c1.711,0.096,2.319,0.81,1.933,2.383
			c1.5,0.093,2.703,0.286,3.022,2.112c-1.588,2.496-5.088,1.67-7,3.886c-0.357-1.952,1.257-4.399,0.367-6.605
			C35.126,24.8,28.021,15.795,27,19c-0.104-1.065-0.436-2.09-1-3H30z"/>
		<path style="fill:#B3B3B3;" d="M37,11c-0.862,2.569-2.072,2.909-4,1c0.375-1.336,0.962-2.798,0-4c1.565,0,2.776-1.114,4-2
			C38.677,7.043,38.677,8.71,37,11z"/>
		<path style="fill:#B6B6B6;" d="M32,16c0.002,2.072-1.112,1.735-2,0c-0.205-1.528,1.912-3.322,3-4
			C35.257,13.92,34.889,15.366,32,16z"/>
		<path style="fill:#5A5A5A;" d="M157,27c1.029,0.676,1.727,1.997,1,3c0.177,2.168-0.673,3.164-2.55,2.986
			c-2.893,2.288-5.376,2.959-7.45,2.014c-2.581,1.112-3.038-0.184-1-2c-0.609-1.218-1.49-2.044-2.981-3.353l6.836-9.928
			c0.937-1.361,5.414-1.401,5.887,0.045C157.627,22.471,156.666,24.944,157,27z"/>
		<path style="fill:#616161;" d="M169,16c-0.126,1.36-0.799,2.653-1,4c-0.813,1.839-1.813,3.172-3,4c0.479,3.689-7.521,7.83-7,3
			c0.005-4.166-0.653-8.565,2-12c-0.934-2.507-0.383-2.906,2-2C165.422,11.61,167.009,14.208,169,16z"/>
		<path style="fill:#585858;" d="M147,33l1,2c0.915,0.322,0.912,0.655,0,1c0.881,0.333,0.881,0.666,0,1l-3,4
			c1.325,1.405,0.767,1.92-1,1l-3,4c1.197,1.448,0.646,1.986-1,1c0.16,2.423-0.655,3.321-1.867,1.23l-4.212-1.232
			C132.944,43.708,141.619,35.326,143,31C144.207,31.912,145.453,32.858,147,33z"/>
		<path style="fill:#5D5D5D;" d="M162,13c-0.116,1.035-1.499,1.351-2,2c-1.246-0.013-3.95,0.304-4.654-1.33
			c-0.063-1.306,1.985-4.258,3.172-4.36C160.239,10.037,161.233,11.884,162,13z"/>
		<path style="fill:#5A5A5A;" d="M157.558,16.314c0.624,1.312-2.639,2.38-4.509,1.491c-1.13-0.537-0.017-1.742,0.425-2.247
			C154.277,14.642,155.879,15.199,157.558,16.314z"/>
		<path style="fill:#B5B5B5;" d="M165,25c0,1.081,0.551,2.037,1,3c-0.536,2.293-6.18,4.709-8,3v-1c-0.529-0.926-0.83-1.952-1-3h1
			c0.238,0.449,0.766,1.979,1.668,1.681c2.466-0.816,4.024-2.891,5.332-4.681C165.63,24.296,165.617,24.63,165,25z"/>
		<path style="fill:#3F3F3F;" d="M64,8c0.192,1.739,4.981,7.366,2.984,8.097c0.078,0.782,0.068,1.579-0.19,2.318
			C66.368,19.636,64.682,18.681,64,19c-2.54,0.415-5.015,0.746-7.424,0.994L56,18c-1.886,2.162-3.443,0.41-2-2
			c-2.153-1.191-2.153-2.191,0-3l6.173-4.827C60.473,7.8,60.742,7.403,61,7C61.955,7.373,63.151,7.306,64,8z"/>
		<path style="fill:#BABABA;" d="M54,13v3c-1.734,1.923-2.756,1.688-3-1c-2.963-0.81-6.046-1.139-9.248-0.986
			C42.423,15.276,42.839,16.604,43,18c0.047,1.719-0.582,3.03-1.887,3.932c-0.719,2.069-1.928,2.212-3.113,0.37
			c-1.942,0.144-2.598-1.086-1-2.302c0.821-2.059,0.265-4.427-1.668-7.104L37,11l1.111-1.991L48,9h1
			c0.668,1.596,0.98,3.932,2.976,4.853C52.718,14.195,53.558,13.046,54,13z"/>
		<path style="fill:#ADADAD;" d="M60.173,8.173C58.635,10.09,56.418,12.761,54,13C55.536,10.841,57.275,7.945,60.173,8.173z"/>
		<path style="fill:#616161;" d="M129,24c-0.428,1.509-1.095,2.842-2,4c-1.584,1.526-3.25,1.193-5-1c-1.507,1.27-2.066,0.713-1-1
			c-1.688-0.74-2.688-1.74-3-3l-3.033-5.012c-0.901-1.428,15.85-1.454,16.401-0.637C130.233,20.394,129.006,21.952,129,24z"/>
		<path style="fill:#444444;" d="M41,5l5,1c0.573,1.058,0.829,2.377,2,3c0.107,0.944-0.411,2.091-1.889,2.078L37,11
			c-0.574-0.498-1.342-0.835-1.787-1.683C36.325,8.184,36.885,7.172,37,6c0.348-0.252,0.69-0.514,1-0.814L41,5z"/>
		<path style="fill:#BCBCBC;" d="M46,6c-1.819,0.056-3.747,0.454-5-1C42.621,4.899,45.064,4.27,46,6z"/>
		<path style="fill:#B1B1B1;" d="M32,81c-0.011-1.922,0.773-3.491,2-5C34.126,77.912,33.587,79.859,32,81z"/>
		<path style="fill:#AFAFAF;" d="M30,86c-0.305-1.838,0.514-3.931,2-5C32.011,82.826,31.745,85.106,30,86z"/>
		<path style="fill:#434343;" d="M64,80c5.452,1.618,7.118,3.285,5,5l0.283,2.068c-0.356-0.135-0.823,0.041-1.199-0.029
			c-1.553,1.744-2.573,2.308-2.705-0.047C62.61,86.497,60.817,85.5,60,84c-0.856-0.464-1.614-1.075-2-2
			C59.244,79.907,61.814,80.003,64,80z"/>
		<path style="fill:#4B4B4B;" d="M65,91c-0.179,0.697-0.886,1.291-1,2c-0.892,0.791-2.108,0.791-3,0l-2-3
			c-1.557-0.962-1.945-1.703,0-2c0.341-0.221,0.698-0.713,1-1c0.027-0.665,0.364-1.628,0.892-1.591
			C64.094,85.63,68.856,87.944,65,91z"/>
		<path style="fill:#BABABA;" d="M68.084,87.039C67.438,88.631,66.581,90.207,65,91c0.606-1.709,1.406-3.252-0.686-3.859
			C62.842,86.713,61.214,85.845,60,87v-3C62.545,85.38,65.229,86.51,68.084,87.039z"/>
		<path style="fill:#C0C0C0;" d="M74,93c-1.64-0.753-2.967-2.12-2.955-4.045C72.714,89.661,73.971,91.149,74,93z"/>
		<path style="fill:#494949;" d="M93.097,69.903c0.997,1.071,2.082,2.018,2.79,3.362c0.342,0.649,1.143,1.034,1.584,1.719
			C97.906,75.66,97.522,76.391,97,77c-0.773,0.798-2.358,1.085-3,2l-6.316,4.022c-2.488-0.985-10.729-10.098-11.361-12.854
			c2.26-0.175,3.889-1.69,5.677-2.808c1.417-0.886,3.484-1.636,5.134-2.11C89.089,67.743,90.556,70.023,93.097,69.903z"/>
		<path style="fill:#595959;" d="M68.937,67.018C72.698,68.77,73.35,71.209,72,75l-1.637,8.132C68.445,81.954,66.324,80.91,64,80
			c-0.866-0.821-2.043-1.477-1.939-2.496C62.076,77.356,64.547,65.595,66,64C66.758,65.261,67.875,66.093,68.937,67.018z"/>
		<path style="fill:#B6B6B6;" d="M76.323,70.168c2.97,4.398,7.605,7.913,11.493,12.164C90.191,80.56,91.719,79.081,94,79
			c-1.68,2.397-4.436,3.653-7,5l-1.167,0.71c-3.924-3.036-7.558-6.502-10.902-10.399C74.033,74.908,73.056,75.138,72,75
			c0.322-3.188-0.508-5.756-3.063-7.982C72.638,67.165,71.149,70.054,76.323,70.168z"/>
		<path style="fill:#E8E8E8;" d="M83,60c-2.573-0.181-5.006-1.188-7-2.978C78.628,57.091,81.17,57.951,83,60z"/>
		<path style="fill:#3F3F3F;" d="M54,29c1.788-0.172,2.741,0.542,2.858,2.142l1.223,3.879C56.141,37.716,53.676,40.059,51,42
			c-1.496,3.373-6.324-15.194-2-15c0.321-0.851,0.655-0.848,1,0C51.911,25.549,54.008,26.509,54,29z"/>
		<path style="fill:#BCBCBC;" d="M64,19c-1.427,1.198-3.622,1.309-6.649,0.796l-0.493,11.345C55.661,30.904,54.909,29.57,54,29
			c0.104-3.148,0.107-6.36,0.008-9.638L56,18C57.945,19.945,61.302,18.933,64,19z"/>
		<path style="fill:#D0D0D0;" d="M59,88v2c-1.409-0.532-2.89-0.947-4-1.992C56.331,87.929,57.668,87.938,59,88z"/>
		<path style="fill:#CECECE;" d="M123,65c-1.481-0.657-3.86-0.876-3.852-3.055C121.001,61.432,122.136,63.628,123,65z"/>
		<path style="fill:#B6B6B6;" d="M28,65c-1.42-0.037-3.979-1.279-4-3C25.878,62.019,27.277,63.327,28,65z"/>
		<path style="fill:#B7B7B7;" d="M34,70c-1.865-0.039-3.29-1.326-4-3C31.773,67.089,33.501,68.279,34,70z"/>
		<path style="fill:#565656;" d="M151,37c2.744,5.28,5.083,10.769,8.102,15.898c0.734,3.659-9.029,3.176-11.102,3.102
			c-1.183-0.042-2.186-1.319-3-2l-4-3c-1.587-0.059-3.134-3.493-1-4c0.328-0.286,0.603-0.821,1-1l3-4l1-1l3-4
			c-0.008-0.332,0.039-0.67,0-1C149.267,35.045,151.116,35.061,151,37z"/>
		<path style="fill:#C5C5C5;" d="M140,47c-0.155,1.465,0.412,2.726,1,4c-0.728,0.111-1.546,1.345-1.795,2
			c-0.067-1.395,0.149-3.041-1.274-4.279c-0.808-0.703-3.145,0.22-4.01-1.723C136.146,46.431,138.271,48.508,140,47z"/>
		<path style="fill:#BBBBBB;" d="M145,54c-1.928-0.072-3.233-1.338-4-3C142.916,50.708,144.237,52.444,145,54z"/>
		<path style="fill:#2C2C2C;" d="M41.113,21.932c1.418-1.668,2.068-1.079,0.953,0.877c1.02,1.736,1.006,3.621-0.066,5.306
			c-1.288-0.186-2.474,0.139-4.523,1.07c-1.024-1.847-0.236-3.755-0.432-5.564c-1.318-1.461-0.843-2.116,0.955-1.318
			C39.041,22.209,40.08,22.09,41.113,21.932z"/>
		<path style="fill:#4F4F4F;" d="M49,27c-1.236-0.278-5.37,0.487-4.92-0.746L46,21c-1.052-1.929-0.034-2.768,2-2
			C50.393,19.592,49.891,24.792,49,27z"/>
		<path style="fill:#2B2B2B;" d="M48,19c-0.77,0.552-1.279,1.405-2,2c-1.133,0.935-2.443,1.781-3.934,1.808
			c-0.248-0.422-0.228-0.988-0.953-0.877c-0.911-0.938-1.393-1.731-0.064-2.401C41.75,19.178,42.41,18.617,43,18
			C44.85,17.289,48.889,16.624,48,19z"/>
		<path style="fill:#3D3D3D;" d="M87,84c0.129,0.793-0.711,1.451-1,2l-10-2c-1.855-0.235-3.913-0.352-6.173-0.351l-0.386-1.305
			C70.795,80.457,71.648,78.009,72,75c1.113-1.176,0.457-2.545,1.904-4.648L87,84z"/>
		<path style="fill:#BFBFBF;" d="M76,84v1c-2.368-0.601-4.906-1.716-7,0c-0.544-3.972-1.577-1.754-5-5
			c2.045-0.003,3.968,0.519,5.768,2.118C70.592,79.24,70.363,76.729,72,75c-0.255,2.522-0.141,4.874-1.26,7.834
			C73.249,82.567,74.624,83.725,76,84z"/>
		<path style="fill:#BBBBBB;" d="M158,31c2.853,0.301,7.094,1.724,5,5c-2.111,0.368-3.383-2-5.484-2.529
			C155.177,32.882,152.09,35.224,151,37c-0.907-0.571-1.943-0.861-3-1c-0.036-0.303,0.134-0.732,0-1c3.787-0.204,7.422-2.25,10-5
			C157.972,30.33,158.045,30.672,158,31z"/>
		<path style="fill:#B7B7B7;" d="M166.165,36.071c0.08,1.832,1.616,3.134,1.835,4.929c-1.99-1.279-3.834-2.905-5-5
			C163.456,33.1,165.322,33.395,166.165,36.071z"/>
		<path style="fill:#B5B5B5;" d="M171.11,44.939c-1.835-0.132-2.905-2.254-3.11-3.939C169.404,41.903,171.595,43.034,171.11,44.939z
			"/>
		<path style="fill:#505050;" d="M166,28c1.045,2.243,5.748-0.579,5.047,3.068c-1.437,1.825-2.657,3.995-4.882,5.003
			c-1.037,0.086-2.136-0.25-3.165-0.071c-1.933-3.472-5.419-1.979-5-5C160.321,29.286,163.055,27.92,166,28z"/>
		<path style="fill:#BABABA;" d="M165,25v-1c1.007-1.377,1.083-3.446,3-4C167.7,22.009,167.009,24.196,165,25z"/>
		<path style="fill:#B6B6B6;" d="M188.15,22.323c1.181,1.792,2.444,4.002,0.85,5.677h-4v-1c2.493-0.829,2.181-3.74,1.911-6
			C187.413,21.071,188.233,21.746,188.15,22.323z"/>
		<path style="fill:#BBBBBB;" d="M181,35v-6h1C181.88,31.027,182.741,33.54,181,35z"/>
		<path style="fill:#3F3F3F;" d="M137,32c0.558,0.467,1.403,0.589,2,1c-0.952,4.513-3.961,9.456-7.874,12.066
			c-1.438,1.721-3.485,2.968-6.142,3.742L124,43c0.056-2.326-0.245-4.537-0.72-7.195c-0.312-1.745,0.853-3.332,0.72-4.805
			c-1.044-1.895-0.044-2.895,3-3c0.284-0.873,0.618-0.86,1,0L137,32z"/>
		<path style="fill:#555555;" d="M124,43c0.158,1.997,0.562,3.708,1.211,5.133l-1.347,0.56l-0.903,0.092
			c-6.16-3.709-12.865-6.698-19.668-10.037c-2.024-0.993-2.557-1.805-2.293-3.748l20.789,0.103C123.724,37.7,121.914,41.119,124,43z
			"/>
		<path style="fill:#606060;" d="M130.648,47.226c-1.306,2.226-2.612,4.499-4.832,6.3c-1.073-1.013-0.738-2.382-0.711-3.526
			C123.379,48.24,128.899,46.614,130.648,47.226z"/>
		<path style="fill:#B6B6B6;" d="M131.126,45.066c-0.27,0.651-0.118,1.547-0.478,2.16c-2.202-0.064-3.807,1.595-5.543,2.774
			l-1.241-1.307L124,43c1.235,1.113,0.765,3.201,1.356,5.134C127.198,47.18,129.625,46.067,131.126,45.066z"/>
		<path style="fill:#4E4E4E;" d="M192.163,27.264C191.01,26.858,190.142,28,189,28c-0.978-1.76-1.14-3.673-0.85-5.677
			C190.203,23.206,191.209,25.331,192.163,27.264z"/>
		<path style="fill:#5D5D5D;" d="M121,26c0.179,0.405,0.733,0.647,1,1c3.131,1.18,3.797,2.513,2,4
			c-0.723,0.729-1.54,2.881-3.027,2.889l-19.009,0.103c0.339-1.37,1.523-1.286,2.035-1.993l13.706-7
			C118.621,24.241,119.719,24.574,121,26z"/>
		<path style="fill:#BEBEBE;" d="M118,23c-1.688-0.9-3.34-3.059-3.033-5.012C116.914,18.88,117.815,20.903,118,23z"/>
		<path style="fill:#CDCDCD;" d="M121,26c-1.128-0.228-2.233-0.554-3.294-1c-0.024-0.66,0.352-1.345,0.294-2
			C119.305,23.696,120.387,24.616,121,26z"/>
		<path style="fill:#B9B9B9;" d="M137,32c-3.253-0.177-6.633-1.809-9-4C131.335,28,134.479,29.89,137,32z"/>
		<path style="fill:#C1C1C1;" d="M128,28h-1c0.181-1.715,0.859-2.814,2-4C128.996,25.391,128.661,26.78,128,28z"/>
		<path style="fill:#444444;" d="M32,16l4,3c1.305-1.462,1.932-0.814,1,1c0.384,0.743,0.686,1.528,1,2.302l-0.955,1.318
			C34.274,21.829,30.467,19.485,30,16H32z"/>
		<path style="fill:#4F4F4F;" d="M37,11c0.249,3.924,4.814,6.843,2.007,8.532C38.426,19.882,37.706,20.015,37,20
			c-0.206-0.399-0.82-0.601-1-1l-4-3c0.261-1.347,0.629-2.678,1-4C34.069,11.334,35.644,10.988,37,11z"/>
		<path style="fill:#C2C2C2;" d="M141,46c-0.024-1.887,1.806-2.806,3-4C144.028,43.895,142.652,45.257,141,46z"/>
		<path style="fill:#C1C1C1;" d="M145,41c-0.004-1.877,1.32-3.306,3-4C148.048,38.897,146.196,39.804,145,41z"/>
		<path style="fill:#474747;" d="M54,16l2,2l0.055,9.08c0.005,0.858-0.133,1.581-0.603,1.877C55.09,29.184,54.42,29.013,54,29
			c-1.461-0.377-3.126-0.56-4-2c0.004-3.329-0.663-6.544-2-9.643L50,16c-0.236-0.903,0.097-1.236,1-1
			C52.023,15.21,53.271,15.271,54,16z"/>
		<path style="fill:#4F4F4F;" d="M51,15c-0.279,0.383-0.633,0.704-1,1c0.054,2.659-1.125,3.146-3.537,1.462L43,18
			c-2.297,0.116-2.954-2.636-4.114-5.574C42.146,11.854,49.913,10.637,51,15z"/>
		<path style="fill:#CBCBCB;" d="M127,28c-0.664,1.088-2.089,2.082-3,3c-0.142-1.562-1.071-2.774-2-4
			C123.645,27.443,125.287,28,127,28z"/>
		<path style="fill:#C4C4C4;" d="M50,27c-0.327-0.03-0.711,0.065-1,0c0.288-2.59,0.606-6.073-1-8c-1.252-1.502-3.151-1.094-5-1
			c1.897-1.983,4.922-0.324,7-2V27z"/>
		<path style="fill:#ABABAB;" d="M36,19c-1.846-0.037-3.377-1.288-4-3C33.901,16,35.254,17.347,36,19z"/>
	</g>
</g>
</svg>
