<?xml version="1.0" encoding="iso-8859-1"?>
<!-- Generator: Adobe Illustrator 30.1.0, SVG Export Plug-In . SVG Version: 9.03 Build 0)  -->
<svg version="1.1" id="Layer_1" xmlns="http://www.w3.org/2000/svg" xmlns:xlink="http://www.w3.org/1999/xlink" x="0px" y="0px"
	 viewBox="0 0 197 114" style="enable-background:new 0 0 197 114;" xml:space="preserve">
<g>
	<g>
		<path style="fill:#FBFBFB;" d="M7,0C6.451,1.25,24.761,1.255,29.604,1.476l23.791,1.083l21.21,0.888l23.799,1.1l22.243,0.909
			c7.081,0.289,13.697-0.16,20.878,0.867l53.941,38.146c0.868,3.586,0.785,6.806,0.255,10.366l-5.815,39.038L122,104
			c-0.568-0.3-0.554-0.634,0-1l0.725-1.864c1.15,1.091,2.241,1.045,3.275-0.136c1.732-0.943,3.962-1.461,6.691-1.554
			c0.271-4.435,0.526-8.857,0.766-13.268L135,84c-0.826-0.334-0.826-0.668,0-1c-3.423-0.494-2.529-9.619,0-11
			c-0.204-1.479,0.13-2.146,1-2c1.742,0.488,2.409,2.488,2,6c0.873,0.284,0.86,0.618,0,1c0.093,1.826-0.241,3.493-1,5
			c0.662,0.294,0.649,0.628,0,1c-0.881,3.738-0.86,8.266,0,12c0.873,0.284,0.86,0.618,0,1c0.677,3.647,4.612,3.559,2,0
			c-0.873-0.284-0.86-0.618,0-1c0.002-2.927,3.341-2.803,4,0c1.945,0.02,2.236,0.796,2.062,2.476l10.5-1.488
			c2.206-1,4.019-0.996,5.438,0.012c1.143-1.604,3.049-2.183,5.718-1.738l3.87-0.657c3.31-1.805,6.273-2.499,8.89-2.082
			c2.366-2.336,3.952-1.247,1.585,1.21c-3.085,1.899,5.009-0.245,5.937-2.732c-2.647,0.261-2.593-0.753-0.094-1.682
			c0.534-2.595,0.877-5.249,1.028-7.962L190,79c-1.438-1.802-1.096-1.836,1-2c-3.249-0.818-1.765-5.807-0.068-7.738
			c-1.694-0.125-1.317-0.378,0.068-1.262c-1.534-1.429-1.133-3.76,0.304-5.108c-1.665-1.043-1.171-1.726,0.753-1.087
			c-1.202-1.019-1.351-2.424-0.446-4.214l1.465-9.583c-0.4-1.249-1.426-2.252-3.077-3.009c-1.559-0.277-2.994-1.353-4.306-3.228
			c-3.086-1.102-4.974-2.712-5.665-4.83l-2.132-0.108c-4.209-4.564-8.758-6.431-13.646-5.603l-1.877-1.502
			c-0.8-0.12-0.799-0.397-0.06-0.816c-1.581-4.654-5.205-8.151-10.871-10.492L151,16.173c-1.715,1.39-2.618,0.703-2.709-2.06
			C145.822,15.259,142.45,12.695,143,10c-2.063,1.789-2.73,1.456-2-1c-1.548,1.217-3.668,1.324-6.362,0.321
			C130.791,9.78,128.245,9.007,127,7c-0.631,2.125-1.992,2.42-4.081,0.885c0.298,3.539-5.403,2.578-5.189-0.714
			c-2.664,0.951-5.575,1.299-8.732,1.045c-0.137,0.944-0.447,0.962-0.921,0.1C106.009,8.376,103.716,8.214,103,6
			c-0.523,1.191-2.19,1.191-5,0c-0.73,0.488-1.73,0.488-3,0c-0.841,0.742-2.1,1.041-2.777,0.097
			c-1.14,2.145-3.785,2.639-4.286-0.234l-1.066,0.802c0.087,4.903-4.363,1.008-6.561-1.24c-0.938,1.594-3.29,2.123-7.057,1.589
			c-0.321,3.342-1.406,4.281-3.253,2.815c-1.497,0.164-2.328-0.886-2.494-3.148c-3.222-0.316-6.29-0.849-9.205-1.599
			C59.232,6.138,59.59,6.959,58,7c2.015,1.113,2.187,2.14,0,3c-1.204,1.512-1.577,0.835-1.436-1.076
			c-2.254,0.078-2.503-0.83-0.572-1.984c0.021-0.753-0.297-1.049-0.99-0.84c0.877,3.724-4.64,2.676-5.966-0.221
			C47.319,6.336,45.974,6.044,45,5c-2.736,0.253-5.773-0.191-8-2c0.379,1.739-1.787,0.805-3,0c-0.69,1.442-2.011,2.194-3.962,2.253
			C30.212,7.464,29.718,9.506,28,11c0.873,0.284,0.86,0.618,0,1c0.873,0.284,0.86,0.618,0,1c-1.145,1.771-1.808,1.299-1.037-0.78
			C24.319,11.447,24.067,9.848,26,8c-1.579-1.758-1.088-3.887,1-5c-1.977-1.38-4.5-0.455-6.139,1.14L20,3
			c-1.561,1.694-7.306,1.455-9,0C9.22,4.311,5.683,4.617,5,2C3.418,1.289,2.085,1.289,1,2c0.908,0.182,0.872,0.522,0,1
			c2.463,0.56,2.624,1.475,0.481,2.744L1.89,8c1.461-0.63,1.773,0.226,2.029,1.672c0.462,1.739,0.255,3.497-0.622,5.276
			c2.161,0.241,2.366,1.663,0.615,4.267C5.494,20.461,5.051,22.489,4,24c0.881,0.273,0.865,0.607,0,1
			c1.798,0.829,1.386,1.623-0.627,1.425c1.006,1.376,1.84,2.693,2.501,3.95c2.399,0.636,5.929,3.518,4.218,6.055
			c2.672,0.874,3.163,1.398,2.659,4.307c3.35-0.854,3.742,2.506,3.142,5.289c0.808-1.032,1.521-0.69,2.139,1.026
			c0.355-1.814,1.226-1.753,1.866-0.008c0.732-0.994,2.757,0.599,2.971,1.877C23.822,51.085,24.199,53.445,24,56
			c2.441-0.295,2.775,0.372,1,2c3.232-0.376,7.703,6.044,7,9c2.683-0.244,2.698-0.129,1,2l2.497,0.012
			C37.879,74.309,38.714,73.638,38,67c0.926-2.906,3.195-2.534,4.409,0.262c2.655-0.916,2.975,0.35,0.591,1.848
			c-0.874,2.932-1.262,5.921-1.163,8.966c0.465,0.311,0.464,0.664,0.037,1.055c1.544,0.486,2.543,1.661,2.998,3.525l2.084,1.418
			c0.275-0.887,0.639-0.889,1.089-0.047C48.32,81.369,49.221,81.467,50,84c1.105-0.567,1.48-0.369,1.1,0.806
			c0.202,1.486-0.609,2.431-2.434,2.835c1.167,1.021,1.539,1.92,0.604,3.478c2.501-0.932,2.739-0.283,1.648,1.958
			c0.903,0.067,0.94,0.379,0.168,0.921C53.449,93.426,57.651,97.809,56,100l1.355-0.38c0.704,1.672,1.592,3.162,2.663,4.47
			l2.127,0.538c0.506,4.827,3.457,6.284,8.855,4.372c2.172-1.561,3.014-0.348,2,2c1.346-1.342,2.679-1.675,4-1
			c0.636-1.22,2.74-0.592,4,0l1-2c0.392-2.196,1.185-2.327,2.281-0.381c-0.445-2.704,0.076-2.686,1.719-0.619
			c0.696,0.332,2.362,0.665,5,1l1.365-1.608c0.569,1.295,1.781,1.498,3.635,0.608c3.715-3.342,9.511-4.253,14-2
			c-0.737-1.383-0.408-1.847,1-1c1.919-2.265,6.348-2.917,8,0c-0.513-2.737,1.928-2.003,3,0
			c-15.508,2.313-42.971,8.856-59.837,8.658l-60.9-84.809C0.31,25.341,2.05,14.136,0,15V0H7z M164.387,25.615
			c-1.122,1.324,0.276,2.689,0.936,2.932c0.532,0.196,1.343-0.668,2.424-0.906C168.831,27.403,164.9,25.01,164.387,25.615z
			 M19.085,49.763c-0.24,0.995,1.193,2.578,1.451,2.092c0.502-0.947,0.951-1.787,0.674-2.264
			C20.91,49.074,19.451,48.245,19.085,49.763z"/>
		<path style="fill:#E8E8E8;" d="M58,10c3.326,0.488,1.964,7.258,1.283,10c1.953,0.698,3.858,1.364,5.717,2
			c2.893,0.153,2.652,2.502-0.066,3.139c-0.926,1.337-1.782,1.328-3.061,0.728c1.208,1.34,1.584,2.685,1.127,4.034
			c-0.21,1.772,0.101,3.816,0.931,6.132c2.065,1.611,2.892,5.536,0.77,7.095c-0.453,0.867-0.991,0.924-1.614,0.171
			c-0.596-0.473-1.035-0.397-1.302,0.283c0.082,0.575,0.092,1.096-0.154,1.428C60.029,47.178,55.942,47.653,54,46
			c-1.743-1.046-1.364-2.6,1.137-4.661c-1.723-0.452-2.018-1.567-1.263-3.276c0.542-1.487,2.159-1.986,4.85-1.497
			c0-1.973,0.147-3.827,0.439-5.563c-1.277-0.954-1.833-1.535-0.223-2.22l-1.985-0.971c-1.059-6.893-1.558-9.175-8.692-6.811
			c-1.994,0.674-4.025,1.007-6.093,1c-1.991,0.753-3.355,0.498-4.093-0.766c-3.244-0.098-6.454,0.159-9.63,0.77l-1.312-0.93
			C25.659,22.338,25.112,21.775,26,20c-1.053-0.788-2.126-1.482-3.218-2.084c-2.572-0.268-2.702-1.184-0.615-2.745
			c0.699-1.837,2.878-2.67,4.796-2.951C26.989,12.67,27.616,12.992,28,13c1.676-0.116,2.279,1.207,1.809,3.968l3.605-0.35
			c1.707-1.183,3.214-1.368,4.519-0.555c1.038,0.588,2.035,0.567,2.992-0.063c1.228-0.752,2.21-0.128,2.946,1.871
			c-0.064-1.445,0.592-1.555,1.969-0.33l2.275-0.565c-0.319-0.871-0.046-1.129,0.814-0.777c0.337-0.852,0.663-0.816,0.976,0.068
			c0.936-0.455,1.618-1.188,2.047-2.199l0.25-1.356c1.52-0.122,2.799-0.693,3.836-1.712c-0.91-0.338-0.941-0.743-0.092-1.215
			c-1.764-1.374-1.331-2.045,0.617-0.861C56.991,9.343,57.509,9.665,58,10z"/>
		<path style="fill:#D5D5D5;" d="M27.134,21.073c2.883-0.203,2.711,2.112,0.018,2.775c-2.811,2.507-2.811,2.507,0,0
			C27.379,21.576,32.105,20.636,33,23l-0.084,2.317C30.884,26.087,29.579,27.315,29,29c-0.365,2.555-0.809,2.75-2.727,1.024
			c-2.806,0.931-4.487,3.377-5.043,7.339c-0.568,3.645-1.634,6.875-3.198,9.69c-0.899-0.192-1.576-0.152-2.139-1.026
			c0.271-4.497-0.776-6.26-3.142-5.289c-2.401-0.52-1.746-2.984-2.659-4.307c1.203-1.493,1.549-3.326,1.038-5.499l1.933-1.803
			c1.004-1.605,1.714-1.277,1.717,0.652c1.167,1.06,2.572,1.163,2.346-0.507c-1.745-2.344,1.451-4.679,3.917-4.379
			C22.093,21.402,23.745,19.771,26,20L27.134,21.073z"/>
		<path style="fill:#D6D6D6;" d="M98,6c2.524,0.197,3.857,0.863,4,2c-0.454,1.349-1.454,2.349-3,3c-1.37,1.442-1.37,1.442,0,0
			c1.083-1.183,2.386-2.13,3.908-2.84C100.992,7.219,100.824,6.443,103,6c0.822,0,2.499-0.104,4.165,0.04
			c0.791,0.068,0.343,1.196,0.911,2.275c0.769,2.736-2.005,5.172-4.604,3.966l-0.036,1.609c-1.583,1.271-3.062,2.642-4.437,4.11
			c-2.026,0.839-2.829,0.028-2-2c-3.24,1.629-4.573,0.962-4-2v-1c-1.934,0.181-1.934-0.59,0-1.152
			c-0.623-1.265,0.177-2.332,2.398-3.202L95,7c-0.873-0.284-0.86-0.618,0-1c0.412-0.425,0.915-0.817,1.518-0.915
			C97.154,4.981,97.568,5.883,98,6z"/>
		<path style="fill:#696969;" d="M20,3c1.557,0.974-0.02,3.065-2,3c1.362,2.712-3.814,6.049-6,4c-2.295,1.944-5.48-2.943-3-5
			c-3.075-1.497-0.636-2.842,2-2C13.815,1.345,17.365,1.608,20,3z"/>
		<path style="fill:#656565;" d="M80.31,5.425c1.606,0.9,2.917,2.119,0.712,2.596C81.194,9.799,80.187,10.459,78,10
			c1.08,2.703-2.079,4.364-4,2.218c-1.661,2.39-2.013,2.713-3-0.218c-1.823-0.877-2.157-1.6-1-2.171
			c1.874-0.203,0.303-2.524,1.29-3.747C73.362,3.657,77.604,5.374,80.31,5.425z"/>
		<path style="fill:#6F6F6F;" d="M70,9.829c-1.3,0.999-3.309,0.908-6.026-0.272C63.536,11.189,62.544,10.67,61,8
			c-1.532-0.644-2.431-1.617-2.698-2.919c3.101-2.396,7.425-0.505,11.393-0.101L70,9.829z"/>
		<path style="fill:#535353;" d="M33,13.315c1.163-2.552,2.634-1.87,3,0.685c2.277-1.477,2.905-0.273,1.933,2.063
			c-2.455,2.826-6.638,3.43-10.481,2.575L28,13v-1C29.042,10.339,31.927,11.804,33,13.315z"/>
		<path style="fill:#494949;" d="M13.063,29.128c-0.053,2.313,0.712,4.976-0.411,7.632c-0.362,0.856-2.301-0.151-2.561-0.33
			c-1.365-1.978-4.19-3.215-4.218-6.055c-0.987-1.702-0.399-2.311,1.336-1.383c-0.262-0.841,0.033-1.07,0.861-0.714
			C9.684,25.117,11.348,25.4,13.063,29.128z"/>
		<path style="fill:#B5B5B5;" d="M12.604,19.289c1.841,1.232,4.099,1.481,6.772,0.747L21,22c2.471-0.139,1.599,1.624,0.043,2.894
			c-1.736,1.245-4.103,1.554-7.1,0.926c0.81,1.339,0.487,2.342-0.881,3.308c-0.749-0.383-1.255-1.207-2.093-1.574
			c-0.959-0.421-1.986,0.295-2.899,0.725C7.284,26.815,5.927,25.722,4,25c0.093-0.303-0.06-0.686,0-1
			c-0.347-2.149,0.953-3.103,3.9-2.86c0.724-1.758,1.984-2.462,3.851-1.946C12.108,18.774,12.394,18.796,12.604,19.289z"/>
		<path style="fill:#777777;" d="M61,8l2.806,1.934c-1.601,1.413-1.883,3.607-0.847,6.582L62,17c2.296,2.504-0.093,4.933-2.717,3
			c-2.663-2.546-0.77-6.602-1.283-10c-0.148-0.979,0.071-2.011,0-3C58.619,6.193,59.619,6.527,61,8z"/>
		<path style="fill:#5C5C5C;" d="M26,8c0.829,1.25,0.879,2.764,0.963,4.22c-0.239,0.994-0.646,1.672-1.104,2.238
			c-0.984,1.218-2.674,0.689-3.692,0.713c-2.343-0.305-2.658-0.631-0.678-1.806L21,11c-1.614-4.657-1.28-6.99,1-7
			C24.32,3.14,26.979,5.678,26,8z"/>
		<path style="fill:#808080;" d="M55.003,6.1c0.947-0.447,1.277-0.167,0.99,0.84c-0.048,0.705,0.047,1.469,0.572,1.984
			c-0.71-0.351-0.648,0.435-0.617,0.861c-1.873,0.504-3.895,0.987-6.067,1.45l-1.7-2.875C46.001,11.357,42.491,7.696,45,5
			c1.518-0.674,3.732-1.997,5.509-0.486c0.86,0.731,0.631,2.484,1.944,2.252C53.16,6.641,54.438,6.81,55.003,6.1z"/>
		<path style="fill:#C4C4C4;" d="M87.937,5.864c0.696,1.772,2.124,1.85,4.286,0.234C93.045,5.534,94.078,5.166,95,6v1
			c0.806,2.167-2.623,4.53-4.617,3.898c0.27,2.239-2.061,2.351-3.609,1.178c-2.189,2.365-5.142-1.724-5.753-4.054
			c0-0.909-0.106-1.875-0.712-2.596c2.113,0.04,3.023,2.21,5.454,2.534c0.572-1.193-0.789-1.768-0.672-2.457
			C85.283,4.37,87.495,5.267,87.937,5.864z"/>
		<path style="fill:#CDCDCD;" d="M37,3c3.023,0.647,5.023,1.981,6,4c1.513,2.034,1.458,4.951,0,7c-0.197,1.104-0.46,2.189-2.075,2
			c-0.668,1.173-2.156,1.041-2.992,0.063C37.034,15.79,36.507,14.561,36,14c-1.291-1.44-1.01-3.486,0-5c-0.636-1.713-1.303-3.38-2-5
			c-0.839-0.324-0.837-0.658,0-1H37z"/>
		<path style="fill:#444444;" d="M34,3c-0.078,0.295,0.135,0.734,0,1c2.805,2.384-1.241,6.431-4,6c1.184,1.738-0.589,2.007-2,1
			l0.052-7.912C30.368,2.801,32.176,3,34,3z"/>
		<path style="fill:#C5C5C5;" d="M5,2c1.551,0.883,2.885,1.883,4,3c0.808,1.155,0.525,1.974,0.52,2.701
			C9.511,8.925,10.912,10.073,12,10c2.656,0.319,2.541,1.239,0,2c-1.873,1.898-2.473,1.731-3-0.895C7.216,11.561,6.445,10.651,6,9
			C4.921,7.919,3.348,6.833,1.89,8C0.57,6.678,0.964,4.727,1,3c0.738-0.176,0.692-0.519,0-1C0.903,0.649,2.4,0.876,3.402,1.01
			C3.916,1.078,4.502,1.665,5,2z"/>
		<path style="fill:#5A5A5A;" d="M6,9c0.562-0.333,1.601-0.059,2.254,0.189C8.912,9.439,8.719,10.654,9,11.105
			C9.425,12,9.05,12.266,8,12c-0.041,1.734-1.072,2.35-3.092,1.85c0.595,1.852-0.107,2.33-1.612,1.097
			c-0.899-0.855-1.718-1.769-1.004-3.096c0.407-0.757,1.031-1.487,1.626-2.179C3.748,7.071,4.329,7.079,6,9z"/>
		<path style="fill:#4A4A4A;" d="M8.071,28.278c-0.081,0.317-0.648,0.479-0.861,0.714c-1.718,1.107-3.407-0.785-3.837-2.567
			C3.463,25.916,3.85,25.486,4,25c1.941-0.728,4.141-1.775,6.401-0.352C9.346,26.443,8.368,27.117,8.071,28.278z"/>
		<path style="fill:#656565;" d="M45,5c0.818,2.449,0.478,2.833-2,2c-2.528-0.283-4.932-1.641-6-4C42.742,3,44.609,2.74,45,5z"/>
		<path style="fill:#808080;" d="M4.908,13.85c4.05-2.192,3.835,8.612-0.997,5.364c-0.451-0.501-1.33-1.386-1.512-2.264
			c-0.114-0.551,1.956-0.995,0.897-2.003C3.804,14.54,4.345,14.177,4.908,13.85z"/>
		<path style="fill:#636363;" d="M27,3c0.523,1.365,0.263,4.271-1,5c-1.693-0.918-3.115-2.284-4-4C22.59,2.089,25.431,1.807,27,3z"
			/>
		<path style="fill:#C9C9C9;" d="M27,3c-1.997-0.225-3.507-0.209-5,1c-1.857,1.503-0.682,5.255-1,7c-2.287,0.638-3.287-1.028-3-5
			l2-3C21.82,3.047,25.861,0.027,27,3z"/>
		<path style="fill:#4B4B4B;" d="M6,9C5.337,9.394,4.674,9.536,3.919,9.672c-0.688,0.124-1.25,0.297-1.681-0.345
			C1.975,8.937,2.128,8.239,1.89,8c0.209-0.659-0.166-1.621,0.153-2.474c0.671-1.794,4.791,1.627,4.863,1.946
			C7.006,7.917,6.075,8.468,6,9z"/>
		<path style="fill:#5B5B5B;" d="M11,3c-0.661,0.389-2.113,1.03-2,2C8.75,6.842,6.93,5.591,6.171,5.195C4.92,4.542,4.771,3.113,5,2
			C6.984,2.278,9.791,1.079,11,3z"/>
		<path style="fill:#5D5D5D;" d="M7.9,21.14C7.808,23.216,5.467,23.078,4,24c-1.49-1.249-1.486-3.462-0.089-4.785
			C6.831,18.71,8.16,19.351,7.9,21.14z"/>
		<path style="fill:#4E4E4E;" d="M92.223,6.097c0.473,0.042,0.575,0.267,0.492,0.493c-0.216,0.59-0.854,1.268-1.249,1.649
			c-1.313,1.267-1.967,2.196-3.06,1.079c-1.126-1.151-1.973-2.435-0.469-3.454L92.223,6.097z"/>
		<path style="fill:#BCBCBC;" d="M7.21,28.992c-0.43,0.475-0.878,0.936-1.336,1.383c-0.854-0.19-1.753-0.553-2.198-1.341
			c-0.442-0.782-0.455-1.749-0.303-2.609C4.667,27.26,5.871,28.229,7.21,28.992z"/>
		<path style="fill:#CFCFCF;" d="M32,11c2.781-0.203,3.056,0.432,1,2.315L28,12v-1l2-1C31.729,8.216,32.009,8.572,32,11z"/>
		<path style="fill:#E8E8E8;" d="M61,8c-1.033-0.237-2.091-0.408-3-1c-0.046-0.643,0.198-1.292,0.302-1.919
			C59.567,5.675,60.333,6.822,61,8z"/>
		<path style="fill:#555555;" d="M55.992,6.94c-0.269-0.346-0.604-0.631-0.99-0.84c0.341-0.428-0.486-1.767,0.494-2.111
			c0.572-0.201,1.211,0.03,1.485,0.475C57.437,5.204,56.686,6.537,55.992,6.94z"/>
		<path style="fill:#434343;" d="M1,3c0.007-0.33,0.024-0.671,0-1c0.715,0.085,3.133-0.548,3.018,0.969C3.864,4.998,1.718,3.585,1,3
			z"/>
		<path style="fill:#E9E9E9;" d="M93,11.848V13c1.004,0.193,1.03,0.8,0,1c0.364,2.483,2.802,0.557,4,2l0.358,1.984
			c-1.776,2.536-2.59,4.518-2.442,5.948C95.811,24.169,95.826,24.527,95,25c-1.433,1.876-1.949,3.85-1.548,5.924l-1.29,1.992
			c-1.735,1.298-2.574,0.526-0.971-0.666c-0.348,1.347-0.433,2.931-0.255,4.752c-2.059,6.171-3.088,9.256-3.088,9.256l9.602,1.554
			C97.986,46.545,98.835,45.607,100,45c0.284-0.873,0.618-0.86,1,0c1.433,0.343,2.11,1.463,2.03,3.361l15.592,2.013
			c0.194-1.732,0.987-2.856,2.378-3.374c0.284-0.873,0.618-0.86,1,0c0.237-0.831,0.574-0.805,1,0c0.81,0.284,1.297,0.809,1.39,1.63
			c-3.109,3.452,8.427,4.421,10.012,3.486c1.614-0.952,8.946-8.533,7.597-11.116c-0.549-0.301-0.536-0.635,0-1l1.124-2.257
			c-0.667-4.284,0.178-6.891,2.535-7.819l-0.792-5.531c-0.22-3.257,0.824-5.387,3.133-6.393c-0.835-0.329-0.834-0.662,0-1
			c-2.905-0.202-2.448-2.458,0.291-2.887c0.59,0.722,2.192,1.195,2.709,2.06l0.997,1.76c-1.536,4.318-2.551,8.735-3.044,13.251
			c1.299,1.766,1.544,4.254,0.736,7.465c-0.526,3.695,0.553,5.833,3.239,6.414c3.391,0.934,6.243,2.308,8.557,4.122
			c2.968,1.847,4.525,2.189,4.673,1.027c1.404-1.977,3.608-1.697,6.611,0.841c0.166-1.61,0.91-2.628,2.231-3.053
			c-0.489-0.305-0.476-0.639,0-1c0.284-0.873,0.618-0.86,1,0l1.92,1.231l0.27,6.478c1.661-0.218,2.931,0.213,3.81,1.29
			c3.296,0.963,6.623,2.102,9.982,3.418l0.076,2.388l-0.753,1.087c-1.654,2.445-5.981,0.406-7.304-1.892l-2.226,0.605
			c-5.805-2.373-11.729-4.508-17.774-6.405c0.396,1.936,0.73,3.87,1,5.8c-0.847,2.567-3.358,1.481-4.795,0
			c-1.705-0.466-2.137-2.131-1.296-4.997l-14.126,0.237L143,55c-3.937-2.683-7.619,5.08-3.361,1.279L142,57
			c3.571,0.327,4.905,1.66,4,4l-1.333,1.766c-5.35-1.896-7.616-1.01-6.798,2.659c1.179,2.09,0.23,3.735-1.869,4.575
			c-0.568,0.524-0.855,1.253-1,2l-2.27-1.411l-0.542-12.961c-1.581,0.27-2.438,0.096-3.188-1.627l-1.469,1.387
			C122.75,55.804,117.678,55.519,113,56c-2.935-0.45-4.577-1.411-4.927-2.882C105.609,54.997,99.39,53.724,97,52l-1.54,1.391
			C90.103,51.631,83.525,49.9,79,54c1.914,1.844,1.62,2.538-1,3c2.751,1.452,3.635,11.362,0,12c1.004,2.17,1.334,4.749,0.989,7.736
			c1.158,2.569,1.522,4.889,1.092,6.959C82.751,84.163,82.43,87.852,82,90c-0.828-0.717-0.813-0.322,0.046,1.185
			c2.218,2.078,4.551,11.12,0.815,8.245l-0.554,0.63C80.402,100.421,79.649,99.745,79,98c-0.269-1.91-0.269-3.91,0-6
			c-1.788,0.074-2.313-0.535-1.84-2.125C75.419,90.186,74.032,89.894,73,89c-0.287,0.792-0.621,0.779-1,0
			c-0.319,2.656-1.239,2.541-2,0c-0.807-2.248-0.465-2.857,2-3c0.284-0.873,0.618-0.86,1,0c1.438-0.663,2.305-0.684,2,1
			c1.643-0.489,2.309-1.489,2-3c-0.491-0.305-0.478-0.639,0-1c-1.349-0.236-2.249-1.285-2.697-3.146
			C72.472,80.772,71.038,80.821,70,80c-1.483,2.119-4.062,3.119-7.738,3c-2.403,1.49-6.334,2.477-9.257,2.187
			c-0.814,0.768-1.45,0.641-1.906-0.381C50.689,84.69,50.413,84.147,50,84c-0.845-3.2,3.568-4.451,5.895-3.045
			c0.5-1.751,0.998-2.664,2.105-0.955c1.746-1.617,4.267-2.236,7.564-1.856c1.245-0.983,5.214-2.927,6.291-1.289
			C73.336,75.082,73.384,74.13,72,74c-0.662-0.684-0.799-1.391-0.089-2.013c2.26-3.564,3.25-7.876,2.971-12.934
			c-0.317,4.15-1.55,6.466-3.699,6.947c-3.655-0.946-1.968-7.2-1.183-10l1.199-1.976c4.393,0.605,5.792-2.237,1.031-2.902
			l-1.227-2.141c-2.019,1.562-3.089,1.235-3.213-0.982l-2.364,0.55c-0.865-1.35-2.363-1.731-4.495-1.14
			c2.155,2.164-0.414,4.642-2.794,2.591c-1.747-0.53-1.747-0.53,0,0c2.897,1.01,1.871,3.493-1.085,3.006
			c-1.339,0.973-2.357,2.236-3.053,3.789c1.712,1.273,1.091,2.165-1.089,1.895c1.671,1.864-0.984,6.829-3.294,7.115
			c-0.895,0.743-1.173,1.713-0.835,2.911c2.899-1.692,4.633,1.024,2.259,3.238l-0.819,4.286c0.546,3.897-0.18,6.492-2.178,7.785
			l-1.089,0.047c-2.207-0.402-2.762-2.563-1.666-6.481c-0.497,1.884-1.529,2.289-3.415,1.539l-0.037-1.055
			c-0.323-2.997,0.099-6.365,1.163-8.966c2.206-1.915,3.487-4.167,3.843-6.756c-2.767,0.366-2.94-0.839-0.703-2.333l0.934-1.928
			c1.021,0.525,1.663-0.726,1.927-3.753c0.169-0.971,0.57-1.082,1.202-0.331c0.77-1.164,1.702-2.168,2.798-3.01
			c0.791-1.463,0.791-2.463,0-3c-1.466,0.276-2.133-0.057-2-1c-3.291,1.323-4.624,1.02-4-0.909c0.47-2.014,1.353-2.047,2-0.091
			c0.074-2.988,4.463-2.758,5,0c2.701,0,5.829-0.353,7.785-2.417c-0.507-1.9,0.324-2.062,1.302-0.283
			c0.529-0.115,1.073-0.159,1.614-0.171l1.247-0.961c-1.159-3.195,1.174-6.12,4.188-4.168c1.334-0.669,3.058-0.501,2.89,1.331
			l0.144,1.425c-8.742,4.589,11.924,11.844,9.641,0.467L85,40l-0.661-2.283c2.461-2.326,0.892-4.042-4.707-5.147
			C81.187,34.667,81.643,36.477,81,38c-0.795,2.806-3.734,2.674-5,0c-1.63-0.4-3.585-0.4-5.864,0c-2.683-1.885-0.459-6.721,2.864-6
			l1.742,1.086C74.461,30.995,74.88,29.299,76,28c0.148-1.685,2.675-1.798,3,0c2.386-0.36,4.772,0.359,7.157,2.156l1.989-1.102
			c1.923-3.641,1.923-3.641,0,0C85.329,30.66,83.999,27.457,85,25c-1.24-0.478-0.994-1.089,0.736-1.833l1.191-2.382
			c5.437-1.294,5.486-3.574,0.149-6.838c-2.642,0.388-2.604-0.559-0.302-1.871c1.267-0.114,2.444-0.782,3.609-1.178
			C92.515,9.361,92.664,9.371,93,11.848z"/>
		<path style="fill:#808080;" d="M180,81l1.97,6.843c2.313,2.406,0.156,3.494-2.493,3.68C174.344,95.434,167.295,97.109,161,96
			c-2.974,0.97-6.32-6.028-4-8c-2.644-0.128-2.344-1.67,0.9-4.626L168,82l11.336-2.012L180,81z"/>
		<path style="fill:#6A6A6A;" d="M135,72c0.761,3.506-0.556,7.45,0,11c-1.605,1.359-2.945,2.109-4,0c-1.85,2.7-9.923-0.874-8-4
			l-0.96-0.642c1.809-4.648,2.509-9.265,2.101-13.85L126,62c-1.492-1.982,0.521-6.001,3-6c1.204,0.017,4.716-1.466,5.089,1.099
			C134.843,62.282,133.976,67.283,135,72z"/>
		<path style="fill:#777777;" d="M157,82c1.944-0.129-0.598,4.627-0.916,4.949c-0.256,0.259-6.631,1.859-6.994,1.845
			c-0.627-1.348-1.991-2.279-4.09-2.793l-5-2c-1.984,0.337-2.984-0.33-3-2c-0.938-0.823-1.299-2.083-1.081-3.471
			c0.144-0.917,0.963-1.615,2.081-1.529c0.014-0.64,0.071-1.153,0.283-1.227c0.827-0.289,16.548-2.585,17.355-2.246L157,82z"/>
		<path style="fill:#7F7F7F;" d="M180.03,36.943L178,42c3.776,0.516,1.195,5.437-2,5h-1c-2.337-2.114-4.883-4.17-7.64-6.169
			c1.198-1.266,1.428-2.336,0.69-3.209c-4.026-1.345-7.99-2.805-11.893-4.38L157,32c1.608-1.09,3.436-2.115,5.375-2.27
			c4.813-1.733,9.038-1.026,12.672,2.545C176.648,33.848,179.618,34.537,180.03,36.943z"/>
		<path style="fill:#666666;" d="M162.315,28.913c-1.627,1.099-3.399,2.128-5.315,3.087c0.629,1.28-0.026,1.68-1.965,1.201
			c-0.092,2.202-0.712,1.522-2.059-0.178c-1.116,3.411-4.82,1.42-4.024-1.84c-3.114-0.985,0.015-14.028,2.047-15.01
			c1.88,0.102,11.613,6.848,12.053,8.49C163.45,26.146,163.489,27.809,162.315,28.913z"/>
		<path style="fill:#7A7A7A;" d="M190,45l-3,4c2.588,1.381,0.664,4.038-2,3l-3,4c-1.485,0.872-5.193,1.578-5.758-1.027
			c-0.576-2.658-0.415-5.661-0.242-7.973c0.126-1.681,2.666-3.054,2-5l2.03-5.057C183.924,38.19,189.556,40.535,190,45z"/>
		<path style="fill:#696969;" d="M157,88l4,8c-2.044,2.638-13.464,2.413-17.875,4.05L143,95c2.988-1.947,5.168-4.323,6.54-7.129
			l4.316-0.732C155.459,85.956,156.507,86.243,157,88z"/>
		<path style="fill:#696969;" d="M192.058,61.806C189.69,59.796,181.981,59.763,182,56l3-4l2-3l3-4
			c0.915-0.597,2.22-1.007,2.995-0.534c3.729,2.274,1.39,6.948,1.096,9.636C193.767,57.058,193.56,59.639,192.058,61.806z"/>
		<path style="fill:#878787;" d="M138.866,65.987c4.156,0.63,8.2,1.301,12.134,2.013c1.465,0.304,3.13,0.33,4.994,0.079
			c0.234,1.283-0.463,8.235-1.863,5.59C147.784,74.826,142.407,75.603,138,76c-3.09-0.175-1.882-3.699-2-6
			c-0.511-1.861,0.465-3.376,1.869-4.575C138.574,64.867,138.901,65.066,138.866,65.987z"/>
		<path style="fill:#666666;" d="M126,101c-1.531-0.127-2.032-1.541-1.504-4.243c-2.039-0.525-1.546-1.453,1.477-2.784
			C124.237,91.447,126.23,89.352,129,90l3-4c-0.294-1.987,1.285-2.642,3-2c-0.495,5.074,0.886,10.517-0.451,16.057
			C133.787,102.474,127.869,102.457,126,101z"/>
		<path style="fill:#CFCFCF;" d="M121,79c3.068,2.722,2.398,11.907-0.181,14.911c0.524,0.768,0.204,1.106-0.819,1.089
			c-0.47,1.371-1.38,2.04-2.67,1.443c3.496,1.963,5.053,4.148,4.67,6.557v1c-0.846-1.154-2.177,0.173-3,0
			c-3.96-2.587-7.731-5.819-11.314-9.696l-2.607-0.157c-2.672-0.462-2.862-1.277-0.833-3.013l2-9.622
			c0.354-1.26,1.507-1.054,2.753-0.512c2.113,1.118,2.422,3.576,0.927,7.375c9.26,6.26,8.361-0.909,6.073-8.375
			c-0.873-0.284-0.86-0.618,0-1c1.092-0.394,2.425-0.727,4-1c0.284-0.873,0.618-0.86,1,0C121.873,78.284,121.86,78.618,121,79z"/>
		<path style="fill:#727272;" d="M190,79c-0.294,3.392,0.606,8.057-3.094,9.318c-1.565,1.862-4.092,2.145-4.935-0.475L180,81
			c-1.119-0.093-0.786-1.426,1-4c0.051-1.462,0.513-2.372,1.387-2.729c2.012,1.724,4.508,2.924,7.487,3.599L190,79z"/>
		<path style="fill:#4C4C4C;" d="M141,9c0.576,0.041-0.457,5.386-0.635,5.647c-0.367,0.538-11.309-0.202-12.844-0.341
			c-0.329-0.03-2.763-5.667-2.754-5.997C124.78,7.768,126.28,7.189,127,7C131.726,7.201,136.674,6.837,141,9z"/>
		<path style="fill:#5A5A5A;" d="M122.919,7.885c2.137-1.296,4.191,3.544,4.32,5.302c0.018,0.24-0.53,0.52-1.238,0.813
			c0.97,2.974-6.028,6.32-8,4l-2.333,1.451l-1.583-6.61c-1.95-2.443-1.645-3.39,0.916-2.841c-0.593-2.376,0.542-2.72,2.73-2.829
			C119.156,7.457,121.469,8.492,122.919,7.885z"/>
		<path style="fill:#6D6D6D;" d="M140,84l5,2l5.389,1.764c-2.225,2.66-4.546,5.278-7.389,7.236h-4
			c-0.46,0.156-0.889,0.244-1.209,0.097c-0.539-0.247-0.477-11.287-0.039-11.847C138.015,82.911,139.406,83.598,140,84z"/>
		<path style="fill:#737373;" d="M191.304,62.892c1.131,1.564,1.18,3.78-0.304,5.108c-0.828,1.176-8.636,4.35-9.401,4.326
			c-0.196-0.006-1.735-3.314-1.758-3.509L184,61C186.622,60.588,188.906,61.996,191.304,62.892z"/>
		<path style="fill:#D0D0D0;" d="M157,82c-1.93-1.717-0.517-4.651-1.897-7.639L138,77v-1c0.041-0.374-0.118-0.917,0.015-1.492
			c-0.41,1.774,14.878-1.454,16.614-1.789c0.755-0.145,0.544-3.18-0.128-3.428L151,68c-0.873-0.284-0.86-0.618,0-1
			c0.285-1.539,1.446-1.944,3.482-1.217L155,64c0.41-2.742,2.21-2.699,4.178-0.929c1.5,1.53,1.151,4.277-1.047,8.243l0.954,9.522
			L157,82z"/>
		<path style="fill:#757575;" d="M120,95c1.473,0.124,3.059,0.213,4.756,0.268c-0.385,2.152-0.344,4.084,1.244,5.732
			c0.653,1.078-0.404,2.517-1.51,2.015c-0.591-0.269-1.941,0.38-2.49-0.015c-3.296-3.174-7.194-5.312-10.436-9.698
			C115.136,93.257,117.369,94.64,120,95z"/>
		<path style="fill:#D5D5D5;" d="M191,68c0.099,0.344-0.265,0.984-0.068,1.262c0.21,2.119-1.577,3.561-5.361,4.326
			c2.872,0.458,4.681,1.595,5.429,3.411c0.125,0.712-0.668,1.462-1,2c-2.644-0.895-6.479-4.323-9-2
			c-1.588-0.709-2.437-2.659-2.545-5.851c-4.046-1.701-5.197-3.418-3.455-5.149c0.505-1.274,1.853-1.802,4.044-1.585
			c1.022-2.643,2.058-5.306,4.956-3.415c0.677,1.938-3.622,5.793-2.979,8.336C181.91,72.847,188.014,68.746,191,68z"/>
		<path style="fill:#7C7C7C;" d="M191,77c-2.801-0.125-5.635-1.15-8.207-2.555c-2.506-3.158,8.203-3.947,8.139-5.182
			C192.617,71.657,190.537,74.367,191,77z"/>
		<path style="fill:#575757;" d="M148.291,14.113L148,17c-1.879,0.907-4.068,1.551-6.568,1.931L141,17
			c-2.133-2.399-2.344-3.523-0.633-3.37c0.026-2.901,0.904-4.111,2.633-3.63C145.055,11.028,146.832,12.328,148.291,14.113z"/>
		<path style="fill:#424242;" d="M110,9c2.671,1.178,3.005,2.178,1,3c1.733,2.576,1.045,3.612-2,3c-1.04,1.792-1.717,2.953-3,1
			c-2.481,2.369-4.825-1.698-2.528-3.719c1.377-1.511,2.858-2.841,4.604-3.966c0.285-0.075,0.663,0.051,0.921-0.1
			C110.47,6.568,111.088,7.056,110,9z"/>
		<path style="fill:#767676;" d="M139,96c1.593,0,3.141-0.379,3.087,1.479c-0.048,1.673,0.072,2.337-1.943,2.765
			c-1.794,0.38-4.202,1.927-4.215-0.697C135.924,98.4,135.915,96.879,137,96C137.463,93.207,137.807,93.605,139,96z"/>
		<path style="fill:#E3E3E3;" d="M186.906,88.318L187,90c-1.035,1.905-3.988,3.591-5.937,2.732c0.38-0.524-0.172-0.611-0.572-1.056
			c-0.404-0.451-0.501-0.955-1.014-0.154c0.97-0.739,1.86-2.715,2.493-3.68C183.627,87.845,185.273,88.048,186.906,88.318z"/>
		<path style="fill:#454545;" d="M117.73,7.171C117.215,8.435,116.217,9.4,115,10c-0.624,2.379-3.892,0.55-5-1
			c-0.24-0.48-0.216-1.243-1.003-0.785c0.558-1.283,1.936-2.408,3.661-2.062L117.73,7.171z"/>
		<path style="fill:#C2C2C2;" d="M127,7c-1.05,1.183-0.739,2.695-0.379,3.835c1.519,4.807,7.36,2.853,13.152,3.099
			c0.413-2.078,0.45-3.618,1.227-4.933l2,1c-2.898,0.901-1.927,4.475-2,7c-3.411,0.186-7.329,0.006-11.106-0.213
			c0.514,2.424-0.118,3.828-1.894,4.213c2.656,0.319,2.541,1.239,0,2c1.356,1.468,0.773,2.032-1,1c-3.111-1.366-2.258-7.325-1-10
			c0.7-2.688-0.855-4.713-3.081-6.115C124.388,7.269,125.307,6.928,127,7z"/>
		<path style="fill:#D9D9D9;" d="M140,84c-0.452,0.024-1.178-0.206-1.498,0.046C137.724,84.659,137.42,94.862,139,95v1h-2v-1
			c-0.883-3.765-0.847-8.266,0-12v-1C138.104,82.439,139.297,82.988,140,84z"/>
		<path style="fill:#909090;" d="M181.063,92.732L187,90c0.196,3.491-4.723,4.409-7.925,3.845
			C179.244,92.635,180.336,92.924,181.063,92.732z"/>
		<path style="fill:#9A9A9A;" d="M137,95c-1.478,2.605-1.478-14.605,0-12V95z"/>
		<path style="fill:#727272;" d="M164.387,25.615c0.513-0.605,4.444,1.788,3.359,2.027c-1.08,0.238-1.891,1.102-2.424,0.906
			C164.663,28.304,163.265,26.939,164.387,25.615z"/>
		<path style="fill:#E9E9E9;" d="M135,83c0.05,0.32,0.031,0.677,0,1l-3,2c-2.747,0.115-2.83-1.171-1-3
			C132.078,83.515,133.836,82.65,135,83z"/>
		<path style="fill:#D0D0D0;" d="M162.375,29.73c-1.785,0.643-3.25,1.73-5.375,2.27c1.001-1.867,3.63-1.951,5.315-3.087
			L162.375,29.73z"/>
		<path style="fill:#898989;" d="M103,6l-0.092,2.16C102.555,8.994,102.254,8.917,102,8c-1.196-0.963-2.903-0.882-4-2H103z"/>
		<path style="fill:#D9D9D9;" d="M29.913,45.945c2.188-0.592,4.757-0.53,6.995,0.034L37,45c0.196-2.809,1.687-2.442,2.121,0.223
			l6.451-1.033L47,46.091c1.086,1.052,2.59,0.959,4,0.909c-0.29,1.252-1.643,1.925-4.061,2.02c0.048,1.477,0.043,2.889-0.015,4.238
			c-0.589,0.904-0.472,2.419,0.351,4.543l-1.135,2.221l-1.237,1.94C39.186,61.092,36.885,62.771,38,67c-0.775,2.427-2.759,3.384-5,2
			c-0.444-0.567-0.752-1.402-1-2c2.629-5.48,1-7.985-5.348-8.02L25,58c-0.431-0.619-0.896-1.219-1-2
			c2.648-4.084,2.692-5.799,0.133-5.147l-1.264-1.932c-1.055-0.268-1.966-1.482-2.971-1.877C17.516,45.811,19.209,41.673,22,44
			l2.035,1.199C26.78,44.34,28.74,44.589,29.913,45.945z"/>
		<path style="fill:#5A5A5A;" d="M26.273,30.024c3.661-1.239,2.486,3.78,1.722,6.018C28.572,38.859,25.293,44.988,22,44
			c-0.931,0.864-2.508,1.307-2.102,3.045c-0.599,0.239-1.257,0.138-1.866,0.008c-1.483-3.811,3.376-17.55,4.568-17.994
			C23.791,28.615,25.184,29.611,26.273,30.024z"/>
		<path style="fill:#707070;" d="M70,107c2.704-0.743,3.076,0.125,1,2c0.294,2.388-3.579,3.012-6.136,2.654
			c-3.292-0.461-4.426-4.917-4.846-7.565l-0.512-1.483c3.214,0.234,6.211-0.083,8.992-0.95C68.421,103.466,68.922,105.247,70,107z"
			/>
		<path style="fill:#707070;" d="M78,98v1c0.885,0.186,0.849,0.525,0,1l-0.609,2.575c0.583,1.732,0.453,2.873-0.391,3.425
			c-0.368,2.545-1.203,4.607-4,5c-0.679-0.27-1.58-1.397-2-2c-0.418-0.601-0.354-1.477-1-2c-0.592-2.007-1.624-3.538-3.095-4.593
			C68.322,100.684,70.021,99.549,72,99c2.135-0.379,3.618-1.302,4.448-2.769L78,98z"/>
		<path style="fill:#797979;" d="M51.041,71.955c1.727,1.448,3.72,2.363,5.979,2.743c0.276,1.278,0.116,2.19-0.481,2.735
			c0.566,1.772,0.351,2.946-0.645,3.522C54.371,82.815,51.75,82.486,50,84l-1.955,0.026C48.249,82.106,47.209,70.155,51.041,71.955z
			"/>
		<path style="fill:#676767;" d="M60.806,94.005C62.125,96.311,61.685,97.091,59,97c-0.907,2.31-1.907,3.31-3,3
			c-1.838-1.799-3.917-3.41-4.913-6.003C51.569,92.628,52.742,91.632,54,91c-1.462-1.468-0.824-2.108,1-1
			c0.313-1.936,1.535-2.425,3.664-1.467C61.588,88.684,64.155,92.019,60.806,94.005z"/>
		<path style="fill:#6C6C6C;" d="M32,67c-2.917-2.446-4.833-5.886-7-9c-1.086-1.862,9.987-1.28,10.088,3.502
			C35.144,64.168,35.295,67.275,32,67z"/>
		<path style="fill:#737373;" d="M46.14,60.022c0.399,0.694,0.418,1.597,0.703,2.333c0.319,2.448-2.01,6.36-4.433,4.908
			C40.955,66.956,39.463,67.127,38,67c-0.862-0.588-1.517-1.199-1.803-1.915c-0.437-1.093-0.537-3.321,0.908-3.955
			C40.127,59.805,43.266,59.853,46.14,60.022z"/>
		<path style="fill:#606060;" d="M38,67c2.952,2.016,2.301,5.703,1.54,10.941C36.785,75.159,35.247,71.873,33,69
			C34.457,67.764,36.062,66.832,38,67z"/>
		<path style="fill:#828282;" d="M46.955,84.073c-1.566,1.46-3.202,0.699-4-0.757c-0.794-1.448-1.032-2.775-1.081-4.186
			c1.984-1.21,1.112-4.222,4.706-5.476C48.41,77.049,46.267,80.708,46.955,84.073z"/>
		<path style="fill:#535353;" d="M24,56c-2.765-1.127-2.981-4.956-1.131-7.079l3.639-0.205c2.232-0.126,1.717,2.169,1.2,4.147
			c-0.27,1.033-0.362,1.961-0.879,2.539C26.133,56.181,24.973,56.119,24,56z"/>
		<path style="fill:#D3D3D3;" d="M68,99c1.416-2.396,3.155-2.963,4,0l-2.73,2.417c-1.36,1.204,0.951,3.816,0.73,5.583
			c-1.643-1.331-1.792-4.195-3.586-4.05c-2.59,0.21-5.358-0.864-6.396,1.139c-2.279-0.188-2.774-2.871-4.018-4.089
			c0.966-1.039,1.775-2.247,3-3c0.432,0.239,0.844,0.498,1.185,0.83c0.25,0.242,0.439,0.495,0.443,0.752
			C60.68,101.649,65.253,100.074,68,99z"/>
		<path style="fill:#757575;" d="M51.1,84.806c0.607,0.171,1.28,0.305,1.906,0.381c1.415,1.001,2.01,1.646,0.06,2.002
			c2.516,1.665-1.941,5.095-3.795,3.929c-0.926-0.985-3.297-2.734-2.512-4.245C47.585,85.28,49.91,85.106,51.1,84.806z"/>
		<path style="fill:#5C5C5C;" d="M15.892,46.026c-0.97-1.507-1.991-4.03-3.142-5.289c0.482-1.513,1.394-2.801,3.32-3.891
			C17.429,40.018,18.075,43.923,15.892,46.026z"/>
		<path style="fill:#5A5A5A;" d="M55,90c-0.348,0.087-0.827,0.69-1,1l-3.081,2.076c-0.983-0.225-1.1-1.374-1.648-1.958
			c1.831-0.533,3.051-2.227,3.795-3.929c0.003-0.445,0.053-0.828,0.269-0.99C53.748,85.887,60.611,88.925,55,90z"/>
		<path style="fill:#6A6A6A;" d="M43,69.11c-0.319-0.469-0.036-1.424-0.591-1.848c2.022-1.017,3.095-3.158,4.433-4.908
			c1.789,1.065,0.436,2.85,0.004,3.942C46.116,68.14,44.733,69.335,43,69.11z"/>
		<path style="fill:#5C5C5C;" d="M43,69.11c2.456,3.2-0.876,4.992-1.163,8.966C41.124,76.95,39.195,68.616,43,69.11z"/>
		<path style="fill:#DBDBDB;" d="M82,108c-0.122,0.497,1.034,1.133,0.902,1.53C82.663,110.246,81.424,110,81,110
			c-1.582-0.872-2.915-0.872-4,0c0.377,1.428-3.028,1.187-4,1c1.173-1.782,2.553-3.435,4-5C79.509,106.193,81.176,106.859,82,108z"
			/>
		<path style="fill:#8D8D8D;" d="M19.085,49.763c0.366-1.519,1.825-0.689,2.124-0.172c0.277,0.478-0.172,1.317-0.674,2.264
			C20.278,52.342,18.845,50.759,19.085,49.763z"/>
		<path style="fill:#C7C7C7;" d="M54,91c-0.645,1.157-1.59,2.451-2.913,2.997c-0.11-0.285-0.08-0.628-0.168-0.921
			C51.328,91.705,52.593,90.93,54,91z"/>
		<path style="fill:#616161;" d="M119,104c-2.727-0.574-5.446,1.259-8,0c-0.918-0.319-1.918-0.986-3-2c-1.409,1.196-1.896,0.653-1-1
			c-3.246-1.583-4.246-3.25-3-5c-2.037-1.697-1.531-2.144,1.079-1.853c0.647-0.565,1.76-2.879,2.788-2.241
			C109.15,92.702,120.365,102.772,119,104z"/>
		<path style="fill:#646464;" d="M107,101c0.331,0.132,0.803,0.705,1,1c1.189,0.56,2.684,1.613,2,3c-4.653,0.735-9.314,1.522-14,2
			c-3.025,1.041-5.168,0.992-4.068-2.647c0.987,0.808,2.039,0.72,3.157-0.264C93.864,101.362,99.908,96.31,102,99
			C102.782,97.6,104.449,98.267,107,101z"/>
		<path style="fill:#D2D2D2;" d="M90.076,101.008c1.748,0.066,3.419,1.093,5.013,3.081c-0.662,0.412-1.206,1.037-2.439,2.443
			c1.168,0.925,2.324,0.318,3.349,0.467c-1.326,1.297-3.259,1.153-5,1c-1.724-0.58-3.391-0.913-5-1l-1.719,0.619
			c-2.172-0.262-2.75-1.168-2.281-3.315c-1.913-1.633-1.769-2.892,0.307-4.244c0.221-0.177,0.405-0.39,0.554-0.63
			c1.616-0.07,2.804,0.992,3.566,3.184C87.38,103.927,88.596,103.391,90.076,101.008z"/>
		<path style="fill:#6B6B6B;" d="M84.281,107.619c-0.676,0.243-1.561,0.438-2.281,0.381c-2.051-0.164-5.612,1.075-5-2
			c0.435-1.816,1.102-2.149,2-1c0.413-2.718,1.39-2.435,3-0.696C83.548,104.626,84.442,106.077,84.281,107.619z"/>
		<path style="fill:#848484;" d="M91,108c-1.589-0.14-3.193-0.062-4.736,1.067c-0.499-1.083-0.239-1.583-0.264-2.067
			c0.63-0.745,1.384-1.163,2.292-0.888C89.43,106.456,90.404,107.058,91,108z"/>
		<path style="fill:#D5D5D5;" d="M111,104c-0.204,0.365-0.534,0.926-1,1l-2-3C109.367,101.93,110.544,102.708,111,104z"/>
		<path style="fill:#686868;" d="M81,110h-4C76.411,107.768,80.346,108.747,81,110z"/>
		<path style="fill:#5A5A5A;" d="M48.262,21c2.63-1.357,3.229,0.348,0.738,2l2.362,5.152c1.733,1.374,1.769,2.215,0.106,2.523
			c0.912,2.43-1.833,8.943-3.327,9.86c-0.592,0.364-3.953-1.672-3.931-2.745c-1.836-0.868-2.537-1.873-2.103-3.018
			C40.181,35.82,38.108,33.705,40,32c-2.937-0.361-3.27-1.361-1-3c-3.148-0.673-2.077-3.13,1-2l2.169-5
			c1.092-0.68,1.549-2.477,2.566-2.823C46.426,18.603,47.256,20.243,48.262,21z"/>
		<path style="fill:#888888;" d="M74,29c1.967,1.429,1.665,3.731-1,3c-1.546,1.655-1.97,3.993-2.864,6
			c-0.564,0.803-2.129,1.24-2.599,2.026c-0.743,1.242,0.436,2.453,0.081,4.141c-0.237,1.124-2.517-0.213-2.917-1.039
			c-0.828-2.506-1.514-4.651-0.77-7.095l1.014-2.625C64.461,31.025,64.813,29.889,66,30c-2.438-1.397-1.676-2.541,1-2
			c1.786-0.396,3.708-0.807,5.767-1.233C74.751,24.081,76.099,26.839,74,29z"/>
		<path style="fill:#B9B9B9;" d="M58.94,28.782c0.353,0.573,0.532,1.565,0.223,2.22c-1.129,1.063-2.836,1.461-5.121,1.196
			C54.552,34.873,53.872,36.473,52,37c-0.611,2.374-0.961,4.859-1.05,7.453L49,46c-0.662,0-1.342-0.07-2,0.091
			c-1.829,0.213-2.504-1.156-2.025-4.107c-1.625,0.828-3.168,1.167-4.629,1.016c-1.834-0.62-2.949,0.046-3.346,2
			c0.026,0.332-0.004,0.658-0.092,0.979C35.2,46.372,32.984,46.169,33,44c-1.11-0.97-1.414-2.531-0.911-4.683
			C30.19,38.738,29.063,38.278,30,36c0.446-2.448,3.64-3.054,5-1c2.199,2.211,5.943,3.755,9.211,2.789
			c0.82-0.074,2.411,1.564,3.539,0.789C54.388,34.02,48.649,24.758,49,23c1.817-0.955,3.45,0.278,4.898,3.697
			C56.517,26.654,58.198,27.349,58.94,28.782z"/>
		<path style="fill:#464646;" d="M58.94,28.782c-1.85,0.066-4.315,0.869-6.237-0.501C50.749,26.888,50.801,24.13,49,23
			c0.141-0.707-0.17-1.573-0.738-2c-1.804-3.074,6.631-3.1,8.306-2.608C57.369,21.917,59.187,25.631,58.94,28.782z"/>
		<path style="fill:#686868;" d="M42.169,22L40,27c-0.482,0.355-1.252,1.243-1,2c-0.078,1.034-1.008,2.199-2.79,3.495
			C34.802,30.579,32.399,29.413,29,29c-0.593-0.82-1.728-1.447-1.474-2.163C27.926,25.706,32.516,23.236,33,23
			c-0.222-2.737,2.859-2.188,5.076-1.766c0.909-0.227,1.765-0.317,2.588-0.671C41.689,20.121,41.975,21.012,42.169,22z"/>
		<path style="fill:#7C7C7C;" d="M73,18c2.501-1.182,2.977,0.047,1,2l1.351,0.416c-0.898,1.785-1.128,3.804-0.692,6.058
			C71.779,27.47,69.226,27.645,67,27c-2.403,1.211-3.004,0.718-2.066-1.861L65,22c-2.215-1.688-1.7-2.469,1-2
			c0.153-1.092,1.153-1.759,3-2c0.022-2.451,0.048-2.472,2-1C72.09,15.167,72.615,16.083,73,18z"/>
		<path style="fill:#575757;" d="M59.163,31.003c0.907,1.1,1.796,2.453,1.857,3.594c0.092,1.712-0.327,3.686-2.219,4.102
			c-1.793,0.395-3.441-0.766-4.927-0.636C51.942,39.863,51.748,39.661,52,37l0.059-6.888C54.785,29.711,57.14,29.895,59.163,31.003z
			"/>
		<path style="fill:#606060;" d="M22.167,15.171c0.088,0.828,0.985,1.826,0.615,2.745C24.985,19.434,23.352,22.392,21,22
			c-2.476-0.117-5.031,0.771-8.079,0.243c-1.484-0.257-0.968-2.352-0.317-2.954c-0.35-0.911,0.548-4.404,1.115-4.962
			c0.281-0.276,7.394-0.615,7.771-0.499C21.822,13.931,22.015,14.487,22.167,15.171z"/>
		<path style="fill:#5B5B5B;" d="M53.874,38.063c0.641,1.432,3.368,1.475,4.289,2.742C57.232,43.05,54.607,44.126,54,46h-5
			c-0.056-3.491-0.812-7.741,3-9C52.384,37.499,53.621,37.498,53.874,38.063z"/>
		<path style="fill:#545454;" d="M38.076,21.234C36.384,21.677,34.636,22.204,33,23l-5.848,0.848l-0.018-2.775
			C30.489,19.719,35.05,18.986,38.076,21.234z"/>
		<path style="fill:#7F7F7F;" d="M64.934,25.139C65.617,25.766,66.52,26.165,67,27c0.898,0.228,0.872,0.564,0,1l-1,2
			c-0.227,1.641-1.227,1.608-3-0.098c-1.35-0.812-3.769-2.797-3.016-5.048C60.622,22.944,63.941,24.227,64.934,25.139z"/>
		<path style="fill:#C6C6C6;" d="M55.948,9.785c0.029,0.399,0.029,0.821,0.092,1.215c-0.069,1.26-1.286,1.783-3.649,1.57
			l-0.437,1.499c0.035,1.328-0.911,1.826-2.047,2.199l-0.976-0.068c-2.515-1.049-2.786-0.79-0.814,0.777
			c-0.9,1.536-2.74,0.981-4.244,0.895C42.467,16.924,41.472,15.121,43,14l0.861-2.007c2.352,0.155,3.792-1.056,4.32-3.634
			C50.744,9.433,53.129,10.705,55.948,9.785z"/>
		<path style="fill:#686868;" d="M65,18c1.763,0.354,2.627,0.858,1,2c-0.172,0.692-0.985,1.296-1,2
			c-1.55,0.855-3.785,1.696-5.642,0.632c-0.701-0.524-0.078-2.129-0.075-2.632c0.798-0.715,2.704-1.718,2.717-3
			C62.331,15.957,63.331,16.29,65,18z"/>
		<path style="fill:#616161;" d="M26,20c-1.657,1.756-2.694,4.088-4.957,4.894C21.805,24.088,20.749,22.809,21,22
			c0.757-1.288,1.226-2.703,1.782-4.084c0.991-0.629,1.377-1.878,2.948-2.225C26.319,17.678,25.903,18.828,26,20z"/>
		<path style="fill:#5C5C5C;" d="M56.039,11c0.165,1.035,0.172,2.342-0.698,2.615c-1.312,0.412-2.377,0.362-3.388,0.454
			c-0.56-0.967-2.38-1.234-1.901-2.994L56.039,11z"/>
		<path style="fill:#575757;" d="M63.087,43.299l-1.302,0.283l-2.534-3.456c0.763-0.944,1.587-1.459,2.442-2.18
			C62.46,40.187,62.976,41.634,63.087,43.299z"/>
		<path style="fill:#777777;" d="M63,29.902c3.034,0.175,2.3,3.975,0.931,6.132c-0.782,1.082-3.467-5.729-2.135-6.012
			C62.112,29.954,62.594,29.913,63,29.902z"/>
		<path style="fill:#5A5A5A;" d="M48.929,16.199c-0.166,0.34-0.635,0.471-0.814,0.777c-0.845-0.141-2.539,0.561-3.103-0.447
			c-0.389-0.694-0.117-1.962,0.524-2.351c0.573-0.348,1.837-0.318,2.502,0.134C48.519,14.639,48.686,15.251,48.929,16.199z"/>
		<path style="fill:#5B5B5B;" d="M43,14c0.729,1.126,0.774,2.586,0.871,3.871c-1.302-0.074-2.143-0.914-2.946-1.871
			c-0.029-0.408,0.074-0.972,0.228-1.428C41.419,13.782,42.328,14.002,43,14z"/>
		<path style="fill:#5C5C5C;" d="M51.953,14.069c0.336,0.58,0.597,1.147,0.648,1.602c0.069,0.612-0.708,1.349-1.17,1.351
			c-0.474,0.002-1.822,0.162-1.525-0.754c-0.166-0.714-0.353-1.766,0.552-2.04C50.936,14.082,51.476,14.112,51.953,14.069z"/>
		<path style="fill:#646464;" d="M40.925,16c0.046,0.641,0.325,1.805-0.436,1.971c-0.836,0.182-2.03,0.189-2.299-0.463
			c-0.14-0.34,0.004-1.214-0.257-1.444C38.669,15.216,40.19,15.124,40.925,16z"/>
		<path style="fill:#5F5F5F;" d="M29,29c2.722,1.034,5.452,1.664,8.19,1.891C36.979,33.324,36.249,34.694,35,35
			c-1.479,0.881-3.287,1.2-5,1c-0.482,1.523-1.138,1.34-2.005,0.042c-3.552-3.328,0.915-6.473-1.722-6.018
			C27.004,29.465,28.042,29.134,29,29z"/>
		<path style="fill:#494949;" d="M21.043,24.894c-0.538,2.035-2.534,2.932-3.917,4.379c-0.102,2.26-1.387,2.554-2.346,0.507
			c-0.494-0.122-1.242-0.409-1.717-0.652c0.03-1.323-1.433-2.364-1.997-4.599C14.355,23.129,17.918,23.879,21.043,24.894z"/>
		<path style="fill:#5D5D5D;" d="M17.126,29.273c0.473,0.24,0.891-0.418,1.952-0.001c-1.563,1.773-2.232,3.685-4.304,5.217
			c-0.762-1.544-0.565-3.312,0.006-4.709C15.547,29.585,16.399,29.628,17.126,29.273z"/>
		<path style="fill:#4F4F4F;" d="M27.152,23.848c0.008,1.201-0.274,2.949-1.137,3.617c-1.217,0.941-2.989,0.784-3.909,0.128
			C23.916,25.136,24.705,22.104,27.152,23.848z"/>
		<path style="fill:#5C5C5C;" d="M17.117,37.144c-0.72-3.167,1.66-4.075,2.595-6.272C20.459,33.704,19.041,35.759,17.117,37.144z"/>
		<path style="fill:#525252;" d="M106,16c0.741-0.025,1.331,0,1.395,0.196c0.177,0.542,1.583,10.889,1.196,11.308
			c-1.258,0.064-2.455-0.438-3.591-1.504c-2.109,1.596-3.048,0.426-3-2l-2.462-0.724c1.148-1.261,0.968-3.02-0.538-5.276
			c0.035-1.543-0.396-3.124,0.944-4.293c0.841-0.733,2.77-0.594,3.529-1.426C104.519,13.38,104.481,15.168,106,16z"/>
		<path style="fill:#585858;" d="M99,18c3.149,5.805,1.386,6.048-4.084,5.932c-0.604-0.007-1.458-0.045-1.682-0.556
			C93.016,22.878,94.745,16.351,97,16C97.589,16.689,98.288,17.44,99,18z"/>
		<path style="fill:#626262;" d="M93,11.848c-0.809,0.573-1.997-0.792-2.617-0.95C92.153,9.821,92.829,7.534,95,7
			c0.843-0.289,3.088,0.751,2.718,1.54C96.748,10.614,94.379,10.87,93,11.848z"/>
		<path style="fill:#505050;" d="M102,8c0.217,0.175,0.653,0.035,0.908,0.16c1.127,1.047-0.246,1.849-0.847,2.413
			c-1.066,1-2.022,0.916-3.061,0.427c-0.033-0.676-0.248-1.668,0.1-2.409C99.57,7.59,101.092,7.978,102,8z"/>
		<path style="fill:#696969;" d="M93,14c-0.848-0.193-0.797-0.728,0-1c0.718-0.585,2.864-1.998,3.018,0.031
			C96.133,14.548,93.715,13.915,93,14z"/>
		<path style="fill:#666666;" d="M99,11c0.039,0.79,0.135,1.389-0.451,2.011c-0.517,0.549-1.373,1.415-1.52,0.431
			c-0.193-1.294-0.138-2.236,0.471-2.413C97.845,10.929,98.61,10.816,99,11z"/>
		<path style="fill:#6D6D6D;" d="M21,11c1.711,2.991-0.413,4.2-6.374,3.627C13.929,16.195,13.387,15.653,13,13
			c-1.344,0.97-1.841,0.465-1-1v-2l6-4C21.279,5.181,18.949,9.453,21,11z"/>
		<path style="fill:#7A7A7A;" d="M78,10c3.128-3.901,3.111,6.852,2.247,8.286C79.595,19.367,75.017,20.987,74,20
			c-0.21-0.538-0.621-1.538-1-2c-1.606-1.559-1.735-5.581,1-5.782L78,10z"/>
		<path style="fill:#D9D9D9;" d="M81.022,8.022c2.019,1.73,2.685,4.499,1.999,8.308C83.861,15.366,84.735,15.338,86,16
			c3.004,1.146,2.034,4.291-1,5c-8.458,0.569-8.458,0.569,0,0c2.841-1.159,3.466,0.949,0.736,2.167
			C82.581,25.054,79.336,26.665,76,28c-0.005,2.482-0.672,2.816-2,1c-0.026-0.487,0.224-0.966-0.242-2.034
			C71.569,28.412,69.229,28.066,67,28c0.139-0.278-0.057-0.687,0-1c2.176,0.103,4.307-0.388,6.797-1.298
			C74.254,23.647,74.058,21.713,74,20c1.665-0.484,3.991-0.668,5.076-1.579C80.549,17.184,80.946,8.259,78,10
			C78.629,8.493,79.457,8.04,81.022,8.022z"/>
		<path style="fill:#DBDBDB;" d="M70,9.829c0.046,0.729,1,1.382,1,2.171c-0.525,1.76-2.593,1.999-6.207,0.719
			c0.916,2.08,0.985,3.84,0.207,5.281c-1.058-0.134-2.085-0.447-3-1c0.029-3.045,0.519-6.32-1-9C64.089,8.708,66.82,10.173,70,9.829
			z"/>
		<path style="fill:#CBCBCB;" d="M74,12.218c-1.239,1.651-1.069,3.805-1,5.782c-0.439-0.535-1.477-0.552-2-1
			c-2.988-0.074-2.758-4.463,0-5C71.88,12.22,73.108,12.247,74,12.218z"/>
		<path style="fill:#686868;" d="M36,9c1.639,0.863,1.639,4.137,0,5c-1.048,0.125-2.025-0.429-3-0.685
			c-0.279-0.794-0.598-1.574-1-2.315C31.464,8.853,34.366,6.688,36,9z"/>
		<path style="fill:#494949;" d="M12,12c0.404,0.23,1.004,0.396,1,1l1.908,1.303c-1.404,1.233-2.456,2.864-3.158,4.891
			c-0.091,0.573-0.813,1.463-1.164,1.872c-0.579,0.674-1.95,0.208-2.687,0.074C5.6,19.962,5.587,19.48,7.433,17.986
			C6.873,15.2,7.062,13.204,8,12c0.365-0.262,0.701-0.56,1-0.895C9.992,11.3,11.089,11.482,12,12z"/>
		<path style="fill:#D2D2D2;" d="M22.167,15.171c-2.372,0.055-5.263-0.903-7.72,0.266c-1.347,0.641-1.2,3.011-1.843,3.852
			c-0.336,0.372-0.625,0.372-0.853-0.094C12.083,17.104,12.985,15.138,13,13c2.179,1.18,5.047,1.551,7.771,0.647
			C21.43,13.253,20.89,11.604,21,11C22.327,12,22.012,13.704,22.167,15.171z"/>
		<path style="fill:#5C5C5C;" d="M48.181,8.36c0.641,0.948,1.516,2.927,0.33,4.088C46.907,14.018,44.68,13.996,43,14
			c-1.409-2.174-1.342-4.818,0-7c0.568-0.924,0.963-1.539,2-2C45.331,6.914,46.602,7.698,48.181,8.36z"/>
		<path style="fill:#676767;" d="M86.774,12.076c-0.184,0.603,0.435,1.315,0.302,1.871C89.297,15.762,88.822,16.316,86,16
			c-1.349,1.519-2.182,3.838-4.98,2.922l0.002-10.9C83.715,7.99,84.59,10.682,86.774,12.076z"/>
		<path style="fill:#5E5E5E;" d="M36,9l-4,2c-0.763-0.101-1.476-0.432-2-1c1.78-1.646,2.912-3.854,4-6
			c1.178-0.091,2.564,0.794,3.553,1.965C38.168,6.692,36.978,8.511,36,9z"/>
		<path style="fill:#656565;" d="M38.86,14.033c-1.617-0.949-1.371-5.412,0.463-6.997C41.927,8.136,41.912,13.217,38.86,14.033z"/>
		<path style="fill:#C7C7C7;" d="M7.9,21.14c-1.431,0.046-3.007-0.988-3.988-1.925c1.98-0.174,3.465-0.425,3.22-2.72
			c-0.162-1.517-0.182-2.939-2.223-2.644C5.781,12.999,6.867,12.432,8,12L7.9,21.14z"/>
		<path style="fill:#686868;" d="M165,61c2.478-1.981,9.517,2.111,10,5c0.476,1.96,3.044,2.072,4.525,3.403
			c2.312,2.078,1.144,5.272,1.475,7.597l-1.437,2.918C175.762,80.821,171.907,81.515,168,82l-8.951,1.493
			c-1.987,0.959-2.389,0.912-2.049-1.493c0.405-3.251-0.677-6.354-0.87-9.916c-0.186-3.429,2.457-6.144,3.049-9.013
			c-1.791-1.971-1.59-2.344,1.026-2.071C161.551,59.675,163.402,60.523,165,61z"/>
		<path style="fill:#474747;" d="M121,47c-0.209,2.005,0.495,4.139-0.38,5.938c-4.858-1.791-18.623-1.118-19.38-3.676
			c-0.29-0.98-0.816-3.39-0.24-4.262c0.144-2.038-0.003-4.016-0.443-5.934L103,38c-1.699-2.747,0.036-4.513,2.871-3.129
			c1.929-1.054,3.587-2.498,4.973-4.333L112,31l5.647,2.047l-0.805,1.309C118.473,38.576,119.859,42.79,121,47z"/>
		<path style="fill:#4C4C4C;" d="M142,41c1.185-0.154,2.007,0.664,2.084,1.514c0.136,1.49-0.458,2.935-1.844,3.788
			c-2.979,1.834-3.735,6.363-7.135,7.676c-3.63,1.402-8.88-0.472-12.781-1.429c-1.149-1.091-0.084-4.42,0.675-5.549
			c-1.157-2.869,4.958-6.204,7-4l5-3C135.774,37.386,140.616,38.871,142,41z"/>
		<path style="fill:#444444;" d="M102,24c1.024,0.157,2.504,1.082,3,2c2.367,0.724,3.701,1.724,4,3c1.405-1.325,1.92-0.767,1,1
			c0.413,2.053-2.201,3.994-4.129,4.871c-1.105,1.05-2.137,1.71-2.871,3.129c-0.842,2.582-2.509,2.582-5,0
			c-2.741-0.596-4.34-1.596-4.795-3c-2.483,0.34-2.53-0.091-1.042-2.084c-1.933-3.227-0.212-7.355,0.515-7.765
			C93.397,24.746,94.27,24.997,95,25c0.883-1.041,2.351-1.52,4.405-1.438C99.895,21.162,100.781,21.9,102,24z"/>
		<path style="fill:#6E6E6E;" d="M129,56c-0.32,2.269-1.38,4.38-3,6c-0.739,2.673-1.67,3.589-2.794,2.748L110,68
			c-2.182,0.809-3.621,1.191-2-1l3-7c-1.179-2.31-0.59-3.575,2-4c0.098-0.678,1.356-1.459,1.605-2.029
			C115.067,52.915,127.97,54.624,129,56z"/>
		<path style="fill:#5A5A5A;" d="M127.969,32.108c2.496-1.991,7.604,1.97,7.031,4.892c3.168,1.167,3.168,2.167,0,3l-5,3l-7,4
			c-0.266,0.152-0.683,0-1,0c-2.638-4.544-4.444-9.381-5.417-14.513L120,32c-1.383-2.909,1.983-4.186,4-2
			C126.649,28.435,127.782,29.036,127.969,32.108z"/>
		<path style="fill:#606060;" d="M142.268,24c2.606-0.959,3.737,1.015,3.391,5.924c-1.058,2.698,0.05,5.89-0.75,9.116
			c-0.296,1.193-2.184,1.058-2.908,0.96c-3.078-0.409-5.412-1.409-7-3c-2.51-1.311-4.626-3.414-7.031-4.892
			c-2.583-3.82,4.865-8.146,8.024-5.696c1.118-1.057,2.587-2.105,4.008-2.412C141.009,21.472,141.765,21.472,142.268,24z"/>
		<path style="fill:#737373;" d="M184,61c-2.541,1.12-2.815,4.104-4.346,7.07c-1.34-1.336-3.049-1.667-4.654-2.07
			c-3.614-0.907-6.718-3.228-10-5c-2.939-1.587-4.163-5.508-2.328-8.366l18.339,6.251C182.368,59.348,183.308,60.247,184,61z"/>
		<path style="fill:#4E4E4E;" d="M98,38c4.204,0.174,3.811,4.066,2,7c-0.087,2.066,0.241,3.16-0.161,5.224l-15.018-2.43
			c3.187-7.247,0.526-7.921,6.115-10.792C93.004,35.976,95.358,36.309,98,38z"/>
		<path style="fill:#6A6A6A;" d="M160.205,61c-0.058,0.869-0.884,1.381-1.026,2.071C157.886,63.768,156.45,63.973,155,64
			c-1.394,2.795-8.834-0.237-9-3c-1.119-1.997-4.825-1.403-4-4c-1.659-1.95-1.616-1.972,1-2c0.868-0.77,2.369-1.033,3.925-1.029
			l14.009,0.037C161.436,56.732,160.352,58.802,160.205,61z"/>
		<path style="fill:#797979;" d="M83,70c-0.658,1.789-3.818,0.007-5-1c0.755-3.743-0.515-8.182,0-12
			c0.304-0.669,0.634-1.208,1.055-1.293c0.714-0.143,13.698,2.165,14.189,2.704c0,0-0.509,2.556-1.527,7.667
			C88.767,67.468,85.862,68.775,83,70z"/>
		<path style="fill:#767676;" d="M81,38c1.981-2.432,4.447-0.869,4,2c-0.434,1.943-0.078,4.99-1.522,6.938
			c-4.094,5.523-8.612,1.162-13.534-0.857c-1.504-0.617-1.712-3.694-0.588-4.846c0.833-0.854,2.153-1.079,3.67-1.905
			C72.777,37.271,74.586,36.917,76,38C77.56,38.124,79.44,37.723,81,38z"/>
		<path style="fill:#7B7B7B;" d="M57,60c3.088-1.182,4.461,2.772,1.278,4c1.09,1.378,2.87,2.224,5.339,2.537
			c2.004-1.608,3.68,1.698,2.247,3.532L61,72c-3.177,2.278-4.766,3.417-4.766,3.417l-5.193-3.462
			c-0.558-0.802-1.024-2.939-2.259-3.238c-1.244-0.684-0.294-2.332,0.835-2.911c0.083-2.722,1.583-5.068,3.294-7.115
			C54.341,57.204,56.948,57.809,57,60z"/>
		<path style="fill:#D0D0D0;" d="M62,55c1.852-0.822,3.805-0.864,5,1c1.25,1.125,1.553,2.85,0.909,5.175
			c-0.166,3.178,0.925,4.787,3.274,4.825c2.41,0.908,2.662,4.425,0.728,5.987C72.131,72.536,72.03,73.404,72,74
			c2.935-0.039,2.433,2.143-0.144,2.856c-2.288,0.423-3.921,2.549-6.291,1.289C62.222,77.891,59.7,78.51,58,80
			c-0.516,0.498-1.659,0.411-2.105,0.955c1.105-7.944-3.363-5.247-4.854-9.001C59.191,75.642,55.985,71.268,61,72
			c0.89,2.519,3.3,3.008,7.231,1.464c0.527-0.288-0.262-1.42-2.367-3.395c-1.178-4.058-6.659-4.683-10.771-2.909
			c0.313-2.014,2.014-2.534,3.185-3.16l0.914-1.025c4.772,1.175,5.132-0.049,2.349-3.937C58.796,59.35,57.282,58.671,57,57
			c-2.603-0.585-2.583-3.58,0.053-3.994C58.582,52.613,60.231,53.278,62,55z"/>
		<path style="fill:#5C5C5C;" d="M113,56c-0.242,1.677-0.723,2.891-2,4l-3,7c0.237,1.429-0.904,2.045-2,1
			c-3.064,2.437-9.485-4.42-5.714-7.026c-0.225-3.125,4.608-8.314,7.787-7.856c0.86,0.755,3.276-0.837,4.366-0.064
			C113.332,53.687,113.054,54.966,113,56z"/>
		<path style="fill:#5A5A5A;" d="M97,52c2.69,0.96,2.137,2.17-0.722,2.071c-0.536,2.336-1.803,3.985-3.801,4.949
			c-4.12-1.743-8.643-2.754-13.569-3.034L79,54C77.428,46.589,94.956,50.238,97,52z"/>
		<path style="fill:#595959;" d="M89,88c2.494,1.408,1.836,2.526-1,2c-0.88,2.616-2.88,2.616-6,0
			c-2.461-1.163-1.884-4.261-1.919-6.304C79.03,81.22,79.106,80.026,82,81l2.69-4.697c0.348-0.017,6.364,1.893,6.659,2.08
			c0.076,0.048-0.309,0.738-0.825,1.61C91.218,83.537,90.711,86.206,89,88z"/>
		<path style="fill:#616161;" d="M146,61c4.554,0.87,7.872,3.021,9,3c1.11,1.009,2.015,1.146,1.545,2.106
			c-0.929,1.897-1.176,2.325-3.291,1.593C152.54,67.452,151.53,66.912,151,67c-3.94,0.453-7.985,0.116-12.134-1.013
			c-0.334,0.025-0.684-0.467-0.997-0.562c-1.27-0.491-2.233-1.698-1.979-2.91C136.757,58.395,142.641,60.359,146,61z"/>
		<path style="fill:#717171;" d="M175,48c0,2.003,0.472,4.264-0.899,6.32c-2.867-1.797-5.294-3.834-7.943-4.108
			c-1.013,1.311-2.611,0.268-2.039-1.331c-1.513-0.373-2.405-1.609-3.118-2.882l-1.155-3.93c2.725-0.098,5.468-0.624,8.229-1.577
			L175,48z"/>
		<path style="fill:#7C7C7C;" d="M161.893,52.148c-2.748,1.364-22.007,1.878-21.843-1.71c1.752-1.205,3.115-4.277,4.981-4.326
			C150.767,47.638,155.812,49.554,161.893,52.148z"/>
		<path style="fill:#727272;" d="M70,80l2,5c0.908,0.183,0.872,0.522,0,1c0.06,0.927-1.031,3.038-2,3
			c-2.904,0.611-5.369,1.646-7.397,3.105c-3.533-2.519-3.982-4.554-1.349-6.105c-1.81-1.677-1.68-2.715,1.008-3
			C63.748,79.988,67.162,79.928,70,80z"/>
		<path style="fill:#828282;" d="M152.976,33.024c2.597-0.276,3.09,0.128,1.48,1.213c1.571,2.424,1.752,4.345,0.544,5.763
			l-2.073,5.063c-1.29,0.893-1.84,1.757-2.874,1.333c-3.587-1.469-2.352-14.138-1.101-15.213
			C150.078,32.095,151.762,33.333,152.976,33.024z"/>
		<path style="fill:#6B6B6B;" d="M108.073,53.118c-2.224,2.884-4.753,5.862-7.787,7.856c-1.658,2.399-4.842,0.68-4.152-2.123
			c-3.113,0.447-3.065-1.146,0.144-4.78C96.575,53.399,97.055,52.796,97,52C97.786,50.509,106.676,51.89,108.073,53.118z"/>
		<path style="fill:#818181;" d="M71.911,71.987c-0.703-1.749-1.392-4.074-0.728-5.987c1.955-5.636,0.063-9.338,5.738-10.036
			c0.344,2.236-1.269,15.841-1.475,15.944C74.453,72.404,72.932,71.831,71.911,71.987z"/>
		<path style="fill:#555555;" d="M87,94l1.845,5.155c2.492-1.006,2.934-0.206,1.231,1.853l0.921,4.84
			c-5.031-0.274-6.569-0.999-8.137-6.418C84.552,105.276,79.153,83.842,82,90c1.433,1.131,2.981,1.735,4.643,1.809L87,94z"/>
		<path style="fill:#D7D7D7;" d="M157,32c-0.287,0.536,0.623,1.377,1.374,1.621l11.507,3.729c-2.85,4.55,3.479,5.788,5.118,9.65v1
			c-3.579-1.656-6.31-9.723-13.704-4.659c-0.823,0.563-0.107,2.102-0.296,2.659c-3.394,0.167-6.356-4.326-4-7
			c1.106-0.922,2.573-0.749,4.402,0.519C167,39.548,158.915,35.664,157,39c0.634,1.934-0.376,2.292-2,1
			c0.182-2.553-0.602-4.819-2.024-6.976L157,32z"/>
		<path style="fill:#787878;" d="M82,72c2.68-1.624,3.577,0.87,2,3c1.905,1.219,1.972,1.982,0.202,2.291L82,81
			c-0.874,0.45-1.068,2.137-1.919,2.696C76.474,79.962,76.084,73.67,78,69C80.229,69.871,81.563,70.871,82,72z"/>
		<path style="fill:#696969;" d="M85,40c-1.394-0.369-2.579-1.748-4-2c-2.594-2.185-4.23-5.598-3.713-8.955
			c3.149,2.498,7.307,2.218,9.548,4.673C88.83,35.903,86.139,38.717,85,40z"/>
		<path style="fill:#848484;" d="M161,46c0.722,1.341,1.761,2.302,3.118,2.882c0.376,0.497,1.516,1.032,2.039,1.331
			c0.193,0.483,0.584,0.598,0.693,0.917c0.167,0.488-0.252,0.827-0.526,1.069c-0.493,0.436-1.186-0.16-1.876-0.586
			c-6.755-4.167-11.389-1.969-11.521-6.55L155,40c0.624-0.403,1.335-0.675,2-1C157.362,41.767,160.057,43.449,161,46z"/>
		<path style="fill:#C8C8C8;" d="M96.278,54.071c-0.675,1.526-0.923,3.272-0.144,4.78c-1.313,2.416-1.845,4.879-1.597,7.39
			l-1.592,1.815c-2.519,1.448-5.144,2.824-7.874,4.129L83,71c-0.873-0.284-0.86-0.618,0-1c2.961-3.546,11.279-2.485,8.412-11.242
			C87.013,57.495,82.256,57.154,78,57c0.144-1.07,0.238-2.245,1-3c1.341,2.637,4.907,1.496,7.506,2.334
			C90.677,57.679,94.068,57.685,96.278,54.071z"/>
		<path style="fill:#767676;" d="M85.736,23.167C86.055,22.381,85.246,21.571,85,21c0.278-1.619,1.005-3.322,1-5
			c0.464-0.523,0.912-1.37,1.076-2.052c1.58-0.955,3.026,0.04,4.111,0.724c1.315,0.828,2.84,3.434,1.45,5.023
			C90.925,21.651,88,22.673,85.736,23.167z"/>
		<path style="fill:#737373;" d="M70,56c-1.515-0.115-2.025-1.599-1.53-4.452c-2.042-0.892,0.523-3.298,2.532-2.566
			c1.575,0.23,3.202,0.113,4.505,1.04c0.934,0.664,2.291,2.357,1.399,4.072C75.67,56.468,72.13,56,70,56z"/>
		<path style="fill:#6D6D6D;" d="M72,89c1.419,0.745,2.368,2.891,1,4c1.772,2.771-0.812,4.223-3,2
			c-2.303,4.182-8.86-0.933-7.494-4.249c0,0,2.498-0.584,7.494-1.751H72z"/>
		<path style="fill:#3F3F3F;" d="M148,18c-1.242,3.914-0.825,8.058-2.341,11.924c-1.642-1.69-1.42-4.476-3.391-5.924
			C139.061,19.133,143.264,17.387,148,18z"/>
		<path style="fill:#838383;" d="M63.727,49.908C64.217,50.541,63.975,51.239,63,52c3.586-0.033,2.254,5.011-1,3
			c-0.879,0.432-2.028,1.356-3.324,0.885c-0.827-0.301-0.688-2.247-1.623-2.879c0.366-0.931,1.056-1.976,1.085-3.006
			c0.901-0.761,2.252-1.41,2.794-2.591C63.207,45.458,64.999,47.065,63.727,49.908z"/>
		<path style="fill:#848484;" d="M88.146,29.053c0.084,0.976-0.015,2.092-0.512,4.174C84.442,31.781,81.554,30.063,79,28
			c-0.682-2.089,4.325-3.5,6-3C86.984,25.604,86.513,28.109,88.146,29.053z"/>
		<path style="fill:#898989;" d="M143,55c-0.406,0.46-0.276,1.648-1,2c-1.226,0.595-3.093,3.394-5.223,2.76
			c-2.663-1.708,0.276-7.438,3.342-7.277C142,52.582,143.407,53.768,143,55z"/>
		<path style="fill:#7D7D7D;" d="M77,83c-0.834,1.416-2.251,3.763-4,3h-1c-0.017-0.268,0.036-0.7,0-1l-2-5
			c1.149-0.907,2.746-2.544,4.587-2.118C76.793,78.393,77,81.077,77,83z"/>
		<path style="fill:#707070;" d="M62.262,83c-0.443,0.899,0.097,2.359-1.008,3l-1.078,3.473c-2.805-0.758-5.195-2.187-7.17-4.286
			C55.359,83.069,59.536,80.874,62.262,83z"/>
		<path style="fill:#5C5C5C;" d="M46.924,53.257c1.677-1.899,2.097-1.372,2.076,1.084c1.404,1.104,1.719,2.662,1.08,4.345
			c-0.747,1.966-2.126,1.442-3.94,1.336c-1.107-1.925-1.772-4.225-0.877-6.865C45.547,52.799,46.634,53.304,46.924,53.257z"/>
		<path style="fill:#BDBDBD;" d="M120,32c-0.801,0.78-1.958,0.935-2.836,1.467L122,47h-1c-2.781-3.937-2.704-9.218-5.363-13.59
			c-0.839-1.379-3.54-0.675-3.637-2.41C113.786,28.133,118.403,29.45,120,32z"/>
		<path style="fill:#858585;" d="M82.307,100.06c0.646,1.384,0.407,2.922-0.307,4.244c-0.666,1.067-2.008,0.477-3,0.696
			c-2.193,0.877-1.858-3.267-1-5c-0.025-0.33,0-0.668,0-1c0.028-0.851,0.361-1.184,1-1c0.718-0.063,1.544-0.173,2.305,0.168
			C81.974,98.468,82.229,99.328,82.307,100.06z"/>
		<path style="fill:#7B7B7B;" d="M79,92c1.582,2.589,0.382,4.354-2,2c-1.902,1.274-3.994-2.64-4-5
			c1.281-1.152,3.95-1.759,5.636-0.586C79.634,89.108,78.799,91.254,79,92z"/>
		<path style="fill:#747474;" d="M85.736,23.167C85.492,23.769,85.063,24.328,85,25c-1.768,1.428-4.054,1.872-6,3
			c-0.827,0.331-2.105-0.206-3,0c-0.264-0.363-0.861-1.101-0.615-1.725C78.936,25.25,82.368,23.903,85.736,23.167z"/>
		<path style="fill:#6A6A6A;" d="M65.564,78.144C63.34,79.357,60.704,81.093,58,80c-0.331-0.572-1.499-1.978-0.871-2.777
			C60.089,76.854,63.359,76.645,65.564,78.144z"/>
		<path style="fill:#626262;" d="M67.79,48c1.823-0.469,0.883,2.776,0.248,3.303c-0.19,0.158-3.909-1.096-4.311-1.394
			c-0.666-1.093-1.73-1.824-2.795-2.499c0.64-1.395,2.262-2.895,4.081-2.036C65.917,45.8,66.667,47.256,67.79,48z"/>
		<path style="fill:#7D7D7D;" d="M46.939,49.02c1.5,0.743,3.184,0.775,5.052,0.096c0.368,2.665-0.228,4.297-1.789,4.895
			c-0.39-0.038-0.808,0.312-1.202,0.331c-0.554-0.436-1.758-0.241-2.076-1.084c-0.48-1.274-2.558-1.797-2.715-3.407
			C44.235,48.523,46.361,49.417,46.939,49.02z"/>
		<path style="fill:#616161;" d="M73,32c0.769-0.823,1.151-1.831,1-3l2-1c-0.458,1.95,0.827,3.623,0.976,6.188
			c0.07,1.203-2.371,0.944-3.144,0.755C72.446,34.605,72.838,33.057,73,32z"/>
		<path style="fill:#D8D8D8;" d="M77,94c2.604,0.271,2.63,2.2,1,4l-6,1l-0.537-1.265C73.15,96.513,73.662,94.935,73,93
			c0.003-1.398-0.278-2.793-1-4h1C74.447,90.7,74.681,93.344,77,94z"/>
		<path style="fill:#E1E1E1;" d="M71.003,48.982C68.058,49.943,68.903,54.333,70,56c-0.064,2.86-2.324,2.733-3,0
			c-0.652-2.088-1.986-3.422-4-4c-0.014-0.615-0.284-2.162,0.727-2.092c0.805,0.056,2.274,0.382,3.343-0.108
			c0.517-0.237,0.698-0.988,0.72-1.8C69.006,47.587,69.972,48.831,71.003,48.982z"/>
		<path style="fill:#A2A2A2;" d="M103,38c-1.187,2.294-0.559,4.82-2,7h-1c0.105-2.505,0.668-5.131-2-7H103z"/>
		<path style="fill:#7D7D7D;" d="M79,98l-1,1v-1c-0.711-1.212-1.013-2.6-1-4c1.014-0.23,1.77-0.986,2-2
			c1.003,0.855,2.041,2.021,2,3.495C80.969,96.598,79.759,97.241,79,98z"/>
		<path style="fill:#C7C7C7;" d="M53,51c-0.395,0.685,0.569,2.34-0.658,2.837c-0.654,0.265-1.403,0.244-2.14,0.173l0.784-3.781
			c-1.763-0.589-3.608,0.572-4.047-1.21C49.031,48.292,51.051,47.952,53,48C54.244,47.864,54.244,48.864,53,51z"/>
		<path style="fill:#8C8C8C;" d="M76,38c-0.498,1.225-2.113,0.862-2.974,1.331c-1.042-0.322-2.458-0.122-2.89-1.331
			c2.138-2.083,5.156-2.828,7.922-1.54C76.908,37.287,76.187,37.272,76,38z"/>
		<path style="fill:#AFAFAF;" d="M102,24c-2.4-0.368-4.629,1.011-7,1l-0.084-1.068c1.047-1.31,2.938-0.83,5.142-0.955
			C99.799,20.961,98.964,19.609,99,18C100.856,19.46,100.957,21.957,102,24z"/>
		<path style="fill:#808080;" d="M88.146,29.053c-0.14-1.617-0.82-5.83,2.061-5.71C91.958,23.765,90.771,30.315,88.146,29.053z"/>
		<path style="fill:#C7C7C7;" d="M148,17c-0.032,0.318,0.096,0.697,0,1c-1.76,0.53-3.553,0.792-5.868,1.194
			c-0.4,1.852,0.015,3.337,0.136,4.806H140c-1.869-1.928-1.821-2.026,0.827-2.79c-2.664-1.204-2.608-3.242,0.173-4.21
			C142.836,18.969,145.724,16.95,148,17z"/>
		<path style="fill:#5B5B5B;" d="M92.163,32.916c0.401,0.668,1.038,1.22,1.042,2.084c1.412,0.983,0.656,1.651-2.268,2.002
			c-0.712,0.042-1.854,0.16-1.985-0.662c-0.132-0.829,1.113-4.995,1.514-5.265C90.678,30.932,91.39,32.742,92.163,32.916z"/>
		<path style="fill:#5D5D5D;" d="M57.053,53.006C56.586,54.196,57,55.762,57,57c-0.238,1.978-2.192,1.48-3-0.205
			c-0.899-1.023-0.529-2.266-0.091-3.364C54.502,51.942,55.886,52.216,57.053,53.006z"/>
		<path style="fill:#6A6A6A;" d="M71.856,76.856L72,74c0.807-0.5,2.656-1.715,3.691-0.699c0.977,0.96,0.37,2.778-0.898,3.012
			L71.856,76.856z"/>
		<path style="fill:#818181;" d="M147.205,43.865c-0.109-0.432-3.723,8.246-0.752-8.848
			C147.826,37.767,146.397,40.666,147.205,43.865z"/>
		<path style="fill:#BBBBBB;" d="M142,40v1c-2.272-1.307-4.556-1.866-7-1c0.376-1.049,1.072-1.991,0-3
			C137.197,38.148,140.211,38.049,142,40z"/>
		<path style="fill:#B0B0B0;" d="M49.617,65.806c-0.031,1.026-0.075,2.139-0.835,2.911c-0.661-0.16-2.844,0.203-1.987-0.95
			c0.812-1.092,1.284-1.758,1.701-2.193C48.743,65.316,49.155,65.601,49.617,65.806z"/>
		<path style="fill:#818181;" d="M58.138,50c-1.801,1.462-3.557,1.231-2.67,0.05c0.758-1.585,1.708-3.894,3.396-2.774
			C58.748,48.03,57.547,49.098,58.138,50z"/>
		<path style="fill:#DEDEDE;" d="M57,57c2.86,0.064,2.733,2.324,0,3c-1.264-0.704-2.672-1.059-4.089-1.31
			c0.47-0.563,0.81-1.221,1.089-1.895C54.99,56.91,56.017,56.826,57,57z"/>
		<path style="fill:#D8D8D8;" d="M77,84c0.913,1.588-0.289,2.708-2,3c-0.768,0.04-1.479-0.498-2-1l4-3V84z"/>
		<path style="fill:#7B7B7B;" d="M53,48c-1.891,0.952-3.956,1.186-6.061,1.02C48.006,48.287,49.946,47.997,51,47
			C51.733,46.974,52.458,47.601,53,48z"/>
		<path style="fill:#5C5C5C;" d="M48.079,71.812c-1.558,1.565-3.441,1.587-2.566,0.082C46.272,69.291,48.258,69.359,48.079,71.812z"
			/>
		<path style="fill:#747474;" d="M75,87l2-3c0.755,0.422,1.467,1.677,0.966,2.505C77.394,87.449,75.858,86.955,75,87z"/>
		<path style="fill:#646464;" d="M53,51v-3c0.588-0.16,0.973-0.859,1.912-1.007C55.514,49.191,53.691,49.801,53,51z"/>
		<path style="fill:#D7D7D7;" d="M168,82c-2.564,1.974-13.617,0.766-11,6c-7.401-2.649-9.491,7-14,7
			c1.457-2.655,4.092-4.175,6.091-6.692c-1.958-0.694-3.282-1.105-4.091-2.308c1.838-0.029,3.804,0.926,5.901,1.072
			c4.002,0.278,5.72-2.026,6.099-5.072C159.406,84.141,162.311,81.194,168,82z"/>
		<path style="fill:#DCDCDC;" d="M180,81c-4.076-0.185-7.891,1.582-12,1c3.392-2.612,10.299,0.19,13-5
			C181.219,78.538,180.133,79.656,180,81z"/>
		<path style="fill:#DDDDDD;" d="M181.97,87.843c-1.747-1.45-2.197-4.566-1.97-6.843C181.68,82.576,182.337,85.6,181.97,87.843z"/>
		<path style="fill:#505050;" d="M123,79c2.185,2.169,5.299,2.568,8,4c0.636,0.898,0.786,1.955,1,3l-3,4
			c-0.592,1.502-2.287,2.603-3.026,3.974c-0.683,2.961-2.401,2.94-5.155-0.063C120.215,88.942,121,83.984,121,79
			C121.581,77.339,122.761,77.053,123,79z"/>
		<path style="fill:#D1D1D1;" d="M123,79h-2v-1l-1.093-2.039c0,0,0.478-2.666,1.434-7.997l-9.695,2.021L110,68
			c4.381-2.792,13.553-2.202,16-6L123,79z"/>
		<path style="fill:#DADADA;" d="M145,86c-1.921,0.031-3.849-0.345-5-2C141.871,83.9,143.906,84.372,145,86z"/>
		<path style="fill:#D8D8D8;" d="M178,42c0.255-1.721,0.183-4.315,2.03-5.057C180.505,38.808,179.419,40.791,178,42z"/>
		<path style="fill:#D3D3D3;" d="M187,49c0.358-1.704,1.15-3.524,3-4C190.419,47,188.516,48.1,187,49z"/>
		<path style="fill:#D2D2D2;" d="M182,56c0.009-1.892,1.281-3.277,3-4C185.022,54.041,183.559,55.085,182,56z"/>
		<path style="fill:#E9E9E9;" d="M151,67v1c-3.668-1.352-8.41,0.402-12.134-2.013C142.987,65.679,146.844,67.69,151,67z"/>
		<path style="fill:#D6D6D6;" d="M125.974,93.974c-1.175,2.179-1.176,5.041,0.026,7.026c-0.777-0.439-2.484,0.659-2.975-0.542
			c1.079-1.233,1.588-3.634,0.429-4.159C122.63,95.925,121.18,95.161,120,95c0.247-0.382,0.518-0.748,0.819-1.089
			C122.35,95.127,124.445,95.236,125.974,93.974z"/>
		<path style="fill:#C7C7C7;" d="M129,90c-0.015-1.884,1.335-3.281,3-4C132.448,88.183,130.128,88.859,129,90z"/>
		<path style="fill:#6D6D6D;" d="M94,87l5,2l5.246,2.134c0.596,0.874,0.668,2.006,0.833,3.013c-0.412,0.36-0.604,1.493-1.079,1.853
			c0.592,2.745-0.075,3.745-2,3c-2.538,1.164-4.531,3.606-6.911,5.089c-0.688,0.059-2.015,1.151-2.754,0.587
			c-1.347-1.036-1.542-2.589-2.259-3.668l-1.231-1.853L87,94c-2.474-1.519-2.141-2.852,1-4c0.529-0.553,0.891-1.24,1-2
			c0.932-2.003,1.932-2.67,3-2C93.397,83.562,94.541,84.324,94,87z"/>
		<path style="fill:#6F6F6F;" d="M108,78c1.057-1.624,1.701-1.179,1,0.696c2.96,0.709,2.491,0.997,0,2.304
			c-2.773,2.207-0.51,10.459-4.754,10.134L99,89l-5-2l-2-1l-1.439-0.514c0.299-2.693-0.019-5.111-0.956-7.251
			c2.621-1.502,11.986-3.394,15.147-2.689C105.659,73.937,106.741,74.755,108,78z"/>
		<path style="fill:#5F5F5F;" d="M121,78h-1l-8,1c-0.649,0.855-2.958,1.166-3-0.304c-0.272-0.301-0.718-0.418-1-0.696
			c-2.367-2.054-2.867-3.285-1.502-3.692c-0.879-4.41,0.289-6.513,3.502-6.308c4.689,0.17,9.009-1.569,14.065-2.86
			C123.594,69.676,123.445,74.477,121,78z"/>
		<path style="fill:#797979;" d="M116,80c0.666-0.032,1.855-0.292,2.914,0.262c-0.038,4.09,0.837,8.261,0.189,12.898
			c-4.35-0.561-8.02-1.185-11.582-2.953C108.209,86.534,109,83.841,109,81C109.553,78.623,113.944,79.279,116,80z"/>
		<path style="fill:#797979;" d="M120,78c-1.013,1.195-2.566,1-4,1c-0.542,0.894-3.028,0.71-4,0
			C113.936,76.841,117.349,78.446,120,78z"/>
		<path style="fill:#D6D6D6;" d="M112,79h4v1c-2.237,0.107-5.094-0.517-7,1v-2.304L112,79z"/>
		<path style="fill:#3F3F3F;" d="M127,24l-2.134,5c1.45,1.174,0.945,1.692-0.866,1c-1.301,0.818-2.904,0.933-4,2
			c-2.729,0.536-5.246-0.986-8-1c-0.685-0.888-0.351-2.221,1-4c-2.195-1.748-1.838-2.98,1-3l0.894-1.887
			c0.159-3.703,1.194-5.073,3.106-4.113l8-4C128.105,16.834,126.601,20.629,127,24z"/>
		<path style="fill:#BFBFBF;" d="M115,10c-1.364,0.495,0.361,9.254,3,8c-2.204,1.014-2.214,4.689-4,6
			c-1.425-1.288-1.89-3.304-1.394-6.048c-0.142-2.635-0.677-4.619-1.606-5.952c0.003-1.099-0.523-2.047-1-3
			C111.645,9.444,113.287,9.946,115,10z"/>
		<path style="fill:#525252;" d="M114,24c-0.299,0.802-0.573,2.16-1,3c-0.554,2.566-1.554,3.566-3,3l-1-1
			c-1.339-0.961-1.95-1.627-0.433-2.359c-0.826-3.401-1.247-6.851-1.262-10.348L109,15c0.928-0.803,1.592-1.846,2-3
			C114.33,8.771,115.567,21.023,114,24z"/>
		<path style="fill:#C4C4C4;" d="M109,29c-1.687-0.578-3.154-1.434-4-3c0.993-0.053,1.62,0.58,3.127,0.968L106,16
			c1.055-0.146,2.081-0.457,3-1C106.419,22.76,109.606,21.71,109,29z"/>
		<path style="fill:#565656;" d="M141,17c-0.041,1.404-0.021,2.81-0.173,4.21c-0.361,0.757-0.732,1.353-1.143,1.381
			C136.535,22.808,130.609,22.199,128,21c0-2.351-0.401-4.67,0.308-6.897C134.788,17.018,136.673,12.36,141,17z"/>
		<path style="fill:#4F4F4F;" d="M30,36c1.231,1.25,3.625,1.242,3.951,2.684C34.431,40.812,33.902,42.571,33,44
			c0.165,2.011-1.232,2.528-3.087,1.945c-2.711,1.056-5.47,1.69-8.953,0.897C21.586,45.756,21.996,44.957,22,44
			c2.474-2.296,2.981-6.285,5.995-7.958l0.964-0.535C29.356,35.286,29.631,35.957,30,36z"/>
		<path style="fill:#4E4E4E;" d="M47,46.091c-2.279-0.126-7.526,2.242-7.879-0.867c-1.866-1.729-1.302-2.406,1.226-2.223
			c1.383-2.214,3.491-3.792,6.618-2.834L47,46.091z"/>
		<path style="fill:#777777;" d="M36.951,54l2.1-5.031c1.528-1.203,3.273-1.476,4.349,0.532c1.725,3.218-4.022,6.629-7.266,9.613
			L36.951,54z"/>
		<path style="fill:#666666;" d="M39.051,48.969L36.951,54c-1.8,1.185-1.393,3.142-3.422,3.768
			c-0.718-3.214-0.992-6.471-0.155-9.452C34.741,47.336,37.778,48.022,39.051,48.969z"/>
		<path style="fill:#595959;" d="M31.551,56.074c-0.201,0.657-2.505-0.015-3.115-0.238c-0.107-0.039,0.565-9.808,3.068-8.069
			C32.309,49.999,32.345,53.479,31.551,56.074z"/>
		<path style="fill:#666666;" d="M40.346,43c-0.437,0.7-0.39,1.751-1.226,2.223L37,45c-0.055-0.899-2.003-1.88-1.782-2.651
			c0.492-1.716,2.256-1.407,3.3-1.406C39.589,40.944,40.316,41.741,40.346,43z"/>
		<path style="fill:#575757;" d="M36.908,45.979c-1.817,1.42-5.379,1.847-6.995-0.034C30.766,45.048,31.816,44.367,33,44
			C34.567,43.977,35.707,45.103,36.908,45.979z"/>
		<path style="fill:#707070;" d="M39.048,58.519l4.324-4.305c0.918,0.823,0.764,2.257,0.578,3.282
			C43.679,58.998,41.9,59.574,39.048,58.519z"/>
		<path style="fill:#D8D8D8;" d="M79,105c-0.602,0.132-1.13,1.434-2,1c0.238-2.002-0.894-4.778,1-6
			C78.127,101.659,77.276,104.05,79,105z"/>
		<path style="fill:#5D5D5D;" d="M68,99c-0.134,0.592,0.431,2.189-0.261,2.745c-2.857,0.295-6.419,1.031-9.063-0.515
			C57.25,100.397,58.967,97.944,59,97c0.4-1.11,0.878-2.233,1.806-2.995c0.878-2.103,1.977-2.516,2.186-0.248
			c1.475,1.687,3.184,2.626,5.128,2.817L68,99z"/>
		<path style="fill:#D1D1D1;" d="M61.255,86c0.033,0.858-0.659,3.636,0.656,3.999C65.038,90.692,67.447,88.9,70,89
			c-1.497,1.792-4.332,1.324-6.54,2.73c-1.323,1.064,1.107,2.632,1.929,3.368C66.743,96.312,68.429,95.517,70,95
			c1.511,2.366,0.687,3.606-2,4c-2.409-1.823-3.984-4.923-7.194-4.995c0.01-1.59,0.282-3.969-1.461-4.697
			C58.149,88.809,56.158,89.71,55,90c0.483-0.855,1.246-1.432,0.547-2.077c-0.854-0.787-1.636-0.959-2.481-0.734
			c0.241-0.551-0.255-1.411-0.06-2.002c1.839,0.225,3.082,1.991,5.14,2.659C59.599,88.317,60.456,86.463,61.255,86z"/>
		<path style="fill:#686868;" d="M72,99h-4c0.286-1.263,0.981-3.051,2-4c0.825-0.769,2.516-0.724,3-2
			c0.728,0.636,3.176,1.446,2.837,3.218C75.579,97.568,72.995,98.119,72,99z"/>
		<path style="fill:#D3D3D3;" d="M107,101l-5-2c0.484-0.996,1.045-2.276,2-3C103.941,98.141,106.063,99.223,107,101z"/>
		<path style="fill:#CBCBCB;" d="M39,29l1,3l-2,3c-1.094,2.57-1.749,2.585-3,0c0.093-0.84,1.282-1.588,0.909-2.444
			C34.884,30.203,30.491,31.062,29,29c2.466-0.345,4.655,0.838,7.314,1.547C37.314,30.807,38.277,29.272,39,29z"/>
		<path style="fill:#484848;" d="M40,32c0.333,1,1.417,1.867,2.108,2.772C43.567,36.784,41.951,37.237,40,36
			c-1.517,2.192-2.575,1.615-2-1c-0.415-0.568-1.009-1.645-0.982-2.391c0.017-0.483,0.819-1.016,1.477-1.502
			C38.876,30.826,39.444,32.038,40,32z"/>
		<path style="fill:#C5C5C5;" d="M44.211,37.789C42.091,38.755,38.646,38.643,40,36c0.91,0.088,1.773-0.357,2.108-1.228
			C42.92,35.837,44.863,36.047,44.211,37.789z"/>
		<path style="fill:#C8C8C8;" d="M40,27c-0.158-2.018,0.43-3.918,2.169-5C42.508,23.718,41.255,26.076,40,27z"/>
		<path style="fill:#D8D8D8;" d="M66,30c-0.865,1.73,0.064,5.162-2.069,6.033c0.698-2.293,1.042-4.944-0.931-6.132
			C64,29.872,65.002,29.947,66,30z"/>
		<path style="fill:#4C4C4C;" d="M38,35c0.575,0.213,1.308,0.998,2,1c0.903,1.318,2.656,1.93,4.211,1.789
			c-0.807,2.155-8.829,1.229-9.099,0.693C34.737,37.736,34.896,35.939,35,35C35.929,35.218,37.111,34.671,38,35z"/>
		<path style="fill:#696969;" d="M71,12v5c-0.488,0.619-1.229,0.92-2,1c-1.741,1.145-3.075,1.145-4,0
			c-1.861-1.763-3.115-6.187-1.358-7.841L71,12z"/>
		<path style="fill:#DEDEDE;" d="M69,18c-0.817,0.91-1.854,1.579-3,2c-0.455-0.547-0.484-1.511-1-2H69z"/>
		<path style="fill:#8E8E8E;" d="M85,21l-9.299,3.956c-0.943,0.316-0.844-2.54-0.66-3.399C75.083,21.358,80.425,17.592,85,21z"/>
		<path style="fill:#C0C0C0;" d="M112,31c-2.301,1.216-3.445,4.192-6.129,3.871c1.536-1.46,2.806-3.231,4.129-4.871
			c0.851-1.056,2.31-1.737,3-3C112.522,27.94,113.233,30.348,112,31z"/>
		<path style="fill:#B9B9B9;" d="M135,40c-0.807,2.252-3.228,1.987-5,3C130.714,40.727,133.118,40.667,135,40z"/>
		<path style="fill:#C1C1C1;" d="M98,38c-2.39,0-4.645-1.141-7.063-0.998L93.205,35C95.342,35.807,96.6,37.02,98,38z"/>
		<path style="fill:#D4D4D4;" d="M110,68c-0.72,0.459-2.485,0.909-2.82,2.013c-0.893,2.94,0.282,5.59,0.82,7.987
			c-4.334-4.259-10.901-1.201-16.451,0.573C90.456,81.221,90.754,83.877,92,86c-0.741,0.993-1.848,1.589-3,2
			c0.647-2.541,1.83-5.823,0.611-8.714c-0.496-1.176-3.85-2.542-4.66-1.618C83.857,78.916,83.199,80.382,82,81l2-6
			c1.233-1.106,2.794-1.068,4.682,0.113l3.019,0.287c2.358-1.165,4.458-1.632,6.299-1.4c1.329-1.206,3.312-1.519,5.949-0.938
			c-0.524-2.802,0.16-4.489,2.051-5.062c0.604-0.388,1.457-0.517,2-1C107.999,68.213,109.14,67.969,110,68z"/>
		<path style="fill:#CCCCCC;" d="M108,67c0.001-2.553,1.021-5.281,3-7C110.991,62.603,109.961,65.256,108,67z"/>
		<path style="fill:#5B5B5B;" d="M135.992,26.412c-3.077,1.597-6.763,2.259-8.024,5.696c-1.276-0.785-2.608-1.483-3.969-2.108
			c0.319-0.273,0.502-0.781,0.866-1L127,24c0.391-0.268,0.708-0.631,1-1c2.343-1.862,8.698-0.955,11.84-0.03
			C138.829,24.289,137.546,25.437,135.992,26.412z"/>
		<path style="fill:#A1A1A1;" d="M140.827,21.21c-0.106,0.977-0.322,1.935-0.827,2.79c-0.824,1.572-2.618,1.691-4.008,2.412
			c0.381-1.54,1.899-1.861,3.152-3.193L128,23v-2C132.28,20.992,136.551,21.445,140.827,21.21z"/>
		<path style="fill:#DBDBDB;" d="M83,70v1c0.239,0.906-0.094,1.239-1,1c-1.467-0.814-3.576-1.175-4-3L83,70z"/>
		<path style="fill:#646464;" d="M58.278,64c0.258-1.466-0.561-2.771-1.278-4v-3c1.53,0.271,3.952-0.733,5.687,0.422
			c2.753,1.833,2.754,6.147,1.892,8.754C61.578,65.522,59.941,64.892,58.278,64z"/>
		<path style="fill:#D8D8D8;" d="M65.864,70.069c2.07,3.446-3.68,5.483-4.864,1.931C62.291,70.999,64.282,69.533,65.864,70.069z"/>
		<path style="fill:#858585;" d="M70,56c3.757,5.706,0.472-2.214,1.183,10c-0.818,0.612-0.827,2.162-2.431,3.665
			C65.913,65.417,64.955,60.09,67,56H70z"/>
		<path style="fill:#818181;" d="M61,72c1.525,0.223,4.397-0.451,4.864-1.931c1.265,0.034,2.682,0.379,3.671,0.91
			c0.831,0.446,2.346,2.72,1.016,3.549c-4.093,2.551-9.389,1.48-14.191,1.069L61,72z"/>
		<path style="fill:#878787;" d="M67,56c-1.805,0.854-3.928,0.842-5-1c1.373-0.268,1.025-1.934,1-3
			c0.799-0.595,1.811-0.848,2.565-0.976c1.382-0.234,2.648-0.216,2.542,1.467C68.025,53.779,67.559,54.882,67,56z"/>
		<path style="fill:#737373;" d="M96.134,58.85l4.152,2.123c0.122,3.253,3.294,5.166,5.714,7.026l-0.062,6.886
			C102.938,75.252,100.277,75.218,98,74c-1.373,1.447-1.972,0.79-1-1l-3-4c-1.385,1.547-2.055,0.947-1.055-0.945
			C91.815,64.551,91.94,59.305,96.134,58.85z"/>
		<path style="fill:#C8C8C8;" d="M88,90c-0.225,1.345-0.871,2.638-1,4c-1.691-1.279-4.078-1.923-5-4
			C84.17,90.167,86.304,91.73,88,90z"/>
		<path style="fill:#DBDBDB;" d="M164.118,48.882c-0.714,0.12-1.439,0.05-2.147-0.324c-0.944-0.499-0.656-1.707-0.971-2.558
			C162.424,46.509,163.25,47.736,164.118,48.882z"/>
		<path style="fill:#D4D4D4;" d="M72,85c-1.661-1.049-2.164-3.119-2-5C71.789,80.795,71.794,83.281,72,85z"/>
		<path style="fill:#D9D9D9;" d="M152.927,45.063c-0.055-1.919,0.358-3.955,2.073-5.063
			C154.854,42.053,154.737,43.81,152.927,45.063z"/>
		<path style="fill:#D0D0D0;" d="M88.845,99.155C87.823,97.616,86.821,95.9,87,94C88.631,95.233,89.202,97.119,88.845,99.155z"/>
		<path style="fill:#848484;" d="M157,39c-0.233-1.781-1.006-2.926-2.013-5.22c4.86,1.849,8.901,2.562,13.782,5.112
			C161.902,42.638,160.415,42.134,157,39z"/>
		<path style="fill:#636363;" d="M92.945,68.055C93.06,68.413,93.672,68.852,94,69l3,4c0.397,0.178,0.611,0.781,1,1
			c-3.579,4.475-9.43,4.326-14,1c-0.905-0.659-1.166-2.245-2-3c0.291-0.373,0.627-0.709,1-1l6.683-3.435
			C90.984,66.897,92.169,67.353,92.945,68.055z"/>
		<path style="fill:#CFCFCF;" d="M99,89c-1.903,0.084-3.873-0.365-5-2C95.879,86.924,97.901,87.363,99,89z"/>
		<path style="fill:#CECECE;" d="M104.246,91.134C102.279,90.983,100.181,90.759,99,89
			C100.976,88.913,103.085,89.433,104.246,91.134z"/>
		<path style="fill:#C2C2C2;" d="M124.866,29c0.013-1.894,0.51-3.886,2.134-5C127.228,25.926,126.549,27.987,124.866,29z"/>
		<path style="fill:#D3D3D3;" d="M36.951,54c0.204-1.74,0.258-4.289,2.1-5.031C39.414,50.756,38.515,52.97,36.951,54z"/>
		<path style="fill:#CFCFCF;" d="M97,73c-1.654-0.741-3.032-2.103-3-4C95.651,69.746,97.027,71.102,97,73z"/>
	</g>
</g>
</svg>
