<?xml version="1.0" encoding="iso-8859-1"?>
<!-- Generator: Adobe Illustrator 30.1.0, SVG Export Plug-In . SVG Version: 9.03 Build 0)  -->
<svg version="1.1" id="Layer_1" xmlns="http://www.w3.org/2000/svg" xmlns:xlink="http://www.w3.org/1999/xlink" x="0px" y="0px"
	 viewBox="0 0 162 141" style="enable-background:new 0 0 162 141;" xml:space="preserve">
<g>
	<g>
		<path style="fill:#FDFDFD;" d="M91,0c5.495,6.229,11.743,11.95,18.034,17.987l22.938,22.01
			c6.232,5.98,12.165,11.644,18.142,17.886L162,132v9h-15c-11.749-0.101-23.935-1.21-36.389-1.513l-32.554-0.792
			c-2.853-0.069-6.946-0.478-9.76-0.934L1.015,84.742l0.116-64.61c0.006-3.14,1.032-6.121,1.796-9.255L82,0H91z M75,4
			c-0.389,0.027-0.857,0.157-1.21,0.323c-2.543,1.198-6.492,0.728-8.983,2.707C63.185,8.318,63.554,13.513,65,15
			c-0.551-0.017-1.517-0.243-2,0c-0.031-2.462,0.279-4.85-0.338-7.707C60.64,8.141,58.724,7.831,57,8.262
			C56.141,7.49,54.171,6.399,53,7c-3.149-0.351-6.182,0.632-9,2c-0.571-0.448-0.815-1.066-1.567-1.115
			c-1.12-0.073-1.906,0.746-2.566,1.237c-3.123-0.364-6.609,0.206-9.562,1.424c-0.562,0.232-1.606-0.65-2.447-0.195
			C27.072,10.776,27.049,12.077,27,13h-1c-0.274-0.908-1.467-0.677-2-1.126c-1.996-1.68-5.102-0.766-6.787,1.068
			c-1.222-1.073-2.813-0.528-4.213-0.811c-1.336-0.27-1.919,0.415-3,0.774c-1.54,0.512-3.721-0.302-4.852,0.662
			c-1.684,1.436-1.861,4.096-1.095,6.602c0.525,1.718,3.531,0.52,4.869,0.713C8.882,21.179,8.881,21.727,9,22l-2.152,0.173
			c-0.902,0.073-1.812,0.151-2.709-0.013c-0.533-0.471-1.117,0.097-1.118,0.892L3,48v12v2l0.105,10.136
			c1.887-0.92,3.037-1.995,4.708-2.101l-4.009,4.756c-1.253,1.487-2.141,10.288,2.662,10.504c0.845,0.038,1.569-1.398,2.419-1.996
			C8.316,84.102,8.117,85.071,8,86.018c-0.165,1.333,2.092,1.379,2.333,2.16c0.497,1.606,2.231,2.045,3.629,2.664
			c0.983,0.436,1.352,2.769,3.1,2.268c0.105,2.682,2.588,3.927,5.089,4.142c0.34,0.936,1.046,1.805,1.814,2.293
			c1.437,0.913,2.112-0.753,2.99-1.527c0.418,1.124-0.498,2.824,0.014,3.974c1.117,2.507,4.28,0.437,6.071,0.063
			c1.517,0.341,3.374,0.894,5.005,0.05c0.294-0.152,0.691-0.062,1.003-0.176c1.356,1.121,3.46,1.478,4.609-0.029
			c0.397,0.314,0.898,0.503,1.281,0.843c-0.362,1.75-2.669,4.219-0.504,5.234c-0.706,1.17-3.796,1.925-3.42,3.962
			c0.628,3.399,4.483,4.443,6.817,5.232c1.789,4.633,7.551,6.677,11.243,9.409c-0.136-0.101,8.85,10.48,12.142,7.976
			c0.159-0.121,5.114,2.335,9.848,1.181l-3.265-1.647c0.955-0.066,2.457,0.629,3.466-0.098c1.089-0.785,0.617-2.794,0.734-3.991h1
			c0.238,0.543-0.073,1.405,0,2c0.103,0.84-0.294,2.615,0.444,3.589c4.387,0.514,8.954,0.306,13.498,0.372
			c0.106-1.076-0.991-1.478-0.849-2.071c0.943,0.24,1.955,0.167,2.91,0.073c-0.049,0.862,0.462,2.095,1.87,2.088L111,136
			c0.659-0.003,1.343,0.056,2,0c6.75-0.578,14.935,2.901,13.181-0.715c2.768,1.162,5.337,1.411,8.677,1.547L139,137l14.372-0.317
			l-5.181-3.688l-0.016-1.054c1.338-0.207,2.674-1.32,3.825-1.941c0.442-0.133,1.09,0.232,0.956,0.493
			c-0.344,0.667-1.781,1.26-1.863,2.079c-0.269,2.675,4.959,5.632,7.31,3.97c2.115-2.475-1.403-6.742-1.497-9.188
			c0.328-4.523,0.324-9.559-2.06-13.606c0.05-0.334-0.035-0.694,0.037-1.024c1.043-4.794-1.201-9.712-1.408-14.978
			c-0.075-1.897-1.496-2.813-2.229-3.807c0.508,0.053,0.84-0.357,1.277-0.908c0.29-0.365-0.05-0.79-0.521-1.032
			c0.295-2.52,0.176-4.887-1-7c-0.896-1.609,1.177-4.721-1-6l0.058-1c0.107-1.853,0.126-3.595-0.162-6.033
			c-1.141,0.277-1.682,0.88-2.468,0.939l-0.134-0.953c3.169-2.042,1.646-6.102-0.158-8.89c1.722-1.491,1.352-4.917-0.743-6.064
			c-0.802,1.819-0.246,2.94-0.392,4.001c-0.409-0.233-0.697-0.653-1-1c0.777-5.632-1.755-5.209-5.824-9.99
			c-0.545-0.641-1.495-0.85-2.257-1.068c-0.414-1.044-2.285-3.803-3.374-3.118C129.409,48.626,128.038,53.764,124,56
			c1.355-4.489,6.069-6.864,8.108-11.563c-1.707-0.63-3.32-0.645-4.224-0.345l-0.013-1.118c0.882-0.07,1.712,0.3,3.217-0.223
			c-0.91-1.327-1.93-2.095-3.067-2.777c-0.43-0.431-0.949-0.777-1.559-0.866c-0.85-1.813-12.882-15.302-14.26-11.278
			c0.048-0.503-0.323-1.038-0.32-1.546c0.515-0.295,0.858-0.861,0.634-1.281c-0.36-0.675-1.232-0.653-1.515-1.002
			c-0.829-1.024-1.242-2.5-3.146-3.111c-0.586,1.932,0.578,2.378,0.955,3.176c-1.268,0.038-2.541,0.032-3.809-0.022
			c0.555-0.269,1.841-1.292,1.778-1.949c-0.435-4.508-4.232-6.736-7.718-8.493c1.761-1.206-5.363-6.837-6.638-7.469
			c-1.007,2.249,0.413,3.623,1.475,4.941c-0.607-0.407-1.875-0.102-2.591-0.16c-0.263-1.901,1.003-4.528-0.593-6.789
			C89.259,2.062,84.209,2.793,83,5c-0.426-0.314-0.898-0.573-1.304-0.913C79.798,2.498,77.26,3.841,75,4z M35.039,107.123
			c-0.488,0.813,4.892,6.933,4.921,2.895c0.522-0.302,0.433-1.119,0.992-2.136c0.515-0.936,1.564-1.776,1.774-2.553
			C43.24,103.43,41.068,104,40,104h-1h-1c-2.181,0-4.293-0.154-7.04,0.083C31.254,106.173,32.829,106.673,35.039,107.123z"/>
		<path style="fill:#F0F0F0;" d="M81.696,4.087C82.102,4.427,82.574,4.686,83,5l1.165,0.668C82.106,11.605,79.717,17.382,77,23
			l1.917,0.289c3.441,3.863,7.273,7.326,11.497,10.387L90.218,36c8.377,0.289,9.965-1.811,8.782-10c-0.873-0.284-0.86-0.618,0-1
			c0.389-3.017,4.347-3.704,6-0.957c-0.111,1.958-0.542,3.994-1.295,6.108c0.539,2.48,0.638,4.763,0.295,6.849l-1.242,1.919
			c-7.202-0.2-7.178,1.834,0.071,6.104c2.546-0.476,4.956-0.781,7.228-0.915c2.017-1.142,4.558-1.621,7.623-1.437
			c3.937-0.025,6.865-1.213,8.782-3.564c0.61,0.09,1.129,0.436,1.559,0.866c1.136,1.416,2.086,2.762-0.15,3l0.013,1.118
			c0.443,2.689-0.441,3.379-2.864,2.042c-2.265,1.014-3.94,0.933-5.024-0.241c-1.219,1.709-1.885,1.745-1.997,0.108
			c-1.835,3.253-6.697,3.189-10.139,3.131c-4.638,0.762-8.494,2.838-11.57,6.228c0,0-0.764-0.12-2.291-0.36
			c0.525,2.927-2.633,3.52-4,1c-1.989-0.24-4.055,0.168-6.2,1.222L83,56l-1.812-1.671c-0.427-9.921-1.261-11.235-2.503-3.941L76,51
			c-2.025-1.644-2.302-4.63-0.832-8.959l-8.801-0.036L65,40c-0.151-5.797-0.151-5.797,0,0c0.142,2.185-1.192,3.851-4,5
			c-2.214,0.352-5.667-1.404-5-4c3.706-2.427,3.706-2.427,0,0c-1.052,2.091-2.835,3.999-5.35,5.725l2.547,3.947
			c2.459,2.058,3.433,4.164,2.923,6.318c2.078,2.091,4.231,4.157,6.459,6.198L64,63c-0.031-3.42,0.531-6.748,1.686-9.984
			c-8.299-8.565,5.333-8.413,5.314,0.089c-1.166,4.078-2.221,8.258-3.166,12.54c1.621,0.901,2.837,0.202,3.647-2.098L73.833,64
			c0.712,0.284,1.444,0.321,1.971-0.21c2.23-2.247,4.514-4.44,7.196-5.79c1.69-1.119,4.601-2.876,7-2c2.251,1.792,1.826,2.307-1,2
			c0.82,1.581,0.494,2.091-1,1c-3.257,4.021-7.198,7.626-11.823,10.815l3.708,3.835c1.742,0.196,2.781,0.98,3.115,2.35
			c1.388-1.326,1.785-0.757,1,1c-1.076,1.737,2.422,4.996,4.079,4.874c2.235-0.593,4.196,0.804,5.882,4.189
			c0.955,1.42,1.521,2.166,3.333,2.698c1.838-0.428,1.69-0.228,0.063,0.738c-0.145,7.282,2.945,10.473,9.272,9.573
			c2.83-0.931,5.288-1.288,7.371-1.072h1c1.192,1.998,0.192,3.998-3,6l-1.734,1.671c-2.513-0.978-4.935-1.535-7.266-1.671
			c-0.284,0.873-0.618,0.86-1,0c-2.377,0.124-2.639,0.205-0.784,0.245c-2.032,4.364-4.498,6.222-7.397,5.574
			c0.006,0.659-0.123,1.076-0.819,1.181l-3,5c1.087,0.441,0.754,1.108-1,2c2.705,0.235,3.679,3.427,1,5
			c-2.227-0.072-3.467,0.648-3.719,2.16l-2.358,0.761c-0.132,1.478-0.44,2.838-0.924,4.079h-1c-2.453-0.754-2.523-1.961-0.874-3.722
			c-1.756,0.12-1.438-0.197-0.126-1.278c-1.557-0.732-1.223-1.112,1.002-1.142c-0.647-2.149,0.467-4.612,3.341-7.388
			c2.095-2.598,2.77-4.489,2.025-5.673c-0.892-0.118-0.892-0.409-0.066-0.861c-0.776-2.541,0.25-3.5,2.601-2.034
			c1.662,0.751,3.698-2.435,2.173-2.866c-2.492-1.253-2.371-2.925-0.06-4.291l-0.233-2.176C94.6,99.431,94.672,98.242,92,95
			c-1.282-3.609-4.083-6.316-7.002-8c-1.97-2.612-4.217-4.911-6.742-6.899L78,78l-6.235-5.346l0.298-1.43
			c-6.723-2.03-6.723-2.03,0,0C73.279,73.875,75.258,76.133,78,78c0.898,1.875,0.545,4.207-1.062,6.997c0,0,2.687,0.668,8.06,2.003
			c2.742,0.844,2.287,2.758-0.077,4.026L84.871,92c-1.197,1.115-2.627,0.942-4.291-0.521C76.448,91.421,73.921,90.261,73,88
			c-1.797-0.921-1.85-3.373-0.16-7.356c-5.396-8.395-8.521-8.59-9.373-0.584L61,80l-2.013-1.95c3.941-11.6,2.08-9.651-5.583,5.846
			C55.25,84.31,57.448,84.012,60,83c2.271,0.935,3.085,3.363,1,5c-1.209,1.349-3.125,1.709-5.745,1.079
			c-6.112-0.58-6.893,2.238-2.343,8.453l-0.93,2.405c-1.376,2.627-2.553,1.935-2.917-0.974C48.378,100.139,47.69,100.222,47,99
			c-0.941-0.512-1.052-1.898-0.333-4.155c-1.067-0.702-0.857-1.364,0.401-1.992C45.198,91.745,43.509,90.461,42,89
			c-0.334,0.819-0.667,0.819-1,0l-0.237,1.357c-1.383,0.175-2.265,0.545-2.648,1.107c-1.784,1.199-2.542,0.593-1.782-1.415
			c-2.243,0.193-3.354-0.183-3.333-1.126c-1.384,1.029-3.41,1.747-6.076,2.152c-1.162,0.577-2.511-0.1-4.046-2.033
			c-3.301,0.023-5.814,0.965-7.54,2.825l-1.376-1.026c-1.187-1.187-2.078-2.017-3.629-2.664c-0.242-0.781-2.499-0.827-2.333-2.16
			c1.744-2.16,4.678-2.421,8.803-0.784C18.9,83.909,20.632,83.497,22,84c1.972,1.227,4.215,1.32,6.728,0.278l1.521,1.667l4.653-0.79
			c3.457-0.445,5.693,0.391,6.707,2.509C41.773,86.51,42.236,86.622,43,88c-0.082-1.528,0.935-2.325,3.051-2.391l2.289-4.509
			C45.834,82.336,43.72,82.637,42,82c-3.057-1.211-2.426-5.33,0-7c0.319-2.656,1.239-2.541,2,0c1.268,2.226,3.693,2.295,7.273,0.206
			c1.662-1.619,2.914-3.605,3.756-5.959c1.444-3.057,1.536-3.536-1.287-6.253c-2.374-0.979-3.622-2.319-3.742-4.019
			c-0.269-3.062-1.25-6.149-2.942-9.261C44.013,48.18,43.783,49.125,45,52c0.834,0.329,0.832,0.662,0,1
			c-1.829,2.356-7.738,1.668-10,0c-0.889,0.46-1.19,0.082-1-1c-1.826-2.086,0.092-5.473,2.888-4.888c2.48,0,5.687-1.241,5.188-4.154
			c-1.503,0.916-2.018,0.671-1.186-0.982c-2.575,0.985-2.998,0.516-1.719-1.913c-0.971-0.597-1.341-1.319-1.11-2.168
			c-3.635-1.646-5.656-3.915-6.06-6.806c-0.817-0.159-1.15-0.522-1-1.089c-1.586-3.266-0.919-4.6,2-4
			c6.096,3.399,7.899,2.399,5.408-3L39,21c0.319-2.656,1.239-2.541,2,0c0.294-0.662,0.628-0.648,1,0l1.998,1.079
			C43.308,26.261,43.976,29.901,46,33c0.715,0.291,0.701,0.625,0,1l1.355,1.755c-2.703,8.291,0.617,7.624,9.962-2l2.534,0.308
			c1.609-2.427,1.609-2.427,0,0c-3.155,1.718-4.416-2.155-1.669-3.945l1.513-1.772C62.621,28.667,67.433,27.555,67,24
			c0.011-2.999,5.513-2.851,6,0c1.132,3.053,1.132,3.053,0,0c-2.263-1.387-0.169-5.184,0.937-7.11
			c-1.65-3.071-3.507-10.522-0.147-12.567C74.143,4.157,74.611,4.027,75,4c1.91,0.579,2.569,2.428,1.977,5.547
			C77.932,6.036,79.505,4.215,81.696,4.087z"/>
		<path style="fill:#E6E6E6;" d="M147.428,72.906c0.449,1.94,1.326,3.638,2.63,5.094L150,79c0.56,1.205,0.357,2.919-1,3
			c-1.711,0.218-4.632-0.622-6-2c-0.894-1.052-2.231-0.678-4.01,1.121c0.915,0.365,0.585,1.059-0.99,2.081l0.018,2.534
			c-7.582,4.348-4.102,7.518,10.439,9.511c1.632,1.525,2.357,3.88,2.176,7.066c1.355,3.041,1.227,5.212-0.384,6.513
			c-1.964,2.514-3.474,1.009-1.396,0.809c0.748-0.072,1.462-0.037,2.17,0.265c2.622-2.241,3.371,0.306,3.858,2.824
			c-0.072,0.33,0.013,0.689-0.037,1.024c-0.394,2.164-3.061,3.942-5.263,3.898c-0.483,3.022-2.432,6.159-5.582,4.354
			c-1.657-1.978-3.944-2.661-6.86-2.048c2.675,1.675,3.295,3.357,1.86,5.048c0.873,0.284,0.86,0.618,0,1
			c0.413,2.992,0.073,7.188-1,10h1c0.873,0.284,0.86,0.618,0,1l-4.142-0.168l-1.837-1.178l1.677-10.459l-7.749-5.765L127,117
			c-2.721,0.19-3.054-0.477-1-2c-0.898-0.324-0.896-0.657,0-1c1.556-0.544,3.242-0.218,5.06,0.979
			c-0.219-1.924,0.049-3.576,0.803-4.956c0.712-3.595,0.357-7.559-1.065-11.892c-1.42,0.103-2.381-0.347-2.672-1.822
			c-1.943-1.133-1.443-2.156-0.084-3.606c-3.703,1.123-7.43,3.401-11.181,6.833L115,98h-1c-0.68-1.284-0.347-2.284,1-3
			c0.397-2.452,1.074-2.539,3-1c0.425-1.713,0.705-2.752,2-1.102c-0.515-1.577,0.219-2.941,2.203-4.092
			c1.213-1.707,1.514-2.97,0.901-3.788c-2.526-1.371-1.798-3.277,1.056-3.078c2.287,0.712,4.258,0.346,5.914-1.096l2.052,1.1
			c2.084-1.762,4.006-3.743,5.767-5.944L137,74c-1.197-1.593-0.748-2.138,1-1c0.484-3.015,7.491-2.589,9.294-1.047L147.428,72.906z"
			/>
		<path style="fill:#939393;" d="M149,82l1.366,8.318c0.92,1.492,1.213,2.699,0.879,3.622c0.733,0.994,2.155,1.91,2.229,3.807
			c0.207,5.266,2.451,10.184,1.408,14.978c-1.41-0.769-2.512-1.96-3.858-2.824c-1.648,1.044-2.078,0.387-0.774-1.073
			c-1.013-3.883-2.509-7.819-1.618-11.638c-5.483-0.983-16.064-2.736-16.859-6.134c-0.687-2.934,3.566-5.686,6.228-7.852
			c1.406-1.221,3.072-2.288,5-3.202c1.311-0.221,2.7-1.283,4.285-0.861C148.237,79.393,148.095,81.468,149,82z"/>
		<path style="fill:#7F7F7F;" d="M126.462,39.108c0.355,0.757,1.044,2.958,0.196,3.468c-1.388,0.836-15.577,4.084-16.601,1.533
			c-1.078-2.512-1.159-5.562-0.057-8.108c-1.707-1.69-0.449-8.018,2.202-8.171C113.58,23.806,125.612,37.294,126.462,39.108z"/>
		<path style="fill:#8E8E8E;" d="M154.845,113.748c2.385,4.048,2.388,9.083,2.06,13.606c0.92,2.837-2.8,4.798-4.906,2.646
			c-1.151,0.621-2.487,1.734-3.825,1.941c-3.234-1.744-5.702-3.967-7.403-6.669l2.348-2.272c-1.315-1.317-0.757-1.908,0.879-1
			c1.893-0.855,3.195-2.583,3.987-5.024c-4.073-0.386-7.094,0.543-11.89-0.418l14.788-3.858c0.36,1.995-2.301,1.746-1.588,3.54
			C151.762,115.384,152.689,113.047,154.845,113.748z"/>
		<path style="fill:#727272;" d="M127,117l9.894,7.134l-2.035,12.698c-3.34-0.135-5.909-0.384-8.677-1.547
			c-1.119-0.192-1.921-0.615-2.406-1.268c0.864-2.786,0.866-13.376-0.211-16.32C122.608,115.085,125.292,115.691,127,117z"/>
		<path style="fill:#8E8E8E;" d="M91.307,10.913C94.071,12.522,92.855,14.544,90,13c-0.776,2.914-2.011,4.491-3.704,4.731L84,19
			c0.48,3.091-4.719,6.347-7,4c-5.943,5.403,6.695-19.268,6-18c1.209-2.207,6.259-2.938,7.714-0.876
			C92.31,6.386,91.044,9.012,91.307,10.913z"/>
		<path style="fill:#838383;" d="M16.961,71.286c0.533,4.208-3.805,11.287-8.076,12.013c-0.85,0.598-1.573,2.034-2.419,1.996
			c-4.803-0.216-3.915-9.018-2.662-10.504l4.009-4.756l3.065-2.064c1.088-1.875,4.415-3.572,6.549-3.499
			c0.159,0.005,1.652,2.287,1.682,2.443C19.16,67.182,17.553,71.088,16.961,71.286z"/>
		<path style="fill:#747474;" d="M19,71c1.338,0.953,2.004,1.953,2,3c2.676-0.307,2.912,0.121,1,2
			c0.427,1.669,1.291,2.799,2.593,3.391L23,82c1.909,1.803,1.634,2.249-1,2c-5.254,6.183-6.679,1.484-14,2.018
			c0.117-0.947,0.316-1.916,0.885-2.719c2.79-3.941,5.089-8.213,8.076-12.013C17.283,69.351,18.157,69.228,19,71z"/>
		<path style="fill:#7F7F7F;" d="M93.898,11.073c1.532-1.531,4.301,0.837,5.163,2.528c3.486,1.757,7.283,3.986,7.718,8.493
			c0.063,0.656-1.223,1.68-1.778,1.949c-2.065-0.087-3.951,0.903-6,0.957c-3.066,1.222-7.982-2.813-7.848-6.016
			C87.333,18.061,86.949,16.067,90,13c0.605-0.605,1.454-1.022,1.307-2.087C92.023,10.972,93.291,10.666,93.898,11.073z"/>
		<path style="fill:#747474;" d="M147.136,63.063c1.804,2.788,3.327,6.848,0.158,8.89c-2.804,1.629-6.145,0.95-9.294,1.047
			c-0.885,0.618-1.836-0.246-2.852-2.589c-1.655-0.372-2.055-1.378-1.2-3.019c-0.594-2.035-0.577-3.499,0.053-4.391
			c-0.888-1.467-0.263-1.895,1.092-0.808c0.86-2.592,1.666-3.034,2.419-1.326C141.68,60.233,144.888,60.965,147.136,63.063z"/>
		<path style="fill:#505050;" d="M136.919,48.942c0.666,0.937,0.537,2.443-0.384,4.517c-0.644,3.019-0.339,5.46,0.914,7.322
			l-2.357,1.411C134.87,62.554,134.534,63.043,134,63c-0.409,1.01-1.409,0.677-3-1l-7-3.813c-1.65,0.414-1.65-0.315,0-2.187
			c4.038-2.236,5.409-7.374,9.545-10.175C134.634,45.14,136.504,47.898,136.919,48.942z"/>
		<path style="fill:#7C7C7C;" d="M108.809,24.065c1.645,0.352,2.669,1.091,3.073,2.219c-0.003,0.508,0.368,1.043,0.32,1.546
			c-0.269,2.802-0.533,5.842-2.202,8.171c-0.236,2.431-0.903,3.431-2,3c-1.401,3.253-5.535,1.042-4-2
			c-2.377-0.542-4.109-10.478,1-12.957C106.268,24.097,107.541,24.103,108.809,24.065z"/>
		<path style="fill:#8B8B8B;" d="M73.937,16.89L65,15c-1.446-1.487-1.815-6.682-0.193-7.97c2.491-1.978,6.44-1.509,8.983-2.707
			C73.323,9.05,76.071,14.628,73.937,16.89z"/>
		<path style="fill:#EDEDED;" d="M57,8.262c-0.798,1.972-2.132,3.552-4,4.738c-0.284,0.873-0.618,0.86-1,0
			c-2.323-0.709-4.989-0.042-8,2c-0.273,0.882-0.608,0.867-1,0l-3-2c0.715,1.534-0.862,1.934-2.003,0.948
			C36.116,15.741,34.45,16.092,33,15c-0.597,2.633-1.11,2.486-2,0l-0.671,2.168C28.231,17.327,26.455,17.938,25,19
			c3.244,0.722,1.407,2.613-1,2c-1.029,1.566-2.855,2.141-5.478,1.726C14.442,23.997,11.268,23.755,9,22
			c-0.119-0.273-0.118-0.821-0.079-1.118C6.344,18.903,8.076,16.15,11.004,17c2.131,0.427,3.797,1.427,4.996,3
			c0.261-0.847,0.596-0.828,1,0c0.999-1.899,3.332-2.899,7-3c-0.504-0.286-0.483-0.622,0-1c0.227-2.323,0.894-3.323,2-3h1
			c0.328,0.318,0.586,0.638,0.599,0.968c0.022,0.587-1.32-0.124,1.154-1.927C29.267,11.667,30.31,12.405,31,13l0.147-1.35
			c0,0,2.906-0.843,8.719-2.528C41.108,8.498,42.634,8.711,44,9c3.058-0.19,6.058-0.857,9-2C54.171,6.399,56.141,7.49,57,8.262z"/>
		<path style="fill:#565656;" d="M92,118c3.55,0.37,8.009,4.485,7.898,8.163c3.033,0.85,2.735,3.45-0.896,7.8
			c-0.955,0.094-1.967,0.167-2.91-0.073c-1.2,1.619-1.865,1.033-1.092-0.89c-1.781-0.519-3.136-1.204-2-3l-2-5
			c-2.468,0.172-2.377-0.067-1-2c-0.001-1.722-0.667-3.329-1-5C90.107,116.174,92.306,115.401,92,118z"/>
		<path style="fill:#707070;" d="M112,127c0.923-0.255,1.256,0.078,1,1c2.57,1.148,2.789,1.914,0.656,2.298
			c0.493,3.381-0.392,5.281-2.656,5.702l-10.128,0.051c-1.408,0.007-1.919-1.226-1.87-2.088c1.367-2.031,2.425-4.116,3.175-6.256
			c1.737,0.653,3.678,0.43,5.823-0.669C109.769,126.052,111.103,126.039,112,127z"/>
		<path style="fill:#949494;" d="M65,15l8.937,1.89C75.695,19.206,74.204,21.6,73,24h-6l-7.287-1.885
			C59.028,20.586,59.124,19.547,60,19l3-4C63.483,14.757,64.449,14.983,65,15z"/>
		<path style="fill:#CCCCCC;" d="M28,94c1.655-1.021,2.566-2.39,2.73-4.108L33,88.924c1.198-0.006,2.484,0.208,3.333,1.126
			c-2.339,4.034-1.374,4.925,2.895,2.672C39.81,90.63,40.714,90.804,41,93c1.943-0.184,1.938,0.613,0,1.21
			c1.273,1.439,2.554,3.734,1.68,5.656c2.566-0.4,2.631,0.176,0.979,2.034c-1.149,1.507-3.253,1.15-4.609,0.029
			c-0.431-2.518-1.102-3.161-2.013-1.929c-1.954,1.614-3.658,0.381-4.037-2c-0.456,0.526-0.789,0.193-1-1
			c-0.347,2.687-3.338,2.578-5.043,1.018c-1.488,0.697-3.566,0.586-4.804-0.766c-2.501-0.215-4.984-1.46-5.089-4.142
			c-0.908-2.588-0.158-2.95,1.841-1.134c2.972,1.605,2.972,1.605,0,0c-2.061-2.957,1.11-3.512,3.974-2.933
			c1.2-0.858,1.934-0.207,2.202,1.952C24.164,93.81,25.677,94.404,28,94z"/>
		<path style="fill:#545454;" d="M10,50c2.958-0.777,3.578,1.282,1,3c2.101,1.763,2.101,3.097,0,4c2.661,1.133,1.862,2.51-1,2
			c-0.768,2.014-5.295,2.091-7,1V48c0.039-2.267,0.85-2.544,2.434-0.831C8.544,46.95,10.066,47.894,10,50z"/>
		<path style="fill:#8F8F8F;" d="M63,15l-3,4c-0.193,2.657-0.86,2.657-2,0l-5.034-2.629L53,13c0.035-0.867-0.581-3.098,0.611-3.68
			C54.413,8.929,55.798,8.563,57,8.262c1.724-0.431,3.64-0.122,5.662-0.969C63.279,10.15,62.969,12.538,63,15z"/>
		<path style="fill:#626262;" d="M124,56c-0.876,1.817-3.566,5.023-4.933,3.154c-2.354-0.577-3.348-1.414-2.983-2.51
			c-0.356-0.881-0.021-1.066,0.916-0.643l4-5l3-4c-0.995-1.184-0.444-1.398,1.021-0.866c0.819-0.695,1.796-1.688,2.864-2.042
			c0.903-0.3,2.516-0.285,4.224,0.345C130.069,49.136,125.355,51.511,124,56z"/>
		<path style="fill:#6A6A6A;" d="M67.908,127.092c3.335,0.804,4.932,2.45,4.788,4.939l1.248,0.801
			c0.702-3.244,4.533-1.918,3.856,1.257l3.265,1.647c-4.734,1.154-9.689-1.302-9.848-1.181c-3.292,2.504-12.278-8.076-12.142-7.976
			c-1.573-1.267-1.092-2.04,0.924-1.58c-0.354-2.805,0.313-3.472,2-2C63.841,120.216,69.286,124.445,67.908,127.092z"/>
		<path style="fill:#595959;" d="M10,61c2.532-0.891,2.929-0.084,1.121,1.879c3.434,1.976,2.331,4.361-3.308,7.156
			c-1.672,0.105-2.821,1.18-4.708,2.101L3,62C3.768,59.986,8.295,59.909,10,61z"/>
		<path style="fill:#C4C4C4;" d="M6.848,22.173L9,22c2.693,0.16,3.282,0.52,1,2.349c-1.064,0.883-1.044,1.302,0.061,1.259
			l1.863,13.51L10,41l-0.966,0.994c-3.24-1.248-4.154-0.355-2.741,2.678C7.862,44.676,9.097,45.119,10,46
			c2.927,0.002,2.803,3.341,0,4c-1.384-2.553-4.406-2.137-7-2l0.021-24.948c0.001-0.795,0.585-1.363,1.118-0.892
			C4.833,23.127,5.735,23.131,6.848,22.173z"/>
		<path style="fill:#D4D4D4;" d="M122,113c0.646,1.585,1.646,2.252,3,2c0.284-0.873,0.618-0.86,1,0l1,2
			c-0.499,0.107-2.263-0.447-2.64,0.255c-0.641,1.197,0.923,16.179,1.821,18.03l-0.166,0.723c-4.465-0.565-8.804-0.568-13.016-0.008
			c-0.657,0.056-1.341-0.003-2,0c2.162-2.11,2.277-5.111,2-8c1.987-1.79,3.097-1.543,4,1c2.235-2.1,3.059,3.147-1,1
			c-1.657,2.69,3.968,3.957,6,2c0.21-3.752-0.131-7.516-1.023-11.29L119,119c-0.567,3.365-2.486,1.592-2-1
			c1.718-1.906,1.971-3.574,0.759-5.001L119,111C120.038,109.613,122.223,111.302,122,113z"/>
		<path style="fill:#575757;" d="M145,60c-0.149,1.488-8.541,1.085-8.844,0.695c-0.382-0.491-0.094-12.124,3.02-10.684
			C143.245,54.791,145.777,54.368,145,60z"/>
		<path style="fill:#525252;" d="M6.848,22.173c-1.117,4.681,5.088,19.219-2.651,15.452C3.76,32.733,4.024,27.034,4.139,22.16
			C5.036,22.324,5.946,22.246,6.848,22.173z"/>
		<path style="fill:#A6A6A6;" d="M152,130l4.906-2.646c0.094,2.447,3.613,6.714,1.497,9.188c-2.351,1.662-7.58-1.296-7.31-3.97
			c0.083-0.819,1.519-1.412,1.863-2.079C153.09,130.232,152.442,129.867,152,130z"/>
		<path style="fill:#767676;" d="M51,117c1.318-2.932,4.631-0.722,4,2c4.869,1.895,6.536,3.895,5,6
			c-0.425,0.425-0.579,1.092-0.924,1.58c-3.692-2.731-9.455-4.776-11.243-9.409C48.33,114.673,49.385,114.616,51,117z"/>
		<path style="fill:#474747;" d="M10,12.906c1.881-0.71,3.073,3.49,1.004,4.094c-0.607,1.273-1.882,2.35-2.083,3.882
			c-1.337-0.193-4.343,1.005-4.869-0.713c-0.766-2.505-0.589-5.166,1.095-6.602C6.279,12.603,8.46,13.418,10,12.906z"/>
		<path style="fill:#7F7F7F;" d="M81.696,4.087L76.45,16.076C74.383,11.836,75.107,7.887,75,4
			C77.26,3.841,79.798,2.498,81.696,4.087z"/>
		<path style="fill:#5B5B5B;" d="M82,130c-0.117,1.197,0.355,3.207-0.734,3.991c-1.009,0.727-2.511,0.032-3.466,0.098
			c-1.186-0.599-2.452-1.448-3.856-1.257c-1.022,0.637-1.729-0.486-2.12-3.369c3.235-0.816,6.336-1.878,9.301-3.185
			C82.162,127.252,82.128,128.68,82,130z"/>
		<path style="fill:#6F6F6F;" d="M46,107c1.081,0.009,1.748,1.342,2,4l1.182,5.603l-1.349,0.568
			c-2.334-0.789-6.189-1.834-6.817-5.232c-0.376-2.037,2.714-2.792,3.42-3.962C43.618,106.496,44.713,105.369,46,107z"/>
		<path style="fill:#757575;" d="M95,133c0.401,0.181,0.688,0.765,1.092,0.89c-0.142,0.593,0.955,0.995,0.849,2.071
			c-4.544-0.066-9.111,0.142-13.498-0.372C82.706,134.615,83.103,132.84,83,132c0.163-1.57,0.548-1.85,1.198-0.592l9.079,0.244
			L95,133z"/>
		<path style="fill:#B4B4B4;" d="M139.176,50.01c-2.549,2.18-2.416,6.202-2.141,9.898c3.098,0.857,5.458,0.268,7.965,0.092
			c0.303,0.347,0.591,0.767,1,1c1.607-1.507,1.673,0.342,1.136,2.063c-3.63-1.956-8.143-1.771-12.044-0.871
			c1.295-4.343-0.119-9.201,1.827-13.249C137.68,49.161,138.631,49.37,139.176,50.01z"/>
		<path style="fill:#5B5B5B;" d="M148.192,132.995l5.181,3.688L139,137v-1C142.021,133.511,145.085,132.509,148.192,132.995z"/>
		<path style="fill:#E5E5E5;" d="M47.068,92.853c0.433,2.076,0.7,4.139-0.068,6.147c1.741,1.186,1.119,2.752-1.134,2.89
			c1.346,1.39,0.702,1.949-0.927,0.853c-0.383-0.339-0.884-0.529-1.281-0.843c-0.614-0.485-0.821-1.301-0.979-2.034l-0.276-2.195
			c1.388-0.75,0.92-1.903-1.404-3.461V93c-1.667-0.991-1.826-2.917,0-4c0.32-0.056,0.678-0.04,1,0
			C43.901,89.881,45.59,91.165,47.068,92.853z"/>
		<path style="fill:#7F7F7F;" d="M39.866,9.122C40.328,12.918,33.651,12.763,31,13c-2.417-0.368-2.37-0.774-0.696-2.454
			C33.257,9.328,36.743,8.758,39.866,9.122z"/>
		<path style="fill:#A1A1A1;" d="M99.06,13.601c-1.735-0.875-3.848-0.943-5.163-2.528c-1.062-1.319-2.482-2.693-1.475-4.941
			C93.697,6.764,100.822,12.395,99.06,13.601z"/>
		<path style="fill:#616161;" d="M22.878,89.043c-1.648,0.413-2.878,1.704-3.974,2.933c-0.446,0.5-1.408,0.571-1.841,1.134
			c-1.749,0.502-2.117-1.832-3.1-2.268c1.07,0.445,1.227-0.597,1.085-2.103C17.354,87.189,20.65,87.671,22.878,89.043z"/>
		<path style="fill:#707070;" d="M32,97c1.862,4.742-0.317,6.82-5.029,4.992c-0.512-1.15,0.404-2.851-0.014-3.974
			C28.315,96.82,30.3,96.92,32,97z"/>
		<path style="fill:#C3C3C3;" d="M93,130c1.007,0.712,1.565,1.888,2,3c-4.068,0.254-7.902-1.672-12-1c-0.073-0.595,0.238-1.457,0-2
			c-0.727-1.658,0.548-2.745,0.924-4.079c1.674-0.126,2.402,0.884,2.183,3.028C88.68,128.707,90.978,129.058,93,130z"/>
		<path style="fill:#747474;" d="M39.961,110.018c-0.029,4.038-5.409-2.082-4.921-2.895c-0.173-1.795,1.406-2.845,2.961-3.123h1
			C39.675,106,39.995,108.006,39.961,110.018z"/>
		<path style="fill:#9A9A9A;" d="M150.058,78c-0.994-0.278-3.407,0.687-3.951-0.507c-0.692-1.519,0.322-3.578,1.321-4.588
			c0.786-0.059,1.327-0.662,2.468-0.939C150.183,74.405,150.165,76.147,150.058,78z"/>
		<path style="fill:#656565;" d="M24,11.874l-1.046,3.978C22.609,15.997,16.607,15.423,18,14c-1.503,1.054-1.943,0.412-0.787-1.058
			C18.898,11.108,22.004,10.194,24,11.874z"/>
		<path style="fill:#737373;" d="M37.037,100c1.832-1.098,2.227,0.57,1.01,2.105c-1.631,0.844-3.488,0.291-5.005-0.05
			C32.061,101.74,32.335,99.015,33,98C34.543,98.096,35.975,98.868,37.037,100z"/>
		<path style="fill:#4F4F4F;" d="M46,107c-0.437,0.138-1.326,0.582-1.564,0.976c-2.165-1.015,0.142-3.483,0.504-5.234
			c0.103-0.294,0.684-0.638,0.927-0.853c1.918-4.821,3.51,3.649,3.268,4.385C49.07,106.469,46.229,108.298,46,107z"/>
		<path style="fill:#636363;" d="M17.213,12.942C17.554,13.242,17.893,13.534,18,14c1.66,1.516-1.951,4.366-4,2
			c-2.645,0.412-3.779-3.193-1-3.869C14.399,12.414,15.991,11.87,17.213,12.942z"/>
		<path style="fill:#767676;" d="M126.181,135.285c1.754,3.616-6.431,0.137-13.181,0.715
			C111.694,134.142,125.963,135.194,126.181,135.285z"/>
		<path style="fill:#959595;" d="M30.304,10.546c0.691,0.618,0.7,1.585,0.696,2.454c-1.5,0.379-2.671,2.467-4.959,1.943
			C26.053,13.934,26.778,13.558,27,13c0.049-0.923,0.072-2.224,0.857-2.649C28.698,9.896,29.743,10.778,30.304,10.546z"/>
		<path style="fill:#6D6D6D;" d="M38,104c-0.119,1.646-1.308,2.949-2.961,3.123c-2.21-0.45-3.786-0.95-4.079-3.04
			C33.707,103.846,35.819,104,38,104z"/>
		<path style="fill:#DDDDDD;" d="M150,85c1.156,1.963,1.823,4.296,2,7c0.471,0.242,0.811,0.667,0.521,1.032
			c-0.437,0.551-0.769,0.961-1.277,0.908C148.886,90.744,149.29,85.905,149,82C150.794,81.371,150.563,83.553,150,85z"/>
		<path style="fill:#919191;" d="M53,7c-2.308,1.77-6.444,4.002-9,2C46.818,7.632,49.851,6.649,53,7z"/>
		<path style="fill:#727272;" d="M39.05,101.929c-0.312,0.114-0.709,0.024-1.003,0.176c-0.438-0.604-0.496-1.557-1.01-2.105
			c-0.025-0.735-0.417-3.091,0.797-3.033C40.422,97.603,40.145,100.556,39.05,101.929z"/>
		<path style="fill:#8B8B8B;" d="M26.957,98.018c-0.879,0.775-1.553,2.441-2.99,1.527c-0.768-0.488-1.474-1.357-1.814-2.293
			C23.646,97.227,26.257,96.139,26.957,98.018z"/>
		<path style="fill:#747474;" d="M40.953,107.882C39.171,108.75,38.991,105.286,40,104c1.068,0,3.24-0.57,2.727,1.329
			C42.517,106.106,41.467,106.946,40.953,107.882z"/>
		<path style="fill:#7A7A7A;" d="M147.136,63.063c-0.411-0.635-0.362-1.622-1.136-2.063c0.147-1.061-0.409-2.182,0.392-4.001
			C148.488,58.146,148.858,61.572,147.136,63.063z"/>
		<path style="fill:#D0D0D0;" d="M10,61c-2.378-0.041-4.928-0.332-7,1v-2c2.378,0.041,4.928,0.332,7-1
			C12.571,59.696,12.434,60.086,10,61z"/>
		<path style="fill:#737373;" d="M13.963,90.843c-1.398-0.619-3.132-1.058-3.629-2.664c0.819-0.029,1.976-0.535,2.99-0.023
			C14.122,88.558,13.166,90.12,13.963,90.843z"/>
		<path style="fill:#989898;" d="M152,92c-1.717-1.892-1.088-4.718-2-7c0.284-0.873,0.618-0.86,1,0
			C152.176,87.113,152.295,89.48,152,92z"/>
		<path style="fill:#D6D6D6;" d="M13,12.131c-0.462,0.578-1.156,1.419-0.763,2.15C12.626,15.006,13.389,15.579,14,16
			c-0.306,2.632-1.14,2.904-2.996,1c0.555-1.163-0.014-3.434-1.004-4.094C11.081,12.546,11.664,11.861,13,12.131z"/>
		<path style="fill:#919191;" d="M151,85h-1c-0.418-1.046,0.262-2.258-1-3c-0.078-1.045,0.6-2.093,1-3
			C152.177,80.279,150.104,83.391,151,85z"/>
		<path style="fill:#E5E5E5;" d="M40.953,107.882c-0.559,1.017-0.47,1.834-0.992,2.136c-1.074-1.812-1.07-3.963-0.961-6.018h1
			C40.077,105.259,39.476,107.347,40.953,107.882z"/>
		<path style="fill:#838383;" d="M44,9c-0.665,0.323-1.162,0.925-2.013,1.533c-0.853,0.609-0.847-1.565-2.121-1.411
			c0.66-0.491,1.447-1.31,2.566-1.237C43.185,7.934,43.429,8.552,44,9z"/>
		<path style="fill:#898989;" d="M127.871,42.974l0.15-3c1.137,0.682,2.157,1.45,3.067,2.777
			C129.583,43.273,128.754,42.904,127.871,42.974z"/>
		<path style="fill:#C7C7C7;" d="M111,24c0.283,0.35,1.155,0.328,1.515,1.002c0.225,0.421-0.119,0.986-0.634,1.281
			c-1.302-0.233-2.497-0.999-3.073-2.219C108.608,22.49,109.339,22.468,111,24z"/>
		<path style="fill:#E5E5E5;" d="M33,98l0.042,4.055c-1.79,0.374-4.954,2.444-6.071-0.063c1.496-0.029,2.99,0.217,4.942-0.104
			C32.179,99.948,31.977,98.491,32,97L33,98z"/>
		<path style="fill:#7D7D7D;" d="M111,24l-2.191,0.065c-0.377-0.798-1.54-1.244-0.955-3.176C109.758,21.5,110.171,22.976,111,24z"/>
		<path style="fill:#5B5B5B;" d="M26,13l-2,3l-2-0.789c1.016-0.372,1.683-1.484,2-3.337C24.533,12.323,25.726,12.092,26,13z"/>
		<path style="fill:#A9A9A9;" d="M76,51c-0.237,2.3-0.904,3.37-2,3.21c-1.19,2.94-3.369,2.088-3-1.105
			c-1.985-1.559-3.404-3.742-6.594-5.348c-0.203,2.412,2.304,2.647,3.564,4.71C66.814,55.811,65.911,60.243,64,63l-2-5
			c-2.7-0.162-3.197-1.196-1-3c-1.204,0.023-1.383-0.764-0.539-2.363L61,45c0.254-0.844-0.312-2.923,0.947-3.338
			C62.796,41.383,64.01,40.207,65,40l13.218,0.054C76.963,44.053,76,47.352,76,51z"/>
		<path style="fill:#555555;" d="M103.441,89.176C107.326,89,113.741,91.446,115,95c0.326,0.661,1.345,1.393,0.442,1.873
			C114.884,97.17,114.39,97.528,114,98c-2.791,3.384-6.603,3.292-11.028,2.851c-3.724-0.371-5.168-0.908-6.335-4.586
			c-0.823-2.595-1.845-4.913,0.719-6.766C97.762,86.3,102.08,87.626,103.441,89.176z"/>
		<path style="fill:#6A6A6A;" d="M45,53c0.706,2.42,1.836,4.469,3.391,6.147l-0.964,2.236C48.794,63.121,47.652,63.994,44,64
			c1.187,2.708-2.181,4.172-4,2c-1.607,1.409-5.423,1.615-4.66-0.932c-2.321-1.69-2.873-2.665-1.655-2.926
			C33.303,60.576,33.408,59.196,34,58c-1.07-0.527-1.616-1.993-1-3c-0.659-1.236,0.762-2.222,2-2C37.286,51.463,42.25,52.358,45,53z
			"/>
		<path style="fill:#7C7C7C;" d="M61,88c2.575-1.156,3.187-0.531,2,2c1.846,2.721-2.666,10.582-6,10
			c0.028,3.484-1.645,3.463-5.018-0.063c-1.835-3.325-5.312-8.278-3.338-11.446C52.967,86.809,57.607,86.579,61,88z"/>
		<path style="fill:#8E8E8E;" d="M128.126,96.31c2.201,1.677,1.467,2.338-1.176,1.549c-0.688,1.309-1.465,2.766-2.95,3.142
			c1.821,1.845,1.528,2.174-1,2c0.326,1.445-0.674,2.445-3,3c-0.64,2.84-1.974,3.173-4,1l-4-3c-0.356-0.534-1.155-1.432-0.349-2.226
			c1.373-1.351,2.689-2.327,3.349-3.774c4.732-0.554,10.536-11.99,15.779-5.479C129.783,93.972,128.484,95.03,128.126,96.31z"/>
		<path style="fill:#707070;" d="M58.181,30.118c0.765,1.214,0.085,3.252,1.669,3.945c-3.922,3.848-8.032,8.321-14.101,10.69
			C44.027,41.038,44.342,36.917,46,34c2.527-1.519,4.425-3.193,5.695-5.023C53.19,29.504,54.959,29.512,57,29
			C58.601,27.943,59.148,28.461,58.181,30.118z"/>
		<path style="fill:#4E4E4E;" d="M88,59l1.015,0.321c-1.543,5.389-3.154,10.859-4.834,16.411L83,76
			c-1.503,0.08-3.418,0.232-4.775-1.176l-5.384-5.589C78.386,65.75,82.703,61.333,88,59z"/>
		<path style="fill:#898989;" d="M56,41c1.944,1.193,4.484,1.552,5,4c0.732,0.964,0.594,2.456-0.415,4.476
			c0.489,3.426-1,5.931-4.465,7.514c-2.434-2.482-6.194-6.403-7.355-10.413C49.638,44.142,53.273,41.265,56,41z"/>
		<path style="fill:#8B8B8B;" d="M39,69c3.114-0.342,5.517,3.783,3,6c0.494,2.194-0.212,4.754,0,7c0.551,1.831-0.782,1.831-4,0
			c-2.727,0.675-4.06,0.009-4-2c-1.679,2.87-4.397,0.875-3-2c-2.428,0.852-2.876-0.221-1.344-3.218
			c-1.754-1.977-1.35-2.948,1.213-2.914C28.733,70.12,29.313,69.418,32,70c1.218-0.586,2.316-1.54,3.294-2.861
			C34.547,64.516,39.505,66.533,39,69z"/>
		<path style="fill:#DCDCDC;" d="M43,15c0.296,0.109,0.69-0.068,1,0c3.276,0.764,5.942,0.097,8-2h1c0.89,2.638,3.319,3.917,5,6
			c-1.403,1.178-3.693,1.445-6.868,0.802C51.824,24.337,53.78,27.07,57,28c0.858,0.333,0.858,0.666,0,1
			c-3.821,1.327-7.407,3.155-11,5v-1l-0.295-2.222c4.481-0.025,0.541-12.757-1.439-9.597L42,21h-1
			c-1.554-0.387-1.712-1.64-0.472-3.758C39.218,18.372,37.709,19.291,36,20c-0.581,1.712-2.247,2.378-5,2
			c-1.556,0.542-1.223,1.542,1,3c1.799-1.38,2.343-0.826,1,1c-1.403,0.828-1.847,2.457-2,4c-1.4,0.823-1.901,0.434-1-1
			c-2.823,0.141-3.535-2.726-4-5c-2.27,1.857-3.983-0.94-2-3c0.841-0.275,0.983-1.215,1-2c2.019-1.166,4.019-2.5,6-4
			c0.524-0.284,1.423,0.184,2,0c1.43,0.672,3.096,0.321,4.997-1.052L40,13C41.808,12.842,42.808,13.509,43,15z"/>
		<path style="fill:#757575;" d="M61,80c2.9,0.912,1.945,3.428-1,3c-1.71,4.16-2.865,2.66-10.48,3.968l9.9-18.739
			c0.53-1.003,2.772,0.006,3.159,0.756C64.304,72.329,60.388,75.365,61,80z"/>
		<path style="fill:#E1E1E1;" d="M73,88c2.172,1.828,1.7,2.813-1,3c-3.203,1.067-4.037,3.654-2.503,7.763
			C73.76,99.668,77.928,100.414,82,101c-0.585-1.685,0.143-3.129,2.184-4.333c-0.89-2.249-0.661-3.804,0.687-4.667
			c-0.029-0.318,0.109-0.661,0.05-0.974c1.667-1.833,3.052-0.854,4.155,2.937C90.286,93.01,91.166,93.594,92,95
			c1.813,2.028,1.53,3.206-1.066,4.081c-5.089,1.472-9.019,6.728-3.633,10.856l0.066,0.861c0.393,1.91-0.824,3.169-3.652,3.778
			l-2.244,4.892c1.27,1.693,1.447,3.157,0.531,4.39c-3.238,2.559-7.423-0.552-5.002-3.858l-0.769-2.308
			c1.853-2.541,6.654-11.174,1.98-12.458c-5.598-1.539-10.447-1.592-7.932,5.561c2.035,1.753,2.561,3.374,1.581,4.864
			c0.827,0.366,0.744,0.663-0.176,0.898c-2.125,1.747-4.21,0.174-4.682-2.404c-2.613,0.51-6.8-3.336-4.837-5.869
			c-1.334-0.556-1.145-1.167,0.197-0.84c3.27-0.228,3.996-6.156,0.547-5.19L62,101c-1.338-1.543-0.721-3.107,1.849-4.693
			C62.774,93.626,62.825,91.523,64,90C65.672,87.66,71.291,84.795,73,88z"/>
		<path style="fill:#626262;" d="M102,104c1.432,2.275,2.432,4.941,3,8c1.952,2.01,1.89,2.118-1,2c2.374,2.149-1.552,5.04-4,5
			c-1.387,2.43-2.541,1.688-2-1c-2.343-1.001-4.459-1.858-6.35-2.569c1.148-1.622,1.871-3.493,2.168-5.612
			C98.987,106.302,100.262,99.059,102,104z"/>
		<path style="fill:#E1E1E1;" d="M35,53c-0.737,0.495-1.207,1.603-2,2c1.055,1.962-0.358,2.208-2,1l0.308,2.13
			c-5.5,1.887,0.038,5.149-0.325,1.095L33,58c0.284-0.873,0.618-0.86,1,0c-0.152,2.525,0.47,5.393,2.503,7.581
			C37.405,66.551,39.141,65.899,40,66c2.006,1.476,1.572,2.693-1,3c-0.249-0.601-1.098-1.746-1.717-1.947
			C35.455,66.459,31.796,73.577,32,70c-1.686-1.524-0.8-2.642,0.63-4.043C29.08,67.378,26.87,67.059,26,65
			c-1.585-2.75-5.516-2.579-3,1c2.641,0.59,2.491,1.107,0,2c-1.06,1.297-2.393,2.297-4,3c-0.673,0.139-1.354,0.238-2.039,0.286
			c-0.012-1.507,0.6-3.169-0.114-5.376c-3.674,0.672-5.624,3.911-9.034,4.126c1.851-2.196,5.018-4.288,3.308-7.156l5.282-1.516
			C19.783,58.258,22.982,56.804,26,57c-0.633-3.236,5.305-6.511,8-5C34.297,52.368,34.632,52.703,35,53z"/>
		<path style="fill:#868686;" d="M71,53.105c0.899,0.706,1.824,1.103,3,1.105c0.943-0.802,1.61-0.206,2,1.79l1.239,1.05L73.833,64
			c-1.472,0.95-1.6,3.312-2.811,3.721c-1.533,0.518-4.867,0.384-5.138-1.365C65.438,63.492,68.995,51.192,71,53.105z"/>
		<path style="fill:#4D4D4D;" d="M98,75c1.643-4.085,4.111,3.473,4.05,5.415c-0.047,1.514-1.555,1.917-2.981,1.539L95,85
			c1.318,1.499,0.697,2.068-1.039,1.063c-0.728-0.022-2.134,0.683-2.794-0.213c-1.155-1.57-1.77-3.039-3.088-3.976
			C86.711,82.831,84.719,80.16,86,79l0.167-1.338c2.827-0.642,5.438-1.539,7.833-2.691C94.953,72.351,96.579,72.733,98,75z"/>
		<path style="fill:#707070;" d="M27,32c3.509-0.656,8.62,2.782,9,6c1.353,0.391,2.41,1.079,3.171,2.063
			c0.646,0.572,1.068,1.374,1.719,1.913C39.147,46.097,35.517,46.105,30,42c-1.885,2.107-2.504,1.742-2-1
			c-2.274-0.777-3.632-3.286-4.073-7.525C21.785,30.819,25.473,29.511,27,32z"/>
		<path style="fill:#8B8B8B;" d="M46,33c-2.408,0.419-4.02-2.154-4.017-3.913L42,21c0.906-1.605,3.2-4.28,4.497-2.701
			c2.812,3.423,2.437,7.815,4.456,11.605C48.916,30.793,47.384,32.099,46,33z"/>
		<path style="fill:#868686;" d="M44,64l3.502-1.76C49.377,64.296,50.543,66.216,51,68c1.755,3.041-4.078,8.365-7,7h-2
			c-0.411-1.825-2.294-4.297-3-6c0.31-0.914,0.129-2.565,1-3L44,64z"/>
		<path style="fill:#757575;" d="M90.934,99.081c1.982-0.659,2.491,0.12,1.081,1.664c0.55,1.357,0.199,2.895,0.06,4.291
			c1.111,1.17-0.585,3.569-2.173,2.866c-0.763,0.624-1.618,1.762-2.601,2.034c-1.307,0.362-2.381,0.864-4.272,1.113
			c-0.065-11.027-1.068-7.162,5.463-14.084C89.529,98.271,90.383,98.467,90.934,99.081z"/>
		<path style="fill:#6D6D6D;" d="M94,55l4,3l4,3l4,3c1.023,1.616-3.206,4.625-3.912,2.621C99.462,66.874,97.766,66.333,97,65
			c-2.459,2.146-5.899-1.288-6-4c-2.739,0.387-2.755-0.42-2-3c0.384-0.624,0.94-1.244,1-2L94,55z"/>
		<path style="fill:#545454;" d="M112,104c1.977,0.914,2.644,1.914,2,3c-1.138,2.479-2.307,5.151-3.506,8.015
			c0.175,3.354-5.518-1.265-5.494-3.015l-2-8c0.025-0.679,0.206-1.53,0.724-1.838C104.634,101.619,109.48,103.596,112,104z"/>
		<path style="fill:#878787;" d="M53,68c2.047-1.271,2.127-1.236,2.029,1.247c2.341,2.285-0.153,4.461-0.89,5.979
			c-1.418,2.92-10.308,4.354-11.057,3.283C42.431,77.578,43.343,75.846,44,75c2.35-2.871,5.528-4.155,7-7
			C50.923,66.207,51.816,66.974,53,68z"/>
		<path style="fill:#6D6D6D;" d="M36.888,47.112C35.518,48.631,35.632,50.679,34,52c-2.456,1.988-5.456,3.225-8,5
			c-1.5,1.072-1.995,0.502-0.969-1.031c-3.665-1.606-4.459-2.714-2.38-3.325c0.854-1.51,0.875-2.673,0.065-3.489L25,49
			c0.129-2.79,1.194-3.204,3-1c2.578-0.794,4.691-1.877,6.34-3.248C36.471,44.873,37.32,45.66,36.888,47.112z"/>
		<path style="fill:#8B8B8B;" d="M31,78c0.785,0.463,1.869,2.183,3,2c2.494,0.712,2.16,2.102-1,4.168
			c0.991,2.039-1.033,2.309-2.751,1.777c-2.901,0.765-5.667,1.567-9.299,0.887C21.619,85.765,21.993,84.957,22,84
			c0.436-0.514,0.464-1.607,1-2c-0.05-2.663,0.808-3.575,2.575-2.733C28.613,76.7,30.421,76.277,31,78z"/>
		<path style="fill:#A0A0A0;" d="M84.998,87c-2.797,1.115,0.307,2.832-10.873-0.317C75.676,83.225,75.998,80.261,78,78
			c2.108-0.317,8.46,7.707,7.449,5.959C85.926,84.784,85.065,86.009,84.998,87z"/>
		<path style="fill:#919191;" d="M36,20c1.649-2.37,2.994-1.723,3,1c2.453,1.086,3.299,7.399,1.108,8.518
			C37.5,30.85,32.215,28.914,33,26c0.12-0.446-0.502-1.235-1-1c-2.166-0.291-2.056-1.473-1-3C31.116,19.519,33.982,19.696,36,20z"/>
		<path style="fill:#868686;" d="M82.002,123.858l-3.111-3.831c5.22-9.366,0.895-5.528,8.477-9.23
			C93.955,109.34,83.612,122.761,82.002,123.858z"/>
		<path style="fill:#5A5A5A;" d="M90,123c0.666,0.438,1.031,1.199,1,2l2,5c-0.076,1.924-5.906,0.74-8.888,0.947l-0.189-5.025
			c0.709-2.513,1.974-4.742,3.686-7.032C88.43,120.923,88.763,122.187,90,123z"/>
		<path style="fill:#CCCCCC;" d="M108,64c2.614,0.482,2.335,0.875,0,2c-2.796,3.089-4.359,6.362-4.689,9.818
			c0.911,1.628,0.861,3-0.151,4.116c1.525-0.74,1.732-0.112,0.622,1.885c0.941,0.959,1.011,2.168,0.211,3.627
			c5.853-0.39,11.666-1.122,17.439-2.195l1.672,1.766c1.742,1.891-0.293,2.931-2.112,3.751c0.007,1.471-0.324,2.848-0.992,4.129
			L118,94c-1.832-0.244-2.521-1.6-2.069-4.069c-4.017,0.228-8.18-0.024-12.49-0.756c-1.49-0.968-4.825-0.681-6.084,0.323
			c0.604-0.436,0.747-0.547-0.063-0.738c-2.341-1.073-1.855-2.556,1.459-4.448l0.316-2.358c0.405-1.393,2.06-2.18,1.775-3.388
			C100.495,77.091,99.673,74.628,98,75c-0.63-1.682-0.085-3.539,1.635-5.571C97.794,69.117,96.582,68.308,96,67
			c-2.438-1.397-1.676-2.541,1-2c2.966,1.273,7.585,2.191,9-1C106.319,61.344,107.239,61.459,108,64z"/>
		<path style="fill:#949494;" d="M67,24c0.659,0.705,1.511,0.851,3,1.2c-2.814,4.334-7.065,5.936-11.819,4.918
			C57.766,29.768,57.369,29.398,57,29c0.01-0.333-0.027-0.668,0-1l2-5c-0.037-1.429,0.522-1.606,1.677-0.53L67,24z"/>
		<path style="fill:#6B6B6B;" d="M55.029,69.247C54.656,68.883,53.598,69.107,53,68c-1.905-1.636-3.924-3.222-6.058-4.759
			l0.711-4.842L50,58.974c3.753,0.899,6.938,3.301,8.274,7.424C58.829,68.11,56.46,69.294,55.029,69.247z"/>
		<path style="fill:#6E6E6E;" d="M43,88c-1.173-1.329-2.906-5.649-1-6c2.251-2.47,6.225-3.159,9.809-3.196
			C47.025,88.598,48.056,87.65,43,88z"/>
		<path style="fill:#767676;" d="M92,95c-1.142,0.088-3.054,1.608-4.213,0.337c-1.313-1.44-1.253-3.642-2.866-4.31
			c-0.25-1.33-0.014-2.684,0.077-4.026c4.314-1.719,2.728-0.019,8.992,5.508C92.895,93.648,92.452,94.278,92,95z"/>
		<path style="fill:#949494;" d="M43.488,41.134c-3.751-3.428-5.84-6.46-8.558-9.947c3.344-0.974,6.04-0.151,7.69,1.742
			C44.498,35.082,44.508,38.493,43.488,41.134z"/>
		<path style="fill:#9B9B9B;" d="M61,55c-0.012,0.944,1.223,1.937,1,3l2,5c-0.178,0.453,0.358,1.746-0.507,1.971
			c1.244-0.323-8.821-2.1-7.373-7.981C58.185,54.889,59.812,54.226,61,55z"/>
		<path style="fill:#C7C7C7;" d="M91,61c-1.112,2.828-1.719,5.748-1.822,8.759L88,71c-1.047,3.376,0.38,4.148,4.282,2.316L94,74.971
			c-1.268,3.435-4.327,0.565-8,4.029c-1.136,1.631-3.403-0.534-2-2c-0.139-0.451-0.65-0.74-1-1c1.67-2.873,2.38-6.14,3.255-9.767
			L88,59c0.24-0.272,0.811-0.692,1-1L91,61z"/>
		<path style="fill:#696969;" d="M82.002,123.858c-0.387,0.264-0.565,0.957-1.002,1.142c-0.418,1.405-8.263,5.3-8.795,5.16
			c-0.562-0.149-2.053-2.897-0.294-3.065c-2.693-1.371,0.29-6.96,3.089-6.094c-0.547-2.621,0.142-2.862,2-1
			C78.088,121.818,79.717,124.328,82.002,123.858z"/>
		<path style="fill:#707070;" d="M50,58.974l-1.919,1.407L45,53c0.022-0.317-0.089-0.697,0-1c-2.059-2.5-0.577-3.983,2.058-2.286
			c2.084-1.428,5.498,6.526,5.125,7.112C51.686,57.605,50.605,58.264,50,58.974z"/>
		<path style="fill:#676767;" d="M38,82c3.506,0.057,4.352,2.586,3.609,5.664c-3.749-0.579-10.761-0.22-11.36-1.719
			c1.103-0.291,1.774-1.434,2.751-1.777C34.692,81.641,36.359,80.918,38,82z"/>
		<path style="fill:#A2A2A2;" d="M83,58c-0.003,0.87,0.243,2.217-0.935,3.028l-7.356,5.067c-0.84-0.89-0.864-1.849-0.877-2.095
			l2.878-6.363C80.052,56.492,82.149,56.613,83,58z"/>
		<path style="fill:#727272;" d="M51.982,99.937c2.065,1.106,3.642,2.311,4.732,3.615c2.049-0.143,2.477,0.673,1.286,2.448
			c-3.248,0.3-6.602,0.679-10.063,1.138c-0.14-0.433-0.121-8.385,1.129-8.175C49.961,99.441,50.963,99.841,51.982,99.937z"/>
		<path style="fill:#D1D1D1;" d="M30,29c0.312,0.351,0.619,0.721,1,1c0.386,0.283,0.6,0.843,1,1.089
			c-0.899,1.55-2.566,1.853-5,0.911c-0.624,0.344-2.866-0.451-2.708,0.436C25.509,35.866,25.32,39.285,28,41
			c0.162,2.857-2.106,2.909-3,0.239l-2.135-0.79l-1.799-8.241C20.122,32.017,20.145,31.604,21,31
			c1.099-2.209,1.967-4.702,2.603-7.479L26,24C26.834,26.553,28.167,28.22,30,29z"/>
		<path style="fill:#797979;" d="M32,31.089c2.618,1.614,4.569,4.154,6.06,6.806C38.186,39.452,37.023,38.986,36,38l-9-6
			C28.311,30.811,30.258,30.756,32,31.089z"/>
		<path style="fill:#727272;" d="M33,88.924c-0.478,1.641-0.47,3.687-1.818,5.43C30.376,95.397,28.705,94.416,28,94
			c-3.107,0.708-3.612-1.411-1.076-2.924c0.05-0.847-0.088-1.7,0.213-3.055C29.415,87.821,31.177,88.515,33,88.924z"/>
		<path style="fill:#9F9F9F;" d="M92.016,100.745c-0.197-0.486-0.733-1.275-1.081-1.664c0.04-1.43,0.3-2.857,1.066-4.081
			c0.938-0.073,1.783-0.332,2.76-1.058c0.276,3.132,3.403,7.672,0.599,8.436C94.243,102.682,91.773,98.016,92.016,100.745z"/>
		<path style="fill:#D0D0D0;" d="M49.066,98.963c-0.001,2.172-0.272,4.325,0.019,6.994L58,106c1.023-0.86,1.421-0.317,1,1
			l-1.075,2.001l-7.849,0.011c0,0-0.692,0.663-2.076,1.988c-0.947-1.184-1.534-2.551-2-4c1.2-0.378,1.974-1.434,2.094-2.503
			c0.218-1.943-0.406-2.91-2.228-2.607c0.868-0.769,0.763-1.92,1.134-2.89c0.34-0.26,0.825-0.592,1.462-0.631
			C48.714,98.354,48.812,98.828,49.066,98.963z"/>
		<path style="fill:#676767;" d="M97.294,88.761c-0.471,0.607-2.082,1.461-2.785,1.631c-0.704,0.171-2.148-1.197-2.312-1.92
			c-0.16-0.708,1.518-1.691,1.763-2.41C94.109,85.627,94.815,85.45,95,85l4.069-3.045C104.02,83.189,97.262,85.103,97.294,88.761z"
			/>
		<path style="fill:#C8C8C8;" d="M40.89,41.976l1.186,0.982c1.237,2.196-3.394,5.052-5.188,4.154C34.942,45.529,33.765,46.781,28,48
			l-0.82-1.156c1.29-1.405,2.23-3.02,2.82-4.844C33.818,41.593,37.335,46.856,40.89,41.976z"/>
		<path style="fill:#5D5D5D;" d="M26.924,91.076C27.712,91.902,26.883,93.415,28,94c0.024,2.175-1.707,2.193-3.138,1.648
			c-3.891-1.481-0.652-5.553-1.984-6.605c0.604-0.273,1.627-1.306,2.479-0.872C26.278,88.641,26.203,90.321,26.924,91.076z"/>
		<path style="fill:#878787;" d="M41,21h-2c-1.109,0-1.995-0.848-3-1c-0.071-1.774,1.386-2.892,2.466-4.161
			c1.018-1.196,4.041-0.546,4.309,0.956C43.081,18.505,41.129,19.817,41,21z"/>
		<path style="fill:#5C5C5C;" d="M36.333,90.05c0.524,0.567,1.084,1.066,1.782,1.415c1.56-1.47,2.207-0.697,1.113,1.257
			c-0.136,1.584-1.162,3.077-2.649,3.147c-1.124,0.053-4.452,0.725-4.134-0.533C33.278,92.249,33.765,89.423,36.333,90.05z"/>
		<path style="fill:#9E9E9E;" d="M65,40c-3.026-3.154-1.871-7.402,1.369-9.417C68.223,33.884,66.321,37.059,65,40z"/>
		<path style="fill:#C6C6C6;" d="M81.126,126.278c0.875,1.103-11.116,2.92-7.181,6.554c-0.552,0.075-0.856,1.069-1.866,0.912
			c-0.065-3.014-1.926-5.269-4.171-6.652c1.01-2.333,2.679-1.69,4.003,0.003c0.144,0.63,0.326,1.488,0.862,1.78
			c1.443,0.787,5.225-2.605,8.227-3.875L81.126,126.278z"/>
		<path style="fill:#737373;" d="M47.058,49.714C46.113,50.194,45.306,50.962,45,52c-2.042-0.493-3.987-0.631-6.038-1.487
			c3.021-0.864,4.213-3.757,7.179-4.027C47.507,46.362,47.248,49.033,47.058,49.714z"/>
		<path style="fill:#5F5F5F;" d="M36.888,47.112c1.527-1.694,3.498-2.663,5.188-4.154c0.907,0.019,2.786,1.598,1.792,2.545
			c-2.044,1.95-4.436,2.603-6.296,4.101C36.987,48.451,37.046,47.781,36.888,47.112z"/>
		<path style="fill:#8F8F8F;" d="M78,78c-3.495,0.526-7.694-5.148-7.682-5.31c0.042-0.546,1.77-0.271,1.745-1.466
			C74.105,73.431,77.96,74.556,78,78z"/>
		<path style="fill:#8A8A8A;" d="M56,41c-0.096-2.751,2.631-3.955,5.502-5.96c1.059,1.506,0.478,3.932-0.677,5.319
			C59.702,41.708,57.477,40.856,56,41z"/>
		<path style="fill:#C2C2C2;" d="M98,118c-0.773,2.003-2.773,2.003-6,0c-0.921-0.623-2.075-0.608-3,0c-0.148-0.744,0.516-1.54,1-2
			l3-5c0.328-0.308,0.445-0.927,0.819-1.181c0.765,1.39-1.342,4.276-0.258,5.043L98,118z"/>
		<path style="fill:#585858;" d="M84,77c0.315,1.024,1.271,1.386,2,2c0.864,0.727,1.14,2.207,2.079,2.874
			c-0.157,0.511,0.241,1.149-0.469,2.205l-6.711-6.73C82.306,76.639,83.177,77.118,84,77z"/>
		<path style="fill:#666666;" d="M47.068,92.853c-1.162,0.018-2.749,0.719-3.893-0.479C42.528,91.695,42.503,90.062,42,89
			c1.29,0.162,2.875-0.411,4.407,0.116C47.633,89.537,46.838,91.748,47.068,92.853z"/>
		<path style="fill:#959595;" d="M72.063,71.224c-2.551-0.733-5.796,0.536-8.19-0.805c-1.016-2.414-0.343-3.241,1.426-1.725
			C68.463,68.742,70.401,69.43,72.063,71.224z"/>
		<path style="fill:#A0A0A0;" d="M90,56c-4.855,1.214-3.998,3.873-7,2c-1.962-0.56-1.972-1.449,0-2
			C85.28,55.775,88.566,53.513,90,56z"/>
		<path style="fill:#787878;" d="M89.903,107.903c0.918-0.751,1.334-2.048,2.173-2.866c0.349-0.34,1.078-1.069,2.332-0.815
			c-0.586,2.111-1.837,3.964-3.383,5.695C89.934,109.724,89.814,108.37,89.903,107.903z"/>
		<path style="fill:#666666;" d="M41,89c0.269,1.355,1.252,2.934,0,4c-0.549-0.282-1.166-0.472-1.772-0.278
			c-0.206-0.524-0.601-1.001-1.113-1.257c-0.308-0.319-1.548-1.714-0.926-2.125C38.474,88.492,39.922,89.187,41,89z"/>
		<path style="fill:#BFBFBF;" d="M105,112c-2.015-2.054-2.057-5.396-3-8h1C104.761,106.149,104.863,109.29,105,112z"/>
		<path style="fill:#EBEBEB;" d="M42,82c0.191,2.029,0.214,4.053,1,6c-0.463,0.032-0.931-0.265-1.391-0.336
			C41.253,84.868,40.611,83.033,38,82H42z"/>
		<path style="fill:#565656;" d="M90,116c0.269-2.032,1.037-4.137,3-5C92.734,113.016,91.995,115.19,90,116z"/>
		<path style="fill:#B8B8B8;" d="M38.06,37.895c0.393,0.698,2.27,0.996,1.11,2.168C37.728,40.178,36.423,39.409,36,38L38.06,37.895z
			"/>
		<path style="fill:#9B9B9B;" d="M59.85,34.063c0.083-0.714,0.079-1.696,0.255-2.335c0.223-0.809,1.922-1.261,2.59-0.321
			C62.724,32.337,60.878,33.831,59.85,34.063z"/>
		<path style="fill:#9F9F9F;" d="M91.152,18.984C94.003,20.617,96.491,22.912,99,25v1c1.343,4.095-4.574,10.674-8.782,10
			C88.602,34.948,75.635,24.784,77,23c2.477-1.05,4.603-2.813,7-4C87.049,16.031,89.433,16.026,91.152,18.984z"/>
		<path style="fill:#666666;" d="M107.861,49.131c2.802-1.2,5.707,4.129,3.501,6.097c3.124,1.355,2.372,3.836-2.255,7.444
			c1.021,1.541,0.546,2.085-1.108,1.328h-2l-4-3l-4-3l-4-3C96.334,51.903,103.543,45.472,107.861,49.131z"/>
		<path style="fill:#A6A6A6;" d="M73,24c4.562,2.005,8.028,5.906,11.715,9.721c-4.135,7.683-9.152,4.87-18.008,5.161
			c1.125-3.984,3.265-6.766,4.774-9.548c0.886,0.139,1.74,0.855,2.055,0.643c0.515-0.347,0.653-1.083,0.475-1.494
			c-0.319-0.735-1.13-0.303-2.166-0.677C69.699,27.029,72.412,25.171,73,24z"/>
		<path style="fill:#888888;" d="M104,37c1.029,0.804,2.393,2.208,4,2l1.155-0.046c0.007,1.809,0.308,3.527,0.902,5.154
			c-1.23,2.605-6.921,4.033-9.164,2.141l-7.962-6.716C96.312,37.927,100.422,36.571,104,37z"/>
		<path style="fill:#8F8F8F;" d="M83,56c-0.889,0.867-2.425,1.331-4.607,1.394C76.175,58.86,76.002,58.927,76,56
			c-1.11-1.373-1.11-3.039,0-5c2.666-3.301,0.857-8.037,4.463-11.497C82.119,45.527,83.855,50.95,83,56z"/>
		<path style="fill:#7C7C7C;" d="M90.218,36c3.327-2.952,6.412-6.227,8.782-10c3.101-1.444,2.302,8.995,1.366,9.788
			C101.247,35.041,90.734,41.025,90.218,36z"/>
		<path style="fill:#4C4C4C;" d="M118,46c1.209,1.608-1.569,5.887-3,8c1.748,0.897,0.858,2.283-1.026,2.136
			c-0.566,2.697-1.436,2.394-2.612-0.908l-3.501-6.097c0.224-1.364,1.408-1.887,3.132-2.133L118,46z"/>
		<path style="fill:#A0A0A0;" d="M83.672,39.449c1.144-0.709,1.565-0.785,1.084,0.667c-0.22,4.916,8.509,16.397,0.861,13.836
			C84.587,53.607,81.991,42.253,83.672,39.449z"/>
		<path style="fill:#A5A5A5;" d="M91.055,44.923L94,50c0.68,2.053-2.16,4.551-3.724,3.827c-0.439-4.205-4.68-8.205-2.312-11.882
			C88.917,43.395,89.939,44.21,91.055,44.923z"/>
		<path style="fill:#5A5A5A;" d="M125.021,46.134L124,47l-3,4l-4,5c-0.322,0.19-0.631,0.401-0.916,0.643
			c-0.791,1.491-2.336,1.291-2.11-0.507c0.333-0.639,0.769-1.45,1.026-2.136c1.51-3.14,3.176-5.843,4.997-8.108
			C121.635,45.305,123.825,44.497,125.021,46.134z"/>
		<path style="fill:#A4A4A4;" d="M94,50l-2.945-5.077c2.844-3.636,7.572,0.362,8.628,2.963c-1.197,1.201-2.251,2.63-3.29,2.809
			C95.66,50.82,94.735,50.406,94,50z"/>
		<path style="fill:#858585;" d="M87.965,41.945c-0.473-1.369-1.843-1.875-3.209-1.829c-0.363,0.012-1.693,0.186-1.084-0.667
			c0.683-1.14-0.022-4.581,2.313-4.622c2.67,2.092,4.945,4.513,7.333,6.795C90.944,42.865,89.465,41.698,87.965,41.945z"/>
		<path style="fill:#BCBCBC;" d="M119.997,45.892C118.332,48.62,117.87,52.384,115,54l3-8
			C118.609,45.913,119.421,46.099,119.997,45.892z"/>
		<path style="fill:#A1A1A1;" d="M69.533,28.02c1.807-1.612-1.866,7.713-1.609,2.426C67.978,29.348,68.374,28.945,69.533,28.02z"/>
		<path style="fill:#717171;" d="M114,75.189c2.305,0.12,4.461-0.013,6.468-0.4c1.148,1.6,1.992,3.337,2.532,5.211
			c2.445-2.007,3.848,0.195,1.16,1.94l-1.056,3.078l-12.1,1.861c-3.934,0.605-7.271,0.426-11.385,0.914
			c1.823-2.885,2.814-4.444,4.164-5.974C104.614,78.954,111.947,70.29,114,75.189z"/>
		<path style="fill:#9A9A9A;" d="M147.389,106.03c-2.544,2.244-7.129,0.168-10.737,2.489c-1.566-4.722-2.913-8.692-2.303-13.614
			l11.272,3.537C147.378,98.994,149.048,104.567,147.389,106.03z"/>
		<path style="fill:#666666;" d="M135,77l-2.874,4.943l-3.694,2.221c-1.35,0.812-3.538-0.291-4.272-2.225
			c0.374-1.09-0.813-1.328-1.16-1.94c-1.528-2.572-1.528-3.905,0-4l4-3c-1.209-1.521-0.651-2.039,1-1
			c0.796-1.394,2.214-2.153,4.253-2.277c1.054-2.77,4.097,1.197,4.404,2.946C136.886,73.974,135.923,75.999,135,77z"/>
		<path style="fill:#9D9D9D;" d="M131.864,110.024c-2.192,2.288-9.873-0.655-7.701-4.186c-2.76-0.393-3.151-0.72-1.163-2.837
			c0.01-0.819,0.684-1.338,1-2c1.052-0.273,2.036-1.32,2.95-3.142c0.254-0.417,1.045-1.081,1.176-1.549
			c1.709,1.033,1.94-2.446,4.021-1.853l2.117,11.347c0.226,1.213,0.98,2.417,0.325,3.232
			C133.941,109.843,132.778,109.946,131.864,110.024z"/>
		<path style="fill:#A5A5A5;" d="M124.163,105.837c1.581,2.804,5.435,2.337,7.701,4.186c1.939,1.583,1.63,6.039-0.044,7.948
			c-2.577-0.692-4.061-2.582-5.819-3.972c-2.473-0.447-11.617-6.177-6-8C121.585,104.508,122.741,104.048,124.163,105.837z"/>
		<path style="fill:#696969;" d="M118,94c-1,0.551-1.701,1.309-3,1c-4.227-1.004-7.956-3.484-11.559-5.824
			c3.267-2.437,7.534,0.054,14.437-2.398L118,94z"/>
		<path style="fill:#858585;" d="M150.249,108.827c0.392,0.169,0.45,0.865,0.774,1.073c-0.359,0.619-0.942,1.732-2.11,1.999
			l-13.167,3.006c-1.601,0.365-0.808-3.034-0.552-4.185C135.701,108.443,146.214,107.083,150.249,108.827z"/>
		<path style="fill:#A5A5A5;" d="M144,122c-0.045,0.34-0.597,0.81-0.879,1c-1.438,3.46-2.812,4.127-4.121,2
			c-1.052-2.746-4.203-3.242-6.58-6.298c5.072-1.34,9.302-0.661,13.585-0.467C144.599,119.857,144.153,120.819,144,122z"/>
		<path style="fill:#5F5F5F;" d="M146,132c-2.395,1.641-5.061,2.974-8,4c-2.025-2.725-1.617-7.704,1-10
			c1.628-1.496,2.663-0.98,3.104,1.55C144.686,128.703,145.985,130.187,146,132z"/>
		<path style="fill:#C2C2C2;" d="M134,63c0.715,3.697,1.107,7.413,4,10c-0.405,0.013-1.012,0.582-1,1c3.171,1.399,0.152,4.405-2,3
			c0.264-1.178,0.88-2.336,0.911-3.561c0.031-1.186-1.252-3.296-2.899-3.211c-1.913,0.099-3.306,1.891-5.012,1.773
			c-3.121-0.701-4.121-2.034-3-4c0.055-2.313,2.068-2.461,6.037-0.444c-0.366-2.048-0.378-3.9-0.037-5.556
			C132.027,62.26,133.095,62.392,134,63z"/>
		<path style="fill:#717171;" d="M132.126,81.943L135,77c1.232-0.647,2.046-1.448,2-3c2.223,0.279,4.187-0.65,7.241,0.536
			C139.55,76.381,135.637,79.832,132.126,81.943z"/>
		<path style="fill:#646464;" d="M120,92.898c-1.583-0.678-1.254-3.235-0.835-5.134c0.292-1.321,2.986-1.047,3.939-2.746
			c0.747-0.115,1.897-0.115,1.877,0.529C124.875,88.945,124.308,90.523,120,92.898z"/>
		<path style="fill:#F0F0F0;" d="M120,106c-0.366,0.77-1.146,1.55-0.893,2.392c0.243,0.807,1.115,1.041,1.857,1.627L126,114
			c0.073,0.303-0.137,0.725,0,1h-1c-1.106,0.967-2.479-0.711-3-2c-0.734-1.006-1.792-1.701-3-2c-2.606,0.405-3.392-0.406-3-3
			c-0.899-0.183-0.863-0.522,0-1L120,106z"/>
		<path style="fill:#EEEEEE;" d="M148.175,131.941c-0.552,0.766-1.602,0.81-2.175,0.059c-1.51-2.794-4.704-3.941-7-6v-1
			c1.544-0.24,2.843-1.141,4.121-2c-0.335,1.117-0.952,2.207-1.063,3.841C144.598,128.366,146.839,129.729,148.175,131.941z"/>
		<path style="fill:#BFBFBF;" d="M146,132c0.69-0.165,1.473,0.05,2.175-0.059l0.016,1.054C144.674,132.529,142.34,136,139,136h-1
			C140.145,133.94,143.121,132.687,146,132z"/>
		<path style="fill:#8A8A8A;" d="M143,80c-1.055,1.055-2.876,2.106-4.01,1.121c1.322-2.236,3.497-4.28,6.076-4.902
			C144.969,78.625,143.211,78.877,143,80z"/>
		<path style="fill:#767676;" d="M130.055,85.572c-1.371,1.348-2.688,1.838-3.803,2.22c-0.527-0.503-0.514-2.701,0.247-2.749
			C127.777,84.964,129.354,84.634,130.055,85.572z"/>
		<path style="fill:#E3E3E3;" d="M143,80c-0.47,2.499-3.54,2.014-5,3.202c0.321-0.695,0.599-1.42,0.99-2.081
			C140.317,80.733,141.631,80.231,143,80z"/>
		<path style="fill:#F0F0F0;" d="M110.057,44.108C107.92,43.236,109.484,40.402,108,39c0.777-0.923,1.3-2.023,2-3L110.057,44.108z"
			/>
		<path style="fill:#E4E4E4;" d="M91.152,18.984C89.165,17.846,85.99,18.015,84,19l6-6C88.791,15.199,89.204,17.398,91.152,18.984z"
			/>
		<path style="fill:#767676;" d="M22,76c-0.458-0.576-0.578-1.394-1-2c-1.28-1.572,4.185-2.097,5.799-2.024
			c2.905,0.131,3.934,3.167,2.978,5.195c-0.145,0.309-5.71,3.207-6.048,3.156L22,76z"/>
		<path style="fill:#E0E0E0;" d="M27,71c0.639-2.854,3.849-2.008,3.869,0.869C29.98,73.871,29.567,76.149,31,78
			c-3.071-0.498-5.582,2.227-8,4l-1-6c1.464,1.842,2.228,3.553,4.117,2.538c2.179-1.171,4.521-4.408,2.162-5.202
			C25.659,72.454,22.25,72.513,21,74c-1.312-0.442-2.076-1.628-2-3c1.356-1.593,3.486-1.514,6.392,0.24L27,71z"/>
		<path style="fill:#E9E9E9;" d="M124,58.187c-0.163,2.102-1.023,5.616-3.065,6.604L114,74c1.29,0.393,1.305,0.773,0,1.189
			c-4.181,0.021-7.603,3.668-10.218,6.63c-0.425-0.496-0.305-1.387-0.622-1.885c-0.982-3.275,4.215-8.101,6.824-10.157
			c1.179-3.191,2.84-4.852,4.984-4.984c-0.684-2.205,0.682-4.085,4.098-5.639c2.024-0.443,3.199-2.193,4.933-3.154
			C123.799,56.665,124.141,57.504,124,58.187z"/>
		<path style="fill:#C5C5C5;" d="M131,62c-2.588,2.882-8.528-0.034-7-3.813C126.671,58.093,129.501,59.844,131,62z"/>
		<path style="fill:#E5E5E5;" d="M73.937,16.89C71.373,16.998,66.953,17.007,65,15C67.975,15.089,71.543,15.09,73.937,16.89z"/>
		<path style="fill:#717171;" d="M24,21l2,3c-2.044,1.071-1.101,3.865-2.115,5.96c-0.58,1.2-2.02,1.184-2.885,1.04
			c-0.486,0.605-1.232,1.46-1.781,1.26C16.714,31.348,9.22,27.139,10,24.349C9.743,23.534,9.341,22.779,9,22
			C13.97,21.6,19.168,19.895,24,21z"/>
		<path style="fill:#8B8B8B;" d="M52,13c-0.044,0.836,0.728,1.842,0.798,2.666C49.946,17.06,44.597,18.787,44,15
			c-0.765-3.454,7.382-5.757,7.855-4.396C52.126,11.383,51.996,12.224,52,13z"/>
		<path style="fill:#4D4D4D;" d="M24,17c0.591,3.187-3.453,1.455-7,3c-2.309-3.899,0.744-5.512,4.798-4.432
			C22.798,13.569,23.532,14.046,24,17z"/>
		<path style="fill:#C8C8C8;" d="M24,16c0,0.57-0.024,0.871,0,1c-1.472-0.939-3.456-1.361-5.345-0.894
			C17.047,16.503,16.832,18.42,17,20c-0.555,0.05-0.87,0.009-1,0c-2.277-0.179-2.972-2.038-2-4c2.384,0.345,3.411-0.81,4-2
			c1.103,0.252,2.731,1.619,4.339,0.944c0.962-0.404-0.074-2.648,1.661-3.07V16z"/>
		<path style="fill:#727272;" d="M25,19c0.085-4.003,2.746-2.238,6-4c0,1.147,0.204,2.305-0.137,3.924L25,19z"/>
		<path style="fill:#494949;" d="M14,16c1.348,0.929,2.294,2.308,2,4c-1.825-0.122-3.049,0.267-4.465-0.061
			c-1.07-0.248-0.077-2.046-0.531-2.939C12.272,16.497,13.134,15.875,14,16z"/>
		<path style="fill:#7E7E7E;" d="M37.997,13.948c-1.069,2.03-2.842,3.443-4.728,5.159C32.699,17.261,33.112,16.185,33,15
			C34.488,14.056,36.26,13.822,37.997,13.948z"/>
		<path style="fill:#A1A1A1;" d="M43,15c-1.146-0.421-2.273-0.997-3-2c0.775,0.388,1.936-0.97,2.546-0.812
			C43.404,12.41,42.925,14.624,43,15z"/>
		<path style="fill:#636363;" d="M98,118l2,1c0.837,0.333,0.837,0.666,0,1c1.565,2.294,4.128,6.417-0.102,6.163
			c-2.83-2.48-5.74-5.076-7.898-8.163c-0.022-0.378,0.189-1.829,0.604-1.653C94.526,117.259,96.16,118.208,98,118z"/>
		<path style="fill:#C2C2C2;" d="M104.821,120.943c2.014,0.515,2.122,1.967,0.324,4.357c1.362-0.562,2.226,0.377,2.855,1.738
			c-2.313,2.769-2.895-1.147-8.998,6.925c1.379-2.503,2.692-5.328,0.896-7.8c2.075-1.6,0.234-3.957,0.102-6.163
			C101.649,119.399,103.256,119.713,104.821,120.943z"/>
		<path style="fill:#C9C9C9;" d="M93,130c-1.617-1.144-2.074-3.083-2-5C92.707,126.032,93.074,128.128,93,130z"/>
		<path style="fill:#6E6E6E;" d="M117,129c-1.397,0.01-2.82-0.212-4-1c-0.388-0.259-0.658-0.69-1-1c-2.17-0.119-1.751-0.932,0-2
			c-1.671-2.19-0.57-3.839,2-4C118.386,115.012,119.196,126.314,117,129z"/>
		<path style="fill:#DDDDDD;" d="M112,127c-1.32-0.044-2.684,0.215-4,0.037c-1.134-3.099,2.053-4.559,4-2.037V127z"/>
		<path style="fill:#EAEAEA;" d="M60,19c-0.666,4.994,4.071,1.865,7,5l-8-1c-2.58-0.696-2.84-2.168-1-4H60z"/>
		<path style="fill:#E7E7E7;" d="M60,19c-0.38-1.919,1.432-3.21,3-4C63.023,16.774,61.63,18.463,60,19z"/>
		<path style="fill:#717171;" d="M42.68,99.866c-1.918-1.208-3.35-3.77-1.68-5.656c1.54-0.211,3.045-0.36,4.999,0.335
			C45.71,96.746,44.576,98.907,42.68,99.866z"/>
		<path style="fill:#7A7A7A;" d="M18.904,91.976c1.478,0.498,2.746-1.548,3.019-0.491c0.237,0.919,0.199,2.057,0.001,3.022
			c-0.193,0.939-1.535-0.692-2.42-0.611C18.736,93.967,19.066,92.691,18.904,91.976z"/>
		<path style="fill:#565656;" d="M25.031,55.969C25.474,56.122,25.741,56.653,26,57c-3.299,2.302-12.327,10.665-14.879,5.879L10,61
			c-0.318-0.532,0.122-1.368,0-2c0.643-0.452,0.869-1.307,1-2l0.806-1.983l9.592-0.741C21.714,53.063,22.925,53.627,25.031,55.969z"
			/>
		<path style="fill:#6B6B6B;" d="M11,53c0-1.073-0.5-2.078-1-3v-4c-0.257-2.329,1.071-2.993,3.982-1.99
			c8.04,1.296,10.928,4.279,8.665,8.949c0.345,0.892,0.596,1.594,0.519,1.63c-0.531,0.248-11.251,1.259-11.659,0.839L11,53z"/>
		<path style="fill:#CACACA;" d="M13,41c3.21-1.069,9.291-2.314,11,1c2.922,0.218,2.358,5.06,1,7
			c-0.407,1.299-1.583,2.314-1.812,3.667c-0.218,1.291,1.239,2.234,1.844,3.301C20.398,54.36,15.269,54.619,11,57v-4
			c-0.348,2.968,10.579,0.627,10.765,0.362c0.482-0.685,0.677-2.103,1.257-3.877C20.535,48.503,11.887,44.432,10,46
			c-2.988-0.074-2.758-4.463,0-5C11.083,38.77,11.717,39.099,13,41z"/>
		<path style="fill:#C5C5C5;" d="M113.974,56.136c0.616,0.162,1.519,0.432,2.11,0.507c0.657,1.308,2.847,0.825,2.983,2.51
			c-0.361,1.926-1.891,2.404-4.59,1.434l-1.713,1.268c-1.032,1.997-2.25,2.269-3.656,0.816c1.507-2.286,3.848-4.669,2.255-7.444
			C112.023,56.049,113.072,55.899,113.974,56.136z"/>
		<path style="fill:#C4C4C4;" d="M117,56c0.111-2.299,2.041-3.958,4-5C120.924,53.362,118.903,54.878,117,56z"/>
		<path style="fill:#C7C7C7;" d="M121,51c0.06-1.878,1.655-2.859,3-4C124.065,48.983,122.598,50.15,121,51z"/>
		<path style="fill:#6B6B6B;" d="M71.685,116.556c1.851-0.214,5.53,3.185,3.315,4.444l-3.089,6.094
			c-1.175,0.963-2.714,0.575-4.003-0.003c-2.077-1.28-3.634-3.156-5.908-4.092c-0.873-0.284-0.86-0.618,0-1
			c-1.89-2.632,1.958-8.045,5.003-7.848C68.693,114.404,70.374,115.364,71.685,116.556z"/>
		<path style="fill:#C9C9C9;" d="M62,122v1l-2,2c0.737-4.654-3.713-2.556-5-6C56.466,115.915,62.853,118.925,62,122z"/>
		<path style="fill:#505050;" d="M10,24.349L21,31c-0.013,0.404,0.009,0.807,0.066,1.207C22.993,34.84,21.331,36.318,19,34l-4,5
			c1.227,2.087,0.115,2.509-2,2c-0.988,0.612-1.974,0.537-3,0C10,33.832,5.663,21.447,10,24.349z"/>
		<path style="fill:#636363;" d="M10,41v5c-1.576,1.31-4.944,1.39-5.832-1.033c-0.701-1.915,0.008-3.924-0.106-5.96
			C6.599,38.743,8.222,40.068,10,41z"/>
		<path style="fill:#636363;" d="M116,108c1.355,0.576,2.358,1.689,3,3c0.964,1.867,1.704,3.775,3.037,5.77
			c-2.139,0.556-3.561,0.704-5.037,1.23c0.798,2.249-0.202,2.582-3,1c-1.387,2.43-2.541,1.688-2-1l-2.612-1.828
			c0.167-0.957,4.327-8.447,5.739-8.652C115.389,107.482,115.689,107.704,116,108z"/>
		<path style="fill:#626262;" d="M122,132c-0.185,0.888-0.525,0.852-1,0c-3.501-0.718-3.717-9.046-3.34-12.376
			c0.029-0.255,0.606-0.449,1.34-0.624c1.35-0.37,2.278-1.257,3.99-2.064C121.919,121.438,126.796,132.106,122,132z"/>
		<path style="fill:#B2B2B2;" d="M119,119l-0.09,9.057L121,132c-1.685,1.791-6.299,0.987-5-2c0.294,0.014,0.717,0.069,1.446-0.016
			c0.751-0.087,0.629-0.904-0.446-0.984c-0.156-2.781,0.333-5.742-0.217-8.845c-0.721-0.677-2.238,0.511-2.783,0.845
			c-2.656-0.319-2.541-1.239,0-2c1.082,0.116,2.048-0.661,3-1C116.897,118.917,118.307,119.19,119,119z"/>
		<path style="fill:#777777;" d="M116,130c1.204,1.469,3.238,1.592,5,2c0.319,0.074,0.674-0.045,1,0l1.965,1.722
			c-3.168,0.399-6.925,0.611-9.933-0.097c-0.099-1.061-0.087-2.627-0.018-3.079C114.104,129.96,115.281,129.966,116,130z"/>
		<path style="fill:#525252;" d="M125,115c-0.431,1.113-1.414,1.236-2.074,0.561c-0.772-0.789-0.945-1.687-0.926-2.561L125,115z"/>
		<path style="fill:#595959;" d="M59,107c0.548-1.372,2.307,0.299,3.165,1.283c1.215,2.307,4.08,3.239,4.837,5.869
			c-1.306,2.826-3.404,5.18-5.003,7.848c-2.32-1.125-4.459-2.523-7-3c-1.393-0.261-2.547-1.815-4-2c-1.908-0.312-2.908-2.312-3-6
			c0.031-1.133-0.136-2.306,0.149-3.985L59,107z"/>
		<path style="fill:#CFCFCF;" d="M51,117c-1.015-0.129-2.143,0.586-3.167,0.171L48,111C49.433,112.79,49.284,115.367,51,117z"/>
		<path style="fill:#EBEBEB;" d="M61,55c-2.094-0.383-2.823,2.608-4.88,1.99c0.228-2.02,2.77-2.181,3.913-3.976
			C59.809,49.939,60.274,47.413,61,45c0.413,0.32,1.21,0.612,1.598,0.976c0.728,0.683-0.345,0.988-0.829,1.797
			C60.405,50.056,61.028,52.725,61,55z"/>
		<path style="fill:#EBEBEB;" d="M64,63c-1.795-0.794-1.78-3.282-2-5C63.563,59.157,64.232,61.09,64,63z"/>
		<path style="fill:#F5F5F5;" d="M76,56c-0.667-0.525-1.596-1.034-2-1.79c0.674-1.06,1.207-2.229,2-3.21V56z"/>
		<path style="fill:#D9D9D9;" d="M50,58.974c-0.734,0.861-2.108,1.424-2.061,2.559C48.035,63.852,51.813,65.274,53,68h-2
			c-1.352-2.728-3.897-4.677-7-4c1.256-0.628,2.622-1.712,2.914-2.775C47.809,57.964,44.733,56.921,45,53
			C47.242,53.524,45.926,57.998,50,58.974z"/>
		<path style="fill:#B8B8B8;" d="M33,55c1.243,0.382,1.064,1.938,1,3h-1c-1.886,2.162-3.443,0.41-2-2L33,55z"/>
		<path style="fill:#858585;" d="M73,88c-3.089-0.077-5.851,2.864-9,2c-0.331,0.848-0.664,0.848-1,0c-0.748-0.459-1.187-1.66-2-2
			c-0.665-1.375-1.581-3.42-1-5c0.316-0.86,0.984-2.072,1-3c2.26-1.986,1.486-7.313,3.707-7.743
			c4.202-0.814,7.526,4.043,9.974,7.745C75.275,82.74,73.072,85.6,73,88z"/>
		<path style="fill:#999999;" d="M64,90c0.431,2.142,2.694,5.173,1.528,7.408C64.717,98.965,62.303,99.3,62,101
			c-3.27,3.364-7.464,5.079-5-1l6-10C63.325,90.05,63.684,89.913,64,90z"/>
		<path style="fill:#F1F1F1;" d="M57,100c-0.037,0.711-0.333,3.165,0.817,2.973c1.846-0.462,2.631-2.116,4.183-1.973l1.13,0.835
			c-0.729,1.716-0.985,3.585-0.768,5.609c0.507,0.403,0.407,0.676-0.197,0.84c-1.112-0.034-2.18-1.048-3.165-1.283l-1-1
			c-2.117-2.117-4.519-3.348-6.018-6.063c1.213,0.114,2.245,0.553,3.485,2.031C55.996,101.274,56.591,100.681,57,100z"/>
		<path style="fill:#EFEFEF;" d="M124.163,105.837c-1.369,0.276-2.838-0.168-4.163,0.163c0.63-1.326,1.651-2.38,3-3
			C123.17,104.023,123.524,105.012,124.163,105.837z"/>
		<path style="fill:#E7E7E7;" d="M124,101c0.635-1.33,1.717-2.386,2.95-3.142c0.039,0.707-0.23,1.877-0.799,2.529
			C125.657,100.956,124.447,102.855,124,101z"/>
		<path style="fill:#F7F7F7;" d="M116,107c-0.413,0.826-1.768,1.239-2,0l-2-3C113.746,104.28,115.551,105.124,116,107z"/>
		<path style="fill:#686868;" d="M32,70c-0.447,0.643-0.804,1.132-1.131,1.869L27,71l-4-3c-0.278-0.536,0.191-1.42,0-2
			c-0.351-2.761,1.141-3.032,3-1c2.913,0.434,6.165-2.023,7.989-0.538c0.47,0.383,1.667,1.398,0.819,2.193
			C33.49,67.891,32.752,68.92,32,70z"/>
		<path style="fill:#DDDDDD;" d="M38,82c-1.838,0-3.271,1.56-5,2.168c0.829-1.353,2.446-2.775,1-4.168
			C35.882,79.696,36.654,81.468,38,82z"/>
		<path style="fill:#7C7C7C;" d="M58,19c0.858,1.063,0.999,2.698,1,4l-2,5c-1.298,0.603-3.016,0.88-4.716,1.002
			c-1.729-3.631-1.835-7.106-4.194-10.539C51.393,16.634,54.592,17.605,58,19z"/>
		<path style="fill:#737373;" d="M30,29c-1.328,0.86-2.924,1.344-5.123,0.811C25.38,27.59,26.282,25.913,26,24
			C27.948,25.108,29.83,26.657,30,29z"/>
		<path style="fill:#989898;" d="M31,22c1.216,0.455,1.047,1.915,1,3c-2.732,1.289-2.165,0.157-6.125-3.756
			C28.131,20.594,29.575,21.382,31,22z"/>
		<path style="fill:#7F7F7F;" d="M77,120l-1.125,0.213c-0.853-1.75-2.191-3.268-4.015-4.554c-4.412-4.263-5.724-6.627-2.247-13.882
			c3.076,1.082,5.459,1.222,8.189,1.403c3.237,0.215,4.859,2.627,4.317,5.908C81.44,113.205,79.329,117.043,77,120z"/>
		<path style="fill:#7B7B7B;" d="M84.871,92c0.271,1.307,1.577,3.309,1.755,4.593C85.69,98.56,83.35,99.934,82,101
			c-4.413,0.599-10.773-5.549-10-10c-0.195-1.097,0.971-2.02,1-3l7.682,1.445C82.183,89.727,83.966,91.266,84.871,92z"/>
		<path style="fill:#898989;" d="M72,91c2.871,3.696,6.29,7.146,10,10c-0.235,0.451,0.127,1.621-0.583,1.851
			c0.781-0.253-12.698-1.567-13.736-2.537L66.5,91.178C68.493,90.395,71.03,89.751,72,91z"/>
		<path style="fill:#9D9D9D;" d="M62.362,107.444c-1.221-0.854-2.444-1.81-3.356-3.017c1.239-1.383,2.767-2.16,2.993-3.427
			c1.915,0.176,2.615-2.046,4.95-2.146l-0.12,11.995C64.863,109.811,63.812,108.458,62.362,107.444z"/>
		<path style="fill:#F1F1F1;" d="M77,120c-0.439,0.519-1.47,0.564-2,1c0.194-2.269-1.891-3.148-3.315-4.444l0.176-0.898
			C74.186,116.243,75.787,117.973,77,120z"/>
		<path style="fill:#6B6B6B;" d="M108,117l-3.179,3.943c-0.902,0.413-1.59,1.16-2.464,1.837c-0.918-1.288-1.52-2.106-2.357-2.78
			c-0.018-0.31-0.041-0.692,0-1c0.324-2.444,2.858-3.109,4-5C105.263,112.2,108.948,115.151,108,117z"/>
		<path style="fill:#C0C0C0;" d="M116,107c0.075,0.314-0.05,0.68,0,1c-1.925-0.707-6.732,8.251-4,10c-0.914,2.83-3.98,1.867-4-1
			c-0.722-1.66-2.12-3.031-4-3c0.333-0.552,0.827-1.412,1-2c1.027,1.046,2.632,1.738,4.153,3.52c2.246-3.124,2.396-6.393,4.847-8.52
			H116z"/>
		<path style="fill:#737373;" d="M33,58l-0.07,4.833c-3.367,0.964-5.749-0.341-7.868-3.425L31,56L33,58z"/>
		<path style="fill:#707070;" d="M26,65c-0.941,0.129-1.979,1.028-3,1c-1.622-0.044-3.396,0.599-5.337-1.145
			c1.751-1.628,3.358-2.916,5.451-3.773c1.225-0.502,2.066,0.611,2.95,1.329C26.769,62.983,26.998,64.009,26,65z"/>
		<path style="fill:#888888;" d="M23,68l4,3c-2.261,1.872-5.504,1.216-8,0c0.065-1.171-0.177-2.314,0.115-4.027
			C20.79,66.944,21.754,67.904,23,68z"/>
		<path style="fill:#EBEBEB;" d="M83,56c-0.107,0.63,0.002,1.359,0,2c-1.727-1.078-5.271-0.496-6.306,1.504
			c-1.026,1.98-1.346,3.519-2.861,4.496C73.674,61.703,76,58.539,76,56C78.071,57.63,80.545,56.242,83,56z"/>
		<path style="fill:#6D6D6D;" d="M96,67c1.675-0.404,3.693,0.233,6.768,0.039c-1.063,2.85-2.3,5.962-4.768,7.961
			c-1.371,0.305-2.592,0.207-4-0.029l-8.939,2.068C84.629,74.719,86.049,71.709,88,71C88.132,67.897,93.506,64.9,96,67z"/>
		<path style="fill:#C7C7C7;" d="M99.069,81.955C98.63,83.7,96.714,84.753,95,85C95.952,83.572,97.069,81.296,99.069,81.955z"/>
		<path style="fill:#656565;" d="M28,41c0.614,0.094,1.225,1.083,2,1c0.761,1.534,2.668,1.467,4.154,2.55
			C31.991,46.715,29.181,45.871,28,48c-0.984,0.208-1.956,0.914-3,1c-1.744-1.885-0.85-4.609-1-7c-1.124-1.432-0.454-1.904,1-0.761
			L28,41z"/>
		<path style="fill:#676767;" d="M91,61c2.474,0.392,3.914,3.105,6,4l-1,2c-2.733,1.277-5.162,2.969-8,4
			C86.2,72.9,87.403,58.925,91,61z"/>
		<path style="fill:#CACACA;" d="M102,61c-2.436-0.131-3.243-1.637-4-3C100.436,58.131,101.243,59.637,102,61z"/>
		<path style="fill:#CBCBCB;" d="M98,58c-1.767-0.095-3.476-1.307-4-3C95.74,54.602,96.931,56.076,98,58z"/>
		<path style="fill:#C9C9C9;" d="M106,64c-1.74,0.398-2.931-1.076-4-3C103.767,61.095,105.476,62.307,106,64z"/>
		<path style="fill:#4D4D4D;" d="M108,66c2.773-0.966,4.159,1.825,1.984,3.777c1.21,2.304-5.151,8.53-6.824,10.157
			c-2.51-3.115-2.506-6.418-0.283-10.037C104.188,67.763,105.39,65.804,108,66z"/>
		<path style="fill:#4D4D4D;" d="M112.764,61.856c2.272-1.93,4.029,0.797,2.205,2.937c-1.402,1.855-1.501,5.735-4.984,4.984L108,66
			c-0.109-0.555-0.073-1.423,0-2c0.068-0.533,0.83-0.907,1.108-1.328C110.351,62.067,111.657,60.381,112.764,61.856z"/>
		<path style="fill:#E3E3E3;" d="M57,28c0.116-1.436,0.114-4.629,2-5C59.001,24.709,58.765,27.18,57,28z"/>
		<path style="fill:#7A7A7A;" d="M25,41.239c-0.249,0.227-0.501,0.821-1,0.761c-3.598-0.442-7.795,1.116-11-1
			c0.742-0.537,1.222-1.515,2-2l4-5c0.827-0.464,1.962-0.629,2.066-1.793C24.398,32.155,24.547,38.663,25,41.239z"/>
		<path style="fill:#EAEAEA;" d="M94,50c-1.787-0.77-3.644-3.552-2.945-5.077C93.111,46.238,94.114,48.156,94,50z"/>
		<path style="fill:#D1D1D1;" d="M125,68c-1.288,2.736-1.954,5.403-2,8v4c-1.794-3.162-5.205-4.83-9-4.811V74l1.81-1.599
			c2.803,1.886,3.895-0.028,3.276-5.741l1.85-1.868C123.091,62.656,126.716,65.424,125,68z"/>
		<path style="fill:#5B5B5B;" d="M125,68c0.938,1.043,1.956,1.674,4.028,2.312c-0.343,0.657-0.846,1.101-1.028,1.688
			c-0.219,0.409-0.761,0.624-1,1l-4,3c-3.393,1.399-0.357-8.01-0.445-7.935C123.115,67.589,124.339,68.205,125,68z"/>
		<path style="fill:#CCCCCC;" d="M132.126,81.943c-0.561-1.867,1.21-4.07,2.874-4.943C134.582,78.868,134.155,81.325,132.126,81.943
			z"/>
		<path style="fill:#CDCDCD;" d="M127,73c-0.946,1.49-1.989,3.448-4,3C123.53,74.305,125.232,73.085,127,73z"/>
		<path style="fill:#535353;" d="M131,62c0.874,1.256,1.815,2.455,2.044,3.616c0.364,1.843-0.096,3.985-2.413,3.933
			C128.74,69.508,126.974,67.387,125,68c-1.158-1.287-2.67-2.21-4.065-3.209c-0.234-2.828-0.127-5.557,3.065-6.604
			C125.475,60.487,128.434,61.351,131,62z"/>
		<path style="fill:#6F6F6F;" d="M120.935,64.791c0.245,2.966,0.789,7.24-1.375,9.774c-1.29,1.507-4.198-0.507-5.56-0.566
			c-1.064-0.599-1.167-1.974-0.181-3.147C118.081,65.784,118.625,63.137,120.935,64.791z"/>
		<path style="fill:#666666;" d="M119.067,59.154c0.814,3.133-2.784,3.899-4.098,5.639l-2.205-2.937
			c0.003-0.741-0.948-2.383,0.313-2.944C115.359,57.897,117.256,59.776,119.067,59.154z"/>
		<path style="fill:#616161;" d="M112,118l2,1v2c0,1.545-1.165,2.75-2,4c-1.346,0.589-3.012,0.855-4,2.037
			c-1.571-0.212-3.165,0.436-5.084,1.001c-0.768-3.47,1.722-4.695,1.905-7.096L108,117L112,118z"/>
		<path style="fill:#848484;" d="M22.896,42.958c0.175,1.617,0.239,2.471-0.062,4.19c-3.764-0.457-7.425-1.18-11.074-3.662
			C15.518,42.385,18.918,43.307,22.896,42.958z"/>
		<path style="fill:#C8C8C8;" d="M15,39c0.095-2.33,2.064-3.915,4-5C18.949,36.393,16.886,37.825,15,39z"/>
		<path style="fill:#DBDBDB;" d="M27,71c-1.932,0.386-3.191-1.441-4-3C24.761,68.136,26.48,69.277,27,71z"/>
		<path style="fill:#C8C8C8;" d="M104.821,120.943c0.134-1.757,1.571-3.381,3.179-3.943
			C108.426,119.054,106.467,120.19,104.821,120.943z"/>
	</g>
</g>
</svg>
