<?xml version="1.0" encoding="iso-8859-1"?>
<!-- Generator: Adobe Illustrator 30.1.0, SVG Export Plug-In . SVG Version: 9.03 Build 0)  -->
<svg version="1.1" id="Layer_1" xmlns="http://www.w3.org/2000/svg" xmlns:xlink="http://www.w3.org/1999/xlink" x="0px" y="0px"
	 viewBox="0 0 223 204" style="enable-background:new 0 0 223 204;" xml:space="preserve">
<g>
	<g>
		<path style="fill:#FDFDFD;" d="M209,0h14v122c-2.577-0.341-4.517,0.669-7.474,1.803L12.021,201.869
			c-1.87,0.069-2.213,1.124-2.021,2.131H5l-2.446-3.63L0,179v-22c2.768-12.57,4.101-25.369,6.299-38.527L209,0z"/>
		<path style="fill:#606060;" d="M200,104c2.418,0.289,4.084,0.955,5,2l0.999,0.446l-0.019,13.238
			c1.095,2.156,0.435,3.261-1.98,3.316c1.002,1.167,0.426,1.488-1.026,0.84c-1.377,0.433-3.385,1.255-4.48,2.454
			c-3.527,3.861-6.544,1.575-10.546,0.426c-2.661,2.782-5.569-2.217-3.948-4.719c-2.032-2.737-4.408-5.194-7.129-7.372
			c0.761-2.913,2.137-3.79,4.129-2.628c-1.225-2.689,2.111-4.194,3.955-2.045L194,106c-0.484-2.984,1.44-3.81,3.672-2
			C197.67,102.477,198.446,102.477,200,104z"/>
		<path style="fill:#555555;" d="M184,122c1.939,1.097,1.557,4.033,3.948,4.719c0.547,0.981,1.215,2.286,0.582,3.315
			c-1.233,2.005-15.226,7.627-16.205,6.044c-3.353-0.98-6.763-7.536-5.42-10.785c-2.878-1.767-2.353-6.504,1.094-6.294
			c3.374-1.215,6.51-2.852,9.409-4.912C179.263,116.751,181.46,119.388,184,122z"/>
		<path style="fill:#D5D5D5;" d="M175.157,39c2.916-0.431,3.433,2.713,0.843,4c-1.737,0.038-3.369-0.204-4.897-0.726
			c-2.065,3.646-3.678,7.468-4.839,11.465L164,55c0.137,1.503,2.221,3.258,5.067,3.091c1.632-0.357,3.286,0.364,4.962,2.166
			c2.161,0.326,3.484,1.241,3.971,2.744c1.206,1.175,0.64,1.149-1,1c-1.383,5.6-2.278,11.308-2.684,17.121
			c2.109-1.16,3.768-1.859,4.684,0.879c0.478,1.897-0.522,3.23-3,4c-1.247,1.434-2.918,1.255-1.069,0.743
			c1.14,2.26,3.559,11.761,0.069,12.257c-2.34,0.669-2.79-0.513-3.221-2.527l-1.6,11.387L168,109c-0.284,0.873-0.618,0.86-1,0
			c-0.842-0.641-1.46-2.805,0-3l-1.535-3.118l2.296-14.895c-1.778,0.234-2.946-0.266-3.761-1.987c-0.873-0.284-0.86-0.618,0-1
			c0.439-1.633,1.782-2.282,4.028-1.949c0.897-4.859,1.888-9.543,2.972-14.051c-1.254-0.961-1.125-2.203,0.386-3.726
			c-6.718-4.735-14.182-6.823-22.431-4.833L147,59c-0.268,0.785-0.603,0.767-1,0c-2.569,0.322-3.747,2.319-3.534,5.99L140,65
			c-1.672-0.647-2.349-2.351-2.029-5.115c-9.3-1.627-16.427,0.921-23.847,6.115c0.692,1.195,0.279,2.408-1.123,2
			c-1.949-1.212-3.157-3.6-3.097-5.882c0.41-0.278,0.651-0.899,1.097-1.118c2.133,0.408,2.896-0.213,3.906-2.094
			c0.411-0.249,0.726-0.723,1.171-0.911c2.828,1.272,7.886-1.941,9.205-4.887c0.765-0.267,1.453-0.95,2.331-1.139
			c0.541,1.175,1.257,0.61,2.15-1.696c0.413-0.021,0.812-0.241,1.22-0.307c1.772-0.016,2.487,1.318,2.143,4.003
			c5.327,1.086,9.953,0.763,13.875-0.969c0.302-0.538,0.636-0.524,1,0c4.136,2.746,10.596,3.894,13.256-0.943
			c1.676-3.047,2.497-6.192-0.256-8.057c-0.873-0.284-0.86-0.618,0-1c-2.656-0.319-2.541-1.239,0-2
			c1.315-0.256,2.711-0.207,4.188,0.148l3.403-8.283L171,32c0.287-0.791,0.621-0.778,1,0c1.817,0.349,2.172,2.014,1.065,4.995
			C173.065,36.995,173.762,37.663,175.157,39z"/>
		<path style="fill:#484848;" d="M41,109c0.603,3.131,1.839,5.969,3.708,8.514c-1.563,1.503-2.152,3.72-1.766,6.65L42,125
			l-1.16,0.861c-5.1-0.942-10.318-2.053-15.653-3.333c1.584-0.805,1.35-2.084,0.813-3.527c-0.754-2.714-1.067-5.384-0.937-8.008
			c4.635-2.531,9.019-5.52,13.787-7.79C39.833,104.885,40.55,106.818,41,109z"/>
		<path style="fill:#D6D6D6;" d="M56,118c0.284-0.873,0.618-0.86,1,0c0.616,0.297,0.602,0.631,0,1l1.99,1.181
			c-0.767,2.632,0.237,4.239,3.01,4.819c3.008-3.178,9.713-2.647,14-2c0.607-2.94,2.604-2.59,3.118,0.26
			c0.435,4.924-1.503,0.166,0.02,0.668c1.131,0.372,8.354,6.27,3.796,6.495c1.035,1.023,0.9,1.204-0.507,0.661
			C79.583,132.89,78.097,131.158,78,128c-3.757-0.382-5.636-0.573-5.636-0.573c-3.895,0.669-7.669,1.193-11.321,1.573
			c-0.908,0.923-2.069,1.059-3.483,0.408c-6.727-0.609-6.926,2.986-0.594,10.784c1.931,1.016,1.564,1.881-0.657,1.728l-2.557,2.218
			l-3.453,12.998L48,158c-1.227,1.035-1.641,0.508-1-1c-1.349-1.238-0.686-4.405,0-6c-0.023-2.887,0.648-5.792,2.015-8.716
			l-0.926-1.263C44.4,141.171,40.573,141.186,37,141c1.207,2.476,0.534,3.194-2,2c-2.626-1.323-2.697-4.87-1-7
			c0.319-2.656,1.239-2.541,2,0c2.267,1.174,10.838,1.8,12.299,0.429c0.39-0.366-2.689-11.072-4.94-6.296l-2.265-0.642
			c-2.233-2.434-0.388-1.402-0.483-1.305C39.467,129.347,28.456,130.165,28,127c-2.669-2.029-0.798-2.751,2-2
			c3.79,0.883,3.79,0.883,0,0c-4.104,0.815-8.503,0.465-13.194-1.05c-0.277,0.877-0.615,0.868-1.013,0.013
			c-0.081,0.902-0.425,0.856-0.987,0.018c-0.986-0.442-2.653-0.649-5.004-0.622l-0.805-2.205c0.538-1.289,1.053-1.46,2.241-2.071
			c4.273-0.004,8.58,0.311,12.921,0.945L26,119c0.704,0.792,0.784,2.53,1.408,3.653C32.215,123.666,37.461,123.759,42,125
			c0.555-1.875,1.431-1.892,2,0c0.901-1.911,1.834-3.993,2.799-6.245c0.961,0.907,1.029,0.656,0.201-0.755
			c-0.873-0.284-0.86-0.618,0-1c0.791-2.338,2.177-3.035,4-1c1.938,2.016,1.493,5.008-1.335,8.975
			c4.144,1.049,5.553-0.872,4.227-5.765L56,118z"/>
		<path style="fill:#3F3F3F;" d="M218.559,70.9c1.415-0.328,2.643,0.101,2.522,1.612C220.985,73.71,220.946,74.885,221,76
			c-1.47,1.605-1.235,2.623-0.202,4.181c-0.022,1.432,0.055,2.886-0.761,4.155c0.604,3.212-1.763,3.704-3.037,0.664
			c-1.864,1.242-3.864,1.242-6,0c-2.782,0.138-4.116-0.528-4-2c-3.231,0.218-7.342-5.888-6-9c-1.582,0.854-0.251-5.932,0.093-6.045
			c4.331,0.071,8.594,0.725,12.791,1.963C216.442,69.027,218,69.354,218.559,70.9z"/>
		<path style="fill:#606060;" d="M211,105c2.523-0.449,5.17-0.085,7.943,1.093c3.123-0.089,2.051,9.993,1.854,12.786
			c-4.196,1.409-7.815,3.296-11.713,4.008c-0.322,0.539-2.953-0.449-3.211-0.722c-0.533-0.565-0.006-13.649,0.126-15.537
			c0.016-0.232,0.449-0.434,1.002-0.628C206.675,104.124,209.743,104.048,211,105z"/>
		<path style="fill:#373737;" d="M67.118,87.042C69.961,86.898,73.95,90.201,72,93c2.652,0.952,3.154,1.757,1.506,2.417l-0.001,2.82
			C75.411,98.678,75.243,99.933,73,102c0.873,0.284,0.86,0.618,0,1c1.915,2.44-5.813,7.174-8,5c0.382,2-0.618,2-3,0
			c-1.982,1.706-2.277,1.568-2-1c-2.008-0.201-3.295-1.688-3.862-4.461c2.861-4.436,5.535-8.952,8.022-13.546
			C64.8,88.272,66.361,87.642,67.118,87.042z"/>
		<path style="fill:#515151;" d="M149,129c2.064-1.922,4.168-0.836,3,2l4.69,2.978c2.558,0.635,3.408,1.674,2.551,3.116
			c2.217,0.205,1.769,4.031-0.084,4.761c-3.341,1.506-6.46,3.594-10.16,3.966c-0.991,0.733-6.638-2.404-6.872-2.709
			c-0.268-0.349-0.061-1.069,0.264-1.902c1.727-4.426,2.799-9.091,3.146-14.063C146.69,127.437,147.845,128.054,149,129z"/>
		<path style="fill:#444444;" d="M44.987,100.105C48.723,97.791,50.06,98.089,49,101l5,1c3.23-0.422,3.957,0.215,2,3
			c-0.364,2.068-1.408,4.177-3.132,6.324c-0.433,2.061-1.056,3.62-1.868,4.676c-1.029,0.37-2.844,1.615-4,1l-2.818,0.673
			c-1.434-2.758-2.494-5.649-3.182-8.673c-0.974-2.117-1.336-4.141-1.084-6.071C40.596,100.702,43.677,101.27,44.987,100.105z"/>
		<path style="fill:#444444;" d="M84.994,79.937l1.455,8.245l-12.071,6.129C74.254,96.49,73.461,96.053,72,93
			c-1.128-2.28-4.101-3.415-4.882-5.958c4.509-3.577,9.764-6.078,14.73-8.987C84.772,76.611,85.821,77.238,84.994,79.937z"/>
		<path style="fill:#3E3E3E;" d="M221,37v14c-1.998,0.448-4.027,0.981-6.087,1.599c0.355,1.229-0.604,1.134-2.877-0.285
			c-2.712,0.855-4.121,0.772-4.228-0.248c-1.45,1.651-2.156,0.961-0.877-0.953C205.588,49.51,204.944,48.139,205,47
			c-1.345-2.464,0.457-3.698,3-3l5-4c-0.572-2.217,1.619-4.99,4-4C217.198,34.055,220.55,35.544,221,37z"/>
		<path style="fill:#3B3B3B;" d="M132,146l6.583,1.505c2.838-0.138,3.217,0.117,1.306,2.437l-20.978,7.793
			c-0.841,0.312-1.978,0.112-1.878-0.611c-2.119-1.868-1.31-7.761,1.966-8.123c-0.603-1.212,0.397-2.546,3-4
			c-0.193-2.719,0.473-3.052,2-1C126.173,142.694,132.569,142.388,132,146z"/>
		<path style="fill:#454545;" d="M197.226,12.003c1.081-0.35,2.097,0.837,3.047,3.561c-1.629,1.775-2.643,4.173-3.041,7.194
			C197.978,23.82,196.9,24.901,194,26c0.904,0.168,0.936,0.504,0.134,1c-0.091,2.895-2.441,2.703-3.134,0
			c-1.769,0.218-3.239,0.663-4.41,1.333L186,27c-1.405,1.325-1.92,0.767-1-1c-2.474-0.386-3.535-0.949-1.444-2.392
			c-0.434-2.019-0.243-3.54,0.573-4.563C188.191,16.346,192.386,12.647,197.226,12.003z"/>
		<path style="fill:#454545;" d="M94,155c1.979-2.474,6.538-0.013,6,3c2.041,1.069,4.084,1.735,6.13,1.998l-1.161,2.97
			c-3.58,1.548-7.165,3.022-10.879,4.186c-2.058,1.541-8.94-3.696-9.973-5.277c-0.228-0.349,2.375-3.308,3.167-3.877
			c-1.689-0.984-1.214-1.634,0.717-1c0.797-1.85,1.797-2.85,3-3C91.73,152.561,92.73,152.894,94,155z"/>
		<path style="fill:#3B3B3B;" d="M142.871,42.982L145,47c2.305,0.817,2.806,1.981,1.502,3.494L147,53
			c2.526,5.678-10.823,2.423-15.902,3.05l-0.117-6.085c2.175-3.043,6.825-3.17,8.909-4.802
			C140.632,44.584,140.246,42.899,142.871,42.982z"/>
		<path style="fill:#CACACA;" d="M97,138c0.897,1.619,1.897,3.286,3,5c2.755,3.248,5.089,3.581,7,1
			c4.6,1.412,8.387,1.928,12.995-0.286L122,145c-0.339,1.644-2.366,2.601-3,4l-1.38,1.166c-9.662-1.85-10.39,0.33-2.184,6.54
			l-0.436,2.38c-0.316,0.16-0.802-0.014-1.139,0.105c-3.21-0.114-5.444,0.833-6.701,2.843c-0.653,0.172-1.546,0.655-2.192,0.934
			c0.032-3.514-3.09-2.632-4.969-4.969c0.03-0.897,0.528-2.161,1.128-2.036c11.888,4.576,0.121-5.247-4.243-8.324L97,145
			c-1.405,1.325-1.92,0.767-1-1l-10.542,0.023c0,0-0.486,0.992-1.458,2.977c-2.403,1.362-4.403,0.029-6-4
			c-2.8-0.909-2.359-1.501,0-3c1.101-1.344,2.792-1.641,5.075-0.89c5.689,1.113,5.306-0.767-1.151-5.639l0.504-2.387
			c0.616,0.329,0.589-0.236,0.507-0.661l1.955-0.952l8.608,7.622C95.071,136.23,96.026,136.125,97,138z"/>
		<path style="fill:#C9C9C9;" d="M47,157c0.294,0.251,0.568,0.836,1,1c1.137-0.219,2.137,0.115,3,1c1.488,2.335-0.338,4.136-3,4
			l-1.69,3.646c0.949,3.786,0.179,6.237-2.31,7.354c2.192,1.035,2.525,2.035,1,3l2.181,0.598c0.563,2.49,0.836,4.932,0.819,7.323
			l-3,1.189c-2.508-1.302-3.165-4.674-2-7.11c-1.073-1.149-1.702-2.306-1.888-3.468c-2.986-0.426-4.978-1.562-5.975-3.408
			c-0.029,1.941-0.792,1.859-1.136-0.123c-1.755,0.883-4.088,0.883-7,0c-2.227-0.192-3.94-0.905-5.139-2.139
			c-1.565-1.813-0.212-0.71-0.288-0.636c-0.321,0.313-4.196-0.129-4.567-1.054c-2.058,1.553-2.887,0.977-3.732-1.223
			c-2.47,0.356-6.709-0.236-7.575-2.843C3.558,165.834,3.458,165.793,3,163c0.358-0.581,0.912-1.451,2.092-1.882
			c2.083-2.749,7.353-1.39,8.092,1.963c1.242-2.631,4.046-0.575,4.646,1.627l2.204-1.076l9.038,2.864
			c-0.058-1.739,0.585-2.904,1.928-3.497c2.733-0.655,3.634,0.297,3,3c1.084,2.499,3.417,3.806,6.999,3.921
			c1.324-4.49,2.657-8.797,4.001-12.921C45.304,154.3,46.207,154.436,47,157z"/>
		<path style="fill:#242424;" d="M157.882,34.858c2.67-1.368,5.472,4.344,3.118,6.142v2c-4.852,2.168-9.739,4.379-14.662,6.631
			L145,47c-1.948-1.796-2.428-3.62,0.066-5.084C148.088,37.984,154.025,37.067,157.882,34.858z"/>
		<path style="fill:#343434;" d="M172,29c1.13,0.875,0.163,2.545-1,3c-1.131,3.215-2.081,6.745-4.07,10.085
			c-1.344,2.257-5.063,0.835-5.93-1.085l-3.118-6.142c3.301-1.891,6.756-6.296,11.178-6.79C170.427,27.139,171.838,27.162,172,29z"
			/>
		<path style="fill:#323232;" d="M103.738,66.846c0.937,1.504,1.697,4.115,0.262,5.154c1.399,1.459,0.805,2.045-0.963,1.037L99,76
			c-1.902,2.01-2.964,2.465-3.186,1.366c0,0-3.556,0.001-10.669,0.003l0.097-1.474l15.793-9.082
			C102.051,66.228,103.074,66.304,103.738,66.846z"/>
		<path style="fill:#4B4B4B;" d="M90.362,168.732l-4.207,1.289c-1.218,0.675-3.417,1.097-4.78,0.894
			C79.333,170.61,73.259,169.01,75,167c-2.049-1.756-1.833-2.859,1-3l1.418-6.026c2.642,1.681,5.212,2.678,7.708,2.992l0.043,1.645
			l6.601,5.257L90.362,168.732z"/>
		<path style="fill:#454545;" d="M9.115,142c2.707-0.298,5.978,2.14,4.885,5c2.57,0.47,3.389,2.204,2.457,5.204l0.653,1.882
			c-4.53-0.404-8.938-0.765-13.226-1.086l1.231-10C5.626,140.782,7.567,141.288,9.115,142z"/>
		<path style="fill:#4A4A4A;" d="M62.866,179.029c-4.733,2.473-9.914,3.93-14.866,5.892c-2.962-1.138-2.213-5.212-3-7.921
			c0.133-0.692,0.275-1.232,0.449-1.243c4.496-0.271,12.34-0.246,16.794,0.205C65.302,176.272,65.314,176.295,62.866,179.029z"/>
		<path style="fill:#1C1C1C;" d="M42,178.333c0.693-0.594,1.007-0.329,1,0.667c1.751,1.915,2.1,4.584,2,7.11
			c-3.227,1.279-6.404,2.806-9.806,3.612l-1.395-1.039c0.772-8.15,1.158-12.225,1.158-12.225
			C37.012,177.292,39.36,177.917,42,178.333z"/>
		<path style="fill:#CBCBCB;" d="M198.116,64c2.331,0.142,5.8,0.68,6.884,3c0.957-1.959,3.41-1.96,7.359-0.002L213.677,65
			c2.563-3.763,5.569,4.495,5.131,4.45c-0.35-0.036-0.945-2.632,0.344-2.508c0.391-0.869,0.886-0.779,1.467,0.097
			c-0.227,1.575-0.609,2.859-2.06,3.861c-4.628,1.072-9.314-2.18-14.678-1.972c-2.675,0.104-2.86,3.196-2.881,5.072
			c-0.284,0.873-0.618,0.86-1,0c-0.628,2.608-1.143,2.589-2,0c-0.284,0.873-0.618,0.86-1,0c-0.724-1.272-0.346-2.528,1.134-3.77
			l-19.082-3.57L177,64c0.403-0.073,0.807-0.659,1-1c0.962-3.457,3.581-1.29,5,1c0.241-0.91,0.576-0.888,1,0
			c0.44-1.919,2.42-2.229,5.942-0.928c1.676-1.894,3.048-2.204,4.113-0.93C195.14,63.921,196.493,64.54,198.116,64z"/>
		<path style="fill:#4B4B4B;" d="M119,149c-1.119,2.58-0.468,5.661-1.966,8.123c-0.498,0.818-1.158,1.519-2.034,1.963l-9.322-9.208
			C104.557,147.024,121.274,147.643,119,149z"/>
		<path style="fill:#4B4B4B;" d="M16,155c1.141,2.513,0.426,7.857-2.816,8.081c-2.672-0.73-5.356-1.574-8.092-1.963
			c-2.693-1.327-2.434-4.672-1.087-7.045c1.186-0.796,11.843-0.888,12.259-0.42C16.448,153.862,16.275,154.386,16,155z"/>
		<path style="fill:#A5A5A5;" d="M99,76c1.19,1.016,1.185,2.253-0.016,3.71l0.038,11.251c0,0,0.993,0.346,2.978,1.038
			c3.151,3.515,8.386-4.717,10-8c0.076-1.392,2.643-2.134,2.474-0.944c-0.175,1.233-3.046,0.202,0.526-1.056
			c0.011-1.091,0.344-1.758,1-2c2.807-2.367,4.515,1.949,1,3c-0.401,1.38-0.734,2.714-1,4c-1.104,4.468-6.402,10.125-11,11
			c-1.117,1.59-3.146,1.184-6.089-1.219L94,95c-2.581,1.112-3.038-0.184-1-2c1.154-4.043,1.425-8.351,0.811-12.924l-8.817-0.139
			c-0.776-1.038-1.792-1.886-3.146-1.882c1.151-0.675,2.193-1.47,3.394-2.16C89.216,78.335,94.576,76.922,99,76z"/>
		<path style="fill:#535353;" d="M26,119c-0.052,0.606,0.417,2.25-0.255,2.667c0.344,1.272-17.002-1.117-14.506-2.583
			c4.33-2.226,8.208-5.315,12.761-7.084C25.107,113.814,25.773,116.148,26,119z"/>
		<path style="fill:#4F4F4F;" d="M54,102l-5-1c-0.94-1.166-2.714-1.526-4.013-0.895c4.698-4.176,10.68-6.618,16.039-9.934
			c0.629-0.49,1.954-0.244,1.906-0.091c-0.696,2.225-6.295,14.053-6.998,13.708L54,102z"/>
		<path style="fill:#484848;" d="M166.906,125.294c2.004,3.469,4.229,6.951,5.42,10.785c0.052,1.608-8.73,5.053-9.002,4.155
			c-0.237-0.782-0.182-1.493-0.268-2.234c-0.119-5.267,0.653-10.298,2.316-15.093L166.906,125.294z"/>
		<path style="fill:#343434;" d="M33.848,190.129c-2.728,1.413-14.486,7.017-16.93,4.082c-1.412-2.46-1.384-3.864,0.083-4.211
			c-1.279-2.287-0.291-2.65,2-2c0.105-1.508,1.793-1.644,5.064-0.408c1.992-0.371,9.054-0.249,9.82,0.837
			C34.147,188.802,34.049,189.429,33.848,190.129z"/>
		<path style="fill:#252525;" d="M13.273,166.948c3.167,1.535,0.814,5.775-2.273,5.052l-1.565,4.377L6,174
			c-0.615,3.176-3.679,1.952-2.105-0.911C2.186,171.782,3.285,170.04,3,169c-0.076-3.758,0.824-5.39,2.698-4.895
			C8.47,164.259,11.757,164.371,13.273,166.948z"/>
		<path style="fill:#6C6C6C;" d="M218.943,106.093c-2.71-0.67-5.357-1.368-7.943-2.093c-0.873-0.284-0.86-0.618,0-1l3.664-5
			c-3.521-1.788,0.857-6.419,3.777-5.535c-0.121-0.882,0.113-0.895,0.669-0.124C221.744,91.969,222.116,109.682,218.943,106.093z"/>
		<path style="fill:#A5A5A5;" d="M42,178.333c-2.113-0.141-4.186-0.642-6.864-0.18c-0.26,4.216-0.168,7.892,0.058,11.568
			c-0.435,0.103-0.95,0.201-1.346,0.407c-1.413-1.353-3.389-2.171-5.814-2.162L19,188c-3.063-0.403-2.926-7.338,0-8
			c-0.444-0.309-0.431-0.643,0-1c-0.036-2.646,1.016-2.662,3-1c2.931-0.551,3.442,2.602,1,4c-1.158,0.823-1.824,2.157-2,4
			c2.493-0.378,5.16-0.378,8,0l0.776-1.161c3.139,1.828,3.597-6.024,0.756-4.998c-1.634,1.62-3.145,2.006-4.532,1.159
			c-0.821-1.28-1.771-2.564-2.85-3.85c-2.638,0.463-2.712-0.516-0.436-1.877c-0.217-2.775,1.579-3.436,3.286-1.273
			c4.451,2.081,6.469,1.816,6.052-0.795L34,172l1.136,0.123c1.657-0.032,2.3,0.957,1.928,2.966
			C39.748,174.654,43.38,175.006,42,178.333z"/>
		<path style="fill:#454545;" d="M109.903,62.118c2.501,1.006,3.635,3.251,3.097,5.882c1.078,0.402,1.657,2.042,1.736,4.92
			c0,0-2.091-0.098-6.272-0.294c-0.259,1.639-1.08,1.43-2.465-0.626c-1.038-1.054-1.792-2.772-2.262-5.154
			C104.247,63.95,107.406,63.089,109.903,62.118z"/>
		<path style="fill:#2A2A2A;" d="M215,8c2.86-0.068,2.838,2.197,0.139,3c0.269,2.96,0.167,4.64-3.139,3
			c-1.086,1.756-1.753,2.089-2,1c-2.126,1.451-3.069,0.495-3-2c-2.815-0.635-3.844-2.685-2.16-5.139
			C205.906,5.427,208.68,5.253,211,6c0-1.796,0.601-1.737,2-1C216.237,2.866,216.319,5.079,215,8z"/>
		<path style="fill:#B3B3B3;" d="M149,129c-0.677-0.086-1.389-0.068-2.685-0.974c-0.868,4.659-2.142,9.389-2.517,14.433l5.2,3.363
			c-0.972,1.23-2.678,1.328-3.924,0.43l-2.782,0.887c-0.451,1.102-1.216,2.363-2.402,2.803c0.252-2.59-4.368-1.587-7.89-3.942
			c0.192-2.335,2.162-2.751,5.912-1.249l1.825-1.722c-1.068-1.8-0.811-2.616,1.339-2.147c0.315-4.497,0.952-8.975,1.911-13.435
			c-1.574-2.653-1.57-4.468,0.013-5.447C145.127,119.723,150.87,126.604,149,129z"/>
		<path style="fill:#333333;" d="M3.895,173.089C3.774,174.112,5.329,173.878,6,174c2.297,0.431,3.635,1.626,4.013,3.584
			c1.053,1.223,0.962,3.203-0.274,5.939l0.279,2.366c-3.176,0.232-5.139-0.398-5.887-1.889
			C3.938,179.206,0.687,173.107,3.895,173.089z"/>
		<path style="fill:#959595;" d="M68,173.882c0.982,0.667,1.982,1.373,3,2.118c-0.96,1.251-2.596,1.459-4,2
			c-1.264-0.801-1.931-0.706-2,0.283c-0.636,0.482-1.486,0.407-2.134,0.745c2.801-5.013-13.41-0.804-17.866-2.029
			c-0.319-0.978-0.828-1.955-1-3c1.229-1.57,3.448-1.895,6.658-0.975c4.35,0.647,8.164,0.332,11.441-0.944
			C63.973,170.991,65.94,171.591,68,173.882z"/>
		<path style="fill:#454545;" d="M221,52c0,5.024,0.337,10.064-0.381,15.039c-0.491-0.002-0.98-0.042-1.467-0.097
			c-1.948-0.045-2.548-1.49-1.152-2.942l-3.986-10.565C215.556,51.715,218.928,51.018,221,52z"/>
		<path style="fill:#252525;" d="M221,13c-0.458,1.484-3.456,2.677-4,1c-2.527,2.87-4.306-0.15-1.861-3L215,8
			c-0.384-2.695,0.647-4.395,3.094-5.1c0.688,0.035,2.658-0.503,2.831,1.036C221.299,7.244,221,10.168,221,13z"/>
		<path style="fill:#939393;" d="M18,175c1.674,0.957,1.478,2.402,1,4v1c-1.709,0.486-3.636,0.733-5.783,0.74l-1.05,2.801
			c0.843,1.893,1.163,3.671,0.959,5.334c-1.28,1.767-4.634,2.563-6.406,1.14c-0.266-2.241-0.844-3.198-1.734-2.869
			c-0.797-1.092-0.802-1.804-0.856-3.144c1.306,0.937,3.788,1.834,4.673,0.281C11.479,179.585,9.134,176.733,6,174
			c0.903,0.164,2.13,1.045,2.989,0.452c0.864-0.597,1.203-1.83,2.011-2.452c1.505,0.853,1.762,1.719,1.298,3.2
			C14.796,173.691,16.697,173.624,18,175z"/>
		<path style="fill:#C9C9C9;" d="M168,119c0.02-0.021-3.598,1.96-1.094,6.294l-1.696-1.3c-0.22,5.128-0.647,9.7-2.155,14.006H162
			c-0.879-0.332-0.879-0.666,0-1c-0.509-1.916-0.509-4.25,0-7l-1.401-1.916l3.283-14.541L163,112c-1.133-2.728,0.928-4.022,3-2
			c0.052-0.614,0.386-0.947,1-1h1l1.818,1.296C169.292,113.421,168.686,116.322,168,119z"/>
		<path style="fill:#CACACA;" d="M208.811,21.248c2.16,1.402,3.89,3.031,5.189,4.886c1.233,1.579,2.02,3.175,2.36,4.79
			c2.334-0.926,4.1,2.099,4.64,4.076v2l-4-1l-2.252-0.761c-1.031-1.557-2.614-2.637-4.748-3.239
			c0.339-3.258-2.376-4.797-8.146-4.616L202,25c1.257-1.49,2.328-3.095,3.211-4.815C206.675,17.827,208.309,18.886,208.811,21.248z"
			/>
		<path style="fill:#969696;" d="M13.929,124.714l0.407,2.381C12.454,130.617,12.009,134.586,13,139
			c1.103,2.552-1.602,3.865-3.885,3l-4,1c0.209-1.695,0.52-2.459,0.759-4l1.735,0.492c0.959-5.483,0.742-7.981-0.651-7.494
			c0.153-0.988-0.651-3.071,0.719-3.718l2.459-1.159C8.916,124.406,11.749,122.568,13.929,124.714z"/>
		<path style="fill:#282828;" d="M204.84,7.861c0.879,1.648,1.947,3.25,2.16,5.139c1.488,2.018,0.116,4.883-2.591,4.073
			c-1.188,0.545-2.328,0.05-3.419-1.485c-0.448,0.276-0.898,0.494-1.355,0.511c-0.422,0.016-2.191-6.639,1.365-7.225
			C202.245,8.343,203.403,7.315,204.84,7.861z"/>
		<path style="fill:#C7C7C7;" d="M87.283,158c-0.786,1.098-1.16,2.36-2.276,3.642c3.148,2.429,5.523,5.765,9.082,5.513
			c-1.318,0.413-2.234,1.12-3.727,1.577c1.804-1.551-10.517-8.661-12.153-9.784c-0.564,2.29-1.199,3.691-2.209,5.052
			c-3.184-0.741-1.702-5.23,0-7c0.284-0.873,0.618-0.86,1,0c1.422-2.146,3.412-1.851,5.971,0.885
			C84.722,156.886,86.16,156.925,87.283,158z"/>
		<path style="fill:#BCBCBC;" d="M201,8.874c-0.298,0.873-1.934,2.013-1.797,3.116c1.125,2.425,3.152,4.155,5.206,5.084
			c3.052,0.067,3.421,1.6,0.801,3.112l-2.766,0.639c-1.367-2.136-2.123-1.806-2.266,0.989c2.003,0.52,2.61,1.582,1.822,3.187
			c-1.053,2.642-6.278,3.209-8,1c2.588-2.205,6.474-12.017,3.226-13.997C197.992,10.398,199.44,9.539,201,8.874z"/>
		<path style="fill:#C1C1C1;" d="M221,51v1c-2.08-0.11-4.469,0.126-6.14,1.695c1.462,3.816,2.979,6.903,3.14,10.305
			c-2.988,0.217-4.831-2.493-5.528-8.132c-3.557-4.468-1.04,2.968,0.785,5.009L212,63c-2.189,2.094-6.278-1.355-5-4
			c-1.708-2.062-1.656-5.489,0.808-6.934C212.307,52.61,216.552,50.947,221,51z"/>
		<path style="fill:#383838;" d="M13.126,188.874c1.572-1.231,2.072-0.533,0.874,1.126c1.655,0.308,2.627,1.711,2.917,4.211
			c-0.576,0.373-1.22,0.617-1.888,0.768c-2.439,0.839-5.082-0.6-7.192-1.965c-0.533-0.938-0.988-1.909-1.116-3
			C8.886,188.655,10.768,187.606,13.126,188.874z"/>
		<path style="fill:#A3A3A3;" d="M207,106l-0.101,13.085c-0.015,1.945,0.845,3.204,2.185,3.802c-0.411,0.188-0.64,1.036-1.084,1.113
			c-1.898,0.084-3.231-0.25-4-1c0.66-0.987,1.035-2.293,1.031-3.931L205,106C205.163,104.785,206.547,104.84,207,106z"/>
		<path style="fill:#C8C8C8;" d="M64.16,88.992C63.346,94.162,53.896,103.883,60,107c-0.064,2.86-2.324,2.733-3,0
			c-1.855,0.836-1.752-0.332-1-2c-0.167-1.388-1.149-2.055-2-3c4.269,0.391,4.752-5.248,7.442-10.638
			c0.623-0.735,0.61-1.548-0.416-1.191C62.021,89.555,63.06,89.186,64.16,88.992z"/>
		<path style="fill:#555555;" d="M80.932,171.995c-2.528,1.139-4.921,2.845-7.84,2.903c-1.136,0.166-3.088-1.753-1.672-2.696
			c-1.068-2.053-0.784-2.254,1.58-2.202C74.352,167.674,81.384,169.955,80.932,171.995z"/>
		<path style="fill:#2E2E2E;" d="M116.076,57.995c3.23-1.361,5.885-3.728,9.205-4.887c3.815,3.128-6.287,6.241-9.11,7.745
			C115.769,59.565,116.131,58.783,116.076,57.995z"/>
		<path style="fill:#C3C3C3;" d="M21,156c-1.062,3.208-5.111,2.372-5-1c-0.468-0.304-0.844-1.071-1.945-1.057l-10.049,0.131
			L3.885,153l12.01-0.019c0.591-2.525-0.462-4.492-1.894-5.981c1.324-1.71,3.133-2.246,5-1c1.338,1.167,1.275,3.28-0.188,6.339
			C21.076,152.954,22.408,153.584,21,156z"/>
		<path style="fill:#363636;" d="M216,17l1.629-1.665c0.408,1.774,1.532,3.328,3.371,4.665v1c-2.087,0.687-4.065,1.747-5.936,3.181
			L214,23c-1.322,1.536-1.949,0.947-1.06-0.94c-2.189-1.262-2.131-3.372,0.06-4.06C211.769,14.964,214.611,14.221,216,17z"/>
		<path style="fill:#474747;" d="M14.806,123.982c0.239,0.889-0.052,1.134-0.877,0.732c-1.478,0.444-2.453,1.775-3.793,2.407
			c-0.234-0.142-1.613,0.228-1.948-0.368c-1.164-2.069,0.147-4.012,0.809-5.598l5.901,1.201
			C15.668,122.512,15.041,123.606,14.806,123.982z"/>
		<path style="fill:#D4D4D4;" d="M184.129,19.045c-0.234,2.359-0.46,4.896,0.871,6.955l-1.637,2.104
			c-5.198-1.462-8.202-0.008-9.013,4.36L172,32h-1c0.348-0.988,0.768-1.966,1-3c-1.033-0.513-0.691-1.795,1.026-3.845
			c0.888-0.415,1.787-1.529,2.984-1.226c3.538-0.04,5.535-1.325,5.99-3.853C182.604,19.816,183.598,19.397,184.129,19.045z"/>
		<path style="fill:#5B5B5B;" d="M219.11,92.341l-2.59-3.457c-3.387-2.257-3.227-3.551,0.48-3.884c1.064,0,2.251,0.234,3.037-0.664
			C221.246,86.872,222.38,91.327,219.11,92.341z"/>
		<path style="fill:#454545;" d="M176.01,23.929c1.476-1.86,3.803-2.912,5.99-3.853c1.521,0.311,0.939,2.54,1.033,3.573
			C183.298,26.558,173.952,24.598,176.01,23.929z"/>
		<path style="fill:#363636;" d="M221,22v6c-1.137,1.624-5.704,1.888-5-1C212.732,24.202,218.194,20.943,221,22z"/>
		<path style="fill:#525252;" d="M5.874,139l1.084-7.003c0.608,0.016,0.764-0.964,2.209-1.05c0.499,2.272,0.291,11.439-2.654,10.061
			C5.831,140.689,5.91,139.691,5.874,139z"/>
		<path style="fill:#444444;" d="M216,27c1.563,0.745,3.271,1.039,5,1v2c-0.366,2.67-2.889,2.641-4.64,0.924
			c-0.67-0.627-2.261-0.833-2.917-2.02c-0.445-0.805-0.304-1.897,0.557-2.77C215.27,23.894,215.936,24.183,216,27z"/>
		<path style="fill:#6C6C6C;" d="M113.861,159.192c-1.846,1.697-4.342,2.221-6.701,2.843c-3.729,0.881,3.321-4.868,3.479-4.919
			C111.865,156.716,112.858,158.53,113.861,159.192z"/>
		<path style="fill:#1F1F1F;" d="M221,30v5c-2.413,0.015-3.745-2.065-4.64-4.076C217.684,29.924,219.402,29.945,221,30z"/>
		<path style="fill:#2E2E2E;" d="M218.094,2.9C216.557,4.875,214.859,5.575,213,5c-0.114,1.012-1.085,1.295-2,1
			c-0.643-1.091-2.28-0.555-2.678-1.607C212.084,2.06,215.524,0.931,218.094,2.9z"/>
		<path style="fill:#323232;" d="M162,137c0.016,0.329-0.043,0.674,0,1c0.126,0.957,0.019,1.874-0.428,2.934
			c-0.42,0.997-1.588,0.549-2.415,0.922l0.084-4.761c-0.459-1.851,0.407-2.099,1.664-0.619C161.612,134.843,161.773,135.276,162,137
			z"/>
		<path style="fill:#A2A2A2;" d="M5.698,164.105c-1.501,0.81-1.888,2.782-1.587,5.043C3.591,170.26,2.792,170.206,3,169
			c-0.463-1.694-0.869-4.592,0-6C3.937,163.271,4.872,163.577,5.698,164.105z"/>
		<path style="fill:#969696;" d="M221,21v1c-1.204,0.158-2.425,0.532-3.42,1.07c-1.511,0.817-1.775,2.397-1.58,3.93
			c-0.653-0.311-1.38-0.476-2-0.866c-2.599-0.366-2.764-2.466,0-3.134C216.574,22.818,218.471,20.572,221,21z"/>
		<path style="fill:#3B3B3B;" d="M127.612,51.969c0.78-0.168,1.183-1.646,2.15-1.696l0.444,5.559
			c-1.829,0.595-2.887-0.082-2.958-1.252C127.2,53.821,127.272,52.818,127.612,51.969z"/>
		<path style="fill:#2F2F2F;" d="M172,29c-1.037-0.078-2.225-0.073-2.94-0.932c0.894-1.223,2.507-2.231,3.966-2.913
			C175.128,25.759,172.258,27.852,172,29z"/>
		<path style="fill:#353535;" d="M15,196c1.034-0.494,2.364-0.61,3.019,0.732c-2.909,0.834-4.586,1.569-6.704,2.31
			c-0.659-1.606-0.247-2.344-0.315-3.042C10.729,194.114,13.845,194.986,15,196z"/>
		<path style="fill:#CFCFCF;" d="M15.029,194.979L15,196h-4c-0.178-0.44-0.878-0.901-1.315-1.089
			c-1.465,0.762-3.232-0.484-1.848-1.897C10.312,193.293,12.696,194.127,15.029,194.979z"/>
		<path style="fill:#2A2A2A;" d="M6.72,190.014c-1.675-0.104-1.112-2.017-1.734-2.869c-0.164-1.158,0.973-1.198,1.557-1.168
			c0.881,0.045,2.176-0.32,2.489,0.65C7.553,187.829,6.373,188.659,6.72,190.014z"/>
		<path style="fill:#B4B4B4;" d="M86.155,170.021c-1.068,2.069-3.626,1.254-5.223,1.974c-1.608-2.65-5.152-1.943-7.932-1.995
			c-2.486-1.968-1.07-3.906,2-3C77.201,170.65,82.237,169.904,86.155,170.021z"/>
		<path style="fill:#8E8E8E;" d="M221,13v2c-0.503,1.078-0.503,2.078,0,3v2c-2.438,0.581-3.286-3.96-5-3
			c-2.129-1.566-1.51-2.402,1-3L221,13z"/>
		<path style="fill:#BBBBBB;" d="M26,119c-1.716-1.931-1.026-4.754-2-7c0.421-0.163,0.659-0.787,1.063-1.008
			C25.884,113.113,26.173,116.981,26,119z"/>
		<path style="fill:#3B3B3B;" d="M9.814,197.147c0.109,0.818-0.072,1.99-0.588,2.437c-0.823,0.712-1.634,0.511-1.886-0.215
			C7.081,198.623,7.409,197.562,7,197C6.767,195.814,9.257,196.182,9.814,197.147z"/>
		<path style="fill:#B2B2B2;" d="M71.42,172.202l1.672,2.696L72,176c-1.756-0.515-3.09-1.221-4-2.118
			C66.294,170.777,70.254,168.676,71.42,172.202z"/>
		<path style="fill:#A6A6A6;" d="M145.066,41.916c-1.291,1.467-0.678,3.402-0.066,5.084c-0.8-0.546-1.769-0.899-2.498-1.944
			c-0.383-0.55-0.128-1.379,0.369-2.075C143.401,42.539,144.429,42.121,145.066,41.916z"/>
		<path style="fill:#3E3E3E;" d="M7.837,193.014c0.459,0.807,0.965,1.517,1.848,1.897l-0.06,0.816
			c-1.116,1.319-2.866,0.866-3.441-0.827C6.37,193.893,6.583,192.872,7.837,193.014z"/>
		<path style="fill:#D1D1D1;" d="M221,76c0.067,1.402-0.18,2.788-0.202,4.181c-1.416,0.474-1.792-0.721-1.862-1.674
			C218.8,76.682,219.108,75.526,221,76z"/>
		<path style="fill:#484848;" d="M145.073,146.252c-0.376,0.568-0.823,1.104-1.594,1.372c-0.377,0.131-0.879-0.024-1.188-0.485
			c0.271-0.661-0.265-1.555,0.02-2.48c0.19-0.615,1.145-0.459,1.573-0.182C144.428,144.829,145.066,145.717,145.073,146.252z"/>
		<path style="fill:#676767;" d="M208,124c-1.712,0.295-4.361,2.069-5.026-0.16c0.355-0.112,0.63-0.837,1.026-0.84
			C205.363,122.991,207.39,122.515,208,124z"/>
		<path style="fill:#414141;" d="M72,176c-0.331-0.013-0.67,0.032-1,0c-0.71-0.069-1.575,0.176-2.479-0.03
			c-0.806-0.183-0.537-1.395-0.521-2.089C69.762,173.817,71.6,174.124,72,176z"/>
		<path style="fill:#171717;" d="M221,15v3c-0.652,0-1.381-0.027-1.981-0.478c-0.592-0.446-1.28-0.902-0.57-1.562
			C219.232,15.232,220.093,14.9,221,15z"/>
		<path style="fill:#4C4C4C;" d="M111,61c1.327-0.65,2.639-1.329,3.906-2.094c0.371,0.999,0.032,1.965-0.825,2.648
			C113.206,62.252,111.161,62.599,111,61z"/>
		<path style="fill:#BCBCBC;" d="M41,109c-1.577-1.433-1.833-3.815-2.15-5.798c0.325-0.155,0.732-0.138,1.066-0.273
			C40.371,104.865,41.42,106.959,41,109z"/>
		<path style="fill:#555555;" d="M67,178c-0.574,0.221-1.519-0.082-2,0.283c-1.084-0.429-1.026-0.863-0.495-1.348
			c0.821-0.751,1.302-1.358,2.009-0.926C67.289,176.483,67.015,177.373,67,178z"/>
		<path style="fill:#CFCFCF;" d="M9.625,195.727l0.189,1.42L7,197c-0.495-0.681-0.991-1.155-0.816-2.1
			C7.142,195.717,8.402,195.943,9.625,195.727z"/>
		<path style="fill:#3F3F3F;" d="M176,86c6.197,0.693,12.7,4.703,16,10c2.29,0.615,3.534,1.516,3.732,2.706
			c1.908,2.141,2.555,3.906,1.94,5.294c-1.037,0.923-2.612,1.153-3.672,2l-9.045,3.955L181,112c-2.371,2.24-3.704,1.24-4-3l-1-5
			l-1-5C175.865,92.554,169.227,82.235,176,86z"/>
		<path style="fill:#BDBDBD;" d="M181,112c-1.087,0.562-2.221,1.697-3.014,2.571c2.49,2.799,5.697,4.275,6.014,7.429
			c-2.834-1.604-4.332-4.886-7.695-6.296c-3.035,1.557-5.495,3.544-8.305,3.296c0.205-2.895,2.513-4.925,6.925-6.091
			c-0.314-2.343,0.377-3.646,2.075-3.909C178.388,110.114,178.419,113.166,181,112z"/>
		<path style="fill:#D1D1D1;" d="M207,104c0.32-0.932,0.654-0.929,1,0c0.077-2.886,2.345-2.705,3,0c0.873,0.284,0.86,0.618,0,1
			c-1.428-0.171-2.959-0.095-4,1c-0.547-0.226-1.518,0.325-2,0c-1.471-0.991-3.855-0.443-5-2
			C200.131,100.678,205.47,101.907,207,104z"/>
		<path style="fill:#BFBFBF;" d="M194,106c-2.574,2.057-5.662,4.017-9.045,3.955C187.838,108.465,190.636,106.042,194,106z"/>
		<path style="fill:#ABABAB;" d="M200,74c0.796,0.89,1.287,2.06,1.474,3.512c-1.277,7.307-2.268,14.24-2.972,20.799
			c2.334,2.205,2.833,4.101,1.497,5.69c-0.754,0.149-1.565-0.098-2.328,0c-0.887-2.993-2.736-6.345-5.672-8
			c1.323-1.108,1.985-1.662,1.985-1.662l1.748-17.727L198,74H200z"/>
		<path style="fill:#484848;" d="M140,65l-1,7c-0.686,2.105-0.8,4.325-0.342,6.661c0,0-4.553-0.554-13.658-1.661
			c-2.2-0.031-4.2-0.364-6-1c-1.773,1.731-2.052,1.26-1.997-1.15c-0.82,0.68-2.102-0.222-3.844-2.708
			c1.04-1.453,1.361-3.5,0.965-6.143c0.105-0.759-0.541-2.613,0.811-3.172c12.646-5.229,6.091-5.911,24.859-4.843
			C140.172,60.882,140.12,62.839,140,65z"/>
		<path style="fill:#494949;" d="M177,64c7.193,2.219,14.801,2.96,23.597,4.285c0.385,1.81-1.448,4.617-3.597,5.715l-5,2
			c0.957,2.753-2.015,3.844-4,2l-5.05,1.95c1.296,3.051-2.079,4.338-3.95,2.05c-2.419-0.469-4.089,1.518-7.128,2.299l2.372-19.281
			C174.399,63.756,176.296,64.122,177,64z"/>
		<path style="fill:#4E4E4E;" d="M192,96c-5.478-3.088-10.843-6.373-16-10c-0.29-0.381-0.865-1.594-0.066-1.956
			c1.401-0.635,2.19-1.362,3.066-2.044c1.194-0.929,2.997-0.779,3.95-2.05L188,78c0.946-0.858,2.89-1.409,4-2l5-2h1l-2.228,22.598
			C193.756,97.078,193.132,96.087,192,96z"/>
		<path style="fill:#4E4E4E;" d="M171,69l-5,2c1.26,2.855-7.415,5.614-9,3l-2.335,0.817C151.888,69.572,149.333,64.3,147,59
			c4.3-1.725,9.816-1.411,14.855-0.56c3.636,0.614,7.427,3.417,10.432,5.164C174.768,65.047,171.95,68.139,171,69z"/>
		<path style="fill:#373737;" d="M146,59c1.713,2.627,8.538,13.374,8.881,15.92c0.06,0.444-1.514,4.832-2.01,5.219
			C152.343,80.552,141.073,82.58,140,82l-2.273-3.034c0.59-2.068,1.014-4.39,1.273-6.966l1-7c1.707-1.426,0.585-3.532,1.208-5.931
			C141.665,57.308,145.128,57.788,146,59z"/>
		<path style="fill:#353535;" d="M164,85c-1.895,0.783-4.088,0.685-6.58-0.296c-0.651,1.483-1.242,1.029-1.42-0.704
			c-2.76,0.645-3.848-0.672-2-3c-1.396-0.173-1.292-1.663,0.311-4.469c-0.378-3.549,0.518-4.393,2.689-2.531l9-3l5-2
			c2.457-0.227-0.413,14.464-1.52,15.556C168.204,85.8,165.475,84.764,164,85z"/>
		<path style="fill:#484848;" d="M164,86c1.853-0.07,3.588-0.067,6.121,0.11L167,106c-0.387,0.429-0.696,0.755-0.735,0.721
			c-1.727-1.547-11.816-11.11-12.218-11.918C153.724,94.152,154.5,92.649,155,92c-1.604-1.83-1.205-2.874,1-4l0.976-3.367
			C159.41,85.127,161.752,85.582,164,86z"/>
		<path style="fill:#4C4C4C;" d="M175,99l1,5l1,5c-0.565,1.623,1.026,4.401-1.264,5.7c-2.736,1.552-5.804,2.221-7.736,4.3
			c-0.54-0.048-1.717,0.238-1.922-0.458c0.277,0.94,1.927-9.576,1.922-9.542l3.369-24.068C173.681,89.807,172.442,95.076,175,99z"/>
		<path style="fill:#232323;" d="M148,53c-1.969-0.75-2.478-5.115-0.352-4.58c4.431-1.717,8.882-3.19,13.352-4.42
			c1.534,0.133,2.842-0.392,5.39,0.364c-2.395,3.33-2.286,8.861-5.454,11.739C159.291,57.597,145.707,58.139,148,53z"/>
		<path style="fill:#4D4D4D;" d="M176,43c2.746-1.352,6.046,3.849,4,6c2.482,1.184,1.149,2.517-4,4l-5,2
			c-1.847,1.373-4.18,1.373-7,0c0.815-5.733,4.062-10.77,6.421-15.928C172.98,40.204,174.834,41.251,176,43z"/>
		<path style="fill:#3E3E3E;" d="M184,50c-2.1,2.153-3.529,1.801-4-1l-4-6l-0.843-4c-0.318-2.982,1.117-4.052,3.843-2.717L183,33
			c2.306-2.344,3.459-2.823,3.459-1.438l2.765,17.105C187.398,48.501,185.657,48.946,184,50z"/>
		<path style="fill:#565656;" d="M185,26l1,1c1.79-0.047,1.873,0.66,0.435,1.624c0.418,2.333-0.727,3.792-3.435,4.376l-4,3.283
			c-1.209,0.804-2.57,2.067-3.843,2.717c-0.89,0.455-3.49,0.057-3.89-1.345C170.742,35.816,171.98,33.564,172,32
			c1.59-0.823,1.536-4.031,2.791-5.225C177.854,24.862,181.854,26.523,185,26z"/>
		<path style="fill:#393939;" d="M183,64c-1.684,0.364-3.391-1.116-5-1c-3.814,0.275-6.903-1.579-8.933-4.909
			C166.51,56.774,167.154,55.744,171,55l5-2c2.027-1.173,3.853-1.87,5.478-2.091C181.935,55.379,182.442,59.743,183,64z"/>
		<path style="fill:#ABABAB;" d="M157,74c-2.378,0.673-2.827,5.046-3,7c-2.64,2.849-10.4,4.435-14,3c-2.673-0.285-2.533-1.176,0-2
			l11.673-2.466c1.61-0.34,2.753-3.647,2.039-5.079L146,59c0.305-0.072,0.713,0.115,1,0C149.634,60.49,153.78,75.802,157,74z"/>
		<path style="fill:#C0C0C0;" d="M117.003,74.85c1.68,1.545,1.328,4.432-1.003,5.15c0.051,0.769-0.711,1.434-1,2
			c-1.958-0.129-2.733-1.927-2.326-5.394c-0.221-2.329-1.779-2.531-4.674-0.606c-3.092,0.786-4.185-2.002-2-4
			c2.461,0,4.932,0.13,7.53-0.185c0.115-1.605-0.288-2.689-0.53-3.815c0.437-0.527,1.031-1.332,1.123-2
			C116.196,65.993,113.215,72.02,117.003,74.85z"/>
		<path style="fill:#A8A8A8;" d="M155,92c-2.357,1.694,10.496,12.898,12,14v3c-0.347,0.307-0.619,0.731-1,1
			c-1.332-0.512-2.38-1.482-3.144-2.909C158.794,102.664,154.842,98.967,151,96c-2.525,1.501-4.856-1.792-3-4
			C149.45,90.714,151.784,90.714,155,92z"/>
		<path style="fill:#979797;" d="M161,44c-2.992,3.174-17.731,3.348-13,9h-1c-1.627-1.498-1.273-4.004-2-6
			c0.895,0.611,1.941,0.984,3.372,0.477L161,43V44z"/>
		<path style="fill:#404040;" d="M169.067,58.091c0.026,0.461,0.084,1.87-0.556,1.791c-0.314-0.039-3.919-1.865-5.079-2.836
			c-0.805-0.674-0.013-1.4,0.567-2.045C167.766,55.315,169.455,56.346,169.067,58.091z"/>
		<path style="fill:#B6B6B6;" d="M164,85v1c-2.222,0.083-4.433,0.162-6.7-0.796c-0.423,1.349-0.735,2.111-1.3,2.796
			c-2.714-1.245-2.642-2.747,0-4C158.706,84.167,161.287,85.434,164,85z"/>
		<path style="fill:#A1A1A1;" d="M47,117v1c-0.633,2.808-1.633,5.141-3,7c-0.64-0.087-1.379,0.17-2,0
			c-0.723-2.481,0.933-5.168,0.692-7.906c-0.259-2.945-2.26-5.336-1.692-8.094C44.492,112.172,39.608,113.067,47,117z"/>
		<path style="fill:#575757;" d="M86,123c1.947-1.695,9.284-2.966,9,0c3.822-1.043,6.667,5.347,4,8c2.581,1.218,2.581,2.552,0,4
			c0.88,0.332,0.879,0.665,0,1c0.357,0.942-0.309,1.609-2,2c-1.192-0.072-3.24,1.821-4.587,0.652l-9.478-8.229
			c-0.288-4.314-0.465,0.877-6.002-6.022l2.186-1.141c-1.219-2.233-0.501-2.632,1.882-2.26C82.453,120.673,84.119,121.34,86,123z"/>
		<path style="fill:#666666;" d="M77,138c2.599-0.911,3.044,0.117,1,2c0.101,0.962,0.045,2.033,0,3
			c1.283,0.415,1.597,1.368,1.797,2.561C80.108,147.424,78.981,156.164,77,157h-1c-0.954-0.254-0.936-0.589,0-1
			c-1.807-0.688-2.462-2.253-1.967-4.693c-4.134,0.71-9.537-1.349-11.033-5.307c-2.414-0.413-4.644-1.773-6.691-4.081
			c0.398-0.495,0.721-1.077,0.657-1.728c0.397-2.434,1.737-4.104,4.034-2.192c1.097-2.759,2.318-3.276,3.665-1.55L68,136
			l4.903-0.908C74.424,133.655,75.79,134.625,77,138z"/>
		<path style="fill:#2A2A2A;" d="M81,115c1.754-0.606,1.729,3.817,1,5c1.078,1.287,0.593,1.239-1,1
			c-0.32,1.02-0.933,1.765-1.882,2.26c-0.913,0.116-2.237-0.643-3.118-0.26c-3.465,0.57-8.563-1.111-8-5
			c-1.277-0.789-2.254-2.233-2.932-4.331c-1.531,0.961-1.697,0.109-0.496-2.558c-0.922-2.268-0.78-3.305,0.428-3.111l8-5
			l2.281-0.185C77.433,105.172,82.761,112.398,81,115z"/>
		<path style="fill:#323232;" d="M56.309,141.919L63,147c1.516,0.509,1.923,1.876,0,2c-0.467,1.818-1.467,2.818-3,3
			c1.279,3.482-5.973,8.684-9,7c-0.599,0.135-1.249,0.196-1.987,0.619C48.02,160.188,47.903,158.953,48,158l4.441-16.717
			C54.009,141.38,55.113,141.693,56.309,141.919z"/>
		<path style="fill:#5A5A5A;" d="M78,128l-2.804,7.421C72.953,134.86,70.554,135.053,68,136l-5.517,0.669
			c0.022-2.555-0.458-5.112-1.439-7.669c0.803-3.648,14.553-3.789,14.919-3.599C76.785,125.828,77.249,127.033,78,128z"/>
		<path style="fill:#525252;" d="M36,136l3-4c-1.905-2.191-0.648-3.495,2.094-2.509c1.202-0.991,3.662-3.972,5.388-2.133
			c2.782,2.964,3.383,7.532,4.505,11.479c-5.268,0.147-9.741,0.499-14.611-0.085C35.806,138.304,35.954,136.336,36,136z"/>
		<path style="fill:#3B3B3B;" d="M34,136c1.332,2.072,1.041,4.622,1,7c3.277,0.92,2.19,4.132-1,3c0.58,1.432-3.198,4.169-4,2
			c-1.725,2.885-4.505,0.886-4-2l-2.767-1.783c-2.13-0.328-2.874-1.067-2.233-2.217c-1.994-1.793-1.634-2.449,1.029-1.971
			c-0.361-2.674,3.624-5.244,5.971-4.029c0.87-2.429,1.87-2.762,3-1C32.609,132.622,34.028,133.279,34,136z"/>
		<path style="fill:#6A6A6A;" d="M61.043,129c0.485,2.745,1.399,5.232,2.742,7.461L61,138c-1.245,0.372-2.259,2.652-4.034,2.192
			c-4.937,1.339-7.123-10.052-6.98-10.492C50.487,128.156,58.555,125.719,61.043,129z"/>
		<path style="fill:#595959;" d="M82.428,131.084c2.85,3.224,6.422,5.369,9.556,9.681c-4.54,0.086-9.683,1.169-13.984-0.765
			c-0.063-0.597-0.73-1.492-1-2c-2.639-2.46-3.031-4.151-1.177-5.073L78,128C79.069,129.376,81.336,129.849,82.428,131.084z"/>
		<path style="fill:#3A3A3A;" d="M41.094,129.491c-0.836,0.689-1.358,1.725-2.094,2.509l-3,4h-2c-1.038,0-2.069-0.846-3-1
			c-1.112,0.382-2.112-0.618-3-3c-2.648-2.488-2.648-4.155,0-5l13.753-0.049C42.331,128.251,41.555,128.917,41.094,129.491z"/>
		<path style="fill:#313131;" d="M60,107c0.829,0,1.34,0.803,2,1c2.113,0.311,3.096,2.204,2.948,5.678
			C63.424,113.44,61.775,114.214,60,116l-3,2h-1c-1.381,2.588-4.038,0.664-3-2c-2.725-1.721,1.209-8.837,4-9H60z"/>
		<path style="fill:#474747;" d="M15.793,123.963c1.515,0.66,3.163,1.965,1.677,3.049c0.253,3.092,0.309,7.687-0.096,10.714
			c-0.02,0.15-0.615,0.223-1.374,0.274c1.014,3.221-1.742,3.955-3,1c-2.731,1.779-4.268-10.293,0.929-14.286
			c0.317-0.095,0.506-0.671,0.877-0.732C15.119,123.93,15.475,123.967,15.793,123.963z"/>
		<path style="fill:#343434;" d="M40,142c3.688,0.773,5.237,1.716,4.646,2.828c1.057,2.991,1.175,5.382,0.354,7.172
			c-0.196,2.656-0.862,2.656-2,0c-1.815,1.75-2.133,1.466-2-1l-7.783-3.62L34,146c1.007-0.645,1.086-1.873,1-3
			c0.699-0.588,1.204-1.524,2-2C38.68,140.795,39.68,141.129,40,142z"/>
		<path style="fill:#4B4B4B;" d="M53,116l3,2c-0.539,2.153,1.075,5.37-0.494,7.601c-1.453,2.066-6.046,1.917-7.717,0.681
			C46.862,121.44,50.554,122.48,51,116C51.554,113.554,52.238,113.553,53,116z"/>
		<path style="fill:#505050;" d="M66,118l-3.761,5c1.876,0.786,1.749,1.664-0.239,2c-1.283,0.944-2.93,0.957-5.137,0.86
			C56.891,123.104,57,121.127,57,119c0.549-1.34,1.807-2.221,3-3c1.76-1.04,3.172-2.356,4.237-3.948
			C65.985,114.328,66.573,116.311,66,118z"/>
		<path style="fill:#404040;" d="M68,118c2.752,1.549,5.09,3.762,8,5c-4.332,1.881-9.291,2.114-14,2
			c-0.031-0.656,0.323-1.349,0.239-2L66,118C65.753,116.18,66.419,116.18,68,118z"/>
		<path style="fill:#313131;" d="M30,125c-1.085-0.07-1.509,1.374-2,2c-1.197,2.85-1.375,3.167-4,1c-1.515,2.713-4.978,1.111-4-2
			c-2.203,0.828-2.704,0.234-3.194-2.05C17.859,121.748,28.898,123.962,30,125z"/>
		<path style="fill:#4E4E4E;" d="M47,151c-0.637,0.07-1.149,0.087-1.223-0.085c-0.364-0.845-2-6.349-2.168-7.172l4.48-2.721
			c0.925-0.105,1.422-0.952,3.067-0.872C50.299,144.539,49.873,148.524,47,151z"/>
		<path style="fill:#575757;" d="M47,118c0.607-0.014,1.664,0.01,1.896,0.612c-0.019-0.049-1.631,6.833-4.896,6.388
			c0.219-2.108-0.538-4.382,0.322-6.748C44.748,117.601,46.491,118.062,47,118z"/>
		<path style="fill:#B7B7B7;" d="M20,126l-0.329,1.304c-0.399,4.986,0.387,9.227,2.358,12.725L21,142c-0.284,0.873-0.618,0.86-1,0
			c-2.733,0.287-4.306-1.261-4-4c1.559-4.34,1.843-9.863-0.207-14.037l1.013-0.013C18.078,124.312,19.121,125.043,20,126z"/>
		<path style="fill:#454545;" d="M48.089,141.022l-3.838,3.397L40,142c-0.893-0.414-2.721,0.549-3-1
			C40.11,139.14,44.889,139.396,48.089,141.022z"/>
		<path style="fill:#434343;" d="M47,157c-0.607-0.092-1.369,0-2,0c-0.67-1.058-1.207-4.291,0-5c0.354-1.554,0.708-2.288,2-1
			C48.784,152.721,47.604,154.769,47,157z"/>
		<path style="fill:#3A3A3A;" d="M30,125c2.509,0.162,4.988-0.474,8.041,0.42C35.596,126.272,31.984,126.87,30,125z"/>
		<path style="fill:#A0A0A0;" d="M60,116c-0.417,1.393-1.797,2.363-3,3v-1C57.449,116.668,58.652,116.032,60,116z"/>
		<path style="fill:#414141;" d="M207,83c1.49,1.048,2.544,1.924,0.525,2.4c0.214,6.335,0.039,12.535-0.525,18.6
			c-2.248,1.194-4.628-0.468-7,0c-1.208-1.643-2.102-3.494-3.859-5.356L200,74h1C202.581,77.112,205.694,79.787,207,83z"/>
		<path style="fill:#D2D2D2;" d="M211,85c-1.028,4.915-1.372,10.073-1.031,15.472c-0.089,1.959-0.745,3.134-1.969,3.528
			c-0.288,0-0.751-0.132-1,0V83C208.535,83.296,209.703,84.282,211,85z"/>
		<path style="fill:#C4C4C4;" d="M217,85l-2.104,1.645c2.55,1.764,3.86,3.385,4.214,5.696c-0.214,0.066-0.451,0.069-0.669,0.124
			c-2.802,0.855-7.77-4.744-7.441-7.465H217z"/>
		<path style="fill:#D2D2D2;" d="M218.943,106.093c-2.746,0.079-5.247-0.769-7.943-1.093v-1
			C213.693,104,216.862,104.296,218.943,106.093z"/>
		<path style="fill:#363636;" d="M86,102c2.023-1.342,5.182-0.095,3,2c2.484,1.837-0.996,7.838-3.877,7
			c-1.198,2.785-2.572,4.118-4.123,4l-8-12v-1l0.705-3.286C77.874,99.649,81.973,100.744,86,102z"/>
		<path style="fill:#A7A7A7;" d="M87,89l0.422,1.307c-3.941,2.521-7.657,4.767-11.149,6.737l9.124,1.607L86,101
			c0.873,0.284,0.86,0.618,0,1c-4.26-0.789-12.749-3.214-13,0c0-2.919,0.351-6.271-1-9c1.057,0.968,2.469,0.92,4.011,0.099
			l10.022-5.337c-0.855-2.291-1.373-5.966-1.039-7.824C89.031,79.848,89.967,86.8,87,89z"/>
		<path style="fill:#AFAFAF;" d="M65,108c-0.707,3.683,1.362,6.797,3,10c-0.573,0.183-1.484-0.287-2,0
			c-0.063-1.408-0.654-3.019-1.805-4.359c-1.772,1.321-2.73,2.324-4.195,2.359c0.495-1.654,2.252-2.101,3.554-3.458
			c1.567-1.632-0.169-3.823-1.554-4.542C62.924,108.276,64.052,107.803,65,108z"/>
		<path style="fill:#525252;" d="M163,112c0.676-0.399,2.739-0.165,3.007,0.546c0.138,0.366-2.225,13.488-4.007,17.454
			c0.584,1.813-0.093,5.732-2.089,4.176l-0.9,1.209L152,131c-0.844-1.05-2.208-1.077-3-2l-6-7c-2.442,0.943-2.719-0.037-1-2
			l-1.78-2.786L158,112.78C158.937,110.102,161.251,109.967,163,112z"/>
		<path style="fill:#AFAFAF;" d="M159.911,134.176c1.869-0.152,1.965,0.763,0.995,2.299c-0.51,0.313-1.074,0.52-1.664,0.619
			c-1.395-3.222-5.203-3.556-7.241-6.094C155.781,131.318,155.087,134.631,159.911,134.176z"/>
		<path style="fill:#D9D9D9;" d="M57,107c-2.179,2.388-5.476,5.819-4,9h-2c0.275-3.989,2.647-7.839,5-11
			C56.085,105.707,56.846,106.3,57,107z"/>
		<path style="fill:#BCBCBC;" d="M54,102c-1.784-0.163-3.707,0.604-5-1C50.825,100.906,52.708,100.565,54,102z"/>
		<path style="fill:#3E3E3E;" d="M206.932,51.113c0.027,0.587,0.313,0.885,0.877,0.953c0.251,2.387,0.475,4.84-0.808,6.934
			c-2.734,3.31-11.81,4.685-13,0c-2.682-0.186-5.072-7.107-2-8c-0.143-0.743-0.219-1.336-0.062-1.407
			c2.389-1.066,5.451-1.664,8.049-2.158c-0.083-1.921,3.521-0.254,4.855,0.691C205.794,48.801,206.492,50.027,206.932,51.113z"/>
		<path style="fill:#4D4D4D;" d="M217,36c-1.026,1.447-2.03,3.7-4,4l-5,4c-0.667,1.293-1.883,2.114-3,3
			c-0.866,1.717-6.148,0.19-3.469-1.053l-0.061-9.991L203,36c0.31-3.198,4.084-5.354,7-4c1.251-0.903,3.539-1.215,4.545-0.241
			C215.787,32.962,216.834,34.352,217,36z"/>
		<path style="fill:#BFBFBF;" d="M191,27c0.829,2.047-0.001,2.757-1.968,3.055c-0.308,0.782,1.547,15.984,2.016,16.681
			c0.228,0.339,7.722-1.512,7.972-1.836c0.567-0.735-0.207-6.389-0.504-7.841L200,35c1.559-2.129,2.403-1.509,3,1
			c-1.258,1.205-1.607,9.978-0.383,10.873c0.549,0.401,1.805-0.104,2.383,0.127c0.919,1.191,1.861,2.582,1.932,4.113
			C203.195,45.886,195.327,48.208,192,51c-1.786,1.25-6.636,0.755-8-1c1.275-0.89,2.55-1.825,4.402-2.957
			c-1.888-4.46-0.809-14.232-2.876-14.771C184.9,32.109,183.764,33.031,183,33c1.178-2.034,3.646-3.414,3-6H191z"/>
		<path style="fill:#BBBBBB;" d="M213,40c-1.109,1.925-2.643,3.912-5,4C209.082,41.903,210.682,40.353,213,40z"/>
		<path style="fill:#383838;" d="M128,124l0.848-1.15c2.76,3.517,5.144,7.567,7.152,12.15c2.837-1.289,3.654,0.072,1.197,2
			c1.68,2.109,2.527,4.119,2.541,6.029c0.31,0.856,1.964,3.529,0.35,3.772c-3.058,0.459-5.579-1.499-8.087-0.801
			c-2.453-1.641-5.828,0.483-8-2l-1.107-0.052L119,135c-1.337-2.315-0.531-6.966,0-10C118.885,119.138,124.844,121.662,128,124z"/>
		<path style="fill:#B5B5B5;" d="M124,144l-2,1c-2.829-1.292-6.4-7.96-3-10C121.447,137.485,122.214,141.066,124,144z"/>
		<path style="fill:#5D5D5D;" d="M194.134,27c0.918,0.286,0.935,0.62,0.052,1l3.992,4.929c2.507-0.896,2.931-0.377,1.822,2.071
			c1.236,3.668,1.269,7.549,0.877,11.831c-3.057-0.24-11.205,4.106-11.71,0.134l-2.374-18.667c2.139-0.403,3.424-0.271,4.207-1.299
			H194.134z"/>
		<path style="fill:#5D5D5D;" d="M202,25c2.162,2.597,7.264-0.965,9.815,3.716c0.632,1.161-0.773,2.398-1.815,3.284
			c-2.215,1.598-4.523,2.94-7,4c-1.055-0.146-2.081-0.457-3-1c-0.416-0.716-1.577-1.273-1.822-2.071L194.186,28
			c0.03-0.328-0.009-0.675-0.052-1L194,26C196.593,25.084,199.277,24.867,202,25z"/>
		<path style="fill:#545454;" d="M84,147c2.262-1.774,3.31-0.322,2,2l3,4c1.244,0.765,0.911,2.098-1,4l-0.717,1
			c-1.344,0.44-2.397,1.509-3.652,2.96C81.378,159.42,79.593,157,77,157c-0.601-4.723,0.782-9.289,1-14
			c0.565-0.212,1.045-0.691,1.594-0.967C80.719,144.624,82.143,146.032,84,147z"/>
		<path style="fill:#474747;" d="M100,158c-2.031-0.926-3.9-2.235-6-3c-2.252-0.93-1.955-1.951-1-4c0.656-3.019,1.989-5.019,4-6
			c3.766,3.766,8.607,6.356,12.197,10.917c-0.994,1.425-2.47,3.681-3.809,3.677C103.371,158.979,101.87,157.606,100,158z"/>
		<path style="fill:#C5C5C5;" d="M91,154c-0.557,1.361-1.705,2.36-3,3c0.228-1.344,0.86-2.639,1-4
			C90.459,151.52,91.319,151.942,91,154z"/>
		<path style="fill:#C9C9C9;" d="M94,155c-0.997-0.363-2.079-0.386-3-1c-2.093-2.044-0.857-3.678,2-3
			C92.995,152.404,93.209,153.809,94,155z"/>
		<path style="fill:#555555;" d="M119,135c0,4.812,3.692,6.639,3,10c-3.859,1.929-13.282,4.545-15-1c-2.353-3.081-2.019-5.081,1-6
			c-0.526-1.024,0.807-1.691,4-2l5-2C117.944,131.985,118.627,132.968,119,135z"/>
		<path style="fill:#424242;" d="M96,144c-0.88,2.212-1.88,4.545-3,7c-0.654,0.98-1.539,1.873-2,3c-0.601-0.401-1.34-0.704-2-1l-3-4
			c-0.807-0.426-1.299-1.443-2-2c-0.036-2.029-1.682-3.05-3.167-4.838C84.825,142.35,96.169,140.591,96,144z"/>
		<path style="fill:#4E4E4E;" d="M107,144c0.205,1.844-0.384,3.447-2.443,4.931l-4.94-3.69c-0.897-0.67,0-1.749,0.383-2.241
			c-0.264-2.669,2.064-2.939,4-1.814C105.92,138.989,106.92,139.927,107,144z"/>
		<path style="fill:#414141;" d="M101,138c3.003,0.818,4.003,1.88,3,3.186c-0.86,1.406-2.513,1.566-4,1.814
			c-2.069,0.344-3.509-1.144-6.016-2.528c1.249-0.787,2.501-1.076,3.016-2.472C98.396,136.69,99.517,136.993,101,138z"/>
		<path style="fill:#B8B8B8;" d="M97,145l-4,6c0.01-2.608,1.03-5.259,3-7L97,145z"/>
		<path style="fill:#454545;" d="M41,151c0.739-0.034,1.449,0.606,2,1c1.948,0.383,1.845,3.356,1,5c2.104,1.879,0.376,3.461-2,2
			l-5,4c2.064,2.42-0.238,4.424-3,3c-1.242-0.676-2.145-1.875-3-3c-2.608-4.53-3.052-6.048-0.482-10.824
			c0.245-2.741,1.355-4.411,3.33-5.009C35.869,148.883,38.253,150.16,41,151z"/>
		<path style="fill:#454545;" d="M48,163l3,2c1.738-2.099,2.229-1.72,2,1l6.134,3.424c0.911-1.115,1.899-0.229,2.964,2.657
			c0.432,0.672,0.784,1.725,0.814,3.06C56.789,175.066,48.158,175.503,44,174C43.781,172.669,45.924,161.601,48,163z"/>
		<path style="fill:#444444;" d="M53,166c-0.367-0.542-1.531-0.528-2-1c-2.076,0.479-2.76,0.11-3-2c0.617-1.494,1.744-2.988,3-4
			c2.975-2.396,6.498-4.047,9-7c1.371-1.592,2.126-1.719,2.266-0.38l-2.093,18.387L53,166z"/>
		<path style="fill:#4D4D4D;" d="M34,166c1.062-0.955,2.273-1.748,3-3l5-4l2-2c0.284-0.873,0.618-0.86,1,0
			c0,1.015,1.214,1.833,1.539,2.897c-0.353-1.153-3.74,11.767-4.176,12.381c-3.388-0.862-6.509-0.961-9.119-2.727
			C32.334,168.935,33.696,166.609,34,166z"/>
		<path style="fill:#3F3F3F;" d="M26,157c1.487-0.5,2.23-0.751,2.23-0.751L31,163l0.873,6.168
			c-4.741-1.045-10.276-2.191-14.043-4.46c-1.991-2.294-0.832-4.297,2.171-3.709C20.911,157.48,22.192,155.33,26,157z"/>
		<path style="fill:#292929;" d="M17.005,168.171c1.662-0.495,3.279,1.063,2.995,2.829c2.764,0.459,2.596,1.803-0.129,2.415
			c1.417,2.577,0.442,3.389-1.871,1.585l-6.803,3.082C9.663,176.395,10.424,173.826,11,172c0.518-1.643,2.42-3.032,2.273-5.052
			C14.632,166.238,15.85,167.451,17.005,168.171z"/>
		<path style="fill:#606060;" d="M21,156c1.025,0.534,0.692,2.201-1,5c-0.769,1.205-1.548,2.423-2.171,3.709
			c-1.695,0.72-3.328-1.268-4.646-1.627c1.11-2.664,0.656-6.048,2.816-8.081C17.331,155.864,19.376,156.029,21,156z"/>
		<path style="fill:#1B1B1B;" d="M34,172l0.157,3.525c0.122,2.737-6.593,1.547-7.22,1.083c-0.628-0.463-0.973-1.577-0.937-2.609
			c-2.438-1.397-1.676-2.541,1-2c0.685-1.37,1.797-2.148,3.066-1.658C31.572,170.923,32.928,171.099,34,172z"/>
		<path style="fill:#3B3B3B;" d="M43,179c-0.344-0.206-0.678-0.427-1-0.667c-0.436-2.599-3.711-0.767-6.024-1.385
			c-1.772-0.473-0.682-3.584-0.839-4.825c2.337,0.254,5.367,0.475,7.425,2.357C43.747,175.563,42.767,177.895,43,179z"/>
		<path style="fill:#232323;" d="M27,172l-1,2c-1.028,0.583-2.155,0.945-3.286,1.273c-1.896,2.547-3.818,1.16-2.843-1.858
			c0.215-0.76-0.034-1.641,0.129-2.415c-0.741-2.333,0.032-2.807,1.861-1.139c1.579-0.213,3.007-0.864,4.993-0.906
			C27.178,170.333,26.962,171.176,27,172z"/>
		<path style="fill:#292929;" d="M21.861,169.861C21.201,169.95,20.674,170.867,20,171c-1.431-0.353-2.86-1.26-2.995-2.829
			c1.244-1.358,2.976-0.634,5.237-0.16C23.595,168.294,22.24,169.244,21.861,169.861z"/>
		<path style="fill:#4D4D4D;" d="M106,72c0.851,1.252,0.891,2.844,2,4c3.2-1.546,4.404,4.05,2.094,5.906
			C110.488,85.01,105.364,92.622,102,92c-0.943,1.178-3.233,1.046-4.97,0.91l-0.051-12.93C96.971,78.111,98.411,77.147,99,76
			l4.037-2.963c0.146-0.382,0.849-0.583,0.963-1.037C104.493,69.176,104.739,69.629,106,72z"/>
		<path style="fill:#ACACAC;" d="M103.037,73.037C102.312,74.931,100.805,75.624,99,76C99.832,74.38,101.047,72.902,103.037,73.037z
			"/>
		<path style="fill:#B9B9B9;" d="M106,72h-2c0.11-1.724-0.054-3.435-0.262-5.154C105.879,67.698,104.869,70.337,106,72z"/>
		<path style="fill:#3F3F3F;" d="M76,156c0.01,0.271-0.152,0.793,0,1c1.633,2.218-0.37,4.591,0,7c-0.565,0.761-0.179,2.28-1,3
			c-0.912,0.8-1.643,1.826-2,3c-0.207,0.68-0.681,2.425-1.58,2.202c-1.982-0.491-2.294,0.887-3.42,1.68
			c-2.05,1.444-4.357-0.379-5.902-1.801c-2.098-1.817-2.603-3.036-1.516-3.659c0.809-5.826,1.157-11.437,1.046-16.833L63,149
			c0.109-1.561,1.487-1.206,4.135,1.068C70.528,150.823,74.799,152.659,76,156z"/>
		<path style="fill:#3B3B3B;" d="M20,142c2.306,1.385,2.682,2.046,0,3c1.194,1.424,0.593,1.965-1,1c-1.398,1.445-3.182,2.006-5,1
			c-1.636-1.7-4.005-2.705-4.885-5c0.676-1.54,2.453-2.154,3.885-3c0.836-0.494,2.502,0.331,3-1
			C17.685,138.842,19.168,140.287,20,142z"/>
		<path style="fill:#4D4D4D;" d="M192,51c0.32,2.776,1.951,5.191,2,8c1.714,2.069,1.732,3.116,0.055,3.142
			c-1.424,0.177-1.588,2.408-3.154,2.786c-2.572,0.62-4.728-1.086-6.901-0.927c-1.519-3.381-2.33-7.098-2.434-11.153
			c-2.136-1.754-0.178-2.932,2.434-2.847C187.009,48.847,189.827,49.175,192,51z"/>
		<path style="fill:#606060;" d="M218,64c0.801,0.676,0.871,2.026,1.152,2.942c-0.202,0.766,1.177,1.873-0.927,3.314
			c-0.119-2.577-3.165-4.553-4.548-5.256c-2.293,2.183-3.724,0.424-1.677-2c0.041-1-5.669-8.324-2.48-9.892
			C215.939,49.952,213.949,60.578,218,64z"/>
		<path style="fill:#575757;" d="M212,63c-0.03,0.737,1.091,1.702,1.677,2c0.165,1.457,1.362,2.585,2.415,3.625
			C211.52,70.233,208.307,67.13,205,67c-2.358-0.401-2.551-1.135-1-3l-1.581-2.002L207,59L212,63z"/>
		<path style="fill:#4F4F4F;" d="M204,64c0.546,0.917,0.87,1.943,1,3c-2.761-0.108-5.234,0.288-6.884-3l-1.287-2.641
			c2.436,0.303,4.894,0.268,7.374-0.107L204,64z"/>
		<path style="fill:#B1B1B1;" d="M184,50c-3.669,2.561-0.784,7.385,0,14c-0.327,0.024-0.681-0.069-1,0
			c-1.458-3.614-1.443-7.625-2.236-12.073c-1.822,0.279-3.196,1.207-4.764,1.073c1.163-1.567,3.857-1.589,4-4
			C181.103,49.349,182.777,50.469,184,50z"/>
		<path style="fill:#3F3F3F;" d="M198.116,64c0.26,1.541-1.247,2.206-2.486,2.071c-0.705-0.077-2.244,0.08-2.417-1.365
			c-0.083-0.697,0.858-1.654,0.842-2.564C194.172,59.895,198.546,61.694,198.116,64z"/>
		<path style="fill:#424242;" d="M105,98c2.37-1.82,4.937,1.732,3.123,3.877c0.468,1.339,1.25,2.34,2.347,3.003
			c-4.3,3.802-8.79,5.842-13.47,6.121c-3.41,1.626-5.782-0.686-4-4c-2.528-2.098-3.528-4.098-3-6c-1.302-2.748,0.921-6.224,4-6
			C96.227,90.951,106.052,99.306,105,98z"/>
		<path style="fill:#343434;" d="M93,93l1,2c-1.159,2.107-2.393,4.125-4,6c-0.142,1.477-1.475,1.477-4,0
			c-3.742-1.604-8.265-1.165-11.997-2.538c-0.165-1.206-0.122-2.967,0.394-3.505C74.309,95.048,85.822,89.835,87,89
			C89.032,87.073,93.714,90.453,93,93z"/>
		<path style="fill:#2E2E2E;" d="M119,76c2.01,0.329,2.754,1.011,2.234,2.047c0.466-0.211,0.923-0.36,1.346-0.294
			c1.424,0.223,10.196,14.354,9.872,15.829c-0.1,0.455-0.413,0.864-0.787,1.259c0.702,2.039-0.076,2.6-1.795,1.299
			c-2.65,1.835-11.19-2.468-9.95-5.94c-3.525-0.065-4.136-4.34-2.919-7.202c0.214-1.023,0.14-2.639-1-3
			c-0.119-1.788-0.432-3.845,1.003-5.15C117.52,75.237,118.82,75.143,119,76z"/>
		<path style="fill:#292929;" d="M93,93c-2.128-0.804-4.241-2.593-6-4c-0.558-2.933-0.136-6.562-2.006-9.063
			c0.062-0.344-0.109-1.375,0.28-1.733l10.725-0.161l-0.092,14.708C94.947,93.297,93.65,92.997,93,93z"/>
		<path style="fill:#323232;" d="M113,104c-1.106,1.18-2.432,1.8-3.977,1.859c0.417-1.282,0.117-2.61-0.899-3.982L105,98
			c3.194-4.036,6.964-7.806,11-11c1.409,1.107,1.867,2.86,1.376,5.259c1.15,3.596,1.417,6.85,0.8,9.76
			C116.478,102.173,114.753,102.833,113,104z"/>
		<path style="fill:#D1D1D1;" d="M119.919,90.202c-0.686,1.127-0.103,3.569,1.749,7.328c1.897,2.538,3.341,5.028,4.332,7.47
			c0.873,0.284,0.86,0.618,0,1c-0.514,2.628,0.328,5.529,2.527,8.703c1.723,1.87,2.214,3.636,1.473,5.297l2.31,0.923
			c0.369,3.39,1.599,5.415,3.69,6.077c2.895,0.965,1.621,6.11,0,8c-3.964-1.929-3.859-10.307-8-11c-1.777-0.745-1.991-1.614,0-2
			c-2.599-1.062-5.231-5.319-4-8c-1.124-0.473-1.805-0.165-2,1c1.954,2.386,0.881,3.67-1.806,2.194
			c-0.865,0.326-1.593,0.194-2.157-0.49c1.548-10.599,0.329-14.185-3.655-10.757L113,104l4.008-3.55
			C118.04,95.871,116.15,91.242,116,87c-0.048-1.349-0.471-3.352,1-4C116.38,85.967,117.742,88.26,119.919,90.202z"/>
		<path style="fill:#454545;" d="M112,84c0.23,0.802,1.04,1.282,2.006,2.554c-3.387,2.818-6.015,6.895-10.104,9.415
			c-1.26,0.399-2.491-3.072-1.901-3.969c2.691-3.363,4.688-7.431,8.094-10.094C112.269,79.924,113.585,81.448,112,84z"/>
		<path style="fill:#2D2D2D;" d="M115,82c-0.284,0.559,0.488,2.523-0.467,2.81c-0.605,0.182-1.763-1.204-2.533-0.81
			c-0.289-1.006-1.356-1.384-1.906-2.094c-1.204-1.694-0.6-4.348-2.094-5.906c-0.09-0.938-0.319-2.835,0.64-2.862
			c0.94-0.026,3.409-0.892,4.434-0.04C115.467,75.087,114.506,79.186,115,82z"/>
		<path style="fill:#2B2B2B;" d="M19,180v8c-0.162,1.032-1.302,1.544-2,2c0.203,2.23-0.797,2.23-3,0
			c-0.331-0.32-0.514-0.834-0.874-1.126c-2.743-2.228-4.067-5.116-1.777-8.915C13.006,177.21,16.749,178.356,19,180z"/>
		<path style="fill:#A3A3A3;" d="M17,190l-0.083,4.211c-1.471-1.007-1.662-2.997-2.917-4.211H17z"/>
		<path style="fill:#646464;" d="M211,85c3.123,1.728,5.268,4.661,7.441,7.465c-0.598,2.175-3.877,3.032-3.777,5.535L211,103v1h-3
			l0.051-18.732C209.125,84.703,210.319,85,211,85z"/>
		<path style="fill:#C3C3C3;" d="M211,103c0-2.264,1.983-3.702,3.664-5C214.761,100.427,213.138,101.863,211,103z"/>
		<path style="fill:#383838;" d="M29,186c-4.192-2.348-5.192-4.015-3-5c1.784-1.879,4.665-4.826,7.714-2.435
			c1.14,2.164-0.212,6.518,0.312,9.458C31.565,188.136,30.693,186.343,29,186z"/>
		<path style="fill:#292929;" d="M22.714,175.273l0.436,1.877c1.223,1.805,0.552,2.268-1.15,0.85c-0.939,0.503-1.933,0.874-3,1
			c-0.631-0.509-1.44-1-1.738-1.738c-0.338-0.838,0.287-1.633,0.738-2.262c0.636-0.288,1.673-0.882,1.871-1.585
			C20.584,174.338,21.612,174.923,22.714,175.273z"/>
		<path style="fill:#1C1C1C;" d="M26,181c1.021,3.052-1.268,2.767-3,1l-1-4c0.424-0.227,1.135-0.184,1.15-0.85
			c1.023-0.989,2.224-0.594,2.975,0.297C27.074,178.573,26.335,179.828,26,181z"/>
		<path style="fill:#3D3D3D;" d="M29,186c-1.827,1.843-6.04,1.602-8,0c-0.61-1.945,0.046-2.595,2-2
			C24.035,182.189,26.035,182.856,29,186z"/>
		<path style="fill:#1D1D1D;" d="M23,182c2.321,0.153,2.259,1.431,0,2c-0.298,0.967-1.052,1.672-2,2
			c-1.714-1.401-1.2-4.182-0.618-5.982C21.671,180.877,22.209,181.967,23,182z"/>
		<path style="fill:#363636;" d="M210,15c2.406,2.878,3.048,6.161-1.189,6.248c-1.417,0.237-2.423-0.535-3.6-1.063
			c-0.204-1.053-0.242-2.158-0.801-3.112c1.005-1.328,1.071-3.272,2.591-4.073C208,13.376,209.533,13.89,210,15z"/>
		<path style="fill:#383838;" d="M217,14c-0.117,1.061-0.48,2.07-1,3c-1.069,0.599-2.526-0.131-3,1c-1.686,1.7-3.284-3.177-1-4
			c1.326-0.673,1.939-2.177,3.139-3C215.201,12.329,215.569,13.691,217,14z"/>
		<path style="fill:#8E8E8E;" d="M212,14c-0.512,0.615-0.874,1.407-0.557,2.118c0.349,0.784,0.947,1.356,1.557,1.882
			c-0.756,1.257-0.401,2.711-0.06,4.06c-1.36,2.038-3.267,1.286-4.129-0.812c0.784-0.744,2.209-1.46,2.098-2.727
			C210.814,17.44,210.451,16.072,210,15C210.335,14.145,211.362,14.324,212,14z"/>
		<path style="fill:#989898;" d="M218.094,2.9L215,8c-0.033-0.704,0.144-1.479-0.121-2.357C214.664,4.931,213.782,4.817,213,5
			C213.245,2.819,216.707,3.639,218.094,2.9z"/>
		<path style="fill:#484848;" d="M142,120c0.247,0.554,0.902,1.443,1,2c0.286,1.62,2.264,4.029,1.935,5.956l-1.754,10.251
			c-0.136,0.793-0.281,1.351-0.421,1.978c-0.144,0.645-1.205,0.447-1.684,0.698c-1.773,0.159-3.067-1.135-3.879-3.882
			c0.191-1.005-0.361-1.593-1.197-2c-1.019-2.458-0.401-5.311,0-8l1-5c-1.28-1.832-1.314-3.154,1-4
			c-0.734-3.112,5.892-1.309,3.468,0.907L142,120z"/>
		<path style="fill:#D1D1D1;" d="M141.076,140.882c-0.497,0.584-0.613,1.683-1.339,2.147c-1.679-1.534-2.98-3.711-2.541-6.029
			C138.755,137.993,140.147,139.275,141.076,140.882z"/>
		<path style="fill:#2E2E2E;" d="M166,110c-0.982,0.695-2.072,1.231-3,2c-1.536,0.906-3.198,0.678-5,0.78l-16.711,4.61
			c-3.491-0.858-5.254-2.321-5.289-4.389c-1.197-1.887-1.53-3.554-1-5l4-3l4-3l4-3l4-3c0.817-0.234,1.664-0.553,2.867-0.663
			l9.933,9.859C165.296,106.68,166.371,108.125,166,110z"/>
		<path style="fill:#636363;" d="M162,137c-0.31-0.125-0.923-0.174-1.094-0.525c-0.365-0.748-0.573-1.575-0.995-2.299
			c1.65-0.871,1.459-2.773,2.089-4.176C164.038,129.519,161.927,135.533,162,137z"/>
		<path style="fill:#5A5A5A;" d="M205.211,20.185c0.344,1.773,1.788,2.807,2.892,4.605c-2.541,0.345-4.308,0.297-6.103,0.21
			c-0.781-0.938-2.173-0.868-4.029-1.274c0.16-2.646,0.635-5.035,2.193-8.015C202.064,17.649,203.171,19.27,205.211,20.185z"/>
		<path style="fill:#373737;" d="M212.94,22.06c0.358,0.3,0.607,0.748,1.06,0.94v3.134c-1.419,0.687-3.364-0.504-4.426-1.903
			c-0.578-0.762-2.182-1.636-0.763-2.983C210.231,21.01,211.805,21.107,212.94,22.06z"/>
		<path style="fill:#333333;" d="M26,146c1.337,0.285,2.456,1.986,4,2l2.2,0.11c-1.477,3.389-2.817,6.857-4.02,10.406L26,157
			l-1.847-0.508C22.236,157.23,21.185,157.066,21,156c-0.439-1.741-3.372-1.149-3.95-2.927c-0.94-2.892,1.557-4.816,1.95-7.073
			c0.077-0.439,0.681-0.755,1-1C20.611,142.776,22.611,143.109,26,146z"/>
		<path style="fill:#C9C9C9;" d="M176,104c-0.754-1.776-1.285-2.876-1-5C176.163,100.784,175.676,101.924,176,104z"/>
		<path style="fill:#CACACA;" d="M177,109c-1.788-1.436-0.279-3.302-1-5C176.261,105.672,177.725,106.917,177,109z"/>
		<path style="fill:#B8B8B8;" d="M140,82c-4.618-0.773-9.333-1.556-14.145-2.35L125,77c4.261-0.618,8.245,1.315,13.013,1.078
			c0.026-2.564-0.519-4.721,0.987-6.078C138.759,75.379,138.93,78.786,140,82z"/>
		<path style="fill:#C4C4C4;" d="M125,77c-0.726,2.44-1.996,2.686-3.766,1.047c-0.559-0.67-1.997-0.923-2.234-2.047
			C121.294,75.706,123.18,75.811,125,77z"/>
		<path style="fill:#BEBEBE;" d="M139,72c0.161-2.261-0.931-5.386,1-7C139.871,67.318,140.876,70.31,139,72z"/>
		<path style="fill:#BEBEBE;" d="M188,78c-1.388,1.378-2.94,2.326-5.05,1.95C184.127,78.381,186.104,77.916,188,78z"/>
		<path style="fill:#BEBEBE;" d="M197,74c-1.101,1.769-3.147,1.844-5,2C192.75,73.757,195.496,74.769,197,74z"/>
		<path style="fill:#AEAEAE;" d="M171,69c-0.789,1.818-3.381,1.46-5,2C167.049,69.339,169.119,68.836,171,69z"/>
		<path style="fill:#505050;" d="M154,81c0.643,1.388,1.787,2.051,2,3c0.24,1.286-0.166,2.699,0,4c0.274,2.142-0.048,3.183-1,4
			c-1.312,1.126-1.461,2.287-2.706,3.172C151.591,92.42,149.007,92.933,148,92c-2.399,1.94-6.214-1.03-5-4
			c-2.557-0.806-3.557-2.139-3-4C144.352,82.049,149.227,81.1,154,81z"/>
		<path style="fill:#C6C6C6;" d="M171,55c-0.699,0.811-2,1.91-1.933,3.091c-1.194-1.958-3.345-1.378-5.067-3.091H171z"/>
		<path style="fill:#BCBCBC;" d="M176,53c-1.203,1.621-3.036,2-5,2C172.289,53.505,173.974,52.826,176,53z"/>
		<path style="fill:#B8B8B8;" d="M183,33c-0.912,1.575-2.012,3.14-4,3.283C179.593,34.491,181.008,32.919,183,33z"/>
		<path style="fill:#474747;" d="M125,77c4.81,3.141,11.192-0.426,15,5c0.199,0.599-0.145,1.383,0,2
			c0.771,2.218,0.438,3.285-1,3.199c3.031,2.131-1.899,7.934-4.99,7.507c-0.579,1.922-1.548,1.979-2.346,0.136l-10.43-16.795
			C122.133,76.757,123.687,77.191,125,77z"/>
		<path style="fill:#525252;" d="M109,119c3.055,2.206-0.547,10.699-4,11c0.053,3.186-0.518,4.038-1.712,2.557
			c-2.753,1.239-4.182,0.72-4.288-1.557c-0.793-2.692-1.761-6.111-4-8c-1.504-1.504-0.171-2.837,4-4c-1.019-2.658,0.151-3.158,2-1
			C103.565,115.862,108.034,115.988,109,119z"/>
		<path style="fill:#5D5D5D;" d="M108,138c-0.877,3.024-3.21,3.024-7,0c-2.355-0.393-3.022-1.06-2-2c-0.04-0.328,0.068-0.678,0-1
			c-0.793-1.529,4.495-3.065,5.113-2.955C104.494,132.113,108.949,137.543,108,138z"/>
		<path style="fill:#B1B1B1;" d="M112,136c-1.13,1.293-2.67,1.264-4,2c-0.886-1.808-2.567-3.068-4.219-4.751
			c-1.867,0.37-3.287,1.15-4.781,1.751c-0.266-1.26,0.363-2.768,0-4c0.874,0.626,2.253,1.189,3.388,1.003
			c0.868-0.142,2.247-0.994,2.612-2.003C107.423,131.994,109.756,133.994,112,136z"/>
		<path style="fill:#C1C1C1;" d="M99,119c-1.32,1.586-4.219,1.68-4,4c-2.492-2.102-6.182-0.687-9,0c-0.873-0.284-0.86-0.618,0-1
			c-0.185-0.656-0.306-1.177-0.207-1.223c1.714-0.798,11.805-3.987,12.457-3.171C98.573,118.012,98.8,118.495,99,119z"/>
		<path style="fill:#D2D2D2;" d="M84,120c1.479-0.076,2.146,0.59,2,2v1c-2.06,0.405-3.202-1.527-5-2c0.117-0.373,0.607-1,1-1
			C82.462,117.208,82.809,117.604,84,120z"/>
		<path style="fill:#C7C7C7;" d="M101,138c-1.27-0.194-2.716,0.077-4,0c0.336-0.91,1.167-1.581,2-2
			C99.737,136.541,100.184,137.571,101,138z"/>
		<path style="fill:#CDCDCD;" d="M76,156c-4.63-0.218-9.42-7.313-13-7v-2c-0.827-0.286-0.814-0.62,0-1
			c1.798,0.826,3.088,3.902,5.388,3.702l7.51-0.652C76.185,151.588,75.922,153.878,76,156z"/>
		<path style="fill:#C0C0C0;" d="M77,138c-0.865-0.636-1.626-1.116-2.371-2.837c-1.877,1.657-4.931-0.016-6.629,0.837
			c1.365-1.2,4.618-1.195,6.525-2.506C76.527,132.119,75.9,128.86,78,128C78.281,133.098,74.545,131.435,77,138z"/>
		<path style="fill:#C4C4C4;" d="M68,136c-2.264,1.137-4.597,1.281-7,2c2.511-3.681-0.742-5.431,0.043-9
			c2.507,3.306,1.382,6.583,3.619,6.843C65.451,135.935,67.407,136.521,68,136z"/>
		<path style="fill:#D6D6D6;" d="M63,146v1c-2.611-0.85-5.996-2.25-6.691-5.081C58.972,142.424,60.605,144.899,63,146z"/>
		<path style="fill:#939393;" d="M84,119c0.873,0.284,0.86,0.618,0,1h-2c-0.791-1.464-0.419-3.551-1-5l4.123-4l1.249,0.606
			C86.229,113.939,85.438,116.404,84,119z"/>
		<path style="fill:#A4A4A4;" d="M62.098,172.081c-2.766-2.546-6.956-2.921-9.098-6.081c2.383,0.374,4.552,1.607,6.686,3.013
			l1.837-16.442c0.671-0.795-0.905-0.633-1.523-0.571c0.822-0.971,1.474-2.867,3-3C63,155.808,60.142,169.035,62.098,172.081z"/>
		<path style="fill:#AFAFAF;" d="M36,136c-0.419-2,1.484-3.1,3-4C38.808,133.745,37.729,135.497,36,136z"/>
		<path style="fill:#454545;" d="M20,126c1.034,1.125,2.645,1.403,4,2c1.646-0.233,2.98,1.101,4,4c1.552,1.604,2.475,2.957,0,4
			c-1.589,1.86-3.712,3.127-5.971,4.029c-2-0.072-4.04-1.449-4.05-4.011l-0.033-8.093c-0.004-0.862,0.139-1.585,0.603-1.881
			C18.906,125.814,19.58,125.988,20,126z"/>
		<path style="fill:#A6A6A6;" d="M41,151c-2.84,0.131-5.071-1.49-7.865-3.102C27.305,160.125,29.996,155.901,31,163
			c-1.659-2.184-2.798-4.386-5-6c3.349,1.055,5.133-8.406,4-9c1.581-0.052,2.729-1.187,4-2C35.017,148.851,39.478,148.642,41,151z"
			/>
		<path style="fill:#AFAFAF;" d="M26,146c-2.136-0.455-4.209-2.375-6-1c-0.198-0.913,0.305-2.136,0-3h1
			C22.736,143.268,25.016,144.013,26,146z"/>
		<path style="fill:#B2B2B2;" d="M31,135c-0.934,0.17-1.948,1.07-3,1c0.918-1.187,0.434-2.684,0-4
			C29.304,132.668,30.428,133.615,31,135z"/>
		<path style="fill:#AAAAAA;" d="M28,127c-1.186,1.514-0.559,3.305,0,5c-1.716-0.879-3.081-2.32-4-4L28,127z"/>
		<path style="fill:#ADADAD;" d="M48.089,141.022l-2.647,3.311c-0.1,2.101,0.098,5.258,1.559,6.667c-0.615,0.53-1.047,1-2,1
			c0-6.665-1.191-7.496-5-10C42.978,143.379,45.17,142.065,48.089,141.022z"/>
		<path style="fill:#C5C5C5;" d="M45,152v5h-1c0.109-1.731-0.04-3.517-1-5H45z"/>
		<path style="fill:#A8A8A8;" d="M62.239,123c-0.304-2.357,1.847-3.934,3.761-5C66.103,120.303,63.884,121.728,62.239,123z"/>
		<path style="fill:#2F2F2F;" d="M93,107c0.785,1.798,2.173,3.261,4,4c-1.932,3.198-7.969,6.655-11.912,8.201
			c-0.292,0.114-0.676-0.009-1.088-0.201c-2.785-2.402,0.804-5.2,1.123-8L89,104C90.022,103.234,91.355,104.234,93,107z"/>
		<path style="fill:#B2B2B2;" d="M90,101l3,6l-4-3c-0.224-0.524-0.108-1.548-0.713-1.835c-0.848-0.402-1.624-0.042-2.287-0.165v-1
			C87.137,101.487,88.806,100.648,90,101z"/>
		<path style="fill:#A8A8A8;" d="M158,112.78c-0.572,2.834-19.45,2.729-16,7.22c-0.379-0.849-1.296-1.62-1.987-2.359
			c-0.446-0.477-1.451-0.01-2.013,0.359c-2.054,0.473-3.218,0.568-3-2c-2.16-1.481-1.599-2.818,1-3
			C142.667,119.497,145.469,113.486,158,112.78z"/>
		<path style="fill:#C0C0C0;" d="M207,59c-1.047,1.71-2.983,2.905-3,5c-0.797-1.339-2.055-2.035-3.458-2.123
			c-1.728-0.108-2.743,0.244-2.426,2.123c-0.746-1.486-2.576-2.043-4.061-1.858L194,59C197.074,63.026,202.759,60.913,207,59z"/>
		<path style="fill:#BDBDBD;" d="M128,122v2c-2.212-0.37-4.294-1.904-7.097-2.061c-1.125,0.813-1.109,2.307-1.903,3.061
			c-2.988-0.074-2.758-4.463,0-5C121.056,117.919,126.889,119.363,128,122z"/>
		<path style="fill:#C8C8C8;" d="M119,135c-0.498-0.506-1.432-0.589-2-1c-1.7-2.189-2.162-10.381,2-9V135z"/>
		<path style="fill:#BDBDBD;" d="M198.178,32.929c-2.063-0.881-4.211-2.51-3.992-4.929C196.055,29.19,197.706,30.724,198.178,32.929
			z"/>
		<path style="fill:#BEBEBE;" d="M89,153c-1.657-0.743-3.02-2.092-3-4C87.548,149.817,89.201,151.049,89,153z"/>
		<path style="fill:#C1C1C1;" d="M108,138c-0.416,1.991-1.229,3.945-1,6c-0.495-1.599-1.699-2.258-3-2.814
			c-0.962-0.919-1.686-2.496-3-3.186C103.653,138.405,105.655,139.298,108,138z"/>
		<path style="fill:#B8B8B8;" d="M117,134c-0.624,2.262-3.82,1.137-5,2C110.701,132.601,115.609,130.478,117,134z"/>
		<path style="fill:#B5B5B5;" d="M42,159c-1.532,1.531-2.605,3.952-5,4C38.116,161.078,39.646,159.082,42,159z"/>
		<path style="fill:#AEAEAE;" d="M51,165c-2.29-0.228-2.634,2.211-3.56,4.067c-1.192-2.459,1.021-4.095,0.56-6.067
			C49.509,162.554,50.442,163.718,51,165z"/>
		<path style="fill:#C9C9C9;" d="M26,157c-3.11-0.98-4.396,1.486-6,4c-0.004-1.719,0.724-3.311,1-5
			C23.09,155.963,24.352,155.792,26,157z"/>
		<path style="fill:#D1D1D1;" d="M113,104c0.321,3.866,0.622,7.863,0.904,11.992L112,118c-0.881,0.45-1.183,0.071-1-1
			c-2.106-0.982-2.795-3.543-2.067-7.682c-1.959,1.035-3.936,1.929-5.933,2.682c-4.96,3.606-11.4,7.262-17.56,8.888
			c-0.681,0.18-1.157-0.202-1.44-0.888v-1c4.797-1.865,8.854-5.355,13-8c3.202-2.043,8.272-2.434,11.695-5.581
			c0.372-1.005-0.496-2.413-0.571-3.542c0.692,0.859,1.444,1.554,2.044,2.438C110.856,105.33,112.169,103.786,113,104z"/>
		<path style="fill:#3C3C3C;" d="M119.919,90.202c2.917,2.602,6.769,3.723,9.95,5.94c3.644-2.751,3.197,8.821,2.538,9.624
			c-1.323,1.611-4.975,0.648-6.407-0.766c-4.007-0.07-8.88-10.846-7.899-14.847C118.689,89.872,119.562,90.228,119.919,90.202z"/>
		<path style="fill:#AEAEAE;" d="M134.01,94.706c2.349,2.181,2.161,10.902-1.01,12.294c-0.289,3.478-8.034,2.569-7-1v-1
			c1.616,0.028,4.96,2.23,5.732,0.434c0.811-3.601,0.604-7.573-1.863-9.292c0.681-0.309,1.301-0.735,1.795-1.299
			C132.443,94.757,133.227,94.712,134.01,94.706z"/>
		<path style="fill:#525252;" d="M120.194,117.194c1.195,1.535,0.702,2.314-1.194,1.806c-0.523,3.932-6.029,3.82-7,0
			c-0.873-0.284-0.86-0.618,0-1c0-4.754-2.222-11.146,1-14c1.632,0.42,3.152-1.452,5.006-1.287
			C122.351,103.098,119.16,115.1,120.194,117.194z"/>
		<path style="fill:#4E4E4E;" d="M126,106c2.142,1.189,4.58,1.13,7,1c1.777-1.344,2.345-0.779,1,1l2,5c-0.223,0.974-0.293,2.206-1,3
			c1.355,3.067-2.307,5.985-5,4c-3.913-3.618-4.882-9.108-8.025-13.787C123.645,106.007,124.997,105.702,126,106z"/>
		<path style="fill:#464646;" d="M138,118c0.297,1.463,0.352,3.107-1,4l-1,5c-0.493,0.608-1.103,1.578-1.346,3.066
			c-2.944-2.534-3.787-6.864-4.654-10.066c1.864-1.055,3.571-2.396,5-4c0.444,1.033,1.379,0.08,1.846,0.249
			C137.575,116.513,138.046,117.372,138,118z"/>
		<path style="fill:#383838;" d="M124,114c1.73,2.031,4,5.224,4,8c-3.096,0.044-6.148-0.835-9-2c-0.921-0.279-0.908-0.614,0-1
			c0.405-0.552,0.665-1.355,1.194-1.806c0.734-0.626,1.482-1.235,1.806-2.194C121.63,112.308,122.21,111.988,124,114z"/>
		<path style="fill:#575757;" d="M124,114c-0.578,0.528-1.483,0.374-2,1c-1.516-0.385-1.588-4.242-0.066-4.438
			C123.801,110.321,123.549,113.192,124,114z"/>
		<path style="fill:#979797;" d="M29,186c-2.159-0.437-3.782-2.345-6-2v-2c0.837,0.035,2.398-0.366,3-1
			C25.745,183.396,28.325,184.058,29,186z"/>
		<path style="fill:#B8B8B8;" d="M136,127c0.138-1.601-0.625-3.926,1-5C137.971,123.9,136.227,125.481,136,127z"/>
		<path style="fill:#AAAAAA;" d="M151,96c-0.528,1.716-2.197,2.936-4,3C144.22,96.402,148.479,92.883,151,96z"/>
		<path style="fill:#ABABAB;" d="M147,99c-0.71,1.676-2.122,2.983-4,3C140.065,99.496,144.959,95.657,147,99z"/>
		<path style="fill:#B2B2B2;" d="M136,113c-1.391-1.356-2.22-2.919-2-5c0.284-0.873,0.618-0.86,1,0
			C134.823,109.629,136.385,111.316,136,113z"/>
		<path style="fill:#ADADAD;" d="M143,102c-0.708,1.708-2.124,2.938-4,3C136.073,102.499,140.972,98.628,143,102z"/>
		<path style="fill:#ADADAD;" d="M139,105c-0.716,1.664-2.118,3-4,3C132.343,105.651,137.144,101.176,139,105z"/>
		<path style="fill:#525252;" d="M143,88c1.189,1.52,3.171,2.306,5,4l3,4c-1.877,0.019-3.29,1.324-4,3c-1.877,0.067-3.29,1.289-4,3
			c-1.886,0.017-3.28,1.326-4,3c-1.521,0.05-3.812,1.27-4,3h-1c0.054-0.514-0.508-1.026-1-1c0.427-3.909-0.022-8.461,1.01-12.294
			c1.255-2.242,4.026-4.731,4.99-7.507C139.189,85.483,140.522,85.75,143,88z"/>
		<path style="fill:#B4B4B4;" d="M143,88l-4-0.801c0.345-0.993-0.138-2.499,1-3.199C140.86,85.449,142.008,86.732,143,88z"/>
		<path style="fill:#393939;" d="M112,119c2.321,0.83,4.721,1.085,7,0c-0.116,0.241,0,0.71,0,1v5c-2.448,2.328,0.374,5.373-2,9
			c-2.07-0.342-3.627,0.768-5,2c-1.497,0.715-3.887-0.292-5.059-1.361c-1.293-1.18-2.238-2.752-1.941-4.639
			c1.324-3.659,3.365-7.168,4-11C109.531,117.598,111.319,117.575,112,119z"/>
		<path style="fill:#404040;" d="M103,112c2.999-0.481,3.67,1.609,1,3c1.085,1.157,0.085,2.157-3,3c-0.594,0.128-1.609,0.53-2,1
			c-2.093-0.442-3.836,1.349-6.134,1.818c-2.525,0.516-5.051-0.24-6.866,1.182c-0.615-0.055-1.374-0.166-1.701-0.711
			C84.057,120.887,84,120.4,84,120C88.167,120,100.403,109.47,103,112z"/>
		<path style="fill:#ADADAD;" d="M111,117c0.307,0.358,0.643,0.691,1,1v1c-0.888-0.317-2.081,0.229-3,0c-2.096-2.288-5.16-1.614-8-1
			c1.027-0.984,2.335-1.708,3-3C105.594,112.89,110.225,114.759,111,117z"/>
		<path style="fill:#6B6B6B;" d="M74.05,153.807l-4.138-2.319l4.364-1.471C75.148,149.808,75.381,154.553,74.05,153.807z"/>
		<path style="fill:#3D3D3D;" d="M111,117c-2.53,0.337-4.854-0.722-7-2c-0.149-1.054-0.495-2.064-1-3
			c-0.044-3.638,4.719-3.653,7.903-6.057L111,117z"/>
	</g>
</g>
</svg>
