<?xml version="1.0" encoding="iso-8859-1"?>
<!-- Generator: Adobe Illustrator 30.1.0, SVG Export Plug-In . SVG Version: 9.03 Build 0)  -->
<svg version="1.1" id="Layer_1" xmlns="http://www.w3.org/2000/svg" xmlns:xlink="http://www.w3.org/1999/xlink" x="0px" y="0px"
	 viewBox="0 0 178 242" style="enable-background:new 0 0 178 242;" xml:space="preserve">
<g>
	<g>
		<path style="fill:#FDFDFD;" d="M176,0l1.179,0.371C177.299,55.967,177.573,111.51,178,167v72c-0.78,0.391-1.551,1.001-3.159,1.001
			l-170.69,0.009c-1.501,0-2.394-0.31-2.718-0.977c-0.281-0.577-1.038-1.794-0.398-3.159L105.488,12.798
			C107.78,7.903,109.079,3.759,112,0H176z M112,5c-0.977,2.372-2.908,4.392-3.055,7.039l-2.433,4.606
			c1.216,0.639,2.381,0.163,3.488,0.113c0.117,0.433-0.176,1.044,0,1.451c-4.66-3.135-8.286,8.298-10.024,12.693
			c-0.241,0.609-0.74,1.572-1.123,2.097c-2.586,3.546-3.147,8.175-4.938,11.915c-1.733,3.621-4.7,6.965-5.823,11.085
			c-0.251,0.919-0.997,1.875-1.105,3.063c-0.104,1.143-2.268,2.222-1.192,3.751C85.067,62.986,84.475,63.435,84,64
			c-0.712,0.846-0.499,2.104-1,3l-1.118,2c-2.878,5.148-5.125,10.537-6.808,16.157c-1.041,3.477-5.479,6.442-4.906,10.625
			c-1.054,0.734-1.781,1.81-2.013,3.076l-0.215,1.176c-2.109,2.167-2.761,5.225-4.063,7.871l-1.483,3.013
			c-1.958,3.979-4.205,7.854-5.402,12.142c-0.29,1.04-1.16,1.972-0.795,3.189c0.073,0.243-0.075,0.536-0.042,0.79
			c-1.744-1.186-7.189,11.832-6.344,12.795c-0.709-0.053-1.724,0.364-1.864,1.165c-0.732,4.192-4.778,7.404-4.054,11.756
			c-0.633,0.212-1.275,0.379-1.714,0.983c-0.291,0.4-0.041,1.058,0.521,1.351l-0.018,0.84c-0.68,0.05-1.293,0.741-1.601,1.289
			c-5.719,10.179-9.589,21.412-15.1,31.688L24.858,191c-2.675,4.988-5.503,10.13-6.294,15.793c-0.723-0.678-1.158-0.33-1.389,0.092
			c-0.419,0.765-1.066,1.653-1.175,2.116c-0.386,1.633-3.216,6.244-1.131,6.079c-1.058,1.961-2.945,3.525-4.036,5.863
			c-2.649,5.68-5.434,10.868-7.77,16.935L44,238c5.068,0.015,10.181-0.102,15.618-0.327c7.63-0.317,15.33,1.546,22.445-0.554
			c2.939-0.434,7.077,2.345,9.822-0.178L93,237c1.27,1.762,4.015,1,6,1h13h2h4c10.364,0,20.973,1.603,31-1
			c0.313-0.081,0.68,0.053,1,0c1.037,1.126,2.57,1,4,1h3c3.039,0,6.495,1.052,9-1h1c2.348,1.842,5.613,0.991,9.006,0.819
			l0.026-28.86c0.001-0.968-0.64-0.883-1.032-0.959v-1c0.413,0.017,1.025-0.025,1.027-0.965l0.045-21.115
			c0.003-1.554-0.705-2.825-1.03-3.734l0.233-24.15c0.007-0.764-0.605-1.645-0.938-2.18c-0.201-0.322-0.795,0.428-1.274,0.401
			c2.613-2.206,2.676-6.188,0.785-8.979c0.537-0.361,1.214-1.098,1.217-2.229l0.044-15.136c0.004-1.533-0.509-2.763-1.224-3.54
			c1.631-2.845,1.115-6.188,1.115-9.373v-12c0-0.328-0.056-0.678,0-1c0.434-2.481-0.732-5.052-0.526-7.811
			c0.144-1.929,1.173-3.892-0.537-5.278l-0.932-0.756c1.017,0.058,1.876-0.682,1.89-2.111L175,76c0.003-0.331,0.044-0.673,0-1
			c-0.364-2.686,0.569-5.915-0.502-8.868c-0.725-1.998-0.594-3.147-0.419-5.08c0.032-0.352,0.136-0.703,0.186-1.052
			c0.043-0.299-0.24-0.741-0.11-1c0.507-0.982,0.224-2.041,0.27-3.089L175,43l0.03-26.054c0.002-2.045-0.193-3.771-1.125-5.108
			c1.252-2.692,0.53-6.302,0.575-9.155c-4.236-2.883-7.774,0.751-11.122,1.154c0.038-0.295,0.372-0.601,0.523-0.836
			c1.071-1.673-23.911-1.464-23.881,0c-2.89-1.067-6.735-1.283-10-1c-0.331,0.029-0.668-0.001-1,0
			c-3.953,0.015-7.908-0.082-11.856,0.144C116.774,2.166,116.37,2.036,116,2c-0.928-0.091-1.97-0.217-2.83,0.626
			C112.635,3.151,112.35,4.151,112,5z"/>
		<path style="fill:#2A2A2A;" d="M38,213c2.162-1.752,7.405,2.536,7.068,5c0.852,0.343,0.816,0.677-0.068,1
			c1.943,0.857,2.132,2.122,0.569,3.794L44,235c2.886,0.077,2.705,2.345,0,3l-40.937-0.124c2.335-6.066,5.121-11.255,7.77-16.935
			c1.09-2.338,2.977-3.902,4.036-5.863c-0.309-1.57,0.837-2.803,2.32-2.15c0.048-1.528,0.335-1.749,0.896-0.471l17.823,0.041
			C36.373,210.204,37.118,210.833,38,213z"/>
		<path style="fill:#292929;" d="M175.042,181.186c0.022,0.636-0.025,1.176-0.312,1.382c-0.315,0.226-7.034,0.36-6.903-1.395
			c-0.845,0.367-2.021,0.728-2.869,0.363c-1.735-0.746-13.319-9.505-14.974-11.096l0.038-2.461c-0.781,0.094-1.4,0.133-1.454-0.023
			c-0.165-0.479-1.712-9.45-1.644-9.952c0.172-1.255,22.718-2.7,25.076-2.003c-0.997-1.521-0.342-1.963,1.063-0.743
			c0.479,0.027,1.073-0.723,1.274-0.401c0.334,0.536,0.946,1.416,0.938,2.18L175.042,181.186z"/>
		<path style="fill:#454545;" d="M65,215c3.246-0.921,4.609,1.87,2,4l4,7c3.017,0.261,1.818,4.757-1,5
			c1.349,1.157,0.962,2.342-1.162,3.555c3.683,0.154,7.404,0.636,11.162,1.445c1.024-2.845,3.072-1.802,2.063,1.118
			c-7.115,2.1-14.815,0.238-22.445,0.554C54.181,237.898,49.068,238.015,44,238v-3l1.917-14.032c0,0,1.361-0.323,4.083-0.968l5-2
			c-0.755-2.661,0.129-2.979,2-1l5-2C63.733,213.744,64.733,213.744,65,215z"/>
		<path style="fill:#3A3A3A;" d="M42.682,155.929c3.048-1.593,6.42-1.673,10.115-0.239c-0.071,0.982,0.33,1.815,1.202,2.502
			c2.003-2.458,5.635,0.453,4.921,2.979c1.649-0.065,2.473-0.097,2.473-0.097c2.426,3.648,3.625,7.648,3.597,12
			c2.674-0.14,3.182,2.247,1.008,3.927c1.942,4.709,0.942,6.042-3,4l-7-2c-2.014,2.579-6.898,1.346-7-2l-3.084-0.613l-4.139-18.269
			c-1.028,1.293-1.26,0.993-0.696-0.9C41.389,156.67,42.002,155.979,42.682,155.929z"/>
		<path style="fill:#4E4E4E;" d="M93,214l4.043,6.72c0.696,0.534,1.218,1.025,1.134,1.365c-0.911,3.668-3.462,10.555-4.99,14.16
			c-0.149,0.352-0.673,0.545-1.303,0.693c-2.745,2.524-6.883-0.255-9.822,0.178c-0.173-1.026-1.55-0.667-2.063-1.118
			c-3.005,0.532-7.528-1.702-5.953-5.047c-4.134-0.689-1.26-3.991,0.953-5.953c-0.985-2.6,0.833-3.012,3-2l6-5
			c-2.064-2.526,0.561-5.231,3-3c1.553-0.967,2.697-2.145,3.434-3.534C91.545,211.866,92.4,212.711,93,214z"/>
		<path style="fill:#424242;" d="M41.777,158.118c1.351,6.166,2.818,12.295,4.4,18.387l-1.072,1.6
			c2.698,1.457,0.759,5.621-2.105,3.895l-2,5c2.103,1.851,1.42,2.591-1,3c-0.415,2.368-1.042,2.549-3,1
			c-0.28,1.883-1.534,1.932-3.759,0.147l-7.278-1.049l0.019-1.192c5.511-10.275,9.381-21.509,15.1-31.688L41.777,158.118z"/>
		<path style="fill:#292929;" d="M116,12c2.306-3.185,8.191-0.212,8.995,3.22l3.526,1.098l-0.073,16.34
			c2.32,0.922,0.477,1.939-1.448,2.341c0.052,1.384-3.065,1.132-4,0c-1.956,1.549-2.043,1.499-2-1l-3.701-1.652
			c-0.265,0.819-1.364,0.37-3.299-1.348c-0.284,0.873-0.618,0.86-1,0c-1.724-0.969-2.584-2.861-2.581-5.676
			c-1.56-2.964-1.7-5.336-0.419-7.114c-0.176-0.407,0.117-1.019,0-1.451c-1.514-2.115,0.651-4.65,3-4.759
			C112.517,9.903,113.517,9.903,116,12z"/>
		<path style="fill:#3C3C3C;" d="M36,199c0.973,1.738,0.624,4.922,0,7c1.288,0.938,1.487,5.678,0.544,6.502
			c-0.716,0.626-18.239,0.412-19.022-0.127c-0.251-0.173-0.444-5.489,1.042-5.582c0.791-5.662,3.619-10.805,6.294-15.793
			C31.666,189.277,37.662,190.734,36,199z"/>
		<path style="fill:#313131;" d="M169,143c2.302-1.611,5.062,0.471,4.848,3.278c1.891,2.791,1.828,6.773-0.785,8.979
			c-0.256,0.216-0.692,0.792-1.063,0.743c-7.741-0.319-15.565,0.223-23.471,1.627c-2.446,1.723-4.063-2.949-0.529-4.627
			c-1.383-1.571-0.777-2.151,1-1l3-4c-2.001-0.394-1.756-1.261,0.365-1.218c0.82-1.893,2.283-4.237,4.232-2.807
			c4.168,0.112,7.786-0.638,10.856-2.251L169,143z"/>
		<path style="fill:#C5C5C5;" d="M107,135c3.052,2.6,6.49,4.82,10.315,6.659l-0.404,2.501c-0.092,1.421-0.313,1.513-0.959,0.489
			c-0.62-0.982,13.945,11.944,13.993,13.266l1.882,0.693c2.962,4.246,6.567,7.937,10.816,11.076l-0.421,2.296l2.806,0.026
			c4.002,6.873,9.092,10.24,15.27,10.099c2.708-1.071,5.217-1.382,7.528-0.933c2.343,0.85,4.798,0.297,7.215,0.013
			c0.325,0.909,1.034,2.18,1.03,3.734l-0.045,21.115c-0.002,0.94-0.614,0.981-1.027,0.965l-1.051-0.446c0,0-0.316-2.851-0.949-8.554
			c-0.357-2.245-0.078-4.992,1-7c-2.049-1.187-2.097-1.589,0-3c-0.906-3.8-1.619-4.155-2.139-1.066
			c-0.073,1.989-0.835,2.135-1.635,0.312c-1.675-1.827-3.483-2.044-5.425-0.652L163,185c-0.859,2.56-2.193,2.56-4,0
			c-0.985,1.527-2.862,2.492-5.632,2.894c-1.865,1.881-3.655,2.668-5.368,2.363c-0.919,2.549-1.43,2.51-2-0.141
			c-2.238-1.011-2.445-1.362,0.063-2.127c-0.106-1.432,0.716-2.819,2.465-4.16c-2.172-2.178-4.356-4.051-6.551-5.619
			c-1.709-0.177-2.836-1.427-3.381-3.752c-3.021-3.504-4.531-5.256-4.531-5.256c-2.327-1.033-3.348-2.433-3.064-4.201
			c-0.883-0.224-0.856-0.561,0-1l-4.297-3.696l-0.846,1.109c-2.467-0.93-4.419-3.068-5.857-6.414c-0.822-0.286-0.809-0.62,0-1
			l-2.599-0.423l-5.633-7.021c-3.764-2.775-6.687-5.961-8.768-9.556c-0.284,0.873-0.618,0.86-1,0
			c-1.476-1.101-2.214-1.652-2.214-1.652l-10.607,4.155l-2.21-1.354c-1.684,0.965-2.112,0.314-0.9-1.255
			c-1.785-0.96-1.731-2.084,0.123-2.895c4.108-0.776,8.018-2.088,11.732-3.936L100,131c0.352-3.501,1.776-9.198,6-8l1.307,0.533
			c0.125,2.568-0.989,5.322-3.342,8.261C105.342,132.68,106.354,133.749,107,135z"/>
		<path style="fill:#3C3C3C;" d="M129,2c1.739,3.507,4.127,8.321,3.861,12.43c0.865,1.033-0.315,1.65-3.538,1.851
			c-0.083,1.861-0.704,1.821-1.861-0.12l-2.468-0.942C121.864,14.478,119.251,12,116,12c-1.655-0.268-2.817-1.89-3.486-4.867
			l4.63-4.989C121.092,1.918,125.047,2.015,129,2z"/>
		<path style="fill:#525252;" d="M56.155,127.039l2.38,0.168c2.03,1.928,8.32,9.779,5.465,11.793c0.935,0.329,0.934,0.663,0,1
			l-1.656,6.39l-9.688,0.149c-2.55,1.74-3.266,0.964-2.147-2.329c-0.744-1.781-0.977-3.239-0.698-4.375
			C48.966,138.871,54.411,125.853,56.155,127.039z"/>
		<path style="fill:#434343;" d="M110,18.21c1.733,4.023,3.296,8.383,3,12.79c1.325,1.405,0.767,1.92-1,1l-3,4
			c1.171,1.448,0.626,1.978-1,1c-1.182,3.946-8.161-3.624-8.024-6.097C101.714,26.508,105.34,15.075,110,18.21z"/>
		<path style="fill:#333333;" d="M175,76l-0.105,11.044c-0.014,1.429-0.872,2.169-1.89,2.111l-1.679,1.512
			C168.533,90.376,159.564,88.071,160,85c-1.844,0.696-1.46-1.294-1-3c0.151-2.296,2.935-4.971,5-3l4-3
			C169.056,74.72,173.137,75.475,175,76z"/>
		<path style="fill:#C8C8C8;" d="M63,150c1.676,1.302,1.126,2.951-1.65,4.944c2.065,1.861,2.615,3.547,1.65,5.056
			c3.727,3.073,6.621,7.173,8.681,12.302c3.486,4.35,5.592,8.917,6.319,13.698c0.543-0.773,1.472-0.903,1.918-0.307
			c1.549,2.074,5.736,9.794,3.082,11.307l-2.315,0.617c-2.756-3.998-5.337-8.119-7.745-12.365l-2.116-0.434
			C68.972,185.75,67.364,185.81,66,185c-2.589-1.097-3.589-2.43-3-4c0.882-0.275,2.55,0.63,2.919-0.597
			c0.359-1.193,0.023-2.395,0.081-3.403c1.735-0.136,2.857,0.838,3.367,2.922c1.431,0.732-2.437-7.428-4.375-6.849
			c-1.731-4.17-2.921-8.521-6.071-11.903c0.876-1.965-3.493-6.429-4.921-2.979c-3.454-2.107-7.328-2.556-11.318-2.262l0.018-0.84
			c0.028-0.754,0.359-1.306,0.944-1.14c3.543,1.006,0.209,0.952-0.4,0.177c-0.139-0.177,0.188-0.721,0.65-1.371
			c1.113-2.381,2.194-2.639,4.047-0.756c2.858,0.203,5.689,0.111,8.495-0.275C59.434,148.756,61.622,148.181,63,150z"/>
		<path style="fill:#313131;" d="M173.848,146.278c-1.526-0.894-3.584-1.912-4.848-3.278c-2.325,0.397-2.992-0.603-2-3
			c-2.87,0.618-3.674-2.948-2.021-4.979c-1.021-1.641-1.014-2.648,0.021-3.021c-1.322-2.954,6.294-8.461,8.885-6.627
			c0.715,0.777,1.229,2.008,1.224,3.54l-0.044,15.136C175.062,145.18,174.385,145.917,173.848,146.278z"/>
		<path style="fill:#C6C6C6;" d="M64.945,110.066l1.708,0.835c0.995,5.212,2.484,10.285,4.465,15.218l3.851,12.414l9.453-3.432
			l1.646,1.794l0.9,1.255c2.488,1.578,1.334,3.164-1.318,1.895c-2.913,1.239-6.264,1.992-9.651,2.073
			c-1.341,4.518-1.669,9.52-0.985,15.005L74,158c-0.588,2.627-1.12,2.483-2,0c-2.627,0.003-2.622-1.019-1-3
			c-0.98-1.384-0.435-1.891,1-1l-1.84-2.94c0.162-2.446-0.225-4.465-1.16-6.06c-1.347-1.026-1.502-1.918-0.287-2.964
			c-2.27,0-3.424-0.585-2.713-3.036c0.009-1.712,1.185-2.008,2.559-2.255c-1.356-1.832-1.578-3.414-0.666-4.747
			c-0.579-2.412-1.899-3.772-3.961-4.079c-2.479,0.878-6.06,0.511-7.735-1.669c-0.365-1.217,0.505-2.149,0.795-3.189
			c0.716-1.481,1.385-1.834,2.008-1.06c3.361,2.369,6.78-1.039,3.615-4.116l0.272-2.067c-0.701-1.123-0.865-2.755-0.493-4.898
			l1.483-3.013C66.425,107.4,66.512,108.084,64.945,110.066z"/>
		<path style="fill:#333333;" d="M173.906,11.837l-0.284,1.308c-4.721-0.931-9.516-1.037-14.386-0.318
			C158.778,11.709,159.3,10.872,160,10c-1.777-2.253-0.993-4.225,2-4c-1.211-0.727-0.758-1.448,1.358-2.163
			c3.348-0.403,6.886-4.037,11.122-1.154C174.435,5.536,175.158,9.146,173.906,11.837z"/>
		<path style="fill:#989898;" d="M171,202c2.656,0.319,2.541,1.239,0,2l-1.671,1.846c-4.356-1.969-0.808,5.252,0.684,6.083
			l1.871,1.303c-1.247,4.225-0.879,5.685,1.103,4.38c-0.655-4.019,0.016-7.224,2.013-9.612c0.392,0.076,1.033-0.009,1.032,0.959
			l-0.026,28.86c-3.392,0.172-6.658,1.023-9.006-0.819c0.611-1.796,0.844-3.79,0.699-5.981L169,230
			c2.106-1.293,3.149,0.052,3.959,2.17c0.716-5.612-0.284-16.012-2.898-4.294l-2.272,0.335c-0.032,2.892-2.341,2.528-2.79-0.21
			c-0.971-2.213,1.1-5.554,3-7c-2.599-0.337-2.467-1.251,0-2c-1.549-0.23-2.303-1.578-2.262-4.043
			c-3.784-0.581-6.065-1.892-6.84-3.933c-0.806-0.365-0.76-0.725,0.087-1.079c0.899-0.729,0.957-2.095,0.176-4.097
			c-0.734-0.476-0.637-0.827,0.239-1.06c0.4-2.013,1.42-2.776,3.334-3.063c-0.825-2.17-0.431-3.705,1.182-4.605
			c2.398-1.546,3.404-0.297,3.77,2.233C169.339,199.885,170.444,200.768,171,202z"/>
		<path style="fill:#2B2B2B;" d="M102,54c1.559,1.491,1.226,2.158-1,2c-2.346,2.435-9.002,5.466-11,2.118
			c-2.439,0.83-2.614,0.144-1.908-2.118c1.124-4.119,4.09-7.464,5.823-11.085l7.481,3.18C103.304,50.837,103.505,52.805,102,54z"/>
		<path style="fill:#3C3C3C;" d="M175,116c0,3.185,0.516,6.528-1.115,9.373L165,132c-0.962,1.151-1.474,0.199-2-1
			c-0.93,0.385-1.295,0.083-1.097-0.903c-1.709-2.063-1.978-3.429-0.808-4.097c-2.092-2.285,4.691-7.041,6.906-5l4-3.192
			c-1.796-2.102-1.367-2.716,1.192-1.682C173.463,113.86,174.362,113.823,175,116z"/>
		<path style="fill:#1E1E1E;" d="M175,75c-2.102,0.797-6.197,1.202-7-1c-2.92,0.4-4.989-4.916-3.055-6.903
			c-2.062-3.239-1.472-4.748,1.772-4.526l1.13-1.429c1.429,0.802,3.506,0.772,6.232-0.089c-0.175,1.932-0.306,3.082,0.419,5.08
			C175.569,69.085,174.636,72.314,175,75z"/>
		<path style="fill:#2A2A2A;" d="M140,3c1.186-0.445,1.586-0.166,1,1c2.18,0.287,2.733,0.852,0.641,1.465
			c0.664,1.499,0.972,2.632-0.597,3.579c2.452,1.299,1.708,2.46-1.045,1.955l-3,7c-1.421-0.019-2.525-1.24-3.313-3.663
			C132.026,10.31,130.797,6.198,130,2C133.265,1.717,137.11,1.933,140,3z"/>
		<path style="fill:#1A1A1A;" d="M173.005,89.155l0.932,0.756c0.781,3.508,0.67,8.333-2.937,5.029c0.003,1.621-0.997,1.641-3,0.06
			c-1.105,3.083-3.817,2.108-4-1c-3.279,0.242-4.946-1.091-5-4c-1.965-2.382-2.143-4.074,1-5
			C162.182,86.068,172.557,88.791,173.005,89.155z"/>
		<path style="fill:#3C3C3C;" d="M101,56c1.393,3.897-1.901,10.342-6,11c-0.23,2.233-2.461,1.582-6.693-1.951
			c-1.992,0.363-2.829-0.382-2.512-2.235c-1.077-1.528,1.088-2.607,1.192-3.751c0.497-0.923,1.501-1.238,3.013-0.945
			C93.753,57.751,97.192,55.935,101,56z"/>
		<path style="fill:#323232;" d="M175,104v12c-0.541-0.171-1.385-0.42-1.808,0.126c-4.287,1.211-11.706-6.677-11.15-10.9
			c-0.173-0.628-0.275-1.137-0.125-1.227c2.111-1.271,9.305-0.769,12.156-0.467C174.395,103.566,174.7,103.76,175,104z"/>
		<path style="fill:#282828;" d="M106,40c2.236,1.729,1.923,2.548-0.835,2L102,47l-0.388,1.208l-7.696-3.292
			c1.79-3.74,2.351-8.369,4.938-11.915c1.535-0.309,6.523,4.035,7.758,5.572C106.764,38.762,106.449,39.327,106,40z"/>
		<path style="fill:#393939;" d="M63.932,127.919c2.113-0.658,4.475,2.086,3.961,4.079c1.753,1.699,2.901,4.179,3.155,6.862
			c-2.096,0.337-3.535,0.069-5.048,0.14c-0.319,2.656-1.239,2.541-2,0c-1.6-4.528-5.669-7.649-7.845-11.961
			c-0.033-0.254,0.115-0.547,0.042-0.79C58.984,125.7,61.852,125.838,63.932,127.919z"/>
		<path style="fill:#BABABA;" d="M173.906,11.837c0.932,1.337,1.127,3.063,1.125,5.108L175,43c-0.564,1.914-1.443,1.895-2,0
			c-1.755-1.737-1.326-5.888,0-8c0.082-2.092-0.283-5.857-2-7l-1.332,0.095c-1.052-2.079-1.601-4.61-1.647-7.593
			C166.605,21.094,165.753,20.41,165,19c-1.679-3.359,3.833-5.495,6-3c1.021,1.068,1.688,0.402,2-2
			c-4.562,0.525-9.219,1.185-13.969,1.982L157,15c-2.99-2.138-0.301-6.218,3-5C157.477,13.574,172.069,11.531,173.906,11.837z"/>
		<path style="fill:#3C3C3C;" d="M73,100c2.565-0.994,3.031-0.535,2,2c2.29,2.832,2.29,4.165,0,4
			c0.593,3.159-8.084,6.521-10.055,4.066c-0.526-0.625-0.846-1.38-1.068-2.16c1.302-2.646,1.954-5.704,4.063-7.871
			C69.12,99.383,72.96,98.569,73,100z"/>
		<path style="fill:#444444;" d="M173,43c0.625-0.151,1.365,0.112,2,0l-0.575,12.911c-1.768,2.386-6.707-2.857-7.753-4.515
			c-0.166-0.263,0.09-0.791,0.465-1.396c-1.399-1.848-1.506-4.404,0.862-5C168.248,42.277,171.041,40.633,173,43z"/>
		<path style="fill:#252525;" d="M108,230l2.79-0.004c0.357,1.116,0.76,2.117,1.21,3.004c1.633,1.026,0.833,3.821,0,5H99
			c-0.272-0.45-0.459-0.83-0.348-0.966c1.957-2.398,4.261-4.591,6.569-6.657C104.591,228.251,106.933,228.252,108,230z"/>
		<path style="fill:#939393;" d="M147,225C145.973,226.684,145.973,226.684,147,225c0.565-1.902,1.438-1.892,2,0l1.976,1.272
			c-0.067,3.632,0.941,6.542,3.024,8.728c0.873,0.284,0.86,0.618,0,1c-0.596,1.006-1.93,1.339-4,1c-0.32,0.053-0.687-0.081-1,0
			c-0.753-1.184-2.334-1.53-4.744-1.038c2.131-0.424,3.713-0.078,4.744,1.038c-10.027,2.603-20.636,1-31,1
			c-1.728-0.435-2.693-0.764-1-2l1.794-1.582c3.112,1.349,5.181,0.876,6.206-1.418c-0.535-2.901,2.609-3.538,4-1
			c-0.265,3.078,1.737,3.967,6.005,2.666c-1.279-4.174-1.295-5.691-0.049-4.551L133,229c-2.402-1.098-1.489-2.721-0.118-4.581
			c-3.857-1.406-5.151-3.212-3.882-5.419l2.556-1.361c4.292,2.41,4.335,2.418,8.444,0.361c1.789,2.123,4.342,3.689,7.659,4.697
			L147,225z"/>
		<path style="fill:#C4C4C4;" d="M155.272,43.069c2.852,0.368,8.485,2.776,8.728,5.931c1.128,0.523,2.174,0.857,3.138,1
			c2.315,2.166,4.356,4.539,7.287,5.911c-0.047,1.049,0.237,2.107-0.27,3.089c-2.251,0.736-5.199,0.775-5.999-1.844
			c-3.914-3.719-9.818-8.366-14.885-10.1c-0.574,0.989-2.306,2.207-2.493,0.297c-0.47,0.814-0.743,0.717-0.83-0.247
			c-1.183-2.203-1.463-4.215-0.839-6.037C150.605,38.245,155.223,39.822,155.272,43.069z"/>
		<path style="fill:#393939;" d="M167.79,228.21c1.977-0.617,2.381-0.02,1.21,1.79c-0.06,1.951,0.574,4.003,2.447,6.174
			c-1.477,1.495-3.061,0.649-4.447,0.826h-1c-1.012,0.315-2.072,0.189-2-1c-2.08,0.005-3.564-6.23-3.413-6.607
			c0.111-0.276,0.694-0.361,1.413-0.393c0.141-2.56,1.219-2.556,3-1L167.79,228.21z"/>
		<path style="fill:#2C2C2C;" d="M83,71l-1,7c-0.331,3.35-1.272,7.183-5,7c0.382,0.823,0.117,1.154-0.785,1
			c-1.522,1.532-1.8,1.111-1.142-0.843c1.683-5.621,3.93-11.01,6.808-16.157C84.039,67.083,84.319,68.829,83,71z"/>
		<path style="fill:#B6B6B6;" d="M85.795,62.814c3.1,0.904,7.297,6.185,9.205,4.186c3.317-0.789,4.975-1.183,4.975-1.183L101,67
			c0.48,0.306,0.467,0.64,0,1l0.478,1.276c-1.374,0.992-1.533,1.9-0.478,2.724c1.47,2.295,0.363,2.942-2,3
			c-0.989,3.572-2.322,4.905-4,4c-1.996-0.819-2.534-3.136-1.612-6.951l-5.983-4.395C86.272,70.978,84.804,72.427,83,72v-1
			c0.049-0.849-0.129-1.865-1.118-2L83,67c2.005-2.175,2.338-3.175,1-3C84.475,63.435,85.067,62.986,85.795,62.814z"/>
		<path style="fill:#2A2A2A;" d="M163.358,3.837c-0.382,0.538-0.768,0.959-1.167,0.972C155.26,5.034,147.786,4.511,141,4
			c-0.004-0.487-0.588-0.904-1-1c-0.031-1.463,24.951-1.673,23.881,0C163.73,3.236,163.397,3.542,163.358,3.837z"/>
		<path style="fill:#BEBEBE;" d="M168.156,57.156c1.732,1.357,3.769,2.305,6.11,2.844c-0.05,0.35-0.154,0.7-0.186,1.052
			c-2.29,1.265-4.767,2.203-7.924,2.187c-1.438,1.03-1.307,2.569-1.21,3.858c-2.398-0.3-4.796-0.066-7.193,0.702L156,66.181
			c-0.429-1.837,1.779-3.416,3.11-1.932c0.633-1.184,0.334-1.975-0.947-2.352c-2.738-0.713-2.544-1.383,0.138-2.192
			c1.127-2.436,3.151-2.414,4.745-0.42l1.919,1.289c-0.058-1.146,0.287-2.338,1.033-3.575
			C166.594,54.601,167.675,54.702,168.156,57.156z"/>
		<path style="fill:#878787;" d="M18.564,206.793c-0.216,1.548,0.21,3.157-0.629,5.192l17.989,0.022
			c0.091-2.378,0.267-4.198,0.076-6.006c0.284-0.873,0.618-0.86,1,0c3.848,0.104,4.373,5.473,1,7l-20.811-0.071
			c-1.241,0.484-1.637-0.825-1.189-3.929c0.109-0.463,0.756-1.351,1.175-2.116C17.406,206.463,17.842,206.115,18.564,206.793z"/>
		<path style="fill:#464646;" d="M47.941,152c-1.136,0.684-2.617,0.981-4.047,0.756c-0.724-4.352,3.322-7.564,4.054-11.756
			l1.035-0.451c0.894,2.183,1.841,4.091,2.843,5.726C49.938,147.4,48.643,149.308,47.941,152z"/>
		<path style="fill:#939393;" d="M107,227c2.724-0.209,2.873,1.315,1,3c-3.897,1.017-6.414,5.003-9,8c-1.985,0-4.73,0.762-6-1
			c0.284-0.873,0.618-0.86,1,0c5.369-5.1,8.054-7.65,8.054-7.65c-2.852-1.836-3.853-3.871-3.001-6.105
			c-1.396-1.495-0.943-2.18,0.948-1.378l2.372-0.169L107,227z"/>
		<path style="fill:#B9B9B9;" d="M49.811,139.835c1.207,1.623,1.094,3.536,1.334,6.195c3.437-0.444,7.383,0.89,10.46-0.579
			c1.366-0.958,0.543-4.743,2.396-5.451c3.379,1.31,1.48,6.199-1,8c-1.498,1.252-3.599,1.531-6.303,0.837l-4.816,0.429
			c-0.664,2.471-1.216,4.391-3.94,2.734c-1.493-1.901,5.384-7.121,0.007-11C48.087,140.198,49.102,139.782,49.811,139.835z"/>
		<path style="fill:#C3C3C3;" d="M103.1,219.11c2.143,2.502-0.44,4.742-3.1,2.756c-0.399,0.257-0.676,0.973-0.948,1.378
			c0.863,2.041,0.453,4.317-1.231,6.829c-0.439,3.41-1.713,5.719-3.822,6.927h-1l-1.115-0.06c2.125-5.23,4.375-10.625,5.159-16.219
			c-0.278-2.724,0.143-3.678,2.957-2.72C101.02,218.251,102.054,218.621,103.1,219.11z"/>
		<path style="fill:#4F4F4F;" d="M113,12c-0.046,2.04-1.953,3.136-3,4.759c-1.107,0.05-2.272,0.526-3.488-0.113l2.433-4.606
			l3.25-5.259C113.736,6.824,114.521,11.559,113,12z"/>
		<path style="fill:#C0C0C0;" d="M116,12h-3c-0.204-1.147,0.536-2.399-0.484-4.091c-0.671,1.951-1.783,3.36-3.571,4.13
			C109.092,9.392,111.023,7.372,112,5c1.245-0.951,2.579-1.951,4-3c0.37,0.036,0.774,0.166,1.144,0.144
			c-0.326,3.135-3.242,2.531-3.283,6.334C113.847,9.807,114.603,11.208,116,12z"/>
		<path style="fill:#B1B1B1;" d="M37,191c2.383,1.405,2.867,6.857,0,8c-0.284,0.873-0.618,0.86-1,0
			c-1.408-1.259-0.375-4.292-1.265-5.938c-1.978-2.953-6.9-1.811-9.876-2.062l1.123-2.094C29.003,190.815,33.56,190.294,37,191z"/>
		<path style="fill:#2A2A2A;" d="M175,103c-0.356,0.924-3.023,0.85-3.803-0.197c-2.948,0.067-2.654-1.829-0.197-2.803
			c-0.086-1.782-0.086-3.469,0-5.06c1.565,0.077,2.719-0.195,2.765-1.561c0.048-1.431,0.226-2.413,0.172-3.467
			c1.709,1.387,0.681,3.35,0.537,5.278C174.268,97.948,175.434,100.519,175,103z"/>
		<path style="fill:#545454;" d="M76.215,86c1.337,2.791,0.206,7.643-3.215,8c-0.331,2.356-0.971,2.963-1.921,1.819
			c-0.327,0.474-0.631,0.463-0.911-0.037c-0.573-4.182,3.864-7.148,4.906-10.625C74.918,85.952,75.655,86.007,76.215,86z"/>
		<path style="fill:#474747;" d="M62.887,115.816C65.264,117.568,61.8,123.109,59,122l-2.008,1.06
			c1.196-4.287,3.443-8.163,5.402-12.142C64.005,111.683,63.788,114.384,62.887,115.816z"/>
		<path style="fill:#DDDDDD;" d="M171.197,102.803L175,103c-0.056,0.322,0,0.672,0,1c-4.3,0.748-9.243-1.622-12.958,1.226
			c-0.075,0.949-0.38,0.952-0.895,0.089c-1.581,1.868-3.271,0.483-4.147-1.315c-1.696,0.579-4.775,1.193-4-1
			c0.002-2.927,3.341-2.803,4,0c0.284-0.873,0.618-0.86,1,0c1.475-2.747,5.529-2.684,8-1
			C169.168,100.977,170.9,101.245,171.197,102.803z"/>
		<path style="fill:#434343;" d="M174.155,59c-0.13,0.259,0.153,0.701,0.11,1c-1.94,0.385-3.767,1.194-6.052,1.073
			c-0.112-1.672-0.173-2.8-0.057-3.918C170.255,57.307,172.5,57.595,174.155,59z"/>
		<path style="fill:#A3A3A3;" d="M108,37c3.396,1.2,0.865,5.338-2,3c-1.916-2.701-4.296-5.296-7.147-7
			c0.383-0.525,0.883-1.488,1.123-2.097C100.598,31.914,106.803,40.05,108,37z"/>
		<path style="fill:#CACACA;" d="M133.687,14.337c-0.077,0.893-0.357,0.904-0.826,0.094L129,2c0.332-0.001,0.669,0.029,1,0
			C131.329,7.936,133.827,8.596,133.687,14.337z"/>
		<path style="fill:#989898;" d="M160,235c1.168,1.392,2.331,1.621,4,1c0.767,0.139,1.696,0.103,2,1c-2.505,2.052-5.961,1-9,1
			c-0.873-0.284-0.86-0.618,0-1C155.967,233.785,158.378,231.503,160,235z"/>
		<path style="fill:#D3D3D3;" d="M156,231c3.087,0.503,2.062,4.008,1,6v1h-3c-1.616-0.706-1.616-1.373,0-2v-1
			c-1.667-1.609-1.526-5.287,1-6C156.264,227.278,158.508,230.294,156,231z"/>
		<path style="fill:#525252;" d="M115,235c1.843-1.756,2.228-1.54,2,1l1,2h-4C111.351,236.994,112.018,232.852,115,235z"/>
		<path style="fill:#ADADAD;" d="M73,100l-5.06,0.034l0.215-1.176l2.924-3.039C71.741,95.328,72.606,94.762,73,94
			C75.999,94.011,75.851,99.513,73,100z"/>
		<path style="fill:#4B4B4B;" d="M17.189,212.929c0.051,1.312-1.916,1.401-2.32,2.15c-2.084,0.165,0.745-4.446,1.131-6.079
			C17.681,209.748,16.297,211.738,17.189,212.929z"/>
		<path style="fill:#3C3C3C;" d="M71.079,95.819c0.119,0.621,1.262,2.115,0.838,2.687c-0.806,1.087-2.849,0.208-3.762,0.352
			c0.232-1.266,0.959-2.342,2.013-3.076C70.567,95.504,70.795,95.298,71.079,95.819z"/>
		<path style="fill:#6B6B6B;" d="M154,236c0.738,0.511,0.549,1.404,0,2c-1.43,0-2.963,0.126-4-1
			C150.653,235.48,152.647,236.04,154,236z"/>
		<path style="fill:#A8A8A8;" d="M115,235c-1.016-0.32-2.256,0.329-1.999,1.241c0.173,0.615,0.716,1.189,0.999,1.759h-2v-5
			C114.999,231.989,115.999,232.655,115,235z"/>
		<path style="fill:#B2B2B2;" d="M175,75c0.044,0.327,0.003,0.669,0,1h-7c-2.599-0.617-2.531-1.275,0-2
			C170.072,75.332,172.622,75.041,175,75z"/>
		<path style="fill:#9A9A9A;" d="M175,207v1c-1.015,3.261-2.348,4.261-4,3c-2.519-1.273-1.724-4.711,1-5
			C173.893,204.234,174.56,204.442,175,207z"/>
		<path style="fill:#141414;" d="M116,2c-0.698,1.427-1.891,2.375-3.322,3.912C112.133,6.064,111.862,5.398,112,5
			c0.35-0.849,0.635-1.849,1.17-2.374C114.03,1.783,115.072,1.909,116,2z"/>
		<path style="fill:#757575;" d="M43.894,152.756c-0.086,1.162,1.343,1.1,2.143,1.819c-1.382,0.862-2.429,0.298-3.336,0.514
			c-0.563-0.293-0.812-0.951-0.521-1.351C42.618,153.135,43.261,152.968,43.894,152.756z"/>
		<path style="fill:#4F4F4F;" d="M83,67c0.501-0.896,0.288-2.154,1-3c0.491,0.038,1.009-0.276,2.076,0.303
			C85.17,65.55,84.166,66.365,83,67z"/>
		<path style="fill:#9F9F9F;" d="M90,58.118c-0.892,0.087-1.858,1.508-3.013,0.945c0.108-1.188,0.854-2.144,1.105-3.063
			c-0.054,0.409-0.16,0.973,0.062,1.398C88.485,58.031,89.356,58.122,90,58.118z"/>
		<path style="fill:#4B4B4B;" d="M40,190c3.139-1.502,9.471,2.694,10,6c2.608,0.431,2.942,1.764,1,4c2.696,1.331,2.024,3.212-1,3
			l-3,8c3.027,0.353,1.035,7.308-1.932,7c-2.831-0.899-4.862-3.084-7.068-5c0.162-2.496,0.344-4.952-1-7
			c-0.954-1.791-0.736-5.118,0-7c0.273-2.734-1.02-5.433,0-8C37.698,190.621,39.013,189.373,40,190z"/>
		<path style="fill:#323232;" d="M58,198c2.639,0.57,3.929,2.746,2.047,4.953L62,208l2,5c1.131,0.781,0.464,1.447-2,2l-5,2
			c-0.52,0.428-1.574,0.498-2,1l-5,2c-3.916,2.448-5.583,2.115-5-1l0.068-1L47,211l3-8c0.734-0.686,0.641-2.143,1-3
			c0.01-2.42,1.01-3.42,3-3C55.396,196.036,58.827,195.918,58,198z"/>
		<path style="fill:#AAAAAA;" d="M50,220c-0.574,1.04-2.997,1.35-3.488,2.453C45.112,226.643,46.197,231.47,44,235
			c0-1.315,0.824-13.426,1-16C45.887,221.406,48.025,220.1,50,220z"/>
		<path style="fill:#3D3D3D;" d="M167.827,181.173c-3.112,2.747-10.025,4.126-14.234,2.05c-4.928-2.431-7.76-7.814-11.371-11.243
			L147,169c1.254-1.999,2.261-2.339,3.021-1.021L167.827,181.173z"/>
		<path style="fill:#ABABAB;" d="M150,142c-2.34,2.599-2.687,7.471-2,11c0.003,1.278-1.228,2.244-0.961,4.133l21.99-2.255
			c1.29-0.132,2.86,0.137,2.971,1.122c-3.77-0.505-19.367,1.685-24.276,2.392c0.932,4.055,1.044,6.913,2.297,9.587
			c-0.911,0.618-1.983,0.761-3.021,1.021c-1.058-1.684-1.48-3.869-1.268-6.556c-1.045-2.52-1.955-5.001-2.732-7.444
			c-0.388-6.843-0.583-10.264-0.583-10.264L144,143c0.033-2.115,0.726-3.447,3-3C148.666,136.978,151.957,138.984,150,142z"/>
		<path style="fill:#454545;" d="M87,215c-1.198,0.406-2.32,1.975-3,3l-6,5c-0.462,1.265-2.023,1.439-3,2
			c-2.229,4.201-3.563,4.534-4,1l-4-7c-0.344-1.402-0.838-3.043-2-4c-1.648-0.607-0.441-1.641,1-2
			c0.075-2.424,2.24-4.252,6.494-5.483c2.23-1.745,4.065-1.918,5.506-0.517l0.041-0.951L86,205c2.973,0.063,4.893,4.764,5.263,7.796
			C89.683,212.914,88.262,213.649,87,215z"/>
		<path style="fill:#323232;" d="M74.047,230.953c1.762,1.932,3.99,3.32,5.953,5.047c0.078,0.751-0.919,1.045-1.938,1.032
			l-15.134-0.188L70,231C71.946,228.405,73.295,228.389,74.047,230.953z"/>
		<path style="fill:#ACACAC;" d="M74.047,230.953L70,231c1.705-1.475,1.638-3.072,1-5c1.81,1.164,2.313-0.032,4-1
			C74.709,227.869,71.793,228.254,74.047,230.953z"/>
		<path style="fill:#A9A9A9;" d="M71,226c-2.423-1.559-3.32-4.225-4-7C69.623,220.291,70.154,223.444,71,226z"/>
		<path style="fill:#ADADAD;" d="M62,215c-1.127,1.606-3.105,2.082-5,2C58.002,215.28,60.137,215.032,62,215z"/>
		<path style="fill:#ACACAC;" d="M55,218c-1.154,1.752-3.084,1.903-5,2C50.95,218.279,53.221,217.981,55,218z"/>
		<path style="fill:#C7C7C7;" d="M66,213l-1,2h-3l2-2C64.319,210.344,65.239,210.459,66,213z"/>
		<path style="fill:#2C2C2C;" d="M49,177c1.797,0.912,5.143,1.425,7,2l7,2c0.944,0.889,2.048,0.935,4.049,1.267
			c-0.679,0.94-1.037,1.777-1.049,2.733c2.011,1.647,1.564,2.25-1,2l-3,5c2.659,0.287,2.555,1.209,0.024,2
			c0.237,1.969-0.604,2.395-2.024,1c-1.608,2.007-3.787,1.947-6,1c-1.522,2.11-2.653,2.444-4,0c-3.621-1.513-6.696-3.903-10-6
			c-0.584-1.158,0.902-2.122,1-3l2-5c1.357-0.845,1.268-2.726,2.105-3.895C44.379,175.137,45.677,174.769,49,177z"/>
		<path style="fill:#525252;" d="M66,177c-0.389-1.31-0.464-2.617-1.008-3.927c0.358-1.524-0.446-3.024,0.397-5.139l7.937,13.383
			c-1.315,0.961-4.473,1.421-5.487-0.146C67.05,179.952,66.33,178.113,66,177z"/>
		<path style="fill:#4A4A4A;" d="M58.921,161.171c-1.393-1.085-3.381-2.039-4.921-2.979c-0.249-0.858-1.104-1.54-0.97-2.594
			c1.54-0.87,3.366-0.912,4.885-0.187C57.672,155.295,63.399,162.506,58.921,161.171z"/>
		<path style="fill:#B4B4B4;" d="M49,177c-0.926-0.47-3.292,0.263-3.895,1.105l-3.328-19.987C45.314,162.697,43.86,176.371,49,177z"
			/>
		<path style="fill:#AEAEAE;" d="M63,181c-2.766,0.862-4.76-1.306-7-2C58.47,178.939,61.143,179.252,63,181z"/>
		<path style="fill:#BDBDBD;" d="M93,214c-2.027-1.599-3.667,0.209-6,1c0.498-1.424,2.545-2.359,2.912-4.005
			c0.678-3.039-3.333-4.269-3.912-5.995c-3.205-0.37-5.661-5.784-3-8c0.719-0.389,1.832-0.977,2.234-0.592
			c2.341,2.242,8.484,12.654,9.287,15.756L93,214z"/>
		<path style="fill:#ADADAD;" d="M84,218c-1.451,2.188-3.349,4.623-6,5C79.5,220.835,81.22,218.245,84,218z"/>
		<path style="fill:#CCCCCC;" d="M97.043,220.72c-2.534-0.633-3.519-4.254-4.043-6.72C96.385,212.069,99.988,217.982,97.043,220.72z
			"/>
		<path style="fill:#AAAAAA;" d="M41,187c0.209-1.871,0.22-3.891,2-5C43.035,183.875,42.714,185.973,41,187z"/>
		<path style="fill:#3C3C3C;" d="M114,31c0.827-0.122,3.156,1.294,3.105,1.615c-0.247,1.571-1.203,16.161-0.692,16.847
			c1.847,0.583,1.376,1.095-1.413,1.539c1.212,3.037-5.299,4.052-7.806,3.136c-0.7,3.007-2.781,2.23-2.194-0.843
			c-2.148-0.015-4.142-4.926-3-6.294l3.165-5c0.206-0.646,0.94-1.213,0.835-2c1.286-0.446,1.943-1.677,2-3
			c0.315-0.31,0.58-0.811,1-1l3-4l1-1H114z"/>
		<path style="fill:#B2B2B2;" d="M121,34c-1.812,2.564-2.454,5.829-1.925,9.795L121,44c2.7,0.709,1.94,2.708,0.903,4.933
			c3.549-1.793,5.279-4.192,7.097-6.933c2.379-1.532,3.684,0.762,4,3c1.027,1.118-0.711,2.751-2,3c-2.214,2.135-2.214,2.802,0,2
			c2.86,0.064,2.733,2.324,0,3c0.552,2.219-0.824,3.265-3,3c-2.382-1.53-7.08-2.132-7.087,1.578L119,59
			c-0.224,2.044-1.226,1.958-2,0c-1.566-0.661,0.693-2.158,0.6-2.057c-1.06,1.166-2.04,1.706-3.6,2.057
			c0.577,1.472,0.564,1.905-0.039,1.299c0.431,2.033-0.874,3.276-3.916,3.73C108.618,65.205,108.27,67.195,109,70
			c2.67,0.292,2.534,1.185,0,2c-0.725,1.768-1.725,3.102-3,4c-0.678,0.644-1.874,1.048-2.232,0.426
			c-0.352-1.794-1.275-3.269-2.768-4.426c-1.493-2.041,0.963-2.717,2.855-3.216C104.6,68.546,103.649,68.285,101,68v-1
			c-0.926-1.048-1.473-2.121-0.398-2.95L109,58l7.717-5.263L115,51c1.284-0.22,2.188-21.143-1-20C116.645,31,119.154,32.136,121,34z
			"/>
		<path style="fill:#3D3D3D;" d="M121,34c0.756,0.124,1.478,0.429,2,1c2.257,0.482,2.59,1.148,1,2l-2,5c1.762,1.632,1.305,1.955-1,2
			c-1.905,1.507-2.184,3.954-3.769,6.158l-0.22-17.176C118.618,33.789,119.683,34.129,121,34z"/>
		<path style="fill:#9D9D9D;" d="M133.635,16.021c0.012,1.479-0.86,2.22-2.615,2.223l0.002,12.599
			c2.891-0.626,4.883-0.24,5.978,1.158c0.873,0.284,0.86,0.618,0,1c-0.455,3.82-7.049,4.479-10,3c-0.902-0.225-0.875-0.561,0-1
			c2.035-3.765,0.518-8.389,1.043-13.005c0.376-3.307,0.117-5.999-3.049-6.775c-0.192-0.046,9.605,1.599,7.866-0.79l0.826-0.094
			C134.484,15.053,134.687,15.599,133.635,16.021z"/>
		<path style="fill:#AFAFAF;" d="M127,35c-0.138,0.256,0.051,0.707,0,1c0.862,0.246,0.839,0.582,0,1c-1.242,2.025-1.595,1.684-3,0
			c-0.078-0.705-0.824-1.319-1-2H127z"/>
		<path style="fill:#C2C2C2;" d="M37,206h-1c-0.229-2.17,0.45-4.921,0-7h1C36.787,201.14,36.886,203.901,37,206z"/>
		<path style="fill:#494949;" d="M150,142c1.719-2.068,2.385-1.55,1.9,1.084c3.656-0.333,3.468,1.905,0.465,3.698
			c-0.2,0.244-0.359,0.908-0.365,1.218l-3,4c-0.291,0.198-1.001,0.645-1,1l-1.923,1.017c-0.149-3.228-0.179-5.802-0.003-8.897
			c0.335-1.335,0.714-2.495,1.638-2.937C148.433,141.838,149.271,141.947,150,142z"/>
		<path style="fill:#A0A0A0;" d="M167,140c0.841,0.674,1.31,2.254,2,3c-8.164,1.3-9.61,0.269-16.635,3.782
			c0.883-1.08,0.415-2.647-0.465-3.698l0.262-1.304c-3.143-4.242-3.531-7.168-1.162-8.78l2.261-0.437l3.982,8.527
			C157.243,141.09,160.495,140.727,167,140z"/>
		<path style="fill:#A4A4A4;" d="M149,152c-0.004-1.877,1.32-3.306,3-4C152.179,149.745,150.307,151.159,149,152z"/>
		<path style="fill:#303030;" d="M134.943,125.112c4.872,0.988,4.018,6.379,1.503,9.766l-4.317,15.824L129,149
			c-0.828,3.078-11.658-2.371-12.381-3.635c-0.149-0.261,0.025-0.706,0.292-1.205c-1.713-3.069-12.009-4.382-9.911-9.16
			c-1.447-1.373-0.79-1.973,1-1l4-3l4-3c0.159-3.498,4.608-6.724,8-6c0.313-0.828,0.975-0.773,1.986,0.165L134.943,125.112z"/>
		<path style="fill:#1B1B1B;" d="M102,137c0.06,2.939-0.605,6.226-1.995,9.861c2.496,1.979,0.481,9.166-3.005,8.139l-3,10
			l-0.143,0.74c3.241,0.905-5.049,4.451-5.504,4.443c-0.835-0.015-11.962-10.44-12.091-11.265L78,155l2-5
			c-2.607-1.197-1.705-3.121,1-3c-0.144-2.525,0.857-3.12,2.955-4.228c-1.755-2.333-1.027-2.907,1.696-2.727
			c0.24-0.673,1.27-1.059,1.318-1.895c4.331-1.352,8.301-3.874,13.242-4.954C101.789,132.851,102.401,135.934,102,137z"/>
		<path style="fill:#3D3D3D;" d="M122,109l1,5c1.072,2.834,1.405,5.501,1,8c-2.415,2.303-5.186,4.212-8,6l-4,3l-4,3
			c-0.174,0.397-0.783,0.611-1,1c-1.275,0.203-2.563-0.164-3.552-0.909C99.112,130.827,106,127.853,106,123
			c2.025-3.539,3.901-7.2,5.627-10.984c-1.388-0.608-0.919-1.302,1.409-2.081c2.485-5.533,4.807-7.178,6.965-4.935
			C121.976,105.557,122.643,106.891,122,109z"/>
		<path style="fill:#292929;" d="M126.703,160.304c1.05,0.622,1.435,1.036,0.297,1.696c2.436,2.106,2.77,3.439,1,4l-1.168,1.715
			c-0.123,2.595-1.067,3.356-2.832,2.285l-5,2c0.356,2.623,0.121,2.532-2,1c-1.457,2.267-13.409-3.06-13.865-3.651L107,165
			c-1.046-2.485-0.39-3.112,2.029-1.89L113,158l0.471-1.567c2.272-0.245,4.449-0.723,6.529-1.433
			C122.63,153.059,124.286,159.899,126.703,160.304z"/>
		<path style="fill:#3D3D3D;" d="M99,127c2.417-0.489,2.75,0.844,1,4c-1.333,1.503-12.919,6.607-13.808,3
			c-2.477,0.518-2.547,0.046-1.192-2l-3-5c-2.783-0.318-3.437-1.595-2-4c-1.3-1.218-0.3-1.884,3-2l5-1l8.641-2.025
			C97.756,120.722,98.542,123.731,99,127z"/>
		<path style="fill:#303030;" d="M140,155.134c-0.063-2.86,2.202-2.834,3-0.134c3.514-0.157,6.671,10.256,4,14l-4.778,2.98
			c-1.892-1.796-13.612-10.798-12.278-14.064c-1.158-2.262-0.735-3.616,2.055-2.916l1.05-2.635
			C135.454,153.189,137.771,154.112,140,155.134z"/>
		<path style="fill:#444444;" d="M82,127l3,5c0.62,0.493,1.11,1.193,1.192,2c0.097,0.964,0.016,1.941-0.123,2.895
			c-4.153,0.356-7.689,2.631-12.573,4.332l-4.091-13.349c0.336-0.672,1.337-1.412,1.714-1.76c-0.424-2.847,2.79-4.28,4.882-2.118
			c1.777-1.148,3.11-1.482,4-1C80.916,124.089,81.642,125.581,82,127z"/>
		<path style="fill:#343434;" d="M131,165c5.204,2.325,10.147,7.49,10.976,13.21c1.815,2.492-2.079,8.014-4.976,7.79
			c-0.563,1.933-1.449,1.957-2,0l-3-5c-3.139-0.206-4.722-3.365-3-6c-1.018-1.92-2.135-3.656-3.351-5.21L128,166
			C127.318,163.641,128.318,163.308,131,165z"/>
		<path style="fill:#303030;" d="M148,190.257c2.881-1.068,3.899,1.506,2,3.743l1.372,3.462c-1.153,3.03-1.354,6.384-0.603,10.061
			l-7.801,0.373L142,206c-2.797,0.475-3.647-0.46-2-3c-2.563-1.193-2.563-2.193,0-3c-2.305-2.569,0.138-5.225,3-6
			c-0.725-1.745,1.423-3.005,3-3.884C146.661,190.216,147.334,190.222,148,190.257z"/>
		<path style="fill:#2E2E2E;" d="M159,185c0.873,0.284,0.86,0.618,0,1c0.788,2.622,1.158,6.661-0.289,9
			c2.111,1.793,0.711,6.264-1.871,6.591c-2.642,1.916-5.94-0.828-3.84-3.591c-1.728-0.013-2.728-1.346-3-4
			c-0.81-1.124-1.11-2.648-2-3.743C150.253,186.481,154.65,184.404,159,185z"/>
		<path style="fill:#1D1D1D;" d="M120,154c-1.571,1.812-6.663,3.998-7,1l-3-4c-3.607-0.404-6.617-4.425-6-8
			c-2.824-1.159-2.487-3.481-1-6C109.482,140.775,116.254,147.494,120,154z"/>
		<path style="fill:#292929;" d="M116.911,144.16c0.908,1.626,3.425,1.024,5.103,1.828c2.602,1.245,4.446,2.76,6.986,3.012
			c2.776-0.171,3.98,0.467,3.612,1.914c2.499,1.764,2.295,3.126-0.612,4.086c-0.777,0.638-0.745,2.582-2.055,2.916
			c-1.007,0.802-2.134,0.517-3.193-0.585l-11.915-12.405C115.212,143.671,116.179,144.143,116.911,144.16z"/>
		<path style="fill:#2B2B2B;" d="M146.063,187.99c-0.08,0.59-0.172,1.051-0.309,1.065c-0.798,0.079-9.602-0.553-9.885-0.966
			c-0.486-0.708,0.238-1.634,1.131-2.089c1.204-2.858,3.249-5.232,4.976-7.79c1.147-0.052,3.056-0.654,4.239,0.516l5.962,5.901
			C149.606,185.917,147.983,187.596,146.063,187.99z"/>
		<path style="fill:#B6B6B6;" d="M163,185c0.873,0.284,0.86,0.618,0,1c0.252,3.485,1.252,6.188,3,8.11
			c2.609,1.699,0.541,4.131-2.085,3.01c-1.12,1.54-1.964,3.618-2.533,6.232l-1.984,1.436c0.042,0.3-0.149,0.767-0.239,1.06
			c1.204,1.468,1.679,3.032-0.176,4.097c-0.113,0.307,0.088,0.81-0.087,1.079c1,1.292,1.266,3.165,0.8,5.621
			c2.432,0.008,3.866,0.793,4.302,2.356c0.873,0.284,0.86,0.618,0,1c-0.181,2.03-1.493,2.622-3.935,1.774l-2.155,1.454
			c0.807,2.28,0.503,3.537-0.911,3.772c-1.533,0.735-1.761-0.619-1.186-2c-1.522,0.11-2.49-0.632-2.869-2.076l-0.273-2.106
			c2.177-3.201,2.961-7.139,2.352-11.815c-0.854-0.202-0.812-0.544,0.013-1.008c0.773-1.587,0.815-3.195,0.126-4.825l1.677-1.579
			c1.236-2.002,1.231-4.367,1.871-6.591c0.278-0.808,0.707-1.141,1.289-1c0.859-2.276,0.836-4.722,0-7c-0.453,0.455-0.786,0.122-1-1
			v-1C160.211,185.166,161.783,185.132,163,185z"/>
		<path style="fill:#323232;" d="M103,117c2.379-1.753,4.498,0.518,3,3c1.347-0.273,1.347,0.727,0,3c-2.399,2.43-3.693,5.399-6,8
			c-0.022-1.356-0.113-2.89-1-4l-1.795-8.917C100.535,114.103,102.467,113.742,103,117z"/>
		<path style="fill:#232323;" d="M171.861,186.934c1.227-1.787,2.199-1.162,2.139,1.066c0.063,0.807,0.987,2.157,0,3
			c0.214,2.921-1.616,3.915-3.919,2.081c-3.376,2.646-5.291-2.404-2.081-4.081c-0.31-2.332,0.093-2.547,2.226-1.753
			C170.778,187.184,171.325,187.083,171.861,186.934z"/>
		<path style="fill:#373737;" d="M170.226,187.247C169.853,188.214,169.077,189,168,189c-1.395,1.713-2.062,1.713-2,0
			c-2.46,2.525-3.731-0.007-3-3v-1c1.804-0.195,3.697-1.931,5.875-1.514C170.443,183.786,170.247,186.208,170.226,187.247z"/>
		<path style="fill:#2C2C2C;" d="M173,198c1.251,1.479,0.702,2.027-1,1c-2.435,1.734-4.884-1.915-3-4
			c-2.088-1.631-1.728-2.27,1.081-1.919c1.276-0.75,2.559-1.493,3.919-2.081C175.878,193.124,175.479,196.541,173,198z"/>
		<path style="fill:#373737;" d="M175,207c-1.014-0.041-2.196-0.29-3-1c-2.67,0.717-2.973-0.127-1-2v-2
			c-1.641-1.926-1.468-2.439,1-3c0.415-0.214,0.614-0.773,1-1c0.421-0.013,1.091-0.184,1.452,0.043
			c0.477,0.299,0.608,1.017,0.601,1.887L175,207z"/>
		<path style="fill:#9D9D9D;" d="M137,186c-1.469,3.243,9.916,1.815,9.063,1.99L146,190.116c-0.363,0.579-0.696,0.525-1-0.116
			l-6.316,0.884c-1.903,1.071-3.464,1.11-4.684,0.116c-2.613-1.446-1.483-4.046,1-5C135.619,186.164,136.368,185.883,137,186z"/>
		<path style="fill:#848484;" d="M104,143c-0.826,2.525-2.157,3.812-3.995,3.861c-2.446,2.433,2.008-9.896,1.995-9.861h1
			C102.824,139.056,103.473,141.029,104,143z"/>
		<path style="fill:#2F2F2F;" d="M174,188c-0.665-0.446-1.376-0.82-2.139-1.066c-0.64-0.906-1.358-1.87-1.727-2.912
			c2.375-1.523,4.246-1.815,4.876,0.422C175.339,185.613,174.787,186.936,174,188z"/>
		<path style="fill:#939393;" d="M120,155c-2.131,1.572-4.672,1.826-7,3c-2.86-0.064-2.733-2.324,0-3c2.287,1.558,4.621-0.01,7-1
			V155z"/>
		<path style="fill:#252525;" d="M131,164c-2.2,1.456-3.012,0.038-4-2l-0.297-1.696C128.706,160.641,130.111,162.242,131,164z"/>
		<path style="fill:#8F8F8F;" d="M131,164c0.135,0.267-0.08,0.705,0,1c-0.865-0.145-2.264,0.533-3,1l-1-4
			C128.207,162.912,129.453,163.858,131,164z"/>
		<path style="fill:#474747;" d="M66,139c1.412,1.538,3.577,0.864,6.203,1.073C71.839,142.53,69.846,143.27,69,145
			c-2.213,2.689-4.213,3.689-6,3l1-8c0.038-0.303,0.103-0.708,0-1H66z"/>
		<path style="fill:#A5A5A5;" d="M109,36c-0.03-1.895,1.344-3.263,3-4C112.026,33.893,110.652,35.258,109,36z"/>
		<path style="fill:#282828;" d="M164.945,67.097c1.434,2.095,2.1,4.565,3.055,6.903c0.235,0.576-0.164,1.396,0,2l-4,3
			c-1.675,0.933-2.844,3.336-5,3c0.015,1.238-0.318,1.571-1,1c-1.517,1.293-2.077,0.733-1-1l-2.457-0.592
			c0.948-1.102,0.434-2.572-1.543-4.408c-1.364,1.492-1.969,0.84-1-1c-1.989-1.454-3.747-6.073-2-8c2.17-1.903,3.837-2.236,5-1
			c0.063-0.599,0.397-0.871,1-0.819l7.273-1.85C164.074,65.29,164.389,66.284,164.945,67.097z"/>
		<path style="fill:#959595;" d="M160,85c-1.348,1.34-1,3.255-1,5c-2.156,0.944-3.433,0.254-4-2c-2.094-2.075,1.12-3.977,3-5
			c0.022-0.324,0.638-1.056,1-1C159.198,83.041,159.488,84.067,160,85z"/>
		<path style="fill:#949494;" d="M168,76c-0.367,2.214-2.554,2.195-4,3C164.655,77.308,166.171,76.093,168,76z"/>
		<path style="fill:#1C1C1C;" d="M86,181c2.424-1.682,4.451,0.633,2.866,3.055L95,189c2.486-1.373,3.371-0.543,2,2l5,4
			c2.529-1.161,3.111-0.58,2,2l4,3c1.451-1.196,1.99-0.647,1,1c2.064-0.028,1.538,0.89,0,2c1.972,1.841,1.112,4.58-2.582,8.217
			c-1.237,4.04-3.043,5.968-5.418,5.783c1.214,1.277,0.649,1.625-1,1c-0.895,1.007-1.72,2.126-2.957,2.72
			c-0.28-2.582-2.057-5.153-4.043-6.72c-0.717-3.372-7.756-15.249-10-17c-0.499-1.925-6.098-12.611-5-11c-1.014-2.546,2.43-6.21,5-5
			C84.589,178.647,85.589,178.647,86,181z"/>
		<path style="fill:#2A2A2A;" d="M74,158c1.981-0.944,3.038-0.345,3.172,1.797l8.972,8.76c2.33,0.814,2.616,2.295,0.857,4.443
			c2.603,1.164,1.738,3.174-1,3c-0.606,2.602-1.606,4.268-3,5c-1.472,1.809-3.043,3.714-5,5c-5.61-8.229-10.849-16.949-15-26
			c-0.485-3.584,6.618-3.632,9-2C72.489,157.732,73.437,158.16,74,158z"/>
		<path style="fill:#3A3A3A;" d="M83,197c0.72,2.778,2.089,5.283,3,8c-3.527,1.322-6.527,1.322-9,0l-2.491,0.473l-10.038-6.667
			c-2.47-1.243-3.286-2.845-2.447-4.806L62,192l3-5c0.25-0.512,0.583-1.602,1-2c2.342-2.239,6.929-3.445,9.189-0.249
			C78.08,188.839,79.307,194.118,83,197z"/>
		<path style="fill:#323232;" d="M67,150c1.432,1.728,2.765,3.395,4,5c0.575,0.905,0.87,1.941,1,3c-2.648,1.888-6.125,0.595-9,2
			c-0.713-1.555-4.241-3.243-3.517-5.718c0.494-1.689,3.191-2.549,3.517-4.282c0.24-1.431,2.046-2.163,3-1
			C67.406,147.568,67.996,148.199,67,150z"/>
		<path style="fill:#525252;" d="M63,148c2.147,0.049,2.029,1.36,0,2c-1.661,0.044-3.312,1.881-4.775,3.145
			c-1.117,0.966-10.729,2.186-10.284-1.145c1.872-0.451,1.339-2.838,2.719-4.561C54.818,146.768,59.341,146.319,63,148z"/>
		<path style="fill:#252525;" d="M151,124c1.211-0.279,2.211-0.279,3,0c1.96-1.512,3.727-0.357,4,2
			c1.89,0.341,3.191,1.707,3.903,4.097c0.383,0.271,0.687,0.667,1.097,0.903c1.037,1.109,1.697,2.449,1.979,4.021
			c1.235,1.323,1.392,3.429,2.021,4.979c0.7,3.998-8.267,2.961-11.031,3.1c-2.215-3.499-2.395-7.515-4.969-10.1l-2-5
			c-1.623-2.036-1.623-3.036,0-3C148.27,122.196,149.191,121.736,151,124z"/>
		<path style="fill:#B4B4B4;" d="M165,132l-0.021,3.021c-1.066-1.142-2.035-2.314-1.979-4.021
			C163.646,131.371,164.328,131.679,165,132z"/>
		<path style="fill:#424242;" d="M78,109l1,6c0.581,1.607,0.757,3.325,0.526,5.153c1.97,1.621-1.421,3.304-3.526,3.847
			c-1.678,0.469-3.158,1.758-4.882,2.118c-2.574,3.419-7.574-16.399-6.173-16.052L75,106C76.969,103.512,77.575,106.699,78,109z"/>
		<path style="fill:#303030;" d="M76,142.118c2.849-0.946,4.183-0.659,4,0.861c2.024,0.687,2.358,2.027,1,4.021
			c-0.101,0.871-0.763,2.188-1,3l-2,5c-0.84,1.384-1.249,2.84-1.227,4.368L74,158C73.038,157.521,71.006,138.099,76,142.118z"/>
		<path style="fill:#3E3E3E;" d="M59,122l3.887-6.184c2.061,0.578,3.82,4.445,2.611,6.495c-1.477,2.505-4.829,2.847-7.456,2.595
			C58.539,123.714,59.004,122.968,59,122z"/>
		<path style="fill:#3A3A3A;" d="M72,154c-1.938,0.37-3.977-2.211-5-4c-0.343-0.274-0.604-0.77-1-1c-0.342-1.314,0.658-2.647,3-4
			c0.756-0.378,1.727-0.422,2.923-1.046L72,154z"/>
		<path style="fill:#2E2E2E;" d="M85.651,140.045c-0.372,1.04-1.197,1.788-1.696,2.727c-2.044,2.368-3.362,2.437-3.955,0.207
			c-1.182-0.803-3.034,0.321-4-0.861C78.726,140.468,82.836,137.744,85.651,140.045z"/>
		<path style="fill:#484848;" d="M67.892,131.997c-1.338-1.297-3.516-1.942-3.961-4.079c0.915-0.825,2.974-1.789,3.918-0.328
			C68.58,128.721,69.488,131.156,67.892,131.997z"/>
		<path style="fill:#929292;" d="M72,154c0.004,0.485-0.59,0.904-1,1c-1.914-1.127-3.929-2.643-4-5L72,154z"/>
		<path style="fill:#535353;" d="M66.052,126.449c-3.072-0.449-3.741-1.009-1.268-1.786
			C66.731,122.905,68.062,125.147,66.052,126.449z"/>
		<path style="fill:#303030;" d="M162,6c-0.776,1.222-1.044,2.875-2,4c-1.28,1.506-2.901,2.886-3,5c2.472,1.754,0.861,4.215-2,3
			c-0.25,2.019-2.025,2.857-3,1l-2.934-4.066C146.512,16.65,142.172,11.361,144,9c-1.187-0.082-2.987-3.293-2.582-3.947
			c0.563-0.908,20.989-1.452,21.169-0.399C162.656,5.058,162.377,5.52,162,6z"/>
		<path style="fill:#BABABA;" d="M163.358,3.837C163.238,4.759,162.452,5.289,162,6c0.116-0.39-0.364-0.977-1.026-0.974
			l-19.146,0.088C143.506,6.193,143.204,8.068,144,9c-0.959,1.717-1.944,1.732-2.955,0.045L141,4
			C148.406,3.514,155.975,4.725,163.358,3.837z"/>
		<path style="fill:#292929;" d="M169,230c-0.508-0.406-1.323-0.954-1.21-1.79c0.927-2.103,1.121-4.262,1.403-7.07
			c1.387-0.259,5.013-0.727,5.416,1.069c1.108,4.939-0.076,9.73,0.49,14.628c-1.308,0.293-1.973,0.258-3.02,0.039
			C171.738,234.038,170.903,231.584,169,230z"/>
		<path style="fill:#303030;" d="M164,220c1.18-0.426,3.414-0.245,4,1c0.445,2.799-0.69,5.37-3,7c-0.774,0.826-1.899,1.071-3,1
			c-2.033,0.786-2.338,0.06-1.94-2.06c-2.333,0.636-2.247-1.728-2.15-3.711c-0.283-1.128-0.882-2.149-0.037-4.116
			C160.001,219.767,161.993,220.304,164,220z"/>
		<path style="fill:#2F2F2F;" d="M168,219c0.062,1.735-3.077,1.279-4,0c-1.852,0-3.636,0.114-6.004-0.075
			c-0.551-2.864-0.524-5.706,0.902-7.902c2.337,1.034,5.415,0.524,7.867,2.226C168.617,214.536,167.855,217.355,168,219z"/>
		<path style="fill:#2D2D2D;" d="M175,208l-0.016,11.873c-2.174,0.278-3.815,0.212-5.981,0.026c-0.225-3.013,0.845-5.383,1.01-7.969
			c-1.479-1.437-0.883-1.977,0.987-0.929C172.552,210.387,172.86,207.586,175,208z"/>
		<path style="fill:#1E1E1E;" d="M171,204c0.45,0.533,0.476,1.537,1,2c-0.054,1.713-0.556,3.355-1,5
			c-0.273,0.171-0.964,0.573-0.987,0.929c-0.472,0.153-1.09,1.028-1.553,0.893c-1.711-0.497-4.848-7.435-2.306-9.772
			C168.039,203.181,169.477,204.12,171,204z"/>
		<path style="fill:#191919;" d="M169,195l3,4c0.059,1.097-0.232,2.196-1,3c-1.487,0.354-3.728-0.036-4.844-1.304
			c-0.721-0.819-0.231-3.077-2.241-3.576c0.447-1.058,1.79-1.896,2.085-3.01C165.618,192.111,168.967,193.559,169,195z"/>
		<path style="fill:#191919;" d="M163.915,197.12l1.056,5.695c-1.832,1.239-3.919,1.243-5.572,1.972
			C159.014,202.055,161.946,194.217,163.915,197.12z"/>
		<path style="fill:#242424;" d="M158.984,209.945c-1.082-1.195-0.235-2.75,0.176-4.097c1.83,1.323,3.234,3.029,4.962,4.895
			C161.817,211.471,160.441,210.546,158.984,209.945z"/>
		<path style="fill:#717171;" d="M168,219c0.057,0.652-0.102,1.355,0,2c-1.423,0.18-2.952,0.07-4-1v-1H168z"/>
		<path style="fill:#313131;" d="M163.501,207.807c-1.216-0.762-1.875-1.682-2.548-2.469c1.321-0.629,2.673-0.623,3.012,0.163
			C164.243,206.146,164.045,208.145,163.501,207.807z"/>
		<path style="fill:#2D2D2D;" d="M105,53.294c0.673,0.241,1.285,1.107,2.194,0.843c2.592,0.128,3.595,1.655,1.806,3.864
			c1.68,4.288-6.606,5.107-8,9c-1.935-0.116-4.49,3.66-5.67,1.362C95.15,68.011,95.069,67.505,95,67c2.266-3.478,4-7.342,6-11
			c0.361-0.66,0.012-1.682,1-2C102.194,50.668,102.978,50.798,105,53.294z"/>
		<path style="fill:#9F9F9F;" d="M102,47c0.06,2.445,2.021,4.144,3,6.294c-0.983-0.353-2.132,0.427-3,0.706
			c1.105-8.461-7.124-5.749-8.085-9.085L102,47z"/>
		<path style="fill:#262626;" d="M173.192,116.126c-0.384,0.495-0.984,1.083-1.192,1.682L168,121l-6.906,5
			c0.359,1.704-0.672,1.704-3.094,0c-1.537-0.177-3.107-0.675-4-2l-0.616-0.754L157,115l2-5c-1.055-2.227-0.336-4.136,2.147-4.685
			c0.247-0.1,0.688,0.069,0.895-0.089C165.567,109.017,168.926,113.179,173.192,116.126z"/>
		<path style="fill:#B5B5B5;" d="M161.094,126l0.808,4.097c-1.565-1.107-2.459-2.862-3.903-4.097H161.094z"/>
		<path style="fill:#9C9C9C;" d="M172,117.808c-0.623,1.801-2.033,3.137-4,3.192C168.733,119.327,170.123,117.95,172,117.808z"/>
		<path style="fill:#494949;" d="M144,9l5.066,5.934L152,19c0.529,0.588,0.915,1.083,0.805,1.251
			c-0.552,0.84-6.571,6.122-7.805,5.749c-1.825,0.31-3.464,0.852-4.919,1.626c-0.534,0.081-4.968-8.553-3.081-9.626l3-7
			c0.415-0.425,0.855-1.416,1.045-1.955C141.904,8.229,143.116,8.212,144,9z"/>
		<path style="fill:#C5C5C5;" d="M137,18c0.311,2.371,0.658,5.351,2.731,7.399c1.384,1.368,3.825,0.387,5.269,0.601
			c0.873,0.284,0.86,0.618,0,1c-0.249,0.86-0.584,0.838-1,0c-0.994,2.175-1.328,4.841-1,8c0.75,0.473,0.654,0.827-0.232,1.071
			c-1.876,0.377-3.799-0.647-5.768-3.071v-1c0.067-4.305-1.241-8.558-3.926-12.759l0.561-3.22c-0.24-0.439,0.04-1.212,0.052-1.684
			C135.492,14.887,135.72,16.892,137,18z"/>
		<path style="fill:#A5A5A5;" d="M137,18c-0.157-2.655,1.18-5.137,3-7C139.895,13.499,138.992,16.433,137,18z"/>
		<path style="fill:#252525;" d="M164,94c1.25,0.741,2.539,1.042,4,1c2.217,0.368,4.02,1.35,2,3c1.005,3.409-0.707,4.734-4,4
			c-2.419,1.411-5.288,1-8,1c-0.043-2.182,0.491-4.712,1-7C159.053,92.654,160.72,91.987,164,94z"/>
		<path style="fill:#969696;" d="M164,94c-2.102-0.502-3.744,0.41-5,2c-2.999-0.011-2.851-5.513,0-6
			C160.155,91.932,162.115,92.884,164,94z"/>
		<path style="fill:#909090;" d="M171,94.94c0.8,0.676,1.883,1.297,1.601,2.153c-0.429,1.303-0.797,2.263-1.601,2.908
			c-1.02,0.374-1.354-0.292-1-2c-0.231-1.242-0.972-2.281-2-3C168.982,94.972,170.02,94.892,171,94.94z"/>
		<path style="fill:#9E9E9E;" d="M102,47c-0.124-2.1,1.232-4.189,3.165-5C104.558,43.903,104.141,46.363,102,47z"/>
		<path style="fill:#2A2A2A;" d="M171,28c0.873,0.284,0.86,0.618,0,1c-0.968,2.445-1.625,2.729-1.972,0.853L166,29l-4.946-1.29
			c-1.632,1.264-2.317,0.694-2.054-1.71c-2.647,0.465-2.581,0.158-1-2c-1.823-1.651-1.407-2.576,1-3c0.01-2.808,4.102-4.339,6-2
			c1.228-0.258,2.394-0.144,4.691-1.23L171,28z"/>
		<path style="fill:#414141;" d="M173,35c1.371,2.473,1.51,5.572,0,8c-1.765,0.425-3.165,2-5,2c-0.921,1.786-1.535,2.003-2,0
			c-1.852,2.347-5.225-0.471-4-3c-1.055-0.41-1.278-1.927-0.699-2.628c0.391-0.474,8.377-7.914,8.949-8.14L173,35z"/>
		<path style="fill:#2A2A2A;" d="M173,14c0.404,2.614,0.466,4.027-2,2c-1.993,1.104-4.672,1.036-6,3c-2.07,0.435-3.86,1.871-6,2
			c-1.137,1.935-2.515,1.439-4,0c-2.928-0.163-2.022-1.623,0-3c1.225-0.529,1.198-2.206,2-3C160.179,11.853,172.453,12.521,173,14z"
			/>
		<path style="fill:#3D3D3D;" d="M171,16c0.866-0.479,1.702-0.973,2-2c1.927,3.588,1.303,8.088,0.252,12.824
			C170.958,22.895,171.299,19.362,171,16z"/>
		<path style="fill:#505050;" d="M173,35l-1.598-2.105c-2.528,0.296-3.066-0.429-1.612-2.174c-2.026-0.675-1.622-1.249,1.21-1.721
			v-1c0.494-0.303,2.135-1.55,2.693-0.857C174.256,29.94,174.612,32.99,173,35z"/>
		<path style="fill:#2E2E2E;" d="M80,86c3.229-0.423,5.036,3.199,4,6c0.779,2.431,0.578,5.259-0.601,8.483
			c1.962,1.422,0.934,2.039-1.399,2.517c1.056,2.75-1.842,4.359-3.785,2c-1.231,1.134-2.303,0.134-3.215-3
			c-0.761-0.541-1.281-1.407-2-2v-6c1.343-2.594,1.308-5.709,3.215-8c0.234-0.281,0.484-0.832,0.785-1
			C79.628,83.546,80.628,83.88,80,86z"/>
		<path style="fill:#AFAFAF;" d="M78.215,105c2.923,0.16,2.619,3.491-0.215,4c-1.021-0.992-1.24-2.926-3-3
			c0.769-1.239,0.379-2.678,0-4C76.21,102.861,77.091,104.043,78.215,105z"/>
		<path style="fill:#AEAEAE;" d="M168,45c-0.991,1.47-0.912,3.287-0.862,5c-0.977,1.111-2.497-0.661-2.138-2
			c-2.67-1.424-1.965-3.473,1-3H168z"/>
		<path style="fill:#949494;" d="M125,233c-0.662,2.253-2.64,2.11-5.936-0.427c-2.512,0.843-4.867,0.985-7.064,0.427
			c-1.449-0.769-2.919-1.769-4-3c-0.049-2.694,1.878-3.436,4-2c0.768,0.491,1.734,1.325,1.485,1.811
			c-0.835,1.634-3.134-0.896,4.126-2.664c0.832-3.958,2.295-5.34,4.388-4.147c2.232,0.238,2.432,2.117,0.6,5.639
			C125.616,229.661,126.416,231.114,125,233z"/>
		<path style="fill:#1F1F1F;" d="M129,219c1.176,2.416,4.101,2.99,7.073,4.285c-1.189,1.927-2.817,3.598-3.073,5.715
			c0.825,2.845-1.445,4.011-4,3l-4,1c-0.266-1.717-4.167-2.522-4.85-3.706c0.334-2.309,2.274-4.221,1.85-6.294l2-5
			c0.281-0.745,0.615-0.729,1,0C125.226,214.534,129.096,215.8,129,219z"/>
		<path style="fill:#1D1D1D;" d="M147,225c1.102,2.722,2.007,5.514,2.054,8.964l-10.793-0.057
			c-0.565-3.715-3.925-8.696-1.309-10.478C139.556,221.655,143.309,225.248,147,225z"/>
		<path style="fill:#1D1D1D;" d="M155.814,225c0.494,1.932,0.223,3.265-0.814,4c-0.044,2.062,0.581,4.397-1,6
			c-0.93-0.067-2.668,0.416-3.715-0.246c-0.448-3.393-1.506-6.672-1.285-9.754c-0.133-2.708,1.808-4.113,3.945-2.076
			c0.662-0.009,1.468-0.162,2.19,0.198C155.746,223.425,155.799,224.347,155.814,225z"/>
		<path style="fill:#383838;" d="M129,232c1.318-1.614,2.848-2.147,4-3c0.73-0.286,1.496-1.196,1.728-0.902
			c2.043,2.647,2.481,5.598,2.227,8.856l-9.893,0.021C126.521,234.7,127.898,233.348,129,232z"/>
		<path style="fill:#363636;" d="M149,237c-3.715-0.614-7.013,1.175-10.8-0.944C137.03,234.466,153.846,234.212,149,237z"/>
		<path style="fill:#3A3A3A;" d="M155,21c2.167,0.501,3.167,1.501,3,3c0.224,0.679,0.86,1.293,1,2
			c1.866,0.979,1.874,2.068,0.027,3.265c-1.063,2.828-0.739,5.74,0.973,8.735c1.916,1.249,2.232,2.126,0,3l-4.728,2.069
			c-1.67-0.94-4.292-1.542-6.163-2.002c-2.778-1.26-2.52-1.738,0.073-2.983c-1.435-1.187-0.952-1.817,0.819-1.084
			c0.676-1.435,0.543-2.567,0-4c-3.217,0.993-3.721-4.347-2.105-5.895c-2.37-1.137,2.789-5.974,4.472-6.899
			C153.526,19.569,154.599,19.542,155,21z"/>
		<path style="fill:#1B1B1B;" d="M151,63c-0.103,2.803-2.362,2.724-3,0c-2.512,2.214-5.119,1.505-4-2l-2-1c-2-0.465-2-1.798,0-4
			c-2.011-1.448-1.453-2.295,1-2c-0.582-3.326-0.256-4.492,0.978-3.496c1.365-1.785,3.354-2.918,5.969-3.4
			c0.268,0.035,0.565,0.279,0.83,0.247C152.068,52.197,151.702,57.996,151,63z"/>
		<path style="fill:#323232;" d="M168.156,57.156L166,57c-1.434,0.047-2.767-0.62-4-2c-1.876,2.967-4.672-0.179-4-3
			c-1.898-0.757-3.475-2.405-4.73-4.945c0.831-1.087,2.454-1.081,3.849-0.185l9.917,6.368c1.06,0.681,2.027,0.957,1.837,2.052
			C168.762,55.935,168.22,56.526,168.156,57.156z"/>
		<path style="fill:#2D2D2D;" d="M149.108,41.067c0.207,1.338,1.783,1.77,3.027,3.085c-0.654,1.167-1.329,2.381-2.188,2.953
			l-4.994,2.172L144,48c-1.764-0.455-2.323-1.122-1.677-2c-0.56-1.788,0.189-7.814,2.23-7.606
			C145.823,38.524,149.419,39.786,149.108,41.067z"/>
		<path style="fill:#505050;" d="M162,42l4,3c-0.507,0.934-0.827,1.952-1,3c1.387,1.481,0.801,2.051-1,1
			c-3.27-0.946-6.818-3.096-8.728-5.931L160,41C161.477,39.501,162.338,39.92,162,42z"/>
		<path style="fill:#9B9B9B;" d="M153.27,47.055c1.96,1.265,3.42,3.062,4.73,4.945c1.157,1.282,0.921,2.482-1,3
			c-1.57,0.169-2.568-0.121-2.992-1.562c0.447,4.184,0.111,7.977-1.008,11.378c1.266,1.503,0.753,2.06-1,1.184
			c-2.944,0.752-3.544-1.275-1-3c-0.091-5.218,0.22-10.446-0.223-15.648L153.27,47.055z"/>
		<path style="fill:#5D5D5D;" d="M167.138,50c0.023,0.779-0.763,1.26-1.614,1.01c-0.646-0.19-1.025-1.504-1.524-2.01
			c0.411-0.248,0.748-0.592,1-1L167.138,50z"/>
		<path style="fill:#9F9F9F;" d="M157,227c1.126,0.703,2.072,0.983,3.06-0.06c0.475,0.8,1.36,1.347,1.94,2.06
			c-0.522,2.644,0.308,4.973,2,7c-1.321,0.734-3.819,0.588-4-1c-0.508-2.121-1.841-3.454-4-4c-0.011-0.792-0.069-1.809-1-2
			c0.028-1.318-0.489-3.214,0.814-4C155.832,225.826,156.701,226.361,157,227z"/>
		<path style="fill:#ABABAB;" d="M83,83c-0.164,1.909-1.154,2.873-3,3c-0.626-0.794-2.142-0.712-3-1c3.045-1.402,3.493-4.313,5-7
			C84.623,78.33,84.699,81.385,83,83z"/>
		<path style="fill:#AAAAAA;" d="M83,72c3.636,0.361,2.627,6.962-1,6c0.272-2.324-0.992-5.396,1-7C82.982,71.314,82.947,71.69,83,72
			z"/>
		<path style="fill:#3E3E3E;" d="M95,79c-0.544,2.269-0.721,4.599-0.532,6.99l-2.274-0.573C89.42,86.631,87.689,86.492,87,85
			c-2.036,1.691-3.804,0.417-4-2c-1.029-1.221-1.181-3.453-1-5c1.044-1.862,1.399-3.676,1-6c1.493-1.834,1.402-5.908,4.465-6.588
			c2.456,1.305,6.342,4.052,8.354,6.229C95.283,74.179,94.874,76.878,95,79z"/>
		<path style="fill:#242424;" d="M99,75c1.307,2.335,2.863,4.173,4.669,5.514L103,82c1.914,6.177-0.442,6.378-6,5
			c-1.217,0.252-2.457-0.371-3.719-1.867C94.311,83.707,94.884,81.663,95,79c1.701-1.295,0.801-3.5,1.064-6.077
			C97.392,73.51,97.936,74.635,99,75z"/>
		<path style="fill:#313131;" d="M106,76c3.108,0.738,2.147,3.765-1,3l-1.476,2.415L99,75c-0.179-1.459,1.236-2.067,2-3
			c0.886,0.148,2.709-0.63,3.548,0.407C105.477,73.554,104.821,75.369,106,76z"/>
		<path style="fill:#1A1A1A;" d="M101,72c-1.388-0.231-3.036,0.842-4.588-1.08L101,68c1.205-0.767,2.38-2.487,4.222-2.965
			c1.264,0.192,1.268,4.33,0.06,5.205C103.837,71.285,101.959,70.829,101,72z"/>
		<path style="fill:#282828;" d="M157,55c3.208-0.97,4.849,3.708,1.302,4.706c-0.149,0.593-0.26,1.593-0.138,2.192
			c0.572,1.682-2.581,3.881-3.998,2.995c-0.347,1.706-1.043,1.603-1.165-0.076c-0.706-0.885-1.043-2.158-1.034-3.733l0.073-13.133
			C155.423,49.355,155.489,52.484,157,55z"/>
		<path style="fill:#303030;" d="M162,55c2.206,0.969,2.872,1.969,2,3c1.32,1.342,0.878,1.925-0.953,1.286
			c-1.431,0.87-3.153,0.647-4.745,0.42c0.453-1.797-0.416-3.231-1.302-4.706c-0.047-1.085-0.216-2.545,1-3
			C158.896,53.288,160.486,54.574,162,55z"/>
		<path style="fill:#393939;" d="M163.047,59.286c0.418-0.28,0.518-1.064,0.953-1.286c-1.225-1.738,0.372-2.005,2-1
			c0.323,1.349,1.821,2.411,1.595,3.467c-0.306,1.431-1.917,2.269-3.924,2.357C162.095,62.893,162.92,60.302,163.047,59.286z"/>
		<path style="fill:#9B9B9B;" d="M159.11,64.249c-0.999,0.312-2.275,1.082-3.11,1.932c-0.263,0.268-0.638,0.707-1,0.819
			c-2.022-0.055-2.3-0.758-0.835-2.108l3.998-2.995C160.602,61.434,161.219,62.802,159.11,64.249z"/>
		<path style="fill:#2A2A2A;" d="M159.11,64.249c-0.088-0.847-0.784-1.548-0.947-2.352c0.922-0.691,3.448-2.065,3.906,0.084
			C162.446,63.748,159.995,63.973,159.11,64.249z"/>
		<path style="fill:#373737;" d="M120,216l0.501,2.412l-5.958,9.464L112,228c-0.876,1.154-2.712,1.664-4,2
			c-0.69-0.787-0.829-2.028-1-3c-2.175-2.618-0.003-8.203,3.207-9.047c-1.231-4.294,5.088-7.964,8.793-8.953
			C121.299,210.922,123.35,214.536,120,216z"/>
		<path style="fill:#3E3E3E;" d="M94,237c0.717-4.808,2.343-9.709,5.052-13.756c1.519,2.197,3.582,3.792,5.991,6.227l-6.824,6.793
			C97.042,237.436,95.184,237,94,237z"/>
		<path style="fill:#2A2A2A;" d="M110.207,217.953c-0.782,3.092-2.127,6.058-3.207,9.047c-3.143,1.51-5.153-2.866-7-5.134
			c1.412-0.509,2.306-1.594,3.1-2.756c-0.937-2.635,0.866-3.793,2.963-1.837C108.903,214.368,111.745,212.721,110.207,217.953z"/>
		<path style="fill:#1C1C1C;" d="M103.1,219.11c-0.986-0.327-1.6-0.17-2.159,0.431C99.98,220.575,99.784,218.8,100,218
			c0.309-0.347,0.718-0.633,1-1C103.001,214.401,105.107,216.421,103.1,219.11z"/>
		<path style="fill:#2B2B2B;" d="M171,100l0.197,2.803c-1.793-0.093-3.817,0.683-5.197-0.803c1.944-0.546,3.448-2.059,4-4
			C170.596,98.501,170.946,99.228,171,100z"/>
		<path style="fill:#2A2A2A;" d="M161.147,105.315c-0.048,1.767-0.645,3.631-2.147,4.685l-2,5c-1.071,3.788-2.732,6.837-4.983,9.145
			L151,124c-0.772,0.072-1.461,0.45-2,1c-0.091,0.705-0.209,1.261-0.425,1.302c-0.58,0.109-12.603-1.026-8.575-3.302
			c0.94-4.995,2.195-10.073,3.764-15.234c-1.902-1.099-0.901-1.345,1.236-1.766l-0.342-1.374c4.139-0.572,8.253-0.781,12.342-0.626
			C158.208,103.168,160.433,104.356,161.147,105.315z"/>
		<path style="fill:#181818;" d="M159,90v6c-0.186,2.709-0.853,5.042-2,7h-4c-0.945,0.234-1.266-0.111-0.963-1.037
			c-3.07,0.54-8.003-1.44-7.037-4.963c-1.369-0.842-0.862-4.633,1-5l5-2c-0.597-2.726,2.04-3.113,4-2
			C156.627,87.745,158.16,88.595,159,90z"/>
		<path style="fill:#C2C2C2;" d="M105,79c1.726,1.16,8.286,11.44,8.205,12.313c-1.761-0.798-1.515-0.571,0.736,0.681
			c2.05,1.635,2.694,6.389,3.022,9.085c1.712-1.814,2.194-1.497,1.861,0.921c5.225,0.32,10.593,0.08,16.105-0.72L136,103
			c4.961-1.882,10.982-2.04,16.037-1.037c0.273,0.38,0.712,0.637,0.963,1.037c0.855,1.358,2.587,1.089,4,1
			c-4.058,2.796-8.381-1.143-12,2c-0.284,0.873-0.618,0.86-1,0c-7.308-0.378-14.641-0.712-22-1c-0.307,1.896-1.094,1.78-2,0
			c-3.182,0.174-4.367,3.584-6.965,4.935c-0.995-1.771-1.072-4.118-0.229-7.04c-0.817-3.618-2.419-6.583-4.806-8.895
			c-2.656-0.319-2.541-1.239,0-2c0.688-0.929-0.053-2.096-2.222-3.501L104,84l-1-2c-1.28-2.406-3.665-4.263-4-7
			c2.276,0.781,2.734,3.354,4.449,4.99c0.481-0.543,0.81-1.574,1.053-1.921C104.651,77.855,105.213,78.649,105,79z"/>
		<path style="fill:#909090;" d="M158,103h-1c0.899-2.326,0.395-4.968,2-7C159,98.378,159.328,100.928,158,103z"/>
		<path style="fill:#1F1F1F;" d="M160,235c-1.365-0.176-2.663,0.675-3,2c-1.611-1.571-0.97-3.939-1-6
			c0.978-0.773,2.326-0.921,3.502-1.081c1.682-0.229,1.686,1.27,1.484,2.468C160.851,233.186,160.592,234.18,160,235z"/>
		<path style="fill:#3A3A3A;" d="M164,236c-0.689,1.859-3.626,1.087-4.98,0.61c0.794-0.864,0.787-1.343,0.98-1.61
			C161.362,235.176,162.652,235.757,164,236z"/>
		<path style="fill:#1E1E1E;" d="M125,233c0.142,0.919,1.936,2.806,0.783,3.661c-2.738,1.113-6.729-0.097-8.783-0.661
			c-0.54-0.148-1.651-0.569-2-1c-0.805-0.993-1.889-1.41-3-2C121.91,227.087,121.475,233.881,125,233z"/>
		<path style="fill:#ABABAB;" d="M47,211c0.762-2.76,0.815-5.957,3-8C49.687,205.827,49.231,209.077,47,211z"/>
		<path style="fill:#B6B6B6;" d="M54,196c0.873,0.284,0.86,0.618,0,1c-0.886,1.108-1.961,2.039-3,3c0.022-1.402-0.229-2.81-1-4
			C51.592,196.665,52.522,196.325,54,196z"/>
		<path style="fill:#414141;" d="M77,205c2.197,0.822,2.53,1.489,1,2l-12,6h-2l-2-5l-1.953-5.047
			c-0.776-1.554-1.985-2.951-2.047-4.953c-1.512-0.774-0.846-1.774,2-3c0.669-0.336,1.311-0.754,2.024-1
			C66.195,198.634,72.456,200.712,77,205z"/>
		<path style="fill:#B6B6B6;" d="M60,195l-2,3c-0.881-0.853-2.819-0.968-4-1v-1C55.939,195.573,58.116,195.945,60,195z"/>
		<path style="fill:#AFAFAF;" d="M62,208c-2.229-1.035-1.14-3.421-1.953-5.047C61.846,203.845,61.85,206.214,62,208z"/>
		<path style="fill:#ADADAD;" d="M64,213c-1.742-0.796-1.855-3.276-2-5C63.738,208.807,64.079,211.363,64,213z"/>
		<path style="fill:#9E9E9E;" d="M147,169c-1.036,1.451-2.863,3.516-4.778,2.98C142.221,169.822,145.247,169.438,147,169z"/>
		<path style="fill:#252525;" d="M138.984,133.273c3.355,1.392,6.748,6.029,5.016,9.727c0.708,1.606,2.702,13.959-1,12l-3,0.134
			l-2.209-1.147c-2.941-0.124-4.51-0.899-4.709-2.324c-1.688-1.116-1.691-2.326-0.009-3.628c1.052-5.549,2.636-10.818,4.752-15.806
			L138.984,133.273z"/>
		<path style="fill:#2F2F2F;" d="M149,128l2,5c-0.429,4.339,6.275,10.591,0.9,10.084c-0.441-0.527-1.413-0.587-1.9-1.084
			c-0.265-1.443-1.936-1.705-3-2c-3.042,0.375-6.989-6.201-6.688-9c-2.605,0.848-2.827-3.221-1.433-4.916
			c0.108-2.042,0.569-1.756,2.027-0.651C145.383,124.746,148.081,125.601,149,128z"/>
		<path style="fill:#363636;" d="M147,140c-0.453,1.485-1.228,3.165-3,3c-1.471-3.335-3.319-6.508-5.016-9.727
			c-2.175-0.895-0.905-3.467,1.328-2.273C142.29,134.115,145.569,136.611,147,140z"/>
		<path style="fill:#A7A7A7;" d="M86,205c-1.958,2.187-5.594,0.797-8,2c-0.446-0.545-0.49-1.519-1-2
			C79.944,206.116,82.964,204.572,86,205z"/>
		<path style="fill:#A7A7A7;" d="M62,192c-0.024-2.014,1.024-4.185,3-5C64.654,188.922,64.041,191.24,62,192z"/>
		<path style="fill:#252525;" d="M115,51c1.743-0.531,4.074-0.344,5.038,1.677c-3.131,2.939-6.619,3.974-9.507,7.29L109,58
			c-0.513-1.308-1.978-2.284-1.806-3.864c0.521-1.775,1.952-1.352,3.624-1.862L115,51z"/>
		<path style="fill:#191919;" d="M109,72l4,3c2.43-0.771,2.778-0.467,2,2c1.65,0.108,1.568,2.516,1,4
			c1.79,4.106,1.533,7.702-2.059,10.994c-0.474,0.281-0.921,0.706-1.811,0.909C110.451,89.281,103.409,81.83,105,79
			c0.591-1.051,1.091-1.661,1-3c-0.095-1.389-0.295-3.229,0.288-4.754C107.035,70.155,108.331,71.938,109,72z"/>
		<path style="fill:#3C3C3C;" d="M142.768,36.071c1.004,2.133-0.585,3.878-4.768,5.234c1.056,1.227,0.402,1.612-1,0.696
			c-0.567,1.712-2.224,3.363-4,3c-2.078,0.308-2.706-1.855-4-3l-2-5c0.036-0.329-0.057-0.674,0-1c2.958-2.053,6.823-1.23,10-3
			C140.363,31.127,142.885,36.162,142.768,36.071z"/>
		<path style="fill:#252525;" d="M127,37l2,5l0.639,3.802l-5.6,4.191c-1.631,1.221-3.555,1.61-5.052-0.418
			c1.334-1.569,2.149-3.554,2.014-5.575c-0.051-0.755,0.407-1.562,1-2l2-5C125.086,36.273,125.915,36.269,127,37z"/>
		<path style="fill:#262626;" d="M131,53c3.687-1.594,3.284,2.138,2.932,5.068c1.213-1.446,1.841-0.844,1.068,0.932
			c0.995,0.109-0.408,4.877-0.988,6.147c-0.953,2.084-2.593,5.634-4.012,2.853c-2.915,1.196-4.254-0.066-3-3
			c-1.136-1.36-1.136-3.026,0-5c-1.636-1.925-1.733-3.28,1-4C128.379,54.661,129.631,52.858,131,53z"/>
		<path style="fill:#111111;" d="M128,56c-0.382,1.348,0.289,2.923-1,4c-0.227,2.323-0.894,3.323-2,3c-1.868,2.577-4.851,0.716-3-2
			c-0.959-0.147-1.959-0.814-3-2c-0.223-1.588-0.034-3.42,0.91-4.604c1.685-2.112,7.537-1.748,8.024-0.83
			C128.279,54.216,127.95,55.276,128,56z"/>
		<path style="fill:#1D1D1D;" d="M115.286,67.627c0.796,1.731-0.434,0.684-0.352,0.636c1.448-0.854,6.301,2.026,7.395,3.186
			c0.206,0.219-0.002,0.829-0.329,1.551c1.563,2.595-2.7,5.827-5,4c-0.407,2.738-0.954,2.442-2,0c-0.605-0.579-1.688-1.041-2-2l-4-3
			c-0.224-0.585,0.159-1.39,0-2c3.44-0.6,3.44-0.6,0,0c-3.177-0.348-2.949-5.815-0.598-7.333c2.043-1.319,4.137-1.156,5.558-2.368
			c0.798-0.253,1.434-0.421,1.504-0.289C116.46,61.893,117.199,66.697,115.286,67.627z"/>
		<path style="fill:#151515;" d="M133.932,58.068c-0.707-1.9-1.164-3.89-2.932-5.068v-3c-1.343-1.255-0.736-1.67,1-1
			c-0.601-1.338,0.659-2.858,2-2l1.231,0.545l0.396,7.842C137.161,56.155,136.595,57.048,133.932,58.068z"/>
		<path style="fill:#646464;" d="M117,59c0.864,0.817,1.864,1.484,3,2c0.903,0.173,0.933,0.508,0.129,1
			c3.341,1.012,1.167,5.829-1.966,4c-0.089,2.918-0.216,3.018-2.877,1.627c0.168-2.117,0.141-6.124-1.325-7.328
			c-0.205-0.169-0.788-0.389-0.908-0.815c-0.151-0.54,0.769-0.304,0.947-0.484C115.787,57.819,116.787,57.819,117,59z"/>
		<path style="fill:#181818;" d="M131,48c0.84-0.391,1.141-0.012,1,1c-0.273,0.369-0.766,0.61-1,1
			c-1.384,2.308-4.626,2.76-6.701,1.46C127.405,49.685,128.472,47.385,131,48z"/>
		<path style="fill:#414141;" d="M137,44c1.503,1.316,0.845,1.968-1,1c-0.343,1.764-1.01,2.431-2,2c-0.497,0.78-1.45,1.259-2,2
			c-0.368-0.297-0.703-0.632-1-1c0.149-1.324,1.115-2.139,2-3c1.204-1.171,2.527-2.176,4-3C139.134,42.092,138.644,42.871,137,44z"
			/>
		<path style="fill:#171717;" d="M119,59c1.108,0.497,1.923,1.013,1,2c-1.303,0.727-1.172,2.413-2.561,4.068
			c-0.88-1.977-0.34-4.066-0.439-6.068C117.662,59,118.341,59.064,119,59z"/>
		<path style="fill:#2B2B2B;" d="M117,59h-3c0.893-0.988,2.498-2.024,3.699-3.075C118.83,57.55,117.028,58.188,117,59z"/>
		<path style="fill:#9E9E9E;" d="M122,42c-0.065-1.928,0.347-3.894,2-5C124.211,38.902,123.545,40.859,122,42z"/>
		<path style="fill:#3F3F3F;" d="M137,32c-1.939,0.406-5.342,1.631-7.964,0.887l-0.11-15.794c1.837-1.201,3.285-1.13,4.709-1.072
			c2.499,4.572,4.66,9.445,6.444,15.036C139.86,32.069,137.747,31.844,137,32z"/>
		<path style="fill:#959595;" d="M138,125c1.29-0.637,1.712-0.058,0.879,1.084c0.151,1.627,0.529,3.491,1.433,4.916
			c-0.769,0.517-1.185,1.372-1.328,2.273c-1.15,0.105-1.839,1.051-2.202,2.463l-3.684,14.347c1.227,4.322,6.397,1.611,6.901,5.051
			c-2.488,0.111-5.701-2.022-8-0.134c0.205-1.044,1.323-2.832,0.049-3.463c-0.834-0.413-2.102-2.443-3.049-2.537
			c0.934,0.034,3.232,0.301,3.626-1.27l4.44-17.743c0.689-2.755-0.744-3.677-2.122-4.874C135.481,122.287,137.257,122.183,138,125z"
			/>
		<path style="fill:#A4A4A4;" d="M134.943,125.112c-3.837,0.085-7.368-1.85-10.943-3.112c-0.685-2.287-0.692-5.773-1-8
			c2.499,0.394,3.933,2.371,4.301,5.932l4.673,1.376C134.862,121.901,135.852,123.169,134.943,125.112z"/>
		<path style="fill:#A2A2A2;" d="M112,131c-0.699,1.674-2.13,3.008-4,3C108.735,132.325,110.107,131.014,112,131z"/>
		<path style="fill:#A4A4A4;" d="M116,128c-0.686,1.681-2.128,2.986-4,3C112.704,129.314,114.129,128.072,116,128z"/>
		<path style="fill:#363636;" d="M104,143c2.251,2.469,4.254,5.152,6,8l3,4v3l-3.971,5.11c-0.521,0.602-1.307,1.497-2.029,1.89
			c-1.077,1.377-2.017,2.735-2.819,4.074l-10.855-1.283c-0.268-0.869-0.044-1.8,0.674-2.792l3-10
			c1.873-2.416,1.723-5.445,3.005-8.139c0.706-1.483,0.929-3.035,2.199-4.879L104,143z"/>
		<path style="fill:#909090;" d="M94,165c-0.092,1.698,0.807,1.864,2.481,2.449c4.354,1.52,7.662,0.462,10.519-2.449
			c0.018,1.492-1.018,2.483-2.462,4.163c6.453,2.278,7.008,4.328,12.462,3.837c1.07,2.64-0.752,3.456-3,2l-2.564,0.89
			c-6.303-4.035-12.782-5.616-19.437-4.744c-1.754,1.525-3.42,2.143-4.999,1.854c2.248-2.154-11.301-13.342-13-15
			c2.191,0.639,2.585-1.928,4-3l-0.657,3.946c3.694,2.79,6.459,7.767,10.737,9.793C90.37,169.823,92.957,166.412,94,165z"/>
		<path style="fill:#989898;" d="M94,165c0.185-3.401,0.845-7.221,3-10C97.164,158.1,95.728,162.661,94,165z"/>
		<path style="fill:#989898;" d="M83.955,142.772c-0.812,1.53-1.652,3.071-2.955,4.228l-1-4.021c0.816,0.555,1.81,1.091,2.776-0.251
			C83.296,142.005,83.94,141.804,83.955,142.772z"/>
		<path style="fill:#979797;" d="M78,155c0.302-1.816,0.295-3.975,2-5C79.985,151.986,79.623,153.771,78,155z"/>
		<path style="fill:#989898;" d="M122,105c7.311,0.302,14.645,0.635,22,1h1l-5,17c-0.284,0.873-0.618,0.86-1,0l-1.084-3.118
			l2.675-10.507c-6.397-0.455-12.594-0.58-18.591-0.375c-1.283-0.72-1.279-2.892-2-4C120.655,104.964,121.344,105.002,122,105z"/>
		<path style="fill:#C7C7C7;" d="M113.035,109.935c-1.454,4.552-3.626,9.612-7.035,13.065v-3l-0.1-2.492
			c2.323-2.55,2.69-4.719,1.1-6.508C106.087,107.61,111.713,107.23,113.035,109.935z"/>
		<path style="fill:#AFAFAF;" d="M123,114c-0.181-1.309-1.725-3.372-1-5C125.412,106.811,126.324,112.823,123,114z"/>
		<path style="fill:#252525;" d="M129,175c1.108,1.89,2.161,3.977,3,6l3,5c0.062,1.647-0.482,3.444-1,5c3.177,3.277-2.042,6.94-5,8
			c-1.684,0.279-3.684,0.613-6,1c-0.631,3.236-3.926,2.21-3-1c-2.746-0.195-3.412-1.528-2-4c-1.389-1.869-2.056-4.203-2-7l-2-13
			c0.799-0.952,2-1.329,3-2c0.543-0.364,1.372-0.854,2-1l5-2c1.708-2.322,2.803-1.551,3.285,2.311L129,175z"/>
		<path style="fill:#979797;" d="M129,175c-0.591-1.008-2.478-1.368-2.676-3.424c-0.133-1.376-1.519-1.572-2.324-1.576
			c1.232-1.416,2.428-3.003,4-4C126.126,169.055,128.091,171.847,129,175z"/>
		<path style="fill:#9C9C9C;" d="M109.029,163.11c0.014-2.33,1.958-4.095,3.971-5.11C113,160.526,110.681,161.631,109.029,163.11z"
			/>
		<path style="fill:#949494;" d="M124,170c-1.306,1.501-2.956,2.1-5,2C120.033,170.262,122.125,169.99,124,170z"/>
		<path style="fill:#A3A3A3;" d="M107,111c1.153,1.412,0.408,2.668-2.236,3.767L103,117c-0.865-0.865-2.256-1.172-3.026-0.544
			C95.75,119.901,99.69,121.555,99,127c-1.849-2.314-0.849-5.591-2.701-8.342C93.084,119.44,90.53,120.296,88,120
			c-0.918-2.505,1.449-3.861,7.102-4.068c1.67-0.275,2.303-1.919,1.898-4.932c0.285-1.866,1.533-2.142,3.744-0.829l-1.567-8.604
			L101,100c0.185-0.878,0.525-0.841,1,0l2.192,0.609C104.804,104.194,105.739,107.658,107,111z"/>
		<path style="fill:#AAAAAA;" d="M83,121c-0.813,0.865-2.137,1.191-3,2c-1.121,1.051-2.69,0.634-4,1c3.65-1.629,3.176-5.426,3-9
			C81.087,114.313,82.421,116.313,83,121z"/>
		<path style="fill:#A4A4A4;" d="M85,132c-2.139-0.761-2.505-3.039-3-5C84.014,127.777,84.682,129.996,85,132z"/>
		<path style="fill:#ABABAB;" d="M88,120c-1.207,1.373-3.47,1.098-5,1C82.062,117.353,87.108,116.469,88,120z"/>
		<path style="fill:#949494;" d="M135,186c-2.344-0.621-2.245-3.18-3-5C133.861,181.821,134.923,183.976,135,186z"/>
		<path style="fill:#383838;" d="M140,203c0.353,1.077,1.788,1.891,2,3c2.17,0.502,2.17,1.836,0,4c3.112,1.545,1.533,8.207-2,8
			c-0.682,1.403-1.416,2.965-2.858,4.333c-3.285-1.022-5.372-2.908-8.142-3.333c-1.31-0.201-2.517-1.457-4-1
			c-2.813,0.803-2.939-0.125-1-2c-2.069-1.456-3.403-3.789-4-7c-0.078-1.628,8.585-7.772,9.835-8.072
			C130.47,200.775,140.436,201.331,140,203z"/>
		<path style="fill:#BCBCBC;" d="M134,198c1.026,1.262,2.442,1.462,4.248,0.6L140,200c-0.378,0.789,0.245,2.134,0,3
			c-8.232-3.475-13.884,0.799-20,6c-0.307,0.56-0.641,0.549-1,0c-3.869,2.287-7.66,4.476-8.793,8.953
			c-0.162-0.758-0.076-1.503-0.575-2.587c-1.339,1.009-2.523,1.258-3.57,1.907c-1.103-0.948-1.74-1.97-0.66-2.879l18.064-12.415
			L123,200c1.097-1.854,4.176-0.811,6-1c0.372-0.461,0.89-0.578,1.554-0.353C132.351,196.057,135.541,193.919,134,198z"/>
		<path style="fill:#383838;" d="M143,194c-1.585,1.646-1.804,4.051-3,6c-2.724,1.439-6.101,1.363-9.061,0.592
			c1.758-0.826,2.652-1.378,3.061-2.592c-0.212-3.104,3.28-4.866,6-4C141.857,192.583,142.857,192.583,143,194z"/>
		<path style="fill:#9D9D9D;" d="M153,198c0.072,4.796,0.108,7.194,0.108,7.194c1.627,0.341,2.173,0.922,1.928,2.801
			c-0.042,0.335-0.046,0.672-0.013,1.008l-1.544,1.633c-3.866-0.62-7.693-0.832-11.479-0.636c0.118-1.247,0.138-2.761,0-4
			c2.222,1.313,4.94,1.247,7.987,0.845L150,194C150.95,195.32,152.408,196.417,153,198z"/>
		<path style="fill:#CCCCCC;" d="M146,190.116c-0.846,1.413-1.861,2.701-3,3.884h-3c-2.12-3.43,2.087-4.547,5-4
			C145.248,190.152,145.706,190.072,146,190.116z"/>
		<path style="fill:#1D1D1D;" d="M153,198c0.672,1.799,2.439,2.386,3.84,3.591l0.905,3.762c0.324,1.349-1.105,2.58-2.708,2.642
			c-1.117-0.712-2.758-0.561-3.465-1.27C150.721,205.872,149.938,196.118,153,198z"/>
		<path style="fill:#C5C5C5;" d="M160,187c0.855,2.229,0.885,4.762,0,7c-0.388,0.388-0.798,0.747-1.289,1
			c0.823-2.86,0.289-6.087,0.289-9C159.386,186.281,159.673,186.66,160,187z"/>
		<path style="fill:#939393;" d="M113,155c-1.481-1.009-3.079-1.893-3-4C111.678,151.706,113,153.114,113,155z"/>
		<path style="fill:#1D1D1D;" d="M155.024,209.003c2.683-1.881,3.412,11.702-2.079,13.921c-1.304,0.527-2.405,1.87-3.945,2.076
			c-0.648,0.087-1.347-0.044-2,0c-0.888-2.193-6.14-1.883-6.83-3.731c-0.419-1.122-0.216-2.248-0.17-3.269
			c1.193-2.456,1.744-5.3,2-8C143.248,206.484,152.327,208.093,155.024,209.003z"/>
		<path style="fill:#2A2A2A;" d="M166,189c0.904-0.3,1.063,0.643,0.48,2.828c1.009,1.805,0.849,2.565-0.48,2.282
			c-1.074-0.03-2.178,0.954-3.676,0.636c-0.311-3.114-1.241-6.444,0.676-8.746C163.621,187.326,164.628,188.448,166,189z"/>
		<path style="fill:#232323;" d="M160.06,226.94c-0.105,0.425,0.13,1.118-0.078,1.555c-0.378,0.792-1.487,0.571-2.456,0.485
			c-0.883-0.078-0.26-1.413-0.525-1.98c0.049-1.308,0.187-2.651,0.911-3.772C158.717,224.412,159.331,225.712,160.06,226.94z"/>
		<path style="fill:#353535;" d="M160,194v-7C161.691,188.76,161.737,192.263,160,194z"/>
		<path style="fill:#343434;" d="M106,120l-3-3c-0.107-0.884-1.347-2.639-0.362-3.258L107,111c1.005,0.081,2.286-0.282,4.284,0.255
			C109.541,114.391,108.863,118.252,106,120z"/>
		<path style="fill:#AAAAAA;" d="M168,189c-0.556,0.755-0.991,1.82-1.056,2.553c-0.184,2.059,1.917,1.443,3.138,1.528L169,195
			c-0.503-0.671-2.21-0.868-3-0.89V189H168z"/>
		<path style="fill:#3B3B3B;" d="M145,190c-1.946,1.106-3.694,2.23-5,4c-1.432,1.942-4.023,2.776-6,4c0.006-3.821-3.037,4.374-5,1
			c2.143-2.291,4.002-5,5-8C136.928,188.417,141.692,187.969,145,190z"/>
		<path style="fill:#CCCCCC;" d="M69,145c-0.706,1.443-2.201,2.661-3,4c-0.441,0.662-2.198,0.979-3,1v-2L69,145z"/>
		<path style="fill:#313131;" d="M157,82c0.173,0.421,0.708,0.679,1,1c0.939,2.436-1.829,3.45-3,5c-1.285,1.702-2.171,1.39-4,2l-5,2
			c-1.261,1.783-2.024,1.874-2.289,0.273c-1.691,2.532-3.343,0.861-1.024-1.189c-1.725-1.909-2.357-3.427-1.897-4.555
			c5.373-1.471,10.432-3.335,15.178-5.594L157,82z"/>
		<path style="fill:#1D1D1D;" d="M152,76c0.376,0.239,0.589,0.821,1,1c1.865,1.836,2.634,3.416,2.306,4.739
			c-5.21,2.129-10.312,3.55-15.306,4.261c-0.916-0.101-0.863-0.448,0-1c-2.256-1.39-1.55-2.684,2.118-3.882
			c-1.033-2.464-0.649-2.853,1.882-2.118l4.055-2.945C146.539,74.74,147.136,74.117,149,75C149.408,73.179,150.408,73.513,152,76z"
			/>
		<path style="fill:#C9C9C9;" d="M155,67c-1.636,0.505-3.305,0.827-5,1c-0.648,2.189-1.314,2.522-2,1l-0.783,2.282
			c-3.653,0.297-6.725,1.537-9.217,3.718c-0.284,0.873-0.618,0.86-1,0l-1.399-0.852c-2.032,1.061-3.899,1.345-5.601,0.852
			c1.521,2.083-0.141,3.149-2,4c-1.94,1.83-2.306,1.648-2-1c-3.67-2.281,1.859-7.22,5-7c1.259-0.35,2.592-0.683,4-1
			c0.477-1.208,1.144-0.875,2,1c-0.472-2.25,0.462-2.716,2-1c0.926-2.336,1.645-3.3,4-2l6.64-3.088L152,66
			c0.438-0.208,0.699-0.826,1-1.184c0.467-0.554,0.708-0.007,1.165,0.076C155.19,65.078,155.08,66.151,155,67z"/>
		<path style="fill:#8E8E8E;" d="M157,82l-16.078,5.275c1.224,1.174,1.945,2.336,1.766,3.809c-2.246,1.144-4.005,0.191-4.74-2.136
			c-1.032-2.321-0.335-2.968,2.052-2.948l15.191-5.041c-1.13-1.518-2.205-2.468-2.191-3.959C155.088,77.907,156.163,79.961,157,82z"
			/>
		<path style="fill:#8B8B8B;" d="M152,76c-0.904-0.575-1.943-0.869-3-1c-1.648-1.511-3.293-4.419-1-6c0.675-0.189,1.306-0.929,2-1
			C149.194,70.931,151.121,73.278,152,76z"/>
		<path style="fill:#313131;" d="M114,175l2,13l1,7c2.077,2.605,1.744,3.938-1,4c1.281,2.488-0.028,3.022-2,1
			c-2.08,1.313-3.747,1.646-5,1c-0.274-0.341-0.817-0.588-1-1l-4-3c-0.391-0.815-1.536-1.237-2-2l-5-4c-0.484-0.777-1.464-1.256-2-2
			l-6.134-4.945L86,181c-1.937-0.346-1.937-2.012,0-5c0.184-0.813,0.722-2.246,1-3C92.282,163.794,107.254,171.297,114,175z"/>
		<path style="fill:#1C1C1C;" d="M120,199c0.767,0.838,1.897,1.085,3,1c1.83,0.264,3.705-0.605,6.249,0.497l-20.81,14.014
			c-1.208,0.814-2.198,1.54-2.376,2.762l-2.963,1.837c-0.118-1.102-1.159-1.713-2.1-2.11c1.998-2.602,2.761-6.095,5.16-8.858
			c1.464-1.686,2.439-3.195,2.84-5.142c0.954-1.458,2.621-2.458,5-3c0.63-0.096,1.518-0.632,2-1
			C116.605,197.08,117.939,197.08,120,199z"/>
		<path style="fill:#8E8E8E;" d="M95,189c-2.815-0.218-4.32-3.011-6.134-4.945C91.743,184.073,93.437,186.829,95,189z"/>
		<path style="fill:#9B9B9B;" d="M86,181h-3c0.944-1.712,1.382-3.797,3-5C85.632,177.625,85.135,179.585,86,181z"/>
		<path style="fill:#939393;" d="M102,195c-2.392-0.051-3.825-2.114-5-4C99.377,191.06,100.845,193.101,102,195z"/>
		<path style="fill:#989898;" d="M114,200c-1.323,1.26-3.258,2.292-5,3c0.132-0.64-0.094-1.353,0-2
			C110.645,200.556,112.287,200.054,114,200z"/>
		<path style="fill:#939393;" d="M108,200c-1.929,0.045-3.217-1.366-4-3C105.89,196.976,107.267,198.343,108,200z"/>
		<path style="fill:#B8B8B8;" d="M149,125v3c-1.058-0.949-1.693-2.19-3.987-2.115l-6.134,0.199
			c-0.768,0.109-0.965-0.454-0.879-1.084c-1.564-1.605-1.231-2.272,1-2h1c-0.107,0.965,0.404,2.097,1.896,2.08L149,125z"/>
		<path style="fill:#949494;" d="M154,124c-0.914,0.712-2.21,0.959-3,0c3.948-1.414,2.826-6.617,6-9
			C157.058,118.222,154.907,120.953,154,124z"/>
		<path style="fill:#A4A4A4;" d="M151,133c-1.378-1.384-2-2.899-2-5C150.466,129.315,151.203,130.951,151,133z"/>
		<path style="fill:#B4B4B4;" d="M79,115c-1.755-1.39-1.106-4.031-1-6C81.856,107.929,82.369,114.182,79,115z"/>
		<path style="fill:#ADADAD;" d="M155,21c-3.232-0.196-6.634,2.851-7.105,6.105c-0.73,1.412-1.361,1.377-1.895-0.105
			c-0.284,0.873-0.618,0.86-1,0v-1c2.406-2.297,5.366-4.053,7-7c1.051-0.16,2.064-0.497,3-1C155.2,18.942,154.728,20.079,155,21z"/>
		<path style="fill:#A7A7A7;" d="M152,19c-1.707-0.543-2.989-2.255-2.934-4.066C150.164,16.221,152.767,16.741,152,19z"/>
		<path style="fill:#A1A1A1;" d="M157,115c-0.034-1.927,0.348-3.841,2-5C159.125,111.943,158.574,113.818,157,115z"/>
		<path style="fill:#767676;" d="M146,27c1.816,2.621,3.011,8.802,0.068,10.958c-2.055,1.691-3.997,0.944-3.301-1.887
			c0.168-0.281,0.011-0.838,0.232-1.071l0.164-2.549C141.961,29.38,142.24,27.563,144,27c0.326-0.054,0.669,0,1,0H146z"/>
		<path style="fill:#303030;" d="M144,27c-0.337,2.704,1.022,5.869-1,8c-0.36-2.437-1.677-4.527-2.681-7.254
			C141.318,26.704,142.861,27.188,144,27z"/>
		<path style="fill:#ACACAC;" d="M171,29c-2.433,3.014,2.867,2.953,2,6c-1.359-0.202-1.834-1.853-2.722-1.92
			c-1.247-0.094-9.197,7.584-8.278,8.92c-0.588-0.441-1.31-0.714-2-1v-3l5.716-6.07L166,29C167.588,28.617,169.387,29.279,171,29z"
			/>
		<path style="fill:#A8A8A8;" d="M166,29c-0.526,2.018-2.143,2.413-4.852,1.184c1.003,3.802,0.62,6.407-1.148,7.816
			c-5.821-7.3-0.093-7.423-1-12C161.216,27.314,163.755,27.726,166,29z"/>
		<path style="fill:#A8A8A8;" d="M159,21c-0.543,0.919-0.854,1.945-1,3c-1.208-0.688-2.583-1.584-3-3
			C156.305,21.079,157.695,21.079,159,21z"/>
		<path style="fill:#3A3A3A;" d="M90,105c1.299-1.383,1.892-0.743,1,1l4,3c2.368-1.131,2.929-0.473,2,2
			c0.927,1.2,1.754,2.528,2.945,3.432C96.449,120.158,90.51,117.144,88,120c-1.78-0.208-3.723-0.359-5,1
			c-0.771-0.05-2.843,0.561-2.96-0.883c-0.183-2.25,0.407-3.971-1.04-5.117c-0.106-2.15,0.671-4.377-1-6l0.215-4
			c1.409-0.249,2.525-1.578,3.785-2c1.258-2.533,2.056-2.884,2.394-1.055C86.504,101.421,88.373,102.439,90,105z"/>
		<path style="fill:#363636;" d="M83,83c1.548-0.139,3.02,1.169,4,2c2.731-0.099,2.731,1.235,0,4c1.951,1.69,1.536,2.247-1,2
			c-0.739,1.785-1.406,2.118-2,1c-1.885-1.57-2.499-4.097-4-6c-0.033-0.93,0.174-1.956,0.972-2.521
			C81.56,83.063,82.315,83.002,83,83z"/>
		<path style="fill:#949494;" d="M91,99c0.832,1.834,0.498,3.834-1,6c-2.679-0.764-5.127-2.963-8-2c1.293-3.483,2.026-7.281,2-11
			l2-1c1.934,0.773,2.096,3.2,0.485,7.282C88.764,97.058,90.269,97.298,91,99z"/>
		<path style="fill:#313131;" d="M124,216l1,2c-0.311,0.096-0.678-0.057-1,0l-2,5c-3.785,2.19,1.578,6.823-10.947,8.051
			c0.454-1.461,0.945-2.053,0.947-3.051c2.921-3.848,4.571-8.574,8-12C120.478,212.456,121.811,212.456,124,216z"/>
		<path style="fill:#989898;" d="M122,223c-0.372-1.817,0.504-4.009,2-5C123.992,219.771,123.682,222.027,122,223z"/>
		<path style="fill:#383838;" d="M147.895,27.105c0.361,1.89,1.278,4.166,2.105,5.895c1.557,1.923,1.557,3.256,0,4
			c-0.308,0.269-0.375,0.901-0.819,1.084c-0.232,2.385-3.107,2.149-3.113-0.126C145.422,34.341,145.764,30.649,146,27
			c0.256-0.441,0.69-0.663,0.994-0.496C147.318,26.682,147.765,26.936,147.895,27.105z"/>
		<path style="fill:#CBCBCB;" d="M146.068,37.958c0.811,1.077,2.033,0.729,3.113,0.126c0.207,0.964-0.22,2.031-0.073,2.983
			c-1.184-0.291-2.338-0.825-4.006-0.988c-1.555,1.865-1.9,4.053-2.779,5.921c1.472,1.18,0.212,1.581-1.323,1
			c-3.334-1.425-1.851-3.394,0.761-5.018c-1.409-0.152-2.662-0.378-3.761-0.677c0.698-2.413,3.27-3.304,4.768-5.234
			C143.714,36.805,145.292,36.927,146.068,37.958z"/>
		<path style="fill:#B4B4B4;" d="M160,41c-1.075,1.341-3.002,2.473-4.728,2.069C155.462,41.083,158.465,41.309,160,41z"/>
		<path style="fill:#ADADAD;" d="M150,37v-4c0.583,1.219,2.033,1.625,3.039,2.546C151.736,36.494,150.691,36.398,150,37z"/>
		<path style="fill:#A1A1A1;" d="M141,47l1.323-1c0.714,0.49,1.66,1.043,1.677,2c-2.005,1.299-2.005,1.299,0,0
			c2.048,0.068,3.88-1.162,5.947-0.896C147.026,49.05,144.141,50.503,143,54l-1.6-0.896c-0.72,2.151-1.853,3.783-3.4,4.896
			c-0.798,0.625-1.798,0.959-3,1c-0.333-0.261-0.907-0.499-1.068-0.932c1.89-2.953,1.751-8.05,0.068-11.068
			c0.534-0.839,1.009-1.627,2-2C137.446,46.586,139.113,47.253,141,47z"/>
		<path style="fill:#232323;" d="M144,61c0.931,1.294,2.441,1.892,4,2c1.747,2.208,0.08,3.874-5,5c-0.479,1.538-2.864,1.432-4,2
			c-2.321,0.706,1.184-8.002,1.748-8.591C141.81,60.298,142.692,60.012,144,61z"/>
		<path style="fill:#B8B8B8;" d="M142,60c-0.284,0.873-0.618,0.86-1,0l-2.85,1.097c-0.612,2.527-1.662,4.162-3.15,4.903
			c0.332,1.104,0.199,2.276-1,3c0.336,1.526-1.632,2.536-3,2c-1.615,1.649-2.428,1.161-3-1c-1.54-2.336-0.597-2.957,2-2
			c2.082,1.518,4.919-8.573,5-9c0.101-0.529,1.13-1.383,1.561-1.684c0.338-0.237,1.058,0.586,1.439,0.684c0.206-1.865,2.337-2.9,4-2
			V60z"/>
		<path style="fill:#4B4B4B;" d="M151,63c0.018,1.059,0.53,2.084,1,3c-2.646,1.257-6.181,3.162-9,2c0.833-2.676,4.338-2.268,5-5H151
			z"/>
		<path style="fill:#414141;" d="M143,54c-0.225,0.691-0.704,1.336-1,2c-0.642,1.439-2.654,2.346-4,2
			c-0.085-2.281,0.973-4.413,2.379-6.788c0.346-0.584,2.363-0.415,2.589,0.282C143.207,52.232,142.894,53.271,143,54z"/>
		<path style="fill:#959595;" d="M142,60c0.779,0,1.535,0.354,2,1c-3.537-1.924-4.617,6.79-5,9l-2,1c-1.361-1.315-3.091-3.014-1-4
			c0.611-2.46,1.772-4.901,3.483-7.322L141,60H142z"/>
		<path style="fill:#8F8F8F;" d="M166,57c-0.764,0.066-1.342,0.664-2,1l-2-3C163.477,55.416,165.115,55.511,166,57z"/>
		<path style="fill:#ADADAD;" d="M97,87c0.136,0.807-0.028,1.508-0.705,1.878c-0.06,0.033,0.623-1.196,0.745-0.314
			C97.435,91.426,96.893,96.904,95,99c-1.195,2.65-2.504,1.875-2.139-1c-2.011-0.977-2.271-3.403-0.78-7.276
			c0.701-3.253-0.247-3.572-2.843-0.957L87,89c0.422-1.325,0.951-2.809,0-4c2.169,0.096,4.931,0.346,7.158-0.441
			C93.882,81.904,93.622,80.049,95,79C95.183,82.088,94.142,85.123,97,87z"/>
		<path style="fill:#A1A1A1;" d="M104,84c1.109,1.772,2.694,4.462,0,5c-2.087,2.015-7.22,1.479-7-2
			c1.68-0.173,3.942,0.576,5.696-0.34c0.908-1.108,0.069-3.473,0.304-4.66C103.376,82.707,104,83.009,104,84z"/>
		<path style="fill:#9A9A9A;" d="M124,216c-1.101-0.932-2.914-1.086-4,0c1.316-2.415,0.492-4.835-1-7c0.248-0.147,0.711,0.077,1,0
			C121.781,210.986,122.825,213.65,124,216z"/>
		<path style="fill:#333333;" d="M145,97c2.005,2.201,5.316,2.566,7.037,4.963c2.051,2.692-20.942,1.083-16.037,1.037
			c-0.975-2.547-0.547-2.974,2-2l4-3c-1.287-1.465-0.689-2.002,1-1C144.01,95.403,144.639,95.041,145,97z"/>
		<path style="fill:#AEAEAE;" d="M146,92c-0.933,1.496-1.115,3.265-1,5h-2c-1.764-1.869-1.599-3.492,0.711-4.727
			C144.342,92.226,145.398,91.751,146,92z"/>
		<path style="fill:#949494;" d="M151,90c-1.562,0.521-2.755,2.928-5,2C147.054,90.311,149.118,89.963,151,90z"/>
		<path style="fill:#2A2A2A;" d="M142.688,91.084c-0.083,0.686,0.151,1.437,1.024,1.189c0.325,1.619,0.248,3.338-0.711,4.727
			c-0.157,0.444-0.802,0.639-1,1l-4,3c-0.628,0.705-1.292,1.376-2,2c3.124-0.03-21.388,3.1-17.176-1
			c-0.247-0.531-0.403-0.989-0.241-1.188c2.457-3.024,8.33-7.02,11.784-9.112c2.839-2.816,5.365-3.734,7.58-2.752
			C139.837,88.716,141.457,89.71,142.688,91.084z"/>
		<path style="fill:#3D3D3D;" d="M113.035,109.935c-1.793,0.801-4.077-0.166-6.035,1.065c-0.593-0.048-2.351,0.511-2.55-0.355
			L102,100c-0.053-0.763,0.614-1.43,2-2c-1.133-2.549,1.462-4.337,4-4c1.085,0.062,1.935-1.034,3.423-0.611
			C115.968,106.4,115.756,101.419,113.035,109.935z"/>
		<path style="fill:#2C2C2C;" d="M128,79c2.839-0.143,3.34,1.429,1,3c2.013,0.64,1.68,2.307-1,5
			c0.48,5.837-5.986,11.857-11.037,14.079c-2.894-1.35-4.095-6.001-3.022-9.085c1.682-2.89,3.669-5.199,5.961-6.925L126,78
			C126.693,78.278,127.354,78.626,128,79z"/>
		<path style="fill:#1B1B1B;" d="M140,85c-0.031,0.329,0,0.669,0,1c0,1.385-1,2.229-2.052,2.948L118.824,102
			c-0.803,0.128-1.257-0.639-1.861-0.921C120.778,96.476,124.748,92.011,128,87c0.184-2.478,8.313-6.339,8.698-5.919
			c0.353,0.386,0.524,0.939,0.642,1.54C139.415,82.608,140.69,82.741,140,85z"/>
		<path style="fill:#373737;" d="M97,87c2.165,1.422,5.07,0.552,7,2c1.503-2.178,4.13,1.275,4,3v2c-0.83,1.804-2.392,2.953-4,4
			c-1.319,1.264-3.342,1.983-5,1c-0.002,2.927-3.341,2.803-4,0c-1.286-2.429-0.01-4.955,0.018-8.057l0.03-3.325
			C95.056,86.818,96.074,87.096,97,87z"/>
		<path style="fill:#4E4E4E;" d="M144,106l-20.953-0.034c-0.69-0.001-1.164-0.566-1.047-0.966l20.043-0.06
			C143.08,104.936,144.041,105.267,144,106z"/>
		<path style="fill:#2E2E2E;" d="M108,92l-4-3v-5c2.291,1.145,2.973,4.061,4.916,6.356C110.384,91.412,109.717,92.066,108,92z"/>
		<path style="fill:#BBBBBB;" d="M119.902,85.069c-0.684,2.994-3.423,5.419-5.961,6.925c1.297-3.728,3.368-6.949,2.059-10.994
			c0.284-0.873,0.618-0.86,1,0C118.167,81.599,119.134,82.955,119.902,85.069z"/>
		<path style="fill:#8D8D8D;" d="M113,75c-1.838-0.015-3.351-1.304-4-3C110.72,72.16,112.424,73.23,113,75z"/>
		<path style="fill:#828282;" d="M117,77c2.927,0.002,2.803,3.341,0,4h-1c-0.413-1.278-0.518-2.756-1-4H117z"/>
		<path style="fill:#5B5B5B;" d="M141.761,41.982c-1.389,3.495-2.976,4.167-4.761,2.018v-2c0.282-0.158,0.878-0.403,1-0.696
			C138.944,40.386,143.591,39.824,141.761,41.982z"/>
		<path style="fill:#A6A6A6;" d="M129,42c-1.461-1.293-2.219-2.971-2-5C128.635,38.101,128.688,40.144,129,42z"/>
		<path style="fill:#292929;" d="M125,63c0.982-0.416,1.648,0.25,2,2c0.757,1.221,1.956,2.039,3,3c-0.614,0.707-1.425,1.258-2,2
			c-3.853,2.228-7.812,1.603-11.876-1.876L118.163,66c1.371-0.82,1.763-2.51,1.966-4c-0.861-2.035,0.373-2.323,1.871-1
			C122.524,62.097,124.014,62.51,125,63z"/>
		<path style="fill:#A2A2A2;" d="M127,65c-0.871-0.433-1.581-1.119-2-2l2-3V65z"/>
		<path style="fill:#8E8E8E;" d="M122,61l-1.871,1L120,61c-0.091-0.704-0.9-1.292-1-2C120.53,58.852,121.398,59.741,122,61z"/>
		<path style="fill:#242424;" d="M131,71c-1.678,2.413-4.571,4.038-5,7l-6.098,7.069c-0.615,0.449-1.763,0.388-2.723,0.725
			C116.869,83.785,117,82.447,117,81v-4l5-4c-0.429-1.298,0.768-1.966,3.592-2.006L128,70C129.027,69.752,130.41,70.061,131,71z"/>
		<path style="fill:#888888;" d="M128,70c-1.435,1.853-4.262,1.61-6,3c-1.474-2.607-4.601-3.518-7.988-4.185
			c0.078-0.745,0.892-0.896,1.274-1.187c0.884-0.667,1.935-1.064,2.877-1.627c-0.04,0.634-0.399,1.82,0.219,2.463
			C121.283,71.483,124.664,70.807,128,70z"/>
		<path style="fill:#919191;" d="M109,70c1.99-0.785,3.643-1.604,5.073-0.445C112.09,70.545,110.482,69.77,109,70z"/>
		<path style="fill:#2C2C2C;" d="M141.761,41.982c-1.014,1.196-0.322,3.637-0.761,5.018c-2.765,2.09-2.665,6.001-4.677,9.137
			C135.555,52.025,136.221,48.499,136,45c0.412-0.155,0.628-0.772,1-1L141.761,41.982z"/>
		<path style="fill:#444444;" d="M139,123c-0.252,0.713-0.131,1.678-1,2c-1.02-0.071-2.04,0.09-3.057,0.112
			c-2.54-2.207-5.914-2.255-9.397-3.709c-0.872-2.749-1.363-5.193-2.546-7.404c-0.784-1.465,0.997-3.88-1-5
			c0.216-0.484-0.472-2.022,0.922-2.018l20.321,0.054C141.747,112.748,140.781,117.962,139,123z"/>
		<path style="fill:#9E9E9E;" d="M116,188c-1.158-4.053-1.791-8.783-2-13C115.865,178.885,115.982,183.683,116,188z"/>
		<path style="fill:#ACACAC;" d="M120,199h-4c0.361-0.869,1.725-3.052,1-4c0.284-0.873,0.618-0.86,1,0
			c-0.034,0.721-0.249,1.821,0.21,2.315c0.93,1.002,2.214,0.608,3.831,0.786C121.804,199.432,120.76,199.031,120,199z"/>
		<path style="fill:#A1A1A1;" d="M118,195h-1c-1.568-2.049-0.99-4.502-1-7L118,195z"/>
		<path style="fill:#232323;" d="M95,99h4c0.906,0.179,1.572,0.513,2,1c-0.415,0.478,4.54,15.998-0.556,12.729
			c-1.363-0.875-2.22-1.769-3.444-1.729c-0.576-0.745-1.662-0.918-2-2l-4-3c-0.281-0.33-0.883-0.558-1-1
			c-0.239-0.904-2.011-1.781-1.887-3.07L91,99c-1.414-2.415-0.012-2.974,1.861-1C93.466,98.431,94.213,99,95,99z"/>
		<path style="fill:#A9A9A9;" d="M104,98c-0.698,0.455-0.828,2.01-2,2c-0.326-0.003-0.674-0.019-1,0c-0.807,0.046-1.761-0.114-2-1
			C100.714,99,102.354,98.415,104,98z"/>
		<path style="fill:#292929;" d="M148,69c0.715,1.965,2.403,4.093,1,6c-0.266,0.361-0.751,0.663-0.945,1.055L144,79
			c-0.388,1.002-1.138,1.449-1.882,2.118c-1.147,2.096-6.394,2.296-6.816,0.94c-0.143-0.46,2.057-5.988,2.698-7.058
			C138.007,70.078,139.729,71.312,148,69z"/>
		<path style="fill:#8C8C8C;" d="M142.118,81.118C141.003,82.121,140.14,83.522,140,85c-2.47-2.477-6.369-2.959-9.212-0.125
			C129.909,85.751,128.57,86.303,128,87c0.263-1.613,1.269-3.329,1-5c1.847-1.024,3.847-1.691,6-2c-2.137-1.723-0.814-5.319,2-5h1
			c-0.003,2.239-1.296,4.21-1.003,6.993C139.082,82.191,140.548,81.252,142.118,81.118z"/>
		<path style="fill:#949494;" d="M148.055,76.055c-0.797,1.616-2.174,2.952-4.055,2.945
			C144.662,77.291,146.18,75.947,148.055,76.055z"/>
		<path style="fill:#181818;" d="M137,75c-0.591,1.739-1.074,3.407-2,5c-2.635,2.33-7.132-2.213-5-5
			c2.358-2.708,6.625-3.372,6.88-2.405C137.071,73.322,137.04,74.132,137,75z"/>
		<path style="fill:#1E1E1E;" d="M135,80c-0.618,1.063-0.345,2.319-1.949,2.682C131.599,83.01,130.175,82.982,129,82
			c-0.391-0.917-0.675-2.037-1-3c-0.754-2.235,0.953-2.797,2-4C131.211,77.047,132.953,78.789,135,80z"/>
		<path style="fill:#2F2F2F;" d="M136,67l1,4c-0.664-0.333-1.36-0.619-2-1c-0.988,0.323-1.321-0.011-1-1
			c-0.36-0.583-0.714-1.401-0.373-2.001c0.308-0.543,0.912-0.756,1.373-0.999C136.405,64.675,136.92,65.233,136,67z"/>
		<path style="fill:#4D4D4D;" d="M134,69c0.318,0.332,0.597,0.76,1,1c-0.261,0.855-0.825,1.653-1.627,1.942
			c-1.086,0.392-1.844-0.101-2.373-0.942C131.709,69.98,132.765,69.182,134,69z"/>
		<path style="fill:#373737;" d="M166,29l3.476,1.972l-7.699,7.786c-0.606-0.009-1.492-0.475-1.777-0.758
			c0-2.647-2.306-9.222,0.803-9.658C162.639,28.085,164.422,29.38,166,29z"/>
		<path style="fill:#A4A4A4;" d="M95,109c-1.877,0.004-3.306-1.32-4-3C92.75,106.131,94.456,107.259,95,109z"/>
		<path style="fill:#3C3C3C;" d="M92.861,98L91,99c-2.457,0.081-3.82,2.375-7.151,2.04L86,91c0.119-0.556,0.642-1.573,1-2
			c1.588-1.165,4.599-4.395,6.58-2.727C95.264,90.066,92.891,94.29,92.861,98z"/>
		<path style="fill:#202020;" d="M144,48l-0.264,1.472c-0.133,0.739-1.475,0.706-2.227,0.499c-0.814-0.223-0.837-1.706,0.011-1.948
			C142.266,47.811,143.18,48.092,144,48z"/>
		<path style="fill:#393939;" d="M141,60c-2.475,1.601-1.798,10.444-5,7l-1-1c-0.175-2.362,0.515-6.916,3.54-7.085
			C139.366,58.869,140.372,59.173,141,60z"/>
		<path style="fill:#919191;" d="M142,98c-0.749,1.649-2.101,3.035-4,3C138.72,99.336,140.119,97.977,142,98z"/>
		<path style="fill:#C4C4C4;" d="M119.902,85.069c0.712-3.119,3.513-5.25,6.098-7.069C125.542,81.157,122.357,83.277,119.902,85.069
			z"/>
	</g>
</g>
</svg>
