<?xml version="1.0" encoding="iso-8859-1"?>
<!-- Generator: Adobe Illustrator 30.1.0, SVG Export Plug-In . SVG Version: 9.03 Build 0)  -->
<svg version="1.1" id="Layer_1" xmlns="http://www.w3.org/2000/svg" xmlns:xlink="http://www.w3.org/1999/xlink" x="0px" y="0px"
	 viewBox="0 0 73 136" style="enable-background:new 0 0 73 136;" xml:space="preserve">
<g>
	<g>
		<path style="fill:#F9F9F9;" d="M34,13c0.68,0.293,0.666,0.627,0,1c0.873,0.284,0.86,0.618,0,1l-2.937,2.136
			c1.494,1.302,0.86,1.941-0.927,0.927c-0.571,1.731-1.275,2.376-2.113,1.937c0.939,1.533-0.725,2.286-2.181,2.793
			c0.155,1.013-0.104,2.044-0.777,3.094c1.871-0.451,4.923,0.009,6.1,2.233C31.667,29.066,25.601,33.981,25,29l-2.057,3.209
			c0.239,2.05-0.417,3.3-1.969,3.75c-1.727,1.966-2.647,1.376-2.937-1.098C15.669,34.3,15.802,32.792,17,31
			c0.114-0.54,0.277-1.013,0.608-1.253c4.084-2.956,1.392,1.513-1.534,0.429c1.608,2.346-1.178,6.151-3.896,5.824
			c-1.404-0.382-2.503,0.297-3.295,2.037c-1.134,1.918-2.802,3.461-5.004,4.63C2.566,43.036,1.94,43.814,2,45
			c1.479-1.39,2.047-0.774,1,1c-0.729,1.381-0.462,1.703,0.801,0.965c4.909,1.115,6.244,2.525,4.004,4.229
			C7.541,52.253,5.99,52.855,3.152,53c0.962,0.866,1.291,1.579,0.987,2.139C6.632,55.084,6.023,58.203,5,60
			c2.624,0.709,3.863,3.018,2.289,5.383C9.21,66.926,10.71,68.85,8,70c2.278,0.92,2.612,1.587,1,2l1.766,0.631
			c1.351,3.692,2.762,7.358,4.234,10.996c1.01-2.457,1.725-2.333,2.144,0.373c0.889,0.229,0.898,0.564,0.063,1
			c1.027,2.173,1.877,7.652-1.273,8c2.137,1.343,2.355,2.595,0.655,3.754L17,98c1.257-1.165,1.667-0.6,1,1
			c0.436,0.914,0.325,2.13-0.076,3.081c2.572-0.784,3.081,0.658,2.049,2.869c1.796,1.34,4.454,5.269,2.114,6.931
			c2.058,2.912,2.089,4.101,0.913,7.118c2.648-0.527,3.299,3.435,1.215,4.785c4.336,0.513,3.31,2.459,1.785,5.215
			c1.991-0.944,2.793,3.149,1,4c1.349,1.019,2.797,1.539,4.344,1.56c1.709-2.454,4.616-1.597,6.656,0.44
			c1.016-1.728,3.138-1.868,4,0l1.121-2.032c2.83,0.48,5.239,0.222,7.225-0.774c-0.228-2.449-0.412-5.042-0.55-7.778l2.065-1.277
			c-1.075-1.646-0.506-2.214,1.139-1.139c0.749,0.749,1.412,0.783,2,0c0.284-0.873,0.618-0.86,1,0l-1,14H26L0,49v-8
			C10.771,33.842,23.52,19.47,34,13z"/>
		<path style="fill:#EAEAEA;" d="M53,0c2.84,2.562,6.068,4.812,8.058,8.118c0.883,0.188,0.862,0.491,0.008,0.9
			c0.385,1.906-0.389,1.988-1.163,0.123c-0.935,4.622-4.641,2.217-4.308-1.961L53.129,5c-1.079-0.722-2.052-1.36-2.92-1.917
			c-1.311,0.677-2.135,1.924-2.472,3.74c0.029,1.039-0.193,2.049-0.665,3.03c1.276-0.178,1.409,0.478,0.398,1.966l0.697,2.105
			c0.938,0.044,1.031,0.411,0.328,1.081C51.136,16.782,51.638,18.114,50,19c-1.337,0.664-3.003,0.642-5-0.067
			c-2.205,1.413-5.008-1.931-6-3.941c-0.175,0.911-0.514,0.878-1,0.008l-4-1v-1c3.627-5.867,9.739-7.63,13-13H53z M39,11
			c0.497,0.943,1.825,2.937,2.775,2.19c0.681-1.393-0.362-2.502-0.63-3.188c0.768-0.357,1.096-0.873,1.629-0.964
			c1.192-0.202,1.991-1.445,0.762-3.138C42.651,8.116,37.692,8.171,39,11z M46.424,15.686c-0.221-2.059-0.504-4.808-2.486-5.751
			C41.936,10.38,42.939,15.495,46.424,15.686z"/>
		<path style="fill:#EBEBEB;" d="M73,16v7c-2.97-1.869-3.071,20.33-5,20c-2.628-0.433-2.46-3.276-1-5l-1.299-0.508
			c0.561-2.378,0.069-3.209-1.476-2.492L64,34c-2.669,0.099-2.615-0.837-0.163-1.835c0.036-0.507,0.11-0.997,0.313-1.425
			c0.519-1.09,2.161-0.586,2.049-0.618c-1.291-0.373-1.991-0.73-2.352-2.343c-0.683-1.166-0.117-1.242,1.152-0.929
			c0.682-2.163,0.865-2.269,2.924-1.089c-0.453-2.072-0.474-4.19-0.063-6.353c-1.971-1.83-3.216-3.709-3.735-5.637
			c-2.638-0.32-3.518-2.237-3.06-4.753l-0.008-0.9C65.342,8.306,67.267,15.646,73,16z"/>
		<path style="fill:#E4E4E4;" d="M56,122c-3.182-0.238-2.594-4.809,0-6c-0.873-0.284-0.86-0.618,0-1
			c-0.393-1.057-0.684-2.24-0.874-3.551L57,110c-2.421-1.12-2.842-3.842-1.26-8.168c-2.291,1.96-4.566,3.763-6.824,5.409
			c-0.957,0.895-2.124,1.513-3.503,1.854c-2.14,3.734-3.747,4.336-4.82,1.805c-1.36,0.549-2.369,1.746-0.43,2.438
			c2.425-0.433,2.33,0.059,0.654,1.745l-0.005,0.84l1.276,2.314C40.875,124.026,42.179,126.28,46,125
			c0.049-1.732,0.751-1.801,1.136,0c2.879,0.208,2.595,2.467-0.136,3c-0.451,2.106-2.917,3.571-5,3
			c-2.062-0.423-3.451-1.479-4.168-3.168l-1.233-1.495c0.665-3.597,0.83-7.058,0.495-10.381c-3.915-0.384-7.602,2.059-7.207,6.027
			c1.8,2.362,3.093,7.424,1.104,9.81c6.578,1.199-2.05,5.156-1.992,1.207l-1.006-0.702c0.168-2.459-0.497-3.558-1.994-3.298
			c-1.309-1.612-0.133-3.764-1.785-5.215c1.695-1.581,1.452-6.494-1.215-4.785c-0.609-2.408-2.225-5.002-0.913-7.118
			c1.676-2.231,2.399-1.76,1.906,0.99c2.116,0.366,2.821,1.079,2.115,2.139c1.543-0.788,3.107-1.116,4.693-0.984
			c-1.565-2.363,0.004-2.985,2.407-2.218c-0.205-3.275,2.618-5.475,5.512-3.808c0.813-1.395,2.225-3.084,3.281-1
			c-0.469-2.475,0.197-3.142,2-2c-0.407-2.094,1.933-3.874,3.925-2.998C48.945,99.099,53.156,96.053,56,97
			c-0.131-0.795,0.536-1.128,2-1c-1.149-1.552-0.583-2.041,1.034-0.971l-1.254-3.832C58.945,91.045,59.685,90.313,60,89
			c0.284-0.873,0.618-0.86,1,0C61.297,91.412,57.492,119.53,56,122z"/>
		<path style="fill:#E6E6E6;" d="M64.226,35c1.006,1.245,1.931,2.245,2.774,3c1.262,1.337,1.159,3.263,1,5
			c-1.005,11.016-2.239,22.325-5,33c-0.326-4.11-0.326-8.443,0-13c-2.746-0.182-2.748-1.08-0.22-2.071
			c-0.679-1.899-0.697-4.036-0.056-6.41l-1.67-1.472c-3.011-0.503-2.404-3.46,0.707-3.012c0.256-2.624,0.328-5.474,0.216-8.549
			L60,40c-1.332-2.152,1.4-6.707,4-6L64.226,35z"/>
		<path style="fill:#FCFCFC;" d="M61,89c-1.594-3.955-0.647-9.787,2-13C62.954,80.313,62.89,85.135,61,89z"/>
		<path style="fill:#E6E6E6;" d="M53.01,15.829c1.699-2.231,2.837-1.433,2.131,1.231c2.606,0.587,2.402,1.474-0.205,1.953
			c-2.123,0.119-1.776,0.784,1.039,1.995c1.815-0.844,3,0.131,3.555,2.928c3.982-0.415,5.805,0.557,5.468,2.915l-1.152,0.929
			c-1.063,3.854-1.212,0.603-1.034,0.583c1.536-0.172,1.275,2.197-0.076,2.845c-0.997,1.74-2.929,1.201-5.796-1.616
			c-1.035,1.555-2.283,2.006-3.742,1.351C51.832,30.022,48.931,32.458,47,35c-1.624,1.932-3.306,3.918-5.045,5.959
			c0.002,1.994-0.588,4.501-1.888,6.039c-2.39,0.997-2.39,0.997,0,0l1.053-0.911C42.404,46.801,43.697,47.106,45,47
			c0.291-0.722,0.625-0.709,1,0c1.613,1.919,3.303,2.49,5.068,1.713L53,50c2.213,2.164,1.457,8.217-1,10
			c-2.954,2.427-2.954,2.427,0,0c1.905-1.943,2.525-1.646,2,1c1.781,1.579,1.346,3.544-1.304,5.895
			c-1.962,2.184-3.561,4.595-4.798,7.231c-0.24,2.365-0.352,3.68-0.092,6.018c1.751-0.064,2.473,0.275,1.281,1.774
			C50.628,80.997,51.931,82.316,51,84c0.857,0.351,0.825,0.709-0.055,1.071c-1.659,2.499-4.062,0.609-2.667-1.958
			c-1.63-0.215-2.956-1.249-3.979-3.102c-1.758,1.009-3.869,1.244-6.333,0.705l-3.199,0.821c-0.407,1.972-0.996,3.77-1.767,5.395
			c-4.347,2.846-4.463,5.9-0.346,9.164L31,98c-1.822,2.304-4.79-0.48-5.035-2.848c-1.076-0.208-2.183-0.141-3.322,0.2
			c-1.005,0.237-1.3-0.117-0.887-1.063c-1.351-0.968,0.047-3.244,1.57-3.483c0.796-1.272,1.044-2.537,0.745-3.796
			c-1.683-2.074,1.143-4.19,2.929-5.152c3.162-2.518,2.83-4.066-0.974-1.793C23.701,81.2,23.323,80.32,23,78.171
			c-1.762,0.4-1.762,0.01,0-1.171c-0.104-0.457-0.167-0.907-0.085-1.328c0.364-1.887,0.503,0.513,0.041,0.263
			c-1.536-0.832-3.799-2.817-4.995-3.982c-3.234-0.509-5.318-1.796-6.25-3.862c-1.601,1.477-3.075,0.575-4.422-2.707
			C6.184,63.712,5.076,62.123,5,60c0.897-2.177,0.886-3.135-0.861-4.861c-0.175-0.652-1.517-1.2-0.987-2.139l0.897-0.907
			c1.504,0.839,2.756,0.54,3.756-0.898c1.158-5.159,0.293-6.539-2.595-4.14L3,46c-0.349-0.219-0.603-0.901-1-1
			c-0.63-1.167,0.628-2.301,1.878-2.333c1.818-1.472,3.486-3.015,5.004-4.63c0.801-1.377,1.898-3.204,3.295-2.037l1.189,0.576
			c1.399-2.434,2.956-3.006,4.671-1.716l1.174,0.751C18.045,37.375,17.641,38.838,18,40c0.873,0.284,0.86,0.618,0,1
			c1.689,0.867,3.022,0.867,4,0c-0.032-2.254,1.98-2.04,2.289,0.094c1.702-0.327,3.831-0.443,5.493,0.052l1.532,1.566
			c-1.536,1.881,3.302,3.237,3.28,0.432L36.868,43c1.076-1.893,1.088-2.926,0.035-3.096c-1.656-0.871-2.402-2.781-2.238-5.729
			c0,0-0.861-0.409-2.583-1.227C30.301,33.032,30.585,31.328,31,30c-1.436-2.318-0.895-3.289,1.625-2.911
			c-1.561-1.507-2.109-2.904-1.644-4.19c0.217-2.832,4.297-2.659,6.02-0.9c3.225,0.853,2.622,4.302-0.748,3
			c-0.794,0.861-0.543,2.108,0.843,3.512c0.611-2.831,2.685-2.65,3.331,0.126l1.48-0.579C44.631,29.034,46.33,28.681,47,27
			c-0.873-0.284-0.86-0.618,0-1c1.394-0.806,0.727-1.806-2-3c-2.957-0.635-2.755-2.816,0-4.067c0.619-0.807,1.331-0.642,2.137,0.496
			L50,19c-0.48-1.339-1.553-2.486-1.507-3.995C49.006,13.304,50.511,13.579,53.01,15.829z"/>
		<path style="fill:#5D5D5D;" d="M26.026,80.066c2.659-0.757,3.013-0.077,0.974,1.793c0.636,2.395-1.3,3.715-2.929,5.152
			c-1.345,2.706-1.357,2.725-3.071,0.232c-1.486,3.04-4.94,0.824-3.793-2.241l-0.063-1c-1.145-0.849-1.194-2.733-0.149-5.652
			c1.261,0.978,3.263,0.919,6.005-0.178C24.104,77.389,25.482,79.291,26.026,80.066z"/>
		<path style="fill:#858585;" d="M12,72c2.858,0.659,4.358,2.73,4.502,6.213c2.352,0.065-0.051,4.322-1.502,5.414
			c-0.572-0.099-1.977,0.39-2.68-0.07L9,72C10.073,70.693,11.666,69.715,12,72z"/>
		<path style="fill:#C5C5C5;" d="M30.98,22.9c0.438,1.48,0.986,2.877,1.644,4.19C32.102,28.03,31.664,29.152,31,30
			c0.199,1.469,0.354,2.973-0.933,3.781c-0.133,2.275-1.906,2.367-5.319,0.276c-1.339,2.76-4.185-0.049-1.805-1.848L25,29
			c1.672-0.023,3.587,0.741,5.099-0.604c-2.545-1.02-4.351-0.717-5.033-2.509c-0.309-1.472-0.05-2.504,0.777-3.094
			c1.259-0.696,1.986-1.628,2.181-2.793c0.724-0.381,0.926-1.98,2.113-1.937C32.658,18.71,32.492,21.166,30.98,22.9z"/>
		<path style="fill:#646464;" d="M24,105c3.076,1.197,3.861,2.091,4.874,5.128c4.621,1.677-2.266,4.333-4.882,2.743
			c-0.24-0.55-1.438-0.67-1.906-0.99c-0.773-2.125-3.47-4.413-2.114-6.931C22.618,103.044,23.961,103.06,24,105z"/>
		<path style="fill:#5A5A5A;" d="M37,22c-1.676,1.216-4.15,0.822-6.02,0.9c-1.095-1.358-1.178-3.182-0.844-4.837
			c0.322-0.127,0.602-0.734,0.927-0.927c5.175-3.719,7.803-1.789,7.273,4.265C38.315,21.638,37.737,21.826,37,22z"/>
		<path style="fill:#909090;" d="M7.805,51.195C11.161,50.026-3.979,48.688,3,46c1.43-0.551,3.817-3.088,5.992-1.674
			C11.051,45.664,10.801,51.158,7.805,51.195z"/>
		<path style="fill:#7F7F7F;" d="M21,87.241c3.136,0.011,1.198,6.075-1.186,6.711c-0.552,2.292-4.32,2.481-3.879-0.953
			c0.647-2.682-1.216-6.067,1.273-8C18.357,85.951,19.457,87.073,21,87.241z"/>
		<path style="fill:#555555;" d="M25.965,95.152L23.982,100c0.444,3.494-0.439,4.062-4.01,4.951
			c-1.099-0.627-1.594-1.754-2.049-2.869c0.81-2.103,1.49-4.203,2.039-6.302l2.68-0.428l2.523-3.736
			C25.934,92.805,25.792,94.013,25.965,95.152z"/>
		<path style="fill:#949494;" d="M17,31c1.229,1.101,1.419,2.361,1.037,3.86l-6.072,4.646c-0.327-1.434-0.144-2.774,0.211-3.507
			c1.129-2.328,2.303-4.052,3.896-5.824C17.017,29.736,17.326,30.011,17,31z"/>
		<path style="fill:#CBCBCB;" d="M19.814,93.953c0.866-2.153,1.715-2.014,1.942,0.336c0.247,0.393,0.549,0.746,0.887,1.063
			c-1.535,2.272-2.928,4.646-4.719,6.73c-0.208-0.51-1.141-0.829-0.983-1.634C17.037,99.954,17.395,99.168,18,99
			c0.008-1.603-0.325-1.937-1-1c-1.732-1.308-1.491-3.235-1.066-5C16.473,94.609,18.449,94.172,19.814,93.953z"/>
		<path style="fill:#D2D2D2;" d="M17.961,71.953c0.673,1.113,0.846,2.561,0.518,4.344C20.581,75.479,22.088,75.714,23,77v1.171
			c-1.408,0.997-2.947,1.3-5.121,1.93c-1.577,0.457-0.799,2.878-0.735,3.899L15,83.627c2.566-3.96,0.448-8.685-3-11.627
			C13.14,69.886,16.335,70.439,17.961,71.953z"/>
		<path style="fill:#9C9C9C;" d="M17,31c-0.305-0.273-0.5-0.691-0.927-0.824c1.841-2.047,3.634-4.072,6.573-5.592
			c1.088,1.505,0.18,3.732-0.682,5.017C20.851,31.261,18.681,31.076,17,31z"/>
		<path style="fill:#888888;" d="M8.882,38.037c0.081,1.056,1.594,1.618,2.11,2.559c-2.734,1.071-4.806,2.541-7.114,2.071
			c0.117-1.208,0.024-2.394,0.983-3.282C5.971,38.359,7.425,38.026,8.882,38.037z"/>
		<path style="fill:#B4B4B4;" d="M34,15c0.572-1.391,2.75-0.853,4,0c0.33,0,0.672,0.024,1-0.008c2.627,1.326,2.696,4.876,1,7.008
			c-0.064,2.86-2.324,2.733-3,0c0-1.833,0.086-3.655-0.052-5.954c-2.38-0.354-4.121,0.431-5.885,1.09C31.351,15.671,32.569,15,34,15
			z"/>
		<path style="fill:#727272;" d="M22.943,32.209c-0.334,1.046,1.066,1.475,1.805,1.848c3.138,3.627-1.133,4.678-3.868,3.401
			c-0.166-0.077-0.072-0.709,0.095-1.499c0.229-0.635-0.331-1.573-0.192-2.478C20.933,32.496,22.115,32.422,22.943,32.209z"/>
		<path style="fill:#7A7A7A;" d="M11.711,68.091C11.365,70.938,10.113,72.944,8,70c-0.226-1.374-0.077-3.356-0.711-4.617
			C9.026,65.743,10.224,67.357,11.711,68.091z"/>
		<path style="fill:#6A6A6A;" d="M7.805,51.195c0.278,1.26,0.29,2.896-1.261,2.892C5.295,54.084,4.046,53.711,3.152,53
			c0.208-0.367-0.363-1.505,0.028-1.73C4.858,50.301,6.443,51.821,7.805,51.195z"/>
		<path style="fill:#636363;" d="M20.974,35.959c0.617,0.455,1.081,0.843,1.014,0.994C21.857,37.248,18.47,41.164,18,40
			c-0.444-0.173-2.094-0.928-1.67-1.573c0.951-1.445,1.4-2.361,1.707-3.567C18.963,34.621,20.219,35.506,20.974,35.959z"/>
		<path style="fill:#7D7D7D;" d="M5,60c-0.059-1.628-0.439-3.288-0.861-4.861c0.779-0.018,1.57-0.247,2.785-0.054
			C7.375,57.318,6.449,58.955,5,60z"/>
		<path style="fill:#4F4F4F;" d="M25.843,22.793c-0.988,1.171,2.764,1.448,1.092,2.836c-0.591,0.491-1.489,0.385-1.869,0.258
			c-0.201-0.527-1.098-0.602-1.182-1.43C23.747,23.118,25.654,23.414,25.843,22.793z"/>
		<path style="fill:#D6D6D6;" d="M12,72c-0.841-0.373-2.111,0.263-3,0c-0.197-0.686-0.865-1.175-1-2
			c0.674,0.215,1.225,1.28,2.015,0.619c0.669-0.56,0.33-2.169,1.695-2.529C14.617,69.354,15.142,70.875,12,72z"/>
		<path style="fill:#525252;" d="M25.843,22.793c0.381-1.256,0.98-2.162,2.181-2.793c0.628-0.144,0.902,0.367,0.955,0.843
			c0.108,0.959,0.368,1.885-0.682,1.905L25.843,22.793z"/>
		<path style="fill:#757575;" d="M12.177,36c-1.298,0.344-2.123,1.471-3.295,2.037c-0.123-1.61,1.434-3.276,2.832-3.922
			C12.208,34.825,11.969,35.877,12.177,36z"/>
		<path style="fill:#585858;" d="M38,15h-4v-1c0.631-0.543,1.435-0.828,2.132-0.562C36.99,13.764,37.588,14.32,38,15z"/>
		<path style="fill:#5C5C5C;" d="M22.943,32.209C23.295,31.127,23.4,29.022,25,29C25.411,30.523,24.521,31.986,22.943,32.209z"/>
		<path style="fill:#6F6F6F;" d="M3.878,42.667C3.785,43.628,2.59,44.376,2,45c-1.55-0.344-1.206-1.4-0.087-2.529
			C2.668,41.711,2.936,42.476,3.878,42.667z"/>
		<path style="fill:#5D5D5D;" d="M18,99c-0.347-0.313-0.626-0.717-1-1c-0.042-0.636-0.268-1.761,0.525-1.989
			c1.314-0.379,1.585,0.521,1.527,1.495C19.003,98.329,19.055,98.706,18,99z"/>
		<path style="fill:#757575;" d="M59.903,9.142c1.708,1.075,2.884,4.126,0.226,4.73C62.068,13.911,61.984,14.67,60,15
			c-0.611,2.291-2.813,3.855-4.858,2.06l-2.131-1.231C50.757,15.422,48.848,13.803,51,12c-3.336-1.44-1.243-4.058,2-5
			c-2.63-0.489-2.456-1.402,0.129-2c1.023-1.297,2.167-0.533,3.08,0.172c0.872,0.672,3.406,1.942,1.999,2.65
			c-1.831,0.922-0.445,1.582,0.303,2.077C58.828,10.107,59.461,9.189,59.903,9.142z"/>
		<path style="fill:#545454;" d="M45,18.933c-0.216,1.341,0,2.721,0,4.067c0.873,0.284,0.86,0.618,0,1c-3.029,1.699-7.464,2.33-5-2
			c-1.334-2.074-1.04-4.627-1-7.008C41.777,14.719,43.407,16.916,45,18.933z"/>
		<path style="fill:#5D5D5D;" d="M53.129,5L53,7c-2.15,2.963-3.905,2.904-5.264-0.177c-0.487-0.675-1.176-1.285-1.449-1.8
			c-0.556-1.052,0.488-1.625,1.211-2.408c1.346-1.459,3.048-2.038,4.557-1.087C53.196,2.246,53.212,3.701,53.129,5z"/>
		<path style="fill:#515151;" d="M51,12c0.339,1.391,1.492,2.512,2.01,3.829c-1.651,1.457-2.899-0.646-4.517-0.824
			c0.011-0.365-0.293-0.716-0.328-1.081C45.886,9.942,50.994,6.281,51,12z"/>
		<path style="fill:#BCBCBC;" d="M53,7c-1.038,1.456-2.464,3.099-2,5c-0.696-0.291-1.76-1.491-2.514-0.971
			c-1.035,0.715-0.327,2.142-0.321,2.895c-1.46-0.747-1.373-2.647-1.094-4.071c-0.147-1.203,0.074-2.213,0.665-3.03
			C49.586,7.01,51.316,7.977,53,7z"/>
		<path style="fill:#989898;" d="M46.424,15.686c-3.485-0.19-4.488-5.306-2.486-5.751C45.92,10.877,46.203,13.626,46.424,15.686z"/>
		<path style="fill:#454545;" d="M64.126,13.772c-2.084,2.387-3.417,2.42-3.997,0.1l-0.226-4.73l1.163-0.123
			C62.352,10.375,63.664,12.106,64.126,13.772z"/>
		<path style="fill:#525252;" d="M50,19c0.321,1.017-1.82,1.518-2.693,1.817c-0.862,0.295-1.759-1.189-2.307-1.883
			c0.099-0.618,0.116-1.359,0.979-2.091C47.459,18.157,48.594,18.906,50,19z"/>
		<path style="fill:#A4A4A4;" d="M41.144,10.003C42.059,12.004,40.348,12.661,39,11c-1.308-2.829,3.651-2.884,4.536-5.099
			c1.229,1.693,0.431,2.936-0.762,3.138C42.24,9.129,41.913,9.645,41.144,10.003z"/>
		<path style="fill:#6E6E6E;" d="M39,11l2.144-0.997c0.269,0.686,1.312,1.795,0.63,3.188C40.825,13.937,39.497,11.943,39,11z"/>
		<path style="fill:#595959;" d="M47.736,6.823c-0.162,1.101,1.175,1.68,0.992,2.481c-0.161,0.702-1.431,0.314-1.657,0.549
			c-0.346-0.602-0.834-1.336-0.598-2.12C46.625,7.227,47.234,6.931,47.736,6.823z"/>
		<path style="fill:#666666;" d="M62.738,31.207c1.276-0.944,1.787-0.463,1.1,0.958L64,34c-1.059,2.26-2.061,4.369-4,6
			c1.314,2.699-0.825,4.248-3,2c-1.092,1.894-1.512,1.616-3,0c-4.71-3.139-6.079-4.404-2-9c-1.531-1.754-1.149-2.234,1.199-2.058
			c0.961-1.065,2.089-3.525,4.022-3.301C59.544,27.91,60.663,30.709,62.738,31.207z"/>
		<path style="fill:#3F3F3F;" d="M60,15l2.268-0.08C61.855,16.526,62.433,18.22,64,20c3.697-1.328,4.636,2.661,3.924,5.761
			c-0.429,0.707-2.033,1.836-2.924,1.089c-1.596-1.338-3.686-0.39-6.057-1.059c-1.838-0.518-1.666-3.703-2.966-4.784
			c-1.667,0.508-2.666-0.852-1.039-1.995l0.205-1.953C56.692,16.069,58.074,14.605,60,15z"/>
		<path style="fill:#3C3C3C;" d="M67.924,25.761C66.276,24.133,65.929,21.373,64,20c-3.233-3.661-3.191-5.737,0.126-6.228
			c2.225,0.875,4.877,2.738,5.622,5.032C70.521,21.186,68.968,24.042,67.924,25.761z"/>
		<path style="fill:#4D4D4D;" d="M63.848,27.78c1.069,0.146,2.319,0.2,3.522,0.608c0.793,0.268,1.194,2.534,0.287,3.304
			c-0.986,0.836-2.837,0.082-3.82,0.475c-0.446,0.179-1.095-0.558-1.1-0.958c-0.013-1.072-1.353-2.012-1.608-2.799
			C62.155,27.438,63.254,27.866,63.848,27.78z"/>
		<path style="fill:#696969;" d="M67,38c-0.104,1.582-1.525,1.099-2.088,0.515c-1.035-1.073-0.864-2.333-0.686-3.515
			c0.649-0.615,0.736-1.813,1.381-1.989c0.624-0.17,2.355,0.111,2.296,0.876C67.763,35.696,67.003,36.782,67,38z"/>
		<path style="fill:#7C7C7C;" d="M47,128c2.69-2.548,4.84,1.395,3.346,4.194c0.241,0.234,1.041,2.031,0.447,2.466
			c-3.015,0.81-6.001,0.164-8.793,0.34c-2.751-0.105-2.751-1.439,0-4C42.962,129.102,44.881,127.522,47,128z"/>
		<path style="fill:#757575;" d="M51.861,123.139c-0.475,3.094,1.734,7.412-1.514,9.055c-0.955-1.535-1.631-3.388-3.346-4.194
			l0.136-3C45.898,122.173,51.623,119.016,51.861,123.139z"/>
		<path style="fill:#D0D0D0;" d="M56,122h-1c-0.319,2.656-1.239,2.541-2,0l-1.139,1.139c-1.886-0.289-4.29-0.306-4.724,1.861H46
			c-2.782-0.637-2.618-2.1,0-3c-0.598-1.111,0.402-1.827,3-2.15c-1.897-3.118,5.03-6.565,7-3.85V122z"/>
		<path style="fill:#A7A7A7;" d="M36,132c3.498,1.438,4.165,2.438,2,3c-7.873-0.419-10.977,1.537-11-2c0.567-1.948,1.457-1.975,2,0
			c0.447,0.2,0.592,0.651,0.868,0.8c0.533,0.29,1.825,0.581,2.048-0.293c0.118-0.462-0.876-1.281-0.924-1.714
			c0.318-2.257,1.149-2.261,1.727-0.097c1.147-1.58,1.907-1.812,2.281-0.696C36.712,129.544,37.259,130.098,36,132z"/>
		<path style="fill:#979797;" d="M55,122c0.193,3.102-0.078,6.178-1.635,9.133C52.521,127.621,53.226,124.85,53,122H55z"/>
		<path style="fill:#D5D5D5;" d="M42,135c-1.318,0.083-2.681,0.07-4,0c0.785-1.666-2.27-1.194-2-3c1.228-1.691,3.228-2.024,6-1V135z
			"/>
		<path style="fill:#767676;" d="M29,133c-0.602-0.193-1.37,0.114-2,0c-0.008-1.249-0.147-2.95-1-4
			c0.002-0.713,0.976-1.934,1.754-1.78C28.951,129.152,29.044,131.345,29,133z"/>
		<path style="fill:#7C7C7C;" d="M24.215,123.785c-0.62-1.068-0.873-3.506-1.215-4.785c-0.271-1.388,0.278-2.108,1.527-2.093
			c3.293,0.04,2.5,6.802,2.67,6.3C26.843,124.251,25.08,123.918,24.215,123.785z"/>
		<path style="fill:#888888;" d="M57,110c-0.117,3.66-4.164,2.354-6,0c-2.403,1.862-3.674-0.465-2.084-2.759
			c-1.069-3.456,8.963-10.145,9.619-8.624C57.544,102.987,56.526,106.459,57,110z"/>
		<path style="fill:#C4C4C4;" d="M48.278,83.113C48.338,85.785,49.245,88.414,51,91c2.523,0.603,6.203,2.559,7,5
			c-0.447,0.635-1.484,0.648-2,1c-1.685,1.316-3.46,1.068-5.325-0.746c0.025,2.639-0.892,4.555-2.75,5.748
			c-2.273,1.977-3.543,0.536-3.017-2.123c-1.059-1.192-0.931-3.223,0.384-6.095C43.152,93.229,41.054,92.968,39,93
			c-1.4-0.655-7.376-4.105-7.366-4.959c0.013-0.995,0.678-1.482,1.366-1.11l0.531-1.293c2.542-0.265,5.358,0.5,8.447,2.295
			c2.552,1.207,2.861-0.79,0.928-5.989l1.394-1.933C45.95,80.825,47.659,80.905,48.278,83.113z"/>
		<path style="fill:#6B6B6B;" d="M48.916,107.241c0.934,0.382,1.243,2.325,2.084,2.759c1.651,0.543,2.418,1.326,2.302,2.349
			l-5.147,1.685c-3.307,3.159-5.753,3.509-7.338,1.05c-0.208-0.443-0.877-1.204-0.654-1.745c-2.321-0.657-1.702-2.051,0.43-2.438
			C42.704,112.618,42.455,104.602,48.916,107.241z"/>
		<path style="fill:#7C7C7C;" d="M45,119c2.342,1.316,2.675,2.316,1,3c0.391,0.843-0.279,2.107,0,3
			c0.633,2.719-5.347,2.947-5.713,0.971c-0.524-2.836-0.898-7.384,0.524-10.047C44.107,115.894,45.503,116.92,45,119z"/>
		<path style="fill:#CACACA;" d="M42,103c2.272-1.403,2.763-0.337,2,2c-0.395,0.823-1.255,1.457-2,2
			c-1.062-0.278-2.181-0.278-3.357,0c-0.881-0.868-2.089-0.896-3.623-0.082l-1.274-0.989c-2.558,1.489-4.14,1.513-4.745,0.071
			c-1.234-1.346-2.901-1.679-5-1c-1.333-0.378-2.758,0.593-4.028-0.049c1.465-1.564,2.73-3.249,4.01-4.951
			c2.848,1.355,6.224,1.264,9.062-0.081c0.769-1.274,2.05-1.608,3.845-1C38.876,100.09,40.58,101.451,42,103z"/>
		<path style="fill:#8E8E8E;" d="M37.832,127.832c0.51,1.954-0.288,2.432-1.832,1.168c-0.712,0.189-1.278,0.311-1.331,0.197
			C33.626,126.932,32.131,119.896,35,119c-2.554-1.542-0.518-4.088,2.094-3.045C40.182,112.513,39.298,128.065,37.832,127.832z"/>
		<path style="fill:#8E8E8E;" d="M56,115v1c-2.474,0.984-5.129,1.905-7,3.85c-1.922,1.299-3.061,1.348-4-0.85l-1.642-2.471
			C44.098,115.352,59.223,107.928,56,115z"/>
		<path style="fill:#D0D0D0;" d="M53,79c1.835,0.23,2.532,1.98,2.091,5.249L56.331,88c1.235,0.095,2.458,0.429,3.669,1
			c-0.423,2.012,0.051,4.223-0.966,6.029c-2.364-0.173-5.686-2.757-6.882-4.997c-2.465-0.328-3.313-3.551-1.207-4.961L51,84
			c0.046-1.599-0.592-2.292-1.913-2.081c-0.614-0.404-0.972-1.14-1.281-1.774C47.508,77.196,51.847,76.386,53,79z"/>
		<path style="fill:#6F6F6F;" d="M37.094,115.955L35,119c-1.374,2.656-2.408,3.607-3.1,2.852l-2.012,0.131
			c-0.995-0.865-1.95-2.216-1.713-3.417c0.311-1.573,4.955-4.454,6.407-4.644C35.748,113.768,36.785,114.659,37.094,115.955z"/>
		<path style="fill:#656565;" d="M56,97c-2.016,2.395-5.235,4.126-8.075,5.002l0.935-9.243C51.616,94.319,53.631,96.059,56,97z"/>
		<path style="fill:#7C7C7C;" d="M32.719,131.696c-0.577-0.005-1.244-0.621-1.727,0.097c-0.885-3.175-2.51-6.669-1.104-9.81
			l3.643-0.938C35.171,126.074,34.901,129.624,32.719,131.696z"/>
		<path style="fill:#C4C4C4;" d="M63,76c-1.074,4.153-2.554,8.5-2,13h-1c-2.025-0.333-2.47-1.508-1-3c-1.875-1.404-1.404-4.356,0-6
			c0.092-2.648,0.376-6.912,2-9l1-6c-2.474-1.483-1.841-2.627,1-2C65.058,66.49,63.092,67.423,63,76z"/>
		<path style="fill:#CECECE;" d="M57,110c0.232,1.73,0.267,3.691-1,5c-0.056-0.221,0.298-1.463-0.212-1.692
			C53.211,112.149,44.015,114.979,45,119c-1.481-0.909-2.962-1.832-4.189-3.076c0.119-0.222-0.06-0.591,0.005-0.84
			c2.846,2.228,6.484-1.945,11.168-3.424C51.7,111.037,51.188,110.58,51,110C52.99,110.679,55.297,111.449,57,110z"/>
		<path style="fill:#4C4C4C;" d="M38.643,107c0.892,0.218,0.905,0.553,0.076,1c-1.908,1.141-3.694,2.53-5.512,3.808
			c-2.008,1.401-2.807,0.136-1.063-1.598c-2.939-1.532-1.536-5.166,1.601-4.281c0.592,0.653,2.527-3.38,4.771-1.865
			C39.58,104.782,38.688,106.232,38.643,107z"/>
		<path style="fill:#C5C5C5;" d="M29,106c0.866,1.575,1.914,2.978,3.144,4.21c0.17,0.638,0.578,1.161,1.063,1.598
			c-0.899,0.632-1.445,1.467-2.407,2.218c-1.678,0.383-3.243,0.711-4.693,0.984c-0.764-0.695-1.777-0.995-2.115-2.139
			c1.542,0.066,3.182-0.086,4.935-1.056c-0.285-3.341-3.257-4.453-4.928-6.815C25.696,104.604,28.533,104.138,29,106z"/>
		<path style="fill:#6B6B6B;" d="M59.034,95.029C58.788,95.466,58.264,95.625,58,96c-2.86-0.708-6.443-1.824-7-5
			c-0.889-1.672-0.341-2.132,1.152-0.969C55.245,89.662,57.672,92.461,59.034,95.029z"/>
		<path style="fill:#8C8C8C;" d="M42,131c-1.303,2.57-3.518,1.388-6,1c0.075-0.502-0.444-1.158-1-1c-1.055-0.993-0.522-2.149,1-2
			c0.466-0.518,1.33-0.68,1.832-1.168c1.044,0.149,2.244-0.123,3.553,0.276C42.393,128.415,42,130.021,42,131z"/>
		<path style="fill:#555555;" d="M47.925,102.002c-0.822,1.287-2.156,2.841-3.925,2.998c-0.971-0.23-1.504-1.353-2-2
			c-1.326-2.69,0.218-4.071,2.908-3.121C46.28,99.942,46.608,101.604,47.925,102.002z"/>
		<path style="fill:#757575;" d="M40.593,110.9c-0.228,0.799-0.092,1.618-0.43,2.438c-0.815,0.31-1.838,0.894-2.572,0.747
			c-0.906-0.181-1.471-0.838-1.58-1.908C37.974,112.002,39.916,108.434,40.593,110.9z"/>
		<path style="fill:#595959;" d="M30.801,114.026l-2.798,2.186c-0.796,0.622-1.099-0.477-1.895-1.201
			c0.202-0.921,0.94-1.475,1.73-1.782C28.979,112.786,30.216,112.885,30.801,114.026z"/>
		<path style="fill:#676767;" d="M42,107c-0.96,0.699-2.354,0.446-3.281,1l-0.076-1c0.931-0.532,1.323-1.362,1.542-3.045
			C41.657,104.634,42.286,105.729,42,107z"/>
		<path style="fill:#666666;" d="M60.961,59.039c1.877-0.948,2.591,0.079,1.819,1.89c0.209,0.597-0.096,1.54,0.22,2.071
			c-0.888,0.321-0.649,1.372-1,2c0.58,1.594-0.338,4.155-2.155,2.845C60.479,70.71,55.549,70.24,54,68
			c-1.543,1.441-2.195,0.844-1.304-1.105C50.99,64.937,53.474,63.109,54,61c1.454-2.249,3.237-4.066,5.349-5.452L60.961,59.039z"/>
		<path style="fill:#686868;" d="M58,47l3.76,3.035c-0.847,0.615-0.404,2.204-0.707,3.012c-1.029,2.871-2.155,4.066-3.376,3.583
			L54,61c-0.69-0.072-1.334-0.992-2-1c-0.293-3.368-0.037-6.795,1-10c-1.394-1.471-0.847-1.984,1-1
			C55.297,46.333,56.63,45.667,58,47z"/>
		<path style="fill:#505050;" d="M61.76,50.035L58,47c-2.398,0.898-3.065,0.231-2-2c-1.116-1.95-0.782-2.95,1-3
			c1.28-0.017,1.964-1.647,3-2c1.133-0.387,2.321-0.813,3.934-1.073l0.135,8.114C64.101,48.943,62.802,49.46,61.76,50.035z"/>
		<path style="fill:#6B6B6B;" d="M62.78,60.929c-1.012-0.18-1.159-1.375-1.819-1.89c-2.819-1.623-2.788-3.621,0.093-5.992
			c1.088-0.742,2.251-1.163,3.622-2.607C65.65,51.245,63.552,63.412,62.78,60.929z"/>
		<path style="fill:#6B6B6B;" d="M65.396,46.971c-0.633-2.162-0.727-4.305,0.025-7.063C66.411,41.716,66.363,43.691,65.396,46.971z"
			/>
		<path style="fill:#4B4B4B;" d="M44.299,80.01c1.444,3.513,2.361,7.265,1.402,10.917c-8.879-1.782-7.736-3.642-12.701-3.997
			c-1.551-1.129-1.169-6.013,0.714-7.053C37.068,78.026,41.379,78.57,44.299,80.01z"/>
		<path style="fill:#626262;" d="M33,86.931c-3.111-1.058,8.793,4.006,6,6.069c2.209,1.727,0.903,5.882-2.11,5.919
			c-0.3,0.6-1.124,1.744-1.681,2.307c-0.437,0.443-1.221-1.674-2.164-1.307c-2.16,1.095-2.522,0.388-2.045-1.919
			c0.053-1.757-1.33-3.022-2.805-4.314c-1.869-1.637-0.267-3.485,0.185-4.84C29.019,86.928,31.323,86.361,33,86.931z"/>
		<path style="fill:#797979;" d="M54,42c1.478,0.104,2.145,1.104,2,3c0.527,1.019-0.14,2.353-2,4c-0.326,0.222-0.874,0.612-1,1
			c-1.749,0.976-4.375,1.77-6.491,0.407C45.744,49.914,45.789,47.694,46,47c1.382-2.977,1.714-5.411,0.998-7.303L49,39
			C50.386,39.054,52.053,40.054,54,42z"/>
		<path style="fill:#555555;" d="M52.696,66.895C53.061,67.314,53.432,67.836,54,68c3.306,1.135,3.972,2.468,2,4
			c3.034,1.246,2.245,4.129-1,3c0.449,2.431-1.379,2.854-3,1c-1.934,1.849-4.695,1.109-4.102-1.874
			c-1.774-2.142,1.414-8.111,3.223-7.991C51.596,66.167,52.183,66.593,52.696,66.895z"/>
		<path style="fill:#8A8A8A;" d="M20.839,49c0.515,1.688-0.432,2.355-2.839,2c-0.974,2.74-2.937,2.613-4,0
			c-0.284,0.873-0.618,0.86-1,0c-2.602,0.069-2.213-2.57-1.75-4.478c0.649-2.681,8.264-1.665,9.284-0.549
			C21.195,46.696,20.733,48.009,20.839,49z"/>
		<path style="fill:#727272;" d="M13,52c2.085,2.225,2.651,4.506,1.045,7.108c0.694,1.008,0.472,1.265-0.659,0.777l-5.649,3.131
			C5.686,61.492,8.5,50.048,13,52z"/>
		<path style="fill:#919191;" d="M18,51c1.323-1.02,2.656-0.686,4,1c2.147-2.748,4.377,0.146,2.173,2.588
			c2.298,0.854,1.102,3.085-1.244,2.375C22.197,58.362,20.612,59.196,19,59c-3.347-1.721-5.846-3.772-5-8
			C15.33,51,16.669,50.914,18,51z"/>
		<path style="fill:#6E6E6E;" d="M31,98c0.823,0.487,1.857,0.838,2.045,1.919c-0.053,1.031-0.158,2.36-0.909,2.642
			c-0.894,0.335-6.984,0.739-7.956-0.356c-0.393-0.443-0.243-1.521-0.197-2.204l1.982-4.848C28.085,95.085,29.297,96.992,31,98z"/>
		<path style="fill:#4E4E4E;" d="M45,47c-0.082,1.211-0.946,2.373-2.313,1.896c-0.926-0.323-1.696-1.389-2.62-1.898
			c-0.15-1.131-1.395-2.918-0.758-3.971c0.429-0.711,1.839-1.865,2.646-2.068l5.295-1.475C48.36,41.82,46.798,45.237,45,47z"/>
		<path style="fill:#7C7C7C;" d="M23,77c-1.829,0.662-3.578,1.627-5.489,2.058c-1.717-2.961-1.421-5.299,0.449-7.105
			c3.643-1.293,7.711,3.216,6.897,4.341C24.54,76.733,23.717,76.905,23,77z"/>
		<path style="fill:#787878;" d="M37.325,65.05c-0.555-1.633,0.265-2.542,1.787-1.856c2.748-0.032,5.465,2.329,5.931,5.242
			l-6.776,2.632C36.552,68.915,37.025,66.944,37.325,65.05z"/>
		<path style="fill:#9B9B9B;" d="M29.304,70.879c0.793,2.671,0.432,3.014-2.249,2.079C26.791,71.888,25.359,71.064,25,70
			c0.551-2.491-0.653-5.176,1.018-8.34C30.301,62.587,31.534,67.858,29.304,70.879z"/>
		<path style="fill:#575757;" d="M36.868,43c-0.774,1.379-1.048,3.477-2.66,3.642c-1.987,0.203-3.658-0.543-5.626-1.758
			c-0.294-1.371,0.849-2.479,1.2-3.738C28.684,40.104,29.09,39.721,31,40C32.457,38.791,36.944,40.414,36.868,43z"/>
		<path style="fill:#8A8A8A;" d="M45.245,69.94c1.534,0.517-0.295,7.399-3.72,7.445c-1.999,0.026-3.635-1.255-3.595-3.935
			C37.974,70.444,45.418,69.999,45.245,69.94z"/>
		<path style="fill:#C1C1C1;" d="M36.904,39.904c1.556-0.334,1.545,0.699-0.035,3.096c-1.583-2.377-3.457-2.674-5.868-3
			c-2.228,1.458-4.057,1.7-5-1c-0.453,1.935-4.766-0.132-4.386-0.093C22.441,38.99,22.632,40.247,22,41
			c-0.206,1.178-1.539,1.178-4,0v-1c0.698-1.547,2.393-2.427,2.974-4.041c0.863,0.517,2.316,1.518,3.519,0.976
			c0.945-0.426,0.235-2.165,0.255-2.877c2.117,0.823,3.89,0.731,5.319-0.276c-0.767-2.281,1.093-2.952,2.016-0.835
			c1.696,0.194,2.354,1.734,1.976,4.622C35.489,37.859,36.511,38.113,36.904,39.904z"/>
		<path style="fill:#494949;" d="M36.904,39.904c-1.441,0.05-4.239,0.021-4.756-1.894c-0.509-1.883,0.025-3.642-0.065-5.063
			c0.959-0.516,3.158-1.783,4.056-0.271C37.505,34.976,36.787,37.696,36.904,39.904z"/>
		<path style="fill:#646464;" d="M40,22c1.579,3.265,2.501,0.581,5,2c1.669,1.202,0.669,2.202-3,3
			c1.181,1.739,0.29,1.866-1.575,1.638l-3.331-0.126c-1.967-0.125-1.826-2.078-0.843-3.512C37.51,24.571,37,23.057,37,22H40z"/>
		<path style="fill:#575757;" d="M47.898,74.126C49.111,75.019,50.948,74.843,52,76c2.316-0.44,3.143,1.826,1,3l-5.194,1.144
			c-1.297-0.674-2.606-1.879-2.381-3.275C45.655,75.435,46.636,74.413,47.898,74.126z"/>
		<path style="fill:#7A7A7A;" d="M52,60c0.244,2.801-1.671,5.209-4.472,6.246c-1.266-2.095-2.251-3.206-2.892-5.455
			C47.205,59.604,49.635,59.97,52,60z"/>
		<path style="fill:#737373;" d="M27,81.858c-0.164-0.618-0.633-1.307-0.974-1.793l0.237-4.174c2.436,0.199,4.057,1.517,5.518,3.135
			c-0.762,1.705-1.71,2.573-2.754,4.219L27,81.858z"/>
		<path style="fill:#545454;" d="M55.827,25.743c-1.546,1.563-3.24,2.174-5.69,2.303c-0.34-2.932-0.56-4.905,0.615-7.035
			C53.084,22.49,54.152,23.75,55.827,25.743z"/>
		<path style="fill:#9C9C9C;" d="M39.113,63.194c-0.187,0.991-0.938,1.485-1.787,1.856c-0.885,0.386-1.594,1.151-2.288,1.791
			c-1.051-1.199-4.869-1.304-4.822-4.177c0.027-1.679,3.105,0.08,4.09,0.826c0.773,0.018,1.776-1.198,2.417-1.315
			C37.654,62.005,38.516,62.758,39.113,63.194z"/>
		<path style="fill:#686868;" d="M53.199,30.942C52.699,31.497,52.91,32.641,52,33l-2.532,4.53L47,35
			c-0.927-0.591-1.173-2.481-0.551-3.081c1.108-1.068,6.524-2.869,6.066-2.814C53.153,29.027,53.124,30.561,53.199,30.942z"/>
		<path style="fill:#5B5B5B;" d="M47,35c2.619,0.049,3.286,1.383,2,4l-1.071,1.931c-1.546-1.184-3.538-1.175-5.974,0.028
			C40.738,38.281,43.996,34.197,47,35z"/>
		<path style="fill:#6C6C6C;" d="M25.071,54.64c-0.304,1.461-0.969,1.358-0.898-0.052C23.91,53.82,22.952,51.945,22,52
			c-1.879-0.506-3.133-1.91-1.161-3c2.011-1.101,4.544-2.06,5.609,1.217C26.927,51.693,27.104,53.39,25.071,54.64z"/>
		<path style="fill:#818181;" d="M39.817,57.943c-0.865,1.487-0.747,3.753-4.154,3.142c-1.075-0.193-1.868,0.043-1.686-1.906
			c-0.784-2.091,1.284-3.313,2.9-4.16c0.461-0.597,1.017-1.412,1.319-1.166C39.545,54.955,39.685,56.6,39.817,57.943z"/>
		<path style="fill:#919191;" d="M32.24,55.478c-0.215,2.363-0.076,4.134-1.149,5.108c-0.791,0.718-3.955,0.786-3.945-0.514
			c0.015-2.098,1.584-3.868,2.521-5.482C30.384,53.354,32.388,53.85,32.24,55.478z"/>
		<path style="fill:#545454;" d="M48.648,57.895c-1.504,0.327-2.857-0.304-1.654-1.588c0.354-1.022-0.578-2.943,0.311-3.945
			c0.706-0.795,3.403-0.683,3.654,0.181c0.083,0.285,0.397,4.914-0.608,5.863C50.016,58.724,49.085,57.739,48.648,57.895z"/>
		<path style="fill:#8A8A8A;" d="M31.189,75.744l3.863-3.639c1.582-1.49,3.916,3.551,2.593,4.414
			C35.255,78.078,33.032,76.637,31.189,75.744z"/>
		<path style="fill:#9D9D9D;" d="M47,27c0.51,0.661,1.384,1.002,2.052,1.677c-3.069,2.271-6.033,1.239-8.627-0.039
			C40.457,27.777,41.765,27.599,42,27C44.185,25.328,45.851,25.328,47,27z"/>
		<path style="fill:#949494;" d="M19,60c1.454-0.224,2.809,0.142,4.205,1.208c1.069,0.817,0.495,3.832-1.47,4.017
			C19.073,65.475,19,61.815,19,60z"/>
		<path style="fill:#939393;" d="M36.662,51.164c0.508,1.282-1.412,1.829-2.236,1.805c-1.217-0.036-4.113,0.604-3.337-1.45
			c0.578-1.531,1.478-3.283,2.421-3.42C34.792,47.912,35.917,49.284,36.662,51.164z"/>
		<path style="fill:#787878;" d="M17.961,71.953C15.943,72.669,14.007,72.89,12,72c-0.117-1.289,0.338-2.681-0.289-3.909
			C13.89,68.961,18.322,68.98,17.961,71.953z"/>
		<path style="fill:#8F8F8F;" d="M17.909,62.36c-1.903,3.076-5.682,3.316-8.951,2.198C11.726,62.659,13.817,61.361,17.909,62.36z"/>
		<path style="fill:#525252;" d="M31,40c-0.323,0.373-1.075,0.636-1.218,1.147c-0.712,1.046-1.764,1.996-3.265,1.82
			c-0.925-0.109-1.778-0.912-2.228-1.872C21.893,39.471,23.62,38.323,26,39C27.757,38.319,29.581,39.808,31,40z"/>
		<path style="fill:#C8C8C8;" d="M49,39c-0.36,2.616-1.593,5.882-3,8h-1c0.765-2.195,2.205-4,1.945-7.096
			c-1.701,1.431-3.465,0.98-4.99,1.055C43.63,39.053,46.606,39.112,49,39z"/>
		<path style="fill:#757575;" d="M32.128,70.843c0.765,1.774-0.105,3.289-0.939,4.902c-1.611-0.78-3.592-0.594-4.134-2.786
			c0.74-0.574,1.355-1.741,2.249-2.079C30.12,70.67,31.268,70.934,32.128,70.843z"/>
		<path style="fill:#DCDCDC;" d="M19,59v1c-0.326,0.05-0.672-0.032-1,0l-3.955-0.892C13.237,56.742,14.234,54.187,13,52
			c-0.146-0.259,0.087-0.71,0-1h1C13.985,54.46,17.321,56.168,19,59z"/>
		<path style="fill:#6A6A6A;" d="M36.877,55.018c0.627,2.112-0.948,3.613-2.9,4.16c-0.239-1.588-2.231-3.679-0.405-4.982
			C34.331,53.653,36.02,54.47,36.877,55.018z"/>
		<path style="fill:#8F8F8F;" d="M19.935,43.577c-2.801,0.952-5.054,0.249-7.942,0.393c-0.836-0.675-0.607-1.343-0.285-1.784
			c0.408-0.559,1.03-0.605,1.947-0.533L19.935,43.577z"/>
		<path style="fill:#717171;" d="M42.207,32.168c1.772,0.382,0.535,2.339-0.903,1.121c-2.236,0.407-0.698,2.921-2.363,5.194
			c-1.764-2.047-1.28-5.382,0.365-7.207C40.141,30.35,41.799,31.775,42.207,32.168z"/>
		<path style="fill:#707070;" d="M35.037,66.841c0.635,0.725,1.977,2.744,1.323,3.559c-1.076,1.342-3.061,0.319-4.233,0.443
			c-0.376-0.873-0.603-2.289-0.061-3.152C32.666,66.735,34.065,66.793,35.037,66.841z"/>
		<path style="fill:#7F7F7F;" d="M22.929,56.963l1.244-2.375c0.283-0.54,0.646-0.509,0.898,0.052
			c1.189,0.389,2.258,1.362,1.685,2.465c-0.489,0.94-0.871,1.991-1.832,2.981c-0.978,1.008-1.961-0.146-1.979-0.809
			C22.922,58.378,22.835,57.578,22.929,56.963z"/>
		<path style="fill:#DEDEDE;" d="M24.071,87.01c0.721,1.062,0.473,2.328-0.745,3.796c-0.129,1.263-0.968,2.417-1.57,3.483
			l-1.942-0.336c0.338-2.801,3.412-4.448,1.186-6.711C22.009,87.031,23.041,86.937,24.071,87.01z"/>
		<path style="fill:#5F5F5F;" d="M47,26c-1.417,0.957-3.42-0.217-2-2v-1c0.764-0.219,1.518-0.895,2.471-0.921
			c1.042-0.028,1.416,1.348,1.278,3.355C48.693,26.244,48.693,26.805,47,26z"/>
		<path style="fill:#737373;" d="M32.625,27.089c-0.993-0.732-3.07-0.456-3.697-1.946c-0.02-1.196,1.508-2.04,2.052-2.243
			c0.634,0.786,1.739,0.941,2.423,1.318C34.685,24.925,33.057,26.312,32.625,27.089z"/>
		<path style="fill:#585858;" d="M26,39l-1.711,2.094L22,41c-0.198-0.449-1.114-0.67-1.997-1.383C21.337,37.061,24.135,37.735,26,39
			z"/>
		<path style="fill:#919191;" d="M18,60c-1.19,1.494-3.422,1.294-4.614-0.115c0.333-0.185,0.851-0.215,0.659-0.777
			c0.434-0.456,0.655-0.976,1.321-2.151C16.532,57.828,17.381,58.828,18,60z"/>
		<path style="fill:#6B6B6B;" d="M40.067,46.998c0.127,0.953,0.233,1.702,0.935,2.969c-2.134-0.474-4.058-1.143-4.788-2.509
			c0.359-0.712,1.308-2.185,1.882-1.803C38.831,46.145,39.438,46.651,40.067,46.998z"/>
		<path style="fill:#535353;" d="M41.304,33.289c0.52-0.095,1.611-0.338,0.903-1.121l2.834-1.017
			c-1.458,2.163-2.487,3.83-3.623,5.948C40.75,35.448,41.522,34.361,41.304,33.289z"/>
		<path style="fill:#8E8E8E;" d="M29.354,51.894c-0.614,1.248-1.124,1.356-1.739,0.634c0.03,0.036-1.402-4.158-0.102-4.486
			c1.077-0.272,2.156-0.053,2.505,0.524C30.56,49.461,29.996,50.59,29.354,51.894z"/>
		<path style="fill:#454545;" d="M31,30c1.731,0.132,1.006,1.738,1.083,2.947c-0.496,0.267-1.994,0.042-2.016,0.835
			c0.154-1.05-0.862-1.626-0.883-2.334C29.15,30.249,30.487,30.412,31,30z"/>
		<path style="fill:#4A4A4A;" d="M36.252,25c0.42,1.133,0.709,2.31,0.843,3.512c-0.646-0.024-1.396,0.676-2.366,0.144
			c-0.683-0.374-0.187-1.721,0.288-2.893C34.815,24.404,35.45,24.16,36.252,25z"/>
		<path style="fill:#6A6A6A;" d="M46.995,56.307c0.546,0.298,0.766,1.583,1.654,1.588c-1.016,0.948-2.4,0.468-3.617-0.008
			C43.82,59.232,43.285,58.706,44,57C44.616,56.468,46.104,55.822,46.995,56.307z"/>
		<path style="fill:#787878;" d="M17.253,65.545c0.61-1.426,1.774-0.038,2.285,0.427c0.663,0.604,0.39,1.043-0.126,1.82
			c-0.376,0.566-1.098,1.041-1.672,0.652C17.008,67.948,16.589,67.097,17.253,65.545z"/>
		<path style="fill:#3B3B3B;" d="M54.937,19.013c-0.058,0.553,0.55,1.588,1.039,1.995c-0.684,1.184-2.008,0.788-2.634,0.072
			c-0.639-0.732-1.99-1.643-0.829-2.576C53.254,17.909,54.328,18.886,54.937,19.013z"/>
		<path style="fill:#595959;" d="M47,26v1h-5c0.544-1.384,2.244-1.554,3-3L47,26z"/>
		<path style="fill:#8E8E8E;" d="M39.817,57.943c1.844,0.585,2.961,2.599,3.193,5.006c-1.097-0.613-2.035-0.737-2.482-1.084
			C39.84,61.331,39.972,59.515,39.817,57.943z"/>
		<path style="fill:#737373;" d="M23.325,90.806c0.12-1.168-0.304-2.87,0.745-3.796c0.439,0.304,0.937-0.074,1.965,0.149
			C25.666,89.01,24.574,90.019,23.325,90.806z"/>
		<path style="fill:#616161;" d="M43.626,51.972c-1.243,1.291-2.659,0.683-2.574-0.382c0.049-0.612,1.356-1.634,2.264-1.625
			C43.891,49.972,44.758,50.797,43.626,51.972z"/>
		<path style="fill:#4D4D4D;" d="M36.868,43c0.282-1.01,0.09-2.068,0.035-3.096c0.867-0.03,1.358-1.646,3.133-0.67
			C39.212,40.842,37.717,41.734,36.868,43z"/>
		<path style="fill:#5E5E5E;" d="M22,41c-0.03,0.733,0.744,0.869,1.033,1.967C20.763,43.011,19.288,42.01,18,41H22z"/>
		<path style="fill:#8A8A8A;" d="M22.219,45.213c0.403-0.541,1.558-0.128,2.216-0.203c0.417-0.047,0.873,0.757,0.555,1.479
			c-0.369,0.838-1.121,0.414-1.529,0.542C22.543,47.32,21.302,46.446,22.219,45.213z"/>
		<path style="fill:#7A7A7A;" d="M44,57c0.261,0.382,0.614,0.687,1.031,0.887c-0.303,0.363-0.966,2.203-1.511,1.976
			c-0.545-0.227-1.077-1.916-1.326-2.452C41.898,56.773,43.665,57.289,44,57z"/>
		<path style="fill:#616161;" d="M45.552,52.197c0.657-0.266,0.79,2.567-0.067,2.815c-0.692,0.2-1.34-0.043-1.49-0.541
			C43.754,53.676,44.256,52.722,45.552,52.197z"/>
		<path style="fill:#7B7B7B;" d="M25,70c-0.332,2.305-1.508,2.259-1.951,1.56c-0.27-0.425-0.25-1.657,0.352-2.447
			C23.732,68.68,24.197,70.348,25,70z"/>
		<path style="fill:#5F5F5F;" d="M30.067,33.781l-0.103,3.724c-0.019,0.696-2.151,0.849-2.696,0.268
			c-1.192-1.271-1.179-3.04-2.519-3.717C25.357,31.354,28.355,34.893,30.067,33.781z"/>
		<path style="fill:#C8C8C8;" d="M23.982,100c0.107-1.604,0.18-4.389,1.982-4.848C26.826,97.094,25.015,98.627,23.982,100z"/>
		<path style="fill:#B5B5B5;" d="M64.126,13.772c0.242,1.15-1.309,1.047-1.887,1.999C63.19,17.27,63.879,18.542,64,20
			c-1.785-1.271-2.895-3.068-4-5l0.129-1.129L64.126,13.772z"/>
		<path style="fill:#CDCDCD;" d="M54,42c-1.827-0.159-3.603-1.689-5-3c-0.923-0.865-0.666-3.149-2-4
			c0.849,0.227,2.138,1.067,2.832,0.315C50.544,34.543,50.949,33.414,52,33c0.414,1.459-2.338,3.615-1.528,4.62L54,42z"/>
		<path style="fill:#D8D8D8;" d="M57,42c-0.51,0.933-0.825,1.953-1,3c-1.003-0.575-1.355-2.2-2-3C54.971,42.084,56.025,42.013,57,42
			z"/>
		<path style="fill:#858585;" d="M50.218,120.671l4.452-2.728c0.535,1.116,0.494,1.896,0.291,2.547
			C54.696,121.342,53.278,121.115,50.218,120.671z"/>
		<path style="fill:#E4E4E4;" d="M49,119.85c-0.717,1.057-1.783,1.781-3,2.15c-0.459-0.989-0.741-1.944-1-3
			C46.207,119.74,47.593,119.97,49,119.85z"/>
		<path style="fill:#D5D5D5;" d="M36,129c-0.482,0.536-0.57,1.423-1,2c-0.717,0.204-1.516,0.702-2.281,0.696
			c1.033-1.831,1.506-3.785,1.128-5.897c-0.431-2.407-1.181-3.818-3.959-3.817L35,119C33.108,121.75,34.201,126.15,36,129z"/>
		<path style="fill:#545454;" d="M44.908,99.879c-0.659,1.23-2.117,1.986-2.908,3.121c-1.265-0.243-3.018,0.43-4.237-0.303
			c-1.145-0.688-0.714-2.616-0.873-3.778C37.835,97.027,37.786,94.742,39,93c0.892-1.28,2.211-2.422,3.459-1.964
			c1.669,0.612,5.013,0.576,4.982,2.554C47.396,96.361,45.805,98.206,44.908,99.879z"/>
		<path style="fill:#4C4C4C;" d="M50.945,85.071c0.847,1.519,1.343,3.216,1.207,4.961C51.8,90.39,51.41,90.709,51,91
			c-0.68,0.335-1.861,1.187-2.465,0.825c-0.668-0.401-3.473-10.132-0.257-8.712C48.542,84.051,50.355,84.438,50.945,85.071z"/>
		<path style="fill:#6A6A6A;" d="M33.745,105.929c-1.788,0.565-0.659,2.957-1.601,4.281c-1.288,0.773-2.534,0.595-3.277-0.645
			c-0.77-1.285-0.773-2.446,0.133-3.565c1.282,0.256,2.429-1.213,3.798-2.073C33.548,104.598,33.645,105.309,33.745,105.929z"/>
		<path style="fill:#595959;" d="M29,106l-5-1c1.475-1.361,3.513-1.291,6.059-0.771C29.455,104.895,29.366,105.548,29,106z"/>
		<path style="fill:#484848;" d="M59,80c1.171,1.844,1.258,4.187,0,6c0.83,2.15-0.681,3.384-2.669,2
			c-4.123,0.151-3.267-5.902-3.331-9c0.073-1.177,0.641-1.908,1.743-2.096L59,80z"/>
		<path style="fill:#4B4B4B;" d="M60,89c-0.857,0.538-1.054,2.403-2.214,1.544c-0.679-0.503-1.025-1.866-1.456-2.544
			c1.045-0.436,1.965-1.111,2.669-2C59.727,86.749,60.225,87.931,60,89z"/>
		<path style="fill:#434343;" d="M51,84c-0.356-0.936-1.104-1.549-1.913-2.081c-0.268-1.17,0.884-0.866,1.436-0.954
			c1.166-0.185,1.723,0.4,1.517,1.52C51.945,82.999,51.583,83.586,51,84z"/>
		<path style="fill:#585858;" d="M61,71c1.342,2.758,1.08,7.771-2,9l-2.804-1.814C53.684,78.064,52.712,76.041,55,75
			c1.378-0.476,0.574-2.074,1-3C54.812,68.571,59.434,68.532,61,71z"/>
		<path style="fill:#6C6C6C;" d="M61,71c-1.76-1.039-3.026-1.799-1.155-3.155C60.6,66.958,61.429,66.02,62,65
			C63.886,66.23,62.495,69.867,61,71z"/>
		<path style="fill:#E5E5E5;" d="M60.961,59.039l-2.606-2.036C56.675,58.742,55.706,60.29,54,61
			c0.853-3.424,4.166-5.985,7.053-7.953C60.317,55.012,60.116,57.069,60.961,59.039z"/>
		<path style="fill:#CFCFCF;" d="M59.845,67.845C60.049,68.964,60.507,69.988,61,71c-0.72,0.043-1.848-0.651-2.712-0.837
			C57.517,69.997,56.396,71.139,56,72c-0.142-1.547-1.088-2.793-2-4C55.971,68.569,58.326,69.63,59.845,67.845z"/>
		<path style="fill:#D1D1D1;" d="M58,47c-1.571-0.009-2.769,1.163-4,2c0.144-1.541,1.087-2.795,2-4
			C56.948,45.544,57.426,46.09,58,47z"/>
		<path style="fill:#C7C7C7;" d="M61.76,50.035C60.009,50.612,58.83,48.316,58,47C59.673,47.009,61.738,48.276,61.76,50.035z"/>
		<path style="fill:#CACACA;" d="M59,80c-4.977-0.214-0.5-2.212-6-1c-0.018-0.853-0.41-2.351-1-3c1.049-0.167,2.015-0.611,3-1
			C54.584,77.603,57.986,77.685,59,80z"/>
		<path style="fill:#E8E8E8;" d="M22,52c-1.532,0.727-2.486-0.902-4-1c0.619-1.093,1.82-1.442,2.839-2
			C20.951,50.055,21.58,51.054,22,52z"/>
	</g>
</g>
</svg>
