<?xml version="1.0" encoding="iso-8859-1"?>
<!-- Generator: Adobe Illustrator 30.1.0, SVG Export Plug-In . SVG Version: 9.03 Build 0)  -->
<svg version="1.1" id="Layer_1" xmlns="http://www.w3.org/2000/svg" xmlns:xlink="http://www.w3.org/1999/xlink" x="0px" y="0px"
	 viewBox="0 0 102 134" style="enable-background:new 0 0 102 134;" xml:space="preserve">
<g>
	<g>
		<path style="fill:#FDFDFD;" d="M97,0l2.07,0.754c1.127,17.821,2.104,35.57,2.93,53.246v11
			c-5.926,7.572-8.706,17.257-14.849,25.345l-25.405,33.448l-57.422,8.424C3.721,132.306,3.965,134.08,4,134H1
			c-0.534-3.414,0.886-6.228,2.396-9.779L50.659,13.032L89,0H97z M92.959,3.974C92.874,4.833,90.687,7.265,91.9,9.1
			c-0.853-2.783-2.483-3.179-5-3.068c-2.091,0.092-5.475-2.812-5.795,0.651c-1.012,0.086-2.022,0.274-3.039,0.299
			C77.39,6.998,76.674,7.042,76,7c-0.737-0.046-1.698-0.127-1.917,0.609C73.818,8.498,73.974,9.3,74,10
			c-0.319-0.088-0.844,0.263-1.123,0.1c-1.524-0.893-4.826,1.143-5.265,2.9c-0.455-0.504-0.927-2.207-1.832-2.531
			c-2.947,0.715-12.164,2.131-10.777,5.636c-4.238-1.097-6.03,6.792-6.858,9.895c-0.101,0.703-1.014,1.33-1.283,2
			c-1.616,4.016-3.917,7.779-4.953,12c-0.077,0.315,0.039,0.679-0.013,1c-1.812,1.565-2.546,4.018-3.058,6.79
			c1.557,0.438,2.333-0.114,3.163,0.033c-0.951,1.611-2.905,1.475-5.095,2.616C38.169,51.479,39.697,50.582,41,51
			c-0.129,0.423-0.526,0.927-1,1c-1.938,0.3-4.093-1.645-6.108,7c-0.074,0.319,0.023,0.676-0.029,1
			c-2.025,1.558-2.751,4.449-3.286,6.8c1.772,0.297,2.713-0.103,3.422,0.204c-1.769,0.998-2.918,1.084-3.806,2.988
			c0.768-1.647-4.409,4.411-3.754,6.453c0.165,0.513,0.683,0.903,1.355,0.964c-2.222,1.155-2.457,3.798-3.635,5.591
			c-1.202,1.829-0.527,2.928-0.136,5.037c2.455-1.415-6.872,5.583-4.822,5.777C18.927,94.242,18.169,94.531,18,95l-4.672,11.766
			L12,109l-2.829,7.743l-0.194,1.241c-1.092,0.595-0.528,1.998-0.163,2.714c-1.559,0.174-2.172,1.387-2.924,2.719
			c-0.99,1.754-0.789,3.048,1.26,3.769c0.067,1.009-0.163,2.595,1.37,2.542c1.258-0.044,2.296-0.543,2.861-1.639l0.591,0.026
			c1.387,1.41,3.678,1.303,5.029-0.115h4c1.865,0,3.958-0.143,4.614-2.118l1.383-0.013c0.363,0.221,0.604,0.884,1.024,1
			c1.394,0.386,2.992,0.243,3.979-0.869c0.42,0.006,0.876-0.211,1.294-0.184c2.252,0.15,5.487,1.13,5.706-1.816
			c2.896,1.704,6.52,1.274,8.921-1.076c0.309-0.302,0.688-0.742,1.079-0.924c1.404-0.651,2.455-1.807,3.273-3.115l0.806,0.239
			c-0.78,1.338-1.628,2.487-2.329,4.792c4.792-1.514,9.006,0.122,9.175-3.204l1.136-1.055c3.155-2.929,5.657-6.603,8.276-10.008
			c0.8-1.04,2.303-1.461,2.785-2.9c0.547-1.634,3.642-2.861,1.906-4.459l-0.013-0.706l1.332-0.619
			c0.403-0.187,1.597-0.817,1.513-1.437C76.798,99.078,75.148,99.12,75,99c-0.134-0.706,0.403-1.166,1.089-0.987
			c1.79,0.903,2.816-0.129,3.968-1.23c2.179-2.083,1.183-2.586,0.221-4.522c1.415,1.003,2.776,0.598,4.043-0.856
			c1.743-2.001,2.535-4.492,2.751-6.608c2.517-1.249,3.792-4,4.049-6.839c2.654-0.601,2.713-4.108,3.938-5.883
			c1.067-1.546,0.526-2.219-0.827-3.761c2.319,0.158,3.406-1.569,4.48-3.239c0.758-1.179,1.803-1.611,1.236-3.42
			c-0.333-1.064,0.143-2.419-0.076-3.528c-0.149-0.754,0.249-1.576,0.205-2.622C100.033,54.463,99.436,53.584,98,54l-0.003-1.121
			c0.27,0.039,1.839,0.006,1.749-0.434c-0.517-2.532-0.14-4.756-1.741-7.5c-1.468,0.789-2.426,2.01-2.897,2.939
			c0.334-1.498,0.01-3.121,0.062-4.635c1.009,0.728,1.735,1.806,3.735,1.963c0.144-2.672-0.291-5.071-1.933-6.298
			c-0.341-0.255-1.903,0.22-2.279,0.312c-0.538,0.131-0.323,1.273-0.706,1.847c-0.928-0.903-1.806-1.865-2.805-1.341
			C90.109,40.295,88.62,40.357,88,41c-0.481-1.098-1.259-2.15-1.974-3.098c1.728,0.398,4.365,2.172,5.758,0.163
			c0.615-0.888,0.282-2.59,0.087-3.243C91.584,33.864,89.959,33.826,89,34c-0.472-0.186-0.83-0.547-1.239-0.827
			c1.29-0.261,2.481-0.454,4.276-1.454c-0.383-0.649-0.504-2.003-1.06-2.32c0.813,0.266,1.818,1.177,2.521,1.016
			c1.187-0.273,1.462-1.728,2.101-2.692c1.818-2.744,1.593-6.519-1.357-7.579c-0.456-1.194-1.133-2.334-2.178-3.099
			c0.966-0.012,2.585,0.149,3.304-1.218C94.407,17.653,96.279,1.061,92.959,3.974c4.22-5.284-3.87-1.213-6.273,0.023
			C88.273,6.171,90.838,4.848,92.959,3.974z M93.431,37.846c0.878,0.881,3.852,0.501,4.268-0.557
			c0.347-0.884,0.764-3.008-0.036-4.47c-0.868-1.587-3.011-0.033-3.833,0.768C93.001,34.396,92.289,36.7,93.431,37.846z
			 M3.842,130.71c1.181-0.969,2.289-0.86,2.298-1.873c0.003-0.358-0.558-0.604-1.081-1.323c-0.901-1.238-2.624,3.593-2.071,2.028
			C2.811,130.042,3.055,131.355,3.842,130.71z"/>
		<path style="fill:#EFEFEF;" d="M51,28c0.888,0.291,0.877,0.625,0,1c1.714,2.189,2.81,6.186,2,9c1.359-0.389,2.071,1.698,2,3
			c3.132,2.229,4.737,7.292,5.291,10.974c2.119-0.949,3.364-2.017,3.735-3.205c-0.918-2.858,3.736-4.309,5.207-1.858
			c2.263-2.112,3.446-2.292,3.55-0.541c1.44,1.9,1.931,3.746-0.799,4.63c-2.045,0.25-3.999,1.079-5.861,2.485
			c-1.116,1.392-2.443,2.205-3.983,2.438c-1.789,0.908-1.789,0.908,0,0c2.143-1.57,3.432-0.084,3.868,2.148L67,58
			c2.656,0.319,2.541,1.239,0,2c-0.29,0.745-0.624,0.732-1,0c-1.162,0.707-2.46,1.068-3.896,1.083
			C61.028,66.728,61.993,71.034,65,74c0.386-0.55,0.727-0.49,1.026,0.136c0.918,0.286,0.912,0.667,0.037,1.136l-0.459,1.32
			c-3.683,0.104-3.495,2.571,0.564,7.399l-0.352,2.787c0.502-0.764,0.808-0.664,0.927,0.265l2.149,0.575
			C71.281,84.515,73.316,83.975,75,86c1.701,2.174,0.303,4.3-4.194,6.378C71.567,93.442,72.631,94.316,74,95
			c1.955,0.472,2.737,0.82,2.089,3.013C75.403,97.834,74.866,98.294,75,99c-0.816,1.48-2.1,1.556-3.854,0.228L69,101
			c-2.871,3.781-5.495,7.693-7.872,11.737c1.162,2.774,1.14,5.08-0.068,6.92l-1.136,1.055c-2.189-0.399-4.471-0.928-6.845-1.588
			l-0.806-0.239c-2.226-2.378,2.868-8.788,5.336-9.948l0.007-2.246c4.299-3.237-7.153-5.974-0.752-0.891L56,108
			c-1.417,2.583-3.98,1.595-5-1c-1.429-2.056-1.44-4.947,0-7c0.199-2.754,2.065-2.626,4-1c1.386-1.241,3.304-1.359,5.754-0.353
			c5.058,0.147,4.727-0.607,1.934-3.928c-0.886-0.094-0.858-0.353-0.003-0.761c1.841-1.58,1.945-3.212,0.312-4.895
			C61.913,88.282,61.248,87.261,61,86c-0.873-0.284-0.86-0.618,0-1c0.17-1.516-0.497-1.849-2-1c-0.284,0.873-0.618,0.86-1,0
			c-5.512-1.707-7.484-0.417-5.918,3.871L50,89c-0.284,0.873-0.618,0.86-1,0c-1.772,0.328-2.5-0.894-2.185-3.663
			C44.853,86.275,42.915,87.163,41,88c-0.323,0.875-0.699,0.86-1.123,0c-2.605-2.229-6.48-1.01-8.877,1
			c-0.221,2.626-1.092,2.431-2,0c-1.829,0.111-3.487-0.21-4.976-0.963c-0.391-2.108-1.065-3.207,0.136-5.037
			c2.179,0.188,4.308,0.036,6.387-0.455C31.9,80.488,33.051,78.307,34,76c1.982-2.807,2.973-4.211,2.973-4.211
			c-2.557-1.141-3.548-2.736-2.973-4.785c-1.326-1.885-1.371-4.219-0.136-7.004c0.052-0.324-0.046-0.681,0.029-1
			c1.549-1.15,2.46-0.892,3.374,0.679C38.2,57.075,39.111,54.516,40,52c0.474-0.073,0.871-0.577,1-1c0.927-0.857,2.301-1.191,4.12-1
			c2.177-1.662,2.813-0.817,1.925,1.761c0.613-0.576,0.916-0.645,1.186,0.192c1.998-0.823,4.239-0.87,6.723-0.142
			C54.291,49.857,53.973,47.92,54,46c-0.525-0.303-0.512-0.637,0-1c-2.34-0.357-5.294-6.466-3-8c-3.53,0.444-4.194-5.929-4.139-9
			c0.27-0.67,1.182-1.297,1.283-2C50.305,24.571,51.134,25.637,51,28z"/>
		<path style="fill:#E8E8E8;" d="M82.077,46.028c0.502-2.747,1.908-2.261,1.894,0.566c1.473,0.374,2.921,1.63,4.344,3.771
			c2.314-0.807,4.579-1.634,6.793-2.48c2.191,0.891,3.336,2.867,1.949,5.024c-2.772,1.945-2.772,1.945,0,0
			c0.276-1.181,0.589-1.19,0.94-0.028L98,54l0.929,0.425c-0.291,1.503,0.023,2.737,0.942,3.704c0.219,1.109-0.257,2.463,0.076,3.528
			l-1.966,2.407l-2.422,0.674c-0.429-1.717-0.872-0.525-1.329,3.578c1.352,1.542,1.893,2.215,0.827,3.761
			c-1.617,1.535-2.929,3.496-3.938,5.883c-0.781,1.806-2.469,2.849-5.066,3.131l-1.149,2.113c-2.178,1.821-3.581,1.418-4.772-1.283
			c-1.727-1.027-1.21-2.761,1.553-5.2C82.909,75.116,82.68,73.21,81,71c-0.873-0.284-0.86-0.618,0-1l0.25-1.766
			c-1.408-3.036-2.117-6.376-2.129-10.019c-2.634-1.063-2.656-1.923-0.07-3.125c2.644-1.377,7.626,0.054,9.886,1.841
			c1.83,2.339,0.196,3.581-4.902,3.726c2.092,3.711,2.489,6.735,1.191,9.072c0.824,0.835,2.363,0.804,4.615-0.09
			c0.012-2.266,0.631-4.119,1.857-5.558c-2.3-0.66-3.974-5.512-2.013-7.21c-4.628-0.692-7.537-2.528-8.726-5.507
			c-3.154,0.865-5.901-0.825-5.043-4.201c-1.427-0.402-1.449-0.734-0.01-1.16c0.728-1.692,2.191-1.423,4.389,0.806L82.077,46.028z"
			/>
		<path style="fill:#E9E9E9;" d="M86.9,6.031C89.411,7.546,87.925,13.337,87,16c1.384,1.229,1.456,3.1,0.215,5.613l1.856,2.526
			c2.599,1.147,2.575,1.951-0.087,2.942c-2.964,0.534-3.22,1.828-0.77,3.884l-0.453,2.208C88.17,33.453,88.528,33.814,89,34
			c1.234,1.628,0.243,2.928-2.974,3.902c-1.018,2.106-3.735,4.326-6.026,2.891c0.36,2.096-0.068,2.625-1.283,1.588
			c0.893,2.171-0.766,3.391-2.811,3.622l0.01,1.16c-1.153,2.631-3.102,2.066-3.133-0.793c-0.821-0.632-0.732-1.647,0.269-3.045
			c1.564-2.468,4.968-6.27,7.955-6.265l0.212-2.149c2.498-0.225,2.575-1.896,0.229-5.014c-2.374-2.009-3.256-3.963-2.648-5.863
			C76.484,25.305,72.792,23.788,71,22c-0.873-0.284-0.86-0.618,0-1c-0.293-2.646-0.076-2.591,2-1
			c2.453-0.268,3.207-1.499,2.262-3.693c-2.588-0.215-4.116-4.303-2.386-6.207C73.156,10.263,73.681,9.912,74,10
			c0.224-0.885,0.561-0.857,1,0l4.14,6c2.704,1.839,2.704,1.839,0,0L75,10c-0.84-0.99-0.231-2.645,1-3
			c0.674,0.042,1.39-0.002,2.066-0.018c2.185,5.408,7.869,6.285,3.039-0.299C81.425,3.22,84.809,6.124,86.9,6.031z"/>
		<path style="fill:#EAEAEA;" d="M16,107.268c1.23,6.201,8.7,8.345,14,6.732c1.857-2.08,3.2-1.497,3.018,1.27
			c0.392,1.08,1.238,1.412,2.536,0.996l9.585,2.449L46,121c0.558-1.905,1.439-1.928,2,0c1.595-1.404,2.167-0.826,1,1
			c-0.391,0.181-0.77,0.622-1.079,0.924c-2.924,0.782-7.994,0.788-9.974-1.583c0.636,2.833-1.74,3.249-3.118,0.816
			c-0.967,1.726-1.688,1.26-1.139-0.677c-3.36,1.65-8.387,2.008-11.69,0.52c1.344,3.453,1.011,5.453-1,6h-4
			c-1.423,0.774-1.866,0.416-0.943-1.024l1.894-2.164C17.443,122.134,18.126,120.53,20,120c1.937-1.707-0.436-3.186-1.995-1.879
			c-0.662,3.054-1.312,6.006-1.948,8.856c-0.848,1.083-2.756,1.143-4.086,1.139l-0.591-0.026c-1.418-0.083-2.235-0.788-2.451-2.115
			c-0.625-2.662,0.228-3.497,2.89-3.037l-0.075-2.101c-1.664-0.663-2.586-1.614-2.767-2.852l0.194-1.241
			c0.782-1.629,2.295-2.199,4.537-1.712c-1.034-2.04-1.603-4.051-1.708-6.031l1.328-2.234C14.777,104.345,15.528,104.486,16,107.268
			z"/>
		<path style="fill:#868686;" d="M69,101c2.845,1.267,1.715,6.022,0.336,8.648c-2.619,3.405-5.121,7.079-8.276,10.008
			c0.186-2.302-2.691-4.899-1.842-7.46c1.74-4.598,5.62-7.803,7.931-12.137C68.093,100.267,68.514,100.681,69,101z"/>
		<path style="fill:#828282;" d="M67.612,13c2.6,1.878,0.35,8.491-2.543,9.186c-0.442,2.241-3.316,1.327-4.307-0.186
			c-2.943,1.745-7.701-2.997-5.759-5.895c-1.387-3.505,7.83-4.922,10.777-5.636C66.684,10.793,67.157,12.496,67.612,13z"/>
		<path style="fill:#8E8E8E;" d="M34,76c-2.195-0.311-3.195-1.311-3-3c-1.755-0.126-1.613-1.835-0.806-3.008
			c0.888-1.904,2.037-1.99,3.806-2.988c1.455,0.629,2.23,2.161,3.885,3.102c0.614-2.26-1.365-2.534-2.131-4.228
			c1.482-2.614,4.266-2.1,6.404-1.447c2.516,0.769,2.158,3.845,1.651,7.005c-0.286,1.78-3.44-0.513-4.4-0.017
			c-0.819,0.891-0.814,2.973-1.801,3.716C36.56,75.922,35.293,76,34,76z"/>
		<path style="fill:#9C9C9C;" d="M93.987,41.073c2.555-1.184,3.131,0.361,1.184,2.176c-0.052,1.514,0.272,3.136-0.062,4.635
			c-1.367,2.696-2.889,4.118-6.434,4.446c-2.555,0.236-4.168-2.866-4.704-5.736C82.05,44.351,85.496,40.697,88,41
			c0.62-0.643,2.109-0.705,3.182-1.267C92.181,39.209,93.059,40.171,93.987,41.073z"/>
		<path style="fill:#6A6A6A;" d="M56,108c1.422-1.434,2.141-0.992,1.609,0.937c0.523,2.269-3.057,6.302-5.336,9.948
			c-0.818,1.308-1.869,2.464-3.273,3.115c-0.134-0.459-0.516-0.888-1-1c-2.246-1.772-1.809-8.444-1-11l4-3
			C52.72,106.93,54.349,107.572,56,108z"/>
		<path style="fill:#7A7A7A;" d="M55.003,16.105c1.529,2.277,3.621,4.189,5.759,5.895c1.804,0.311,1.906,1.12,0.234,1.866
			C62.209,25.345,61.657,25.922,60,25c-2.276,1.489-4.334,3.13-6.174,4.921L51,28c-1.231-0.157-2.171-1.005-2.856-2
			C48.972,22.897,50.764,15.008,55.003,16.105z"/>
		<path style="fill:#636363;" d="M72.877,10.1c1.381,1.8,2.151,3.957,2.386,6.207C77.647,18.593,76.084,21.089,73,20
			c-0.458,0.466-1.399,0.732-2,1c-1.421,1.282-4.349,2.394-5.932,1.186c0.349-3.183,1.766-6.079,2.543-9.186
			C68.051,11.243,71.353,9.206,72.877,10.1z"/>
		<path style="fill:#8B8B8B;" d="M34,76c1.564,2.245,0.019,6.293-1.776,7.783C29.721,85.86,25.533,85.801,24.16,83
			c1.178-1.793,1.414-4.436,3.635-5.591C26.98,75.206,28.124,74.784,30,76C30.832,74.498,32.166,74.498,34,76z"/>
		<path style="fill:#787878;" d="M84.906,83.202c1.836-1.154,2.708-0.498,2.165,1.596c-0.215,2.115-1.008,4.606-2.751,6.608
			c-1.266,1.454-2.628,1.859-4.043,0.856c-0.8,0.082-1.429,0.122-1.454,0.016C78.442,90.704,78.551,85.656,79,84
			c-0.825-0.732-0.447-1.426,1.134-2.081C81.804,81.878,83.445,82.427,84.906,83.202z"/>
		<path style="fill:#636363;" d="M51,37c0.402,3.09-1.807,4.174-4,2c-2.898,2.618-4.595,2.951-5.092,1
			c1.036-4.221,3.337-7.984,4.953-12C49.567,30.048,49.551,34.085,51,37z"/>
		<path style="fill:#838383;" d="M90.976,29.399c-2.324,2.036-3.667,0.1-1.992-2.318c0.096-0.978,0.135-1.96,0.087-2.942
			c1.163-1.314,2.516-2.339,4.06-3.074c-1.054-1.639-0.443-2.13,1.11-0.921c2.949,1.059,3.175,4.835,1.357,7.579
			c-0.639,0.964-0.914,2.419-2.101,2.692C92.795,30.576,91.79,29.665,90.976,29.399z"/>
		<path style="fill:#8B8B8B;" d="M40,52c2.199,3.536-0.304,7.947-2.932,11.672c-1.917-2.114-1.458-3.956-3.175-4.672
			C35.907,50.355,38.062,52.3,40,52z"/>
		<path style="fill:#828282;" d="M92.063,17.045c1.046,0.765,1.722,1.905,2.178,3.099l-1.11,0.921l-4.06,3.074
			c-1.185-0.025-2.366-0.081-4.119-0.245C85.048,20.84,85.963,18.397,87,16C88.466,15.054,90.154,15.402,92.063,17.045z"/>
		<path style="fill:#929292;" d="M91.9,9.1C95.443,8.463,93.946,15.9,90,14c0.439,1.183-0.561,1.849-3,2
			c-2.107-2.886-0.869-6.698-0.1-9.969C89.417,5.921,91.047,6.317,91.9,9.1z"/>
		<path style="fill:#9B9B9B;" d="M92.063,17.045C88.903,16.077,88.215,15.062,90,14c1.821-2.335,3.258-2.847,1.9-4.9
			c-1.214-1.835,0.973-4.267,1.058-5.125c3.32-2.913,1.448,13.679,2.408,11.853C94.648,17.194,93.029,17.034,92.063,17.045z"/>
		<path style="fill:#999999;" d="M81.105,6.682c0.978,0.254,2.557-0.182,3.305,0.305c1.698,1.106-0.405,6.749-0.941,6.958
			c-2.063,0.802-5.404-3.11-6.01-3.966c-0.64-0.904-0.139-2.095,0.606-2.997C79.083,6.956,80.093,6.769,81.105,6.682z"/>
		<path style="fill:#717171;" d="M29,89c2.347,2.571-1.047,5.984-4,4c-1.409,1.219-5.482,2.993-5.798,0.814
			c-2.051-0.194,7.276-7.192,4.822-5.777c1.077-0.621,2.41-1.573,4.197-1.981C29.345,85.799,29.035,88.382,29,89z"/>
		<path style="fill:#969696;" d="M18,106c0.896,2.702,0.111,3.178-2,1.268c-0.874-0.245-1.767-0.419-2.672-0.501L18,95
			c2.291-0.406,3.384,0.383,1.45,1.612l0.042,7.13C20.893,105.039,20.396,105.792,18,106z"/>
		<path style="fill:#4D4D4D;" d="M33.69,121.48c-0.172,2.434-2.403,3.897-6.693,4.388l-1.383,0.013
			c-2.821,2.213-4.403-1.21-3.614-3.882C25.302,119.795,29.891,121.153,33.69,121.48z"/>
		<path style="fill:#8E8E8E;" d="M59.924,120.711c-0.168,3.326-4.383,1.69-9.175,3.204c0.702-2.305,1.55-3.454,2.329-4.792
			c0.672-1.154,2.698-2.371,3.831-1.576C58.101,118.383,59.237,119.486,59.924,120.711z"/>
		<path style="fill:#828282;" d="M9.171,116.743L12,109c2.48,1.528,3.79,4.666,4.1,7.887
			C13.306,117.213,11.301,116.904,9.171,116.743z"/>
		<path style="fill:#7D7D7D;" d="M88.984,27.081c0.592,0.57,1.105,1.811,1.992,2.318c0.556,0.317,0.677,1.671,1.06,2.32
			c-1.795,1-2.986,1.193-4.276,1.454c-1.812-1.239-4.122-4.425-3.362-6.891C84.976,24.411,88.114,26.244,88.984,27.081z"/>
		<path style="fill:#767676;" d="M91.12,77.959c-0.257,2.84-1.532,5.591-4.049,6.839c-0.691-0.562-1.373-1.175-2.165-1.596
			c-0.391-0.885-1.088-1.813-1.325-2.845C85.873,78.284,88.643,78.52,91.12,77.959z"/>
		<path style="fill:#797979;" d="M97.982,64.063c1.03-0.635,1.273-0.298,0.73,1.013c-1.074,1.67-2.162,3.397-4.48,3.239
			c-1.838-2.096-2.351-5.686-0.413-8.461C95.731,61.472,96.362,63.221,97.982,64.063z"/>
		<path style="fill:#A2A2A2;" d="M76.089,98.013c-0.609-0.764-1.475-0.851-3.125-1.351C73.359,96.056,73.835,95.604,74,95
			c-1.857-2.271,0.94-3.983,3-2c1.654-1.89,2.746-2.136,3.278-0.738c0.962,1.936,1.958,2.439-0.221,4.522
			C78.905,97.884,77.879,98.916,76.089,98.013z"/>
		<path style="fill:#E3E3E3;" d="M25,93c0.873,0.284,0.86,0.618,0,1c0.563,1.523-0.404,2.662-2.902,3.419
			c-1.27,4.947-0.171,6.932,3.298,5.954L27,105c2.886,0.077,2.705,2.345,0,3c-2.652,1.013-7.461,0.55-9-2
			c1.359-3.321,1.944-7.921,0-11c0.169-0.469,0.927-0.758,1.202-1.186C21.116,93.983,23.185,93.725,25,93z"/>
		<path style="fill:#616161;" d="M47.921,122.924c-2.401,2.35-6.025,2.78-8.921,1.076c-2.248-0.03-2.673-1.1-1.052-2.659
			C41.329,120.456,44.703,121.829,47.921,122.924z"/>
		<path style="fill:#898989;" d="M93.431,37.846c-1.142-1.146-0.43-3.451,0.399-4.259c0.821-0.801,2.964-2.355,3.833-0.768
			c0.8,1.462,0.382,3.586,0.036,4.47C97.284,38.347,94.309,38.728,93.431,37.846z"/>
		<path style="fill:#848484;" d="M75,99c0.148,0.12,1.798,0.078,1.859,0.527c0.084,0.62-1.111,1.249-1.513,1.437l-1.332,0.619
			c-3.001,2.525-4.672,2.331-5.013-0.583c-0.412-0.98,0.203-2.49,0.062-3.981C71.662,96.632,73.149,98.203,75,99z"/>
		<path style="fill:#696969;" d="M8.814,120.698c1.298-2.062,4.19-0.12,3.005,2.239c-0.592,1.315-1.723,2.241-2.89,3.037
			c1.598,1.875-0.081,2.793-1.78,1.213c-2.049-0.721-2.25-2.015-1.26-3.769C6.642,122.085,7.255,120.872,8.814,120.698z"/>
		<path style="fill:#797979;" d="M86.026,37.902c-0.225-0.298-0.636-1.181-0.243-1.596C86.802,35.228,88.224,35.003,89,34
			c0.959-0.174,2.584-0.136,2.871,0.822c0.196,0.653,0.529,2.355-0.087,3.243C90.39,40.074,87.753,38.299,86.026,37.902z"/>
		<path style="fill:#767676;" d="M97.997,52.879c-0.326-0.294-0.64-0.306-0.94,0.028c-1.301-1.57-2.406-2.975-1.949-5.024
			c0.471-0.929,1.429-2.149,2.897-2.939c1.601,2.744,1.225,4.968,1.741,7.5C99.836,52.885,98.267,52.918,97.997,52.879z"/>
		<path style="fill:#A8A8A8;" d="M31,73c1.434,2.042,1.543,2.595-1,3c-0.427,0.929-1.416,1-2.205,1.409
			c-0.672-0.061-1.19-0.451-1.355-0.964c-0.655-2.042,4.521-8.101,3.754-6.453C31.383,70.187,30.985,72.078,31,73z"/>
		<path style="fill:#949494;" d="M11.819,122.937l-3.005-2.239c-0.365-0.716-0.93-2.119,0.163-2.714
			c1.606,0.481,3.44,0.626,5.102,1.861C14.273,121.907,12.992,122.528,11.819,122.937z"/>
		<path style="fill:#7D7D7D;" d="M42,47.823c-0.829-0.147-1.606,0.404-3.163-0.033c0.512-2.772,1.246-5.225,3.058-6.79
			c0.761-0.586,2.338-0.713,2.392-0.18C44.35,41.446,43.46,49.283,42,47.823z"/>
		<path style="fill:#6A6A6A;" d="M37.948,121.341c0.197,0.941,0.563,1.833,1.052,2.659c-0.219,2.946-3.454,1.966-5.706,1.816
			c-1.712-1.455-0.254-2.763,1.535-3.659L37.948,121.341z"/>
		<path style="fill:#8F8F8F;" d="M34,67.004c-0.709-0.307-1.65,0.094-3.422-0.204c0.535-2.351,1.261-5.242,3.286-6.8
			C34.857,62.278,35.583,64.896,34,67.004z"/>
		<path style="fill:#9C9C9C;" d="M95.171,43.249c-0.622-0.449-0.629-1.636-1.184-2.176c0.383-0.574,0.168-1.716,0.706-1.847
			c0.376-0.092,1.938-0.567,2.279-0.312c1.642,1.226,2.078,3.626,1.933,6.298C96.905,45.056,96.18,43.977,95.171,43.249z"/>
		<path style="fill:#5C5C5C;" d="M25.614,125.882C24.958,127.857,22.865,128,21,128c0.258-1.957-0.932-4.71,1-6
			C22.885,123.553,24.077,124.952,25.614,125.882z"/>
		<path style="fill:#7D7D7D;" d="M45.12,50c0.017,1.079-0.341,2.165-1.7,1.949c-0.68-0.108-1.55-0.67-2.42-0.949
			c-1.303-0.418-2.831,0.479-4.095-0.561c2.19-1.141,4.143-1.005,5.095-2.616C43.132,46.193,44.172,46.918,45.12,50z"/>
		<path style="fill:#CFCFCF;" d="M74.013,101.583l0.013,0.706c-1.156,1.394-1.791,2.881-1.906,4.459
			c-0.482,1.44-1.985,1.86-2.785,2.9c-0.249-2.954,0.83-5.871-0.336-8.648C70.498,101.981,72.323,102.151,74.013,101.583z"/>
		<path style="fill:#DDDDDD;" d="M47,39c0.665,1.292,0.249,2.914-1.247,4.867c1.508,3.061,1.297,5.105-0.633,6.133
			c-0.878-0.931-1.791-1.941-3.12-2.177c1.243-2.105,1.851-5.03-0.105-6.823c0.052-0.321-0.064-0.685,0.013-1
			C43.61,39.843,45.383,39.608,47,39z"/>
		<path style="fill:#BEBEBE;" d="M34.829,122.157c-0.474,1.239-1.177,2.38-1.535,3.659C32.876,125.789,32.42,126.006,32,126
			c-1.347,0.014-2.673,0.304-3.979,0.869c-0.42-0.116-0.66-0.779-1.024-1c2.107-1.794,5.357-1.906,6.693-4.388
			C34.088,121.515,34.436,122.061,34.829,122.157z"/>
		<path style="fill:#828282;" d="M92.959,3.974c-2.121,0.874-4.686,2.197-6.273,0.023C89.089,2.761,97.179-1.309,92.959,3.974z"/>
		<path style="fill:#888888;" d="M11.381,128.089c-0.565,1.096-1.603,1.596-2.861,1.639c-1.533,0.053-1.303-1.533-1.37-2.542
			l1.78-1.213c0.671,0.038,1.656,0.041,2.469,0.612C11.753,126.835,11.702,127.54,11.381,128.089z"/>
		<path style="fill:#898989;" d="M95.058,72.076c-1.224,1.775-1.284,5.282-3.938,5.883C91.347,75.447,92.054,71.766,95.058,72.076z"
			/>
		<path style="fill:#6A6A6A;" d="M72.121,106.748c-0.939-0.595-1.585-1.83-0.762-2.895c0.566-0.733,1.862-0.96,2.667-1.564
			C75.763,103.887,72.668,105.114,72.121,106.748z"/>
		<path style="fill:#8D8D8D;" d="M99.871,58.129c-0.696-0.075-2.099,0.07-2.408-0.862C97.137,56.281,98.002,55.019,98,54
			c1.436-0.416,2.033,0.463,2.077,1.506C100.121,56.553,99.723,57.375,99.871,58.129z"/>
		<path style="fill:#656565;" d="M16.057,126.976L17,128c-1.351,1.418-3.642,1.525-5.029,0.115c0.483-0.557,0.886-1.532,1.578-1.674
			C14.485,126.249,15.274,126.961,16.057,126.976z"/>
		<path style="fill:#808080;" d="M99.948,61.656c0.567,1.809-0.478,2.241-1.236,3.42c-0.621,0.372-0.725-0.596-0.73-1.013
			c-0.01-0.976-0.219-1.866-1.069-2.818C98.452,60.604,99.187,61.233,99.948,61.656z"/>
		<path style="fill:#8F8F8F;" d="M3.842,130.71c-0.787,0.646-1.031-0.667-0.854-1.168c-0.552,1.564,1.171-3.266,2.071-2.028
			c0.523,0.719,1.084,0.966,1.081,1.323C6.131,129.849,5.022,129.741,3.842,130.71z"/>
		<path style="fill:#585858;" d="M32,126c-0.987,1.112-2.585,1.255-3.979,0.869c0.452-0.678,1.158-1.1,1.884-1.456
			C30.695,125.024,32.008,124.604,32,126z"/>
		<path style="fill:#A4A4A4;" d="M76,7c0.035,1.029-0.818,2.089-1,3c-0.263-0.135-0.708,0.08-1,0
			c-0.026-0.7-0.182-1.502,0.083-2.391C74.302,6.873,75.263,6.954,76,7z"/>
		<path style="fill:#8E8E8E;" d="M51,100c1.42,2.111,1.433,4.894,0,7c-1.265,1.424-2.598,2.09-4,2
			c0.017,1.235-1.709,1.291-5.176,0.166c1.654-0.998,1.713-1.387,0.176-1.166c-2.273,2.395-4.008-0.075-1.252-2L38,102
			c-1.771-1.569-2.429-2.902-1.974-4c0.165-1.271,1.052-2.26,2.661-2.966c1.578,1.27,3.481,1.053,5.708-0.652
			C45.453,96.71,47.655,98.583,51,100z"/>
		<path style="fill:#9C9C9C;" d="M54,64c1.281-0.466,3.05,0.163,4.944,0.077c0.023,3.339,0.734,6.427-0.273,9.511
			C58.369,74.512,56.533,73.878,56,74c-2.417,0.913-4.973,1.72-7.665,2.422L47,74c-1.387,2.43-2.541,1.688-2-1
			c-0.468-3.279-0.274-5.882,3-7C47.832,63.015,52.259,61.76,54,64z"/>
		<path style="fill:#6B6B6B;" d="M79.051,55.091c-0.132,1.014,0.094,2.114,0.07,3.125C80.672,61.228,78.478,65.093,75,64
			c-0.306,1.824-1.639,2.824-4,3c-2.014,2.185-2.984,1.116-2.911-3.207L67,60v-2c3.783-5.835,5.805-6.344,12.321-4.349
			L79.051,55.091z"/>
		<path style="fill:#676767;" d="M66,60c3.828,4.171,3.374,10.406-1,14c-6.267,2.853-4.848-10.774-4.855-14.629
			C62.504,58.643,64.603,58.548,66,60z"/>
		<path style="fill:#7F7F7F;" d="M51,37c1.263,2.542,3,5,3,8c-1.852,2.536-4.234,5.256-6.955,6.761
			c-0.562-0.664-1.332-1.133-1.925-1.761c-0.078-5.048-3.986-5.917,1.88-11C48.384,38.48,49.731,37.747,51,37z"/>
		<path style="fill:#CDCDCD;" d="M65.068,22.186C66.993,22.27,69.309,21.754,71,21v1c0.351,1.732-0.524,2.716-2.626,2.954
			L76.06,28.7L76,31c0.835,0.273,0.819,0.607,0,1c-1.644,1.523-4.174,1.181-7.59-1.026l1.106,6.053
			c2.914,2.15,4.092,4.249,3.536,6.298c0.634,0.294,0.943,0.831,0.733,1.221c-0.316,0.586-0.63,1.582-1.002,1.824
			c-1.065-0.27-2.48,0.159-3.55,0.541c-1.112-1.033-1.066-2.213,0.139-3.541l-2.074-0.69C65.077,43.365,63.311,43.138,62,42
			c-0.873-0.284-0.86-0.618,0-1c-0.522-0.86-0.592-1.696-0.076-2.5c4.835,0.097,3.008-3.077,0.677-5.728l-1.438-1.72
			c1.724-2.361,1.668-4.756-0.168-7.185c-0.239-0.592-0.321-1.233-0.234-1.866L65.068,22.186z"/>
		<path style="fill:#606060;" d="M75,67c1.903-1.453,6.141,0.543,6,3v1c0.97,2.974-6.028,6.32-8,4c-3.186,3.557-5.186,3.89-6,1
			c-1.399,1.673-2.036,1.238-0.937-0.727c0.096-0.363-0.048-0.766-0.037-1.136c0.33-1.187,2.847-7.288,3.245-7.386
			C69.795,66.622,70.388,66.771,71,67C73.454,65.595,74.787,65.595,75,67z"/>
		<path style="fill:#8A8A8A;" d="M58,84c1.664,0.402,1.843,1.558,0.537,3.469l-0.319,3.788c1.236,3.587-0.446,3.623-5.048,0.108
			C51.314,93.7,48.704,91.793,50,89c0.465-1.836-1.028-4.67,0.272-6.389c1.403-1.094,4.1-1.237,5.881-1.401
			C57.412,81.095,57.707,83.303,58,84z"/>
		<path style="fill:#7A7A7A;" d="M49,89c0.825,1.281,0.304,1.791-1,1c-1.971,1.958-3.13,3.812-3.475,5.563
			c-0.278,0.22-6.502,0.638-6.866,0.163C37.399,95.386,39.439,88.572,41,88c0.285-3.383,4.372-4.683,7.731-4.99L49,89z"/>
		<path style="fill:#6D6D6D;" d="M31,89l3,4c2.882-1.313,3.21,0.128,1.787,2.572c2.66,0.237,2.49,1.319,0.238,2.428
			c0.633,2.386,0.368,2.407-2.026,2c-0.985,0.863-2.366,1.407-2.929-0.157C28.262,102.04,23.088,96.897,25,94v-1
			c1.777-0.71,3.065-2.424,4-4C29.623,89.14,30.395,88.805,31,89z"/>
		<path style="fill:#6C6C6C;" d="M50,89c1.11,1.355,2.328,1.643,3.171,2.365c3.048,1.226,4.043,2.362,2.984,3.409
			c0.268,1.3-0.499,2.943-1.155,4.226c-1.603,0.871-2.809,1.056-4,1l-7.845-4.976c0,0,1.615-1.675,4.845-5.024
			c0.039-0.919,0.649-1,1-1H50z"/>
		<path style="fill:#606060;" d="M69.234,46.911l-5.207,1.858c0.059,1.569-1.698,2.506-2.795,1.312
			C58.71,49.12,58.423,46.851,60.234,45c-2.086-3.438-2.362-5.054,1.766-3c3.347-1.551,7.224-2.413,10.229,1.364L69.234,46.911z"/>
		<path style="fill:#838383;" d="M54,64c-1.946,0.956-4.01,1.321-6,2c-0.936,0.032-2.547,0.409-2.895-0.607
			C44.703,64.218,45.029,63.006,45,62l2-5c-1.851-0.661-1.648-1.39,0.328-1.344c3.849-0.535,5.577,3.933,8.647,6.754
			C55.246,63.036,54.595,63.397,54,64z"/>
		<path style="fill:#969696;" d="M45,73l2,1c3.033,0.718,3.356,2.385,0.97,5c-1.864,2.552-5.51,3.904-7.9,1.917
			c0.178-1.17-1.656-1.998-1.746-3.397C38.121,74.362,42.28,72.32,45,73z"/>
		<path style="fill:#6A6A6A;" d="M39.877,88c-0.995,2.861-1.014,4.054-0.978,7.113c0.009,0.777-2.239,1.312-3.112,0.459
			C35.576,94.503,34.81,93.692,34,93l-3-4c-0.022-0.949-0.403-1.733-0.991-2.763c3.366-0.658,6.191-1.934,9.326-1.353
			C40.293,85.062,39.924,87.479,39.877,88z"/>
		<path style="fill:#656565;" d="M66.063,75.273C65.855,76.061,66.628,75.784,67,76c4.792,1.362,2.537,8.37-1.184,10.78
			c-2.601-3.333-5.818-6.897-4.745-11.839C63.094,74.658,64.646,75.293,66.063,75.273z"/>
		<path style="fill:#737373;" d="M77,93l-3,2c-1.229,0.819-2.834,0.857-3.628,0.076c-1.256-1.235-2.222-3.16-0.637-4.273
			C71.891,89.289,74.088,88.21,75,86c1.351-1.839,2.351-2.172,3-1C79.746,89.054,79.412,91.72,77,93z"/>
		<path style="fill:#878787;" d="M62.688,94.719l6.476,0.57l-3.017,3.934C64.184,101.782,58.029,100.61,55,99
			c0.496-1.647,1.178-3.031,2.047-4.152C57.059,92.537,58.939,92.494,62.688,94.719z"/>
		<path style="fill:#9C9C9C;" d="M56,75.055c0.824-0.078,2.368-0.042,2.941,0.545c0.523,0.536,1.28,2.586,0.597,2.921
			c-3.564,1.749-7.564,1.814-11.294,2.598c-0.337-1.152-0.274-1.646-0.274-2.119l0.702-3.318C51.343,75.046,53.786,74.837,56,75.055
			z"/>
		<path style="fill:#8D8D8D;" d="M61,86c1.473-0.063,2.893,0.631,3.808,2.215l3.255,5.633c-2.257,0.195-3.761,0.277-5.378,0.111
			c-0.592,0.499-4.697-0.079-4.831-0.29C57.56,93.205,58.669,81.842,61,86z"/>
		<path style="fill:#A1A1A1;" d="M47.328,55.656C47.312,56.098,46.983,56.56,47,57l-2,5c-0.636,0.45-1.109,1.705-1.784,1.809
			c-0.82,0.127-3.27-0.774-3.145-1.739c0.404-3.128,1.214-5.85,2.399-8.602c0.421-0.978,2.77-0.342,3.526-0.023
			C46.696,53.74,47.123,54.62,47.328,55.656z"/>
		<path style="fill:#7A7A7A;" d="M71.984,51c0.587,0.418,1.031,0.775,0.97,0.917c-0.183,0.43-5.876,5.35-6.947,6.153
			c-1.72,0.489-2.625-1.113-3.868-2.148c-0.925-2.342,6.819-7.034,8.006-6.715C70.941,49.421,71.268,50.613,71.984,51z"/>
		<path style="fill:#757575;" d="M57.609,108.937c-0.564-0.21-1.025-0.786-1.609-0.937c-0.317-0.793-1.072-1.266-2.034-1.959
			c-1.427-1.027-1.356-2.991-0.523-4.094c0.808-1.07,2.669-1.454,4.225-0.586c1.741,0.971,2.499,2.638,4.329,4.042
			C60.858,107.034,59.3,108.16,57.609,108.937z"/>
		<path style="fill:#747474;" d="M48.231,51.953C49.336,49.67,51.831,47.373,54,46c2.612,1.508,2.986,4.726,4.012,8.006
			C53.878,53.738,50.803,53.76,48.231,51.953z"/>
		<path style="fill:#D6D6D6;" d="M41,88c-0.148,1.753-2.446,3.669-1.842,6.244C40.169,98.551,47.285,89.83,48,90
			c-0.086,2.027-1.598,3.138-3.563,5.102C47.001,96.871,49.229,97.594,51,100c-9.94-2.897-2.986-6.012-14.974-2
			c-0.519-0.573-0.186-1.764-0.238-2.428c2.629-1.633,1.94-5.306,4.089-7.572H41z"/>
		<path style="fill:#6B6B6B;" d="M76,83c2.488,0.668,0.913,2.006-1,3c-2.467,0.026-6.151,4.759-7.286,4.046
			c-0.991-0.623-0.995-2.059-0.971-3.001c1.137-1.976,2.095-4.14,2.875-6.493L71,81L76,83z"/>
		<path style="fill:#CECECE;" d="M60,25c2.229,1.678,1.417,3.264-2.435,4.757l-0.681,4.607c-0.608,2.919,0.541,4.459,3.447,4.621
			C61.676,38.941,62.129,39.703,62,41v1c-0.564,0.261-1.708-0.236-1.871,0.645c-0.167,0.906-0.035,1.667,0.105,2.355
			c-1.85,0.047-3.595-1.287-5.234-4c-0.358-0.958-2.099-1.729-2-3c0.32-3.289-0.347-6.289-2-9c0.151-0.253-0.092-0.713,0-1
			C56.841,28.418,56.079,25.576,60,25z"/>
		<path style="fill:#9B9B9B;" d="M58.207,55.994c1.754,1.046,0.777,4.866,0.508,7.061c-2.801-2.871-5.942-4.609-8.781-8.747
			C52.388,54.662,55.809,54.563,58.207,55.994z"/>
		<path style="fill:#636363;" d="M75.916,47.163c1.646,1.215,3.193,3.305,5.043,4.201c-0.474,2.955-6.477,2.107-8.665,1.241
			c-0.272-0.108-0.323-0.776-0.31-1.605c0.26-1.41-0.8-3.591,0.799-4.63L75.916,47.163z"/>
		<path style="fill:#787878;" d="M60.234,45c1.103,1.469,0.955,3.276,0.997,5.081c2.56-0.143,1.291,2.271-0.94,1.892
			C56.6,49.866,56.455,44.895,55,41C57.709,40.748,58.793,43.082,60.234,45z"/>
		<path style="fill:#D3D3D3;" d="M61,85v1c-2.5-0.144-1.975,2.409-2.295,4.457c-0.358,2.291,1.698,3.266,3.98,3.501l0.003,0.761
			c-1.603-0.141-3.22-0.195-5.64,0.129c-0.236,0.881-0.536,0.827-0.892-0.073c-0.472-1.31-1.582-2.209-2.984-3.409
			c1.319,0.026,2.306,0.971,3.875,1.774c1.561-3.42,0.78-6.263,0.954-9.139h1C59.328,82.033,61.719,83.255,61,85z"/>
		<path style="fill:#D5D5D5;" d="M80.959,51.364c3.39,1.677,1.155,4.721-1.907,3.726c-1.306-1.056-4.912-2.394-6.485-1.755
			C69.979,54.388,69.256,57.311,67,58c-0.322,0.063-0.677-0.019-0.992,0.071L71.984,51C75.118,52.693,78.034,53.632,80.959,51.364z"
			/>
		<path style="fill:#D3D3D3;" d="M73,75c0.354,1.593,0.021,3.593-1,6c-0.332,0.396-0.666,0.395-1,0
			c-2.285,1.423-1.708,4.85-4.257,6.045l-0.927-0.265c0.975-1.978,3.255-3.975,3.016-6.662C68.692,78.54,66.773,77.419,67,76
			C68.98,77.15,71.177,75.911,73,75z"/>
		<path style="fill:#CCCCCC;" d="M71,67c-2.407,1.805-3.05,4.775-4.974,7.136L65,74c3.234-4.391,3.605-9.205,1-14h1
			C70.372,63.828,67.181,67,71,67z"/>
		<path style="fill:#818181;" d="M40.071,80.917c-0.392,2.579-3.945,2.703-6.397,2.71c1.234-2.587,1.747-3.587,2.665-5.812
			L40.071,80.917z"/>
		<path style="fill:#666666;" d="M53,38c0.255-3.283-3.819-5.958-2-9c0.956,0.435,1.928,0.6,2.418,1.183
			C54.64,31.638,54.037,38.719,53,38z"/>
		<path style="fill:#E7E7E7;" d="M56,74v1.055c-3.456,0.326-6.046,1.228-8.03,3.945c-0.001-1.718-0.028-3.509-0.97-5
			C49.64,75.32,53.44,74.491,56,74z"/>
		<path style="fill:#D1D1D1;" d="M54,46c-1.46,2.352-3.584,4.272-5.769,5.953c-0.297-0.209-0.855-0.033-1.186-0.192
			C49.078,49.268,51.306,46.776,54,45V46z"/>
		<path style="fill:#7F7F7F;" d="M64.026,48.769c1.687,0.048,2.575,0.911,0.775,1.662c-2.176,1.835-2.915,2.453-4.51,1.542
			c1.098,0.214,0.957-1.169,0.94-1.892C61.952,49.224,63.055,49.116,64.026,48.769z"/>
		<path style="fill:#878787;" d="M64.71,101.112c-0.453,1.439-1.574,2.673-2.222,2.701c-0.664,0.029-1.468-1.51-2.481-2.387
			C61.476,100.592,62.959,101.033,64.71,101.112z"/>
		<path style="fill:#6D6D6D;" d="M61,85c-0.269-0.844-1.226-1-2-1c-0.03-0.6-0.276-1.652,0.51-1.994c0.998-0.434,1.441,0.538,2,0.97
			C62.387,83.654,62.3,84.856,61,85z"/>
		<path style="fill:#838383;" d="M62.14,55.923c-0.25,0.407-0.13,1.677-0.666,2.045c-0.93,0.637-1.685-0.412-1.532-1.452
			c0.074-0.503-0.017-1.757,1.052-1.277C61.325,55.388,61.741,55.714,62.14,55.923z"/>
		<path style="fill:#8C8C8C;" d="M80.134,81.919C78.265,84.092,76.887,84.452,76,83c-1.596-0.465-2.929-1.132-4-2
			c-1.08-0.711-3.043-2.045-1.65-3.565C71.285,76.414,72.757,76.164,73,75l8-4c1.074-0.537,2.4,0.49,2.984,1.394
			C86.569,76.4,80.653,80.173,80.134,81.919z"/>
		<path style="fill:#919191;" d="M91.698,64.081c-0.389,2.937-3.468,7.63-6.472,5.648c-1.436-4.9-3.346-6.418-3.51-11.916
			c3.109,0.266,6.047,1.554,7.221-0.882c0.076-0.614,0.335-0.601,0.748-0.06C91.123,59.287,92.012,61.328,91.698,64.081z"/>
		<path style="fill:#838383;" d="M81,70c-2.252-0.362-4.442-1.308-6-3c-1.918,0.265-1.918-0.735,0-3
			c1.872-1.404,2.795-3.94,4.121-5.785C80.621,58.258,85.52,71.092,81,70z"/>
		<path style="fill:#939393;" d="M86.026,37.902C86.741,38.85,87.519,39.902,88,41c-0.71,2.29-2.476,3.821-4.029,5.593
			c-0.444-0.674-1.312-0.337-1.894-0.566c-1.383-1.378-3.034-3.249-2.077-5.235C81.752,39.302,83.574,37.337,86.026,37.902z"/>
		<path style="fill:#6E6E6E;" d="M89.685,56.871l-0.748,0.06c-3.402,0.621-7.536,0.059-9.886-1.841
			c0.186-1.431,2.811-2.097,1.907-3.726C84.059,52.868,87.825,53.746,89.685,56.871z"/>
		<path style="fill:#676767;" d="M85.226,69.73c2.258-1.774,3.928-4.266,6.472-5.648c-0.246,2.158,1.534,4.866-0.639,7.095
			c-0.758,0.777-5.683,1.744-6.224-0.086C84.704,70.645,84.869,70.338,85.226,69.73z"/>
		<path style="fill:#7C7C7C;" d="M97.057,52.907c-0.127,1.514-0.511,2.991-1.619,4.603c-2.144-1.067-4.077-2.164-6.256-3.648
			C91.53,51.477,94.349,51.931,97.057,52.907z"/>
		<path style="fill:#A0A0A0;" d="M82.077,46.028c0.216,0.546,0.208,2.55-0.883,2.513c-2.44-0.083-3.66-1.972-5.289-2.538
			c-0.016-1.772,1.194-3.067,2.811-3.622C79.942,43.167,81.063,44.383,82.077,46.028z"/>
		<path style="fill:#8C8C8C;" d="M89.953,73.492c-2.125,0.795-2.896,1.866-4.43,3.555c-1.231-0.898,0.033-2.003,0.3-2.827
			C86.367,72.541,88.181,72.486,89.953,73.492z"/>
		<path style="fill:#6C6C6C;" d="M76,32c2.663-1.283,5.244,2.336,5.008,5.06c-1.581,2.792-4.519,6.31-7.955,6.265l-4.282-4.029
			c-2.624-2.469-1.867-7.379-2.889-11.646L76,32z"/>
		<path style="fill:#6F6F6F;" d="M78.801,24.034C80.33,26.111,79.066,31.35,76,31c-3.62-2.383-7.962-2.751-11.795-6.798L71,22
			C74.051,21.011,76.849,22.377,78.801,24.034z"/>
		<path style="fill:#6C6C6C;" d="M81.008,37.06C78.889,36.055,77.346,33.701,76,32c0.09-0.287-0.148-0.745,0-1
			c1.264-2.182,0.812-5.38,2.801-6.966c2.899,2.463,8.245,8.633,5.613,11.705C83.76,36.503,82.053,36.685,81.008,37.06z"/>
		<path style="fill:#838383;" d="M79.14,16c1.57-0.392,3.503-1.78,5.943-0.792c-0.282,2.477-0.783,4.798-1.633,7.167
			C79.71,21.285,78.985,18.566,79.14,16z"/>
		<path style="fill:#575757;" d="M73,20c1.024-1.041,2.058-2.237,2.262-3.693c1.385,0.349,3.656,2.857,2.814,4.401
			C77.361,22.02,73.764,21.077,73,20z"/>
		<path style="fill:#9B9B9B;" d="M79.14,16c-2.508-0.519-3.869-3.674-4.14-6C77.33,11.197,79.304,13.276,79.14,16z"/>
		<path style="fill:#E6E6E6;" d="M82.077,46.028c-1.601-0.63-3.025-1.938-3.36-3.647c0.479-0.472,0.77-1.152,1.283-1.588
			L82.077,46.028z"/>
		<path style="fill:#737373;" d="M38,102l2.748,4c-0.135,0.798,0.513,1.773,1.252,2l0.932,1.063
			c-3.319,1.682-6.296,3.721-8.932,6.116c-0.17,0.951-0.5,0.965-0.982,0.092c-1.054-0.289-2.055-0.76-3.018-1.27
			c-2.749,0.429-4.916-4.042-3-6v-3c-0.046-2.881,2.49-4.075,5-3c-0.641-0.968,0.025-1.635,2-2C35.671,98.128,36.981,100.246,38,102
			z"/>
		<path style="fill:#6F6F6F;" d="M27,108c1.251,1.66,2.321,4.024,3,6l0.808,3.208c-4.91-0.642-9.505-1.298-13.587-3.421l-3.27-5.358
			c1.23-0.517,1.553-1.014,2.049-1.161c0.75-0.222,1.48-0.774,2-1.268C20.856,105.822,24.688,105.923,27,108z"/>
		<path style="fill:#6D6D6D;" d="M46,121l-13.582-3.47c-1.015-0.259,0.203-2.003,0.6-2.259c0.238,0.065,0.748-0.034,0.982-0.092
			c1.351-1.181,7.612-6.17,8.607-6.449c1.547-0.434,3.406,1.412,3.817,2.771C46.941,113.211,46.875,119.848,46,121z"/>
		<path style="fill:#6D6D6D;" d="M18.005,118.121c2.033-0.728,2.603-0.19,1.995,1.879l-0.07,6.909
			c-1.59,0.163-2.744,0.089-3.872,0.067c-1.421-1.543-2.093-2.843-1.054-5.068C15.815,120.17,15.888,117.989,18.005,118.121z"/>
		<path style="fill:#737373;" d="M20,120c-0.875-0.366-1.558-1.042-1.995-1.879c-0.368-0.546-0.309-2.228,0.711-2.001l15.411,3.432
			C28.973,120.602,24.506,119.705,20,120z"/>
		<path style="fill:#CFCFCF;" d="M47,109c0.873,0.284,0.86,0.618,0,1c0,3.716-0.316,7.477,1,11c-0.631-0.147-1.374,0.16-2,0
			l0.032-8.034c0.005-1.208-0.394-2.1-0.985-2.553c-2.411-1.848-7.531,3.455-11.047,4.765c-0.888-2.948,6.32-3.616,8-7.178
			c0.006-0.358,0.194-0.987,0.638-0.94C43.941,108.837,45.486,109.145,47,109z"/>
		<path style="fill:#FDFDFD;" d="M34,76h-4c0.431-0.938,1.017-1.925,1-3C31.976,73.991,33.196,74.846,34,76z"/>
		<path style="fill:#DADADA;" d="M51,107c-0.675,1.685-2.133,3.009-4,3v-1C48.277,108.195,49.462,107.163,51,107z"/>
		<path style="fill:#767676;" d="M62.601,32.772c1.876,2.449,0.496,5.278-2.27,6.213c-0.975,1.221-4.833,2.387-5.102,0.077
			C53.362,23.064,59.583,29.716,60,25c0.041-0.46,0.787-0.755,0.995-1.134c1.027,0.223,1.77,0.241,2.28,0.741
			c0.957,0.939,1.799,2.403,1.218,3.757L62.601,32.772z"/>
		<path style="fill:#E2E2E2;" d="M80.278,92.262C79.29,92.849,77.877,92.415,77,93c3.009-3.462,0.561-3.073,1-8
			c-1.194-1.315-0.657-1.713,1-1C79.123,86.544,79.082,89.857,80.278,92.262z"/>
		<path style="fill:#F2F2F2;" d="M80.134,81.919C79.918,82.644,79.365,83.339,79,84c-0.172,0.312-0.691,0.822-1,1
			c-0.87,0.5-1.978,0.989-3,1c0.355-0.861,1.293-1.981,1-3C77.398,82.863,78.708,81.954,80.134,81.919z"/>
		<path style="fill:#E7E7E7;" d="M93.131,21.066c-1.285,1.066-2.153,3.114-4.06,3.074C89.481,22.237,91.19,20.954,93.131,21.066z"/>
		<path style="fill:#EAEAEA;" d="M92.063,17.045C90.309,17.066,88.787,16.228,87,16c0.232-1.762,2.314-1.12,3-2
			C90.127,15.326,91.031,16.29,92.063,17.045z"/>
		<path style="fill:#8C8C8C;" d="M31.071,99.843c1.564,0.322,2.263,0.965,0.929,2.157c-1.182,1.554-3.343,2.289-5,3
			c-1.641,0.705-5.956,0.776-6.713-0.869c-1.079-2.345,0.035-5.549-0.218-7.96C21.785,94.807,23.515,94.738,25,94
			C26.747,96.26,28.617,98.353,31.071,99.843z"/>
		<path style="fill:#E1E1E1;" d="M38,102c-1.326-0.714-2.361-1.912-4-2c0.181-0.993,1.131-1.701,2.026-2
			C37.057,99.139,37.933,100.409,38,102z"/>
		<path style="fill:#DFDFDF;" d="M40.748,106c-1.552-0.792-2.673-2.229-2.748-4C39.621,102.873,41.093,103.956,40.748,106z"/>
		<polygon style="fill:#DCDCDC;" points="75,67 71,67 75,64 		"/>
		<path style="fill:#737373;" d="M62,41c-0.619-0.024-1.463-0.11-1.692-0.648c-0.215-0.505,0.008-0.99,0.023-1.368
			c0.09-2.309,1.391-4.163,2.27-6.213l2.692-1.191c0.48,2.601,2.607,5.593,1.046,7.742C65.479,40.507,62.481,39.444,62,41z"/>
		<path style="fill:#D5D5D5;" d="M34,93c-1.692-0.686-2.97-2.128-3-4C32.75,89.563,33.845,91.207,34,93z"/>
		<path style="fill:#E1E1E1;" d="M34,100c-0.206,1.134-1.448,1.275-2,2c-0.641-0.525-0.878-1.351-0.929-2.157L34,100z"/>
		<path style="fill:#DADADA;" d="M55,99c-0.215-1.524,0.344-2.956,1.155-4.226c0.497,0.038,0.772,0.09,0.892,0.073
			C56.424,96.225,56.725,98.509,55,99z"/>
		<path style="fill:#E6E6E6;" d="M45,62c-0.053-1.875,0.297-3.972,2-5C47.073,58.911,46.611,60.86,45,62z"/>
		<path style="fill:#DBDBDB;" d="M76,83c-1.863,0.183-3.981-0.383-5-2c0.326,0.044,0.681-0.077,1,0
			C73.366,81.331,75.538,81.395,76,83z"/>
	</g>
</g>
</svg>
