<?xml version="1.0" encoding="iso-8859-1"?>
<!-- Generator: Adobe Illustrator 30.1.0, SVG Export Plug-In . SVG Version: 9.03 Build 0)  -->
<svg version="1.1" id="Layer_1" xmlns="http://www.w3.org/2000/svg" xmlns:xlink="http://www.w3.org/1999/xlink" x="0px" y="0px"
	 viewBox="0 0 119 238" style="enable-background:new 0 0 119 238;" xml:space="preserve">
<g>
	<g>
		<path style="fill:#FDFDFD;" d="M104,0h15v3c-1.283-0.113-2.429,0.485-2.567,2.615L12.45,229.162C10.86,232.58,9.379,234.878,9,238
			H0v-7L104,0z M98,18l-1.055,2c-0.762,1.445-0.788,3.579-1.824,4.929c-1.568,2.044-2.915,4.231-3.703,6.722
			c-0.335,1.059-0.475,2.179-0.591,3.278c-0.478,0.246-1.036,0.498-1.347,0.983c-0.409,0.639-0.13,1.451,0.186,2.088
			c-1.177,0.557-1.433,1.827-1.667,3c-0.178,0.417-1.034,0.712-1.427,1.217C86.138,42.776,86.284,43.494,87,44
			c-0.341,0.629-0.918,1.165-1.176,1.943c-0.259,0.78,0.71,1.51,1.092,2.225c-0.282-0.218-1.114-0.688-1.512-0.691
			c-1.542-0.015-8.262,15.167-5.564,13.597C77.956,61.84,76.722,65.452,76,67c-0.226,0.372-0.828,0.6-1,1L63,96
			c-0.238,0.555-0.555,1.408-0.84,1.94c-1.754,3.272-4.28,6.923-4.872,11.208c-0.397,2.874,3.885,4.94,5.268,6.88
			c2.389-3.84,4.232-7.546,4.619-11.182c1.448-0.954,2.642-2.973,2.825-4.846c0.514-0.478,0.677-1.495,1.021-2.068
			c2.585-4.312,4.529-8.995,6.63-13.993c0.182-0.524,0.069-1.213-0.427-0.986c1.873-2.162,4.325-6.276,4.79-8.795
			c0.12-0.585,0.66-1.656,0.987-2.157c2.557-3.922,6.309-12.116,7.997-16.932c0.852-2.431,2.75-4.705,1.495-7.729
			c1.834-0.579,3.274-1.634,4.179-3.615l2.94-6.431C99.75,36.991,99.706,36.164,100,36c1.139-5.771,3.186-4.405,3-7
			c-0.024-0.337,0.473-0.859,0.066-1.228c0.518-0.847,0.997-1.801,1.163-2.808c2.94-1.8,3.853-5.783,4.898-8.963
			c0.234-0.359,0.684-0.614,0.874-1c2.181-4.424,4.59-8.733,6.095-13.806C113.969,0.463,111.877,1.529,111,3
			c-0.04-0.433,0.177-1.118-0.01-1.489c-0.267-0.527-5.383-1.893-7.424,3.097C101.654,9.283,100.157,13.911,98,18z M51,126
			c-2.608,0.099-2.895,2.905-3,5c-1.851,0.523-1.763,2.692-3,4c-0.126,2.093-6.055,11.064-3,10c-3.677,1.483-5.671,11.059-6,12
			c-0.78,2.231-3.777,4.011-3.694,7.212c0.019,0.75,0.273,1.57,0.103,2.264c-0.175,0.712-1.468,0.651-2.239,1.658l3.712,1.564
			c-0.955,0.044-2.165,0.035-2.939,0.688c-1.033,0.871-0.937,2.406-0.933,3.614c-0.432-0.453-0.83-0.757-1.617-2.059L23,185l-1,1
			c-0.193,4.226-4.207,6.042-0.071,6.065c-3.889,2.268-5.254,6.001-6.929,10.035c-1.345,3.238-3.429,6.299-3.173,9.921
			C10.063,210.947,5.155,224.297,5,225c-0.126,0.57-0.751,1.405-1,2c-1.128,2.691-3.2,4.996-3,8c0.09,1.358-0.007,2.267,1.544,2.037
			C3.572,236.885,5.135,237.288,6,237c0.491,0.34,6.437-12.113,4.388-12.071c0.111-0.084,0.381-0.029,0.535-0.008
			c1.967,0.271,1.343-2.207,2.076-2.921c1.66-1.615,2.087-3.887,3.092-6c0.133-0.281-0.068-0.696,0.013-1
			c2.806-3.511,4.114-8.033,5.748-12.199c0.619-1.577,2.087-3.014,2.147-4.801c2.055-2.012,2.171-5.872,3.759-7.932
			c2.179-2.829,2.895-5.77,4.127-9.015c1.325-3.49,5.952-7.148,4.348-11.182c2.626-1.102,2.927-3.714,3.861-6.008
			c0.567-1.393,2.274-2.803,1.769-4.572c1.458-1.18,8.097-13.293,6.308-15.047C50.764,143.897,56.005,132.53,52,135l-0.052-1.003
			c1.175,0.206,2.387,0.092,3.158-1.28c0.5-0.89,0.876-2.419,0.047-3.557c1.928-0.176,2.354-2.192,3.41-3.814
			c3.056-4.691,2.374-10.384-2.564-13.805C54.33,114.318,48.533,124.871,51,126z"/>
		<path style="fill:#4F4F4F;" d="M82.013,74.157c-0.465,2.519-2.917,6.634-4.79,8.795c-2.55,5.477-6.529,12.269-12.816,13.155
			C64.213,98.018,63.466,97.921,63,96l12-28C77.756,68.364,82.218,71.137,82.013,74.157z"/>
		<path style="fill:#5A5A5A;" d="M48.171,144.244c1.789,1.754-4.85,13.867-6.308,15.047c-1.399,2.918-2.18,1.956-3.95-0.244
			c-2.408,2.139-3.434,0.969-1.913-2.047c0.329-0.941,2.323-10.517,6-12c-0.156-1.801,0.859-2.448,2-1
			C43.98,141.852,45.371,141.933,48.171,144.244z"/>
		<path style="fill:#1F1F1F;" d="M90.247,54.861c0.333-0.828,0.581-0.728,0.751,0.207C89.309,59.884,85.557,68.078,83,72
			c-2.274-0.152-5.588-3.031-7-5c0.722-1.548,1.956-5.16,3.84-5.927C80.559,57.835,87.714,51.345,90.247,54.861z"/>
		<path style="fill:#656565;" d="M55.152,129.16c-2.052,2.33-6.003-0.545-4.152-3.16c-2.467-1.129,3.33-11.682,4.998-14.459
			c4.938,3.421,5.621,9.114,2.564,13.805C57.506,126.968,57.08,128.984,55.152,129.16z"/>
		<path style="fill:#353535;" d="M67.175,104.846c-0.386,3.635-2.23,7.342-4.619,11.182c-1.383-1.94-5.665-4.006-5.268-6.88
			c0.592-4.286,3.117-7.937,4.872-11.208c0.8-1.023,1.881-0.834,3.243,0.566C64.696,100.551,65.286,102.665,67.175,104.846z"/>
		<path style="fill:#292929;" d="M111,3c1.871,2.742-1.556,10.38-5.105,9.895c0.919,1.144-0.102,2.123-3.063,2.937
			c2.405,1.609,0.825,3.357-1.717,2.241C101.343,19.518,98.843,18.855,98,18c2.157-4.089,3.654-8.717,5.566-13.392
			c2.041-4.99,7.157-3.624,7.424-3.097C111.177,1.882,110.96,2.567,111,3z"/>
		<path style="fill:#4F4F4F;" d="M99.612,37.294l-2.94,6.431c-0.906,1.981-2.345,3.036-4.179,3.615
			c1.254,3.024-0.643,5.298-1.495,7.729l-0.751-0.207c-1.598-0.514-2.117-1.249-1.3-2.593c-2.108-1.06-2.785-2.427-2.031-4.1
			c-0.383-0.715-1.351-1.444-1.092-2.225C86.082,45.165,86.659,44.629,87,44c1.013-2.057,2.679-3.724,5-5
			c0.755-0.918,1.421-1.918,2-3c-1.74-5.688,3.259-4.667,4.376,0.598L99.612,37.294z"/>
		<path style="fill:#666666;" d="M30.01,174l1.876,7.053c-1.232,3.245-1.948,6.186-4.127,9.015
			c-0.434,0.784-1.677,2.013-1.945,1.775c-0.254-0.225-2.555-5.168-2.94-6.104c-0.081-0.196,0-0.458,0.126-0.74l5.393-13.059
			C29.18,173.243,29.578,173.547,30.01,174z"/>
		<path style="fill:#646464;" d="M21.853,202.801c-1.634,4.166-2.942,8.689-5.748,12.199c-2.393,1.643-3.17,2.165-2.974-1.131
			c-2.375,1.484-3.047,0.272-1.304-1.848c-0.255-3.622,1.829-6.683,3.173-9.921C16.807,199.039,21.912,198.801,21.853,202.801z"/>
		<path style="fill:#414141;" d="M86.916,48.168l3.799,2.941c1,0.774-0.535,2.764-0.469,3.752
			c-4.154,0.976-6.515,4.629-10.407,6.213c-2.698,1.57,4.022-13.612,5.564-13.597C85.802,47.48,86.634,47.95,86.916,48.168z"/>
		<path style="fill:#252525;" d="M100.953,20.047c2.289-1.973,5.365,2.909,3.276,4.916c-0.166,1.007-0.645,1.961-1.163,2.808
			c-1.529,1.855-3.28,3.014-5.255,3.478c-4.198,4.198-5.426-2.495-2.69-6.32c1.036-1.35,1.062-3.484,1.824-4.929
			C97.99,18.223,100.829,17.899,100.953,20.047z"/>
		<path style="fill:#565656;" d="M37.913,159.047c3.041,0.812,2.928,2.019,2.181,4.816c-0.934,2.294-1.235,4.906-3.861,6.008
			c-0.826,1.839-1.797,1.756-2.352-0.173l-3.712-1.564c0.771-1.007,2.064-0.946,2.239-1.658c0.171-0.694-0.083-1.514-0.103-2.264
			C32.223,161.011,35.22,159.231,36,157C36.311,157.937,36.999,158.673,37.913,159.047z"/>
		<path style="fill:#707070;" d="M24,198c-0.06,1.786-1.528,3.223-2.147,4.801c-1.975-1.412-4.552-0.633-6.853-0.701
			c1.675-4.034,3.04-7.767,6.929-10.035C27.741,188.378,25.764,193.807,24,198z"/>
		<path style="fill:#2D2D2D;" d="M110,15c-1.899,0.555-5.543-0.028-4.105-2.105C107.986,9.827,109.105,6.178,111,3
			c0.877-1.471,2.969-2.537,5.095-1.806C114.59,6.267,112.181,10.576,110,15z"/>
		<path style="fill:#4C4C4C;" d="M71.021,97.932c-0.976,0.572-2.54,0.58-4.69,0.023c-1.323,1.678-2.686-0.047-1.924-1.847
			c4.279-4.382,8.808-8.529,12.816-13.155c0.496-0.227,0.609,0.463,0.427,0.986C75.55,88.937,73.606,93.619,71.021,97.932z"/>
		<path style="fill:#5C5C5C;" d="M11.827,212.021l1.304,1.848l1.427,0.922c-1.304,3.293-2.515,6.67-3.634,10.131
			c-0.154-0.021-0.424-0.076-0.535,0.008C10.343,226.93,9.273,227.578,8,226c-1.619,0.727-3.853,1.01-3-1
			C5.155,224.297,10.063,210.947,11.827,212.021z"/>
		<path style="fill:#4E4E4E;" d="M6,237c-2.935-0.692-4.402-1.037-4.402-1.037L1,235c-0.2-3.004,1.872-5.309,3-8
			c0.976-0.55,2.309-0.883,4-1c0.563-0.596,1.738-0.582,2.388-1.071C12.437,224.887,6.491,237.34,6,237z"/>
		<path style="fill:#474747;" d="M109.126,16c-1.045,3.18-1.958,7.164-4.898,8.963l-3.276-4.916
			c-2.264-0.974-2.221-1.418,0.163-1.974l1.717-2.241C105.066,14.067,107.234,13.982,109.126,16z"/>
		<path style="fill:#646464;" d="M51,126c1.152,1.329,2.678,2.229,4.152,3.16c0.828,1.138,0.453,2.667-0.047,3.557
			c-0.77,1.372-1.983,1.486-3.158,1.28c-2.768,0.62-6.704,0.363-3.948-2.997C48.105,128.905,48.392,126.099,51,126z"/>
		<path style="fill:#4F4F4F;" d="M52,135c4.005-2.47-1.236,8.897-3.829,9.244c-2.628-0.509-3.828-2.009-2.171-4.244
			C45.705,133.652,47.705,131.986,52,135z"/>
		<path style="fill:#4E4E4E;" d="M33.882,169.698c0.784-0.036,1.57,0.133,2.352,0.173c1.604,4.034-3.023,7.692-4.348,11.182
			L30.01,174c-0.005-1.208-0.101-2.743,0.933-3.614C31.717,169.734,32.927,169.742,33.882,169.698z"/>
		<path style="fill:#C1C1C1;" d="M97.811,31.249c0.89,0.078,0.882,0.361,0.058,0.829l1.43,0.025C99.266,33.87,99.5,35.169,100,36
			c-0.294,0.164-0.25,0.991-0.388,1.294l-3.793,0.176c0.706-1.243,1.197-2.096,0.837-2.919c-0.214-0.49-1.198-0.844-1.951-0.258
			C94.273,34.628,94.193,35.227,94,36c-0.345,0.851-0.726,0.877-1.144,0.066c-0.892-0.079-0.886-0.371-0.066-0.856
			c-0.636-0.697-1.093-1.884-1.373-3.559c0.788-2.491,2.136-4.678,3.703-6.722c-0.353,1.292-0.493,2.691-0.119,4.505
			C95.206,30.42,96.118,31.697,97.811,31.249z"/>
		<path style="fill:#C6C6C6;" d="M27.759,190.068c-1.587,2.06-1.703,5.92-3.759,7.932c0.053-1.561,0.739-2.947,0.941-5.257
			c0.102-1.161-2.219-0.674-3.012-0.678l-0.489-1.158c1.234-1.041,1.421-2.677,0.56-4.907l1-1
			C24.192,185.18,26.035,191.848,27.759,190.068z"/>
		<path style="fill:#A3A3A3;" d="M64.407,96.108c1.487,2.142,4.263,1.581,6.614,1.824C70.677,98.505,70.514,99.522,70,100
			c-2.441-0.257-3.084,0.593-1.929,2.55l-0.895,2.297c-2.651-1.741-1.89-5.995-5.015-6.907c0.285-0.532,0.602-1.384,0.84-1.94
			L64.407,96.108z"/>
		<path style="fill:#A5A5A5;" d="M48,131c-0.335,2.204,2.335,2.227,3.948,2.997L52,135c-1.494,0.028-2.902-0.22-4.929,0.094
			C47.31,137.341,46.696,138.63,46,140c-0.284,0.873-0.618,0.86-1,0l-0.877-0.445c0.947-1.56,1.239-3.079,0.877-4.555
			C46.237,133.692,46.149,131.523,48,131z"/>
		<path style="fill:#5F5F5F;" d="M45,140c1.482,2.908,1.149,4.241-1,4c-0.51,0.483-1.342,0.735-2,1c-3.055,1.064,2.874-7.907,3-10
			C47.045,135.937,45.192,138.341,45,140z"/>
		<path style="fill:#525252;" d="M70,100c-0.183,1.873-1.377,3.892-2.825,4.846c-0.214-1.836-2.424-3.506-1.913-5.674
			c0.282-1.197,2.496-0.936,3.154-0.784C69.09,98.544,69.741,99.036,70,100z"/>
		<path style="fill:#C5C5C5;" d="M16.105,215c-0.081,0.304,0.12,0.719-0.013,1c-1.495,1.54-2.525,3.54-3.092,6
			c-0.734,0.714-0.109,3.192-2.076,2.921l2.207-11.053C13.98,214.555,15.037,214.855,16.105,215z"/>
		<path style="fill:#5A5A5A;" d="M21.929,192.065c-4.136-0.023-0.122-1.839,0.071-6.065c1.055,0.462,1.478,1.887,2.089,3.254
			C24.505,190.183,23.096,191.384,21.929,192.065z"/>
		<path style="fill:#4A4A4A;" d="M100,36c-0.472,0.027-0.999,0.096-1.703-0.166c0.199-1.502,0.037-2.652-0.428-3.755
			c1.685-1.778,3.395-2.804,5.131-3.079C103.186,31.595,101.139,30.229,100,36z"/>
		<path style="fill:#D4D4D4;" d="M83,72c-0.327,0.501-0.867,1.573-0.987,2.157C80.747,71.154,77.586,69.801,75,68
			c0.172-0.4,0.774-0.628,1-1C78.522,68.395,80.635,70.366,83,72z"/>
		<path style="fill:#A3A3A3;" d="M41.864,159.291c0.505,1.769-1.202,3.179-1.769,4.572l-2.181-4.816
			C39.223,159.224,40.542,159.312,41.864,159.291z"/>
		<path style="fill:#D5D5D5;" d="M92,39c-1.178,2.066-2.972,3.77-5,5c-0.716-0.506-0.862-1.224-0.427-1.783
			c0.393-0.505,1.249-0.8,1.427-1.217c0.735-1.41,1.735-2.41,3-3c-1.342-1.33-0.726-1.924,1-1C94.132,37.039,94.096,38.564,92,39z"
			/>
		<path style="fill:#A3A3A3;" d="M110,15c-0.19,0.386-0.64,0.641-0.874,1c-2.034-0.814-4.199-0.726-6.294-0.168
			c0.877-1.146,2.315-1.84,3.063-2.937C106.776,14.314,108.388,14.886,110,15z"/>
		<path style="fill:#757575;" d="M6,237c-0.865,0.288-2.428-0.115-3.456,0.037C0.993,237.267,1.09,236.358,1,235l3.454-0.054
			C5.436,234.931,6.429,235.522,6,237z"/>
		<path style="fill:#C6C6C6;" d="M103.066,27.772c0.408,0.37-0.09,0.892-0.066,1.228c-1.796,0.999-2.948,3.071-5.131,3.079
			c-0.103-0.244-0.001-0.572-0.058-0.829C99.707,30.171,100.818,27.928,103.066,27.772z"/>
		<path style="fill:#4F4F4F;" d="M92.79,35.21c-0.066,0.266,0.092,0.581,0.066,0.856C94.212,37.407,93.7,37.953,92,37
			c-0.302,0.321-0.799,0.603-1,1c-0.549,0.699-0.896,0.806-1.333,0c-0.317-0.637-0.596-1.45-0.186-2.088
			c0.311-0.485,0.869-0.736,1.347-0.983C91.33,32.621,92.532,32.859,92.79,35.21z"/>
		<path style="fill:#7D7D7D;" d="M16.092,216c-1.004,2.113-1.432,4.385-3.092,6C13.401,219.706,13.106,215.859,16.092,216z"/>
		<path style="fill:#474747;" d="M92.79,35.21l-1.963-0.281c0.116-1.099,0.255-2.219,0.591-3.278
			c0.978-0.69,1.312,0.585,1.441,1.144C93.005,33.429,92.926,34.667,92.79,35.21z"/>
		<path style="fill:#BEBEBE;" d="M101.115,18.073l-0.163,1.974C99.786,18.98,98.14,18.971,96.945,20L98,18L101.115,18.073z"/>
		<path style="fill:#3F3F3F;" d="M91,38c-0.661,1.304-1.629,2.426-3,3c0.234-1.173,0.489-2.443,1.667-3H91z"/>
		<path style="fill:#C5C5C5;" d="M8,226c-1.058,1.12-2.502,1.227-4,1c0.249-0.595,0.874-1.43,1-2C5.455,226.216,6.915,226.047,8,226
			z"/>
		<path style="fill:#D1D1D1;" d="M48.171,144.244c-1.325,0.177-2.848-0.528-4.171-0.244c0.9-1.16,0.842-2.631,1-4h1
			C45.116,141.739,47.139,143.232,48.171,144.244z"/>
		<path style="fill:#D1D1D1;" d="M92,39v-2c0.279-0.296,0.548-0.68,0.856-0.934C93.15,35.906,93.661,36.093,94,36
			c1.145,1.777,2.278,3.268,0.466,5C93.702,39.526,92.868,39.166,92,39z"/>
		<path style="fill:#C8C8C8;" d="M31.886,181.053c-1.744-1.71-1.867-4.693-1.876-7.053C31.763,175.838,32.15,178.607,31.886,181.053
			z"/>
	</g>
</g>
</svg>
