<?xml version="1.0" encoding="iso-8859-1"?>
<!-- Generator: Adobe Illustrator 30.1.0, SVG Export Plug-In . SVG Version: 9.03 Build 0)  -->
<svg version="1.1" id="Layer_1" xmlns="http://www.w3.org/2000/svg" xmlns:xlink="http://www.w3.org/1999/xlink" x="0px" y="0px"
	 viewBox="0 0 83 125" style="enable-background:new 0 0 83 125;" xml:space="preserve">
<g>
	<g>
		<path style="fill:#FCFCFC;" d="M83,121v4H55c0.115-0.439-0.357-0.929-1.043-0.935l-19.652-0.197L0,51V23
			C3.373,21.163,9.119-1.156,13.547,0.474l66.541,118.255C80.959,120.278,81.718,121.057,83,121z M12.181,9.656
			C11.214,9.103,9.734,8.721,9.015,9.52c-1.041,1.156-1.415,2.646-1.834,4.918c2.336,0.917,4.761,0.687,7.872,0.406
			c-0.712-1.149-1.183-1.855-1.342-2.844c2.386,1.544,3.257,4.192,6.386,2.719c-2.887-3.047-4.052-6.833-6.58-11.043
			C11.052,4.699,10.841,7.858,12.181,9.656z M5.869,18.257l-0.89,1.948c-0.568,1.242-2.388,1.603-2.793,2.958
			C1.809,24.425,1.305,25.721,1,27c-0.321,1.347,0.411,2.855,1,4c-1.629,1.303-1.945,14.812,1,13l0.005,2.108
			c-0.446-0.372-1.735-1.013-1.894-0.491c-0.909,2.991,0.471,4.547,1.92,5.328c-0.273,3.17,1.541,6.141,2.882,9.081
			C6.256,60.777,6.152,61.544,7,62c0.657,0.354,1.145,1.053,2,1c0.057,1.008-0.219,2.329,0.343,3.174
			c0.788,1.186,2.597,0.783,3.851,0.834c0.389,0.76,0.887,1.465,1.567,1.987c-0.161,0.518-0.188,0.497,0.082,0.571
			c0.501,0.136,1.023,0.141,1.039,0.39c0.124,1.847-0.998,0.514-3.466,2.064c-0.662,0.416,1.329,6.958,4.377,6.116
			C16.66,79.151,17.242,80.207,17.79,81c-0.087,0.344,0.207,0.831,0.066,1.152C16.668,84.841,19.183,87.377,20,90
			c0.274,0.88,1.378,0.688,2.024,0.908c-0.532,1.293-0.232,2.623,0.11,3.921C21.417,92.107,26.697,103.834,26,100
			c0.223,0.251,0.199,0.987,0.656,1.165c0.399,0.155,0.881-0.052,1.25-0.217c-0.759,1.782,1.17,4.267,1.068,5.864
			c-0.883,2.323,0.664,4.198,2.026,6.189c2.228,3.257,1.567,6.675,6.071,7.656c1.451,3.542,5.9,2.747,8.929,1.344
			c0.175,0.204,0.489,0.636,0.793,0.632c0.603-0.008,0.959-0.639,1.207-1.023h1c0.75,1.274,2.15,1.352,3.441,1.506
			c1.982,0.237,3.377-0.702,2.553-2.813c1.947,0.294,4.192,0.159,5.738-1.246l0.906,0.139c0.217,0.468,0.484,1.048,0.908,1.265
			c0.741,0.379,1.555,0.086,2.185-0.215c-0.357,0.519-1.042,0.639-1.881,2.283c2.069,0.838,5.51,1.283,6.327-1.215
			c0.566,0.18,1.168,0.167,1.732-0.013c0.11,1.217,1.048,1.871,2.437,1.65c0.811-0.129,1.557-0.97,2.314-1.632
			c0.352,0.505,0.305,1.459,0.841,1.654c1.114,0.405,2.724,0.097,2.248-1.242c-0.219-0.616-0.713-1.247-1.497-1.805
			c0.046-0.279-0.205-0.697-0.084-0.94c0.529-1.062-0.077-2.038-0.933-2.719c-0.843-0.671-1.933-0.794-2.93-0.399
			c-0.468-0.562-0.995-1.089-1.304-1.76c1.572,0.043,1.933-1.295,1.743-2.63c-0.198-1.396-1.57-1.801-2.825-1.712
			c-0.025-0.891-0.308-1.92-0.63-2.693c0.645-1.248-0.024-2.595-0.516-3.507c-0.716-1.33-1.77-1.714-2.959-1.718
			c0.903-1.327-0.189-3.47-0.929-4.486c-0.207-2.35-1.951-0.112-3.11-0.223l-0.11-0.724c-0.276-1.814,0.819-4.517-0.972-6.086
			c-0.7-0.613-1.981,0.535-2.574,0.42c0.307-0.789,1.517-1.566,1.543-2.426c0.043-1.399-0.822-2.367-1.501-3.341
			C58.725,84.355,58.346,83.676,58,83c-0.974-1.902-1.036-3.506-2.432-3.023C55.207,80.103,54.873,80.418,55,81
			c-0.335-0.489-1.476-1.22-1-2c0.924-0.905,1.444-2.144,0.546-3.077C53.538,74.874,52.152,74.932,51,75
			c0.344-0.665,1.74-0.979,1.951-1.558C53.463,72.035,51.587,71.488,51,71c-1.19-2.85-2.521-7.615-6-8
			c0.586-0.716,2-2.873-0.039-3.018C43.452,59.875,44.087,62.287,44,63h-1.089c-0.228-1.52,0.372-3.498,0.002-4.94
			c0.941,0.141,1.455-0.713,0.772-1.657C42.812,55.199,42.013,53.529,41,53c-3.429-5.954-1.705-6.659-6-8
			c0.358-0.458,0.59-0.996,0.843-1.669C36.098,42.652,35.285,42.484,35,42c-2.491-4.224-4.115-9.431-8.058-12.407l0.102-1.588
			c0.078-1.209-1.527-2.027-1.948-3.005c-0.61-2.245-1.301-4.437-3.097-6c-0.705-0.613-0.487-2.116-1.169-2.448
			C18.015,15.179,1.533,16.556,5.869,18.257z M60.552,121.262c-1.703-0.487-2.712-0.468-3.474,0.126
			c-2.952,2.3,0.926,1.482,3.395,1.608C60.949,123.02,61.605,121.563,60.552,121.262z"/>
		<path style="fill:#F0F0F0;" d="M54,79c-0.476,0.78,0.665,1.511,1,2c1.046,0.43,2.065,1.011,3,2
			c0.346,0.676,0.725,1.355,1.16,1.979c-2.011,1.121-3.92,2.418-5.729,3.89c3.3-0.743,5.195-0.118,5.687,1.877
			c2.674,0.877,3.028,5.304,0.913,6.986c-0.8,1.342-1.38,1.588-2.546,0.522c-0.356-4.449-1.254-5.775-5.397-3.246
			c-0.914,1.907-1.999,1.923-2.974,0.047c-1.178-0.523-2.202-1.573-3.071-3.15c-0.58-0.104-1.085-0.261-1.328-0.603
			c-1.054-1.485,1.164-2.427,1.328,0.603l1.328,0.461c-0.099,1.607,0.482,2.503,1.743,2.688c1.144,0.747,2.066,1.132,2.974-0.047
			l2.087-1.098c1.767,3.019,3.719,4.293,5.856,3.823c0.192-2.927,1.07-3.367,2.633-1.32l0.11,0.724
			c1.27,0.453,1.954,0.427,3.11,0.223c0.74,1.015,1.833,3.159,0.929,4.486c1.351,1.551,2.509,3.293,3.475,5.226
			c0.322,0.773,0.605,1.801,0.63,2.693c1.476,0.434,1.995,1.606,0.396,2.268l-0.603,1.289c-1.823-0.923-3.668-1.305-5.535-1.147
			c-1.488,2.363-2.442,1.955-2.278-0.827c-1.344-3.112-1.344-3.112,0,0c0.504,1.452,0.889,3.064,1.157,4.837
			c1.88,1.488-0.495,4.052-2.419,3.011l-0.906-0.139c-1.93,0.615-3.508-0.103-4.734-2.156c-2.382-1.77-2.079-2.764,0.889-2.9
			c0.32-0.874,0.692-0.86,1.113,0c1.28,0.2,1.343-0.798,0.929-1.913c-1.938-1.615-3.044-6.102-0.055-6.961
			c-2.793,0.144-3.077-0.566-0.853-2.131c-2.592-0.545-4.602-0.427-7.021,0.005c-0.82,0.607-1.807,0.886-2.96,0.838
			c-1.281-1.51-1.99-0.795-2.127,2.144c-1.282,1.86-1.586,3.869-0.913,6.028c0.175,1.881-0.678,2.324-2.11,1.09
			c-0.145,2.047-0.756,3.241-1.835,3.583c0.351,0.616,0.322,1.435-0.087,2.457c1.27-0.469,2.778,0.336,2.913,1.709
			c2.347-2.127,2.835-1.969,2.118,1.152c-3.029,1.404-7.478,2.198-8.929-1.344c-2.188-3.315-5.762-11.46,1.049-8.823l0.251-1.004
			C34.017,110.74,31.56,111.464,31,113c-1.362-1.991-2.909-3.866-2.026-6.189c1.163-3.214,2.888-4.484,5.174-3.811
			c2.955,4.88,4.198,1.734,5.464-2.008c3.174-1.566,2.97-3.23-0.612-4.992c-3.166-1.789-3.766-3.209-1.799-4.262
			c0.241-2.656,1.141-2.49,1.799,0.073c2.949,1.502,2.949,1.502,0,0c-0.522-1.116-0.437-2.277,0.258-3.481
			C35.326,90.506,33.4,87.882,34,84c1.322-1.628,3.237-2.05,5.142-1.199l1.254-0.023c0.402,1.951,1.225,2.727,2.467,2.329
			C42.993,84.145,43.383,84.151,44,85c0.412-0.017,0.784,0.013,1.017,0.209c1.124,0.945-1.389,0.128,0.842-1.456
			c0.156-0.828,0.393-0.88,0.717-0.123c1.092-0.218,2.191-1.105,3.299-2.661c2.749,0.224,2.749,0.224,0,0
			c-2.256,1.381-2.728,0.333-0.919-1.654C49.042,78.325,49.39,78.219,50,79C49.997,76.074,53.331,76.21,54,79z"/>
		<path style="fill:#EEEEEE;" d="M17.997,34.869c1.763-0.098,1.982,0.698,2.179,2.086C25.307,38.276,30.248,39.958,35,42
			c0.285,0.484,1.098,0.652,0.843,1.331C35.59,44.004,35.358,44.542,35,45c-2.527,0.539-3.527,2.206-3,5c0.249,2.67-1.274,2.68-3,1
			c-2.419-0.079-2.799-1.278-1-3c-1.239-0.261-2.316-1.809-1.342-2.655C27.094,44.966,27.93,46.957,27,48
			c0.076,1.714-1.109,2.434-3.554,2.161c-0.082,2.668,1.11,4.035,3.575,4.102c2.732,0.726,2.6,1.887-0.123,2.609
			c-1.54,2.116-1.107,4.721,1.298,7.816c0,0-0.431,0.872-1.293,2.617c0.024,1.174,0.957,3.525,1.7,4.304
			C29.269,72.308,32.638,73.902,32,72c-0.082-1.461,1.048-2.712,2-1c1.779,0.282,3.278,0.932,5,2
			c0.413-0.77,1.054-1.338,1.945-1.323C44.82,71.743,47.219,71.483,51,71c0.587,0.488,2.463,1.035,1.951,2.442
			C52.74,74.021,51.344,74.335,51,75c-0.183,0.904-0.522,0.867-1,0c-0.76,2.642-1.116,2.571-2,0c-2.318,2.5-4.335,2.549-6.782,0.178
			C40.693,75.949,40.287,75.889,40,75c-0.781,1.007-1.099,2.726-0.955,5.157c-0.641,2.049-2.307,2.287-4.998,0.716l-2.095-0.018
			c-1.735,1.014-1.768,1.594-0.1,1.741l0.338,1.48c1.177,1.501,2.432,3.129,3.766,4.882c2.255-1.783,3.88,1.309,1.243,2.78
			c-0.365,1.84-1.75,2.697-4.156,2.572c0.026,2.055-0.864,2.357-2.094,0.711c-2.41,0.147-3.614,1.493-3.611,4.037L26,100
			c0.697,3.834-4.583-7.893-3.866-5.171c0.92-0.965,0.884-2.272-0.11-3.921C21.378,90.688,20.274,90.88,20,90l0.55-2.313
			c-0.581-1.947-1.479-3.792-2.694-5.535c0.142-0.321-0.152-0.808-0.066-1.152l1.548-1.503c6.943,5.803,5.916-6.935,1.26-8.324
			c-1.658-0.188-2.334-1.09-2.029-2.706c-0.207-0.495-0.334-0.917-0.182-1.083c2.991-3.254,1.997,0.25-2.178,1.285
			c0.769,1.523,0.286,1.631-1.449,0.325c-0.68-0.522-1.178-1.227-1.567-1.987c-0.62-1.32-0.038-2.627,1.745-3.921l0.973-1.855
			c6.832,1.882,4.576-9.415-2.717-3.433C12.154,59.743,10.756,60.81,9,61c0.313,1.307-0.804,1.36-2,1
			c-0.848-0.456-0.744-1.223-1.087-1.974C5.98,57.858,6.676,56.516,8,56c1.397-2.224,3.064-3.224,5-3
			c0.241-0.441,0.582-0.364,0.992,0.068l0.982-2.028c1.683,0.318,3.017-0.097,4-1.245c-0.732-6.101-2.71-8.78-5.936-8.037
			c-0.416,0.717-0.759,0.686-1.027-0.096c-1.654-0.458-1.926-1.021-0.231-1.52c-0.351-1.195,0.047-2.351,1.194-3.47l-1.953-5.465
			C9.574,30.737,8.567,29.335,8,27c-0.876,4.408-0.873,9.623,0,14c0.657-3.426,3.112-2.011,3,1c0.018,3.209-3.997,3.414-5.929,1.178
			c-1.33-1.123-1.669-2.889-1.015-5.297C4.416,34.535,3.731,32.241,2,31c-0.589-1.145-1.321-2.653-1-4
			c0.992-2.299,2.582-2.76,4.509-1.199c-0.156-3.123,1.153-2.683,3.186-0.858c0.636-0.429,1.619-1.009,2.027-0.653
			C12.892,26.179,17.346,32.116,17.997,34.869z"/>
		<path style="fill:#5D5D5D;" d="M42.913,58.06c0.37,1.442-0.23,3.42-0.002,4.94L41,68c1.796,1.741,0.925,5.578-2,5
			c-1.01,0.584-2.259,1.156-3.369,0.931C34.107,73.623,34.338,72.05,34,71c-0.719,0.098-1.306,0.124-1.431-0.104
			c-0.258-0.47-1.407-10.067-1.356-10.601c0.041-0.428,2.615-7.838,2.982-8.062C36.335,50.928,44.267,54.812,42.913,58.06z"/>
		<path style="fill:#494949;" d="M26.942,29.593C30.885,32.569,32.509,37.776,35,42c1.914,2.951-14.695-2.977-15.71-3.352
			c-1.304-0.482-1.442-2.817-1.292-3.779C15.577,33.405,16.195,32.471,19,33c0.86-3.013,1.29-4.52,1.29-4.52
			C23.464,27.968,25.681,28.339,26.942,29.593z"/>
		<path style="fill:#545454;" d="M22,19c0.721,1.477,1.907,4.374,1.644,5.909c-0.678,3.956-2.409,5.752-4.78,2.167
			c-4.369,2.212-11.475-5.052-12.995-8.819c-4.336-1.701,12.147-3.078,14.962-1.706C21.513,16.884,21.295,18.387,22,19z"/>
		<path style="fill:#5E5E5E;" d="M11,42c0.011-0.926,0.353-1.026,1.01-0.339c0.246-0.082,0.79-0.052,1.027,0.096L16,46
			c1.799-0.966,2.791,0.299,2.974,3.795c-0.231,0.899,0.873,1.844,1.031,3.102c-2.401,0.25-4.152,0.078-6.013,0.171L7.561,50.29
			c-0.891,0.183-1.723-0.4-2.496-1.748c-1.836,1.474-2.996-0.344-2.06-2.434L3,44c-0.782-2.854,0.467-3.286,2.071-0.822
			C6.979,42.459,9.208,42.601,11,42z"/>
		<path style="fill:#DEDEDE;" d="M58.021,102.995c-0.059,0.673,0.793,1.428,0.853,2.131c-2.562,2.317-2.742,3.936-0.54,4.858L59,113
			c1.016,1.201,0.5,1.769-1,1h-1.113c-2.186-0.019-4.097-0.296-3.887-3c-2.99-5.4-2.99-5.4,0,0c1.541,1.828,0.74,4.901,0,7
			l-0.266,1.088c-2.378,0.105-3.956,0.945-4.734,2.521c-0.247,0.383-0.604,1.015-1.207,1.023c-0.305,0.004-0.618-0.428-0.793-0.632
			c-0.392-0.753-1.272-1.183-2.118-1.152c-0.67-0.839-1.641-1.409-2.913-1.709c-0.223-0.198-0.97-0.283-1.065-0.722
			c-0.198-0.921,1.149-1.209,1.151-1.735c0.462-1.452,1.525-1.948,3.005-1.766c0.588-0.807,0.901-1.776,0.94-2.906
			c0.469-2.938,1.899-3.064,2.874-0.254c1.58,1.084,1.956,0.499,1.126-1.756c-2.775,0.138-4.056-1.336-3.087-4.018
			c0.313-2.453,2.788-3.599,5.087-2.982c1.972,0.056,3.934-0.25,5.885-0.921L58.021,102.995z"/>
		<path style="fill:#555555;" d="M45,63c3.479,0.385,4.81,5.15,6,8c-2.612,3.162-8.453,3.961-12,2c0.968-1.528,0.466-3.782,2-5
			l1.911-5H44C44.1,62.083,44.447,62.136,45,63z"/>
		<path style="fill:#6E6E6E;" d="M18.864,27.076C21.894,27.541,21.939,29.515,19,33c-0.429,0.312-0.921,1.345-1.003,1.869
			c-1.082,1.455-7.496-7.672-9.302-9.927c-2.378,0.492-4.906-2.661-3.717-4.738l0.89-1.948
			C10.531,21.359,12.657,23.869,18.864,27.076z"/>
		<path style="fill:#9D9D9D;" d="M17.79,81c-0.548-0.793-1.13-1.849-0.997-2.864L20,73c-2.496-0.971-2.053-1.844,0.598-1.827
			c1.489-0.11,1.907-1.381,2.897-3.19c1.865,4.455,4.057,10.204,1.43,14.908C22.797,84.143,19.523,81.639,17.79,81z"/>
		<path style="fill:#858585;" d="M37.071,120.656c-4.504-0.981-3.843-4.4-6.071-7.656c-0.136-0.485-1.141-1.687-0.754-2.225
			c3.353-1.64,6.366-1.844,9.701-2.832c1.047,2.537,0.171,5.562-1.607,6.833c-1.192-0.554-1.841-2.608-3.277-1.963
			C37.751,115.379,37.993,117.986,37.071,120.656z"/>
		<path style="fill:#646464;" d="M5.071,43.178C4.352,43.45,3.352,43.15,3,44c-2.945,1.812-2.629-11.697-1-13
			c0.963-0.77,1.879-1.29,3.196-2.472C5.452,33.581,7.068,38.637,5.071,43.178z"/>
		<path style="fill:#898989;" d="M34,95c3.045,0.666,3.094,3.333,0.148,8c-1.327,0.941-1.927,2.484-2.778,4.137l-2.396-0.326
			c0.101-1.597-1.828-4.081-1.068-5.864c-1.587-2.028-0.029-6.562,3.045-5.927c0.71-0.201,1.409-0.439,2.094-0.711
			C33.781,93.967,34.1,94.196,34,95z"/>
		<path style="fill:#656565;" d="M35,45c4.295,1.341,2.571,2.046,6,8c-1.118,0.306-2.68,0.07-4.686-0.71
			C34.132,53.496,33.028,53.066,33,51c-1.187,0.713-1.628,0.223-1-1c-2.459-1.367-2.519-4.665-1.628-6.924
			C32.353,44.079,33.642,44.576,35,45z"/>
		<path style="fill:#E4E4E4;" d="M72,114.106c0.309,0.671,0.837,1.198,1.304,1.76c1.51,0.667,2.798,1.707,3.864,3.118
			c-0.121,0.242,0.13,0.661,0.084,0.94c1.525,1.374-0.06,2.75-1.593,1.393c-1.585,0.332-3.169,0.326-4.751-0.018
			c-0.565,0.18-1.166,0.193-1.732,0.013c-1.563,0.84-3.465,0.351-4.446-1.068c-0.443-1.254-0.667-2.607-0.673-4.061
			c-1.951-1.309-1.282-4.107,1.12-4.01l1.716-1.098C68.218,112.525,69.92,113.535,72,114.106z"/>
		<path style="fill:#898989;" d="M20.598,71.173L20,73l-3.207,5.136c-3.048,0.842-5.039-5.7-4.377-6.116
			c2.469-1.551,3.59-0.218,3.466-2.064c-0.017-0.249-0.538-0.254-1.039-0.39c-0.27-0.073-0.243-0.052-0.082-0.571
			c0.442,0.034,1.033-0.447,1.449-0.325c1.129-1,1.916-1.067,2.36-0.202c0.437,0.859,1.6,0.538,2.36,1.085
			C21.295,69.815,20.791,70.794,20.598,71.173z"/>
		<path style="fill:#ADADAD;" d="M59.16,84.979c0.68,0.974,1.545,1.942,1.501,3.341c-0.027,0.86-1.236,1.636-1.543,2.426
			c-1.895-0.365-5.879,0.704-7.748-0.344c-1.23-1.713,1.24-3.612,2.257-4.582C55,84.512,57.522,84.363,59.16,84.979z"/>
		<path style="fill:#C9C9C9;" d="M41,53c1.013,0.529,1.812,2.199,2.685,3.403c0.684,0.944,0.169,1.798-0.772,1.657
			c-0.589-2.298-5.315-6.847-7.715-4.598C30.716,57.663,32.283,65.668,34,71l-2,1c-1.321,1.511-1.971,0.855-1-1
			c-0.777-2.699-1.555-5.717-2.335-9.055L30,60c-0.044-2.748,0.087-8.088,3-9C35.786,50.953,38.249,52.513,41,53z"/>
		<path style="fill:#666666;" d="M13.711,12c-2.66,1.237-3.406-0.168-1.53-2.344c-1.34-1.798-1.129-4.957,1.336-5.98
			c2.528,4.21,3.694,7.996,6.58,11.043C16.969,16.192,16.097,13.544,13.711,12z"/>
		<path style="fill:#CCCCCC;" d="M3.005,46.108c5.065,4.755,8.352,4.146,10.987,6.961C13.666,53.084,13.327,53.02,13,53
			c-1.7,0.94-3.366,1.94-5,3c-2.342,1.468-4.039-3.674-3.909-5.447c0.053-0.72,2.35,1.014-1.06,0.392
			c-1.449-0.781-2.829-2.337-1.92-5.328C1.27,45.094,2.559,45.736,3.005,46.108z"/>
		<path style="fill:#7C7C7C;" d="M12.181,9.656c0.806,1.015,0.947,1.967,1.53,2.344c0.159,0.989,0.63,1.695,1.342,2.844
			c-3.11,0.281-5.536,0.51-7.872-0.406c0.419-2.273,0.793-3.762,1.834-4.918C9.734,8.721,11.214,9.103,12.181,9.656z"/>
		<path style="fill:#C2C2C2;" d="M25.097,25c0.455,1.22,0.993,2.175,1.948,3.005l-0.102,1.588c-1.109-0.837-3.553-0.763-4.807-0.14
			C21.072,29.981,20.139,32.171,19,33c0.892-2.032,1.273-4.072-0.136-5.924c1.005-0.355,1.705,0.591,2.99,0.98
			C22.315,24.619,22.446,21.831,22,19C23.796,20.563,24.487,22.755,25.097,25z"/>
		<path style="fill:#8C8C8C;" d="M8,56c-0.008,1.009,0.227,2.079-0.111,3.34c-0.195,0.726-1.128,0.865-1.976,0.687
			c-1.341-2.941-3.155-5.912-2.882-9.081c0.579-0.544,0.875-1.506,1.679-1.983C6.446,51.576,6.052,54.293,8,56z"/>
		<path style="fill:#7A7A7A;" d="M14.94,63.087c0.349,0.929,1.447,0.571,3.067,1.413l-4.812,2.508
			c-1.254-0.05-3.063,0.352-3.851-0.834C8.781,65.329,9.057,64.008,9,63c-0.391-0.84-0.012-1.141,1-1
			C10.06,58.414,15.432,59.808,14.94,63.087z"/>
		<path style="fill:#8F8F8F;" d="M30.95,95.021c-0.753,2.091-2.177,3.891-3.045,5.927c-0.368,0.165-0.851,0.372-1.25,0.217
			c-0.457-0.177-0.433-0.914-0.656-1.165c0.054-1.847-0.193-3.618,0.115-6.127C28.152,93.386,29.908,93.823,30.95,95.021z"/>
		<path style="fill:#757575;" d="M20,90c-0.817-2.623-3.332-5.159-2.144-7.848c1.514,1.059,3.981,0.802,4.203,2.417
			C22.406,87.1,22.818,90.245,20,90z"/>
		<path style="fill:#7E7E7E;" d="M54,79h-4c-3.37,1.25-1.942-3.031,0-4c0.33,0,0.671,0.019,1,0c1.152-0.068,2.538-0.126,3.546,0.923
			C55.444,76.856,54.924,78.095,54,79z"/>
		<path style="fill:#9C9C9C;" d="M62.664,96.412l-2.633,1.32c0.452-2.347-1.046-4.618-0.913-6.986
			c0.593,0.114,1.874-1.034,2.574-0.42C63.483,91.895,62.388,94.599,62.664,96.412z"/>
		<path style="fill:#D3D3D3;" d="M8.696,24.942l-3.186,0.858c-2.488,1.16-2.961-0.536-3.323-2.638
			c0.405-1.355,2.225-1.716,2.793-2.958C6.435,21.624,7.461,23.401,8.696,24.942z"/>
		<path style="fill:#7A7A7A;" d="M53,118c1.945-0.128,1.785,1.529,0,2c0.962,2.476-2.166,2.441-4,1.609h-1
			c-0.44-0.392-1.602-1.572-0.817-2.309C48.928,117.659,51.198,118.133,53,118z"/>
		<path style="fill:#777777;" d="M69.176,121.312c-0.817,2.498-4.258,2.053-6.327,1.215c0.839-1.645,1.524-1.764,1.881-2.283
			C66.425,119.432,68.036,119.819,69.176,121.312z"/>
		<path style="fill:#B5B5B5;" d="M70.289,107.071c-2.278-1.043-5.179-2.724-3.475-5.226c1.189,0.005,2.243,0.389,2.959,1.718
			C70.265,104.476,70.934,105.823,70.289,107.071z"/>
		<path style="fill:#909090;" d="M5.509,25.801C4.375,27.074,2.604,27.09,1,27c0.305-1.279,0.809-2.575,1.186-3.837
			C4.132,22.277,4.094,24.944,5.509,25.801z"/>
		<path style="fill:#8D8D8D;" d="M60.732,119.055c-1.546,1.406-3.791,1.54-5.738,1.246c-1.331-0.81-0.996-1.944,1.004-3.402
			C57.891,115.067,59.058,117.963,60.732,119.055z"/>
		<path style="fill:#969696;" d="M53,120c0.426-1.624,2.118-1.612,1.994,0.301c0.823,2.111-0.571,3.05-2.553,2.813
			c-1.291-0.154-2.691-0.231-3.441-1.506C50.43,121.323,51.803,120.843,53,120z"/>
		<path style="fill:#979797;" d="M77.168,118.984c-0.964-0.068-2.032,0.039-3.182-0.552c-0.731-0.376-0.807-1.598-0.682-2.566
			c0.997-0.395,2.087-0.272,2.93,0.399C77.091,116.946,77.697,117.922,77.168,118.984z"/>
		<path style="fill:#A0A0A0;" d="M64.73,120.244c-0.63,0.302-1.444,0.594-2.185,0.215c-0.424-0.217-0.691-0.797-0.908-1.265
			c0.522-1.22,2.267-1.61,2.419-3.011c0.824,0.164,1.855,0.713,1.888,1.433C65.997,118.765,65.218,119.536,64.73,120.244z"/>
		<path style="fill:#8D8D8D;" d="M75.659,121.317c-0.757,0.662-1.503,1.503-2.314,1.632c-1.389,0.221-2.327-0.433-2.437-1.65
			c0.751-0.443,1.44-1.638,2.306-1.606C74.26,119.73,75.16,120.601,75.659,121.317z"/>
		<path style="fill:#8B8B8B;" d="M72,114.106c-2.369,0.122-2.383-0.423-0.685-2.075c-0.225-0.653-0.377-1.576-0.396-2.268
			c1.254-0.089,2.626,0.316,2.825,1.712C73.933,112.811,73.572,114.15,72,114.106z"/>
		<path style="fill:#979797;" d="M22.134,94.829c-0.342-1.298-0.642-2.628-0.11-3.921c1.614,0.549,3.334,1.724,2.961,3.967
			C23.716,95.154,22.914,94.852,22.134,94.829z"/>
		<path style="fill:#7E7E7E;" d="M60.552,121.262c1.053,0.301,0.397,1.758-0.079,1.734c-2.469-0.126-6.347,0.692-3.395-1.608
			C57.84,120.794,58.849,120.776,60.552,121.262z"/>
		<path style="fill:#5D5D5D;" d="M27.045,28.005c-1.195-0.111-2.313,0.274-4.149-0.243C23.727,26.626,24.578,26,25.097,25
			C25.518,25.978,27.123,26.796,27.045,28.005z"/>
		<path style="fill:#919191;" d="M58,83c-0.705,0.124-1.43,0.052-2.287-0.155C54.873,82.641,55.339,81.494,55,81
			c-0.127-0.582,0.207-0.897,0.568-1.023C56.964,79.494,57.026,81.098,58,83z"/>
		<path style="fill:#7A7A7A;" d="M75.659,121.317l1.593-1.393c0.785,0.558,1.279,1.189,1.497,1.805
			c0.476,1.34-1.134,1.647-2.248,1.242C75.964,122.776,76.011,121.822,75.659,121.317z"/>
		<path style="fill:#939393;" d="M65.885,97.36c-0.008,0.707-0.936,1.469-1.526,1.624c-0.98,0.257-1.46-1.034-1.584-1.847
			C63.933,97.248,65.678,95.009,65.885,97.36z"/>
		<path style="fill:#8F8F8F;" d="M9,61c1.408-0.938,1.892-0.42,1,1c-0.297,0.368-0.632,0.703-1,1c-0.855,0.053-1.343-0.646-2-1
			C7.542,61.457,8.242,61.116,9,61z"/>
		<path style="fill:#999999;" d="M45,63c-0.325-0.036-0.673,0-1,0c0.087-0.713-0.548-3.125,0.961-3.018
			C47,60.127,45.586,62.284,45,63z"/>
		<path style="fill:#A4A4A4;" d="M39.612,100.992c0.497,1.344,1.856,3.425,0.241,4.853c-1.83,1.618-4.219,2.056-7.013,2.078
			c1.483-1.525,0.551-3.871,1.308-4.923l2.277-5.52L38,98C40.741,96.416,42.067,99.063,39.612,100.992z"/>
		<path style="fill:#898989;" d="M60.031,97.732c-0.61,0.624-0.74,2.016-1.693,2.212c-2.861,0.587-3.873-4.216-6.25-4.937
			c0.205-0.747-0.759-1.976-0.401-2.541c0.53-0.837,5.352-0.66,6.259-0.025C59.985,93.871,57.928,99.245,60.031,97.732z"/>
		<path style="fill:#D9D9D9;" d="M48,75h2c-1.004,1.185-1.004,2.815,0,4c-0.334,0-0.73,0.197-1.045,0.315
			c-0.107,1.59-0.901,3.028-2.381,4.315c-0.351-0.455-0.605-0.481-0.717,0.123C44.745,83.502,44.126,83.917,44,85
			c-0.383-0.02-0.764,0.017-1.136,0.108c-1.247-0.26-2.488-1.028-3.722-2.306c-2.665-0.832-2.491-1.442-0.096-2.644
			C38.729,77.799,39.047,76.08,40,75c0.408-0.077,0.828,0.201,1.218,0.178l1.337,0.119C42.901,78.755,44.716,78.656,48,75z"/>
		<path style="fill:#8A8A8A;" d="M39.045,80.157c0.342,0.733,0.037,1.849,0.096,2.644C37.89,84.607,35.947,85.038,34,84
			c-0.111,0.906-0.429,0.929-0.942,0.129c-1.994-0.904-3.212-1.666-1.105-3.273c0.148-0.69,0.501-1.391,0.982-1.659
			C34.786,78.163,37.592,80.759,39.045,80.157z"/>
		<path style="fill:#9A9A9A;" d="M39.612,100.992C39.216,99.922,38.893,98.776,38,98c-2.463-1.576-1.696-1.951,1-2
			c1.842-0.467,3.185-1.069,4.123,0.461c1.179,1.923,0.728,3.571-0.233,5.943C41.652,103.233,40.885,101.044,39.612,100.992z"/>
		<path style="fill:#969696;" d="M45.913,105.982C47.19,107.2,48.388,108.302,49,110c0.746,1.334,0.227,1.67-1.126,1.756
			c-0.964-0.058-1.936,0.019-2.874,0.254c-1.514-1.122-3.189-1.517-2.682-3.078C43.156,106.35,43.784,105.794,45.913,105.982z"/>
		<path style="fill:#929292;" d="M56.887,114c-0.551,0.878-0.782,1.88-0.889,2.9c-0.79,1.841-1.904,3.193-2.998,1.1
			c-2.187-2.078-1.429-4.858,0-7C54.543,111.854,56.99,111.722,56.887,114z"/>
		<path style="fill:#9E9E9E;" d="M51,103c-1.068,1.526-3.148,3.153-5.087,2.982c-0.935-0.893-1.875-2.321-1.599-3.311
			c0.392-1.407,0.69-3.603,2.963-3.944c1.203,0.876-0.192,1.682-0.05,2.87C48.771,102.152,50.183,102.048,51,103z"/>
		<path style="fill:#8F8F8F;" d="M58.874,105.126c0.197,2.32,0.759,4.751,0.055,6.961L59,113c-0.369-0.317-0.788-1.028-1.54-1.277
			c-2.486-0.823-3.041-2.585-2.369-5.067C55.463,105.281,57.168,104.756,58.874,105.126z"/>
		<path style="fill:#767676;" d="M34,84c1.276,1.445,1.749,3.236,2.527,5.055c0.791-1.394,0.85-4.135,2.037-3.78
			c1.862,0.556,2.558,2.303,3.119,3.367c0.98,1.86-2.2,1.801-2.683,3.169l-1.799-0.073c-0.341-3.909-4.706-0.493-5.009-7.662
			c0.195-0.833,0.488-0.783,0.866,0.052C33.372,84.143,33.685,84.012,34,84z"/>
		<path style="fill:#9A9A9A;" d="M58.021,102.995l-3.368,1.731c-2.627,1.35-3.74-1.827-3.653-1.726
			c1.093-1.562,1.155-3.304,3.296-2.61C56.164,100.996,58.223,100.699,58.021,102.995z"/>
		<path style="fill:#A3A3A3;" d="M71.315,112.031c0.236,0.686,0.974,1.243,0.685,2.075c-5.064,1.971-4.468-2.037-6.823-1.933
			c0.437-1.564,2.847-3.226,4.391-2.501c-0.158,0.997-0.439,2.106,0.066,2.222C70.367,112.063,70.981,112.199,71.315,112.031z"/>
		<path style="fill:#717171;" d="M49.874,80.969c-0.021,1.331,0.8,3.883-0.963,4.857c-1.378,0.761-2.116-1.504-2.336-2.196
			c-0.66-0.782-0.89-2.008-0.351-2.829c0.619-0.942,1.818-1.143,2.731-1.486C48.867,79.937,49.882,80.481,49.874,80.969z"/>
		<path style="fill:#A4A4A4;" d="M37.201,91.738c0.102,1.171,1.142,1.973,2.575,2.609C39.757,95.08,39.249,95.502,39,96
			c-1.091,2.073-2.758,1.739-5-1c-0.399-0.03-0.733-0.391-0.955-0.69C33.342,92.086,35.162,91.656,37.201,91.738z"/>
		<path style="fill:#929292;" d="M49.114,95.055c-1.295,0.442-2.253,1.996-4.179,1.925c-0.788-2.29,1.349-3.293,1.108-5.074
			c1.218-0.011,2.167-1.385,3.983-0.799L49.114,95.055z"/>
		<path style="fill:#858585;" d="M65.015,102.338c0.043,2.23-2.571,1.996-3.36,1.673c-0.735-0.301-2.188-1.364-1.442-2.753
			C61.247,99.333,64.967,99.877,65.015,102.338z"/>
		<path style="fill:#9B9B9B;" d="M52.089,95.008c-0.43,1.569,1.985,2.507,0.592,3.934c-1.427-0.938-3.106-0.686-3.921-1.605
			c-0.405-0.456,0.202-1.621,0.354-2.282C50.046,94.737,51.15,94.723,52.089,95.008z"/>
		<path style="fill:#939393;" d="M65.177,112.173l-1.12,4.01c-1.059-0.195-1.878-0.8-2.592-2.068
			c-0.545-0.968,0.715-1.883,1.434-2.769C63.654,111.522,64.252,112.214,65.177,112.173z"/>
		<path style="fill:#767676;" d="M42.89,113.1c1.603-0.824,2.618,0.606,1.171,1.816c-0.123,0.64-0.329,1.491-0.849,1.786
			c-0.726,0.412-1.533,0.144-2.156-0.019l0.01-2.992C41.067,113.014,41.619,112.34,42.89,113.1z"/>
		<path style="fill:#6B6B6B;" d="M45.858,83.753c-0.007,0.858,0.858,3.067-0.798,3.292C43.865,87.208,44.008,85.42,44,85
			c-0.84-1.27-2.118-2.903-0.03-4.461L45.858,83.753z"/>
		<path style="fill:#848484;" d="M43.882,120.848c-1.281,0.047-2.696-0.31-2.913-1.709c1.035-0.363,2.035-1.082,3.629-1.17
			c0.829,0.851,0.973,1.52,0.576,1.905C44.771,120.266,44.198,120.441,43.882,120.848z"/>
		<path style="fill:#6F6F6F;" d="M46.043,91.906c-0.954,0.009-2.161-0.239-2.647-0.756c-1.01-1.073-0.142-2.079,0.58-2.702
			c0.649-0.559,1.707-0.906,2.214,0.36C46.581,89.784,45.923,91.017,46.043,91.906z"/>
		<path style="fill:#7D7D7D;" d="M42.864,85.108c-0.125,0.438-0.165,1.286-0.675,1.538c-1.678-0.765-2.927-2.234-3.047-3.845
			c0.354-0.511,1.805-1.29,2.233-0.741C42.133,83.035,42.083,84.362,42.864,85.108z"/>
		<path style="fill:#909090;" d="M62.9,111.346c-1.651-0.384-1.982-1.353-1.99-2.825c-0.007-1.32-0.03-3.286,1.816-2.336
			C63.369,107.617,62.993,110.016,62.9,111.346z"/>
		<path style="fill:#848484;" d="M45,112.01c0.6,0.445,0.822,1.152,1.218,1.292c1.236,0.437,0.754,1.658-0.192,2.173
			c-0.491,0.267-1.394-0.265-1.965-0.559L42.89,113.1C43.502,112.587,44.222,112.205,45,112.01z"/>
		<path style="fill:#696969;" d="M39,91.811c1.88,0.076,4.04-0.28,5.026,1.976C42.077,94.388,39.112,93.577,39,91.811z"/>
		<path style="fill:#8B8B8B;" d="M49.874,80.969c1.247-0.907,2.229-1.372,3.087-0.538c0.424,0.412,0.027,1.035-0.837,2.062
			C50.287,84.673,51.872,80.374,49.874,80.969z"/>
		<path style="fill:#838383;" d="M58,114c0.466-0.174,0.82-0.537,1-1l-0.071-0.913c0.635,0.861,1.772,2.051,0.807,3.966
			C58.735,115.577,58.331,114.783,58,114z"/>
		<path style="fill:#606060;" d="M14.94,63.087C13.456,62.732,11.764,61.432,10,62c-0.407,0.131-0.922-0.695-1-1
			c1.51-4.766,6.207-8.709,11.657-6.588c0.074,2.26,1.722,5.058,0.754,7.382C20.697,63.506,16.591,63.481,14.94,63.087z"/>
		<path style="fill:#525252;" d="M26.898,56.871C29.306,56.532,31.143,57.287,30,60c0.823,1.224,3.581,11.191,1,11
			c-2.356,1.394-5.078-1.332-4.097-3.696c-0.433-2.634-2.397-4.772-3.287-7.632C23.028,57.78,25.544,56.861,26.898,56.871z"/>
		<path style="fill:#5D5D5D;" d="M27,48c0.284-0.873,0.618-0.86,1,0c0.334,0.809,1.423,1.869,1,3
			c2.508,1.661,0.873,4.521-1.979,3.262l-4.088,2.939l-1.976-9.075L27,48z"/>
		<path style="fill:#727272;" d="M32,50c0.677-0.109,1.088,0.327,1,1c-0.404,3.087-0.02,7.376-3,9
			c-0.707-1.022-3.183-1.423-3.102-3.129l0.123-2.609C28.088,53.452,28.292,52.024,29,51C29.554,50.198,31.181,50.131,32,50z"/>
		<path style="fill:#747474;" d="M28,48h-1c-0.638-1.785-3.081-0.453-4.953-1.145c-1.772-0.654-2.776-5.087-1.378-5.718
			c2.964-0.28,5.754,1.357,8.205,2.042C29.429,45.145,27.977,46.521,28,48z"/>
		<path style="fill:#BFBFBF;" d="M11.021,31.207c1.783,2.552,2.391,6.31,0.759,8.934c0.285,0.343,0.03,1.11,0.231,1.52L11,42
			c-0.719-0.89-1.895-1.145-3-1c-0.897-4.401-0.844-9.6,0-14C9.818,27.517,10.824,29.4,11.021,31.207z"/>
		<path style="fill:#6E6E6E;" d="M18.974,49.795L16,46l-2.963-4.242c0.235-1.13,2.322-3.6,3.64-2.399
			C19.54,41.967,19.794,46.605,18.974,49.795z"/>
		<path style="fill:#848484;" d="M48,75c0.213,1.613-0.242,3.207-1.559,4.09c-1.284,0.862-5.065,1.764-5.114,0.014l-0.109-3.925
			C43.476,75.048,45.737,75,48,75z"/>
		<path style="fill:#6A6A6A;" d="M26.903,67.304C27.959,68.922,30.247,69.091,31,71c0.166,0.421,0.742,0.64,1,1
			c0.465,0.55,1.374,1.684,0.225,1.973c-2.311,0.581-5.386-0.173-5.818-2.375C26.137,70.221,24.338,67.784,26.903,67.304z"/>
		<path style="fill:#898989;" d="M11.78,40.142c-2.07-2.494-0.867-5.911-0.759-8.934c1.479,1.153,3.414,2.584,3.875,4.946
			C15.303,38.234,13.217,39.634,11.78,40.142z"/>
		<path style="fill:#8B8B8B;" d="M31.458,75.414c1.558,0.722,0.335,3.362-0.962,3.756c-0.953,0.29-2.896,1.598-3.359,0.122
			c-0.407-1.296-0.239-3.047-0.051-3.756C27.317,74.668,29.756,74.626,31.458,75.414z"/>
		<path style="fill:#787878;" d="M18.57,68.467c-0.759,0.398-1.512,0.449-2.36,0.202c1.387-2.152,3.812-4.76,6.866-4.628
			C23.59,68.147,20.32,67.549,18.57,68.467z"/>
		<path style="fill:#5D5D5D;" d="M13,53c-1.25,1.778-2.829,4.902-5,3c0.013-1.583-0.433-3.017-0.97-5.079
			C9.544,51.519,10.961,52.877,13,53z"/>
		<path style="fill:#9D9D9D;" d="M27.525,92.414c-0.562,1.516-4.404-1.389-3.36-3.047c0.819-1.3,1.88-1.259,2.515-1.409
			C27.875,87.678,28.631,89.429,27.525,92.414z"/>
		<path style="fill:#969696;" d="M31.953,80.856c0.522,1.034,0.872,2.14,1.105,3.273c-0.273-0.013-0.611,0.041-0.866-0.052
			c-1.198-0.44-3.514-0.413-4.24-1.945c-0.664-1.401,0.815-2.28,1.702-2.004C30.451,80.374,31.283,80.311,31.953,80.856z"/>
		<path style="fill:#858585;" d="M8,41c-1.475,3.242-1.475-17.242,0-14V41z"/>
		<path style="fill:#808080;" d="M36.448,75.231c0.952,0.238,0.667,1.74,0.506,2.265c-0.254,0.831-1.695,0.509-3.118,0.493
			c-1.172-0.013-1.04-1.755-0.779-2.489C33.347,74.686,34.785,74.816,36.448,75.231z"/>
		<path style="fill:#9D9D9D;" d="M29.261,89.52c0.701-1.443,1.8,0.122,2.271,0.451c1.032,0.723,0.845,1.276,0.495,1.893
			c-0.489,0.863-1.223,1.357-1.724,1.204C29.192,92.73,28.39,91.314,29.261,89.52z"/>
		<path style="fill:#939393;" d="M24.277,86.973c-0.797,0.627-1.009,0.201-1.043-0.888c-0.034-1.065-0.209-1.704,0.354-1.932
			c0.747-0.302,1.79-0.164,2.075,0.493C26.024,85.475,25.269,86.193,24.277,86.973z"/>
		<path style="fill:#7A7A7A;" d="M40,75c-0.25,1.691,0.986,4.354-0.955,5.157c-0.546-1.17-1.104-2.271-1.149-3.643
			C37.853,75.212,38.608,74.678,40,75z"/>
		<path style="fill:#959595;" d="M27.222,84.195c1.134-1.308,2.619,1.445,2.672,1.293c-0.339,0.974-1.136,0.463-1.511,0.544
			C27.481,86.229,26.225,85.345,27.222,84.195z"/>
		<path style="fill:#CECECE;" d="M41,68c0.054-1.83,0.227-3.969,1.911-5C43.206,64.961,42.531,66.785,41,68z"/>
		<path style="fill:#D0D0D0;" d="M16,46c-1.596-0.756-3.344-2.409-2.963-4.242C14.576,42.724,15.989,44.103,16,46z"/>
		<path style="fill:#8D8D8D;" d="M53,111c-1.337-0.74-3.436-2.106-3.957-4.236c-0.258-1.054,3.732-1.287,3.819-0.272
			C52.948,107.507,53.571,110.144,53,111z"/>
		<path style="fill:#7C7C7C;" d="M47.874,111.756c-0.518-0.422-0.348-0.751,0.051-1.033c0.411-0.291,0.724-0.576,1.075-0.723
			c0.223,0.618,2.17,0.863,1.974,1.494c-0.183,0.589-0.653,2.294-1.481,2.347C48.751,113.888,48.288,112.039,47.874,111.756z"/>
		<path style="fill:#848484;" d="M47.862,115.471c0.863-0.906,1.731-0.647,2.117,0.007c0.42,0.711,0.078,1.612-1.417,1.585
			C47.892,117.051,46.325,117.085,47.862,115.471z"/>
		<path style="fill:#D8D8D8;" d="M16.793,78.136C17.065,76.063,18.049,73.899,20,73C19.361,74.949,19.009,77.524,16.793,78.136z"/>
		<path style="fill:#E6E6E6;" d="M39,96l-1,2c-1.938,1.084-2.613,3.279-3.852,5c-0.349-1.782,0.356-3.51,1.638-5.263
			C35.348,96.534,34.519,95.841,34,95C35.568,95.119,37.394,96.408,39,96z"/>
		<path style="fill:#E4E4E4;" d="M54.994,120.301L53,120v-2c0.958-0.071,2.285-0.41,2.998-1.1
			C55.873,118.084,55.497,119.227,54.994,120.301z"/>
	</g>
</g>
</svg>
