<?xml version="1.0" encoding="iso-8859-1"?>
<!-- Generator: Adobe Illustrator 30.1.0, SVG Export Plug-In . SVG Version: 9.03 Build 0)  -->
<svg version="1.1" id="Layer_1" xmlns="http://www.w3.org/2000/svg" xmlns:xlink="http://www.w3.org/1999/xlink" x="0px" y="0px"
	 viewBox="0 0 115 108" style="enable-background:new 0 0 115 108;" xml:space="preserve">
<g>
	<g>
		<path style="fill:#FAFAFA;" d="M13,0l74.215,14.94l25.444,85.36c0.509,1.706,0.595,3.136,2.341,2.7v5h-15
			c-7.61-3.865-20.934-0.873-32.471-2.51c-10.904-1.546-24.435,0.778-37.514-1.646L4.339,57.72C2.911,55.154,2.019,52.625,0,51V17
			L1.903,1.136L4,0H13z M8,3v2C6.819,5.126,4.832,4.409,4.089,5.56C3.316,6.755,4.59,8.859,4,10c-0.823,1.593-2.984,3.589-1,5
			c0.565,0.402,0.52,1.515,1.004,1.994c-0.52-0.006-1.972-0.056-1.976,0.945L2,24c-0.001,0.291,0.136,0.752,0,1
			c-1.835,3.34-0.743,7.292-1,11c-0.067,0.96-0.111,2.045,0,3c0.158,1.36,0.767,2.653,1,4c-1.005-0.145-0.871,0.991-1.061,1.57
			C0.588,45.643,1.788,46.262,2,47c0.234,0.815-1.25,2.067-0.461,3.002c0.583,0.692,1.822,0.968,2.466,1.967
			c-1.178,2.927,2.755,4.597,3.286,7.716C7.635,61.708,9.462,62.468,11,62c-0.032,1.34-1.389,2.216-0.118,4.094
			c1.714,2.531,2.697,5.414,4.118,7.801c0.25,0.42,0.729,0.702,1,1.105c0.606,0.9,0.741,1.979,1,3
			c0.205,0.809,1.227,1.204,1.806,1.596C20.021,82.84,21.88,86.23,24,89c0.427,0.558,0.449,1.433,1,2c0.442,0.455,0.775,1.404,1,2
			c0.489,1.297,0.932,2.91,2.509,3.123c0.465,1.925,1.145,5.847,3.517,6.492c1.805,0.491,18.289,0.324,16.416,1.312
			c0.836-0.441,0.543-2.065,0.557-2.927h1.11c-0.135,0.624-0.141,1.362-0.11,2c0.077,1.578,2.007,0.873,3,1
			c3.181,0.408,6.031,0.346,7-3c-0.017,0.609-0.278,2.068,0.222,2.836C63.99,104.302,67.544,103.849,71,104
			c0.333,0.015,0.669-0.037,1,0c0.295,0.033,0.751-0.129,1,0c2.099,1.299,4.613,1,7,1h5h2h4h1c2.663,0,5.537,0.555,7.919-0.832
			c0.047,0.608,0.543,0.813,1.081,0.832c1.296,0.046,2.58-0.432,3.85-0.341l3.024,0.215l1.312-0.06
			c0.575-0.026,2.107,0.547,2.64-0.113c0.561-2.778-1.336-4.541-1.861-6.533c-0.353-1.34,0.503-3.189-0.966-4.168
			c0.171-1.835-0.729-3.731-2.252-4.844c0.55-1.871-0.068-3.5-0.748-5.156c-2.978-7.245-3.145-2.95-2.344-5.824
			c0.573-2.057-0.575-4.08-0.656-6.176c-0.015-0.399-0.738-0.759-1-1c-0.291-0.268-0.58-0.943-1-1l0.026-1.231
			c1.479-1.324-0.818-3.078-2.022-3.818c0.801-1.904-0.688-5.035-2.972-5.03l-0.018-1.832c3.93,0.138-0.459-3.825-0.976-7.199
			C96.626,48.723,95.709,45.887,94,44c0.09-2.519-1.164-4.709-2-7c-0.71-1.944-0.95-4.185-2-6c0.156-2.214-0.513-4.798-3-5
			c1.822-3.534,0.64-8.57-3-10c-1.469-0.577-2.35-0.722-4-1c-5.344-0.9-10.565-2.723-16-3c-0.321-0.016-0.688,0.069-1,0
			c-2.98-0.658-6.562-2.971-9.207-0.974l-0.848-0.092c0.279-0.171,0.081-0.6,0.016-0.864C52.427,7.913,49.785,9.847,48.396,10
			c-0.935-0.46-1.963-1.359-3.307-1.544c-1.236-0.17-2.737-0.098-3.157,1.612C41.02,9.404,40.016,9.498,39.085,10
			c-0.006-0.52,0.053-1.061,0.21-1.853C39.455,7.334,38.794,7.324,38,7c-0.982-0.401-1.899-0.942-3-1c-0.642-0.034-1.448,0.276-2,0
			l-2-1c-1.251-0.625-2.097,1.181-3,2c0.012-0.391,0.052-0.968-0.16-1.421C27.548,4.956,26.625,5,26,5h-1
			c-0.201-0.978-0.717-1.291-1.996-0.916l-0.164,5.629C21.732,9.297,21.334,8.066,21.087,7c1.164-0.04,1.205-1.803,0.846-2.467
			c-0.448-0.828-1.639-2.209-2.74-1.216c-0.126,0.558,0.889,1.709,0.602,2.423c-0.864-0.946-1.817-1.785-2.785-2.614
			c-0.516-0.442-0.559-1.282-1.452-1.104C14.625,2.208,13.772,2.498,13,3c-0.686-0.683-1.448-1.713-2.629-1.895
			C9.452,0.963,8.985,2.586,8,3C7.764,2.369,7.94,1.173,7.427,1.033C6.779,0.856,5.336,0.854,5.029,1.432
			C4.785,1.893,4.944,3.497,5.375,3.851C5.964,4.333,7.189,3.201,8,3z"/>
		<path style="fill:#D5D5D5;" d="M30.409,22.966C32.681,24.17,35.634,26.358,34,29c-0.183,0.9-0.522,0.863-1,0
			c-0.399,2.203-2.076,3.534-4,2c0.07,2.567-0.597,2.9-2,1c-0.602,1.168-1.355,1.661-2.258,1.478l-1.661,0.789l-0.517,1.259
			c0,0-2.521,0.158-7.564,0.473c1.654,0.769,2.971,1.721,3.951,2.856c1.35,1.58,2.913,2.892,4.69,3.936L24,45
			c2.425,2.364,4.447,2.941,6.066,1.732c1.478-1.796,2.749-1.55,4.299,0.016c2.045-0.806,3.872-2.037,5.48-3.696
			C39.025,42.624,39.09,42.275,40,42c-1.167-0.898-1.292-2.508-0.377-4.829L39,36c-0.017-1.306-0.35-2.306-1-3
			c-1.69-1.836-3.141-2.391-4.351-1.665L34,29c1.377-1.332,1.523-2.573,0.439-3.724l0.631-1.46C36.436,21.019,39.607,21.804,39,25
			c1.663,0.47,2.277,1.89,1.841,4.26c3.093-0.926,5.468-3.037,7.127-6.333c0.589-2.62,1.489-2.529,2.202,0.045
			c1.338,0.339,2.252,1.425,2.743,3.26c2.821-0.512,5.846-0.448,4.011,2.829C59.773,31.82,54.315,34.861,53,31
			c-1.404,1.134-2.261,0.867-3.657,0.277c-0.58,1.583-1.125,2.094-3.062,1.715c-2.255-0.679-2.591-0.619-1.008,0.182
			C43.644,33.84,43.917,34.597,45,36c0.873,0.284,0.86,0.618,0,1c-1.836,3.978-2.825,8.282-2.966,12.911
			c0.83,0.395,0.82,0.759-0.034,1.089c2.809,1.78,5.694,6.817,4.055,9.751C47.88,60.861,47.848,61.676,46,62
			c1.509,1.686,3.11,2.678,4.803,2.976c0.281-2.58,2.618-4.428,5.042-2.976c0.893-4.062,1.945-4.396,3.155-1
			c2.329,1.589,1.781,2.489-1,2c0.126,2.342-3.107,4.346-5.199,4.854C51.771,69.452,52.17,71.5,54,74c0.284-0.873,0.618-0.86,1,0
			c0.134-2.515,3.77-1.837,5,0c0.304-0.683,0.726-0.446,1.268,0.711C61.338,73.192,62.599,72.113,64,73c0.147-1.985,0.758-2.718,2-1
			l2,2h3c0.97,0.309,1.931,0.98,2.885,2.013c-0.497-2.095,0.257-5.452,3.01-4.013c0.914,0.181,0.934,0.517,0.105,1
			c-0.193,2.183,0.14,4.183,1,6c1.254-1.428,1.612-0.811,1,1c0.973-0.303,1.307,0.03,1,1c1.668-0.666,3.298,0.347,4.888,3.037
			C86.905,83.681,88.276,84.002,89,85c0.333-0.882,0.666-0.882,1,0c0.284-0.873,0.618-0.86,1,0c0.889-0.46,1.19-0.082,1,1
			c-0.311,2.727-1.229,2.592-2,0c-0.284,0.873-0.618,0.86-1,0c-0.392,1.573-2.501,2.67-4,2.118c0.719,1.173,0.258,2.226-1.383,3.158
			l-0.776,2.866l-0.249,1.212C81.212,95.742,80.015,96.625,79,98c-0.047,2.144-1.555,2.107-2,0c-0.114,0.836-0.462,0.781-1,0
			c-0.566-0.3-0.553-0.634,0-1l4.025-9.581l-0.337-2.587l0.097-0.514c-2.301-0.721-4.123-2.228-5.465-4.522
			c-3.905-1.283-5.656-0.958-5.253,0.975L67,82c1.605,0.363,1.271,1.363-1,3c-0.319,2.656-1.239,2.541-2,0
			c-0.388-0.588-0.825-1.126-1.266-1.645c-0.035-0.041,1.096,0.551,0.617,0.881c-2.785,1.924-3.679-0.59-2.637-3.758
			c0.18-0.47-0.058-1.5-0.714-3.087c-1.218,1.084-2.85,0.999-4.895-0.255c-3.028,0.831-3.819,0.166-3.669-3.076
			c-1.783,0.451-3.068-0.536-3.854-2.961c-2.7,0.305-4.255-0.363-4.666-2.005c-2.778,0.333-2.732-1.169-0.173-2.094
			c0.536-0.921,0.955-1.921,1.257-3c-2.69,0.017-3.234-0.842-1.903-3.213c1.175-1.322,1.101-1.656-0.223-1.003
			c-1.928-2.947-2.618-5.608-2.071-7.981c-0.606-0.831-1.363-0.95-2.272-0.358c-1.042,1.384-1.993,1.839-2.852,1.363l-0.808,0.029
			c-1.477-0.2-2.781-0.941-3.871-1.969c-1.37,1.792-2.037,1.836-2,0.131l-0.422,1.266C25.777,52.182,24.917,52.426,25,53v1
			c-0.887,1.268-1.591,3.253-2.113,5.955C24.238,59.041,24.771,59.55,24,61c2.2,1.048,1.929,1.147-0.352,1.808
			C23.577,64.765,20.871,66.134,19,66c2.316,1.541,2.679,2.048-0.114,3.091c-2.998,0.435-5.93-3.195-4.608-5.996
			c0.629-1.09,0.332-2.166-0.892-3.23c0.124-1.916-0.641-3.504-2.294-4.764c-1.988,1.887-5.743-1.177-7.087-3.131
			c-0.644-0.999-1.883-1.275-2.466-1.967C0.75,49.067,2.234,47.815,2,47c1.718-1.16,2.059-0.752,2.037,1.16
			c2.485-0.078,6.305-0.142,6.926,2.732c2.076-1.366,4.285,0.017,4.914,2.268c1.067-0.579,2.041-1.395,2.921-2.449
			c1.027-0.834,2.115-1.053,3.265-0.659C25.805,50.664,19.091,45.754,18,45c-1.663-0.473-2.663-1.806-3-4
			c-2.042,0.237-3.515-2.262-4-4c-0.284,0.873-0.618,0.86-1,0c-0.276,1.775-0.942,2.442-2,2c-3.562-0.687-0.654-1.152-0.46-0.752
			C7.675,38.525,4.366,39.888,4,38c0.212,2.114-1.481,2.419-3,1c-0.111-0.955-0.067-2.04,0-3l1.74-1.438
			C4.86,35.039,6.947,35.518,9,36l2-2c0.995-1.171,2.396-1.776,4.204-1.815c2.811-0.419,3.486-1.874,2.024-4.366
			C15.147,26.329,15.646,25.599,18,25c0.284-0.873,0.618-0.86,1,0c1.474,0.627,2.954,1.601,4.44,2.92
			c5.718,0.679,5.861-1.487,0.429-6.498l-0.643-2.48c-2.695-0.404-4.072-3.286-1.428-4.889C21.658,12.142,22.436,12.106,23,14
			c1.717-0.345,3.109,0.584,4.177,2.787C31.048,19.246,32.126,21.306,30.409,22.966z"/>
		<path style="fill:#D3D3D3;" d="M74,36c2.572,0.648,5.088,0.747,7.549,0.299l2.288,0.625C83.782,34.98,84.558,35.032,85,37
			c0.599-3.308,1.863-3.994,3.793-2.058C90.267,34.111,90.959,35.701,90,37c1.673,1.732,3.006,4.066,4,7
			c1.709,1.887,2.626,4.723,1.037,6.89c-0.64,1.54-1.939,2.624-3.897,3.252c0.567,1.86-0.194,2.015-1.14,0.234
			c-2.601-0.731-2.791-1.662-0.819-3.466c2.01-2.245,1.949-4.849-0.181-7.813c-0.294-2.163-0.294-2.163,0,0
			c1.182,2.316-0.735,4.435-3,4.904c1.39,1.523,0.774,2.068-1,1c-2.592-0.272-3.234-3.753-1.057-5.065c1.201-3.6,1.201-3.6,0,0
			c0.105,1.382-1.066,1.99-3.515,1.822C79.377,47.677,78.901,49.758,79,52c0.882,0.224,0.855,0.56,0,1
			c1.838,1.52,2.936,4.796,2.11,7.066c1.741,0.223,1.846,1.315,1.798,2.78c2.842,0.311,5.148-0.28,6.919-1.772
			c1.645-0.3,3.837-0.052,3.173,1.927c2.089-0.03,3.977,0.12,5.664,0.451l0.34,1.499c1.022,1.058,1.688,2.468,2.022,3.818L101,70
			c-1.049,0.151-2.382,0.151-4,0c-1.119,0.748-2.018,1.662-2.696,2.74c0.533,1.924-0.282,2.113-1.315,0.344
			C91.377,71.256,89.906,68.965,89,67l-1.431-0.278C86.726,68.847,86.509,68.208,86,66c-1.139,1.717-2.123,1.519-3.617,0.853
			c-0.889,1.411-1.42,2.048-3.333,1.234c-2.247,0.046-1.957-0.821-0.197-2.042c-0.804,0.236-1.004-0.061-0.643-0.853
			c-0.821-0.343-0.746-0.637,0.155-0.885l-2.816-9.201L77,53l-4-2.209c-2.22-2.015-0.882-3.672,2-2.791c1.72-5.282,0.72-7.949-3-8
			c-2.554,1.391-3.129-0.023-1-2l-3-1c-1.702-0.501-3.036-1.167-4-2c-1.949,0.185-1.939-0.628,0-1.247
			C65.527,30.36,71.725,34.141,74,36z"/>
		<path style="fill:#393939;" d="M43,94.134c1.408-0.657,2.732,0.32,3.974,2.929c1.352-1.36,1.781-0.782,1.063,1.031
			C50.155,97.77,49.996,99.425,49,101c-0.014,0.862,0.279,2.486-0.557,2.927c1.872-0.988-14.612-0.821-16.416-1.312
			c-2.372-0.645-3.052-4.567-3.517-6.492c-1.817-0.602-0.996-6.204-0.413-6.579C29.135,88.876,42.485,91.423,43,94.134z"/>
		<path style="fill:#D3D3D3;" d="M103.656,78.176C102.855,81.05,103.022,76.755,106,84c-0.643,1.822-0.394,3.541,0.748,5.156
			c0.495,1.802,1.245,3.266,2.252,4.844c1.469,0.979,0.613,2.828,0.966,4.168c0.748,3.184,0.488,5.4-0.78,6.646l-1.312,0.06
			c-1.572-1.693-2.58-1.765-3.024-0.215c-1.271-0.09-2.554,0.388-3.85,0.341c-0.961-1.226-0.915-3.657,0-5
			c-1.935-0.46-2.613-2.819-1.136-4.163c-2.536-1.564-2.429-6.508-0.997-8.934C95.614,87.627,93.325,87.326,92,86
			c-0.297-0.368-0.632-0.703-1-1c-0.424-2.47,2.969-3.451,4-1c0.255-0.882,0.633-0.936,1.131-0.163l0.783-2.069
			c1.962,0.104,2.707-1.145,2.233-3.746C100.156,74.963,102.764,75.203,103.656,78.176z"/>
		<path style="fill:#1C1C1C;" d="M80,15c-0.765,2.654-2.722,4.978-5.87,6.971c0.216,0.484,0.382,0.967,0.37,1.446
			c-0.006,0.251-4.419,1.544-4.67,1.565C69.583,25.003,69.297,24.567,69,24c-2.602,1.055-5.266-3.7-4-6l-1.493-1.933
			C62.141,16.344,62.306,14.988,64,12C69.435,12.277,74.656,14.1,80,15z"/>
		<path style="fill:#4B4B4B;" d="M44,91c1.372,2.987,1.038,4.031-1,3.134c-4.656-0.279-9.022-1.792-14.292-3.146
			c-0.523,1.64-0.568,3.612-0.199,5.135C26.932,95.91,26.489,94.297,26,93c-0.199-1.521,0.134-2.521,1-3
			c-0.351-0.364-0.615-0.717-0.577-1.034c0.047-0.386,0.879-6.528,1.215-6.54c4.866,3.219,9.776,4.764,14.732,4.633
			C43.172,88.059,43.716,89.372,44,91z"/>
		<path style="fill:#B0B0B0;" d="M89,67c0.325,1.406,1.448,2.874,3.369,4.403l0.621,1.681c0.408-0.153,0.938-0.126,1.315-0.344
			C94.56,71.136,95.133,69.28,97,70c1.638-0.178,3.305,0.156,5,1c0.262,0.241,0.985,0.601,1,1c-0.81,2.563-1.829,2.802-3.787,1
			c-2.104-0.326-2.104-0.326,0,0c2.989,0.116,2.7,4.515-0.065,5.022c0.267,2.006-1.396,4.658-3.016,5.816
			C95.765,83.874,95.366,84.024,95,84c-2.046,0.319-2.26-1.311-2.37-2.934C91.683,80.858,91.104,81.124,91,82
			c1.85,0.994,0.538,1.948-1,3c-0.33,0-0.671-0.033-1,0c-0.676-0.809-2.047-1.13-4.112-0.963l-1.318-0.177
			C83.36,81.735,82.17,80.782,80,81c-0.257-0.366-0.681-0.68-1-1c-0.448-0.88-0.069-1.181,1-1c0.4-1.517,1.066-2.517,2-3
			c2.273-0.044,2.907-1.609,1.902-4.697L85,69c-2.179-1.545-1.555-2.43,1-3C87.313,66.059,87.936,66.377,89,67z"/>
		<path style="fill:#1F1F1F;" d="M84,16c3.64,1.43,4.822,6.466,3,10c0.303,0.87-0.064,1.07-1,0.703
			c-0.431,2.303-1.765,2.401-4,0.297l-5-2c-4.747-0.876-4.923-2.494-0.527-4.852C78.588,16.661,81.097,15.278,84,16z"/>
		<path style="fill:#686868;" d="M4,25c5.431-0.136,7.565,7.596,5,11c-2.734,0.427-5.427,1.365-8,0c0.257-3.708-0.835-7.66,1-11
			C2.674,23.53,3.862,23.069,4,25z"/>
		<path style="fill:#C3C3C3;" d="M52.961,10.071c-1.563,1.345-1.568,1.633-0.016,0.864l0.848,0.092
			C56.281,12.398,55.875,15.547,53,16c1.248,0.51,0.914,1.176-1,2c3.061,1.323,1.388,5.129-1.829,4.971l-2.202-0.045
			C45.811,23.249,43.488,23.274,41,23c-1.258-1.98-2.84-3.803-4.747-5.47L37,15c-0.873-0.284-0.86-0.618,0-1
			c0.265-0.825,0.6-0.807,1,0c1.798-0.453,3.767,0.739,5.907,3.577c0.524-0.854,1.255-1.432,2.193-1.734
			c0.768-1.932,1.533-3.879,2.297-5.843C49.785,9.847,52.427,7.913,52.961,10.071z"/>
		<path style="fill:#464646;" d="M69,97c1.397-2.438,2.541-1.676,2,1c2.978,0.072,0.953,4.117,0,6
			c-3.456-0.151-7.01,0.302-10.778-0.164c-0.5-0.768-0.239-2.227-0.222-2.836c0.158-2.441,0.293-3.823,3-3
			c-0.637-1.907,0.685-2.454,3.965-1.641C67.789,94.526,68.231,95.222,69,97z"/>
		<path style="fill:#545454;" d="M14.278,63.094c1.632,1.877,3.37,3.841,4.608,5.996c1.097,0.282,2.018,5.369,1.819,5.606
			c-0.188,0.224-5.159-0.352-5.704-0.802c-1.421-2.386-2.404-5.27-4.118-7.801C9.611,64.216,10.968,63.34,11,62
			c0.52-1.747,0.852-2.633,2.139-1.018C14.723,60.393,15.389,61.83,14.278,63.094z"/>
		<path style="fill:#D1D1D1;" d="M21,71c0.831,0.987,1.498,1.987,2,3c0.139-1.028,0.555-1.393,1.247-1.097
			c1.23-1.654,2.838-2.955,4.824-3.903c3.642-1.294,6.037-0.998,7.184,0.887c1.215,1.483,0.589,2.529-1.032,3.245
			c-1.026,2.494-2.805,1.711-4.188-0.053C30.61,75.863,29.707,75.826,28,74c-1.019,1.53-1.714,1.82-2.084,0.871
			c-0.14,1.378-1.174,2.195-3.102,2.452l-0.89,1.907c-1.132,2.29-1.564,1.974-3.118,0.365C18.227,79.204,17.205,78.809,17,78
			c0.171-1.169-0.129-2.236-1-3c-0.271-0.403-0.75-0.685-1-1.105c1.454,0.019,2.939,0.214,4.543-0.088
			c-0.223-1.901-0.712-3.25-0.658-4.717C20.342,66.76,23.203,67.666,21,71z"/>
		<path style="fill:#4E4E4E;" d="M21.924,79.231C23.343,76.95,24.167,77.334,24,80c2.436-0.679,5.797,3.246,3.653,4.49
			C27.689,87.019,26.383,91.366,24,89c-2.12-2.77-3.979-6.16-5.194-9.404C19.042,78.542,21.119,78.933,21.924,79.231z"/>
		<path style="fill:#626262;" d="M41.932,10.068c2.705-1.447,6.148,3.596,4.168,5.774c0.007,1.495,0.499,2.629-0.592,3.244
			C42.436,20.818,40.866,17.345,38,14c-0.246-1.351,0.115-2.684,1.085-4C40.016,9.498,41.02,9.404,41.932,10.068z"/>
		<path style="fill:#D2D2D2;" d="M17.01,3.126c-0.693,0.861,0.235,2.34,2.786,4.435c2.003,2.214,2.67,4.378,2,6.493
			c-0.673,1.678-1.965,1.806-3.875,0.384c-0.843,1.745-1.879,2.444-3.841,1.707c-1.636-0.693-1.75-1.686-1.489-3.124
			C10.529,13.278,9.332,12.605,9,11c-1.543-1.493-0.709-2.9,1-4l2.432-0.508C14.539,9.219,14.395,8.389,12,4
			c-1.447-1.405-0.819-1.994,1-1c0.772-0.502,1.625-0.792,2.558-0.978C16.452,1.844,16.495,2.684,17.01,3.126z"/>
		<path style="fill:#484848;" d="M11.092,55.1c0.867,0.183,0.864,0.5,0.052,0.942C12.211,58.649,12.163,60.635,11,62
			c-1.538,0.468-3.365-0.292-3.709-2.316c-0.53-3.118-4.463-4.789-3.286-7.716C6.925,51.396,8.935,53.431,11.092,55.1z"/>
		<path style="fill:#2E2E2E;" d="M63,12c1.005,0.27,0.99,2.582,0.702,3.484c-0.181,0.566-11.233,1.792-11.078,0.801
			C52.642,16.173,52.801,16.083,53,16c0.216-1.663,0.306-3.354,0.793-4.974C56.438,9.029,60.02,11.342,63,12z"/>
		<path style="fill:#484848;" d="M59,97c2.523-0.197,2.857,1.137,1,4c-0.969,3.346-3.819,3.408-7,3
			c-0.733-0.22-1.305-0.444-1.311-0.683C51.679,102.943,54.216,97.084,55,97C56.51,96.035,57.593,95.674,59,97z"/>
		<path style="fill:#686868;" d="M48.396,10c0.806,2.033,1.142,4.173,0.543,7.073l-2.84-1.23l-4.168-5.774
			c0.42-1.71,1.921-1.782,3.157-1.612C46.433,8.641,47.461,9.54,48.396,10z"/>
		<path style="fill:#B1B1B1;" d="M12,43c1.067,1.393,2.053,3.093,2.959,5.098c1.134,2.84-1.301,4.437-3.996,2.793l-2.229-1.048
			c0.21-2.244-1.356-2.805-4.697-1.684C3.118,48.695,2.53,47.645,2,47c-0.212-0.738-1.412-1.357-1.061-2.43
			C1.129,43.991,0.995,42.855,2,43c0.548,0.072,0.61,0.398,0.289,0.924C3.875,43.13,5.751,42.822,7.915,43
			c0.422-1.999,1.117-3.999,2.085-6h1C13.065,38.324,13.667,41.083,12,43z"/>
		<path style="fill:#A8A8A8;" d="M86,26.703c1.815,0.38,3.148,1.812,4,4.297c1.05,1.815,1.29,4.056,2,6
			c-0.646,0.666-1.313,0.666-2,0c-0.142-0.622-1.397-1.217-1.207-2.058C87.748,33.524,86.483,34.21,85,37l-1.163-0.076
			c-0.468,0.022-0.922,0.007-1.328-0.141c-0.374-0.136-1.003-6.469-1.045-7.501C81.432,28.477,81.638,27.72,82,27
			C83.334,26.921,84.672,26.872,86,26.703z"/>
		<path style="fill:#6D6D6D;" d="M8,5c2.219-0.876,2.698-0.378,2,2c-0.212,0.595,0.763,1.601,0.578,2.441
			C10.415,10.179,9.336,10.374,9,11c-1.585,2.655-2.662,2.93-4,0c-1.501,1.557-2.13,0.924-1-1c0.59-1.141-0.684-3.245,0.089-4.44
			C4.832,4.409,6.819,5.126,8,5z"/>
		<path style="fill:#A6A6A6;" d="M91.139,95.092C92.7,95.188,93.654,96.157,94,98c2.401-0.365,3.226,1.354,0.917,2.31
			c0.899,2.207-0.135,2.248-1.917,0.69c-1.812-0.278-2.792-1.178-2.942-2.701c-0.428,0.207-0.828,0.341-1.132,0.225
			c-1.458-0.556-0.536-2.193,0.397,0.475c0.785,0.497,0.735,0.902-0.144,1.215c-0.119,2.28-0.845,3.875-2.178,4.785h-2l-1.934-3.827
			c-2.387-0.459-2.343-1.62,0.047-2.218c1.613-0.935,1.465-1.897-0.047-2.845c-2.096,0.034-2.137-0.976-0.225-1.969
			c0.211-2.703,0.999-2.707,3.049-1.252C88.609,92.472,90.358,93.206,91.139,95.092z"/>
		<path style="fill:#CFCFCF;" d="M28,7c0.997,0.089,1.997-0.577,3-2l2,1c0.608,1.341-0.059,3.341-2,6c-0.84,2.207-6.295,3.761-8,2
			c-1.112-1.37-2.064-3.702-0.159-4.287C23.565,8.093,24.285,6.522,25,5h1c1.551,0.582,0.833,3.576,0.405,5.116
			C26.35,10.316,26.352,6.121,28,7z"/>
		<path style="fill:#383838;" d="M99.709,101.386c0.934,0.679,0.969,1.929,0.21,2.782C97.537,105.555,94.663,105,92,105
			c-0.965-1.092-0.208-3.071,1-4c0.312-0.313,1.091-0.516,1.483-0.958C95.097,99.349,93.923,98.549,94,98
			c-2.202-1.119-1.408-2.996,1-3c0.499-1.073,1.76-0.457,3.784,1.847C99.01,98.564,99.318,100.076,99.709,101.386z"/>
		<path style="fill:#D9D9D9;" d="M76,98c0.33-0.031,0.668,0,1,0c1.059,0.244,1.548,1.296,1.467,3.155
			c2.538-1.397,3.571,0.724,1.598,2.698c1.94-0.07,1.897,0.698-0.066,1.147c-2.387,0-4.901,0.299-7-1c0.173-1.551,0.507-3.217,1-5
			c-0.873-0.284-0.86-0.618,0-1c-0.453-0.883-0.074-1.185,1-1C75.408,96.88,75.741,97.213,76,98z"/>
		<path style="fill:#535353;" d="M95,57c0.911-0.17,1.249,0.193,1.013,1.089l0.018,1.832c-2.279,1.877-4.588,2.03-6.943,0.128
			c-1.349,0.252-1.491-0.514-0.426-2.298C87.296,56.51,87.408,55.926,89,56c-2.171-1.715-1.611-2.559,1-1.625l1.14-0.234
			C92.434,54.933,93.721,55.886,95,57z"/>
		<path style="fill:#3C3C3C;" d="M103,72c0.081,2.095,1.23,4.119,0.656,6.176c-1.455-0.016-3.061-0.531-4.509-0.154L99.213,73
			C100.322,72.229,101.671,72.025,103,72z"/>
		<path style="fill:#535353;" d="M17.01,3.126c0.967,0.829,1.921,1.668,2.785,2.614c1.472-0.903,1.941-0.312,1.291,1.26
			c0.247,1.066,0.646,2.297,1.754,2.713C22.803,11.004,22.818,12.77,23,14c-0.378-0.057-0.833,0.143-1.203,0.053
			c-0.309-3.565-3.774-5.847-5.764-9.38C14.409,3.461,15.391,2.506,17.01,3.126z"/>
		<path style="fill:#363636;" d="M99.004,64.951c-1.268-0.66-2.338,0.186-3.532,0.216C94.118,65.2,93.286,64.454,93,63
			c-0.665-1.414,0.346-2.44,3.031-3.079C98.316,59.916,99.805,63.047,99.004,64.951z"/>
		<path style="fill:#393939;" d="M95.037,50.89c0.517,3.375,4.907,7.337,0.976,7.199C95.587,57.811,95.304,57.396,95,57l-3.86-2.858
			c-0.016-0.952-0.168-2.357,0.689-2.89C92.827,50.631,94.064,50.921,95.037,50.89z"/>
		<path style="fill:#DCDCDC;" d="M51,88c2.42,0.209,2.371,1.35,0,2c0.925,0.275,0.911,0.609,0,1
			c1.844,1.306,4.409,4.346,1.884,6.041c-0.586,1.917-1.511,3.237-2.774,3.959H49c-0.282-0.965-0.465-2.018-0.963-2.906
			c-0.32-3.232-0.323-6.556-0.009-9.97L50,87C50.889,86.54,51.19,86.918,51,88z"/>
		<path style="fill:#909090;" d="M65,18l-1.126,0.805c-2.972-0.577-6.363-0.27-10.174,0.92L52,18c0.043-0.771,0.795-1.383,1-2
			c-3.18,1.225,14.011-0.696,10-4c0.312,0.069,0.679-0.016,1,0C63.848,14.057,64.456,16.035,65,18z"/>
		<path style="fill:#6C6C6C;" d="M35,6c2.374,0.756,1.823,2.487-1.653,5.193c1,2.016-0.544,1.838-2.347,0.807
			c-0.433-1.083-1.595-0.68-3.096-1.471C30.249,9.642,31.89,8.071,33,6C33.552,6.276,34.358,5.966,35,6z"/>
		<path style="fill:#C5C5C5;" d="M38,7l0.385,1.283C36.637,10.024,36.176,11.93,37,14v1c-1.299,3.37-8.084,0.074-6-3
			c1.193-0.727,6.51-4.434,4-6C36.101,6.058,37.018,6.599,38,7z"/>
		<path style="fill:#6D6D6D;" d="M13,3c-0.297,0.345-0.787,0.587-1,1c2.166,1.963,0.69,3.631-2,3C9.287,6.414,8,6.126,8,5V3
			c0.985-0.414,1.452-2.037,2.371-1.895C11.552,1.287,12.314,2.317,13,3z"/>
		<path style="fill:#5F5F5F;" d="M39.085,10c-0.539,1.48-1.234,2.813-2.085,4c-0.943-0.678-2.295-0.552-3.462-1.983
			C35.355,9.934,37.105,8.865,38,7c0.794,0.324,1.455,0.334,1.295,1.147C39.138,8.939,39.079,9.48,39.085,10z"/>
		<path style="fill:#5C5C5C;" d="M109.186,104.814c-0.08-2.243-0.777-4.815,0.78-6.646c0.524,1.992,2.422,3.755,1.861,6.533
			C111.294,105.36,109.762,104.787,109.186,104.814z"/>
		<path style="fill:#323232;" d="M89.178,100.215c1.879-0.549,2.307-0.137,1.822,1.785c1.379-0.121,0.862,2.162,0,3h-4
			c-0.083-1.059-0.251-2.101-0.19-3.531C86.851,100.491,87.899,99.941,89.178,100.215z"/>
		<path style="fill:#AAAAAA;" d="M4,38c1.179,0.175,2.179,0.842,3,2c1.959-0.267,2.558,1.992,0.915,3
			c-1.374,0.86-3.249,1.168-5.627,0.924C2.13,43.69,2.049,43.282,2,43c-0.233-1.347-0.842-2.64-1-4C1.916,38.449,2.945,38.145,4,38z
			"/>
		<path style="fill:#363636;" d="M85,105h-5l0.066-1.147c-0.305-2.274,0.753-3.254,3-2.68c1.027,0.02,2.781-0.073,2.952,1.306
			C86.127,103.369,85.417,104.307,85,105z"/>
		<path style="fill:#6D6D6D;" d="M4.004,16.994c3.527-1.734,3.881,1.457,1.179,3.787C4.295,22.963,3.234,24.036,2,24l0.028-6.061
			C2.032,16.938,3.484,16.988,4.004,16.994z"/>
		<path style="fill:#939393;" d="M84,16c-4.749-0.534-4.859,4.444-10.033,6.442C75.188,23.865,76.365,24.135,77,25
			c-0.17,1.699-1.77,2.154-4.801,1.364c0,0-0.733,0.879-2.199,2.636c-1.64,1.934-2.588,1.51-3-1c-1.399-1.978-0.148-3.504,2-4
			c4.833-0.771,7.894-5.397,11-9C81.65,15.278,82.531,15.423,84,16z"/>
		<path style="fill:#505050;" d="M92,37c0.836,2.291,2.09,4.481,2,7c0.1,0.974-0.755,1.3-1.034,0.265
			C92.094,41.421,90.545,39.387,90,37c-0.102-0.861,0.508-1.229,1.022-0.638C91.333,36.718,91.761,36.793,92,37z"/>
		<path style="fill:#525252;" d="M25,5c-0.186,2.187,0.396,4.298-0.298,7.098c-0.993-0.886-0.82-1.995-1.861-2.385l0.164-5.629
			C24.283,3.709,24.799,4.022,25,5z"/>
		<path style="fill:#5C5C5C;" d="M107.874,104.874l-3.024-0.215c-0.276-1.081-1.028-1.935-0.833-3.469
			c1.342-0.194,3.298-0.719,3.902,0.321C108.409,102.352,107.694,103.958,107.874,104.874z"/>
		<path style="fill:#6C6C6C;" d="M106.748,89.156c-0.923-0.675-2.55-0.625-2.908-2.128c-0.316-1.326,0.843-2.542,2.16-3.028
			C106.68,85.655,107.298,87.285,106.748,89.156z"/>
		<path style="fill:#494949;" d="M52.884,97.041c1.828,1.142-0.299,7.724-2.884,5.959c-0.031-0.638-0.025-1.376,0.11-2
			C50.492,99.233,50.642,96.777,52.884,97.041z"/>
		<path style="fill:#4F4F4F;" d="M101.026,68.769c-1.137-0.701-2.568-0.6-3.927-1.7c0.88-1.105,2.415-1.122,1.905-2.118
			C100.208,65.691,102.505,67.445,101.026,68.769z"/>
		<path style="fill:#383838;" d="M90,31c-1.774-0.958-3.313-2.372-4-4.297c0.321-0.252,0.655-0.486,1-0.703
			C89.487,26.202,90.156,28.786,90,31z"/>
		<path style="fill:#B0B0B0;" d="M55,97c-1.005,2.228-2.004,4.526-2,7c-0.993-0.127-2.923,0.578-3-1
			c2.244,0.277,3.491-3.97,2.884-5.959C53.452,95.153,54.355,95.127,55,97z"/>
		<path style="fill:#5A5A5A;" d="M5,11c0.873,0.284,0.86,0.618,0,1c0.843,1.998,0.199,4.827-2,3c-1.984-1.411,0.177-3.407,1-5
			C4.104,10.426,4.509,11,5,11z"/>
		<path style="fill:#A7A7A7;" d="M74,98v1c0.06,1.705-0.849,3.751-2,5c-0.331-0.037-0.667,0.015-1,0c0.065-2.066,1.482-4.254,0-6
			C71.064,95.14,73.324,95.267,74,98z"/>
		<path style="fill:#6A6A6A;" d="M4.004,16.994C3.52,16.515,3.565,15.402,3,15c1.329-0.39,2.014-1.661,2-3
			C8.39,10.499,8.14,20.597,4.004,16.994z"/>
		<path style="fill:#696969;" d="M109,94c-0.896-0.446-1.853-0.953-2.445-2.003c-0.443-0.787-0.087-1.889,0.193-2.841
			C108.271,90.269,109.171,92.165,109,94z"/>
		<path style="fill:#404040;" d="M73,104c-0.249-0.129-0.705,0.033-1,0c0.417-1.76,0.519-3.796,2-5
			C75.935,100.399,73.593,102.291,73,104z"/>
		<path style="fill:#676767;" d="M28,7c-1.043,0.946-0.632,2.312-1.498,4.071C25.392,9.091,26.261,7,26,5
			c0.625,0,1.548-0.044,1.84,0.579C28.052,6.032,28.012,6.609,28,7z"/>
		<path style="fill:#6F6F6F;" d="M8,3C7.189,3.201,5.964,4.333,5.375,3.851C4.944,3.497,4.785,1.893,5.029,1.432
			c0.306-0.578,1.749-0.576,2.398-0.399C7.94,1.173,7.764,2.369,8,3z"/>
		<path style="fill:#747474;" d="M52.961,10.071c0.065,0.263,0.263,0.693-0.016,0.864c-0.762,0.467-0.345,2.234-1.405,2.789
			c-1.001,0.523-1.337-1.877-0.88-2.76C51.093,10.124,51.979,9.929,52.961,10.071z"/>
		<path style="fill:#424242;" d="M17,78c-0.259-1.021-0.394-2.1-1-3l4.111,0.001C19.322,76.7,18.128,77.295,17,78z"/>
		<path style="fill:#696969;" d="M31,5c0.005,1.498-0.832,2.56-2.482,3.968C27.758,8.635,27.978,7.732,28,7
			C28.903,6.181,29.749,4.375,31,5z"/>
		<path style="fill:#585858;" d="M21.087,7c-0.38-0.468-0.887-0.818-1.291-1.26c0.287-0.714-0.729-1.865-0.602-2.423
			c1.1-0.993,2.291,0.389,2.74,1.216C22.292,5.197,22.25,6.96,21.087,7z"/>
		<path style="fill:#D0D0D0;" d="M4,25H2c0.136-0.248-0.001-0.709,0-1c0.938-1.225,1.971-2.291,3.183-3.219
			C7.675,22.374,6.742,24.212,4,25z"/>
		<path style="fill:#4F4F4F;" d="M101,70c0.42,0.057,0.709,0.732,1,1c-1.679,0.233-3.677-0.297-5-1
			C97.715,68.251,99.53,69.801,101,70z"/>
		<path style="fill:#323232;" d="M27,90c-0.278,1.01,0.429,2.595-1,3c-0.225-0.596-0.558-1.545-1-2
			C24.267,89.434,25.985,88.798,27,90z"/>
		<path style="fill:#AEAEAE;" d="M28,74c0.805,2.374,1.253,5.153,1.344,8.337c2.994,0.555,5.885,1.417,8.673,2.586L39,83.958
			c1.938-0.897,3.271-2.549,4-4.958c0.009-3.058,6.122-3.689,7.126-0.898c0.468,2.076-0.575,3.312-3.128,3.707l-0.903,2.725
			C46.531,87.669,45.832,89.824,44,91c-2.807-3.943-10-3.861-15.758-7.289C27.906,86.447,27.5,88.186,27,90
			c-0.8-0.023-1.682,0.19-2,1c-0.551-0.567-0.573-1.442-1-2c2.758,0.252,3.156-1.961,3.162-4.482C27.167,82.603,26.004,80.742,24,80
			c-0.184-2.43,0.455-4.14,1.916-5.129C26.174,74.124,27.769,74.522,28,74z"/>
		<path style="fill:#2A2A2A;" d="M101,105c-0.538-0.019-1.034-0.224-1.081-0.832c-0.071-0.911-0.322-1.862-0.21-2.782
			c-1.732-1.439-0.451-2.84,1.291-1.386V105z"/>
		<path style="fill:#969696;" d="M92,105h-1v-3c-1.141-2.269,0.4-2.808,2-1L92,105z"/>
		<path style="fill:#323232;" d="M65,18c1.506,1.085,3.158,4.226,4,6c0.122,1.618-0.634,3.128-2,4
			c2.34,2.683-1.806,4.418-3.113,1.276c-3.409,2.455-5.73,2.384-6.963-0.215c-0.347-1.914-2.708-0.642-4.424-0.92
			c-1.545-0.25-2.947-3.688-2.329-5.169C50.841,21.366,51.898,19.833,52,18l9.938-1.798C63.043,16.003,64.34,17.524,65,18z"/>
		<path style="fill:#262626;" d="M50,41c2.899,1.233,4.232,3.566,4,7c0.178,2.516,0.886,4.808,2.124,6.876
			c3.266,0.403,1.095,4.992-0.279,7.124c-1.574,1.225-2.97,2.814-5.042,2.976c-2.206,0.697-3.266-0.982-1.858-2.727
			C46.805,62.026,46.592,60.421,48,59c-2.086-1.805-1.73-2.526,1-2c0.16-1.148-0.163-2.176-1-3c-1.88,2.37-3.836,0.768-3-2
			c-2.126-0.797-2.46-2.464-1-5c-1.868-1.934,0.075-8.243,3.013-8C49.106,38.119,50.044,38.72,50,41z"/>
		<path style="fill:#5A5A5A;" d="M31,12c1.547,1.707,3.76,2.596,6,3c2.347,4.445,5.992,3.437,4,8c2.342,1.954,0.429,4.029-2,2
			c-1.121-0.966-2.626-0.795-3.929-1.184c-1.53,2.62-3.416,1.45-4.661-0.85C30.562,20.998,25.409,19.805,23,14
			C25.416,12.47,28.139,11.577,31,12z"/>
		<path style="fill:#494949;" d="M51.436,74.06c1.941,2.402,2.284,4.368-1.31,4.042L43,79c-1.405,1.325-1.92,0.767-1-1
			c-2.637,0.648-2.917-0.094-1.024-1.976c-1.8-0.932-1.08-2.605,0.024-4.024c-2.958-1.916-1.008-4.877,1.916-2.906
			c1.59,0.147,4.192-0.735,5.874,0.444C49.935,70.341,50.343,72.639,51.436,74.06z"/>
		<path style="fill:#575757;" d="M21.797,14.053c0.145,1.667,1.588,3.137,1.428,4.889C25.912,20.899,21.721,26.484,19,25h-1
			c-1.478,1.124-2.012,0.569-0.974-1.026L13,21c-2.028-0.791-2.802-2.324,0-3c-2.297-1.623-1.608-2.672,1.081-1.856
			c0.989-0.907,1.967-2.547,3.057-4.118C19.138,12.349,20.271,13.683,21.797,14.053z"/>
		<path style="fill:#6E6E6E;" d="M19,25c1.283-1.835,3.299-3.883,4.226-6.058c4.079,1.224,5.714,6.154,8.297,9.604l-5.658,1.359
			C22.41,30.734,18.958,28.226,19,25z"/>
		<path style="fill:#ADADAD;" d="M38,33c1.514,1.492,0.883,2.14-1,1c-1.366-0.948-2.032-0.948-2,0c-0.733,1.378-0.733,1.378,0,0
			c-0.219-1.442,0.448-1.442,2,0c1.461-0.283,1.817,0.606,2,2c0.642,0.958,0.676,2.428,0.102,4.411c0,0,0.299,0.53,0.898,1.589
			l-0.155,1.052c-0.936,1.661-1.908,2.733-3.223,1.058c-2.456,1.618-3.473,0.287-1.577-1.919c0.455-3.905-0.21-4.245-1.995-1.021
			C32.384,43.89,30.858,43.63,30,41c-2.656-0.319-2.541-1.239,0-2c-0.366-2.117-1.033-2.784-2-2c-0.284,0.873-0.618,0.86-1,0
			c-0.984-0.514-1.984-0.387-3,0.381c-0.023,1.429-1.448,1.762-2.73,1.564c-0.82,2.31-1.593,2.28-2.32-0.089
			C17.44,38.015,16.123,37.063,15,36c0.724-1.186,6.31-2.16,8.081-1.732c0.142-0.52,0.315-0.945,0.595-1.034
			c4.851-1.547,2.448,0.532,2.436,0.016C26.104,32.84,26.495,32.421,27,32l2-1c1.334,1.153,2.667,0.486,4-2
			c0.311-0.08,0.682,0.053,1,0C35.331,30.525,37.927,30.785,38,33z"/>
		<path style="fill:#5B5B5B;" d="M47.969,22.927c0.731,3.081-0.294,5.164-3.29,6.879c-1.925,1.102-5.005,2.609-6.232-0.139
			C38.057,28.468,39.578,26.332,39,25c1.138-0.08,1.306-1.49,2-2c1.48-1.089,3.002-1.961,5.174-3.322L47.969,22.927z"/>
		<path style="fill:#A5A5A5;" d="M63.887,29.276L64,33.753V35c0.243,0.91-0.09,1.243-1,1c-3.49,2.663-5.824,2.951-7.003,0.864
			c-1.922,2.306-6.943,3.562-8.982,1.013C45.861,35.47,49.871,29.553,53,31c1.627,0.288,3.295-0.362,3.924-1.94
			C59.25,29.052,61.592,28.838,63.887,29.276z"/>
		<path style="fill:#4B4B4B;" d="M35.035,57.823L40,60c1.236-2.496,2.257-2.025,2.097,0.787C42.933,61.735,43.717,62.744,44,64
			c0.918,1.421,0.315,1.836-1.131,0.961c-1.162,4.439-4.624,5.431-6.644,1.26c-4.205-1.929-6.308-2.894-6.308-2.894
			C31.673,57.606,33.38,55.772,35.035,57.823z"/>
		<path style="fill:#B2B2B2;" d="M34.68,52.808c0.869,0.412,1.243,1.14,1.198,2.136c2.39,1.247,1.893,2.817-0.843,2.878
			c-1.922-0.307-4.634,2.892-3.448,4.507c1.251,1.703,4.173,1.776,4.637,3.891l-0.875,1.067c-2.675-1.072-4.768-0.502-6.279,1.712
			c-2.799-1.218-3.818-0.455-3.059,2.289l-1.765,1.614C23.826,73.189,23.513,73.858,23,74c-0.682-0.962-1.349-1.962-2-3
			c0.022-0.686,0.043-1.61-0.659-1.707l-1.455-0.202L19,66c1.81-0.992,3.81-1.658,6-2c0.454-1.251,1.662-2.173,3.624-2.767
			c0.399-2.099,1.173-3.803,2.321-5.113c-0.345-2.272,0.391-3.678,2.927-3.283L34.68,52.808z"/>
		<path style="fill:#C4C4C4;" d="M60,77.391c2.191,3.48,2.193,5.679,0.005,6.597C58.192,83.764,56.523,84.434,55,86
			c-1.042,0.125-1.871,0.88-2.485,2.264L51,88c-0.297-0.368-0.632-0.703-1-1c-2.938-1.471-1.715-6.768,0.126-8.898
			c0.703-1.248,1.068-2.637,1.31-4.042C54.573,78.143,52.179,72.21,60,77.391z"/>
		<path style="fill:#B0B0B0;" d="M73.181,83.087C74.922,83.667,74.974,84.859,73,85c1.351,1.62,2.716,2.953,4.096,4
			c1.555,1.99,1.189,4.657-1.096,8v1c-0.54,0.051-1.076-0.432-1-1c-1.904-1.487-2.904-3.82-3-7l-1.878-1.767
			C69.382,84.388,69.008,86.977,69,96c0.836,0.323,0.833,0.656,0,1c-1.634-0.817-4.289-0.193-6,1c-0.869-0.274-0.854-0.608,0-1
			c-2.971-0.134-3.185-2.303-1-4l2.328-0.781C63.212,88.692,63.769,86.286,66,85c0.101-1.086,0.636-2.01,1-3
			C68.6,79.875,72.221,80.667,73.181,83.087z"/>
		<path style="fill:#3D3D3D;" d="M45,37c1.276-1.196,1.78-0.622,0.879,0.892c0.803,0.083,1.256,0.233,1.134,1.108
			c-0.917,2.707-1.4,5.612-3.013,8c-0.213,2.594-0.868,3.564-1.966,2.911C40.241,49.76,40.032,34.486,45,37z"/>
		<path style="fill:#303030;" d="M58,63c1.878-1.178,1.991-0.916,2.11,1.255c3.778,0.642,6.003,3.072,1.898,4.633
			C60.669,72.474,59.333,73.178,58,71c-2.723,0.065-4.455-0.983-5.199-3.146C53.162,65.246,55.461,63.414,58,63z"/>
		<path style="fill:#4F4F4F;" d="M17.026,23.974C17.211,24.329,17.933,24.535,18,25c0.144,1.005-0.174,2.016-0.772,2.819
			c0.06,2.674-4.74,4.636-6.228,2.181c-0.706,2.119-3.539-3.86-3.361-4.144C7.896,25.447,8.411,25.2,9,25
			c-1.576-2.211-0.462-3.157,2.092-2.908C10.881,19.665,11.077,19.35,13,21L17.026,23.974z"/>
		<path style="fill:#484848;" d="M30.945,56.12c1.071,1.681,0.31,3.786-0.14,5.191C30.054,63.65,27.064,64.519,25,64
			c-1.668,2.297-2.775,1.319-1.352-1.192C23.535,62.342,23.6,61.325,24,61c-0.241-0.267-0.417-0.514-0.363-0.691
			c0.471-1.538,2.359-6.587,3.639-5.883C27.534,52.901,28.757,53.466,30.945,56.12z"/>
		<path style="fill:#606060;" d="M17.228,27.819c1.246-0.154,3.618,1.64,3.779,3.395C18.512,33.233,14.038,35.572,11,34
			c-3.548,0.476-2.064-3.181,0-4C13.042,29.211,15.028,28.091,17.228,27.819z"/>
		<path style="fill:#313131;" d="M66,85c-0.324,3.496,0.127,7.16,1.263,11.032C63.597,96.86,63.981,93.769,62,93
			c-2.27,1.857-3.983-0.94-2-3c-1.714-1.393-1.714-2.06,0-2c-1.518-2.857,1.268-4.513,4-3H66z"/>
		<path style="fill:#303030;" d="M30,41c0.958,0.142,2.137-0.063,3.05,0.171c1.873-1.764,2.216-1.568,1.995,1.021
			c0.619,0.429,0.751,1.621,1.577,1.919c0.844,1.855-0.403,2.695-2.257,2.638c-1.312,1.184-2.768,0.86-4.299-0.016
			c-1.613,1.659-3.327,0.958-3.066-1.438c-2.681-1.08-2.121-4.822,1-3.294C26.736,39.292,28.16,38.63,30,41z"/>
		<path style="fill:#222222;" d="M67,58c2.736-1.337,3.456,0.187,1,2c2.435,1.037,1.716,2.473-2.157,4.307
			c-0.823,1.918-1.788,2.695-2.897,2.331c-0.114-1.338-1.06-2.132-2.836-2.383C59.229,64.286,58.3,63.874,58,63
			c0.328-0.668,1-1.316,1-2l4.544-3.526C66.23,55.846,67.382,56.022,67,58z"/>
		<path style="fill:#4C4C4C;" d="M64,85c-1.316,1.042-2.91,1.71-4,3l-0.383,0.919C55.413,89.403,53.874,88.43,55,86
			c-0.009-1.148-0.189-2.325,0.131-3.911c2.317-0.404,4.189,0.364,6.056-0.416c-1.456-1.28-2.814-0.397-3.71-1.47
			c0.969-1.064,1.857-1.836,2.523-2.812c1.559,1.033,4.012,0.441,5.73,1.901c0.688,0.585,0.416,2.57-0.24,2.692
			c-0.598,0.111-1.591,0.067-2.745-0.065c-2.205-0.306-2.086,1.235,0.006,1.174c1.324-0.277,2.747,0.019,1.805,0.886
			C64.301,84.213,64.169,84.633,64,85z"/>
		<path style="fill:#313131;" d="M74.32,79.795c2.774,0.506,2.353,2.801-0.436,3.084c0.272,0.848,0.013,0.879-0.703,0.207
			C71.069,83.083,68.828,83.166,67,82c0.446-1.212-0.912-4.443,0.613-4.8C70.92,76.427,74.006,77.106,74.32,79.795z"/>
		<path style="fill:#454545;" d="M42.097,60.787C41.585,60.207,40.574,60.26,40,60l-4.965-2.177c0.351-0.878,0.27-2.093,0.843-2.878
			l3.925-3.142C40.764,51.528,46.337,63.651,42.097,60.787z"/>
		<path style="fill:#393939;" d="M98.866,86.903C99.668,89.218,97.37,92.08,95,91c-0.834,0.92-1.498,1.197-2,0
			c-1.911,2.072-2.453,1.741-2-1c-2.407,0.306-2.74-1.027-1-4c0.647,0,1.361,0.129,2,0c1.705-0.344,5.922-1.746,6.833-0.375
			C99.026,85.916,98.808,86.539,98.866,86.903z"/>
		<path style="fill:#353535;" d="M45,52c1.049,0.503,1.885,1.588,3,2c2.096,0.456,2.603,1.495,1,3c-0.586,0.373-0.547,1.449-1,2
			c0.03,1.777-0.166,2.535-1.945,1.751C43.644,58.082,43.343,54.285,42,51C42.737,49.43,43.737,49.763,45,52z"/>
		<path style="fill:#404040;" d="M53,31l-5.984,6.877c0.29,0.654-0.089,0.66-1.136,0.016C45.516,37.648,45,37.624,45,37v-1
			c-1.541-1.865-1.394-2.747,1.281-3.008c0.639-0.812,1.082-3.07,2.004-3.488C49.868,28.787,52.024,30.116,53,31z"/>
		<path style="fill:#3E3E3E;" d="M76,97c0-2.66,0.472-5.374,1.096-8c0.498-2.712,1.361-4.101,2.591-4.168
			c0.554-0.109,2.793,0.624,2.743,1.464C80.674,90.083,79.096,94.471,76,97z"/>
		<path style="fill:#303030;" d="M18,45c0.604,0.532,0.25,1.089-1.064,1.67c-0.462,1.999-1.121,2.475-1.977,1.428
			c-1.099-0.481-2.551-0.017-3.572-0.986C10.08,45.875,12.027,44.089,12,43c-0.108-2.621,0.62-3.102,3-2
			c0.93,0.077,2.038,0.302,2.522,1.01C18.166,42.952,18.02,44.042,18,45z"/>
		<path style="fill:#4E4E4E;" d="M19.958,61.189c-0.979,2.208-2.207,0.387-1.803-1.719c-0.283-1.518-1.328-2.663-2.232-4.182
			c2.183-0.75,3.556-1.345,6.152-1.261c-0.02,2.784,0.143,4.661-0.171,7.025C21.804,61.792,20.307,61.343,19.958,61.189z"/>
		<path style="fill:#D1D1D1;" d="M42.869,64.961c1.413,0.635,0.931,1.231-0.126,2.039l0.173,2.094
			C41.737,69.599,41.008,70.716,41,72c-0.156,1.762-0.51,1.829-1.165,0.165c-0.668,1.419-1.335,1.548-1.709-0.024
			c-2.106,1.129-1.73-1.426-1.194-3.239c-1.426-0.608-1.762-1.489-0.707-2.682C38.657,67.323,40.814,66.705,42.869,64.961z"/>
		<path style="fill:#373737;" d="M10.963,50.892c-2.28-0.554-5.887,0.181-6.926-2.732c-0.627-2.787,2.097-2.265,4.424-2.212
			C10.833,46.002,10.391,48.701,10.963,50.892z"/>
		<path style="fill:#5C5C5C;" d="M35.071,23.816c0.354,1.186,2.648,1.634,2.887,3.106C38.238,28.64,34.739,29.85,34,29
			c-1.384-1.591-3.766-3.77-3.591-6.034C31.989,23.183,33.545,23.362,35.071,23.816z"/>
		<path style="fill:#C8C8C8;" d="M9,25c-0.184,1.901,0.385,3.891,2,5c-0.854,1.224-0.988,2.83,0,4c0.001,1.293-0.89,1.827-2,2
			l0.981-1.966l-5.037,0.844c0.406-1.917,3.17-1.654,3.719-3.132C10.049,28.019,6.461,26.524,4,25C4.824,22.224,8.297,22.114,9,25z"
			/>
		<path style="fill:#292929;" d="M21.27,38.945C22.413,37.937,23.986,38.278,24,40c2.114-0.423,2.74,4.781,0,5
			c-2.66-0.645-6.727-3.301-5.049-6.144C19.596,38.807,20.678,38.713,21.27,38.945z"/>
		<path style="fill:#1C1C1C;" d="M85,88.118c1.539-0.593,2.206-0.299,2,0.882c2.366-0.355,2.392,0.337,0.076,2.076
			c1.913,1.881,1.368,2.584-1.186,1.814c-0.54,0.825-1.993,1.127-3.049,1.252c-1.499-1.101-1.733-2.359-0.976-3.793
			C82.659,88.845,83.827,88.775,85,88.118z"/>
		<path style="fill:#464646;" d="M33.871,52.837c-0.817,1.294-1.136,3.319-2.927,3.283c-1.002-0.92-2.082-1.428-3.238-1.525
			c0.505-1.978,1.269-3.22,2.293-3.726c0.827-0.492,2.286-1.32,3.326-0.644C33.942,50.624,33.621,52.221,33.871,52.837z"/>
		<path style="fill:#474747;" d="M84.888,84.037C82.716,85.694,81.222,82.74,80,81c1.052-1.438,2.693-2.425,4.969-1.897
			C85.29,81.028,84.396,82.53,84.888,84.037z"/>
		<path style="fill:#A4A4A4;" d="M63,56.772c0.845,1.018,0.309,1.484-1,1.228c-1.299-0.181-2.299,0.486-3,2
			c0.873,0.284,0.86,0.618,0,1c-0.665-0.032-1.285-1.085-1.909-0.333c-0.445,0.536-0.815,0.997-1.245,1.333
			c0.074-2.383,0.688-4.753,0.279-7.124C57.358,51.921,64,53.504,63,56.772z"/>
		<path style="fill:#303030;" d="M15.877,53.16c-1.865,0.545-3.876-1.211-4.914-2.268c1.364-0.652,2.709-1.851,3.996-2.793
			c1.863-1.309,2.8-1.271,1.66,0.637C18.234,50.458,18.582,53.273,15.877,53.16z"/>
		<path style="fill:#B4B4B4;" d="M30,50.869c-1.732,1.782-0.147,3.539,0.945,5.251c-1.207-0.024-3.545-1.853-4.498-0.891
			C25.259,57.263,25.626,59.681,24,61c-0.42-0.097-1.143-0.518-1.113-1.045C23.313,57.519,24.017,55.534,25,54
			c0.04-0.33-0.022-0.668,0-1l3-2L30,50.869z"/>
		<path style="fill:#4E4E4E;" d="M22.063,50.052C20.528,51.329,17.062,48.403,19,47c-2.662,0.582-2.636,0.021-1-2
			c0.86-0.051,0.941-3.293,6.954,5.076C24.753,51.036,22.609,50.801,22.063,50.052z"/>
		<path style="fill:#323232;" d="M79.785,84.318c-0.876,2.045-5.66,0.33-5.9-1.438l0.436-3.084
			C76.878,78.449,78.986,82.093,79.785,84.318z"/>
		<path style="fill:#242424;" d="M27,45.294c1.029,0.397,2.108,0.891,3.066,1.438c0.127,0.408,0.14,0.928,0.886,1.822
			c-0.96,0.929-3.559,0.868-4.728,0.119C25.237,48.041,23.433,46.472,24,45C25.112,42.123,25.821,42.563,27,45.294z"/>
		<path style="fill:#3C3C3C;" d="M15,41c-0.708,1.034-1.836,1.609-3,2c-1.162-1.713-1.277-3.872-1-6C13.259,37,14.835,38.829,15,41z
			"/>
		<path style="fill:#9D9D9D;" d="M73,71c1.886,1.116,2.14,3.221,0.885,5.013C72.562,76.461,71.365,75.167,71,74
			c-1.096,0.34-2.096,0.34-3,0c-1.085,0.019-1.628-1.055-2-2c-1.654,0.104-1.627-2.837,0.014-3.061
			C67.83,67.634,72.231,68.871,73,71z"/>
		<path style="fill:#383838;" d="M77,70c0.794,0.413,0.926,1.731-0.105,2c-1.331,1.07-1.215,3.405-3.01,4.013
			C73.311,74.278,71.452,72.599,73,71c-1.235-1.549-0.566-2.041,1-0.745C75.419,68.303,77.761,67.05,77,70z"/>
		<path style="fill:#404040;" d="M46.281,32.992C45.663,33.776,46.287,35.493,45,36c-1.471,0.093-3.212,0.423-3.094-1.482
			c0.154-2.472,3.854-4.102,4.075-3.009L46.281,32.992z"/>
		<path style="fill:#555555;" d="M48.945,62.249c0.748,0.816,1.347,1.748,1.858,2.727c-0.531,0.602-0.71,1.484-1.876,2.359
			C46.874,65.854,46.469,63.871,46,62C46.791,59.869,47.93,60.703,48.945,62.249z"/>
		<path style="fill:#363636;" d="M23.648,62.808C23.794,63.408,24.462,63.821,25,64c-0.492,1.01-1.194,2.063-2.023,2.555
			C21.564,67.391,20.114,66.803,19,66C19.694,64.023,21.54,62.686,23.648,62.808z"/>
		<path style="fill:#5B5B5B;" d="M39.845,43.052c-0.196,1.334-0.696,3.389-2.056,4.013c-0.922,0.423-2.358-0.195-3.425-0.317
			c0.554-1.066,1.093-2.185,2.257-2.638C37.679,43.7,38.705,43.198,39.845,43.052z"/>
		<path style="fill:#A5A5A5;" d="M19,47l-0.736,1.211c1.305,1.051,1.483,1.884,0.533,2.5c-0.22,1.132-0.079,1.903-0.361,2.456
			c-0.595,1.167-1.98,0.219-2.56-0.007c0.55-0.617,1.258-1.532,1.043-2.534c-0.176-0.818-1.001-2.108-1.961-2.528
			C15.861,47.438,16.551,45.086,18,45C18.175,45.7,18.898,46.288,19,47z"/>
		<path style="fill:#333333;" d="M82.841,94.142c-0.003,0.663,0.041,1.329,0.225,1.969C83.278,97.088,82.923,97.385,82,97
			c0.743,1.897-0.019,3.281-2,2c-0.882,0.45-1.183,0.072-1-1c-0.083-1.199-0.145-2.674,0.951-3.541
			C80.755,93.823,81.893,94.254,82.841,94.142z"/>
		<path style="fill:#232323;" d="M52.801,67.854c2.46,1.921,2.86,3.97,1.199,6.146c-1.863-0.815-2.829-2.823-3.775-5.363
			C49.865,67.671,52.122,67.32,52.801,67.854z"/>
		<path style="fill:#A5A5A5;" d="M79.785,84.318c0.02,0.141-0.037,0.371-0.097,0.514c-0.572,1.368-2.25,2.732-2.591,4.168
			c-1.218-1.492-2.584-2.826-4.096-4l0.181-1.913c0.236,0,0.468-0.174,0.703-0.207C75.499,84.293,77.712,85.036,79.785,84.318z"/>
		<path style="fill:#3D3D3D;" d="M29,31c1.334-0.667,2.506-1.614,4-2c-0.017,0.929,0.349,2.349-0.202,3.213
			c-0.532,0.836-2.306,2.153-3.52,1.585C28.574,33.079,29.145,31.624,29,31z"/>
		<path style="fill:#464646;" d="M39.803,51.803l-3.925,3.142c-0.557-0.037-1.515,0.377-1.834-0.441
			c-0.201-0.516,0.289-1.391,0.635-1.696c1.109-1.081,2.091-2.812,4.449-2.838C40.021,49.96,39.883,51.385,39.803,51.803z"/>
		<path style="fill:#242424;" d="M18.951,38.856C16.962,39.007,13.62,38.263,15,36c1.574-0.19,3.087-0.268,5.093,0.127
			C19.556,37.281,19.38,38.129,18.951,38.856z"/>
		<path style="fill:#2B2B2B;" d="M40,42c-1.813,0.452-2.264-1.007-2.104-2.462C38.032,38.309,38.313,37.078,39,36
			C41.661,35.374,40.83,36.356,40,42z"/>
		<path style="fill:#7B7B7B;" d="M80,74c1.438,1.014,1.292,3.645,0,5c-0.355,0.311-0.69,0.644-1,1c-0.298-0.299-0.656-0.795-1-1
			c-1.494-1.5-1.143-4.444,0-6C79.052,71.813,81.293,72.155,80,74z"/>
		<path style="fill:#404040;" d="M19,47c0.235,1.632,1.906,2.079,3.063,3.052c-0.242,0.473-0.436,1.17-0.86,1.272
			c-0.809,0.195-1.856-0.381-2.405-0.613c-0.002-0.804-1.277-1.358-1.545-1.852C16.693,47.827,17.424,46.267,19,47z"/>
		<path style="fill:#202020;" d="M58,71c3.153-0.518,3.072,0.221,2,3h-5C53.467,70.251,53.982,69.093,58,71z"/>
		<path style="fill:#4F4F4F;" d="M95,84c-1.42-0.094-2.931-0.041-4,1h-1c0.137-1.057,0.429-2.093,1-3
			c-1.206-2.387-0.314-2.734,1.63-0.934c0.67,0.168,1.44,0.364,1.869,0.869C95.002,82.528,95.023,83.319,95,84z"/>
		<path style="fill:#393939;" d="M7.915,43C7.849,41.879,6.908,41.083,7,40c-0.261-0.928,0.073-1.261,1-1
			c0.606-0.726,1.225-1.448,2-2l-0.056,6.696C8.914,43.741,8.423,43.3,7.915,43z"/>
		<path style="fill:#575757;" d="M64,73c-0.566,1.151-1.515,1.529-2.732,1.711c-2.102-2.096-1.142-3.726,0.74-5.823l1.47-0.316
			C63.478,68.572,63.652,70.048,64,73z"/>
		<path style="fill:#404040;" d="M39,36c-0.349,0.082-0.928-0.084-1.377-0.213C36.819,35.557,37.267,34.515,37,34
			c0.468,0,0.839-0.606,1-1c0.589-0.354,1.245-0.563,1.725-0.753c0.74-0.292,1.491,0.789,1.133,1.614
			C40.378,34.966,39.41,35.357,39,36z"/>
		<path style="fill:#383838;" d="M13.386,59.864c-1.191,1.56-1.939,0.286-2.241-3.822c0.007-0.296-0.093-0.639-0.052-0.942
			c0.834,0.645,2.956-0.296,3.529,1.684C14.895,57.731,14.338,58.877,13.386,59.864z"/>
		<path style="fill:#A9A9A9;" d="M58,71c-0.903-0.099-2.389-0.344-2.905,0.591C54.688,72.326,55.044,73.32,55,74h-1
			c0.618-2.14-1.15-3.915-1.199-6.146C54.555,68.83,56.297,69.904,58,71z"/>
		<path style="fill:#4C4C4C;" d="M87,89c-0.763-0.007-1.612-0.153-2-0.882C86.296,87.392,87.405,86,89,86
			C90.539,87.892,89.64,90.463,87,89z"/>
		<path style="fill:#343434;" d="M25,54c-0.257,2.099-0.199,4.696-2.113,5.955c0.128-2.203-0.341-5.111,0.624-5.819
			C23.871,53.873,24.536,53.948,25,54z"/>
		<path style="fill:#B0B0B0;" d="M82,71c2.137,1.555,1.516,2.407-1,3c-0.284,0.873-0.618,0.86-1,0c-0.469-0.636-1.226-1-2-1
			c-0.284,0.873-0.618,0.86-1,0c0.073-0.309-0.122-0.68-0.105-1L77,70c0.284-0.873,0.618-0.86,1,0C79.997,69.331,81.33,69.664,82,71
			z"/>
		<path style="fill:#2C2C2C;" d="M78,79c-1.196-0.391-2.058-1.28-1.936-2.461C76.196,75.267,76.723,74.179,77,73h1V79z"/>
		<path style="fill:#434343;" d="M27,32c0.127,0.627,0.703,0.934,1.038,1.913c-2.007-0.062-3.561,0.692-4.957,0.355
			c-0.487-1.362-0.054-2.211,1.383-2.346C25.076,31.864,26.314,32.343,27,32z"/>
		<path style="fill:#444444;" d="M8,39c-0.302,0.362-0.661,0.675-1,1c-0.76,0.067-1.549,0.143-2.27-0.173
			C4.073,39.539,3.823,38.733,4,38c1.268,0.093,2.498-0.148,3.73-1.07C8.238,38.015,7.975,38.516,8,39z"/>
		<path style="fill:#464646;" d="M19.958,61.189c-0.082,0.887-0.004,1.904-1.344,2.612c-1.213-1.255-1.327-3.002-0.459-4.331
			C18.336,60.442,18.924,61.031,19.958,61.189z"/>
		<path style="fill:#A4A4A4;" d="M61.268,74.711C60.42,74.838,60.221,74.917,60,74c-0.28-1.161-0.975-2.34-2-3
			c1.701,0.186,2.51-1.481,4.008-2.112C62.099,70.951,60.554,72.742,61.268,74.711z"/>
		<path style="fill:#4A4A4A;" d="M66.014,68.939L66,72c-0.563,0.29-1.616,0.491-2,1C62.261,69.282,62.712,63.4,66.014,68.939z"/>
		<path style="fill:#424242;" d="M28,51c-0.005,0.792,0.315,2.25-0.572,2.868C26.891,54.241,25.7,53.298,25,53
			c-0.412,0.134-1.038-0.096-0.957-0.773C25.604,51.301,26.76,51.096,28,51z"/>
		<path style="fill:#4E4E4E;" d="M14.278,63.094c-0.524-0.603-0.837-1.386-1.139-2.113c-1.625-0.216-1.462-0.933,0.247-1.117
			c0.725,0.07,1.365-0.018,1.774,0.295c0.469,0.359,1.04,1.36,0.869,1.998C15.804,63.004,15.045,63.353,14.278,63.094z"/>
		<path style="fill:#4B4B4B;" d="M71,74c-0.602,0.396-0.9,1.816-1.565,1.99C67.993,76.368,68.223,74.533,68,74
			c1.287-0.055,1.09-3.136,2.553-1.994C71.396,72.665,70.841,73.492,71,74z"/>
		<path style="fill:#989898;" d="M91,90c-0.29,2.492-2.282,2.545-3.924,1.076L87,89c0.655-0.109,1.45-0.344,1.743-0.823
			C89.195,87.439,89.076,86.658,89,86h1C89.978,87.402,90.229,88.81,91,90z"/>
		<path style="fill:#A6A6A6;" d="M45,52c-0.922-0.442-2.152-0.31-3-1c-0.127-0.31,0.113-0.76,0.034-1.089L44,47
			C43.891,48.731,44.04,50.517,45,52z"/>
		<path style="fill:#2F2F2F;" d="M79,98c0.307,0.359,0.643,0.691,1,1c1.731,2.057,0.984,3.116-1.533,2.155
			c-0.698-0.135-2.709,0.001-2.114-1.094C76.702,99.418,76.999,98.728,77,98H79z"/>
		<path style="fill:#575757;" d="M42.743,67c-0.577-0.604-0.251-1.401,0.126-2.039L44,64c0.736,0.413,1.568,0.743,2.064,1.719
			C44.5,66.343,43.626,66.532,42.743,67z"/>
		<path style="fill:#A1A1A1;" d="M48.945,62.249C48.275,63.266,46.928,62.096,46,62c-0.08-0.319-0.047-0.937,0.055-1.249
			C46.342,59.876,47.239,59.415,48,59C48.169,60.121,48.485,61.213,48.945,62.249z"/>
		<path style="fill:#2A2A2A;" d="M89,85c-1.451,0.145-2.967,0.011-4.112-0.963l2.726-1.031C89.004,82.481,89.213,83.933,89,85z"/>
		<path style="fill:#424242;" d="M66.446,77.337c-1.972,1.58-2.731-0.354-4.462-0.843C63.139,75.816,65.362,75.055,66.446,77.337z"
			/>
		<path style="fill:#454545;" d="M68,74c-0.616,0.262-1.819,1.103-1.949,0.379C65.856,73.3,65.998,72.533,66,72
			c0.374-0.193,0.931,0.051,1.254,0.304C67.752,72.695,68.051,73.35,68,74z"/>
		<path style="fill:#272727;" d="M71,38c0.172,0.692,0.38,1.55,1,2l2,5c2.503-0.832,1.922,0.998,1,3
			c-0.741,0.717-1.504,1.898-2,2.791c-0.643,1.882-1.567,1.875-2.186-0.014C68.736,52.723,65.67,51.73,65,49
			c-1.428,0.119-2.761,0.453-4,1c-0.347,2.79-2.325,4.136-5,3c-1.277-0.423-1.944-2.089-2-5c-1.243-3.468-0.909-5.135,1-5
			c-0.223-2.991,3.972-3.571,6-2l3-1C63.818,36.461,68.351,37.114,71,38z"/>
		<path style="fill:#202020;" d="M77,25l5,2c0.952,1.068,2.24,1.691,2.127,4.003l-0.29,5.921c-1.334,1.454-3.18,2.296-5.213,1.923
			C76.808,38.513,74.703,37.933,74,36c-2.996-0.165-5.595-4.349-4-7c-0.31-1.819-0.255-4.293,2.305-4.671
			C74.034,24.073,75.572,25.116,77,25z"/>
		<path style="fill:#3C3C3C;" d="M78.21,65.192c0.193,0.181,0.617,0.587,0.643,0.853c-0.883,1.892-2.501,3.296-4.853,4.21
			c-0.26,0.19-0.764,0.501-1,0.745c-2.611,0.444-5.087-0.226-6.986-2.061c-1.682-0.07-2.556-1.412-2.622-4.026l2.451-0.606
			c1.846-2.256,4.663-2.657,8.453-1.204C75.318,61.983,77.42,64.027,78.21,65.192z"/>
		<path style="fill:#292929;" d="M70,29c1.671,2.124,2.858,4.566,4,7c-3.123,1.632-4.735-1.437-10-2.247
			c-0.751-0.115-2.412-1.454-2.355-2.212c0.057-0.758,1.498-1.847,2.242-2.266C64.82,28.75,66.479,29.404,67,28
			C67.888,28.169,69.364,28.191,70,29z"/>
		<path style="fill:#373737;" d="M83.943,43.935C84.753,45.491,85.014,47.267,85,49c-1.801,1.468-3.801,2.468-6,3
			c-1.003-0.358-1.747-1.026-1.892-1.767c-0.324-1.662,1.599-6.951,3.353-7.032C81.549,43.151,82.757,44.182,83.943,43.935z"/>
		<path style="fill:#5A5A5A;" d="M89.181,50.909c0.641,1.033,0.768,2.278,0.819,3.466c-0.235,0.495-0.998,1.032-1,1.625
			l-0.277,1.333C87.142,56.689,85.567,56.244,84,56c-2.735,1.51-4.673-0.23-3-3C79.865,49.971,86.919,48.083,89.181,50.909z"/>
		<path style="fill:#202020;" d="M75,53c-0.068-2.003,0.945-1.487,2,0c1.061,4.907,4.349,11.742,1.365,11.307
			c-2.08-0.281-3.35-1.126-3.076-3.307c-2.64-0.906-3.436-3.648-2.079-6C70.35,51.848,71.409,51.265,75,53z"/>
		<path style="fill:#474747;" d="M89.181,50.909C87.126,50.167,86.066,49.197,86,48c-0.252-2.019,1.532-3.618,3-4.904
			c2.348,0.383,3.723,1.832,3.869,4.502C92.968,49.41,91.388,51.619,89.181,50.909z"/>
		<path style="fill:#313131;" d="M86,66c-0.198,1.041-0.488,2.067-1,3c0.871,2.724-0.821,3.912-3,2l-2.714,0.832
			C78.316,72.129,77.846,71.08,78,70c-1.197-1.602-0.776-1.723,1.05-1.913c0.952-1.033,1.432-2.655,2.611-3.048
			C83.385,64.463,84.664,65.94,86,66z"/>
		<path style="fill:#2F2F2F;" d="M75,48c-0.314-0.846-0.219-2.364-1-3l-2-5c0.048-0.487-0.259-1.005,0.253-2.074l6.056,2.637
			C77.976,43.461,76.979,46.085,75,48z"/>
		<path style="fill:#444444;" d="M89,67c1.309,0.767,3.433,0.201,3.737,1.808c0.318,1.681,0.336,2.966,0.252,4.276
			c-1.88,0.706-6.317-4.738-5.993-5.564C87.284,66.785,88.307,66.941,89,67z"/>
		<path style="fill:#515151;" d="M81,53c0.634,1.314,1.965,2.015,3,3c1.768,0.156,1.847,0.535,0.199,1.249
			c2.608,1.075-1.782,5.376-3.089,2.816C79.075,58.489,78.033,55.404,79,53C79.489,51.705,80.821,51.271,81,53z"/>
		<path style="fill:#545454;" d="M89.089,60.049c0.74,0.226,0.986,0.568,0.738,1.024c-0.266,0.828,0.243,3.103-0.954,3.552
			c-2.305,0.864-4.662-0.628-5.965-1.78c-1.421-1.445-0.831-1.997,0.982-0.892C86.099,59.839,87.832,59.205,89.089,60.049z"/>
		<path style="fill:#3A3A3A;" d="M83.89,61.953c-0.419-0.027-0.734,0.649-0.982,0.892c-0.545-0.09-1.426-0.004-1.618-0.574
			c-0.278-0.823-0.244-1.501-0.18-2.205c1.528-0.16,2.724-1.347,3.089-2.816C90.945,54.733,89.466,59.43,83.89,61.953z"/>
		<path style="fill:#343434;" d="M88.793,34.942C87.401,35.357,86.244,36.27,85,37l0.13-8.03
			C87.555,30.458,89.37,32.383,88.793,34.942z"/>
		<path style="fill:#5A5A5A;" d="M83.943,43.935c-0.532-1.022-1.165-2.14-0.9-3.39c0.24-1.132,2.073-2.905,3.318-2.1
			c1.185,0.765,0.323,2.456,0.081,3.672C86.261,43.029,85.273,43.658,83.943,43.935z"/>
		<path style="fill:#A0A0A0;" d="M75.289,61c0.906,1.209,1.963,2.289,3.076,3.307l-0.155,0.885
			c-3.857-1.855-8.491-3.145-12.367-0.885C66.816,63.015,67.882,61.641,68,60l2.011-0.549C72.474,60.532,74.233,61.048,75.289,61z"
			/>
		<path style="fill:#AEAEAE;" d="M89.181,50.909C86.088,49.914,82.459,49.686,81,53h-2c0.116-0.289-0.073-0.695,0-1
			c1.069-1.72,4.33-2.638,6-3c0.354-0.077,0.96-0.638,1-1C87.316,48.642,88.409,49.664,89.181,50.909z"/>
		<path style="fill:#A0A0A0;" d="M96.031,59.921C95.234,61.14,94.216,62.195,93,63c-0.972-0.492-2.426-0.962-3.173-1.927
			c-0.238-0.307-0.765-0.541-0.738-1.024C91.443,60.429,93.697,59.927,96.031,59.921z"/>
		<path style="fill:#A9A9A9;" d="M79.05,68.087C79.128,68.893,78.941,69.922,78,70h-1c-0.683-1.588-2.066,0.228-3,0.255
			c0.375-2.441,2.811-3.269,4.853-4.21L79.05,68.087z"/>
		<path style="fill:#9C9C9C;" d="M68,37c0.886,0.315,2.625-0.51,3,1c-2.554-0.261-5.616-0.354-7,2c-2.675-0.337-2.699-2.09-1-4
			C64.631,35.547,66.622,36.079,68,37z"/>
		<path style="fill:#4A4A4A;" d="M97,70c-0.495,1.212-1.593,2.104-2.696,2.74c0.087-0.974-0.875-2.395,0.142-3.695
			C95.02,68.313,96.414,69.689,97,70z"/>
		<path style="fill:#4C4C4C;" d="M89,43.096c-1.66-0.271-1.197-3.453-0.646-5.078C89.495,39.342,90.518,41.767,89,43.096z"/>
		<path style="fill:#636363;" d="M77,53h-2c-3.13,0.024-3.797-0.712-2-2.209c0.849,0.045,2.317-0.909,2.867-0.139
			C76.351,51.332,76.851,52.309,77,53z"/>
		<path style="fill:#393939;" d="M68,37c-1.204-0.428-4.16,0.066-5-1c0.293-0.371,0.633-0.701,1-1
			C65.543,35.153,67.172,35.597,68,37z"/>
		<path style="fill:#515151;" d="M50,87c0.099,3.737,0.244,8.072-1.963,11.094c-0.188-0.335-0.745-0.801-1.063-1.031
			C45.114,95.33,44.123,93.309,44,91c0.113-3.35-0.672-7.315,1.526-10.502c1.081-1.567,4.004-0.566,4.6-2.396
			C51.538,80.977,49.919,83.948,50,87z"/>
		<path style="fill:#B3B3B3;" d="M46.974,97.063c-1.333-0.966-2.779-1.784-3.974-2.929c1.166-0.68,0.961-1.985,1-3.134
			C45.306,92.834,46.543,94.837,46.974,97.063z"/>
		<path style="fill:#424242;" d="M99.864,95.837C98.369,100.049,95.849,93.64,95,91c0.928-1.658,2.173-3.194,3.866-4.097
			C101.498,89.858,98.605,92.719,99.864,95.837z"/>
		<path style="fill:#B2B2B2;" d="M95,91c3.131,0.554,0.505,4.902,4.864,4.837C100.4,97.167,101,98.544,101,100
			c-0.474,0.283-1.217,0.773-1.291,1.386c-0.654,0.722-1.718,0.513-2.982-0.297c-2.177,0.007-1.96-1.31,0.243-1.183
			C99.857,99.683,96.177,95.125,95,95c-2.034,1.182-1.286-2.112-1.141-2.022C94.165,93.169,94.431,94.842,93,93
			c-1.889-0.557-1.909-1.434,0-2C93.643,90.976,94.367,90.888,95,91z"/>
		<path style="fill:#484848;" d="M96.131,83.837c-0.736-2.486,0.408-5.136,3.016-5.816l2.415,2.178
			C101.671,83.17,98.301,83.622,96.131,83.837z"/>
		<path style="fill:#606060;" d="M107.586,96.383c-1.675,1.353-4.105,0.675-4.995-0.243c-0.774-0.798,0.125-3.057,1.822-3.26
			C105.789,92.716,108.57,95.507,107.586,96.383z"/>
		<path style="fill:#414141;" d="M107.917,99.089c0.321,1.274-3.89,1.703-3.978-0.118C103.879,97.712,107.396,97.019,107.917,99.089
			z"/>
		<path style="fill:#363636;" d="M82,76c-1.415,0.393-1.66-0.851-1-2c0.163-1.05,0.455-2.082,1-3l3-2
			c1.482,2.189,1.608,5.963,0.5,8.709C84.893,79.212,82.319,77.018,82,76z"/>
		<path style="fill:#323232;" d="M92.63,81.066L91,82c-1.164-0.27-3.651,0.549-4.635-0.242c-1.472-2.174,0.676-4.046,2.948-3.776
			C90.65,78.142,92.226,79.196,92.63,81.066z"/>
		<path style="fill:#464646;" d="M87.201,70.897c1.342,0.966,5.84,4.829,3.096,5.865c-0.399,0.151-1.572,0.443-2.788,0.255
			C86.466,75.472,87.015,73.338,87.201,70.897z"/>
		<path style="fill:#2D2D2D;" d="M95.771,77.95c0.329,1.841-1.996,1.908-2.585,1.248c-1.087-1.219-2.193-3.238-0.277-4.554
			C93.971,75.609,95.454,76.174,95.771,77.95z"/>
		<path style="fill:#444444;" d="M82,76c0.084,1.37-0.665,2.6-2,3v-5h1C81.255,74.659,81.799,75.359,82,76z"/>
		<path style="fill:#4D4D4D;" d="M99.213,73c-1.955-0.116-1.003,2.073-1.278,4.048c-1.581-0.257-0.744-1.796-0.962-3.259
			C96.671,71.763,98.086,71.493,99.213,73z"/>
		<path style="fill:#979797;" d="M82,27c-1.932,0.115-3.831-0.409-5-2C79.057,24.833,80.677,25.515,82,27z"/>
		<path style="fill:#CACACA;" d="M38,14c-0.283-0.083-0.771,0.164-1,0c0-1.603,0.616-3.208,2.085-4C39.1,11.417,38.831,12.827,38,14
			z"/>
		<path style="fill:#6E6E6E;" d="M49.551,18.196c0.671-0.273,0.771,2.635-0.065,2.823c-0.702,0.158-1.338-0.038-1.492-0.548
			C47.754,19.675,48.256,18.724,49.551,18.196z"/>
		<path style="fill:#373737;" d="M75,97c-0.359,0.307-0.695,0.639-1,1h-3l-2-1c0.078-0.292-0.141-0.742,0-1
			c-0.891-4.253,0.109-6.253,3-6C74.967,90.971,75.38,94.158,75,97z"/>
		<path style="fill:#B6B6B6;" d="M63,97c0.104,0.303-0.067,0.685,0,1c-0.896,0.625-2.674,1.874-3,3c0.037-1.297-0.277-2.817-1-4
			C59.002,94.073,62.341,94.197,63,97z"/>
		<path style="fill:#B2B2B2;" d="M13.386,59.864l-0.247,1.117C12.403,61.247,11.749,61.772,11,62l0.144-5.958
			C12.725,56.942,11.098,59.643,13.386,59.864z"/>
		<path style="fill:#3A3A3A;" d="M36.224,66.22c0.083,0.379,0.699,0.714,1.088,1.162c0.486,0.561-0.152,0.994-0.38,1.52
			l-0.677,0.984c-1.666-0.291-3.224,0.847-5.165,0.891c-1.076,0.025-1.499-1.429-2.019-1.778c-0.176-1.359-0.314-5.047,1.746-4.715
			C32.681,64.586,34.839,65.593,36.224,66.22z"/>
		<path style="fill:#A1A1A1;" d="M35.222,73.132c0.843,0.585,1.15,1.588,0.919,3.01l0.304,2.39c-2.049,0.63-2.394,1.434-1.037,2.411
			c1.93-0.18,1.933,0.582,0,1.131c-0.87,1.876-2.891,1.963-6.065,0.263c-1.657-2.779-0.653-7.187,1.69-9.258
			C32.377,71.971,33.599,72.741,35.222,73.132z"/>
		<path style="fill:#464646;" d="M29.071,69c0.14,1.076-0.059,2.704-1.294,3.287c-1.007,0.476-2.304,0.646-3.53,0.616
			c-0.645-3.275-0.645-7.362,3.547-8.075C28.135,66.702,27.906,68.218,29.071,69z"/>
		<path style="fill:#343434;" d="M31.034,73.079c1.116,3.293-1.253,5.989-1.69,9.258C26.459,80.306,26.137,77.311,28,74
			C28.515,72.839,30.399,73.603,31.034,73.079z"/>
		<path style="fill:#3E3E3E;" d="M25.916,74.871c0.108,1.082,0.113,2.1,0.147,3.583C26.085,79.392,25.524,80.438,24,80l-2.076-0.769
			c-0.431-0.765-1.281-1.263-1.961-1.885C21.795,74.904,23.838,74.685,25.916,74.871z"/>
		<path style="fill:#383838;" d="M23,74c-0.659,0.182-1.891,0.138-1.975-0.529C20.905,72.513,20.978,71.692,21,71
			c0.86-0.577,0.692-1.706,1.544-3.045C23.553,69.918,22.763,72,23,74z"/>
		<path style="fill:#B3B3B3;" d="M38.126,72.142c0.413,1.98-2.037,3.11-2.904,0.99c0.422-1.059,0.836-2.115,1.032-3.245
			c0.071-0.406,0.358-0.746,0.677-0.984C36.883,70.04,37.521,71.226,38.126,72.142z"/>
		<path style="fill:#696969;" d="M14.081,16.144C13.686,16.507,13.094,17.48,13,18c-0.577,2.067-1.938,3.337-2.871,1.082
			c-3.172,0.274-4.279-2.216-3.322-7.471L9,11c1.716,0,4.344-0.549,5.685,1.079C15.148,13.409,13.965,15.084,14.081,16.144z"/>
		<path style="fill:#6A6A6A;" d="M10,7c0.399-1.119,1.461-1.956,2-3c2.971,0.325,4.99,3.692,5.088,6.994
			C13.602,11.053,12.042,8.679,10,7z"/>
		<path style="fill:#B8B8B8;" d="M59,97h-4c-2.162-1.886-0.41-3.443,2-2C59.558,93.202,60.812,94.471,59,97z"/>
		<path style="fill:#454545;" d="M7.915,43c0.001,1.457-1.033,2.217-2.364,2.124c-1.196-0.084-2.549-0.152-3.262-1.2
			c0.868-0.773,0.766-3.001,2.069-3.107C5.848,40.695,6.502,42.661,7.915,43z"/>
		<path style="fill:#D4D4D4;" d="M9,11c-0.93,1.731-1.731,4.551-0.565,6.685C9.353,19.363,11.899,18.592,13,18
			c-0.025,0.84-0.26,2.17,0,3c-0.686,0.079-1.272,0.869-1.908,1.092c-1.887-0.791-3.856-1.228-5.909-1.31
			c0.196-0.696,0.758-1.423,0.479-2.148c-0.3-0.779-1.13-1.117-1.658-1.64c1.28,0.016,2.394-0.859,2.07-2.55
			C5.935,13.715,5.727,12.72,5,12v-1H9z"/>
		<path style="fill:#2E2E2E;" d="M91,90c0.656,0.121,1.205,1.029,2,1c-0.118,0.639,0.168,1.374,0,2
			c1.98,1.493,0.185,4.229-1.861,2.092c-2.07,0.116-4.913,0.243-5.249-2.202l1.186-1.814C87.758,90.033,89.656,89.752,91,90z"/>
		<path style="fill:#353535;" d="M83.113,98.955l-0.047,2.218c-0.597,1.262-1.72,2.158-3,2.68l-1.598-2.698
			C79.208,100.629,79.652,99.824,80,99l2-2C84.35,96.262,84.968,97.297,83.113,98.955z"/>
		<path style="fill:#383838;" d="M95,95c0.007,1.051-0.704,2.078-1,3c-0.916,0.138-2.043,0.114-2.541-0.849
			c-0.3-0.581-0.342-1.35-0.32-2.059C92.051,94.787,92.749,93.936,93,93c0.483,0.133,1.188-1.066,1.583-0.876
			C95.218,92.43,94.739,94.567,95,95z"/>
		<path style="fill:#2C2C2C;" d="M83.113,98.955c0.015-0.7-0.854-1.283-1.113-1.955c0.325-0.325,0.766-0.53,1.066-0.89
			c0.734-0.279,1.695-0.994,2.139-0.558c0.964,0.948,0.936,2.441,0.721,3.925C85.758,100.646,83.95,99.373,83.113,98.955z"/>
		<path style="fill:#2B2B2B;" d="M93,101l-2,1c-0.856-0.294-1.687-0.83-1.822-1.785c0.107-0.372-0.017-0.876,0.144-1.215
			c-0.307-0.807-0.061-1.039,0.735-0.701c0.84,0.256,1.861,0.259,2.498,0.726C93.145,99.458,93.287,100.553,93,101z"/>
		<path style="fill:#363636;" d="M90.058,98.299c-0.114,0.336-0.531,0.479-0.735,0.701c-0.632,0.089-1.915,0.13-2.268-0.43
			c-0.308-0.488-0.316-1.919,0.359-2.479C88.156,95.475,89.853,96.786,90.058,98.299z"/>
		<path style="fill:#C6C6C6;" d="M89,56c-0.005,1.348,0.164,2.699,0.089,4.049c-1.827-0.261-3.349,2.021-5.199,1.904
			c0.625-1.892,2.557-2.333,4.676-3.806c-1.373-2.056-3.032-0.84-4.366-0.897L84,56H89z"/>
		<path style="fill:#B8B8B8;" d="M95,57c-1.618-0.161-3.585-1.154-3.86-2.858C92.98,53.123,94.043,55.754,95,57z"/>
		<path style="fill:#353535;" d="M56,92c3.004-0.675,3.567,1.337,1,3l-2,2c-0.699,0-1.425,0.123-2.116,0.041
			C52.285,95.081,49.878,93.475,51,91c1.389-0.38,2.878-0.886,4.465-1.519L56,92z"/>
		<path style="fill:#353535;" d="M55,86l1.876,2.507C54.939,90.586,52.98,91.083,51,90v-2c1.224-1.066,0.775-2.692,1.278-5.092
			C54.028,83.323,54.155,84.901,55,86z"/>
		<path style="fill:#B8B8B8;" d="M60,88v2c-1.048,0.904-2.381,1.571-4,2c-1.376-1.096-3.345-1.023-5-1c0.124-0.273,0-0.697,0-1
			c1.219,0.082,2.781,0.125,3.548-0.97C55.167,88.147,55.007,86.971,55,86C56.221,87.587,57.931,88.427,60,88z"/>
		<path style="fill:#4C4C4C;" d="M11.092,22.092C10.6,23.196,9.957,24.245,9,25H4c0.156-1.467,0.787-2.814,1.183-4.219
			c1.089-0.833,2.207-1.819,3.457-1.791C10.568,19.033,11.093,20.556,11.092,22.092z"/>
		<path style="fill:#383838;" d="M55.997,36.864C59.514,39.145,56.447,42.798,53,42c-0.494,0.639-1.494,0.305-3-1
			c-1.294-0.195-2.241-0.951-2.987-2c-0.269-0.378-0.764-0.833-1.134-1.108l1.136-0.016C50.384,37.83,52.718,35.866,55.997,36.864z"
			/>
		<path style="fill:#A2A2A2;" d="M53,42c1.969-1.24,2.014-1.255,2,1c-0.987,1.48-1.084,3.272-1,5c-1.006-2.516-1.884-5.11-4-7
			C50.996,41.15,52.167,41.389,53,42z"/>
		<path style="fill:#AFAFAF;" d="M56,53c2.016,0.358,2.054,1.232,0.124,1.876C52.996,54.187,54.129,50.646,54,48L56,53z"/>
		<path style="fill:#A8A8A8;" d="M49,57c-0.146-1.055-0.457-2.081-1-3c0.686,0.254,1.576-0.194,2.46-0.017
			c0.775,0.155,0.823,1.566,0.151,1.993L49,57z"/>
		<path style="fill:#343434;" d="M40.976,76.024C41.481,76.487,41.503,77.503,42,78c1.739,3.546-4.094,5.372-6.591,2.942
			c-1.314,0.379-3.263,0.235-4.579-0.472c1.863-2.568,3.968-2.8,5.311-4.328C35.007,74.332,36.456,73.596,38,75
			C39.921,73.216,40.914,73.557,40.976,76.024z"/>
		<path style="fill:#4D4D4D;" d="M43,79c1.257,1.257,0.966,3.005,0.321,4.775c-0.742,2.035-2.555,0.602-4.321,0.183
			c-1.266,1.758-4.798,0.329-3.591-1.885v-1.131C37.759,80.265,40.397,79.897,42,78L43,79z"/>
		<path style="fill:#B3B3B3;" d="M40.976,76.024c-0.8-0.686-2-0.781-2.976-1.024c-0.985-1.296,0.459-2.319,1.835-2.835L41,72
			L40.976,76.024z"/>
		<path style="fill:#C5C5C5;" d="M17.026,23.974C15.241,23.984,13.545,22.739,13,21C14.913,20.779,16.219,22.419,17.026,23.974z"/>
		<path style="fill:#424242;" d="M35.045,42.192c-0.52-0.361-1.581-0.414-1.995-1.021c-0.226-1.294-1.15-2.272-1.082-3.913
			c2.181-0.497,4.641-0.771,4.903,1.15C37.11,40.159,37.397,42.41,35.045,42.192z"/>
		<path style="fill:#444444;" d="M30,39v2c-0.823-0.122-1.548,0.368-2,1c-2.852,3.295-3.676-1.549-2-4c-1.031-1.381-0.495-1.882,1-1
			h1C29.69,36.029,30.583,37.236,30,39z"/>
		<path style="fill:#444444;" d="M30,39c-0.932-0.351-1.649-1.068-2-2c0.015-1.278,0.23-1.954,1.489-2.129
			c1.665-0.232,1.646,1.388,1.499,2.38C30.898,37.854,30.77,38.319,30,39z"/>
		<path style="fill:#4B4B4B;" d="M24,37.381c0.873-1.138,1.452-0.766,1,0.619c0.731,1.202,0.503,2.524-1,2
			c-1.017-0.063-1.83-0.704-2.73-1.055C21.488,37.413,22.76,37.508,24,37.381z"/>
		<path style="fill:#464646;" d="M27,37c-0.152,0.457-0.512,0.885-1,1c-0.33,0.892-0.664,0.891-1,0c-0.463,0.03-1.157,0.117-1-0.619
			c0.205-0.718,0.27-1.679,0.75-1.96c0.675-0.395,1.832-0.871,2.013,0.174C26.841,36.041,26.964,36.536,27,37z"/>
		<path style="fill:#3F3F3F;" d="M35,34c0.239,0.463,0.901,1.253,0.64,1.656c-0.361,0.555-1.808,0.378-2.746,0.346
			c-1.284-0.044-1.3-1.6-0.386-1.978C33.075,33.79,34.075,34.105,35,34z"/>
		<path style="fill:#4A4A4A;" d="M37,34h-2c-0.307-0.846-1.212-1.472-0.815-3.093C35.565,31.801,36.393,32.829,37,34z"/>
		<path style="fill:#222222;" d="M63,36c0.657,1.208,1.074,2.609,1,4l-0.695,1.986C62.605,40.897,61.837,40.568,61,41
			c-1.49,1.808-4.009,0.926-6,2c-0.83,0.448-1.509-0.64-2-1c2.046-0.828,2.77-3.069,2.997-5.136C58.324,37.571,60.744,33.136,63,36z
			"/>
		<path style="fill:#383838;" d="M54.952,34.562c-0.755,0.242-1.716,0.398-1.96,0.116c-1.212-1.402,2.588-2.952,2.678-2.957
			c0.396-0.019,0.664,0.502,1.022,0.953C57.516,33.716,56.442,34.084,54.952,34.562z"/>
		<path style="fill:#BABABA;" d="M40,60c-1.712-0.253-4.501-0.141-4.965-2.177C36.913,57.607,38.782,58.611,40,60z"/>
		<path style="fill:#454545;" d="M51.593,80.766c0.468-3.126,0.857-3.006,2.029-0.885c0.772-1.216,0.517-2.011,0.802-2.773
			c0.193-0.516,1.359-1.578,1.461-0.514c0.175,1.832,0.747,3.535-0.762,3.958C53.797,80.926,52.837,83.654,51.593,80.766z"/>
		<path style="fill:#373737;" d="M72,90c-1.454,1.727-1.914,4.02-3,6c-1.944-3.342-2.041-7.608-1.999-11.896
			c1.901-0.195,3.115-0.156,4.931-0.025C71.891,86.253,72.329,88.387,72,90z"/>
		<path style="fill:#353535;" d="M60,90l2,3c0.739,1.109,0.561,2.724,1,4h-4c-0.507-0.83-1.051-1.62-2-2
			c-0.356-0.844-0.249-2.357-1-3c-0.024-1.238-0.571-3.268,1.455-3.054C58.209,89.025,59.25,89.447,60,90z"/>
		<path style="fill:#555555;" d="M77.096,89c-0.263,0.403-1.12,0.914-1.431,1.932C73.451,89.846,72.777,87.355,73,85
			c1.241-0.086,3.354-0.576,4.461,0.476C78.201,86.177,77.578,88.263,77.096,89z"/>
		<path style="fill:#A3A3A3;" d="M65.843,64.307c-1.073,1.424-0.646,3.122,0.171,4.632c-0.48-0.463-1.531-1.065-2.353-0.373L64,73
			c-1.755-0.733-0.634-3.041-1.992-4.112c-0.131-0.714,1.272-2.034,0.549-3.059c-0.474-0.674-1.812-0.835-2.447-1.574
			C61.944,64.188,64.126,65.308,65.843,64.307z"/>
		<path style="fill:#B0B0B0;" d="M28,42c-0.337,0.471-0.973,0.719-1.36,1.138c-0.618,0.67-0.011,1.509,0.36,2.156
			c-0.903-0.348-2.054-0.065-3-0.294c0.651-1.69,1.423-3.338,0-5c0.578-0.519,0.86-1.249,1-2c0.324-0.021,0.685,0.074,1,0
			c-0.091,0.764-0.031,1.517-0.05,2.5C25.928,41.557,26.656,42.4,28,42z"/>
		<path style="fill:#393939;" d="M73.21,55c1.419,1.489,1.966,3.934,2.079,6c-0.088,0.365-0.101,0.871-0.325,1.479
			C74.81,62.895,68.356,61.917,68,60c0.059-0.818-0.196-1.653-1-2c-0.656-0.626-1.148-1.138-1.07-1.249
			C67.989,53.81,72.898,49.51,73.21,55z"/>
		<path style="fill:#CECECE;" d="M73,50.791c-0.106,1.05,1.413,1.56,2,2.209c-0.58,0-1.722-0.198-1.935,0.494
			C72.964,53.82,73.291,54.66,73.21,55c-0.572-0.258-1.236-1.667-1.928-1.615C68.879,54.161,67.288,55.912,67,58
			c-2.599-1.991-4.861,3.151-8,3v-1c-0.703-1.944,1.352-2.71,3-2c0.426-0.284,0.622-0.887,1-1.228
			c-0.005-2.7,5.231-6.521,7.814-5.995C71.535,50.742,72.28,50.753,73,50.791z"/>
		<path style="fill:#B1B1B1;" d="M39.803,51.803c0.027,1.885-2.136,3.26-3.925,3.142C36.835,53.633,38.008,51.531,39.803,51.803z"/>
		<path style="fill:#424242;" d="M39.835,72.165C39.92,73.461,38.942,74.274,38,75c-0.548,0.422-1.405,0.626-1.858,1.142
			c-0.848,0.033-2.648-0.031-1.714-1.113c0.508-0.589,0.552-1.288,0.795-1.897c0.961,0.231,2.044-0.773,2.904-0.99
			C38.652,72.009,39.297,72.242,39.835,72.165z"/>
		<path style="fill:#484848;" d="M70.814,50.777c-1.83,2.77-4.728,4.808-7.814,5.995c-2.065-1.198-4.564-1.386-6.876-1.896
			C56.03,54.331,56.201,53.502,56,53c1.29-1.287,3.164-2.505,5-3c1.364-2.596,2.193-2.907,2.486-0.932L65,49
			C66.901,49.135,69.124,49.907,70.814,50.777z"/>
		<path style="fill:#2C2C2C;" d="M62,58l-3,2c0-0.826-1.007-1.963-0.791-2.594C58.549,56.41,63.021,57.11,62,58z"/>
		<path style="fill:#B2B2B2;" d="M65,49c-0.994,1.073-2.742,0.661-4,1c1.066-1.458,0.583-3.369,1.454-5.03
			c0.998,1.029,0.429,2.194,0.763,3.253C63.393,48.78,63.997,49.331,65,49z"/>
		<path style="fill:#B7B7B7;" d="M64,40c-0.071,1.345,0.435,2.93-0.494,4.037c-0.838-0.876-0.433-1.639-0.782-2.193
			C62.421,41.363,61.844,40.823,61,41C61.746,40.096,62.974,40.05,64,40z"/>
		<path style="fill:#9F9F9F;" d="M74,45c-1.517-1.235-2.197-3.024-2-5C73.591,41.155,74.11,43.088,74,45z"/>
		<path style="fill:#3B3B3B;" d="M35.409,82.073c0.863,1.111,2.477,1.304,3.591,1.885c0.8,0.417,1.156,2.294,2.987,2.843
			c-4.672-0.217-9.035-1.926-12.642-4.464C31.245,83.266,33.464,81.362,35.409,82.073z"/>
	</g>
</g>
</svg>
