<?xml version="1.0" encoding="iso-8859-1"?>
<!-- Generator: Adobe Illustrator 30.1.0, SVG Export Plug-In . SVG Version: 9.03 Build 0)  -->
<svg version="1.1" id="Layer_1" xmlns="http://www.w3.org/2000/svg" xmlns:xlink="http://www.w3.org/1999/xlink" x="0px" y="0px"
	 viewBox="0 0 86 126" style="enable-background:new 0 0 86 126;" xml:space="preserve">
<g>
	<g>
		<path style="fill:#FCFCFC;" d="M80,0l2.19,1.69C83.928,36.843,85.198,71.946,86,107v5c-4.035,2.086-10.63,12.305-14.441,12.106
			c-1.293-0.068-1.65-0.957-2.855-1.981L1.261,64.776c-0.965-6.121,0.086-11.668,0.625-17.72l3.273-36.721L70,0H80z M77.783,3.9
			c-0.725-1.801-1.536-2.323-2.642-2.95C74.608,2.996,76.103,4.322,77.783,3.9z M73.669,2.375c-1.879-0.688-3.507-0.568-3.527,0.09
			C70.733,3.577,71.663,4.312,72.424,4C72.91,3.8,74.178,2.562,73.669,2.375z M64,5h-1l-1.921,0.047
			c0.354-0.868-8.864-0.975-8.302,0.895c-0.979-0.534-2.234-0.862-3.172-0.721C48.151,5.441,47.961,6.868,48,8h-1
			c0-0.305-0.121-0.874-0.283-1.126c-1.053-1.637-3.348-0.958-4.617,0.165l-1.262,0.102L37,7h-1
			c-1.96,1.266-4.182,0.966-7.018,1.047C29.337,8.922,29.68,9.53,30,10c-2.005-0.315-3.915-1-6-1h-1
			c-3.72,0-7.631,1.778-11.121,3.21c-0.917-0.446-2.016-0.828-3.31-0.889c-1.082-0.051-1.878,0.092-2.107,1.595
			C6.255,14.273,5.914,15.611,6,17c0.051,0.814,0.351,1.629,0.357,2.444C6.363,20.3,6.084,21.153,6,22l-1,1
			c-0.112,1.305,0.088,2.598,0.467,3.845c0.08,0.262,0.22,0.593,0.199,0.864c-0.189,2.46,2.06,3.997,2.95,6.192l0.034,0.887
			c-1.029-0.926-2.759-0.556-3.449,0.341C4.949,35.455,3.871,35.184,4,36c0.095,0.6-0.218,1.724,0.087,2.429
			C4.302,38.925,5.435,39.172,6,39.12c-0.297,0.798-1.709,1.077-1.859,1.74c-0.248,1.094,0.486,2.067,1.203,2.544l-0.113,0.73
			c-1.354,0.765-2.264,2.878-0.986,4.247c0.595,0.638,2.231,0.514,2.545-0.08C7.162,47.596,6.883,46.529,7,45.68l0.995-0.115
			c0.097,0.836-0.437,2.302,0.504,3.377C8.994,49.509,10.49,48.732,11,48c1.22,0.113,1.412,1.319,2,2.157l-9.952-0.124
			c-0.29,2.249,0.436,3.83,1.028,5.449c-1.336,1.016-3.038,6.754-0.721,8.435c0.619,0.449,1.442,0.645,2.538,0.345
			c0.632,2.986,3.57,4.729,5.9,6.499l1.302,0.1l0.798,0.136c-0.046,2.076,1.697,3.366,3.462,4.171
			c1.318,2.008,3.361,3.389,5.457,4.507C23.292,79.931,23.61,80.61,24,81l1,1c0.344,0.344,0.668,0.764,1.084,1.026
			c2.032,1.281,8.13,8.613,6.633,3.042l3.187,2.967c-1.201,2.897,2.382,4.417,4.604,6.328l2.471,2.125
			c1.061,0.913,2.176-0.768,3.163-0.756c2.274,0.028,4.75,0.534,7.037-0.06l0.105,1.168c-2.545,0.666-5.089-0.194-8.492,1.35
			l4.768,3.845c0.675-2.337,1.594-3.402,3.261-3.266c-0.001,0.675-1.506,1.788-1.046,2.242c0.589,0.582,1.682,1.577,2.314,1.947
			l-1.866,0.77c2.26,2.485,4.107,4.339,6.925,6.469c0.898-0.689,0.991-1.612,1.489-2.197c-0.279,1.124-0.047,2.915,0.705,3.873
			c0.604,0.77,2.12,1.845,3.314,1.35c0.012,0.283,0.079,0.565,0.076,0.848c-0.029,2.687,3.596,3.677,5.577,4.995
			c0.216,0.389,0.768,1.921,1.446,1.931c2.415-0.928,3.996-3.178,5.155-4.996c0.247-0.275,0.758-0.837,1.089-1
			c1.291-0.636,2.381-1.657,3-3c0.182-0.394,0.766-0.781,1-1.139c2.466-0.703,2-3.649,2-5.861v-2c0-2.764,0.464-5.973-1.74-7.967
			c0.28-0.469,0.883-1.264,0.531-1.604C82.027,93.69,80.646,94.009,80,94c-0.438-0.006-0.922-0.318-1-0.756
			c0.944-0.244,3.367,0.09,3.734-1.287C83.499,89.087,82.766,86.432,83,84c0.028-0.294,0.099-0.725,0-1c-1.154-3.215-1-6.616-1-10
			v-2c0-1.062,0.07-2.082,0.051-3.461c-0.013-0.943-0.67-1.866-2.059-1.686c0.52-0.315,1.297-1.067,1.443-1.576
			C81.668,63.471,80.625,62.414,80,62l1-2c-0.013-6.241,0.447-13.471-2.039-19.144c0.53-1.922,1.708-5.25-0.289-7.045
			C79.523,31.917,80.919,29.402,79,28c-0.183-0.648-0.398-1.518-0.879-2.073c-0.237-0.473,0.051-1.294-0.126-1.824
			c1.835-2.351,0.819-5.378,0.688-8.126c-0.066-1.381-0.301-2.442-0.898-3.677c-0.502-1.039,0.871-2.83-0.723-3.847
			C75.67,7.563,68.97,3.097,71,7h-1c0.261-1.671-0.139-3.23-1.658-3.693C66.253,2.67,63.958,2.503,64,5z"/>
		<path style="fill:#F0F0F0;" d="M47,8c3.098,0.589,2.251,1.454,0,3c1.89,0.706,1.79,1.682,1.206,3.265
			c1.432-0.453,2.078,0.382,2.458,1.908c0.894,0.109,0.899,0.407,0.081,0.879c1.481,0.824,1.325,1.591-0.37,1.769
			c-2.64,0.54-2.865,2.635-0.677,6.287l0.131,1.865C50.74,27.123,50.784,27.468,50,28c0.158,4.247,1.39,8.551,3.696,12.913
			c0.865,0.299,0.844,0.624-0.026,0.974c1.841,6.182,4.831,10.845,8.971,13.988L67.766,56c-0.184-1.947,0.623-1.939,1.234,0
			l4.051,1.366C76.944,57.232,79.594,58.11,81,60l-1,2c-1.498,2.187-4.153,1.411-5-1c-0.977,0.844-1.688,1.413-2,0
			c-1.352,2.055-4.435,1.306-6.281,0.336c-1.343,1.743-4.106,0.968-5.813-0.336c-1.51-0.187-3.327,0.303-5.45,1.469
			C53.202,64.32,51.05,65.163,49,65c-0.463,0.699-0.964,1.421-1.699,1.854c-0.357,0.211-6.271,3.26-6.626,3.386
			C39.799,70.552,38.844,70.273,38,70c-0.247,0.879-0.582,0.857-1,0c-0.136,1.995-1.586,2.319-3,1c0.635,1.7,0.57,1.932-1,1
			c0.081,2.115,0.045,2.227-2.139,2.131c0.084,1.524,0.729,2.481,1.934,2.869c3.366,1.413,1.362,4.873-1.795,4.186
			c-1.184,1.151-2.823,1.764-4.916,1.84C25.668,82.764,25.344,82.344,25,82c-0.623-1.33-0.463-3.276,1-4
			c-0.874-0.316-0.858-0.682,0.003-1.094c0.06-2.18,1.106-5.714,3.051-6.781C29.839,68.542,31.41,68.247,33,68
			c2.193-1.713,4.527-2.713,7-3c2.068-0.573,5.149-2.08,2-4l-1.91-1.074c-5.707,0.1-10.815-1.252-11.271-7.724
			C26.009,49.849,25.736,48.114,28,47c1.871-2.374,4.817,0.587,5,3l1.294,1.675c-0.833,2.106,0.989,3.151,5.465,3.135
			c-0.148-3.477,0.586-6.046,2.201-7.708c1.009-1.957,1.009-1.957,0,0c0.108,2.839-3.861,3.545-4.814,0.827
			c-0.28-1.11-1.007-1.333-2.183-0.67c-2.964-1.181-5.651-1.568-8.062-1.162c-1.237,1.094-2.422,1.353-3.075-0.145
			c1.348-12.306-1.306-10.597-7.961,5.127c1.195,1.093,1.131,2.963-0.832,1.979c-2.222,1.909-3.977-0.807-2.034-2.9
			c-0.588-0.838-0.78-2.044-2-2.157c-1.986,0.066-2.079-1.992-0.659-3c-1.947,0.189-1.94-0.62-0.003-1.236
			c-0.861-1.974,0.327-3.453,2.483-2.63c0.254-2.649,0.674-4.997,4.302-4.056c2.012-1.319,2.64-2.406,1.882-3.259
			c0.191-1.857-0.475-3.596-1.997-5.218c-1.454-1.505-3.228-3.553-1.866-5.591c-1.914,0.103-2.378-0.313-1.121-1.803
			c-2.588-0.352-4.6-2.863-4.194-5.483c-1.849-0.06-3.228-0.83-3.365-2.808c0.229-1.503,1.025-1.645,2.107-1.595
			c1.294,0.061,2.394,0.442,3.31,0.889c1.832,0.292,2.528,1.587,2.089,3.885C15.685,16.746,17.334,18.282,18,20
			c1.674,0.552,1.639,0.999-0.139,1.218c-0.897,0.935,0.13,1.462,2.087,1.733c1.606,3.893,3.525,4.879,5.755,2.96
			c0.014-1.157,0.459-2.356,1.337-3.597c-0.54-4.046,0.42-5.463,2.878-4.253l1.416,0.073c0.495,1.942,1.354,3.553,2.579,4.834
			l2.049-1.535c0.448-1.539,1.118-2.004,2.012-1.394c0.016-1.531,1.116-2.446,3.3-2.746c1.697-1.326,2.231-3.482,1.602-6.469
			c1.065-3.224,2.345-4.541,3.841-3.951C46.879,7.126,47,7.695,47,8z"/>
		<path style="fill:#848484;" d="M81,60c-1.934,0.463-10.888-0.714-11.671-1.816C68.89,57.565,69.119,56.7,69,56
			c-1.589-1.994-2.701-6.669,0-8c0.239-0.915,0.575-0.892,1,0l4-3c-1.674-2.552,2.803-6.583,4.961-4.144
			C81.447,46.529,80.987,53.759,81,60z"/>
		<path style="fill:#7F7F7F;" d="M78.672,33.811c1.996,1.795,0.818,5.123,0.289,7.045C77.054,41.903,75.653,43.606,74,45l-4,3
			c-0.32,0.001-0.688-0.061-1,0c-1.081,2.765-2.498,2.614-2.745-0.18c-0.093-1.052,3.676-19.75,4.158-20.689
			c0.119-0.233,0.364-0.401,0.645-0.55c0.182-1.057,0.785-1.67,1.511-1.18C74.936,26.996,79.449,31.151,78.672,33.811z"/>
		<path style="fill:#7B7B7B;" d="M33,72c2.615,2.482,4.397,2.537,5.345,0.165l4.374,1.83C46.31,73.407,46.736,75.076,44,79
			c-0.697,3.107-2.03,5.441-4,7l-4.096,3.035l-3.187-2.967c-2.579-0.231-2.747-2.941-1.717-4.882
			c0.463-1.529,2.467-2.558,1.795-4.186c-1.888,0.491-3.109-1.279-1.934-2.869C31.012,72.971,31.652,71.891,33,72z"/>
		<path style="fill:#EAEAEA;" d="M60.807,87.321l0.723,1.146c-2.076,4.413,0.148,5.803,6.671,4.169
			c2.43-1.034,4.327-0.948,5.691,0.257c1.566-1.817,4.02-2.006,5.108,0.352c0.078,0.438,0.562,0.75,1,0.756
			c0.689,0.668,1.442,1.346,2.26,2.033c1.217,1.709,0.831,2.457-1.057,3c1.421,1.289,2.354,2.945,2.797,4.966v2
			c-2.502,2.922-6.924-3.295-7.748-6.029c-0.515-2.308-1.272-3.367-2.27-3.179c0.237,2.103-0.09,3.839-0.982,5.208
			c1.167,1.861,0.774,3.728-1,5c-1.76,1.659-6.19,0.205-7-2c-0.748-2.46-0.355-4.461,1.178-6.003
			c1.048-0.828,2.084-0.657,3.106,0.512l-0.169-1.558c-1.885,0.484-3.186,0.156-3.903-0.986c0.071,0.772,0.048,1.683-0.552,2.105
			c-0.41,0.288-5.883,1.12-6.832,0.979c-2.021,1.856-2.62,1.603-2.679-1.125c-0.967-0.211-1.589-0.572-1.866-1.084l-0.105-1.168
			c-0.719-1.476,0.254-2.5,2.918-3.071c-0.497-2.361-0.247-4.237,0.749-5.627c-1.807-1.634-1.622-3.005,0.769-3.911
			C60.365,82.042,61.072,84.895,60.807,87.321z"/>
		<path style="fill:#7A7A7A;" d="M84,106c0,2.212,0.466,5.158-2,5.861c-2.038,0.325-3.583,1.005-4.635,2.042
			c0.03-1.567-0.99-1.934-3.06-1.099L74,110c-2.651,1.389-3.589-0.946-2-3c-0.94-1.694-0.523-3.709,1-5
			c-1.304-2.622,1.381-3.635,3.252-2.029C79.887,100.385,80.778,104.699,84,106z"/>
		<path style="fill:#767676;" d="M82,73c0,3.384-0.154,6.785,1,10c-0.886,1.061-1.658,0.778-2.316-0.851L78,80
			c-2.677,2.377-6.275-1.282-4-4l-5.02-3.828c0.713-3.796,1.595-5.068,2.648-3.814L73,67.978C76.627,66.922,79.627,68.595,82,73z"/>
		<path style="fill:#656565;" d="M53,86c2.064-1.856,3.514-0.687,3.845,1.974c1.172,2.005,1.989,5.177,0.612,7.585l-4.279,1.113
			c-2.287,0.595-4.763,0.089-7.037,0.06c-0.884-0.092-0.85-0.373-0.003-0.822C46.607,91.632,48.227,88.328,51,86
			C51.06,84.308,51.727,84.308,53,86z"/>
		<path style="fill:#858585;" d="M65,105c2.684-0.506,4.96,0.352,7,2c1.042,0.842,1.201,2.092,2,3
			c2.216,1.402,2.033,2.792-0.549,4.167c-2.686-0.765-5.618-0.746-8.795,0.056c-1.194,0.495-2.709-0.58-3.314-1.35
			c-0.752-0.958-0.984-2.749-0.705-3.873c-0.851-0.331-0.85-0.664,0-1C61.217,104.974,62.168,102.256,65,105z"/>
		<path style="fill:#5B5B5B;" d="M48,87l0.705,1.052l-2.565,7.858c-0.111,0.216,0.06,0.577,0.003,0.822
			c-0.988-0.012-2.102,1.668-3.163,0.756l-2.471-2.125c-2.222-1.91-5.804-3.431-4.604-6.328L40,86c1.632-1.814,2.632-2.147,3-1
			L48,87z"/>
		<path style="fill:#E6E6E6;" d="M61,9.903c0.268-0.878,0.602-0.872,1-0.018c0.514,0.347,0.502,0.719,0,1.115
			c2.363,0.329,3.034,1.393,2.013,3.192c1.475-0.503,2.661,0.385,3.557,2.663c1.761,0.358,3.22,1.029,4.377,2.014
			c1.917,2.617,3.249,5.314,3.998,8.09c1.221-1.008,2.802,1.901,2.659,2.033C78.537,29.054,77.567,27.924,79,28
			c1.919,1.402,0.523,3.917-0.328,5.811c-2.682-2.411-3.854-7.122-7.614-7.231c-0.308,0.865-0.641,0.842-0.997-0.029
			c-2.009-0.016-2.592-0.812-1.297-2.58c-1.386-0.199-2.767-0.698-4.143-1.496c-2.575,1.297-4.448,1.263-5.62-0.102
			c-2.127-1.078-1.774-2.071,0-3.373l1.226-1.966c-3.449-2.734-5.156-5.679-5.121-8.834c-0.283-0.876-0.002-1.011,0.798-0.465
			C57.719,8.438,59.418,9.16,61,9.903z"/>
		<path style="fill:#E4E4E4;" d="M29.081,63.077C26.346,61.315,26.346,61.315,29.081,63.077c2.482-1.278,2.982-0.251,0.969,1.713
			c-0.194,1.402-0.122,2.808,0.213,4.217l-1.209,1.118c-1.464,1.199-3.067,3.825-3.051,6.781L26,78l-2,3
			c-0.39-0.39-0.708-1.069-1.189-1.325C21.757,78.698,21.163,77.448,21,76c-1.445-1.386-0.851-1.981,1-1
			c0.038-3.241,1.01-5.343,2.916-6.307c-0.541-1.515-1.4-3.168-2.575-4.958C20.75,66.958,16.727,65.404,18,62l0.44-1.336
			c-1.586-1.787-2.725-3.662-3.417-5.623c-2.653-0.33-2.535-1.242,0.01-1.984c0.56-0.509,0.862-1.223,0.832-1.979
			c-1.064-4.021,4.394-3.361,4.09,1.121c5.514,1.166,9.692,3.419,12.534,6.76C32.538,62.375,31.402,63.748,29.081,63.077z"/>
		<path style="fill:#7A7A7A;" d="M13,50.157l2.034,2.9l-0.01,1.984c-2.26,3.297-3.39,4.946-3.39,4.946L10,59.726
			c-2.808,0.821-5.523-1.515-5.924-4.243c-0.591-1.62-1.317-3.201-1.028-5.449L13,50.157z"/>
		<path style="fill:#D4D4D4;" d="M40.837,7.142L42.1,7.039c2.713,0.443,2.499,2.151,0.776,3.785
			c0.218,1.611-1.044,2.309-3.787,2.091c0.338,3.002-0.034,5.376-1.116,7.123c-0.736,1.52-1.96,2.874-4.06,2.929
			c-1.085-1.532-0.744-3.124,1.024-4.774c-0.983-0.256-1.233-0.974-1.348-1.886c-0.125-0.99,0.536-6.317,0.082-1.377
			c-0.074,0.809-0.366,1.56-0.75,2.273c-0.089,2.623-1.106,2.584-3.002,0.856c-1.102,1.025-2.695,1.306-4.777,0.845
			C24.506,20.681,23.459,21.712,22,22c-0.935,3.198-3.686,2.052-4.139-0.782L18,20l1.776-1.987C20.355,16.301,20.43,14.963,20,14
			c-0.875-2.26,0.711-4.421,3-5h1l1.306,0.567c-0.522,4.314,0.629,5.698,3.452,4.152C28.729,12.198,29.143,10.958,30,10
			c0.969-0.851,2.623-1.276,4.964-1.273C33.526,8.735,33.872,8.159,36,7h1C38.261,8.474,39.54,8.521,40.837,7.142z"/>
		<path style="fill:#676767;" d="M15,61c1.385-2.448,2.848-1.759,3,1c1.023,1.401,2.674,1.698,4.341,1.735
			c6.185,3.319-3.951,6.865-7.401,7.757c-0.288,0.074-0.656-0.165-1.048-0.495l-0.798-0.136c-0.652-3.663-1.037-7.347-1.155-11.052
			L15,61z"/>
		<path style="fill:#6F6F6F;" d="M79,93.244c-1.445,0.373-3.707,0.727-5.108-0.352C71.573,91.389,72.269,90.172,75,90
			c0.483-1.974,2.15-3.641,5-5c0.644-2.567,1.644-2.9,3-1c-0.234,2.432,0.499,5.087-0.266,7.957C82.367,93.335,79.944,93,79,93.244z
			"/>
		<path style="fill:#CCCCCC;" d="M61.079,5.047c1.283,1.914,0.046,2.981-1.992,2.864c-0.699,0.432-1.76,0.373-3.184-0.176
			c-0.149,0.238-0.626,0.239-0.798,0.465C56.294,10.704,56.451,14.269,54,16c-0.261,2.631-1.478,3.162-3.255,1.052l-0.081-0.879
			l-0.949-2.003C51.042,12.648,50.136,11.591,47,11V8h1c1.273-1.227,3.119-1.947,4.777-2.058
			C52.214,4.072,61.433,4.179,61.079,5.047z"/>
		<path style="fill:#CBCBCB;" d="M70,7h1c2.044,1.992,4.306,3.758,6.785,5.299c0.597,1.236,0.832,2.296,0.898,3.677
			c-1.462,1.646-3.033,3.048-4.714,4.207c-1.313,1.85-2.869,0.834-2.022-1.316l-1.25-2.021C72.556,14.991,71.324,13.375,67,12
			c-1.124-0.745-2.791-1.078-5-1c0.165-0.307-0.105-0.78,0-1.115C60.337,8.118,60.828,5.967,63,5h1C66.011,5.662,68.011,6.329,70,7z
			"/>
		<path style="fill:#DCDCDC;" d="M15.929,35.215c1.381,0.98,0.244,2.545-3.412,4.693c-1.141,0.848-1.867,2.133-2.178,3.856
			L10.341,45c0.259,2.405-0.999,2.6-2.346,0.564L7,45.68c-1.47,2.389-3.311,0.719-1.769-1.546l0.113-0.73
			C6.6,42.014,6.436,40.389,6,39.12C5.053,38.356,4.386,37.316,4,36c-0.129-0.816,0.949-0.545,1.202-0.871
			c1.495,0.264,2.644,0.15,3.449-0.341L8.617,33.9C9.9,32.688,11.361,31.66,13,30.816c0.686-2.475,1.166-2.606,3-0.816
			C17.699,30.956,17.675,32.694,15.929,35.215z"/>
		<path style="fill:#5B5B5B;" d="M10,59.726c1.193,3.013-1.162,7.306-4.108,4.536c-1.096,0.3-1.919,0.104-2.538-0.345
			c-2.317-1.681-0.614-7.419,0.721-8.435C6.504,55.979,8.273,57.87,10,59.726z"/>
		<path style="fill:#6B6B6B;" d="M80,62c0.625,0.414,1.668,1.471,1.436,2.277c-0.147,0.508-0.924,1.26-1.443,1.576
			C80.798,68.415,79.941,68.554,78,67c-1.284,0.473-2.951,0.799-5,0.978c-2.206,2.234-3.383,1.406-3.532-2.483
			C71.431,64.086,73.275,62.587,75,61C76.731,61,78.517,61.032,80,62z"/>
		<path style="fill:#555555;" d="M30,10c0.968,1.421,1.692,4.205-0.383,5.564c-1.791,1.173-4.416,0.223-6.62,0.36
			C22.719,13.141,23.981,11.26,24,9C26.085,9,27.995,9.685,30,10z"/>
		<path style="fill:#5B5B5B;" d="M23,9c-0.158,1.547-1.184,4.48-3,5c-0.507,3.115-3.713,4.283-6.031,2.094
			c-1.985-0.182-2.368-2.162-2.089-3.885C15.369,10.778,19.28,9,23,9z"/>
		<path style="fill:#6F6F6F;" d="M55.15,98.924c0.943,0.215,1.779,0.811,2.679,1.125c1.195,1.184,2.147,2.501,2.856,3.951
			c2.597,0.382,1.426,2.242-0.685,3c-2.26,1.785-5.453-0.521-5.911-3.042c-0.632-0.37-1.724-1.366-2.314-1.947
			c-0.459-0.453,1.045-1.567,1.046-2.242C52.306,98.439,54.145,98.045,55.15,98.924z"/>
		<path style="fill:#C0C0C0;" d="M24.916,68.693c-0.299,1.758-1.721,2.753-4.265,2.986C22.329,72.221,22.86,73.242,22,75
			c-0.396,0.015-0.706,0.79-1,1c-0.63,0.905-1.845,0.628-3.646-0.832c-1.765-0.804-3.508-2.094-3.462-4.171
			c2.503-2.529,9.412-1.747,9.376-4.51c-0.011-0.831-0.127-2.048-0.927-2.752c1.008,0.022,1.901,1.25,2.697,1.723
			C26.716,66.455,25.454,67.63,24.916,68.693z"/>
		<path style="fill:#585858;" d="M11.793,70.761c-2.33-1.769-5.268-3.513-5.9-6.499c2.28-0.561,2.675-3.224,4.108-4.536
			C13.383,59.565,12.911,67.701,11.793,70.761z"/>
		<path style="fill:#696969;" d="M77.785,12.299l-1.829,1.303C75.036,14.257,69.985,9.36,71,7c-2.03-3.903,4.67,0.563,6.062,1.452
			C78.655,9.469,77.283,11.26,77.785,12.299z"/>
		<path style="fill:#808080;" d="M9.827,15.724c2.068,1.154,3.771,3.195,4.194,5.483c0.735,1.149-0.265,1.924-3,2.325
			c-1.267,1.837-1.768,0.799-1.945-1.448c-1.749,0.127-2.557-0.948-2.719-2.64C6.351,18.629,6.051,17.814,6,17
			C6.592,14.43,7.922,13.81,9.827,15.724z"/>
		<path style="fill:#505050;" d="M78.682,15.976c0.131,2.748,1.148,5.775-0.688,8.126c-2.023,2.588-5.912-2.105-4.026-3.919
			c0.019-1.247,0.089-2.869,1.219-4.411C75.784,14.959,77.361,15.698,78.682,15.976z"/>
		<path style="fill:#717171;" d="M12.176,29.927c1.014-0.381,1.29-0.085,0.824,0.89c0.231,0.955,0.893,1.684,1.013,3.284
			c-2.288,0.195-3.784-0.092-5.396-0.2c-0.89-2.195-3.139-3.732-2.95-6.192c0.71-0.799,1.848-1.542,3.414-2.231
			C9.792,27.156,10.824,28.639,12.176,29.927z"/>
		<path style="fill:#8C8C8C;" d="M73,116c2.151,1.728-0.395,5.301-2.69,4.066c-1.981-1.318-5.607-2.308-5.577-4.995
			c2.887-1.462,6.131-1.983,9.732-1.563L73,116z"/>
		<path style="fill:#CACACA;" d="M15.142,23.01c0.05,1.546-0.866,2.447-2.748,2.703c1.166,1.78,1.093,3.185-0.218,4.213
			c-2.275-1.285-4.05-4.069-6.509-2.218c0.021-0.271-0.12-0.602-0.199-0.864C5.731,25.431,5.575,24.149,5,23l1-1
			c0.752-1.023,2.107-0.66,3.076,0.084c0.784,0.383,1.612,0.695,2.403,0.725c1.162,0.045,2.244-0.456,2.542-1.602
			C14.401,21.653,14.872,22.504,15.142,23.01z"/>
		<path style="fill:#6D6D6D;" d="M76.911,117c-1.159,1.818-2.74,4.068-5.155,4.996c-0.677-0.01-1.229-1.541-1.446-1.931
			c1.388-0.882,1.423-3.114,2.69-4.066c-0.563-1.12,1.398-3.927,2.838-4.161C78.082,111.476,77.928,115.423,76.911,117z"/>
		<path style="fill:#6D6D6D;" d="M73.969,20.184c0.972,1.639,2.309,3.067,4.026,3.919c0.177,0.53-0.111,1.351,0.126,1.824
			c0.793,2.648-0.242,3.025-2.176,1.031c-1.977-0.463-2.445-2.54-3.805-4.068c-0.832-0.935-3.408-0.98-2.694-2.793
			c0.933,0.18,1.585,0.374,1.929,0.29c0.671-0.164,0.399-1.086,0.572-1.519L73.969,20.184z"/>
		<path style="fill:#6F6F6F;" d="M31,81.186c1.564,1.252,1.746,2.962,1.717,4.882c1.498,5.571-4.601-1.761-6.633-3.042
			c-0.003-0.49-0.213-1.076,0.064-1.876C28.099,80.827,29.524,81.083,31,81.186z"/>
		<path style="fill:#DFDFDF;" d="M82,111.861c-0.234,0.358-0.818,0.745-1,1.139c-1.702,0.825-2.216,1.238-3,3
			c-0.332,0.163-0.842,0.725-1.089,1c-0.152-1.413,0.917-2.891-0.902-4.595c-1.259,1.844-1.833,2.713-3.008,3.595
			c-0.024-0.432,0.183-1.129-0.024-1.471c-1.053-1.743-6.477,0.697-8.244,0.542c0.003-0.283-0.064-0.565-0.076-0.848
			c7.549-3.131,9.945,1.39,9.344-4.223C75.994,112.267,79.232,112.286,82,111.861z"/>
		<path style="fill:#525252;" d="M70,7c-1.242,0.758-2.805,1.299-4.342,0.919C64.439,7.618,63.926,6.278,64,5
			c-0.042-2.497,2.253-2.33,4.342-1.693C69.861,3.77,70.261,5.329,70,7z"/>
		<path style="fill:#797979;" d="M84,104c-2.326-1.525-4.356-3.684-6.552-5.933c1.605-2.298,3.965-0.059,4.812-2.033
			C84.464,98.027,84,101.236,84,104z"/>
		<path style="fill:#6A6A6A;" d="M54.089,103.958C56,105.077,58.038,105.979,60,107c0.874-0.271,1.053,0.093,0.638,1
			c-0.047,0.324,0.079,0.684,0,1c-0.499,0.585-0.592,1.508-1.489,2.197c-2.819-2.13-4.665-3.984-6.925-6.469L54.089,103.958z"/>
		<path style="fill:#D1D1D1;" d="M15,61c-0.856-0.289-2.222-0.114-2.865,0.378c1.696,3.391,0.586,6.537,0.959,9.483l-1.302-0.1
			c0.156-3.667,0.911-8.129-1.793-11.035c1.701-1.558,2.951-3.673,5.024-4.685C16.578,55.969,16.57,57.955,15,61z"/>
		<path style="fill:#808080;" d="M53.283,97.84c0.385-0.101,0.829,0.096,1.323,0.154c0.567,0.067,0.946,0.268,0.543,0.93
			c-0.81-0.185-1.677,0.745-2.328,0.845c-1.667-0.137-2.587,0.928-3.261,3.266l-4.768-3.845
			C48.194,97.646,50.739,98.506,53.283,97.84z"/>
		<path style="fill:#646464;" d="M46.717,6.874c-0.889-1.371,0.045,3.164-1.463,4.124c-0.593,0.378-1.664-0.146-2.378-0.174
			c-0.995-0.762-0.694-2.752-0.776-3.785C43.369,5.916,45.663,5.237,46.717,6.874z"/>
		<path style="fill:#868686;" d="M5.344,43.404c-0.717-0.478-1.451-1.451-1.203-2.544c0.15-0.663,1.562-0.942,1.859-1.74
			c2.172-0.199,2.261,0.723,2.075,3.269C7.981,43.685,7.053,44.56,5.344,43.404z"/>
		<path style="fill:#707070;" d="M52.777,5.942c-0.108,1.143-0.85,1.85-2.038,2.237C49.904,8.451,48.772,8.948,48,8
			c-0.039-1.132,0.151-2.559,1.605-2.779C50.543,5.08,51.798,5.408,52.777,5.942z"/>
		<path style="fill:#515151;" d="M63,5c0.108,1.695-0.043,3.442-1,4.885l-1,0.018c-0.948,0.949-2.763-0.804-1.913-1.992
			c0.025-1.291,0.946-2.215,1.992-2.864L63,5z"/>
		<path style="fill:#717171;" d="M30,10c-0.32-0.47-0.663-1.078-1.018-1.953C31.818,7.966,34.04,8.266,36,7
			c-0.044,0.573,0.391,2.087-0.265,2.704C33.798,10.372,31.71,10.269,30,10z"/>
		<path style="fill:#585858;" d="M79.992,65.853c1.39-0.18,2.046,0.742,2.059,1.686C82.07,68.918,82,69.938,82,71
			c-1.532,0.881-4.892-2.679-4-4C78.398,66.19,79.346,66.245,79.992,65.853z"/>
		<path style="fill:#D0D0D0;" d="M78,67c0.897,1.707,2.293,3.103,4,4v2c-5.105-3.033-2.47-5.002-9-5.022
			C74.201,66.485,76.217,66.94,78,67z"/>
		<path style="fill:#7E7E7E;" d="M21,76c0.603,0.284,1.663-0.278,1.88,0.668c0.25,1.092,0.084,2.087-0.069,3.007
			c-2.096-1.118-4.138-2.498-5.457-4.507C18.668,74.956,19.855,75.46,21,76z"/>
		<path style="fill:#5C5C5C;" d="M9.827,15.724C8.57,16.205,7.308,16.676,6,17c-0.086-1.389,0.255-2.727,0.462-4.084
			c0.82,0.048,1.679,0.162,2.461,0.662C9.592,14.007,9.862,14.87,9.827,15.724z"/>
		<path style="fill:#9A9A9A;" d="M7,45.68c-0.117,0.85,0.162,1.917-0.21,2.621c-0.314,0.594-1.95,0.718-2.545,0.08
			c-1.278-1.369-0.368-3.483,0.986-4.247C5.082,45.067,6.522,45.07,7,45.68z"/>
		<path style="fill:#717171;" d="M11,48c-0.51,0.732-2.006,1.509-2.502,0.942c-0.94-1.076-0.406-2.541-0.504-3.377
			c0.783-0.091,1.547-0.447,2.346-0.564C11.054,45.832,11.058,46.953,11,48z"/>
		<path style="fill:#7A7A7A;" d="M40.837,7.142c-0.215,0.547,0.273,1.697-0.1,2.25c-0.533,0.79-2.255,0.647-2.869,0.253
			C37.083,9.14,37.035,7.861,37,7L40.837,7.142z"/>
		<path style="fill:#D8D8D8;" d="M83,83c0.099,0.275,0.028,0.706,0,1c-0.924,0.399-2.108,0.645-3,1c-2.742-1.634-3.409-3.3-2-5
			C79.911,80.63,81.41,81.599,83,83z"/>
		<path style="fill:#939393;" d="M8.651,34.787c0.031,0.798,0.861,1.642-0.155,3.444c-1.808-0.465-2.183-2.152-3.294-3.103
			C5.892,34.231,7.622,33.862,8.651,34.787z"/>
		<path style="fill:#5E5E5E;" d="M79,28c-0.039,0.492,0.27,1.042-0.29,2.032c-1.405-0.579-1.924-2.281-2.765-3.074
			c0.865,0.058,1.749-0.236,2.176-1.031C78.602,26.482,78.817,27.352,79,28z"/>
		<path style="fill:#8C8C8C;" d="M82.26,96.033c-1.146-0.336-2.254,0.679-4.349-0.306C78.513,94.714,79.763,94.959,80,94
			c0.646,0.009,2.027-0.31,2.791,0.429C83.143,94.77,82.539,95.565,82.26,96.033z"/>
		<path style="fill:#787878;" d="M9.076,22.084C8.125,22.805,6.878,22.836,6,22c0.084-0.847,0.363-1.7,0.357-2.556
			C7.423,20.153,8.473,20.929,9.076,22.084z"/>
		<path style="fill:#707070;" d="M5.467,26.845C5.088,25.598,4.888,24.305,5,23c1.169,0.626,2.177,1.454,3.057,2.664
			C6.766,26.341,6.103,26.456,5.467,26.845z"/>
		<path style="fill:#CBCBCB;" d="M73.669,2.375C74.178,2.562,72.91,3.8,72.424,4c-0.761,0.313-1.691-0.423-2.282-1.535
			C70.162,1.807,71.79,1.687,73.669,2.375z"/>
		<path style="fill:#767676;" d="M26,78c-0.003,1.363-0.688,2.661-1,4l-1-1c-0.062-0.707-0.151-1.491,0.127-2.353
			C24.346,77.967,25.236,77.814,26,78z"/>
		<path style="fill:#818181;" d="M81,113c-0.619,1.343-1.709,2.364-3,3c0.026-0.688-0.286-1.656,0.101-2.398
			C78.61,112.626,80.08,112.949,81,113z"/>
		<path style="fill:#7B7B7B;" d="M6,39.12c-0.565,0.052-1.698-0.196-1.913-0.691C3.782,37.724,4.095,36.6,4,36
			C5.142,36.37,6.487,37.814,6,39.12z"/>
		<path style="fill:#CBCBCB;" d="M77.783,3.9c-1.68,0.422-3.175-0.904-2.642-2.95C76.247,1.578,77.058,2.099,77.783,3.9z"/>
		<path style="fill:#9B9B9B;" d="M26.903,46.097C28.309,44.712,28.887,45.222,28,47c-0.112,1.491,1.063,2.527,2.234,3.798
			c1.244,1.351,0.462,4.027,1.773,5.23C35.89,59.594,43.239,55.566,42,61c-0.879,2.314-2.673,2.929-5,2.895
			c0.392,2.7-1.019,2.967-3,1.105c-1.085,2.14-2.394,1.206-3.951-0.211c-0.119-0.657-0.541-1.222-0.969-1.713
			c1.14-0.61,1.074-2.955,1.709-4.751l-13.758-5.073l1.405-3.185l-2.571,1.01c-4.258-1.246,4.783-12.716,6.154-15.845
			c1.406-0.315,3.237,0.92,3.651,1.873c0.602,1.385,0.582,3.162,0.247,4.845l-0.517,2.6C25.272,45.204,26.094,45.753,26.903,46.097z
			"/>
		<path style="fill:#7D7D7D;" d="M57,42c3.766-0.554,7.484,2.226,8,6c2.582-1.469,3.193,5.383,2.766,8
			c0.164,0.338,0.382,1.334-0.16,2.16c-2.27-0.559-5.956,0.367-7.807-1.263c-1.976-1.74-9.354-12.865-6.13-15.009
			C54.883,38.994,55.634,39.251,57,42z"/>
		<path style="fill:#828282;" d="M73,61l0.691,0.565c-3.143,2.904-4.116,5.074-2.919,6.509c-1.247,1.689-1.455,3.234-0.623,4.635
			c-2.311,0.404-4.377,0.186-6.199-0.654c-2.66,2.099-6.077-1.172-4.021-3.948c-1.674-1.04-2.511-1.561-2.511-1.561L60.906,61
			l1.772-1.101C60.946,60.975,72.597,59.186,73,61z"/>
		<path style="fill:#969696;" d="M45.919,48.092c3.31-0.645,8.536,4.112,9.344,7.661c-1.748,3.726-8.216,2.591-12.027,3.409
			C42.913,54.761,41.896,48.635,45.919,48.092z"/>
		<path style="fill:#D0D0D0;" d="M59.929,68.108C57.115,68.746,54.472,69.71,52,71c-0.665,1.485-1.922,2.724-3.773,3.716
			C49.957,76.481,51.548,78.242,53,80c1.81,1.433,1.273,4.315,0,6c-0.661-0.051-1.343,0.087-2,0
			c-2.001-1.992-3.994-4.238-5.979-6.737L44,79c-0.122-1.011,0.035-2.054,0.919-3.539C36.191,71.32,36.521,78.313,33,72
			c0.362-0.282,0.608-0.757,1-1c1.319,0.24,2.319-0.093,3-1c0.325-0.056,0.672,0.036,1,0c1.875,0.125,3.959,0.616,6.252,1.474
			C46.072,69.52,47.655,67.362,49,65c0.522-1.265,1.768-1.254,3.738,0.033l2.864-1.437c1.7-2.115,3.467-2.98,5.303-2.595
			C60.906,63.716,58.307,65.676,59.929,68.108z"/>
		<path style="fill:#919191;" d="M41.961,47.102c0.611,3.554-0.024,6.794-0.278,10.176c-3.383-0.952-5.951-0.629-8.169-1.817
			C31.463,54.361,31.895,51.321,33,50c-0.843-2.831,2.28-4.443,4.147-2.071C39.198,47.54,40.586,47.28,41.961,47.102z"/>
		<path style="fill:#737373;" d="M49,65c0.558,3.084-0.393,5.88-3.483,8.023C43.419,74.477,39.501,72.695,38,70
			C40.718,67.276,45.136,64.134,49,65z"/>
		<path style="fill:#575757;" d="M42.876,10.825c2.114,1.618,2.889,3.58,1.652,5.917c-1.35,2.548-4.033,3.162-6.554,3.297
			c-1.366-2.799-1.447-6.327-0.305-9.416L42.876,10.825z"/>
		<path style="fill:#6B6B6B;" d="M60.906,61c-2.767,3.807-6.096,6.226-10.876,6.568C50.2,65.757,50.032,64.865,49,65
			C47.88,63.72,61.979,55.621,60.906,61z"/>
		<path style="fill:#575757;" d="M29.919,18.061c-2.788-0.778,1.958,6.417-4.216,7.85C23.166,28.238,20.206,24.87,22,22
			c0.365-1.45,0.591-2.932,1.28-4.79C25.74,16.582,28.093,16.826,29.919,18.061z"/>
		<path style="fill:#9B9B9B;" d="M45.163,30.619c1.559-0.405,1.818,0.251,0.837,1.514c1.157,1.459,0.464,1.933-1.073,0.793
			c-1.919,1.153-1.853,5.051-2.954,6.483c-1.035,0.113-1.798,1.711-2.675,1.553c-1.349-0.243-3.295-0.528-3.498-2.062
			c-0.207-1.565,1.139-2.752,1.132-3.969c-1.367-2.574-0.291-3.536,2.068-1.78C42.437,32.735,42.02,29.173,45.163,30.619z"/>
		<path style="fill:#8A8A8A;" d="M54,16l5,3c0.865,0.994,0.631,2.304,0,3.373c0.2,2.621-0.369,2.619-2,0.627
			c-0.299,1.619-0.787,2.371-2,1c-2.838,2.114-4.172,1.447-4-2c-2.887,0.076-3.183-1.938-0.625-3.178
			c-0.12-0.612-0.077-1.302,0.37-1.769C51.752,16.659,52.863,15.915,54,16z"/>
		<path style="fill:#848484;" d="M39.505,45.864c-4.475-0.863-8.066-3.112-12.048-4.424c-1.045-0.344-0.484-3.284-0.05-3.907
			l10.569,4.481C39.412,42.623,40.721,45.249,39.505,45.864z"/>
		<path style="fill:#CECECE;" d="M71.058,26.58l-3.954,22.284C68.332,48.429,68.685,48.062,69,48c-1.336,2.568-0.466,5.273,0,8
			h-1.234c-0.919-1.893-0.625-6.587-2.766-8l-0.934-2.294c0.033-2.43,3.324-17.51,4.517-18.998c0.218-0.272,0.796-0.256,1.478-0.157
			L71.058,26.58z"/>
		<path style="fill:#D0D0D0;" d="M75,61c-0.655,1.907-5.501,4.133-4.309,6.494c0.326,0.645,1.548,0.482,2.309,0.485
			c-0.833,1.036-2.594,1.171-3.338,3.006L74,76c-1.482,1.223-3.42,0.865-5.814-1.073c-1.455,1.231-2.443,0.807-3.312-0.978
			c-2.251-0.41-2.559-1.041-0.924-1.894c0.209-1.489,2.034,0.408,3.296,0.167c2.356-0.449,2.472-3.417,1.967-5.524
			c-0.336-1.402-2.215-2.574-2.975-4.527c1.482,0.617,2.14,3.334,3.94,2.654C71.678,64.258,72.629,62.37,73,61H75z"/>
		<path style="fill:#9B9B9B;" d="M37.147,47.929C35.841,48.177,34.729,49.249,33,50c-2.131,0.047-3.237-2.042-5-3
			c-0.399-0.217-0.687-0.729-1.097-0.903c0.06-0.731-0.205-3.123,0.802-3.103C31.286,45.135,40.963,45.229,37.147,47.929z"/>
		<path style="fill:#626262;" d="M19.005,33.819c5.338-0.139-1.954,5.011-2.516,8.269c-1.314-1.539,0.425-2.819-1.3-4.247
			c-0.015,1.821-0.801,2.774-2.367,3.293c-0.955-0.198-1.057-0.607-0.304-1.226c-0.053-1.689-1.143-2.939-2.225-4.452
			c1.882-0.516,3.328,0.062,4.693,0.994c0.578-0.322,0.646-0.915,0.944-1.235C15.334,32.404,17.333,31.245,19.005,33.819z"/>
		<path style="fill:#DFDFDF;" d="M55,24c0.312,1.257,0.341,3.281-1.017,2.933C53.364,26.775,54.19,24.569,55,24
			c0.591-0.689,1.276-0.635,2-1l2.008,1.08C58.62,27.743,58.951,31.05,60,34c2.577,0.799,1.766,2.423,0.255,4.14
			c0,0-1.085,1.287-3.255,3.86l-3.331-0.113l0.026-0.974c-1.69-3.825-3.351-7.99-4.393-12.134C49.255,28.59,49.575,28.308,50,28
			l-0.171-1.026C47.913,25.442,48.744,22.898,51,22C51.831,23.433,53.356,24.176,55,24z"/>
		<path style="fill:#515151;" d="M20,14c0.898-0.204,1.825-0.005,1.944,0.619c0.407,2.139-0.452,5.762-1.41,6.1
			C19.919,20.937,18.778,19.956,18,20c-1.191,0.067-2.642,0.001-3.416-1.114c-0.52-0.75-0.607-1.827-0.615-2.791
			C16.019,15.381,17.928,14.594,20,14z"/>
		<path style="fill:#4D4D4D;" d="M15.142,23.01c1.611,1.523,3.242,3.505,1.866,5.591C18.381,29.968,17.838,30.64,16,30
			c-0.895,0.578-1.945,0.794-3,0.816c-0.085-0.352-0.52-0.718-0.824-0.89l-2.001-3.791C9.152,24.198,13.364,23.103,15.142,23.01z"/>
		<path style="fill:#727272;" d="M17.861,21.218C18.589,22.58,20.921,21.576,22,22c0.995,1.451,2.03,3.097,3.703,3.911
			c-0.17,1.155-1.176,5.101-3.205,3.599c-2.654-1.965-3.479-5.59-6.014-7.786C16.871,21.267,17.389,21.304,17.861,21.218z"/>
		<path style="fill:#BABABA;" d="M55.262,55.753l-9.344-7.661C44.332,43.707,57.935,50.054,55.262,55.753z"/>
		<path style="fill:#7A7A7A;" d="M41.972,39.409c4.365-0.478,9.598,2.464,10.077,7.588C46.899,44.546,39.067,43.186,41.972,39.409z"
			/>
		<path style="fill:#848484;" d="M50.375,18.822L51,22c0.337,1.714-0.247,3.569-1.171,4.974c-2.582,0.789-4.207-7.181-3.868-10.18
			C48.448,16.586,49.032,18.218,50.375,18.822z"/>
		<path style="fill:#A1A1A1;" d="M39,33.152c-0.734,0.344-1.453,1.237-2.068,1.78c-0.955,0.842-2.1,0.876-3.121,0.068
			c-2.687,1.161-3.385-0.387-0.976-2.123c1.814-2.843,4.898-5.124,8.631-3.429C40.545,31.646,39.244,32.019,39,33.152z"/>
		<path style="fill:#8C8C8C;" d="M47.052,32.163c2.09,2.073,2.829,5.077,2.853,8.593c-2.032-0.493-4.731-1.032-5.694-3.077
			c-0.673-1.429,1.25-3.413,0.715-4.752c0.365-0.219,0.572-0.806,1.073-0.793C46.325,31.269,46.676,31.292,47.052,32.163z"/>
		<path style="fill:#878787;" d="M50.664,16.173c-1.043-0.355-3.104,0.619-4.294-0.363C45.391,14.31,47,12.347,47,11
			c1.401-0.632,2.835-1.263,4.641-1.431C52.814,11.91,52.294,14.467,50.664,16.173z"/>
		<path style="fill:#757575;" d="M32.921,17.205c1.948-1.544,2.028-1.5,2.016,0.99c1.449,1.635,0.5,3.291-1.024,4.774
			c-1.18,0.031-2.189,1.131-3.826,1.002c-0.444-2.299,0.527-4.156-0.168-5.91C30.855,17.581,31.868,17.26,32.921,17.205z"/>
		<path style="fill:#8F8F8F;" d="M38,26c-0.051-0.7-0.96-1.936-0.633-2.506c0.409-0.713,2.579-1.755,3.77-2.268
			c1.752,1.435,2.741,4.519,2.902,7.973C41.003,28.702,39.857,26.948,38,26z"/>
		<path style="fill:#6A6A6A;" d="M19.005,33.819c-1.012,0.458-2.257,0.516-3.076,1.396C13.454,35.524,15.701,30.955,16,30
			c0.16-0.51,0.713-0.952,1.008-1.399c2.121-1.034,4.393,1.893,4.495,3.963C20.795,33.038,19.624,33.539,19.005,33.819z"/>
		<path style="fill:#6B6B6B;" d="M50,28c1.297,7.801,6.598,11.115,3.696,12.913c-3.278,1.033-3.6-9.965-5.68-12.832
			C49.01,27.432,49.635,28.034,50,28z"/>
		<path style="fill:#818181;" d="M32.835,32.877c-0.19,0.88,0.827,1.431,0.976,2.123c0.247,1.145,0.839,2.26,0.98,3.631
			c-2.727,0.612-4.059-1.559-5.652-2.61c-1.541-1.325-2.227-2.482,0.054-3.157C30.338,32.23,31.756,32.053,32.835,32.877z"/>
		<path style="fill:#959595;" d="M37,63.895c2.952-1.128,3.952-0.76,3,1.105c-1.821,2.368-4.222,5.093-7,3
			c-1.828-2.176-1.873-2.693,1-3C34.949,64.729,36.051,64.224,37,63.895z"/>
		<path style="fill:#969696;" d="M38,26c0.205,2.837-3.544,3.917-5.512,3.181c-1.649-0.617-0.217-3.854,1.574-4.304
			C35.252,24.577,36.716,24.641,38,26z"/>
		<path style="fill:#6D6D6D;" d="M29.053,70.124c0.076,2.629-0.596,5.528-3.051,6.781c-3.656,1.735,0.58-6.995,0.462-6.795
			C26.862,69.437,28.007,69.815,29.053,70.124z"/>
		<path style="fill:#787878;" d="M30.049,64.789C32.144,65.447,33.127,66.517,33,68c-0.02,1.169-0.365,2.037-1.858,2.559
			c-0.629,0.22-1.239-0.184-2.088-0.435c-0.028-0.976-0.366-1.94-0.65-2.841C27.937,65.801,28.455,65.075,30.049,64.789z"/>
		<path style="fill:#9B9B9B;" d="M40,65c-0.271-1.197,0.396-2.53,2-4c0.825-0.357,1.586-0.861,2.797-1.013
			c0.57,1.962,0.417,3.877-1.246,4.798C42.572,65.327,41.027,66.753,40,65z"/>
		<path style="fill:#999999;" d="M53.998,59.503c-4.025,0.814-9.194,7.149-7.849,0.513L53.998,59.503z"/>
		<path style="fill:#8C8C8C;" d="M29.193,32.864C28.312,34.633,27.247,34.012,26,31c0.982-0.712,1.504-1.955,2.131-2.607
			c0.595-0.619,3.71-0.551,3.087,0.63L29.193,32.864z"/>
		<path style="fill:#CDCDCD;" d="M26,31c1.007,0.72,1.99,1.509,3.193,1.864l-0.054,3.157C28.073,35.317,26.819,35.11,26,34
			c-0.692-0.741-1.358-1.407-2-2C24.539,31.437,25.462,31.391,26,31z"/>
		<path style="fill:#5C5C5C;" d="M32.795,77c-0.805,0.336-1.423,1.364-2.016,1.078c-0.871-0.419-1.75-1.654-1.439-2.399
			c0.287-0.689,1.045-1.141,1.521-1.548C31.428,75.107,32.36,75.945,32.795,77z"/>
		<path style="fill:#909090;" d="M41.961,47.102c-0.089-0.517-0.506-0.839-0.755-1.104c-0.577-0.614-0.846-1.769,0.601-2.043
			c0.562-0.106,1.155,0.446,2.26,0.856c1.014,0.376,1.144,0.949,0.742,1.589C44.353,47.124,43.431,46.913,41.961,47.102z"/>
		<path style="fill:#868686;" d="M47.052,32.163L46,32.134c-0.248-0.522-0.527-1.028-0.837-1.514
			c0.134-0.761-0.068-1.644,1.187-2.766C47.651,29.027,47.563,30.771,47.052,32.163z"/>
		<path style="fill:#6B6B6B;" d="M37,70c0.07,0.935,0.304,1.812,1.058,2.732C35.76,73.712,34.514,72.551,34,71
			C34.905,70.44,35.962,70.179,37,70z"/>
		<path style="fill:#797979;" d="M26,34c-0.449-0.609-2.61,0.767-3.028-0.483C22.538,32.219,23.507,32.516,24,32
			c0.559-0.043,1.269,0.078,1.915,0.416C26.445,32.693,27.675,33.883,26,34z"/>
		<path style="fill:#7A7A7A;" d="M44,23c0.778,0.114,1.501,0.386,1.761,0.897c0.37,0.726,0.567,1.958-0.117,3.128
			C44.052,26.164,43.972,24.531,44,23z"/>
		<path style="fill:#9A9A9A;" d="M44,23c-1.047-0.731-1.414-1.482-1.064-2.4c0.133-0.348,0.352-0.606,1.428-0.653
			c0.603-0.026,0.824,1.032,0.321,1.887L44,23z"/>
		<path style="fill:#DEDEDE;" d="M74,45c-0.696,1.687-2.119,2.996-4,3C70.649,46.285,72.163,45.124,74,45z"/>
		<path style="fill:#D7D7D7;" d="M43,85c-0.991,0.097-1.919,0.971-3,1c1.904-2.058,1.916-5.114,4-7
			C47.062,80.188,45.681,84.204,43,85z"/>
		<path style="fill:#D1D1D1;" d="M40,86c-1.169,1.264-1.915,3.864-4.096,3.035C36.399,87.411,38.258,86.047,40,86z"/>
		<path style="fill:#808080;" d="M67,86l4.806,1.451C76.158,87.163,77.223,88.012,75,90c-0.485,0.823-0.418,2.119-1.108,2.892
			c-4.16,2.345-8.859,1.81-14.328,2.601c-1.225-2.713-1.027-6.041,1.242-8.172l2.96-2.986C64.613,85.279,65.691,85.834,67,86z"/>
		<path style="fill:#5A5A5A;" d="M63,82c1.833,2.411,1.102,4.185-2.193,5.321c-2.136,0.348-1.578-2.646-3.193-3.258
			C54.945,83.554,55.036,81.505,57,80c-0.719,0.034-0.051-5.438,0.249-5.521C63.687,72.698,66.877,76.136,63,82z"/>
		<path style="fill:#8A8A8A;" d="M65.213,96.966c2.861-0.897,3.363,0.27,0.966,2.031c0.767,2.29,1.37,4.852-1.178,6.003
			c-1.847,0.348-3.003,1.745-4.362,3c-0.23-0.322-0.444-0.655-0.638-1c0.71-0.871,0.43-2.023,0.685-3l-2.856-3.951
			C58.639,97.172,62.997,97.385,65.213,96.966z"/>
		<path style="fill:#767676;" d="M57,80c0.682,1.47,0.732,2.349,0.614,4.063c-0.092,1.342,0.417,2.9-0.769,3.911
			C55.459,87.537,54.098,86.971,53,86c-1.298-1.788-1.324-4.214,0-6c-0.486-2.677-0.063-2.845,1.932-1.068
			C56.56,76.662,57.249,77.018,57,80z"/>
		<path style="fill:#636363;" d="M66.178,98.997c-0.236-0.704-0.05-1.708-0.966-2.031c1.102-0.209,3.164-2.078,5.034-0.707
			c1.786,1.31,1.086,6.427-0.705,7.764L66.178,98.997z"/>
		<path style="fill:#626262;" d="M76.252,99.971c-0.731,1.146-2.313,1.233-3.252,2.029c-0.895,1.254-2.28-6.574,0.447-7.007
			c1.178-0.187,3.404-0.371,3.695,1.414C77.309,97.428,76.996,98.864,76.252,99.971z"/>
		<path style="fill:#6A6A6A;" d="M74,76c0.773,1.413,2.229,3.416,4,4c0.48,1.245,1.792,1.922,2.614,3.275
			C80.994,83.9,80.143,84.605,80,85l-5.025,3.39C72.407,87.586,69.749,86.79,67,86c-3.506-0.299-4.8-0.505-3-4
			c0.706-2.938,0.577-5.403-0.389-7.396l1.263-0.655C68.63,74.147,65.393,70.351,74,76z"/>
		<path style="fill:#CECECE;" d="M51,86c-2.275,2.932-3.15,6.563-4.861,9.911C45.379,92.791,47.648,90.118,48,87
			C47.571,84.13,49.239,83.595,51,86z"/>
		<path style="fill:#D5D5D5;" d="M48,87c-1.481,0.111-4.584-0.256-5-2C44.152,81.275,50.156,83.618,48,87z"/>
		<path style="fill:#676767;" d="M70.06,26.551C67.415,33.389,67.976,44.45,65,48c-2.794-1.843-5.441-3.823-8-6
			c-2.984-4.013,2.717-3.574,3-8c-1.119-2.563-0.585-3.094,2-2l5-6c-1.684-2.156-0.764-2.982,1.764-2.029
			C69.047,24.831,70.564,25.248,70.06,26.551z"/>
		<path style="fill:#636363;" d="M68.764,23.971C68.169,24.606,67.717,25.482,67,26l-5,6c-0.756,0.547-1.3,1.39-2,2
			c-1.056,0.393-1.568,1.392-2.909,2.083L57,23c0.677-0.342,1.253-0.473,2-0.627c1.229-0.254,2.455-1.144,4.045-1.628
			C66.13,19.807,68.061,21.604,68.764,23.971z"/>
		<path style="fill:#6D6D6D;" d="M59,19l-5-3c-0.441-2.608-0.499-5.689,1.105-7.801L65.23,19.686C62.746,20.449,60.805,19.291,59,19
			z"/>
		<path style="fill:#737373;" d="M71.947,18.868c-1.824,0.822-3.704,0.831-5.522-0.4c-1.206-0.816-1.852-2.89-2.411-4.277
			C62.149,12.053,64.984,10.262,67,12c2.399-1.241,4.319-0.897,6.156,1.404C74.558,15.16,72.785,16.766,71.947,18.868z"/>
		<path style="fill:#525252;" d="M67,12l-2.987,2.192C63.625,13.228,60.941,12.965,62,11c2.179-2,5.283-2.809,8.072-1.522
			C68.277,10.182,67.414,10.803,67,12z"/>
		<path style="fill:#565656;" d="M59.087,7.911L61,9.903c-0.168,0.341-0.393,0.802-0.728,0.946
			c-1.186,0.514-3.054-2.471-4.369-3.114C56.592,6.632,58.329,7.122,59.087,7.911z"/>
		<path style="fill:#7F7F7F;" d="M29.081,63.077c-0.781,0.418-2.762,1.495-3.678,0.62c-2.337-2.23-3.981-4.623-5.606-7.617
			c3.173,0.876,5.982,1.212,8.473,2.769C29.577,59.666,28.815,62.122,29.081,63.077z"/>
		<path style="fill:#666666;" d="M18,62c-0.923-0.152-2.09-0.692-3-1c-0.593-0.592-1.476-0.92-2.203-1.962
			c1.138-1.522,2.219-2.534,2.227-3.996c3.31,0.277,4.526,4.093,6.758,7.164C20.318,62.404,19.294,61.931,18,62z"/>
		<path style="fill:#7D7D7D;" d="M24.916,68.693C24.51,71.147,25.228,74.877,22,75c-1.294-1.781-3.557-1.268-6.488-2.605
			C17.999,70.138,21.742,68.979,24.916,68.693z"/>
		<path style="fill:#525252;" d="M34.937,18.194c-0.763-0.105-1.49-0.415-2.016-0.99c-1.288-1.422-1.986-2.9-1.521-4.211
			c0.566-1.595,3.12-3.161,4.282-1.454C37.083,13.597,35.461,16.612,34.937,18.194z"/>
		<path style="fill:#D3D3D3;" d="M80,85c-0.59,1.629-3.871,3.505-5,5c0.534-3.738-2.932-0.286-8-4
			c2.598-0.256,5.482,1.996,8.002,0.992L80,85z"/>
		<path style="fill:#9F9F9F;" d="M12.517,39.908c0.013,0.414,0.263,0.813,0.304,1.226c-0.744,0.716-1.265,2.305-2.483,2.63
			c-1.416-0.927-1.879-3.525-0.519-4.97C11.062,38.631,11.968,39.71,12.517,39.908z"/>
		<path style="fill:#DCDCDC;" d="M60.685,104c-1.129-0.924-3.345-2.215-2.856-3.951C59.637,100.681,61.213,101.98,60.685,104z"/>
		<path style="fill:#EEEEEE;" d="M40,65c-0.587-1.003-1.979-1.113-3-1.105c1.813-0.629,3.232-2.154,5-2.895
			C42.498,62.791,40.941,63.776,40,65z"/>
		<path style="fill:#E8E8E8;" d="M34,65c-0.425,0.924-0.982,1.949-1,3c-1.198-0.902-2.643-1.507-2.951-3.211
			C31.299,64.565,32.809,65.34,34,65z"/>
		<path style="fill:#E7E7E7;" d="M23.403,47.318c-1.17,0.829-1.578,1.362-1.891,1.67c-0.231,0.227-1.305,0.268-1.41-0.486
			c-0.069-0.5,1.354-1.127,1.665-1.857C22.848,45.394,24.574,45.895,23.403,47.318z"/>
		<path style="fill:#7D7D7D;" d="M59.929,68.108c1.143,1.511,2.057,3.276,4.021,3.948c-0.062,0.727,0.844,1.269,0.924,1.894
			c0.166,0.981-1.108,1.155-3.82,0.523c-2.375,1.132-4.004,0.868-4.886-0.791L52,71c-0.425-0.661-0.756-1.582-0.415-2.104
			C52.129,68.065,58.14,65.741,59.929,68.108z"/>
		<path style="fill:#5C5C5C;" d="M52,71l6.42,3.732c-1.021,2.825-2.184,4.225-3.488,4.2C54.596,79.506,53.399,79.462,53,80
			c-2.405,0.323-5.483-1.704-6.599-4.747C45.621,73.127,49.884,70.574,52,71z"/>
		<path style="fill:#767676;" d="M51,86c-1.093-0.144-2.018,0.926-3,1c-0.816-1.659-3.214-2.175-5-2c-0.421-1.972,1.24-4.003,1-6
			c0.626-0.567,1.002-1.263,1.591-1.899C48.164,79.683,51.858,82.57,51,86z"/>
		<path style="fill:#D8D8D8;" d="M59,19c-1.704-0.275-4.654-0.956-5-3C56.025,16.152,58.185,17.075,59,19z"/>
		<path style="fill:#8C8C8C;" d="M55,24c2.282,4.014,0.567,8.979,0.805,14.1c-1.927-3.301-3.69-6.267-5.046-10.041
			C51.862,25.953,53.834,25.36,55,24z"/>
		<path style="fill:#DBDBDB;" d="M67,86c-2.126,0.209-4.201,0.269-6.193,1.321C62.197,86.015,63.181,83.856,63,82
			c0.284-0.873,0.618-0.86,1,0C63.349,84.33,65.501,84.902,67,86z"/>
		<path style="fill:#D1D1D1;" d="M64.874,73.949C65.22,76.654,65.408,79.596,64,82h-1c-0.18-1.842,1.34-3.654,0.889-6.301
			c-0.232-1.362-4.429-1.017-5.217,0.152C58.014,76.825,56.418,78.744,57,80l-2.068-1.068c0.533-0.912,2.483-2.283,1.856-3.54
			C55.643,73.093,52.554,73.221,52,71c1.865-0.511,2.982,1.337,4.754,2.284C59.329,74.661,62.338,73.815,64.874,73.949z"/>
		<path style="fill:#D6D6D6;" d="M62,32c0.217-2.801,2.862-4.454,5-6C66.779,28.806,64.139,30.453,62,32z"/>
	</g>
</g>
</svg>
