<?xml version="1.0" encoding="iso-8859-1"?>
<!-- Generator: Adobe Illustrator 30.1.0, SVG Export Plug-In . SVG Version: 9.03 Build 0)  -->
<svg version="1.1" id="Layer_1" xmlns="http://www.w3.org/2000/svg" xmlns:xlink="http://www.w3.org/1999/xlink" x="0px" y="0px"
	 viewBox="0 0 280 202" style="enable-background:new 0 0 280 202;" xml:space="preserve">
<g>
	<g>
		<path style="fill:#FDFDFD;" d="M272,0h8v4l-19.654,43.501L145.796,187.75l-52.401,9.639c-2.642,0.486-4.257,2.837-5.394,4.61h-4
			c-0.927-2.3-3.03-3.25-5.392-4.745l-74.56-47.206c-2.242-0.985-4.091-3.407-2.939-5.953l21.439-47.363L272,0z"/>
		<path style="fill:#4B4B4B;" d="M221.984,63.105c1.257-1.429,7.069,1.784,5.749,3.588c3.102,2.643,4.876,5.654,5.322,9.034
			c-2.624,5.909-7.63,10.707-12.108,15.299L216,87c-1.37,1.429-1.977,0.803-1-1l-5-4c-1.405,1.325-1.92,0.767-1-1
			c-4.223-1.964-2.487-4.243,0-7c1.187-1.24,1.655-2.587,1.406-4.041L212,70c-1.422-2.394,3.662-6.73,6-6
			C219.15,62.197,220.478,61.898,221.984,63.105z"/>
		<path style="fill:#E0E0E0;" d="M88.824,74.06c1.221,1.704,1.946,3.675,2.176,5.912c-0.033,1.801-0.706,2.007-2.199,1.942
			c-1.06,5-2.644,9.616-4.751,13.847c1.844-0.306,1.576,0.282,0.087,1.399c1.852,0.174,1.737,1.032-0.06,1.593
			c-0.207,1.071-1.64,1.719-1.955,0.241c-3.096,3.966-6.173,7.976-9.234,12.029c1.97-0.749,2.335,0.358,1.336,2.071
			c2.715,0.598,4.848,3.283,1.777,4.906c-0.011,2.999-5.513,2.851-6,0c-0.359,2.529-1.026,2.529-2,0
			c-0.094,2.987-1.813,2.644-3,0.244l-1.099-2.016c2.21-2.967,1.939-4.628-0.814-4.984c0.704-1.654-0.667-1.554-4.113,0.301
			l1.145,1.512c0.718,2.158,1.678,4.192,2.882,6.102c1.075,2.119,0.22,2.847-2,2.84c-1.669,2.084-2.58,1.37-3.168-1.168
			C55.788,113.608,51.306,116.804,47,120c-1.876,2.091-3.855,0.508-4-2c-1.251-0.732-2.059-2.089-2.423-4.071
			c-2.35,4.659-4.617,6.062-6.801,4.211c-1.069,0.089-1.966-0.202-2.692-0.875c-3.304-1.258-1.819-6.798,1.85-6.417
			c3.396,2.555,5.286-2.666,1.184-3.835c-2.518,1.333-2.975,0.442-1.142-1.732c-0.004-2.331,2.099-2.529,4.063-2.024
			c-0.125-2.51-0.138-5.113-0.041-7.808l1.998-1.465c0.472-0.337,1.7-0.551,2.037-1.021c1.582-0.221,2.292,0.723,2.13,2.833L45,97
			c2.581-1.112,3.038,0.184,1,2c-2.671,2.509-2.671,2.509,0,0c0.002-2.927,3.341-2.803,4,0c2.16,1.565,1.516,2.466-1,3
			c-1.922,2.714-0.532,6.487,3.161,4.848c0.59-1.762,2.224-2.89,4.902-3.383c2.299-1.931,4.297-2.404,5.994-1.42
			c0.764,0.335,1.443,0.899,1.382,1.676c-0.312,3.935,0.441,2.631,0.423,0.607c-0.009-1.019-0.719-2.438-1.804-2.283l-0.886-1.129
			l-10.783,0.085L50,99c-0.919-1.41-0.514-2.96,1.213-4.647c-1.87-0.1-2.941-0.884-3.213-2.353c-1.908,0.235-2.242-0.414-1-1.948
			c1.094-0.479,1.604-1.12,3-1.094c1.507,1.544,3.134,0.937,3.937-1.007c2.624-0.25,3.927-0.91,3.911-1.98
			c0.58-0.095,1.212-1.454,2.066-0.987c0.965,1.845,2.344,5.671,0.087,6.294c-0.352,0.21-4.731,3.898-3.518,4.723
			c1.716,1.168,5.795-0.2,5.348-2.844c-0.53-1.579-1.55-4.969-0.016-6.26l0.903-0.042c2.424-0.769,2.822,0.11,2.073,2.404
			c1.757,1.019,2.251,4.007,1.882,5.9c0.572,0.207,0.585,0.505,0.081,0.887c1.449,2.678,2.69,5.568,3.723,8.67
			c1.446-1.563,2.935-2.469,4.466-2.717c0.035-1.592,0.717-2.905,1.989-3.858c-0.083-0.989,0.535-1.989,1.854-2.998l1.272-3
			c-2.412-1.43-1.752-2.648,0.974-2.249c2.363-2.753,0.938,0.008,0.791-0.08c-0.822-0.495-0.094-6.744,1.727-5.264L83,83
			c-1.008-1.145-0.683-2.48,0.975-4.006c-1.687,0.114-2.591-0.112-3.095-1.988C83.287,76.092,86.893,75.862,88.824,74.06z"/>
		<path style="fill:#424242;" d="M52,171c3.36-0.648,6.884-0.809,10.571-0.483c0.686-1.698,3.832,0.106,4.429,1.483l-1,5
			c-0.79,3.066-0.79,3.066,0,0l1-5c-0.17-0.781,0.622-1.448,2.377-2.001c3.151,1.365,6.025,3.366,8.623,6.001
			c-0.414,4.264-2.064,9.862-5,13c-0.734,1.005-1.742,0.74-2.936-0.022L46.2,173.749c-0.735-0.469-1.041-1.125-1.271-1.602
			C46.216,171.14,49.929,170.533,52,171z"/>
		<path style="fill:#DCDCDC;" d="M212,47c1.066,0.123,0.977,1.529,0,2c-2.014,0.43-4.258-0.533-6.731-2.888l-18.014,5.784
			c-0.209,1.625-0.96,2.66-2.255,3.104c-0.284,0.873-0.618,0.86-1,0l-2.293-1.556C177.765,54.808,173.862,55.993,170,57
			c-0.284,0.873-0.618,0.86-1,0c-6.135,2.281-12.364,4.624-18.689,7.03c-2.794,1.639-4.51,4.918-5.311,7.974
			c-0.488,8.67,0.338,17.282,1.649,25.887l-1.82,1.446c-0.312,0.796-0.673,0.834-1.086,0.096c-3.651-1.553-14.844-5.651-11.715,1.43
			l-1.967,1.35c-0.093,2.603-0.688,2.97-3.055,1.871c-2.207,0.123-3.544-0.623-4.01-2.236c-1.214-1.52,0.109-2.892,3.969-4.114
			c-2.88,0.553-5.208,0.307-6.982-0.736c0.119-1.44,0.703-2.568,1.018-3.882c1.916-1.848,5.375-3.622,8.034-2.995
			c2.903,2.121,6.517,2.758,10.84,1.911C139.556,89.767,139.931,88.09,141,87c-0.737-4.452-1.243-9.073-1.518-13.864
			c-1.945,0.069-3.106-0.643-3.482-2.136c-0.649,0.979-1.076,1.004-1.281,0.076c-2.153,1.489-2.368,1.333-1.63-1.178
			c1.162-3.031,3.827-9.671,7.895-8.966c0.361-0.969,1.14-1.268,2.339-0.898c1.075-0.633,2.232-0.603,3.47,0.09
			c-1.264-3.259-0.873-5.863,1.175-7.812L149,52.034c2.013-1.118,5.51-0.097,5.871,2.415c0.102,2.612,0.28,3.113,1,0.47
			c-0.102-1.386,0.748-1.614,2.129-1.919c1.197-0.665,2.389-0.217,3.576,1.345L172,51c1.661-0.903,3.715-1.517,6.161-1.842
			c0.827-1.617,1.773-3.003,2.839-4.158c0.293-0.874,0.637-0.86,1.029,0c1.485,1.788,3.131,2.268,4.939,1.439L189,48
			c0.109-0.658,0.235-1.085,1-1c0.217-2.42,2.918-2.977,4.903-2.289c-0.208-1.458,0.743-1.713,2.853-0.764
			c-0.912-1.668-0.399-1.716,1.244-0.948c-0.196-2.973,2.658-3.713,4.9-2.302L202,36c-0.873-0.284-0.86-0.618,0-1
			c0.228-0.872,0.564-0.845,1,0c0.479-2.188,1.145-2.521,2-1l2.211,0.652c0.514,4.144,2.155,7.511,4.923,10.1L212,47z"/>
		<path style="fill:#636363;" d="M209,81l1,1l5,4c0.235,0.391,0.718,0.643,1,1l4.947,4.026c-2.011,2.061-2.607,6.047-5.894,6.977
			c-2.373-0.466-15.555-4.45-16.419-5.711c-0.252-0.367-0.827-7.265,0.367-7.292c-0.781-2.686,3.336-6.631,6-6
			C205.981,78.436,207.315,79.103,209,81z"/>
		<path style="fill:#464646;" d="M172,130c2.837,0.337,3.859,1.725,1.146,3.138c2.165,1.518,2.406,3.37,0.723,5.557
			c1.305,2.652,1.355,3.749,0.151,3.292c-0.674,2.417-1.681,4.421-3.02,6.013c-0.878,1.74-1.985,3.716-4,3.869
			c-3.695-0.036-5.361-0.992-5-2.869c-2.708,1.187-4.172-2.181-2-4c-1.897-1.131-1.897-2.465,0-4l0.268-2.438
			c-1.813-0.842,4.522-9.656,5.231-10.069C166.415,127.959,172.332,128.076,172,130z"/>
		<path style="fill:#E3E3E3;" d="M79.748,120.184c2.325,2.396,3.046,4.71,2.163,6.942c2.782-1.041,4.297,3.496,3.981,5.797
			c0.742,1.377,1.699,3.044,2.87,5l1.327-0.288c1.635,3.564,2.939,2.353,3.911-3.635c-1.804-2.502,0.181-3.546,2.057-1.055
			l1.363,0.401c0.134,1.875,1.282,2.427,3.444,1.654c0.236-2.064,1.41-1.739,2.136,0c0.249-0.856,0.585-0.834,1,0
			c0.68,1.309-0.279,2.664-2.88,4.065c-0.945,2.394-5.51,4.168-8.12,4.935c-1.033,6.232-3.661,13.076-8,18
			c1.46,0.672,1.126,1.338-1,2c2.166,2.2-0.241,9.01-3,10c0.938,0.783,0.605,1.116-1,1c2.161,1.49-2.49,13.583-3.417,14.343
			c-0.712,0.584-1.709,0.599-2.597,0.568c-0.064-0.507-0.482-0.883-0.987-0.911c2.123-4.128,3.445-8.632,5-13
			c-0.847-0.266-0.829-0.601,0-1c-0.822-1.392-0.822-3.059,0-5c-0.071-1.708,0.724-3.502,2.384-5.382
			c0.328-2.512,1.2-4.385,2.616-5.618c0.596-2.339,1.678-4.694,3.244-7.063l-1.045-2.059c2.629-3.516,3.067-5.79,1.874-9.534
			c-5.288-1.769-10.746-3.21-16.372-4.322l-0.892-1.992l-2.246,1.248l-10.359-4.025L56,129c-1.48,1.487-2.099,0.85-1-1
			c-0.919-0.268-0.903-0.602,0-1c0.491-1.456,2.068-1.783,4.729-0.98c-0.601-2.009-0.178-3.349,1.271-4.02
			c2.151-1.017,4.388,1.15,5.409,2.919c1.347,0.206,1.345,0.43,0,0.675c-0.25,1.474-0.375,2.211-0.375,2.211
			c2.466,1.059,4.121,2.457,4.965,4.196c0.289-0.441,0.625-0.419,1,0c1.997-0.734,2.997-0.401,3,1c0.802-1.651,1.802-1.651,3,0
			c1.542,0.118,2.209-0.882,2-3c-0.499-0.437-0.165-0.77,1-1c-1.422-1.713-3.088-2.38-5-2c2.109,0.899-0.071,3.396-1,1
			c-2.077,0.162-3.219-0.648-3.425-2.43c-0.49-0.048-0.443-0.289,0-0.672c0.021-1.691,0.661-2.208,2.101-1.854
			c-0.037-2.628,0.738-4.309,2.324-5.043C77.586,116.761,78.835,117.489,79.748,120.184z"/>
		<path style="fill:#555555;" d="M190,116c1.144,1.722,1.477,3.389,1,5c2.55-0.976,3.579,0.704,2.123,2.979
			c0.181,1.953-0.921,2.854-2.089,3.955c-2.54,0.594-5.165,0.809-7.875,0.645c-0.718,2.373-3.632,1.763-4.159-0.579
			c-1.964,0.445-13.993,1.244-14.46,0.679c-0.33-0.399-0.491-0.939-0.603-1.519c-0.885-2.37,0.662-4.344,3.22-3.002
			c-0.732-2.651-0.191-2.997,1.843-1.157l19.39-9.481C189.206,113.042,189.742,113.869,190,116z"/>
		<path style="fill:#D2D2D2;" d="M258,8.866c2.799-0.103,2.624,1.411,0,2.134l0.649,1.938c-1.61,2.086-2.799,4.425-3.568,7.017
			c-2.032,2.61-3.637,5.559-4.816,8.848c-1.89,0.587-1.585,0.956,0.913,1.108c1.724-2.11,3.278-1.373,3.822,1.089
			c1.56,0.256,2.517,1.624,2.871,4.101c2.404-0.466,3.823,0.167,4.258,1.899c-0.305,0.689-0.88,1.433-1.105,2.113l-3.104,1.262
			c0.676,6.207-4.707,8.419-2.919,1.625c-2.656-0.319-2.541-1.239,0-2c-2.656-0.196-2.656-0.863,0-2l-2.039-0.899
			c-0.646-5.923-6.517-3.302-7.911,1.095c4.286-0.684,8.069,0.399,4.291,4.514c-5.964-0.095-9.397,2.288-10.299,7.147l12.651,0.07
			l1.388,2.008l-1.26,2.073l-1.81,1.047l-14.274,0.298L233,60.803c-0.154,0.579-0.477,0.604-0.942,0.155
			c0.137,1.948-0.58,3.399-2.15,4.352c-0.572,1.035-0.12,1.972,1.357,2.808c3.68-1.408,5.552,4.432,2.709,6.717
			c-0.334,0.178-0.762,0.541-0.919,0.892c-5.566-5.782-3.82-8.886-11.071-12.622c-0.87-0.33-0.85-0.699,0.016-1.105
			c-1.481-0.137-1.518-1.668,0-2c-0.551-0.337-0.564-0.69-0.037-1.06c2.024-1.611,2.453-1.439,2.748,1.123
			c1.153,1.601,2.795,0.906,4.924-2.084c-2.146-1.526-1.276-3.502,2.609-5.927c-0.858-0.274-0.807-0.568,0.084-0.879
			c-1.003-1.875-0.057-3.536,2.84-4.984c-0.4-1.533,0.246-2.992,1.939-4.379l1.329-3.031c-0.009-3.437,0.846-5.714,2.564-6.829
			c2.661-2.261,4.458-5.245,4-8.95c-0.873-0.284-0.86-0.618,0-1c0.171-1.311,1.073-2.142,2.706-2.491
			c2.619-3.603,5.059-6.75,7.32-9.441L258,8.866z"/>
		<path style="fill:#313131;" d="M232.974,19.055c2.407-1.731,5.614,1.492,4.026,3.945c0.927,1.859,1.231,6.506-2,6
			c1.45,1.374,0.794,1.973-1,1l-4,3c2.933,1.648,0.575,4.45-1.848,2.042c-2.089,1.483-4.756,1.583-8.002,0.299
			c-1.37,1.65-1.775,0.589-2.15-1.341c-2.531-1.355-2.531-2.355,0-3c-1.828-2.556-0.485-5.729,2.672-6.047
			C224.017,21.764,228.34,19.411,232.974,19.055z"/>
		<path style="fill:#3D3D3D;" d="M150,162c0.57-0.13,1.059-0.183,1.267,0.034c2.318,2.416,6.442,7.389,3.434,10.118
			c-1.704,3.076-3.62,6.277-6.832,7.871c-2.843,1.435-7.171-1.945-6.869-5.024c-1.018-0.064-1.182-1.406-0.492-4.026
			c-0.791-5.143,0.012-7.463,2.407-6.96l6.144-2.818L150,162z"/>
		<path style="fill:#646464;" d="M255,38c-2.008,1.765-2.176,2.139-0.502,1.123L255,40v2c-0.739,1.371-0.396,2.854,1.028,4.449
			l-1.831,1.519c0.183,1.63-0.292,2.61-1.115,3.966l-17.599-0.097c5.988-11.962,3.251-8.588,14.575-11.351
			c-3.027-1.549-5.08,0.785-8.546,1.218c1.173-3.462,2.566-6.808,5.099-8.975c1.685-1.441,5.282-1.18,6.796,0.174
			C254.592,33.963,255,36.244,255,38z"/>
		<path style="fill:#454545;" d="M118,126c2.134,1.019,2.476,1.861,2,4c0.979,2.798,1.159,5.793,0.538,8.985
			c-1.468,1.509-2.648,3.514-3.538,6.015c-0.444,1.546-5.677,1.702-6.234,0c-3.641,1.376-2.582-2.088-1.761-4.748
			c-0.662-4.585,1.599-8.956,2.887-13.252C112.471,123.972,117.394,123.462,118,126z"/>
		<path style="fill:#484848;" d="M19.924,113.661c3.989,2.572,7.872,5.237,11.651,7.996c-0.443,1.55-3.579,8.505-4.442,10.04
			c-0.123,0.219-0.647,0.213-1.285,0.143c-0.465,1.197-1.747,0.917-3.848-0.84c-1.381,2.588-4.038,0.664-3-2
			c-1.463,0.349-2.463-0.651-3-3c-2.391-0.322-2.16-1.895-1.228-3.824C15.115,119.639,16.306,112.137,19.924,113.661z"/>
		<path style="fill:#666666;" d="M90,184l-4,3c1.325,1.405,0.767,1.92-1,1l-4,3c1.976,2.524,0.606,3.984-2.034,2.152
			c-2.285,0.117-4.672-0.798-4.979-3.241C76.758,185.352,77.528,179.798,80,175c0.31-0.266,0.606-0.462,0.852-0.411
			C84.987,175.434,97.931,180.486,90,184z"/>
		<path style="fill:#272727;" d="M167,153c7.523-1.545-8.332,15.339-8.877,14.328c-2.494,2.399-7.406-4.147-6.123-6.328
			c-2.806,0.801-2.988-0.094-1.076-2.076c-1.514-1.953-0.278-3.633,2.021-3.924c0.78-1.007,2.132-1.674,4.055-2
			c0.123-2.576,1.225-2.569,3-1C162.136,150.152,165.218,150.881,167,153z"/>
		<path style="fill:#666666;" d="M94,167c2.342-0.225,3.187,0.69,2,3c1.659,3.033,0.43,10.893-2.848,9.99
			c-4.173-1.916-8.224-3.912-12.152-5.99c0.251-3.492,1.72-6.764,3-10C85.994,161.386,91.878,164.613,94,167z"/>
		<path style="fill:#494949;" d="M271.01,15.937c-0.727,2.186-5.576,2.143-7.01,1.063c-1.92,2.431-7.673-3.499-6-6V8.866
			c6.124-2.476,11.955-5.302,19.285-7.072C275.578,7.245,273.381,12.042,271.01,15.937z"/>
		<path style="fill:#3E3E3E;" d="M205.945,29.142c3.521,1.493,7.277,2.596,11.268,3.307L218,34c2.287,1.381,2.584,2.037,0.89,1.968
			L218,39c2.916,1.047,2.239,4.809-1,4c0.569,3.089,0.327,4.818-3,3c-0.751,1.051-1.418,1.385-2,1c-4.766-2.496-5.798-8.008-7-13
			c-1.425,0.179-2.793-4.37-0.824-4.79C204.758,29.286,205.36,29.141,205.945,29.142z"/>
		<path style="fill:#696969;" d="M251.822,54.008c-2.463,4.054-5.665,8.263-9.722,10.948c-3.038-1.135-6.071-2.519-9.1-4.152
			c-0.431-0.473-1.276-0.914-1.317-1.438c-0.031-0.387,2.135-5.838,3.502-6.038C236.06,53.199,254.46,52.135,251.822,54.008z"/>
		<path style="fill:#7B7B7B;" d="M121.089,72.85c-3.262-0.839-2.634-6.496,0.654-6.774c0.305-1.332-0.027-4.49,1.821-5.35
			c4.565-2.126,9.366-4.46,14.298-5.185c4.244,1.397-7.141,10.991-10.489,14.847C125.601,72.426,123.56,73.608,121.089,72.85z"/>
		<path style="fill:#404040;" d="M107.27,73.034c0.774-0.081,1.017,0.241,0.73,0.966c4,3.674,5,6.007,3,7
			c0.901,3.85-3.37,6.32-6,3.378c-2.464,0.22-5.051,0.289-7.76,0.206l-1.81,1.312C93.539,82.543,93.396,80.244,95,79
			c-0.164-0.914,0.194-1.223,1.073-0.927C97.177,76.372,97.653,75.029,97,73c-1.363,0.74-1.814,0.148-0.835-1.013
			C100.106,69.288,103.056,72.639,107.27,73.034z"/>
		<path style="fill:#DCDCDC;" d="M158.328,121.412c0.639,0.355,0.552,0.667-0.178,0.94c-1.219,1.224-3.033,1.412-5.444,0.566
			l-2.745,1.167c-2.1,0.553-4.058,0.208-5.874-1.037c-7.809,2.004-17.24,4.398-25.087,1.953c0.588,1.698,0.657,1.91-1,1
			c-2.017-1.707-4.303-0.576-6.108,1c0.438-1.459,0.264-2.623,1.108-4l1.522-1.061c4.528,0.698,7.687-0.281,9.478-2.939
			c-1.595-1.909-2.707-3.411,0-5c1.948-0.673,4.127-0.821,6,0c3.347,2.411-0.214,3.445,0.244,1.214
			c0.191-0.93,11.972,0.424,13.536,0.689c-0.43-3.011,2.647-3.269,4.114-0.936c1.31,3.081-0.863,4.983-3.935,4.069
			c-7.734,1.152-7.734,1.152,0,0c4.094-0.314,10.036-0.916,3.935-4.069c-2.295-1.667-1.441-3.151,1.343-3.26
			c-3.539-3.925-4.285-6.827-2.236-8.706c0.943-0.396,1.794-0.255,2.704,0.117c0.86,0.351,8.195,14.252,9.082,16.201
			L158.328,121.412z"/>
		<path style="fill:#464646;" d="M269.937,19c-2.336,6.108-5.158,12.02-7.808,18c-1.524-0.38-4.202,0.888-5.592-0.456
			c-1.476-1.425-1.295-3.99-1.536-5.544c2.076-2.676,3.198-5.522,3.365-8.539c2.378-0.671,4.549-2.235,6.514-4.691
			C268.786,16.75,270.472,17.16,269.937,19z"/>
		<path style="fill:#424242;" d="M141,175c2.495,1.384,4.626,3.275,6.869,5.024c-1.455,7.089-7.975,6.098-15.68,7.719
			c-0.515-0.161-0.924-0.34-0.964-0.581c-0.115-0.688-0.749-7.366-0.537-7.692c0.119-0.183,2.63-2.125,3.139-2.47
			c0.841-1.092,2.232-1.759,4.173-2C140.133,173.305,141.133,173.305,141,175z"/>
		<path style="fill:#D1D1D1;" d="M114,160c1.139-1.138,1.806-0.804,2,1c2.217-1.838,6.062-0.041,5.971,2.869
			c1.731,0.36,1.758,0.681,0.029,1.131c-0.447,2.309-0.781,1.888-2.094,0.181c-0.131,1.105-0.955,1.256-2.472,0.451
			c-0.496,0.763-1.235,1.486-2.079,1.33c-8.754-1.62-1.021,1.75,2.716-0.064c0.933-1.169,1.928-0.753,2.984,1.248
			c1.62,2.024,1.442,5.049-0.055,7.093c-1.37,2.82-2.37,5.74-3,8.761c-0.492,1.673-1.314,1.634-2,0.066l-3.839-1.272
			c-2.58-1.741-4.967-3.791-7.161-5.793c-0.407,0.82-0.771,0.81-1.089-0.042l-1.204-1.5c0.71-3.384-0.193-5.537-2.707-6.458
			c0.141-0.699,0.042-1.768,1-2c1.097-0.911,1.097-1.911,0-3c0.645-1.694,0.934-3.494,2-5c0.84-0.391,1.141-0.012,1,1
			c1.222,0.782,1.676,1.954,1.363,3.516c4.427-1.325,4.826-2.655,1.197-3.99l-0.704-2.47c-0.9,0.086-0.965-0.246-0.291-0.948
			c-0.023-0.324,0.15-0.661,0.152-0.987C108.293,152.843,114.318,156.72,114,160z"/>
		<path style="fill:#E5E5E5;" d="M29.898,118.963c1.554-0.803,2.847-1.078,3.878-0.823l3.282,1.698
			c1.602-2.43,4.123-5.422,5.943-1.838c1.123,0.591,1.268,1.77,0.437,3.539c2.04,1.004,3.93,1.123,5.668,0.356
			c1.507-1.877,3.534-1.377,3.895,1.089c2.665,0.288,3.283,1.735,2,4.016c0.086,0.291-0.151,0.745,0,1c-0.273,0.882-0.608,0.867-1,0
			c-1.534,0.825-3.534,0.492-6-1c-0.736,1.209-2.705,0.305-3-1l-12.917-3.136c-0.73,7.081-2.458,15.62-7.104,21.099
			c0.815,0.324,0.82,0.67,0.021,1.037l-0.646,2.602c0.584,2.205,0.133,3.337-1.354,3.398c-1.284,1.998-1.872-0.172-2-2
			c-1.276-2.093,0.375-5.264,1.94-6.898C22.05,141.587,22.009,141.3,23,141c-0.105-2.38,0.124-6.569,2.9-7
			c-1.379-0.657-1.447-1.507-0.052-2.16l4.095-9.619l-10.019-8.56c0.256,0.108,0.632,0.004,0.913,0.021
			c1.35-0.899,2.738-1.793,4.163-2.682c2.336-1.423,3.625,0.425,3.866,5.542L29.898,118.963z"/>
		<path style="fill:#4C4C4C;" d="M102.102,150.031c0.294,3.757-0.396,7.532-2.102,10.895L93,164c-0.19,1.876-7.125-0.891-7.3-1.261
			L89.307,159c-2.902-0.651,3.775-8.921,4.298-9.131c0.785-0.316,1.627-0.139,2.395,0.131
			C96.656,145.497,103.708,145.789,102.102,150.031z"/>
		<path style="fill:#484848;" d="M112,96c1.257-1.963,1.924-1.629,2,1c2.244-1.008,2.919,0.248,2.026,3.769
			c0.574,0.981-2.195,14.059-3.99,13.352c-3.161,0.944-8.873-7.358-7.037-10.121c-1.478-0.723-0.126-3.717,1-5
			C104.294,96.473,110.253,93.646,112,96z"/>
		<path style="fill:#656565;" d="M121,175.239c1.607-1.955,1.947-1.721,2,0.761l5.01,3.071c0.32-0.559,3.379,0.466,3.416,0.665
			c0.383,2.053,0.615,7.681-1.426,8.314l-4.94-0.047c-0.337,0.421-0.677,0.75-1.027,0.761c-1.098,0.035-5.928-2.657-6.604-3.381
			c-0.141-0.152,0.152-0.709,0.57-1.383c-1.121-1.699-1.382-3.747-0.58-5.983C117.923,176.615,118.834,174.692,121,175.239z"/>
		<path style="fill:#565656;" d="M78.966,193.152c0.984-0.386,1.632-1.201,2.034-2.152l4-3l1-1l4-3
			c1.365-1.066,2.66-2.095,3.885-3.087c0.231,0.291,0.737,0.376,0.776,0.672c0.087,0.662-2.738,12.848-4.115,13.027
			c-4.034,1.044-4.179,6.983-5.234,4.699c-0.138-0.298,0.767-1.684,0.348-1.791C82.791,196.79,79.463,196.21,78.966,193.152z"/>
		<path style="fill:#4D4D4D;" d="M202,99c2.305-1.419,3.179-0.495,2,2l4,3c1.524-1.187,2.038-0.474,0.927,1.176
			c-0.75,4.432-5.235,6.832-7.908,9.751c-2.44,1.14-2.792,0.265-1.129-1.816L198,108c-1.823-1.831-2.317-4.448-1.483-7.851
			c-1.307-3.071-0.629-4.395,2.036-3.972L202,99z"/>
		<path style="fill:#636363;" d="M198,108l1.89,5.11c0.536,0.412,0.653,1.341,1.129,1.816c-2.515,2.747-3.256,8.413-7.895,9.052
			c-0.682-0.952-1.752-1.827-2.123-2.979c0.411-1.643,0.077-3.309-1-5c-1.746-1.744-1.746-3.077,0-4l3-4
			c-1.24-1.404-0.621-1.976,1-1C196.224,103.336,196.834,104.415,198,108z"/>
		<path style="fill:#4D4D4D;" d="M123,77c-1.413,5.695-2.421,11.661-4.958,16.948c-0.542,0.227-4.321,1.432-4.373,1.204
			c-0.596-2.605-1.689-11.79-1.632-14.236c0.017-0.746,0.276-1.561,0.963-1.916C115.544,77.383,120.123,75.906,123,77z"/>
		<path style="fill:#494949;" d="M107,119c2.321-1.479,4.428,1.338,2.202,3.066c-0.104,1.353-1.436,2.56-1.186,3.934
			c0.887,2.755-0.866,4.331-3.165,2.213l-2.05,1.536c0.186,2.22-1.361,1.736-2.561,0.008C96.976,130.33,93.527,119.997,96,118
			C98.221,113.824,104.606,114.808,107,119z"/>
		<path style="fill:#4F4F4F;" d="M16,126c1.899,1.765,1.32,3.034,0,5l-1,5c0.747,1.483-0.253,2.817-3,4
			c1.299,2.668-2.585,4.792-5.084,4.123c0.175,2.861-2.193,2.416-2.832-0.102c0.596-1.99,8.401-20.848,10.688-21.845
			C15.498,123.235,15.766,124.684,16,126z"/>
		<path style="fill:#525252;" d="M167.058,43.895c1.878,2.06,3.526,4.428,4.942,7.105c0.134,1.295-0.366,2.48-2.038,2.97
			l-10.719,3.143C158.894,55.119,159.09,53.748,158,53c-3.167-0.497-2.418-3.453,0.732-3c0.507-1.033,0.988-2.317,1.441-3.85
			L167.058,43.895z"/>
		<path style="fill:#4C4C4C;" d="M178.919,40.073c1.089-0.831,1.834-0.445,1.848,1.087c2.103,0.253,1.113,2.239,0.234,3.84
			c-0.129,1.123,0.66,3.423-0.379,4.641c-2.109,2.473-6.221,2.95-8.621,1.359c-1.759-2.305-3.039-4.704-3.843-7.197
			C171.32,41.689,175.094,40.152,178.919,40.073z"/>
		<path style="fill:#7F7F7F;" d="M121.743,66.076c-0.508,2.22-0.869,4.505-0.654,6.774c-4.031-1.236-16.215-1.961-15.569-3.899
			c1.084-3.251,10.613-5.393,15.45-7.302L121.743,66.076z"/>
		<path style="fill:#D4D4D4;" d="M103.911,176.958c0.257-0.18,0.793,0.161,1.089,0.042c1.121,2.024,2.727,3.188,4.818,3.492
			l2.344,2.301c1.792-2.022,3.277-1.054,3.839,1.272c0.63-0.182,1.356,0.057,2-0.066c1.377,2.885,5.146,1.736,7.06,4.003
			c-0.776,2.805-4.611,1.69-7.052,2.097c-0.628-2.421-1.55-2.427-1.008-0.018c-1.219,0.914-2.601,1.283-4.031,0.892
			c-0.796-3.782-2.533-4.632-5.213-2.549L106.03,187c-2.673-0.003-2.667-0.92-0.23-1.965c1.113-2.039,1.113-2.039,0,0
			c-1.491,2.361-3.759,1.148-4.705-0.967c-1.388,1.018-3.433,1.745-5.121,1.05l2.213-8.058
			C98.821,173.951,102.433,174.915,103.911,176.958z"/>
		<path style="fill:#989898;" d="M191.034,127.934c-2.216,2.089-5.1,0.552-8.115,1.292c2.346,1.841,4.571,0.093,7.171,0.984
			c-0.597,1.187-1.752,1.291-2.486,1.956c-3.284,1.207-4.135,2.141-2.554,2.803l-1.244,1.58c-2.048,1.111-4.619,1.754-7.714,1.928
			c2.119,0.322,3.451,1.168,3.998,2.536c-0.049,0.86-0.8,1.34-1.199,1.99c-2.698,0.448-4.814,2.456-6.347,6.023l-1.377-0.044
			c-0.108-0.312-0.084-0.661-0.165-0.982c2.951-5.843,3.594-11.955,1-18l-0.208-0.992L179,128L191.034,127.934z"/>
		<path style="fill:#424242;" d="M232.058,60.958c3.613,0.797,6.735,2.32,9.368,4.57l-0.494,1.501
			c-2.01,2.827-3.855,6.149-6.958,7.806c-0.057-2.469-1.067-4.879-2.709-6.717c-1.337-0.548-2.175-1.561-1.357-2.808
			c-0.022-1.192-0.109-2.288,0.263-3.632C230.352,61.025,231.132,60.734,232.058,60.958z"/>
		<path style="fill:#686868;" d="M38.997,93.984c-0.034,3.374,0.272,6.819-0.637,10.508c-1.928,0.839-3.73,0.574-5.384,0.789
			C31.46,107.765,30.188,106.794,31,104c-2.603-0.195-1.582-5.323-0.076-7.144C32.712,94.42,36.25,94.461,38.997,93.984z"/>
		<path style="fill:#2A2A2A;" d="M255.026,10.068c1.018-0.173,1.039,0.492,0.397,1.236l-3.638,6.441
			C250.16,20.621,248.045,22.36,245,22c-0.313,0.59-3.354,0.307-3.391,0.13c-0.083-0.402,1.613-7.593,3.234-6.91
			C247.488,12.259,251.378,11.292,255.026,10.068z"/>
		<path style="fill:#464646;" d="M214.822,99.118c-1.332,2.478-3.631,4.792-5.895,6.058c-0.287-0.388-0.728-0.726-0.927-1.176l-4-3
			c-0.379-0.77-1.725-1.125-2-2l-3.32-2.611c-2.457,1.195-1.505-2.278-0.559-2.975C199.785,92.19,212.384,97.16,214.822,99.118z"/>
		<path style="fill:#7C7C7C;" d="M117.003,115.801c1.008-3.099,3.545-1.751,1.997,1.199l5,2c0.289,0.841,1.045,1.93,1.072,2.664
			c0.078,2.069-13.354,3.307-12.072,1.336C114.082,121.233,111.888,116.746,117.003,115.801z"/>
		<path style="fill:#666666;" d="M6.916,144.123C10.115,142.759,16.29,145.521,17,149c4.332,0.528,2.01,3.264-0.139,5.73
			c-4.565-2.218-8.775-5.182-13.223-8.15c-0.464-0.588,0.275-1.986,0.447-2.559L6.916,144.123z"/>
		<path style="fill:#434343;" d="M112.037,114.121c0.534,0.768,0.105,2.039,0.084,2.879c-0.384,0.289-0.741,0.495-1.007,0.411
			c-1.458-0.461-11.281-6.37-11.361-7.05c-0.051-0.438,0.073-0.896,0.248-1.361c-2.59-1.379-0.661-4.031,2-3
			c-1.481-1.117,1.757-2.497,3-2L112.037,114.121z"/>
		<path style="fill:#606060;" d="M73,80.06c4.252-1.517,3.88,3.746,0,4.94c-0.075,3.432-5.829,7.482-8.21,4.26
			c-1.015-0.271-1.768-1.58-2.073-2.404C61.124,82.563,65.405,83.323,73,80.06z"/>
		<path style="fill:#6B6B6B;" d="M123,111c3.166-0.567,3.847,1.48,1,3c0.346,1.684,1.029,3.626,0,5l-5-2
			c-0.483-0.688-1.031-1.378-1.997-1.199c-3.449-1.657-0.458-7.484,0.919-9.69C120.471,107.356,122.164,108.986,123,111z"/>
		<path style="fill:#373737;" d="M220.672,24.953c-0.818,2.049-1.611,4.109-2.672,6.047c-0.892,3.333-10.183-0.398-11-3
			C212.939,26.896,218.417,22.387,220.672,24.953z"/>
		<path style="fill:#DDDDDD;" d="M138,167c1.132,0.645,1.23,1.765,0.294,3.359l-4.417,5.489c1.836-0.092,1.496,0.212-0.05,1.152
			c-1.82,3.232-2.012,7.096-1.638,10.743c-0.702,0.148-1.473,0.314-2.189,0.307c1.585-3.686,1.116-6.597-1.99-8.979
			c-1.245-1.984-1.567-2.931,1.142-3.092c2.752,0.037,0.769-3.298-1.152-2.979c-2.373,1.868-5.191-3.109-3-5
			c1.301-1.299,3.53-0.856,6.689,1.328l1.623-0.42c1.025-3.191,2.513-4.161,4.465-2.908C138.436,166.166,138.497,166.503,138,167z"
			/>
		<path style="fill:#292929;" d="M131,87c1.7,2.525,1.014,3.512-1.966,3.121c-2.256,2.39-4.703,3.819-8.034,2.995
			c0.508-2.119,0.635-4.204,1.866-6.115c0.874-1.537,5.894-4.115,7.349-3.994C131.83,83.141,134.123,86.183,131,87z"/>
		<path style="fill:#4D4D4D;" d="M96.165,71.987C96.811,71.849,97.001,72.477,97,73c2.156,0.61,1.847,2.301-0.927,5.073
			C95.792,78.418,95.373,78.759,95,79c0.035,2.705-1.298,3.029-4,0.972c-1.113-0.537-2.833-1.335-2.997-2.511
			c-0.174-1.243,0.528-2.375,0.821-3.401C90.91,72.114,94.33,73.244,96.165,71.987z"/>
		<path style="fill:#414141;" d="M111,151c2.274-0.953,3.92,0.481,3,3l2.214-0.261c0.081,0.418-0.819,8.033-2.214,6.261
			c-2.826-1.527-5.335-3.585-8.283-4.879c-0.765-0.462-1.609-1.549-0.971-2.134l2.112-1.936
			C108.713,149.933,110.094,149.916,111,151z"/>
		<path style="fill:#454545;" d="M80.879,77.005l5.087-0.15C86.666,80.168,84.646,81.468,83,83c1.019,2.769-1.688,3.838-3,1
			c-0.329,2.111-1.329,2.111-3,0c-1.95-0.191-1.582-4.04-1-5.144L80.879,77.005z"/>
		<path style="fill:#3E3E3E;" d="M27,151c1.869,1.543,0.936,8.06-1.921,8.226c-1.064-0.3-2.815-0.143-3.592-1.306
			c-0.562-0.842-0.509-1.903-0.487-2.92c-0.166-1.416,0.627-3.612,2-4c0.288-2.135-0.177-4.795,2-6
			c0.711,0.003,0.971,0.864,0.779,2.582L27,151z"/>
		<path style="fill:#6D6D6D;" d="M101.12,139.065c3.058,0.089,4.231,0.259,2.255,3.187c-0.071,1.325-0.605,2.558-1.333,3.656
			c-2.175,3.151-6.191,0.544-9.042-1.908C94.103,140.807,97.786,138.953,101.12,139.065z"/>
		<path style="fill:#AAAAAA;" d="M131.916,74.774l0.674,2.35c-2.568,3.738,1.097,7.445,4.41,3.876c3.481-2.198,4.395,3.365,3,6
			c-1.974,2.137-6.585,1.211-9,0c-0.006-0.654,0.425-3.099-0.834-3.031c-3.158,0.171-4.972,2.422-7.3,3.031
			c0.448-0.696,0.243-2.353,0.966-3c3.792-2.566,4.251-4.612,1.375-6.136c0.408-0.947,0.12-1.9,0.845-2.864
			C127.914,74.131,130.155,73.563,131.916,74.774z"/>
		<path style="fill:#BEBEBE;" d="M185.974,37.1c1.521,1.28,2.281,1.92,2.281,1.92c2.225-1.54,4.14-1.88,5.745-1.02
			c2.323-0.852,6.136,2.643,5,5c-0.431,0.226-0.866,0.637-1.244,0.948c-1.588-0.312-3.174-0.961-4.756-1.948
			c-0.773,2.21-1.773,3.877-3,5l-1,1l-2.021-1.027c0.936-3.49-0.714-4.148-4.951-1.973H181c0.145-1.265-0.269-2.571-0.234-3.84
			c0.468-0.896,0.891-1.92,1.268-3.073C183.154,36.997,184.687,37.386,185.974,37.1z"/>
		<path style="fill:#393939;" d="M158.906,46.987c0.98,0.374,0.818,2.391-0.173,3.013c-0.459,0.957-0.957,1.856-0.732,3
			c0.076,0.387,0.092,1.034-0.073,1.461c-0.313,0.814-1.402,0.44-2.056,0.458c-0.669,0.701-0.996,0.529-1-0.47
			c-2.152-0.346-4.667-0.402-5.871-2.415C150.905,48.675,155.543,48.618,158.906,46.987z"/>
		<path style="fill:#525252;" d="M103.911,176.958c-1.775,1.243-3.797-0.308-5.724,0.102c0.717-2.613,1.272-5.369,1.814-8.06
			c0.759-0.597,1.797-0.952,2.559-1.062C104.667,167.634,105.682,176.284,103.911,176.958z"/>
		<path style="fill:#747474;" d="M122.995,101.848c-0.828,3.223-4.574,3.034-3.976-0.575c-0.081-1.547,0.845-2.85,0.963-4.276
			c2.402-0.835,4.95-1.872,8.167-1.146c1.07,0.241,0.861,1.903,0.673,2.563C128.153,100.768,123.686,100.579,122.995,101.848z"/>
		<path style="fill:#8E8E8E;" d="M122.995,101.848c0.743,0.139,1.525,0.069,2.435,0.123c1.07,0.064,1.837,0.826,1.576,2.113
			c2.441,2.762,0.559,5.778-3.005,4.916c-0.217,0.433-0.457,0.793-0.781,0.9c-0.698,0.229-4.778-3.682-5.326-4.784
			c0.364-1.194,1.194-2.536,1.126-3.843C119.677,102.648,121.735,101.611,122.995,101.848z"/>
		<path style="fill:#404040;" d="M241.974,15.297c1.391,0.424,1.543,2.138,0.458,5.143c0.486,0.758,0.839,1.37,0.73,1.468
			c-0.26,0.234-6.23,2.24-6.162,1.093l-4.026-3.945C235.391,16.801,238.808,16.048,241.974,15.297z"/>
		<path style="fill:#737373;" d="M261.024,39.113c-0.578,1.747-3.907,12.442-6.827,8.856C253.969,45.935,253.474,43.57,255,42
			c0.161,1.008-0.625,2.404,0.773,3.102c0.734-2.821-0.46-5.086,0.649-7.113C258.748,37.999,260.682,37.51,261.024,39.113z"/>
		<path style="fill:#7D7D7D;" d="M24,107c3.032,0.455,3.532,2.194,1,4c0.067,1.801,0.327,3.377,1.039,5.562
			c-2.479-0.798-3.214-2.758-5.202-2.879c-3.716-3.574,0.167-5.601,0.318-8.504C22.572,102.33,23.493,104.673,24,107z"/>
		<path style="fill:#505050;" d="M194,38c-2.34,1.571-4.518,3.662-7.883,2.946c-0.283-1.523-0.086-2.741-0.143-3.847
			c2.868-1.699,5.822-3.134,9.052-4.013c2.265-0.82,3.401,0.746,1.107,1.409L194,38z"/>
		<path style="fill:#343434;" d="M123.021,76.081C119.613,76.896,116.273,77.536,113,78c-1.709,0.632-3.968-2.277-5-4
			c-0.018-0.441-0.306-0.842-0.73-0.966C105.643,72.881,123.46,73.174,123.021,76.081z"/>
		<path style="fill:#565656;" d="M143.323,60.034c-1.717,0.269-2.003-0.491-0.858-2.281c1.5-2.117,2.96-4.755,5.504-5.441
			c-0.29,2.477,0.359,4.825,0.778,7.731c0.187,1.296-2.385,3.383-3.226,2.655C144.534,61.842,144.325,60.303,143.323,60.034z"/>
		<path style="fill:#3B3B3B;" d="M183.806,136.549c-0.614,1.933-1.886,3.543-3.717,4.465c-1.469-0.131-3.111,0.409-5.123-0.332
			c-0.797-0.293-1.295-3.083-0.257-3.735C177.416,135.246,181.277,135.738,183.806,136.549z"/>
		<path style="fill:#787878;" d="M47,90.052c0.937-0.212,1.219,1.276,1,1.948c2.574,2.064,0.1,5.337-3,5
			c-1.03,0.734-2.201,1.289-3.949,0.914l-0.017-4.951C42.451,90.986,44.938,90.956,47,90.052z"/>
		<path style="fill:#3C3C3C;" d="M42,166c2.463-0.409,2.481,0.07,1,2c1.881,2.181,2.196,3.514,0.945,3.997
			c-3.595-1.464-6.504-4.119-9.945-5.874c-1.071-3.862,0.514-4.669,4.755-2.421C41.243,163.099,42.325,163.865,42,166z"/>
		<path style="fill:#303030;" d="M187.604,132.165c-0.389,1.29-1.395,2.22-2.554,2.803l-8.992-0.203
			c-1.002-0.023-1.272-0.379-1.613-0.567C168.013,130.643,187.769,132.418,187.604,132.165z"/>
		<path style="fill:#434343;" d="M152,161c1.348,2.601,3.838,4.5,6.123,6.328c0.435,2.348-2.586,3.314-3.423,4.824
			c-0.576-5.592-2.011-3.779-4.701-10.152C149.323,160.466,150.935,159.574,152,161z"/>
		<path style="fill:#616161;" d="M100,162l-2.191,9.024c-0.84-0.351-1.193-0.876-1.809-1.024c-0.466-0.852-2.377-1.542-2-3
			c-2.415-1.482-2.749-2.482-1-3C95.382,162.477,97.716,161.81,100,162z"/>
		<path style="fill:#2C2C2C;" d="M110.766,145c2.687,0.365,2.968,0.905,0.606,2.341c1.285,1.836,0.674,2.595-1.373,1.659
			c0.033,1.103-1.014,1.787-3.142,2.051c-0.462-0.025-1.627,0.028-1.778-0.558c0.179,0.697,2.253-9.495,3.925-10.241
			C109.255,141.981,109.415,143.969,110.766,145z"/>
		<path style="fill:#A3A3A3;" d="M244.843,15.22c-0.33,2.258-2.582,3.712-1.612,5.848c0.237,0.521,1.019,0.871,1.77,0.931v1
			c-0.594,1.342-2.266,2.23-5.018,2.664c1.5,2.642,1.506,4.421,0.018,5.336c-1.834,1.928-4.32,0.184-5-2
			c1.005-1.892,2.242-3.796,2-6c1.642-0.284,3.782-0.811,4.455-2.082c1.011-1.909,0.523-3.884,0.519-5.622
			C242.894,15.078,243.91,15.318,244.843,15.22z"/>
		<path style="fill:#BEBEBE;" d="M269.937,19c-1.921-2.505-4.493-0.857-6.706,1.217C255.574,27.394,259.635,27.604,255,31
			l-1.656-2.033c1.473-2.66,2.359-5.316,2.656-7.967c0.808-1.327,1.566-1.937,2.768-1.118c1.59-1.968,3.334-2.929,5.232-2.882
			c2.389,0.02,4.995,0.383,7.01-1.063C271.248,17.022,270.27,18.128,269.937,19z"/>
		<path style="fill:#5E5E5E;" d="M112.969,190.974c-0.874-0.066-2.117,0.533-2.969,0.798c-2.233,0.296-6.885-2.822-3.97-4.772
			c1.531-0.676,3.182-1.445,5.251-1.751c1.354-0.2,2.109,1.664,2.582,2.852C114.183,188.905,113.623,189.999,112.969,190.974z"/>
		<path style="fill:#C4C4C4;" d="M199,85c0.399,1.842-0.989,5.726,0.7,7.098l15.352,5.904c-0.141,0.334-0.06,0.798-0.231,1.115
			c-4.902-2.122-9.966-4.069-16.481-5.366c0.143,2.647,2.991,3.121,3.659,5.248c-1.514,0.117-2.405-1.225-4.446-2.457
			c-1.646,4.061,0.11,7.701,0.446,11.457c-0.64-0.455-0.917-1.501-1.722-1.765c-0.859-0.282-1.636,0.299-2.278,0.765
			c-1.426-1.086-1.357-3.24,0.205-6.46L193,98c-0.498-1.588,0.463-3.139,2.884-4.654C195.903,90.5,195.942,87.718,196,85
			C196.064,82.14,198.324,82.267,199,85z"/>
		<path style="fill:#272727;" d="M133.089,69.898c0.592,0.322,1.141,0.714,1.63,1.178c0.198,1.226-0.397,3.272-1.866,2.861
			c1.362,1.446,0.756,1.972-0.937,0.837c-1.691,1.672-4.235,2.17-5.864,0.226C127.895,72.55,129.696,69.549,133.089,69.898z"/>
		<path style="fill:#B6B6B6;" d="M100.239,129.756l4.612-1.543c0.672,1.232,0.635,2.792-0.11,4.68
			c-0.626,0.523-0.491,1.432-0.74,2.108c-0.321,0.064-0.672,0-1,0c-0.797-0.447-1.497-0.51-2.136,0
			c-1.921,0.41-3.548-0.731-4.807-2.055c-2.726-0.231-6.725-4.685-2.894-6.108c1.385-1.449,3.046-0.66,4.982,2.366L100.239,129.756z
			"/>
		<path style="fill:#484848;" d="M178.89,143.003c-0.75,1.219-6.35,9.946-7.724,5.979c1.714-1.386,1.976-3.623,2.96-6.079
			C174.779,141.274,178.437,141.427,178.89,143.003z"/>
		<path style="fill:#5D5D5D;" d="M30,96.793c-0.35,2.221-0.406,4.429-0.166,6.622c-2.128-0.178-4.073,0.017-5.834,0.585
			c-1.895,1.249-1.985-0.291-0.927-2C23.675,98.642,26.771,97.222,30,96.793z"/>
		<path style="fill:#444444;" d="M123.832,84c-0.076-2.123,0.531-4.179,1.375-6.136c0.804-0.103,2.201-1.146,3.092-0.364
			c1.302,1.142,1.046,4.65-0.265,5.407C126.92,83.549,125.013,85.649,123.832,84z"/>
		<path style="fill:#B9B9B9;" d="M102.042,145.908c0.912,0.526,2.07,1.346,1.92,2.541c-0.108,0.857-1.069,1.37-1.859,1.582
			l-2.017-2.425c-1.526,0.707-3.213,1.22-4.085,2.393c-3.575-2.167-4.575-4.167-3-6C96.101,145.051,98.716,146.922,102.042,145.908z
			"/>
		<path style="fill:#DADADA;" d="M100,109l7.415,5.589c1.579,1.19,3.043,2.266,4.706,2.411L111,118c-1.169,1.893-2.835,1.226-5-2
			l-4.76-3.016c0.234-0.859-0.18-0.854-1.24,0.016c-2.373,1.868-5.191-3.109-3-5C97.666,105.282,100.722,106.181,100,109z"/>
		<path style="fill:#3B3B3B;" d="M104.74,132.892c-0.936-0.333-1.892-1.168-1.717-2.292c0.155-0.998,1.187-1.687,1.828-2.388
			c1.268-0.424,2.394-1.092,3.165-2.213c2.484,0.627,1.188,2.907,0.597,4.245C107.796,132.096,106.258,132.628,104.74,132.892z"/>
		<path style="fill:#C2C2C2;" d="M93.152,179.99l0.732,0.924C93.433,182.72,91.87,183.976,90,184
			c0.449-1.035,1.402-1.469,2.427-3.436C87.878,178.869,84.34,175.979,80,175c0.207-0.402,0.739-0.636,1-1
			C85.289,175.271,90.5,176.643,93.152,179.99z"/>
		<path style="fill:#ADADAD;" d="M43,161c2.369,1.257,1.778,4.692-1,5c-1.849-1.169-3.956-1.618-6.401-2.899
			c-1.293,0.426-1.682,1.807-1.599,3.022c-0.373-0.19-1.061-0.602-1-1.123c-1.535-0.817-2.431-1.598-0.935-1.942
			c-1.573-0.866-2.561-1.426-1.065-3.058c1.644-1.816,4.088-1.493,7.33,0.969C40.299,160.351,41.856,160.361,43,161z"/>
		<path style="fill:#3B3B3B;" d="M29,159c2.139-1.515,2.323-1.614,2,1c0.397,1.066,1.481,1.465,2.307,2.161
			c0.861,0.726-0.203,1.946-0.307,2.839c-2.886-1.387-6.456-2.88-7.921-5.774C27.04,156.68,28.347,156.605,29,159z"/>
		<path style="fill:#696969;" d="M101.094,184.068c2.893,1.759,2.284,3.901-1.094,3.932c-0.501,2.238-2.187,2.136-3,0
			c-1.35,1.452-1.999,0.884-1.228-1c0.197-0.497,0.057-1.353,0.202-1.882l2.431-2.955
			C99.286,182.007,100.403,183.533,101.094,184.068z"/>
		<path style="fill:#C0C0C0;" d="M197.157,32.021c2.179-0.295,4.081,0.926,4.843,2.979v1c1.222,0.779,1.521,2.314,0,3
			c-1.373,1.493-2.961,1.049-4.764-1.332C196.415,39.26,195.449,39.197,194,38c-0.294-2.67,3.78-5.496,1.026-4.913
			C195.669,32.912,196.446,32.283,197.157,32.021z"/>
		<path style="fill:#646464;" d="M118.008,190.1c-0.329,0.055-0.675-0.046-1.008-0.018c-0.835,0.044-2.283-0.538-2.767-1.373
			c-0.373-0.644-0.521-2.661,0.502-2.664c2.547-0.007,4.277,0.776,6.109,1.749C119.789,189.085,118.66,189.212,118.008,190.1z"/>
		<path style="fill:#4A4A4A;" d="M200.85,30.971c2.848-2.026,3.962,1.987,2.15,4.029c-0.276,0.138-0.693-0.062-1,0
			c-2.219,0.445-4.03-0.957-4.843-2.979C198.314,31.596,199.749,31.468,200.85,30.971z"/>
		<path style="fill:#B9B9B9;" d="M103.375,142.252c-0.456-1.248-1.497-2.113-2.255-3.187c1.131-1.248,3.093-2.667,4.736-3.02
			c0.694,0.536,1.195,0.996,0.633,1.932c-1.943,3.235,0.046,3.526-1.197,4.604C104.875,142.942,103.958,142.587,103.375,142.252z"/>
		<path style="fill:#505050;" d="M118.105,95.003c0.525,2.151-1.795,3.977-2.079,5.766L114,97
			C111.527,94.071,115.679,93.79,118.105,95.003z"/>
		<path style="fill:#353535;" d="M111,118c0.458,0.899,0.616,1.955,0.268,2.761c-0.389,0.901-1.536,0.966-2.066,1.305
			c-0.119-1.385-1.311-2.187-2.202-3.066c-1.595-1.454-1.928-2.454-1-3L111,118z"/>
		<path style="fill:#5D5D5D;" d="M61.814,86.898c-0.184,2.13,2.339,5.084,0.016,6.26c-2.515,1.727-3.749,0.528-1.829-1.879
			l-0.087-6.294C60.644,85.385,61.224,86.381,61.814,86.898z"/>
		<path style="fill:#B4B4B4;" d="M242.1,64.955c-0.143,0.776-0.72,1.444-1.168,2.073c1.224-2.957-8.374-4.418-8.874-6.071
			c0.288,0.07,0.646-0.187,0.942-0.155C236.332,61.163,239.461,62.936,242.1,64.955z"/>
		<path style="fill:#D5D5D5;" d="M31,104c-0.347,3.026-6.4,2.893-7,0c0.7-2.072,3.066-0.379,4.878-1.17
			c0.259-2.316,0.117-4.345,1.122-6.038c0.301-0.04,0.62,0.079,0.924,0.063C30.379,99.27,29.312,101.9,31,104z"/>
		<path style="fill:#9B9B9B;" d="M52,170c0.873,0.284,0.86,0.618,0,1c-2.299-0.032-4.667,1.718-7.071,1.147
			c-0.31-0.074-0.69-0.03-0.984-0.15L43,168c1.372-1.635,2.261-0.861,3.456,0.522C49.321,167.827,51.168,168.32,52,170z"/>
		<path style="fill:#C5C5C5;" d="M110,191.772c-1.332,0.414-2.589,1.08-4,1.228l-3-3c-1.995-2.707,0.272-5.107,3.03-3
			C106.345,189.692,108.07,190.346,110,191.772z"/>
		<path style="fill:#B8B8B8;" d="M113,78c0.873,0.284,0.86,0.618,0,1c0,2.342,0.491,14.399,1.562,14.916
			c1.005,0.485,2.475-0.084,3.48,0.032c0.047,0.346-0.02,0.716,0.063,1.055c-0.781-0.093-1.539-0.028-2.599-0.055
			c-1.017-0.026-1.917,0.666-1.506,2.052l-2-1c-1.212-1.399-1.603-3.387-1.171-5.963c-1.078-3.539-1.021-6.551,0.171-9.037
			c2.27-3.14-2.83-2.883-3-7L113,78z"/>
		<path style="fill:#747474;" d="M53.937,87.951c0.13,1.283,1.535,1.506,2.149,2.895c-2.693,0.297-4.468,0.197-7.12,0.072
			c0.303-0.976,0.932-1.313,1.034-1.96C51.141,88.979,52.789,87.991,53.937,87.951z"/>
		<path style="fill:#727272;" d="M57.848,85.971c1.284-0.17,1.089,0.855,1.157,1.539c0.107,1.081-0.404,3.049-1.594,2.252
			c-1.392-0.932-1.947-2.315-3.473-1.812C54.956,86.879,56.303,86.028,57.848,85.971z"/>
		<path style="fill:#B2B2B2;" d="M76,78.856c0.409,1.701,0.904,3.39,1,5.144c0.089,2.886-2.689,3.488-4,1
			c0.651-0.882,3.405-4.096,1.504-4.985C74.135,79.842,73.51,80.059,73,80.06C73.844,79.698,75.22,79.152,76,78.856z"/>
		<path style="fill:#5A5A5A;" d="M101.921,193.013c-1.24,0.354-2.455,0.794-3.774,0.785C95.449,192.885,95.38,192.397,98,191
			c-0.371-1.87,0.448-1.999,2-1C101.873,190.279,103.812,191.442,101.921,193.013z"/>
		<path style="fill:#DCDCDC;" d="M124,109c2.43,1.387,1.688,2.541-1,2c-2.02-1.248-3.694-2.956-5.079-4.89
			c0.051-0.309-0.119-0.699-0.029-0.995C120.198,106.144,121.394,108.491,124,109z"/>
		<path style="fill:#C3C3C3;" d="M21,149c0.372,0.915,1.114,1.587,2,2c-0.191,1.417-1.121,2.97-2,4c0.01-0.453-0.653-0.849-1-1
			c-0.382,0-1.049,0.666-2,2c-0.615-0.037-0.724-1.069-1.139-1.27c0.271-1.366,0.881-2.56,2.069-4.086
			c-0.57-0.75-1.382-1.072-1.93-1.643C17.444,146.325,20.515,146.103,21,149z"/>
		<path style="fill:#AEAEAE;" d="M123.021,76.081C122.973,76.378,123.072,76.71,123,77c-3.445-0.187-6.636,1.393-10,2v-1
			C116.179,76.733,119.584,75.699,123.021,76.081z"/>
		<path style="fill:#535353;" d="M97,188c1.849,0.732,2.583,1.5,1,3c-0.223,2.388-2.046,1.811-4,1c0-1.771,0.792-3.493,1.772-5
			C96.144,187.377,96.598,187.66,97,188z"/>
		<path style="fill:#AAAAAA;" d="M218,31v3c-3.94-1.905-8.529-2.199-12.055-4.858C205.801,28.54,206.476,28.097,207,28
			C207.294,29.006,216.91,33.602,218,31z"/>
		<path style="fill:#AEAEAE;" d="M167,151.869V153c-2.062-1.334-4.621-1.031-7-1c-1.027-2.312-0.478-3.025,2-3
			C162.816,150.632,165.52,150.648,167,151.869z"/>
		<path style="fill:#686868;" d="M105.856,136.045c-0.914,2.056-2.546,3.094-4.736,3.02c-0.471-2.271,2.249-2.354,2.88-4.065
			C104.944,134.811,105.282,135.601,105.856,136.045z"/>
		<path style="fill:#B1B1B1;" d="M172,51c-2.435-1.616-3.755-4.482-4.942-7.105l1.1-0.092C169.746,46.031,171.712,48.213,172,51z"/>
		<path style="fill:#606060;" d="M180.766,41.16c-0.674-0.065-2.122-0.084-1.848-1.087c0.488-1.382,2.304-1.198,3.115-1.987
			c1.025-0.236,1.184,0.806,1.045,1.478C182.85,40.673,181.764,41.021,180.766,41.16z"/>
		<path style="fill:#757575;" d="M142.588,54.716c-0.924,0.941-1.395,1.421-2.048,1.728c-0.937,0.441-1.684-0.626-1.24-1.652
			c0.244-0.563,0.978-0.897,2.147-1.183C143.045,52.877,144.042,53.364,142.588,54.716z"/>
		<path style="fill:#C0C0C0;" d="M205,34l-2,1c0.035-1.014,0.203-2.119-0.113-3.344c-0.2-0.776-1.213-0.84-2.037-0.685
			c1.106-0.499,1.845-1.954,3.325-1.761C203.516,30.959,204.626,32.445,205,34z"/>
		<path style="fill:#535353;" d="M20,154c-0.227,0.487,0.192,1.629-0.506,1.982c-0.361,0.182-1.126,0.04-1.494,0.018
			c0.054-1.97,1.447-3.436,2.49-6.021C21.75,151.249,20.587,152.742,20,154z"/>
		<path style="fill:#C3C3C3;" d="M100,160.927c-0.146,0.288,0.077,0.755,0,1.073c-2.487,0.289-4.394,2.29-7,2
			C94.645,162.002,97.447,161.028,100,160.927z"/>
		<path style="fill:#777777;" d="M105.564,156.108c0.023,0.321,0.243,0.628,0.291,0.948c2.229,1.957,0.998,3.571-1.856,2.945
			c-0.368-0.297-0.703-0.632-1-1C103.142,158.799,103.172,155.831,105.564,156.108z"/>
		<path style="fill:#585858;" d="M143.323,60.034c-0.168,0.447-0.017,1.506-0.802,1.798c-0.462,0.172-1.095-0.824-1.536-0.9
			c-0.8-0.661-1.104-1.412-0.489-1.931c0.708-0.596,1.588-0.711,1.969-1.248C143.164,55.374,143.218,60.006,143.323,60.034z"/>
		<path style="fill:#CFCFCF;" d="M103,190c2.148,0.901,2.815,1.901,2,3c-0.975,0.189-2.125-0.259-3.079,0.013
			c-0.163-1.245-0.95-2.253-1.921-3.013C100.353,187.35,102.35,187.237,103,190z"/>
		<path style="fill:#D2D2D2;" d="M24,104c2.734,1.163,2.688,1.927,0,3c-0.671-0.985-1.587-1.868-2.845-1.822
			c0.07-1.339,1.158-2.345,1.919-3.178C22.949,102.816,23.802,103.353,24,104z"/>
		<path style="fill:#6E6E6E;" d="M101,167c0.242-0.922-0.337-2.114,0-3c0.414,0.075,1.137-0.186,1.5,0.018
			c0.78,0.439,0.619,1.561,0.463,2.467C102.853,167.125,101.571,166.862,101,167z"/>
		<path style="fill:#CCCCCC;" d="M158.732,50c0.411-0.856-0.095-2.111,0.173-3.013c0.426-0.207,0.819-0.69,1.268-0.837l-0.368,5.934
			C158.552,51.67,159.191,50.647,158.732,50z"/>
		<path style="fill:#808080;" d="M106,193c-0.328,0.034-0.677-0.063-1,0c-0.623-1.03-1.504-1.889-2-3
			c1.218,0.219,2.282,0.493,4.026,1.3C106.684,191.975,106.185,192.418,106,193z"/>
		<path style="fill:#D0D0D0;" d="M98.147,193.798c-0.381-0.003-0.766,0.179-1.147,0.202c-1.536,0.062-2.536-0.271-3-1v-1
			c1.412,0.039,2.798-0.25,4-1L98.147,193.798z"/>
		<path style="fill:#545454;" d="M97,194c-1.283,0.078-2.122,1.232-4.006,0.962L94,193C95.085,192.953,96.545,192.784,97,194z"/>
		<path style="fill:#5D5D5D;" d="M212,49c0.422-0.915,1.089-0.248,2,2l6.344,7.02c-0.933,1.925-0.846,3.351,0.261,4.278L218,64
			c-1.291,2.62-3.834,4.21-6,6l-1.397,0.823c-1.529-1.748-3.73-3.023-6.603-3.823c-1.983,1.658-8.023-1.378-6.919-4.081
			c-3.949-2.083-7.803-3.467-11.561-4.152c-0.521-1.34-0.695-2.596-0.52-3.767c0.138-1.056-0.561-3.581,0.303-4.578l20.695-6.645
			C208.464,45.51,210.255,47.255,212,49z"/>
		<path style="fill:#D2D2D2;" d="M221,54c0.284-0.873,0.618-0.86,1,0c2.663,0.976,2.165,3.433-0.037,4.94
			C222.059,59.262,222,59.663,222,60c-1.124,0.519-1.124,1.185,0,2l-0.016,1.105L218,64c4.456-5.182-2.993-9.52-4-13
			c1.752-2.444,7.107,4.641,6.683,4.816C219.534,56.291,219.021,54.211,221,54z"/>
		<path style="fill:#BFBFBF;" d="M212,70c-1.094,1.191-1.064,3.464-3,4c-1.07-1.727-1.605-2.591-1.605-2.591
			C204.092,70.487,202.96,69.017,204,67C206.987,66.767,209.338,68.874,212,70z"/>
		<path style="fill:#BDBDBD;" d="M209,81c-1.514-0.242-2.807-1.071-4-2c-2.589-2.387,1.09-7.762,4-5
			c-0.028,1.437-1.503,2.422-1.761,4.022C207.044,79.231,208.695,80.147,209,81z"/>
		<path style="fill:#C1C1C1;" d="M215,86c-2.369-0.064-3.475-2.475-5-4C212.367,82.067,213.858,84.095,215,86z"/>
		<path style="fill:#C0C0C0;" d="M220.947,91.026c-2.378,0.381-3.642-2.377-4.947-4.026
			C218.182,87.187,220.224,89.035,220.947,91.026z"/>
		<path style="fill:#505050;" d="M97.301,92.762L101,96c2.871,1.604,5.626,3.998,3.338,7.188C102.82,105.304,95.482,104.937,93,104
			c-0.301,0.5-0.546,0.883-0.592,0.86c-2.582-1.292-6.382-4.351-8.331-6.106c-0.21-0.54-0.109-1.07,0.06-1.593
			c1.655-1.44,9.996-5.337,11.63-5.438C96.255,91.691,96.774,92.156,97.301,92.762z"/>
		<path style="fill:#3F3F3F;" d="M77,84c1.265,0.531,2.265,1.864,3,4c1.97-0.792,2.401,0.192,1.031,1.895l-0.974,2.249
			c-0.998,0.532-1.932,1.101-2.822,1.805c-3.863,3.057-5.77,4.404-10.563,1.211c-2.173-1.011-3.077-3.822-1.882-5.9
			c3.261-0.184,5.235-3.14,8.21-4.26C74.26,84.526,75.701,84.351,77,84z"/>
		<path style="fill:#444444;" d="M91,79.972l2.95,0.579c0.059,2.63,0.917,3.95,2.574,3.959c-1.244,2.282-1.572,4.851-0.982,7.707
			c-3.785,1.533-7.616,2.714-11.492,3.544c-0.792-0.656-0.879-1.798-0.487-3.128l3.479-11.806
			C87.508,79.245,90.002,79.978,91,79.972z"/>
		<path style="fill:#6D6D6D;" d="M31,104c0.452,0.555,1.213,1.143,1.976,1.281c0.337,0.461,0.488,1.442,1.142,1.732
			c2.897,1.802,2.225,3.983-1.184,3.835c-1.458,1.785-1.665,4.181-1.85,6.417c1.405,0.929,0.364,2.254-1.186,1.698
			c-5.004-0.067-2-6.102-4.898-7.963c-0.047-1.276-0.712-2.75-1-4c-0.216-0.937,0.28-2.083,0-3H31z"/>
		<path style="fill:#535353;" d="M63.057,102.045c-3.152,2.393-6.904,4.604-10.896,4.803L49,102c0.197-0.914,0.257-2.294,1-3
			l13.911,0.005C64.011,100.428,63.507,101.269,63.057,102.045z"/>
		<path style="fill:#616161;" d="M57.832,120.832c1.374,2.952-3.341,5.195-4.832,2.152c-1.217-0.014-3.023-0.046-3.895-1.089
			C46.814,123.402,46.189,122.5,47,120c-0.123-1.261-0.117-2.743,1.029-3.482c-0.103,0.066,7.576-4.009,9.531-0.77
			C58.475,117.264,59.539,119.402,57.832,120.832z"/>
		<path style="fill:#585858;" d="M46,99l0.142,10.701c-2.243,0.515-3.835,0.554-6.065,0.223l-0.06-10.839
			C42.403,98.829,44.164,99,46,99z"/>
		<path style="fill:#5E5E5E;" d="M74,100c2.138-0.833,2.662,0.507,0.942,2c-0.604,2.532-2.371,4.36-4.98,6.182
			c-2.051-4.164-4.4-8.267-3.209-12.135l6.413,0.729C72.952,97.854,73.23,98.929,74,100z"/>
		<path style="fill:#797979;" d="M65,118.244c0.619,1.984-0.4,2.333-2,0.916c-1.602,0.163-3.01-0.431-3.638-2.088
			c-0.495-1.306-0.191-2.825,0.756-4.015c-0.518-2.12,1.409-3.165,2.969-1.814c1.474-0.787,2.726-1.848,4.899-2.326
			C68.007,112.718,66.724,115.608,65,118.244z"/>
		<path style="fill:#727272;" d="M60,91.278c0.013,0.964,1.459,1.279,1.829,1.879l2.83,4.582c-4.123,0.509-7.415,0.27-11.721,0.15
			c1.645-2.108,1.812-4.574,3.522-6.482C57.326,90.44,59.207,91.305,60,91.278z"/>
		<path style="fill:#898989;" d="M43,118c-2.634-0.235-3.386,1.834-4.832,3.827c-0.844,0.527-3.113-0.684-4.207-1.006
			c-0.806-0.237-0.254-1.627-0.186-2.681c2.889-0.533,3.437-3.654,5.495-5.922c1.31-1.443,3.472,0.591,3.633,2.001
			C43.02,115.231,43.8,116.995,43,118z"/>
		<path style="fill:#646464;" d="M61,122c-0.001,1.428,1.572,3.844,0.224,5.257c-1.69,1.772-4.492,0.2-6.224-0.257
			c-1.202-1.009-1.696-2.516-2-4.016c1.847,0.021,3.29-1.271,4.832-2.152C58.949,121.036,60.031,121.405,61,122z"/>
		<path style="fill:#B5B5B5;" d="M105,84.378c1.19,2.687,0.379,3.343-2,1.622c-1.521,0.76-3.278,1.086-5.272,0.978
			c0.292,1.798,0.168,3.437-0.374,4.917c0.861,0.261,0.825,0.55-0.053,0.867c-4.514,0.893-9.044,2.379-13.165,4.398
			c0.136-0.422-0.17-0.962-0.087-1.399c2.924-2.198,7.48-1.675,10.481-4.245c0.465-0.398,1.579-9.079-3.531-11.544
			c1.238-0.007,2.866-0.239,4-0.972c0.034,1.473-0.207,3.008,0.124,4.99C98.726,84.183,101.901,83.609,105,84.378z"/>
		<path style="fill:#5A5A5A;" d="M50,99h-4l-1-2c0.872-1.751,2.389-3.132,3-5l6.141,0.12C53.536,95.109,51.875,97.216,50,99z"/>
		<path style="fill:#6F6F6F;" d="M47,120c0.885,0.567,1.437,1.096,2.105,1.895c-0.121,0.879,0.128,1.644-0.325,3.293l-9.327-2.731
			L43,118C44.648,118.147,45.663,119.143,47,120z"/>
		<path style="fill:#4B4B4B;" d="M82.121,98.995C84.098,98.485,84.058,99.487,82,102c1.401,2.979-1.828,7.06-5,6
			c-1.541,3.039-2.912,4.047-4.113,3.024C70.121,107.175,82.314,98.971,82.121,98.995z"/>
		<path style="fill:#747474;" d="M76,118c-0.043,1.825,0.431,4.097-0.71,6.073c-0.751,1.301-2.758,0.833-3.715,0.824
			c-0.973,0.191-2.632-0.212-3.342-0.737c-0.283-0.209,1.176-6.214,1.768-6.16H76z"/>
		<path style="fill:#6D6D6D;" d="M68,118c1.667,1.46,2.428,7.883-1.591,6.919C63.982,125.371,62.18,124.065,61,122
			c0.001-1.197,0.779-2.409,2-2.84c0.702-0.248,1.347-0.61,2-0.916C65.849,117.846,67.082,118.234,68,118z"/>
		<path style="fill:#777777;" d="M32.934,110.848c0.887-1.086,1.313-2.431,1.184-3.835c0.447-0.181,2.856-1.917,3.518-0.883
			c2.112,3.292-0.262,7.56-3.83,9.278C32.365,113.866,33.315,112.244,32.934,110.848z"/>
		<path style="fill:#404040;" d="M76,113c1.771-2.895,7.798-0.083,6.894,3.327c1.46,2.349-0.538,4.293-3.146,3.857
			c-0.767,1.072-1.788,0.804-2.047-0.302c-0.188-0.804-1.476-1.106-1.701-1.882c-0.483-1.667-0.872-3.384-1.777-4.906
			C74.032,110.869,75.326,110.813,76,113z"/>
		<path style="fill:#8F8F8F;" d="M74.389,116.606c-2.605,0.843-4.097,0.32-6.381,0.32c0.039-3.077,0.04-5.644,1.81-8.469
			C72.15,111.184,72.885,113.169,74.389,116.606z"/>
		<path style="fill:#D4D4D4;" d="M84.076,98.753L93,104c1.838,0.287,2.505,0.953,2,2c2.29-0.935,3.437-0.096,2,2
			c-0.538,2.501-1.133,2.615-3,1c-2.425,0-4.14-1.558-3-4c-2.957-1.802-5.623-2.802-8-3c-0.284,0.873-0.618,0.86-1,0l0.121-3.005
			L84.076,98.753z"/>
		<path style="fill:#7F7F7F;" d="M63.057,102.045c0.639-0.485,0.901-1.215,1.475-1.316c1.736-0.303,3.299,5.179,1.945,6.217
			c-0.611,0.469-2.29,1.538-3.688,0.847C60.886,106.853,62.201,103.523,63.057,102.045z"/>
		<path style="fill:#4A4A4A;" d="M81.031,89.895C80.787,89.214,80.423,88.586,80,88c-1.328-1.596-2.709-3.818,0-4
			c0.974-0.196,2.227-0.281,3-1c3.838-0.864,0.084,2.559-0.163,7.723C81.948,90.744,81.486,90.233,81.031,89.895z"/>
		<path style="fill:#888888;" d="M63.087,111.244c-0.997,0.532-1.797,1.563-2.969,1.814c-0.937,0.2-2.035,0.1-2.717,0.293
			c-1.44,0.406-2.105-2.798-1.114-2.982l7.656-1.427C63.761,110.179,63.085,110.516,63.087,111.244z"/>
		<path style="fill:#595959;" d="M49,102l3.161,4.848c0.309,2.033-3.536,3.35-4.638,1.73c-1.322-1.943-0.07-5.098-0.56-7.218
			C48.133,101.279,48.522,101.7,49,102z"/>
		<path style="fill:#B8B8B8;" d="M70,118c-0.783,2.435-1.005,5.667,1.575,6.898v0.672c-1.127,2.473-4.009,2.473-5.165,0.024
			c0.437-0.254,0.569-0.554,0-0.675c2.654-1.138,2.452-4.507,1.591-6.919C68.622,117.841,69.356,118,70,118z"/>
		<path style="fill:#949494;" d="M54.018,111.455c1.402,1.928-4.776,3.754-5.291,3.435c-0.872-0.539-0.744-2.58-0.422-3.268
			C48.431,111.35,52.973,110.019,54.018,111.455z"/>
		<path style="fill:#BBBBBB;" d="M80.057,92.144C80.093,94.348,78.08,96.927,76,97c0.249,1.478-0.823,2.244-2,3
			c-1.734-2.57-4.485-2.933-7.247-3.953c0.082-0.265-0.121-0.609-0.081-0.887C75.643,98.654,76.278,91.197,80.057,92.144z"/>
		<path style="fill:#707070;" d="M45.585,116.82c-2.053,0.867-2.412-1.958-2.651-3.378c-0.294-1.742,2.303-3.436,3.691-2.016
			C48.06,112.896,47.467,116.025,45.585,116.82z"/>
		<path style="fill:#555555;" d="M76,97c1.554-1.104,2.006-0.519,0.932,1.142c0.328,0.878,0.924,2.142,0.375,2.795
			c-0.643,0.765-1.616,0.826-2.365,1.063c-0.335-0.645-0.533-1.394-0.942-2c0.393-0.752-0.982-1.925-0.792-2.525
			C73.412,96.831,75.577,97.006,76,97z"/>
		<path style="fill:#686868;" d="M76.932,98.142C76.767,97.702,76.193,97.44,76,97c0.173-2.342,3.064-2.739,4.057-4.856
			C81.236,94.426,79.472,97.753,76.932,98.142z"/>
		<path style="fill:#858585;" d="M33.776,118.14c-1.103,0.204-1.641,2.004-2.909,2.43c-0.679-0.391-0.814-1.073-0.969-1.606
			l1.186-1.698c0.933-0.033,1.71-0.878,2.697-1.161C33.89,116.752,33.804,117.709,33.776,118.14z"/>
		<path style="fill:#B3B3B3;" d="M76,113c-0.534-0.184-1.218,0.217-1.777,0.094c-0.415-0.698-0.862-1.412-1.336-2.071L77,108
			C79.877,109.536,77.823,111.503,76,113z"/>
		<path style="fill:#737373;" d="M56.217,107.669l4.403-2.691c0.596,1.582,0.48,1.897,0.338,2.272
			C60.552,108.319,59.208,108.217,56.217,107.669z"/>
		<path style="fill:#BEBEBE;" d="M72,165c0.883,1.755,1.549,3.755,2,6c2.383-0.538,5.048,1.578,4,4c-0.067,0.31,0.105,0.704,0,1
			c-3.639,0.291-5.4-7.415-11-4c-4.176-1.684-10.336-0.936-15-1v-1l1.096-1.999c4.086,0.734,7.054,0.067,8.904-2.001
			c1.544-0.868,3.072-0.186,4.583,2.046c1.675-0.275,1.909-2.766,0.702-7.473L69,159c0.284-0.873,0.618-0.86,1,0
			C73.21,159.476,72.955,162.501,72,165z"/>
		<path style="fill:#C0C0C0;" d="M66,177c0.448-1.558-1.125-4.069,1-5C67.068,174.089,67.23,175.834,66,177z"/>
		<path style="fill:#BCBCBC;" d="M66,177c-0.2,1.497,0.481,3.016-0.404,5.109C64.356,180.508,64.799,178.326,66,177z"/>
		<path style="fill:#424242;" d="M145,72.004c1.595,0.865,3.361,1.257,5.298,1.177c0.166,1.965,1.4,3.571,3.702,4.819
			c1.607-1.384,2.195-0.813,1,1l1.315,1.116c-1.565,4.94-2.446,10.051-2.642,15.33c-1.929,0.517-3.82,1.702-5.673,3.554
			c1.495,1.37,0.97,1.961-0.879,1c-0.625,1.597-1.519,0.648-2.292-0.663C144.534,96.938,140.332,70.044,145,72.004z"/>
		<path style="fill:#454545;" d="M184,55c2.407,1.863,2.407,3.863,0,6c2.875,1.178,2.127,3.422-1,3l-2.837,7.56
			c-0.197,1.663-0.918,1.143-2.163-1.56c-2.933,1.165-4.925-1.464-3-4l-3-4c-2.27,1.857-3.983-0.94-2-3c-2.033,0.051-1.74-1.201,0-2
			c-1.544-2.499,11.542-5.565,13.774-6.152C184.482,52.544,183.626,53.948,184,55z"/>
		<path style="fill:#424242;" d="M169,57c-0.34,1.407-1.674,2.74-4,4l-4.139,2.861c1.564,1.201,1.021,1.856-0.861,1.139l-4,3l-4,3
			c-1.286,0.685-1.923,1.642-1.91,2.871L145,72.004c-0.237-0.77-1.008-0.976-1.768-1.971c1.543-3.46,4.163-7.374,8.126-8.713
			l15.064-5.093C167.576,55.837,168.544,56.403,169,57z"/>
		<path style="fill:#747474;" d="M143.743,99.433c0.372,0.826,0.107,0.997-0.743,0.567l-4,3c1.483,1.368,0.83,1.971-1,1
			c-3.019,2.73-5.353,2.397-7-1c-1.06,1.742-1.766,1.205-0.94-0.787c0.25-1.687-1.328-5.452,0.423-6.699
			c1.946-1.386,12.083,0.779,12.437,1.07C143.543,97.095,143.567,98.453,143.743,99.433z"/>
		<path style="fill:#3F3F3F;" d="M140,87c0.268-0.852,0.603-0.835,1,0c0.84,1.516,1.73,4.831,0.657,6.739
			c-4.138,0.933-9.407,0.455-13.63-0.69c-0.161-1.216,1.246-2.118,1.007-2.928c0.824-0.873,1.504-2.09,1.966-3.121
			C133.671,85.097,137.049,86.157,140,87z"/>
		<path style="fill:#616161;" d="M130.06,102.213c-0.055,0.368,0.709,0.59,0.94,0.787c2.693,2.105,3.471,3.441,2.332,4.009
			c0.915,2.694,0.528,4.188-1.16,4.483L131,113c1.47,1.378,0.829,2.006-1,1c-1.38,0.734-2.407,1.888-3.579,3.066
			c-1.117-1.431-1.629-2.322-2.421-3.066c-0.191-0.931-0.074-2.428-1-3l1-2c1.5-1.279,2.649-2.961,3.005-4.916
			C127.863,103.222,128.878,102.528,130.06,102.213z"/>
		<path style="fill:#454545;" d="M141,87c-0.315-0.057-0.694,0.087-1,0c-1.096-1.974-1.07-4.635-3-6l-2-5
			c-1.366-1.876-1.116-4.029,1-5c1.423-0.085,3.789-0.346,5.358,0.704C141.758,76.767,143.198,82.57,141,87z"/>
		<path style="fill:#737373;" d="M147,103c-0.076,1.883,3.059,6.817,3.065,8.062c0.001,0.298-0.696,0.358-0.829,0.644
			c-1.688,1.814-1.709,1.729-2.236-0.706l-4-2c-1.789,1.98-6.639,0.091-6-2.709c-1.353-0.579-1.019-1.342,1-2.291
			c0.213-0.388,0.826-0.589,1-1l4-3l0.743-0.567c0.249-0.19,0.754-0.1,1.086-0.096C146.044,100.09,146.768,101.312,147,103z"/>
		<path style="fill:#4C4C4C;" d="M189,48c-1.954,0.634-4.148,0.55-6.659,1.916c-0.666-1.541-0.325-3.246-0.312-4.916
			c0.009-1.05,0.301-2.27,1.041-2.589c1.247-0.538,3.482-0.936,4.901-0.058C189.79,43.476,188.785,46.303,189,48z"/>
		<path style="fill:#717171;" d="M135.308,68.808c0.777-2.456,2.758-4.291,4.535-7.404c2.731,2.047,3.999,3.966,3.478,5.654
			C142.332,70.264,139.963,71.175,135.308,68.808z"/>
		<path style="fill:#484848;" d="M202,39c1.286-1.781,2.248-0.181,1.9,1.698c-1.223,1.466-3.252,1.435-4.9,2.302
			c-1.941-1.278-3.95-2.874-5-5c1.338-0.513,1.713-1.929,2.959-3.485C199.074,36.41,200.147,38.042,202,39z"/>
		<path style="fill:#565656;" d="M155.871,54.919c0.586,0.729,1.739,0.615,2.596,2.531l-8.309,2.675
			c-0.002-1.707-0.836-3.787,0.121-4.731c1.414-1.394,3.647,0.467,4.592-0.945C155.214,54.504,155.522,54.928,155.871,54.919z"/>
		<path style="fill:#B4B4B4;" d="M197.081,62.919c1.136,3.191-1.17,2.532-3.699,1.675c-2.939-2.311-6.067-3.509-9.382-3.594
			c0.396-2.027,0.695-4.043,0-6h1C186.036,58.624,195.353,60.58,197.081,62.919z"/>
		<path style="fill:#3C3C3C;" d="M193,42c1.451-0.496,3.093,1.512,1.903,2.711c-1.01,1.726-2.95,2.446-4.903,2.289
			c0.048-1.397-0.358-2.999,0.33-4.774C190.831,40.936,192.347,41.496,193,42z"/>
		<path style="fill:#575757;" d="M197.756,43.948c-0.805,0.661-1.816,0.847-2.853,0.764L193,42c0.126-0.676,0.149-1.416,0.541-2.012
			C195.263,41.761,196.27,43.023,197.756,43.948z"/>
		<path style="fill:#474747;" d="M203.9,40.698c-0.62-0.541-1.154-1.312-1.9-1.698c-0.276-1.002-1.007-2.232,0-3
			c1.269-0.183,2.139,0.496,2.517,1.898C204.765,38.816,204.646,39.805,203.9,40.698z"/>
		<path style="fill:#B9B9B9;" d="M170,57v2c1.047,2.811-3.485,4.403-5,2c0.843-1.729,2.341-3.086,4-4H170z"/>
		<path style="fill:#B4B4B4;" d="M214,46c1.643,1.536,2.28,3.719,0,5l-2-2v-2C212,45.913,213.349,46.281,214,46z"/>
		<path style="fill:#A9A9A9;" d="M136,71c-1.054,1.483-0.98,3.271-1,5c-2.301,1.688-3.255,0.493-2.147-2.063
			c0.575-0.988,0.915-2.16,1.866-2.861L136,71z"/>
		<path style="fill:#545454;" d="M197.081,62.919c2.135,1.223,5.141,2.252,6.919,4.081c1.49,1.534,3.426,2.322,5.921,3.233
			c0.104,1.549-0.899,2.602-0.921,3.767c-2.289,0.634-2.934,3.206-4,5c-1.441,2.424-3.691,4.446-6,6h-3l-5-2l-5-2
			c-1.828,1.59-1.889,1.399-2-1c-4.409-1.089-5.914-2.18-4.513-3.271c0.042-4.182,1.213-8.425,3.513-12.729
			c0.738-0.642,0.827-2.116,1-3C186.449,55.019,195.027,65.628,197.081,62.919z"/>
		<path style="fill:#2B2B2B;" d="M160,145l2,4c-0.1,1.297-0.952,2.294-2,3c-0.764,0.832-1.903,1.045-3,1c-2.02,1.24-3.353,1.24-4,0
			c-1.95,1.988-2.677,1.684-2-1c-2.627,0.444-2.294-1.222,1-5c0.089-1.49,1.089-2.823,3-4c0.999-2.285,1.941-2.231,2.827,0.162
			C158.807,142.201,159.531,142.813,160,145z"/>
		<path style="fill:#DDDDDD;" d="M179,128l-7,2c-2.546-2.112-5.666-1.235-7.734,1.258c-2.616,3.154-3.202,6.131-4.266,9.742
			c-1.468,0.837-1.131-2.18-1.064-2.046c0.509,1.02-0.107,1.481-0.936,0.046c-2.632-0.4-2.477-1.119,0-2l-0.331-2.404
			c1.962-2.703,4.052-5.182,6.268-7.436C168.851,128.476,173.944,127.899,179,128z"/>
		<path style="fill:#BEBEBE;" d="M160,141c-0.363,1.231,0.269,2.741,0,4c-1.419-0.764-3.345-2.109-5-2c-3.836-1.186,0.097-6.812,3-4
			C158.516,140.275,159.183,140.942,160,141z"/>
		<path style="fill:#444444;" d="M69.809,134.03L68,139c2.272,1.699,1.812,2.574-1,2c-0.847,4.026-1.271,6.039-1.271,6.039
			C62.22,146.267,58.377,146.748,55,148c-3.352,2.026-4.651,0.134-6-3c-2.771-2.401-2.771-4.401,0-6c-2.153-1.883-0.726-3.948,2-4
			c1.188-3.273,2.855-5.273,5-6C60.984,129.705,65.4,132.336,69.809,134.03z"/>
		<path style="fill:#525252;" d="M87.073,140.344C86.516,144.199,78.681,149.907,75,148c-0.721,1.927-5.447,1.832-7,1
			c-3.322-1.758-4.153-2.979-2.491-3.665L67,141c0.726-0.244,0.662-1.533,1-2l1.809-4.97
			C68.11,133.377,87.462,136.306,87.073,140.344z"/>
		<path style="fill:#343434;" d="M86.244,151.937c-0.163,0.964-0.578,1.319-1.244,1.063c-1.12,1.124-2.454,1.17-4,0.136
			c-2.011,2.947-6.175-0.203-6-3.136c-2.807-0.477-2.385-0.775,0-2c4.332-2.017,7.918-5.314,12.073-7.656
			c1.749,0.617,3.327,2.121,2.747,4.474C89.116,147.674,87.605,149.845,86.244,151.937z"/>
		<path style="fill:#4F4F4F;" d="M83,159c1.262,1.183-0.611,9.544-5,11c-0.053,2.943-2.33,2.626-4,1
			c-1.21-0.27-2.255-0.481-4.028-1.307c1.087-1.524,1.246-3.247,2.028-4.693l5-4c-1.456-1.469-0.818-2.111,1-1
			c1.438-1.648,2.771-2.314,4-2C82.924,157.743,83.257,158.076,83,159z"/>
		<path style="fill:#434343;" d="M92,126c1.255-1.647,1.928-1.126,1.163,0.837c-0.376,3.327,2.489,2.081,2.894,6.108
			C95.074,132.828,94.574,133.57,94,134c-2.791,1.47-5.493,1.111-8.108-1.077c-2.563-1.171-2.777-3.746-3.981-5.797
			C81.887,124.35,83.236,123.872,85,126C85.756,123.076,91.1,122.987,92,126z"/>
		<path style="fill:#696969;" d="M93,144c0.376,1.61,2.065,2.296,3.694,3.285c-0.063,1.053-0.537,1.877-0.694,2.715l-6.693,9
			c-1.547,2.542-2.983,3.542-4.307,3l5.488-15.496C91.013,145.021,91.685,144.027,93,144z"/>
		<path style="fill:#717171;" d="M66.409,125.593c1.704-0.395,3.458-0.382,5.165-0.024c0.619,0.13,1.756,0.222,2.706,0.582
			c0.554,0.21,0.949,0.901,0.719,1.849l0.25,1.376c-1.385,0.368-2.801,1.243-4.25,2.624c-3.159-0.573-6.4-1.505-8.386-5.225
			C63.825,125.538,65.324,126.224,66.409,125.593z"/>
		<path style="fill:#353535;" d="M85,126c-0.973,0.518-2.022,0.861-3.089,1.126c-1.313-2.238-3.975-4.1-2.163-6.942
			c0.888-1.393,1.797-2.897,3.146-3.857C87.236,114.569,90.164,125.583,85,126z"/>
		<path style="fill:#333333;" d="M88.762,137.923c0.983-2.552,2.729-3.86,5.238-3.923c2.802,1.904,0.986,7.345-2.297,7.67
			C89.513,141.886,89.346,139.131,88.762,137.923z"/>
		<path style="fill:#818181;" d="M80,130c1.455,1.222,4.612,3.173,3.668,5.757c-1.703,0.622-5.054-1.218-5.668-2.757
			c-0.847,1.202-2.584-3.545-2.562-3.819C75.59,127.259,79.105,128.76,80,130z"/>
		<path style="fill:#373737;" d="M100.864,135c-0.529,1.851-2.277,2.617-4.54,3.931c-0.731-1.944-0.062-3.947-0.267-5.986
			c0.922,0.11,2.092-1.36,3.071-0.774C100.042,132.718,100.086,134.252,100.864,135z"/>
		<path style="fill:#CACACA;" d="M81,129c0.13,0.69-0.337,1.063-1,1c-0.941-0.09-1.736-0.418-2.829-1.059
			C76.635,130.854,77.3,131.948,78,133c-1.07,0.608-2.07,1.16-3,0c-0.1-0.884-1.1-1.217-3-1c-0.328-0.037-0.676,0.059-1,0
			c0.907-1.673,2.298-3.156,4-4c0.69,0.73,0.993-0.222,1-1C77.755,125.922,79.76,127.598,81,129z"/>
		<path style="fill:#C3C3C3;" d="M93,164c-0.008,1.087,0.421,2.096,1,3c-3.382-1.137-6.337-4.055-10-3c0.238-0.602,0.627-1.513,1-2
			c1.504-0.939,2.655-2.365,4.307-3c-0.592,0.796-0.463,2.578-2.363,3.532C88.908,163.411,90.945,163.771,93,164z"/>
		<path style="fill:#4D4D4D;" d="M78,170c0.482,0.013,1.006-0.171,2.045,0.187c-0.212,2.002-1.069,3.465-2.045,4.813
			c-1.712-0.889-3.091-2.302-4-4C75.107,169.972,76.732,170.42,78,170z"/>
		<path style="fill:#4C4C4C;" d="M83,159c-0.343-0.321-0.702-0.635-1-1c-1.483,0.25-1.483-0.416,0-2c-1.476-1.316-0.824-1.954,1-1
			c-0.315-0.954,0.351-1.621,2-2c0.23-0.463,0.965-0.634,1.244-1.063C86.038,154.537,86.19,158.795,83,159z"/>
		<path style="fill:#3D3D3D;" d="M88.762,137.923c-1.095-0.331-2.454-0.733-2.895-2.24c-0.258-0.883-1.674-2.13,0.025-2.76
			l2.56,1.258C91.536,133.944,91.64,135.192,88.762,137.923z"/>
		<path style="fill:#AEAEAE;" d="M56,129c-1.561,2.091-2.932,4.38-5,6c-2.586-1.061-1.656-4.887,1-5c-0.201-1.483,0.584-2.249,2-2
			c0.298,0.107,0.688-0.067,1,0C55.183,128.311,55.608,128.945,56,129z"/>
		<path style="fill:#707070;" d="M81,129c-1.871,0.002-3.292-1.369-5-2c0.209-1.387,2.088-1.325,3.347-0.866
			C80.234,126.457,80.51,128.042,81,129z"/>
		<path style="fill:#8D8D8D;" d="M75,133c-1.075-0.056-2.235-0.131-3-1l2.985-2.022c0.841-0.569,1.076,0.968,1.057,1.504
			C76.018,132.142,76.132,133.111,75,133z"/>
		<path style="fill:#7D7D7D;" d="M78.8,124.58c-1.265,0.771-2.772,0.484-2.706-0.036c0.058-0.457,0.963-0.986,1.452-2.543
			C77.843,122.953,78.687,124.081,78.8,124.58z"/>
		<path style="fill:#4C4C4C;" d="M103,135h-2.136c0.189-0.661-0.133-1.547,0.191-2.492c0.355-1.036,1.167,0.21,1.533,0.548
			C102.992,133.429,103.142,134.396,103,135z"/>
		<path style="fill:#5A5A5A;" d="M194,107c-0.109,0.338-0.69,0.833-1,1l-3,4l-0.581,1.741c-6.845,2.709-13.651,5.795-20.419,9.259
			c-0.582,0.396-1.342,0.666-1.843,1.157c-0.779,0.581-3.055,1.179-3.074,0.745c-0.08-1.871,0.511-4.13,1.133-5.902
			c0.464-1.947,2.782-8.15,3.913-9.689c0.65,0.218,1.154,0.072,1.568-0.469c1.225-1.6,3.94-4.543,5.302-4.842
			c0.784-2.705,6.811-5.534,9-3l8-3c0.607-0.061,2.306-0.362,2.612,0.233C197.283,101.486,194.904,104.207,194,107z"/>
		<path style="fill:#BCBCBC;" d="M190,116c-0.583-0.49-0.833-1.332-1.664-1.79l-14.643,7.507c-1.65,0.846-3.159,1.409-4.693,1.283
			c6.52-4.44,14.065-7.201,21-11V116z"/>
		<path style="fill:#D2D2D2;" d="M167.157,124.157c-1.055,1.036-2.559,1.579-3.22,3.002c-1.882,3.507-8.683-2.27-5.787-4.808
			l0.178-0.94c1.21-1.591,2.289-1.375,3.472,0.089c0.437-2.146,0.984-3.294,3.417-2.501c0.267,1.06-0.383,2.269-0.187,3.487
			C165.19,123.476,165.783,124.325,167.157,124.157z"/>
		<path style="fill:#C2C2C2;" d="M191,121c-0.518-1.609-1-3.315-1-5c0.683,0.574,1.298,1.234,1.596,1.947
			C192.051,119.032,192.482,120.743,191,121z"/>
		<path style="fill:#3D3D3D;" d="M227,37c1.451-1.268,1.989-0.688,1,1l5,6c2.342-1.021,2.761-0.155,2.168,2.189
			c0.116,0.546,0.456,1.325,0.436,2.02c0.011-0.388-3.255,3.193-3.276,2.965c-3.918-0.836-7.211-1.128-11.4-1.243
			c-0.587-0.016-0.874-1.096-0.928-1.93c-3.423,0.832-5.17-2.106-3-5c1.039-1.089,0.583-2.745,1-4
			C218.179,34.954,221.179,34.288,227,37z"/>
		<path style="fill:#3D3D3D;" d="M232.244,52.052c2.256,2.5-2.625,3.045-2.609,5.927c-0.938,2.451-2.614,3.663-4.924,2.084
			c-1.013-0.087-1.912-0.571-2.748-1.123c-0.486-1.64-0.231-3.29,0.037-4.94c-1.096-0.318-1.249-1.89-1-3
			c-1.008-3.287,8.367-0.537,10.685,0.442C231.916,51.54,232.088,51.776,232.244,52.052z"/>
		<path style="fill:#3C3C3C;" d="M240,31c1.464-1.202,1.975-0.679,1,0.95c0.429,5.317-0.877,11.779-5.832,14.239
			C234.172,45.778,233.41,44.994,233,44l-5-6c-0.382-0.27-0.67-0.675-1-1c-1.57-0.29-1.186-0.943,1.152-1.958
			C229.148,34.8,229.801,33.986,230,33l4-3c0.178-0.401,0.789-0.604,1-1C236.919,28.74,238.548,29.832,240,31z"/>
		<path style="fill:#444444;" d="M255.081,19.955c1.67-1.302,2.209-0.665,0.919,1.045c0.455,0.928,2.254,2.158,1.723,3.603
			C256.834,27.017,255.011,28.72,255,31c-1.354,0.315-2.702-0.609-3.822-1.089c-1.325,0.473-1.768,0.069-0.913-1.108
			c-2.957-3.141,2.384-8.871,2.512-8.91C253.384,19.706,254.356,19.975,255.081,19.955z"/>
		<path style="fill:#4E4E4E;" d="M264,17c-1.054,1.625-2.384,3.475-4.402,4.623c-1.17,0.665-2.639-0.583-3.598-0.623
			c-0.155-0.317-0.525-1.055-0.919-1.045c-2.9-2.419,1.287-8.273,2.919-8.955L264,17z"/>
		<path style="fill:#484848;" d="M245,23c1.231,0.022,1.895,0.873,1.982,1.646c0.233,2.07-2.074,6.584-2.222,6.741
			c-1.024,1.083-2.584,0.589-3.76,0.563c-0.444-0.19-0.648-0.667-1-0.95c0.133-1.87-2.856-3.63-1.938-5.907
			C239.095,22.532,242.964,22.705,245,23z"/>
		<path style="fill:#292929;" d="M229.635,57.979c0.009,1.65-0.722,4.909-2.705,5.517c-1.685,0.516-2.852-2.397-2.219-3.433
			C225.982,58.691,227.896,58.448,229.635,57.979z"/>
		<path style="fill:#484848;" d="M250.265,28.803c0.379,0.14,1.468,0.596,0.913,1.108c-0.898,0.541-2.385,1.905-3.668,0.584
			c-0.589-0.607,0.407-2.558,0.964-2.352L250.265,28.803z"/>
		<path style="fill:#B1B1B1;" d="M232.328,51.173l-0.084,0.879C229.929,51.383,222.228,48.59,221,51c0.836,1.437,0.41,1.956-1,1
			c-2.927-0.002-2.803-3.341,0-4L232.328,51.173z"/>
		<path style="fill:#606060;" d="M229.908,65.31c0.646,0.83,1.044,1.81,1.357,2.808c-1.136,0.117-2.183-0.202-2.858-1.643
			C227.915,65.423,228.436,65.113,229.908,65.31z"/>
		<path style="fill:#D0D0D0;" d="M255,40c-1.477-0.253-3.114,0.593-5.064-0.488c1.698-0.99,3.608-0.423,5.064-1.512V40z"/>
		<path style="fill:#656565;" d="M222,60v2c-0.611,0.504-1.602,0.099-1.951-0.348c-0.311-0.398-0.127-1.655,0.358-2.467
			C220.678,58.731,221.33,60.054,222,60z"/>
		<path style="fill:#ABABAB;" d="M228.152,35.042L227,37c-2.279,0.242-4.289-0.837-7.098-1.224c-0.73,1.211-1.579,2.252-1.902,3.224
			v-5C221.089,35.494,224.919,36.045,228.152,35.042z"/>
		<path style="fill:#A9A9A9;" d="M234,30c-0.735,1.657-2.107,3.029-4,3C230.713,31.331,232.12,29.989,234,30z"/>
		<path style="fill:#C2C2C2;" d="M142.915,164.014c-3.022,1.921-1.642,7.968-1.915,10.986h-3c-0.442-2.368-0.163-4.846,0.836-7.435
			L138,167l-0.223-1c-3.045-2.289,3.268-10.949,6.223-8c1.707,1.696,1.28,3.361-1.28,4.996L142.915,164.014z"/>
		<path style="fill:#A8A8A8;" d="M152,161c-0.819-0.233-1.382,0.94-2,1c-2.529,0.244-4.421,2.549-7.085,2.014
			c-0.336-2.56,5.354-7.434,8.009-5.09L152,161z"/>
		<path style="fill:#A8A8A8;" d="M122.969,135.696c-0.618,1.761-1.538,0.765-0.848,0.199c0.231-0.19,2.689,5.23,0.282,5.113
			c-2.392,1.303-3.433-0.014-1.093-0.226c-2.029,4.319-1.466,5.392,1.692,3.219c1.515-1.55,2.162-0.926,1,1
			c2.656,0.195,2.656,0.862,0,2c1.917,1.759,1.493,2.201-1,2c-1.933,0.609-2.6,1.942-2,4c-0.343,1.209-1.229,2.136-2.658,2.781
			c-0.007,2.684-0.788,4.423-2.342,5.219c-0.554-0.374-1.385-0.668-2-1c1.8-1.102,1.281-4.471,0-6c1.319-2.343,2.157-4.393,3-7
			c-2.659-0.126-2.526-1.135,0-2c1.703-4.873,3.994-9.792,3-15c0.301-0.553,0.635-0.539,1,0
			C123.423,130.222,124.729,134.021,122.969,135.696z"/>
		<path style="fill:#9A9A9A;" d="M134,130c2.656,0.319,2.541,1.239,0,2c-0.195,0.422-0.416,0.815-0.73,1.111
			c-0.453,0.427-11.108-2.536-11.88-2.976c0.26-1.287,0.13-1.332-0.39-0.135h-1c-0.319-1.277-1.947-2.507-2-4l1-1
			c4.684,0.804,9.393,1.715,14.126,2.731L134,130z"/>
		<path style="fill:#888888;" d="M117,145c-0.207,0.593,0.144,1.385,0,2c-1.41,2.714-3.896,2.856-5.627,0.341L110.766,145H117z"/>
		<path style="fill:#595959;" d="M19,129l3,2c2.012,0.763,3.312,1.763,3.9,3c-0.404,2.585-0.153,5.87-2.9,7l-6-2
			c-2.888-0.196-3.555-1.196-2-3l1-5C16.524,127.447,17.524,126.78,19,129z"/>
		<path style="fill:#C2C2C2;" d="M19,129c-1.426-0.018-2.063,1.209-3,2c-0.14-1.634,0.287-3.388,0-5
			C17.355,126.577,18.358,127.688,19,129z"/>
		<path style="fill:#C2C2C2;" d="M25.848,131.84c0.89,0.626,0.172,1.4,0.052,2.16c-1.556-0.645-3.148-1.422-3.9-3L25.848,131.84z"/>
		<path style="fill:#C8C8C8;" d="M90,184c-0.722,1.664-2.111,3.017-4,3C87.202,185.798,88.117,184.025,90,184z"/>
		<path style="fill:#CBCBCB;" d="M85,188c-1.195,1.195-2.111,3.027-4,3C81.707,189.329,83.125,187.99,85,188z"/>
		<path style="fill:#454545;" d="M151,152c0.64,0.145,1.187,1,2,1c2.165,0.135,1.923,1.278-0.055,2
			c-0.041,1.492-0.794,3.144-2.021,3.924l-8.009,5.09c-0.404-0.311-0.916,0.012-2.092-0.322c1.727-1.899,2.468-3.672,3.177-5.691
			c1.67-2.482,3.425-4.757,5.368-7.057C150.027,150.162,150.757,150.734,151,152z"/>
		<path style="fill:#B8B8B8;" d="M157,153c-0.961,1.288-2.469,1.93-4.055,2l0.055-2H157z"/>
		<path style="fill:#292929;" d="M220,48v4c1.185-0.28,1.438,1.02,1,2c-0.114,0.915,0.35,2.051-0.271,3.209
			C217.965,55.262,216.01,53.01,214,51c-0.485-1.677-1.281-3.531,0-5c1.326-0.572,2.038-1.99,3-3
			C216.89,45.147,219.101,46.166,220,48z"/>
		<path style="fill:#2F2F2F;" d="M112,96l-6,3l-0.985,0.844c-0.721-1.471-2.059-2.752-4.015-3.844l-3.699-3.238
			c-0.025-0.285,0.061-0.58,0.053-0.867c-0.693-2.7,2.908-6.522,5.646-5.895c0.807-0.346,1.537-0.866,2-1.622
			c2.292-0.497,4.745-1.295,6-3.378C112.026,82,114.141,94.903,112,96z"/>
		<path style="fill:#B2B2B2;" d="M96.073,78.073C96.378,76.378,96.997,74.734,97,73c1.59,1.964,3.58-0.366,6.067,0.406
			C100.458,75.529,97.771,76.002,96.073,78.073z"/>
		<path style="fill:#2C2C2C;" d="M149.961,124.084c4.045,0.544,10.082,9.099,8.039,12.916c-0.057,0.66,0.095,1.344,0,2
			c-1.596,0.66-3.11,2.151-3,4c-1.388,2.926-4.656,1.948-7,1c-1.281,0.6-4.073,0.157-5-1l-4.361,0.81L136,137l-2-5v-2
			c-0.761-4.147,6.595-6.534,10.087-6.953c0.695-0.685,2.5-0.764,3.474-0.965C148.55,121.878,149.44,123.228,149.961,124.084z"/>
		<path style="fill:#595959;" d="M164,116c2.069-0.037,2.042,1.369,1.217,3c-1.64,1.554-1.176,3.388-2.34,6.199
			c-1.897-1.317-2.788-3.069-4.549-3.786c-3.181-1.297-7.405-14.521-11.328-18.412c-1.22-1.753-1.18-2.753,0.121-3
			c0.387-0.239,0.681-0.592,0.879-1c2.032-1.333,3.758-2.991,5.176-4.975C157.144,101.2,160.752,108.525,164,116z"/>
		<path style="fill:#2A2A2A;" d="M158.15,122.352c1.296,2.181,3.315,4.145,5.787,4.808c2.663,0.631-5.206,9.577-5.937,9.841
			c-1.991-4.67-5.398-8.577-8.039-12.916c0.15-0.431-0.354-2,0.353-2.427C152.975,120.051,155.802,121.426,158.15,122.352z"/>
		<path style="fill:#353535;" d="M144.087,123.047c-2.918,2.878-6.901,4.371-10.087,6.953l-12.919-3.123
			c-1.206-0.292-1.916-1.038-2.081-1.877l22.462-2.661C142.669,122.196,144.016,121.684,144.087,123.047z"/>
		<path style="fill:#5E5E5E;" d="M137,106.291c1.975,0.82,4.255,1.4,6,2.709l4,2c0.583-0.006,1.974,0.206,2.236,0.706
			c-0.487,1.051-0.724,2.265-1.343,3.26c-1.26,0.651-2.868,0.402-4.114,0.936c-4.947,0.601-7.54-0.7-7.78-3.903
			c-2.833-0.396-3.671-1.55-2.515-3.462C131.713,104.327,134.601,104.51,137,106.291z"/>
		<path style="fill:#707070;" d="M143.959,119.035c-1.868,2.069-4.734,2.891-8.042,2.874c-11.285-0.058-9.009,3.568-9.954-1.393
			C125.122,116.102,144.183,118,143.959,119.035z"/>
		<path style="fill:#7B7B7B;" d="M136,112c2.632,1.256,5.003,2.989,7.78,3.903c-4.463,1.912-9.403,0.847-14.788,1.061
			c0.629-1.351,0.988-1.967,1.008-2.964c0.37-0.197,0.707-0.693,1-1C132.517,109.497,134.183,109.164,136,112z"/>
		<path style="fill:#7C7C7C;" d="M143.959,119.035c1.247-1.381,2.924-2.44,3.935-4.069c0.763-0.394,2.676-0.915,3.585-0.747
			c1.808,1.184,0.999,3.39,0.629,4.473c-0.676,1.977-7.82,2.083-7.431,2.203C144.082,120.712,144.085,119.615,143.959,119.035z"/>
		<path style="fill:#A2A2A2;" d="M138,175c-1.172,1.057-2.705,1.498-4.173,2c0.169-0.3-0.059-0.819,0.05-1.152
			C133.786,172.608,136.92,171.819,138,175z"/>
		<path style="fill:#454545;" d="M121,153c1.784-0.78,2.784-0.114,3,2c2.774-0.573,6.476,3.244,5.866,6
			c1.433-0.458,1.199,5.084,0.922,5.196c-0.446,0.179-7.807-1.792-8.817-2.327c-2.036-0.715-4.188-1.665-5.971-2.869
			c0.076-1.701-0.413-3.65,0.358-5.649C117.135,153.336,119.346,152.783,121,153z"/>
		<path style="fill:#7A7A7A;" d="M125,168l3,5c2.263-0.639,3.071,1.554,1.152,2.979c-0.239,1.072-0.288,2.31-1.142,3.092L123,176
			c-0.691,0.102-1.435-0.461-2-0.761c-1.39-2.184-1.176-4.867,0.055-7.093C121.268,165.633,123.287,166.894,125,168z"/>
		<path style="fill:#686868;" d="M118.997,172.566c2.207,3.558-10.933,2.244-12.936,2.437c0.027-2.444-0.063-3.985-1.057-6.143
			l12.683,2.461C118.35,171.45,118.803,172.254,118.997,172.566z"/>
		<path style="fill:#686868;" d="M117.433,165.633c1.154-1.108,2.619,0.442,0.638,1.265c-0.309,1.155,1.157,2.2,0.412,3.349
			l-13.572-2.666C113.792,163.934,109.968,162.692,117.433,165.633z"/>
		<path style="fill:#616161;" d="M104,160c0.565-0.824,1.373-1.978,1.856-2.945c2.42,0.931,4.66,2.119,6.703,5.314
			c-2.9,0.599-4.972,3.217-7.807,3.31C102.931,165.738,103.102,161.308,104,160z"/>
		<path style="fill:#545454;" d="M112.161,182.793c-2.495-0.471-5.18-0.511-7.522-2.336c-0.025-1.295,0.266-2.422,0.361-3.457
			C108.322,175.66,111.779,179.443,112.161,182.793z"/>
		<path style="fill:#969696;" d="M132,160c2.402,1.287,2.805,6.226,0.252,7.759l-1.165,1.007c0,0-3.029-1.255-9.087-3.765
			l-0.029-1.131c1.98,0.696,4.585-0.384,7.228,1.562c1.431-1.615,0.549-3.03,0.667-4.43C128.158,158.028,130.785,156.783,132,160z"
			/>
		<path style="fill:#737373;" d="M116.936,176.025c-0.814,1.786-0.987,3.038-2.434,3.141c-1.844,0.132-2.716-1.254-5.234-2.657
			C111.763,175.41,113.961,176.211,116.936,176.025z"/>
		<path style="fill:#656565;" d="M116,184.066c-1.491,0.431-2.615-1.041-3.839-1.272c1.749,0.143,0.346-2.395,1.634-3.072
			C117.052,179.802,115.878,182.345,116,184.066z"/>
		<path style="fill:#555555;" d="M119.906,165.181c2.05,0.208,3.091,1.818,1.15,2.965c-1.042-0.171-1.969-0.972-2.984-1.248
			c-0.072-0.475,0.227-1.59-0.638-1.265c-0.225-0.942,0.129-1.352,0.609-1.17C118.922,164.799,119.348,165.123,119.906,165.181z"/>
		<path style="fill:#DBDBDB;" d="M122,165c2.77,0.635,3.77,1.635,3,3c-1.286-0.105-2.663,0.356-3.945,0.146
			c-0.132-1.071-0.46-2.122-1.15-2.965C120.591,165.252,121.31,164.965,122,165z"/>
		<path style="fill:#4E4E4E;" d="M17,139c2.488,0.541,4.468,1.575,5.94,3.102c1.349,2.248-0.228,5.177-1.94,6.898
			c-1.208-0.306-2.855,0.456-4,0c-3.418-1.463-6.964-2.854-10.084-4.877c0.945-1.976,3.291-2.735,5.084-4.123
			C13.639,137.717,15.306,137.383,17,139z"/>
		<path style="fill:#3A3A3A;" d="M32,139c2.173,1.912,0.374,3.439-2,2c-1.951,1.996-3.625,2.984-5.021,2.963
			c2.144-7.064,3.244-14.853,7.104-21.099c1.84,1.722,2.567,3.148,2.18,4.279l2.467,7.898L32,139z"/>
		<path style="fill:#474747;" d="M45,126l-0.6,0.91l-8.8-1.443c-1.044,1.373-2.216,0.505-3.517-2.602
			C33.494,120.58,44.031,125.003,45,126z"/>
		<path style="fill:#ABABAB;" d="M45,126c1.194-0.053,2.126,0.521,3,1c3.568,0.79,4.902,1.79,4,3l-1.529,1.701l-13.145-3.443
			c1.773,3.292,2.036,5.851,0.787,7.674c1.349,2.704-4.375,5.427-6.113,3.068l3.57-4.341c0.329-4.353-3.237-7.822-3.488-11.795
			C35.543,125.933,40.434,126.204,45,126z"/>
		<path style="fill:#B4B4B4;" d="M30,141c1.536,1.269,0.926,3.059-1.831,5.369c0.783,2.283,0.394,3.827-1.169,4.631
			c-1.698-1.443-1.791-3.913-2-6c-0.031-0.31-0.111-0.741-0.021-1.037C26.801,143.096,27.86,140.927,30,141z"/>
		<path style="fill:#3D3D3D;" d="M54,128c0.109,1.175-0.876,1.956-2,2c-0.78-1.962-3.442-1.24-4-3
			C50.023,127.123,52.053,127.304,54,128z"/>
		<path style="fill:#B5B5B5;" d="M23,141c0.066,0.319-0.21,0.833-0.06,1.102c-1.961-1.215-4.392-1.236-5.94-3.102
			C19.103,138.885,21.531,139.531,23,141z"/>
		<path style="fill:#B1B1B1;" d="M106,99c-0.363,1.669-1.05,3.277-1,5l-3,2c-1.957,0.989-4.29,0.989-7,0
			c-0.959-0.246-1.478-1.354-2-2c3.046-0.35,6.382,0.684,9.722-0.365c1.477-0.464,1.462-3.245,2.072-4.322
			c-2.074-0.853-3.03-1.86-3.794-3.313C103.136,95.99,104.232,98.038,106,99z"/>
		<path style="fill:#CBCBCB;" d="M128.01,179.071c-1.994,0.238-4.048-1.375-5.01-3.071
			C125.589,175.618,126.505,177.917,128.01,179.071z"/>
		<path style="fill:#BCBCBC;" d="M208,104c-1.941,0.056-3.2-1.376-4-3C205.889,100.98,207.269,102.341,208,104z"/>
		<path style="fill:#C4C4C4;" d="M199.89,113.11c-1.655-1.272-1.72-3.209-1.89-5.11C199.643,109.169,200.16,111.153,199.89,113.11z"
			/>
		<path style="fill:#C4C4C4;" d="M190,112c0-1.892,1.539-3.32,3-4C193.076,110.006,191.585,111.132,190,112z"/>
		<path style="fill:#B1B1B1;" d="M92,114c2.857,0.383,5.276-0.184,8-1c2.104,0.326,4.104,1.326,6,3c0.418,0.934,0.76,2.04,1,3
			c-3.315-2.612-7.794-4.231-11-1c-1.721,1.666-2.399,3.968-2.035,6.905L92,126h-7c1.689-2.637,0.23-7.347-2.106-9.673
			c-0.635-2.348-1.962-7.629,1.106-8.327c0.284-0.873,0.618-0.86,1,0c1.734,0.183,2.852,1.734,3.354,4.653
			C89.982,112.605,91.197,113.055,92,114z"/>
		<path style="fill:#515151;" d="M96,118l4.239,11.756c-0.61,0.204-0.991,1.379-1.825,1.34c-2.912-0.138-2.827-2.834-5.251-4.258
			C92.809,126.629,92.464,126,92,126c-0.118-2.788-0.078-5.861,1.461-8.782C93.797,116.58,95.651,117.758,96,118z"/>
		<path style="fill:#C2C2C2;" d="M17,139c-1.324,0.073-3.907,0.154-5,1c0.888-1.394,1.725-2.911,3-4
			C14.985,137.502,16.179,138.01,17,139z"/>
		<path style="fill:#C3C3C3;" d="M15,136c0.019-1.819-0.516-3.721,1-5C16.151,132.764,16.433,134.775,15,136z"/>
		<path style="fill:#565656;" d="M105.799,185.035l0.23,1.965c-1.327,0.586-2.589,1.6-3.03,3h-3c-2.139-0.189-1.578-0.777,0-2
			c0.785-1.163,1.251-2.523,1.094-3.932C102.719,183.23,104.209,184.575,105.799,185.035z"/>
		<path style="fill:#5D5D5D;" d="M105.799,185.035c-0.074-0.635-0.975-1.32-0.637-1.656c0.928-0.92,1.678-0.409,4.267,0.577
			C112.133,185.711,104.799,184.746,105.799,185.035z"/>
		<path style="fill:#D5D5D5;" d="M124,119c-1.879,0.197-3.883-0.41-5-2C120.718,117.22,123.206,117.205,124,119z"/>
		<path style="fill:#393939;" d="M102,106l-2,3c-0.746-0.562-2.093-0.983-3-1c-0.491-0.818-0.95-1.73-2-2
			C96.6,104.289,100.4,104.289,102,106z"/>
		<path style="fill:#323232;" d="M139,145c3.39-1.409,6.39-1.409,9,0c2.955-0.804,7.204-1.621,4,2c-2.547,3.621-5.213,7.287-8,11
			c-3.006,1.646-4.815,5.005-6.223,8c-1.715,0.661-2.285,4.355-4.465,2.908c-1.426,0.708-1.78,0.325-1.06-1.15
			c-0.111-2.621-1.113-5.224-0.252-7.759c-3.132,0.018-3.57-4.352,0-4c-0.07-1.755,0.263-3.088,1-4c-2.539-1.262-1.791-2.85,1-3
			c-0.806-2.326-0.14-3.326,2-3c-1.403-1.611-0.796-2.218,1-1C138.137,143.213,138.803,143.213,139,145z"/>
		<path style="fill:#3D3D3D;" d="M138,175c-1.273,0.444-3.184-0.625-4.123,0.848c-2.398-2.542,2.552-5.132,4.123-8.848
			c0.746-0.147,0.703-1.007,1.579-2.027C140.118,166.835,141.032,173.943,138,175z"/>
		<path style="fill:#525252;" d="M132.252,167.759c0.471,0.161,1.729,0.458,1.06,1.15c-0.178,1.045-0.151,2.342-0.811,3.036
			c-2.873-1.767-4.809-3.725-7.501-3.944c-0.736-1.227-1.94-1.998-3-3C125.577,165.182,128.889,166.607,132.252,167.759z"/>
		<path style="fill:#5B5B5B;" d="M129.152,175.979c-0.434-0.977-0.577-2.02-1.152-2.979c-0.033-0.753-0.23-1.628,0.454-1.886
			c2.156,1.167,3.59,1.754,3.609,3.518c0.02,1.855,0.399,3.729-1.831,4.459C130.107,177.496,129.509,176.784,129.152,175.979z"/>
		<path style="fill:#2B2B2B;" d="M117,147c1.167,1.053,1.346,2.651,0.855,4.247c-0.485,1.575-2.065,2.712-3.855,2.753
			c-0.875-1.044-2.71-1.353-3-3c-1.793-0.422-2.571-0.68-1-2c0.674-0.278,1.108-1.031,1.373-1.659
			C113.233,147.041,115.117,146.949,117,147z"/>
		<path style="fill:#B2B2B2;" d="M111,151c-1.241,0.04-2.966,0.115-4.142,0.051c0.945-0.866,1.971-1.569,3.142-2.051
			C110.177,149.706,110.875,150.288,111,151z"/>
		<path style="fill:#CACACA;" d="M80,84c-0.951,1.191-0.422,2.675,0,4c-1.613-0.754-2.365-2.409-3-4
			C77.941,83.746,79.043,84.193,80,84z"/>
		<path style="fill:#C7C7C7;" d="M30,152c1.223,1.83-0.004,5.161-1,7l-3.921,0.226c2.317-2.395,2.017-5.138,1.921-8.226
			C28.446,148.783,29.876,149.359,30,152z"/>
		<path style="fill:#282828;" d="M135,76l2,5l0.625,4.028c-3.679-0.017-6.864-1.29-7.647-3.616c-0.842-2.5,0.326-4.896,1.937-6.638
			c0.266-0.288,0.744-0.506,0.937-0.837C133.683,74.484,134.221,75.407,135,76z"/>
		<path style="fill:#383838;" d="M53,150l3,5c2.465-1.026,2.798,0.024,1,2l3,5c2.797-0.078,3.7,1.816,2,4
			c0.075,1.27,1.155,2.158,1.014,4.008L52,170l-6.048,0.801L43,168c-0.559-0.531-0.895-1.239-1-2c0.375-1.509,0.126-3.627,1-5
			c-2.429-1.348,2.934-9.277,4.262-10.423c0.868-0.748,1.527-1.09,2.738-0.577C49.4,146.438,52.181,147.752,53,150z"/>
		<path style="fill:#585858;" d="M184,80c0.832,0.192,1.461,0.25,2,1l5,2l5,2c2.719,1.911,2.068,4.605,1.898,8.151
			c-0.139,2.889-2.86,2.97-4.898,4.849l-8,3c-3.048,0.559-5.788,3.104-9,3c-1.469,1.427-2.147-4.245-2.315-6.178
			c-0.023-0.263,0.122-0.54,0.315-0.822c-3.019-0.306-3.001-2.18-1-4c-1.008-7.9-1.512-11.85-1.512-11.85l8.429-3.254
			C181.111,78.732,182.472,79.433,184,80z"/>
		<path style="fill:#373737;" d="M97,108l3,5c0.1,1.584-1.887,3.041-3.627,3.051c-2.038,0.013-4.218,0.433-4.373-2.051
			c-2.758-1.18-0.785-5.56,2-5C94.29,108.276,96.017,107.982,97,108z"/>
		<path style="fill:#575757;" d="M106,116c-2.111-0.845-4.71-0.849-6-3c-0.029-0.463-0.213-1.674,0.477-1.93
			C99.82,111.314,104.782,113.276,106,116z"/>
		<path style="fill:#555555;" d="M49,145c2.612,2.751,2.945,4.418,1,5l-7,11c-5.524,4.776-6.537-0.235-12-1
			c-0.759-0.106-1.389-0.712-2-1c-1.689-2.093-1.08-5.233,1-7c-0.616-3.412,3.909-6.522,7-5l4-3c-0.63-2.448,0.88-3.34,3-2
			C46.419,140.453,48.086,141.453,49,145z"/>
		<path style="fill:#CDCDCD;" d="M100,188v2c-0.651,0.357-1.369,0.607-2,1c-0.514-0.932-0.828-1.952-1-3
			C97.906,188.766,99.101,188.794,100,188z"/>
		<path style="fill:#797979;" d="M222,54h-1c-0.921-0.201-1-1.208-1-2c0.266-0.365,0.793-0.594,1-1
			C222.198,51.277,222.164,52.99,222,54z"/>
		<path style="fill:#ACACAC;" d="M101,96c-1.914,0.009-3.531-1.304-3.699-3.238C98.942,92.437,100.363,94.79,101,96z"/>
		<path style="fill:#C8C8C8;" d="M52.161,106.848C50.05,106.603,49.048,103.916,49,102
			C50.705,102.757,51.925,104.694,52.161,106.848z"/>
		<path style="fill:#484848;" d="M103,86c-1.431,2.309-3.363,4.415-5.646,5.895c-1.914-0.91-2.308-5.797-0.595-6.573
			C98.861,84.37,102.15,84.637,103,86z"/>
		<path style="fill:#454545;" d="M84,108c-0.51,2.169,1.819,6.246-1.106,8.327c-1.576-1.503-4.861-2.626-6.894-3.327
			c-1.661-1.59,0.913-3.083,1-5c1.668-1.995,3.551-3.834,5-6h1C85.351,104.324,85.488,105.183,84,108z"/>
		<path style="fill:#474747;" d="M88,105c-0.306-1.342,0.694-1.342,3,0c1.27,1.142,2.878,2.165,3,4l-2,5
			c-1.492,0.969-4.185,1.511-5.502-0.498c-1.137-1.733-0.84-3.913-1.498-5.502C83.581,104.167,83.914,102.98,88,105z"/>
		<path style="fill:#3C3C3C;" d="M91,105h-3c-2.612,0.418-4.279-0.582-5-3C81.677,96.785,90.139,104.226,91,105z"/>
		<path style="fill:#494949;" d="M67,149c1.478-0.169,1.613,0.351,0.406,1.56c0.755,2.928,1.287,5.741,1.594,8.44
			c0.465,2.066,1.989,9.8-0.706,10.907C65.863,170.907,64.794,169.27,62,166c-0.836-0.979-1.614-2.777-2-4l-3-5
			c-0.12-0.702-0.842-1.304-1-2l-3-5c-1.184-1.221-0.517-1.887,2-2c3.742-1.147,7.33-1.696,10.762-1.647L67,149z"/>
		<path style="fill:#4C4C4C;" d="M75,150c2.269,0.419,3.606,2.941,6,3.136c2.219,0.177,2.886,0.798,2,1.864
			c-0.402,0.187-0.605,0.782-1,1c-0.795,1.634-2.128,2.968-4,4c-0.357,0.07-0.801,0.7-1,1l-5,4c-1.577-1.451-1.483-3.994-2-6
			c-1.074-1.252-3.151-8.247-2.606-9.284C67.58,149.362,74.584,148.876,75,150z"/>
		<path style="fill:#B4B4B4;" d="M75,148v2c-2.087-0.385-4.363,0.224-7.155,0.043c0.595,3.446,1.419,6.1,2.155,8.957h-1
			c-0.743-3.298-2.63-6.471-2-10h1C70.272,149,72.869,148.992,75,148z"/>
		<path style="fill:#636363;" d="M170,59l2,3l3,4c0.858,1.434,1.825,2.807,3,4c1.216,0.532,2.604,8.283,2.261,8.598l-5.1,1.143
			c-2.179,1.892-3.813,2.214-4.903,0.965c-4.442,0.041-8.838-0.106-13.188-0.442c-1.259,1.844-1.854,0.954-2.07-1.264
			c0.002-0.523-0.64-0.812-1-1c-5.303-3.286-5.97-5.619-2-7l4-3l4-3c0.184-0.429,0.646-0.729,0.861-1.139L165,61L170,59z"/>
		<path style="fill:#C0C0C0;" d="M184,80c-3.257-0.75-7.782-1.543-10.489,1.66C171.1,84.514,175.928,93.354,173,93
			c-1.21,0.678-2.29,0.736-2.526-0.585c0.708-7.136-0.738-10.36-4.338-9.674c-2.023,0.557-3.735,0.31-5.136-0.741
			c-0.906,1.267-1.63,1.61-2.905,0.982l-1.758,9.784c2.645,6.773,5.671,13.414,9.077,19.922c0,0-0.471,1.104-1.414,3.313
			l-10.831-20.522c-2.035,1.76-3.157,3.55-5.169,3.522c0.435-2.002,3.342-2.758,4.152-4.776C154.147,89.256,154.979,83.932,155,79
			c3.887,1.472,19.775,2.025,23.795-1.352c0.806-2.708-0.177-5.265-0.795-7.648l1.822,0.995c1.025-2.906,1.28-5.342,3.178-6.995
			c0.424,4.398-5.045,9.716-2.51,13.603C181.282,78.818,183.57,78.67,184,80z"/>
		<path style="fill:#BCBCBC;" d="M152,71l-1.953,2.701c1.721,1.531,3.144,2.672,3.953,4.299c-0.451-0.235-1.775-0.03-2.231-0.703
			c-1.849-2.733-4.733-3.281-6.769-5.293C147.725,73.026,149.56,71.905,152,71z"/>
		<path style="fill:#E0E0E0;" d="M147.121,100L147,103c-1.485-1.472-1.893-1.402-2.171-3.663
			C145.636,99.346,146.414,99.631,147.121,100z"/>
		<path style="fill:#BBBBBB;" d="M175,66c-1.709-0.66-2.91-2.15-3-4C173.708,62.661,174.912,64.149,175,66z"/>
		<path style="fill:#BCBCBC;" d="M156,68c-0.67,2.106-2.263,2.356-4,3C153.044,69.556,154.103,68.013,156,68z"/>
		<path style="fill:#BDBDBD;" d="M165,61c-0.817,1.675-2.108,3.189-4.139,2.861C161.717,62.23,163.369,61.652,165,61z"/>
		<path style="fill:#C1C1C1;" d="M160,65c-0.716,1.671-2.119,2.987-4,3C156.547,66.279,158.244,65.027,160,65z"/>
		<path style="fill:#D2D2D2;" d="M138,104c-0.401,0.73-0.693,1.52-1,2.291c-0.777-0.124-1.561-0.234-2.911-0.039
			c-0.632,2.365,0.584,4.145,1.911,5.748c-1.874-0.894-3.561-0.507-5,1c-0.119-1.741,2.54-3.515,1.893-5.166L131,103
			c1.298,1.087,4.079,3.361,5.802,0.707C137.347,102.82,138.082,103.003,138,104z"/>
		<path style="fill:#DCDCDC;" d="M143,100c-0.694,1.68-2.123,3.004-4,3C139.71,101.324,141.131,100.052,143,100z"/>
		<path style="fill:#A8A8A8;" d="M137,81c-1.657-1.172-2.022-3.062-2-5C136.508,77.148,136.716,79.168,137,81z"/>
		<path style="fill:#DCDCDC;" d="M147,111c-1.237,0.012-2.91-1.182-4-2C144.649,108.798,146.579,109.199,147,111z"/>
		<path style="fill:#C1C1C1;" d="M191,83c-1.829,0.3-3.933-0.516-5-2C187.892,80.915,189.884,81.375,191,83z"/>
		<path style="fill:#C5C5C5;" d="M196,85c-1.895,0-3.88-0.37-5-2C193.277,82.626,194.402,83.877,196,85z"/>
		<path style="fill:#DBDBDB;" d="M151,152c-3.171-0.718-3.22,3.93-7,6c1.459-4.159,4.607-8.211,8-11
			C151.714,149.959,149.245,149.805,151,152z"/>
		<path style="fill:#CACACA;" d="M152,147c0.082-0.845,0.188-1.835-0.615-1.949C150.04,144.86,148.997,145,148,145
			c-0.873-0.284-0.86-0.618,0-1c2.235,0.787,4.98-0.354,7-1C155.132,145.221,153.406,145.845,152,147z"/>
		<path style="fill:#353535;" d="M160,141c-0.469,0.239-0.873,1.156-1.391,1.704c-0.435,0.46-1.957-1.152-1.297-1.787
			c0.477-0.459,0.593-1.263,0.687-1.917c0.691-0.286,1.898-1.474,1.935-0.469C159.958,139.173,160.384,140.804,160,141z"/>
		<path style="fill:#4D4D4D;" d="M52,130c-0.012,1.718-0.583,3.348-1,5c-0.277,1.352-1.28,2.784-2,4c-0.855,3.321-2.522,3.988-5,2
			c-1.499,1.262-2.053,0.708-1-1l-3.934-3.192c-1.285,0.974-1.815,0.423-0.953-0.877c-1.337-3.079-2.804-5.967-3.223-10.088
			C44.393,127.037,45.394,128.555,52,130z"/>
		<path style="fill:#B3B3B3;" d="M68,149h-1c-2.048-2.632-6.446-1.708-12-1c2.459-2.294,6.401-1.217,9.601-2.483
			c1.046-0.955,0.805-3.982,2.399-4.517C66.395,143.971,65.371,146.902,68,149z"/>
		<path style="fill:#B3B3B3;" d="M49,145c-1.398-1.276-3.011-2.858-5-3c-0.873-0.284-0.86-0.618,0-1c1.929,0.255,3.55-0.831,5-2
			C47.921,140.823,48.4,143.148,49,145z"/>
		<path style="fill:#B8B8B8;" d="M55,148c-0.689,0.643-1.419,1.252-2,2c-0.72-0.49-2.411-0.925-3,0c-0.112-1.693-0.476-3.382-1-5
			C51.141,146.954,52.017,148.38,55,148z"/>
		<path style="fill:#B5B5B5;" d="M68,139c0.189-1.697,0.265-3.962,1.809-4.97C70.48,135.909,69.431,137.801,68,139z"/>
		<path style="fill:#C3C3C3;" d="M85,153c-0.445,0.895-1.088,1.576-2,2c-0.634-0.361-1.197-1.798-2-1.864L85,153z"/>
		<path style="fill:#B0B0B0;" d="M77,161c-1.211,1.827-2.591,4.115-5,4C73.056,163.048,74.688,161.108,77,161z"/>
		<path style="fill:#B6B6B6;" d="M82,158c-1.187,0.96-2.493,1.721-4,2c0.881-1.721,2.314-3.071,4-4V158z"/>
		<path style="fill:#B3B3B3;" d="M94,134l-5.238,3.923c-0.309-1.025,0.828-1.447,1.081-2.828c-2.021,0.054-2.774-1.634-3.951-2.172
			C88.51,134.367,92.017,133.326,94,134z"/>
		<path style="fill:#C3C3C3;" d="M176,104c-1.639,2.555-4.558,4.669-6.601,7.34c-1.906,2.491-2.152,5.736-4.182,7.66
			c-0.245-0.971-1.424-1.84-1.217-3c0.993-2.458,1.66-5.009,2.003-7.652L168,107c2.637-1.08,3.973-2.659,4.01-4.738
			c-0.842-2.74-2.09-7.104,1.99-5.262C175.439,99.22,174.151,102.072,176,104z"/>
		<path style="fill:#C1C1C1;" d="M193,98c-2.342,2.159-4.94,2.439-8,3C186.453,98.835,190.826,98.22,193,98z"/>
		<path style="fill:#A3A3A3;" d="M233,44c-2.15-1.53-4.776-3.213-5-6C230.153,39.523,232.767,41.209,233,44z"/>
		<path style="fill:#2C2C2C;" d="M134,132l2,5l2.255,5.061c1.907,1.344,1.489,2.324-1.255,2.939c-0.38,0.038-0.944,0.631-1,1
			c-1.489,1.422-7.576-0.723-7-3c-3.549,1.24-6.826-4.289-6.031-7.304c-1.303-1.603-2.005-3.653-1.969-5.696l-0.718-1.079
			C118.612,126.41,132.069,130.745,134,132z"/>
		<path style="fill:#272727;" d="M134,149c-0.448,0.749-0.487,2.251-1,3c-0.445,1.662-0.863,2.696-2,1c-1.582,3.29-7.346,0.216-6-3
			c-0.972,1.691-1.462,0.633-2-1c0.023-0.756,0.538-1.45,1-2C125.768,143.99,136.469,144.461,134,149z"/>
		<path style="fill:#3E3E3E;" d="M122.969,135.696c1.972,2.426,3.772,5.123,6.031,7.304c3.063,2.75-3.363,3.368-5,2
			c0-0.516-0.533-0.895-1-1c-2.608-0.292-2.693-1.512-0.598-2.992c-0.624-1.799-1.293-3.56-1.47-5.885
			C122.031,134.861,122.441,135.55,122.969,135.696z"/>
		<path style="fill:#414141;" d="M122.402,141.008c0.355,1.023,0.782,1.824,0.598,2.992c-0.154,0.979-0.167,2.034-0.963,2.583
			c-1.332,0.918-2.734,0.532-3.594-0.556c-1.054-1.334,0.995-6.662,2.015-6.887C121.134,138.991,121.572,140.867,122.402,141.008z"
			/>
		<path style="fill:#434343;" d="M123,149c1.491,1.819,0.725,6.024-2,4c-0.721-0.875-2.025-1.355-2.08-2.506
			c-0.051-1.06,0.636-1.889,1.664-2.411C121.312,147.713,122.253,148.818,123,149z"/>
		<path style="fill:#A7A7A7;" d="M136,146c-0.197,1.299-1.395,1.989-2,3c0.001-0.721-0.081-1.528-0.447-2.042
			c-1.212-1.703-8.071-1.215-9.553,0.042v-2l3.454,0.054c0.981,0.015,1.975-0.576,1.546-2.054
			C130.855,144.79,133.507,146.079,136,146z"/>
		<path style="fill:#A3A3A3;" d="M143,143c0.187,1.133-1.146,1.799-4,2c-0.657,0-1.347-0.065-2,0c2.319-3.213-1.14-3.294-1-8
			c1.602,1.101,1.809,3.185,3.006,5.115C139.748,143.313,141.989,143.323,143,143z"/>
		<path style="fill:#7A7A7A;" d="M148,144v1h-9l4-2C145.008,142.358,146.357,143.421,148,144z"/>
		<path style="fill:#A2A2A2;" d="M136,137c-1.625-1.117-2-3.109-2-5C135.665,133.082,136.057,135.103,136,137z"/>
		<path style="fill:#444444;" d="M131,153c1.727-0.449,1.563,1.422,1,3c-1.326,1.052,0.429,2.739,0,4
			c-0.74-0.151-2.052,0.021-2.134,1c-2.378-1.534-4.375-3.614-5.866-6c-1.801-0.937-0.738-5.831,1-5
			C126.622,151.603,128.769,152.612,131,153z"/>
		<path style="fill:#B3B3B3;" d="M125,150c-1.726,0.95-0.869,3.341-1,5c-0.986-0.503-2.234-1.071-3-2
			c1.314,0.172,2.113-0.208,2.078-1.464c-0.026-0.932-0.104-1.708-0.078-2.536C123.803,149.196,124.399,149.406,125,150z"/>
		<path style="fill:#4D4D4D;" d="M38.113,135.932c0.545-0.274,0.751,0.2,0.953,0.877L43,140c0.196,0.404,0.742,0.639,1,1v1
			c-0.741,0.827-1.809,1.869-3,2l-4,3c-2.334,1.645-4.829,3.155-7,5c-0.956-0.273-2.2-0.32-3-1c-0.049-1.59-1.488-4.349-0.522-5.566
			L30,141l2-2L38.113,135.932z"/>
		<path style="fill:#3A3A3A;" d="M90.93,123.92c-1.435,0.15-2.434,0.145-3.691,0.014c-0.481-3.436-2.229-5.513-2.331-9.029
			c2.687,0.53,4.772,1.096,7.149,2.158C91.4,119.551,90.868,121.367,90.93,123.92z"/>
		<path style="fill:#BFBFBF;" d="M88,105c-0.699,0-1.615-0.301-2.336,0.166c-0.875,0.566-0.743,1.896-0.664,2.834h-1
			c0.49-2.082-1.049-3.869-1-6L88,105z"/>
		<path style="fill:#B0B0B0;" d="M132,156c-0.117-1.062-0.414-2.1-1-3l2-1C132.993,153.451,133.275,154.988,132,156z"/>
		<path style="fill:#B0B0B0;" d="M56,155c-1.777-0.969-3.144-2.937-3-5C55.116,150.621,55.561,153.067,56,155z"/>
		<path style="fill:#AFAFAF;" d="M60,162c-2.028-0.787-2.659-3-3-5C59.219,157.731,59.395,160.082,60,162z"/>
		<path style="fill:#5D5D5D;" d="M173,93c1.073,1.125,0.307,2.93,1,4c-3.395,0.653,3.678,6.204-2.838,10.245
			c-0.433,0.268-1.08,1.67-1.651,1.631c-0.59-0.04-0.928-1.614-1.512-1.876c-2.139-2.114-6.902-9.097-3-11l-2-7l-2-7
			c2.507-1.558,6.503-1.614,9.585-0.471C173.174,82.489,170.914,90.813,173,93z"/>
		<path style="fill:#B0B0B0;" d="M41,144c-0.26,2.303-2.702,2.085-4,3C37.659,145.198,39.157,144.203,41,144z"/>
		<path style="fill:#515151;" d="M161,82l2,7l2,7c1.259,8.895,2.804,2.965,3,11c0.081,3.303-0.295,8.435-4,9
			c0.618-3.45-7.945-15.666-9.498-22.129c-0.905-3.768,2.058-8.752,1.609-12.614C157.727,80.429,159.859,81.372,161,82z"/>
		<path style="fill:#B9B9B9;" d="M43,140c-1.942,0.039-3.395-1.385-3.934-3.192C40.937,136.932,42.219,138.389,43,140z"/>
		<path style="fill:#C6C6C6;" d="M163,89c-1.978-1.575-1.877-4.736-2-7C162.93,83.539,162.894,86.654,163,89z"/>
		<path style="fill:#C7C7C7;" d="M165,96c-1.932-1.754-1.889-4.555-2-7C165.088,90.663,164.383,93.972,165,96z"/>
	</g>
</g>
</svg>
