<?xml version="1.0" encoding="iso-8859-1"?>
<!-- Generator: Adobe Illustrator 30.1.0, SVG Export Plug-In . SVG Version: 9.03 Build 0)  -->
<svg version="1.1" id="Layer_1" xmlns="http://www.w3.org/2000/svg" xmlns:xlink="http://www.w3.org/1999/xlink" x="0px" y="0px"
	 viewBox="0 0 91 176" style="enable-background:new 0 0 91 176;" xml:space="preserve">
<g>
	<g>
		<path style="fill:#FCFCFC;" d="M4,0c2.879,2.667,6.606,3.722,11.163,5.179l73.331,116.167c0.819,1.298,1.497,1.703,2.506,1.654v10
			c-1.463,0.197-1.746,1.365-1.913,3.018l-3.585,35.37c-0.164,1.615-0.685,2.713-1.97,2.72c-1.48,0.008-1.627-0.661-2.528-2.288
			L1.695,28.471C0.846,26.935,1.179,25.597,0,25V0H4z M2,7L1.346,9.168c-0.393,1.305-0.025,2.725,0.656,3.898
			C-0.015,14.96,1.434,17.644,2,20c-0.043,0.326,0.065,0.678,0,1c-0.48,2.37,0.031,4.126,1.066,6
			c1.297,2.349,2.223,5.063,4.963,6.181c-0.002,0.853,0.09,1.706,0.134,2.556c0.037,0.716,0.936,1.191,1.026,1.816
			c0.135,0.93,0.873,1.873,0.898,2.777C10.154,42.826,13.103,43.957,14,46c0.997,3.048,1.856,6.722,4.934,8.147
			c-0.318,1.863,1.594,2.901,2.417,4.205c0.642,1.017-0.258,3.448,1.685,3.95c-0.096,0.658-0.245,1.465,0.09,2.057
			c0.502,0.886,1.67,0.954,2.55,0.817l0.753,4.008c0.314,1.672,4.654,10.286,5.646,9.564l1.139,1.307
			c1.053,5.016,3.914,10.249,7.552,13.854c0.298,4.849,4.423,8.178,6.421,12.34c1.068,2.225,1.593,3.836,3.226,5.835
			c1.957,2.396,1.602,7.462,5.394,8.136c-0.326,0.32-0.758,0.938-0.612,1.312c0.304,0.777,1.094,1.097,1.695,1.467
			c0.085,0.3-0.119,0.722,0.013,1c1.132,2.378,1.895,5.409,4.598,6.236c-0.656,2.649,2.011,4.246,2.554,6.635
			c0.101,0.446,0.792,0.701,0.942,1.129c1.319,3.762,3.496,7.308,6.006,10.734c2.142-0.857,3.64-1.703,4.923-2.81L77,145
			c2.163-1.866,7.147-2.13,8.829-5.18c1.936-3.509,1.723-8.602,1.987-12.8c0.092-1.455-3.116-0.88-3.686-0.888
			c-0.079-0.408,0.586-1.211,0.997-1.26c0.616-0.073,1.365,0.587,2.976-0.214c-0.446-2.061-1.707-3.169-2.868-4.255L83.911,118
			c-0.81-1.468-1.201-3.378-2.937-4.055c-1.756-4.708-4.287-9.52-7.974-12.945c-0.995-3.294-3.216-6.076-5-9
			c-0.231-0.379-0.833-0.599-1-1c-0.331-0.795-10.252-18.647-11.937-17.165c0.019-0.555-0.23-1.14-0.16-1.693
			C55.028,71.157,54.65,70.612,54,70c-0.865-0.815-1.703-1.659-2.898-2c0.463-1.523,0.2-2.143-1.142-2.958
			c-0.53-3.095-2.067-6.418-4.827-8.113c-0.314-1.781-1.289-3.328-2.042-4.955C42.896,51.551,42.281,51.291,42,51l-2.281-2.358
			c-0.389-2.154-1.025-3.524-2.654-4.479c-0.532-0.383-1.172-2.313-2.089-1.703l-0.016-0.567c0.833-0.002,1.292-0.541,0.904-1.153
			c-0.292-0.461-1.036-0.582-1.193-0.941C33.751,37.689,32.048,36.036,31,34c-0.529-1.028-1.169-2.23-2-3
			c-0.202-1.872-0.84-3.901-3-4c-0.341-0.834-0.234-2.361-1-3c-1.554-1.296-2.4-3.068-3-5c-0.299-0.961-1.273-1.485-2-2
			c0.004-0.68-0.883-1.415-1-2c-0.397-1.994-2.226-3.336-3-5c-1.222-2.626-3.731-5.509-6.751-3.898
			C8.92,4.103,7.358,3.502,5.583,3.32c-1.091-0.112-2.271-1.435-3.28-1.409c-1.522,0.038-1.43,1.555-1.336,2.646
			C1.043,5.424,0.784,6.829,2,7z M77.982,159.862c0.847,0.579,1.086,2.317,2.049,3.051c-1.309,1.695,0.915,3.39,1.901,5.513
			c0.526,1.132,1.828-0.311,1.972-0.976c0.157-0.723-0.783-1.633-1.036-2.374c1.234-0.193,2.183-1.269,2.174-2.981l-0.051-9.011
			c-1.308-0.384-1.869-0.006-1.992,0.916h-1c0.766-1.226,1.452-2.305,3.72-2.315c0.794-2.74,0.145-5.581,0.153-8.823
			c-11.401,4.808-4.81,6.024-14.102,8.226C74.407,154.272,74.817,157.987,77.982,159.862z"/>
		<path style="fill:#1B1B1B;" d="M78,124c1.144-2.755,1.947-2.7,3,0c3.645,0.309,2.797,2.357,1,5c2.236,2.252-1.9,8.238-5,7
			l-0.524,1.902c-4.12-0.138-8.259-0.482-12.418-1.031c-0.543-2.389-3.21-3.987-2.554-6.635C60.67,128.38,61.334,127.831,63,129l4-3
			c-1.267-1.493-0.694-2.058,1-1l1.112-1.837C71.954,122.941,74.917,123.22,78,124z"/>
		<path style="fill:#282828;" d="M45,94l5,1l5,1.197c3.656-0.257,5.989,0.344,7,1.803c0.873,0.284,0.86,0.618,0,1
			c3.841,1.351-0.927,7-4,6c-0.465,3.492-0.664,7.03-0.596,10.613c-1.523,0.175-3.343-1.22-2.561-2.505
			c-0.388-2.134-1.386-3.762-2.995-4.882c-0.744,2.443-2.297,1.784-4.659-1.976c-1.999-4.162-6.123-7.491-6.421-12.34
			C41.539,92.806,42.95,92.836,45,94z"/>
		<path style="fill:#141414;" d="M67,91c0.184,0.297,0.309,0.568,0.229,0.748c-0.748,1.687-3.046,5.771-4.384,5.784
			C60.185,97.116,59.237,95.939,60,94c-2.515,0.415-7.642-9.763-6.974-10.835C53.292,82.74,53.635,82.363,54,82
			c-2.378-1.726-2.558-2.459-0.541-2.199C54.158,78.073,54.339,76.472,54,75c-1.44-1.567-0.849-2.188,1.063-1.165
			C56.748,72.353,66.669,90.205,67,91z"/>
		<path style="fill:#252525;" d="M77,145c-0.63-1.831-0.806-3.98-0.53-6.448c-2.214-0.38-2.038-1.231,0.53-2.552
			c2-1.687,3.679-5.46,5-7c0.577-2.068,1.287-3.024,2.131-2.869c0.569,0.008,3.777-0.566,3.686,0.888
			c-0.265,4.198-0.051,9.291-1.987,12.8C84.147,142.87,79.163,143.134,77,145z"/>
		<path style="fill:#C9C9C9;" d="M31.832,40.05c1.859,0.262,2.902,0.876,3.129,1.843l0.016,0.567
			c0.629,1.644-0.861,2.452-4.468,2.426C30.884,46.12,30.715,47.492,30,49c1.735-0.111,2.063,1.448,0.984,4.676L31.297,56
			c1.243-1.253,1.652-0.589,0.801,1.008c-1.06,1.349-0.647,2.033,1.076,1.945C34.52,56.844,40.853,55.379,43,57
			c0.331-0.891,0.664-0.891,1,0c2.35,1.638,1.804,2.616-1,2c-0.114-0.786-0.401-0.268-0.861,1.554l-8.341,3.116
			c0.4,1.194-0.448,1.702-1.701,2.216C31.717,67.672,30.397,67.876,30,66c-0.013-2.261-0.013-2.261,0,0
			c0.827,0.126,1.5,0.823,2.018,2.091l1.192,0.726C33.043,70.278,32.973,71.673,33,73c0.909,0.326,0.823,0.712-0.126,1.15
			c1.053,1.8,1.859,3.773-0.798,4.598c-0.991,0.722-5.331-7.892-5.646-9.564c1.825-1.214,0.513-2.936-0.753-4.008
			c-0.88,0.137-2.048,0.069-2.55-0.817c-0.335-0.592-0.187-1.398-0.09-2.057c0.335-0.625,1.032-0.944,2.092-0.958
			c1.57-3.282,1.668-7.228,0.293-11.839l1.476-1.851c-1.5-1.847-1.611-4.787,1.005-5.575c-0.018-2.283,0.333-2.594,2.583-2.22
			C30.775,37.932,31.584,38.078,31.832,40.05z"/>
		<path style="fill:#151515;" d="M76,111c1.511-1.228,3.169-0.247,4.974,2.945c1.736,0.677,2.127,2.587,2.937,4.055
			c1.509,3.278,0.736,10.636-2.911,6c-0.932,0.232-2.1-0.323-3,0c-5.28-0.105-6.902-1.105-4.866-3c-2.671-0.141-2.618-1.069-0.134-2
			c0.385-2.717,0.718-5.384,1-8C73.77,108.978,74.706,109.819,76,111z"/>
		<path style="fill:#8B8B8B;" d="M82,154c-1.013,2.043-2.352,3.997-4.018,5.862c-3.165-1.875-3.575-5.59-6.211-8.774
			c9.292-2.202,2.701-3.418,14.102-8.226c-0.008,3.241,0.641,6.082-0.153,8.823C83.452,151.695,82.766,152.774,82,154z"/>
		<path style="fill:#373737;" d="M26.898,47.654c1.179,2.06,3.06,18.124-1.769,13.69c-1.574,0.27-2.833-0.727-3.777-2.992
			c-0.823-1.304-2.735-2.342-2.417-4.205C18.202,51.889,17.731,47.327,21,49l0.553-2.353C22.631,47.84,24.114,47.958,26,47
			C26.934,46.353,27.233,46.57,26.898,47.654z"/>
		<path style="fill:#121212;" d="M54.903,72.142c-0.07,0.552,0.179,1.138,0.16,1.693C54.602,74.077,54.134,74.476,54,75
			c0.324,1.872,0.011,3.838-0.937,5.897C50.127,79.899,47.106,79.266,44,79l-1.773-0.614c-8.614,0.875-1.433-4.624,2.614-6.559
			C48.383,70.134,51.965,69.063,54.903,72.142z"/>
		<path style="fill:#2F2F2F;" d="M49.961,65.042c1.342,0.815,1.605,1.435,1.142,2.958c1.368,1.381,0.686,1.783-1.102,1
			c-0.719,0.986-2.139,1.753-4.259,2.302l-6.974,4.788l-0.893-1.028C35.7,72.784,36.838,68.608,40,68c-1.584-1.097-1.25-1.764,1-2
			c-2.304-2.391-0.185-6.385,3-4.837C45.486,58.747,47.472,60.041,49.961,65.042z"/>
		<path style="fill:#1A1A1A;" d="M75.929,145.924c-1.283,1.107-2.78,1.953-4.923,2.81C68.496,145.308,66.319,141.762,65,138
			c1.15-0.549,10.979-0.903,11.471-0.582C76.831,137.654,76.528,144.878,75.929,145.924z"/>
		<path style="fill:#BABABA;" d="M25.911,34.976c1.353,0.13,2.393,0.846,3.181,1.955l1.145,1.659
			c-1.192-2.241,1.072-1.466,0.249,1.268c-0.212,1.299-1.255,2.244-2.583,2.22c-1.168,1.363-2.698,1.031-4.59-0.995l-0.383,2.114
			C23.264,44.455,24.288,45.723,26,47c-1.293,1.458-3.394,1.115-5,2c-1.779-0.941-3.713-1.343-5.803-1.207L14,46
			c-0.897-2.043-3.846-3.174-3.913-5.669c1.486-2.153,2.503-1.873,2.787,0.715c2.068,0.592,2.068,0.592,0,0
			c-1.02-1.206-2.248-2.369-3.685-3.491c-0.09-0.625-0.99-1.1-1.026-1.816c0.156-1.35,1.319-2.095,3.489-2.237l9.433,0.58
			c0.223-0.649,0.541-0.667,0.948-0.089c-0.921-2.614,0.077-2.965,2.01-0.982L25.911,34.976z"/>
		<path style="fill:#272727;" d="M68,125c-0.327,0.21-0.696,0.761-1,1l-4,3c-0.533,0.368-1.033,0.782-1.496,1.236
			c-2.703-0.827-3.467-3.859-4.598-6.236c1.173-1.045,2.065-2.15,2.677-3.315l6.515,1.558C70.951,122.463,71.585,123.382,68,125z"/>
		<path style="fill:#828282;" d="M82.869,165.076c-0.804,2.075-2.696-0.47-2.837-2.163c-0.963-0.734-1.203-2.472-2.049-3.051
			c1.437-2.239,3.109-4.193,5.018-5.862c0.123-0.922,0.684-1.299,1.992-0.916l0.051,9.011
			C85.052,163.807,84.103,164.883,82.869,165.076z"/>
		<path style="fill:#BEBEBE;" d="M50,69c1.264-0.115,2.598,0.219,4,1c0.65,0.612,1.028,1.157,0.903,2.142
			c-6.661-3.112-10.971,0.419-16.006,5.367C41.125,78.216,42.842,77.733,44,79l-1.195,1.7c-2.204-0.318-4.146-0.129-5.823,0.567
			c-1.388,2.179-2.901-0.007-2.827-1.808c-2.435-3.027,0.407-4.111,3.719-4.398C42.476,73.95,45.321,69.287,50,69z"/>
		<path style="fill:#292929;" d="M80.974,113.945c-1.83-0.714-3.098-2.321-4.974-2.945c-1.7-0.463-2.507-2.494-2.827-4.173
			c-2.952,0.326-3.76-1.486-2.173-3.827c-1.038-0.709-0.372-1.375,2-2C76.687,104.425,79.218,109.237,80.974,113.945z"/>
		<path style="fill:#212121;" d="M73,101c-1.233,1.181-2.786,1.208-4,0c-2.019,2.912-5.082,1.36-4-2c-2.437-0.47,0.979-7.08,3-7
			C69.784,94.924,72.005,97.706,73,101z"/>
		<path style="fill:#282828;" d="M36.982,81.268C40.089,80.576,40.911,82.615,38,84l2,5c2.798-0.658,3.272,0.264,1,2
			c1.455,1.882,1.377,2.852-0.232,2.909c-3.638-3.605-6.499-8.839-7.552-13.854c-0.636-1.256-0.101-1.584,0.94-0.596
			C35.325,79.394,35.789,80.844,36.982,81.268z"/>
		<path style="fill:#202020;" d="M8,26c1.223-1.41,2.219-1.383,1.836,0.379c1.977-0.084,2.413,0.741,1.308,2.477
			C12.8,29.939,12.418,31.094,10,32.32c0.952,1.981-0.752,2.71-1.971,0.861C5.288,32.063,4.362,29.349,3.066,27
			C1.204,21.191,4.961,22.628,8,26z"/>
		<path style="fill:#B4B4B4;" d="M73.134,121c-0.173,1.398,1.041,2.108,2.786,2.112c1.047,0.002,1.972,0.145,2.08,0.888
			c-3.359,1.207-6.926-0.973-10,1c-0.093-0.634,1.149-1.202,0.894-1.605c0.162,0.257-8.065-3.051-11.989,0.605
			c-0.132-0.278,0.071-0.7-0.013-1l-1.083-2.78c-1.364-2.473-0.28-3.529,2.191-2.22l2.142-0.886l5.515,2.54
			C68.773,119.455,71.265,119.904,73.134,121z"/>
		<path style="fill:#AEAEAE;" d="M58,118c-1.851,0.015-2.776,0.023-2.776,0.023l-4.809-5.939c-1.633-1.999-2.157-3.61-3.226-5.835
			c1.194,0.746,3.099,2.629,4.659,1.976c2.075,1.294,3.074,2.921,2.995,4.882c0.33,0.159,0.456,0.716,0.63,0.935
			c0.366,0.46,1.511,1.548,1.494,0.136c-0.036-3.008,1.068-5.938-1.9-7.755c0.848-0.773,1.975-0.774,2.932-1.423
			c2.893,0.418,2.443,9.011,2,11.648L58,118z"/>
		<path style="fill:#4F4F4F;" d="M21,49c-1.246-1.346,0.613,5.205-2.066,5.147C15.856,52.722,14.997,49.048,14,46l3.998-0.035
			c1.166-0.01,2.021,0.258,2.557,0.99C20.919,47.452,20.999,48.276,21,49z"/>
		<path style="fill:#333333;" d="M21.084,34.081c-3.91,2.313-8.661,0.507-12.921,1.656c-0.044-0.851-0.136-1.704-0.134-2.556
			C8.851,33.287,9.373,32.656,10,32.32l1.615-2.027C16.257,30.53,19.413,31.793,21.084,34.081z"/>
		<path style="fill:#2D2D2D;" d="M22,19c0.6,1.932,1.446,3.704,3,5c0.171,2.34-0.963,2.94-3,2l-1.691,4.433
			c0.144,3.17-3.584,1.037-2.038-0.681c-1.905-3.645,0.132-8.056,2.067-11.448C20.601,17.843,21.629,18.332,22,19z"/>
		<path style="fill:#282828;" d="M16,10c0.774,1.664,2.603,3.006,3,5c0.214,0.423,0.325,1.154-0.005,1.296
			C17.066,17.124,11.808,17.959,13,15c-2.568,1.112-3.046-0.174-1-2c-0.962-1.092-1.591-2.609,0-3C13.004,7.664,14.405,8.393,16,10z
			"/>
		<path style="fill:#222222;" d="M25,24c0.766,0.639,0.659,2.166,1,3c1.433,1.831,0.78,3.835-1.959,6.01
			c-0.69,0.274-1.411,0.519-2.01,0.982c-3.803-2.226-4.381-3.411-1.733-3.556L22,26C22.167,24.922,24.133,24.064,25,24z"/>
		<path style="fill:#B8B8B8;" d="M9.249,6.102c2.342,1.847,1.836,3.204-1.139,3.089c-0.13,2.058-2.424,3.812-4.396,3.974
			c-0.471,1.899-1.272,1.829-1.711-0.1c-0.681-1.172-1.049-2.593-0.656-3.898c1.89-0.941,3.063-2.334,3.52-4.178
			C3.158,3.726,3.49,2.951,5.583,3.32C7.358,3.502,8.92,4.103,9.249,6.102z"/>
		<path style="fill:#323232;" d="M34.976,42.459c0.917-0.61,1.557,1.321,2.089,1.703C39.073,46.6,37.409,48.133,35,46
			c-1.912,0.139-3.245,0.805-4,2c1.325,1.405,0.767,1.92-1,1c-0.414-1.361-2.258-4.289-0.373-5.54
			C30.917,42.942,33.552,43.416,34.976,42.459z"/>
		<path style="fill:#252525;" d="M42,51c0.43,2.946-3.505,2.13-3.911-0.089c-1.852,1.691-1.988,1.624-2.089-0.89
			c-1.915,0.36-1.886-1.482-1-3.021c-0.873-0.284-0.86-0.618,0-1c0.94-0.154,1.916-0.899,2.066-1.837
			c1.628,0.955,2.264,2.324,2.654,4.479L42,51z"/>
		<path style="fill:#3E3E3E;" d="M16,10c-1.332,0.141-2.668,0.117-4,0c0.087,1.982-1.261,1.658-2,0
			c-0.278,3.266-3.32,2.177-1.89-0.808c0.457-1,0.877-2.02,1.139-3.089C12.269,4.491,14.778,7.374,16,10z"/>
		<path style="fill:#666666;" d="M49.961,65.042c-2.114-1.261-3.372-3.761-5.961-3.879c-2.899,1.969-4.225-0.726-1-2.163
			c0.359-0.639,1.018-1.16,1-2c-0.337-1.828,0.308-1.784,1.134-0.071C47.894,58.624,49.431,61.947,49.961,65.042z"/>
		<path style="fill:#1E1E1E;" d="M58,118c-0.653,0.815-1.448,1.492-2.191,2.22c-3.792-0.674-3.438-5.74-5.394-8.136
			C53.271,113.548,55.494,115.977,58,118z"/>
		<path style="fill:#434343;" d="M31,34c1.086,2.831,1.382,4.486-1.908,2.932c-1.342,0.028-2.151,1.351-4.171,0.987
			c0.684-1.163,1.187-1.94,0.99-2.942c-1.475-1.36,0.233-2.88,1.982-2.927C26.706,30.517,27.287,30.007,29,31
			C29.831,31.77,30.471,32.972,31,34z"/>
		<path style="fill:#A9A9A9;" d="M77,145l-1.071,0.924l0.012-7.893L65,138c-0.15-0.428-0.841-0.682-0.942-1.129
			c4.343-0.211,8.981,1.138,12.942-0.871V145z"/>
		<path style="fill:#8E8E8E;" d="M34.672,39.798c0.62,1.581-1.635,0.994-2.84,0.252c-0.445,0.039-0.904-0.166-1.346-0.192
			L28.2,38.502c-0.338-0.201,0.582-1.273,0.891-1.57C29.935,36.123,30.942,35.29,31,34C32.048,36.036,33.751,37.689,34.672,39.798z"
			/>
		<path style="fill:#878787;" d="M19,15c0.117,0.585,1.004,1.32,1,2l-1.723,1.935C16.26,18.769,14.834,19.79,14,22
			c0.3,2.059-0.102,3.796-1.207,5.212C9.066,27.58,8.135,25.51,10,21c-1.689-2.894,1.15-1.321,0.99-1.242
			C9.684,20.4,9.054,19.399,10,18c0.556-1.538,1.335-2.65,3-3C14.903,15.773,17.789,17.125,19,15z"/>
		<path style="fill:#323232;" d="M32.874,74.15c1.05-0.52,2.742-0.44,3.126,0.85c1.064-2.078,1.174-2.096,1.874,0.061
			c-1.563,0.377-2.895,3.29-3.719,4.398c-0.208,0.303-0.322,1.109-0.94,0.596l-1.139-1.307
			C32.373,77.093,30.754,74.649,32.874,74.15z"/>
		<path style="fill:#888888;" d="M10,21c0.48,1.388-0.186,3.055-2,5c-1.382-0.315-2.415-1.201-4.229-2.002
			C2.757,23.804,2.915,26.322,3.066,27C2.031,25.126,1.52,23.37,2,21c0.284-0.873,0.618-0.86,1,0C6.726,19.027,9.06,19.027,10,21z"
			/>
		<path style="fill:#CCCCCC;" d="M29,31l-1.108,1.05c-1.517,1.211-2.801,1.531-3.851,0.96C24.043,31.358,24.473,28.174,26,27
			C28.16,27.099,28.798,29.128,29,31z"/>
		<path style="fill:#7F7F7F;" d="M22,19c-1.917-1.654-5.971,9.913-2.255,12.127C20.215,28.735,20.378,26.909,22,26
			c-0.267,1.727-0.257,3.528-1.834,5.265l1.866,2.727c-0.22,0.171-0.703-0.055-0.948,0.089C18.017,31.707,13.52,30.434,10,32.32
			c0.476-1.122,0.855-2.281,1.144-3.465c1.109-1.191,2.398-1.206,3.866-0.045C14.318,27.087,14.064,26.039,16,25
			c-0.497-2.851,0.675-7.718,4-8C20.727,17.515,21.701,18.039,22,19z"/>
		<path style="fill:#848484;" d="M85.236,120.402c1.547,2.314,1.511,3.804-0.108,4.47c-0.412,0.049-1.076,0.851-0.997,1.26
			c0.214,1.112-1.513,2.148-2.131,2.869c1.32-1.787-0.311-3.158-1-5c0.809,0.031,1.65,0.195,2.885-0.157
			c0.359-2.225,0.065-4.024,0.026-5.843L85.236,120.402z"/>
		<path style="fill:#373737;" d="M5.583,3.32C5.178,3.793,4.933,4.371,4.866,4.99C5.529,6.945,3.598,8.71,2,7
			C0.784,6.829,1.043,5.424,0.967,4.556C0.873,3.465,0.781,1.949,2.303,1.911C3.312,1.885,4.492,3.208,5.583,3.32z"/>
		<path style="fill:#232323;" d="M3.714,13.165C6.274,13.287,6.203,13.753,4,15c1.383,0.913-0.558,4.292-2,5
			c-0.566-2.356-2.015-5.04,0.003-6.934L3.714,13.165z"/>
		<path style="fill:#212121;" d="M1.346,9.168L2,7c0.986-0.631,1.848-1.437,2.866-2.01c1.356,1.171,1.348,2.752-0.274,4.095
			C3.792,9.747,2.474,10.134,1.346,9.168z"/>
		<path style="fill:#828282;" d="M82.869,165.076c0.253,0.741,1.193,1.652,1.036,2.374c-0.144,0.666-1.447,2.108-1.972,0.976
			c-0.986-2.123-3.21-3.819-1.901-5.513L82.869,165.076z"/>
		<path style="fill:#565656;" d="M26.43,69.184l-0.753-4.008c0.476-0.074,1.293-0.841,1.645-0.532
			c0.259,0.227,2.006,4.426,1.202,5.344C27.57,71.077,29.587,70.76,26.43,69.184z"/>
		<path style="fill:#858585;" d="M68,92c-1.969,1.739-2.988,4.392-3,7c-0.064,2.86-2.324,2.733-3,0v-1
			c-0.187-0.882,0.102-1.025,0.845-0.467C64.678,95.623,64.94,92.709,67,91C67.167,91.401,67.769,91.621,68,92z"/>
		<path style="fill:#272727;" d="M12.874,41.045c-0.954-0.132-1.89-0.363-2.787-0.715c-0.024-0.904-0.763-1.847-0.898-2.777
			c0.391-0.961,2.624-0.876,3.412-0.392C13.708,37.842,12.814,40.047,12.874,41.045z"/>
		<path style="fill:#4F4F4F;" d="M25.129,61.344c0.395,0.6,0.415,1.288-0.008,1.334c-0.782,0.085-1.721-0.232-2.084-0.376
			c-1.943-0.502-1.043-2.933-1.685-3.95C23.014,58.705,24.114,60.06,25.129,61.344z"/>
		<path style="fill:#1C1C1C;" d="M85.129,124.871c-0.057-1.491-0.031-2.984,0.108-4.47c1.161,1.086,2.422,2.195,2.868,4.255
			C86.493,125.458,85.745,124.799,85.129,124.871z"/>
		<path style="fill:#747474;" d="M7,17c-0.696,3.026-2.029,4.359-4,4H2c0.065-0.322-0.043-0.674,0-1c1.167-1.456,1.215-3.372,2-5
			C6.575,13.252,7.623,13.95,7,17z"/>
		<path style="fill:#2A2A2A;" d="M45.134,56.929L44,57c-0.324,0.02-0.684-0.072-1,0c-2.54,0.491-2.706-0.035-1-2
			c-2.587-2.463-2.223-3.472,1.092-3.026C43.845,53.601,44.819,55.148,45.134,56.929z"/>
		<path style="fill:#969696;" d="M42,51c0.281,0.291,0.896,0.551,1.092,0.974C41.779,52.223,41.814,53.922,42,55
			c-0.284,0.873-0.618,0.86-1,0c-0.774-0.718-1.774-1.052-3-1c-2.863-0.157-2.662-2.467,0.089-3.089
			C39.204,52.016,40.832,52.054,42,51z"/>
		<path style="fill:#D5D5D5;" d="M83,154c-1.637,1.993-2.402,5.081-5.018,5.862c-0.358-2.629,2.859-4.007,4.018-5.862H83z"/>
		<path style="fill:#222222;" d="M56.892,123c-0.601-0.37-1.391-0.69-1.695-1.467c-0.146-0.375,0.285-0.992,0.612-1.312
			c0.867,0.154,3.063-1.091,3.207,0.763C59.112,122.212,57.255,122.368,56.892,123z"/>
		<path style="fill:#585858;" d="M34.672,39.798c0.157,0.36,0.9,0.48,1.193,0.941c0.388,0.613-0.071,1.152-0.904,1.153
			c-0.994-0.597-2.932-0.483-3.129-1.843L34.672,39.798z"/>
		<path style="fill:#373737;" d="M54,70c-1.353-0.04-3.347,0.52-4-1c0.498-0.031,0.89-0.62,1.102-1
			C52.297,68.341,53.135,69.185,54,70z"/>
		<path style="fill:#868686;" d="M67,126c-0.674,1.624-2.151,2.955-4,3C63.694,127.32,65.123,125.996,67,126z"/>
		<path style="fill:#151515;" d="M65,99c0.983,1.196,2.444,2,4,2c1.697,0.36,2.364,1.026,2,2c1.074,1.052,1.349,2.614,2.173,3.827
			c0.975,1.839,1.25,3.23,0.827,4.173c-0.324,2.61-0.657,5.276-1,8l0.134,2c-5.12,2.251-10.981,0.353-15.134-3v-13
			c1.055-2.345,4-3.338,4-6H65z"/>
		<path style="fill:#282828;" d="M54.843,113.108c-1.116-0.538-2.017-1.215-3.005-2.399c-0.5-0.599-1.037-1.615,0.01-2.483
			c1.515-0.787,2.481-1.286,3.359,0.247C56.189,110.189,56.707,112.492,54.843,113.108z"/>
		<path style="fill:#939393;" d="M62.845,97.533C62.633,97.754,62.243,97.813,62,98c-2.172-0.773-5.187-0.201-7-1.803l0.758-2.107
			c1.99,0.049,3.405,0.019,4.242-0.09C60.567,95.23,62.534,96.048,62.845,97.533z"/>
		<path style="fill:#9F9F9F;" d="M45,94c-1.406,0.074-2.831-0.002-4.232-0.091C40.69,92.929,40.952,91.972,41,91
			C43.279,89.681,46.476,91.215,45,94z"/>
		<path style="fill:#939393;" d="M50,95c-1.73-0.572-3.665,0.804-5-1C45.947,90.571,50.821,91.391,50,95z"/>
		<path style="fill:#969696;" d="M55,96.197c-2.002,0.244-3.409-0.671-5-1.197C50.694,91.335,55.597,92.436,55,96.197z"/>
		<path style="fill:#252525;" d="M44,79l8.26,1.554C53.2,78.648,53.78,79.13,54,82c1.567,4.255,4.915,7.606,6,12
			c0.014,0.259,0.311,1.55-0.272,1.621L55,96.197c-1.425-1.26-2.927-1.652-5-1.197c-1.336-1.333-3.253-1.092-5-1
			c-0.949-1.282-3.235-1.45-4-3c-0.301-0.609-0.297-1.621-1-2l-2-5c-0.017-0.736-0.324-2.486-1.018-2.732
			c-0.226-0.61-0.552-2.58,1.045-2.503C39.956,78.857,42.635,78.316,44,79z"/>
		<path style="fill:#828282;" d="M54,82c-3.104-1.974-6.813-1.403-10-3c2.875-0.197,5.74-0.114,8.693,1.122L54,75
			C56.308,74.519,53.365,80.464,54,82z"/>
		<path style="fill:#404040;" d="M43,59c-0.402,0.715,0.126,2.123,1,2.163c-1.686,1.057-2.027,3.153-3,4.837
			c-0.878,0.823-2.303,0.942-4.277,0.358c-2.257,0.551-3.8,0.394-4.627-0.472c-0.115-1.047-0.77-3.187,0.852-3.923
			C32.232,62.288,46.723,56.077,43,59z"/>
		<path style="fill:#333333;" d="M27.903,42.079c-0.006,1.906,0.483,4.168-1.005,5.575C26.694,47.298,26.463,47.018,26,47
			c-1.243-0.048-3.988,0.543-4.659-1.241c-1.071-2.851,0.181-5.971,1.298-8.436C24.89,38.987,25.901,41.001,27.903,42.079z"/>
		<path style="fill:#444444;" d="M40,68c-0.685,2.354-1.225,4.771-2.126,7.061C37.566,75.72,36.483,75.103,36,75
			c-1.031-0.557-2.031-1.224-3-2c-1.027,0.002-1.961-0.5-1.96-1.449c0.001-1.294,0.755-2.334,0.977-3.461
			C32.876,65.724,39.741,65.469,40,68z"/>
		<path style="fill:#707070;" d="M35,47c0.548,0.924,0.882,1.953,1,3.021c-0.856,3.332-0.839,4.529,0.05,3.591L38,55
			c0.531-1.18,2.667-1.578,3,0h1c0.124,0.718,0.783,1.31,1,2c-3.11,0.712-6.718,1.977-9.827,1.953
			c-2.565,0.801-2.94-0.031-1.076-1.945C31.932,56.71,31.61,56.122,31.297,56c-0.847-2.561,0.02-6.925,1.703-9
			C33.212,46.141,34.438,46.3,35,47z"/>
		<path style="fill:#141414;" d="M31.297,56c-2.672-1.038-0.736-5.156-1.297-7l1-1c0.159-0.998,1.105-1.715,2-1
			C34.637,47.646,31.684,54.408,31.297,56z"/>
		<path style="fill:#171717;" d="M32.097,57.008l1.076,1.945c-0.631,0.987-2.808,4.367-3.987,2.393
			c-0.693-1.161-0.18-2.899-0.06-3.548C29.332,56.68,31.132,56.896,32.097,57.008z"/>
		<path style="fill:#7A7A7A;" d="M36,75c-0.973-0.208-2.618,0.295-3.126-0.85c0.087-0.377,0.13-0.762,0.126-1.15
			c0.707-0.062,1.491-0.151,2.353,0.127C36.033,73.346,36.186,74.236,36,75z"/>
		<path style="fill:#323232;" d="M30,66c-1.131,0.073-0.932-0.769-1.054-1.502c-0.146-0.875,0.402-2.151,1.62-1.291
			C32.174,64.341,30.283,65.262,30,66z"/>
		<path style="fill:#4B4B4B;" d="M32.096,65.886c2.555,0.381,1.967,0.921-0.079,2.205c-0.652,0.342-1.982,1.245-1.975,0.377
			C30.049,67.521,29.784,66.561,30,66C30.691,65.955,31.405,65.877,32.096,65.886z"/>
		<path style="fill:#878787;" d="M73,119l0.02-7.017c0.002-0.771,0.475-1.12,0.98-0.983C74.01,113.711,74.722,116.824,73,119z"/>
		<path style="fill:#868686;" d="M76,111c-0.603-0.201-1.384,0.168-2,0c-0.005-1.264-1.65-2.687-0.827-4.173
			C74.117,108.214,75.187,109.523,76,111z"/>
		<path style="fill:#A0A0A0;" d="M41,66c-0.303,0.525-0.838,1.444-1,2c-1.996-2.091-5.629-1.144-7.982,0.091
			c0.125-0.634,0.149-1.563,0.079-2.205L41,66z"/>
		<path style="fill:#313131;" d="M12.874,41.045c1.809-1.115,0.754-3.895,2.589-4.217c1.835-0.322,3.322-0.824,5.213-0.144
			c-0.042,2.839-0.565,5.717-1.065,8.34C15.606,45.59,13.048,43.96,12.874,41.045z"/>
		<path style="fill:#505050;" d="M27.892,32.05c-0.83,0.787-1.292,1.97-1.982,2.927l-1.426,0.93
			c-0.555,0.362-1.011-0.699-0.859-1.049c0.188-0.431,0.415-1.472,0.415-1.848C25.321,32.502,26.877,30.399,27.892,32.05z"/>
		<path style="fill:#A6A6A6;" d="M73,101c-0.032,1.193-1.435,1.231-2,2c-0.89-0.409-1.636-1.08-2-2H73z"/>
		<path style="fill:#8A8A8A;" d="M40,89c-1.688-0.91-1.962-3.396-2-5C39.714,85.027,40.035,87.125,40,89z"/>
		<path style="fill:#1A1A1A;" d="M14,22c2.543-1.397,3.758,0.809,2,3c0.006,1.523,1.453,3.425,2.121,5.275
			c-1.971,1.951-5.121-0.124-6.976-1.419C10.083,28.115,9.163,26.54,8,26c-0.462-0.998-1.273-1.693-2.067-2.671
			C7.661,22.216,9.615,22.758,10,21c0.485,0.009,1.409,0.127,1.535,0.552c0.202,0.684-0.366,1.517-0.627,2.511
			c-1.396,1.613-0.334,2.733,1.14,1.458C11.758,23.148,12.646,21.989,14,22z"/>
		<path style="fill:#101010;" d="M8.11,9.192C7.97,10.159,9.374,9.912,10,10c0.908,0.309,1.575,1.309,2,3l1,2
			c0.065,0.747,0.098,1.607-0.243,2.295C12.256,18.303,10.95,18.159,10,18c-1.145,2.603-4.082,2.131-3-1
			c-0.801-0.928-1.839-1.613-3-2c-0.147-0.583-0.377-1.221-0.286-1.835C4.048,10.909,5.764,9.076,8.11,9.192z"/>
		<path style="fill:#7E7E7E;" d="M12,10v3c-1.297-0.449-2.067-1.635-2-3C10.656,10.092,11.34,9.942,12,10z"/>
		<path style="fill:#C9C9C9;" d="M35,46v1h-2l-2,1c-0.398-1.33,0.402-1.976,1.474-2.063C33.378,45.863,34.184,46.134,35,46z"/>
		<path style="fill:#202020;" d="M36,50.021c0.747,0.114,1.537,0.342,2.089,0.89L38,54c0.873,0.284,0.86,0.618,0,1
			c-0.91,0-2.568,1.808-4.172,0.877C32.238,54.954,33.628,49.655,36,50.021z"/>
		<path style="fill:#0F0F0F;" d="M20,17c-1.702,2.822-1.498,7.453-4,8c-0.241-1.066-1.624-1.953-2-3
			c-0.448-0.731-0.862-1.664-0.717-2.372C13.88,16.71,17.771,16.852,20,17z"/>
		<path style="fill:#232323;" d="M7,17c0.761,0.882,1.908,1.001,3,1c0.252,0.628,0.834,0.957,1.492,1.079
			C13.229,19.401,10.444,19.908,10,21c-4.371-0.568-5.268,4.126-7,0c0.835-0.539,0.789-1.624,1.109-2.933
			C4.476,16.562,6.086,16.843,7,17z"/>
		<path style="fill:#3D3D3D;" d="M41,55h-3v-1c0.682-0.345,1.588-1.307,2.485-0.982C41.307,53.317,41.009,54.451,41,55z"/>
	</g>
</g>
</svg>
