<?xml version="1.0" encoding="iso-8859-1"?>
<!-- Generator: Adobe Illustrator 30.1.0, SVG Export Plug-In . SVG Version: 9.03 Build 0)  -->
<svg version="1.1" id="Layer_1" xmlns="http://www.w3.org/2000/svg" xmlns:xlink="http://www.w3.org/1999/xlink" x="0px" y="0px"
	 viewBox="0 0 121 71" style="enable-background:new 0 0 121 71;" xml:space="preserve">
<g>
	<g>
		<path style="fill:#F9F9F9;" d="M87,0l10.833,22.157l12.972,26.97l7.802,16.303c0.562,1.175,1.41,1.713,2.393,1.571v4H82
			c-27.354-0.339-54.688-0.672-82-1v-3L84,0H87z M86.055,8.801c-0.328-0.042-0.702,0.115-1.034,0.091
			c-0.974-0.478-1.636-1.199-2.756-1.961C80.537,10.325,78.519,12.861,78,16c-0.098,0.591-0.123,1.414,0,2
			c0.26,1.239-0.389,2.809,0,4c1.003,3.072,1.224,6.182,0.937,9.892C81.042,32.15,82.512,32.025,84,32
			c0.076,1.001-0.143,2.004-0.129,3c-0.584-0.852-1.008-1.588-1.7-1.817c-0.963-0.32-3.083-0.462-2.849,0.234
			C80.679,37.46,79.255,40.757,81,44c1.38,2.564,1.24,5.709,4.157,7.307c1.387,0.759,1.718,3.929,3.974,3.436
			c0.241,0.452,0.607,1.311,1.248,1.057c0.871-0.344,1.379-1.146,1.897-1.842l0.751,0.312c-0.775,1.312-1.539,2.643-2.021,4.094
			c-0.198,0.596-0.398,1.193-0.874,1.635c-0.348-1.282-1.444-2.189-2.802-2.114c0.592-0.677,0.61-1.51,0.251-2.068
			c-0.671-1.041-1.596-1.444-2.506-1.873c-0.301-0.213-0.846-0.675-1.032-0.987C83.614,52.235,81.787,51.335,81,52v-1
			c1.236-0.698,0.776-2.07,0-3c-0.302-0.362-0.672-0.663-1-1c0.274-1.762-1.029-2.266-2.477-2.1C76.3,45.041,75.065,45.319,74,46h-2
			l-1.147,0.197c-1.623,0.279-3.666-0.031-5.055,1.06c-1.416,1.112-3.003,0.014-4.798,0.627c-1.255,0.428-2.627,0.599-3.168,2.058
			l-0.625-0.142C57.919,47.941,58.346,45.529,56,45c0.071-0.861-0.369-1.864-1.089-0.913c0.013-0.535,0.125-1.593,0.908-1.701
			c0.468-0.064,1.197,0.241,1.774-0.129c0.123,1.065,1.121,1.936,1.77,2.866c0.717,1.028,1.958,0.25,2.863-0.111
			C64.584,46.183,67.513,44.694,70,45c1.334,0.164,1.947-0.97,3-1l5.95-0.169C79.106,40.746,79.172,37.602,78,35
			c-0.643-1.428-0.173-1.639,0-3c0.569-4.493-1.123-8.937-1.567-14.138L70,20c-1.427-2.409-4.81,0.137-6.071,1.806
			c-0.305-0.022-0.635,0.133-0.934,0.079c-2.568-0.467-4.827,1.317-7.124,2.744c2.239,0.757,3.675,0.257,5.223,0.566
			c-1.743,1.399-4.138,0.759-6.087,1.713c-0.824,0.403-1.293,0.739-2.018,1.257c-2.467,1.762-2.415,5.039-3.058,7.862
			c-2.444-1.817-4.447-1.192-6.721,0.043c-1.956,1.063-4.308,1.354-5.168,4.018c-0.529-0.695-1.132-0.248-1.629-0.028
			c-0.692,0.307-0.71,1.332-1.187,1.577c-0.73,0.374-1.253,1.129-1.919,1.522c-2.683,1.585-5.232,3.526-7.339,5.832l0.021,0.871
			c-0.709-0.043-1.508,0.015-2.11,0.513c-0.762,0.631-0.816,1.753-0.727,2.715c-0.2,0.505-0.766,0.709-1.094,1.079
			c0.099-0.382-0.062-1.93-0.816-1.575c-2.183,1.026-3.705,2.731-4.935,4.404c-0.503,0.488-1.601,0.569-2.184,0.783
			c-1.018,0.373-1.725,1.56-0.779,3.315c1.041-0.941,1.816-1.882,2.971-2.331C17.352,60.439,19.114,60.988,21,61
			c1.323,0.009,2.681-0.098,4,0c2.743,0.204,5.481-0.2,8.21-0.21c2.821-0.011,5.646,0.466,8.467-0.003
			C42.806,60.6,44.046,60.817,45,60c0.424,0.608,0.614,1.368,1,2h-1h-7h-1h-3l-2.835,0.155C30.375,62.198,29.591,62.476,29,63l-2-1
			c-1.455,0.657-3.076,0.964-4.315,2c-0.515-1.54-2.01-2.194-3.551-1.84c-0.392,0.09-0.894,0.006-1.297-0.021
			c-1.525-0.103-3.226,0.628-4.643,0.126l-2.718-0.963C10.302,61.24-1.704,68.504,5,67.273c0.38,0.541,0.836,1.525,1.492,1.417
			C7.641,68.5,8.522,67.768,9,67c0.977,0.447,2.068,1.245,3,0.328h1c0.529,0.557,1.374,0.454,2,0.761C17.184,69.159,19.62,69,22,69
			h6c2.408,0,4.811-0.268,7.202-0.218l3.622,0.076l1.218-0.205c0.268-0.045,0.567,0.032,0.84,0.066C41.917,68.845,42.955,69,44,69h2
			c1.395,0,2.789-0.291,4-1c1.338,1.309,3.257,1.105,5,1c0.653-0.039,1.346-0.018,2,0c2.384,0.065,4.894,0.27,7-1
			c1.665,0.36,3.287,1,5,1h2l2.199-0.22c0.486-0.049,1.113-0.164,1.58-0.01c3.223,1.057,6.379-0.225,9.323-0.808
			c2.199,0.072,5.839,2.675,8.864,0.444c0.719-0.53-0.805-2.037-0.948-2.743c-0.18-0.887,0.499-1.875,0.764-2.661
			c0.042,0.492,0.406,1.475,0.885,1.761c0.537,0.321,1.988-0.229,2.338-0.822c0.162,1.279-0.806,3.281,0.295,4.653
			c0.808,1.007,2.727,0.205,3.555,0.263c3.01,0.213,8.73,0.151,12.144,0.144c1.859-0.004,3.616,0.174,6.147-0.157
			c-0.581-2.675-1.658-4.222-3.04-5.588c-0.078-0.41-0.006-0.85-0.108-1.255c-0.723-2.879-1.543-6-5-6
			c1.637-1.502,1.055-3.027,0.269-4.084c-1.299-1.75-3.108-2.745-4.724-1.361c-1,0.856-1.481,2.074-2.476,2.439l1.033-4.186
			c0.991,0.185,2.303,0.185,2.618-0.518c0.503-1.123,0.578-2.253-0.063-3.564c-0.491-1.004-2.218-0.436-3.004,0.647
			c-0.401-0.599-1.086-1.017-1.788-0.395c-0.698,0.619-1.396,1.315-2.1,0.905C99.198,45.551,99.12,44.632,99,44
			c1.496-2.193,5.066-7.436,2.562-10.059C100.5,32.829,99.185,32.863,98,33c0.223-0.368,0.705-0.714,1-1
			c0.214-0.207,1.095-0.085,1.351-0.527L94.105,18c-1.057-2.279-1.014-1.968-3.039-3.089c-1.729-0.958-2.605-4.218-4.984-4.711
			C85.962,9.767,86.231,9.212,86.055,8.801c1.181,0.151,2.233,0.87,4.067-0.149c-2.405-0.959-3.64-10.715-6.715-5.325
			C81.807,6.133,85.109,6.6,86.055,8.801z M73.181,11.824c-0.778-0.028-1.651-0.029-2.559,0.99C69.863,13.665,68.94,14.365,68,15
			c-0.893,0.603-1.674,1.4-1.991,2.989c2.472,0.066,3.411-1.119,5.259-2.268c1.214-0.754,4.525,0.129,3.679-2.629
			c2.157,0.31,3.729-1.466,4.194-4.198C76.862,8.546,74.284,9.659,73.181,11.824z M104.6,43.232c1.901-0.303,1.24-1.033,0.426-1.776
			c-0.523-0.478-0.615-0.475-1.57,0.476C101.233,42.225,102.154,43.175,104.6,43.232z"/>
		<path style="fill:#EDEDED;" d="M81,51v1l-0.334,2.718c-2.289,0.862-3.93,1.619-4.923,2.271c-0.242,1.947-1.036,2.011-1.583,0.126
			c0.093,1.92-0.64,1.95-1.339,0.097l-0.885,2.083c-1.732-0.396-3.428-0.574-5.086-0.537c0.26,0.68,0.424,1.24,0.251,1.379
			c-0.178,0.143-3.624,1.243-4.204,1.409c-0.3,0.086-0.678-0.1-1.078-0.365l0.104,1.46C60.449,63.495,58.808,64.281,57,65
			c-0.037,1.947-0.818,1.856-1.178-0.134C54.133,66.244,52.192,67.289,50,68c-1.211,0.709-2.605,1-4,1c-0.661-0.722-1.328-1.722-2-3
			c-1.92-0.215-3.239,0.669-3.958,2.654l-1.218,0.205c-1.398-1.153-2.605-1.178-3.622-0.076C32.811,68.732,30.408,69,28,69
			c-1.928-0.833-4.069-0.837-6,0c-2.38,0-4.816,0.159-7-0.911c-1.045-1.901-1.712-2.155-2-0.761h-1L9,67
			c-1.252,0.625-2.585,0.716-4,0.273c-6.704,1.231,5.302-6.033,5.476-5.971l2.718,0.963c1.751,0.985,3.128,1.355,4.643-0.126
			c0.403,0.027,0.905,0.111,1.297,0.021c1.145,1.247,2.329,1.86,3.551,1.84c1.239-1.036,2.86-1.343,4.315-2
			c1.182,1.002,1.671,1.682,0,2c-0.945,0.689-0.612,1.022,1,1c0.196-0.552,0.529-1.219,1-2c0.591-0.524,1.375-0.802,2.165-0.845
			c0.987,0.989,1.911,1.27,2.772,0.845L37,62h1c1.198,1.203,3.666,1.48,7,0h1c1.198-1.724,2.559-2.838,4.084-3.344
			c-0.327-2.071,0.629-2.246,1.798-0.43c1.73-0.514,2.176,0.157,1.026,1.551c-0.008,1.431,1.644,1.476,4.956,0.135
			C58.54,57.642,62.236,56.033,64,58c0.092-1.93,1.43-2.844,4.013-2.743c-0.109-0.769,0.54-0.635,1.194-0.129
			c1.419-0.81,2.728-1.841,3.925-3.095c-0.695-2.584,0.257-2.743,1.802-0.59C77.44,50.254,79.461,50.106,81,51z"/>
		<path style="fill:#EDEDED;" d="M35.226,41.638c0.699,0.063,1.281,0.488,1.745,1.276c0.893-0.086,0.972,0.219,0.302,0.882
			c2.268-1.859,2.767-1.045,1.764,1.465C39.613,46.139,38.601,46.719,36,47c2.311,0.8,3.033,1.8,2.168,3
			c2.703-0.685,5.289,2.558,3.748,4.871c0.813-0.185,1.152,0.546,1.018,2.194C45.725,56.056,46.857,57.724,45,60
			c-0.954,0.817-2.194,0.6-3.323,0.787C38.744,60.713,38.427,59.414,41,58c-1.454-0.263-2.278-0.889-1-2
			c-1.056,0.386-2.063-0.055-3.024-1.322c-1.546-0.92-3.126-0.812-4.74,0.322c-1.4-0.099-2.021,0.756-1.865,2.565L29,58.168
			c-1.26,2.31-3.949,1.551-4-1.168c-2.166-0.245-2.166-0.245,0,0c1.907,0.787,2.059,1.495,0,2c-0.482,1.063-1.815,1.73-4,2
			c-1.886-0.012-3.648-0.561-4.685-2.234c-2.071-0.32-1.738-0.779-0.008-1.766c2.03-1.489,3.947-2.432,5.751-2.829
			c0.329-0.37,0.894-0.574,1.094-1.079c0.801-1.147,1.747-2.223,2.837-3.228l-0.021-0.871c3.642-1.234,6.088-3.178,7.339-5.832
			C33.973,42.767,34.496,42.011,35.226,41.638z"/>
		<path style="fill:#D5D5D5;" d="M73,31c1.558-2.22,3.887-1.369,5,1c-0.173,1.361-0.643,1.572,0,3c0.553,2.6-0.178,2.988-2,1
			c-2.417-1.873-6.846,0.161-6.059,3.491L68,41c-1.709,1.989-2.337,1.562-2-1c-0.451-0.224-0.845-0.478-1.039-0.84
			C63.983,37.331,66.385,36.974,66,40c1.22,2.93-0.294,4.022-2.719,2c-1.473-0.13-2.481-1.169-3.024-3.116
			c-0.733,1.168-1.621,2.293-2.664,3.373c-0.577,0.369-1.306,0.065-1.774,0.129c-0.783,0.107-0.895,1.166-0.908,1.701
			c-0.381,0.873-0.732,0.862-1.053-0.033c-2.008-1.386-5.261-3.8-4.929-6.402c-2.51-1.263-1.687-2.47,1.002-1.623
			c0.865-2.188,1.921-1.831,3.167,1.071c1.165,0.639,2.069,0.706,3.073-0.228c0.191-1.11,1.928-3.262,2.491-2.746
			c0.482,0.442-1.481,2.479-2.491,2.746c-0.956,2.414-1.773,2.543-3.073,0.228c-3.038-1.292-2.824-4.996,0.82-4.494
			c-0.197-1.452-0.506-2.932-0.929-4.439c0.725-0.518,1.195-0.854,2.018-1.257c3.69,1.483,5.382,1.382,5.074-0.303
			C61.099,25.758,62.072,25.556,63,26C65.802,28.847,68.577,31.173,73,31z"/>
		<path style="fill:#525252;" d="M91.066,14.911c2.899,0.992,0.768,6.105-0.653,7.439c-0.564,0.529-3.224,1.617-2.743,0.063
			C85.008,22.75,82.452,22.612,80,22c-0.712,1.175-1.378,1.175-2,0c-0.389-1.191,0.26-2.761,0-4c1.975-2.83,5.197-6.153,8.081-7.801
			C88.46,10.692,89.337,13.953,91.066,14.911z"/>
		<path style="fill:#6E6E6E;" d="M78,32c-1.728,0.098-3.482-0.137-5-1c-1.405,1.325-1.92,0.767-1-1l-4-5
			c-1.405,1.325-1.92,0.767-1-1c-0.471-1.274,0.529-2.607,3-4l6.433-2.138C76.877,23.063,78.569,27.507,78,32z"/>
		<path style="fill:#C1C1C1;" d="M94.105,18c0.606,2.1-1.043,5.258-3.105,6c-1.171,0.981-1.838,3.648-2,8
			c1.557-0.871,2.497-0.639,2.925,0.969C93.56,32.487,94.935,32.382,96,34l0.703,2.092c-1.732,2.298-2.966,4.937-3.703,7.914
			c-1.692,2.329-1.359,4.661,1,6.994c1.612,1.753,0.748,2.495-1.302,1.218c-0.575,1.144-1.764,1.986-3.567,2.525
			c-2.256,0.493-2.587-2.676-3.974-3.436c3.045-4.055,2.861-6.051-0.553-5.987L84,43c-3.185-0.55-2.183-6.243,0.861-6
			c-0.629-2.961,1.389-3.504,3.139-1c0.948,1.872,0.948,1.872,0,0c-1.807-1.192-3.141-2.526-4-4c-0.9-1.778-0.585-3.951,0.944-6.521
			C80.863,25.451,79.215,24.291,80,22l8.107-0.049c3.205-0.019,4.82-4.766,2.959-7.04C93.091,16.032,93.048,15.721,94.105,18z"/>
		<path style="fill:#C5C5C5;" d="M56,45c1.218,0.791,0.683,4.28-0.057,5.227c-0.08,0.102-0.933-1.683,1.264-0.427l0.625,0.142
			c2.539,0.003,4.962,0.39,7.268,1.162c1.964,0.238,2.629,0.72,0.9,1.896c0.096,2.525-0.57,4.191-2,5l-2.274,0.67
			c-0.328-2.721-0.911-3.986-1.75-3.793c0.766,3.15,0.062,4.828-2.112,5.034c-1.484,1.003-3.807,1.614-4.956-0.135
			c-0.485-0.41-0.857-0.936-1.026-1.551c-0.789-1.986-1.763-2.367-2.921-1.142l-2.257,0.226c-0.361-1.416-1.618-1.498-3.769-0.244
			c-0.512-0.598-0.639-1.626-1.018-2.194l-0.949-1.407c2.304-0.867,3.983-1.675,5.038-2.425c-0.236-2.992,0.709-3.566,3.213-1.89
			l1.103,1.005l4.59-6.068C55.631,43.136,56.071,44.139,56,45z"/>
		<path style="fill:#5F5F5F;" d="M99,44c-0.558,3.675-4.169,1.871-6,0.006c-2.601-3.014,0.476-7.789,3-10.006
			c1.023-1.329,1.69-1.662,2-1c1.185-0.137,2.5-0.171,3.562,0.941C104.066,36.564,100.496,41.807,99,44z"/>
		<path style="fill:#5F5F5F;" d="M80,22c1.657,1.816,4.16,0.907,7.774,0.871C86.876,26.042,86.054,29.431,84,32
			c-1.488,0.025-2.958,0.15-5.063-0.108C79.224,28.182,79.003,25.072,78,22c0.234-0.195,0.581-0.321,1-0.615
			C79.536,21.009,79.627,21.592,80,22z"/>
		<path style="fill:#505050;" d="M115,62c-0.486,0.764-3.253,4.467-3.529,4.569c-0.287,0.107-2.845-1.893-3.471-2.569l-2.201-0.713
			c0.632-0.961,0.699-2.39,0.201-4.287c-1.511-1.687-0.177-2.687,4-3C113.457,56,114.277,59.121,115,62z"/>
		<path style="fill:#D5D5D5;" d="M99,44c0.12,0.632,0.198,1.551,0.766,1.882c0.704,0.411,1.402-0.286,2.1-0.905
			c0.701-0.622,1.387-0.204,1.788,0.395c2.248,0.957,1.886,1.791-0.388,2.478c-1.74,1.438-2.411,2.754-2.013,3.949l-1.369,2.181
			c-0.969,2.96-5.55,2.991-6.858,0.29l-0.751-0.312c-2.309-0.489-1.973-1.576,0.423-1.74L94,51c-1.275-2.496-1.608-4.827-1-6.994
			L99,44z"/>
		<path style="fill:#444444;" d="M99,32l-1.246,0.369C95.839,29.507,93.587,26.717,91,24c-0.131-2.387,0.768-5.121,3.105-6
			l6.246,13.473C100.095,31.915,99.214,31.793,99,32z"/>
		<path style="fill:#484848;" d="M84.042,52.958c0.141,2.256,0.632,3.998,1.474,5.225L84,60c0.099,1.855-0.567,1.855-2,0
			c-1.64,3.104-7.839,0.233-6.257-3.01C73.795,54.041,77.008,55.374,81,52C81.787,51.335,83.614,52.235,84.042,52.958z"/>
		<path style="fill:#4F4F4F;" d="M84,43c2.609,1.117,5.452,0.533,5.246,3.501c-0.209,3.008-1.024,5.21-4.088,4.806
			C82.24,49.709,82.38,46.564,81,44C80.165,41.085,82.761,40.07,84,43z"/>
		<path style="fill:#424242;" d="M61.819,61.181c2.455-0.396,2.518-0.305,1.329,1.878c1.868,1.338,2.232,2.384,1.091,3.14
			C66.863,66.684,66.612,67.573,64,68c-2.106,1.27-4.616,1.065-7,1c-1.645,0.053-1.415-3.27,0-4c0-1.389,0.402-2.138,1.459-3.021
			C59.203,61.357,61.227,61.832,61.819,61.181z"/>
		<path style="fill:#CACACA;" d="M108,64C106.972,66.655,106.972,66.655,108,64c2.769,1.836,4.767-0.097,7-2
			c0.102,0.405,0.03,0.844,0.108,1.255c1.516,2.29-1.063,4.76-3.108,5.745c-3.414,0.007-9.134,0.069-12.144-0.144
			C96.828,69.075,97.19,63.391,100,63c1.673-1.325,3.34-2.658,5-4c0.284-0.873,0.618-0.86,1,0L108,64z"/>
		<path style="fill:#3C3C3C;" d="M83.871,35c2.42-0.616,2.478,0.09,0.99,2c-0.328,2.003-1.007,3.959-0.861,6
			c-0.903-0.387-2.208,0.747-3,1c-1.745-3.243-0.321-6.54-1.678-10.583c-0.234-0.696,1.887-0.554,2.849-0.234
			C82.863,33.412,83.288,34.148,83.871,35z"/>
		<path style="fill:#6C6C6C;" d="M84,63l2.025,1.193c-1.04,0.861-1.681,2.117-1.923,3.768c-2.944,0.583-6.1,1.865-9.323,0.808
			c-1.161-2.149-1.274-5.615,1.976-3.601c2.256-0.988,4.408-2.122,6.455-3.401L84,63z"/>
		<path style="fill:#4A4A4A;" d="M110,56c-3.001,1.392-5.001,1.392-6,0c-1.405,1.325-1.92,0.767-1-1
			c-2.254-0.255-1.791-0.921,0.069-2.006c0.995-0.365,1.477-1.583,2.476-2.439c1.617-1.385,3.425-0.389,4.724,1.361
			C111.055,52.973,111.637,54.498,110,56z"/>
		<path style="fill:#C9C9C9;" d="M97.885,60.055c2.206-1.936,4.022,0.813,2.115,2.945c-0.529,1.893-1.86,2.206-3.994,0.939
			c-0.917-1.166-1.992-1.479-3.224-0.939c-0.264,0.787-0.944,1.774-0.764,2.661c-2.171,1.377-4.81,2.143-7.916,2.299
			C83.648,66.354,84.169,64.649,84,63l1.952-1.356c1.514,0.89,2.907,0.342,4.179-1.644c0.476-0.442,0.676-1.04,0.874-1.635
			C92.908,56.643,96.383,58.1,97.885,60.055z"/>
		<path style="fill:#5E5E5E;" d="M48.961,57.084c1.099,0.007,1.473,0.531,1.123,1.572c-0.233,1.216-0.468,2.314-1.364,3.591
			C48.195,62.994,46.967,62.796,46,62c-0.386-0.632-0.576-1.392-1-2c-0.68-0.975-1.292-2.03-2.066-2.934
			c-0.186-1.621,0.871-2.711,2.859-3.013C47.166,53.844,48.013,55.783,48.961,57.084z"/>
		<path style="fill:#848484;" d="M73,44c-1.197-1.336,0.803-4.413,2-6c-2.894-0.997-1.941-2.996,1-2l2-1
			c1.172,2.602,1.106,5.746,0.95,8.831L73,44z"/>
		<path style="fill:#707070;" d="M63.281,42c3.449,0.412,2.219,3.322-1.055,3.013c-0.904,0.361-2.146,1.138-2.863,0.111
			c-0.649-0.93-1.647-1.802-1.77-2.866c-0.124-1.072-0.073-2.728,0.095-3.74c0.144-0.87,1.941-2.002,3.408-1.433
			C62.837,37.76,62.919,40.548,63.281,42z"/>
		<path style="fill:#646464;" d="M53.098,37.098c-0.836-0.467-2.435-0.526-3.167-1.071c0.643-2.824,0.592-6.1,3.058-7.862
			c1.401,0.356,2.576,1.468,2.892,2.591c0.488,1.735-0.179,2.989-1.375,5.204l-2.234-2.058
			C51.201,35.662,52.975,36.181,53.098,37.098z"/>
		<path style="fill:#BABABA;" d="M76.659,64.328c0.894,0.078,0.906,0.363,0.097,0.84c-1.492,0.313-1.782,2.385-1.976,3.601
			c-0.467-0.153-1.094-0.038-1.58,0.01c-1.194,0.228-1.47-2.021-1.25-2.131C72.08,66.584,72.554,69.057,71,69h-2
			c-2.754-1.086-4.088-1.622-0.916-2.984c-2.287-0.606-0.52-2.347,1.244-2.365c1.635-1.573,2.373-3.401,2.215-5.484l1.279-0.954
			l1.339-0.097C75.906,58.303,76.738,60.708,76.659,64.328z"/>
		<path style="fill:#5F5F5F;" d="M86.055,8.801c-0.946-2.201-4.248-2.668-2.648-5.474c3.075-5.39,4.31,4.366,6.715,5.325
			C88.288,9.672,87.237,8.952,86.055,8.801z"/>
		<path style="fill:#525252;" d="M92.018,65.661c0.143,0.707,1.668,2.213,0.948,2.743c-3.025,2.231-6.666-0.373-8.864-0.444
			c1.348-0.06,0.893-1.502,1.39-2.82C87.863,64.751,90.036,64.982,92.018,65.661z"/>
		<path style="fill:#B9B9B9;" d="M73.132,52.033c-0.777,1.32-2.347,2.836-3.925,3.095l-1.194,0.129
			c-1.483,1.357-2.085,0.733-1.126-1.097c1.038-0.877,0.443-1.896-1.787-3.056c-3.665,0.147-5.032-0.927-4.1-3.22
			c1.795-0.613,3.382,0.485,4.798-0.627c1.934,1.372,3.619,1.018,5.055-1.06L72,46C74.327,46.803,74.13,50.161,73.132,52.033z"/>
		<path style="fill:#636363;" d="M103.265,47.85c1.95-1.185,2.458-0.641,0.837,0.958l-1.033,4.186
			c-0.581,1.605-2.222,2.574-3.185,0.986c-0.896-2.183-1.333-4.747-0.184-7.103L103.265,47.85z"/>
		<path style="fill:#555555;" d="M68,41c2.265-1.88,3.909,0.935,2,3c0.873,0.284,0.86,0.618,0,1
			c-2.487-0.306-5.416,1.183-7.774,0.013c0.979-0.445,1.304-2.013,1.055-3.013c1.032-0.459,2.074-1.041,2.719-2
			C66.565,40.053,67.492,40.752,68,41z"/>
		<path style="fill:#6A6A6A;" d="M63,26c-1.589-0.103-0.717,1.636-1.062,3.096c-0.373,1.581-2.774,0.986-4.136,0.736
			c-1.147-0.211-2.232-1.482-2.794-2.924c1.949-0.954,4.343-0.315,6.087-1.713C62.669,22.889,63.243,23.257,63,26z"/>
		<path style="fill:#555555;" d="M55.822,64.866C56.185,66.13,56.465,68.602,55,69c-1.743,0.105-3.662,0.309-5-1
			c-1.409-2.061,2.517-3.016,4.811-4.189C55.256,63.583,55.744,63.904,55.822,64.866z"/>
		<path style="fill:#505050;" d="M100,63l-0.144,5.856c-0.828-0.059-2.747,0.744-3.555-0.263c-1.1-1.372-0.133-3.375-0.295-4.653
			C97.05,62.177,98.33,62.619,100,63z"/>
		<path style="fill:#7C7C7C;" d="M41,58c0.119,0.95,0.358,1.887,0.677,2.787c-2.821,0.468-5.646-0.008-8.467,0.003
			c-0.891-0.116-0.892-0.406-0.066-0.856C31.308,55.922,38.787,56.981,41,58z"/>
		<path style="fill:#616161;" d="M112,69c-0.595-2.53,1.596-3.981,3.108-5.745c1.381,1.367,2.458,2.914,3.04,5.588
			C115.616,69.174,113.859,68.996,112,69z"/>
		<path style="fill:#404040;" d="M85.021,8.892C84.761,11.67,80.794,15.702,78,16c0.519-3.139,2.537-5.675,4.265-9.069
			C83.385,7.693,84.047,8.414,85.021,8.892z"/>
		<path style="fill:#424242;" d="M81,48c0.776,0.93,1.236,2.302,0,3c-2.113,0.919-4.974,3.397-6.066,0.444
			C72.87,49.755,73.511,49.105,76,50C76.25,47.327,78.75,46.99,81,48z"/>
		<path style="fill:#525252;" d="M49.931,36.028c-0.206,0.479-1.142,0.907-1.002,1.623c0.233,2.409-1.868,2.655-3.793,2.349
			c-1.729,2.166-2.469,1.702-2.136-1c-1.039-0.753-0.969-1.73,0.21-2.929C45.484,34.835,47.487,34.21,49.931,36.028z"/>
		<path style="fill:#4D4D4D;" d="M61,47.885c1.204,1.335,3.358,1.384,4.1,3.22c-2.591,1.066-6.771,2.401-7.268-1.162
			C58.373,48.484,59.745,48.313,61,47.885z"/>
		<path style="fill:#686868;" d="M29,58.168c1.587-2.151,2.209-1.677,2.874,0.706c0.946-0.273,1.37,0.081,1.27,1.06l0.066,0.856
			C30.481,60.8,27.743,61.204,25,61c-2.19-0.136-1.786-0.939,0-2v-2L29,58.168z"/>
		<path style="fill:#777777;" d="M25.969,48.992c2.107-2.306,4.655-4.247,7.339-5.832c1.086-0.286,0.752,1.02,0.698,1.516
			C33.638,48.025,28.611,48.23,25.969,48.992z"/>
		<path style="fill:#676767;" d="M74.947,13.093c-0.866-0.277-1.455-0.7-1.766-1.268c1.103-2.165,3.681-3.278,5.96-2.929
			C78.676,11.626,77.103,13.403,74.947,13.093z"/>
		<path style="fill:#777777;" d="M43.21,36.071c0.991-0.198,0.744,0.871,0.606,1.261C43.587,37.982,43.306,38.556,43,39
			c-0.629,2.269-3.374,6.122-5.727,4.795c-0.199-0.192-0.154-0.636-0.302-0.882c-1.465-0.794-0.429-2.344,1.071-2.824
			C38.902,37.425,41.254,37.133,43.21,36.071z"/>
		<path style="fill:#4A4A4A;" d="M74,46c0.957-0.117,1.94-0.056,2,1c2.263-0.354,2.263,0.646,0,3l-1.066,1.444l-1.802,0.59
			C71.442,50.487,71.389,48.089,72,46H74z"/>
		<path style="fill:#B1B1B1;" d="M99,32c-0.295,0.286-0.777,0.632-1,1c-0.427,0.706-1.49,0.552-2,1c-1.762-2.059-2.762-4.059-3-6
			c-2.9,1.785-4.746-2.198-2-4C93.316,25.647,97.342,29.368,99,32z"/>
		<path style="fill:#6A6A6A;" d="M88,36c-1.103,0.042-2.155,0.556-3.139,1c-0.428-0.554-0.979-1.254-0.99-2
			c-0.015-0.996,0.204-1.999,0.129-3c1.144-0.019,2.18-0.074,3.492,0.869C88.677,33.72,88.996,34.451,88,36z"/>
		<path style="fill:#515151;" d="M70.853,46.197c0.059,0.992,0.076,2.128-0.293,2.857c-0.658,1.299-1.814,0.906-3.063,1.018
			c-1.611,0.144-1.786-1.332-1.699-2.815C67.187,46.165,69.23,46.475,70.853,46.197z"/>
		<path style="fill:#5E5E5E;" d="M104.102,48.808c0.465-0.638-0.357-0.827-0.837-0.958c-0.011-0.843,0.046-1.698,0.388-2.478
			c0.786-1.083,2.513-1.651,3.004-0.647c0.641,1.311,0.566,2.441,0.063,3.564C106.405,48.994,105.093,48.993,104.102,48.808z"/>
		<path style="fill:#ADADAD;" d="M86.081,10.199C83.607,12.98,81.063,15.878,78,18c-0.123-0.586-0.098-1.409,0-2
			c2.713-1.898,5.24-4.311,7.021-7.108c0.332,0.023,0.706-0.133,1.034-0.091C86.231,9.212,85.962,9.767,86.081,10.199z"/>
		<path style="fill:#D3D3D3;" d="M70,20l-3,4c-0.023,2.445-1.964,3.046-4,2c-0.463-0.612-1.209-0.666-1.906-0.805
			c-1.128-1.668,0.124-2.792,1.9-3.31c0.3,0.054,0.629-0.101,0.934-0.079C65.784,20.826,67.807,20.224,70,20z"/>
		<path style="fill:#7B7B7B;" d="M62.995,21.885c-0.263,1.212-0.898,2.507-1.9,3.31c-1.549-0.309-2.984,0.19-5.223-0.566
			C58.168,23.201,60.427,21.418,62.995,21.885z"/>
		<path style="fill:#969696;" d="M22.058,54.171c-1.456,1.637-3.478,3.492-5.751,2.829c1.23-1.674,2.751-3.379,4.935-4.404
			C21.996,52.241,22.157,53.788,22.058,54.171z"/>
		<path style="fill:#7B7B7B;" d="M17.837,62.139c-0.065,1.017,0.481,2.002-0.02,3.968c-2.372-0.201-3.577-2.203-4.623-3.842
			C14.611,62.767,16.312,62.036,17.837,62.139z"/>
		<path style="fill:#939393;" d="M45,62c-0.863,2.107-6.254,2.713-6.972,1.466C37.825,63.113,38.01,62.436,38,62H45z"/>
		<path style="fill:#CDCDCD;" d="M73,44c-1.053,0.03-1.666,1.164-3,1v-1c-0.792-2.646,2.06-8.715,5-6L73,44z"/>
		<path style="fill:#686868;" d="M68.084,66.016C67.645,66.85,68.45,68.12,69,69c-1.713,0-3.335-0.64-5-1l0.239-1.801
			C63.555,64.031,68.197,63.764,68.084,66.016z"/>
		<path style="fill:#838383;" d="M22.685,64c-0.143,0.497-0.27,0.728-0.392,1.04c-0.247,0.631-1.264,1.561-2.216,0.737
			c-1.197-1.036-0.858-2.568-0.943-3.617C20.675,61.806,22.17,62.46,22.685,64z"/>
		<path style="fill:#606060;" d="M96.006,63.939c-0.351,0.592-1.801,1.142-2.338,0.822c-0.479-0.286-0.843-1.269-0.885-1.761
			c0.203-0.604-0.342-1.987,0.822-2.154c0.777-0.111,1.864,0.291,2.327,0.861C96.391,62.273,95.916,63.226,96.006,63.939z"/>
		<path style="fill:#7E7E7E;" d="M80,47c-0.979,0.794-3.819,1.77-4,0c-0.792,0-1.798-0.079-2-1c1.065-0.681,2.3-0.959,3.523-1.1
			C78.971,44.734,80.274,45.238,80,47z"/>
		<path style="fill:#656565;" d="M38.824,68.858l-3.622-0.076c0.237-1.016,0.267-2.234,1.292-2.153
			C38.04,66.75,39.064,67.509,38.824,68.858z"/>
		<path style="fill:#737373;" d="M74.947,13.093c0.846,2.758-2.466,1.875-3.679,2.629C70.713,13.082,72.796,11.502,74.947,13.093z"
			/>
		<path style="fill:#C8C8C8;" d="M73.181,11.824c1.642-0.098,1.574,0.645,1.766,1.268c-1.943-0.279-3.202,0.696-3.679,2.629
			c-1.848,1.148-2.787,2.333-5.259,2.268C66.326,16.4,67.107,15.603,68,15c1.447,0.39,2.321-0.339,2.622-2.186
			C71.53,11.796,72.403,11.796,73.181,11.824z"/>
		<path style="fill:#5D5D5D;" d="M73.199,68.78L71,69c0.093-1.05-1.065-2.36-0.393-3.511c0.452-0.773,2.182-0.767,2.577-0.011
			C73.68,66.425,73.331,67.801,73.199,68.78z"/>
		<path style="fill:#5B5B5B;" d="M70,20c-5.647,1.877-2.875,3.995-6.071,1.806C65.19,20.137,68.573,17.591,70,20z"/>
		<path style="fill:#464646;" d="M57.207,49.801c-0.653,0.257-1.031,1.077-2.226,1.179L56,45
			C58.346,45.529,57.919,47.941,57.207,49.801z"/>
		<path style="fill:#4F4F4F;" d="M44,66c-0.495,1.801-1.199,2.58-3.118,2.719c-0.273-0.033-0.571-0.111-0.84-0.066
			c-0.498-1.066-0.226-2.438,0.856-3.183C41.824,64.833,43.202,65.122,44,66z"/>
		<path style="fill:#727272;" d="M38.042,40.089c-0.308,0.955-0.815,1.848-1.071,2.824l-0.985,0.758
			c-0.688,0.529-1.029-0.002-0.949-0.327c0.121-0.49,0.18-1.533,0.189-1.707c0.477-0.244,0.495-1.27,1.187-1.577
			C36.91,39.841,37.513,39.395,38.042,40.089z"/>
		<path style="fill:#D3D3D3;" d="M85.073,53.945l2.255,3.941C88.848,60.738,86.311,62.017,84,60l0.042-7.042
			C84.227,53.27,84.772,53.732,85.073,53.945z"/>
		<path style="fill:#727272;" d="M34,62c0.854,0.339,0.82,0.672-0.063,1c-0.15,0.542-0.02,1.761-0.54,1.933
			c-0.605,0.2-2.417,0.317-2.372-0.443l0.14-2.335L34,62z"/>
		<path style="fill:#525252;" d="M87.329,57.886c-0.696,0.038-2.015,0.394-2.258-0.452c-0.356-1.239,0.015-2.46,0.003-3.488
			c0.91,0.429,1.836,0.832,2.506,1.873C87.939,56.375,87.921,57.209,87.329,57.886z"/>
		<path style="fill:#6F6F6F;" d="M12,67.328C11.068,68.245,9.977,67.447,9,67c0.704-1.129,1.274-2.302,2.784-3.078
			C12.249,65.479,11.916,66.379,12,67.328z"/>
		<path style="fill:#BDBDBD;" d="M80,47c0.328,0.337,0.698,0.638,1,1c-1.914-0.257-3.93,0.55-5,2v-3H80z"/>
		<path style="fill:#969696;" d="M57,65v4c-0.654-0.018-1.347-0.039-2,0c0.055-1.378-0.359-3.181,0.822-4.134L57,65z"/>
		<path style="fill:#808080;" d="M25.99,49.864c1.967,1.561-1.403,2.793-2.837,3.228c-0.089-0.962-0.034-2.084,0.727-2.715
			C24.481,49.878,25.28,49.82,25.99,49.864z"/>
		<path style="fill:#939393;" d="M16.315,58.766c-1.154,0.449-1.93,1.39-2.971,2.331c-0.946-1.755-0.239-2.941,0.779-3.315
			c0.582-0.214,1.681-0.295,2.184-0.783C15.825,57.518,16.163,58.176,16.315,58.766z"/>
		<path style="fill:#434343;" d="M46,69h-2c-2.153,0-1.255-1.75,0-3c0.536-0.252,0.906-0.805,1.906-0.943
			C46.14,66.711,45.959,67.818,46,69z"/>
		<path style="fill:#808080;" d="M29,63c-0.07,0.467,1.019,1.135,0.897,1.538C29.712,65.151,28.243,64.894,28,65
			c-1.491,0.742-1.955,0.462-1-1v-2L29,63z"/>
		<path style="fill:#6C6C6C;" d="M37,62c0.104,0.49,0.04,1.451-0.408,1.91c-0.308,0.316-0.734,1.424-1.38,0.525
			c-0.268-0.374-0.498-1.184-1.275-1.435L34,62H37z"/>
		<path style="fill:#7E7E7E;" d="M9,67c-0.478,0.768-1.359,1.5-2.508,1.69C5.836,68.798,5.38,67.814,5,67.273
			C1.883,64.851,11.066,67.945,9,67z"/>
		<path style="fill:#BABABA;" d="M44,69c-1.045,0-2.083-0.155-3.118-0.281C41.773,67.688,42.613,66.348,44,66V69z"/>
		<path style="fill:#727272;" d="M28,69h-6C23.245,67.319,26.755,67.319,28,69z"/>
		<path style="fill:#585858;" d="M25,61c-1.319-0.098-2.677,0.009-4,0c1.007-1.186,2.623-1.405,4-2V61z"/>
		<path style="fill:#626262;" d="M104.6,43.232c-2.446-0.057-3.367-1.008-1.144-1.301c0.955-0.951,1.047-0.954,1.57-0.476
			C105.84,42.199,106.501,42.929,104.6,43.232z"/>
		<path style="fill:#727272;" d="M68,15c0.94-0.635,1.863-1.335,2.622-2.186c0.446,0.989,0.463,2.026-0.222,2.807
			C69.494,16.654,68.085,16.454,68,15z"/>
		<path style="fill:#727272;" d="M15,68.089c-0.626-0.307-1.471-0.204-2-0.761c0.053-0.319-0.184-0.917,0.043-1.807
			c0.269-1.054,1.18,0.173,1.535,0.517C15.081,66.525,15.082,67.369,15,68.089z"/>
		<path style="fill:#4E4E4E;" d="M75.743,56.99C77.511,58.518,79.66,59.693,82,60c4.261,2.411-2.661,4.087-5.341,4.328
			c-0.662,0.052-1.403-0.032-1.719-0.421c-0.321-0.395-0.588-1.081-0.613-1.851l-0.166-4.941L75.743,56.99z"/>
		<path style="fill:#5A5A5A;" d="M64,58c-1.912,0.863-3.731,2.485-6.136,1.911c0.991-1.797-0.381-4.205-0.041-6.886
			c1.83-0.214,3.557-0.302,4.437,0.552C63.651,54.928,61.96,57.563,64,58z"/>
		<path style="fill:#ADADAD;" d="M66.85,58.759c5.082-2.065,6.494,3.005,2.478,4.892l-1.244,2.365
			c-1.307-0.335-2.865-1.064-3.845,0.184c-0.575-0.963-1.03-2.011-1.091-3.14c3.257-0.828,3.257-0.828,0,0
			c-0.652-0.453-1.12-1.112-1.329-1.878C63.198,59.665,65.235,59.725,66.85,58.759z"/>
		<path style="fill:#646464;" d="M72.822,57.213c0.073,1.988,0.542,4.042-0.221,6.187l-3.273,0.251l0.649-3.497
			c0.266-1.432-2.212-1.312-3.126-1.396C68.709,57.647,70.57,57.376,72.822,57.213z"/>
		<path style="fill:#636363;" d="M57.864,59.911c-1.402,2.541-4.817,3.05-7.811,4.111c0.347-2.158,1.624-3.252,2.855-4.245
			C54.313,58.643,56.348,59.55,57.864,59.911z"/>
		<path style="fill:#5B5B5B;" d="M51.882,58.226c-0.623,0.024-1.233,0.167-1.798,0.43c-0.337-0.547-0.746-1.054-1.123-1.572
			c0.002-1.347-0.412-3.198,1.49-3.156c0.962,0.022,2.781-0.19,2.6,1.496C52.969,56.185,52.324,57.249,51.882,58.226z"/>
		<path style="fill:#5B5B5B;" d="M66,53c1.604-0.976,2.069-0.347,0.887,1.16c0.305,0.427,0.734,0.755,1.126,1.097
			C68.151,57.959,65.498,57.324,64,58l-0.155-3.379C63.791,53.457,64.662,52.663,66,53z"/>
		<path style="fill:#565656;" d="M73.132,52.033c1.344,1.229,0.718,2.218-0.765,2.86c-1.035,0.448-2.197,1.207-3.16,0.235
			C69.788,53.212,70.944,51.474,73.132,52.033z"/>
		<path style="fill:#7E7E7E;" d="M27,64c0.158,0.478,0.503,0.874,1,1c-1.123,1.187-3.583,1.616-5.04,0.484
			C24.703,64.688,25.8,64.211,27,64z"/>
		<path style="fill:#C0C0C0;" d="M49,44c-1.128,2.161-2.483,4.217-4.066,6.168c-1.065,1.945-3.32,1.889-6.766-0.168
			c-0.665-1.002-2.208-1.588-2.168-3c3.796-0.064,5.77-1.09,5.921-3.079c-1.76-2.377,0.916-4.291,3.273-2.921
			C47.574,39.81,50.083,41.216,49,44z"/>
		<path style="fill:#585858;" d="M44.934,50.168c1.421-1.389,1.999-0.878,1.071,0.871c0.395,0.503,0.749,1.085,0.642,1.553
			c-0.474,2.069-6.24,1.095-4.732,2.279c-1.536-1.401-2.607-3.152-3.748-4.871C39.5,47.552,42.657,49.932,44.934,50.168z"/>
		<path style="fill:#8A8A8A;" d="M40,56c1.213,2.352-2.577,1.52-4.389,0.988c-2.391,1.643-3.516,0.98-3.374-1.988
			c0.134-1.408,0.498-2.617,2.225-4.054C36.53,52.293,38.634,53.937,40,56z"/>
		<path style="fill:#767676;" d="M43,39c0.744,0.129,1.338,0.925,2.136,1c2.032-0.577,2.167,0.291,0.058,1
			c-0.685,1.021-2.421,1.893-3.273,2.921c0.938,2.188-1.592,3.063-2.885,1.339l-1.764-1.465C39.136,43.455,39.728,38.433,43,39z"/>
		<path style="fill:#D2D2D2;" d="M40,56c0.672,0.465,0.903,1.227,1,2c-1.753,0.173-8.049-0.943-7.856,1.934
			c-0.453-0.316-0.883-0.665-1.27-1.06C29.76,57.75,29.99,55.751,32.236,55c0.579,0.351,1.027,2.162,1.393,1.913l1.905-1.295
			c0.483-0.329,1.713,1.571,2.909,1.488C39.019,57.066,40.111,57.03,40,56z"/>
		<path style="fill:#656565;" d="M36,47c0.53-1.155,2.059-1.12,3.037-1.74c0.859-0.545,2.168-0.473,2.885-1.339
			c1.066-0.055,1.077,0.757,1.158,1.571c0.099,0.998-0.582,1.958-2.019,2.003C39.192,47.554,37.574,46.846,36,47z"/>
		<path style="fill:#757575;" d="M32.236,55c-0.123,1.289-0.454,2.566-0.362,3.874c-1.145,0.408-1.918-0.427-2.874-0.706
			c0.221-1.755-0.606-3.569,0.6-5.526C31.316,53.306,31.433,54.513,32.236,55z"/>
		<path style="fill:#737373;" d="M25,57c-1.385-0.109-1.314,1.997-3.644,2.139c-0.313-1.564,1.469-2.18,1.963-4.192
			C24.281,55.466,24.564,56.27,25,57z"/>
		<path style="fill:#6F6F6F;" d="M32.738,51.029c-1.12,0.862-1.634,1.305-2.23,0.978c-0.554-0.305-0.728-0.906-0.522-1.508
			c0.236-0.691,1.166-0.202,1.93-0.916C32.909,48.443,33.457,49.888,32.738,51.029z"/>
		<path style="fill:#6B6B6B;" d="M76,36c-0.822,0.411-0.751,1.253-1,2c-2.881,1.022-2.119,4.978-5,6l-2-3
			c-0.024-1.564-0.311-3.234,0.466-4.955c0.725-1.606,6.737-4.076,7.492-2.532C76.306,34.226,75.836,35.334,76,36z"/>
		<path style="fill:#767676;" d="M67,24l1,1l4,5l1,1c-0.326,0.895-1.021,1.711-1.745,1.89C70.399,33.102,60.947,30.623,63,26
			C63.982,24.755,65.387,23.896,67,24z"/>
		<path style="fill:#595959;" d="M48.929,37.651c2.498,1.249,5.427,3.309,4.929,6.402C52.174,45.015,50.005,46.089,49,44
			c-1.162-1.151-2.991-1.519-3.806-3c0.159-0.237,0.377-0.959-0.058-1C45.337,38.203,47.313,37.674,48.929,37.651z"/>
		<path style="fill:#5B5B5B;" d="M49.218,49.15C46.651,47.856,47.104,46.804,50,47c-0.264-1.481,1.022-2.463,3.858-2.947
			c0.337,0.085,0.709-0.013,1.053,0.033c0.241,4.378-2.491,8.602-6.989,8.652C47.821,50.507,49.028,49.991,49.218,49.15z"/>
		<path style="fill:#7F7F7F;" d="M56.171,36.87c0.41-1.704,0.445-3.644,1.122-5.533c0.228-0.637,2.594-0.519,3.21-0.261
			c0.821,0.344,0.869,2.762,0.171,3.911C59.808,36.413,57.397,36.254,56.171,36.87z"/>
		<path style="fill:#545454;" d="M68.478,34.139l-6.107,1.796c-0.577-1.519-0.847-3.488,0.297-5.35
			C64.694,32.244,66.228,31.991,68.478,34.139z"/>
		<path style="fill:#868686;" d="M66,40c-1.221-0.037-1.633-0.346-2.182-1.306c-0.876-1.533-0.829-1.308,0.623-1.851
			c0.969-0.362,2.087-1.748,2.518-0.303C67.36,37.888,66.543,39.193,66,40z"/>
		<path style="fill:#737373;" d="M56.171,36.87l-0.872,3.626c-1.428-0.565-1.999-1.902-2.201-3.398
			C53.773,37.475,55.481,37.217,56.171,36.87z"/>
		<path style="fill:#D1D1D1;" d="M72,30c-1.525-1.525-3.936-2.631-4-5C69.525,26.525,71.936,27.631,72,30z"/>
		<path style="fill:#464646;" d="M88,36c1.168-0.045,2.274-0.141,4.138,0.175c-0.608,2.074-0.436,4.57-1.692,6.429
			c-0.891,1.317-5.458,0.44-5.28-1.371C85.381,39.038,87.118,37.372,88,36z"/>
		<path style="fill:#4B4B4B;" d="M96,34c-1.089,0.709-3.04,0.825-4.25,0.85c-1.546,0.032-1.8-2.056-2.75-2.85
			c-0.962-2.322,1.678-4.962,4-4c0.938,0.898,2.235,1.446,3.123,2.416C96.981,31.353,97.346,33.123,96,34z"/>
		<path style="fill:#535353;" d="M91,24c0.075,1.365,0.995,3.038,2,4c-0.897,1.707-2.293,3.103-4,4
			c-0.964-0.807-2.279-1.086-1.98-2.505c0.228-1.083,1.821-5.985,2.421-6.339C89.819,22.932,90.632,23.738,91,24z"/>
		<path style="fill:#4E4E4E;" d="M93,44.006c1.864,2.16,3.313,4.83,1,6.994c-2.419-0.112-4.15-1.159-4.172-3.453
			C89.801,44.634,90.097,44.009,93,44.006z"/>
		<path style="fill:#505050;" d="M92.698,52.218c-0.379,0.355-0.138,1.214-0.423,1.74c-0.517,0.696-1.026,1.498-1.897,1.842
			c-0.641,0.253-1.006-0.605-1.248-1.057c-0.063-1.09-0.341-2.116,0.002-3.787L92.698,52.218z"/>
		<path style="fill:#545454;" d="M49,44c3.064,0.513,3.286,0.933,1,3c-0.676,0.618-0.592,1.305-0.782,2.15
			c-1.18,0.424-2.18,1.191-3.213,1.89c-0.407-0.098-0.68-0.831-1.071-0.871c-1.031-1.276-0.241-2.618,0.119-3.576
			C45.882,44.386,47.048,43.709,49,44z"/>
		<path style="fill:#3A3A3A;" d="M66.887,54.16C66.626,53.794,66.139,53.438,66,53c-0.214-0.677-0.316-1.412-0.9-1.896
			c1.007,0.206,2.523-0.598,3.627,0.189c0.902,0.643,0.354,1.772,0.286,2.225C68.834,54.724,67.87,54.443,66.887,54.16z"/>
		<path style="fill:#424242;" d="M56.035,57.836c-1.276,0.482-2.401-1.384-1.769-2.026c0.694-0.705,0.705-1.957,2.247-2.596
			C57.022,54.209,57.514,57.277,56.035,57.836z"/>
		<path style="fill:#D0D0D0;" d="M110,56c-1.379,1.266-4.042,0.777-4,3h-1c-2.685,0.094-2.793-1.306-1-3H110z"/>
		<path style="fill:#575757;" d="M99.884,53.98c1.523,0.182,1.229,1.521-0.884,4.02c1.727,1.935,1.489,2.301-1.115,2.055
			c-2.44,0.573-4.937-0.138-6.879-1.69c0.482-1.452,1.246-2.783,2.021-4.094C95.3,53.959,97.6,54.123,99.884,53.98z"/>
		<path style="fill:#595959;" d="M96.233,45.228c0.687-0.659,1.481-0.234,1.781,0.271c0.669,1.128-1.653,2.347-1.515,2.397
			C95.714,47.611,95.707,45.733,96.233,45.228z"/>
		<path style="fill:#C1C1C1;" d="M84,60c2.825,0.901,2.384,1.511,0,3c-2.503,0.272-4.789,1.653-7.244,2.168l-0.097-0.84
			c1.827-1.577,5.667-1.018,6.248-2.803C83.052,61.082,82.021,60.577,82,60C82.563,60.074,83.459,60.161,84,60z"/>
		<path style="fill:#6C6C6C;" d="M103,55l1,1c0.729,0.729,0.876,1.956,1,3c0.15,1.259,1.05,2.14,1.016,4.001
			c-2.292-0.267-4.277,0.396-6.016-0.001l-2.115-2.945C98.297,59.481,98.386,58.422,99,58C100.073,54.944,101.407,53.944,103,55z"/>
		<path style="fill:#505050;" d="M108,64c0.602,1.504,1.997,2.192,3.117,3.874c-3.634,0.077-6.659,0.479-9.893-0.153
			c-0.614-0.12-0.3-2.404,0.207-2.771c0.517-0.374,1.251-1.023,2.588-1.005L108,64z"/>
		<path style="fill:#CDCDCD;" d="M103,55c-1.799,0.349-2.607,2.043-4,3l0.884-4.02c1.095-0.068,2.174-0.615,3.185-0.986
			C102.912,53.63,103.154,54.351,103,55z"/>
		<path style="fill:#404040;" d="M90.131,60c0.416,1.641,0.423,3.587-1.631,4.078C87.074,64.419,85.352,63.542,84,63
			c-0.101-0.988-0.006-2.006,0-3c1.269-0.377,2.466-1.128,3.329-2.114C88.687,57.811,89.783,58.718,90.131,60z"/>
		<path style="fill:#454545;" d="M63.148,63.059c0.838-2.26,2.909-2.796,4.573-1.621c1.124,0.793-0.864,2.726-2.155,2.688
			C64.766,64.103,64.268,63.281,63.148,63.059z"/>
		<path style="fill:#C1C1C1;" d="M53.858,44.053C53.459,45.569,51.064,46.026,50,47c-0.305-0.9-0.268-2.275-1-3
			C50.577,44.235,52.274,43.655,53.858,44.053z"/>
	</g>
</g>
</svg>
