<?xml version="1.0" encoding="iso-8859-1"?>
<!-- Generator: Adobe Illustrator 30.1.0, SVG Export Plug-In . SVG Version: 9.03 Build 0)  -->
<svg version="1.1" id="Layer_1" xmlns="http://www.w3.org/2000/svg" xmlns:xlink="http://www.w3.org/1999/xlink" x="0px" y="0px"
	 viewBox="0 0 67 158" style="enable-background:new 0 0 67 158;" xml:space="preserve">
<g>
	<g>
		<path style="fill:#FDFDFD;" d="M3,0l59.108,48.819C63.801,50.217,65.057,51.457,67,51v34c-0.419-6.42-1.912,14.7-1.854,10.055
			L64.77,124.91l-57.688,30.1C5.294,155.943,3.507,156.294,3,158H0V0H3z M3.134,5.972c0.383,0.893-2.16,0.853-1.104,3.073
			c-1.528,2.809-1.755,6.816,0.099,9.551C1.424,20.214,0.573,22.178,1,24c0.397,1.691,0.765,3.32,0,5
			c-0.222,0.488,0.375,1.313,0.181,1.819c-1.094,2.86,0.703,4.781,2.982,6.364c-0.824-0.002-2.654-0.687-3.082,0.363
			C0.635,38.64,1.147,40.005,1,41c-0.06,0.406,0.224,0.832,0.194,1.241C1.053,44.158,1,46.078,1,48v1v4
			c0,1.277,0.205,2.546,0.283,3.816c0.041,0.666-0.422,1.443-0.037,2.383C1.464,59.729,2.509,59.731,3,60
			c0.21,0.946-0.309,2.297-1.051,2.949C0.428,64.286,1.237,66.349,2,68c-0.392,0.938-0.975,1.951-1,3
			c-0.036,1.487-0.147,3.065,0.024,5.005C1.14,77.336,2.526,76.819,3,77c-1.281,0.841-1.944,2.169-2.069,3.509
			C0.747,82.477,1.393,84.064,3,85c-1.805,4.105-3.445,9.016-1,13c0.145,0.246-0.071,0.709,0,1c-1.33,1.32-1,3.257-1,5v1
			c0,4.135-0.384,8.312,0.234,12.757C1.341,118.239,2.636,118.026,3,118c-0.624,1.546-2.575,2.478-1.788,4.265
			c0.836,1.9,0.14,5.065,2.788,4.735c-0.324,0.282-0.585,0.841-1,1c-0.407,0.156-1.009-0.094-1.391,0.169
			c-0.409,0.282-0.698,0.851-0.691,1.72l0.113,13.095L3,142v1v1c-3.165-1.275-2.017,8.574-1.768,9.855
			c0.164,0.842,1.488,0.442,1.837,0.21c0.698,1.244,1.736,0.663,2.479,0.027c1.178-1.01,1.901-2.235,0.411-3.092l0.226-2.646
			l0.874-0.068c0.466,1.029,1.293,1.81,2.077,2.145c2.455,1.051,10.209-3.381,10.131-5.208c0.276-0.022,0.548-0.139,0.824-0.144
			c3.298-0.064,7.139-2.341,8.856-5.163l0.759,0.026c1.981,0.069,3.542-1.22,5.297-1.942c1.18-0.485,2.33-0.974,3.018-2.126
			c0.239-0.399,0.535-0.854,0.887-1.144l1.011-0.835c1.393-0.1,2.81-0.292,4.084-0.895c0.49-0.232,0.698-1.095,1.189-1.294
			c3.566-1.445,18.795-7.856,12.882-12.997c0.641,0.234,1.562-0.343,2.301,0.33c0.803,0.731-0.173,2.279,1.818,3.291
			c-0.128-7.688,2.833-7.835-1.19-10.33l0.89-1c2.051-2.306,1.728-6.454,0.11-9v-1c1.053-0.99,1.436-2.589,1.113-4
			c0.78,0.015,0.926-0.989,0.886-1.965L63.47,82.257l0.328-4.102C63.829,77.77,64.015,77.385,64,77
			c-0.046-1.185,0.172-2.27-0.134-4.038c-1.198,0.331-1.863,0.996-2.748,1.017c-0.493,0.012-0.997-0.469-1.483-0.543
			c1.195-0.319,2.054-1.168,2.54-2.235c0.598-0.241,1.519-0.324,1.625-0.907c0.201-1.105-0.354-1.922-0.307-2.559
			c0.159-2.168,0.063-4.364,0.281-6.509L64,59c0.056-0.554-0.291-1.146-0.238-1.703c1.308-0.109,2.277-0.192,2.318-1.759
			C66.121,53.952,65.974,52.746,64,53c-0.311-0.331-0.775-0.593-1-1c-1.216-2.203-3.469-4.102-6.047-4.118
			c-0.016-1.972-2.077-3.095-3.701-3.722c-0.401-0.389-0.734-0.861-1.163-1.22c-0.634-0.531-1.45-0.784-2.249-0.934
			c-0.458-1.78-1.957-2.721-3.383-3.669c-2.559-1.702-4.279-4.635-7.336-5.354c-0.772-0.182-1.401-1.161-2.318-1.084
			c-1.377-1.588-2.67-5.203-4.638-2.911l-0.698-0.131c-0.399-1.608-1.256-3.056-2.475-4.058l-2.105-1.73
			c-1.447-1.189-2.853-2.324-4.824-2.312c-0.259-0.745-1.081-1.223-1.381-1.921C19.839,16.869,18.04,15.584,16,15l-1.068-1.031
			C13.186,12.283,11.46,10.3,8.99,9.89c-0.28-0.047-0.665,0.034-0.927-0.003C7.577,7.494,5.613,5.763,3.134,5.972
			c-0.285-1.099-0.5-2.517-1.835-2.894C0.827,3.468,0.867,5.048,1.04,5.436C1.279,5.969,2.513,5.713,3.134,5.972z"/>
		<path style="fill:#FDFDFD;" d="M7,115c2.534,1.624,0.93,3.536-2,3c-0.297,2.728-0.961,2.477-2,0C0.582,115.32,4.719,111.956,7,115
			z"/>
		<path style="fill:#EDEDED;" d="M13.939,34.902c1.741,0.833,3.661,1.502,5.76,2.01c1.22-2.538,2.47-1.969,2.301,0.766
			c1.142-0.508,2.645,0.36,3.68,1.16c0.641-1.397,1.649-1.54,2.856-0.58c1.073-1.277,2.512-2.029,4.315-2.257
			c-1.37-1.975-0.975-2.812,0.906-1.239c1.811-0.243,4.013,1.236,4.27,3.202l1.92-1.036c2.512,2.55,4.682,3.02,6.51,1.409
			c1.426,0.949,2.925,1.889,3.383,3.669c0.867,0.297,0.837,0.605-0.05,0.924C48.763,46.193,47.288,46.006,46,43
			c-0.756,1.263-1.108,2.66-1.055,4.193C44.143,48.44,43.162,49.375,42,50c2.06,1.277,1.455,2.609-0.913,2.793
			c-0.55,1.467-0.277,2.862,0.821,4.186C44.176,57.341,45.54,58.348,46,60c0.331-0.85,0.664-0.849,1,0
			c-0.026-1.416,1.912-1.92,3.15-2.123c0.642-1.857,1.521-1.83,2.042,0.066c2.226,0.202,3.201-0.438,4.879-1.741
			c2.087-1.585,5.403-1.39,6.691,1.096C63.709,57.854,64.056,58.446,64,59c0.017,1.739-2.115,1.158-3.247,0.265
			c-0.781,1.614-2.526,2.688-3.572,0.908c-0.607,1.684-2.326,2.522-5.157,2.514c-0.919,1.384-1.933,1.634-3.044,0.752
			c-0.697,1.397-2.056,1.935-4.077,1.616c1.597,2.512-0.289,6.213-2.635,7.572C44.033,72.865,43.379,74.188,42,75
			c-0.284,0.873-0.618,0.86-1,0c-0.361,2.073-1.028,2.739-2,2v-1c-1.228,0.097-1.235-1.08-0.817-2.069
			c-1.735-1.727-0.924-3.966,1.646-3.902c-0.852-1.352-0.467-2.785,1.153-4.298L42,63c-0.873-0.284-0.86-0.618,0-1l0.397-1.222
			C41.196,60.148,38.731,59.222,35,58c-0.118,3.066-0.898,2.594-3,1c-1.281,0.857-2.919,1.578-4.915,2.163
			c0.303,2.28-0.27,4.225-2.868,3.78C23.473,64.697,23,63.716,22.799,62c-2.033-0.858-3.455-1.631-1.742-3.9
			c-3.097-0.396-4.564-4.985-2.244-7.1c-0.183-1.939,0.604-1.936,1.187,0c0.962-0.166,1.562,0.874,1.798,3.118
			c0.872,0.184,0.864,0.488,0.034,0.903C23.063,56.082,24.119,56.408,25,56c-1.668-0.67-1.668-1.67,0-3
			c-1.516-0.361-1.632-3.23,0-3.449c-0.094-2.474,0.483-4.312,2.677-5.302c-0.952-0.715-1.797-1.742-2.535-3.081
			c-0.43,0.83-0.853,0.825-1.268-0.013c-0.649,2.286-2.26,3.339-4.575,2.764C19.337,45.572,18.904,46.933,18,48
			c3.144,0.291,3.134,1.075,0.813,3c-1.385,0.879-4.381,0.538-5.627-0.73c-2.02-1.193-1.041-3.765-0.131-5.415
			c-1.807-2.458,1.636-5.729,3.79-2.801c0.374-1.364,0.026-2.317-1.042-2.858c-0.075,2.39-2.35,2.674-3.759,0.672
			c-2.342,1.167-4.945-1.58-3.307-3.78c-1.279-0.87-1.005-2.786,0.911-2.115c0.387-0.789,0.745-0.734,1.076,0.113
			C11.406,32.491,12.478,32.762,13.939,34.902z"/>
		<path style="fill:#EBEBEB;" d="M39,76c-0.014,0.325,0.04,0.677,0,1c1.102,0.24,1.769,0.907,2,2
			c0.933,0.991,1.896,2.342,2.888,4.051c1.862,0.961,1.671,1.856-0.394,2.017c0.708,2.549-2.105,4.844-4.546,3.871
			c1.266,1.479,0.73,2.044-0.966,1.05c0.365,1.579-0.355,2.7-2.162,3.364c-1.106,0.532-0.756,1.716,1.049,3.552
			C37.912,96.44,38.622,97.139,39,99c2.474-1.437,6.423-0.028,7,3c1.098-2.161,1.5-0.939,2,1c0.469-0.617,1.209-1.502,1.739-1.307
			c1.394,0.515,11.564,6.325,11.961,6.889c0.463,0.658,0.326,1.597,0.19,2.417L61,112l-2.373,0.871
			c-3.469-3.147-6.012-3.438-7.627-0.871c-0.291,0.716-0.625,0.703-1,0c-1.436,0.063-2.173-0.586-2-2c-0.629-0.296-0.616-0.63,0-1
			l0.266-1.973C44.543,105.501,41.121,103.825,38,102c-2.828,0.25-3.319-0.489-2-3c-2.487,0.599-3.48-0.075-2.979-2.021
			C31.735,98.657,30.022,100.543,28,99c-0.475-0.358-0.489-0.737-0.045-1.136c-1.742-2.016-1.01-2.54,1.281-1.22
			c0.197-0.879,0.211-2.018,0.042-3.42c-1.848-2.951-2.943-6.025-3.286-9.223c-2.843-0.105-3.073-1.263-0.992-3
			c-1.173-1.165-1.91-2.051,0.005-2.399c0.414-0.828,0.766-0.768,1.058,0.136c0.618-0.045,1.006,0.633,1.165,2.034
			c0.799-2.279,2.579-1.13,2.898,0.966c1.935,0.014,2.346,1.104,0.921,2.402c0.862,0.766,2.137,0.473,3.827-0.879
			c0.196-1.165,0.529-2.252,1-3.26c-2.926-0.094-2.696-3.429,0.126-4c-1.45-1.357-0.856-1.677,1-1
			c0.555,0.229,0.993,0.47,1.022,0.754c0.309,3.002-2.058,2.955-0.234,0.333C37.933,75.878,38.418,75.905,39,76z"/>
		<path style="fill:#737373;" d="M62,102c1.618,2.546,1.941,6.694-0.11,9L48,103c-1.506-1.19-0.854-3.648,0-5
			c0.948-1.163,2.886-1.84,5.813-2.031C56.484,98.1,59.213,100.111,62,102z"/>
		<path style="fill:#898989;" d="M56,118c0.992-2.65,2.13-2.118,2.071,0.709c5.913,5.142-9.316,11.553-12.882,12.997
			C43.131,130.66,42.735,129.758,44,129l4.339-10.201c-0.772-0.832,0.369-1.877,3.421-3.136L56,118z"/>
		<path style="fill:#3A3A3A;" d="M17,98c3.172-0.183,2.767,1.848,0,3c1.112,2.5-0.906,3.963-3,2c0.425,0.991-0.575,1.658-3,2
			c0.152,1.487-2.847,0.677-4,0c-2.594,0.282-4.594-0.051-6-1c0-1.743-0.33-3.68,1-5c2.079-1.973,4.178-3.913,6.298-5.819
			C11.29,94.776,14.19,96.383,17,98z"/>
		<path style="fill:#DEDEDE;" d="M31,61c-0.335,2.279-0.002,4.279,1,6c-0.008,1.864-0.008,3.864,0,6c0.543,0.301,0.529,0.636,0,1
			c-0.319,2.656-1.239,2.541-2,0c-0.989,1.611-1.64,1.958-2,0c-0.644-0.295-0.631-0.629,0-1c-1.37-4.423-1.978-5.399-1.824-2.928
			l-1.512,1.746c0.168,0.907-0.06,1.719-0.685,2.436c2.813,0.222,2.791,2.59,1.026,4.346L25,81
			c-2.745,2.655-6.013-1.184-2.357-2.843c-0.923-1.287-2.1-2.289-3.533-3.005c-0.717,1.205-3.273,3.504-4.013,1.751
			C12.7,79.145,8.114,81.454,5,82c1.794,1.057,0.773,1.431-1,2c1.248,1.569,0.67,2.102-1,1c-1.607-0.936-2.253-2.523-2.069-4.491
			C1.056,79.169,1.719,77.841,3,77c1.193-2.157,4.295-1.802,5.832-0.189c2.431-1.12,3.487-2.305,3.168-3.556
			c-1.271-1.997,1.48-3.157,3.083-2.077c1.509,2.1,2.785,2.241,3.829,0.422L21.147,72c0.444-1.828,0.401-3.542-0.13-5.143L22,66
			c0.657-1.466,1.396-1.819,2.217-1.057c1.851-0.99,2.248-1.842,2.868-3.78C29.016,59.717,30.321,59.663,31,61z"/>
		<path style="fill:#949494;" d="M61,112c4.023,2.495,1.062,2.642,1.19,10.33c-1.991-1.012-1.016-2.56-1.818-3.291
			c-0.739-0.673-1.66-0.096-2.301-0.33C57.39,118.46,56.787,117.974,56,118l-5.169-1.794c0.496-1.233,0.552-2.635,0.169-4.206
			c-0.321-1.412,0.088-3.043,0.145-5.197C55.03,108.047,57.935,110.099,61,112z"/>
		<path style="fill:#777777;" d="M15,133l1.262,0.327c-0.329,5.463-0.494,8.194-0.494,8.194c-3.729-0.143-8.136,1.138-10.279,3.767
			C5.22,145.618,3.033,144.042,3,143v-1c-0.516-2.483,0.653-8.45,3.756-8.079c-0.074-3.031,4.29-4.41,6.016-1.84
			C14.114,130.895,15.017,131.189,15,133z"/>
		<path style="fill:#3F3F3F;" d="M9.525,85.157C11.64,86.47,12.93,89.005,10.037,90c-1.388,0.566-1.685,2.049-0.892,4.45
			C6.663,95.075,4.282,96.258,2,98c-2.445-3.984-0.805-8.895,1-13c0.166-0.379,0.917-0.601,1-1
			C5.314,82.819,10.426,83.176,9.525,85.157z"/>
		<path style="fill:#D8D8D8;" d="M49.79,42.929c0.588,0.792,0.692,1.825,0.312,3.1c0.338,0.783,0.586,0.451,0.774-0.633
			c-1.473-0.45-0.263-3.002,1.213-2.457c0.429,0.36,0.762,0.832,1.163,1.22c1.04,2.404,2.273,3.645,3.701,3.722
			c1.078,1.651,2.103,3.396,3.073,5.234c1.374,2.388-0.616,3.597-2.955,3.085c-0.654,1.24-1.108,1.409-1.525-0.014
			c-2.187,0.176-4.273,0.428-6.257,0.756C49.031,58.095,48.157,59.29,47,60c-0.319-0.041-0.688,0.075-1,0
			c-1.618-1.231-2.318-2.533,0-3c-1.896-0.307-1.781-1.096,0-2c-2.013-0.288-2.123-2.087-0.129-2.612
			c-2.553,0.049-3.259-0.725-2.118-2.32c-0.859-1.139,0.191-2.079,1.192-2.875C44.773,45.572,45.125,44.174,46,43
			C47.243,43.382,48.545,43.24,49.79,42.929z"/>
		<path style="fill:#D2D2D2;" d="M57.181,60.173l3.651-0.087c1.327-0.508,3.088-0.486,2.942,1.139
			c-0.218,2.145-0.122,4.341-0.281,6.509c-0.33,1.317-0.77,2.472-1.318,3.466c-1.825,1.268-5.634,2.385-6.27-0.201
			c-2.601-0.9-2.931-2.115-0.934-4.05c-0.867-2.201-1.524-2.491-1.971-0.871c-0.115,2.73-1.026,2.639-2.039,0.136
			c-1.912,1.303-2.088-0.968-1.98-2.776C51.004,60.797,53.944,59.93,57.181,60.173z"/>
		<path style="fill:#757575;" d="M19.265,145.223c0.079,1.827-7.676,6.259-10.131,5.208c-0.784-0.335-1.611-1.116-2.077-2.145
			c-1.157-0.82-2.009-2.045-2.555-3.677l9.323-3.31C14.835,139.751,16.648,141.059,19.265,145.223z"/>
		<path style="fill:#939393;" d="M5,118c2.239-3.12,6.86-0.279,6,3l1.193,0.739l-2.856,6.15C8.416,131.366,4.902,129.436,4,127
			c-2.649,0.33-1.952-2.835-2.788-4.735C0.425,120.478,2.376,119.546,3,118C3.524,117.963,4.425,118.07,5,118z"/>
		<path style="fill:#E1E1E1;" d="M26.887,23.068l2.105,1.73c1.04,2.444,1.867,5.602,1.079,8.041
			c-0.67,3.017-1.504,2.922-2.803,0.161c-1.322-0.84-1.769-2.307-1.341-4.4l-1.111-0.938c-1.093-0.156-2.325-0.186-3.696-0.089
			c-0.143,0.91-0.505,0.958-1.073,0.194c-1.393,0.863-2.05,0.798-1.709-0.966c-0.779-0.523-1.583-0.869-2.409-1.037
			c-0.163,0.882-0.445,0.867-0.84,0.016c-1.448-0.678-2.456-0.182-3.026,1.488c0.436,1.089,0.451,2.057,0.047,2.903
			C9.678,32.046,8.308,31.656,8,29c-1.945-0.126-1.979-0.912-0.084-1.449C8.324,25.421,5.213,25.825,4,27
			c1.915,2.318-0.951,3.736-3,2c0.765-1.68,0.397-3.309,0-5c0.809-3.183,10.914-3.045,12,0c0.561-1.95,1.444-1.957,2,0
			c1.196-1.277,3.155-2.277,5.879-3c0.22-0.935,0.614-1.016,1.184-0.244C23.158,22.351,24.766,23.122,26.887,23.068z"/>
		<path style="fill:#898989;" d="M6,17c0.962-2.463,1.962-2.463,3,0c1.663,1.023,3.168,1.361,4.516,1.015
			C14.666,20.758,14.494,22.753,13,24H1c-0.427-1.822,0.424-3.786,1.129-5.404C0.84,15.039,4.618,13.752,6,17z"/>
		<path style="fill:#E0E0E0;" d="M9.931,60.663c0.952-2.897,2.27-2.692,3.069,0.161c1.375-0.455,1.375-0.063,0,1.176
			c0.091,0.353,0.445,0.763,1.063,1.228c1.191,2.146,0.439,2.666-1.837,2.005c2.269,1.564,2.933,2.766-0.081,3.622
			C14.086,68.918,13.99,69.684,12,70c1.023,1.233,0.462,1.694-1,1c-0.302,0.536-0.636,0.523-1,0
			c-1.187-0.011-2.202,0.353-3.045,1.093c-1.535,2.62-3.248,2.637-4.823,0.039C1.178,72.313,1.315,71.634,2,70.869
			c-0.228-1.78,0.739-2.178,2.165-0.966c0.809-1.633,1.55,0.475,1.469,0.394C4.624,69.292,3.092,67.12,3.94,66.06
			c-0.524-1.247-1.188-2.285-1.991-3.112C2.691,62.297,3.21,60.946,3,60C4.963,57.482,8.064,59.117,9.931,60.663z"/>
		<path style="fill:#D6D6D6;" d="M64,77c0.015,0.385-0.171,0.77-0.202,1.155l-0.417,1.351c-3.18,0.242-3.15,1.159,0.089,2.751
			l0.529,12.778c0.04,0.976-0.105,1.98-0.886,1.965c-1.771,0.094-2.512-1.555-2.22-4.948c-1.649,1.168-3.05,1.151-4.202-0.052
			c-2.15-0.192-4.204-2.492-3.633-4.701c-2.994-0.627-2.56-3.025-0.01-4.421c1.991-2,2.67-1.591,1.951,1.144
			c1.229,1.526,1.725,4.004-0.093,1.255c-0.183-0.277-0.085-0.739,0.093-1.255c-0.534-1.04-0.147-1.875,1.161-2.503
			c-0.462-2.182,0.051-3.635,1.536-4.361C59.482,75.664,63.307,74.017,64,77z"/>
		<path style="fill:#5A5A5A;" d="M63.113,97c0.323,1.411-0.06,3.01-1.113,4c-2.968-1.209-5.893-2.679-8.775-4.409
			C53.096,95.888,53.688,95.024,55,94c-1.358-2.396-1.007-2.904,1.69-2c1.304-0.806,4.429-2.865,5.63-1.501
			C63.804,92.183,62.7,95.195,63.113,97z"/>
		<path style="fill:#939393;" d="M3,128c3.447-0.065,8.342,3.818,3.756,5.921C5.831,136.8,5.236,139.955,3,142l-1.968,0.984
			l-0.113-13.095c-0.008-0.87,0.282-1.438,0.691-1.72C1.991,127.906,2.593,128.156,3,128z"/>
		<path style="fill:#808080;" d="M28.945,139.916c-1.717,2.822-5.558,5.099-8.856,5.163c-1.446-0.61-2.686-1.582-3.722-2.917
			c-2.697-1.208-1.483-2.206,3.64-2.994c-0.453-2.872,1.028-3.294,2.874-1.286C24.51,136.423,29.472,137.878,28.945,139.916z"/>
		<path style="fill:#E0E0E0;" d="M7.916,27.551L8,29c2.071,0.785,2.439,1.665,1.104,2.642l0.545,2.332
			c-0.644,0.508-0.759,1.353-0.911,2.115c0.452,1.236,0.153,2.35-0.897,3.34c1.473,0.62,2.313,1.621,2.519,3.001
			c0.848,0.311,0.785,0.611-0.118,0.9c-1.246,1.627-3.646,1.678-5.293,0.598c-2.074,0.68-3.25,0.599-3.755-1.688
			C1.224,41.832,0.94,41.406,1,41c1.162-1.097,2.217-2.369,3.163-3.817c1.699-2.606,1.048-4.048-1.953-4.329l-1.03-2.036
			C1.375,30.313,0.778,29.488,1,29l3-2C5.004,25.768,7.924,25.573,7.916,27.551z"/>
		<path style="fill:#E5E5E5;" d="M61.118,73.979c0.727,1.588-0.43,2.436-3.47,2.543C57.426,79.403,55.529,80.575,53,79
			c-0.818-0.024-1.19,0.281-1,1c2.778-0.793,3.564,1.358,1.047,2.878C51.75,84.575,50.734,84.282,50,82
			c-0.741,2.21-1.351,2.248-2-0.031c-0.07,2.938-2.589,3.659-4.112,1.083c-2.109-0.295-2.219-2.486-0.187-3.051
			c-0.434-2.443,2.373-2.9,4.312-3.165c-0.872-0.221-0.838-0.512,0.034-0.866c0.201-1.23,0.623-1.553,1.268-0.969
			c0.833,0.739,1.728,0.739,2.685,0c0.284-0.873,0.618-0.86,1,0c0.991-0.9,2.664-1.563,4-1c-0.408-2.006,1.632-2.108,2.635-0.564
			C60.121,73.51,60.625,73.991,61.118,73.979z"/>
		<path style="fill:#DCDCDC;" d="M12.089,51.157c0.709,1.139,0.627,2.547-0.246,4.222c0.996,3.658,0.358,5.42-1.912,5.284
			c-2.113,1.222-3.178,0.015-3.195-3.622c-2.254,1.203-4.072,1.128-5.453-0.225C1.205,55.546,1,54.277,1,53
			c1.088-1.427,1.088-2.761,0-4v-1c0.917-0.982,1.376-1.473,1.376-1.473c-0.082-3.63,0.776-4.495,2.573-2.598
			c1.423,0.382,2.381,1.992,2.873,4.83L12.089,51.157z"/>
		<path style="fill:#5F5F5F;" d="M4,108c2.836-1.749,6.206,3.227,3,5c2.058-0.011,1.542,0.91,0,2c-1.867,0.651-3.16,0.919-4,3
			c-0.364,0.026-1.659,0.239-1.766-0.243C0.616,113.312,1,109.135,1,105C2.055,104.436,3.055,105.436,4,108z"/>
		<path style="fill:#ECECEC;" d="M22.995,132.102c-0.348-1.918,0.441-1.982,1.194-0.102c1.976-1.145,5.638-0.09,7.634,1.104
			c2.469,0.6,4.534,1.524,6.196,2.77C37.33,137.026,36.18,137.515,35,138c-2.095,0.453-3.896,0.122-5.404-0.992l-0.559,0.084
			l-3.93-1.218C23.097,137.256,18.423,135.43,18,133c-0.861,1.715-1.861,1.715-3,0c-0.725-0.347-1.47-0.652-2.228-0.919
			c-2.675,0.686-2.867-0.396-0.761-2.144C13.588,126.876,21.806,129.003,22.995,132.102z"/>
		<path style="fill:#D9D9D9;" d="M18,133l0.746,1.944c-1.553,1.484-1.132,2.892,1.262,4.224c-0.68,0.502-2.959,0.821-3.27,1.661
			c-0.046,2.411,2.584,2.966,3.351,4.249c-0.276,0.005-0.548,0.122-0.824,0.144c-1.538-0.451-2.455-2.926-4.501-3.201
			c-2.94-0.396-5.661,1.532-8.577,2.495c-0.898,0.653,0.461,2.865,0.871,3.769l-0.874,0.068C3.129,149.44,1.315,146.619,3,144v-1
			c-0.211,1.547,10.429-1.561,11.263-2.723c1.533-2.136,0.499-5.121,0.737-7.277C15.84,131.499,17.048,132.959,18,133z"/>
		<path style="fill:#737373;" d="M6,17c-1.378,0.063-3.377,0.082-3.871,1.596c-1.854-2.734-1.627-6.742-0.099-9.551
			c1.649,0.772,3.476,1.309,5.483,1.61C7.891,11.096,7.936,17.775,6,17z"/>
		<path style="fill:#6D6D6D;" d="M9.931,60.663C7.71,61.875,5.308,60.637,3,60c-0.491-0.269-1.536-0.271-1.754-0.801
			c-0.385-0.939,0.078-1.717,0.037-2.383c2.354-0.771,4.514-2.09,7.566-1.918C9.464,56.249,8.224,63.192,9.931,60.663z"/>
		<path style="fill:#969696;" d="M3,144c0.926,1.547,1.936,3.048,3.184,4.354L5.958,151c0.536,1.794-1.074,3.398-2.89,3.066
			c-0.348,0.232-1.673,0.632-1.837-0.21C0.983,152.574-0.165,142.725,3,144z"/>
		<path style="fill:#3A3A3A;" d="M46.457,38.336c0.34,0.947,0.241,1.941-0.266,2.475c-2.21,2.328-7.82-2.633-8.165-2.848
			C37.375,37.323,37.366,36.668,38,36c-0.752-2.225-0.378-3.231,1.121-3.018C42.178,33.701,43.898,36.634,46.457,38.336z"/>
		<path style="fill:#888888;" d="M14.932,13.969c0.486,1.821,0.092,3.753-1.183,5.795c0,0-1.583-0.921-4.749-2.764
			c-1.616-0.112-2.122-1.774-1.515-4.987C5.426,10.341,6.494,10.053,8.99,9.89C11.46,10.3,13.186,12.283,14.932,13.969z"/>
		<path style="fill:#DEDEDE;" d="M35.701,128.045c1.139,0.55,3.27,0.356,6.395-0.582L44,129c0.524,0.841,0.913,1.755,1.189,2.706
			C44.698,131.905,44.49,132.768,44,133c-1.312-0.802-3.971-1.586-4.084,0.895l-1.011,0.835c-2.182,0.124-5.283-0.377-7.083-1.625
			C29.52,130.673,32.767,125.56,35.701,128.045z"/>
		<path style="fill:#797979;" d="M4.163,37.183c-2.28-1.583-4.076-3.504-2.982-6.364c2.428-0.1,5.839,1.034,6.196,3.974
			C7.56,36.295,5.191,37.185,4.163,37.183z"/>
		<path style="fill:#E4E4E4;" d="M9.337,127.89c2.329-2.238,4.095-0.795,2.674,2.047c0.37,0.634,0.33,1.521,0.761,2.144l-6.016,1.84
			C7.598,131.303,4.365,129.771,3,128c0.415-0.159,0.676-0.718,1-1C5.687,127.708,7.515,127.938,9.337,127.89z"/>
		<path style="fill:#B0B0B0;" d="M10.037,90c1.165,0.709,0.787,2.056-0.037,3c5.027,0.062,7.361,1.395,7,4
			c0.873,0.284,0.86,0.618,0,1c-10.752-3.789-6.827-4.343-15,1c-0.071-0.291,0.145-0.754,0-1c0.694-2.042,3.404-2.414,5.11-4.1
			C8.378,92.647,7.671,89.292,10.037,90z"/>
		<path style="fill:#747474;" d="M63,52c0.225,0.407,0.689,0.669,1,1c1.603,0.939,1.448,3.502-0.238,4.297
			c-2.293,0.192-4.752,0.288-6.691-1.096c0.422-1.415,1.817-2.265,2.955-3.085C59.16,50.177,60.922,50.07,63,52z"/>
		<path style="fill:#5F5F5F;" d="M63.798,78.155l-0.328,4.102c-0.949,0.741-2.201,0.654-3.096,0.547
			c-1.432-0.171-1.621-2.285-1.143-4.239C59.554,77.245,62.58,78.336,63.798,78.155z"/>
		<path style="fill:#7F7F7F;" d="M63,52c-1.014,0.241-2.11,0.493-2.974,1.115c-1.11,0.046-2.503,0.041-3.118-0.712
			c-1.244-1.522,0.056-3.135,0.044-4.522C59.531,47.898,61.784,49.797,63,52z"/>
		<path style="fill:#D3D3D3;" d="M16,15c2.559,1.41,1.927,3.791-1,4c1.463,0.18,1.34,0.476,0,1c2.927,0.002,2.803,3.341,0,4
			c-0.646-0.08-1.348,0-2,0c1.377-3.87-1.382-4.879-4-7c1.281,0.012,2.526,0.33,4.28,1.081c1.306-1.074,1.428-2.7,1.651-4.113L16,15
			z"/>
		<path style="fill:#888888;" d="M38.906,134.73c-0.352,0.291-0.648,0.745-0.887,1.144c-2.119,0.222-4.605,0.083-6.9-1.087
			c-0.069-0.608,0.444-1.325,0.704-1.683C34.19,131.742,37.244,132.622,38.906,134.73z"/>
		<path style="fill:#808080;" d="M4.949,43.929c-1.789-1.012-0.171,2.687-1.672,3.814C2.683,48.189,1.718,48.021,1,48
			c0-1.922,0.053-3.842,0.194-5.759C2.723,42.067,4.499,42.248,4.949,43.929z"/>
		<path style="fill:#676767;" d="M56.953,47.882c-0.693,0.513-1.514,3.318-2.753,2.373c-2.215-1.688-0.862-4.426-0.948-6.095
			C54.875,44.787,56.936,45.91,56.953,47.882z"/>
		<path style="fill:#7F7F7F;" d="M1,53v-4c2.375-0.375,4.17,1.129,5.967,3.656C5.022,53.421,3.015,52.82,1,53z"/>
		<path style="fill:#8C8C8C;" d="M8.063,9.887l-0.46,1.282L2.03,9.045c-1.055-2.22,1.487-2.18,1.104-3.073
			C5.613,5.763,7.577,7.494,8.063,9.887z"/>
		<path style="fill:#E7E7E7;" d="M8.063,9.887C8.324,9.924,8.709,9.843,8.99,9.89C8.011,11.634,7.094,15.455,9,17
			c-0.998-0.009-2.003-0.045-3,0c0.772-1.432,1.838-3.881,0.583-5.57C5.448,9.901,2.385,11.11,2.03,9.045L8.063,9.887z"/>
		<path style="fill:#D1D1D1;" d="M3.94,66.06c1.214,1.125,1.733,2.796,2.963,4.491c-1.943,0.799-2.178-0.396-2.737-0.648
			C2.647,70.676,1.453,69.583,2,68c-0.763-1.651-1.572-3.714-0.051-5.051C3.101,63.418,3.597,64.835,3.94,66.06z"/>
		<path style="fill:#575757;" d="M64,77c-2.1,0.071-4.216-0.184-6.304,0.157c-1.849,0.756-2.06,0.012-0.047-0.635
			c0.786-1.33,2.471-1.457,3.47-2.543c0.885-0.021,1.551-0.685,2.748-1.017C64.172,74.73,63.954,75.815,64,77z"/>
		<path style="fill:#717171;" d="M20.682,18.835C19.067,20.037,16.894,19.659,15,19l1-4C18.04,15.584,19.839,16.869,20.682,18.835z"
			/>
		<path style="fill:#707070;" d="M31.467,28.856c1.488,2.468,1.759,6.681-1.396,3.983c-1.741-2.292-1.109-5.302-1.079-8.041
			C30.211,25.8,31.069,27.248,31.467,28.856z"/>
		<path style="fill:#959595;" d="M44,133c-1.274,0.603-2.691,0.795-4.084,0.895c-0.454-0.353-0.583-0.551-0.966-0.686
			c-0.86-0.303-1.43-1.297-0.864-1.651c1.25-0.782,4.14-0.753,5.307-0.472C44.036,131.241,44.197,132.175,44,133z"/>
		<path style="fill:#5A5A5A;" d="M4.163,37.183c0.962,0.668,1.252,2.412,0.696,3.159C4.061,41.411,1.967,41.077,1,41
			c0.147-0.995-0.365-2.36,0.081-3.454C1.509,36.496,3.34,37.181,4.163,37.183z"/>
		<path style="fill:#6D6D6D;" d="M62.175,71.201c-0.487,1.066-1.345,1.916-2.54,2.235C58.945,74.091,57.771,73.785,57,74
			c-1.695,0.88-2.063,0.672-1-1c-2.052-0.123-2.022-1.137-0.094-2L62.175,71.201z"/>
		<path style="fill:#565656;" d="M36.803,31.898c1.547,1.811-1.342,1.771-2.908,1.11c-1.91,0.88-2.487-0.461-1.73-4.021
			C34.133,26.695,35.426,30.31,36.803,31.898z"/>
		<path style="fill:#939393;" d="M35,138c-1.755,0.722-3.316,2.011-5.297,1.942c-1.678-1.276-2.199-2.183-0.108-2.934
			C31.19,135.488,33.667,136.534,35,138z"/>
		<path style="fill:#8D8D8D;" d="M26.887,23.068c-0.336,1.309-2.398,1.029-3.378,0.983c-1.744-0.081-1.475-2.1-1.446-3.295
			C24.034,20.744,25.441,21.88,26.887,23.068z"/>
		<path style="fill:#EAEAEA;" d="M33.895,33.008c0.812,0.403,0.728,0.709-0.192,0.924c0.882,0.01,0.859,0.299,0.052,0.829
			c-0.872-0.572-0.697,0.794-0.906,1.239c-2.874,0.932-3.977-0.459-2.78-3.161c1.015-0.051,1.641-0.417,1.531-1.221
			c-0.148-1.082,0.073-1.927-0.134-2.762l0.698,0.131C32.619,30.379,33.065,31.789,33.895,33.008z"/>
		<path style="fill:#C5C5C5;" d="M7,105c0.873,0.284,0.86,0.618,0,1c-0.561,1.039-1.561,1.706-3,2c-0.803-1.084-2.339-1.717-3-3v-1
			C3.057,103.874,5.198,103.907,7,105z"/>
		<path style="fill:#C6C6C6;" d="M62,101v1c-7.264-2.756-6.636-6.737-14-4c-1.688-1.498-1.688-2.165,0-2c0.747-2.15,5.216-3.377,7-2
			C54.284,99.321,59.69,97.816,62,101z"/>
		<path style="fill:#B9B9B9;" d="M39.121,32.982C39.106,34.087,39.156,35.478,38,36c-1.94-0.156-3.372-0.846-4.297-2.068
			c0.016-0.311,0.157-0.614,0.192-0.924c1.069-0.048,2.165-0.293,2.908-1.11C37.72,31.82,38.349,32.8,39.121,32.982z"/>
		<path style="fill:#5A5A5A;" d="M63.493,67.735c-0.047,0.637,0.508,1.454,0.307,2.559c-0.106,0.582-1.027,0.665-1.625,0.907
			c0.799-1.059-0.535-1.951-1.009-3.645C60.94,66.745,63.014,67.151,63.493,67.735z"/>
		<path style="fill:#F2F2F2;" d="M20.682,18.835c0.3,0.698,1.122,1.176,1.381,1.921c-0.395,0.002-0.789,0.218-1.184,0.244
			c-2.03,1.768-4.672,1.528-5.879-1c-0.512-0.28-0.532-0.734,0-1C16.896,19.016,18.791,18.958,20.682,18.835z"/>
		<path style="fill:#6E6E6E;" d="M52.089,42.94l-1.213,2.457c0.304,0.896,0.045,1.107-0.774,0.633
			c-0.922,0.187-0.978-0.715-0.909-1.33c0.072-0.631,0.357-1.18,0.596-1.77c0.11-0.27-0.022-0.638,0.05-0.924
			C50.639,42.156,51.455,42.408,52.089,42.94z"/>
		<path style="fill:#E0E0E0;" d="M63.762,57.297C63.896,55.868,64.048,54.439,64,53c1.974-0.254,2.121,0.952,2.08,2.538
			C66.039,57.106,65.07,57.188,63.762,57.297z"/>
		<path style="fill:#D1D1D1;" d="M2.131,72.131C5.027,72.954,5.471,75.235,3,77c-0.474-0.181-1.86,0.336-1.976-0.995
			C0.853,74.065,0.964,72.487,1,71c0.171-0.842,0.508-0.87,1-0.131L2.131,72.131z"/>
		<path style="fill:#D8D8D8;" d="M29.037,137.092l0.559-0.084c-0.164,0.977-0.132,1.973,0.108,2.934l-0.759-0.026
			c-1.618-1.592-3.817-2.259-6.063-2.034c-1.891-2.199-0.081-3.472,2.224-2.008C26.396,135.754,27.706,136.16,29.037,137.092z"/>
		<path style="fill:#959595;" d="M3.068,154.066c1.264-0.699,2.334-1.718,2.89-3.066c1.49,0.857,0.767,2.082-0.411,3.092
			C4.804,154.729,3.767,155.31,3.068,154.066z"/>
		<path style="fill:#666666;" d="M4.165,69.903C3.411,70.151,2.709,70.517,2,70.869C1.714,71.01,1.303,70.894,1,71
			c0.025-1.049,0.608-2.062,1-3C2.977,68.287,3.872,68.889,4.165,69.903z"/>
		<path style="fill:#989898;" d="M3.134,5.972C2.513,5.713,1.279,5.969,1.04,5.436C0.867,5.048,0.827,3.468,1.299,3.079
			C2.633,3.455,2.849,4.873,3.134,5.972z"/>
		<path style="fill:#656565;" d="M64,59l-0.226,2.226c-1.016-0.283-1.997-0.673-2.942-1.139c-0.854-0.004-0.842-0.29-0.079-0.822
			L64,59z"/>
		<path style="fill:#6E6E6E;" d="M18.813,51c0.694,2.084,1.744,5.085,2.244,7.1c-2.734,0.988-5.42,1.896-8.057,2.724
			c-0.892,0.192-2.255-0.541-3.069-0.161c2.355,0.105-2.823-5.352,2.158-9.506c-1.119-1.651-0.496-2.152,1.097-0.887
			c0.972-0.362,1.937-1.154,3.159-1.059C17.238,49.281,17.855,50.555,18.813,51z"/>
		<path style="fill:#CECECE;" d="M15.089,25.78c-1.103,1.248-0.823,1.242,0.84-0.016c0.524-0.364,1.026-0.659,1.551-0.809
			c0.593-0.17,1.32,0.109,1.272,0.921c-0.016,0.273-0.264,0.645-0.413,0.925c0.104,0.737,0.674,1.059,1.709,0.966
			c0.296-0.168,0.756-0.063,1.073-0.194c1.293-0.845,3.163-0.271,2.921,1.428c1.681,0.824,3.431,1.973,3.226,4
			c2.742,0.549,4.373,4.026,1.268,5.257c-0.338,0.378-0.75,0.653-1.074,0.917c-0.67,0.545-1.309-0.054-1.782-0.337
			c-1.469-0.434-3.362-1.345-2.738-2.934c-1.655-0.567-2.325-0.633-3.243,1.009c-1.722,0.602-4.469-0.873-5.76-2.01
			c-1.877-0.747-2.942-1.795-0.898-2.878c0.541-0.921,0.215-2.507-0.978-4.756c0.389-0.607-0.335-2.621,1.282-2.353
			C13.917,25.01,14.528,25.215,15.089,25.78z"/>
		<path style="fill:#717171;" d="M10.241,43.331c2.638-1.674,3.576-1.166,2.814,1.525c1.708,1.537,1.245,3.66,0.131,5.415
			c-0.385,0.144-0.773,0.617-1.097,0.887c-2.423,1.279-4.278,0.567-5.773-1.097c-1.747-1.946-1.117-3.854-1.368-6.131
			C6.538,42.419,8.543,41.959,10.241,43.331z"/>
		<path style="fill:#616161;" d="M36,67c2.284-1.154,4.052,0.601,3.829,3.029c-0.314,1.229-0.443,3.022-1.646,3.902
			C36.209,75.415,33.481,75.108,32,73c-2.014,0.132-2.323-1.477-2.052-3.413C30.105,68.462,31.144,67.921,32,67
			C34.076,64.478,35.409,64.478,36,67z"/>
		<path style="fill:#6A6A6A;" d="M37,61c1.652-0.052,3.921,0.597,5,2c3.248,1.142-0.189,5.613-2.171,7.029
			C38.272,69.424,36.757,68.538,36,67c-1.934,0.054-2.415-1.631-1.443-5.056C33.011,59.35,34.821,59.037,37,61z"/>
		<path style="fill:#5C5C5C;" d="M22.799,62c-0.808,2.697-1.841,3.673-3.098,2.929c-3.133,0.501-5.012-0.066-5.638-1.701
			c-0.403-0.054-1.43-0.039-2.004-0.678C11.875,62.344,12.479,62.033,13,62c2.038-1.941,4.724-3.241,8.057-3.9
			C21.336,59.225,23.882,60.023,22.799,62z"/>
		<path style="fill:#DEDEDE;" d="M48.98,63.439c0.237,1.681,0.605,3.205,1.104,4.572c0.988,2.028,2.313,2.546,3.977,1.554L55.906,71
			c-0.03,0.654,0.046,1.346,0.094,2c-0.681,0.878-1.681,1.544-3,2h-1c-0.928-0.729-1.823-0.729-2.685,0l-1.268,0.969
			C46.605,75.595,45.59,74.272,45,72c-0.19-2.252-0.222-4.567-0.097-6.945c0.514-0.861-0.228-1.959,1.54-1.818L48.98,63.439z"/>
		<path style="fill:#D4D4D4;" d="M27.677,44.249c0.254,1.98-0.326,4.889-2.677,5.302c-0.63,2.059-1.63,2.209-3,0.449l-2,1h-1.187
			c-0.333-1-0.254-2.028-0.813-3c0.221-1.055,0.962-2.027,1.992-2.06c1.263-1.758,2.557-3.353,3.882-4.785
			c0.419-0.01,0.853-0.043,1.268,0.013l1.271,0.611C26.179,43.121,26.6,43.945,27.677,44.249z"/>
		<path style="fill:#7C7C7C;" d="M35.996,54.12c-0.035,1.812-1.15,2.932-2.537,2.925c-1.683-0.009-2.911-0.152-4.252-0.252
			C27.712,55.211,29.546,49.301,32,51C34.419,49.411,35.751,50.451,35.996,54.12z"/>
		<path style="fill:#D7D7D7;" d="M36.425,43.304c0.503,0.379,0.394,0.665-0.249,0.871c-0.85,1.437-0.636,2.984,0.643,4.643
			c2.036,1.396,1.369,4.644-0.823,5.301C34.547,53.136,33.508,51.809,32,51l0.194-1.596c-1.896-0.842-2.299-1.989-1.207-3.441
			l1.394-3.643c-0.154-1.356,1.646-1.97,2.499-0.924l0.756,0.031C37.486,41.284,37.814,42.082,36.425,43.304z"/>
		<path style="fill:#757575;" d="M12.045,39.869c4.133,1.193,0.3,5.019-1.685,2.562c-1.553-0.185-3.933-0.608-4.456-2.824
			c-0.298-1.262,1.331-2.877,2.834-3.517C9.951,37.251,11.229,38.382,12.045,39.869z"/>
		<path style="fill:#686868;" d="M45,72c-1.108,1.577-2.019,1.786-2.732,0.627c-0.092-2.789,1.251-5.255,2.635-7.572
			c1.239,0.772,2.123,1.981,2.203,3.464C47.188,70.038,46.267,71.235,45,72z"/>
		<path style="fill:#868686;" d="M30.071,32.839c0.851,1.12,1.817,2.136,2.78,3.161c-0.411,0.876-1.001,1.542-1.774,2.527
			c-0.67,0.854-1.779,1.232-2.541-0.269c-0.241-1.793-0.52-3.598-1.268-5.257C28.199,33.263,29.152,32.885,30.071,32.839z"/>
		<path style="fill:#C7C7C7;" d="M15.803,39.197c1.467,0.275,1.735,1.603,1.042,2.858c-1.83,0.284-3.306,0.959-3.79,2.801
			c-0.751-0.676-2.003-0.87-2.814-1.525l0.118-0.9c0.811,0.718,1.463,0.274,1.575-0.305c0.134-0.695,0.202-1.709,0.11-2.256
			C13.245,39.41,14.572,39.446,15.803,39.197z"/>
		<path style="fill:#4E4E4E;" d="M23.874,41.155c0.342,1.013,0.122,3.144-0.699,4.226c-0.62,0.818-1.831,0.966-3.183,0.558
			c-1.522,1.32-1.753,0.646-0.693-2.021C20.225,42.126,21.689,41.207,23.874,41.155z"/>
		<path style="fill:#656565;" d="M42,62c-1.527,0.113-3.907-0.691-5-2c-2.23,2.608-4.608-0.896-2-2
			c3.592-1.534,10.87,3.399,8.354,3.809C42.984,61.87,42.53,61.973,42,62z"/>
		<path style="fill:#707070;" d="M30.987,45.963c0.84,1.23,2.395,2.1,3.18,3.953C34.488,50.801,32.605,50.782,32,51
			c-1.479,1.75-2.464,1.371-2.955-1.138c-0.088-0.958-0.693-1.806-0.205-2.542C29.443,46.412,30.415,46.285,30.987,45.963z"/>
		<path style="fill:#C4C4C4;" d="M43.753,50.068c0.674,0.723,2.065,1.246,2.118,2.32C45.408,53.281,45.454,54.151,46,55
			c0.032,0.646,0,1.347,0,2c-0.03,1.791-1.394,1.784-4.093-0.022c-1.755-0.75-1.829-2.739-0.821-4.186
			C41.589,51.972,41.949,50.974,42,50C42.694,48.585,43.618,48.34,43.753,50.068z"/>
		<path style="fill:#CBCBCB;" d="M35,58c-0.106,0.677-0.016,1.699,0.613,1.793L37,60c0.873,0.284,0.86,0.618,0,1
			c-1.702-0.135-2.247,1.115-2.111,2.468C35.019,64.769,35.306,65.984,36,67h-4c-0.784-1.98-0.451-4.314,1-7
			c-1.507,0.466-1.797,0.369-1-1C32.65,58.042,34.129,58.372,35,58z"/>
		<path style="fill:#7C7C7C;" d="M19.699,36.911c-0.828,0.997-2.198,1.129-3.19,1.158c-2.167,0.062-2.353-1.578-2.57-3.167
			c1.144-0.166,2.508-1.09,3.742-0.151C18.292,35.216,18.607,36.468,19.699,36.911z"/>
		<path style="fill:#767676;" d="M39.289,48.866c1.069,1.289,0.357,2.639-0.502,4.452c-0.421,0.889-1.311,2.002-2.79,0.802
			c0.44-1.725,0.074-3.66,0.823-5.301C37.713,46.036,38.438,46.175,39.289,48.866z"/>
		<path style="fill:#808080;" d="M55.546,56.186c0.372,1.889-1.681,2.154-3.354,1.756c-0.681,0.013-1.363,0.001-2.042-0.066
			c-1.34,0.843-1.787,0.298-0.861-0.934c0.361-1.189,1.292-1.882,2.295-1.939C53.207,54.91,54.672,55.029,55.546,56.186z"/>
		<path style="fill:#4C4C4C;" d="M38,36c-0.039,0.272,0.493,0.683,0.644,0.984c0.233,0.465,0.194,1.168-0.618,0.979
			c-1.525-0.952-4.061-0.751-4.27-3.202c-0.023-0.268-0.066-0.561-0.052-0.829C35.549,33.826,38.361,33.482,38,36z"/>
		<path style="fill:#CACACA;" d="M12.11,30.171c1.298-1.283,3.123,1.25,0.931,1.853l-2.317,2.063
			c-0.309-0.145-0.749-0.008-1.076-0.113C7.791,33.068,8.106,30.826,8,29C9.362,29.416,10.702,29.931,12.11,30.171z"/>
		<path style="fill:#555555;" d="M24.217,64.943c0.49-1.89,2.223-2.807,2.868-3.78c0.576,1.417,1.328,2.763,0.752,5.067
			C26.067,66.31,25.083,65.644,24.217,64.943z"/>
		<path style="fill:#5E5E5E;" d="M22.942,35.903c1.465,1.417,1.052,2.195-0.942,1.774l-2.301-0.766
			c-0.337-1.056-1.066-2.604-0.544-3.299c0.701-0.934,2.222-0.727,3.023-0.255C22.884,33.774,22.512,35.343,22.942,35.903z"/>
		<path style="fill:#CFCFCF;" d="M38.635,44.155c0.08,0.316,0.367,0.609,0.415,0.929c1.21-0.215,1.887,0.474,2.031,2.066
			c-0.564,0.609-1.061,1.293-1.793,1.717l-2.47-0.047c-1.667-0.693-1.692-3.245-0.643-4.643l0.249-0.871
			C37.424,41.895,38.329,42.556,38.635,44.155z"/>
		<path style="fill:#8F8F8F;" d="M38.635,44.155c-0.811-0.002-1.706-0.15-2.21-0.85c-0.398-0.553-0.604-1.232-0.79-1.877
			c0.299-0.502,0.584-1.539,1.205-1.749C38.494,40.416,38.889,42.591,38.635,44.155z"/>
		<path style="fill:#D8D8D8;" d="M32,51c-1.701,0.613-3.373,3.677-2.793,5.793c-0.42-0.031-1.055,0.31-1.196-0.308
			C27.913,56.051,27.939,55.444,28,55c-0.543-1.625-0.194-3.337,1.045-5.138C30.389,49.152,31.056,50.494,32,51z"/>
		<path style="fill:#565656;" d="M27.677,44.249c-0.741,0.591-1.566,1.085-2.046,0.671c-1.05-0.906-0.542-2.999-0.489-3.752
			c0.896,0.12,2.109,0.186,3.078,0.989C28.762,42.606,27.613,43.667,27.677,44.249z"/>
		<path style="fill:#D6D6D6;" d="M25,53c0,0.446,0.992,0.94,0.761,1.421L25,56c-0.786,1.018-1.842,0.692-3.168-0.979
			c0.015-0.298-0.065-0.606-0.034-0.903C21.169,52.618,20.435,50.734,22,50c1.669-1.116,2.591,1.155,1.993,2.516
			C23.936,52.646,22.857,50.593,25,53z"/>
		<path style="fill:#787878;" d="M41.087,52.793c0.743,1.264,0.915,2.738,0.821,4.186c-0.797-0.215-3.326-0.394-2.659-1.898
			C39.619,54.247,39.692,51.973,41.087,52.793z"/>
		<path style="fill:#616161;" d="M32,59c0.411,0.247,0.637,0.711,1,1c0.782,2.468-0.185,2.837-2,1
			c-1.298,0.089-2.614,0.222-3.915,0.163C28.053,59.705,29.65,58.24,32,59z"/>
		<path style="fill:#818181;" d="M57.071,56.201c-0.318,1.065-0.542,2.24-1.711,2.534c-1.187,0.299-2.305-0.08-3.169-0.792
			c1.168-0.486,2.229-1.182,3.354-1.756L57.071,56.201z"/>
		<path style="fill:#787878;" d="M13.041,32.024c-0.094,1.029,0.769,1.939,0.898,2.878c-1.105,0.16-2.254-0.366-3.215-0.815
			c-0.375-0.53-0.408-1.249-0.603-1.719c-0.44-1.061,0.196-2.059,1.388-1.41C11.948,31.196,12.479,31.76,13.041,32.024z"/>
		<path style="fill:#787878;" d="M60.753,59.265c-0.029,0.255,0.158,0.585,0.079,0.822c-0.409,1.217-1.339,2.097-2.564,2.99
			c-0.486-1.486-0.525-2.23-1.087-2.903C58.258,59.852,59.535,59.365,60.753,59.265z"/>
		<path style="fill:#656565;" d="M25,49.551V53c-0.584,0.247-1.89,1.493-1.993,0.247C22.864,51.513,23.528,49.96,22,50
			C22.611,48.398,24.132,49.704,25,49.551z"/>
		<path style="fill:#626262;" d="M49.289,56.942c0.597-0.225,0.788,0.473,0.861,0.934c-0.142,0.687-0.432,1.455-0.947,1.798
			C48.49,60.149,47.692,60.089,47,60c-0.1-0.718-0.192-1.573,0.178-2.289C47.557,56.978,48.79,57.217,49.289,56.942z"/>
		<path style="fill:#7B7B7B;" d="M41.081,47.15c-0.689,0.18-1.573,0.103-1.892-0.659c-0.177-0.423-0.071-0.949-0.14-1.407
			c0.581-0.422,1.2-1.1,2.385-1.079c0.628,0.011,1.157,0.938,0.688,1.686C41.774,46.246,41.474,46.726,41.081,47.15z"/>
		<path style="fill:#B4B4B4;" d="M42,62v1c-1.76-0.417-3.796-0.519-5-2v-1C38.676,60.251,40.731,60.504,42,62z"/>
		<path style="fill:#787878;" d="M46,57v3c-1.751-0.418-3.061-1.73-4.093-3.022L46,57z"/>
		<path style="fill:#7C7C7C;" d="M44.945,47.193c0.398,1.141-0.539,2.019-1.192,2.875L42,50
			C42.086,48.351,43.275,47.194,44.945,47.193z"/>
		<path style="fill:#808080;" d="M34.879,41.396c-0.586,0.781-1.577,0.901-2.499,0.924c-1.08-0.41-1.295-1.579-0.446-1.853
			c0.848-0.274,1.904-1.077,2.629-1.267C35.294,39.008,35.009,41.321,34.879,41.396z"/>
		<path style="fill:#838383;" d="M25.68,38.837c-1.369,0.384-2.964,0.227-3.68-1.16c0.359-0.567,0.67-1.162,0.942-1.774
			C23.961,36.703,25.326,37.432,25.68,38.837z"/>
		<path style="fill:#666666;" d="M19.992,45.94c-0.055,0.435-0.15,0.875-0.367,1.298C19.336,47.805,18.659,48.041,18,48
			c-1.023-1.778,0.7-2.922,1.299-4.081C19.996,44.445,18.704,45.869,19.992,45.94z"/>
		<path style="fill:#515151;" d="M22,50c0.052,1.377-0.06,2.749-0.202,4.118C20.572,53.686,20.684,51.974,20,51
			c0.091-0.431,0.062-1.252,0.55-1.511C21.02,49.24,21.66,49.795,22,50z"/>
		<path style="fill:#929292;" d="M28,55c-1.558-0.256-1.142-2.005-0.628-3.053c0.385-0.785,0.807-1.627,1.673-2.084
			C29.207,51.614,28.234,53.297,28,55z"/>
		<path style="fill:#888888;" d="M41,79c-0.419,0-0.974,0.117-1.441-0.096C38.86,78.585,38.918,77.665,39,77
			c0.623-0.71,1.273-1.396,2-2C41.783,75.691,42.237,78.471,41,79z"/>
		<path style="fill:#5A5A5A;" d="M39,76c-0.84,0.596-0.746,1.659-1.482,3.046C36.46,77.81,37.195,76.321,37,75
			c-0.389-0.498,0.005-0.854,1.183-1.069C39.265,73.837,39.03,75.311,39,76z"/>
		<path style="fill:#4A4A4A;" d="M25,56c-0.227,0.47,0.4,2.232-1.096,2.014c-1.417-0.207-1.148-2.406-2.072-2.993
			C22.943,55.14,24.041,55.412,25,56z"/>
		<path style="fill:#616161;" d="M44.945,47.193c-0.367-0.813-0.749-1.666-0.682-2.587C44.325,43.746,45.169,43.221,46,43
			C46.231,44.49,45.935,46.033,44.945,47.193z"/>
		<path style="fill:#E3E3E3;" d="M45,72c2.285,1.361,1.661,2.739-1,2.328c0.283,2.807-0.523,3.08-2,0.672
			c0.014-0.791,0.294-1.584,0.268-2.373C43.097,72.146,44.056,72.013,45,72z"/>
		<path style="fill:#6B6B6B;" d="M24.217,64.943C23.458,65.252,22.718,65.605,22,66c-1.247-0.275-0.98-1.608,0.799-4
			C23.429,62.724,24.295,63.76,24.217,64.943z"/>
		<path style="fill:#E5E5E5;" d="M43,79c-0.319,2.656-1.239,2.541-2,0v-4h1C44.246,75.819,44.72,77.244,43,79z"/>
		<path style="fill:#606060;" d="M16.845,42.055c-0.606-0.842-0.987-1.819-1.042-2.858c1.267-0.256,2.377-0.526,2.258,1.286
			C17.993,41.524,18.01,41.874,16.845,42.055z"/>
		<path style="fill:#E3E3E3;" d="M48,109v1c-1.299,1.28-3.328,1.216-6.088-0.194c-1.763,6.652,6.366,7.16,8.088,2.194h1
			c0.654,2.88,2.617,4.492,5,6c-1.999,0.066-4.066-1.526-6.324-0.553C47.515,121.444,47.038,126.232,44,129
			c-1.986-0.526-2.362-1.933-1.128-4.22c2.443-4.174,2.587-5.709,0.433-4.605L41,119c-2.784-0.619-5.486-1.704-8.106-3.253
			l0.07,2.612c1.298,1.667,1.643,3.214,1.036,4.642c-1.627,1.46-4.036,2.282-6,1c-1.211-1.59-1.156-3.977,0.165-7.161
			C27.401,114.11,27.346,111.83,28,110c0.84-1.727,2.744-2.777,5.712-3.152c1.961-1.712,3.787-2.331,5.477-1.859
			C41.102,103.597,49.426,106.051,48,109z"/>
		<path style="fill:#7B7B7B;" d="M48,110c1.809-0.052,2.102,1.073,2,2c0.541,0.999,1.638,2.994,0.753,3.603
			c-3.208,2.205-7.224,1.838-10.518,0.205c-0.435-2.973-0.513-5.492-0.067-8.488C43.265,107.602,45.605,108.918,48,110z"/>
		<path style="fill:#454545;" d="M19.192,76.848c1.229-1.437,3.312-0.495,3.451,1.31C21.815,79.728,23.818,80.233,25,81
			c0.793,0.71,0.429,2.275,0.992,3c1.92,3.474,1.59,4.474-0.992,3c-0.147,2.352-2.127,3.111-4,2c-1.502,3.046-2.502,2.046-3-3
			c-0.978-0.711-1.284-2.066-0.916-4.063C14.023,80.965,16.168,75.148,19.192,76.848z"/>
		<path style="fill:#393939;" d="M25,90l3,5c1.727-2.951,3.401,0.173,1.236,1.643l-1.281,1.22C26.968,100.638,24.52,101.61,22,100
			c-2.991,0.054-4.324-2.279-4-7c-1.603-0.88,1.028-3.978,3-3C22.186,89.311,25.033,88.11,25,90z"/>
		<path style="fill:#8C8C8C;" d="M36,99c0.72,0.963,1.353,1.986,2,3c2.542-0.616,3.039,1.162,1.189,2.99
			c-2.41,3.418-7.04,5.059-11.189,5.01c-3.307-1.216-3.136-1.647,0-3c0.588-1.403,5.18-8.58,5.675-8.8
			C34.188,97.973,35.388,98.638,36,99z"/>
		<path style="fill:#757575;" d="M33.021,96.979l1.105,1.235L28,106c-1.912,5.108-5.351,2.317-8.542-0.41L24,102
			c0.876-1.243,2.21-2.243,4-3C29.527,97.992,31.16,97.062,33.021,96.979z"/>
		<path style="fill:#6F6F6F;" d="M45,88c2.144,1.096,2.477,1.763,1,2c2.45-0.24,1.714,6.594,1.234,6.984
			c-0.264,0.214-7.138-0.97-4.628-2.322L41,92c-0.893-0.97-1.578-1.99-2.052-3.06c1.353-1.47,2.566-3.228,4.546-3.871
			C46.132,84.378,46.871,86.025,45,88z"/>
		<path style="fill:#838383;" d="M48,109c-1.472-1.956-5.104-0.662-8.811-4.01c-0.246-1.046-0.607-2.079-1.189-2.99
			c-0.143-0.544-0.028-2.071,0.464-1.82l10.81,5.525c1.014,0.518,0.907,1.791,0.612,2.635C49.695,108.889,48.753,109.028,48,109z"/>
		<path style="fill:#666666;" d="M41,92c2.918,3.513,2.879,5.558-2,4c-0.127,1.809-0.756,2.203-2.131,0.906
			c-1.397,0.061-4.318-0.637-3.821-2.812c0.545-2.385,3.258-3.368,4.934-4.104C39.011,89.355,40.017,90.025,41,92z"/>
		<path style="fill:#686868;" d="M32,74c2.067,0.053,3.401,0.72,4,2l-0.126,4c0.591,1.727-1.383,2.707-2.622,1.26
			c-0.386,1.69-1.19,1.567-1.252-0.26c-2.091,0.298-4.571-1.084-3-3c-1.739-0.536-0.693-3.484,1-4H32z"/>
		<path style="fill:#5D5D5D;" d="M29.236,96.643c0.783-0.477,0.573-0.686-0.019-0.999L28,95l-3-5c-2.123,0.461-2.123-0.539,0-3
			c1.109-0.599,1.463-1.857,0.992-3C27.421,85.872,34.374,95.881,29.236,96.643z"/>
		<path style="fill:#CECECE;" d="M49,91c2.145,1.513,1.4,4.148-1,5v2v5l-2-1c-1.754-0.598-1.897-1.466-1.207-2.975
			C42.121,99.269,40.19,98.594,39,97c-0.873-0.284-0.86-0.618,0-1c1.038,0.026,2.268,0.25,3.191-0.71
			C41.575,93.743,41.039,92.93,41,92c1.743,0.487,2.077,3.376,3.844,3.985c2.639,0.909,2.403-2.122,2.106-3.344
			C46.769,91.892,46.735,90.78,46,90C47.985,87.646,48.362,88.01,49,91z"/>
		<path style="fill:#707070;" d="M46,102c-2.226-0.352-4.905-1.967-7-3c-0.824-0.964-1.375-1.664,0-2l7.97,0.034
			C47.237,99.107,46.297,100.471,46,102z"/>
		<path style="fill:#757575;" d="M48,81.969c1.607,2.262,0.764,11.298-3,6.031c-0.451-0.964-1.3-1.842-1.507-2.932
			c0.064-0.612,0.488-1.335,0.394-2.017L48,81.969z"/>
		<path style="fill:#D4D4D4;" d="M36,99c-3.158-0.456-5.072,5.667-8,8c-0.509-0.304-0.496-0.638,0-1c0-2.89,4.577-5.131,5.021-9.021
			C34.184,97.381,35.258,98.007,36,99z"/>
		<path style="fill:#5E5E5E;" d="M34.874,83.26c-0.761,1.202-0.833,3.947-3.19,4.497c-1.365,0.318-1.305-2.748-0.637-3.618
			c-0.117-1.833,0.769-2.284,2.239-1.192C34.178,81.41,34.907,81.444,34.874,83.26z"/>
		<path style="fill:#4E4E4E;" d="M28,74c1.519,1.067,0.095,4.423-1.937,4.738l-1.058-0.136c0.003-1.387-0.911-2.951-1.026-4.346
			C23.851,72.161,27.353,72.107,28,74z"/>
		<path style="fill:#6F6F6F;" d="M43,79c0.873-0.305,1.073,0.062,0.701,1c0.049,1.016,0.048,2.042,0.187,3.051
			c-0.851,0.224-1.625,0.547-2.737,0.957C40.8,81.586,41,80.407,41,79H43z"/>
		<path style="fill:#676767;" d="M39.871,81.168c0.464,1.998,0.429,3.388-0.56,3.757c-0.553,0.206-1.411,0.386-2.264-0.378
			c-0.454-0.406,0.238-1.514,0.338-2.508C37.512,80.785,39.532,79.708,39.871,81.168z"/>
		<path style="fill:#BFBFBF;" d="M30,74c-0.724,1.206-0.997,2.603-1,4c1.048,2.048,0.382,2.57-1.772,2.772
			c-0.935-0.035-1.202-1.267-1.165-2.034C26.958,77.267,28,75.73,28,74H30z"/>
		<path style="fill:#878787;" d="M32,81c0.658,1.746-1.012,2.485-1.874,0.738c-0.857-0.683-1.809-0.925-2.898-0.966
			C26.998,79.501,27.829,78.439,29,78C29.596,79.344,30.656,80.404,32,81z"/>
		<path style="fill:#E4E4E4;" d="M28,99c-0.641,1.776-2.162,2.86-4,3c-2.343,0.796-3.01,0.129-2-2
			c2.291,0.19,4.224-0.486,5.955-2.136C27.883,98.213,28.12,98.667,28,99z"/>
		<path style="fill:#B1B1B1;" d="M34.874,83.26l-1.588-0.312c-2.075,0.383-2.097-1.191-0.034-1.688
			c0.961-0.198,1.837-0.69,2.622-1.26c0.319,0.409,1.119,0.761,1.016,1.41C36.714,82.525,35.282,82.616,34.874,83.26z"/>
		<path style="fill:#BBBBBB;" d="M38.183,73.931C37.757,74.243,37.408,74.662,37,75c-0.296,0.245-0.95,0.592-1,1
			c-1.398-0.537-2.857-1.001-4-2v-1C33.821,74.204,36.076,74.115,38.183,73.931z"/>
		<path style="fill:#D7D7D7;" d="M33.286,82.948c-0.766,0.358-1.516,0.751-2.239,1.192c-0.567-0.679-0.824-1.532-0.921-2.402
			C30.664,81.953,31.593,81.346,32,81c0.397-0.023,0.866,0.339,1.252,0.26L33.286,82.948z"/>
		<path style="fill:#ADADAD;" d="M39,96v1v2c-0.924-0.456-1.687-1.153-2.131-2.094C37.384,96.256,38.193,96.01,39,96z"/>
		<path style="fill:#D0D0D0;" d="M41,92c-1.123-0.314-1.911-1.617-3.018-2.01l0.966-1.05C40.385,89.319,40.942,90.622,41,92z"/>
		<path style="fill:#929292;" d="M38.265,87.507c-1.91,2.005-2.926,1.31-1.753-0.818C37.971,85.463,39.594,85.997,38.265,87.507z"/>
		<path style="fill:#646464;" d="M22,100c0.659,0.67,1.664,1.038,2,2l-3.354,2.727c0.535,1.315-0.681,1.74-3.646,1.273
			c-1.481,1.307-2.191,1.445-2-0.619c-2.254-0.739-2.588-1.532-1-2.381c1.07-0.427,1.886-1.709,3-2
			C17.715,97.964,19.381,97.631,22,100z"/>
		<path style="fill:#BEBEBE;" d="M22,100c-1.636-0.136-3.436,0.591-5,1c0.837-0.903,1.07-2.205,0-3v-1c-1.494-1.936-1.625-3.19,1-4
			C20.714,94.488,15.969,93.861,22,100z"/>
		<path style="fill:#BFBFBF;" d="M15,105.381c-0.946,2.226-3.393,1.847-4-0.381c0.6-1.13,1.87-1.549,3-2L15,105.381z"/>
		<path style="fill:#CDCDCD;" d="M11,105c2.656,0.319,2.541,1.239,0,2c-1.507,2.186-3.299,1.443-4-1v-1H11z"/>
		<path style="fill:#4F4F4F;" d="M15.097,76.903c2.239-0.05,0.989,4.011-1.152,2.983c-1.702,1.209-3.01,2.631-3.923,4.266
			C7.109,84.115,5.435,83.398,5,82C7,78.373,7.686,78.546,15.097,76.903z"/>
		<path style="fill:#CBCBCB;" d="M19.192,76.848c-1.136,0.124-1.99,0.776-2.266,1.658c-0.36,1.148,0.359,2.557,0.159,3.431
			C16.67,85.183,16.976,86.537,18,86c1.304,0.643,0.683,3.197,1.462,3.696C19.832,89.932,20.517,89.331,21,89
			c0.873,0.284,0.86,0.618,0,1c-0.834,0.858-2.755,1.722-3,3c-1.932,1.137-5.729,1.494-8,0c0.273-2.437,1.213-4.645,4-4
			c-0.805-3.037-0.916-6.059-0.055-9.114c0.48-0.865,1.74-2.105,1.152-2.983c1.344-0.298,2.521-1.695,4.013-1.751
			C20.069,75.673,20.096,76.238,19.192,76.848z"/>
		<path style="fill:#656565;" d="M6.955,72.093c2.491-0.49,3.057,2.286,1.804,3.879c0.892,0.103,0.895,0.387,0.073,0.84
			C7.143,77.814,4.577,77.948,3,77c-0.307-1.629-0.698-3.225-0.869-4.869C3.737,72.026,5.348,72.001,6.955,72.093z"/>
		<path style="fill:#6D6D6D;" d="M21.147,72c-1.293,1.672-3.034,3.905-6.23,2.929c-0.427-1.148,0.13-2.953,0.165-3.752
			C15.549,69.73,16.854,68.671,19,68c-1.237-1.429-0.705-1.737,1-1C21.609,67.023,21.991,68.69,21.147,72z"/>
		<path style="fill:#666666;" d="M32,67c-0.781-0.066-1.567,0.609-2.729,0.424C28.39,64.257,29,62.132,31,61
			c0.696-0.048,1.317-0.858,2-1C35.292,61.825,33.778,65.088,32,67z"/>
		<path style="fill:#656565;" d="M28,73c-1.682,0.119-2.794-0.275-3.336-1.181c-0.188-0.875-1.189-2.399-0.528-3.995
			c0.707-1.705,4.288-0.995,4.748,0.708C29.293,70.044,29.25,71.914,28,73z"/>
		<path style="fill:#AEAEAE;" d="M13.945,79.886C14.706,82.067,13.521,84.472,12,86c-1.336,1.745-1.894,1.109-2.475-0.843
			C8.046,83.771,5.915,83.92,4,84c0.098-0.799,0.638-1.344,1-2C9.388,86.209,12.345,78.348,13.945,79.886z"/>
		<path style="fill:#616161;" d="M15.083,71.177c-1.157,0.545-2.494,0.774-3.083,2.077c1.232,1.323,0.631,1.806-0.906,0.777
			C8.204,75.881,8.345,72.191,11,71c0.222-0.42,0.448-0.934,1-1C13.274,68.945,17.597,69.044,15.083,71.177z"/>
		<path style="fill:#454545;" d="M8.832,76.811l-0.073-0.84c-0.857-2.404,0.068-2.766,2.336-1.94
			c0.175-0.324,0.751-0.436,0.906-0.777c0.422,0.152,1.051-0.302,1.477-0.199c0.377,0.091,0.986,1.115,0.538,1.632
			C12.325,76.642,10.19,76.005,8.832,76.811z"/>
		<path style="fill:#3C3C3C;" d="M22.643,78.157c-1.124-0.503-2.262-0.983-3.451-1.31c0.04-0.567,0.015-1.136-0.081-1.696
			c0.964-0.036,2.071-0.237,2.972,0.259C22.965,75.897,23.089,77.312,22.643,78.157z"/>
		<path style="fill:#BDBDBD;" d="M24.664,71.819C25.848,71.914,27.429,71.736,28,73v1c-1.248-0.949-2.72-0.322-4.021,0.255
			c-0.035-0.429-1.174-0.787-0.779-1.51C23.474,72.243,24.12,71.989,24.664,71.819z"/>
		<path style="fill:#F2F2F2;" d="M22,66c0.194,2.637,0.729,3.954-0.853,6c-1.175-1.532,0.407-3.723-1.147-5
			c-1.453,0.728-1.99,0.317-1-1c-0.533-0.865-0.301-1.223,0.701-1.071c1.199-0.8,1.703-2.434,3.098-2.929
			C23.498,63.485,22.092,64.612,22,66z"/>
		<path style="fill:#4D4D4D;" d="M12,86c1.797-1.268,2.463-0.268,2,3c-0.701,2.139-1.984,2.251-4,4
			c-0.867-1.034-1.118-1.712,0.037-3l-0.512-4.843C10.326,85.453,11.252,85.563,12,86z"/>
		<path style="fill:#545454;" d="M49.977,50.664c1.514,2.347-1.682,5.433-2.765,4.88c-0.705-1.673,0.089-2.996-0.209-3.966
			C46.655,50.448,48.803,48.844,49.977,50.664z"/>
		<path style="fill:#626262;" d="M53.438,54.207c-2.71-0.123-2.851-0.891-1.783-2.272c0.695-0.9,1.431-1.377,3.151-0.696
			c0.989,0.391,1.125,0.92,1.234,1.314C56.356,53.695,55.313,54.292,53.438,54.207z"/>
		<path style="fill:#8B8B8B;" d="M50.102,46.029c0.17-0.255,0.634-0.348,0.774-0.633c0.797,0.689,1.525,2.059,0.931,3.473
			c-0.486,1.157-1.598,0.421-2.312,0.198c-0.856-0.267-1.169-0.753-0.369-1.564C49.515,47.11,49.741,46.57,50.102,46.029z"/>
		<path style="fill:#757575;" d="M45.871,52.388L46,55c-0.543,0.04-1.592-0.131-2.406-0.318c-0.515-0.118-0.876-0.938-0.138-1.86
			C43.871,52.305,45.071,52.38,45.871,52.388z"/>
		<path style="fill:#4D4D4D;" d="M53,66.079c1.064-1.938,3.106-1.189,1.971,0.871c0.537,1.239,0.999,2.64,0.934,4.05
			c-2.011,0.803-5.095,1.946-7.036,0.332c0.365-1.284,0.99-2.676,1.214-3.321c-1.263-1.297-0.816-2.01,0.877-1.795
			C51.65,66.317,52.32,66.105,53,66.079z"/>
		<path style="fill:#BABABA;" d="M50.961,66.215c0.389,0.859-0.687,1.25-0.877,1.795c-0.661,0.133-1.023,0.549-1.885,1.021
			c-0.035-2.323-0.308-4.213,0.782-5.593C49.887,64.125,50.232,65.347,50.961,66.215z"/>
		<path style="fill:#535353;" d="M60,66c-0.538,1.081-1.206,1.758-2.01,2.208c-0.588,0.329-1.215-1.014-1.023-1.669
			c0.151-0.513,0.355-1.521,1.205-1.778C58.682,64.605,59.233,65.859,60,66z"/>
		<path style="fill:#767676;" d="M54.971,66.95C55,66.022,53.677,66.053,53,66.079c-0.522-0.982-1.304-2.065-0.399-2.065
			c1.7,0.001,2.952-0.336,3.411,0.487C56.619,65.589,55.257,66.368,54.971,66.95z"/>
		<path style="fill:#5E5E5E;" d="M60,66c0.261-0.524-0.173-1.657,0.084-2.296c0.252-0.629,1.281-2.189,1.818-1.203
			c0.262,1.393,0.11,2.135,0.078,2.957C61.954,66.113,60.801,66.105,60,66z"/>
		<path style="fill:#8F8F8F;" d="M23,110c1.881,2.076-0.938,9.009-4,8c-0.699,3.241-2.082,4.408-4.149,3.5
			c-2.789,1.286-4.073,1.119-3.851-0.5c-1.926-0.801-3.457-3.311-6-3l2-3c4.108-3.541,8.722-7.016,13.623-10.209
			C20.915,104.675,23.311,109.458,23,110z"/>
		<path style="fill:#E2E2E2;" d="M19,124c-0.779,1.089-2.284,1.062-4.516-0.081c-1.527,3.896-3.242,5.22-5.147,3.971L11,121
			c2.845,1.183,6.432-0.546,8-3C21.039,119.278,21.207,122.766,19,124z"/>
		<path style="fill:#8C8C8C;" d="M20.879,21c0.108,0.716,0.248,1.484-0.045,2.7C18.736,24.653,16.828,24.228,15,24v-4
			C17.018,19.887,19.136,19.873,20.879,21z"/>
		<path style="fill:#818181;" d="M27.268,33c-0.899-0.254-1.973-0.509-2.624-1.217C23.971,31.05,24.007,29.93,24.042,29
			c-0.551-0.915-0.293-1.361,0.774-1.339l2.844-1.407C27.92,28.823,27.87,30.928,27.268,33z"/>
		<path style="fill:#7D7D7D;" d="M7.916,27.551C6.59,27.186,5.131,27.921,4,27c-0.315-0.483-0.844-0.871-0.799-1.996
			c2.196,0.244,4.533-0.612,6.583,0.387C10.885,26.131,8.773,27.48,7.916,27.551z"/>
		<path style="fill:#686868;" d="M13.041,32.024c0.069-0.756-0.053-1.704-0.931-1.853c-1.169-1-0.562-2.098-0.047-2.903
			c0.995,1.95,3.274,2.706,4.266,5.261C14.676,33.679,13.873,32.414,13.041,32.024z"/>
		<path style="fill:#8B8B8B;" d="M24.816,27.661c-0.32,0.408-0.578,0.859-0.774,1.339c-0.927-0.568-1.903-1.049-2.921-1.428
			c0.222-0.992,1.175-1.302,2.201-1.113C23.927,26.57,24.602,26.934,24.816,27.661z"/>
		<path style="fill:#6B6B6B;" d="M15.089,25.78l0.84-0.016l0.08,2.658c0.062,2.04-2.892-2.073-2.878-1.948
			C13.054,25.778,14.871,25.906,15.089,25.78z"/>
		<path style="fill:#767676;" d="M20.047,27.766c-1.011,0.574-1.621,1.533-2.825,2.333c-0.761-1.812,0.597-2.398,1.116-3.298
			C19.032,26.847,19.666,27.18,20.047,27.766z"/>
		<path style="fill:#D1D1D1;" d="M19.701,64.929C19.357,65.158,19.26,65.694,19,66c-0.274,0.938-1.331,1.211-3.173,0.822
			c-1.72,1.725-3.379,0.787-3.601-1.588c0.315-0.898,1.025-1.543,1.837-2.005C15.632,63.437,18.185,64.245,19.701,64.929z"/>
		<path style="fill:#676767;" d="M15.827,66.822C16.758,65.677,18.115,66.619,17,68c0.076,2.552-3.257,1.965-4.856,0.856
			l0.081-3.622C13.473,65.648,14.63,66.283,15.827,66.822z"/>
		<path style="fill:#D1D1D1;" d="M11,71c-0.279,0.528-0.616,1.043-0.839,1.686c-0.232,0.671-0.015,1.494,0.934,1.345
			c-0.501,0.931-1.334,1.593-2.336,1.94l-1.804-3.879C7.61,71.108,8.886,70.515,10,71H11z"/>
		<path style="fill:#CCCCCC;" d="M21.057,58.1C18.853,60.264,15.42,60.209,13,62v-1.176C15.22,59.029,18.201,57.971,21.057,58.1z"/>
		<path style="fill:#D1D1D1;" d="M19,68c-0.806,1.514-2.373,2.45-3.917,3.177c0.038-0.873-0.661-1.451-1.589-1.2
			C13.067,70.092,12.541,69.935,12,70l0.144-1.144C13.834,69.084,15.721,69.315,17,68C16.85,66.235,18.493,66.453,19,68z"/>
		<path style="fill:#4C4C4C;" d="M8.969,63.466c0.491,0.909-2.413,2.336-3.225,2.063c-0.287-0.096-0.854-0.68-0.703-1.009
			C5.452,63.625,8.246,62.128,8.969,63.466z"/>
		<path style="fill:#5D5D5D;" d="M10,71c-1.349,1.677-1.313,1.376-3.045,1.093c0.002-1.05,0.35-2.149,1.481-2.213
			C9.221,69.835,10.122,70.004,10,71z"/>
		<path style="fill:#5A5A5A;" d="M3.94,66.06c-1-0.927-2.563-1.318-1.991-3.112c0.712,0.044,1.901-0.183,2.03,0.581
			C4.145,64.518,3.91,65.346,3.94,66.06z"/>
		<path style="fill:#777777;" d="M56.69,92c-0.635,0.392-1.098,1.458-1.69,2c-1.936,1.773-4.403,2.428-7,2c0-1.719-0.011-3.541,1-5
			c-1.294-1.528-0.713-2.093,1-1c-1.085-2.382,0.912-3.448,3.058-2.701C54.959,88.313,56.836,89.69,56.69,92z"/>
		<path style="fill:#696969;" d="M57.696,77.157c0.299,1.858,1.048,4.211-0.118,6.125c-0.534,0.877-2.142,0.343-2.579,0.739
			c-0.539-0.586-1.257-0.827-1.951-1.144C53.012,81.881,52.224,80.948,52,80c-0.391-0.84-0.012-1.141,1-1
			c1.516-0.91,2.91-2.065,4.648-2.478C57.006,76.836,56.937,77.061,57.696,77.157z"/>
		<path style="fill:#686868;" d="M53.047,82.878c0.052,1.467-0.221,2.954,0.01,4.421c-0.4,1.437-1.85,2.018-3.058,2.701
			c-0.784,0.407-2.795-0.609-2.707-1.064C47.579,87.461,49.044,82.683,50,82C50.964,80.677,52.012,82.405,53.047,82.878z"/>
		<path style="fill:#505050;" d="M59.3,85.514c0.363-1.037,2.363-0.457,3.24-0.49c0.915-0.035,0.456,2.292,0.401,3.459
			c-0.04,0.844-1.616,0.467-2.442,0.533C59.347,89.107,58.514,87.755,59.3,85.514z"/>
		<path style="fill:#565656;" d="M54.998,84.022c0.732,0.795,1.852,0.807,2.443,1.247c0.982,0.731,0.896,3.545,0.052,3.523
			c-1.488-0.464-1.851-1.71-2.582-2.159C53.845,85.977,54.029,84.898,54.998,84.022z"/>
		<path style="fill:#6E6E6E;" d="M25.106,135.874l-2.224,2.008c-0.843,0.761-2.091,0.707-2.874,1.286
			c-0.568-0.192-2.245,1.026-3.114,0.268c-2.177-1.898-0.781-5.212,1.106-6.436C20.666,133.115,23.111,134.031,25.106,135.874z"/>
		<path style="fill:#838383;" d="M48.013,76.835c-0.089,2.268-2.354,2.922-4.312,3.165c-0.249-0.322-0.479-0.658-0.701-1
			c-0.773-1.191-1.024-2.596-1-4c0.704,0,1.382-0.328,2-0.672C46.084,73.079,47.653,74.743,48.013,76.835z"/>
		<path style="fill:#C0C0C0;" d="M50,82c-0.499,2.627-2.352,6.037,0,8c-0.304,0.227-0.777,0.678-1,1c-0.919-0.543-1.945-0.854-3-1
			c-0.564-0.599-0.672-1.298-1-2c0.571,0.015,1.082,1.073,1.51,0.902c2.259-0.898,1.365-4.926,1.49-6.934L50,82z"/>
		<path style="fill:#838383;" d="M48.047,75.969l-0.034,0.866c-1.765,0.114-3.18-1.014-4.013-2.507L45,72
			c0.917-0.013,2.546-0.433,2.903,0.595C48.305,73.754,47.942,74.974,48.047,75.969z"/>
		<path style="fill:#616161;" d="M52,75l-0.189,1.39c-0.139,1.026-1.373,0.741-1.741,0.16c-0.249-0.392-0.307-1.045-0.755-1.55
			c-0.213-0.579-0.406-1.871,0.198-1.963c1-0.153,2.087-0.298,2.471,0.468C52.18,73.896,51.927,74.579,52,75z"/>
		<path style="fill:#636363;" d="M56,73c0.035,0.481,0.614,0.831,1,1c-1.196,0.806-2.708,2.265-4,1
			c-0.186-0.764-0.033-1.654,0.647-1.873C54.509,72.849,55.293,72.938,56,73z"/>
		<path style="fill:#ADADAD;" d="M53,79c-0.297,0.368-0.632,0.703-1,1c-0.613,0.031-1.62,0.245-1.999-0.503
			c-0.28-0.553-0.001-1.175,0.475-1.488C51.301,77.468,52.453,78.569,53,79z"/>
		<path style="fill:#E7E7E7;" d="M24,102c-0.416,1.605-2.111,2.255-2.962,3.505c1.272,1.346,1.975,2.5,3.429,2.5
			c1.267,0,2.394-1.278,3.533-2.005v1c-0.69,0.885-0.79,2.139,0,3c-1.331,2.608-3.221,1.471-5,0
			c-0.842-1.523-2.206-2.943-3.438-3.796C14.976,109.302,11.649,113.379,7,115v-2c0.678-2.04,2.274-3.707,4.79-5
			c1.391-1.239,3.301-1.946,5.21-2C19.576,105.39,21.244,102.21,24,102z"/>
		<path style="fill:#383838;" d="M7,106c1.396,0.037,2.817,0.188,4,1c1.425-0.91,1.838-0.353,0.79,1c0.917,2.931-2.261,4.457-4.79,5
			c0-1.994-1.816-3.401-3-5c0.006-0.964-0.448-1.746-1.051-2.915C4.903,104.678,5.708,105.966,7,106z"/>
		<path style="fill:#939393;" d="M34,123c1.858,0.67,2.525,1.67,2,3c1.817,0.849,1.717,1.531-0.299,2.045
			c-2.151,0.783-2.614,3.32-3.878,5.06c-2.553,1.469-5.643,1.057-7.634-1.104c-1.34-1.199-1.085-3.315,0.811-4l3-4
			C29.905,122.43,31.633,121.699,34,123z"/>
		<path style="fill:#898989;" d="M19,124l3,4c2.168,0.436,2.09,2.469,0.995,4.102l-10.984-2.165
			c-0.58-0.992-1.696-1.537-2.674-2.047c2.286-0.774,1.823-4.288,3.889-5.545C15.612,120.893,17.438,123.115,19,124z"/>
		<path style="fill:#7A7A7A;" d="M29.037,137.092c-1.368,1.599-2.77-0.146-3.93-1.218c0.724-0.654,1.472-1.091,2.22-0.824
			C28.446,135.448,29.349,135.96,29.037,137.092z"/>
		<path style="fill:#E5E5E5;" d="M25,128l-0.811,4l-1.194,0.102L22,128C23.002,126.1,24.002,126.1,25,128z"/>
		<path style="fill:#8C8C8C;" d="M44,129c-2.17,0.663-5.198,1.397-8.006,1.081c-0.829-0.093-0.746-1.839-0.293-2.036
			C35.415,127.326,35.384,126.51,36,126c-0.414-1.246-0.533-2.391,1-2l4-5c1.928-1.143,4.348-1.263,6.878-0.859
			C46.927,122.182,44.01,125.091,44,129z"/>
		<path style="fill:#777777;" d="M7.466,130.285c-0.021-0.597,1.619-0.262,2.017-0.266c0.398-0.004,0.716,0.667,0.533,1.455
			c-0.114,0.489-0.981,0.762-1.453,0.525C8.209,131.82,7.512,131.585,7.466,130.285z"/>
		<path style="fill:#676767;" d="M18,93c-0.259,1.351,0.377,3.022-1,4c-3.229-3.027-3.498,0.177-7-4
			c1.805,0.269,3.465-0.598,5.255-1.791C16.45,91.651,17.131,92.523,18,93z"/>
		<path style="fill:#6D6D6D;" d="M20.133,32.275c-0.914,0.308-1.593,0.032-2.082-0.711c0.037,0.057,1.484-3.121,3.429-2.576
			c0.564,0.158,1.58,0.626,1.481,1.506C22.81,31.833,21.371,31.858,20.133,32.275z"/>
		<path style="fill:#5F5F5F;" d="M27.065,36.886c-1.49-0.337-2.725-1.37-3.133-3.523C25.333,33.222,26.665,34.298,27.065,36.886z"/>
		<path style="fill:#8F8F8F;" d="M36.176,44.176c1.132,1.453,1.395,2.996,0.643,4.643c-1.468-0.028-2.64-0.393-2.887-2.245
			C33.734,45.09,34.098,43.17,36.176,44.176z"/>
		<path style="fill:#797979;" d="M28,110c3.644,3.975,2.162,9.429,0,14l-3,4c-1.385,0.467-1.602,0.709-3,0l-3-4
			c-0.394-2.036-1.148-3.99,0-6c1.602-2.506,2.191-5.605,4-8C24.301,108.278,26.457,109.982,28,110z"/>
		<path style="fill:#797979;" d="M41,119l-4,5c-0.544,0.936-1.544,0.603-3-1c-3.341-2.393-4.035-6.274-2.381-10.427
			C36.176,115.991,41.128,115.9,41,119z"/>
		<path style="fill:#868686;" d="M38.904,114.78l-7.926-3.241c3.038-1.445,4.743-3.246,7.791-3.712
			C39.256,110.451,38.998,111.872,38.904,114.78z"/>
		<path style="fill:#5B5B5B;" d="M18,86c-0.283,1.71,1.131,3.608-1.288,5.696c-1.223-3.514-1.387-7.18,0.372-9.759
			C18.331,82.783,18.226,84.632,18,86z"/>
		<path style="fill:#CCCCCC;" d="M25,90c-1.079-0.292-2.926,0.015-4,0v-1c1.668,0.287,3.139-0.589,4-2V90z"/>
		<path style="fill:#B9B9B9;" d="M28,95c-1.875-0.992-3-2.968-3-5C27.089,90.565,27.658,93.137,28,95z"/>
		<path style="fill:#535353;" d="M15,105.381c0.6,0.383,1.294,0.562,2,0.619c-0.575,0.719-1.216,1.846-2.244,2.303
			c-1.006,0.447-1.973,0.337-2.966-0.303c-0.392-0.253-0.79-0.431-0.79-1v-2C12.34,105,13.673,105.209,15,105.381z"/>
		<path style="fill:#525252;" d="M14,89c-0.413-1.131-0.911-2.363-2-3c-1.761-2.474,0.732-3.926,1.945-6.114
			C16.419,82.263,14.877,86.325,14,89z"/>
		<path style="fill:#474747;" d="M19,66c0.45,0.056,0.699,0.753,1,1c-0.237,0.392-0.788,0.602-1,1h-2l-1.173-1.178
			c-0.352-0.809,0.239-2.258,1.188-1.408C17.424,65.779,18.083,65.886,19,66z"/>
		<path style="fill:#DDDDDD;" d="M25,128c0.431-2.127,1.571-2.823,3-4C27.184,125.724,27.201,127.258,25,128z"/>
		<path style="fill:#E3E3E3;" d="M37,124c-0.037,0.753-0.421,1.52-1,2c-0.829-0.761-1.086-2.345-2-3
			C34.887,123.488,36.173,123.294,37,124z"/>
		<path style="fill:#DCDCDC;" d="M22,128c-1.872-0.95-2.609-1.977-3-4C20.657,124.938,21.527,126.05,22,128z"/>
		<path style="fill:#E2E2E2;" d="M37,124c0.116-2.379,2.077-3.86,4-5C40.904,121.314,38.957,122.953,37,124z"/>
	</g>
</g>
</svg>
