<?xml version="1.0" encoding="iso-8859-1"?>
<!-- Generator: Adobe Illustrator 30.1.0, SVG Export Plug-In . SVG Version: 9.03 Build 0)  -->
<svg version="1.1" id="Layer_1" xmlns="http://www.w3.org/2000/svg" xmlns:xlink="http://www.w3.org/1999/xlink" x="0px" y="0px"
	 viewBox="0 0 89 49" style="enable-background:new 0 0 89 49;" xml:space="preserve">
<g>
	<g>
		<path style="fill:#FBFBFB;" d="M43,0l42.707,43.208C87.527,45.049,88.623,46.586,88,49h-5L0,31v-3L35.794,3.847
			C37.579,2.643,39.332,1.727,40,0H43z M35,6l-2,2c-1.952,0.663-4.045,1.733-4,4c-4.402-1.075-7.278,4.418-10.756,6.556
			c-3.139,1.929-7.673,2.8-9.415,6.52c-1.514,0.052-2.759,1-4.53,1.863C3.766,27.2,3.407,27.883,3,29
			c-0.474,0.048-1.229-0.447-2.021,0.59l8.699,1.926c1.038,0.567,1.924,0.157,1.48-1.241c0.829,0.728,2.234,0.461,3.066,0.913
			c3.679,2.658,9.33,4.111,13.72,2.78c0.724,0.763,2.356,0.451,3.057,1.068c1.646,1.588,3.816,1.688,6,1.963
			c0.709,0.324,1.682,0.96,2.575,0.659C40.151,37.464,41.486,37.698,42,38c1.156,0.846,2.668,0.714,4,1
			c3.096,0.665,5.937,1.999,9,1.129c1.985-0.564,3.112-0.19,4.43-2.029l1.717,3.724C62.324,44.374,67.85,43.945,71,44l1.047,0.018
			c0.539,0.327,3.097,1.759,3.704,0.632c1.18-2.193,1.164-6.068-0.145-8.255c-0.424-0.709-9.538-11.965-10.456-7.361
			c-0.273,0.021-0.574-0.096-0.843-0.05c-0.183-0.578,0.004-1.256-0.123-1.85c0.766-0.638,0.703-1.48,0.602-2.282
			c-0.14-1.118-1.412-1.294-1.898-1.773l-2.945-2.898c-1.111-1.093-1.293-1.859-2.877-2.315c-1.005-0.495-1.086-3.683-2.919-2.945
			c-0.633-0.43-1.359-1.914-2.265-1.843C50.806,13.163,49.83,12.4,49,12.142c0.429,0.071,1.064-0.289,1.438-0.071
			c0.743,0.432,2.2-0.485,1.173-1.076l-1.74-1c-2.878-1.655-4.722-5.716-7.951-8.31C39.004,2.79,36.746,4.254,35,6z M84.026,45.887
			c0.087-2.052-1.064-2.616-1.524-2.756c-0.295-0.09-0.328,1.376-1.195,1.824c0.216-2.493-0.588-4.678-3.197-5.984
			c-0.456,2.441-1.111,4.932,0.29,6.586C79.581,46.61,82.153,45.325,84.026,45.887z"/>
		<path style="fill:#494949;" d="M64.184,27.134c0.127,0.594-0.06,1.273,0.123,1.85c-0.986,1.45-2.666,2.991-4.467,2.856
			c1.065,3.268-4.145,7.241-6.987,5.37c-1.047,2.101-4.329,1.938-5.092-0.139c-2.36,1.009-1.908-0.293-0.533-2.071
			c-1.261-1.001-0.404-3.237,0.987-4c-1.582-1.734-0.215-4.708,1.948-5.181c1.717-0.037,2.797-0.611,3.243-1.722
			c1.698,1.344,3.239,1.775,5.348,1.112c0.628-0.866,5.422-0.024,5.546,0.74C64.361,26.327,64.291,26.728,64.184,27.134z"/>
		<path style="fill:#5A5A5A;" d="M49,12.142c0.83,0.258,1.806,1.021,2.882,0.937C54.31,15.476,50.727,22.82,48,22
			c-1.933,1.726-3.597,0.627-3-2l-7-4c-1.076,1.009-2.076,0.009-3-3c-2.507,0.62-2.624-0.305-0.89-2.181
			c-0.147-0.828-0.113-2.617,0.846-2.768c0.676-0.107,11.246,2.926,13.234,3.505C48.491,11.644,48.751,11.872,49,12.142z"/>
		<path style="fill:#3E3E3E;" d="M18.244,18.556c2.342-1.261,3.548-1.073,3.619,0.564c1.306,0.494,1.791,1.9,1.453,4.219
			C25.276,24.148,24.504,25.035,21,26c2.097,2.422-4.133,6.663-6.777,5.189c-0.832-0.452-2.237-0.185-3.066-0.913
			c-1.567-1.217-2.343-2.95-2.329-5.199C10.571,21.357,15.105,20.486,18.244,18.556z"/>
		<path style="fill:#575757;" d="M66.024,30.976l1.916,5.084c2.841-1.106,3.961,1.85,2.06,3.94c0.87,1.431,1.203,2.764,1,4
			c-3.15-0.055-8.676,0.374-9.852-2.177L59.43,38.1c-1.984-2.078,0.072-4.51,2.57-5.1c-0.879-0.913-0.11-2.252,2.307-4.016
			c0.269-0.046,0.569,0.071,0.843,0.05C67.14,28.667,67.529,29.647,66.024,30.976z"/>
		<path style="fill:#424242;" d="M72.047,44.018C71.096,42.889,70.414,41.549,70,40c-0.731-1.152-1.318-2.896-2.06-3.94
			l-1.916-5.084c-0.559-0.318-0.521-1.467-0.874-1.942c0.918-4.604,10.032,6.653,10.456,7.361c1.309,2.187,1.326,6.061,0.145,8.255
			C75.144,45.778,72.586,44.345,72.047,44.018z"/>
		<path style="fill:#4D4D4D;" d="M30,25l5,2c2.081-1.05,2.53-0.833,3.205,1.386c2.75-0.213,0.839,3.463-0.84,4.071
			c1.128,3.687-3.658,3.361-6.365,2.58c-0.701-0.617-2.333-0.305-3.057-1.068L26.241,29c-2.448,0.916-2.771-0.068-1.241-2
			c-0.487-0.664-1.305-2.018-1.07-2.2C24.209,24.584,30.684,23.059,30,25z"/>
		<path style="fill:#636363;" d="M25,27c0.921,0.264,0.791,1.438,1.241,2l1.701,4.969c-4.39,1.332-10.041-0.121-13.72-2.78L21,26
			C22.968,22.756,24.743,23.819,25,27z"/>
		<path style="fill:#414141;" d="M49.871,9.995c0.556,0.37,1.056,1.116,0.87,1.275c-0.808,0.689-15.55-2.097-16.187-2.626
			C33.68,7.918,34.355,6.911,35,6c1.746-1.746,4.004-3.21,6.92-4.316C45.15,4.279,46.993,8.34,49.871,9.995z"/>
		<path style="fill:#CACACA;" d="M48.982,23.785c2.898-1.308,2.944-0.478,1.181,2.033c-0.229,1.865-1.304,3.496-1.948,5.181
			c-1.645,1.821-1.974,3.154-0.987,4c-0.439,0.376-0.252,2.223,0.533,2.071C48.489,38.999,47.955,39.207,46,39
			c-1.332-0.286-2.844-0.154-4-1c-1.517-2.565-0.745-5.715,2.316-9.45l-0.318-1.214C40.87,24.566,46.521,20.54,48.982,23.785z"/>
		<path style="fill:#4F4F4F;" d="M42,38c-0.514-0.302-1.849-0.536-2.425-0.341c-1.363,0.112-1.568-0.865-0.615-2.932
			c-1.094-2.731-0.204-5.918,2.788-6.556c0.154-2.539,0.387-2.617,2.249-0.835c0.928-0.315,1.668-0.85,3.105-1.247L42,38z"/>
		<path style="fill:#565656;" d="M57.066,17.866c4.264,5.788,4.251,9.004-3.936,7.254c0.305-1.64,0.262-3.347-0.13-5.12
			c-2.352,0.33-0.796-5.181,1.147-5.079C55.98,14.183,56.061,17.371,57.066,17.866z"/>
		<path style="fill:#494949;" d="M62,33c-0.415,2.123-1.347,3.394-2.57,5.1c-1.318,1.839-2.445,1.465-4.43,2.029
			c-3.165-0.142-5.732-1.173-2.147-2.919c2.404-1.657,4.936-3.262,6.987-5.37C61.747,30.549,62.812,30.694,62,33z"/>
		<path style="fill:#B0B0B0;" d="M59.942,20.181c0.099,0.573,1.151,4.933,2.945,2.898c0.487,0.479,1.758,0.655,1.898,1.773
			c0.101,0.803,0.165,1.645-0.602,2.282c-2.294-3.045-12.263-0.035-14.02-1.315C50.695,23.946,51.308,22.007,52,20
			c0.284-0.873,0.618-0.86,1,0c0.414,1.468,1.138,3.061,1.606,4.095c0.6,1.327,4.262,1.522,4.571-0.018
			c0.504-2.512-1.54-4.549-2.112-6.211C58.649,18.323,58.831,19.088,59.942,20.181z"/>
		<path style="fill:#777777;" d="M29,12c1.858-0.225,1.621,0.288,0,1.228c2.153,2.415-2.739,7.393-5,4.772
			c-0.443,1.831-0.764,2.836-2.136,1.121c-1.219-0.099-2.418-0.345-3.619-0.564C21.722,16.418,24.598,10.925,29,12z"/>
		<path style="fill:#D7D7D7;" d="M49.871,9.995l1.74,1c1.027,0.591-0.43,1.508-1.173,1.076c-0.374-0.218-1.01,0.143-1.438,0.071
			c-4.084-0.257-7.989-1.703-12.256-2.955c-1.269-0.372-1.945,1.262-2.634,1.632C31.283,11.143,30.745,9.68,33,8l2-2
			c-0.187,0.563-0.045,1.62,0.977,1.886l12.132,3.145C48.941,11.247,50.251,10.844,49.871,9.995z"/>
		<path style="fill:#B2B2B2;" d="M41.748,28.171c-2.729,2.337-3.203,6.142-2.173,9.488C38.682,37.96,37.709,37.324,37,37
			c-0.505-1.51-0.233-3.085,0.365-4.543c-0.04-1.589,2.294-2.89,0.84-4.071C38.415,25.347,41.201,25.187,41.748,28.171z"/>
		<path style="fill:#484848;" d="M84.026,45.887c-1.873-0.563-4.446,0.723-5.627-0.33c-1.4-1.654-0.745-4.145-0.29-6.586
			c2.609,1.306,3.413,3.491,3.197,5.984c0.867-0.448,0.9-1.914,1.195-1.824C82.962,43.272,84.113,43.835,84.026,45.887z"/>
		<path style="fill:#7E7E7E;" d="M52.853,37.21c-0.429,1.637,0.738,2.417,2.147,2.919c-3.063,0.871-5.904-0.464-9-1.129
			c0.309-0.493,0.939-2.063,1.761-1.929C49.477,37.35,51.206,36.633,52.853,37.21z"/>
		<path style="fill:#666666;" d="M37,37c-2.184-0.275-4.354-0.375-6-1.963c2.219-0.553,4.631-1.108,6.365-2.58
			c0.658,0.579,1.581,1.329,1.5,2.117C38.72,35.97,38.095,36.808,37,37z"/>
		<path style="fill:#D4D4D4;" d="M54.147,14.921C53.26,16.306,52.523,18.308,53,20h-1c0.077,3.617-0.928,4.879-3.018,3.785
			C46.211,24.34,46.094,24.14,48,22c2.873-1.829,4.202-5.584,3.882-8.921C52.788,13.008,53.514,14.491,54.147,14.921z"/>
		<path style="fill:#424242;" d="M34.11,10.819c0.062,3.372-2.654,4.767-5.11,2.409V12c-0.045-2.267,2.048-3.337,4-4
			C33.447,8.907,33.719,9.89,34.11,10.819z"/>
		<path style="fill:#616161;" d="M3,29c1.21-0.838,2.998-1.007,5.365-0.507c0.794-1.191,1.725-0.597,2.793,1.783
			c0.444,1.397-0.442,1.807-1.48,1.241L0.979,29.59C1.771,28.553,2.526,29.048,3,29z"/>
		<path style="fill:#D5D5D5;" d="M11.157,30.276C8.925,28.314,5.781,29.093,3,29c0.407-1.117,0.766-1.8,1.299-2.06
			c1.589,0.103,3.099-0.518,4.53-1.863C10.39,26.657,10.603,28.532,11.157,30.276z"/>
		<path style="fill:#4A4A4A;" d="M62.887,23.079c0.597,0.722,0.323,1.958-0.669,2.056c-1.133,0.113-2.759-2.532-3.091-3.602
			c-0.138-0.443-0.173-1.63,0.815-1.352L62.887,23.079z"/>
		<path style="fill:#666666;" d="M8.829,25.077C8.367,26.063,9.88,28.38,7.512,28.08c-1.078-0.137-2.524-0.033-3.213-1.14
			C6.07,26.076,7.315,25.128,8.829,25.077z"/>
		<path style="fill:#B6B6B6;" d="M72.047,44.018L71,44c-0.771-1.19-1.022-2.598-1-4C70.81,41.277,72.305,42.194,72.047,44.018z"/>
		<path style="fill:#3C3C3C;" d="M48.215,31c-0.426,1.115,0.108,3.062-0.987,4c-0.757,0.177-0.876,0.9-1.869,2.002
			C44.723,34.928,45.37,30.823,48.215,31z"/>
		<path style="fill:#C0C0C0;" d="M62,33c-0.408-0.81-1.314-1.066-2.16-1.16c1.266-1.301,2.523-2.521,4.467-2.856
			C64.886,30.811,62.244,31.748,62,33z"/>
		<path style="fill:#515151;" d="M45,20c0.74,0.72,2.488,0.883,3,2c0.287,0.625,0.519,1.245,0.982,1.785
			c-2.197,0.202-4.289,1.384-4.985,3.551c-0.745,0.253-1.337,0.941-2.249,0.835c-1.181-0.137-2.382-0.012-3.543,0.215
			C36.804,28.66,35.701,28.183,35,27l-5-2c-0.564-0.099-1.066-0.251-1.347-0.587c-0.395-0.471,7.271-8.461,8.116-9.184
			C36.879,15.135,37.383,15.502,38,16L45,20z"/>
		<path style="fill:#5A5A5A;" d="M34.11,10.819c0.284,0.674,0.861,1.47,0.89,2.181l1.577,2.145
			c-1.98,2.961-8.045,10.206-11.438,10.242C22.531,25.414,22.58,19.612,24,18c2.069-1.085,3.508-3.092,5-4.772
			C30.856,12.9,32.461,11.702,34.11,10.819z"/>
		<path style="fill:#BFBFBF;" d="M38,16c-1.412,0.856-8.74,7.203-8,9c-2.013-0.064-4.851-0.662-5,2
			c-0.738-0.322-1.076-1.284-1.618-1.438C22.504,25.313,21.646,25.857,21,26c2.308-1.768,1.696-4.066,0.864-6.879L24,18l0.047,5.885
			c3.682,1.996,8.612-5.446,11.485-8.123C36.015,15.045,35.026,13.646,35,13C36.403,13.559,37.308,14.711,38,16z"/>
		<path style="fill:#BABABA;" d="M45,20c-2.613-0.642-5.666-1.514-7-4C40.714,16.489,43.483,17.657,45,20z"/>
		<path style="fill:#B2B2B2;" d="M67.94,36.06c-1.734-0.912-1.873-3.287-1.916-5.084C67.949,32.074,67.593,34.261,67.94,36.06z"/>
		<path style="fill:#C0C0C0;" d="M35,27c-1.758-0.132-4.235-0.143-5-2C31.831,25.058,33.961,25.247,35,27z"/>
		<path style="fill:#BEBEBE;" d="M27.943,33.969c-1.682-0.803-1.893-3.281-1.701-4.969C27.331,30.361,28.603,32.176,27.943,33.969z"
			/>
		<path style="fill:#565656;" d="M50.163,25.819c0.085-0.69-0.775-1.559-1.181-2.033C50.976,23.401,50.235,20.695,52,20
			c0.114,1.424,1.612,2.966,0.716,4.561c-0.278,0.494-1.66,0.39-2.127,0.427C50.24,25.017,49.722,24.962,50.163,25.819z"/>
	</g>
</g>
</svg>
