<?xml version="1.0" encoding="iso-8859-1"?>
<!-- Generator: Adobe Illustrator 30.1.0, SVG Export Plug-In . SVG Version: 9.03 Build 0)  -->
<svg version="1.1" id="Layer_1" xmlns="http://www.w3.org/2000/svg" xmlns:xlink="http://www.w3.org/1999/xlink" x="0px" y="0px"
	 viewBox="0 0 118 79" style="enable-background:new 0 0 118 79;" xml:space="preserve">
<g>
	<g>
		<path style="fill:#FAFAFA;" d="M66,0l49.255,36.647c1.197,0.891,1.608,1.952,1.805,2.899c0.338,1.625-0.65,2.494-1.863,3.726
			L80,79H36c-3.387-0.363-6.72-0.696-10-1c-0.851-0.294-0.84-0.628,0-1c0.002-2.927,3.341-2.803,4,0c0.284-0.873,0.618-0.86,1,0
			c1.713-1.149,2.713-1.149,3,0c7.483-1.586,15.058-1.423,22.6-1.007L58,78c0.787-2.324,1.257-2.311,2,0c0.533-0.865,1.13-1.773,2-1
			c0.284-0.873,0.618-0.86,1,0c1.046-1.208,2.632-1.448,4.758-0.719c2.349-0.71,4.096-0.47,5.242,0.719
			c1.271-1.094,2.838-1.398,4.7-0.914c1.259-2.835,2.692-3.53,4.3-2.086c-0.932-2.18-0.942-4.006,2-4
			c0.873-0.088,1.709-0.892,2.509-2.414l1.367,0.453c0.4-2.398,1.397-3.966,2.99-4.703c-0.112-3.042,2.8-7,6.037-6.089
			C98.137,56.984,99.17,56.235,100,55c-1.155-2.448-0.47-3.139,2.089-1.99c0.956-2.141,2.001-2.933,3.134-2.375
			c0.457-3.35,2.067-4.871,4.829-4.562l-0.826-1.082c2.456-2.471,3.088-4.77,1.896-6.899c-2.27-0.769-2.423-1.079-1.122-3.093
			c-2.976,1.057-6.311-1.67-6.803-4.761c-0.691,0.283-1.09-0.13-1.197-1.239c-1.035,0.851-1.447,0.29-1-1
			c-1.505,1.066-2.87,0.585-3.239-1.244c-2.303-0.623-3.833-1.833-4.591-3.63c-1.755-0.906-3.189-1.968-4.304-3.186
			c-2.474,0.778-6.694-2.516-6.879-4.963c-2.247,1.21-6.356-2.426-5.866-4.806c-0.845,1.485-1.524,1.067-2.037-1.255
			c-1.062,1.717-1.851,1.258-1.496-0.785c-1.749,2.021-2.504,1.396-2.47-1.16c-2.039,1.597-2.792,0.622-2.257-2.924
			c-0.864,1.211-1.863,0.741-2.998-1.409L63,2l0.506,1.291C61.951,4.955,59.782,6.191,57,7c-1.181,1.798-2.541,1.643-3.84,0
			c-0.339,2.997-2.475,5.218-5.16,3c0.011,1.34-1.2,2.251-3.633,2.735c0.479,2.124-0.26,2.638-2.219,1.542L38,16
			c-0.455,1.281-1.876,1.942-3,1c0.342,0.919-0.658,1.585-3,2c-0.122,1.848-2.987,4.72-4.898,3.1C27.5,24.325,26.799,24.625,25,23
			c0.022,0.868-1.067,1.75-2,2c-0.704,5.47-2.908,7.104-6.614,4.902C13.932,31.484,11.47,32.517,9,33c-1.616,1.772-4.781,4.932-7,3
			c-0.284,0.873-0.618,0.86-1,0c-0.159-1.965,0.937-2.302,2.744-3.316L62,0H66z"/>
		<path style="fill:#FBFBFB;" d="M2,48c1.384-0.535,1.72,0.122,1.008,1.969c2.668,0.899,2.098,1.607-0.663,1.703
			c-1.093,6.487-1.313,13.103-0.659,19.846c1.226,0.483,1.659,1.618,1.3,3.403l8.661,0.077L13,77c0.63-1.199,1.837-1.645,2,0
			c2.476-2.369,5.809-2.703,10-1c1.559-1.357,2.125-0.773,1,1c0.151,0.256-0.081,0.706,0,1c-8.217,0.826-17.687,0.797-26,0V41h1
			c0.13,2.23,0.677,4.168,1.64,5.814L2,48z"/>
		<path style="fill:#C6C6C6;" d="M6,40l-0.257,1.333c-1.966,0.511-2.565,1.991-1.796,4.439C6.189,46.749,3.572,48.737,2,48
			c-1.324-2.117-0.99-4.598-1-7c-0.007-1.649,0.133-3.357,0-5h1C5.021,36.721,6.354,38.054,6,40z"/>
		<path style="fill:#CACACA;" d="M76.121,10.171C78.342,11.373,77.237,15.157,76,17c0.781,1.615,0.548,1.929-1,1
			c0.029,1.906-0.304,2.906-1,3c1.377,0.893,2.711,1.893,4,3c1.954-0.125,4.118,0.746,4,3c1.298-1.744,2.253-1.463,2.866,0.845
			c1.473-2.757,3.375-1.777,3.31,1.163c1.914-1.55,4.046-0.519,3.843,2.039C92.887,29.882,94.284,29.67,95,31
			c1.985,0.221,3.985,0.887,6,2c1.283-1.739,1.779-1.027,2,1c2.142-0.062,3.758,1.908,3,4c2.356-1.127,4.064-1.096,5.122,0.093
			c1.913,1.073,1.493,2.929-1.262,5.57c-0.593,0.844-0.529,1.648,0.192,2.411c-1.497,1.726-2.968,3.308-4.829,4.562
			c-0.708-1.006-1.752-0.214-3.134,2.375C101.378,53.2,100.943,54.813,100,55c-0.729,1.61-1.437,1.964-2.123,1.063
			c-3.331,2.058-5.31,2.017-5.937-0.123c-0.426-0.966-0.4-2.096,0.076-3.392L87,53c-3.454,1.768-6.12,1.768-8,0
			c-0.284,0.873-0.618,0.86-1,0c-1.454,0.588-3.136,0.942-5.045,1.063c-0.429,1.209-1.583,2.102-3.463,2.679
			C68.749,59.052,67.585,60.805,66,62c0.414,2.122-0.581,5.47-2.861,5.861c1.641-0.358,1.701,0.223,0.178,1.743
			C64.197,71.757,63.35,74.269,61,75c0.843,1.187,0.014,2.277-1,3h-2c-1.888-1.829-1.927-3.576,1-4l-0.905-2.65
			c1.711-3.415,2.778-6.858,3.2-10.326C57.681,60.921,54.249,60.913,51,61c-3.394,1.181-4.971-1.995-2-4l1.924-1.259
			c4.453,0.412,8.928,0.493,13.426,0.242L65,55c-0.583-0.299-0.57-0.633,0-1c-0.825-1.963,0.115-1.866,1.947-1.179l0.831-2.014
			c0,0,5.074-0.602,15.222-1.807c-1.219-1.248-0.666-1.663,1-1c3.097,0.081,6.325-0.268,9.683-1.047L95,49
			c0.257-1.684,0.966-2.335,2.108-0.864l0.29-1.348c8.172-1.779,9.842-3.998,5.01-6.658L102,38c-0.864,0.39-1.197-0.276-1-2
			c-1.916,1.367-4.731,1.17-8.446-0.591c-0.629,1.469-0.782,1.433-0.764-0.218c-1.205-0.582-2.457-1-3.759-1.255
			c-2.049-0.007-2.619-2.211-2.984-3.94C84.235,31.999,83.552,31.666,83,29c-1.166,1.005-1.394,4.366-1,8
			c0.941-1.896,1.674-0.434,1.339,1.171C82.131,42.276,76.351,38.507,80,36l-1.526-1.406C78.692,29.535,77.534,27.67,75,29
			c-1.732,1.014-2.362,0.252-3.084-1.401C70.277,28.603,68.638,29.07,67,29c-0.284,0.873-0.618,0.86-1,0
			c0.067,1.882-0.049,3.063-1.95,2.102c-2.371-1.1-2.648-1.142-0.831-0.128c-2.08,1.354-4.193,2.052-6.339,2.093
			c-0.595,1.48-0.324,3.281,0.811,5.403l-1.671,1.666c-1.091,1.854-2.232,1.747-2.873-0.316c-0.802-0.199-0.717-0.404,0.152-0.617
			c-1.713-1.318-2.897-1.295-3.551,0.071c0.659,0.078,0.7,0.383,0.199,0.887c0.565,2.052-0.201,2.497-1.703,0.989
			C47.596,39.921,47.182,39.537,47,40c-0.699,1.828-2.722,2.927-6.07,3.296c-0.744,3.019-2.208,4.535-4.392,4.55
			c-2.564,0.975-3.438-0.453-2.381-2.84c-1.658-2.544-0.084-4.183,2.685-4.436c-1.254-2.864,1.336-4.807,3.988-3.57
			c1.064,3.029,1.064,3.029,0,0c-1.705-1.078-1.408-3.063,0.893-5.956C40.586,29.077,40.345,27.396,41,26
			c-2.898-0.76-2.774-1.84,0.004-2.933C43.434,20.933,43.878,24.708,44,27c1.518,1.921,3.41,3.418,5.677,4.491
			c0.26-0.913,0.573-0.86,0.934,0.076C51.416,30.808,52.056,30.865,52,32l0.811-2.075c3.535-0.825,5.931-2.413,7.189-4.765
			c0.516-2.964,3.706-2.376,3.381,0.732c2.956-2.139,5.129-2.46,6.52-0.961c0.608-1.423,1.777-2.964,3.1-3.932
			c-0.915-0.242-0.893-0.578,0-1c-2.368-2.531-1.541-8.914,1.084-11.084C74.79,9.248,75.394,9.907,76.121,10.171z"/>
		<path style="fill:#242424;" d="M23,25c1.392-1.354,1.957-0.734,1,1c2.007-1.058,3.117-0.322,2.923,1.939
			C28.821,28.854,28.18,30.207,25,32c-2.892,1.672-5.246,3.583-7.061,5.734c-0.402-0.423-0.777-0.736-1.056-0.666
			c-0.335,0.084-6.134-0.28-6.457-0.4C10.119,36.553,10.028,35.859,10,35c-2.53,0.099-2.645-0.08-1-2
			c1.505-4.003,6.774-3.893,9.662-7.172c0.897,2.039-0.386,3.243,0.976,4.242c0.852-1.81-0.014-2.988,0.502-4.394
			C20.496,24.706,22.1,25.118,23,25z"/>
		<path style="fill:#BABABA;" d="M70.118,6.971c0.592,2.416-1.148,3.751-5.219,4.007C67.186,10.527,68.552,11.201,69,13
			c2.656,0.319,2.541,1.239,0,2c-0.42,2.652-1.32,2.618-2.192,0.094c-1.93,1.636-4.051,1.338-5.039-1.094
			c-1.54-0.659-3.371-0.965-5.493-0.915l-1.334,1.345c-2.51-0.652-3.586,0.384-3.228,3.111c1.009,1.33,0.539,1.921-0.971,1.228
			C50.678,20.624,50.041,20.462,49,19c-1.294,2.231-4.14,1.358-4.957-0.858c-2.995-1.338-2.995-1.338,0,0
			c2.442,1.551,2.078,2.713-0.807,2.604c0.138,1.749-0.422,2.519-2.232,2.322c-0.365,2.454-2.069,3.1-3.839,1.259
			c-1.005-0.953-1.005-2.391,0-4.315C34.903,20.376,33.181,20.039,32,19c1.071-0.502,1.635-1.815,3-2c1.344,0.418,2.344,0.085,3-1
			c1.218-2.441,3.946-2.408,6.367-3.265C45.678,11.489,48.1,10.798,48,13c-0.321,1.709-0.321,1.709,0,0
			c-0.938-0.462-0.938-1.462,0-3l5.16-3c1.342,0.961,2.958,1.262,4.848,0.903c0.786-2.057,3.134-2.738,7.042-2.042
			c0.33-1.309,1.267-1.913,2.811-1.814c0.373,0.212,1.46-0.32,1.701,0.428C69.723,4.977,68.902,8.139,70.118,6.971z"/>
		<path style="fill:#313131;" d="M86,66c0.874,1.481-0.234,4.026-2,4c-1.026,1.635,0.086,3.093-2,4
			c-2.867,0.216-9.608-2.495-9.394-5.982c-3.048-1.469-2.986-2.357,0.186-2.664C72.312,62.566,74.606,61.545,77,63
			c0.964-2.543,2.069-3.081,3.313-1.613c2.719,1.309,5.127,1.422,7.221,0.34C88.279,63.018,87.768,64.442,86,66z"/>
		<path style="fill:#3E3E3E;" d="M29,64c3.274,1.072,2.429,10.207,1,13h-4c-0.211-0.357-0.593-0.865-1-1
			c-2.066,0.793-3.351-0.156-2-2c-1.382-0.739-2.171-1.861-0.792-2.695C20.055,68.904,19.985,66.802,22,65
			C23.135,62.962,25.469,62.629,29,64z"/>
		<path style="fill:#565656;" d="M57,73c1.713-2.17,2.452-1.681,2,1c-0.595,1.092,0.152,3.018-1,4c-9.847,0-11.845-1-24-1
			c-0.042-0.862,0.267-1.557,1.089-1.701C40.422,74.37,45.724,73.394,51,72c-0.562-1.506,0.092-1.633,1.964-0.381
			C53.582,69.882,54.927,70.342,57,73z"/>
		<path style="fill:#373737;" d="M72.606,68.018C75.673,70.344,80.034,70.586,82,74c-1.761,0.765-2.188,3.677-3.77,3.924
			C76.111,78.256,74.482,77.858,73,77c-2.862,0.519-5.62-4.539-4.089-6.85C65.267,66.463,70.998,64.625,72.606,68.018z"/>
		<path style="fill:#A9A9A9;" d="M93.171,23.126c1.085,1.608,2.615,2.818,4.591,3.63c1.217,0.086,2.491,0.165,3.239,1.244
			c1.038,2.783-0.392,4.092,0.134,1.596c0.052-0.248,0.415-0.431,0.866-0.596c0.373,0.344,0.778,1.015,1.197,1.239
			c2.112,1.625,2.802,3.04-0.197,3.761c-0.577-0.432-1.57-0.442-2-1c-2.046,0.754-5.097-1.902-3.071-3.982
			c-2.074,0.268-4.045,0.945-5.911,2.029c-1.392-0.51-2.939-0.673-3.843-2.039c-2.048-1.145-1.495-2.772,1.661-4.881
			c-2.696-0.256-3.834,0.409-3.416,1.995l-1.554,1.724C83.754,27.844,82.838,27.598,82,27c-1.207-1.885-1.512-3.141,1-4
			c-0.458-2.649,3.915-4.737,5.866-3.06C90.868,20.003,92.608,21.18,93.171,23.126z"/>
		<path style="fill:#474747;" d="M68.911,70.15C70.722,72.141,71.812,74.604,73,77c-2.902,1.684-7.115,1.732-10,0
			c-1.779-2.62,1.823-8.155,4.89-7.982C68.233,68.507,68.573,68.884,68.911,70.15z"/>
		<path style="fill:#262626;" d="M9,33c0.511,0.479,0.838,1.286,1,2c2.492,0.725,2.492,1.725,0,3l-0.8,0.955
			C10.208,41.679,9.808,42.694,8,42c-1.347,0.063-1.996-0.645-2-2c-1.033-0.91-2.462-0.839-3.297-1.264
			C1.554,38.149,1.906,36.861,2,36C4.159,34.631,6.428,31.701,9,33z"/>
		<path style="fill:#3C3C3C;" d="M81.987,14.976C84.938,16.663,84.528,19.225,81,19l-1.079,0.354C80.972,21.585,78.429,20.97,78,19
			c-1.688,0.938-2.846-0.217-2-2c-1.574-2.076-0.85-4.569,0.121-6.829C78.579,11.061,80.426,12.909,81.987,14.976z"/>
		<path style="fill:#282828;" d="M74.084,8.916C74.294,12.669,73.703,16.322,73,20c-3.087,2.038-4.34,0.665-3.508-2.957L69,15v-2
			c-1.329-2.597,0.883-5.389,3.588-4.869C73.033,8.441,73.592,8.684,74.084,8.916z"/>
		<path style="fill:#2B2B2B;" d="M97.877,56.063c0.961,1.03,0.429,1.47-0.974,1.184c-2.115,1.904-3.429,4.829-6.037,6.089
			c-0.363,0.831-0.673,0.75-0.934-0.168c-0.936,0.257-1.768-0.055-2.496-0.936C88.455,61.255,88.977,59.845,89,58
			c-1.588-0.909-1.255-1.243,1-1c-1.058-2.658-0.074-3.135,1.94-1.06C94.022,56.21,96.48,54.263,97.877,56.063z"/>
		<path style="fill:#282828;" d="M72.588,8.131C71.148,9.587,70.71,11.76,69,13l-5.914-0.032c-0.14-1.472-0.192-2.537,0.024-3.82
			c2.859-0.364,5.231-0.586,7.008-2.177C71.066,7.081,71.83,7.602,72.588,8.131z"/>
		<path style="fill:#3B3B3B;" d="M88.866,19.94C87.221,21.462,85.105,22.297,83,23c-1.524,1.03-2.023,0.421-0.906-1.094
			C79.848,21.395,78.681,20.069,81,19c0.951-1.134,1.246-2.535,0.987-4.024C84.768,15.732,87.327,17.491,88.866,19.94z"/>
		<path style="fill:#252525;" d="M65.05,5.861c-0.932,3.162-3.639,1.414-7.042,2.042C57.137,8.199,56.801,7.898,57,7
			c-0.356-3.424,3.908-3.216,6-5C65.227,1.836,67.708,4.748,65.05,5.861z"/>
		<path style="fill:#252525;" d="M67.89,69.018L63,77h-1c-0.795-0.023-1.128-0.69-1-2c0.011-2.096,0.458-4.173,2.318-5.396
			C64.348,67.761,69.694,65.462,67.89,69.018z"/>
		<path style="fill:#272727;" d="M110,35c0.463,2.069-2.119,3.423-4,3c-1.57-0.892-3.105-1.997-3-4l0.197-3.761
			C105.906,31.08,107.835,33.261,110,35z"/>
		<path style="fill:#383838;" d="M110.052,46.073c-0.526-0.077-1.21,0.372-1.531,0.101c-3.21-2.706,4.802-7.949,2.6-8.082
			c0.891,0.262,1.896,0.534,2.337,1.071c0.665,0.809,0.644,2.241-0.141,3.146L110.052,46.073z"/>
		<path style="fill:#838383;" d="M31,64c0.325-0.837,0.658-0.834,1,0c3.511,1.203,2.555,9.484,0,12c-0.022,0.645-0.355,0.978-1,1h-1
			c-0.4-4.365,1.009-9.016-1-13c-0.892-0.325-0.89-0.658,0-1C30.397,60.562,31.541,61.324,31,64z"/>
		<path style="fill:#A6A6A6;" d="M51,72c-5.319,2.782-11.616,2.536-17,5h-3c0.335-0.316,0.611-0.741,1-1c0.544-2.99,1.544-3.657,3-2
			c4.22-1.801,8.602-3.125,13.148-3.973L51,72z"/>
		<path style="fill:#2C2C2C;" d="M37.165,20.01C37.908,22.285,36.267,23.062,35,21l-4,2c0.745,2.829-0.153,3.361-1.997,1.131
			c-3.442,2.354-4.156,0.67-1.9-2.031c1.464-1.095,3.2-2.305,4.898-3.1C33.806,18.646,35.807,18.625,37.165,20.01z"/>
		<path style="fill:#2E2E2E;" d="M57,7c0.342,0.293,0.754,0.513,1.008,0.903c-0.453,2.202-3.856,2.591-4.259,2.36
			C52.594,9.601,53.134,7.88,53.16,7C54.46,6.244,55.736,5.916,57,7z"/>
		<path style="fill:#404040;" d="M110,35c0.996,0.8,1.398,1.69,1.122,3.093c-1.533-0.183-1.892,1.671-2.707,1.886
			C106.78,40.41,106.725,38.412,106,38C106.43,35.939,108.378,35.87,110,35z"/>
		<path style="fill:#424242;" d="M87.877,68.039l-1.942,2.268C85.469,70.85,84.092,71.625,84,70c0.803-1.279,0.543-3.272,2-4
			c0.702-1.588,1.369-1.922,2-1C89.14,64.902,89.099,65.915,87.877,68.039z"/>
		<path style="fill:#1C1C1C;" d="M67.861,4.047c0.4,0.722,0.046,1.432-0.528,1.73c-0.683,0.355-1.725-0.076-2.283,0.084
			C65.023,4.309,64.414,2.756,63,2C64.779,0.483,66.455,2.796,67.861,4.047z"/>
		<path style="fill:#404040;" d="M97.761,26.756c-1.157-0.082-2.557,0.143-3.768-0.338c-1.183-0.47-0.973-2.184-0.822-3.292
			C95.198,23.525,96.97,24.83,97.761,26.756z"/>
		<path style="fill:#838383;" d="M27.102,22.1c-0.022,0.393-0.109,0.938,0.11,1.307c0.359,0.606,1.18,0.684,1.79,0.724
			c0.912,2.269,0.342,3.38-2.079,3.808C25.976,27.25,25.004,26.602,24,26c-0.315-0.748,0.018-1.748,1-3
			C25.577,22.896,26.432,22.066,27.102,22.1z"/>
		<path style="fill:#5E5E5E;" d="M89.932,63.168l0.934,0.168c-0.501,1.608-1.763,3.272-2.99,4.703L88,65
			C85.491,62.971,88.572,60.363,89.932,63.168z"/>
		<path style="fill:#535353;" d="M105.223,50.635c-1.063,0.716-1.787,2.017-3.134,2.375c0.096-1.915,1.149-3.643,2.636-5.199
			C106.274,48.904,105.784,49.949,105.223,50.635z"/>
		<path style="fill:#3B3B3B;" d="M48,13c-1.055-0.016-2.605-0.629-3.633-0.265C44.824,11.017,46.688,10.763,48,10
			c0.894-0.143,1.18,0.677,0.828,1.317C48.539,11.842,48.409,12.52,48,13z"/>
		<path style="fill:#414141;" d="M25,23c2.571-0.135-0.506,1.495-1,3c-0.4-0.24-0.668-0.685-1-1C23.214,23.871,23.828,23.211,25,23z
			"/>
		<path style="fill:#404040;" d="M102,29c0.093,0.4-0.167,0.903,0.031,1.46c0.281,0.788-0.458,2.193-0.975,0.887
			c-0.161-1.193-0.696-1.497-0.943-1.998c-0.287-0.583-0.034-1.5,0.887-1.348C101.256,28.369,101.667,28.692,102,29z"/>
		<path style="fill:#2A2A2A;" d="M38,16c-0.29,0.581,0.202,1.704-0.517,2.03C36.466,18.491,35.003,18.092,35,17
			C36.001,16.864,36.879,15.851,38,16z"/>
		<path style="fill:#818181;" d="M96.903,57.247c0.365-0.328,0.576-0.91,0.974-1.184C98.524,55.617,99.324,55.399,100,55
			c-0.631,0.125-0.019,2.226-0.887,2.609C98.399,57.924,97.099,58.592,96.903,57.247z"/>
		<path style="fill:#474747;" d="M62,77c-0.54,0.517-1.245,1-2,1c-0.109-1.055,0.895-2.058,1-3C61.81,75.318,62.023,76.2,62,77z"/>
		<path style="fill:#8D8D8D;" d="M9,57c1.605,2.409-2.855,4.616-5,5c-0.745,1.742-1.592,0.207-1.734-1.12
			c-0.064-0.595,1.181,1.241,1.019,2.192c-0.377,3.607,0.221,5.604,1.795,5.991l3.403,0.227C10.936,68.411,12.774,68.648,14,70
			c1.389,1.334,1.055,3.334-1,6c0.873,0.284,0.86,0.618,0,1L0.993,76.977L0.914,55.93c-0.007-1.928,0.077-3.383,1.431-4.259
			c1.409,0.489,2.007,1.956,1.794,4.401C6.129,55.325,7.776,54.877,9,57z"/>
		<path style="fill:#B8B8B8;" d="M22,63c1.962,0.396,1.529,0.893,0,2c-1.558,4.329,1.011,4.385,1,9c-2.079,2.743-5.308,0.96-3-2
			c0.455-1.859,0.455-1.859,0,0c-0.537,2.464-2.464,4.518-5,5h-2v-1c1.593-2.252,1.926-4.252,1-6c-0.811-0.224-0.781-0.561,0-1
			c-0.222-1.794,0.977-2.414,3.597-1.858C17.928,64.447,19.062,63.066,21,63C21.226,62.121,21.563,62.148,22,63z"/>
		<path style="fill:#636363;" d="M6,48c1.332,1.592,1.594,1.66,0.787,0.205c2.364,0.349,4.161,0.355,5.392,0.018
			c2.259-1.75,3.101-0.898,1.822,1.667c1.326,0.635,1.66,1.338,1,2.11c-3.504,2.715-9.714,3.292-12.656-0.329
			c0.468-0.303,0.474-1.238,0.663-1.703C2.25,47.988,4.956,45.584,6,48z"/>
		<path style="fill:#4C4C4C;" d="M20,72c0.078,1.538,1.811,1.698,3,2c0.523,0.658,1.072,1.692,2,2
			c0.074,0.803-0.898,1.012-1.944,1.011L15,77C15.957,74.664,17.231,72.051,20,72z"/>
		<path style="fill:#2D2D2D;" d="M6,47c0.873,0.284,0.86,0.618,0,1c-1.493-0.428-2.468,0.683-2.992,1.969
			C2.018,49.756,2.366,48.585,2,48c1.014-0.306,1.698-1.215,1.947-2.228C5.523,44.136,7.115,44.799,6,47z"/>
		<path style="fill:#131313;" d="M6,40c0.268,0.236,0.979-0.043,1.369,0.226C7.925,40.61,8.086,41.323,8,42
			c1.002,0.44,0.669,1.018-1,1.734c0.32,1.548-1.698,2.425-3.053,2.037c-2.726,0.631-1.974-2.365-1.992-4.377
			C1.937,39.246,4.445,40.042,6,40z"/>
		<path style="fill:#2D2D2D;" d="M59,74c-0.7-0.133-1.293-0.965-2-1c-1.985-0.844-2.985-2.511-3-5c-2.563,0.907-2.918-0.262-1-2
			l-2-5c0.045-0.361-0.237-1.519,0.204-1.855c4.591-0.2,8.719-0.477,13.392,0.227C62.633,64.514,61.416,69.568,59,74z"/>
		<path style="fill:#414141;" d="M49,57c0,1.554,0.704,3.087,2,4l2,5c0.738,0.398,0.542,1.55,1,2c2.895,5.441-1.802,4.067-5,1
			c-2.231,1.571-4.589-0.519-5-3c-3.276,0.54-5.126-3.186-4-6c-2.21-1.331-1.285-2.911,2.773-4.742
			C44.246,56.335,46.322,56.916,49,57z"/>
		<path style="fill:#323232;" d="M95,49c-4.228-0.578-11.948,3.498-11-1l-0.713-0.768c0.974-5.653,1.462-8.48,1.462-8.48
			l1.082,0.487c1.398-1.961,2.641-2.015,3.727-0.16c1.378-1.863,2.387-1.691,3.026,0.517c3.71,0.873,4.691,1.85,2.943,2.931
			C95.861,45.259,95.685,47.416,95,49z"/>
		<path style="fill:#3F3F3F;" d="M87,53c2.06-0.599,3.06,0.734,3,4l-1,1c-0.078,4.267-0.961,5.78-2.651,4.541l-7.381-1.197
			l-0.905-2.542C75.316,56.908,76.528,55.048,79,53l6.366-1.568C86.046,51.264,86.511,52.739,87,53z"/>
		<path style="fill:#404040;" d="M65,55c0.376,0.238,0.69,0.41,0.774,0.715c0.083,0.305-0.101,1.751-0.433,1.841
			C59.947,58.083,54.028,58.87,49,57c-0.873-0.284-0.86-0.618,0-1c-0.755-2.82,3.152-6.946,6-6c0.376-0.433,0.703-0.755,0.856-0.687
			C58.778,50.618,62.543,53.127,65,55z"/>
		<path style="fill:#454545;" d="M97.108,48.136c-1.693,1.579-2.237-5.941-2.077-6.606c0.097-0.403,4.843-3.034,6.107-3.6
			c0.231-0.103,0.536-0.04,0.862,0.07c2.706,0.293,6.491,3.597,4.577,6.651C104.617,47.778,100.088,48.001,97.108,48.136z"/>
		<path style="fill:#303030;" d="M76,45c2.039-2.873,5.089-1.35,4,2c2.437,0.109,3.437,0.776,3,2
			c0.117,0.801-0.147,1.62-0.676,1.852c-0.655,0.287-1.437,0.007-2.297,0.128l-13.08,1.841C65.668,51.54,65.968,50.427,67,49
			c0.109-2.321,1.681-3.711,4-3C73.344,43.671,75.011,43.337,76,45z"/>
		<path style="fill:#979797;" d="M85.047,29.997l1.211,2.002c-1.065,1.528-0.473,2.174,1.773,1.938
			c1.172,0.954,2.425,1.372,3.759,1.255c0.093,0.68,0.34,0.783,0.764,0.218l1.369,1.535C94.914,38.112,97.273,37.797,101,36
			c0.624,0.213,0.819,1.537,1,2c-0.879,1.801-3.425,1.591-5.071,3.052c-1.813,1.61-1.519,5.703,0.178,7.084
			C96.506,48.446,95.736,49.101,95,49c-0.478-1.956,0.859-4.642-0.287-7.042c-1.049-2.198-6.471-3.673-8.602-1.772
			C83.794,42.254,85.924,46.076,84,48l-1,1c-1.154-0.404-2.229-1.037-3-2c1.631-2.717,2.744-5.66,3.339-8.829
			C83.807,37.437,82.388,37.263,82,37c-0.291-2.555-0.648-6.208,1-8L85.047,29.997z"/>
		<path style="fill:#3A3A3A;" d="M80,36c0.199,0.61,0.289,1.549,0.803,1.795c0.851,0.407,1.944,0.215,2.536,0.375
			c1.608,1.4,1.225,3.861,0.491,6.09C83.275,45.946,82.417,47.618,80,47c-0.958-1.197-2.447-1.953-4-2c-3.085-0.169-2.989-0.679-1-3
			c-1.431-1.871-0.236-4.985,1.853-5.853C75.975,35.651,76.025,35.269,77,35C78.498,32.738,79.694,33.366,80,36z"/>
		<path style="fill:#383838;" d="M75,29c3.28-0.471,4.173,2.33,1.339,4c1.181,2.987-3.806,3.4-5.339,2
			c-1.041,2.642-2.582,2.211-1.882-0.617l-1.382,0.25C67.583,32.949,67.337,31.071,67,29c0.771-2.657,4.131-3.121,6.78-4.148
			C74.042,27.044,74.132,28.02,75,29z"/>
		<path style="fill:#4C4C4C;" d="M56.02,40.138C58.111,41.32,59.771,43.274,61,46c1.546,2.54,3.275,4.125,5.188,4.756l0.758,2.065
			C66.409,53.274,65.777,53.922,65,54c-7.088-2.243-10.99-5.256-13.33-12.595c-0.375-1.176-0.068-1.557,1.477-1.583
			C54.08,40.025,55.078,40.008,56.02,40.138z"/>
		<path style="fill:#313131;" d="M72.955,54.063l2.515,1.03c2.65,0.167,2.539,3.091-0.019,2.516C74.928,57.492,73.473,58.483,73,59
			c1.706,2.527-4.253,5.354-6,3c-0.323,0.902-0.656,0.9-1,0c-0.226-2.125,0.458-4.123,1.571-5.971
			C68.706,54.143,70.755,53.725,72.955,54.063z"/>
		<path style="fill:#9D9D9D;" d="M89,58c-0.11,1.777,0.13,3.566,0.932,5.168c-0.668-0.12-1.342-0.124-1.677,0.449
			C88.044,63.977,88.283,64.858,88,65l-2,1c-0.232-1.12,1.211-2.112,0.559-2.93C82.564,62.974,79.63,61.346,77,63
			c-0.572-2.013-1.906-3.346-4-4c0.371-1.401,1.897-1.646,3.048-2.499c-1.17-1.459-2.927-1.025-3.093-2.438
			C74.72,53.919,76.402,53.564,78,53h1c-0.813,2.214-1.68,5.304,0.881,7.181c1.91,1.4,5.589,2.608,7.635,1.407
			C88.557,60.977,88.249,58.751,89,58z"/>
		<path style="fill:#494949;" d="M101,36c0.699,1.908-5.414,5.461-8.376,3.034c-0.84-0.688-1.033-2.527-0.07-3.624
			c0.146-0.589,0.59-2.094,1.598-1.749L101,36z"/>
		<path style="fill:#373737;" d="M91.94,55.94C91.347,55.863,90.364,56.636,90,57c-2.245,0.33-2.124-2.435-3-4
			c-0.757-2.921,2.715-1.384,6.259-2.944C95.111,51.591,94.164,55.09,91.94,55.94z"/>
		<path style="fill:#303030;" d="M80,36c-0.994-0.247-2.111-0.413-3-1c-1.115,0.742-1.335,0.075-0.661-2
			c-0.202-1.407-0.344-2.878-1.339-4c0.044-0.838-0.225-1.606,0.215-3.086c1.708,0.314,4.253,1.137,4.657,3.076
			C80.417,31.603,79.789,33.884,80,36z"/>
		<path style="fill:#424242;" d="M88.176,29.008c-0.906-0.257-2.341-1.162-3.31-1.163c-0.768-2.014-0.853-3.98,0.774-4.913
			c1.844-1.058,6.099-1.497,6.159,1.147C91.842,25.958,88.342,27.2,88.176,29.008z"/>
		<path style="fill:#A6A6A6;" d="M53.299,39.205c-0.075,0.195-0.065,0.428-0.152,0.617C49.878,46.885,61.645,51.61,65,54v1l-10-5
			c-3.285-0.053-6.46-7.059-5.052-9.837c-0.167-0.224-0.066-0.638-0.199-0.887C50.536,36.694,52.242,36.997,53.299,39.205z"/>
		<path style="fill:#444444;" d="M88.031,33.937c-1.604,1.063-0.304,3.859-3.198,4.727c-2.588-2.805-0.999-6.116,0.214-8.667
			c0.831,0.405,1.981,0.222,2.51,1.037C88.171,31.979,88.036,32.986,88.031,33.937z"/>
		<path style="fill:#313131;" d="M70,22c2.1,0.591,1.611,1.89-0.1,2.932c-2.35,0.547-4.666,3.117-6.52,0.961
			C61.655,24.802,61.862,24.171,64,24c0.958-2.208,1.958-3.208,3-3C69.235,18.719,70.235,19.052,70,22z"/>
		<path style="fill:#2E2E2E;" d="M101.995,49.174c-1.262,2.829-3.276,5.623-6.769,4.832c-0.509-0.987-0.2-2.788-0.159-3.772
			C97.387,49.829,98.617,48.896,101.995,49.174z"/>
		<path style="fill:#4F4F4F;" d="M82.094,21.906C82.307,22.219,83.002,22.6,83,23c-0.007,1.333,0.538,3.524-1,4
			c-1.83-0.298-3.937-0.786-4-3c-0.983-1.772,0.18-2.594,2-2C79.894,19.279,80.774,19.687,82.094,21.906z"/>
		<path style="fill:#474747;" d="M91.79,35.192l-1.889,3.745c-2.632-0.793-1.879-3.172-1.869-5c0.589-0.39,1.101-2.018,2.105-2.304
			C92.325,31.009,92.156,33.988,91.79,35.192z"/>
		<path style="fill:#3A3A3A;" d="M80,22c-0.351,0.932-1.068,1.649-2,2c-0.91,0.607-2.362,1.114-3.048,0.546
			C73.695,23.505,74.053,22.087,74,21c0.028-0.407,0.092-0.79,0.284-1.092C74.5,19.568,81.601,20.022,80,22z"/>
		<path style="fill:#454545;" d="M101,33c0.054,0.502,0.214,1.69-0.475,1.926C101.763,34.502,93.841,33.077,95,31
			c-0.834-1.858,1.341-2.364,2.929-1.982L101,33z"/>
		<path style="fill:#252525;" d="M67,62c2.786-0.307,2.866,1.094,0.381,2.26c2.068,1.992,2.362,2.835,0.88,2.53
			c0.049,1.838-3.913,1.821-5.122,1.072C63.503,65.641,63.796,63.027,66,62C66.306,61.934,66.725,62.138,67,62z"/>
		<path style="fill:#242424;" d="M83,29c0.255,2.718-0.196,5.403-1,8c-1.839-1.247-1.073-7.612-0.54-7.963
			C81.791,28.819,82.602,28.806,83,29z"/>
		<path style="fill:#434343;" d="M97.929,29.018C97.507,30.376,95.951,30.325,95,31c-1.245,0.885-1.774,0.49-2.982,0.047
			c0.554-0.968,1.179-2.089,1.978-2.581C95.633,27.459,97.054,27.883,97.929,29.018z"/>
		<path style="fill:#AFAFAF;" d="M78,19c0.275,0.189,0.597,0.394,0.981,0.45c0.548,0.08,0.904-0.323,1.472-1.316
			C80.62,17.843,81.243,18.663,81,19c-0.24,0.915,0.599,2.174,1.094,2.906L80,22c-1.611-1.538-3.937-1.01-6-1
			c-0.056-1.145-0.119-2.351,1-3L78,19z"/>
		<path style="fill:#A9A9A9;" d="M73,20c-0.058,0.303-0.023,0.692,0,1c-0.287,1.668-2.013,2.726-3,1c-0.74-0.883-1.902-1.033-3-1
			c-0.811-1.666,0.596-4.804,2-6c0.988,0.896,0.845,2.263,1.098,4.012C70.314,20.502,72.14,20.089,73,20z"/>
		<path style="fill:#424242;" d="M73,21c0.071,0.926,0.243,2.03-0.628,2.833c-0.564,0.52-1.589,0.893-2.472,1.099
			c0.113-0.973,0.143-1.953,0.1-2.932C70.933,21.488,71.959,21.198,73,21z"/>
		<path style="fill:#3A3A3A;" d="M78,19c-0.497,0.733-1.616,1.295-2.462,0.985C74.709,19.681,74.974,18.621,75,18
			c0.388-0.225,0.574-0.795,1-1C76.58,17.765,76.899,18.772,78,19z"/>
		<path style="fill:#2A2A2A;" d="M78,53c-0.291,0.729-0.809,1.692-1.462,1.619c-1.303-0.147-2.268-0.877-3.583-0.556
			C74.28,52.71,76.23,52.839,78,53z"/>
		<path style="fill:#B0B0B0;" d="M25,32c2.619,1.368,0.635,3.888-2,3c0.407,1.356-0.266,2.244-2.017,2.662
			C21.229,39.604,20.569,40.717,19,41c-0.284,0.873-0.618,0.86-1,0c-2.287,0.367-3.954,0.033-5-1c-0.593-0.974-1.593-1.64-3-2
			c-0.151-0.973,0.218-2.042,0-3c2.222,1.327,4.972,1.205,7.873,0.894c0.504-1.996-0.457-3.554,0.626-4.939
			c1.132,1.391,0.041,2.581,0.746,4.124C21.249,33.762,22.859,32.33,25,32z"/>
		<path style="fill:#C5C5C5;" d="M31,28c2.656,0.319,2.541,1.239,0,2c-0.717,2.492-4.271,4.674-6,2
			c0.821-1.232,1.917-2.495,1.923-4.061C28.346,26.027,29.67,25.878,31,28z"/>
		<path style="fill:#323232;" d="M58,20c0.063,2.031-1.65,3.617-5.137,4.757L51,23c-1.518,0.005-0.819-3.032-0.257-4.231
			c-0.058-0.487,0.532-1.102,0.971-1.228C51.09,15.049,52.834,14.405,55,15C57.95,12.954,60.651,17.445,58,20z"/>
		<path style="fill:#3C3C3C;" d="M66.808,15.094C68.714,16.521,67.446,19.597,65,19c-1.38,2.601-3.499,1.961-3-1
			c-3.041,0.223-5.387-2.267-2-3c-0.967-2.505-0.194-2.823,1.769-1C63.518,13.818,65.434,13.938,66.808,15.094z"/>
		<path style="fill:#434343;" d="M56.276,13.085c1.52,2.13,1.295,2.129-1.276,1.915c-0.532,1.459-1.835,2.123-3.286,2.541
			c-1.267,0.57-2.344-2.175-1.546-3.719C51.123,11.975,54.687,12.077,56.276,13.085z"/>
		<path style="fill:#343434;" d="M49.371,16.992c-1.226,2.031-2.281,0.493-4.397-0.46C45.791,15.831,47.663,15.171,49.371,16.992z"
			/>
		<path style="fill:#343434;" d="M49,19c4.768,2.912-3.705,6.631-4.89,1.822c-0.297,0.526-0.588,0.485-0.874-0.076
			c0.308-0.853,0.627-1.712,0.807-2.604C45.711,17.839,47.384,18.78,49,19z"/>
		<path style="fill:#3F3F3F;" d="M61.769,14c-0.625,0.065-1.156,0.853-1.769,1c-0.447,3.171-3.424-0.202-3.724-1.915
			c1.481-1.275,2.814-2.723,5.411-3.315C62.392,11.651,61.77,12.827,61.769,14z"/>
		<path style="fill:#2A2A2A;" d="M44.043,18.142c-1.077,0.195-1.878,1.797-2.688,1.881c-1.592,0.165-1.509-1.855-1.998-2.674
			c-0.978-1.638,1.407-1.423,2.733-2.105c0.815-0.419,1.596,0.003,1.871,0.477C44.378,16.443,44.195,17.391,44.043,18.142z"/>
		<path style="fill:#3E3E3E;" d="M69,15c0.364,2.474,0.034,4.609-2,6c-1.919,1.943-2.322,1.621-2-1c-0.85-0.331-0.85-0.664,0-1
			c0.634-1.289,1.362-2.537,1.808-3.906L69,15z"/>
		<path style="fill:#919191;" d="M50.743,18.769C50.911,20.174,51.076,21.581,51,23c-0.481,2.469-4.109,3.876-5.996,2
			c-1.834,0.074-3.515-3.735-0.894-4.178c1.488,1.249,4.438,2.077,5.999,0.412L49,19C49.555,19.075,50.18,18.729,50.743,18.769z"/>
		<path style="fill:#414141;" d="M48,13c1.977,0.282,1.08,2.614-0.772,1.976c-1.186,0.079-2.162,0.315-2.256-0.857
			C46.505,14.062,47.359,13.753,48,13z"/>
		<path style="fill:#242424;" d="M77,63c-1.436,0.903-2.538,1.853-4.207,2.354c-2.061,1.691-5.778,3.07-5.412-1.094L67,62l6-3
			c1.16-0.58,3.035-1.243,4.022-0.551C78.703,59.628,77.903,61.688,77,63z"/>
		<path style="fill:#9B9B9B;" d="M72.793,65.354c-0.865,0.69-0.73,1.795-0.186,2.664c-0.743-0.563-1.722-1.008-2.425-1.088
			c-1.245-0.141-1.722,2.345-1.271,3.219c-0.324-0.356-0.801-0.701-1.021-1.131c-0.554-1.086-1.561-1.353-2.683-0.699
			c-0.574,0.335-1.222,0.845-1.889,1.284c0.051-0.569-0.27-1.182-0.178-1.743c0.965,0.187,2.077,0.228,2.74-0.183
			c1.339-0.832,1.719-2.127,1.501-3.418C68.501,66.499,70.799,65.953,72.793,65.354z"/>
		<path style="fill:#CCCCCC;" d="M29,63c0.084,0.294-0.136,0.731,0,1c-2.378-0.041-4.928-0.332-7,1c0.202-0.562-0.004-1.397,0-2
			c0.451-1.713,0.774-2.696,2-1C25.917,60.666,28.2,60.405,29,63z"/>
		<path style="fill:#AFAFAF;" d="M57,73c-1.696-0.085-4.325-1.876-6-1c-3.117-0.7-3.784-1.7-2-3c1.449,0.098,2.531,0.94,4.052,2.432
			c1.531-1.09,0.865-2.36,0.948-3.432C55.419,69.393,56.19,71.197,57,73z"/>
		<path style="fill:#B7B7B7;" d="M10,38c1.233,0.404,2.233,1.071,3,2c1.622,3.584-3.679,7.07-6,3.734
			C7.098,43.227,7.618,42.383,8,42C10.28,39.715,6.553,38.251,10,38z"/>
		<path style="fill:#424242;" d="M41.004,23.067C40.401,23.994,41.271,25.017,41,26c1.158,2.12-0.366,3.878-4.573,5.273
			c-0.225,1.482-0.779,2.701-1.663,3.656C34.712,35.836,34.458,36.526,34,37c-3.073,0.974-4.29-4.701-3-7v-2
			c-0.575-2.818,3.957-5.447,6.165-3.675C38.309,23.637,39.753,23.453,41.004,23.067z"/>
		<path style="fill:#1C1C1C;" d="M37.165,20.01c0.651-0.128,1.463-0.127,2.084,0.845c-1.002,1.391-1.729,2.31-2.084,3.47
			C35.121,25.557,33.228,27.095,31,28c-1.314,0.534-2.887,0.804-4.077-0.061c0.006-1.557,0.713-2.946,2.079-3.808
			C29.562,23.778,30.757,23.846,31,23l4-2C35.672,21.006,36.799,20.468,37.165,20.01z"/>
		<path style="fill:#343434;" d="M43.236,20.745c0.367-0.054,0.652-0.498,0.874,0.076C43.809,22.297,44.915,23.6,45.004,25
			c-0.017,1.381-0.352,2.048-1.004,2c-1.758-0.757-1.1-3.502-2.996-3.933C41.271,21.553,41.503,20.85,43.236,20.745z"/>
		<path style="fill:#3D3D3D;" d="M40,60c1.834,1.606,2.417,4.184,4,6c1.544,3.661-5.47,7.597-9,8l-3,2V64
			c-0.306-0.903,0.445-2.737,1.004-3.737C35.198,56.334,38.542,56.042,40,60z"/>
		<path style="fill:#474747;" d="M33.821,56.055l1.676,1.258C33.636,59.186,32.137,61.415,31,64l-2-1c-1.672-0.126-4.083,0.716-5-1
			c-1.477-1.647-0.422-3.746,2-3c0.374-1.578,1.069-2.606,2.085-3.087C29.603,52.395,32.866,53.615,33.821,56.055z"/>
		<path style="fill:#B6B6B6;" d="M49,56v1c-2.784,0.195-5.675-0.421-8.773,0.236C39.674,57.844,40.028,59.45,40,60
			c-0.98-0.858-3.124-2.74-4.598-1.743C33.335,59.654,33.151,62.382,32,64c-0.302-0.074-0.727,0.137-1,0l2.821-7.945
			c1.48-0.927,3.236-1.314,5.27-1.16C40.213,53.412,41.516,52.78,43,53C45.843,53.466,47.843,54.466,49,56z"/>
		<path style="fill:#454545;" d="M49,69c0.432,1.159,1.759,1.756,2,3c-1.728-1.221-17.466,4.614-16,2l9-8
			C46.001,66.295,47.634,67.558,49,69z"/>
		<path style="fill:#838383;" d="M35,21c-0.828,1.403-2.457,1.847-4,2C31.536,21.134,33.297,20.986,35,21z"/>
		<path style="fill:#1D1D1D;" d="M13,64c2.656,0.319,2.541,1.239,0,2c-0.289,0.251-0.584,0.454-0.899,0.493
			C9.815,66.77,4.942,67.342,5,65c-1.955,0.308-2.342-1.712-1-3c-0.265-2.371,3.354-3.826,5-5l5.55-2.164L13,64z"/>
		<path style="fill:#242424;" d="M15,52c2.788-0.997,2.45,0.309-1.014,3.917C12.428,55.692,10.766,56.053,9,57
			c-1.69,0.774-4.142-0.068-6.378,2.612c-1.206-3.067-0.704-5.457-0.278-7.941C6.545,52.119,10.748,52.044,15,52z"/>
		<path style="fill:#2A2A2A;" d="M13,67c2.581-1.112,3.038,0.184,1,2c0.115,0.229,0.065,0.746,0,1
			c-2.232,0.858-8.844,2.854-8.919-0.937l0.634-2.593C8.352,66.224,10.781,66.401,13,67z"/>
		<path style="fill:#212121;" d="M11.683,72.266c0.566,0.44,0.507,2.599,0.247,3.221c-0.342,0.819-6.515,0.97-6.99-0.246
			c-0.239-0.612-0.426-2.294,0.427-2.706C7.068,71.714,9.878,71.803,11.683,72.266z"/>
		<path style="fill:#191919;" d="M4,62c0.508,0.911,0.979,1.933,1,3c2.051,0.58,2.078,1.934,0.081,4.063
			c-0.35,0.66-1.292,1.606-2.65,2.613c-0.871-3.99-0.325-7.419-0.347-11.744L4,62z"/>
		<path style="fill:#222222;" d="M13,76c0-2.058,0.495-4.024,1-6c0.659-0.248,1.72-0.054,3.203,0.247
			C16.339,72.621,14.877,74.75,13,76z"/>
		<path style="fill:#272727;" d="M3.442,76.359c-2.33-0.677-1.514-2.584-1.178-4.385C3.523,72.801,5.013,73.846,3.442,76.359z"/>
		<path style="fill:#1A1A1A;" d="M21,54c1.479,0.516,1.78,1.006,0.529,1.46C21.846,58.156,21.67,60.67,21,63
			c-0.251,1.274-1.118,3.753-1.79,5.132C18.355,69.886,15.19,68.713,14,69l-1-2c-0.951-0.252-0.932-0.586,0-1v-2
			c0.712-5.859,1.069-8.788,1.069-8.788c1.614-1.803,3.12-3.125,4.517-3.966C19.014,52.29,19.819,53.208,21,54z"/>
		<path style="fill:#A0A0A0;" d="M25,54c2.524-1.157,2.924,0.238,1,2c-1.476,1.958-2.81,4.292-4,7c-0.271,0.135-0.7-0.072-1,0
			c0.476-2.411-0.069-6.444,0-9C21.002,51.073,24.341,51.197,25,54z"/>
		<path style="fill:#3D3D3D;" d="M20,72c-0.474-0.641-0.839-1.528-0.521-2.025c0.44-0.689,1.582-1.356,1.423-0.468
			c-0.152,0.85,0.778,1.479,0.944,1.975C21.991,71.915,20.185,71.806,20,72z"/>
		<path style="fill:#151515;" d="M18,41c0.724,2.062,1.734,3.607,3.031,4.635L19,49c0.057,5.355-1.626,4.18-5,0.89
			c-0.515-0.474-1.029-1.427-1.822-1.667c-1.916,1.509-5.774,0.592-4.081-2.32C6.379,46.868,5.01,44.788,7,43.734
			c2.568,0.068,4.483-1.911,6-3.734c1.178-0.171,2.623-1.398,4.114-1.923C18.491,37.783,17.933,40.222,18,41z"/>
		<path style="fill:#838383;" d="M21,54l-2.695-0.791C14.023,51.952,14.58,64.543,13,64c0-2.759-0.043-5.276,0.739-8.171
			C11.681,56.973,9.753,56.44,9,57c0.781-0.358,5.178-2.962,6.956-4.511C16.165,52.307,15.137,52.24,15,52
			c-0.357-0.626-0.669-1.451-1-2.11c1.405,0.282,2.568,0.923,3.65,2.216C18.108,50.45,18.504,49.795,19,49
			C21.262,49.427,23.005,52.06,21,54z"/>
		<path style="fill:#282828;" d="M12.178,48.223c1.607,2.49-6.441,2.011-6.708,1.464C5.259,49.252,5.801,48.468,6,48v-1
			c-1.172-1.76,0.943-2.69,2.097-1.097C9.249,46.983,10.679,47.77,12.178,48.223z"/>
		<path style="fill:#B0B0B0;" d="M7,43.734c0.19,0.668,0.566,1.671,1.097,2.169L6,47c-0.263-0.641-1.311-1.4-2.053-1.228
			C4.269,44.46,5.664,43.699,7,43.734z"/>
		<path style="fill:#A0A0A0;" d="M53,66c-1.57-0.847-2.19-3.49-2-5C52.611,62.135,53.096,64.094,53,66z"/>
		<path style="fill:#424242;" d="M55,50c-1.777,2.158-3.691,4.393-6,6c-1.772-0.167-3.714,0.489-5.752-0.3
			C42.617,55.119,43.052,53.583,43,53c-1.742-2.438-0.904-4.363,2-5l2-5c-1.089-1.562-0.434-2.054,1.165-0.953l0.079-0.895
			c0.643-0.183,1.224-0.524,1.703-0.989C52.164,43.14,53.396,46.67,55,50z"/>
		<path style="fill:#292929;" d="M76.853,36.147C77.205,38.084,76.7,40.677,75,42c-0.144,1.673-1.477,3.006-4,4
			c-0.759,1.56-2.282,3-4,3c-0.284,0.873-0.618,0.86-1,0c-1.154-1.326-1.888-4.067,0.073-4.337c0.67-2.799,1.945-5.045,3.825-6.736
			C68.731,36.238,69.338,35.751,71,37C71.558,35.219,75.988,34.666,76.853,36.147z"/>
		<path style="fill:#AEAEAE;" d="M76,45c-1.715-0.052-3.352,0.624-5,1c0.91-1.871,2.438-2.784,4-4
			C75.146,43.055,75.457,44.081,76,45z"/>
		<path style="fill:#C6C6C6;" d="M65,49c0.662,1.057,0.996,1.057,1,0h1c-0.282,1.263,0.729,2.642-0.053,3.821
			C64.454,51.317,61.515,48.996,61,46C62.029,44.912,63.362,45.912,65,49z"/>
		<path style="fill:#C2C2C2;" d="M77,35c-0.078,0.339-0.209,0.807-0.147,1.147c-2-0.244-4.111-0.254-5.853,0.853
			c-2.02,0.038-1.975-1.612,0-2c2.078,0.089,5.164,0.708,5.339-2C76.43,33.638,77.176,34.241,77,35z"/>
		<path style="fill:#969696;" d="M69.118,34.383c0.312,1.386,0.572,2.567,0.78,3.543C69.539,41.847,65.635,43.709,66,49
			c0.125,2.309-1.124,2.309-1,0c-2.406-2.144-3.073-3.81-2-5c1.583-2.308,1.916-4.982,1-8.024l-0.402-1.381
			C64.843,33.131,65.644,31.266,66,29h1C68.567,30.383,68.051,32.714,69.118,34.383z"/>
		<path style="fill:#313131;" d="M71,35v2c-0.412,0.261-0.872,0.457-1.102,0.927c-0.598,0.164-0.88,0.8-1.731,1.125
			c-0.473-2.097-0.011-3.518,0.952-4.668C69.103,35.248,70.417,34.975,71,35z"/>
		<path style="fill:#B8B8B8;" d="M64,35.976c1.411,2.01-1.057,4.671-2.785,5.94c0.034,3.067-1.483,1.619-0.849,0.538
			C60.482,42.256,63.447,45.676,61,46c-2.061-1.546-4.563-3.224-4.98-5.862c1.091-1.56,2.348-2.882,3.77-3.967
			c-0.777-2.609-0.01-2.935,2.15-1.381C64.027,33.275,64.403,33.452,64,35.976z"/>
		<path style="fill:#434343;" d="M53.299,39.205c-1.168,0.268-2.374,0.295-3.551,0.071c-0.866-1.619-1.705-3.63,0.285-5.887
			C50.949,35.944,54.09,37.15,53.299,39.205z"/>
		<path style="fill:#484848;" d="M62,18c0.846,0.754,2.003,0.598,3,1c-0.046,0.323,0.079,0.684,0,1c1.468,0.895,0.059,2.891-1,4
			c-0.147,0.588,0.251,1.847-0.619,1.892C62.801,25.219,60.835,25.41,60,25.16c-2.038,1.917-2.396,1.569-2-1.16
			c-1.451-0.777-1.451-2.11,0-4C58.005,16.335,59.338,15.668,62,18z"/>
		<path style="fill:#ABABAB;" d="M67,21c-1.06,0.725-1.334,2.851-3,3l1-4L67,21z"/>
		<path style="fill:#131313;" d="M23,35c1.83-1.242,2.316-1.407,3,1l5,2c1.306-0.431,2.733,1.001,2.329,1.273
			c-1.525,1.024-11.959,6.999-12.682,7.067C19.66,46.432,18.499,42.155,19,41c0.074-1.455-0.581-3.356,0.584-4.855
			C20.181,35.377,21.855,35.283,23,35z"/>
		<path style="fill:#272727;" d="M31,30c2.236,1.835,1.42,4.871,3,7c0.927,2.517-2.098,3.457-3,1l-5-2c-1.071-0.099-2.649,0.408-3-1
			l2-3C27.163,31.667,28.673,29.619,31,30z"/>
		<path style="fill:#828282;" d="M36,40c-2.202,2.449-5.297,4.361-9.286,5.736C23.998,47.97,21.427,49.058,19,49
			c0.764-2.295-0.826-5.986-1-8h1c0.79,1.263,0.528,2.856,1.723,4.338C24.013,42.594,34.023,40.329,31,38c0.99,0.028,2.5,0.058,3-1
			c0.294-0.622,0.034-1.606,0.764-2.071C37.592,35.285,37.722,37.935,36,40z"/>
		<path style="fill:#2A2A2A;" d="M13,40c-1.585,0.006-2.747,1.488-2.949,0.492C9.854,39.518,9.975,38.584,10,38
			c1.467-0.948,3.195-1.508,5.061-0.688C14.269,38.332,13.422,38.968,13,40z"/>
		<path style="fill:#9E9E9E;" d="M58,24c0.009,1.323-0.922,2.022-2.791,2.097C54.735,28.887,53.666,30.854,52,32
			c-0.479,0.569-0.995,0.31-1.388-0.433C48.306,29.455,49.715,25.384,51,23c2.99,0.506,5.557-0.215,7-3
			C57.831,21.332,59.471,23.305,58,24z"/>
		<path style="fill:#B8B8B8;" d="M60,15c-0.533,0.635-0.693,1.472-0.159,1.799C60.695,17.324,61.437,17.499,62,18
			c-1.555-0.221-3.25,0.553-4,2c0.156-1.234,0.219-2.634-0.453-4.004C57.183,15.251,56.027,14.942,55,15
			c0.227-0.622,0.773-1.483,1.276-1.915C57.468,13.841,58.456,15.042,60,15z"/>
		<path style="fill:#393939;" d="M51,23c2.145,2.604-0.029,5.549-0.388,8.567c-0.281,0.053-0.675-0.183-0.934-0.076
			c-2.722-0.62-5.812-3.656-4.673-6.491C46.885,24.122,48.813,22.63,51,23z"/>
		<path style="fill:#191919;" d="M26,56c1.768-0.159,0.952,1.87,0,3c-0.711,0.685-0.863,2.431-2,3l-2,1l0.05-8.011
			C23.802,54.885,24.76,55.934,26,56z"/>
		<path style="fill:#272727;" d="M40.831,37c-0.88,1.293-3.005,2.297-3.988,3.57C35.946,41.744,35.412,41.354,36,40
			c-0.909-1.531-1.104-3.322-1.236-5.071c-0.689-1.015-0.81-2.291-0.617-3.262C34.852,28.103,38.473,29.314,41,26
			c1.076,1.336,3.299,3.489,2.599,5.661C42.944,33.696,41.276,35.196,40.831,37z"/>
		<path style="fill:#9E9E9E;" d="M49.677,31.491C46.798,32.672,44.452,29.733,44,27c-0.13-0.863,0.213-1.631,1.004-2
			C45.19,27.942,48.255,29.057,49.677,31.491z"/>
		<path style="fill:#C2C2C2;" d="M34.693,50.906c3.299,1.112,2.548,5.052-0.872,5.15c-1.794-1.104-3.796-0.791-5.736-0.142
			c-3.111-1.135,2.068-5.667,3.97-7.157c0.493-1.864,1.215-1.665,1.349,0.318c0.812,0.932,0.415,2.159-1.19,3.681
			C32.886,51.274,33.712,50.658,34.693,50.906z"/>
		<path style="fill:#C3C3C3;" d="M28.085,55.913C28.035,57.539,27.398,58.296,26,59v-3C26.069,53.828,27.285,53.954,28.085,55.913z"
			/>
		<path style="fill:#4B4B4B;" d="M47,40c0.625,0.251,1.013,0.933,1.165,2.047C47.813,42.402,47.437,42.751,47,43l-2,5
			c-0.242,1.728-1.27,3.431-2,5c-0.834,1.793-2.149,3.654-3.761,3.891c-2.099,0.309-3.927,0.082-5.418-0.836
			c0.557-1.569,1.343-3.336,0.872-5.15c-1.631,0.07-1.048-1.397,0.16-2.192c-0.844-2.188,0.052-2.567,1.685-0.869
			C40.28,41.47,37.086,41.192,47,40z"/>
		<path style="fill:#A7A7A7;" d="M13,66c0,0.307-0.135,0.73,0,1c-2.966,0.023-6.366-0.867-7.919,2.063L5,65
			C7.372,66.506,10.293,65.948,13,66z"/>
		<path style="fill:#191919;" d="M36,40c0.373,0.021,1.149-0.092,0.843,0.57c-1.004,1.299-1.549,3.234-2.685,4.436
			c0.923,2.137,0.127,2.93-1.982,1.911c-1.241,2.775-3.467,5.489-5.464,7.847C26.342,55.199,25.571,54.73,25,54h-4
			c-0.433-1.601-2.685-2.94-2-5C21.128,45.585,33.38,39.855,36,40z"/>
		<path style="fill:#2D2D2D;" d="M32.055,48.756c-1.147,2.493-3.884,4.344-3.97,7.157C27.54,56.096,26.58,56.031,26,56l-1-2
			c3.097-1.418,4.675-4.773,7.176-7.084C34.132,47.542,34.093,48.395,32.055,48.756z"/>
		<path style="fill:#4C4C4C;" d="M48.244,41.152c0.08,0.275-0.112,0.608-0.079,0.895C47.244,41.735,47.534,40.46,47,40l-3.723-3.201
			c-1.327-1.141,0.202-2.661,1.103-3.854c0.685-0.907,2.032-1.019,3.08,0.783C48.741,35.93,47.586,38.887,48.244,41.152z"/>
		<path style="fill:#AFAFAF;" d="M45,48c0.259-1.851,0.128-3.936,2-5C47.035,44.875,46.714,46.973,45,48z"/>
		<path style="fill:#444444;" d="M63,44c-1.467,0.891-2.334-0.583-1.785-2.084c-0.684-2.617,0.877-4.37,2.785-5.94
			c4.341-0.062,1.842,8.282,1.271,8.854C64.762,45.339,63.857,44.201,63,44z"/>
		<path style="fill:#464646;" d="M64,35.976c-0.743,0.011-1.448-0.879-2.06-1.186c-2.106-1.717-0.533-4.67,2.11-3.688
			C64.564,30.308,65.408,29.73,66,29c0.132,1.279,1.21,2.717,0.792,4.255C66.525,34.235,64.952,35.193,64,35.976z"/>
		<path style="fill:#383838;" d="M61.215,41.916C61.693,42.568,62.685,43.214,63,44l2,5l-4-3c-0.203-1.182-0.569-2.232-1.908-3.432
			C59.721,41.957,60.51,42.022,61.215,41.916z"/>
		<path style="fill:#383838;" d="M58,24c0.59,0.254,1.271,0.942,2,1.16c0.617,0.862,1.762,1.219,2.088,2.784
			C58.326,29.65,55.43,31.466,52,32c0.049-2.294,0.155-5.036,1.823-7.292C54.659,23.577,56.976,23.856,58,24z"/>
		<path style="fill:#454545;" d="M64.05,31.102c-0.763,1.178-1.27,2.556-2.11,3.688c-0.481,0.647-1.588,0.81-2.15,1.381
			c-2.701,2.209-4.62-0.584-2.911-3.102c-0.754-1.89,7.041-4.595,7.092-3.557L64.05,31.102z"/>
		<path style="fill:#2F2F2F;" d="M56.879,33.068c0.514,1.396,1.46,2.636,2.911,3.102c-0.07,1.243,0.682,2.773,0.282,4.021
			c-0.561,1.752-2.824,0.115-4.052-0.054c-0.281-1.778-2.107-6.34-0.335-7.154C56.046,32.818,56.318,32.926,56.879,33.068z"/>
		<path style="fill:#898989;" d="M31,38c-1.881,0.164-3.951-0.339-5-2C27.723,36.159,30.206,36.247,31,38z"/>
		<path style="fill:#9D9D9D;" d="M36.538,47.845c-0.604,0.065-1.108,0.841-1.685,0.869c-0.442,1.44-0.754,1.742-1.449,0.36
			l-1.349-0.318c0.248-0.54,0.054-1.274,0.121-1.84c0.628-0.58,1.245-1.403,1.982-1.911C35.482,45.483,35.54,47.038,36.538,47.845z"
			/>
		<path style="fill:#555555;" d="M34.853,48.714c0.065,0.703-0.34,1.5-0.16,2.192c-0.746,0.729-0.935,1.652-1.732,3.214
			c-1.062-0.412-1.519-1.141-1.966-1.736c1.5-1.187,1.951-2.214,2.409-3.31C33.827,48.625,34.362,48.737,34.853,48.714z"/>
		<path style="fill:#505050;" d="M40.831,37c1.637,0.877,2.386,1.36,2.191,2.441c-0.105,0.581-0.824,0.585-2.01,0.622
			C37.5,40.171,42.21,39.258,40.831,37z"/>
	</g>
</g>
</svg>
