<?xml version="1.0" encoding="iso-8859-1"?>
<!-- Generator: Adobe Illustrator 30.1.0, SVG Export Plug-In . SVG Version: 9.03 Build 0)  -->
<svg version="1.1" id="Layer_1" xmlns="http://www.w3.org/2000/svg" xmlns:xlink="http://www.w3.org/1999/xlink" x="0px" y="0px"
	 viewBox="0 0 105 95" style="enable-background:new 0 0 105 95;" xml:space="preserve">
<g>
	<g>
		<path style="fill:#F4F4F4;" d="M7.232,72.896C8.647,73.742,8.57,75.319,7,77.625C7.752,79.969,7.104,80.144,5,79
			c0.724,1.787,0.391,2.453-1,2c1.865,2.007,2.109,3.816-1,4l0.962,1.113C3.179,88.505,2.525,90.801,2,93H0v-4l6-18
			C6.892,71.073,7.303,71.705,7.232,72.896z"/>
		<path style="fill:#D0D0D0;" d="M44,9c0.617-0.346,0.998-0.463,1.247,0.247c2.078,0.992,4.244,4.066,2.047,5.934
			c2.845-0.331,3.746,4.451,2.751,6.711c1.503,0.866,1.808,1.636,0.916,2.31c0.953,0.056,1.603,0.723,1.948,2.001l1.953-0.156
			c0.154-2.493,1.258-2.472,2.055-0.079l6.104-0.146c-0.712-3.203,2.026-5.335,4.927-3.768c1.373,0.447,1.15,2.121-0.669,5.021
			c2.564-1.406,4.715,1.652,2.866,3.864c-1.18,2.714-0.363,3.696,1.205,0.903c-0.144-2.582,0.668-2.573,2.559-0.945
			c2.491-0.595,2.592,0.063,1.215,2.134c1.727,1.365,2.602,4.9,0.276,6.108c0.319,1.917-0.338,4.144-1.399,5.668
			c-0.434,1.472-1.664,2.496-3,3.193c0.677,1.839-1.905,2.072-1,0l-1.376-1.927c0.72-2.009,0.2-4.553-1.561-7.632
			c-1.046-2.641-2.087-5.474-3.122-8.5c-2.534-0.735-2.534-0.735,0,0c1.938,3.114,2.284,5.474,1.038,7.08
			c-2.762-0.298-4.374,0.314-4.837,1.837c-0.401,2.27-1.667,2.331-3.797,0.181l-3.418-0.869c-1.693,2.237-2.776,1.323-1.927-1.289
			c-0.336-3.326-0.336-3.326,0,0c0.209,2.275-0.921,3.066-3,2.118c-0.284,0.873-0.618,0.86-1,0
			c-2.101,1.339-5.161,2.523-5.483-0.811c-3.439,0.533-4.02,1.168-1.743,1.903C42.327,41.397,42.603,43.541,40,45
			c-0.464,1.692-0.797,2.699-2,1c-1.403-1.4-2.403-3.067-3-5c-2.467,0.018-4.84-0.609-7.118-1.882
			c-1.97,0.844-3.895,0.131-5.774-2.139c-2.65,0.318-2.674-0.611-0.31-1.801C19.854,35.031,19.992,34.252,22,34
			c0.795-0.346,1.785-0.272,2.969,0.223c0.4-0.818,0.718-0.722,0.961,0.207C29.3,36.149,31.991,36.006,34,34
			c-0.873-0.284-0.86-0.618,0-1c-2.537-1.315-2.488-2.163,0.181-3.181C35.83,27.843,37.363,28.634,38,31
			c0.737,1.289,0.357,2.336-1.14,3.142c2.268-0.113,4.282,0.121,6.041,0.702c-0.157-1.613,0.561-2.603,2.154-2.969L46,29.87
			c0.161-0.717,0.333-1.277,0.541-1.291c2.729-0.184,3.63,2.54-0.31-0.141c-0.557-0.379-0.903-0.952-1.151-1.568
			c-1.256,0.483-2.269,0.017-2.873-1.219C41.435,25.522,40.699,25.305,40,25c-0.622,0.734-0.998,0.625-1.129-0.328
			c-1.317-1.196-2.202-2.476-2.656-3.84c-1.012,1.017-2.814-0.362-2.979-1.709c-1.938,1.357-3.781-0.099-4.441-2.11
			c-2.224-1.055-2.773-0.673-1.648,1.147c1.961,1.882,1.591,2.474-1.068,1.827c-0.946,0.81-2.894,2.895-1.609,4.078
			C26.573,25.999,21.287,27.618,22,24l-1.181-1.036C21.55,21.164,21.611,19.509,21,18c-0.613-0.332-0.612-0.666,0-1l1.019-1.983
			C23.859,16.801,22.763,14.069,22,13v-1C23.043,10.704,42.239,8.651,44,9z M31,14c0.206,2.552,2.78,3.108,4.782,3.937
			c1.024,0.434,2.665,1.367,3.501,2.094c1.653,1.438,3.185,3.543,5.575,3.648c0.428,0.019,0.923,0.16,1.346,0.115
			c-0.634,1.884,2.658,4.201,4.029,3.393c-0.537-1.642-1.133-2.7-1.983-3.587c-0.402-0.42-1.311,0.117-2.046,0.194
			c0.559-1.663,1.576-3.277-0.21-4.829l-0.483-2.108c-0.573-2.5-1.244-4.02-3.276-5.131c-1.806-0.988-3.104-1.131-5.142,0.48
			c-0.687-0.8-1.655-1.19-2.592-1.302c-1.448-0.172-1.325,1.076-1.504,2.114c-0.365-0.511-0.987-0.786-1.098-1.201
			c-0.374-1.394-0.905-0.226-1.45,0.184C29.506,12.712,30.938,13.235,31,14z M58.135,30.434c-0.691-0.502-1.915-2.142-2.479-0.889
			c-0.78,1.731-2.088,4.388-1.325,6.218C55.339,37.708,59.544,31.457,58.135,30.434z M62.917,33.091
			c-0.527-2.07-4.035-1.387-3.978-0.117C59.022,34.787,63.24,34.36,62.917,33.091z"/>
		<path style="fill:#D9D9D9;" d="M44,61c-1.614,1.397-0.899,2.982,2.147,4.757l0.798,2.12C47.279,69.378,45.975,70.258,45,69
			c-1.781,1.62-2.427,1.388-3-1c-3.808-1.054-7.835-1.387-12.079-1l-1.454,1.593C26.389,67.829,24.233,67.631,22,68
			c-1.121,1.764-2.008,1.493-2.071-0.575l-0.596,1.21c-2.385,0.072-2.886,0.857-1.503,2.357c1.99,1.781,0.795,3.249-1.703,1.927
			c-2.06-0.112-2.53,0.164-1.411,0.829L14,75c-0.006,2.555,0.327,4.555,1,6c1.308,0.94,1.311,2.314,0.01,4.123
			c-0.307,0.877-0.673,0.866-1.097,0.01c-0.127,1.448-1.195,3.543-2.955,3.654c0.588,1.449,0.429,2.347-1.178,2.213
			c-1.61,0.399-2.421,0.098-2.733-1.441C5.491,90.556,4.476,91.37,4,92c0.873,0.284,0.86,0.618,0,1c-0.613-0.152-1.369,0-2,0
			c-1.395-2.658,0.322-5.29,1-8c0.881-2.312,2.968-1.712,4.882-0.864C8.241,83.262,8.614,83.288,9,84.176
			c0.962-0.952,3.49-4.28,0.917-5.298C7.721,80.334,7.581,80.285,8,77.625c-0.341-1.38,0.391-2.588,2.194-3.625
			C9.854,72.373,9.456,72.04,9,73c-0.562,1.734-1.297,1.699-1.768-0.104C6.725,71.476,6.981,69.844,8,68
			c-1.451-0.551-0.649-3.944,1-4l0.815-1.116c5.298,1.784,7.35,1.537,6.158-0.741C12.713,62.445,10.723,61.731,10,60
			c-0.883-0.224-0.855-0.56,0-1c1.268-2.61,3.774-2.798,6-1c3.697-0.537,6.634,0.067,8.811,1.811
			c0.952-0.014,0.797,0.646,0.058,1.32c-1.915,2.202-1.309,2.354,1.009,1.869c3.889-0.793,7.993-1.27,12.31-1.431
			c0,0,0.271-0.937,0.812-2.811c-1.674-0.869,0.946-3.48,2-1.759C43.435,56.612,45.538,58.517,44,61z"/>
		<path style="fill:#F8F8F8;" d="M71,50C53.955,64.739,36.31,78.753,17.898,93.109C14.485,95.538,7.664,93.91,4,93v-1
			c1.196-2.5,5.448-1.595,6,1c0.386-1.086,1.053-2.086,2-3c0.103-0.907,0.45-0.853,1,0c1.429,1.195,2.603,0.988,3.522-0.62
			l1.467,0.426c-1.09-2.62,0.94-2.942,3.037-1.874c-0.522-2.555,1.164-3.15,3.32-2.194C23.839,82.904,24.611,82.472,27,84
			c-0.344-1.683,1.436-2.957,3-3c-0.971-0.84-0.304-1.173,2-1c-0.844-1.675,1.352-3.607,3-4c-0.026-0.599,0.017-1.118,0.298-1.361
			c0.857-0.739,6.667-4.906,7.576-5.439c0.703-0.413,1.344-0.534,2.125-0.2c0.543-0.334,1.542-0.454,1.945-1.123
			c-1.413-1.386-0.824-1.945,0.932-0.932C47.893,65.907,48.268,64.925,49,64c-2.291-2.487-0.251-4.263,2.349-2.105
			c1.696-0.507,3.452-1.549,5.268-3.126l1.107,0.33C56.798,56.795,56.958,56.732,59,58c-0.461-2.791,5.27-7.051,8.031-6.953
			C66.545,48.288,66.881,48.288,69,50C69.5,48.768,70.177,49.021,71,50z"/>
		<path style="fill:#F4F4F4;" d="M101,26c-8.448,9.552-20.509,15.793-30,24c-0.629,0.133-1.387-0.185-2,0
			c-0.873-0.284-0.86-0.618,0-1c-1.299-1.49-0.691-2.043,1-1c0.012,1.118,0.763,1.115,1,0c1.345-0.841,2.402-1.665,3-3.193
			c1.436-2.69,3.103-3.625,5-2.807c-0.355-0.667-0.841-1.64-0.465-2.066c0.554-0.627,9.007-7.404,9.925-7.972l2.129-0.08
			c-2.191-2.039,0.904-5.201,3.337-3.791c1.099,0.045,2.769-0.807,5.009-2.556L100,26C100.284,25.127,100.618,25.14,101,26z"/>
		<path style="fill:#E6E6E6;" d="M22,13c1.843,0.894,1.254,3.86-1,4c-0.041,0.325,0.063,0.679,0,1l0.755,1.187
			C20.769,22.085,20.184,25.023,20,28c-2.24,3.343-2.573,5.009-1,5c1.894-2.053,2.184-1.741,2,1c0.267-0.851,0.601-0.834,1,0
			l-0.202,1.178c-0.149,1.78-1.456,2.367-3.923,1.76C16.51,38.765,17.219,39.785,20,40c2.432,1.353,1.706,4.423-1,5
			c-0.284,0.873-0.618,0.86-1,0l-1.763-0.341C15.212,45.86,14.133,46.307,13,46c1.609-11.442,4.967-23.099,9-34V13z"/>
		<path style="fill:#BEBEBE;" d="M101,5c0.284-0.873,0.618-0.86,1,0v2l1,6c0.074,0.658-0.002,1.337,0,2c0.553,0.652,0.55,1.354,0,2
			c-1.423,1.999-2.089,1.332-2-2c-0.811-0.86-1.394-0.601-1.751,0.776L97,15c-2.414-0.558-3.517-2.817-2-5
			c1.769-1.198,2.769-3.198,3-6c0.284-0.873,0.618-0.86,1,0l1.089-0.499C100.398,6.792,100.702,7.292,101,5z"/>
		<path style="fill:#B7B7B7;" d="M14,49c1.558-0.36,3.338-0.912,5.34-1.657L21,49c1.946,1.271,1.166,2.683-1,3
			c-1.53,1.078-0.863,1.745,2,2c-1.501-1.827-0.319-3.762,2-3c3.16,0.035,2.509,5.154,0,6c-1.158,2.434-4.977,1.257-6-1
			c-2.265-0.534-5.466-3.735-6-6c-0.34-0.38-0.34-1.047,0-2h1C14.362,46.88,14.86,47.397,14,49z"/>
		<path style="fill:#F3F3F3;" d="M12,50c3.402,1.564,1.622,8.582-2,9c-0.12,0.285,0.075,0.697,0,1c2.124,1.386,1.828,3.842-1,4
			c-0.795,1.313-1.333,2.33-1,4c-0.176,1.852-0.842,2.852-2,3c0.963-7.851,3.369-15.597,6-23V50z"/>
		<path style="fill:#DBDBDB;" d="M94,2c0.873,0.284,0.86,0.618,0,1c1.795,1.677,1.27,2.44-1,3c-1.429,0.815-2.717,0.39-3.863-1.277
			C87.787,6.191,86.409,6.95,85,7c-1.225,0.123-2.225-0.21-3-1c-2.572,0.688-4.239,0.355-5-1c-0.873-0.284-0.86-0.618,0-1
			C82.575,2.884,88.308,1.747,94,2z"/>
		<path style="fill:#DCDCDC;" d="M72,5h1c0.46,0.889,0.082,1.19-1,1c-0.284,0.873-0.618,0.86-1,0c-0.54,2.55-7.157,3.537-9,2
			c-0.66,1.315-1.981,0.744-3,0c-0.213,2.408-1.25,2.609-3,1c-1.828,2.409-4.12,1.781-5-1C57.72,6.096,64.962,5.266,72,5z"/>
		<path style="fill:#565656;" d="M18,45c2.206,2.522-1.323,4.893-4,4c-0.232-0.308-0.995-0.504-1-1c-0.006-0.641-0.089-1.366,0-2
			c0.882-0.791,0.859-2.573,1.736-2.895C16.13,42.593,18.573,43.036,18,45z"/>
		<path style="fill:#E8E8E8;" d="M102,5h-1c-0.863-1.277-1.529-1.61-2-1h-1c-1.345,0.404-2.679,0.071-4-1V2
			c1.952-1.614,5.092-1.289,7.796-0.711C102.395,2.277,102,4.087,102,5z"/>
		<path style="fill:#F6F6F6;" d="M101,26c-2.171-1.598-1.672-2.346,1-2.097c-1.533-1.92-1.204-5.909,1-6.903
			c0.062-0.66,0.002-1.336,0-2C104.033,13.412,105.872,27.584,101,26z"/>
		<path style="fill:#FAFAFA;" d="M51,8c2.43,1.387,1.688,2.541-1,2c-1.001,2.663-4.494,1.98-4.753-0.753L44,9
			C45.581,7.152,48.675,8.077,51,8z"/>
		<path style="fill:#FBFBFB;" d="M103,13c-1.891-1.269-1-4.016-1-6C103.887,8.269,102.778,11.016,103,13z"/>
		<path style="fill:#FCFCFC;" d="M77,4v1c-0.002,2.927-3.341,2.803-4,0c-0.333,0-0.667-0.013-1,0C72.897,3.12,75.372,4.326,77,4z"/>
		<path style="fill:#5F5F5F;" d="M9,73c1.274-1.357,1.564-0.8,1.194,1c0.197,0.78,1.624,2.381,0.186,2.849L8,77.625
			c-0.264,0.814-0.598,0.795-1,0c-0.207-0.694-2.068-1.516-1.664-2.076c0.569-0.787,1.592-1.889,1.896-2.653
			C7.783,73.016,8.595,72.661,9,73z"/>
		<path style="fill:#B1B1B1;" d="M9.917,78.878c1.843,0.986,0.848,4.497-0.917,5.298c-0.29-0.175-0.796,0.08-1.118-0.039
			C5.274,84.8,3.693,83.729,4,81c0.221-0.885,0.295-1.413,1-2C6.658,78.598,8.297,78.558,9.917,78.878z"/>
		<path style="fill:#404040;" d="M7,77.625c0.293-0.003,0.73-0.114,1,0c0.702,0.296,1.277,0.864,1.917,1.253
			c-1.317,0.335-1.11,1.79-2.216,3.192C6.447,81.203,5.627,80.164,5,79C5.619,78.484,6.024,77.636,7,77.625z"/>
		<path style="fill:#515151;" d="M7.882,84.136C6.604,85.47,4.698,85.359,3,85l1-4C5.489,81.78,6.558,83.119,7.882,84.136z"/>
		<path style="fill:#6F6F6F;" d="M7.232,72.896c-0.376-0.082-1.013-0.128-1.151-0.48C5.884,71.918,5.952,71.388,6,71
			c0.37-1.11,1.279-2.041,2-3C8.333,69.669,7.832,71.392,7.232,72.896z"/>
		<path style="fill:#636363;" d="M87,30c2.016-1.986,3.477-0.865,3.588,1.882C90.544,34.354,81.206,40.672,79,42
			c-2.472,1.341-4.376-0.137-3.601-2.861c-0.462-2.102-1.721-4.254-0.276-6.108c-1.24-1.592,0.525-2.699,1.848-1.06L82,30
			C83.816,28.023,85.483,28.023,87,30z"/>
		<path style="fill:#525252;" d="M82.092,19.092c1.981,3.865-4.323,11.261-8.184,11.806c-0.768,0.516-1.636,0.855-2.559,0.945
			c-1.312,1.318-1.935,0.843-1.205-0.903l-2.866-3.864c0.04-1.437,2.035-5.302,3.806-4.097c0.283-3.142,0.804-3.297,3.633-3.1
			c-0.95-2.662,1.757-4.304,3.567-1.963C79.912,14.829,84.995,16.33,82.092,19.092z"/>
		<path style="fill:#393939;" d="M47,39c3.236,4.767,1.961,10.118-4,11.862c-0.728,0.769-3.38,1.885-3.665,1.39
			C39.142,51.917,38.774,45.442,40,45c-0.054-1.611-0.581-3.289-0.226-4.908c-2.063-1.782-0.646-2.489,1.743-1.903
			C42.83,39.051,45.923,36.88,47,39z"/>
		<path style="fill:#434343;" d="M27.882,39.118C29.538,38.428,30.716,39.735,29,41c2.599,1.216,2.599,2.216,0,3
			c-0.301,1.912-0.967,2.912-2,3c0.081,2.521-0.126,2.638-2,1c0.061,1.612-3.57,0.559-4-1c-2.527,1.859-3.844,0.558-2-2
			c0.296-1.573,0.219-3.538,1-5c-2.247-1.919-0.357-3.785,2.108-3.021C24.032,35.593,26.516,37.424,27.882,39.118z"/>
		<path style="fill:#555555;" d="M82,30l-5.029,1.971l-1.848,1.06c-0.586-0.593-1.001-1.328-1.215-2.134
			c2.527-4.112,6.26-7.362,8.184-11.806c-1.155-3.808,4.297-2.23,2.534,0.26c-0.593,0.838-0.106,8.113,0.361,9.675L82,30z"/>
		<path style="fill:#3F3F3F;" d="M31,27c1.863-1.99,2.407-1.707,2,1c2.413-1.349,2.877-0.345,1.181,1.819
			C34.074,30.876,34,31.938,34,33c-3.801,1.003-9.06,1.39-12-2c-1.823-0.513-1.151-3.67,0.955-3.228
			c-1.082-1.741-0.665-2.865,1.241-2.144c0.103-1.776,0.713-1.911,1.811-0.464C28.958,24.47,30.623,25.082,31,27z"/>
		<path style="fill:#1E1E1E;" d="M54,15c1.602,3.627,0.951,11.664-3.955,6.892c-1.974-1.635-2.149-4.477-2.751-6.711
			c-0.129-2.609,0.894-2.989,2.929-1.289C51.246,10.656,54.469,11.828,54,15z"/>
		<path style="fill:#393939;" d="M70,48c-0.138,0.406-0.813,0.597-1,1c-1.834,1.349-3.167-0.651-4-6
			c-2.562-0.874-2.171-1.878,1.173-3.013c-0.862-0.28-0.81-0.591,0.079-0.932c-0.372-0.81-0.074-0.988,0.811-0.614
			c2.398-0.222,2.704,2.351,3.898,4.194C72.08,44.361,70.66,46.062,70,48z"/>
		<path style="fill:#9E9E9E;" d="M36.215,20.832c1.099,1.588,0.563,2.432-1.341,2.105C33.097,23.404,31.806,24.758,31,27
			c-2.674-1.768-6.021-1.804-8.045,0.772C21.247,28.828,20.442,27.759,21,26c-1.851-0.788-0.768-3.859,1-2
			c0.455,0.117,0.646,1.645,2.165,0.734c-0.884-1.031-1.437-2.349-0.485-3.448c0.509-0.588,1.615-0.779,2.399-1.3
			c0.943,3.658,2.562,3.42,4.856-0.714l2.302-0.15C34.169,19.459,35.752,19.551,36.215,20.832z"/>
		<path style="fill:#424242;" d="M33.236,19.123c-1.155,2.638-4.073,6.756-7.53,5.318c-1.702-0.708-0.047-3.692,0.373-4.455
			c0.558-0.37,0.597-1.377,1.068-1.827c-1.186-2.274-0.363-2.732,1.648-1.147C30.691,16.742,32.319,17.648,33.236,19.123z"/>
		<path style="fill:#373737;" d="M21.798,35.178l0.31,1.801C21.857,38.094,20.502,39.06,20,40c-1.478,0.951-2.556,2.592-4.981,1.926
			c-0.113-2.597,0.336-5.051,1.757-7.06L21.798,35.178z"/>
		<path style="fill:#6C6C6C;" d="M70.144,30.94c0.68,0.442,1.06,0.599,1.205,0.903c1.218,2.563,3.247,5.32-0.583,6.753
			c-2.004-3.17-3.444-6.141-4.842-9.565C67.78,29.773,68.551,31.022,70.144,30.94z"/>
		<path style="fill:#989898;" d="M45.512,16.858l0.483,2.108c-0.046,1.757-0.425,3.329-1.136,4.714
			c-2.39-0.105-3.922-2.211-5.575-3.648c-1.096-1.135-1.416-2.286,0.57-2.885C42.536,14.158,44.423,14.062,45.512,16.858z"/>
		<path style="fill:#4D4D4D;" d="M64.979,37.021c1.632-0.624,1.886,0.612,1.273,2.034l-0.079,0.932
			C64.857,42.117,62.328,41.985,61,40c-1.305,0.557-1.678-0.003-0.858-1.142l-2.585-3.212
			C60.305,34.243,63.577,34.575,64.979,37.021z"/>
		<path style="fill:#363636;" d="M59.299,19.874c1.819-2.228,2.602-0.601,2.347,4.88l-2.677,0.215c0.428,1.655-0.64,1.45-2.052,1
			l-2.055,0.079C53.315,27.969,51.543,25.782,53,24c0.915-2.306,2.248-3.306,4-3C56.826,18.28,57.364,17.998,59.299,19.874z"/>
		<path style="fill:#2C2C2C;" d="M40,31l2.902,3.844c-2.065,1.385-4.955,2.263-7.663,0.815c-0.672-0.36-0.388-2.868,0.291-3.391
			C36.117,31.816,37.276,31.903,38,31C39.052,29.454,39.654,29.04,40,31z"/>
		<path style="fill:#535353;" d="M51,36.882c-0.208-0.252-1.46,0.347-1.703-0.281c-1.323-3.408,0.983-6.815,4.573-7.663
			C54.187,32.307,53.236,35.19,51,36.882z"/>
		<path style="fill:#626262;" d="M79,42c-1.535,0.924-2.189,4.171-5,2.807c-0.597-0.995-1.442-2.032-1.143-2.908
			c0.505-1.478,1.471-2.229,2.542-2.76C76.708,39.948,77.956,40.864,79,42z"/>
		<path style="fill:#5B5B5B;" d="M60.142,38.858C60.837,38.817,61.138,39.384,61,40c2.198,1.242,1.864,1.908-1,2
			c0.378,2.957-1.427,3.511-3.177,1.02c-1.476-0.336-2.207-1.308-2.193-2.917c-2.026,1.239-3.37,0.147-1.703-1.932
			C55.237,35.019,57.717,39.002,60.142,38.858z"/>
		<path style="fill:#212121;" d="M50,10c3.371,0.163,3.535,3.248,0.223,3.892c-0.966,0.331-1.763,1.409-2.929,1.289
			c-0.511-1.899-3.095-3.522-2.047-5.934C46.791,9.552,48.448,9.556,50,10z"/>
		<path style="fill:#313131;" d="M34,34c0,1.214,0.264,2.156-0.226,4.218c-3.051-0.927-6.911-0.972-7.845-3.787
			C27.528,32.819,31.667,33.451,34,34z"/>
		<path style="fill:#202020;" d="M42.236,11.727c2.663,2.191,1.57,3.984-3.278,5.378c-0.992,1.423-1.627,0.934-1.031-0.774
			c-2.496-0.064-3.15-0.829-1.961-2.294c-2.239-1.132-1.198-2.579,1.129-1.829C39.132,10.596,40.43,10.739,42.236,11.727z"/>
		<path style="fill:#2A2A2A;" d="M39,27c2.132,1.662,1.731,3.342-1,4c-1.378,0-2.772-0.241-3.819-1.181
			C33.719,29.303,33.54,28.443,33,28c-1.288-1.44-0.712-1.989,1-1C34.327,22.837,38.692,24.104,39,27z"/>
		<path style="fill:#3D3D3D;" d="M46,29.87c1.272,1.528,1.618,2.11,0.561,3.281c-1.222,1.354-2.646,1.014-3.659,1.693L40,31
			c-1-2.347-0.076-2.995,1.928-1.467C43.956,28.515,45.314,28.628,46,29.87z"/>
		<path style="fill:#1C1C1C;" d="M66.063,20.063c2.009-0.163,2.631-0.041,1.884,1.992c-1.7,1.101-3.409,2.429-4.927,3.768
			c-2.263-1.112-2.196-1.5-1.543-3.823C59.762,18.89,61.291,18.244,66.063,20.063z"/>
		<path style="fill:#535353;" d="M58.135,30.434c1.409,1.023-2.797,7.274-3.805,5.329c-0.763-1.83,0.545-4.487,1.325-6.218
			C56.221,28.292,57.444,29.932,58.135,30.434z"/>
		<path style="fill:#585858;" d="M22,24c-1.161-0.3-1.107,1.314-1,2c1.453,1.276,0.879,3.088-1,2c-1.945-2.313,0.198-5.884,1-10
			c0.479,0.015,1.023-0.206,2.095,0.244C22.44,20.322,21.784,22.095,22,24z"/>
		<path style="fill:#D3D3D3;" d="M43,50.862c1.964,2.424,0.79,3.503-1.963,2.072c-0.48,2.24-1.1,2.608-1.858,1.105
			c-1.928,1.612-3.789,0.501-3.213-1.958c1.321-1.551,1.409-2.882,0.264-3.993L37,46c0.284-0.873,0.618-0.86,1,0l2-1
			c0.061,1.842-0.29,3.655,0.325,5.912C41.404,51.047,42.244,50.959,43,50.862z"/>
		<path style="fill:#878787;" d="M56,15.89c0.709,1.803,1.042,3.506,1,5.11c-1.204,1.167-2.519,2.194-4,3
			c-0.048,2.63-1.044,2.611-2.039,0.202c-0.236-0.693-0.847-1.573-0.916-2.31c1.065,0.08,1.93,1.272,3.36,0.685
			C54.512,19.853,53.884,17.349,54,15C55.811,12.951,56.333,13.177,56,15.89z"/>
		<path style="fill:#888888;" d="M71.084,22.979c-1.295,1.203-1.785,3.542-3.806,4.097c-0.805-0.031-1.915,0.213-2.27-0.669
			c1.498-1.605,3.358-2.669,2.938-4.352C68.392,17.644,75.156,18.613,71.084,22.979z"/>
		<path style="fill:#4A4A4A;" d="M52.927,38.171c0.665,0.445,0.842,1.602,1.703,1.932c1.918,2.627-5.073,2.81-5.63,0.898
			c-1.093,0.001-1.471-1.077-1-2c1.024-0.688,2.025-1.38,3-2.118L52.927,38.171z"/>
		<path style="fill:#B8B8B8;" d="M49,41c1.961,0.55,1.936,1.436,0,2l1.367,0.246c0.3,1.832,1.178,3.417,2.633,4.754
			c2.69-0.63,3.007-0.069,1.084,1.916C52.659,51.526,50.298,51.554,47,50c-0.226,3.016-2.546,3.516-4,0.862
			c0.663-1.702,3.087-1.958,4.241-3.57C49.109,44.687,47.534,41.489,47,39h1C48.248,39.687,48.803,40.294,49,41z"/>
		<path style="fill:#444444;" d="M45.512,16.858c-1.722-1.168-3.729,0.176-5.659,0.289c-0.191,0.92-0.493,0.874-0.895-0.042
			c0.435-1.438,1.923-1.893,3.361-2.914c0.881-0.626,0.13-1.875-0.083-2.464C44.267,12.838,44.939,14.359,45.512,16.858z"/>
		<path style="fill:#3D3D3D;" d="M35,41c0.449,0.881,0.07,1.182-1,1c-1.287,1.513-4.891,1.205-5-1
			c-0.096-0.586-0.743-1.416-1.118-1.882C29.856,36.938,32.947,39.894,35,41z"/>
		<path style="fill:#3C3C3C;" d="M67.063,38.441c-0.253,0.227-0.524,0.432-0.811,0.614c-0.464-0.653-0.875-1.34-1.273-2.034
			l-1.038-7.08C65.819,32.333,68.153,35.367,67.063,38.441z"/>
		<path style="fill:#989898;" d="M35.966,14.037c0.858,0.575,1.399,1.45,1.961,2.294c-0.002,0.756-0.717,1.291-2.144,1.606
			C33.78,17.108,31.206,16.552,31,14c-0.21-1.542,0.862-1.839,1.998-0.98C34.192,11.699,35.564,12.595,35.966,14.037z"/>
		<path style="fill:#515151;" d="M41.517,38.189c-0.879-0.084-1.572,1.126-1.743,1.903c-1.814,0.3-3.954,0.445-5.202-2.636
			C37.41,37.567,39.437,36.823,41.517,38.189z"/>
		<path style="fill:#4D4D4D;" d="M38,46h-1c-2.039,1.82-3.326,0.402-3-2c-2.608-0.659-2.594-1.132,0-2c0.358-0.308,0.69-0.644,1-1
			c1.079,0.581,3.193-0.384,3.104,1.568C38.045,43.85,38.108,44.933,38,46z"/>
		<path style="fill:#AAAAAA;" d="M34,33v1c-2.7-0.045-5.415-0.117-8.071,0.43c-0.295,0.061-0.656-0.217-0.961-0.207
			C22.887,34.138,21.05,33.129,22,31C25.8,33.034,29.717,33.435,34,33z"/>
		<path style="fill:#2A2A2A;" d="M28.795,17.013c-0.496,0.428-1.174,0.694-1.648,1.147c-1.69,0.214-2.475-0.491-2.187-2.603
			c0.142-1.041,1.638-1.88,2.956-0.972C28.544,15.018,28.738,15.986,28.795,17.013z"/>
		<path style="fill:#1F1F1F;" d="M37.927,16.331c0.222,0.333,0.668,0.627,1.031,0.774c0.238,0.096,0.637,0.057,0.895,0.042
			c-0.166,0.858,0.756,2.814-0.57,2.885c-0.836-0.727-2.477-1.661-3.501-2.094c-0.264-0.447-0.464-1.158-0.168-1.459
			C36.29,15.792,37.332,16.41,37.927,16.331z"/>
		<path style="fill:#959595;" d="M38.871,24.672C39.233,24.821,39.63,24.876,40,25c1.609,0.01,1.536,1.571,0,2
			c-0.284,0.873-0.618,0.86-1,0c-0.978-0.484-1.695-1.554-2.704-1.888C35.139,24.729,34.686,26.371,34,27
			c-3.166-0.706-2.237-4.065,0.874-4.063C36.478,21.465,38.371,22.708,38.871,24.672z"/>
		<path style="fill:#484848;" d="M46.205,23.795c0.735-0.077,1.643-0.613,2.046-0.194c0.851,0.887,1.446,1.945,1.983,3.587
			C48.863,27.997,45.571,25.68,46.205,23.795z"/>
		<path style="fill:#474747;" d="M38.871,24.672c-1.34-0.552-2.701-1.083-3.997-1.735c0.32-0.776,0.765-1.494,1.341-2.105
			c0.576,0.387,1.935,0.282,2.326,1.209C38.906,22.903,39.166,23.763,38.871,24.672z"/>
		<path style="fill:#2F2F2F;" d="M37.094,12.207l-1.129,1.829c-1.201,0.582-2.251-0.014-2.968-1.017
			c0.18-1.038,0.056-2.286,1.504-2.114C35.439,11.017,36.407,11.407,37.094,12.207z"/>
		<path style="fill:#282828;" d="M46.205,23.795c-0.424,0.044-0.919-0.097-1.346-0.115c-0.465-0.707-0.834-1.576-0.775-2.239
			c0.106-1.18,0.583-2.842,1.911-2.475C47.781,20.518,46.764,22.132,46.205,23.795z"/>
		<path style="fill:#1A1A1A;" d="M53,24c0.34,0.898,0.983,1.647,1.861,2.047c-0.125,0.72-0.29,1.386-0.753,1.634
			c-0.39,0.209-1.424,0.629-1.854,0.142c-1.105-1.25-0.932-2.563-1.292-3.621L53,24z"/>
		<path style="fill:#5C5C5C;" d="M63.941,29.941l-2.826,0.84c-1.449,0.431-0.762-1.849-0.125-2.348
			c0.768-0.602,1.328-0.599,2.253-0.193C63.812,28.489,63.578,29.479,63.941,29.941z"/>
		<path style="fill:#323232;" d="M63.02,25.823c-1.781,1.57-4.116,1.957-6.104,0.146c0.641-0.385,1.456-0.54,2.052-1
			C60.439,22.918,61.789,23.203,63.02,25.823z"/>
		<path style="fill:#282828;" d="M42.207,25.651C44.127,26.757,42.995,28.552,41,28c-1.382,1.364-1.879,0.8-1-1v-2
			c0.117-0.178,0.058-1.617,0.511-1.86C40.841,22.963,42.188,24.871,42.207,25.651z"/>
		<path style="fill:#494949;" d="M45.081,26.87C45.307,30.164,39.178,30.786,41,28c0.864-0.452,1.085-1.451,1.207-2.349
			c0.604-0.318,1.424-0.551,1.98-0.189C44.711,25.803,44.884,26.395,45.081,26.87z"/>
		<path style="fill:#2B2B2B;" d="M46,29.87c-2.831,0.132-3.137-0.868-0.919-3c1.88,0.242,3.332,1.524,5.026,2.825
			C48.22,30.163,47.203,29.766,46,29.87z"/>
		<path style="fill:#515151;" d="M21,17c0.738-1.204,1-2.598,1-4c1.387-0.307,2.316,0.223,2.02,1.518
			c-0.201,0.882,0.426,2.177-0.535,2.451C22.648,17.208,21.718,16.901,21,17z"/>
		<path style="fill:#434343;" d="M24.969,34.223C24.126,35.113,22.894,34.642,22,34c-0.309-0.06-0.702,0.091-1,0
			c-1.58-1.013-0.743-3.195,1-3C22.368,32.498,23.926,33.217,24.969,34.223z"/>
		<path style="fill:#515151;" d="M62.917,33.091c0.323,1.269-3.896,1.696-3.978-0.117C58.882,31.704,62.391,31.021,62.917,33.091z"
			/>
		<path style="fill:#919191;" d="M71,48c0.64-1.357,1.727-2.416,3-3.193c0.322,0.536-0.024,1.662-0.443,2.227
			C73.05,47.718,71.957,48.002,71,48z"/>
		<path style="fill:#3F3F3F;" d="M32.998,13.02C32.854,13.854,31.672,14.138,31,14c-0.062-0.765-1.494-1.288-0.55-1.998
			c0.545-0.41,1.076-1.578,1.45-0.184C32.011,12.234,32.633,12.509,32.998,13.02z"/>
		<path style="fill:#494949;" d="M47,50c0.913-0.28,2.046-0.302,2.484,0.466C50.941,53.026,53.195,57.573,53,60
			c1.61,1.275,0.136,2.368-1.651,1.895C50.382,62.287,49.128,62.824,49,64c-0.287,1.076-1.299,0.754-3.037-0.963
			C43.5,64.755,42.327,63.41,44,61c-0.709-1.615-3.019-1.934-3-4c-1.857,0.242-1.111-2.865,0.037-4.066
			c0.732-0.436,1.637-1.235,1.963-2.072C44.31,50.694,45.745,50.371,47,50z"/>
		<path style="fill:#494949;" d="M39,58.759c0.713,0.769,1.07,1.8,1.113,2.745c0.057,1.265-1.058,2.067-2.463,2.183L30.208,64.3
			c-2.101,0.173-3.261-0.006-4.33-1.3c-0.387-0.774-0.883-5.081-0.718-5.291c0.132-0.168,3.204-2.527,3.414-2.565
			C29.136,55.041,38.255,57.49,39,58.759z"/>
		<path style="fill:#484848;" d="M42,68c0.303,3.102-4.126,6.57-7,5c-1.469,1.834-2.136,1.501-2-1l-3.079-5
			c0.303-3.018,10.12-2.128,11.029-1.584C41.654,65.836,41.917,66.955,42,68z"/>
		<path style="fill:#424242;" d="M29.921,67L33,72c2.129,2.754-0.216,3.3-7.036,1.636c-1.451,2.135-5.22,0.161-4.058-2.547
			C19.526,71.304,20.348,68.797,22,68C22.674,64.437,27.289,65.996,29.921,67z"/>
		<path style="fill:#3E3E3E;" d="M20,79c1.241,0.716,2.743,1.599,3.202,3c2.35-0.622,2.734,2.549,1.144,3.738
			c-0.881,1.302-1.829,1.809-3.32,2.194c-1.929,0.641-7.111-0.625-6.016-2.808c-0.441-0.739-1.891-1.759-1.405-2.37L15,81
			c0.768-1.264,1.434-1.598,2-1c-0.944-2.415-0.067-2.88,1.801-1.084C19.347,77.262,19.689,77.265,20,79z"/>
		<path style="fill:#363636;" d="M9,64c0.639-1.055-0.162-3.029,1-4c2.215,0.318,5.064-0.857,7.318,0.737
			c0.952,0.673,1.232,4.266,0.265,4.914C15.034,67.175,11.499,64.916,9,64z"/>
		<path style="fill:#585858;" d="M22,68l-0.094,3.089c1.561,2.593-0.338,6.65-3.105,7.827C18.336,79.38,17.388,79.467,17,80
			c-1.696-0.221-2.553-5.545-0.874-7.081c0.874-0.322,1.068-1.441,1.703-1.927c-1.202-2.105-0.052-3.112,2.1-3.567
			C20.624,67.549,21.263,68.014,22,68z"/>
		<path style="fill:#575757;" d="M45,69c-2.452,3.098-5.932,6.787-10,7c-2.934-0.601-2.662-1.984,0-3c2.476-1.425,4.732-3.267,7-5
			C43.06,68.123,44.071,68.478,45,69z"/>
		<path style="fill:#C1C1C1;" d="M9.78,91c1.694-0.166,1.681,1.355,0.22,2c-2.057,0.132-4.032-0.443-6-1
			c-0.67-0.217-1.174-0.849-0.909-1.404c0.439-0.918,1.393-1.322,2.323-1.923c-0.02-0.798-0.124-1.155-0.333-1.496
			c-0.219-0.358,0.173-1.224,0.517-1.214c0.749,0.023,2.311,0.376,2.608,1.117L9.78,91z"/>
		<path style="fill:#444444;" d="M44,61c0.443,1.01,1.218,1.351,1.963,2.037c1.921,0.739,3.682,2.318,1.913,3.908
			c-0.26,0.348-0.708,0.561-0.932,0.932c-3.381-0.549-6.605-3.798-5.91-7.815C42.239,60.401,43.038,61.076,44,61z"/>
		<path style="fill:#505050;" d="M24,57c2.252-0.533,2.523,0.404,0.811,2.811C21.667,59.681,17.484,61.408,16,58
			c-1.095-2.324-0.343-2.69,2-2C20.167,55.399,22.053,56.543,24,57z"/>
		<path style="fill:#B1B1B1;" d="M34,55c0.837-0.796,2.563-1.116,5.178-0.961l1.858-1.105L41,57c-0.847,0.356-1.715,0.833-2,1.759
			c-3.506-0.586-7.487-2.757-11.271-1.786c-2.34,0.6-1.679,4.435-1.851,6.028c-2.605,1.194-3.083,0.152-1.009-1.869l-0.058-1.32
			C24.768,58.819,24,57.904,24,57c1.149-2.956,2.816-4.623,5-5C30.08,54.372,31.747,55.372,34,55z"/>
		<path style="fill:#404040;" d="M24.869,61.131c0.039,0.901,0.543,1.305,1.009,1.869c-0.423,3.918-2.543,0.355-6.716,3.053
			c-0.305-1.986-0.19-3.193-0.105-4.965C21.366,60.815,23.081,61.094,24.869,61.131z"/>
		<path style="fill:#555555;" d="M19.929,67.425c0.476,1.679-0.912,2.659-2.1,3.567c-1.353-0.173-3.073,0.472-4.602-0.307
			c-0.62-0.337-0.176-2.738,0.461-3.051C15.682,66.657,17.995,67.081,19.929,67.425z"/>
		<path style="fill:#B4B4B4;" d="M21.026,87.932c-1.024,0.264-2.133,1.317-3.037,1.874c-1.579,0.98-2.552,0.21-3.732-0.971
			c-2.273-0.289-1.948-2.624-0.344-3.701l1.097-0.01C16.682,86.909,19.77,85.589,21.026,87.932z"/>
		<path style="fill:#4F4F4F;" d="M9,84.176c0.228-1.79,1.323-3.428,0.917-5.298c0.271,0.03,0.783-0.46,1.038-0.543
			c0.728-0.237,0.874,0.668,0.875,1.705C11.834,82.074,11.032,85.402,9,84.176z"/>
		<path style="fill:#323232;" d="M13.913,85.134c0.225,1.224,0.248,2.465,0.344,3.701c2.515,1.26,0.84,3.228-1.257,1.165
			c-0.329-0.038-0.669,0.02-1,0c-0.962,0.124-1.309-0.28-1.042-1.213C11.144,87.034,11.895,85.153,13.913,85.134z"/>
		<path style="fill:#606060;" d="M15,81c-1.858,0.248-2.333-0.792-2.056-2.536C13.116,77.377,13.348,76.102,14,75
			C15.831,74.569,16.748,80.241,15,81z"/>
		<path style="fill:#565656;" d="M10.194,74L9,73c0.257-1.369-0.847-3.094,1.072-4.552C11.94,70.408,10.931,72.476,10.194,74z"/>
		<path style="fill:#2A2A2A;" d="M12,90c0.031,0.704,0.165,1.5-0.077,2.389C11.695,93.222,10.735,92.953,10,93
			c-0.186-0.554,0.026-1.522-0.22-2c0.273-0.796,0.654-1.552,1.178-2.213C11.343,89.158,11.701,89.556,12,90z"/>
		<path style="fill:#4C4C4C;" d="M11.487,67.675c-0.042,0.687-2.31,0.538-2.477-0.165c-0.165-0.695-0.072-2.645,0.473-2.306
			C10.382,65.766,11.562,66.459,11.487,67.675z"/>
		<path style="fill:#3A3A3A;" d="M16.126,72.919C15.735,74.485,15.027,75.179,14,75c-0.31-0.502-1.046-1.042-1.075-1.577
			c-0.052-0.951,0.514-1.811,1.583-1.481C15.291,72.184,16.026,71.764,16.126,72.919z"/>
		<path style="fill:#C0C0C0;" d="M33,72c0.645,0.374,1.324,0.687,2,1v3c-1.117,2.237-1.879,1.88-3,0l-1,1l1.209,0.664
			C31.394,78.32,31.324,79.098,32,80c-0.657,0.305-1.183,1.007-2,1c-0.963,0.869-2.369,1.365-3,0c-2.449-1.311-4.782-1.978-7-2
			l-1.199-0.084c1.161-2.611,0.878-5.883,3.105-7.827c2.892,2.207,7.106,2.49,10.846,2.958C33.179,73.151,33.064,72.39,33,72z"/>
		<path style="fill:#4A4A4A;" d="M64,50c2.403-2.652,3.069-2.359,3.031,1.047C65.242,54.17,62.095,56.247,59,58
			c-1.103,0.677-1.56,0.163-1.926-1.022c-1.314-4.262,0.322-5.127,4.075-5.828C61.011,48.162,62.025,47.751,64,50z"/>
		<path style="fill:#545454;" d="M27,81c0.746,0.787,0.746,1.787,0,3c-0.76,0.579-1.887,1.284-2.654,1.738
			c0.164-1.261-0.877-2.668-1.144-3.738c-0.768-1.271-1.836-2.271-3.202-3c1.067-1.22,2.714-1.158,4.451-1.08
			C26.008,77.99,27.01,79.23,27,81z"/>
		<path style="fill:#A8A8A8;" d="M61.15,51.15c-1.14,0.801-2.711,1.454-3.034,2.576C57.623,55.434,57.883,57.006,59,58
			c0.011,0.757-0.947,0.713-1.276,1.1c-1.57,1.408-2.328,0.916-1.724-1.1c-2.519-1.093-3.049-5.25-1-7
			C56.18,48.567,59.999,48.668,61.15,51.15z"/>
		<path style="fill:#595959;" d="M57.724,59.1c-1.039,1.221-4.955,5.398-6.375,2.795C52.207,61.548,52.556,60.734,53,60
			c-1.997-2.602,0.807-4.432,3-2C56.526,58.439,57.072,58.875,57.724,59.1z"/>
		<path style="fill:#424242;" d="M17.99,89.806c-0.985,0.607-1.153,2.715-3.065,2.943C13.376,92.934,12.881,90.992,13,90
			c0.815,0.094,1.325-0.298,1.257-1.165c0.585-0.533,1.369-0.858,2.129-0.637C17.184,88.43,17.744,89.057,17.99,89.806z"/>
		<path style="fill:#5A5A5A;" d="M35,76c0,1.923-1.352,3.236-3,4c-0.387,0.017-1.854,0.298-1.91-0.502
			C30.031,78.653,30.942,77.731,31,77c-1.448-1.307-0.805-1.924,1-1C32.897,74.899,34.105,76.047,35,76z"/>
		<path style="fill:#D0D0D0;" d="M69,49v1c-0.698,0.211-1.287,0.791-1.969,1.047C66.588,49.804,65.112,49.88,64,50l-1.064-5.746
			L65,43C67.222,44.268,65.581,48.758,69,49z"/>
		<path style="fill:#393939;" d="M30,81c-0.495,1.511-1.856,2.128-3,3c-0.924,0.138-1.049-0.754-0.851-1.312
			C26.389,82.011,26.66,81.475,27,81C27.922,80.391,29.074,80.404,30,81z"/>
		<path style="fill:#C6C6C6;" d="M49,64c-0.035,0.435,0.808,1.033,0.682,1.563c-0.208,0.878-1.106,1.163-1.805,1.382
			c-0.068-1.408-0.841-2.921-1.913-3.908C47.032,63.149,48.077,63.44,49,64z"/>
		<path style="fill:#494949;" d="M91,22c2.244-2.318,4.016-0.572,2,2c2.206,0.816,1.846,2.218,0.925,4.091l-3.337,3.791
			C89.355,31.321,88.058,30.866,87,30l-2.187-0.538c-0.118-3.818-0.403-7.746-0.855-11.784C86.359,18.137,88.707,19.578,91,22z"/>
		<path style="fill:#4D4D4D;" d="M100,26c-2.879,0.959-6.284,6.732-6.075,2.091c0.092-2.611,0.783-3.655,2.075-3.132
			C97.437,21.386,100.962,23.164,100,26z"/>
		<path style="fill:#B6B6B6;" d="M99.013,20.675c2.145-0.327,2.881,1.305,2.987,3.228c-0.534,0.495-0.493,1.554-1,2.097h-1
			c-0.329-2.081-2.49-0.813-4-1.041c-1.852-1.866-1.703-3.952,0.868-4.959C97.761,18.03,98.789,18.458,99.013,20.675z"/>
		<path style="fill:#545454;" d="M19,45c0.35,0.973,1.157,1.509,2,2c1.535,1.041,1.957,1.67,0,2c-2.371,0.403-5.282,2.283-7,0
			c1.862-0.693,2.569-2.717,4-4H19z"/>
		<path style="fill:#D0D0D0;" d="M22.955,27.772C22.105,28.854,22.21,29.714,22,31c-0.15,0.917-1.622,1.766-1,3
			c-0.692-0.212-1.286-0.865-2-1c-1.165-1.445-0.206-3.669,1-5c0.765-0.037,1.092-1.408,1-2
			C21.871,26.307,22.624,26.892,22.955,27.772z"/>
		<path style="fill:#3D3D3D;" d="M20,28c0.129,1.731-0.043,3.519-1,5c-0.405-0.076-0.833,0.521-1.095,0.702
			c-0.452,0.313-0.957-0.024-0.967-0.339C16.914,32.691,17.327,28.131,20,28z"/>
		<path style="fill:#585858;" d="M98,4c1.113,2.592,2.025,5.326,2.798,8.229C97.47,12.185,96.962,9.721,95,10
			c-0.985-0.258-1.652-1.591-2-4c-0.157-1.104,0.13-2.274,1-3l2.72-0.837C97.581,1.898,98.059,3.034,98,4z"/>
		<path style="fill:#545454;" d="M103,17c-0.222,2.362,0.899,5.143-1,6.903c-1.807-0.004-2.94-1.474-2.987-3.228
			C97.601,19.029,98.312,14.797,101,15L103,17z"/>
		<path style="fill:#6A6A6A;" d="M101,15c-0.355,1.987-0.842,3.989-1.987,5.675c-0.665-0.362-1.396-0.572-2.145-0.675
			c-1.95-2.757-1.906-4.424,0.132-5c0.872-0.512,1.673-1.652,3.08-1.978C101.319,12.736,100.777,14.579,101,15z"/>
		<path style="fill:#4C4C4C;" d="M97,15c0.954,3.394-6.388,1.205-6.494,0.805C90.401,15.412,93.97,8.907,95,10
			C95.867,11.782,97.306,12.789,97,15z"/>
		<path style="fill:#4D4D4D;" d="M101,5c0.03,0.888,0.308,1.665-0.725,2.07C99.905,5.514,99.803,4.627,99,4
			c-0.029-0.451-0.177-2.163,1.037-2.052C101.644,2.095,100.871,4.19,101,5z"/>
		<path style="fill:#4E4E4E;" d="M18,56c-0.369,0.916-1.114,1.587-2,2c-1.821,1.03-3.946,1.138-6,1c1.191-2.836,2-5.973,2-9
			C15.413,50.573,17.427,52.587,18,56z"/>
		<path style="fill:#565656;" d="M27,47c0.718-1.518,1.385-0.852,2,2c2.372,1.455,2.372,2.455,0,3c-0.955,2.304-2.046,5.694-5,5v-6
			c-0.682-2.504-0.349-3.504,1-3C25.384,47.31,26.439,47.273,27,47z"/>
		<path style="fill:#404040;" d="M24,51c-0.678,0.96-1.387,2.001-2,3c-1.576,1.046-3.429-0.415-2-2c-0.019-1.088,0.44-2.086,1-3
			C21.893,47.178,25.684,48.325,24,51z"/>
		<path style="fill:#606060;" d="M20,52c0.351,0.932,1.068,1.649,2,2c-0.572,0.931-1.307,1.507-2.464,0.927
			c-0.912-0.458-1.887-1.403-1.544-3.178C18.211,50.621,19.521,51.56,20,52z"/>
		<path style="fill:#6A6A6A;" d="M93,6c1.234,2.69,0.715,5.587-1.558,8.691c0.261,0.867-0.913,1.707-3.524,2.518
			c-0.034,1.745-0.526,1.734-1.736,0.751c-0.881,1.833-5.123-1.225-2.808-2.881C80.071,14.762,82.269,7.076,85,7
			c0.551-1.835,2-3.861,3.436-4.153C91.09,2.306,91.464,4.884,93,6z"/>
		<path style="fill:#565656;" d="M85,7c0.408-1.36-2.152,9.714-1.627,8.079c0.401,2.908-3.224,1.821-4.408,0.055
			c-3.07-0.926-3.746-1.89-2.028-2.892C76.742,11.264,77.036,10.725,78,11c1.16-1.699,2.494-3.366,4-5
			c1.123-0.241,1.615-1.312,2.691-2.09C85.326,5.316,84.892,6.174,85,7z"/>
		<path style="fill:#393939;" d="M82,6c-0.722,1.481-2.4,3.454-4,3c-0.31,1.891-1.122,2.125-1.765,0.262
			C72.324,10.528,70.352,9.916,72,6c0.368-0.297,0.703-0.632,1-1h4c1.293,0,2.496-0.716,4.065-0.748C81.821,4.237,81.976,5.621,82,6
			z"/>
		<path style="fill:#404040;" d="M56,9c1.884-0.635,5.79,3.023,5,4.803c1.918,2.549,0.772,7.327-3,2.94
			c-1.635,1.935-1.905,1.671-2-0.853c-0.653-0.313-1.305-0.646-2-0.89c-1.145-0.401-2.439-1.566-3.777-1.108
			C50.556,12.589,50.708,11.197,50,10l1-2C52.615,7.947,54.447,8.737,56,9z"/>
		<path style="fill:#1C1C1C;" d="M71,6c3.44,4.744-0.836,6.172-5.374,6.113C65.413,12.11,65.205,11.624,65,11
			c-2.003,0.669-4.251-1.056-3-3C64.581,6.188,67.909,6,71,6z"/>
		<path style="fill:#A1A1A1;" d="M78,9c1.242-0.313,1.242,0.353,0,2l-1.063,1.241c-0.12,0.95-0.448,0.89-0.953-0.034
			c-1.552-0.293-1.284-1.559-0.489-1.283c0.66,0.229-11.496,6.719-12.446,3.223C61.33,13.573,61.079,12.352,63,12
			c-0.721-1.495-0.054-1.828,2-1l5.886-0.073C71.208,8.972,70.963,7.486,71,6h1c-0.061,0.778-0.359,2.614,0.938,2.919
			C74.903,9.38,76.527,8.844,78,9z"/>
		<path style="fill:#232323;" d="M59,8c1.722-0.161,3.925,2.458,4,4l0.049,2.148c-0.968,1.622-1.832,1.558-2.049-0.344
			c-1.359-2.072-4.247-2.457-5-4.803C56.766,8.537,57.894,7.721,59,8z"/>
		<path style="fill:#3A3A3A;" d="M62,8c0.596,1.344,1.656,2.404,3,3c-0.549,0.534-1.257,0.84-2,1c-1.72-0.874-3.093-2.303-4-4
			C59.971,6.778,60.871,7.379,62,8z"/>
		<path style="fill:#D0D0D0;" d="M83.373,15.079c0.423,1.679,2.876,2.709,4.545,2.13C90.337,17.557,92.913,19.545,91,22
			c-2.211-0.141-3.493-1.895-5.337-3.854C84.722,19.81,83.971,29.449,87,30h-5c1.283-0.333,2.129-2.372,2.102-3.845l-0.144-7.832
			c-1.004-0.03-1.429,0.443-1.866,0.769c-0.223-0.734-0.496-1.859-1.546-2.001c-0.643-0.087-1.635,0.405-2.263,0.825
			c-2.062-1.714-1.782-2.226,0.681-2.782C80.428,15.526,81.934,15.673,83.373,15.079z"/>
		<path style="fill:#C9C9C9;" d="M82,30c-1.126,1.622-3.125,2.085-5.029,1.971C77.795,29.981,80.291,30.444,82,30z"/>
		<path style="fill:#C7C7C7;" d="M78.965,15.134c-1.269,0.927-2.65,1.877-4.144,2.849c-0.64,0.241-0.674,0.873-0.104,1.897
			c-0.344,2.01-2.507,2.054-3.633,3.1c-0.123-0.706,0.342-1.454-0.516-3.037c-0.689,1.108-1.693,1.512-2.621,2.113
			c-0.754-0.521-1.438-1.184-1.884-1.992c2.612-5.383,5.919-8.002,9.921-7.856c0.315,0.078,0.633,0.092,0.953,0.034L78.965,15.134z"
			/>
		<path style="fill:#636363;" d="M78.965,15.134c0.498,0.711-0.477,1.959-0.681,2.782c-0.991,0.664-2.799,1.071-3.567,1.963
			c-0.826,0.213-1.722,0.127-1.906-0.443c-0.588-1.822,2.181-4.599,3.053-4.869C76.751,14.292,78.003,14.876,78.965,15.134z"/>
		<path style="fill:#B2B2B2;" d="M34,42v2c-0.63,2.769-3.756,1.929-5,0c0-0.968,0.156-2.047,0-3C30.483,41.96,32.269,42.109,34,42z"
			/>
		<path style="fill:#BEBEBE;" d="M25,48c0.267,1.242-0.361,2.096-1,3c0-0.66,0.234-1.79-0.568-1.945
			C22.584,48.892,21.682,48.884,21,49v-2C22.223,47.712,23.574,48.059,25,48z"/>
		<path style="fill:#CACACA;" d="M29,49l-2-2c0.487-1.103,0.94-2.305,2-3C31.988,44.074,31.758,48.463,29,49z"/>
		<path style="fill:#343434;" d="M34.874,22.937C34.07,24.136,33.908,25.585,34,27c-0.345,0.316-0.635,0.703-1,1
			c-0.557-0.457-1.397-0.601-2-1c-0.5-0.718-1.046-1.585-0.908-2.41c0.055-0.329,2.801-4.418,3.741-3.03
			C34.076,21.918,34.314,22.655,34.874,22.937z"/>
		<path style="fill:#B0B0B0;" d="M66.173,39.987C65.46,40.859,65.19,41.918,65,43c-1.976,1.837-3.842,1.398-5-1
			c0.386-0.633,0.835-1.264,1-2C62.682,40.666,64.481,40.585,66.173,39.987z"/>
		<path style="fill:#9B9B9B;" d="M63.049,14.148c1.418,0.807,1.767,1.628,0.839,2.831c2.054,0.31,2.883,0.854,2.175,3.085
			c-1.303,0.014-3.931-0.759-4.196,1.333c-0.154,1.211,0.57,2.937,1.153,4.427c-1.398-0.202-2.618-1.049-4.051-0.854
			c0.874-0.674,1.837-1.556,2.069-2.519c0.329-1.361-0.506-2.35-1.739-2.575c-1.989-0.569-2.424-1.17-1.299-3.131
			c1.034,0.262,2.445,0.573,3.022-0.257c0.681-0.979,0.219-1.936-0.022-2.682C61.69,13.874,62.374,13.988,63.049,14.148z"/>
		<path style="fill:#363636;" d="M58,16.743c0.848,0.95,2.237,1.789,1.299,3.131C58.709,20.519,57.608,20.41,57,21
			c-1.844,0.498-2.292-0.913-2.099-2.535c0.109-0.913,0.034-2.093,1.099-2.575C56.693,16.222,57.421,16.094,58,16.743z"/>
		<path style="fill:#BDBDBD;" d="M41,28c0.111,1.175,1.094,1.351,2.204,0.797c0.599-0.299,0.731-1.523,1.877-1.927
			c-0.147,1.001,0.256,2.204,0.919,3c-2.057,0.177-4.388-0.41-6,1.13h-2c0.88-1.098,0.917-2.672,1-4h1C40,27.507,40.781,27.72,41,28
			z"/>
		<path style="fill:#9F9F9F;" d="M42.902,34.844C41.319,34.397,39.697,32.752,40,31C41.366,31.681,43.604,33.129,42.902,34.844z"/>
		<path style="fill:#5B5B5B;" d="M60,42c1.671-0.329,3.564,0.181,5,1c-0.623,3.539,2.672,4.797-1,7
			c-1.034,0.111-2.005,0.556-2.85,1.15C59.078,51.195,56.971,51.818,55,51c-1.557,0.936-2.039,0.322-0.916-1.084
			C53.798,49.237,53.422,48.603,53,48c-1.371-2.259,1.51-4.71,3.823-4.98C57.897,43.114,59.009,42.195,60,42z"/>
		<path style="fill:#949494;" d="M56.823,43.02C55.234,45.557,50.44,45.679,49,43c-0.117-0.633,0.172-1.382,0-2
			c1.917,0.413,4.533,1.139,5.63-0.898c0.646,0.247,1.46,0.256,1.974,0.912C57.045,41.578,56.89,42.321,56.823,43.02z"/>
		<path style="fill:#4C4C4C;" d="M34,44c1.232,0.131,2.178,1.216,3,2c1.42,1.355,2.981,3.526,1.545,5.944
			c-0.412,0.694-2.156-0.103-2.579,0.137C34.727,54.076,33.1,53.245,33,51c-2.276,0.57-3.609-0.097-4-2v-5
			C30.488,43.025,32.298,43.819,34,44z"/>
		<path style="fill:#505050;" d="M33,51c1.009,0.246,2.098,0.472,2.966,1.081c1.028,0.722,2.088,1.39,3.213,1.958
			c0.094,0.769-0.154,3.509-1.239,2.959L34,55c-1.812,0.847-5.187-0.843-3.249-2.727C29.425,50.039,30.968,50.144,33,51z"/>
		<path style="fill:#565656;" d="M54.084,49.916C54.516,49.934,54.807,50.695,55,51c0.957,1.512,1.269,4.981,1,7
			c-1.139,0.39-2.35,0.926-3,2c-3.467-2.152-4.038-6.567-6-10c0.448-0.29,0.583-1.968,1.69-1.637
			C50.695,48.962,52.294,49.843,54.084,49.916z"/>
		<path style="fill:#414141;" d="M56.823,43.02C56.611,45.223,54.7,46.752,53,48c-1.068-0.071-3.374,0.55-3.87-0.576
			C48.497,45.988,49.234,44.269,49,43C51.602,42.608,54.217,42.792,56.823,43.02z"/>
		<path style="fill:#B4B4B4;" d="M33,72c-1.721-0.997-3.23-2.961-3.079-5C32.05,67.555,32.678,70.033,33,72z"/>
		<path style="fill:#CDCDCD;" d="M17,80c-0.566,0.777-1.11,0.881-2,1c1.017-1.278,0.522-4.431-1-6
			c0.213-1.051,1.157-1.724,2.126-2.081C16.33,75.285,14.956,78.415,17,80z"/>
		<path style="fill:#B0B0B0;" d="M23.202,82c-1.31-0.659-2.84-1.481-3.202-3C21.739,78.73,23.886,80.263,23.202,82z"/>
		<path style="fill:#515151;" d="M30.751,52.273C31.101,53.874,32.676,54.328,34,55c-0.573,1.727-2.743,0.863-3.831,0.394
			C28.617,54.725,28.924,53.34,29,52C29.494,50.181,30.682,50.533,30.751,52.273z"/>
		<path style="fill:#565656;" d="M32,76c-0.401,0.228-0.587,0.817-1,1c-1.072,0.475-2.207,2.335-3.188,1.613
			c-0.883-0.651-2.77-2.701-2.565-3.991C26.882,73.093,30.34,74.542,32,76z"/>
		<path style="fill:#414141;" d="M21.457,73.791c0.999-1.365,1.712-0.339,2.152,0.261c0.749,1.021,1.389,1.932,0.804,2.417
			c-1.11,0.92-1.669,0.548-2.219,0.549C21.118,77.019,20.327,75.336,21.457,73.791z"/>
		<path style="fill:#484848;" d="M96.868,20c0.01,1.886,0.156,3.291-0.868,4.959c-0.645,1.406-1.645,1.087-3-0.959
			c-0.436-0.719-0.977-1.935-2-2c-0.629-1.951-3.69-2.471-3.083-4.791c2.639-2.147,4.106-2.484,4.401-1.013
			C95.365,16.007,96.881,17.275,96.868,20z"/>
		<path style="fill:#C6C6C6;" d="M96,24.959c-0.716,1.167-1.131,2.059-2.075,3.132C93.979,26.888,93.674,25.11,93,24
			C94.11,23.725,95.061,24.774,96,24.959z"/>
		<path style="fill:#C0C0C0;" d="M95,10c-1.386,0.942-2.321,3.127-2.979,5.331C92.768,16.838,95.766,15.724,97,15
			c-0.217,1.566-0.141,3.412-0.132,5c-1.757-3.582-5.406-4.022-8.951-2.791C91.395,14.461,93.632,10.455,93,6
			C94.535,7.115,94.268,8.494,95,10z"/>
		<path style="fill:#C7C7C7;" d="M33,51c-0.944-0.042-1.786,0.457-2.249,1.273C30.1,52.855,29.659,51.877,29,52
			c0.335-0.808,0-2.116,0-3C30.403,49.525,31.848,50.018,33,51z"/>
		<path style="fill:#D6D6D6;" d="M78,11V9l4-3C82.281,8.437,79.378,9.391,78,11z"/>
		<path style="fill:#222222;" d="M75.984,12.207c-0.375,1.382-2.37,1.103-3.145,1.75c-1.102,2.559-3.668,6.072-6.776,6.105
			c-0.672-1.219-2.528-0.59-3.925-1.647c-1.276-0.966,0.593-3.167,0.911-4.269l13.215-4.661
			C77.457,10.828,76.127,11.328,75.984,12.207z"/>
	</g>
</g>
</svg>
