<?xml version="1.0" encoding="iso-8859-1"?>
<!-- Generator: Adobe Illustrator 30.1.0, SVG Export Plug-In . SVG Version: 9.03 Build 0)  -->
<svg version="1.1" id="Layer_1" xmlns="http://www.w3.org/2000/svg" xmlns:xlink="http://www.w3.org/1999/xlink" x="0px" y="0px"
	 viewBox="0 0 160 177" style="enable-background:new 0 0 160 177;" xml:space="preserve">
<g>
	<g>
		<path style="fill:#FCFCFC;" d="M68,0l51.955,13.269L160,45v4l-3,4.047c-1.848-1.281-2.172-1.606,0.202-2.142
			c-1.126-1.235-1.527-2.817-1.202-4.745c-1.98,0.593-2.764-0.235-2-2.16c-2.197,1.171-2.863,0.504-2-2
			c-2.098-0.225-3.083-0.911-2.955-2.058c-1.822,0.151-3.215-0.866-4.18-3.053l-1.676-1.02c-2.653,1.019-4.191-1.121-3.178-3.764
			c-2.195,0.093-2.915-0.629-2.16-2.165c-4.105-0.676-7.903-2.904-11.396-6.684L124,25c-0.284,0.873-0.618,0.86-1,0
			c-1.806-0.451-2.484-2.532-2.035-6.243c-1.493,0.034-2.535-0.016-3.227-1.768c-1.791-1.071,0.688-2.148,1.377-1.907
			c1.212,0.424-7.024,2.185-7.97-1.156c-1.789,0.536-2.807,2.315-3.054,5.335l-1.02,1.975c0.773,0.514,0.705,0.86-0.205,1.039
			c-0.53,2.622-1.449,2.341-1.866-0.276v-1c-1.575-1.586-0.179-3.379,1.01-4.856c-1.582,1.051-2.05,0.367-0.798-1.144
			c-1.028-1.741-2.5-2.619-4.415-2.634L100,10c-0.423,0.817-0.756,0.781-1-0.108c-0.551,2.259-0.691,2.1-1.869,0.202
			c-0.844,1.069-1.11,1.203-1.373-0.207c-2.345,0.83-8.245,1.389-8.759-1.73c-0.316,1.96-1.65,1.647-4-0.937
			c-1.423,2.739-6.242,0.779-6-2.081c-2.152-0.81-4.129-1.471-6-0.814c-1.302,2.745-4.946,1.933-4.814-1.123
			C65.448,2.997,64.719,2.96,64,3.089c0.505,2.907-4.152,4.86-6.698,4.005c0.866,1.656,0.638,2.208-1.018,1.215
			c-1.282,2.855-3.894,4.84-7.834,5.953c0.707,1.592,0.339,2.675-1.213,3.685C47.94,20.622,46.827,20.931,45,19
			c-1.695-0.358-2.239-0.95-1.99-2.515C41.6,18.082,39.93,18.587,38,18c-0.714,3.493-6.909,5.332-10.197,6.139
			c-0.787,1.558-2.148,2.9-4.084,4.024c0.405,0.95,0.129,1.184-0.811,0.719c-1.11-0.007-1.665-0.011-1.665-0.011
			c-1.365,3.036-2.709,3.859-4.032,2.47c-2.589,1.93-4.968,2.794-7.137,2.593c-3.997,1.478-6.478,3.519-7.441,6.121
			c0.887,0.054,0.865,0.344,0.045,0.843c0.447,0.169,0.866,0.369,1.186,0.672c0.656,0.623,4.219,15.137,4.573,17.288
			c0.839,0.031,0.812,0.277,0.018,0.714C9.594,64.152,11.109,68.628,13,73c-0.205,2.285,0.152,4.512,1.071,6.682
			c0.708,0.237,0.676,0.559-0.013,0.955C15.453,82.999,14.663,86.36,14,89c1.149,0.686,1.803,2.413,1.963,5.178
			c1.952-0.34,2.917,0.983,2.892,3.969c0.898,0.044,0.878,0.308,0.034,0.769c2.253-0.253,2.825,0.034,1.861,2.21
			c0.619,0.285,0.567,0.605-0.073,0.955c-0.652,1.326-0.418,2.883,0.702,4.672L20,109c2.083-0.8,2.416,0.533,1,4l1.43,0.256
			c0.309,3.302,0.818,6.583,1.526,9.841c0.23-0.872,0.529-0.837,0.892,0.037l1.927,1.693c0.298,2.473,0.734,4.894,1.31,7.262
			c-1.299,1.216-0.599,1.783,0.802,2.25c0.882-0.035,0.887,0.231,0.108,0.766c-0.186,3.059-0.308,6,1.005,8.895v1
			c1.958,0.957,3.137,5.131,2,7c0.638,0.295,0.625,0.63,0,1c1.942,1.445,3.921,3.443,1,5l1.961,0.865
			c-0.836,1.038-1.156,2.083-0.961,3.135c2.645,0.162,4.717,6.977,3.89,9.218c0.087,2.684,2.521,2.477,6.27,1.772
			c0.711-2.189,2.052-2.353,3.635-0.782c-0.561-3.128,3.151-3.106,3.945-0.362c0.562-1.585,1.234-2.258,2.018-2.018
			c1.622,0.033,3.171,1.006,4.241,2.241l0.269-1.096c3.565,0.407,6.037-0.148,7.414-1.667c1.109,2.039,3.238,1.43,4.482-0.297
			c-1.766-0.871-1.345-1.799,0.654-2.008c-0.508-1.521-0.199-1.973,1.181-1c1.548,1.963,3.294,2.524,5.238,1.683
			c1.511-1.351,3.085-1.892,4.722-1.622c0.669,2.099,0.762,2.231,0.279,0.396c0,0,5.467-0.786,16.4-2.358l1.602,1.043l1.928-1.475
			c3.848,0.567,6.289-2.092,7.325-7.977c-3.017-1.856-4.746-6.52-0.494-4.69c2.67-0.587,4.467-2.703,5.391-6.348
			c0.188-1.49,0.824-2.695,1.911-3.615c1.159-3.571,2.536-7.16,4.132-10.766c-2.961-0.952-4.5-2.395-4.618-4.328
			c-2.694,1.02-3.679-0.802-1.696-2.842l1.746-1.399c2.272,1.327,4.536,1.691,6.791,1.094c1.36-0.925,2.132,1.046,1.574,1.799
			c-1.274,1.718,0.35-4.764,1.188-5.477c-0.865-2.803-1.004-5.175-0.418-7.117c0.346-1.678,1.733-2.254,4.163-1.73l5.772-13.563
			L138,94c-1.234-1.393-0.699-1.929,1-1c-1.634-3.094-0.352-5.98,2.024-8.178l-0.996-1.938c2.741-3.983,4.732-8.277,5.972-12.883
			c-0.008-0.814,0.992-1.147,3-1c-2.462-1.496-1.636-2.057,1-2c-2.401-1.249-1.174-3.238,1-4c-0.989-2.229-0.17-2.539,2-2
			c-1.236-0.364-1.047-1.054,0.291-1.197c0.174-0.831,0.445-0.778,0.803,0.06l-45.482,107.374L44,177h-8L0,42v-6L65,0H68z
			 M129.491,112.991c-0.643-0.3-1.313-0.112-1.588,1.038c-0.173,0.725-0.592,1.743-0.064,2.33c0.294,0.327,0.703,0.896,1.08,0.194
			C129.757,114.992,130.48,113.453,129.491,112.991z"/>
		<path style="fill:#ECECEC;" d="M154.811,47.743c1.207,0.39,2.004,1.445,2.391,3.163c-0.191,0.683-0.046,1.448-0.202,2.142
			c0.75,2.859-2.004,4.689-2.906,6.816l-0.803-0.06c-1.71-0.533-1.124-3.737-0.118-4.961c0.831-0.926,1.054-1.935,0.669-3.029
			c-2.373-0.975-2.589-1.909-0.843-3.814C153.226,46.015,154.041,45.898,154.811,47.743z"/>
		<path style="fill:#E9E9E9;" d="M45,19c0.619-0.527,1.529-0.693,2.236-1.052c2.603-2.558,6.199,0.734,4.63,3.84
			C50.612,22.683,50.323,24.087,51,26c0.312-0.399,0.646-0.387,1,0l2.018,1.076c-0.444,3.4,0.176,6.364,1.862,8.891
			c0.96,1.216,1.367,2.72,1.223,4.514c0.127,1.694,1.153,2.897,3.078,3.608C62.66,44.073,63.29,46.005,62,48
			c-0.722,2.094-1.879,1.792-3.43,0.612l4.061,14.183c0,0,2.174,1.004,6.522,3.011L70.81,57.5L73,57c0.284-0.873,0.618-0.86,1,0
			l2.04,1.194C75.46,59.867,75.113,61.136,75,62c0.873,0.284,0.86,0.618,0,1c-2.509,3.704-1.58,7.32,2.787,10.85L80,73
			c0.284-0.873,0.618-0.86,1,0c1.164,0.776,1.423,0.68,0.802-0.431c4.173-1.263,7.852-2.201,11.038-2.813
			c0.087-1.114,0.367-1.136,0.835-0.097C95.225,69.336,97,69.116,99,69l0.414-1.311c1.757-0.445,3.285-1.008,4.586-1.689
			c0.319-2.656,1.239-2.541,2,0c0.294-0.287,0.598-0.558,0.939-0.77c0.517-0.323,9.396-3.152,11.061-2.23
			c1.154-1.787,3.474-2.777,6.96-2.969c-0.526-2.96-2.209-5.555-5.049-7.787l-1.729-1.407c0.561-3.701-0.833-6.647-4.182-8.837
			c-0.574-3.629-2.229-7.235-4.963-10.818L110,29c-1.286,0.264-0.786-1.495,0.165-2.071c0.831-1.262,3.053,0.353,3.892,1.515
			c0.15,0.208-4.192-1.966-2.134-3.542c1.1-2.144,3.235-2.157,6.404-0.038c1.99-0.7,3.547-0.654,4.672,0.137h1
			c2.534-0.68,2.734,0.048,1,2l-1.157,1.98c-4.889,0.259-6.17,4.599-3.843,13.02c1.316,0.406,2.541,1.381,3.676,2.926L131,46
			c2.801,0.163,2.643,1.574,0,2.32c-0.49,1.776-1.944,2.32-4.363,1.632c0.842,4.466,3.915,4.064,5.363,0.048
			c2.601-1.332,2.63-6.446,2-10c-1.697-1.405-1.712-3.271-0.045-5.597C132.603,35.656,131.74,36.39,130,35
			c-4.955,1.521-1.403-3.244,1-5c1.238-1.601,3.522-1.621,6.85-0.06c0.891,0.724,1.412,1.339,2.16,2.165l-0.949,5.557
			c-0.886,4.146-0.24,7.259,1.938,9.338c0.873,0.284,0.86,0.618,0,1c-0.011,1.752-1.401,3.176-4.172,4.27
			c-0.604,2.123-1.569,3.425-2.893,3.908c-3.52,1.566-4.016,2.673-1.49,3.321c1.723,1.293,3.242,1.46,4.556,0.501
			c-1.373-3.383,2.73-3.769,2,0c2.235,2.728,5.526,4.343,9.876,4.844L150,67l-1,2c-4.275-0.214-8.609-1.214-13-3
			c-2.143-0.58-4.387-1.093-6.73-1.537c-11.22,1.748-14.176,4.393-8.87,7.935L120,74c-1.153,2.859-4.386,2.055-5-1
			c-1.417-0.041-2.292-1.21-2.626-3.506c-4.192,1.867-7.65,2.035-10.374,0.506c0.856,1.518,0.572,1.953-1,1l-1.963,2.314
			l-19.688,5.628C79.964,80.325,79.45,81.137,78,82l1.43,2.003c-1.288,5.321,0.13,10.689,4.253,16.105L82,102
			c-2.181,2.324-5.939-3.455-5-6c-0.682-0.214-0.643-0.554,0-1c-2.428,0.606-4.843,1.797-7.245,3.573l-4.413,0.329
			C66.15,99.776,65.703,100.475,64,101c0.171,2.904-3.726,5.49-5,2.157c-1.247,1.716-2.247,1.997-3,0.843l-0.272,2.287
			c-3.912,1.718-7.879,3.24-11.901,4.567c0.834,0.349,0.757,0.649-0.157,0.903c-0.27,1.311-1.284,2.068-3.042,2.27
			c0.465,1.871,0.254,3.518-0.632,4.94C42.586,119.2,43.449,119.632,42,122l4,3c1.952-0.209,1.987,0.628,0.079,1.31
			c0.243,3.805,1.164,7.026,2.762,9.661c1.15,1.123,1.191,3.143,1.159,4.68c0.261,1.545,0.101,2.987-0.937,4.207
			c1.61,1.381,1.589,2.095-0.063,2.142c3.24,0.667,2.092,3.711,1,6c1.405-1.325,1.92-0.767,1,1c1.461,0.216,2.465,1.794,3.011,4.733
			c2.876-0.052,4.539,0.749,4.989,2.402c0.386,3.468-0.468,5.537-2.564,6.208l-1.343-0.152c0.53,1.613,0.086,2.491-1.334,2.635
			c-0.447,0.836-1.091,1.678-2.018,2.018c-1.851-1.603-2.726-4.466-2.627-8.59c-1.377-3.492-1.748-6.577-1.113-9.255
			c-1.588-1.971-3.165-6.188-0.903-8c-1.507-1.01-2.206-1.591-0.239-2.126l-1.004-0.033c-1.55-3.299-2.637-7.017-3.261-11.155
			c-3.714-9.361-6.496-6.826-8.759,0.852l-1.228,1.408C34.033,140.419,33.164,143.77,30,145c-0.025-0.331,0.045-0.671,0-1
			c-1.3-2.737-1.529-5.936-1.005-8.895c-0.143-0.164-0.046-0.546-0.108-0.766c-1.806,0.199-2.039-0.857-0.802-2.25l0.312-2.034
			c9.871-9.651,9.824-16.566-0.139-20.743c-1.576,3.346-2.024,7.455-1.344,12.326l-2.065,1.497l-0.892-0.037
			c-0.783-1.738-1.843-11.968-1.268-12.542c0.153-0.153,0.898,3.841-1.688,2.445l-1-4c0.103-1.44,1.086-2.363,2.948-2.77
			c-2.118-0.865-3.216-1.831-2.271-4.149l0.073-0.955l1.929-1.301c3,1.611,5.774,3.336,8.32,5.175
			c1.095,0.25,1.437,2.025,1.092,1.752c-2.883-2.286,4.287,0.756,5.747,2.223c0.8-0.455,1.557-1.456,2.271-3.004
			c0.972-1.777,2.205-3.634,3.7-5.57c-0.722-2.207-1.658-4.341-2.81-6.4c-2.719-0.118-3.503-1.756-2-4c1.489-2.112,4.245-5.634,7-5
			c2.688,0.204,2.903,1.259,1,3c0.16,1.398-0.67,2.569-2.489,3.512C46.912,93.296,50.408,93.459,55,92
			c0.133-0.451,0.296-0.878,0.567-1.22C56.232,89.943,65.279,89.396,67,90c2.069,0.482,2.065,1.623,0.967,3.257
			C72.716,92.193,74.727,90.107,74,87l-0.856-2.012c4.893-10.636-9.981-19.823-18.913-15.985C50.357,66.874,44.871,67.46,41,69
			c-1.762,1.332-3.762,2.332-6,3c-0.284,0.873-0.618,0.86-1,0c-5.949,3.652-8.924,5.478-8.924,5.478l-2.063-0.504
			C22.779,77.697,22.441,78.372,22,79c-1.598,1.311-2.397,1.966-2.397,1.966l-1.702,12.132l-1.937,1.08
			C15.278,92.462,13.995,91.009,14,89l1.136-7.517c1.644,0.517,0.129,0.478-1.079-0.846l0.013-0.955
			c-1.029-2.318-0.089-3.344,2.294-3.459C18.677,74.391,21.222,73.316,24,73c0.268-0.741,0.603-0.721,1,0c-0.37-2.6,3.89-3.623,6-4
			c2.523-1.831,5.261-3.537,8.212-5.118L39,61.399l-1.61-1.291C37.099,57.958,35.969,55.922,34,54c-0.87-0.742-0.87-1.742,0-3
			c-0.405-0.132-0.76-0.297-0.939-0.575c-1.324-2.051-6.549-10.201-7.049-11.693c-0.383-1.144-0.356-2.426-0.072-3.598
			c-1.251,1.402-1.424,0.709-1.178-1.134c-1.257,0.266-4.946-0.991-5.589-1.897c-1.039-1.465,1.311-4.022,2.826-3.868
			c0.322,0.033,0.619,0.306,0.909,0.647c0.108-0.264,0.794-0.287,0.811-0.719l2.62-0.221c0,0,2.22,4.019,6.66,12.058
			c0.973,0.725,1.507,1.823,1.603,3.293L37,38c-2.656-0.319-2.541-1.239,0-2c1.475-2.136,4.02-1.398,5,0.869
			c2.945-0.255,3.571,2.791,1,4.131c-1.504,1.402-1.504,1.402,0,0c1.325-1.661,3.726-1.716,7.203-0.164
			c-0.358-2.451-1.428-4.47-3.209-6.057c-0.336-0.744-0.572-1.64-0.088-2.193c1.021-1.168,1.464-2.178-0.115-3.587l-1.068-1.055
			c0.687-3.775-0.229-5.109-2.747-4.002c-2.316,2.523-4.64,5.109-6.971,7.759L34,32c-2.595,1.417-3.484,0.525-2-2l-0.737-2.048
			l6.681-6.236C36.922,20.337,36.941,19.099,38,18C39.844,16.894,42.177,17.227,45,19z"/>
		<path style="fill:#737373;" d="M138,68c1.396-2.052,6.36,0.275,8,2c0.574,0.56,1.648,1.045,1.814,1.688
			c0.219,0.85-5.452,11.99-6.79,13.133c-0.267,2.361-1.338,3.496-3.024,1.383c-2.317,2.2-4.42,1.519-6.311-2.042L124,77
			c-2.786,0.835-3.252-0.136-1-2c-2.027-3.004,3.572-6.824,6-4C132.245,68.205,135.245,67.205,138,68z"/>
		<path style="fill:#7D7D7D;" d="M22,79c0.419-0.358,0.824-0.624,1.183-0.572C25.318,78.737,31.542,80.123,31,82
			c2.726,0.099,3.112,1.289,1,3c1.368,1.641,2.084,2.887,0,4c1.875,2.098,1.022,4.541-2,4c0.27,2.71-0.44,3.598-2.13,2.664
			l-9.015,2.483c-2.492,0.025-2.241-2.339-2.892-3.969c-0.385-1.832,1.122-13.614,2.066-14.486C19.018,78.779,20.685,78.426,22,79z"
			/>
		<path style="fill:#747474;" d="M136,89l2,5c-1.867,5.683-4.338,11.258-7.094,17.11c-0.928,1.971-4.503,0.845-5.906,0.89
			c-1.825,1.588-4.436,0.662-4-2c-1.441,2.233-1.747,2.621-3,0c-1.702-0.393-2.522-0.755-1-2c-1.632-2.326-0.441-3.357,2-2l3-4
			c-1.446-1.309-0.799-1.928,1-1l4-5c-1.488-1.316-0.834-1.958,1-1l3-4c-1.205-1.45-0.652-1.99,1-1
			C133.389,86.741,135.059,85.261,136,89z"/>
		<path style="fill:#949494;" d="M28.085,132.089c-3.55-1.656-3.434-5.368-3.237-8.955c0.53-9.641-1.506-13.947,3.001-15.714
			c1.467-0.575,14.242,6.316,9.282,13.679l-6.058,8.992C30.353,131.159,29.132,132.232,28.085,132.089z"/>
		<path style="fill:#7C7C7C;" d="M97,154l2,7c3.04-0.175,4.474,3.11,1.241,4.142c2.494,0.994-25.581,6.441-18.281,0.919L84,161l2-5
			c-1.996-1.659-1.57-2.024,1-2c-0.776-0.992-0.109-1.658,2-2C92.955,149.884,97.108,148.578,97,154z"/>
		<path style="fill:#808080;" d="M87,154c-0.384,0.434-0.4,1.558-1,2l-2,5l-2.039,5.061c-1.953,3.07-5.395,5.005-9.701,3.49
			c-0.774-0.435-0.308-2.685-0.26-3.551c-1.168-1.844-2.314-11.459-1.777-13.601c0.342-1.367,1.27-1.228,2.068,0.143l15.262,0.217
			L87,154z"/>
		<path style="fill:#8E8E8E;" d="M105.097,147.003c2.323-1.332,5.547,1.666,3.903,3.997c-3.358-0.231,2.668,3.033,2.626,4.493
			c-0.016,0.571-2.634,8.578-4.901,9.726c-2.013,1.019-4.687,0.671-6.484-0.077c0.364-1.494-1.117-2.843-1.241-4.142l-2-7
			c-1.769-3.016-1.436-4.289,1-3.816C97.972,146.908,103.136,143.807,105.097,147.003z"/>
		<path style="fill:#4D4D4D;" d="M51.74,171.845c-1.173,0.43-2.842-0.203-3.945,0.362C45.711,172.739,44.528,171.93,46,170
			l-3.898-5.102c-2.531,1.622-3.796-0.066-3.102-2.898c-2.966-2.251-2.632-3.585,1-4c-1.345-1.459-0.764-2.022,1-1l4.007-1.573
			c-0.58-1.637,0.418-2.113,2.993-1.427C49.758,153.338,52.952,171.087,51.74,171.845z"/>
		<path style="fill:#858585;" d="M118,110c1.273,0.333,1.94,1.999,2,5c3.633-1.796,5.635,5.79,2.656,7.795
			c-1.014,0.94,0.025,2.299-0.907,3.92c-2.449-1.894-5.295-2.445-7.629-3.615l-6.825-3.916c0.513-2.431,1.414-4.159,2.705-5.184
			l4-3.268c-0.348-0.9,0.02-1.111,1-0.732C115.149,107.634,116.716,108.356,118,110z"/>
		<path style="fill:#E9E9E9;" d="M49,126c2.025-1.606,2.432-1.814,2,1c2.61,0.178,3.944-0.155,4-1c0.319-2.656,1.239-2.541,2,0
			c2.61,1.984,3.466,2.175,7,1l1.954,1.185c-0.417,2.227,0.932,2.499,4.046,0.815c-1.06-1.817-0.459-2.314,1.155-0.984
			c0.88-0.072,0.888,0.589,0.024,1.984c2.45,0.084,2.946,0.741,1.822,3c0.873,0.284,0.86,0.618,0,1
			c-1.554,4.923-1.538,10.247,0.051,15.972l14.549,0.025L89,152c-0.725,0.544-1.169,1.538-2,2
			c2.065-1.711-14.483-0.896-15.939-0.831C70.244,156.885,72.174,162.883,72,166l-1.181,1c-3.234,1.176-4.072-3.036-0.819-4
			c-0.834-0.334-0.834-0.667,0-1l-2.063-1.49C67.381,154.185,67.735,148.016,69,142c-0.848,0.402-1.149,0.023-1-1
			c-2.077,0.134-2.411-0.533-1-2l-0.83-3.585l-15.32-5.031L49,131c-0.284,0.873-0.618,0.86-1,0c-1.897,0.085-2.07-2.947-0.866-4
			C46.099,124.429,47.318,123.728,49,126z"/>
		<path style="fill:#6F6F6F;" d="M33.835,133.538c2.772-1.656,8.575,5.737,5.165,7.462c2.395,2.186,2.728,3.519,1,4
			c0.351,1.949-0.983,3.365-4,4.247c1.321,1.446,0.664,1.928-1,0.753l-3,2c-1.62-1.24-3.041-4.916-2-7
			C33.271,138.453,27.28,130.861,33.835,133.538z"/>
		<path style="fill:#828282;" d="M116.302,141.037c-1.211,2.179-2.558,1.701-3.302-0.646c-0.527-0.401-0.941-0.809-0.963-1.235
			c-0.063-1.251,0.231-9.408,0.394-10.165c0.091-0.423,0.749-0.724,1.569-0.99c-1.902-2.488-0.867-3.681,1.816-2.058
			c2.311,0.904,4.636,1.748,7.184,3.321C121.615,132.213,119.131,141.73,116.302,141.037z"/>
		<path style="fill:#656565;" d="M116.302,141.037c2.208,2.575-2.458,7.74-3.631,13.104c-1.067-1.504-2.579-2.084-3.671-3.141
			c-1.336-1.293-2.879-2.428-3.903-3.997c-2.348-1.765-1.867-2.886,0.903-2.003l5.917-5.457l1.083,0.848
			C113.991,140.447,115.651,140.224,116.302,141.037z"/>
		<path style="fill:#848484;" d="M151,63c0.657,1.075-0.532,3.064-1,4c-3.908-0.315-7.593-2.132-11.811-3.472
			c-0.871-0.351,0.295-3.019,0.811-3.528c-1.187-2.708,2.181-4.172,4-2l6.163-3.044c0.35,0.098,2.532,6.329,2.585,6.689
			C151.807,62.051,151.462,62.517,151,63z"/>
		<path style="fill:#535353;" d="M39,162c1.15,0.836,2.028,2.037,3.102,2.898L46,170l1.795,2.207
			c-1.142,0.585-2.237,1.24-3.635,0.782c-2.246,1.029-6.276,1.364-6.27-1.772c-2.808-2.383-3.222-5.816-3.89-9.218
			C32.473,157.501,38.198,158.214,39,162z"/>
		<path style="fill:#676767;" d="M33,99.367c0.804-0.582,1.133-0.364,1,0.633c2.777,1.027,3.068,2.027,0.874,3
			c0.709,2.889-1.511,3.78-3.874,2c-3.997,1.524-3.829-1.001-10.249-3.874c-0.909-0.407-1.447-1.351-1.861-2.21
			c3.094-1.497,6.391-2.744,9.89-3.739L33,99.367z"/>
		<path style="fill:#505050;" d="M41,157c-0.395,0.265-0.684,0.656-1,1c-1.951,1.786-5.751,2.155-7,0c0.261-1.566-2.696-3.504-1-5
			c0.596-1.335,1.72-2.327,3-3l1-0.753c1.907-2.939,3.836-2.561,5.788,1.133C46.795,153.751,46.533,155.958,41,157z"/>
		<path style="fill:#646464;" d="M114.12,123.1l1.696,2.842c-0.954,0.154-1.612,1.145-1.816,2.058c-0.618,1.557-2.285,0.891-5-2
			c-2.796,1.351-7.459-1.637-7-4.803c-1.611-1.975-3.202-2.664-4.772-2.065c-0.129-1.923,0.133-3.316,0.788-4.179
			c2.421-0.085,5.01,1.004,7.767,3.266c1.755-0.743,2.502-0.186,2.241,1.671L114.12,123.1z"/>
		<path style="fill:#797979;" d="M125,112c2.49,4.177,4.611,7.599-1.566,14.02c-0.585-1.332-0.523-2.333-0.778-3.225
			c-0.772-2.705-0.487-5.818-2.656-7.795c-0.701-2.037-1.486-4.872,1-5C122.286,110.597,124.182,110.627,125,112z"/>
		<path style="fill:#ECECEC;" d="M149.045,39.942c-0.124,1.004-0.805,1.69-2.045,2.058c1.932,0.435,2.266,1.101,1,2
			c1.946-0.117,2.279,0.883,1,3c2.264,1.558,3.333,2.303,0.861,4.26c1.951,2.717,2.998,5.964,3.139,9.74
			c-0.235,0.967-1.055,1.667-2,2c-1.191-1.95-1.366-4.085-2.435-6.82L143,58c-1.198-1.48-0.148-2.971,3.152-4.475l-0.867-3.887
			C143.08,50.203,141.652,49.657,141,48v-1c-0.162-1.525,0.936-2.471,3.293-2.837c-1.718-3.335-2.086-6.099-1.104-8.294
			C144.205,33.314,148.493,39.029,149.045,39.942z"/>
		<path style="fill:#CECECE;" d="M70,162c0.039,0.321,0.026,0.677,0,1c-2.258,2.368-3.801,4.296,0.165,6.008
			c0.271,0.623,0.994,1.184,0.761,1.595c0.005-0.009-11.266,1.646-12.926,1.466c-2.66-0.331-2.537-1.282,0-2.068
			c-0.673-1.852-0.086-2.633,1.798-2.452c4.517,2.409,4.924-5.463,0.611-4.376L59,161.136c-1.056-2.576,1.445-4.161,4-4.136
			c1.564-0.01,2.097,0.534,1.991,1.88C68.302,158.639,69.972,159.679,70,162z"/>
		<path style="fill:#898989;" d="M20.677,102.081c1.225,1.694,3.401,2.387,6.338,3.958c-1.759,1.906-4.553,2.936-7.015,2.961
			c-0.605-2.421-2.075-4.46-1.991-7.945L20.677,102.081z"/>
		<path style="fill:#808080;" d="M149,69c-0.625,1.25-1.887,0.933-3,1c-2.808,0.169-5.375-1.447-8-2c-2.713-0.255-3.38-0.922-2-2
			C138.177,63.939,145.712,68.082,149,69z"/>
		<path style="fill:#585858;" d="M70,163c-0.114,1.395-0.113,2.877,0.819,4c-0.135,0.694-0.338,1.374-0.654,2.008
			c-0.843,0.509-1.935,0.944-2.741,1.043c-2.597,0.319-1.425-6.656-0.867-6.957C67.482,162.597,69.004,163.156,70,163z"/>
		<path style="fill:#939393;" d="M152.953,51.871c2.047,0.229,2.081,2.3,0.22,2.971c1.392,1.445,0.547,3.198,0.118,4.961L153,61
			c-2.688-0.088-1.718-3.148-2.321-5.159c-0.524-1.751-1.974-3.113-0.818-4.581C151.37,49.38,152.019,49.67,152.953,51.871z"/>
		<path style="fill:#868686;" d="M23.955,123.097C21.833,120.2,21.839,116.354,21,113c1.154-0.681,0.157-2.796,2.625-3.417
			C24.456,114.344,23.82,118.693,23.955,123.097z"/>
		<path style="fill:#797979;" d="M139,93c-1.403,0.019-2.403-1.314-3-4c-2.469-2.002-1.802-2.934,2-2.795
			c1.003-0.46,2.151-0.639,3.024-1.383C142.092,87.705,139.403,90.12,139,93z"/>
		<path style="fill:#585858;" d="M56.436,167.344c2.531-0.555,3.038,0.519,1.564,2.656v2.068c-0.963-0.104-2.427,1.43-3.292,0.589
			c-0.778-0.757-0.934-2.009-0.95-2.83c-0.029-1.507-0.415-3.935,1.086-5.02C56.061,164.693,56.352,166.716,56.436,167.344z"/>
		<path style="fill:#CDCDCD;" d="M33,99.367c-1.887,0.255-3.171-3.468-4.759-3.03l-9.351,2.578
			c-0.104-0.215,0.026-0.534-0.034-0.769C20.904,95.797,26.851,96.927,30,93C32.208,94.013,35.371,97.245,33,99.367z"/>
		<path style="fill:#4A4A4A;" d="M37.89,171.218l6.27,1.772c-1.503,1.959-5.042,3.207-7.065,1.169
			c-0.664-0.669-0.379-1.853-0.481-2.385C36.488,171.127,37.298,171.236,37.89,171.218z"/>
		<path style="fill:#B1B1B1;" d="M40,158c-0.477,0.52-1.454,0.94-1.53,1.558c-0.118,0.957,0.404,1.708,0.53,2.442l-2.302-1.673
			c-0.875-0.636-2.239-0.542-2.657,0.132c-0.223,0.36,0.023,1.083-0.041,1.541c-0.262-1.335-1.287-2.281-1-4
			C35.326,158.512,37.674,158.512,40,158z"/>
		<path style="fill:#5F5F5F;" d="M30,144c-2.373-2.487-3.802-6.331-1.005-8.895C31.105,137.531,29.586,141.001,30,144z"/>
		<path style="fill:#D2D2D2;" d="M139,93l-1,1c-1.661-1.049-2.164-3.119-2-5C137.966,89.791,137.247,92.451,139,93z"/>
		<path style="fill:#818181;" d="M28.085,132.089c0.349,0.719,0.587,1.482,0.802,2.25c-0.647,0.338-1.048,0.719-1.544,0.667
			c-0.992-0.105-1.168-1.15-1.256-1.673C25.871,132.044,26.963,131.935,28.085,132.089z"/>
		<path style="fill:#808080;" d="M129.491,112.991c0.989,0.462,0.266,2.001-0.573,3.563c-0.377,0.702-0.785,0.133-1.08-0.194
			c-0.527-0.587-0.108-1.605,0.064-2.33C128.178,112.879,128.848,112.69,129.491,112.991z"/>
		<path style="fill:#C2C2C2;" d="M35,150c-0.631,1.32-1.646,2.421-3,3v-1C32.341,150.628,33.646,149.956,35,150z"/>
		<path style="fill:#DFDFDF;" d="M77,5.14l1.425,1.895c-4.303,6.611,7.609,6.688,3.787,2.267L83,7.22l4,0.937
			c1.705,2.111,0.763,5.455-1.089,7.184c0.616,2.014-0.324,2.328-1.763,0.704c-1.049,0.796-3.324,1.558-3.113,0.695
			c0.339-1.388,1.757-1.145,3.113-0.695C87.378,16.662,85.38,21.133,83,22c-0.07,0.839-0.325,1.733-1.058,2.037
			c-7.99,3.311-4.366,8.074,3.005,4.003L87,29c2.523-1.362,3.359-0.536,2,2l-0.891,2.939C87.204,33.261,87.501,32.281,89,31
			l0.945-1.965c1.772-0.3,3.457-0.978,5.055-2.035c1.739-2.208,3.739-3.874,6-5c0.695-1.618,2.529-2.132,4-1
			c-0.072,0.298,0.135,0.734,0,1c2.074,3.784-4.628,7.566-8,8c0.332,0.698,0.752,1.663,0.339,2.161
			C96.66,32.98,86.662,39.384,85.3,39.93l-2.28-0.909c-1.594-1.27-1.594-1.27,0,0c1.977,0.352,1.826,1.365-0.112,2.052
			c-2.733,4.904-4.877,10.193-6.433,15.868L74,57h-1l-1.456-2.228c4.508-10.08,2.341-12.753-4.406-4.052
			C68.524,53.896,68.145,55.656,66,56c-3.385,1.328-5.193-5.261-4-8c1.905-2.378,4.57-5.221,7-7l2.346-0.775
			C75.406,42.551,74.624,40.142,69,33c-1.974-2.966-3.714-6.674-5-10c-2.473-2.321-2.473-2.321,0,0c1.559,2.588,0.431,3.595-2,2
			c-2.029,3.732,1.157,7.488,4,9.903c0.874,0.315,0.86,0.681,0,1.097c-0.085,2.278-0.817,2.824-3,2
			c-1.675-0.115-3.647-0.122-5.917-0.02l-1.203-2.013c-1.743-2.082-2.365-5.03-1.864-8.842L52,26h-1c-1.726-2.174-0.821-4.101,2-3
			c-0.446-2.203-0.012-4.683,1.3-7.442c0.006-2.98,0.667-5.396,1.983-7.248c0.431-0.323,0.718-0.779,1.018-1.215
			c1.769-0.79,3.255,0.147,4.457,2.811L63.961,10l1.366,0.397c0.128,2.485,2.146,3.346,6.053,2.583C71.923,10.384,72.463,7.724,73,5
			C73.616,3.876,74.949,3.923,77,5.14z"/>
		<path style="fill:#454545;" d="M22.908,28.882c-0.445,1.089-1.812,0.313-3.184,1.572c2.065,0.963,4.643,1.16,5.037,3.546
			c-0.187,2.84-0.843,5.772-1.967,8.798c1.053,0.799,0.269,1.914-2.351,3.345C20.519,48.938,19.038,49.224,16,47
			c0.421,0.255-3.813,0.046-4.671-2.365L7,41c-1.405,1.325-1.92,0.767-1-1c-0.454-0.928,0.213-2.261,2-4
			c-0.728-1.104,0.913-1.683,2.073-2.066c2.05-1.886,4.383-4.467,7.568-4.484c1.967,1.454,3.689,0.129,0.492-0.936
			c0.432-0.544,1.917-1.369,3.191-1.451C22.014,27.019,22.809,27.951,22.908,28.882z"/>
		<path style="fill:#686868;" d="M6,40l1,1l6.33,5.704c-0.654,0.928-0.982,2.026-0.986,3.296c2.478,1.63,1.528,3.687-1.333,2.9
			c-0.22,0.515-0.419,1.065-0.449,1.636c-0.047,0.909-0.343,4.037-0.558,4.195c-0.36,0.264-0.934,0.237-1.568,0.127
			c-2.195-0.272-2.602-2.82-3.067-5.06c-0.948-4.56-3.995-8.759-2.691-12.9C3.609,39.735,5.126,38.66,6,40z"/>
		<path style="fill:#7E7E7E;" d="M140.01,32.105c1.112,1.228,2.37,2.233,3.178,3.764c1.516,2.87,2.752,5.802,3.386,9.491
			c-1.458,1.207-3.955,1.393-5.575,1.64c-0.915,0.14-2.587,1.789-3.848,0.844C137.044,45.341,135.927,30.333,140.01,32.105z"/>
		<path style="fill:#838383;" d="M27.803,24.139C30.583,23.357,33.428,27.613,32,30c0.718,0.689,1.084,1.433,2,2
			c3-1.478,4.936,1.538,3,4v2c0.68,2.98-1.924,4.374-4,2c-4.705,0.246-5.308-8.836-9.281-11.837
			c-0.408-1.286-0.557-2.837,0.601-3.401C25.527,24.172,26.661,24.08,27.803,24.139z"/>
		<path style="fill:#888888;" d="M71,4.325C71.586,3.252,72.946,3.755,73,5c3.08,1.531,0.237,3.454,1.019,9.977L62.93,14.99
			c0.655-1.995,1.241-3.39,1.03-4.99c0.644-2.367,1.386-4.633,2.226-6.798C67.738,3.773,69.395,4.003,71,4.325z"/>
		<path style="fill:#828282;" d="M56.283,8.31C58.448,8.942,55.001,23.843,53,23c-1.864,1.895-2.465,1.095-1.134-1.213
			c-1.376-1.471-2.576-3.384-4.63-3.84c-0.167-1.765-1.091-3.474-0.959-5.562C55.303,10.759,50.451,8.95,56.283,8.31z"/>
		<path style="fill:#3D3D3D;" d="M106.866,22.276c2.379,0.407,4.334,2.931,2.058,4.724c1.147,3.083-4.305,7.525-6.924,8
			c-2.648,2.322-7.322-2.353-5-5c2.121-4.194,5.869-3.798,8-8L106.866,22.276z"/>
		<path style="fill:#949494;" d="M38,18c0.229,1.493,1.927,1.644,3.255,3.361L32,30c-1.757-1.686-2.935-3.771-4.197-5.861
			C29.737,20.305,34.442,19.66,38,18z"/>
		<path style="fill:#767676;" d="M123,25c-5.903,4.733-7.525-1.055-11.077-0.098c-1.948,0.179-1.937-0.628,0.003-1.235
			c-1.934-2.374,3.052-8.085,5.811-6.677c1.42-0.248,4.333-0.844,5.044,1.139C123.656,20.567,122.736,22.969,123,25z"/>
		<path style="fill:#454545;" d="M15,72c0.453,0.884,0.075,1.185-1,1c-0.284,0.873-0.618,0.86-1,0c-0.981,0-2.315,0.287-2.799-0.666
			c0.059,0.116-4.905-13.052-1.747-12.762c1.099-1.818,1.734-2.342,1.625-0.268c1.583,0.852,3.219,1.327,4.909,1.427
			c-0.653,3.23-0.31,6.661,1.029,10.293L15,72z"/>
		<path style="fill:#797979;" d="M95.759,9.887c-0.754,2.978-2.139,5.968-4.157,8.97L90,17c-0.856,2.903-4.645,1.054-4.089-1.659
			C84.86,12.933,85.781,10.367,87,8.157C89.966,8.852,93.692,7.194,95.759,9.887z"/>
		<path style="fill:#838383;" d="M83,7.22c1.27,1.105,3.294,4.369,1.371,5.801c-2.51,1.869-6.239,0.573-9.436,0.948
			C75.43,10.514,75.895,7.845,77,5.14C79.07,5.596,80.943,6.739,83,7.22z"/>
		<path style="fill:#909090;" d="M137.85,29.94c-1.491,1.47-4.77,0.885-6.85,0.06c-2.223,2.165-5.572-0.347-6-3
			c-0.15-0.661-0.977-1.333-1-2c0.097-1.716-0.358-3.429,0.324-6.053L137.85,29.94z"/>
		<path style="fill:#9C9C9C;" d="M117.738,16.99l-5.811,6.677c-4.361,2.519-3.561-2.872-2.021-5.816
			c-1.559-2.011-1.186-3.169,1.239-3.924c2.72-1.047,5.541,0.583,9.077,1.13C119.111,16.485,118.524,16.086,117.738,16.99z"/>
		<path style="fill:#C8C8C8;" d="M12.181,56.089c0.996,2.615,3.042,2.334,6.14-0.843L20,57c0.954,1.881,0.287,3.548-2,5
			c-0.849,2.141-0.839,4.494,0.031,7.061C20.656,68.531,22.646,68.844,24,70c2.613-0.084,2.913,1.285,1,3
			c-0.264,0.056-0.753,0.059-1,0c-2.589,1.484-7.497,1.902-9-1c0.023-3.091-0.479-6.342-1.481-9.775
			c-0.545-1.868-3.666-2.121-5.065-2.653c0.046-0.209-0.126-0.541-0.018-0.714c1.205-1.937,0.898-4.416,2.575-5.958
			C13.531,53.072,13.167,54.266,12.181,56.089z"/>
		<path style="fill:#646464;" d="M99,9.892c0.354,3.428,0.682,7.044,0.982,10.848c-0.312,0.191-7.01,0.203-7.314-0.001
			c-1.976-1.321,2.444-9.76,4.464-10.645C97.645,9.584,98.371,9.618,99,9.892z"/>
		<path style="fill:#878787;" d="M63.961,10c-0.929,0.915-1.168,2.242-1.995,3.643l-4.664-6.548C58.797,4.921,61.775,4.349,64,3.089
			C65.94,3.272,65.927,5.575,63.961,10z"/>
		<path style="fill:#DEDEDE;" d="M97.131,10.094c-1.524,2.718-3.222,5.359-4.522,9.303c2.051,1.141,3.996,0.56,6.354,0.516L99,9.892
			c0.295,0.129,0.713-0.038,1,0.108l2.083,1.194L101,20c2.656,0.319,2.541,1.239,0,2c-1.92,1.625-6.746,1.246-9,0
			c-2.491-0.004-2.904-3.138-2-5c3.612,0.878,4.643-7.73,5.759-7.113L97.131,10.094z"/>
		<path style="fill:#686868;" d="M105.213,15c-1.058,1.268-2.128,2.601-3.213,4c1.381,1.479,0.796,2.047-1,1
			c-2.153-2.823-0.542-6.636-1-10c1.576,0.799,3.708,0.465,5.538,1.588C106.597,12.239,105.567,14.3,105.213,15z"/>
		<path style="fill:#6E6E6E;" d="M45,19c-0.478,0.407-0.65,1.143-1.258,1.47C41.323,21.772,40.543,17.128,38,18
			c1.936-0.903,3.495-4.422,6.8-3.825C45.104,15.929,45.001,17.529,45,19z"/>
		<path style="fill:#979797;" d="M111.144,13.927c0.083,1.465-0.429,2.754-1.239,3.924c-0.358,4.179-1.303,5.307-2.835,3.386
			c0.141-2.811-0.186-5.861,0.432-8.601c0.199-0.883,2.041-0.548,2.408-0.095C110.256,12.965,110.723,13.258,111.144,13.927z"/>
		<path style="fill:#565656;" d="M16.365,76.223c0.045,1.527-1.125,2.617-2.294,3.459c-2.131,0.733-2.819-1.454-3.108-3.27
			C10.731,74.96,11.733,73.765,13,73h1C16.679,72.167,19.474,74.114,16.365,76.223z"/>
		<path style="fill:#616161;" d="M10.073,33.934C9.302,34.644,8.918,35.306,8,36c-1.153,2.006-2.938,4.086-5.367,4.055
			C-3.127,38.468,11.449,32.327,10.073,33.934z"/>
		<path style="fill:#808080;" d="M14,89c0.007-2.948-2.383-6.035,0.058-8.362c0.682-0.431,1.82-1.099,2.374-0.661
			C17.95,81.178,14.846,88.476,14,89z"/>
		<path style="fill:#E1E1E1;" d="M111.927,23.667l-0.003,1.235c0.825,1.98,0.273,2.325-1.758,2.028
			c-0.197,0.952-0.622,0.929-1.241,0.071c-0.518-1.657-2.028-2.9-2.058-4.724c-0.006-0.34,0.193-0.697,0.205-1.039
			c1.536-0.542,1.984-2.156,2.835-3.386C109.928,20.035,109.423,22.928,111.927,23.667z"/>
		<path style="fill:#727272;" d="M105,21c-1.442,1.238-2.387,2.035-4,1v-2c0.406-0.253,0.741-0.598,1-1
			c1.054-2.255,2.391-3.206,4.01-2.856C106.144,17.839,106.306,19.759,105,21z"/>
		<path style="fill:#C2C2C2;" d="M152,42c0.837,0.608,1.302,1.309,2,2c0.265,1.146-0.069,2.479-1,4c-0.75,3.509-3.046,1.874-4-1
			c0.23-1.914-0.103-2.914-1-3c-0.246-0.542-1.101-1.194-1-2C147.799,40.597,149.466,40.597,152,42z"/>
		<path style="fill:#7B7B7B;" d="M157.202,50.906c-0.817,0.178-1.74-0.021-2.115-0.711c-0.439-0.808-0.39-1.686-0.276-2.452
			c-1.297-1.658-0.764-2.364,1.189-1.583c0.594,0.791,2.108,0.8,1.76,2.362C157.593,49.269,157.428,50.094,157.202,50.906z"/>
		<path style="fill:#3B3B3B;" d="M156,46.16c-0.491,0.451-0.912,0.974-1.189,1.583c-0.608,0.055-1.212,0.144-1.811,0.257
			c-0.572-0.807-2.446-1.132-1.558-2.009c0.907-0.895,1.681-1.571,2.558-1.991C154.707,44.7,155.393,45.353,156,46.16z"/>
		<path style="fill:#D8D8D8;" d="M66.186,3.202C66.013,5.591,65.736,8.251,63.961,10C63.569,7.026,66.383,2.489,64,3.089
			c0.415-0.235,0.553-1.414,1.269-0.928C65.7,2.453,65.901,3.097,66.186,3.202z"/>
		<path style="fill:#929292;" d="M77,5.14C75.685,4.914,74.326,4.942,73,5c-0.785,0.034-1.327-0.539-2-0.675
			c-0.081-2.067,1.813-1.081,3.08-1.012C75.223,3.377,75.97,4.913,77,5.14z"/>
		<path style="fill:#BABABA;" d="M6,40c-1.132,0.202-2.237,0.523-3.323,0.898c0.08-0.254-0.086-0.577-0.045-0.843L8,36
			C7.908,37.558,6.842,38.741,6,40z"/>
		<path style="fill:#535353;" d="M149.045,39.942c1.026,0.447,2.042,1.395,2.955,2.058h-5c0.087-0.688-0.263-1.605,0.561-1.921
			C148.057,39.888,148.616,39.946,149.045,39.942z"/>
		<path style="fill:#D3D3D3;" d="M106.01,16.144c-1.592,0.58-2.531,2.091-4.01,2.856c0.086-1.933,1.364-3.468,3.213-4
			C105.347,15.392,105.978,15.733,106.01,16.144z"/>
		<path style="fill:#696969;" d="M153,48c0.783,1.103,1.053,2.493,0.843,3.814c-0.136,0.891-0.437,0.888-0.89,0.058
			c-1.093,0.071-2.318,0.307-3.092-0.612c-0.636-1.17-0.671-2.941-0.861-4.26C150.298,47.601,151.544,48.275,153,48z"/>
		<path style="fill:#656565;" d="M153.173,54.843l-0.22-2.971l0.89-0.058c0.428,0.193,1.788,0.147,2.005,0.749
			c0.282,0.783-0.449,1.561-0.721,2.008C154.797,55.11,153.748,55.346,153.173,54.843z"/>
		<path style="fill:#6E6E6E;" d="M120,74c1.49-2.412,2.476-1.145,3,1c-0.129,0.897,0.598,1.372,1,2l10.712,10.24
			c-0.661,0.876-1.565,1.797-2.712,2.76c-0.337,0.275-0.605,0.822-1,1l-3,4c-0.407,0.181-0.619,0.774-1,1l-4,5
			c-0.381,0.226-0.593,0.819-1,1l-3,4l-2,2c-0.977,0.796-1.643,0.129-2-2l-3-7l-2-5l-4.063-9.612
			C103.74,82.683,103.761,81.554,106,81c-0.777-2.431-0.453-2.77,2-2c-0.665-1.144-0.113-1.57,1.655-1.279L114,74
			c-1.227-1.459-0.638-1.978,1-1C116.466,73.525,118.568,73.705,120,74z"/>
		<path style="fill:#747474;" d="M74,87c0.386,2.976-1.324,3.122-3,1l-3.533,0.886C64.787,86.048,61.965,83.42,59,81
			c-1.831,2.394-5.695-1.663-4-4c-3.274-1.331-3.837-2.974-1.688-4.929c-1.854-1.607-1.723-2.74,0.919-3.068
			c0.282-0.721,0.928-2.426,1.819-2.975c5.695-0.309,11.795,1.377,15.585,5.265C76.076,75.847,78.446,82.716,74,87z"/>
		<path style="fill:#555555;" d="M101,71c2.265,1.207,6.598,5.328,7,8c-0.445,0.822-1.08,1.674-2,2l-0.402,2.25
			c0,0-1.533-0.083-4.598-0.25l-11,2c-2.187,2.099-3.52,2.099-4,0c-1.795,2.563-7.904-0.117-8-3c-0.118-1.29-1.649-4.225,0.989-4.95
			C86.565,74.969,93.654,71.871,101,71z"/>
		<path style="fill:#828282;" d="M55,77l4,4c0.712,0.347,1.369,0.79,1.957,1.324c1.646,1.495,5.299,4.872,6.508,6.409
			C67.612,88.918,67.362,89.415,67,90c-1.093,0.539-2.13,2.187-4.006,1.974C60.27,91.666,57.242,92.674,55,92
			c-3.07,1.867-9.533-0.149-8-4c-0.745-0.74-0.809-2.052-1-3l1.672-6.604C47.31,75.27,53.247,73.191,55,77z"/>
		<path style="fill:#606060;" d="M68,141c-1.614,5.229-3.281,10.562-5,16c-0.73,1.824-2.171,3.134-4,4.136
			c-1.821-0.297-4.466,0.482-6.236-0.864c-1.954-1.486-1.518-4.4-1.764-6.272c0.452-1.711,1.274-3.392,2.465-5.044
			c-1.037-0.813-0.192-2.132,2.535-3.956c-1.483-1.381-0.842-2.009,1-1c0.987-1.399,2.653-2.399,5-3l5-2
			C67.806,139.281,67.96,140.212,68,141z"/>
		<path style="fill:#5A5A5A;" d="M82.908,41.073C84.142,39.884,84.73,40.394,84,42c6.322,3.452,4.986,11.475,2,17
			c0.15,2.486-0.85,3.819-3,4c-1.024,2.166-1.21,2.474-2.148,0.409C78.623,63.314,76.673,62.845,75,62c-3.021,0.467-0.545-2.101-1-5
			C77.249,53.538,77.036,40.524,82.908,41.073z"/>
		<path style="fill:#5A5A5A;" d="M86,85c1.903,0.171,2.237,1.504,1,4c1.35,4.858,2.784,9.899,4.303,15.121L89,105
			c0.908,2.745-0.355,3.042-3.789,0.89c-1.179,1.187-2.249-0.11-3.211-3.89c-0.363-5.65-8.359-8.286-4-20
			C80.811,82.602,83.279,84.115,86,85z"/>
		<path style="fill:#494949;" d="M46.858,143.874c-2.28,1.661-6.724,0.051-7.858-2.874c-0.807-2.978-3.398-4.991-5.165-7.462
			c-3.308-4.625,3.075-9.206,3.384-9.181c1.442,0.115,2.208,1.504,3.837,1.303c-0.789-1.115-3.673-1.468-2.915-3.358
			c2.627-0.613,3.971,2.149,3.613,3.975C44.112,126.911,46.601,141.495,46.858,143.874z"/>
		<path style="fill:#949494;" d="M46.118,61.895c-1.828,1.072-3.395-1.197-2.047-2.701c0.435-2.541,1.001-4.977,1.013-8.158
			c3.713-0.045,6.854-0.319,10.489,0.265l3.665,13.187C54.57,64.679,49.276,65.247,46.118,61.895z"/>
		<path style="fill:#686868;" d="M136,66l-0.076,1.292L129,71c-2.307,0.439-4.599,2.405-6,4c-1.051,1.003-2.183-0.832-3-1
			c-0.419-0.979-1.929-1.303-3.154-2.032c-1.334-0.794-1.621-5.41-0.002-5.908C124.339,63.756,132.545,59.222,136,66z"/>
		<path style="fill:#5A5A5A;" d="M72,106c2.229,2.336-3.008,9.935-6,9c0.831,1.255-1.039,2.058-2,1c-2.399,1.884-6.609-2.516-5-5
			c-2.806,0.385-3.674-0.08-1.811-2.037c-0.213-3.069,0.391-5.004,1.811-5.805c1.808,0.282,3.293-2.158,5-2.157
			c0.657-0.56,8.606-1.238,9.072-1.129C74.406,100.183,74.834,105.94,72,106z"/>
		<path style="fill:#969696;" d="M125,27c2.335,0.107,4.147,2.266,6,3c2.922,2.599-4.656,4.682-1,5c1.518,2.707-1.12,4.646-3,2
			c-1.974,0.991-3.137,2.345-3.49,4.062L122,41c1.662,2.512-0.027,3.315-2,1c-5.277-1.995-1.971-12.743-1.418-13.404
			C119.928,26.989,123.282,26.921,125,27z"/>
		<path style="fill:#888888;" d="M46,85c-1.789,2.448-3.854,5.517-7,5c-0.661,3.484-6.315,1.234-4-1.843
			c-1.582,0.078-2.582-0.975-3-3.157c-0.516-0.93-0.826-1.953-1-3c-3.045-1.695-0.887-3.211,0.992-2.575
			c-0.008-1.588,0.338-1.885,1.101-0.668c4.998-0.991,10.073-1.547,15.222-1.668L46,85z"/>
		<path style="fill:#6E6E6E;" d="M73,57c-0.865,3.235-1.265,6.783-3.846,8.805C68.2,63.661,67.552,61.393,67.21,59
			c-2.382-0.081-2.658-1.136-1.21-3c0.623-1.802-1.24-3.864-0.764-6.009c0.462-2.085,6.231-8.72,11.773-5.36
			C75.324,49.402,74.054,53.06,73,57z"/>
		<path style="fill:#888888;" d="M62,48c2.271,2.213,1.959,5.696,4,8c0.895,1.011,1.342,1.503,1.21,3l1.944,6.805
			c-2.025,1.586-7.263,0.588-8.391-2.349c-2.17-5.65-3.316-11.218-5.185-17.171C58.687,45.233,60.043,47.816,62,48z"/>
		<path style="fill:#8E8E8E;" d="M143,58l-4,2c-0.382-0.263-0.751-0.401-1-0.654c-0.617-0.625-0.993-0.095-1,0.654
			c-3.205,1.535-5.273-1.1-3.066-3.822C133.482,50.84,136.309,49.77,141,48c1.622-0.612,3.851,0.242,5.7-1.202l1.807,8.099
			C146.741,56.563,144.26,56.293,143,58z"/>
		<path style="fill:#3D3D3D;" d="M119.911,52.244c2.254,2.469,0.166,5.263-2.911,4.756c-0.284,0.873-0.618,0.86-1,0
			c-1.508,1.178-2.027,0.619-1-1l-3-4c-1.405,1.325-1.92,0.767-1-1l-2.837-4.163c-1.25,1.417-1.865,0.914-1.163-0.837
			c-0.351-0.845-0.331-1.794,0.058-2.847c2.316,0.239,4.631-0.146,6.942-1.153c1.349-0.75,3.671,0.08,4.424,1.216
			C120.567,46.45,120.736,49.04,119.911,52.244z"/>
		<path style="fill:#525252;" d="M114,42c-2.66,0.792-5.155,1.483-7.485,2.075L106,42c-2.796,0.596-4.333-1.487-3-4
			c-0.517-0.257-0.921-0.52-0.935-0.801c-0.052-1.081,5.501-6.613,6.895-7.88c0.243-0.221,0.622-0.291,1.04-0.319l7.089,11.747
			C115.437,40.816,114.648,41.639,114,42z"/>
		<path style="fill:#434343;" d="M39,61.399c0.009,2.396-2.833,4.267-4.906,2.696C31.856,65.408,30.158,65.71,29,65
			c-4.932,2.248-5.582-5.486-2-7c-1.257,0.553-1.783-0.435-2.12-1.828L34,54C37.571,53.135,40.627,58.457,39,61.399z"/>
		<path style="fill:#8A8A8A;" d="M43,41c1.324,5.468,2.437,11.6-0.907,16.872c-2.483-1.886-5.168-5.128-5.736-8.016
			c-0.028-3.991,2.461-7.896,3.696-12.1C41.675,38.959,41.508,40.678,43,41z"/>
		<path style="fill:#686868;" d="M51,102c-0.858-1.595-2.152-4.55-0.084-5.914c3.489-2.301,9.58-4.891,12.639-1.868
			C66.465,97.916,53.184,104.525,51,102z"/>
		<path style="fill:#5D5D5D;" d="M87.089,62.911c2.31-1.856,4.885,0.78,5.134,3.218c2.322,0.188,2.528,1.397,0.617,3.627
			c0.055,0.719-0.112,1.558-0.63,1.963C93.913,70.388,77.99,77.528,81,73c0.1-2.433,0.361-5.205,0.781-8.317
			C79.998,63.821,80.989,63.339,83,63C84.88,61.115,86.243,61.085,87.089,62.911z"/>
		<path style="fill:#7C7C7C;" d="M35,88.157c0.672,1.624,2.61,1.55,4,1.843c0.972,0.993,1.722,2.659,2,4c2.881,0.998-0.19,6.835-3,6
			c-0.105,3.594-2.306,2.287-4,0c-0.332-0.094-0.686-0.675-1-0.633c-0.886-2.333-3.676-3.71-3-6.367c0.965-1.204,0.94-2.883,2-4
			C32.162,86.222,33.092,86.408,35,88.157z"/>
		<path style="fill:#555555;" d="M75,63c8.759-1.481,7.529,4.242,5,10c-0.402,1.674-0.179,2.816-1.524,3.009
			c-0.864,0.124-1.726-0.259-2.391-1.09l-2.692-3.366c-1.574-1.967-2.612-3.382-1.858-5.4C72.205,64.359,72.739,62.406,75,63z"/>
		<path style="fill:#717171;" d="M42.976,23.943L44,30c2.025,0.146,0.837,4.596-1,5c2.394,1.627,1.664,2.348-1,1.869
			c-1.721,0.181-3.527,0.12-5-0.869c-0.974-1.257-1.588-3.125-3-4C32.71,31.406,42.122,20.876,42.976,23.943z"/>
		<path style="fill:#494949;" d="M26,46l5,3c1.151-0.451,2.151,0.215,3,2c0.066,0.65,3.155,1.56,1.499,1.929
			C34.855,53.073,34.2,53.216,34,54l-8.147,2.35C22.073,55.618,20.789,54.168,22,52c-3.78-2.216-3.535-5.131,0.736-8.744
			C23.464,44.372,24.552,45.286,26,46z"/>
		<path style="fill:#3E3E3E;" d="M118,63c-2.538,0.282-2.682-0.037-1-2c-1.91-0.678-1.91-2.012,0-4
			c0.786-1.66,2.445-2.947,2.911-4.756c4.187-1.594,5.696,4.016,8.408,8.471C124.659,62.706,121.279,63.031,118,63z"/>
		<path style="fill:#8C8C8C;" d="M41,69c1.159-1.712,1.881-1.129,1,0.843L46,73c1.864-1.902,2.442-1.223,1.31,1.165
			c2.744-0.005,2.731,1.319-0.038,3.971c-4.242-1.56-10.64-0.426-15.176,1.086C32.299,76.18,33.267,73.772,35,72
			c0.239-1.436,0.495-2.617,2.247-3.299C38.294,68.293,39.703,68.532,41,69z"/>
		<path style="fill:#5F5F5F;" d="M54.231,69.003c-0.322,0.826,0.126,2.417-0.919,3.068c-0.075,2.442-1.201,3.631-3.378,3.567
			c-1.645,1.99-2.52,1.5-2.624-1.472L46,73l-4-3.157c-0.124-0.321-0.684-0.729-1-0.843c-0.098-0.537-0.931-1.12-0.874-1.708
			C42.102,65.692,56.412,64.004,54.231,69.003z"/>
		<path style="fill:#555555;" d="M115,73c-0.104,0.507-0.758,0.644-1,1c-2.127,2.251-4.141,3.456-6.041,3.614
			c-2.86-2.353-4.846-4.891-5.959-7.614l12.851-3.179L115,73z"/>
		<path style="fill:#747474;" d="M134,40c1.591,1.477,0.841,2.642-1.142,1.858C132.16,44.952,129.541,44.999,125,42
			c-3.553-1.192-0.213-3.563,2-5c1.275-0.106,2.068-1.356,3-2c2.137-1.476,3.785-4.106,7.279-2.743
			C136.256,35.182,134.292,37.269,134,40z"/>
		<path style="fill:#D3D3D3;" d="M35,72c-0.332,1.997-2.065,3.296-2.018,6.26c4.111-2.712,17.609,0.521,14.328-4.094
			c0.896,0.797,2.64,1.321,3.706,0.399c0.827-0.716,1.302-1.873,2.297-2.493C52.93,73.93,53.79,75.619,55,77
			c-1.005-1.005-3.156-1.286-4.366-1.003C47.172,76.808,48.066,83.19,46,85l1.116-6.844c-2.272-0.983-15.459,1.457-15.12,1.262
			C31.308,79.815,30.941,80.887,31,82c-2.6-1.998-6.023-1.699-9-3c-0.388-0.794-1.238-1.067-2.036-1.606
			c1.338-0.828,2.224-0.312,3.049-0.421c1.951-0.202,4.121-0.216,6.512-0.042C30.49,73.711,31.981,72.067,34,72H35z"/>
		<path style="fill:#5D5D5D;" d="M34,51c-1.46,0.117-2.499-0.698-3-2l-5-3l-3.891-1.827c-0.057-0.507,2.579-8.812,3.831-9.039
			C29.269,39.977,33.412,45.183,34,51z"/>
		<path style="fill:#757575;" d="M58,170c-0.469-0.664-1.591-1.795-1.564-2.656c0.67-1.457,0.109-2.609,0.061-3.95
			c-0.036-1.008,1.63-1.78,2.503-2.258c1.501,0.245,4.379-0.603,5.544,1.317c1.235,2.034,0.228,5.09,0.379,7.424
			C62.238,170.98,59.943,168.557,58,170z"/>
		<path style="fill:#B5B5B5;" d="M77,96c0.811,0.767,1.082,1.976,0.815,3.627c2.042,2.084,3.437,4.208,4.185,6.373
			c0.964,0.933,0.216,2.624-1,3c-3.068,1.793-4.068,3.793-3,6c1.582,0.889-0.605,2.996-2,3c-1.235-0.08-1.814-0.831-2-2
			c-0.984-3.206-1.651-6.539-2-10c-0.028-1.5,0.221-2.927-0.125-4.998L64,101c-0.236-1.088,0.505-1.659,1.341-2.097
			c4.532,0.18,7.15-1.467,10.335-4.439L77,95C76.927,95.322,77.037,95.671,77,96z"/>
		<path style="fill:#8A8A8A;" d="M45.184,34.745c0.443-2.32,1.245-2.338,1.811,0.034c1.034,0.18,3.475-0.34,3.934,1.172l2.148,7.083
			C48.883,43.137,46.155,41.681,43,41l-1-4.131L43,35C43.44,33.881,44.168,33.796,45.184,34.745z"/>
		<path style="fill:#707070;" d="M66,36l3,5c0.24,3.53-3.417,7.336-7,7c-1.051-1.024-1.944-2.437-1.819-3.911
			C59.024,41.473,60.077,38.59,63,38C63.294,36.964,64.989,35.667,66,36z"/>
		<path style="fill:#6F6F6F;" d="M40.11,105.97c-3.63-3.019-4.333-5.009-2.11-5.97l3-6c2.828,0.68,5.04,3.336,4.789,6.566
			C45.605,102.935,42.713,106.025,40.11,105.97z"/>
		<path style="fill:#3F3F3F;" d="M56,104c0.748-0.459,1.729-0.365,1.755,0.337c0.16,4.217-1.041,9.336-5.755,6.663
			c-1.75,2.781-5.91,1.056-8.173-0.147C46.33,107.011,51.82,105.859,56,104z"/>
		<path style="fill:#747474;" d="M74,87c0.827-0.182,1.984,0.002,1.923,0.619c-0.588,5.925,1.278,3.238-10.931,9.281
			c-0.55-3.842,2.082-4.685,2.008-6.9c-0.145-1.099,1.188-1.766,4-2C71.852,87.031,73.093,87.788,74,87z"/>
		<path style="fill:#6E6E6E;" d="M63,38c-0.616,2.168-1.178,4.427-2.819,6.089c-0.838,0.401-1.913,0.99-2.665,1.016
			c-1.997,0.069-3.715-7.938-1.636-9.139c2.201,0.102,6.471-0.367,7.083,0.576C63.19,36.893,63.005,37.579,63,38z"/>
		<path style="fill:#949494;" d="M54.856,49.946l-9.743,0.03c0.026-2.691-0.572-4.451-1.226-6.978
			C47.853,43.212,55.089,43.657,54.856,49.946z"/>
		<path style="fill:#414141;" d="M43.669,111.756c2.135-0.246,5.491-0.125,5.331,2.244c2.278,1.741,1.79,2.709-1,2
			c-0.305,1.788-1.008,2.583-2.108,2.386c0.566,3.332-4.13,2.306-5.898,0.58c-1.213-1.357-1.513-3.374-1.19-5.493
			C39.025,112.027,42.143,111.165,43.669,111.756z"/>
		<path style="fill:#858585;" d="M47,88c2.069,2.055,5.156,3.145,8,4c-2.966,3.258-9.53,4.813-12.691,0.435
			C41.293,90.948,45.338,87.787,47,88z"/>
		<path style="fill:#545454;" d="M31,69c-2.568,1.112-3.046-0.174-1-2c-0.356-1.342,1.009-2.31,4.094-2.906
			c1.556-1.104,2.774-2.741,4.906-2.696c1.144,1.032,2.793,0.924,3.435,2.889C38.809,66.132,35.061,70.163,31,69z"/>
		<path style="fill:#818181;" d="M131,48.32c1.942-0.399,2.396,0.277,1,1.68l1.259,4.442c-2,0.978-4.547,0.985-6.746-0.358
			c-1.383-0.844-1.861-3.359-3.44-5.758C125.666,47.527,128.282,48.176,131,48.32z"/>
		<path style="fill:#767676;" d="M40.11,105.97c0.173,1.436,1.599,2.987,0.347,4.003c-3.68,2.985-5.883-1.49-10.423-3.39
			c0.295-0.539,0.747-1.02,0.966-1.584c1.233-0.47,2.657-1.416,3.874-2c-0.017-1.098,0.708-1.522,2.176-1.271L40.11,105.97z"/>
		<path style="fill:#535353;" d="M47.097,146c0.77,2.616,2.422,5.469,0.903,8l-2.51,0.808c-1.566-2.267-3.422-4.486-5.567-6.658
			c-2.304-0.038-1.323-1.642,0.078-3.151C39.15,142.073,45.89,144.333,47.097,146z"/>
		<path style="fill:#616161;" d="M34,72c-1.87,1.018-1.027,3.925-2.437,5.746c-1.943,2.51-6.95,1.592-8.55-0.772
			C22.212,76.17,34.768,69.121,34,72z"/>
		<path style="fill:#555555;" d="M117,61c0.192,0.601,1.063,1.224,1,2c0.127,1.33-11.87,5.668-12,3c-1.325-1.405-0.767-1.92,1-1
			c1.536-3.735,4.635-5.865,9.296-6.389L117,61z"/>
		<path style="fill:#626262;" d="M55.88,35.967C51.145,35.747,52.673,33.097,52,26c1.346-0.511,1.752-2.194,4.044-2.083
			C55.643,28.243,56.512,32.248,55.88,35.967z"/>
		<path style="fill:#757575;" d="M133.934,56.178c0.48,1.622,1.631,2.946,3.066,3.822c-0.006,0.652,0.22,1.638-0.048,2.471
			c-0.424,1.32-9.445-1.581-9.122-6.267C130.299,55.712,132.148,55.847,133.934,56.178z"/>
		<path style="fill:#8F8F8F;" d="M132,50c-0.131-0.462-0.6-0.835-1-1.68V46c-0.68-0.848-0.061-2.228,1.858-4.142
			c0.158-0.651,1.072-1.202,1.142-1.858l1.972-1c-0.298,4.442,1.418,10.257-2.433,11.733C133.104,50.899,132.466,50.256,132,50z"/>
		<path style="fill:#9E9E9E;" d="M125,42c2.091,0.927,4.163,1.774,6.217,2.542L131,46c-2.628,1.125-6.392,1.924-9.202,0.242
			c-1.403-0.84-1.158-3.276-1.798-4.242c0.818,0.054,1.593-0.272,2-1C123.662,38.999,124.662,39.333,125,42z"/>
		<path style="fill:#5C5C5C;" d="M50,140.651c0.548-2.006,1.825-1.763,2,0.349c2.019-0.348,3.685-0.014,5,1
			c2.089,0.03,1.474,0.801,0,2c-0.368,0.205-0.736,0.671-1,1l-2.405,3.154c-2.026-1.027-3.536-2.126-4.532-3.296
			c-0.729-0.661-1.06-1.651-1.124-2.396C47.82,141.071,48.996,140.766,50,140.651z"/>
		<path style="fill:#B9B9B9;" d="M25.94,35.134c-1.812,2.349-1.425,5.666-2.715,8.526C24.671,44.44,25.559,45.005,26,46
			c-1.099-0.168-2.273-1.01-3.366-0.736c-0.963,0.241-2.482,1.401-2.441,2.71C20.245,49.659,21.637,50.747,22,52
			c-0.284,0.873-0.618,0.86-1,0c-2.138,1.491-3.065,0.372-3-2c-1.972-0.396-2.639-1.396-2-3c6.959,1.206,7.26-10.88,8.761-13
			C25.106,34.409,25.635,34.691,25.94,35.134z"/>
		<path style="fill:#565656;" d="M77,95c-3.135,1.428-4.103,7.995-11.659,3.903l8.896-4.664c0.882-0.462,1.096-1.79,1.772-0.774
			C76.396,94.048,77.158,94.301,77,95z"/>
		<path style="fill:#767676;" d="M111.923,24.902c0.375,2.179,3.92,1.151,4.789,3.411c0.866,2.254-0.645,4.932-1.2,6.821
			c-2.895-2.888-2.504-6.565-5.347-8.204C110.252,25.85,110.821,25.003,111.923,24.902z"/>
		<path style="fill:#525252;" d="M82,102c2.875,3.259,2.875,4.592,0,4c-2.68-1.717-4.796-4.295-7.209-6.834L77,96
			C79.95,97.106,78.952,100.722,82,102z"/>
		<path style="fill:#4B4B4B;" d="M104,66c0.178,0.584,0.697,1.021,1.014,1.714C102.68,68.811,100.922,69.129,99,69
			c-1.75,0.762-3.409,1.372-2.99-0.856c-2.606-0.019-2.527-1.653-0.066-2.404c-1.522-2.613,2.402-4.086,3.982-1.814
			C102.123,62.956,103.93,63.419,104,66z"/>
		<path style="fill:#404040;" d="M24,73c-1.545,2.381-5.047,5.158-7.635,3.223C16.321,74.744,15.027,73.921,14,73
			c0.359-0.306,0.696-0.638,1-1C18.037,72.121,21.331,71.394,24,73z"/>
		<path style="fill:#4A4A4A;" d="M30,67l1,2c-0.489,2.743-3.548,3.477-6,4c-0.473-0.894-1.074-1.94-1-3
			c-2.176-1.706-1.682-2.458,1-2v-1C27.444,65.764,29.111,65.764,30,67z"/>
		<path style="fill:#7B7B7B;" d="M33,40c0.954-0.985,3.29-0.561,4-2c2.341,1.52-0.723,4.839-1.459,9.289
			C33.301,46.086,31.141,42.168,33,40z"/>
		<path style="fill:#787878;" d="M46.791,29c-1.523,2.628-2.454,2.961-2.791,1c-0.352-2.006-0.694-4.025-1.024-6.057
			c0.203-0.96,0.361-2.115,1.01-2.497c0.743-0.437,1.968-0.643,2.414-0.032C48.47,24.257,47.554,26.515,46.791,29z"/>
		<path style="fill:#868686;" d="M51,102c0.407,0.756,0.982,1.264,0.954,1.918c-3.55,1.586-6.028,4.031-10.364,5.086
			C43.146,104.638,47.118,101.51,51,102z"/>
		<path style="fill:#CACACA;" d="M114,74c-1.5,2.203-3.216,4.648-6,5l-7-8l1-1c1.714,2.662,4.301,4.839,7.041,7.371
			C110.947,75.679,111.972,73.939,114,74z"/>
		<path style="fill:#3D3D3D;" d="M107,65l-1,1h-2c-1.598,0-2.837-1.151-4.073-2.073C98.812,62.374,99.403,61.872,101,63l0.658-2.494
			c2.245,1.184,4.764,1.485,7.555,0.901L107,65z"/>
		<path style="fill:#777777;" d="M47.134,127c1.071,1.089,0.451,2.758,0.866,4c1.231,1.061,2.881,4.476,0.841,4.97
			c-0.9-0.377-2.097,0.042-2.429-0.998c-0.297-0.929-2.453-8.36-0.333-8.662C47.023,125.244,47.592,125.629,47.134,127z"/>
		<path style="fill:#686868;" d="M45.892,118.386c0.704-0.169,1.256-0.287,1.277-0.225c0.897,2.651,0.71,8.976-2.169,4.839
			c-0.909,0.346-1.909,0.012-3-1c-0.61-0.993-1.228-2.164-2.005-3.034L45.892,118.386z"/>
		<path style="fill:#B3B3B3;" d="M83,63l-2,10h-1c0.667-2.78,1.59-5.565,0.855-8.886C78.772,63.907,77.015,63.99,75,63v-1
			C77.721,61.586,80.288,62.836,83,63z"/>
		<path style="fill:#B5B5B5;" d="M110,29c-1.716,3.571-6.316,4.878-7,9c0.238,3.312-2.572,3.973-4,1c-1.341-2.077,0.593-4.726,3-4
			c2.143-2.08,6.682-4.54,6.924-8c0.415,0.018,0.831-0.006,1.241-0.071L110,29z"/>
		<path style="fill:#C1C1C1;" d="M59,103.157c-1.249,2.069-1.915,5.928,0,7.843c-1.226,2.564-2.893,3.898-5,4
			c-2.021-0.235-2.05-1.28-2-3c-0.873-0.284-0.86-0.618,0-1c1.649-0.505,3.757,0.084,4.54-2.048c0.573-1.559,1.252-4.058-0.54-4.952
			C57.117,103.503,57.553,102.932,59,103.157z"/>
		<path style="fill:#717171;" d="M46.995,34.78c-0.54-0.094-1.293-0.079-1.811-0.034c-1.474-1.784-0.113-4.357,1.608-5.745
			c0.476-0.146,1.295-0.9,1.773-0.851c-0.003,0,2.333,4.714,0.866,5.653C48.848,34.176,47.738,34.205,46.995,34.78z"/>
		<path style="fill:#C3C3C3;" d="M56,145c-1.194,3.17-2.891,6.348-5,9l-1-1c1.237-2.579,0.777-4.091-1-6
			c-0.17-0.664,0.18-1.465,0.063-2.142C51.38,146.402,54.059,147.418,56,145z"/>
		<path style="fill:#555555;" d="M52,141c-0.575-0.287-1.467-0.001-2-0.349c-0.986-0.644-2.386-1.152-2.771-2.225
			c-0.456-1.273,1.353-1.68,1.611-2.456c0.685-1.721,6.085,4.066,6.189,4.632C55.243,141.765,53.011,141.633,52,141z"/>
		<path style="fill:#727272;" d="M51.866,21.787L53,23c-0.807,0.696-1.252,2.199-2,3c-2.256,0-2.194-1.324-2.875-6.108
			C49.655,20.617,50.573,21.526,51.866,21.787z"/>
		<path style="fill:#CBCBCB;" d="M49,125c0.873,0.284,0.86,0.618,0,1c-0.646-0.323-1.405,0.644-1.866,1
			c-0.277,0.213-1.383-0.196-1.055-0.69L46,125c-0.903-0.575-1.237-1.242-1-2c1.801,0.679,2.287-1.039,2.03-2.365
			c-0.145-0.753-0.343-1.668-1.138-2.249c0.356-1.101,1.151-1.827,2.108-2.386C51.108,117.049,50.217,122.506,49,125z"/>
		<path style="fill:#979797;" d="M52,111v1c1.571,2.777-0.504,4.028-3,2c-1.518-1.181-3.542-1.551-5.331-2.244l0.157-0.903
			C46.659,110.968,49.301,111.827,52,111z"/>
		<path style="fill:#B8B8B8;" d="M46.858,143.874c0.074,0.683,0.045,1.469,0.239,2.126c-2.305-0.751-4.831-2.251-7.097-1
			c0.059-1.202-0.684-2.834-1-4C41.367,142.731,43.84,144.576,46.858,143.874z"/>
		<path style="fill:#717171;" d="M44.071,59.194c0.661,0.903,1.276,1.882,2.047,2.701c0.108,0.898-0.36,2.34-1.596,2.096
			c-0.513-0.101-2.901-3.043-2.275-4.157C42.529,59.332,43.463,59.27,44.071,59.194z"/>
		<path style="fill:#737373;" d="M50,153c0.155-2.06-0.494-4.025-1-6c1.554-0.197,3.184,0.075,3.937,1.525
			C51.601,150.375,51.399,152.088,50,153z"/>
		<path style="fill:#747474;" d="M48.035,101.081c-1.398-0.684-2.772-3.555-1.673-4.845c0.739-0.867,2.522,0.576,2.594,1.391
			C49.03,98.47,49.512,100.995,48.035,101.081z"/>
		<path style="fill:#B9B9B9;" d="M95.945,65.74l0.066,2.404c-0.068,1.104-0.847,1.609-2.336,1.514
			c-0.306-0.196-0.586-0.174-0.835,0.097c-0.528-1.133-0.617-2.391-0.617-3.627C92.57,63.326,94.644,63.491,95.945,65.74z"/>
		<path style="fill:#3E3E3E;" d="M96.01,68.144C96.863,68.85,97.876,69.139,99,69c-1.597,1.308-3.923,2.718-5.325,0.659
			c-0.586-0.502-0.167-0.942,0.178-1.098C94.515,68.26,95.596,67.801,96.01,68.144z"/>
		<path style="fill:#484848;" d="M45,123c0.305,0.641,2.594,1.219,1,2c-2.057,0.119-3.058-1.467-4-3
			C43.113,121.861,44.346,121.992,45,123z"/>
		<path style="fill:#D4D4D4;" d="M138,86.205c-1.08,0.495-1.759,1.699-2,2.795c-1.401-1.073-2.816,0.033-4,1
			c2.971-5.344-3.652-6.215-8-13C128.579,77.156,132.071,87.303,138,86.205z"/>
		<path style="fill:#D3D3D3;" d="M138,68c-3.299-0.313-5.86,2.403-9,3c1.453-2.688,4.871-2.984,7-5
			C136.2,66.796,137.614,67.274,138,68z"/>
		<path style="fill:#DEDEDE;" d="M35,88.157c-0.876,0.268-2.302,0.108-3,0.843v-4C33.408,85.604,34.421,86.759,35,88.157z"/>
		<path style="fill:#CFCFCF;" d="M123,101c0.069-2.363,2.089-3.865,4-5C126.931,98.363,124.91,99.865,123,101z"/>
		<path style="fill:#DADADA;" d="M117,108c0.463,0.546,0.625,1.39,1,2c-0.977-0.173-2.013,0.111-3,0c-2.927-0.002-2.803-3.341,0-4
			C115.66,106.657,116.397,107.29,117,108z"/>
		<path style="fill:#DADADA;" d="M121,110c-0.96,1.483-1.109,3.269-1,5c-1.414-1.289-1.058-3.466-2-5
			C118.893,110.158,120.187,109.623,121,110z"/>
		<path style="fill:#D4D4D4;" d="M128,95c-0.029-1.896,1.349-3.255,3-4C131.025,92.891,129.655,94.263,128,95z"/>
		<path style="fill:#D5D5D5;" d="M119,106c-0.026-1.89,1.345-3.264,3-4C122.026,103.883,120.656,105.268,119,106z"/>
		<path style="fill:#E2E2E2;" d="M98,150.184c-0.847,1.092-1.011,2.472-1,3.816c-0.776-0.769-0.763-2.216-2-3.149
			c-2.342,0.157-4.096,1.152-6,1.149c-1.734-2.435,1.915-4.884,4-3C94.61,146.71,97.285,147.736,98,150.184z"/>
		<path style="fill:#DFDFDF;" d="M99,161c-1.869-1.756-1.98-4.552-2-7C98.893,155.875,98.817,158.518,99,161z"/>
		<path style="fill:#DBDBDB;" d="M84,161c-0.35-1.826,0.553-3.933,2-5C86.064,157.86,85.654,159.929,84,161z"/>
		<path style="fill:#DDDDDD;" d="M81.961,166.061c-0.187-1.682,0.474-4.047,2.039-5.061
			C84.447,163.33,83.006,164.418,81.961,166.061z"/>
		<path style="fill:#6A6A6A;" d="M102,121.197c2.352,1.552,4.87,2.946,7,4.803l3.558,2.516c0.701,7.309,0.469,12.545-6.558,16.484
			c-0.213,0.631-1.279,1.077-0.903,2.003c-2.709,0.001-4.595,2.433-7.097,3.181c-1.562,0.435-3.577-0.715-5-1.184l-5-11
			c-1.809-1.463-1.475-3.129,1-5l3-5l3-5l3.134-5.553C99.165,118.839,100.453,120.089,102,121.197z"/>
		<path style="fill:#BFBFBF;" d="M48,154c-1.527,2.054-4.508,2.814-7,3c0.713-1.306,2.12-1.55,4.124-2.322l-6.294-6.43
			c-1.207,0.282-1.998,0.687-2.831,0.999c0.766-1.899,2.241-3.275,4-4.247C39.81,148.857,45.758,153.81,48,154z"/>
		<path style="fill:#C2C2C2;" d="M46,170c-1.934-1.14-4.066-2.668-3.898-5.102C43.833,166.285,45.909,167.568,46,170z"/>
		<path style="fill:#676767;" d="M110,94l2,5l3,7v4c-0.353,0.216-0.687,0.462-1,0.732L110,114c-1.041,1.576-1.407,1.887-2,0l-5-3
			c-3.248,1.908-8.254-1.482-7.806-5.194c-1.656-0.885-3.259-1.522-4.811-1.91C89.383,98.843,88.589,93.878,88,89
			c-1.565-1.753-0.684-3.725,2-4l11-2l4.275-0.377L110,94z"/>
		<path style="fill:#E9E9E9;" d="M89,105v1c5.822,2.47,11.412,5.585,16.769,9.345L108,114c0.66,0.063,1.337-0.018,2,0
			c-0.656,1.718-1.573,3.031-1.809,5.497c3.266-0.141,4.334,2.804,5.929,3.604c-6.043-1.282-10.193-6.577-16.104-8.148
			c-0.199,2.516-0.869,2.488-2.01-0.084l-2.18,0.134c-0.444-1.435-8.355-6.176-8.914-6.165c-0.495,0.01-3.174,5.794-2.924,7.118
			L80,117c-1.681,5.444-4.151,9.971-7.409,13.581L71.178,130c0.009-0.577-0.232-1.467-0.024-1.984
			c-1.626-2.16-1.48-5.668,1.094-7.018c1.138-0.067,1.603-0.872,1.394-2.414L76,118c0.643-0.972,1.44-1.88,2-3
			c-2.365-1.537,0.843-4.949,3-6c0.387-0.773,0.191-2.442,1-3c1.608-1.11,0.097-2.487,0-4c0.965,0.405,1.628,1.465,2.471,2.489
			C85.832,106.144,87.715,106.142,89,105z"/>
		<path style="fill:#CFCFCF;" d="M114,110.732c-0.55,1.833-2.011,3.322-4,3.268C110.658,112.277,112.204,111.049,114,110.732z"/>
		<path style="fill:#636363;" d="M73,134c3.195-0.684,6.619-0.463,10.273,0.664c0.436-1.98,1.117-1.793,2.044,0.56
			c2.099-0.492,2.993,0.433,2.684,2.776l5,11l-4,3l-17.661-0.031c-1.527-6.368-1.609-12.651-1.205-18.804
			C71.267,132.638,72.371,133.545,73,134z"/>
		<path style="fill:#616161;" d="M67,139l-5,2c-2.079,1.373-3.746,1.707-5,1c-3.141-1.97-7.431-5.992-8.228-10.274
			c-0.041-0.22,0.072-0.469,0.228-0.726c-0.183-0.424-0.103-3.233,0.769-2.991c6.254,1.736,11.778,3.48,17.393,5.707
			c1.064,0.422,1.751,2.678,1.569,3.481C68.584,137.846,67.544,138.403,67,139z"/>
		<path style="fill:#4D4D4D;" d="M59,111l5,5c1.183-0.01,1.179,0.841-0.011,2.553c-0.083,3.808-1.08,5.623-2.989,5.447
			c1.127,3.381-1.981,4.942-4,2h-2c-0.897,0.231-1.231-0.102-1-1c-3.294,1.703-3.96,0.703-2-3c-1.607-1.901-1.157-7.246,2-7
			C55.106,112.751,56.222,110.152,59,111z"/>
		<path style="fill:#8E8E8E;" d="M80,117l3,10c1.275,2.751,1.636,5.391,1.083,7.918C80.306,134.13,76.611,133.49,73,133
			c-0.976-0.723-1.842-1.733-1.822-3C73.376,129.098,77.589,114.959,80,117z"/>
		<path style="fill:#5D5D5D;" d="M70,117c0.275-0.863,0.609-0.848,1,0c3.223-0.68,3.799,2.205,1.249,3.997
			c0.098,2.41,0.286,4.947-1.094,7.018c-0.39,0.217-1.017,0.501-1.155,0.984c-1.815,2.757-6.176,0.063-5-3
			c-0.895,0.227-1.228-0.106-1-1l-1.293-1.322C63.275,116.942,65.706,114.716,70,117z"/>
		<path style="fill:#6B6B6B;" d="M70,162c-1.508-1.147-3.621-0.635-5.713-1.348c-1.548-0.527-1.371-2.61-1.287-3.652
			c1.118-5.719,3.118-10.719,6-15c-0.141,3.926-0.142,7.832,0.861,12.092C70.512,156.861,69.708,159.594,70,162z"/>
		<path style="fill:#5E5E5E;" d="M64,125c0.366,0.253,0.738,0.641,1,1c1.281,1.375,0.647,1.953-1,1l-1.686,3.771
			c-2.098-1.247-3.657-1.003-4.708-1.901C56.828,128.205,56.89,126.986,57,126c1.573,0,3.039-0.749,4-2
			C62.959,121.764,63.959,122.097,64,125z"/>
		<path style="fill:#E0E0E0;" d="M89,133c-0.278,1.657-1.127,3.279-1,5c-2.76-3.896-10.022-3.641-15-4v-1
			c3.209-0.365,6.304,0.269,10.657,1.329c0.647-2.73-0.76-4.834-0.657-7.329c2.46-0.111,3.806,1.566,4.039,5.03L89,133z"/>
		<path style="fill:#484848;" d="M70,129c-0.395,1.385-0.519,2.845-1.469,3.929c-1.651-1.173-3.39-0.861-4.079-1.928
			c-0.797-1.235-0.44-2.76-0.452-4.002c0.16-0.358,0.574-0.771,1-1C66.198,127.638,68.249,128.107,70,129z"/>
		<path style="fill:#CDCDCD;" d="M57,142c-1.695,0.334-3.743,0.22-5-1c0.49-0.042,1.001,0.333,2.093-0.375
			c-1.797-1.657-3.097-3.752-5.252-4.655c0.573-1.722-0.327-3.436-0.841-4.97h1C52.322,139.419,52.551,135.505,57,142z"/>
		<path style="fill:#C9C9C9;" d="M69,142l-6,15c0.443-5.494,2.541-11.087,5-16C68.356,141.31,68.691,141.643,69,142z"/>
		<path style="fill:#BFBFBF;" d="M54,125c1.804,2.019-0.979,2.12-3,2l-2-1v-1c0.053-2.123,0.411-3.944,3-3
			c-0.056,0.683-0.209,1.48,0.16,2.308C52.411,124.867,53.308,125.03,54,125z"/>
		<path style="fill:#737373;" d="M55,126c0.457,0.332,1.168,1.97,0.283,1.972c-2.005,0.003-3.266-0.463-4.283-0.972l3-2
			C54.379,125.285,54.72,125.616,55,126z"/>
		<path style="fill:#D7D7D7;" d="M114,128c-0.915,4.09-1.261,8.209-1,12.391c-1.776-0.099-4.559,5.054-7,4.609
			c0.808-2.395,3.948-3.364,5.1-5.752c2.165-4.487,1.395-10.202-2.1-13.248L114,128z"/>
		<path style="fill:#D9D9D9;" d="M38,100c-1.056,2.112,1.858,3.877,2.11,5.97c-1.986-0.669-2.889-3.048-5.236-2.97
			c-0.097-1.048-0.404-2.059-0.874-3C35.335,100.376,36.816,100.95,38,100z"/>
		<path style="fill:#DADADA;" d="M98.016,114.953c-0.615,4.186,2.886,2.695,3.984,6.244c-1.105-0.729-2.84-0.702-3.62-2.374
			c-1.394,2.031-1.839,3.515-3.38,4.177l-1.614-1.955c0.881-2.141,1.755-4.2,2.62-6.176
			C96.647,114.99,97.384,114.785,98.016,114.953z"/>
		<path style="fill:#555555;" d="M149,47c-0.134-0.931-1.477-1.773-1-3c0.279-1.37,2.316-1.375,4.01-0.629
			C151.101,44.82,149.42,45.378,149,47z"/>
		<path style="fill:#424242;" d="M97,30c1.211,2.047,2.953,3.789,5,5c-0.593,1.184-1.465,3.22-3,4l-0.813,2.086L87.42,44.469
			C86.045,44.841,84.905,44.018,84,42c-0.305-0.267-1.104-0.308-1.092-0.927c0.012-0.653,0.023-1.403,0.112-2.052L97,30z"/>
		<path style="fill:#6E6E6E;" d="M74.784,19.736c1.979,4.164,1.072,8.434-3.347,10.186l-7.759-12.904
			c0.183-1.768,9.611-0.893,9.64-0.883C74.268,16.454,74.032,18.152,74.784,19.736z"/>
		<path style="fill:#686868;" d="M83,22l4,3c2.813-0.798,2.94,0.119,1,2c2.172,1.799,1.766,2.564-1,2
			c-1.597,1.692-9.014,3.859-11.148,1.634c-1.015-1.059,0.005-1.87,0.182-3.451C76.506,22.997,79.483,22.002,83,22z"/>
		<path style="fill:#6D6D6D;" d="M69,33c4.683-0.564,4.582,4.297,8.433,9.358C74.527,44.061,71.258,42.868,69,41l-3-5v-1.097
			c-2.082-1.647-1.623-2.294,1-1.963C67.493,30.271,68.239,30.417,69,33z"/>
		<path style="fill:#717171;" d="M90,17c1.601,0.65,2.106,3.221,2,5c-0.668,1.852-3.679,4.893-5,3l-4-3
			c-0.77-2.063,1.214-3.781,1.148-5.955c0.631-0.109,1.226-0.356,1.763-0.704L90,17z"/>
		<path style="fill:#7B7B7B;" d="M83.02,39.022l-4.499,2.062c-1.21-2.126-1.282-5.743,0.01-7.59c1.547-2.21,6.815-2.356,7.434,0.417
			C86.526,36.423,83.255,37.297,83.02,39.022z"/>
		<path style="fill:#7A7A7A;" d="M64,23c-2.023-0.51-4.375,1.967-6.904,0.626c-2.152-1.141-0.53-7.146,1.451-8.114
			C61.311,15.417,65.147,20.046,64,23z"/>
		<path style="fill:#878787;" d="M101,22c0,2.87-3.261,6.227-6,5c-2.789,1.993-5.054-0.272-3-3c-1.399-0.453-0.915-0.991,0-2
			C94.672,20.606,98.365,20.309,101,22z"/>
		<path style="fill:#7C7C7C;" d="M69,33c-0.414,0.05-0.923-0.112-2-0.06c-2.969,3.158-7.587-5.805-5-7.94c0.262-1.13,2.046-0.69,2-2
			C66.25,21.721,71.54,32.048,69,33z"/>
		<path style="fill:#5E5E5E;" d="M62,25l2.935,6.12c0.506,1.055,1.281,1.616,2.065,1.82c-0.211,0.51-0.471,1.033-1,1.963
			c-5.051,1.599-5.139-4.439-8.307-9.603C59.719,24.66,60.828,25.099,62,25z"/>
		<path style="fill:#8E8E8E;" d="M84.148,16.045c-2.305,0.754-0.63,3.674-2.152,4.285c-1.623,0.652-3.897,2.432-5.106,1.044
			c-1.358-1.558-1.347-3.345-2.178-5.967C77.89,14.833,81.539,14.194,84.148,16.045z"/>
		<path style="fill:#676767;" d="M95,27c-0.064,1.236-0.677,2.492-1.434,3.107C92.121,31.281,90.485,31.038,89,31
			c-0.616-0.714-1.335-1.334-2-2c0.514-0.545,0.794-1.362,1-2c-0.507-1.422,2.813-3.412,4-3C92.476,25.398,93.73,26.36,95,27z"/>
		<path style="fill:#A0A0A0;" d="M76.405,37.392l-4.408-5.944c1.33-1.073,2.689-0.462,3.593,0.499
			C76.778,33.208,77.88,34.948,76.405,37.392z"/>
		<path style="fill:#585858;" d="M60.955,34.597c-1.012,0.776-2.253,0.373-3.939,0.33c0.117-2.47-0.442-4.39,0.353-7.041
			L60.955,34.597z"/>
		<path style="fill:#8C8C8C;" d="M89,31c0.787,0.912,1.005,1.827,0.026,2.534c-0.584,0.422-1.876,2.164-1.838,0.814
			c0.046-1.646-1.538-3.04-0.702-3.272C87.474,30.803,88.444,30.986,89,31z"/>
		<path style="fill:#C2C2C2;" d="M16,47c-0.55,1.765-1.625,3.407-3.656,3C11.895,43.747,9.539,45.452,7,41
			C3.576,37.396,19.818,50.33,16,47z"/>
		<path style="fill:#434343;" d="M16,47c0.548,0.478,1.272,0.669,2.166,1.196C18.705,48.514,18.555,49.34,18,50
			c2.329,2.641-3.063,7.961-5.819,6.089c-1.3-0.499-1.288-1.989-1.171-3.189c0.772-0.71,0.874-2.015,1.333-2.9
			c0.409-0.789,0.516-1.801,0.919-2.358C13.894,46.771,15.204,46.862,16,47z"/>
		<path style="fill:#696969;" d="M27,58l-0.054,5.072c-0.009,0.877,0.128,1.577,0.612,1.883C27.912,65.18,28.577,65.017,29,65
			c-0.111,0.999-1.445,1.666-4,2c-0.048,0.315,0.068,0.691,0,1c-1.943,2.145-3.444,0.324-1.971-2.029L19,63
			c-1.447,1.171-1.978,0.626-1-1c-0.178-0.331-1.006-1.129-0.63-1.714C18.24,58.934,19.47,58.22,20,57c-1.272-1.548-0.707-2.079,1-1
			c0.469-1.279,2.315-1.25,5.539,0.086C25.81,58.057,25.964,58.695,27,58z"/>
		<path style="fill:#505050;" d="M18,62c0.31,0.314,0.812,0.579,1,1l4.029,2.971L25,68c-0.15,0.679-0.951,1.301-1,2
			c-2.241,1.307-4.887,1.246-7.842,0.882c-0.111-3.625-1.436-6.223-1.128-9.933C16.236,61.488,17.001,62.181,18,62z"/>
		<path style="fill:#5E5E5E;" d="M21,52c0.786,1.169,2.209,3.88,0,4c-0.278,0.347-0.818,0.58-1,1
			c-1.553-0.162-2.485,1.101-3.786,2.264c-1.96,1.752-4.434,0.176-6.267-0.809c1.752-0.629,1.644-1.847,2.234-2.365
			C14.283,54.239,16.556,52.433,18,50C19.271,50.142,20.254,51,21,52z"/>
		<path style="fill:#CFCFCF;" d="M110,94c-5.926-5.494-1.212-11.042-9-11c1.594-0.963,3.249-1.379,5-2
			C105.889,86.32,110.34,90.177,110,94z"/>
		<path style="fill:#CFCFCF;" d="M115,106c-1.826-1.817-3.139-4.362-3-7C113.984,100.713,115,103.441,115,106z"/>
		<path style="fill:#D1D1D1;" d="M112,99c-1.491-1.288-2.18-2.975-2-5C111.495,95.386,112.111,96.895,112,99z"/>
		<path style="fill:#DADADA;" d="M71,88c-1.015,1.154-2.686,1.352-4,2l-8-9C64.043,81.587,64.852,89.219,71,88z"/>
		<path style="fill:#D5D5D5;" d="M101,83c-3.182,1.922-7.35,1.99-11,2C93.209,83.097,97.322,83.02,101,83z"/>
		<path style="fill:#D9D9D9;" d="M90,85c-1.233,0.731-2.522,2.518-2,4c-0.284,0.873-0.618,0.86-1,0c-0.26-1.362-0.097-2.828-1-4
			C87.181,85.273,88.771,85.003,90,85z"/>
		<path style="fill:#D2D2D2;" d="M62,141c-1.226,1.582-3.306,2.057-5,3v-2C58.686,141.668,60.263,141.071,62,141z"/>
		<path style="fill:#D0D0D0;" d="M67,139c-0.797,1.692-3.275,1.929-5,2C63.19,139.465,65.057,138.755,67,139z"/>
		<path style="fill:#C5C5C5;" d="M99,39l1.992,1.116C100.683,44.539,100.686,48.5,101,52c0.873,0.284,0.86,0.618,0,1l-1.073,2.063
			l-9.602,0.14C89.443,57.804,88.001,59.07,86,59c2.061-5.85,0.163-11.36-2-17C86.712,44.381,92.687,39.353,99,39z"/>
		<path style="fill:#C6C6C6;" d="M87.089,62.911C85.733,62.934,84.357,63.082,83,63l3-4C88.509,59.316,88.84,61.122,87.089,62.911z"
			/>
		<path style="fill:#C5C5C5;" d="M95.194,105.806c-0.881,1.836-2.946,1.9-6.194,0.194c0.057-0.317-0.094-0.694,0-1
			c0.301-0.983,0.653-2.11,0.395-3.46L87,89h1C91.345,98.492,88.087,101.135,95.194,105.806z"/>
		<path style="fill:#424242;" d="M74,116c0.096,3.013-1.3,3.439-3,1c-0.298,0.106-0.687-0.058-1,0c-2.691-0.22-4.025-0.886-4-2l6-9
			C75.488,107.936,75.87,112.667,74,116z"/>
		<path style="fill:#C8C8C8;" d="M70,117c-1.141,0.211-3.381-0.694-4.583,0.449c-2.089,1.986-1.289,5.22-1.417,7.551
			c-0.882-0.609-1.94-0.931-3-1c2.708-1.596,1.967-5.235,3-8l2-1L70,117z"/>
		<path style="fill:#DFDFDF;" d="M127,37c-0.482,1.257-1.785,1.917-2.641,3.302c-0.323,0.523,0.333,1.492,0.641,1.698
			c-1.05,0.034-2.088-0.577-3-1C123.107,39.02,124.655,37.195,127,37z"/>
		<path style="fill:#DCDCDC;" d="M69.154,65.805C66.95,64.783,67.015,61.214,67.21,59C68.66,60.866,69.036,63.486,69.154,65.805z"/>
		<path style="fill:#474747;" d="M108.163,46.837L111,51l1,1l3,4c0.412,0.185,0.657,0.726,1,1c1.095,1.789-0.871,2.929-5.898,3.421
			c0,0-0.367-0.807-1.102-2.421c-2.321,1.957-5.756,0.029-5-3c-1.571,0.9-2.571,0.234-3-2v-1c1.497-2.384,3.689-4.399,6-6
			C107.509,46,107.772,46.608,108.163,46.837z"/>
		<path style="fill:#C8C8C8;" d="M104,55c-0.79,4.037-0.071,4.864,4.338,4.051C107.699,60.821,107.92,60.47,109,58
			c-0.016-0.01,4.415,1.573,6.255,0.829c0.53-0.214,0.763-1.082,0.745-1.829h1v4c-3.311-2.678-6.369,0.369-10,4
			c0.03-0.961,0.343-1.744,1.045-2.827c-2.853-0.449-5.078-0.342-7.045,0.827c-3.127-0.57-2.988-9.161,0-10
			C102.146,52.894,103.203,54.43,104,55z"/>
		<path style="fill:#BCBCBC;" d="M114,42c-7.743,4.304-3.949-0.751-7,4c-0.309,0.434-0.643,0.421-1,0c-2.927-0.002-2.803-3.341,0-4
			C108.028,43.901,111.507,41.76,114,42z"/>
		<path style="fill:#B7B7B7;" d="M111,51c-1.232-1.232-3.192-2.188-2.837-4.163C109.701,47.741,110.959,49.151,111,51z"/>
		<path style="fill:#BABABA;" d="M115,56c-1.652-0.741-3.027-2.108-3-4C113.195,53.195,115.027,54.109,115,56z"/>
		<path style="fill:#424242;" d="M106,42v4c-1.601,1.96-3.268,3.96-5,6c-0.872,0.033-2.092-0.421-2.081-1.916L99,39
			c1.399-0.078,2.831-0.1,4-1C104.2,39.171,105.177,40.543,106,42z"/>
		<path style="fill:#C3C3C3;" d="M34,54c3.763-0.912-12.398,3.852-7,4c-3.004,1.999-0.433-3.067-6-2v-4h1
			c0.081,0.988,0.338,2.149,0.992,2.553C25.829,56.303,30.389,53.371,34,54z"/>
		<path style="fill:#C5C5C5;" d="M34.094,64.094L30,67h-5c0.97-1.267,2.63-1.42,4-2C30.589,64.327,32.399,64.141,34.094,64.094z"/>
		<path style="fill:#515151;" d="M101,53v10c-0.385,0.229-0.675,0.745-1.073,0.927l-3.982,1.814
			c-1.061,0.483-2.577,0.363-3.722,0.388c-2.219,0.049-3.362-2.145-5.134-3.218C86.536,61.878,85.56,60.249,86,59
			c1.054-1.405,1.802-3.682,2.689-5.388C92.718,52.145,97.096,53.361,101,53z"/>
		<path style="fill:#E1E1E1;" d="M45.184,34.745c-0.258,0.029-0.423,0.643-0.74,0.744C43.902,35.663,43.381,35.334,43,35
			c0.785-1.468,1.347-3.313,1-5c0.95,0.436,1.997-0.757,2.791-1C46.204,30.914,45.103,32.709,45.184,34.745z"/>
		<path style="fill:#E2E2E2;" d="M44,30c-1.953-0.895-0.83-4.152-1.024-6.057C45.185,25.162,43.605,28.078,44,30z"/>
		<path style="fill:#BDBDBD;" d="M31,49c-2.052-0.237-4.128-1.034-5-3C27.981,46.303,30.222,46.98,31,49z"/>
		<path style="fill:#D5D5D5;" d="M46,73c-1.961,0.051-3.328-1.414-4-3.157C43.887,69.93,45.238,71.349,46,73z"/>
		<path style="fill:#DCDCDC;" d="M132.858,41.858c0.024,1.605-0.499,3.214-1.858,4.142l-6-4c1.795-0.059,3.503,0.46,5.292,1.833
			C131.459,43.323,132.058,42.438,132.858,41.858z"/>
		<path style="fill:#4A4A4A;" d="M80.314,106.835c-0.806,1.468-2.779,2.17-4.027,2.068c-1.954-2.512-3.293-5.574-3.198-9.044
			C75.745,101.929,77.288,103.901,80.314,106.835z"/>
		<path style="fill:#424242;" d="M74,116c0.478-0.324,1.754-0.035,1.977,0.513c0.189,0.464-0.028,1.092,0.023,1.487
			c-0.775,1.686-0.901,3.772-2.572,5.005c-0.689-1.051-0.773-1.639-1.179-2.008c-0.058-1.425-0.419-2.82-1.249-3.997
			C72.012,116.638,73.09,116.617,74,116z"/>
		<path style="fill:#525252;" d="M81,109l-3,6c-0.765,0.121-1.964,0.082-1.981-0.543c-0.021-0.751-0.269-1.706-0.002-2.494
			C76.781,109.709,79.226,109.367,81,109z"/>
		<path style="fill:#D4D4D4;" d="M69,41c-2.116-1.277-3-3.167-3-5C67.92,36.631,68.868,39.06,69,41z"/>
		<path style="fill:#4C4C4C;" d="M54,115c-1.149,2.336-0.021,5.148-2,7c-1.067,0.998-1.054,3.315-3,3c-2.102-2.476-0.591-5.967-1-9
			c0.638-0.373,0.776-1.385,1-2c1.15-0.414,2.253-1.014,3-2c0.675,0.06,1.513,0.254,1.783,0.769
			C54.194,113.551,54.069,114.333,54,115z"/>
		<path style="fill:#D0D0D0;" d="M93,149c-2.32-3.151-4.708-7.027-5-11C90.297,141.242,92.754,144.968,93,149z"/>
		<path style="fill:#D8D8D8;" d="M92,128c-3.54-1.432-0.295-7.362,3-5C94.712,125.012,94.001,127.179,92,128z"/>
		<path style="fill:#D6D6D6;" d="M89,133c-3.496-1.468-0.297-7.374,3-5C91.729,130.004,90.994,132.198,89,133z"/>
		<path style="fill:#7E7E7E;" d="M95.194,105.806c2.392,2.026,4.973,3.843,7.806,5.194l5,3c0.392,1.247,0.042,2.738-1.381,3.982
			l-16.044-9.536c-1.116-0.663-1.756-1.435-1.575-2.446c0.547-0.55,0.856-1.348,1.655-1.878
			C92.236,105.379,93.676,105.832,95.194,105.806z"/>
		<path style="fill:#D0D0D0;" d="M108,114c-2.048-0.196-4.086-1.086-5-3C104.934,111.33,107.349,111.929,108,114z"/>
		<path style="fill:#888888;" d="M96.005,114.869c2.223,4.735-0.354,3.586-1.005,8.131c-1.985,0.852-2.725,2.965-3,5
			c-2.036,0.835-2.661,2.98-3,5c-1.124,0.452-1.69,1.976-3.443,1.738c-0.709-3.253-0.968-5.729-2.557-7.738l-3-10
			c-0.264-3.878,1.931-7.268,4.322-11.064C90.037,110.416,93.736,110.034,96.005,114.869z"/>
		<path style="fill:#DEDEDE;" d="M83,127c-2.19-2.77-2.769-6.607-3-10C81.867,119.733,83.142,123.577,83,127z"/>
		<path style="fill:#DFDFDF;" d="M92,24l-4,3l-1-2c2.171,0.07,3.182-2.052,5-3C91.966,22.579,91.815,23.456,92,24z"/>
		<path style="fill:#D8D8D8;" d="M87,25c-1.846-0.06-3.345-1.244-4-3C84.898,21.999,86.176,23.352,87,25z"/>
		<path style="fill:#C1C1C1;" d="M23.029,65.971C21.118,66.056,19.744,64.662,19,63C20.87,62.989,22.281,64.328,23.029,65.971z"/>
		<path style="fill:#606060;" d="M88.677,51.424c-1.72-0.902-1.267-4.936-2.9-6.808l12.149-4.567l0.027,11.965
			C95.005,51.515,91.729,53.024,88.677,51.424z"/>
		<path style="fill:#515151;" d="M104,55c1.586,1.134,3.357,1.951,5,3c0.266,0.72,0.897,1.175,1.019,1.72
			c0.43,1.917-7.959,2.202-8.046-0.081C101.905,57.863,101.257,54.422,104,55z"/>
		<path style="fill:#B7B7B7;" d="M107,46c-1.518,2.363-3.653,4.508-6,6c0.027-2.777,2.945-4.454,5-6H107z"/>
	</g>
</g>
</svg>
