<?xml version="1.0" encoding="iso-8859-1"?>
<!-- Generator: Adobe Illustrator 30.1.0, SVG Export Plug-In . SVG Version: 9.03 Build 0)  -->
<svg version="1.1" id="Layer_1" xmlns="http://www.w3.org/2000/svg" xmlns:xlink="http://www.w3.org/1999/xlink" x="0px" y="0px"
	 viewBox="0 0 150 117" style="enable-background:new 0 0 150 117;" xml:space="preserve">
<g>
	<g>
		<path style="fill:#FAFAFA;" d="M119,0l4.007,1.476l25.274,27.362L150,33v3l-22,81H1c0.056-1.134-0.426-3.085,0.734-4.229
			l33.333-32.887l75.718-74.976C112.731,2.981,115.219,2.361,116,0H119z M114.995,3.945c-3.338,3.244-7.514,5.75-9.843,9.835
			c-0.733,0.319-1.804,0.519-2.302,1.228c-1.054,1.503-2.335,2.787-3.843,3.837c-0.65,0.453-0.869,1.405-1.136,2.089
			c-3.392,2.519-7.089,5.601-9.176,9.42C87.47,30.277,79.406,37.938,79,39c-0.126,0.33-0.651,0.947-1,1
			c-1.071,0.163-1.286,1.543-2,2c-1.105,0.708-2.057,1.478-2,3l-1,0.344c-1.321,0.454-2.462,1.339-3,2.656
			c-0.117,0.286,0.072,0.696,0,1c-0.662,0.099-1.392,0.357-1.681,0.864C67.916,50.569,67.947,51.312,68,52
			c-2.834-1.915-4.165,2.116-5,4c-4.507,0.636-6.489,6.271-9,9c-2.259,2.454-7.663,4.031-9,8c-0.182,0.182-0.665,0.302-0.64,0.559
			C44.422,74.203,44.744,74.643,45,75c-0.043,0.326,0.076,0.681,0,1h-1c-1.634-2.19-2.756,0.817-3.9,1.997
			c-1.193,1.23-2.549,3.274-4.163,3.966c-2.265,0.971-3.239,2.964-4.253,4.884c-0.55,1.042-2.885,1.689-2.642,3.389
			c-0.232,0.391-1.189,1.236-0.882,1.795l-1.029,0.121c-1.157-2.236-2.192,0.894-3.228,1.688c-2.49,1.906-5.546,3.788-6.142,7.034
			c-2.964-0.799-3.314,3.474-5.013,4.307C10.01,106.523,8.096,108.643,6,111c-0.884,0.994-2.709,1.42-3,3
			c-0.431,0.022-0.934,0.177-1.02,0.541c-0.165,0.7-0.009,1.45,0.98,1.451L32,116h10h8c0.649,0,1.347,0.039,2,0
			c1.66-0.099,4.049,0.708,5-1h1c1.017,1.265,13.903,2.416,16-1c-2.75,3.114,12.481,2.431,14.911,0.9
			c0.617-0.389,0.725-1.458,1.115-2.016c0.812,0.479,1.321,2.019,2.472,2.47c3.163,1.239,6.488,0.405,9.502,0.646
			c0.331,0.026,0.668,0,1,0h16c2.452,0,4.918,0.225,7.803-0.137c0.823-5.84,4.75-12.788,3.144-16.613
			C133.347,93.462,134.301,86.481,136,80c0.441-1.684,1.902-3.275,1.756-5.244C137.718,74.25,137.86,73.462,138,73
			c0.469-0.603,0.891-1.21,1-2c1.202-8.72,6.73-20.335,4-23c1.499-0.049,1.99-0.743,2.464-2.572
			c1.055-4.067,4.508-11.287,0.567-12.402c-0.341-0.77-0.811-1.674-1.441-2.333c-3.49-3.653-6.298-8.742-11.404-9.724
			c0.182-3.106-1.925-4.936-4.165-6.549c-1.438-1.035-1.617-4.174-3.919-4.491c-0.153-0.81-0.61-1.466-1.113-2.092
			c-1.098-1.366-2.766-1.964-4.15-2.864c-0.752-0.489-0.479-2.768-1.906-3.262C116.332,1.156,115.973,2.994,114.995,3.945z"/>
		<path style="fill:#262626;" d="M98,25c1.371-0.025,1.434,1.872,1,3c0.996,0.997,0.651,3.543,0,5c2.647,0.196,2.563,1.379,0.766,3
			c1.076,0.689,1.054,3.116,0.436,4.278c1.991,1.578,2.249,2.799,0.774,3.661c1.407,1.635,2.587,3.206,0.353,4.353
			c0.665,1.66-0.445,1.562-3.329-0.292c-1.522,0.255-3.189,0.516-5,0.782c-0.94,1.234-4.306,0.782-6,0.218c0.02,1.25-1.314,1.25-4,0
			c1.807,1.94-2.419,1.265-3.47,0.146c-0.615-0.655,1.21-8.267,3.452-7.934c0.681-0.946,0.808-2.316,0.379-4.11l5.335-6.747
			c2.086-3.819,5.784-6.901,9.176-9.42C99.181,21.188,99.224,22.543,98,25z"/>
		<path style="fill:#131313;" d="M125.052,99.144c3.89,0.202,3.633,4.111,1.145,6.306c0.453,2.502-0.508,4.342-3.198,3.549
			c-0.516,1.755-1.28,3.088-2.291,4c1.762,1.94,0.668,2.461-1.709,3h-16c-0.588-2.774-1.097-7.7,0-10l0.803-2.67l11.397-7.946
			L118,96c0.761-2.591,1.737-2.834,2.927-0.73C123.235,93.675,125.555,96.823,125.052,99.144z"/>
		<path style="fill:#313131;" d="M136.016,28.37c1.272-2.259,1.77-1.866,1.984,0.63c2.918,1.014,5.595,2.356,8.031,4.026
			c3.941,1.115,0.488,8.335-0.567,12.402c-0.475,1.83-0.966,2.523-2.464,2.572c0.202,2.96-1.314,3.492-3,1
			c-0.777,1.436-2.11,0.769-4-2c-2.667,1.492-11.053-3.862-9-7c-2.368-1.23-2.702-2.23-1-3l2-5
			c-3.208-1.285-0.818-5.672,2.257-5.034C130.864,25.376,132.783,25.844,136.016,28.37z"/>
		<path style="fill:#171717;" d="M94,98c3.063-1.195,4.896,0.982,4,4c4.44,4.167,5.764,7.898,4,14
			c-3.014-0.241-6.339,0.593-9.502-0.646c-1.151-0.451-1.661-1.991-2.472-2.47c-1.985,0.498-2.521-0.596-1.026-1.885
			c-2.566-4.232-5.003-8.452-7.312-12.659l1.965-1.286C82.378,94.237,85.464,92.672,88,94l2.15-1.478
			C91.148,94.486,92.431,96.312,94,98z"/>
		<path style="fill:#181818;" d="M133.929,77.123c2.026-0.902,2.716,0.057,2.071,2.877c-1.699,6.481-2.653,13.462-6.052,19.249
			c-0.951,2.728-3.576,2.424-4.895-0.105c-1.701-0.408-3.125-2.607-4.126-3.874c-1.695-0.533-2.198-3.872,0.073-4.27
			c-1.509-1.32-0.854-1.97,1-1c0.45-2.349,1.45-4.016,3-5c-0.294-0.482-0.525-0.966-0.535-1.454
			c-0.033-1.623-0.104-7.209,0.062-8.206c0.111-0.666,0.796-1.061,1.473-1.34l1.186-0.739
			C129.347,74.784,131.595,76.071,133.929,77.123z"/>
		<path style="fill:#313131;" d="M139,71c-1.578,1.494-2.713-0.004-3-2c-2.692-0.808-4.528-6.699-3-9c-3.005-0.936-2.537-1.728,0-3
			c-1.824-2.463,0.192-4.61,3.173-3.827c1.055-2.512,2.331-3.903,3.827-4.173c1.082,0.224,2.038-0.969,3-1
			C145.73,50.665,140.202,62.28,139,71z"/>
		<path style="fill:#C0C0C0;" d="M88.696,30.354C89.213,29.407,76.874,54.182,83,49l8.443,2.71L91,54l-2.161,1.822
			C84.558,52.905,80.611,51.965,77,53c-0.795,2.18-3.135,7.501-4.693,8.76C71.164,62.682,70.543,62.941,69,62
			c-2.511-0.928-1.796-2.794-0.247-4.647L68,56c-1.808-2.34-1.145-3.174,1.598-2.121l1.241-0.887C69.835,51.621,69.555,50.291,70,49
			c0.072-0.304-0.117-0.714,0-1c1.3-0.948,3.255-1.654,4,0c1.135,2.58,1.135,2.58,0,0c-2.547,0.061-2.705-0.885-1-2.656L74,45
			c0.998-0.605,1.665-1.605,2-3c0.714-0.457,0.929-1.837,2-2c0.297-0.244,0.598-0.438,0.91-0.459
			c1.879-0.127,3.096,1.388,0.815,0.42C79.405,39.825,79.188,39.447,79,39C79.406,37.938,87.47,30.277,88.696,30.354z"/>
		<path style="fill:#454545;" d="M76,109c0.886,0.184,0.849,0.524,0,1c2.116,2.475,1.223,4.205-2,4c-2.097,3.416-14.983,2.265-16,1
			c-3.263-1.048-2.17-4.242,1-3c-0.437-3.81,1.401-4.925,5.514-3.343c3.553,0.072,7.313,0.137,10.094-1.094
			C75.095,107.348,75.738,108.25,76,109z"/>
		<path style="fill:#BDBDBD;" d="M73,72c0.892,0.227,0.866,0.564,0,1c1.452,1.231,0.884,1.6-0.892,0.871
			C71.38,75.038,71.377,75.874,72,77l0.958,0.226c4.111,0.202,7.069,9.046,3.916,11.688c-2.614,1.637-6.871-3.795-5.01-6.142
			c-2.165-1.017-2.645-3.602-3.007-5.772c-2.172-1.383-3.728-3.678-4.667-6.887c-0.521,1.04-0.968,0.77-1.341-0.811
			c-0.464,2.021-2.457,3.415-5.978,4.183C57.808,75.306,57.851,76.811,57,78c-1.398,2.642-2.912,2.307-3.008-0.717
			c-1.579-1.317-2.368-1.976-2.368-1.976C48.869,76.121,46.661,76.019,45,75c-0.256-0.357-0.578-0.797-0.64-1.441
			C44.335,73.302,44.818,73.182,45,73l7.389-5.182l1.534,0.302c1.651,0.694,2.956,0.782,4.937-0.028
			c0.628-1.655,2.435-2.668,5.424-3.039C65.418,61.491,66.991,60.473,69,62c1.997,0.698,1.894,2.606-0.31,5.725
			C68.895,70.455,70.799,71.173,73,72z"/>
		<path style="fill:#393939;" d="M115,21c2.164,1.463,1.579,2.204-1,2l-0.297,1.154c-4.255,0.741-8.639-0.145-13.152-2.659
			c-1.687,2.253-2.636-0.745-1.543-2.65c1.507-1.05,2.789-2.334,3.843-3.837c2.933-1.142,11.507,2.348,13.591,4.052
			C116.921,19.452,116.028,20.579,115,21z"/>
		<path style="fill:#1D1D1D;" d="M129.948,99.249c1.605,3.825-2.321,10.773-3.144,16.613C123.918,116.225,121.452,116,119,116
			c0.417-1.081,0.952-2.117,1.709-3c0.989-1.004,1.752-2.337,2.291-4c1.116-0.992,1.521-2.515,1.413-4.267
			c1.933-1.574,1.96-3.897,0.639-5.588C126.539,99.152,128.388,98.991,129.948,99.249z"/>
		<path style="fill:#898989;" d="M24.176,106c3.153-0.225,4.791,0.49,4.915,2.146c1.204,1.299,2.077,3.417-0.091,3.854
			c-0.635,1.098-0.114,1.968,1.564,2.612c1.657-1.839,2.704-0.738,1.436,1.388l-29.04-0.009c-0.99,0-1.145-0.751-0.98-1.451
			C2.066,114.177,2.569,114.022,3,114c1.99-0.367,2.577-1.049,3-3c2.096-2.357,4.01-4.477,6.748-5.819
			c2.916-0.211,3.028,3.092,0.278,3.932C7.209,112.667,9.986,114.742,16,112c1.912-1.959,2.536-1.664,2,1
			c1.909,0.537,4.144,1.164,2.992-1.877c-2.887-1.6-0.387-4.562,2.008-2.123c3.284,1.445,3.284,1.445,0,0
			c-2.713,1.297-5.303-4.082-3-6C22.174,100.787,24.71,103.266,24.176,106z"/>
		<path style="fill:#323232;" d="M57,106c3.672,0.881,4.339,2.881,2,6c-0.888,0.641-1.204,1.895-1,3h-1
			c-1.481,0.714-3.726,0.913-5,0c-1.334,0.523-1.877-0.993-1-2c-1.518-0.481-2.482-1.979-1-3c-0.536-2.995-0.678-5.801-0.426-8.419
			l1.507,0.356C53.399,100.045,56.681,103.382,57,106z"/>
		<path style="fill:#171717;" d="M17.761,100.874c2.291-1.132,2.947-0.249,2.239,2.126l3,6c-0.938-0.025-1.731,1.401-2.008,2.123
			c2.843,2.386-1.083,3.991-2.992,1.877c-0.687-0.125-1.306-0.965-2-1c-1.693,3.238-5.419-0.071-2.974-2.887l-0.278-3.932
			C14.447,104.348,14.797,100.075,17.761,100.874z"/>
		<path style="fill:#282828;" d="M26,94c0.416-0.765,0.72-0.632,0.927,0.286c0.165,1.164-0.177,2.42-1.029,3.769
			c4.891-1.741,6.133,6.903,1.189,6.084c1.07,2.451-1.066,3.392-2.911,1.861c-1.609-0.69-2.659-2.176-4.176-3
			c-0.935-0.508-1.83-1.072-2.239-2.126c0.595-3.246,3.652-5.128,6.142-7.034C25.405,92.583,26.104,92.636,26,94z"/>
		<path style="fill:#474747;" d="M85.286,111c2.1-1.014,3.795,2.039,3.625,3.9c-2.43,1.531-17.661,2.214-14.911-0.9
			c0.779-1.268,1.642-2.482,2-4c2.113-0.442,6.58-0.932,8.686-0.549C84.971,109.503,85.144,110.165,85.286,111z"/>
		<path style="fill:#1C1C1C;" d="M44,76c2.209,4.73,3.321,10.06,2.289,14.974c-2.334,1.117-9.812,1.431-6.504-1.974
			c-0.968-0.766-0.563-2.1,1.215-4c1.146-1.856,0.344-3.8-1.812-3.452c-0.549-0.861-0.245-2.044,0.911-3.55
			C41.244,76.817,42.366,73.81,44,76z"/>
		<path style="fill:#2D2D2D;" d="M41,85c-0.88,2.176-1.914,3.157-3.1,2.945c0.939,1.675-0.383,2.947-3.966,3.814
			C34.185,93.81,33.345,93.308,32,92c-1.429,3.398-3.598,1.013-2.958-1.764c-0.243-1.7,2.092-2.347,2.642-3.389
			c1.014-1.92,1.988-3.913,4.253-4.884c3.01-1.544,5.076-1.18,6.198,1.092L41,85z"/>
		<path style="fill:#C0C0C0;" d="M105.152,13.78c1.56-2.098,5.231-1.591,5.848,0.929c2.736,1.505,3.57,1.367,6-0.709
			c2.254-3.17,6.41,0.899,3,3c-0.175,1.596-1.679,0.818-1.665,0.193c0.01-0.448,3.612,2.09,3.665,2.807
			c0.967-0.237,1.988,0.149,3.06,1.157c2.064-0.678,5.108,0.705,5.751,2.827c1.658-2.562,6.657,1.834,5.205,4.386
			c-1.87-0.672-3.745-1.533-5.759-1.404l-2.026,0.78c-4.543-2.25-8.953-4.498-13.231-6.746c1.654-2.169-10.876-6.656-12.15-5.992
			C103.348,14.299,104.419,14.099,105.152,13.78z"/>
		<path style="fill:#242424;" d="M125.102,9.929c2.302,0.317,2.48,3.456,3.919,4.491c1.215,1.904,0.501,2.302-1.021,0.58
			c-3.098,3.263-5.431,3.93-7,2c-0.183,0.89-0.523,0.853-1,0c0.174-1.66-1.508-2.645-3-3c-2.128-0.711-1.154-2.818,1-3
			c1.125-1.468,1.573-1.937,2,0c0.252-2.144,0.779-2.718,1.336-0.67L123,10.186C122.746,8.96,124.483,8.603,125.102,9.929z"/>
		<path style="fill:#B1B1B1;" d="M34.132,100.012c2.696,1.26,2.595,3.544-0.47,4.08c-1.656-0.584-1.644-0.083,0.034,1.504
			c0.926,0.187,1.044,0.607,0.357,1.26c0.191,2.921,1.147,5.302,2.869,7.144c1.828,0.093,4.599,0.302,5.079,2H32
			c-0.348-0.433-0.833-1.325-1.436-1.388c-0.881-0.124-0.844-0.375,0.026-0.74c-0.189-1.865-0.689-3.774-1.5-5.726
			c-1.73-0.381-2.398-1.716-2.004-4.007c0.545-1.049,2.026-2.381,1.803-3.576c-0.189-1.013-2.071-1.906-2.992-2.508
			c0.109-1.376,0.452-2.632,1.029-3.769C26.685,94.139,26.282,94.022,26,94c-0.976-0.856-0.118-2.019,1.131-1.848l1.029-0.121
			c2.177,0.427,3.434,2.296,3.771,5.606C33.257,98.003,33.991,98.794,34.132,100.012z"/>
		<path style="fill:#282828;" d="M116,10c1.542,2.415-1.54,4.609-4,4c0.129,0.881-0.206,1.116-1,0.709
			c-2.005,0.353-4.014-0.087-5.848-0.929c2.329-4.084,6.504-6.591,9.843-9.835C117.41,5.201,117.999,8.02,116,10z"/>
		<path style="fill:#2F2F2F;" d="M144.591,30.693c-1.749,0.556-3.946-0.008-6.591-1.693c-0.749,0.106-1.343-0.4-1.984-0.63
			l-5.205-4.386c-3.108-1.586-0.377-5.091,2.375-3.016C138.293,21.951,141.1,27.04,144.591,30.693z"/>
		<path style="fill:#B6B6B6;" d="M47.129,80.667c2.975,0.553,3.757,4.363,1.425,6.194c-1.578-0.737,0.504,5.618,1.48,2.451
			C52.373,88.898,56.492,90.023,58,92c1.106,2.81-3.608,4.362-6,4c-1.287-0.679-2.295-0.292-3,1c0.471,1.954,0.084,2.287-1.163,1
			c-2.781-0.073-2.735-1.657-1.837-4c-2.159-1.017-1.889-1.319,0.26-2.094c-0.943-0.206-0.904-0.52,0.029-0.932
			C45.788,85.94,44.176,81.085,44,76h1C47.459,76.368,49.253,78.555,47.129,80.667z"/>
		<path style="fill:#181818;" d="M133.186,20.969c-1.106,0.733-2.225,1.62-2.375,3.016c-2.159,0.112-4.776-0.507-5.751-2.827
			c-1.394-0.101-1.891-1.022-1.06-2.157c-0.83-0.718-0.453-1.272,1.132-1.661L128,15c0.319,0.013,1.353,0.12,1.021-0.58
			C131.262,16.032,133.368,17.862,133.186,20.969z"/>
		<path style="fill:#343434;" d="M53.992,77.283c1.691,2.569-5.074,5.757-6.864,3.383C46.839,79.142,44.544,77.898,45,76
			c0.076-0.319-0.043-0.674,0-1c1.968-0.819,4.155-1.967,6.718-1.645C53.818,73.618,54.072,75.823,53.992,77.283z"/>
		<path style="fill:#181818;" d="M32,92c3.012,0.099,4.012,1.432,3,4c1.355,0.315,1.021,3.856-0.868,4.012
			c-1.022-0.13-3.243,0.237-3.851-1.134c-1.073-2.421-1.03-4.862-2.121-6.846c-0.307-0.559,0.65-1.404,0.882-1.795
			C29.091,91.741,30.779,92.152,32,92z"/>
		<path style="fill:#545454;" d="M63,56c2.128,0.489,2.461,1.156,1,2c1.754,3.222-3.776,8.876-7,7c0.614,2.314-2.903,2.289-3,0
			C56.511,62.271,58.493,56.636,63,56z"/>
		<path style="fill:#191919;" d="M119.84,4.974C121.09,6.211,120.576,6.778,119,6c0.822,1.767,0.991,4.58-1,5
			c-1.635,2.554-3.071,1.847-2-1c-0.661-1.966-1.427-3.967-1.005-6.055c0.978-0.951,1.337-2.789,2.939-2.234
			C119.361,2.206,119.088,4.485,119.84,4.974z"/>
		<path style="fill:#3B3B3B;" d="M54,65c2.64,1.177,2.508,1.952-0.077,3.12C51.153,70.476,48.826,73.264,45,73
			C46.337,69.031,51.741,67.454,54,65z"/>
		<path style="fill:#1D1D1D;" d="M49.052,112.816C50.74,113.497,51.506,114.8,50,116h-8c-1.635,0-3.467-1.592-5.079-2
			c0.416-2.028,3.816-1.288,5.079,0c1.497-0.371,3.17-0.724,5.018-1.058c-1.265-1.47-0.71-2.009,1.052-1.108
			C49.49,110.596,49.995,111.149,49.052,112.816z"/>
		<path style="fill:#C2C2C2;" d="M135,73c1.279-0.569,2.157,0.595,2.756,1.756c0.146,1.969-1.315,3.56-1.756,5.244
			c-0.776-0.896-1.547-1.807-2.071-2.877c-0.97-0.377-6.43-3.001-6.437-3.633C127.486,72.996,127.71,72.498,128,72
			C128.178,68.257,133.527,70.957,135,73z"/>
		<path style="fill:#484848;" d="M70,49c1.116,1.368,3.054,2.018,3.862,3.509c-0.801,0.637-0.762,2.333-1.393,2.429
			c-0.936,0.143-1.984-0.716-2.871-1.058C67.232,55.414,66.448,54.261,68,52c-0.053-0.688-0.084-1.431,0.319-2.136
			C68.608,49.357,69.338,49.099,70,49z"/>
		<path style="fill:#4D4D4D;" d="M68,52l1.598,1.879C68.731,54.28,68.456,55.243,68,56c-2.07,1.076-3.737,1.076-5,0
			C63.835,54.116,65.166,50.085,68,52z"/>
		<path style="fill:#525252;" d="M89,111c0.589,0.288,0.48,1.562,1.026,1.885c-0.39,0.557-0.498,1.627-1.115,2.016
			c-2.159-0.297-1.926-2.976-3.625-3.9c-2.724-1.247-2.976-1.436-0.286-3C85.766,105.957,87.099,106.957,89,111z"/>
		<path style="fill:#868686;" d="M103,106v10c-0.332,0-0.669,0.026-1,0c0.752-14.485-2.327-6.945-4-14
			C100.189,99.906,104.278,103.355,103,106z"/>
		<path style="fill:#3F3F3F;" d="M123.99,7.837c0.501,0.494,0.171,1.277-0.99,2.349c-0.814,0.782-1.929,0.846-3,0.814
			c-0.458-1.371-0.791-3.038-1-5c-0.024-0.449,0.475-0.872,0.84-1.026C121.224,5.873,122.892,6.471,123.99,7.837z"/>
		<path style="fill:#535353;" d="M74,45c-0.057-1.522,0.895-2.292,2-3c1.494,2.03,2.131,4.966,1.691,8.096
			C76.463,48.107,75.964,46.01,74,45z"/>
		<path style="fill:#979797;" d="M41,85c0.092-0.775,0.347-2.994-0.724-2.947c-1.996,0.089-3.264,0.933-4.339-0.09
			c1.614-0.692,2.97-2.736,4.163-3.966c-0.19,0.981-0.291,2.159,0.484,2.878c0.816,0.758,1.888,0.601,3.58,1.604
			C42.622,82.722,42.052,84.534,41,85z"/>
		<path style="fill:#343434;" d="M3,114c0.291-1.58,2.116-2.006,3-3c1.113-0.104,1.02,0.994,1.035,1.574
			c0.031,1.16,0.209,2.882-1.517,2.474C4.649,114.842,2.992,115.48,3,114z"/>
		<path style="fill:#C0C0C0;" d="M144.591,30.693c0.63,0.659,1.1,1.563,1.441,2.333C143.15,32.29,140.15,31.087,138,29
			C140.435,28.656,142.238,30.655,144.591,30.693z"/>
		<path style="fill:#525252;" d="M78,40c0.349-0.053,0.874-0.67,1-1l4.164-0.644c0.287,2.977-1.241,2.857-2.642,2.675
			C79.748,40.929,78.207,41.299,78,40z"/>
		<path style="fill:#474747;" d="M74,48c-1.358,0.26-2.804,1.032-4,0c0.538-1.318,1.679-2.202,3-2.656
			C73.592,46.036,74.092,47.047,74,48z"/>
		<path style="fill:#B3B3B3;" d="M114,23c2.651,0.906,2.691,2.041,0,3c-1.85,1.049-4.101,1.383-6.753,1l-6.348-2.836
			C100.726,23.493,100.093,23.438,99,24c0.332,1-0.001,1.333-1,1c0.048-1.355-0.057-2.714-0.129-4.066
			c0.267-0.684,0.486-1.636,1.136-2.089C96.118,20.576,113.081,26.03,114,23z"/>
		<path style="fill:#414141;" d="M138,73c-0.14,0.462-0.282,1.25-0.244,1.756c-0.589,0.143-1.347,0.334-1.967-0.067
			c-0.503-0.326-0.68-1.092-0.789-1.688c-0.984-1.392-0.437-1.901,1-1C136.932,70.524,138.714,71.353,138,73z"/>
		<path style="fill:#A4A4A4;" d="M51,113c0.275,0.646,1.125,1.142,1,2c0.864,0.246,0.841,0.582,0,1c-0.653,0.039-1.351,0-2,0
			c-0.193-1.09-0.457-2.184-0.948-3.184C49.261,110.751,50.189,111.239,51,113z"/>
		<path style="fill:#ACACAC;" d="M139,71c-0.109,0.79-0.531,1.397-1,2c-0.318-0.81-1.2-1.023-2-1c-2.855-0.867-2.418-1.532,0-3
			C136.706,70.048,137.703,70.9,139,71z"/>
		<path style="fill:#878787;" d="M125.102,9.929L123,10.186c-0.69-0.317-1.589,0.201-2.074-0.876
			c1.576-0.44,2.522-0.559,3.064-1.473C124.493,8.463,124.95,9.119,125.102,9.929z"/>
		<path style="fill:#252525;" d="M27.131,92.152L26,94l-2.097-0.16C24.939,93.047,25.974,89.916,27.131,92.152z"/>
		<path style="fill:#454545;" d="M57,115c-0.951,1.708-3.34,0.901-5,1c0.026-0.33-0.047-0.673,0-1H57z"/>
		<path style="fill:#434343;" d="M107.247,27c1.896,2.555,0.546,10.066-2.53,11.27c-2.431,5.267-3.628,5.904-3.591,1.911
			c-0.35-3.03-0.803-4.424-1.36-4.181C99.019,35.165,99,34.062,99,33c0.355-1.716,0.688-3.383,1-5c-1.174-0.486-1.127-2.668-1-4
			c-0.141-1.212,0.233-2.245,1.47-2.081C100.088,21.868,108.876,24.132,107.247,27z"/>
		<path style="fill:#404040;" d="M98,48c2.783-0.036,3.874,0.653,3.275,2.067L102,52c3.356-1.557,4.308,3.159,2,5l0.925,3.128
			C100.752,60.664,96.777,58.954,93,55c-1.807,1.796-2.161,1.488-2-1c-2.177-2.232-5.561-3.167-8-5h4
			c1.916,0.795,10.048,0.708,6-0.218C93.84,47.826,96.654,47.465,98,48z"/>
		<path style="fill:#A8A8A8;" d="M102.853,43.543l2.466,0.797c1.945-1.009,3.36-1.488,4.681,0.66l2.344,3.177
			c3.24,2.04,4.458,3.981,3.656,5.823c2.502,1.303,2.866,2.045,0,3l-2.422,0.38c-2.146-2.914-4.596-5.343-7.35-7.288
			c-1.371-0.365-2.781,0.272-4.228,1.909c-1.424-0.985-2.308-3.327-4-4c0.952,0.032,2.475,0.453,2.844-0.641
			c0.366-1.086,0.12-2.283,0.132-3.419C100.514,41.488,102.015,40.932,102.853,43.543z"/>
		<path style="fill:#868686;" d="M102.853,43.543c-0.481-1.318-1.132,0.906-1.877,0.396c-0.693-1.088-0.739-2.403-0.774-3.661
			c0.111-0.898,0.424-0.907,0.924-0.097c0.366,0.564,0.601,1.315,1.313,1.505c0.49-1.722,0.89-3.18,2.278-3.416
			C107.849,39.284,105.969,44.872,102.853,43.543z"/>
		<path style="fill:#C0C0C0;" d="M93,48.782c1.653-0.06,3.493-0.165,5.102,0.829C96.9,50.154,85.36,50.523,87,49L93,48.782z"/>
		<path style="fill:#7C7C7C;" d="M100,28c-0.284,0.873-0.618,0.86-1,0c-0.871-0.768-1.039-1.896-1-3c0.391-0.271,0.719-0.617,1-1
			C100.481,24.65,100.048,26.651,100,28z"/>
		<path style="fill:#BBBBBB;" d="M101.126,40.181l-0.924,0.097L99.766,36c0.133-0.379,0.296-1.029,1.163-0.967L101.126,40.181z"/>
		<path style="fill:#BBBBBB;" d="M99,33v-5h1C99.94,29.662,100.69,32.048,99,33z"/>
		<path style="fill:#151515;" d="M108,85c1.218-0.75,3.004-0.781,3,1l4.139,2.934c2.902-1.408,4.542,0.512,2.701,3.184
			c2.787-0.676,2.814,3.334,0.16,3.882c-5.213,3.045-9.537,7.404-15,10l-5-4c-1.435-1.148-2.549-3.014-4-4
			c-2.783-2.791-4.174-4.187-4.174-4.187C90.805,90.667,92.197,87.729,94,85l0.299-0.932C99.002,84.319,103.569,84.629,108,85z"/>
		<path style="fill:#828282;" d="M121,91l-0.073,4.27c-0.693,0.878-2.144,0.273-2.927,0.73c1.445-1.365,0.511-2.552-0.16-3.882
			C116.699,89.042,119.418,88.359,121,91z"/>
		<path style="fill:#828282;" d="M120.709,113c0.385-1.524,0.91-3.131,2.291-4c-0.056,1.573-0.368,3.002-1.234,4.986
			C121.12,113.956,120.893,113.359,120.709,113z"/>
		<path style="fill:#323232;" d="M127,40c2.428,3.042,6.235,4.28,9,7c2.986,1.091,3.043,3.149,0.173,6.173
			C134.91,54.248,134.054,55.777,133,57c-1.166,2.341-4.062,2.089-8.688-0.756L119,55c-0.889,2.675-2.534,1.371-3-1
			c1.254,0.418-10.009-6.457-6-9c-0.74-2.44,0.086-2.584,2-1l5-3c-1.861-2.313,0.992-3.969,3-2C123.264,37.74,125.597,38.073,127,40
			z"/>
		<path style="fill:#2C2C2C;" d="M130.257,26.966c-0.811,1.7-2.137,3.101-2.257,5.034l-2,5c0.083,2.285-3.192,1.807-5,1
			c-0.714,0.298-1.757,0.694-2.165,0.259C117.074,36.379,111.975,28.06,114,26c0.159-0.968-0.229-2.048,0-3
			c0.143-0.595,0.669-1.507,1-2C114.655,17.964,130.521,26.053,130.257,26.966z"/>
		<path style="fill:#9E9E9E;" d="M140,49c-0.856,1.749-2.379,2.941-3.827,4.173c-0.148-1.401,0.798-2.517,1.61-3.831
			C136.998,48.35,136.44,47.697,136,47C136.901,47.886,139.248,47.605,140,49z"/>
		<path style="fill:#B8B8B8;" d="M127,40c-1.9-1.018-4.903-0.995-7-1c-1.258-1.489-0.711-2.035,1-1c1.733,0.096,3.509-0.068,5-1
			C126.085,38.063,126.471,39.083,127,40z"/>
		<path style="fill:#A7A7A7;" d="M126,37c-0.153-1.903,0.417-3.857,2-5C128.038,33.883,127.688,35.945,126,37z"/>
		<path style="fill:#212121;" d="M94,83c1.634,1.042,2.003,1.612,0,2c-1.791,2.824-3.228,5.839-4.31,9.044L88,94
			c-1.274,1.363-2.946,1.841-4.346,3.055l-0.75,1.154c-1.968-1.81-3.599-4.22-4.895-7.232c-1.416,0.563-1.292-0.714-1.135-2.064
			c-0.488-4.046-1.862-8.169-3.916-11.688c-0.679-0.261-0.521-2.393-0.163-2.758c0.748-0.763,19.489,5.085,20.291,5.79L94,83z"/>
		<path style="fill:#B9B9B9;" d="M83.654,97.055C83.441,102.612,88.309,106.115,89,111c-1.584-0.775-1.909-3.148-4-3
			c-1.895-0.847-3.203-2.775-3.924-5.784l-2.312-1.292c-2.406-0.128-3.156-2.066-1.402-3.798c1.779-1.276-0.5-5.63-1.362-5.126
			c-2.468-1.767-2.153-2.876,0.874-3.087C82.133,95.36,80.069,95.897,83.654,97.055z"/>
		<path style="fill:#7F7F7F;" d="M94,98c-2.083-1.415-3.526-3.82-6-4c2.541-2.718,2.812-6.969,6-9l-2.852,8.003
			C90.569,94.627,94.579,96.005,94,98z"/>
		<path style="fill:#171717;" d="M122,70c1.024,0.704,1.171,2.378,0.441,5.024c-0.215,3.944,0.02,7.719,0.704,11.324L122,90
			c-0.42,0.168-0.638,0.744-1,1c-1.046,0.607-2.505,0.04-3.16,1.118c-0.736-1.457-1.517-2.199-2.701-3.184L111,86
			c-2.195-0.678-1.91-1.891,0-3l2-5l2-5c-1.631-1.771-1.264-2.3,1-3c0.401-1.43,1.002-2.403,2-1
			C118.768,67.54,122.305,68.048,122,70z"/>
		<path style="fill:#171717;" d="M126,73c0.9,0.183,0.863,0.522,0,1c0.86,3.926,1.753,7.938-1,11
			c-1.216,1.914-2.069,2.417-2.559,1.507c-0.446-0.628,0.039-14.72,0.435-15.381c0.117-0.196,0.573-0.19,1.124-0.126
			C125.545,70.641,126.788,71.497,126,73z"/>
		<path style="fill:#949494;" d="M124,70c0.883,0.224,0.856,0.561,0,1c-2.398,4.448-0.232,9.63-1.118,14.961L125,85
			c-1.142,1.271-0.926,4.169-3,5V70C121.338,68.458,122.005,68.458,124,70z"/>
		<path style="fill:#181818;" d="M128,72c1.994,2.954,5.837,1.851,5.929,5.123c-3.205,0.769-5.58-1.092-7.929-3.123
			c-0.069-0.316,0.047-0.679,0-1C124.901,70.786,126.103,70.875,128,72z"/>
		<path style="fill:#424242;" d="M133,60c1.803,2.607,2.72,5.852,3,9c0.088,0.988-0.031,2.008,0,3c0.015,0.484-0.601,0.89-1,1
			c-2.456,1.479-4.433-1.54-7-1c-1.563-0.17-2.993-0.667-4-2c-3.424-0.301-3.553-3.748-1-4c-1.325-1.405-0.767-1.92,1-1l6-5
			C129.812,58.078,132.918,57.866,133,60z"/>
		<path style="fill:#A9A9A9;" d="M133,57v3c-0.899-0.687-2.074-0.616-3,0c-1.92,0.372-3.722-0.023-5.407-1.184
			c-3.566-0.475-5.43-1.747-5.593-3.816C123.386,54.12,130.435,59.977,133,57z"/>
		<path style="fill:#1A1A1A;" d="M91,54c0.749-0.04,1.444,0.668,2,1c4.298,0.824,5.271,4.752,3,8c1.489,1.376,0.835,1.984-1,1
			c0.341,3.05-1.326,3.717-5,2c-2.275-0.252-3.942-0.919-5-2c-1.54,1.765-2.555,1.28-2-1c-1.951-0.916-3.284-2.583-4-5
			c-2.756,0.32-3.505-3.054-2-5c0.378-1.024,0.867-2.374,1.938-2.695C83.051,49.07,86.005,54.264,91,54z"/>
		<path style="fill:#1F1F1F;" d="M77,53c1.247,1.155,1.598,3.26,2,5c1.241,1.638,1.677,3.102,1.31,4.394
			c3.673,1.448,0.432,4.357-2.36,3.556c0.722,1.187,0.072,2.204-1.95,3.05c2.038,2.745-0.179,4.764-3,3
			c-0.603,0.234-1.841,1.761-2.99,1.12c-1.715-0.957-3.698-3.82-3.266-5.769C67.208,65.257,68.922,63.893,69,62
			C73.224,59.551,73.146,52.713,77,53z"/>
		<path style="fill:#333333;" d="M69,62c-4.511,2.616,0.172,5.736-10.14,6.093C55.923,67.01,55.302,65.979,57,65
			c2.758-1.82,5.068-4.347,7-7c0.39-1.084,1.724-1.751,4-2c1.167,0.136,2.338-0.357,4.104,0.313C70.448,58.015,69.091,59.796,69,62z
			"/>
		<path style="fill:#2C2C2C;" d="M82.013,42.356c-1.061,1.863-1.657,3.753-2.522,5.704c-0.74-1.926-1.491-3.175-1.49-5.228
			C78.002,41.625,79.695,41.762,82.013,42.356z"/>
		<path style="fill:#1A1A1A;" d="M74,48c0.735-0.141,1.639,1.069,2,1.569c0.491,0.68-0.593,1.8-1.407,1.456
			c-0.42-0.178-0.987-0.903-1.48-1.487C72.811,49.179,73.94,48.621,74,48z"/>
		<path style="fill:#A5A5A5;" d="M76,96c0.193,1.513-0.747,2.289-2.819,2.329c-1.008,1.843,1.29,6.662,2.378,4.219L78,103
			c3.543,1.277,1.534,5.694-2,6l-14.95,0.132c-1.255,0.011-1.394,2.393-2.05,2.868c0.44-2.251-0.557-4.294-2-6
			c1.299-2.053,2.68-2.206,4,0c2.192,1.037,4.591,1.21,7.196,0.518c-2.852,0.79-5.251,0.618-7.196-0.518
			c-0.841-0.328-0.839-0.661,0-1c0.718-2.189,3.162-3.163,7.332-2.924C67.273,99.794,67.162,97.769,68,96
			c1.827-2.058,5.22-4.099,8-4C77.879,92.251,78.501,95.68,76,96z"/>
		<path style="fill:#A9A9A9;" d="M85.286,111c-3.023-0.895-6.141-1.238-9.286-1c0.074-0.313-0.049-0.68,0-1
			c1.996-2.6,6.348-2.682,9-1L85.286,111z"/>
		<path style="fill:#212121;" d="M84,66c1.547-1.247,3.547-1.247,6,0c2.649-0.234,3.973-0.351,3.973-0.351
			C94.315,67.778,94.657,69.895,95,72c0.318,0.985-0.015,1.319-1,1c-0.402,2.718-0.759,5.381-1.069,7.988
			c-5.889-2.604-11.963-4.808-18.222-6.612C72.932,74.63,72.362,74.172,73,73c0.143-0.257-0.071-0.702,0-1
			c1.259-0.652,2.499-1.621,3-3c1.203-1.397,2.87-2.063,5-2C80.147,64.163,82.57,63.715,84,66z"/>
		<path style="fill:#2B2B2B;" d="M57,78c2.338-1.633,3.36-0.793,2.097,1.808l4.749,3.617c0,0-0.548,1.193-1.644,3.58
			C64.539,88.668,63.803,89.645,61,89c0.564,2.743-0.445,3.186-3,3c-3.2,0.396-6.222,0.172-7.966-2.688
			c-1.777,0.886-2.434-0.984-1.48-2.451c-0.695-2.06-1.029-4.102-1.425-6.194l6.864-3.383C54.886,77.833,56.041,77.772,57,78z"/>
		<path style="fill:#414141;" d="M71,83c-0.038-0.901,0.259-0.956,0.864-0.228l5.01,6.142C76.311,89.847,76,90.908,76,92
			c-1.795,2.751-4.663,4.548-8,4l-5-3c-3.109-0.895-3.776-2.229-2-4c0.606-0.606,0.985-1.198,1.202-1.995
			c-0.097-4.038,0.893-5.447,2.971-4.229C66.852,81.592,68.794,81.667,71,83z"/>
		<path style="fill:#343434;" d="M59.097,79.808C58.627,79.137,57.541,78.603,57,78c-1.157-1.522-3.377-4.325-1.261-6.11
			c2.016-1.701,5.081-1.528,7.109-2.588c0.543,1.921,1.497,12.358,1,13.545c-0.18,0.429-0.696,0.628-1.249,0.5L59.097,79.808z"/>
		<path style="fill:#333333;" d="M68.856,77l-1.113,3.112c0.86,1.931-2.881,3.489-4.411,3.135c-0.65-0.151,0.479-11.65,0.857-13.133
			C67.517,70.287,68.541,74.049,68.856,77z"/>
		<path style="fill:#898989;" d="M94,73c3.127,0.57,2.988,9.161,0,10c-1.059-0.525-1.683-2.194-3.308-2.715l-16.831-5.393
			c-0.735-0.236-0.971,2.097-0.903,2.334C72.834,78.318,71.907,77.967,72,77c-1.093-1.021-1.617-2.701,0.108-3.129
			C72.437,73.707,72.81,73.308,73,73l20.043,6.829C93.11,76.537,92.273,74.288,94,73z"/>
		<path style="fill:#9F9F9F;" d="M64.189,70.113c-0.341,3.919-0.086,7.892,0.312,12.08c3.972,0.281,2.641-6.03,4.355-5.193
			c0.954,1.866,1.884,4.121,2.144,6c-3.828-0.485-7.694-0.04-8.798,4.005c0.7-2.925-1.494-4.898-3.105-7.197
			c1.372,0.372,2.085,1.633,3.822,2.23c0.2-4.997,0.1-8.774-0.071-12.737L64.189,70.113z"/>
		<path style="fill:#474747;" d="M71.864,82.772L71,83c-0.664-0.744-2.439-0.853-2.78-1.83c-0.474-1.355,0.782-2.812,0.637-4.17
			C70.755,77.927,72.263,80.669,71.864,82.772z"/>
		<path style="fill:#3E3E3E;" d="M58.86,68.093c-0.364,1.205-1.584,1.599-2.434,1.823c-1.623,0.427-2.408-0.251-2.503-1.795
			C54.377,65.226,57.223,66.598,58.86,68.093z"/>
		<path style="fill:#232323;" d="M72.108,73.871L72,77c-0.771-0.306-1.231-0.673-1.602-1.023c-0.585-0.553-0.678-1.794,0.193-1.997
			C71.149,73.85,71.742,74.054,72.108,73.871z"/>
		<path style="fill:#131313;" d="M13.026,109.113c0.804,1.255,1.09,2.792,2.974,2.887c-0.007,0.982,0.439,1.662,0.997,2.974
			c-3.205-0.307-6.638,0.826-8.822-0.498c-0.941-1.972-0.011-4.477,1.24-5.177C10.374,108.762,11.975,107.472,13.026,109.113z"/>
		<path style="fill:#191919;" d="M18,113c1.352,0.044,2.507-0.61,2.992-1.877c0.81-0.162,1.526,0.077,2.05,0.38
			c0.866,0.501,0.853,1.417,0.932,2.036c0.248,1.945-1.287,1.5-3.091,1.51c-0.787,0.004-1.594,0.044-2.158-0.233
			C18.219,114.566,17.97,113.759,18,113z"/>
		<path style="fill:#131313;" d="M29.091,108.146c-1.039-0.82-4.285,0.493-4.789-0.763c-0.173-0.431-0.148-0.939-0.125-1.383
			c0.793-0.645,2.403-0.883,2.911-1.861c1.304-0.608,1.716,0.631,1.819,1.355C29.056,106.559,29.109,107.253,29.091,108.146z"/>
		<path style="fill:#222222;" d="M30.591,113.871C28.938,114.53,27.846,113.437,29,112c-0.503-1.317,0.861-2.62,0.091-3.854
			C31.06,109.309,33.428,112.705,30.591,113.871z"/>
		<path style="fill:#1D1D1D;" d="M23,109c1.691,0.045,3.501-0.473,5.383,0.617c-0.507,2.133-2.575,1.401-3.648,1.301
			C23.991,110.848,23.401,109.803,23,109z"/>
		<path style="fill:#222222;" d="M29,112c0.297,0.797,0.731,1.61,1.591,1.871l-0.026,0.74c-0.747-0.041-2.053,0.17-2.5-0.27
			c-0.321-0.316-0.957-1.267-0.919-1.824C27.176,112.064,28.847,112.09,29,112z"/>
		<path style="fill:#2E2E2E;" d="M59,94c1.953-0.182,2.286,0.484,1,2c0.335,3.082,0.668,6.082,1,9c0.063,0.294-0.01,0.724,0,1
			c-1.298,0.119-2.62,1.009-4,0c-2.501-0.496-3.969-2.568-5.919-4.063c-2.03,0.182-2.487-1.227-0.874-2.367
			C49.072,96.22,49.67,95.03,52,96c1.166-2.536,3.774-2.625,6-4C60.81,90.184,61.35,91.502,59,94z"/>
		<path style="fill:#242424;" d="M50,110c0.75,0.795,0.605,2.073,1,3l-1.948-0.184c-0.201-0.409-0.709-0.633-0.982-0.982
			c-2.646,0.817-4.019-0.571-2.029-2.835c-3.161-0.413-2.004-6.189,1.047-5.703c0.121-0.869,0.443-0.851,0.942-0.05
			c1.441-0.019,2.049,4.064,2.247,5.85C50.311,109.384,50.179,109.689,50,110z"/>
		<path style="fill:#BABABA;" d="M50.207,99.57c0.571,0.538,0.447,1.731,0.874,2.367c-3.018,2.328,1.873,7.739-1.081,8.063
			c-1.79-1.897-0.592-4.665-1.969-6.753c-3.011-0.169-2.876-1.46-0.16-2.375c-2.883-0.16-2.686-1.964-0.034-2.871L49,97
			C50.134,96.26,50.537,97.116,50.207,99.57z"/>
		<path style="fill:#262626;" d="M25.898,98.055c-0.781-0.511-1.563-1.224-0.954-2.343c0.323-0.593,1.317-0.932,1.983-1.426
			c0.934,0.571,1.087,1.483,1.144,2.253C28.188,98.141,27.041,98.186,25.898,98.055z"/>
		<path style="fill:#686868;" d="M39.785,89c0.467,3.144,4.065,1.852,6.504,1.974c0.028,0.278-0.155,0.691-0.029,0.932
			C45.387,94.22,39.518,94.237,38,93c-2.031,0.521-2.542,0.281-1.532-0.721c-2.244,2.238-3.088,2.064-2.534-0.52
			c0.408-2.096,2.646-2.587,3.966-3.814C39.395,86.539,40.203,86.99,39.785,89z"/>
		<path style="fill:#A1A1A1;" d="M39.785,89c-0.606-0.391-1.237-0.739-1.885-1.055C38.99,86.932,39.51,85.66,41,85
			C40.848,86.275,40.256,87.749,39.785,89z"/>
		<path style="fill:#9B9B9B;" d="M38,93c-0.208,1.41-1.432,2.868-3,3c-1.383-0.999-2.042-2.631-3-4l1.934-0.241
			c0.225,0.088,0.338,0.724,0.642,0.727c0.687,0.007,0.978-0.829,1.755-1.142C37.214,90.988,37.81,92.394,38,93z"/>
		<path style="fill:#4F4F4F;" d="M117,14c-0.19,1.684,0.45,3.341-0.35,4.913c-2.514-1.572-5.059-1.869-5.65-4.205
			c0.316-0.208,0.61-0.634,1-0.709l1.306,0.128C115.512,12.323,116.744,12.28,117,14z"/>
		<path style="fill:#2C2C2C;" d="M120,17c0.311,0.074,0.682-0.043,1,0c3.133,0.606,3.466,1.606,1,3
			c-1.082,0.052-2.234-0.09-2.986-0.525c-1.205-0.697-1.376-1.797-0.762-3.539C118.97,16.356,119.393,16.855,120,17z"/>
		<path style="fill:#161616;" d="M125.06,21.157c-0.574,0.513-1.425,0.762-1.974,0.344c-0.556-0.423-0.812-0.974-1.086-1.502
			c-0.396-1.825,0.736-2.315,2-1C124.91,19.313,125.23,20.264,125.06,21.157z"/>
		<path style="fill:#8D8D8D;" d="M118,11c-0.563,0.884-0.883,1.964-1,3c-1.741-0.414-4.089,1.981-5,0c2.071-0.399,2.95-2.337,4-4
			C116.306,10.912,117.128,11.044,118,11z"/>
		<path style="fill:#8A8A8A;" d="M128,15c-0.768,1.784-2.596,2.705-4,4c-0.502,0.463-1.342,0.83-2,1c0.034-1.091-0.514-2.056-1-3
			C127.865,17.922,123.695,14.826,128,15z"/>
		<path style="fill:#878787;" d="M120,11c-0.655-0.02-1.346-0.033-2,0c0.952-1.495,1.093-3.257,1-5
			C120.726,6.95,119.869,9.341,120,11z"/>
		<path style="fill:#141414;" d="M37,100c1.363-1.329,1.935-0.67,0.963,1.037c3.38,0.83,3.893,1.751,1.538,2.762
			c0.738,2.359-1.882,5.612-3.501,4.202c-1.796,1.904-2.314,1.431-1.948-1.144c-0.03-0.426-0.383-0.835-0.357-1.26
			c-1.623-0.336-1.695-0.968-0.034-1.504c0.514-1.298,0.152-2.776,0.47-4.08C34.661,97.568,35.617,97.564,37,100z"/>
		<path style="fill:#2A2A2A;" d="M34.052,106.856c0.529,0.451,1.518,0.577,1.948,1.144c2.119-1.133,1.679,2.28,1,4
			c2.234,1.173,2.284,1.232-0.079,2c-0.902,0.153-2.138,1.278-2.713,0.257c-0.738-1.311-2.025-5.464-1.784-6.543
			C32.534,107.221,33.481,107.002,34.052,106.856z"/>
		<path style="fill:#454545;" d="M33.661,104.092c-0.167,0.421,0.062,1.053,0.034,1.504c-1.43,0.06-2.573-0.285-2.681-1.21
			c-0.195-1.681-0.137-4.555,1.491-3.528C33.69,101.84,32.477,103.856,33.661,104.092z"/>
		<path style="fill:#222222;" d="M46.26,91.906C46.626,92.607,46.386,93.344,46,94c0.591,1.452,0.441,1.789-1,1
			c-0.733,1.062-2.067,1.062-4,0c0.233,1.947-0.434,2.281-2,1c-1.186,0.661-4.084,1.617-4,0c-0.1-0.939,0.236-1.92,0.961-2.521
			C36.551,92.99,37.379,93.246,38,93C40.621,91.963,43.485,92.183,46.26,91.906z"/>
		<path style="fill:#2C2C2C;" d="M47.837,98c0.372,0.808-0.284,2.026,0.034,2.871c0.007,2.188-6.113,1.666-4.871-0.871
			c-2.133-1.702-1.736-2.92,1-3c-1.342-1.232-0.618-1.518,1-2l1-1C46.855,95.214,47.223,96.667,47.837,98z"/>
		<path style="fill:#3E3E3E;" d="M52,96c-0.541,1.177-1.762,2.106-1.793,3.57C49.429,98.836,49.32,97.958,49,97
			c-0.33-0.989-1.69-2.633-0.92-3.534c0.752-0.88,2.615-0.595,3.407-0.376C52.51,93.371,51.867,95.225,52,96z"/>
		<path style="fill:#4B4B4B;" d="M48.554,86.861c0.367,1.089,0.935,1.557,1.48,2.451c0.441,0.662,1.497,1.638,1.058,2.168
			c-0.553,0.668-2.378,0.921-2.842,0.268c-1.197-1.684-0.865-3.596-1.211-5.684C48.075,85.923,48.077,86.694,48.554,86.861z"/>
		<path style="fill:#999999;" d="M39,96c3.491,0.77,0.709,2.652-2,4c-0.95,0.006-1.922,0.132-2.868,0.012
			C34.456,98.685,35.153,97.439,35,96H39z"/>
		<path style="fill:#B7B7B7;" d="M57,65c-0.019,1.426,1.476,1.891,1.86,3.093c-1.756,0.061-3.214-1.357-4.937,0.028L54,65
			C54.954,65.598,56.105,65.736,57,65z"/>
		<path style="fill:#C4C4C4;" d="M68,56c-0.806,1.341-2.913,1.16-4,2c-0.177-0.749-1.005-1.191-1-2H68z"/>
		<path style="fill:#0F0F0F;" d="M41,107.179c1.112,0.5,2.45,0.4,4.014-0.302L46.042,109c0.575,1.013,1.313,1.918,2.029,2.835
			l-1.052,1.108c-1.563,0.549-3.723,1.073-5.018,0.058c-1.222,0.479-3.122,0.061-4-1C35.896,109.34,38.91,103.932,41,107.179z"/>
		<path style="fill:#616161;" d="M42,113c0.873,0.284,0.86,0.618,0,1c-1.713-0.101-3.452-0.828-5.079,0
			c-0.422-0.643,0.075-1.331,0.079-2c0.284-0.873,0.618-0.86,1,0C39.401,112,40.793,112.27,42,113z"/>
		<path style="fill:#A4A4A4;" d="M47.018,112.942c-1.308,1.376-3.287,1.16-5.018,1.058v-1L47.018,112.942z"/>
		<path style="fill:#2E2E2E;" d="M114,26l7,12c-0.429,0.213-0.622,0.748-1,1l-3,2l-5,3c-0.597,0.291-1.222,0.96-2,1
			c-1.993,0.103-3.734,1.335-6.289,1.995c-1.116-0.091-0.747-2.599-0.858-3.452c1.071-1.482,1.593-3.44,1.864-5.273
			c0.568-3.853,0.981-7.654,2.53-11.27c0.628-1.465,1.837-2.276,3.258-2.109C111.856,25.049,113.009,25.313,114,26z"/>
		<path style="fill:#454545;" d="M116,57c3.218-1.435,5.642,4.259,4,7c3.579,3.741,1.534,7.046-2,3
			c-0.511,1.515-1.155,1.301-1.934-0.641c-3.621-2.234-7.444-3.91-11.469-5.028c-1.15-0.645-1.349-2.088-0.597-4.331
			c-1.324-1.428-0.185-3.745-2-5c0.108-1.122-0.548-3.684,0.578-3.886C109.366,46.894,110.061,51.098,116,57z"/>
		<path style="fill:#B8B8B8;" d="M104,57c0.632,0.681,1.081,2.372,2.106,2.977L118,67c1.646,0.747,1.945,1.724,0,2l-2,1
			c-2.656-0.319-2.541-1.239,0-2c-0.956-0.41-1.623-1.077-2-2c-5.474-0.848-11.054-1.184-16.742-1.008L96,63
			c-2.344,0.167,0.862-6.163-3-8C97.164,54.172,105.068,62.654,104,57z"/>
		<path style="fill:#3D3D3D;" d="M119,55c3.675,1.225,8.124,1.797,11,5l-6,5l-1,1c-1.041,0.854-2.041,0.187-3-2
			c-1.567-1.964-2.229-5.24-4-7v-3L119,55z"/>
		<path style="fill:#919191;" d="M108,84c0.873,0.284,0.86,0.618,0,1H94c0.205-0.575,0-1.339,0-2
			c1.112-1.296,2.826-1.588,5.142-0.876l7.756-0.2L108,84z"/>
		<path style="fill:#9E9E9E;" d="M111,86c-1.116,0.195-2.213-0.416-3-1v-1c-0.1-2.7,1.085-2.688,3-1V86z"/>
		<path style="fill:#858585;" d="M115.139,88.934C113.212,89.073,111.672,87.75,111,86
			C113.204,85.614,113.839,87.852,115.139,88.934z"/>
		<path style="fill:#9E9E9E;" d="M117,41c-0.86,2.002-2.977,2.676-5,3C112.81,42.005,114.984,41.266,117,41z"/>
		<path style="fill:#383838;" d="M85,108c-2.719,1.6-5.955,0.973-9,1c1.028-1.88,2.173-3.802,2-6
			c-2.401-1.43-2.016-2.315,0.764-2.076c0.81-0.403,1.12-1.104,2.525-2.27C83.288,101.755,84.683,104.676,85,108z"/>
		<path style="fill:#3F3F3F;" d="M76,96c1.31-2.246,2.579-1.167,1.362,1.126c0.729,0.991,1.701,2.398,1.402,3.798
			c-0.146,0.681-0.825,1.298-0.764,2.076c-1.295,0.738-1.551,2.077-2.301,4.029c-2.837-2.177-6.09-5.789-4.27-9.576
			C72.158,95.936,74.848,96.062,76,96z"/>
		<path style="fill:#3A3A3A;" d="M77.362,97.126C77.096,96.764,76.499,95.973,76,96v-4c0.538-0.181,1.12-0.545,1.631-1.013
			c1.065,2.832,2.302,4.49,3.52,6.891C79.155,98.956,78.277,97.805,77.362,97.126z"/>
		<path style="fill:#111111;" d="M116,68v2c0,1.151,0.016,2.305-1,3l-2,5l-2,5c-0.801,0.465-2.044,1.096-3,1
			c-4.676-0.468-9.729,1.115-14-1V73c0.378-0.282,0.702-0.636,1-1c-0.763-2.589-1.664-7.41,1.101-4.533l18.461-0.319L116,68z"/>
		<path style="fill:#C1C1C1;" d="M123,66c-0.411,0.63-0.932,1.445-0.655,2.267C122.592,69,123.412,69.476,124,70h-2
			c-1.205-0.731-2.594-1.063-4-1v-2c0.97-0.04,1.642,0.671,2.958,1.029c0.28-1.899-0.902-2.74-0.958-4.029
			C121.028,64.626,121.9,65.485,123,66z"/>
		<path style="fill:#818181;" d="M113,78c-0.049-1.89,0.356-3.876,2-5C115.085,74.892,114.624,76.884,113,78z"/>
		<path style="fill:#858585;" d="M111,83c0-1.895,0.369-3.88,2-5C113.047,79.834,112.701,82.012,111,83z"/>
		<path style="fill:#C9C9C9;" d="M128,72c-0.775,0.163-1.815-0.043-2,1c-0.635-0.698-1.295-1.372-2-2c0.142-0.263-0.087-0.708,0-1
			C125.542,70,127.109,70.68,128,72z"/>
		<path style="fill:#A2A2A2;" d="M130,60c-1.4,2.167-3.3,4.729-6,5C125.822,63.178,127.181,59.99,130,60z"/>
		<path style="fill:#101010;" d="M114,66c0.328,0.453,0.568,0.889,0.497,1.266c-0.185,0.979-18.924,0.981-19.838,0.586
			C93.191,66.899,93.305,65.615,95,64c0.225-0.38,0.82-0.558,1-1C104.785,63.354,106.148,61.49,114,66z"/>
		<path style="fill:#898989;" d="M114,66c0.486,0.568,3.9,0.736,2,2l-20.793-0.011C94.754,69.72,94.974,70.862,95,72
			c-1.512-0.432-0.419-2.522-1.198-4.073C93.252,67.07,91.017,66.209,90,66c1.715,0.898,4.153-0.571,5-2
			c-0.001,0.67-0.303,1.904,0.268,2.943l17.656,0.025C113.661,66.969,114.118,66.397,114,66z"/>
		<path style="fill:#262626;" d="M83,63c0.686,0.058,1.318,0.997,2,1c2.099,0.971,0.839,1.511-1,2c-0.779,0.262-2.248,0.657-3,1
			c-2.073,0.837-4.165,1.484-3.05-1.05c0.768-0.775,2.798-2.32,2.36-3.556C80.649,61.413,81.546,61.615,83,63z"/>
		<path style="fill:#828282;" d="M83,63c-0.922-0.079-1.876-0.104-2.69-0.606C79.341,60.989,79.361,59.561,79,58
			C80.475,59.542,81.82,61.222,83,63z"/>
		<path style="fill:#8F8F8F;" d="M90,66c-1.674-0.344-4.255,0.126-6,0l1-2C86.982,64.008,88.399,65.162,90,66z"/>
		<path style="fill:#979797;" d="M81,67c-1.424,1.193-3.142,1.778-5,2c0.438-1.206,1.056-2.148,1.95-3.05
			C78.475,67.139,79.87,67.112,81,67z"/>
		<path style="fill:#404040;" d="M63,93l5,3c1.713,2.078,1.932,4.261,2.772,7.801L61,105c-0.292-2.937-0.625-5.937-1-9
			c-1.02-0.186-1.13-1.107-1-2C59.328,90.507,60.722,90.658,63,93z"/>
		<path style="fill:#353535;" d="M61,106c7.568-0.694,10.575-2.687,13.037,1.928C67.242,107.317,61.148,109.921,61,106z"/>
		<path style="fill:#ADADAD;" d="M63,93c-0.75,0-1.49-0.71-2.457-0.558C59.918,92.54,59.484,93.475,59,94
			c0.096-0.661-0.012-2.122-1-2l3-3C60.933,90.653,62.355,91.66,63,93z"/>
		<path style="fill:#A5A5A5;" d="M68,96c-2.116-0.348-4.027-0.98-5-3C65.389,93.001,66.676,94.394,68,96z"/>
		<path style="fill:#ADADAD;" d="M61,105c-0.472,0.058-0.998-0.143-0.998-0.952L60,96C62.352,98.305,60.364,102.031,61,105z"/>
		<path style="fill:#909090;" d="M47.871,100.871c0.252,0.669-0.227,1.787,0.16,2.375c-0.304-0.036-0.644,0.113-0.942,0.05
			c-1.167,0.888-2.159,1.464-2.977,1.729L43,103c-0.518,1.504-1.185,2.897-2,4.179c-1.017,0.035-2.186,0.015-2.569,0.808
			c-0.695,1.441-0.463,2.785-0.431,4.013h-1c0.007-1.361-0.15-2.879-1-4c1.261-0.595,2.545-1.54,2.872-2.744
			c0.435-1.596-0.072-3.07-0.909-4.219c1.093-1.574,2.772-1.92,5.037-1.037C44.237,101.386,46.187,101.027,47.871,100.871z"/>
		<path style="fill:#929292;" d="M47.089,103.297c-0.545,0.304-1.821,0.631-1.74,1.693c0.123,1.612,0.782,2.785,0.693,4.01
			c-1.768-0.204-3.924-0.26-5.042-1.821L43,103C44.363,103.04,45.743,103.013,47.089,103.297z"/>
		<path style="fill:#303030;" d="M41,95c2.323,0.227,3.323,0.894,3,2c-0.185,1.044-0.497,2.064-1,3
			c-1.065,2.046-3.128,1.949-5.037,1.037c-0.266-0.366-0.818-0.549-0.963-1.037l-1.214-2.297C36.299,96.194,40.02,98.033,39,96
			C39.155,94.841,40.073,95,41,95z"/>
		<path style="fill:#ACACAC;" d="M45,95c-0.156,0.743-0.482,1.441-1,2l-3-2H45z"/>
		<path style="fill:#121212;" d="M104.819,61.673c-2.676,0.681-5.35,0.258-8.746,0.29c-0.107-1.844-0.244-3.023,0.117-5.03
			C98.765,58.811,100.825,59.542,104.819,61.673z"/>
		<path style="fill:#141414;" d="M43,103c0.556,0.753,0.973,1.793,1.056,2.549c0.21,1.928-1.842,1.588-3.056,1.63
			c-0.555-0.775-0.944-1.989-1.045-2.732C39.689,102.5,41.754,102.963,43,103z"/>
	</g>
</g>
</svg>
