<?xml version="1.0" encoding="iso-8859-1"?>
<!-- Generator: Adobe Illustrator 30.1.0, SVG Export Plug-In . SVG Version: 9.03 Build 0)  -->
<svg version="1.1" id="Layer_1" xmlns="http://www.w3.org/2000/svg" xmlns:xlink="http://www.w3.org/1999/xlink" x="0px" y="0px"
	 viewBox="0 0 204 80" style="enable-background:new 0 0 204 80;" xml:space="preserve">
<g>
	<g>
		<path style="fill:#F9F9F9;" d="M104,0h100v10c-0.844,22.896-2.199,45.772-4.066,68.627L198,80h-22
			c-0.545-1.296-18.982-1.246-24.603-1.479l-25.804-1.066l-25.183-0.926l-25.746-1.106c-5.577-0.24-10.634,0.049-16.428-0.534L0,4V1
			c23.556-0.869,49.223-0.857,73,0c0.873,0.284,0.86,0.618,0,1c-0.968,3.354-10.229,2.72-12,0c-0.284,0.873-0.618,0.86-1,0
			c-0.512,1.029-1.997,1.635-3,1c-1.869,2.391-5.258,0.687-7.609-0.696c-0.068,2.054-1.035,2.044-1.816,0.081
			C46.09,4.815,44.905,4.647,44,2c-0.297,2.661-0.971,2.764-2.147,0.32c-0.296,0.897-0.594,0.849-0.895-0.087
			C38.919,4.359,37.6,4.281,37,2c-2.172,0.681-5.052,0.946-7,0c-1.93,1.805-2.93,1.805-3,0c-3.678,0.785-7.345,1.119-11,1
			c-1.404,1.839-3.76,2.399-7.069,1.679C8.977,6.39,8.817,7.483,6.764,7.874c2.409,0.962,3.297,1.872,2.661,2.73L11,14
			c2.183,0.342,2.515,1.333,3.126,3.295c2.757,1.414,3.678,2.982,2.764,4.702c2.115-0.552,2.861,0.117,2.236,2.005
			c1.523-0.242,3.322,1.46,2.848,2.963c2.57-0.815,3.118-0.477,2.207,2.052c2.927-0.153,6.24,5.369,5.887,7.984
			c0.587-1.874,2.19-1.911,2.787,0.173c1.491,1.316,2.843,3.226,1.617,5.134c2.305-0.678,4.211,1.294,3.451,3.646
			c2.422-0.229,3.938,2.606,3.992,4.866c1.332-0.219,2.158,2.037,2.391,3.268c0.622,0.117,1.24,1.035,1.853,2.753
			c0.24-0.906,0.472-0.83,0.696,0.142c2.335-0.55,2.527,0.08,1.297,2.192c2.571-0.509,7.653,4.202,5.74,6.659
			c2.702-0.801,5.322,3.674,5.948,6.144l0.865-0.894L70,74c0.24-0.917,0.576-0.894,1,0c0.911-3.427,9.08-2.56,11,0
			c0.284-0.873,0.618-0.86,1,0c1.956-0.772,4.29-1.106,7-1c0.284-0.873,0.618-0.86,1,0c0.656,0.053,1.323,0.386,2,1l1.809-1.543
			c4.285,0.475,8.607,0.613,12.966,0.414L109,75c4.172-2.176,7.452-1.895,9.843,0.843c0.277-0.936,0.735-0.886,1.346-0.008
			c2.282-2.689,5.625-2.582,7.811,0.165c4.119-0.038,6.178-0.057,6.178-0.057c2.331-1.527,7.265-1.828,8.822,1.057
			c0.403-3.063,7.338-2.926,8,0c0.103-0.903,0.45-0.85,1,0c0.342-2.792,2.549-3.301,4.136-1.003c1.628-0.13,3.745-0.286,4.864,1.123
			c0.937-1.351,2.447-1.699,4.53-1.043c3.989-0.779,6.479-0.138,7.47,1.922c0.186-0.875,0.526-0.839,1,0
			c0.728-2.966,6.678-2.372,9.063-1.068c1.539-0.785,3.354-0.815,5.444-0.089c2.775,0.242,4.898,0.305,6.37,0.188
			c-1.734-1.993-1.424-2.375,0.971-3.031c-0.893-1.384-0.262-1.862,1.152-1c-0.798-1.707-1.978-4.29,0-5
			c-1.361-1.69-0.861-5.721,0.028-7.984c-2.266-0.84-1.982-1.897,0.125-2.874c-1.193-2.374-1.281-7.374,1.74-8.142
			c-2.819-0.406-3.117-1.406-0.892-3c0.013-3.771-0.235-7.585-0.744-11.442l1.547-1.66c-0.543-2.946,0.152-7.697,1.197-10.617
			c-0.973-1.658-1.006-3.753-0.1-6.283c-0.544-3.645,0.156-5.978,2.1-6.998c-0.909-0.182-0.873-0.521,0-1
			c-0.749-1.952-1.658-3.873-2.73-5.764C198.575,5.043,196.535,4.795,196,2c-0.284,0.873-0.618,0.86-1,0
			c-1.515-0.991-3.421-0.711-5,0c-0.148,0.618-0.475,0.657-0.959,0.187C187.964,3.283,187.083,3.384,186,2l-0.875,2h-16.718L167,2
			c-0.79,1.232-1.832,1.17-3.124-0.186C159.171,1.217,154.546,1.279,150,2l-0.591,1.227C142.942,0.869,135.737,1.045,129,1.906
			c-0.371,0.659-0.705,0.667-1-0.008c-0.237,1.404-0.646,2.509-1.228,3.315c-1.51,1.009-1.479,0.444-0.864-1.213
			c-1.555-0.025-3.08-0.416-4.575-1.173l-1.818,1.573C114.871,4.28,110.366,3.48,106,2c-0.353,1.132-1.02,0.799-2-1
			C103.127,0.716,103.14,0.382,104,0z M5.421,7.226c0.853-1.157,0.877-3.37,0.431-4.677C5.457,1.388,2.627,2.036,1.71,2.76
			C2.672,4.286,3.443,5.376,5.421,7.226z"/>
		<path style="fill:#262626;" d="M186,2c1.62,0.89,1.287,2.89-1,6c1.954,0.776,1.138,2.782-1,2l-2,5c2.395,1.771,0.824,4.112-2,3
			c1.118,1.464,0.175,2.116-2.829,1.957c-6.822-0.505-13.663-0.659-20.522-0.463c-2.042,2.319-2.647-0.658-1.649-2.494
			c-0.274-2.159,0.726-4.159,3-6c-0.788-2.813,2.198-5.796,5-5c1.224-2.325,2.557-3.658,4-4H186z"/>
		<path style="fill:#CFCFCF;" d="M104,1c0.845,0,1.528,0.287,2,1c0.829,0.142,1.162,0.475,1,1c0.771,0.288,0.758,0.622,0,1
			c-0.069,2.047-0.736,3.713-2,5c-1.885,3.415-3.591,7.246-5.118,11.492l-2.636,1.374c0.424,0.254,0.813,0.534,1.075,0.903
			c0.761,1.069-4.22,7.752-5.411,9.225c2.027,0.31,1.631,0.83,0.089,2.005c-0.71,1.707-1.021,1.713-1.205-0.142
			c-0.619-0.286-0.754-0.824-0.404-1.612C89.505,37.221,87.708,42.139,86,47c1.65,2.304,1.01,3.057-1.672,2.094
			c0.359,0.584,0.188,0.919-0.499,1.013C82.016,51.369,81.663,50.707,83,49c-3.259-1.253-6.639-2.466-10.141-3.64
			C71.326,46.635,69.707,47.182,68,47c0.223,2.656-0.681,2.649-1.764,0.236C65.259,46.334,65.528,44.868,67,45
			c0.025-1.124,1.025-1.79,3-2c0.293-1.698-1.04-2.365-4-2c-0.93-0.519-1.987-0.876-3.169-1.073
			c-0.874,1.564-2.344,1.397-4.409-0.502l-2.519-0.444C56.983,41.496,56.254,41.504,54,41c-0.606,1.053-1.737,1.333-3.003,1.168
			c0.109,0.799-0.209,1.634-0.954,2.506c1.082,3.738-2.014,3.836-2.118,0.436c-1.713-1.992-2.745-4.42-3.098-7.283
			c-2.229-1.221-2.603-2.846-1.126-4.908l-1.409-0.296c-0.1-1.404-0.53-2.706-1.292-3.906c-6.004,3.24-4.724-6.234,1-3.717
			c0.453-0.347,0.786-0.013,1,1c0.553-2.621,1.339-2.473,2.029,0.11l1.084-1.72c1.937,0.039,3.563-0.785,4.879-2.474
			c1.492-2.23,2.581-1.638,2.974,0.942l0.594,0.975c-2.353,0.727-1.84,0.672,1.542-0.164c0.554-0.881,1.037-0.845,1.451,0.11
			c0.888,0.076,0.944,0.407,0.218,0.976c1.775,1.347,2.158,2.604,0.276,4.123c0.647,1.495,1.014,3.222,1.1,5.181
			c0.76,1.81-0.925,2.226-2.367,1.764c-0.249-0.08,5.199-0.859,4.17,1.255c4.068-0.695,6.102-1.043,6.102-1.043
			C66.132,33.462,66.115,31.45,67,30c-0.379-1.791,0.593-2.151,2-1c-1.25-2.105,0.275-6.118,3-6
			c0.472-2.357,2.353-8.493,5.018-5.041C79.136,17.835,79.463,18.516,78,20c0.541,1.773-0.459,3.44-3,5c0.556,0.301,0.543,0.635,0,1
			c-2.552,2.97-3.893,6.044-4.021,9.22c1.342,2.972,2.869,5.238,5.593,7.399c0.852-1.278,2.612-1.172,5.28,0.318
			C82.434,41.029,83.483,40.049,85,40c-1.482-0.948,0.623-2.519,2-3c-1.543-2.128,0.033-4.643,1.916-5.89
			c-1.743,0.2-1.731-0.209,0.034-1.228c-1.626-2.182,0.287-5.793,3.108-5.885l1.296-3.276c1.734-1.551,2.65-3.122,2.751-4.712
			C94.871,14.65,95.503,12.98,98,11c-0.538-0.302-0.525-0.636,0-1c4.563-4.814,4.114-6.87-1.346-6.166
			C95.058,5.089,93.507,5.478,92,5c-1.377-0.976-2.71-1.309-4-1c0.225,2.784-1.19,2.923-3,1c-1.941-0.746-3.941-1.413-6-2
			c-0.893,1.783-2.333,1.527-4,1c-1.824-0.062-1.859-0.36-2-2V1H104z"/>
		<path style="fill:#191919;" d="M98,61c0.601-1.039,1.149-1.301,2.221-1.005c2.113,0.584,10.754,5.53,9.779,8.149
			c0.79-0.444,1.456,0.175,2,1.856c4.769,1.119,1.531,5.889-3,5c-5.172-0.689-10.97,0.794-16-1c-1.341-0.1-1.767-2.04-1-3
			l0.003-3.144C88.379,56.566,90.378,54.28,98,61z"/>
		<path style="fill:#C4C4C4;" d="M150,2c3.331,1.637,6.007,8.774,4,12c1.128-0.251,1.461,0.749,1,3l0.154,1.393
			c0.045,0.411,0.88,0.68,1.759,0.678l21.134-0.049c1.035-0.002,2.032-0.246,1.953-1.022c3.355-1.27,4.358,3.247,1,4
			c-1.632,1.054-2.756,0.236-4-1c-6.144,0.941-12.385,1.326-18.721,1.154c1.65,2.258,1.557,3.873-0.279,4.846
			c0.442,1.096,0.141,3.153-1,4c2.962,1.974,0.98,7.998-0.211,10.896C158.204,44.512,157.18,51.979,155,54
			c0.895,0.299,0.887,0.633,0,1c0.921,2.694,2.146,8.862-1,10c1.85,3.24,1,10.018-2,12c-0.326,0.042-0.671,0-1,0
			c-1.829-0.495-3.045-3.158-3-5c2.531-4.926,3.198-10.593,2-17c1.13-2.462,2.832-10.16,1.795-12.191
			c-1.589-0.319-2.154-1.12-1.795-2.91c0.382-1.398,1.35-2.049,2.904-1.955c0.2-4.711,0.566-9.359,1.096-13.944
			c-2.102-2.26-3.514-8.036-3-11c-1.426-0.416-0.895-1.637-0.089-2.732c-2.536-1.039-3.617-4.711-4.131-7.228
			c-2.929,0.412-5.842,0.521-8.741,0.327c-4.467,1.469-7.48,0.982-9.038-1.461C129.672-0.713,151.386,2.027,150,2z"/>
		<path style="fill:#242424;" d="M182,62.976c4.397,0.109,6.04,1.763,4.929,4.961c1.063,2.61,1.167,4.111-0.877,6.155
			c1.785,2.72-0.362,4.052-2.99,2.84C180.41,78.763,177.087,77.898,174,78c-0.631-3.035-0.804-6.233-0.52-9.593
			c-1.128-1.377-0.079-2.909,3.145-4.595C178.825,61.219,179.073,61.335,182,62.976z"/>
		<path style="fill:#BEBEBE;" d="M46,15c0.909,0.182,0.873,0.522,0,1c0.506,0.304,0.492,0.638,0,1c-0.284,0.873-0.618,0.86-1,0
			c-0.319,2.656-1.239,2.541-2,0c-0.288,1.818-0.615,2.239-0.979,1.263C42.084,20.592,42.077,22.838,42,25
			c-1.016,0.688-2.314,0.579-3.558,1.957c0.976,1.132,1.938,1.178,2.558,1.759c1.559,0.482,1.747,2.361-0.223,2.354
			c-0.749,0.725-0.911,1.7-0.486,2.927c1.948,0.588,3.165,2.179,3.648,4.774c2.112,0.524,2.92,3.817,1.092,5.291
			C42.993,45.815,41.115,45.496,40,43c-0.873-0.284-0.86-0.618,0-1c0.507-2.011-0.16-4.011-2-6c0.088,2.035-0.777,1.312-2,0
			c-0.536,0.797-0.893,0.722-1.071-0.223c-0.664-1.051-0.984-2.615-0.961-4.69c-1.301,1.473-1.894,0.874-0.95-0.921
			C31.33,28.588,31.324,27.866,33,28c-2.339-0.699-2.691-1.248-0.232-2c1.725-0.952,1.725-0.952,0,0
			c-1.314,0.796-3.2,0.811-5.66,0.045C27.435,26.93,27.021,27.212,26,27c1.17,2.472,0.765,2.92-1.819,2.018
			c-1.042-0.06-1.504-1.719-2.207-2.052C21.505,25.095,22.584,24.8,24,26c-1.106-2.452,2.732-4.443,4.9-5
			c0.101-0.921,0.455-0.989,1.047-0.244c-0.109-2.547-0.16-5.024,2.895-3.756c1.192-1.031,1.981-0.586,2.157,1
			c-0.062,6.305,5.925,4.082,0.916-1.178C35.22,15.887,35.248,14.613,36,13c0.32-1.663,0.987-2.33,2-2
			c1.793,0.225,2.194,1.223,1.95,2.879C42.282,13.775,44.299,14.149,46,15z"/>
		<path style="fill:#131313;" d="M173,78c-4.046-0.303-8.266,0.834-12-0.879c-1.613-0.491-2.28-1.198-2-2.121
			c-1.169-0.208-1.169-1.541,0-4c-2.657-0.193-2.657-0.859,0-2c0.736-0.808,2.029-0.437,3,0c3.854-0.948,7.818-1.696,11.891-2.244
			C173.634,70.645,173.337,74.393,173,78z"/>
		<path style="fill:#1D1D1D;" d="M202,9c-0.107,4.516,0.548,9.398-2,13.281c-1.432,2.626-3.243,1.458-2-1.281
			c-0.987-0.418-2.008-0.406-3,0c0.806,2.455,0.227,2.63-1.748,0.971c-1.408,2.657-3.083,0.974-4.026-1.186
			c-1.426-4.866-2.389-9.098,3.831-8.422c1.637-1.007,3.285-1.795,4.943-2.363C199.353,8.064,199.926,7.48,202,9z"/>
		<path style="fill:#1A1A1A;" d="M118.843,75.843c-3.431,0.266-6.738-0.429-9.843-0.843c2.739-0.31,3.732-2.776,3-5
			c-1.622-1.786,0.489-7.094,2-8c-1.201-2.576,2.621-5.666,4.874-3.648c0.922-0.739,1.935-0.06,3.038,2.035
			C121.075,65.637,120.052,70.788,118.843,75.843z"/>
		<path style="fill:#C4C4C4;" d="M125,26c1.822,0.79,1.892,1.549,1.271,3.147c2.633-1.624,4.543-1.672,5.729-0.147
			c0.873,0.284,0.86,0.618,0,1c1.311,2.313-0.507,4.358-3,4c-2.807-1.14-4.022,1.227-3.644,7.1l-1.39,3.01
			c2.548,0.974,2.504,2.802-0.058,3.701c0.685,2.464,1.087,8.42-1.908,9.189c0.856,0.246,0.833,0.581,0,1
			c0.854,0.183,1.52,0.849,2,2c1.103,2.33-0.568,4.848-2.622,5.982c2.332,1.034,2.519,1.95,0.559,2.748
			c3.203,1.032,0.922,6.214-1.748,7.105c-0.439-0.022-0.909-0.026-1.346,0.008c-0.581-4.975,3.071-14.292,0.031-17.491
			c-2.573-1.459-2.086-3.083,0.882-2.766c-0.82-2.72-0.691-4.582,0.388-5.585c-0.196-1.899,0.152-3.565,1.045-5l-1.282-0.36
			C120.31,39.619,120.675,34.406,121,29c-0.873-0.284-0.86-0.618,0-1c-0.163-1.794,0.119-2.565,2-3
			C123.774,23.105,124.441,23.439,125,26z"/>
		<path style="fill:#181818;" d="M198,21c0.614,0.251,1.155,1.3,2,1.281c1.948,3.344,1.45,8.66-1.197,10.617
			c0.266,1.903-0.1,2.612-1.682,1.244c-3.504,0.75-4.823-1.446-3.955-4.73c-2.077-0.39-3.072-8.816,0.087-7.441
			c0.58-0.163,1.131-0.966,1.748-0.971C196.06,18.391,196.763,18.569,198,21z"/>
		<path style="fill:#B8B8B8;" d="M62,5c-0.84,0.751-1.173,2.084-1,4c1.573,0.951,1.676,5.911,0,7
			c-1.653,2.356-1.761-3.346-1.507-3.274c0.522,0.147,0.761,6.099-0.676,7.274c2.028,1.682,1.375,3.658-1.263,3.78
			c-0.478-0.094-0.965-0.128-1.451-0.11c-0.77,0.762-2.055,0.423-2.136-0.811C51.334,21.877,51.747,19.18,54,18
			c0.295-0.517,0.655-0.567,1.081-0.152c0.184-1.011,0.462-0.992,0.83,0.005c0.216,2.947,0.216,2.947,0,0
			c-0.297-1.056-0.869-1.408-1.77-0.923C52.685,17.999,52.093,17.614,53,16c-1.902-0.466-1.782-1.38,0.108-1.942
			c-2.321-0.614-2.663-1.295-1.026-2.042C49.154,12.071,49.211,8.72,52,8c0.284-0.873,0.618-0.86,1,0
			c2.066,0.25,1.607,1.762,0.806,3.194c0.97,0.461,1.701-0.303,2.194-2.291c-1.9,0.212-2.148-0.75-0.78-2.045
			c0.333-1.878,1.329-2.13,2.524-0.646c0.459,2.442,0.459,2.442,0,0c-2.338-1.174-2.023-1.801,0.571-2.066
			C58.082,3.337,58.644,2.622,60,2h1C63.722,2.269,64.146,3.199,62,5z"/>
		<path style="fill:#313131;" d="M121.333,2.827c2.172-0.473,3.272,0.127,1.714,2.071c2.184,1.307,3.645,2.215,0.837,3.894
			C123.17,9.815,121.876,9.551,120,8c-1.867,3.316-9.537,0.785-9-3c-1.913-0.279-3.247-0.945-4-2c-0.335-0.207-0.776-0.662-1-1
			C110.997,2.274,116.597,1.278,121.333,2.827z"/>
		<path style="fill:#252525;" d="M16,3c1.441,0.936,2.496,1.737,1,3l0.19,1.38C15.785,7.308,15.055,7.848,15,9
			c2.752,0.247,0.909,4.076-1,5c0.372,1.631-0.628,1.631-3,0c-0.998-2.334-2.235-4.511-4.236-6.126
			c0.33-1.34-0.387-4.331,0.966-5.182C10.842,2.75,13.594,2.681,16,3z"/>
		<path style="fill:#A2A2A2;" d="M84,63c2.92,0.091,1.681,5.008,1.073,7.073C86.446,72.402,85.616,73.748,83,74h-1
			c-5.973-3.634-8.987-4.011-9.043-1.131L71,74c-0.326,0-0.682-0.065-1,0c-2.076-0.182-2.743-0.849-2-2
			c-0.013-0.965,0.321-1.965,1-3c-0.757-1.869,0.276-2.448,2-3c2.041-0.424,5.262-0.249,7,1c1.83,1.118,2.3-0.698,1-2
			c-2.069-0.619-3.736-1.619-5-3c-1.759-2.845,3.588-4.629,6-4l1.965,0.961C81.855,60.424,82.533,61.77,84,63z"/>
		<path style="fill:#BCBCBC;" d="M193.181,50.669c2.332,1.01,2.375,1.841,0.659,3.509c0.318,2.278,1.312,3.742,2.98,4.394
			l0.208,1.443c-0.301,2.562-0.643,5.167-1.025,7.813l-1.097,0.256c0.919,0.894,1.617,2.532,2.094,4.916
			c-0.103,0.558-0.6,0.979-1.152,1c-3.04,0.777-6.341-5.715-4.745-8.05c-0.867-0.293-0.824-0.61,0.066-0.95
			c-0.875-0.331-0.808-0.664,0.118-1c-1.175-4.208-1.937-8.541-2.286-13c-0.873-0.284-0.86-0.618,0-1
			c-0.46-2.442,0.146-4.108,1.819-5c-0.591-1.318-0.262-2.678,1.181-2C194.284,44.534,195.457,48.774,193.181,50.669z"/>
		<path style="fill:#393939;" d="M61,62c2.952-0.755,3.572,1.291,1,3c1.938,0.606,2.062,1.544,0,2c0.309,2.193-0.024,3.193-1,3
			c2.333,1.554,1.494,2.68-1.16,1.979c-3.387-1.142-4.134-3.23-5.948-6.144C52.568,62.872,53.802,61.257,57,62
			C57.014,59.319,61.314,58.129,61,62z"/>
		<path style="fill:#232323;" d="M198,46c-2.666-0.286-6.066-3.014-5-6c-0.959,0.689-1.544-0.696-1.756-4.155
			c1.132,0.607,2.384,0.392,3.756-0.646c-0.717-2.659-0.039-2.54,2.121-1.058l1.682-1.244C200.32,36.924,200.587,42.391,198,46z"/>
		<path style="fill:#1F1F1F;" d="M128,72c2.927,0.002,2.803,3.341,0,4c-2.602,0.093-5.213-0.035-7.811-0.165
			c-0.238-2.549,1.675-4.61,1.748-7.105c0.141-0.719,6.615-2.658,6.817-2.335C128.903,66.635,128.459,71.075,128,72z"/>
		<path style="fill:#B8B8B8;" d="M189.041,2.187l1.241,8.02c1.393-0.363,2.632-0.099,3.718,0.792c-1.124-1.463-0.592-1.919,1-1
			l-2-6.685L195,2h1l1.34,0.414c0.042,2.539,0.262,5.068,0.66,7.586c-1.359,2.758-4.604,3.42-8.532,2.806
			c-1.108,2.679-0.258,5.405-0.242,7.978c2.161,0.933,2.165,1.643,0.013,2.131c1.542,1.372,0.455,2.366-1.239,1.084l-2.007-0.784
			c-0.232-4.901-0.244-9.794-0.036-14.68L185,8l1-6c0.456,0,1.023-0.882,1.683-0.774C188.214,1.312,188.704,1.702,189.041,2.187z"/>
		<path style="fill:#2A2A2A;" d="M194.877,77.031c3.991,2.942-12.457,2.21-11.814-0.1c1.179-0.814,2.141-1.717,2.99-2.84
			C186.996,71.497,187.978,70.8,189,72C191.812,71.134,195.752,73.932,194.877,77.031z"/>
		<path style="fill:#1E1E1E;" d="M157,68c1.061-0.014,2.082,0.034,2,1v2c-0.252,2.198-0.919,3.531-2,4
			c1.649,1.103,1.048,1.718-0.864,0.997c-1.319,0.537-2.729,0.823-4.136,1.003c-0.487-4.08,1.541-8.161,2-12
			C156.529,64.46,157.615,65.431,157,68z"/>
		<path style="fill:#3C3C3C;" d="M33.018,30.165l0.95,0.921c1.965,2.25-2.024,4.908-3.9,5.916c-2.729-1.853-4.645-5.014-5.887-7.984
			C24.776,28.337,25.362,27.643,26,27C29.137,27.356,31.477,28.411,33.018,30.165z"/>
		<path style="fill:#323232;" d="M73,2c0.661,0,1.606-0.239,1.89,0.555C75.05,3.003,75.11,3.61,75,4
			c0.504,2.363,0.276,3.316-0.684,2.859c-3.539-0.366-7.418-0.415-11.639-0.145L62,5c-0.513-0.932-0.822-1.954-1-3H73z"/>
		<path style="fill:#282828;" d="M191.102,65.95c2.117,2.348,2.985,5.429,4.745,8.05c0.575,0.856-0.492,2.399-0.971,3.031
			c-1.191-2.551-4.841-2.43-5.877-5.031c-1.223,0.348-1.914-1.007-2.071-4.063C184.574,63.13,187.841,63.656,191.102,65.95z"/>
		<path style="fill:#272727;" d="M198,46c0.012,0.961,1.105,1.885,0.892,3c-2.018,3.206-3.922,3.763-5.711,1.669
			c-0.668-2.141-1.82-5.149-1.181-7.669c-1.644-0.744-0.676-3.158,1-3C194.244,42.533,197.961,42.869,198,46z"/>
		<path style="fill:#212121;" d="M144,71c1.656-2.119,3.806-1.933,4,1c1.107,0.409,2.301,1.127,2.793,1.879
			c0.558,0.855,0.25,2.4,0.207,3.121h-8C137.637,75.577,137.702,67.665,144,71z"/>
		<path style="fill:#808080;" d="M179,55c1.713,2.575,2.713,5.234,3,7.976c-2.842-0.349-7.199,1.59-7.865,4.881
			C173.4,71.491,174.387,74.895,174,78c-0.332,0.011-0.669,0.025-1,0l-0.064-10.008L162,69c-0.873-0.284-0.86-0.618,0-1l0.663-2.283
			c3.24-0.583,6.352-0.822,9.337-0.717l0.832-1.979c6.418-2.535,2.491-7.033-2.472-8.706L170,52c0.163-0.615,0.512-0.557,1,0
			c0.16-2.69,1.26-3.053,3-1C176.235,50.911,177.902,52.244,179,55z"/>
		<path style="fill:#323232;" d="M82,74H71c-0.036-1.501-0.329-3.756,0.971-4.553C74.864,67.672,82.841,71.177,82,74z"/>
		<path style="fill:#282828;" d="M89,56c2.05,1.006,2.475,1.615,1.273,1.828C91.136,62.222,91.712,66.613,92,71
			c0.512,0.933,0.806,1.958,1,3c-0.35,0.073-0.998,0.914-1.48,0.627C91.004,74.32,91.07,73.44,91,73
			c-2.073-4.322-4.58-11.053-5.475-16.225c-0.287-1.66-0.168-3.042,1.593-2.402C89.266,53.022,89.573,53.606,89,56z"/>
		<path style="fill:#BEBEBE;" d="M40.958,2.234C41.502,4.271,40.725,7.04,38.215,7L36,13c0.285,1.907-1.257,4.614-3.157,4
			c-2.689-0.572-2.777-2.351-0.843-4c-0.145-1.387,0.105-2.251,1.766-2.879c-1.008-0.944-1.223-2.315-0.646-4.114
			C30.785,6.491,29.213,5.31,30,3c2.159-0.319,4.493-0.652,7-1C38.325,1.952,39.646,2.053,40.958,2.234z"/>
		<path style="fill:#2C2C2C;" d="M52.276,58.013C53.628,56.244,54.952,56.576,55,59c3.669,0.829,4.336,1.829,2,3
			c-1.256,1.069-2.13,2.529-3.108,3.835c-1.188-1.909-5.497-4.497-5.74-6.659C47.725,56.987,51.306,56.05,52.276,58.013z"/>
		<path style="fill:#8D8D8D;" d="M141,69c1.381-2.588,4.038-0.664,3,2c-0.658-0.01-3.105-0.359-2.942,0.716
			c0.349,2.301,1.54,3.699,1.942,5.284l-14.021,0.011C128.099,77.012,128,76.359,128,76c0.417-1.504,1.909-2.22,4.477-2.148
			c0.781-2.022,1.622-3.972,2.523-5.852C136.402,65.696,140.486,66.295,141,69z M141.221,75.781
			c-0.722-2.945-0.808-4.406-2.032-6.308c-2.615,1.865-2.705,4.149-4.183,6.387C137.361,76.015,138.768,76.26,141.221,75.781z"/>
		<path style="fill:#2C2C2C;" d="M45.031,44.063c1.817,1.02,2.085,1.913,0.1,2.853C45.446,48.328,44.461,49.854,43,50
			c1.123,1.563,0.518,1.99-1.084,0.822c-2.231-0.756-3.584-2.62-3.992-4.866C35.511,44.037,37.23,42.224,40,43
			C41.745,42.879,43.548,43.08,45.031,44.063z"/>
		<path style="fill:#C4C4C4;" d="M64,47.822c1.615-0.163,1.573,0.56,0,1.178c-0.999,4.254-7.724,8.337-11.724,9.013l-4.123,1.163
			c-0.074-0.653-1.698-1.187-1.297-2.192c-0.468-2.174,0.894-3.402,4.087-3.685c0.195-1.324,0.627-1.991,2.186-2.299
			c2.587-0.948,5.211-1.948,7.872-3c0.296-0.63,0.63-0.617,1,0C62.083,45.326,63.013,45.359,64,47.822z"/>
		<path style="fill:#B5B5B5;" d="M87.118,54.373c-0.432,0.461-0.806,1.274-0.548,2.228L91,73h-1c-1.564,1.039-2.897-0.295-4-4
			c-1.118-1.582-0.31-4.561,1-6c-3.039-0.153-4.018-3.934-2.955-6.417c-2.002-1.203-2.174-5.503-0.215-6.475
			c0.24-0.232,0.207-0.871,0.499-1.013C87.205,47.858,89.416,52.553,87.118,54.373z"/>
		<path style="fill:#212121;" d="M198.892,49c-0.528,2.776,0.327,5.974-1.74,8.142c-2.09,1.934-3.536-0.352-3.312-2.963
			c-1.076-1.091-0.803-2.487-0.659-3.509c1.696-0.181,3.179-1.257,4.457-2.509C198.205,48.356,198.652,48.809,198.892,49z"/>
		<path style="fill:#464646;" d="M90,73c-0.418,3.256-4.881,2.575-7,1c0.123-1.546,1.084-2.787,2.073-3.927
			C84.271,68.782,84.584,68.285,86,69c0.914-0.157,2.526-0.438,2.892,1.068C89.21,71.377,89.165,72.46,90,73z"/>
		<path style="fill:#343434;" d="M47.575,2.386c1.918,0.638,2.55,2.834,0.152,3.459c2.672,0.809,2.57,5.457-0.664,5.155
			c-1.376,2.457-2.553,1.687-2.063-1c-2.631-0.9-2.845-6.233-1-8C45.171,1.825,46.385,2.282,47.575,2.386z"/>
		<path style="fill:#373737;" d="M53.128,51c-0.049,1.053,0.274,3.148-1.069,3.864c-1.867,0.995-3.931,0.807-5.203,2.12
			c-0.225-0.005-0.482-0.206-0.696-0.142c-1.639-1.804-1.209-6.954,1.593-4.919C48.937,50.596,52.855,48.683,53.128,51z"/>
		<path style="fill:#515151;" d="M34.929,35.777C35.286,35.825,35.641,36,36,36c4.175,2.046,3.384,10.759-1.528,6.31
			c-0.195-0.803-2.367-1.708-2.444-2.97c-0.043-0.7,0.648-1.095,0.827-2.164C30.577,35.548,33.357,33.21,34.929,35.777z"/>
		<path style="fill:#202020;" d="M57,3c1.49-0.5,2.087-0.294,1.315,1.147c-0.33,0.568-0.141,1.561-0.571,2.066
			C56.966,6.629,56.1,6.831,55.22,6.858c-1.567,1.528-1.831,0.991-2.546-0.885c-0.93,0.253-1.15-0.035-0.659-0.864
			c-2.526,0.207-4.021-0.341-2.625-2.806C51.961,1.929,54.7,1.614,57,3z"/>
		<path style="fill:#5C5C5C;" d="M38,36c2.177,2.42,2.844,4.42,2,6v1c-0.957,0.773-1.596,1.834-2.076,2.955
			c-1.383-0.543-3.094-2.178-3.451-3.646c1.201,0.17,3.514-0.375,3.402-2.19C37.766,38.365,36.357,37.252,36,36H38z"/>
		<path style="fill:#C8C8C8;" d="M47.925,45.11c2.777,1.156,1.652,4.278-0.259,5.793c0.937,0.197,0.95,0.54,0.087,1.021
			c-1.906,0.872-2.127,3.054-1.593,4.919c-1.597,0.48-1.152-2.2-1.853-2.753c-0.806-0.88-1.156-2.419-0.192-3.089
			c0.255-1.375,0.594-2.736,1.016-4.084c-0.309-0.823,0.074-1.984-0.1-2.853C46.735,42.016,47.307,42.76,47.925,45.11z"/>
		<path style="fill:#363636;" d="M197,68c-0.185,2.887-1.168,2.624-2.094,0.084c0.09,1.61-0.168-9.107-0.473-5.383
			c0.109-1.325,2.108-1.137,2.595-2.685C198.418,62.389,198.186,65.542,197,68z"/>
		<path style="fill:#141414;" d="M199.27,2.236C202.019,3.085,201.679,5.462,199,6c1.645,2.324,1.641,2.843-1,4
			c-0.378-0.037-1.357,0.195-1.88-0.159L196,2L199.27,2.236z"/>
		<path style="fill:#8D8D8D;" d="M167,2c-0.385,2.086-2.99,2.575-4,4c-3.148-1.909-7.031-2.567-11.648-1.973L150,2
			C149.43-0.712,171.135,2,167,2z"/>
		<path style="fill:#222222;" d="M195,2v8c-0.541,0.541-1.077,0.294-1.611-0.741L190,3c-1.221,1.575-1.736,1.026-0.959-0.813
			C189.361,2.164,189.68,2,190,2C191.47,1.246,193.609,0.978,195,2z"/>
		<path style="fill:#252525;" d="M34.929,35.777c-0.925-0.124-1.911,0.428-2.073,1.399c-0.808-0.046-2.05,0.328-2.787-0.173
			c-0.136-2.65,2.852-3.643,3.9-5.916c1.709-0.5,2.47,0.686,1.935,2.311C35.685,34.059,35.382,34.983,34.929,35.777z"/>
		<path style="fill:#383838;" d="M66,71c1.409-1.689,2.121-1.141,2,1c0.716,0.616,1.391,1.278,2,2
			c-3.768,0.769-6.937-0.934-10.16-2.021L61,70C62.364,69.401,64.03,69.735,66,71z"/>
		<path style="fill:#929292;" d="M129.756,6c0.931,0.205,0.974,0.539,0.134,1c0.292,2.889-0.512,3.361-2.89,1.693
			c-0.852,0.849-1.607,0.989-2.265,0.42c-0.462,0.769-0.74,0.63-0.851-0.322l-0.837-3.894c0.421-1.346,1.538-1.204,2.861-0.898
			c0.074,0.412,0.837,0.841,0.864,1.213c0.387,1.033,0.797-0.072,1.228-3.315c0.323-0.352,0.675-0.024,1,0.008
			C131.347,2.895,131.628,4.251,129.756,6z"/>
		<path style="fill:#3A3A3A;" d="M202,8c-2.504,1.467-2.793,0.696-3-2c-0.047-1.236,0.543-2.504,0.27-3.764
			c1.067,0.077,2.14-0.442,3.698-0.146C203.282,4.427,202.438,6.164,202,8z"/>
		<path style="fill:#767676;" d="M44,2c0.052,2.707-0.506,5.628,1,8c1.347,4.036-5.247,2.678-3-1c-0.863-0.209-0.818-0.77,0-1
			c-2.227-1.579-1.896-3.671-0.147-5.68L44,2z"/>
		<path style="fill:#2F2F2F;" d="M42,8c-2.843,1.497-4.105,1.163-3.785-1c0.393-1.849,1.666-3.261,2.743-4.766
			c0.289,0.04,0.609,0.129,0.895,0.087C41.961,4.212,42.017,6.106,42,8z"/>
		<path style="fill:#191919;" d="M197.152,57.142c0.535,0.885,0.071,2.019-0.125,2.874c-1.44-0.531-2.764-0.655-3.667-1.906
			c-0.961-1.329,0.498-2.913,0.48-3.931C194.676,55.436,195.781,56.492,197.152,57.142z"/>
		<path style="fill:#B1B1B1;" d="M11,14c-1.079-1.137-1.823-3.1-2.986-4.007L6.226,8.597C6.08,8.483,6.546,8.132,6.764,7.874
			c2.078,0.29,4.269-0.459,6.289,0.619c-1.409,0.839-3.523,0.467-3.078,2.349C10.29,12.173,11.176,13.005,11,14z"/>
		<path style="fill:#262626;" d="M27,2c1.406,2.367-2.083,1.8-4,1c1.268,1.43,0.694,1.976-1,1c-2.157,0.922-5.027,1.538-6-1
			c0.001-0.398,0.015-1.036,0.95-1.033L27,2z"/>
		<path style="fill:#434343;" d="M5.421,7.226C3.443,5.376,2.672,4.286,1.71,2.76c0.916-0.724,3.747-1.371,4.142-0.211
			C6.298,3.855,6.274,6.069,5.421,7.226z"/>
		<path style="fill:#3A3A3A;" d="M125.908,4l-0.922,1.463c-0.609,0.966-1.27-0.258-1.939-0.566
			c-0.189-0.881-1.077-1.524-1.714-2.071c0.88-0.388,2.11-1.155,3.104-0.953C125.547,2.099,125.748,3.109,125.908,4z"/>
		<path style="fill:#3E3E3E;" d="M17,18c1.261-1.189,1.628-0.619,1,1c2.463-0.246,2.055,5.274-1.11,2.997l-2.764-4.702
			C14.664,16.489,15.622,16.724,17,18z"/>
		<path style="fill:#B7B7B7;" d="M21,16c2.064,1.473,1.478,6.238-1,7c0.717,1.075,0.271,1.582-0.874,1.003l-2.236-2.005
			c0.589-0.001,1.508,0.319,2.099-0.491C19.45,20.875,17.766,19.603,18,19c-1.097-1.728-1.218-2.612,1-3
			C19.319,13.344,20.239,13.459,21,16z"/>
		<path style="fill:#5A5A5A;" d="M24,26c-0.633,0.358-1.135,1.14-2.026,0.966c-1.437-0.681-1.752-1.981-2.848-2.963
			C18.802,23.335,19.348,22.867,20,23C22.047,20.541,25.724,23.361,24,26z"/>
		<path style="fill:#A9A9A9;" d="M30,2c0.873,0.284,0.86,0.618,0,1c-0.172,0.985-0.505,1.651-1,2c-0.291,0.887-0.625,0.877-1,0
			c-1.552,2.459-6.441,1.265-5-2c1.422,0.152,2.961,0.068,4-1H30z"/>
		<path style="fill:#A9A9A9;" d="M52.016,5.11C52.536,6.908,51.358,7.2,50,6c-0.348,2.78-1.722,2.534-2.273-0.155
			c0.114-1.127-0.388-2.317-0.152-3.459c0.569,0.049,1.251,0.001,1.816-0.081C50.041,3.428,51.121,4.189,52.016,5.11z"/>
		<path style="fill:#1C1C1C;" d="M197,68c-0.413,1.496,0.286,3.45,0,5c-1.739-1.045-1.99-3.057-2.094-4.916L197,68z"/>
		<path style="fill:#252525;" d="M159,75c1.024,0.283,1.709,1.12,2,2.121c-1.439-0.661-4.238,0.89-4.864-1.123
			c0.352-0.143,0.714-0.663,0.864-0.997C157.957,73.399,158.668,73.049,159,75z"/>
		<path style="fill:#333333;" d="M44.115,51c0.647,0.929,0.924,2.151,0.192,3.089c-1.61-0.341-1.974-2.115-2.391-3.268L43,50
			C43.908,49.735,44.28,50.068,44.115,51z"/>
		<path style="fill:#919191;" d="M202,8c-0.073,0.307,0.007,0.683,0,1l-4,1c0.69-1.325,1.056-2.544,1-4
			C199.706,7.048,200.703,7.9,202,8z"/>
		<path style="fill:#393939;" d="M37,2c-1.869,1.784-4.607,0.824-7,1V2H37z"/>
		<path style="fill:#313131;" d="M14,14c1.616-0.33,0.951,2.475,0.126,3.295L11,14H14z"/>
		<path style="fill:#636363;" d="M60,2c0.089,1.086-0.599,1.992-1.685,2.147C57.847,3.8,57.406,3.418,57,3
			C57.762,2.152,58.902,2,60,2z"/>
		<path style="fill:#898989;" d="M195,2h-5C190.538,0.522,195,0.118,195,2z"/>
		<path style="fill:#0F0F0F;" d="M126.772,5.213c0.059-1.208,0.166-2.566,1.228-3.315c-0.107,1.558,0.239,3.004-0.181,5.158
			C126.705,6.628,126.418,5.908,126.772,5.213z"/>
		<path style="fill:#323232;" d="M188,24c2.252,1.03,1.651,5.909,1,8c1.881-0.004,1.669,1.62,1,3c1.022,1.697,1.286,5.617-1,5
			c-1.419,1.202-1.905,0.663-1-1c-2.525-2.332-4.087-4.665-4.688-7c-2.664-0.05-2.998-1.064-1.312-3
			c-0.881-0.105-1.037-1.202-0.468-3.29L181,23c-0.873-0.284-0.86-0.618,0-1c0-1.419,0.188-3.019-1-4c1.121-0.572,1.206-2.282,2-3
			l2-5c0.687-0.478,0.866-1.194,1-2c0.997-0.192,0.561-1.593,1.941-2.093c-0.001,4.102,0.967,7.39,1,11.181L188,24z"/>
		<path style="fill:#2B2B2B;" d="M163,6c-1.371,1.935-3.018,3.514-5,5c-1.402,2.434-2.735,3.434-4,3c-1.417-3.952-3.134-7.879-4-12
			l15.076,0.298C164.088,3.389,162.973,4.56,163,6z"/>
		<path style="fill:#898989;" d="M155,17c-1.135-0.608-0.662-2.058-1-3l4-3L155,17z"/>
		<path style="fill:#999999;" d="M182,15c-0.091-1.888,0.385-3.876,2-5C184.245,12.049,183.45,13.689,182,15z"/>
		<path style="fill:#191919;" d="M105,43c1.771-2.421,3.882-0.57,3,2l1.88,1.018c-1.366,3.05-2.533,6.143-3.499,9.279
			c-3.49-0.267-8.76,0.671-12.529,1.61C91.807,57.826,89.49,58.662,89,56c-0.76-0.347-1.429-0.906-1.882-1.627
			c-1.064-1.694-1.589-3.673-2.79-5.278C85.106,48.715,85.47,47.496,86,47c-0.75-1.593,0.422-2.622,2-2
			c1.947-2.573,3.184-3.043,3.712-1.409l11.882-2.118L105,43z"/>
		<path style="fill:#1D1D1D;" d="M68,47c3.055-2.534,10.642,1.015,10,5c1.832,0.481,2.881,0.893,2.633,3
			c0.97,0.144,1.09,0.548,0.362,1.21C83.381,57.797,82.736,58.745,80,58c-1.13,2.496-4.193,2.277-6,4
			c1.159,1.573,0.572,2.113-1.073,1.024C69.795,63.508,61.968,58.028,65,55h-1c0.711,1.936-0.064,2.733-2,2
			c-1.288,3.703-3.947,4.333-7,2c-0.828-0.436-1.999-0.256-2.724-0.987c0.439-0.874,1.005-1.908,2.146-2.665L64,49
			c0.64-0.812,1.386-1.4,2.236-1.764L68,47z"/>
		<path style="fill:#383838;" d="M107,4l4,1c2.649,1.731,5.809,2.759,9,3c2.037,0.534,3.883,1.243,2,3c1.891,2.438-0.741,6.739-4,6
			c-0.207,1.363-1.54,1.029-4-1l-4-3c-1.332,2.437-2.382,1.752-2-1c-1.337,1.385-1.615,0.833-1-1c-0.941,0.443-1.607-0.224-2-2
			c-0.199-1.048-0.845-2.147-0.543-3.145C104.816,4.666,105.911,4.146,107,4z"/>
		<path style="fill:#333333;" d="M105,9c0.596,1.452,1.263,2.119,2,2c0.175,0.308,0.677,0.857,1,1c1.188,1.551,1.33,2.826-1,3l-1,5
			c1.061,0.281,1.158,2.038,1,3c2.196,3.578-0.576,4.624-3.231,2.297c-1.519,3.39-6.932-0.226-6.522-3.43
			c1.595-4.607,3.69-8.744,6.262-13.787C103.879,8.435,104.416,8.804,105,9z"/>
		<path style="fill:#373737;" d="M75,26c6.922-0.277,10.191,5.856,3.605,10.194c-1.313,0.865-4.068,2.228-4.605,0.483
			c-1.97,2.064-3.311,1.322-3.021-1.457c-0.728-0.888-1.708-1.833-1.838-2.777C69.012,31.504,72.001,24.612,75,26z"/>
		<path style="fill:#B1B1B1;" d="M61.255,25.381C63.554,25.321,65.136,25.861,66,27c0.69,0.735,1.457,1.674,1,3
			c0.853,1.77,3.355,5.304,1.494,7.366c-1.599,1.772-5.739,0.37-7.544-0.288C60.065,36.156,60.082,35.463,61,35
			c1.07-0.912,0.97-1.633-0.321-2.159c-2.513,0.25-2.936-1.891-2.632-3.961c-0.792-1.267-1.275-2.872-0.276-4.123
			C59.496,22.395,60.458,22.568,61.255,25.381z"/>
		<path style="fill:#464646;" d="M98,10c-2.158-0.772-3.833-0.675-5.024,0.289l-1.663-2.547c-1.37-0.423-1.292-0.498,0.065-0.855
			C89.365,5.6,89.645,5.33,92,5c4.528-4.876,4.022-2.623,13.042-2.928C102.956,4.724,102.071,11.708,98,10z"/>
		<path style="fill:#1E1E1E;" d="M83,49c0.023,1.448-0.113,3.189-1.748,3.199C81.3,53.719,80.216,53.653,78,52
			c-2.856-2.328-6.447-4.041-10-5c1.053-1.68,2.998-3.321,4.716-3.593C72.938,43.372,83.423,45.351,83,49z"/>
		<path style="fill:#A4A4A4;" d="M82,26c1.402,2.865,3.17,3.646,5.306,2.341l1.644,1.541c0.115,0.329-0.231,0.956-0.034,1.228
			c-1.2,1.778-1.839,3.742-1.916,5.89c-0.395,1.176-1.255,2.099-2,3c-1.886,2.162-3.443,0.41-2-2c0.861-1.787,0.861-1.787,0,0
			l-1.518,1.748c-1.764-0.349-3.391,0.359-4.881,2.127c-2.791-0.137-4.854-2.975-2.601-5.197c1.797,0.034,6.926-5.125,6.918-6.366
			C80.893,26.684,78.484,27.612,75,26v-1C76.642,22.985,80.946,23.562,82,26z"/>
		<path style="fill:#2F2F2F;" d="M91,23c1.525-1.364,2.099-0.819,1.058,0.997c-0.91,2.04-1.434,4.337-3.108,5.885l-2.302,0.812
			c-1.767,0.623-3.59,0.364-4.511-1.158C81.585,28.624,80.882,27.236,82,26c-2.162-1.886-0.41-3.443,2-2l4-3
			C89.98,19.176,90.98,19.843,91,23z"/>
		<path style="fill:#2C2C2C;" d="M103.769,25.297c1.486,0.585,1.76,1.192,0.822,1.819c-0.042,3.143-3.066,5.12-5.591,2.885
			c-2.266,2.031-4.296,2.696-6.089,1.995c-1.425-4.238,3.203-6.855,4.336-10.129C99.571,22.776,101.193,25.111,103.769,25.297z"/>
		<path style="fill:#2B2B2B;" d="M83,38l2,2c-0.58,1.549-0.587,4.577-3.029,4.924c-2.192,0.312-3.842-1.678-5.399-2.305
			c-0.864-0.282-0.855-0.531,0.029-0.745c0.126-1.095,0.016-2.163-0.127-3.619C78.741,37.55,80.919,37.498,83,38z"/>
		<path style="fill:#2B2B2B;" d="M91.795,33.858c-0.78,3.201-1.183,6.416-1.209,9.647L88,45c-0.584,0.848-0.673,1.885-2,2
			c-0.4,0.226-2.404,0.016-1.999-0.804l7.482-15.16C92.412,32.496,91.74,33.211,91.795,33.858z"/>
		<path style="fill:#2F2F2F;" d="M50,21c1.336-1.467,1.927-0.888,0.992,0.916c0.546,1.569-0.223,4.217-2.209,4.129
			c-1.045-0.046-2.391,0.732-3.754,0.066C43.343,24.762,43.443,18.588,45,17h1c1.868,1.903,3.28,2.503,4.235,1.799L50,21z"/>
		<path style="fill:#222222;" d="M79,3c2.58-0.378,3.384,0.422,3,3c3.044-0.923,0.113,6.656-2.092,4.633
			C77.525,12.082,76.973,11.603,78,9c-4.049-1.373-5.049-3.04-3-5c0.361-0.638,1.048-1.393,1.722-1.68
			C77.523,1.98,78.364,2.606,79,3z"/>
		<path style="fill:#343434;" d="M63,19c3.047-1.119,4.178,0.622,2,3c1.249,1.015,0.756,2.628-1,2
			c1.4,2.273-0.903,2.826-2.745,1.381c-1.146-0.287-2.309-0.493-3.483-0.625c-0.01-0.321-0.242-0.658-0.218-0.976
			c0.104-1.351,0.524-2.648,1.263-3.78C60.732,18.443,62.127,18.11,63,19z"/>
		<path style="fill:#424242;" d="M98,11c0.737,0.021,1.788,0.044,2.017,0.539c0.8,1.729-2.919,2.238-3.912,4.471l-3.648,2.217
			c-0.205-0.412-0.28-9.082,0.165-9.203C93.726,8.725,97.519,9.818,98,11z"/>
		<path style="fill:#444444;" d="M55.903,38.982c1.394-0.596,1.88-0.331,1.06,1.018c4.963,4.825,4.172,7.074-2.372,6.745
			C51.121,49.002,51.266,41.819,54,41C53.927,39.718,55.275,39.617,55.903,38.982z"/>
		<path style="fill:#B3B3B3;" d="M98,10v1c-0.851-0.582-3.788-1.852-4.579-0.656c-1.164,1.761-0.137,4.328-0.352,6.658
			c1.211-0.426,2.098-1.276,3.035-0.992C96.622,18.439,92.968,21.429,91,23l-3-2c-2.205,0.666-4.037-1.041-5-3
			c-0.99-2.005-1.408-4.22,1-5c2.129-0.842,3.886,0.647,5.271,4.466c1.14-2.31,1.252-4.897,0.338-7.762l1.704-1.962
			C93.572,8.314,95.832,9.09,98,10z"/>
		<path style="fill:#A5A5A5;" d="M54,41c-0.417,1.503-1.207,2.872-0.975,4.953c2.352-0.06,4.296,0.552,6.345-0.504
			c-0.566-2.704-2.248-3.689-2.406-5.449c2.11-1.923,5.297,1.497,5.037,4c1.512,1.37,1.479,2.694,0,4h-1
			c-3.023,0.325-5.647,1.325-7.872,3c-1.844-0.146-3.693,0.149-5.375,0.924c-0.122-0.28,0.09-0.781-0.087-1.021
			c1.51-3.456,2.62-6.368,3.331-8.735c0.502-0.45,0.307-1.781,1.446-1.74C52.93,40.445,53.515,40.691,54,41z"/>
		<path style="fill:#404040;" d="M92.058,23.997C91.857,23.515,91.411,23.274,91,23c-0.429-5.183,3.776-4.003,5.104-6.99
			c0.548,0.166,0.794,0.185,1.953,0.24C95.962,18.215,94.426,25.592,92.058,23.997z"/>
		<path style="fill:#3A3A3A;" d="M74,36.677c1.136,1.596,1.226,3.789,2.601,5.197c-0.029,0.247-0.019,0.497-0.029,0.745
			c-1.992,0.087-3.97-0.943-5.265-2.41c-1.26-1.427-1.514-3.455-0.328-4.989C71.87,35.912,73.031,36.083,74,36.677z"/>
		<path style="fill:#212121;" d="M43.701,32.919c1.153,1.383,1.523,3.113,1.126,4.908c0.786,1.119,0.343,1.609-0.887,0.945
			c-2.553,0.364-3.501-2.568-3.648-4.774c-0.735-1.012-0.29-1.41,0.74-0.696C40.605,30.458,42.656,30.339,43.701,32.919z"/>
		<path style="fill:#555555;" d="M51,30c-0.333,2.775-0.056,4.863-1.219,6.665c-2.299-1.584-3.009-3.473-4.938-5.685
			C48.035,32.238,48.836,30.343,51,30z"/>
		<path style="fill:#A9A9A9;" d="M66,41c3.155-0.434,4.488,0.233,4,2c-1.782,0.251-2.782,0.918-3,2
			c-0.332,0.717-0.58,1.468-0.764,2.236c-0.059,0.73-0.031,1.386-0.338,2.118C65.548,50.192,64.554,49.326,64,49v-1.178L62,44
			c-1.835-1.301-1.875-3.817,0.831-4.073C63.791,39.81,64.847,40.167,66,41z"/>
		<path style="fill:#363636;" d="M88,4c2.468-0.158,2.363,0.063,1,2c1.832,0.454,1.499,1.454-1,3c1.112,2.568-0.174,3.046-2,1
			c-1.27,1.539-2.33,1.91-3.181,1.114C81.553,9.466,83.304,6.398,85,5C85.882,4.423,87.038,4.257,88,4z"/>
		<path style="fill:#373737;" d="M62.831,39.927C62.58,41.317,62.92,42.85,62,44c-2.641,0.014-2.661-3.425-5.037-4
			c-0.041-0.452-0.791-0.734-1.06-1.018C57.895,36.965,60.653,38.716,62.831,39.927z"/>
		<path style="fill:#262626;" d="M85,5c-1.218,2.374-2.218,2.707-3,1c-1.344-0.596-2.404-1.656-3-3
			c1.789-1.517,4.19-1.199,7.05-0.786C85.166,3.228,85.16,4.062,85,5z"/>
		<path style="fill:#3E3E3E;" d="M83.829,50.108c-0.134,2.163,1.509,4.507,0.215,6.475c-1.085,2.358-2.27,1.948-3.05-0.373
			c-0.206-0.341-0.119-0.898-0.362-1.21c-1.083-2.08-0.876-3.013,0.619-2.801C81.41,50.852,81.405,49.25,83,49
			C82.955,49.386,83.257,50.475,83.829,50.108z"/>
		<path style="fill:#282828;" d="M47.925,45.11c-0.908-0.407-2.028-0.474-2.894-1.047c-0.354-1.772-1.104-3.468-1.092-5.291
			c0.004-0.553,0.16-1.198,0.887-0.945C47.521,39.116,47.923,42.33,47.925,45.11z"/>
		<path style="fill:#525252;" d="M47.667,50.903c-1.306-1.77,0.26-3.79,0.259-5.793c3.088,1.65,0.587-0.714,3.072-2.942
			c0.504-0.37,1.1,0.055,1.004,0.382c-0.269,0.911-0.767,1.503-1.654,2.088c-0.202,1.424,1.393,1.851,2.017,3.54
			C50.923,49.929,49.093,49.968,47.667,50.903z"/>
		<path style="fill:#919191;" d="M93,34l1.534,1.662c-3.138,5.409-0.629,6.471,7.528,3.185L104,40c2.645-0.027,2.652,1.015,1,3
			c-5.647-1.125-11.393,0.907-17,2c2.299-3.34,2.099-7.563,3.795-11.142C92.132,33.862,92.666,34.181,93,34z"/>
		<path style="fill:#414141;" d="M92,5c-0.188,0.509-0.094,1.455-0.622,1.887C90.17,8.05,88.15,7.976,89,6
			c-0.68-0.443-1.031-1.193-1-2c0.254-0.611,0.219-1.674,0.799-1.833c1.016-0.28,1.974-0.208,3.774-0.172
			C93.193,2.868,91.789,3.892,92,5z"/>
		<path style="fill:#696969;" d="M45,17l0.029,9.11C44.45,25.827,43.617,26.223,43,26c-1.055-2.572-1.986-7.131,0-9H45z"/>
		<path style="fill:#1E1E1E;" d="M43,17v9c-0.472-0.17-0.747-0.61-1-1c-1.332-2.057-1.493-7.454-0.457-7.956
			C41.941,16.851,42.546,17,43,17z"/>
		<path style="fill:#333333;" d="M87,37c-1.432-1.029-2.4-2.733-1.927-4.78c1.703-0.397,2.796-0.647,3.843-1.11
			C90.401,33.156,87.677,34.985,87,37z"/>
		<path style="fill:#888888;" d="M60.679,32.841C62.973,32.515,63.066,34.029,61,35c0.142,0.367,0.374,0.803,0.694,1.151
			c0.617,0.67,0.113,0.929-0.744,0.928c-1.582-0.576-3.533,0.872-5.408-0.861c1.052-1.756,2.737-1.249,3.605-2.157
			C58.276,32.108,58.977,31.53,60.679,32.841z"/>
		<path style="fill:#373737;" d="M60.679,32.841c-0.601,0.147-1.125,0.794-1.532,1.22c-0.674-0.068-2.677,0.247-2.605-1.019
			c0.103-1.805,1.364-2.864,1.505-4.162C59.941,29.122,59.994,31.343,60.679,32.841z"/>
		<path style="fill:#2B2B2B;" d="M54,18c0.123,1.608,0.247,3.257-0.033,4.858c-1.03-0.187-2.085-0.341-2.974-0.942
			C50.629,21.67,50.386,21.215,50,21c-1.754-1.479-1.78-2.577,0.433-1.959C51.933,17.107,53.122,16.76,54,18z"/>
		<path style="fill:#242424;" d="M43.701,32.919l-2.669,0.383c-1.782-0.151-2.185-1.701-0.255-2.231L41,28.717
			c1.054-0.806,1.819,0.613,2.432,1.487C43.844,30.791,43.429,32.154,43.701,32.919z"/>
		<path style="fill:#888888;" d="M99,30c2.179,3.308-3.514,6.48-6,4c0.056-0.515,0.084-1.489-0.089-2.005
			C95.048,31.62,96.902,30.528,99,30z"/>
		<path style="fill:#434343;" d="M70,43c-0.503-2.013-3.17-0.263-4-2c1.059-0.623,2.61-1.601,3.95-0.575
			C70.949,41.191,71.74,42.169,70,43z"/>
		<path style="fill:#5D5D5D;" d="M49.781,36.665c1.104,0.34,2.414-0.191,3.53,1.126c-0.423,1.897-2.481,1.122-3.706,1.195
			C48.911,39.029,49.33,37.366,49.781,36.665z"/>
		<path style="fill:#555555;" d="M45.205,28.208c0.372-0.519,1.661-0.127,2.207-0.201c0.411-0.056,0.948,0.733,0.559,1.475
			c-0.396,0.754-1.107,0.459-1.506,0.538C45.517,30.207,44.324,29.437,45.205,28.208z"/>
		<path style="fill:#484848;" d="M70,43c-0.988,0.472-1.617,2.02-3,2c-0.456-0.02-1.503-1.244-0.8-1.692
			C67.483,42.49,68.932,43.203,70,43z"/>
		<path style="fill:#434343;" d="M56.102,23.669c-0.833,1.441-2.845,1.959-4.108,0.855c0.889-0.906,1.87-1.082,1.972-1.666
			C54.63,22.978,56.124,22.706,56.102,23.669z"/>
		<path style="fill:#424242;" d="M53,30c0.599,0,1.608-0.097,1.962,0.417c0.279,0.406,0.082,2.008-0.342,2.418
			c-0.386,0.373-0.841-1.116-2.079-0.941C51.512,32.04,52.584,30.657,53,30z"/>
		<path style="fill:#515151;" d="M52.326,33.471c0.168-0.543,1.749,0.649,2.212,0.668c0.778,0.032-0.107,0.95-0.519,1.441
			C53.405,36.31,51.751,35.326,52.326,33.471z"/>
		<path style="fill:#959595;" d="M111,5c-0.998-0.652-3.607,0.889-4-1V3C108.369,3.622,110.012,3.791,111,5z"/>
		<path style="fill:#414141;" d="M66,41c-0.368,0.216-0.871,0.778-1.419,0.544c-0.631-0.27-0.55-1.594-1.75-1.617
			c0.578-0.605,1.442-1.004,2.122-0.5C65.5,39.832,65.741,40.458,66,41z"/>
		<path style="fill:#4C4C4C;" d="M53,30h-2c-0.014-1.032-0.329-2.865,0.484-2.857C51.932,27.148,53.661,28.956,53,30z"/>
		<path style="fill:#1B1B1B;" d="M110,68.144L98,61c-2.337-1.23-3.872-2.573-4.604-4.03c4.187-0.382,8.211-1.321,12.07-2.815
			c0.784,0.012,7.354,6.813,7.509,8.394C113.098,63.799,111.433,68.94,110,68.144z"/>
		<path style="fill:#949494;" d="M120,46c0.937,0.808,0.431,2.505-1,2c-1.165,0.579-2.499,0.913-4,1c1.081,2.023,1.377,4.049-1,5
			c-3.053,1.53-3.137-0.951-3.071-3.587C109.151,53.57,108.512,55.808,113,55c3.018,0.551,2.203,4.932,1,7
			c-0.74,2.38-2.861,5.383-2,8c-1.028-0.026-1.35-1.469-2-1.856c1.881-1.556,3.091-5.034,1.223-7.318
			c-1.829-2.237-3.892-4.077-5.936-5.822c-3.937,1.236-7.296,1.77-11.427,2.241C95.148,59.17,97.385,59.132,98,61
			c-1.939-1.154-4.458-1.488-6.831-3.517C90.295,62.98,94.104,66.887,92,71l-3-15c3.163,1.816,6.737-0.198,10.356-0.537
			c4.397-0.412,7.015-1.401,8.436-5.868c0.499-1.57,1.793-3.252,0.208-4.595c0.378-0.858,1.047-1.662,1.933-1.569
			c2.814,0.293,3.049,0.317,6.067-0.431C118.044,43.48,119.378,44.48,120,46z"/>
		<path style="fill:#191919;" d="M146.78,3.039C147.158,3.883,146.9,4.204,146,4c-1.115,0.495-1.782,1.161-2,2l-6,7
			c2.504,2.381-1.501,5.977-4,4c-1.098,1.863-4.279,5.919-6,3.827c-1.879,0.84-2.419,0.145-2-1.827c-1.355-0.377-0.823-2.888,0-4
			c-0.746-1.884-1.58-5.992,1-6.307c1.006-0.488,1.972-1.054,2.89-1.693c1.539-0.335,3.242-0.668,5.11-1
			c2.943-0.769,2.943-0.769,0,0c-1.62,0.591-3.899,1.007-5.244,0c-0.752-1.114-1.101-2.748-0.756-4.094
			C135.024,2.499,141.092,0.96,146.78,3.039z"/>
		<path style="fill:#1C1C1C;" d="M150,39.9c0.677,0.627,2.701,0.829,3.282,1.657c1.978,2.824-0.87,13.385-0.854,13.376
			c-0.659,0.354-1.706,0.026-2.427,0.067c-0.312,2.708-1.076,2.444-1.995-0.042c-0.273,2.55-1.553,2.777-2.005,0.226
			c-2.73-0.221-3.048-0.594-3-3.184c-2.566,2.13-5.299-1.078-4-4c-1.54-1.082-1.207-2.749,1-5c-2.526-1.374-1.798-2.829,1-3
			c0.355-2.538,1.022-3.205,2-2L150,39.9z"/>
		<path style="fill:#2B2B2B;" d="M150,39.9l-7-1.9c-0.978,0.477-1.645-0.19-2-2c-2.57,0.181-2.721-0.126-1-2
			c-2.127-1.241-1.127-2.574,3-4c-1.459-2.877,3.146-5.626,5-3c0.982-1.014,2.315-1.68,4-2c-0.498-2.705,0.207-3.06,2-1
			c0.707,0.051,1.51,0.346,1.771,0.844c0.222,0.424,0.561,1.254,0.308,2.002c-2.414,7.114,0.349,12.31-2.755,13.1
			C152.206,40.23,151.066,39.856,150,39.9z"/>
		<path style="fill:#242424;" d="M159.244,55c0.553-0.548,1.431-1.32,1.914-1.041c1.95,1.129,10.986,8.202,11.158,9.594
			c0.057,0.462-0.099,0.951-0.316,1.447c2.399,4.081-1.947,0.347-10,3c-0.889,0.891-4.177,1.036-5,0c-1.24-0.662-2.482-1.633-3-3
			c0.35-2.924-1.43-7.187,1-10C155.995,54.027,158.71,53.522,159.244,55z"/>
		<path style="fill:#242424;" d="M150.911,10.268c-2.472,4.424-7.166,9.861-11.911,11.948c-0.018,3.049-2.259,3.304-4,0.785
			c-2.571,1.014-4.238,1.014-5,0l-0.662-1.23c1.932-1.278,3.486-2.868,4.662-4.77c1.055-1.054,3.547-2.469,4-4l6-7
			c-0.673-0.857-0.007-1.524,2-2c0.122-0.376,0.585-0.623,0.78-0.961C149.946,4.197,150.423,6.609,150.911,10.268z"/>
		<path style="fill:#1E1E1E;" d="M181,22v1c0.722,2.042,1.173,5.354-1,6c1.453,2.504-0.993,4.252-2.974,1.974
			C175.14,32.899,173.132,33.908,171,34c0.834,1.832-0.361,2.437-3.585,1.814c-0.28,0.428-0.584,0.797-0.974,0.96
			c-0.53,0.221-8.083-8.142-1.344-7.676C164.474,25.02,172.923,20.9,177,21c0.646-0.41,1.461-0.986,2.298-0.706
			C180.063,20.549,180.506,21.413,181,22z"/>
		<path style="fill:#282828;" d="M177,21l-11.903,8.097c-1.95,3.149-4.61,1.921-6.097-1.165c-1.228,1.573-1.732,0.986-1-0.932
			c-0.169-2.465-2.276-3.769-2.084-7.163C163.291,20.877,170.575,18.536,177,21z"/>
		<path style="fill:#2A2A2A;" d="M150,55l3.289,1.903C150.028,62.551,154.873,73,148,72c-1.277-0.472-2.725-0.15-4-1l-3-2
			c-1.451-1.224-1.344-2.006-0.851-3.487c0.894-2.683,5.735-8.444,7.856-10.555C148.502,54.77,149.432,55.113,150,55z"/>
		<path style="fill:#242424;" d="M165.11,39.848c1.873-0.542,2.016,0.236,0.223,1.175c1.428,1.865,1.474,3.086,0.136,3.662L166,47
			c1.419,1.409,0.793,1.99-1,1c0.494,2.654-0.506,3.988-3,4c1.112,2.568-0.174,3.046-2,1c-0.999,1.473-3.495,1.622-5,1
			c-1.249,1.228,0.308-12.957,1.789-12.104l5.386-0.72C161.146,38.283,163.099,37.529,165.11,39.848z"/>
		<path style="fill:#191919;" d="M154,24c-0.491,0.435-1.627,0.48-2,1c-1.082,0.657-2.503,1.301-3,0
			c-2.447,2.638-6.595,0.981-6-2.711c-0.322-0.384-0.598-0.78-0.711-1.218c-0.188-0.725,6.148-7.204,7.428-8.319
			c0.202-0.176,0.7-0.013,1.283,0.248C152.418,11.938,155.865,23.855,154,24z"/>
		<path style="fill:#2D2D2D;" d="M165.11,39.848c-1.051,0.316-2.081,0.593-2.934,1.327l-5.386,0.72
			C154.624,38.49,156.954,34.817,157,31c0.342-1.821,0.944-2.702,2.163-1c0.467-0.156,0.932-0.27,1.387-0.238
			C161.539,29.83,169.294,38.958,165.11,39.848z"/>
		<path style="fill:#808080;" d="M151,13l-8,9.289c-0.596,2.862-2.933,2.479-4-0.073c3.284-4.529,7.625-8.346,11.911-11.948
			C151.025,11.127,151.992,12.078,151,13z"/>
		<path style="fill:#939393;" d="M160,53c1.622,1.264,1.296,2.124-0.756,2H155c0.152-0.208-0.075-0.726,0-1
			C156.646,53.562,158.293,53.097,160,53z"/>
		<path style="fill:#1D1D1D;" d="M159,27.932c1.979,0.731,2.221,1.321,0.163,2.068L157,31c0.017-1.366-0.474-3.352,1-4
			C158.026,27.385,158.651,27.858,159,27.932z"/>
		<path style="fill:#7C7C7C;" d="M191.168,65c-0.077,0.306-0.018,0.638-0.066,0.95c-0.783-0.131-1.57-0.141-2.595-0.204
			c-1.159-0.071-1.652,0.932-1.578,2.19c-1.421-1.947-2.775-3.739-4.929-4.961c0.611-2.622,3.057-2.637,5-0.976
			C188.497,62.079,189.887,63.079,191.168,65z"/>
		<path style="fill:#959595;" d="M189,72c-0.835,0.789-2.244,1.161-2.948,2.092c0.47-2.023,1-4.063,0.877-6.155
			C187.878,69.236,188.401,70.495,189,72z"/>
		<path style="fill:#282828;" d="M26,16c1.742,1.32,2.709,2.987,2.9,5c-0.155,2.688-2.77,3.796-4.9,5c-1.17-1.193-2.477-2.293-4-3
			c-0.248-2.465-0.046-4.794,1-7c0.318-2.241,0.896-2.721,1.458-0.529C24.825,14.822,26.005,14.998,26,16z"/>
		<path style="fill:#343434;" d="M42,9c0.395,0.114,0.771,0.983,1.306,1.269C43.786,10.526,44.471,10.685,45,10l2.063,1
			c0.829,0.385,0.808,0.718-0.063,1c1.139,0.763,0.806,1.763-1,3c-2.206,1.369-4.959,1.168-7.913,0.895
			C37.855,13.912,37.972,12.499,38,11C38.346,8.155,39.641,7.524,42,9z"/>
		<path style="fill:#414141;" d="M35,18c-1.322-1.081-0.829-1.603,0.916-1.178l4.021,0.311c0.048,2.484,0.199,4.654-0.722,6.991
			c-2.921-0.128-5.326-1.282-7.01-3.216C32.409,19.516,34.343,18.752,35,18z"/>
		<path style="fill:#262626;" d="M32,13c0.917,1.12,0.704,2.668,0.843,4l-2.895,3.756c-0.977-0.384-2.143-2.014-2.217-3.001
			C27.659,16.801,28.565,10.835,30,12C31.526,10.476,32.275,10.828,32,13z"/>
		<path style="fill:#232323;" d="M53.108,14.058C53.239,14.678,53.023,15.381,53,16c0.252,0.485,0.416,0.903,0.275,1.088
			C50.739,20.414,47.818,19.973,46,16c0-0.331,0.029-0.67,0-1C46.868,12.227,51.09,12.355,53.108,14.058z"/>
		<path style="fill:#3C3C3C;" d="M32.768,26c-0.698,0.69,0.227,1.32,0.232,2c-0.849,1.323-5.947,0.058-5.892-1.955
			c0.774-0.575,1.58-1.544,2.798-2.091C30.794,23.554,31.421,25.809,32.768,26z"/>
		<path style="fill:#909090;" d="M30,12c-2.007,2.255-1.27,6.159-0.052,8.756L28.9,21c-1.233-1.42-2.876-2.988-2.9-5
			c0.766-1.338,1.099-3.005,1-5c0.289-0.759,0.623-0.746,1,0C28.97,8.056,31.039,9.293,30,12z"/>
		<path style="fill:#8E8E8E;" d="M53,16l1.142,0.929c0.969-0.364,1.282-0.058,0.94,0.919C54.749,17.945,54.347,17.997,54,18
			c-1.873,0.016-3.309,1.311-4,3c-1.679-0.936-3.134-2.269-4-4v-1c1.417,0.656,2.362,1.941,3.56,3.035
			C50.893,17.515,51.781,16.561,53,16z"/>
		<path style="fill:#353535;" d="M40,42l-2-6c2.29,1.217,2.829,4.019,5.136,5.637C41.59,42.363,40.843,41.89,40,42z"/>
		<path style="fill:#8F8F8F;" d="M33,28l0.018,2.165C31.102,28.307,27.86,28.997,26,27c0.341-0.343,0.72-0.667,1.108-0.955
			C28.412,27.81,30.976,27.721,33,28z"/>
		<path style="fill:#292929;" d="M35.916,16.822C35.552,17.153,35.321,17.632,35,18c-0.688,0.142-2.062-0.086-2.157-1
			c1.046-1.357,1.946-2.757,3.157-4C36.95,14.163,37.063,15.777,35.916,16.822z"/>
		<path style="fill:#2A2A2A;" d="M40.777,31.071c-0.07,0.735,0.186,1.494,0.255,2.231c0.05,0.531-0.085,1.134-0.74,0.696
			c-0.784-0.355-1.425-0.754-2.013-1.504c-0.43-0.549,0.275-1.597,1.111-1.803C39.789,30.593,40.202,31.002,40.777,31.071z"/>
		<path style="fill:#4A4A4A;" d="M38,11c-0.537,0.738-1.362,1.345-2,2c0.017-2.204,0.46-4.544,2.215-6
			C40.066,7.571,39.995,8.905,38,11z"/>
		<path style="fill:#585858;" d="M32.768,26l0.406-1.394c0.289-0.993,1.461-0.885,1.795-0.112c0.2,0.461,0.247,1.969-0.393,2.409
			C34.157,27.191,33.372,26.09,32.768,26z"/>
		<path style="fill:#A7A7A7;" d="M162,68v1c-0.959,0.088-2.016,0.032-3,0c-0.424-0.014-1.025,0.952-1.535,0.728
			c-0.747-0.329-0.101-1.532-0.465-1.728C158.551,67.629,160.49,68.497,162,68z"/>
		<path style="fill:#A1A1A1;" d="M159,75h-2c0.614-1.372,0.798-3.005,2-4V75z"/>
		<path style="fill:#969696;" d="M193.252,21.971c-1.146,2.395-0.988,4.974-0.087,7.441c0.14,2.141,0.752,4.07,1.835,5.787
			c-0.757,0.929-1.587,1.515-2.364,2.023c-1.221,0.8,0.177,2.058,0.364,2.777c-0.807,0.763-1.048,1.87-1,3
			c-0.145,0.574-1.264,1.229-1.181,2c-3.29,0.572-3.929-1.714-0.819-3c0.765-2.576,0.765-4.909,0-7c-1.35-0.545-1.147-1.637-1-3
			c0.284-0.873,0.618-0.86,1,0c0.698-1.538,0.773-3.192,0.223-4.961c-0.985-0.876-1.022-2.719-0.984-4.123l-0.013-2.131
			C190.514,21.346,191.874,21.707,193.252,21.971z"/>
		<path style="fill:#969696;" d="M198,21c-0.916-0.148-2.061-0.008-3,0c1.258-1.167-0.047-2.574,0.554-4.49
			C198.07,17.671,196.853,19.875,198,21z"/>
		<path style="fill:#1D1D1D;" d="M119.756,55.585c-0.697,0.52-0.454,2.09-0.882,2.766L114,62c-2.046-1.598-0.648-4.685-1-7
			c-0.243-0.909,0.091-1.243,1-1c-0.226-1.861-0.23-3.608,1-5C118.196,47.149,120.199,52.943,119.756,55.585z"/>
		<path style="fill:#2F2F2F;" d="M140,34c0.664,0.424,0.664,1.506,1,2c1.313,1.502,0.844,2.416,0,4c-0.156,1.046-0.793,2.014-1,3
			c-1.037,2.726-2.141,5.359-4,2c-1.775,2.574-8.662-0.97-8-3.94c-2.739-1.965-2.181-5.859,1-7.06c0.249-1.491,1.943-3.169,3-4
			C133.797,29.403,141.09,31.743,140,34z"/>
		<path style="fill:#2C2C2C;" d="M128,41.06l8,3.94c2.295,0.139,2.872,0.467,1.756,2.582C137.248,48.545,128.108,53.294,127,52
			c-2.584,1.137-4.358-1.994-3.092-4.189c-0.221-1.227-0.168-2.478,0.058-3.701C124.069,41.246,125.474,37.996,128,41.06z"/>
		<path style="fill:#1D1D1D;" d="M125,15c0.74,2.396-0.273,8.185-2,10c-0.111,0.556,0.335,1.539-0.273,2.211
			C122.353,27.624,121.73,28.029,121,28c-2.221,1.558-3.011,1.036-2.368-1.568L118,24l-1.182-6.39L118,17
			c1.756-1.692,2.402-4.185,4-6c-0.715-1.743,0.191-2.419,1.884-2.209c0.235,0.177,0.596,0.171,0.851,0.322
			C125.734,10.382,125.803,13.504,125,15z"/>
		<path style="fill:#1D1D1D;" d="M121,29c4.09-2.205,0.437,15.259,0.189,16c-0.121,0.66-0.518,0.994-1.189,1
			c-0.999-0.082-2.224,0.316-3.411-0.092c-0.968-0.333-0.691-2.01-0.589-2.908l1-7c0.096-4.861,0.145-7.291,0.145-7.291
			C118.47,26.961,119.755,27.058,121,29z"/>
		<path style="fill:#323232;" d="M128,20.827c2.443-1.014,3.028-0.118,2,2.173l2.052,0.67c-1.293,0.691-1.575,1.468-0.847,2.33
			c3.206-0.839,3.816,1.665,0.795,3c-2.656,0.608-4.698,3.061-7.951,1.827c-0.53-1.816,0.954-3.33,0.951-4.827
			c-1.634-1.62-1.014-5.972,1-7C126.793,19.365,127.726,19.929,128,20.827z"/>
		<path style="fill:#343434;" d="M129,59c1.658,0.081,2.039,5.915,1.807,6.302c-0.45,0.75-3.881,3.721-3.996,1.735
			c-2.865,1.239-4.676,0.887-5.433-1.055c-0.549-2.486,0.897-4.286,2.622-5.982c-1.514-1.193-0.843-1.669,1-1
			C126.704,56.841,127.629,55.674,129,59z"/>
		<path style="fill:#242424;" d="M129,34c-0.389,2.334-0.818,4.695-1,7.06c-1.939,0.192-2.438,2.305-4.034,3.05
			c-1.069-0.625-1.067-12.129,2.487-12.186C127.935,31.9,129.533,31.848,129,34z"/>
		<path style="fill:#919191;" d="M139,48l-0.423,2.506l-8.7,4.34c0.949,1.828,0.656,3.213-0.877,4.154c-1.232-0.832-2.624-0.461-4,0
			c-1.013,0.429-2.553,0.151-3-1c0.018-0.329-0.056-0.675,0-1c1.675-1.713,3.341-3.38,5-5c2.094-0.804,12.947-3.961,9-7
			c1.618,0.201,3.093-0.687,4-2C139.654,44.65,139.521,46.365,139,48z"/>
		<path style="fill:#202020;" d="M127,52c-0.049,1.488,0.212,2.975-0.116,4.914c-1.937,0.263-3.393,0.063-4.884,0.086
			c0.55-3.18-0.898-7.059,1.908-9.189C125.248,48.949,126.093,50.514,127,52z"/>
		<path style="fill:#999999;" d="M132,60c1.893,1.354,1.25,4.368,0,6c-0.483,2.512-1.277,4.676-2.382,6.492L128,72
			c0-1.507,0.358-3.172-0.761-4.687c-1.971,0.787-3.576,1.493-5.302,1.416c-0.334-0.791-0.372-1.9-0.559-2.748
			c2.412,1.315,6.384,1.366,8.299-1.381c1.165-1.671-0.53-4.097-0.677-5.601C130.369,56.75,131.703,57.626,132,60z"/>
		<path style="fill:#2B2B2B;" d="M119,48c1.637-0.961,1.893,0.515,1.144,2c0.289,2.003,1.478,4.193-0.388,5.585
			c-1.514-2.254-2.61-4.87-4.756-6.585c0.509-0.576-0.412-2.503,1.471-2.082C117.357,47.116,118.189,47.518,119,48z"/>
		<path style="fill:#9E9E9E;" d="M121,28v1c-0.712,0.075-1.816-0.298-2.448,0.059c-1.694,0.956,0.833,4.852-1.552,6.941
			c-1.727-0.291-2.406-2.016-2.038-5.174C112.939,31.75,111.285,31.808,110,31c-2.86-0.064-2.733-2.324,0-3l1.04-2.002
			c2.976,0.529,5.296-0.137,6.96-1.998C119.289,25.129,119.145,27.536,121,28z"/>
		<path style="fill:#8C8C8C;" d="M143,30c-1.259,1.086-2.736,2.455-3,4c-2.534-1.619-4.955-3.622-8-4v-1
			c0.118-2.519,2.267-2.559,6.447-0.122C140.686,28.299,142.204,28.673,143,30z"/>
		<path style="fill:#D8D8D8;" d="M126,19c-1.277,2.148-1.004,4.577-1,7l-2-1l2-10c0.284-0.873,0.618-0.86,1,0
			C125.929,16.213,126.245,17.85,126,19z"/>
		<path style="fill:#202020;" d="M120.144,50c-0.125-0.864-0.367-1.538-1.144-2l1-2c0.338-0.398,0.741-0.732,1.189-1
			C120.657,46.594,121.938,49.084,120.144,50z"/>
		<path style="fill:#2E2E2E;" d="M125,59c-0.424,0.142-0.695,0.701-1,1c-0.664,0.111-1.563,0.099-1.864-0.576
			c-0.207-0.463-0.159-1.003-0.136-1.424C123.085,57.953,124.545,57.784,125,59z"/>
		<path style="fill:#252525;" d="M197.121,34.142c-0.616,0.455-1.706,0.548-2.121,1.058c-0.947-0.092-1.746,0.143-2.822,0.838
			c-0.43-2.721-0.463-4.949,0.987-6.625C193.755,31.481,195.81,32.52,197.121,34.142z"/>
		<path style="fill:#2D2D2D;" d="M50,6c1.271-0.706,2.307,0.716,2,2l0.081,4.016C51.813,13.511,47.374,13.612,47,12
			c0.07-0.319-0.036-0.69,0.063-1c0.529-1.661,0.489-3.421,0.664-5.155L50,6z"/>
		<path style="fill:#373737;" d="M62,17c-1.546,1.232-2.066,0.677-1-1V9c-0.52-1.434-0.313-1.894,1-1c0.284-0.873,0.618-0.86,1,0
			C64.088,10.012,64.406,16.68,62,17z"/>
		<path style="fill:#767676;" d="M52.081,12.016c0.015,0.728,0.877,1.34,1.026,2.042C50.676,13.914,48.128,13.679,46,15
			c-0.099-1.11,0.117-2.255,1-3L52.081,12.016z"/>
		<path style="fill:#494949;" d="M61,16c0.38,0.264,0.574,0.77,1,1c0.523,1.126-0.538,2.126-3.183,3
			c-1.196-2.426,0.664-5.379,0.523-8.069C60.588,13.632,59.792,15.161,61,16z"/>
		<path style="fill:#8D8D8D;" d="M55.22,6.858c0.395,0.518,0.742,1.389,0.78,2.045c-0.372,2.409-1.103,3.173-2.194,2.291
			C53.006,10.346,52.944,9.133,53,8c-1.356-0.601-1.888-1.502-0.325-2.026C53.516,6.096,54.652,6.113,55.22,6.858z"/>
		<path style="fill:#363636;" d="M55.911,17.852c-0.29-0.245-0.524-0.094-0.83-0.005c-0.258-0.359-0.578-0.666-0.94-0.919
			c0.043-1.022-0.321-2.435,0.502-2.707c0.862-0.285,2.487-0.516,2.691,0.179C57.759,15.845,56.085,16.823,55.911,17.852z"/>
		<path style="fill:#4D4D4D;" d="M57.744,6.213c2.727-2.058,0.517,5.091-0.248,6.855C56.577,10.843,56.149,8.083,57.744,6.213z"/>
		<path style="fill:#353535;" d="M62,5c2.588,1.364,2.693,1.731,0,3c-0.147,0.484-0.492,0.892-1,1
			c-0.213-0.695-1.182-1.527-1.175-2.465C59.834,5.313,60.852,4.329,62,5z"/>
		<path style="fill:#434343;" d="M52.016,5.11c0.245,0.252,0.367,0.642,0.659,0.864C52.675,6.645,53.033,7.332,53,8h-1
			c-0.912-0.376-1.587-1.114-2-2C50.553,5.479,51.269,5.208,52.016,5.11z"/>
		<path style="fill:#3E3E3E;" d="M55.911,17.852c0.285,0.661,1.52,1.573,1.056,2.596c-0.231,0.509-0.959,1.333-1.841,1.521
			C54.772,19.884,55.391,18.923,55.911,17.852z"/>
		<path style="fill:#373737;" d="M53.806,11.194L56,8.903c0.068,1.188,0,2.411-0.034,3.942c-1.015,0.433-1.521,0.242-1.988-0.316
			C53.721,12.22,53.891,11.576,53.806,11.194z"/>
		<path style="fill:#A7A7A7;" d="M123.884,8.791c0.289,1.347-1.296,1.541-1.884,2.209c-0.1-1.297-0.952-2.294-2-3
			C121.338,8.101,122.732,7.925,123.884,8.791z"/>
		<path style="fill:#262626;" d="M18,9c1.458,1.064,0.54,3.262-0.542,4.385C16.508,14.371,14.024,15.759,14,14l1-5
			C15.289,6.444,16.944,6.714,18,9z"/>
		<path style="fill:#A9A9A9;" d="M22,4c0.849,3.298-3.103,4.55-5,2c-0.611-0.891-1.002-1.924-1-3C17.926,3.255,19.845,4.764,22,4z"
			/>
		<path style="fill:#A8A8A8;" d="M18,9c-0.598,0.174-1.105-0.927-1.519-0.908C15.996,8.114,15.426,8.918,15,9
			c-0.299-0.622-1.156-1.551-0.345-1.923L17,6C19.999,5.9,20.455,7.341,18,9z"/>
		<path style="fill:#1C1C1C;" d="M65,55c2.558,4.909,7.047,5.11,7.927,8.024C73.38,64.842,72.799,65.568,71,66
			c0.075,0.667,0.125,1.411-0.267,2.176C70.468,68.695,69.534,68.796,69,69c-1.297,1.538-1.754,1.269-2-0.774
			c-1.841-1.162-3.508-2.237-5-3.226c0-1.054-0.511-2.066-1-3c-1.228-1.23-1.842-1.845-1.842-1.845L62,57
			c0.665-0.668,1.255-1.412,2-2C64.284,54.127,64.618,54.14,65,55z"/>
		<path style="fill:#3B3B3B;" d="M79,65c1.753,0.846,0.979,2.657-1,2c-2.306,1.553-5.606,1.639-7-1
			c-0.16-1.426,0.204-3.159,1.927-2.976L74,62c1.08-0.015,2.157-0.125,3.515-0.075C78.912,61.978,79.27,63.556,79,65z"/>
		<path style="fill:#313131;" d="M84.045,56.583C86.073,57.979,85.971,60.816,87,63c-0.064,2.86-2.324,2.733-3,0
			c-1.244,0-2.896,0.139-3.55-0.981C79.709,60.75,79.99,59.251,80,58c0.247-0.546,1.104-1.074,0.995-1.79
			C81.901,55.915,83.202,56.135,84.045,56.583z"/>
		<path style="fill:#2F2F2F;" d="M67,68.226c0.706,0.236,1.69-0.073,2,0.774c0.203,0.56,0.742,1.329,0.851,1.82
			C70.108,71.979,68.981,72.251,68,72c-0.75-0.137-1.457-0.459-2-1c-3.749-0.895-5.082-2.228-4-4
			C63.202,65.144,65.633,66.8,67,68.226z"/>
		<path style="fill:#3A3A3A;" d="M87,63c1.043,2.214,0.876,4.307-1,6c-0.343,0.31-0.622,0.723-0.927,1.073
			C82.918,68.477,84.346,65.366,84,63H87z"/>
		<path style="fill:#373737;" d="M78,67l1-2c0.482-0.252,1.239-0.852,1.639-0.587c0.579,0.383,0.659,5.521-0.09,5.398
			c-0.687-0.112-1.446-1.032-2.017-0.96C77.993,68.92,78.034,67.472,78,67z"/>
		<path style="fill:#232323;" d="M82.396,70.971c-0.633-2.162-0.727-4.305,0.025-7.063C83.411,65.716,83.363,67.691,82.396,70.971z"
			/>
		<path style="fill:#313131;" d="M188,39c0.332,0.156,0.775,0.701,1,1c1.617-0.433,1.361,0.611,1,2c0.002,1.048-0.222,2.389,0.819,3
			c0.215,1.996,0.837,5.015-1.819,5c-1.176,1.09-2.842,1.756-5,2c-2.661,2.719-4.23,0.958-6-2c-0.717-0.496-6.672-6.567-5.269-7.141
			c0.414-0.169,0.892-0.18,1.389-0.145C173.729,39.738,174.355,38.5,176,39c-0.669-2.492,4.04-6.117,6-4l1.31-1.085L188,39z"/>
		<path style="fill:#363636;" d="M191.286,64c-2.796-0.774-4.672-3.577-6.286-6c-1.162-1.812-2.648-3.38-4.458-4.705L184,52l5-1
			C192.142,49.991,192.807,61.721,191.286,64z"/>
		<path style="fill:#CACACA;" d="M191.286,64c-0.163,0.244-0.045,0.71-0.118,1c-1.693-0.478-3.1-1.612-4.168-3
			c-3.256,0.745-4.638-1.93-2-4C187.259,59.807,189.351,61.841,191.286,64z"/>
		<path style="fill:#8A8A8A;" d="M189,50v1c-0.94,1.828-3.354,0.744-5,1C185.292,50.638,187.23,50.359,189,50z"/>
		<path style="fill:#9B9B9B;" d="M66,71c-1.709-0.086-3.354-0.564-5-1c-0.032-1.092,0.181-2.229,1-3
			c0.063,0.382-0.275,1.39,0.184,1.764C63.78,69.511,65.305,69.701,66,71z"/>
		<path style="fill:#8D8D8D;" d="M67,68.226c-1.644-0.549-3.222-1.48-5-1.226v-2C64.087,65.279,66.399,66.027,67,68.226z"/>
		<path style="fill:#999999;" d="M61,62c-0.678-0.437-1.164-2.484-1.937-1.552C58.46,61.175,57.66,61.439,57,62
			c-0.082-1.198-0.898-2.42-2-3c2.833,1.224,4.916,0.095,7-2C61.57,58.649,60.993,60.28,61,62z"/>
		<path style="fill:#181818;" d="M132,66c2.223-1.496,3.543-0.649,3,2c1.785,1.968,0.398,4.412-0.421,6.203
			c-1.295,2.833-4.228,1.713-6.579,1.797v-4c1.62,0.129,0.277-4.264,1.948-5.558C130.437,66.062,131.281,66.001,132,66z"/>
		<path style="fill:#2C2C2C;" d="M190,3c1.613,2.474,3.109,5.42,4,8c-0.772,1.264-4.365,1.65-5.662,0.626
			c-0.6-2.887-1.039-7.048,0.703-9.439C188.851,2.805,189.579,2.85,190,3z"/>
		<path style="fill:#898989;" d="M195,10c0,0.531-0.811,0.691-1,1c-2.072-2.142-3.299-5.123-4-8C192.861,4.017,192.637,8.476,195,10
			z"/>
		<path style="fill:#D8D8D8;" d="M190.223,27.039c0.383,1.65,0.705,3.433-0.223,4.961h-1c0.301-2.792-0.978-5.398-1-8l1.239-1.084
			c0.747,0.354,1.404,0.964,1.582,1.709C191.037,25.531,190.676,26.346,190.223,27.039z"/>
		<path style="fill:#A4A4A4;" d="M78,9c-1.176,1.542-1.125,3.206,0.152,4.995c1.246,0.577,0,2.296-1.318,2.005l-2.97,2.231
			C73.327,20.393,72.372,21.316,71,21c-0.319,2.656-1.239,2.541-2,0c-1.952-1.536-0.702-2.886,1-4
			c0.516-2.003,1.205-4.008,2.066-6.015L71,10l-1.899-1.025C66.797,9.148,64.764,8.823,63,8h-1V5c1.747,1.02,10.984,2.557,13-1
			C74.339,6.334,76.726,7.313,78,9z"/>
		<path style="fill:#151515;" d="M162,52l2.816-1.871c0.945,1.139,2.673,1.763,5.184,1.871c3.253,1.318,9.83,4.131,7.818,9.236
			C176.984,63.35,174.575,65.288,172,65l-12.756-10c0.298-0.649,0.552-1.316,0.756-2L162,52z"/>
		<path style="fill:#212121;" d="M185,58c0.106,1.522,1.1,2.83,2,4c-1.472,0.882-3.288,1.186-5,0.976
			c-2.756-1.562-5.158-5.818-3-7.976c-1.325-1.405-0.767-1.92,1-1l1.181-0.763C182.28,54.51,183.553,56.097,185,58z"/>
		<path style="fill:#252525;" d="M33.766,10.121c-0.07,0.599,0.332,1.565,0.024,2.236C33.492,13.008,32.717,13.19,32,13
			c-0.548-0.321-1.559-0.368-2-1c-0.456-0.654-1.198-1-2-1c-2.32,0.176-2.111-2.287-1-4c-1.026-1.187-0.566-1.871,1-2
			c0.255,0.155,0.711-0.095,1,0C31.421,4.542,33.62,7.789,33.766,10.121z"/>
		<path style="fill:#333333;" d="M30,3c0.708,2.048,3.01,0.463,4.838,1.146c0.592,2.218,0.241,4.592-1.072,5.975
			C31.415,9.445,29.68,7.31,29,5c-0.002-0.371-0.977-1.13-0.816-1.514C28.397,2.976,29.644,3.061,30,3z"/>
		<path style="fill:#272727;" d="M146,55.184c0.599-0.06,1.39,0.563,2.005-0.226c1.099,4.256-6.046,8.755-7.005,14.042
			c-1.995-0.017-4.112-0.259-6-1c-0.945-0.371-2.354-1.211-3-2c-1.398-1.706-1.232-4.283,0-6c0.639-3.319,6.056-6.09,9-4.278
			C143.294,53.792,144.96,53.612,146,55.184z"/>
		<path style="fill:#181818;" d="M141.221,75.781c-2.454,0.479-3.86,0.234-6.216,0.079c1.478-2.238,1.568-4.522,4.183-6.387
			C140.414,71.375,140.499,72.836,141.221,75.781z"/>
		<path style="fill:#757575;" d="M44.115,51c-0.413-0.285-0.788-0.62-1.115-1c0.402-1.216,1.07-2.343,2.131-3.084
			c0.5,0.668,1.201,1.282,0.616,2.211C45.326,49.796,44.734,50.411,44.115,51z"/>
		<path style="fill:#373737;" d="M61,48c-0.331,2.698-3.458,3.504-6.008,5.413L53.128,51c0.046-0.974-0.312-2.218,0.318-2.978
			C53.668,47.755,60.269,44.915,61,48z"/>
		<path style="fill:#323232;" d="M64,47.822L62,48c-1.033-1.201-0.969-2.788,0-4c1.16-0.244,3.181-0.226,3.055,1.342
			C64.993,46.113,64.577,47.06,64,47.822z"/>
		<path style="fill:#DBDBDB;" d="M127,8.693c-1.674,1.673-0.874,4.158-1,6.307h-1c0.332-1.66-0.632-4.229-0.265-5.887
			C125.305,8.416,126.27,8.066,127,8.693z"/>
		<path style="fill:#A7A7A7;" d="M135,6c-1.298,1.438-3.273,1.094-5.11,1c-0.115-0.288,0.037-0.747-0.134-1H135z"/>
		<path style="fill:#B2B2B2;" d="M42,8c0.819,0.279,0.967,1.043,0,1c-1.739-0.501-3.046,0.691-4,2c0.025-1.328-0.209-2.703,0.215-4
			C39.459,7.521,40.616,8.214,42,8z"/>
		<path style="fill:#3D3D3D;" d="M28,5c0.289,1.094-0.038,1.637-1,2l-1.639,7.899C23.094,16.545,21.307,15.246,20,11
			c-1.033,0.809-1.7,0.143-2-2c-0.347-0.921-0.403-2.13-1-3c1.654-0.759,3.636-0.654,5-2c0.332-0.328,0.613-0.727,1-1
			C24.187,4.472,26.397,4.028,28,5z"/>
		<path style="fill:#989898;" d="M20,11c0.067,1.603-0.015,3.627-2,3c0.334,1.477-0.053,2.912-1,4
			c-0.817-0.102-2.31,0.039-2.874-0.705C14.007,16.438,13.821,14.894,14,14c1.235,0,2.403-0.6,3.099-1.418
			C18.003,11.519,18.167,10.208,18,9C18.677,9.538,19.826,9.947,20,11z"/>
		<path style="fill:#363636;" d="M19,16c0.437,1.177-0.623,2.122-1,3c-0.184-0.357-0.962-0.583-1-1
			c-0.079-0.866-1.878-1.818-1.804-2.503C15.289,14.632,17.514,14.532,18,14C20.021,13.713,20.455,14.556,19,16z"/>
		<path style="fill:#2D2D2D;" d="M21,16h-2c-0.256-0.69-0.708-1.328-1-2c0.695-0.954,0.453-2.751,2-3
			c2.021-0.01,2.541,1.08,1.559,3.272C22.888,15.839,22.702,16.415,21,16z"/>
		<path style="fill:#2D2D2D;" d="M182,29c0.827,0.673,1.079,1.991,1.312,3c1.244,2.76,0.807,3.76-1.312,3
			c-1.998,1.381-3.691,3.212-6,4c-1.058,3.402-4.064,0.327-4.748-1.913c-0.785-1.5,0.155-2.391,1.732-1.919
			c0.003-1.53,1.351-2.928,4.042-4.194c1.091-0.261,1.972-1.516,2.974-1.974C181.043,27.468,181.671,27.043,182,29z"/>
		<path style="fill:#979797;" d="M188,39c-2.313-1.092-3.351-4.061-6-4c0.783-0.598,0.747-2.228,1.312-3
			C184.353,34.732,187.831,35.89,188,39z"/>
		<path style="fill:#D5D5D5;" d="M190,42c-0.404-0.617-0.557-1.41-1-2c1.726-0.95,0.869-3.341,1-5
			C192.132,35.86,191.395,40.582,190,42z"/>
		<path style="fill:#979797;" d="M182,29h-2c1.146-1.777,1.106-3.947,1-6C182.667,24.487,181.842,27.071,182,29z"/>
		<path style="fill:#1A1A1A;" d="M117,36l-1,7c-0.962,1.011-1.105,2.454-2.219,4.019c-1.965-1.164-3.897-1.515-5.781-2.019
			c-1.088-0.291-1.941-1.598-3-2c-0.543-0.919-0.854-1.945-1-3c-0.305-3.224,2.209-9.829,6-9c1.529-1.426,4.567-3.049,6.704-1.592
			C117.477,31.092,116.979,34.17,117,36z"/>
		<path style="fill:#B8B8B8;" d="M65,55h-1c0.247-1.659-0.611-3.458,0.535-5.071C65.566,51.9,64.758,53.521,65,55z"/>
		<path style="fill:#B0B0B0;" d="M81.252,52.199c-0.111,0.951-0.322,1.891-0.619,2.801c-0.808-1.036-1.605-2.162-2.633-3
			L81.252,52.199z"/>
		<path style="fill:#1D1D1D;" d="M110,13l4,3c2.769,1.025,4.103,3.692,4,8c0,1.156,0.216,2.271-0.148,3.986L110,28
			c-3.331-1.003-3.998-2.669-2-5c-1.102-0.522-1.485-1.914-1-3c-0.803-1.298-0.803-2.965,0-5c0.541-0.658-0.481-2.721,1-3
			C108.575,12.254,109.369,12.901,110,13z"/>
		<path style="fill:#A4A4A4;" d="M118,17v7c-1.35-1.182-0.71-2.836-1.202-4.877c-0.362-1.503-2.356-1.932-2.798-3.123L118,17z"/>
		<path style="fill:#929292;" d="M114,16c-1.871-0.026-3.314-1.311-4-3C111.828,13.145,113.349,14.246,114,16z"/>
		<path style="fill:#A6A6A6;" d="M107,11c-1.005,0.711-0.7,2.031-1.574,3.074c-0.997-2.018-0.145-3.59-0.426-5.074
			C105.979,9.328,106.52,10.155,107,11z"/>
		<path style="fill:#A7A7A7;" d="M110,28c-1.211,2.818-4.554,1.564-5.409-0.885c-0.534-0.457-0.779-1.129-0.822-1.819
			c0.819,0.059,2.137,0.406,2.781,0.366c0.725-0.045,0.395-2.334,0.45-2.663c0.284-0.873,0.618-0.86,1,0
			C107.762,24.929,108.832,26.53,110,28z"/>
		<path style="fill:#696969;" d="M108,23h-1c-1.362-0.402-0.879-1.94-1-3c0.284-0.873,0.618-0.86,1,0
			C107.799,20.761,108.135,21.906,108,23z"/>
		<path style="fill:#ADADAD;" d="M107,20h-1c-0.212-1.855-0.197-3.544,1-5V20z"/>
		<path style="fill:#474747;" d="M61,35c-0.258-0.668-0.023-1.508-0.321-2.159c0.921-0.225,1.356-0.741,1.468-1.355
			c0.155-0.85-0.434-1.44,0.284-2.551c1.338,2.232,2.349,4.714,1.179,7.045C62.452,35.026,61.666,35.11,61,35z"/>
		<path style="fill:#272727;" d="M66,27c-1.793,0-3.972,0.261-4.745-1.619C62.457,25.771,63.521,25.109,64,24
			C65.831,21.854,66.92,25.198,66,27z"/>
		<path style="fill:#242424;" d="M69,29c-0.626,0.424-1.04,1.217-2,1c-0.225-0.468-0.977-0.689-1.361-1.101
			C64.987,28.201,65.862,27.684,66,27c0.284-0.873,0.618-0.86,1,0C68.912,24.827,70.439,26.626,69,29z"/>
		<path style="fill:#BCBCBC;" d="M91.378,6.887c0.667,0.218,0.475,0.613-0.065,0.855C91.588,10.808,90.178,10.831,88,9
			c0.543-0.919,0.854-1.945,1-3C89.721,6.469,90.489,6.93,91.378,6.887z"/>
		<path style="fill:#2D2D2D;" d="M83,18c2.18-0.645,4.2,1.092,5,3l-4,3l-2,2c-2.38,0.027-4.939,0.337-7-1
			c-0.328-0.189-0.741-0.444-0.847-0.745c-0.152-0.431-0.047-1.049,0.498-1.497L78,20C78.56,17.285,80.79,15.851,83,18z"/>
		<path style="fill:#3F3F3F;" d="M82.694,33.854c-1.938,2.044-3.086,3.851-5.838,2.895c1.101-1.78,2.505-3.181,4.443-4.609
			C82.454,31.289,83.739,32.753,82.694,33.854z"/>
		<path style="fill:#383838;" d="M83,38c-1.415-1.63-0.326-2.19,0.04-2.561c0.782-0.791,1.166,0.345,1.56,0.641
			c0.529,0.397,0.697,1.667-0.111,1.918C83.977,38.157,83.414,37.935,83,38z"/>
		<path style="fill:#AAAAAA;" d="M88,21c-0.499,1.732-2.261,2.79-4,3C84.9,22.484,86,20.581,88,21z"/>
		<path style="fill:#1C1C1C;" d="M110,28v3c-2.679,2.498-2.891,6.832-6,9c-3.54,2.468-8.33,2.189-12.986,3.133
			C90.842,39.317,92.028,36.834,93,34c2.122-1.149,4.915-1.7,6-4c2.014-0.507,3.632-2.235,5.591-2.885
			C106.397,26.516,108.266,28.003,110,28z"/>
		<path style="fill:#CBCBCB;" d="M82.819,11.114c0.924,3.22-2.541,7.701-5.801,6.844c-2.001-0.364-2.09-1.229-0.183-1.959
			c0.823-0.381,0.855-1.382,1.318-2.005c-1.918-1.984-0.88-3.179,1.756-3.362C81.616,9.645,83.122,7.885,82,6
			c1.057-0.081,2.107-0.416,3-1C84.63,7.173,82.961,8.87,82.819,11.114z"/>
		<path style="fill:#1C1C1C;" d="M78,9c0.502,0.664,1.297,1.083,1.908,1.633c-0.274,1.285-0.994,2.336-1.756,3.362
			c-1.084,0.056-2.34-0.241-2.727-0.967c-0.687-1.286-0.441-2.41-0.408-4.615C75.878,7.813,76.892,9.219,78,9z"/>
		<path style="fill:#363636;" d="M70,17c1.061,1.408-0.022,2.827-1,4c1.339,2.544,0.159,3.141-2,1.215
			c-1.051,2.167-1.51,2.145-2-0.215c-0.391-1.164-0.966-2.292-2-3c-1.415-0.89,0.452-3.848,2-3c0.372-2.758,1.372-3.091,3-1
			C70.415,14.365,70.641,14.58,70,17z"/>
		<path style="fill:#A6A6A6;" d="M67,22.215c1.989,1.116,2.656,4.017,0,4.785h-1c0.274-1.36-0.717-2.684-2-3
			c0.294-0.681,0.761-1.291,1-2L67,22.215z"/>
		<path style="fill:#A7A7A7;" d="M65,11c-0.396,1.62-0.396,3.287,0,5c-1.212,0.391-1.399,2.266-2,3c-1.271,0.46-2.859,0.848-4.183,1
			c0.81-1.239,2.164-1.949,3.183-3c2.237-2.308,0.483-5.994,1-9C66.31,6.831,67.83,8.852,65,11z"/>
		<path style="fill:#383838;" d="M84,13c-0.981-0.81-0.314-1.81,2-3l2-1c1.021-0.51,2.215-0.766,3.313-1.258
			c0.624,4.376,2.482,9.613-2.364,12.726C86.85,17.964,85.978,14.917,84,13z"/>
		<path style="fill:#B0B0B0;" d="M86,10c-0.496,1.063-1.618,1.879-2,3c-2.799,2.012-2.939,0.805-1.181-1.886
			C83.864,10.648,85.035,10.482,86,10z"/>
		<path style="fill:#848484;" d="M138,13c0.903-3.053,3.274-5.231,6-7C143.658,9.196,140.36,11.078,138,13z"/>
		<path style="fill:#929292;" d="M130,23c-0.702-0.529-1.698-1.184-2-2.173c-0.315,1.853,6.764-4.59,6-3.827
			C134.167,19.711,131.007,20.574,130,23z"/>
		<path style="fill:#A7A7A7;" d="M135,6c1.424-1.578,4.255-1.453,6.105-0.425C138.659,6.45,136.842,6,135,6z"/>
		<path style="fill:#B1B1B1;" d="M146,4c-0.332,1.027-1.17,1.461-2,2c-0.561-0.667-1.51-0.748-2.096-1.763
			C143.713,3.722,144.82,4.11,146,4z"/>
		<path style="fill:#1F1F1F;" d="M143,52c2.407,2.391,0.888,3.256-2,3.722c-2.963,1.467-5.887,3.155-9,4.278
			c-0.831,0.222-2.315-0.537-3-1c-0.121-1.247-1.41-3.366-1.071-5.158C131.352,51.274,135.5,50.032,139,48
			C140.318,49.318,141.354,51.058,143,52z"/>
		<path style="fill:#939393;" d="M146,55.184c-1.668,0.166-3.296,0.874-5,0.538c1.53-0.607,2.312-2.112,2-3.722
			C144.321,52.755,145.557,53.625,146,55.184z"/>
		<path style="fill:#989898;" d="M150,39.9c-2.419,0.098-5.255-0.007-7-1.9C145.381,37.99,148.165,38.198,150,39.9z"/>
		<path style="fill:#9B9B9B;" d="M143,38c-0.419,0.623-1.88,1.195-2,2v-4C141.948,36.352,142.37,37.317,143,38z"/>
		<path style="fill:#292929;" d="M139,22.215c1.288-0.283,2.703,0.121,4,0.073c1.757,1.336,3.793,2.711,6,2.711
			c1.307,0.271,0.974,0.938-1,2c-1.706,0.688-3.598,1.791-5,3c-6.949,2.811-7.306-1.846-11-1c0-0.973,0.135-2.363-0.795-3
			c-1.45-1.755-0.185-2.755,3.795-3C136.347,23,137.69,22.503,139,22.215z"/>
		<path style="fill:#AAAAAA;" d="M152,25c-0.87,1.593-2.572,1.425-4,2l1-2H152z"/>
		<path style="fill:#9A9A9A;" d="M135,23c-0.656,1.187-3.282,0.816-3.846,1.578c-0.251,0.34-0.028,1.045,0.051,1.422
			c-1.055-0.722-1.135-1.856-1.205-3H135z"/>
		<path style="fill:#B4B4B4;" d="M165.097,29.097c-2.663,1.812,0.489,5.659,2.318,6.717c2.33-0.562,3.609-0.137,3.837,1.273
			c1.058,1.555,2.832,2.147,4.748,1.913l-1.796,5.885c1.932,1.617,3.642,2.899,3.796,5.115c-0.754,1.15-2.087,1.15-4,0l-1.951-1.084
			c0.425-3.568-3.867-3.88-6.049-1.916c-1.952-1.214-0.901-4.018-0.667-5.976c1.802,0.168,3.763,0.445,5.883,0.833
			c1.277-1.22,1.277-1.22,0,0c-1.862,0.493-3.898-0.176-6.106-2.008c-1.627-8.569-2.105-2.628-5.947-9.848
			c-0.3-0.564,0.04-1.46-0.163-2.068C161.037,28.36,162.996,29.216,165.097,29.097z"/>
		<path style="fill:#2B2B2B;" d="M172.984,35.168c-0.324,0.836-0.909,1.545-1.732,1.919c-1.384,0.072-2.706-0.618-3.837-1.273
			C168.346,35.1,170.298,34.959,171,34C172.519,32.776,173.372,33.148,172.984,35.168z"/>
		<path style="fill:#A2A2A2;" d="M177.026,30.974c-0.698,1.904-2.251,3.297-4.042,4.194c-0.596-0.492-1.267-0.881-1.984-1.168
			C172.381,31.911,174.682,31.536,177.026,30.974z"/>
		<path style="fill:#2A2A2A;" d="M174,50c0.831,0.23,0.804,0.567,0,1c-0.916,0.544-1.941,0.875-3,1
			c-2.245-0.462-4.598-0.722-7.06-0.779L165,48c0.273-0.367,0.76-0.593,1-1c-0.014-0.796-0.209-1.807,0.113-2.407
			c0.567-1.053,5.987-1.37,7.402,1.443C174.145,47.289,174.078,48.686,174,50z"/>
		<path style="fill:#121212;" d="M171.217,41.856c-0.722,0.905-2.178,1.383-3.588,1.234c-0.901-0.095-1.859-0.881-2.295-2.067
			l-0.223-1.175c0.643-0.281,0.89-1.367,1.478-1.769C168.485,39.537,169.162,41.725,171.217,41.856z"/>
		<path style="fill:#7E7E7E;" d="M171,52c-0.327,0.039-0.67,0-1,0h-8c1.293-1.089,2.002-2.657,3-4
			c0.068,0.707-0.305,1.809,0.061,2.442C165.858,51.821,171.418,50.137,171,52z"/>
		<path style="fill:#9B9B9B;" d="M162.176,41.176c-1.414,1.217-3.64,1.026-5.386,0.72C157.833,39.998,160.421,41.384,162.176,41.176
			z"/>
		<path style="fill:#BDBDBD;" d="M27,7c-0.022,1.402,0.229,2.81,1,4h-1c0.264,2.228-0.07,3.895-1,5h-5c0.741-1.563-0.502-3.579-1-5
			c1.327,0.157,2.8-0.471,4.006,0.438c-0.907,0.838-1.397,1.152-1.668,1.437c-0.669,0.702-0.542,1.989,0.194,2.095
			C27.627,15.702,23.317,8.392,27,7z"/>
		<path style="fill:#4B4B4B;" d="M26,16c-0.019-1.632-0.727-4.219,1-5c1.027,1.655,1.279,3.529,0.852,6.028
			C26.955,16.73,26.604,16.159,26,16z"/>
		<path style="fill:#383838;" d="M190,32c-0.06-1.657,0.001-3.317,0.223-4.961C191.174,28.437,191.914,31.244,190,32z"/>
		<path style="fill:#2F2F2F;" d="M114,54c-0.297,0.367-0.629,0.707-1,1c-1.103,0.871-0.831,2.176-1.252,4.125
			c-1.806-1.676-3.377-2.907-4.887-5.03c1.544-2.432,2.272-5.307,3.9-7.231C115.148,45.118,111.353,53.99,114,54z"/>
		<path style="fill:#A5A5A5;" d="M116,43c0.264-2.327-0.953-5.289,1-7C117.028,38.388,117.717,41.195,116,43z"/>
		<path style="fill:#C0C0C0;" d="M184,52c-0.583,0.615-1.255,1.07-2.071,1.583c2.017,1.451,2.949,2.677,3.071,4.417l-5-4
			c-2.234,0.767-4.713-2.482-2-4C179.701,51.518,181.72,52.355,184,52z"/>
		<path style="fill:#343434;" d="M71,10c1.588,2.265-0.322,4.633-3,4c-1.216,0.484-2.216-0.516-3-3c-0.555-0.967-0.261-3.086-2-3
			c2.328-1.914,5.568-0.888,9.018-0.843C71.289,8.317,71.066,9.032,71,10z"/>
		<path style="fill:#212121;" d="M70,17c-0.936-0.327-1.664-1.063-2-2c-0.907-0.263-0.889-0.598,0-1c0.95-1.308,1.649-3.025,3-4
			c0.977-0.705,1.861-1.094,2.601-3.057C74.654,10.598,73.923,15.732,70,17z"/>
		<path style="fill:#363636;" d="M76.835,16c-0.05,0.66,0.125,1.309,0.183,1.959c-0.512,0.332-1.948,0.616-2.461,1.335
			C75.094,21.379,72.677,22.051,72,23c-2.544,0.377-2.57-0.101-1-2l3.379-7.038C75.238,14.642,75.927,15.512,76.835,16z"/>
		<path style="fill:#202020;" d="M178,50c0.081,1.166,1.035,3.228,2,4l-1,1c-2.327-0.106-3.937-2.056-5-4
			c-0.128-0.235-0.016-0.722,0-1c0.697-0.47,1.177-2.493,1.951-1.548C176.58,49.221,177.407,49.471,178,50z"/>
		<path style="fill:#2F2F2F;" d="M84,13c-0.28,0.822,0.399,1.847,0.561,2.874C84.694,16.721,83.949,17.403,83,18
			c-1.707,0.505-3.229,1.65-5,2c-0.812-0.364-0.912-1.252-0.982-2.041l5.801-6.844c-0.466,0.208-0.09,1.077,0.141,1.362
			C83.168,12.733,83.699,12.708,84,13z"/>
		<path style="fill:#323232;" d="M71,21c0.623,0.485,0.876,1.242,1,2c-0.842,2.053-0.959,4.618-3,6l-2-2
			c0.012-1.625-1.161-3.411,0-4.785c0.779-0.187,1.465-0.621,2-1.215H71z"/>
		<path style="fill:#A1A1A1;" d="M68,14c0.067,0.31-0.106,0.703,0,1c-0.885,0.622-2.013,0.681-3,1c-0.363-1.565-0.804-3.597,0-5
			C65.943,11.949,67.25,12.797,68,14z"/>
		<path style="fill:#272727;" d="M171.217,41.856c0.774-1.073-0.959-1.634-0.455-3.021c1.422,0.616,2.38,1.204,3.057,2.27
			c0.454,0.715-0.385,1.899-0.984,1.424C172.453,42.227,171.824,42.102,171.217,41.856z"/>
		<path style="fill:#343434;" d="M65,16c-1.777-0.925-1.604-4.395,0-5C65.071,12.891,66.511,14.465,65,16z"/>
	</g>
</g>
</svg>
