<?xml version="1.0" encoding="iso-8859-1"?>
<!-- Generator: Adobe Illustrator 30.1.0, SVG Export Plug-In . SVG Version: 9.03 Build 0)  -->
<svg version="1.1" id="Layer_1" xmlns="http://www.w3.org/2000/svg" xmlns:xlink="http://www.w3.org/1999/xlink" x="0px" y="0px"
	 viewBox="0 0 132 48" style="enable-background:new 0 0 132 48;" xml:space="preserve">
<g>
	<g>
		<path style="fill:#FBFBFB;" d="M104,2c0.805,0.257,0.822,0.63,0.097,1.113c0.038,0.887-0.279,0.883-0.898,0.123
			C102.953,6.253,96.954,6.831,96,4c-0.121,0.928-0.522,0.983-1.178,0.247c-0.191,1.446-1.376,1.948-3.554,1.505
			c-0.907,1.879-1.774,1.727-1.963-0.356c-0.586,0.709-1.067,0.642-1.444-0.199c0.253,1.76-0.65,2.344-2.709,1.753
			C85.456,8.78,84.916,8.625,84,7c-0.38,0.323-0.713-0.01-1-1c-0.331,0.848-0.664,0.847-1,0c-0.301,1.909-1.634,2.242-4,1
			c-0.298,0.595-0.632,0.581-1,0l-0.58,1.332c-1.916,0.096-3.738,0.592-5.465,1.489c-0.846,2.669-3.717,2.146-5.262,0.106
			c-1.833,1.015-3.399,1.086-4.698,0.215C59.504,10.4,58.172,11.019,57,12c-0.1,1.598-0.8,1.661-1.304,0.081
			c-0.843-0.093-0.838-0.374-0.063-0.827C54.547,10.612,53.337,10.194,52,10c-2.658,3.059-6.613,4.076-11.866,3.05
			C39.718,14.759,39.312,14.756,39,13c-1.596,0.664-3.462,1.039-5.598,1.126C31.583,13.937,29.449,13.895,27,14
			c0.357,2.797-0.458,3.17-2.349,1.105C22.855,15.544,20.696,15.935,19,15c-0.179,0.914-0.519,0.878-1,0
			c-0.159,2.557-1.214,2.527-3,1c-0.087,2.209-1.508,2.162-2,0c-0.714,1.877-3.325,2.684-4.858,1.066
			c0.501,1.56-0.247,1.622-2.244,0.186c1.091,2.227,0.676,2.52-1.651,1.591c0.727,2.473,0.302,3.834-1.276,4.084
			c0.895,0.671,0.727,1.875-0.504,3.611c1.068,0.625,0.827,1.148-0.483,1.589c1.855,1.447,4.162,2.05,6.919,1.811
			C10.915,30.209,13.962,31.28,15,33c0.377-0.928,0.709-0.869,1,0.123c1.205-2.191,2.52-1.642,3,0.738
			c2.32-1.99,4.699-2.291,5,1.139c0.974-1.006,2.371-1.362,4.189-1.066c0.349-1.93,3.504-1.307,2.811,0.892l1.129,0.375
			c0.953-1.981,1.293-1.198,2.054,0.727c1.257-2.086,4.171-1.176,5.69,0.207c0.143-1.253,0.739-1.232,1.787,0.063
			c1.78-0.666,3.722-0.343,5.014,0.972L50,39c-0.538-1.574,0.129-1.574,2,0c0.454-2.815,2.128-2.817,2.916-0.026
			c2.054-1.848,3.841-2.681,4.024,0.829c1.052-1.041,2.669-0.462,2.903,1.066c-0.387-2.444,0.883-2.515,3.809-0.211l2.021,0.597
			c1.905-0.549,3.015-0.3,3.328,0.745c2.035-2.216,7.771-0.503,9,2c2.429-1.862,3.825-1.886,4.189-0.073
			c2.296-1.496,3.524-1.096,3.685,1.199C89.447,45.321,90.489,45.946,91,47c0.379-2.111,1.045-2.778,2-2
			c-0.73-1.448-0.064-1.782,2-1c-0.196-2.553,1.968-3.271,4-2c-0.143-1.838,2.346-3.314,4-4c-2.685-0.819-2.329-2.175,0.415-2.449
			c0.004-0.89,0.257-0.839,0.724,0.021c2.565,2.748,4.385,1.844,5.861-1.572c0.248-2.495,1.468-2.601,3.659-0.319
			c0.344,1.111,0.79,1.884,1.341,2.319c-0.169-3.204,1.47-2.879,4-2.039c-0.857-2.609,0.083-2.917,2-0.961
			c0.339-1.607,0.856-2.382,2-1c0.232-0.867,0.568-0.841,1,0c0.52-2.264,1.24-2.692,2.16-1.286c0.197-1.592,1.097-2.975,2.698-4.147
			L128,23c-0.935-2.107-0.099-3.351,2-4c1.217,0.295,1.884,1.962,2,5v7l-2.657,2.924C117.469,38.811,105.688,43.503,94,48h-9
			c-0.159-0.85-0.796-1.673-2.193-1.894L0,33v-9c0.362-2.003,2.021-3.987,0.664-7.799l40.41-6.109L104,2z"/>
		<path style="fill:#E5E5E5;" d="M127,0c0.954,0.465,1.837,1.083,2.355,2.032C130.829,4.733,131.253,16.036,130,19
			c-1.465,1.309-2.064,0.871-1.26-0.921c-1.751-0.043-2.402-1.604-2.677-3.126c-0.458-1.822-0.749-3.798-0.874-5.929
			c-1.922-1.076-2.14-1.524-0.073-2.866c-0.988-0.38-1.166-1.243-0.533-2.587l-1.375-1.494c-0.445,2.068-2.031,1.859-2.207-0.252
			c-0.055,2.06-2.203,1.51-3.854,1.012c-1.093-0.533-2.086-0.2-2.98,0.998C115.006,4.344,114.949,4.732,114,5
			c1.719,0.245,1.206,2.873,0,4c2.898,0.297,2.869,2.16,0.247,3.247c1.968,0.877,1.922,1.986-0.087,2.753
			c2.718,0.382,2.25,4.312,0.84,6.094c1.823,1.985,1.575,3.119-1,4.005c-0.268,0.878-0.602,0.872-1,0.018
			c-0.875-0.322-0.86-0.695,0-1.118c-2.988-0.074-2.758-4.463,0-5c-0.873-0.284-0.86-0.618,0-1c-2.7-1.275-3.083-5.073,0-6
			c-1.722-1.344-1.722-2.011,0-2c-1.915-0.811-2.58-2.776-1.995-5.897c-1.502,0.671-2.243,0.352-3.013-1.303
			c-1.568,0.994-2.866,1.098-3.895,0.312L104,2l7-2H127z"/>
		<path style="fill:#DFDFDF;" d="M89.874,10.844c-0.786,1.384-1.254,2.614-0.874,4.193c0.819,2.359,2.441,3.679,4.866,3.96
			c1.512-2.21,2.209-1.698,2.008,0.922c2.278,0.518,2.189,1.472-0.024,2.06c-0.227,2.658-1.131,2.495-1.806-0.063
			c-1.927,0.679-2.5,1.764-1.719,3.257c2.198,1.367,2.175,1.68-0.197,2.654c0.848,1.296,1.416,1.536,2.871,1.108
			c0.377-1.507,1.678-1.897,3.906-1.168c-0.716-2.704-0.29-4.512,1.276-5.423c0.341-0.863,0.704-0.837,1.087,0.037
			c1.051,0.345,1.538,0.587,0.772,1.564c0.289,2.126,0.592,2.64,2.759,3.068c0.476-2.678,2.828-1.548,4.202-0.013
			c-0.287-1.741,0.046-2.408,1-2c0.369-2.729,1.077-2.949,3-1v1.118c1.207,0.795,2.848,1.859,1-0.018
			c0.033-1.396,0.224-2.817,1-4.005c0.425-2.653,1.333-2.617,2.21-0.094c1.47-0.043,2.728,0.294,3.774,1.01
			c0.439-2.653,1.166-2.512,2.016-0.01c0.451-1.472,1.118-2.806,2-4c0.436-2.183,3.253-1.804,3.74,0.079
			c0.404,0.328,0.822,0.639,1.26,0.921c0.439,1.706-0.547,3.156-2,4c1.372,1.357,0.753,1.943-1,1c-0.284,0.873-0.618,0.86-1,0
			c-1.31,0.752-3.688,1.263-5,0c0.656,1.817,0.308,2.156-1.042,1.018c-2.178,2.289-2.497,5.27-0.958,8.942
			c-1.181,0.831-2.513,1.795-4,2.039c-1.852,0.395-2.298-0.378-1.341-2.319c-2.379-0.16-4.227-2.145-3.654-4.503
			c-1.37,0.254-2.485,0.871-3.346,1.853c-1.254,1.495-2.677,1.833-4.402,0.848c-3.303,0.228-4.019,0.934-2.15,2.118
			c2.296,1.802,1.371,3.074-2.777,3.814C100.092,38.41,100.354,39.369,98,41c-2.132,1.918-3.89,0.665-3-2l-1.43-1.609
			C94.413,35.561,93.556,35.43,91,37c-0.035,2.066-0.486,2.817-1.352,2.255c-0.787,0.321-1.635,0.131-2.491-0.071
			c-1.394,1.264-2.538,1.564-3.431,0.901c-1.872,0.493-3.116,1.437-3.732,2.831C80.87,43.223,80.858,43.585,80,44
			c-3.187,0.091-6.141-0.875-9-2c-1.218-0.576-3.001-1.024-5.348-1.343c-1.969-1.27-3.959-2.37-5.971-3.301L60,35.131
			c-1.803-0.76-0.708-1.806,1-2.131c-0.457-0.419-0.147-0.792,0.929-1.118c-2.35-1.116-2.014-2.914,0.252-3.871
			c-3.143-0.308-2.705-3.071,0.49-2.709c2.941-0.432,2.941-0.432,0,0c-2.053,2.158-3.038,1.661-2.511-1.27
			c-0.48-0.81-0.124-1.165,0.916-1.147C62.274,21.417,63.249,19.789,64,18c0.064-2.86,2.324-2.733,3,0c0.53,0.302,0.517,0.636,0,1
			c0.281,1.36,1.948,1.694,5,1c0.284-0.866,0.618-0.853,1,0c2.224,0.051,2.421,1.87,0.787,3.213c0.006,1.923-1.544,2.528-4.65,1.815
			l4.725,1.036c2.357,1.49,4.932,2.757,7.726,3.801c1.261-1.717,3.572-1.333,6.933,1.154l-2.404-8.477
			c-1.99-0.259-3.031-1.142-3.121-2.648C81.754,16.845,81.755,14.548,83,13c-0.915,0.248-1.249-0.086-1-1
			c-2.39-0.547-4.164-1.027-2-3c0.024-1.724,0.69-2.724,2-3c0.323,0.043,0.685-0.081,1,0c0.624,4.05,0.957,4.384,1,1l1.152-0.05
			l2.709-1.753c0.441,0.001,1.038,0.03,1.444,0.199C90.694,6.638,91.735,9.403,89.874,10.844z"/>
		<path style="fill:#D5D5D5;" d="M33.402,14.126C35.027,13.317,36.543,13.094,37,15c0.698,3.111,1.708,6.111,3.029,9l1.471,1.244
			c1.138-2.115,2.638-3.197,4.5-3.244c1.912-2.024,2.532-1.731,2.189,1.031C49.729,23.947,47.401,26.071,46,26
			c-1.494,1.43-2.142,2.794-1.943,4.091c2.333,1.535,1.65,2.654-1.081,2.093c0.284,1.673-0.154,3.012-1.315,4.016
			c-0.55,0.444-1.271,0.42-1.787-0.063l-2.146-0.425c0.198-2.604-0.983-2.531-3.544,0.218c-1.291,0.264-2.446-0.035-3.184-1.102
			c1.111-2.523-4.1-2.281-6-1.827c1.118,1.153,0.436,1.767-1,2c-1.629-0.617-3.181-1.287-5-1.139
			c-0.534-1.002-0.847-2.289-0.939-3.863c-1.761-1.641-1.292-3.228,1.049-3.915c1.527,0.114,3.094,0.372,4.701,0.774
			c1.55,1.54,3.227,2.298,5.032,2.273c-0.123-1.766,0.557-2.82,2.043-3.161c1.931-2.164,1.931-2.164,0,0
			c-1.918,0.02-3.577,0.637-4.977,1.852l-2.098-0.964c-1.472,0.481-3.039,0.223-4.701-0.774c-2.707,1.663-4.416-0.149-3.03-2.888
			C13.811,23.022,13.217,20.999,13,19c-1.11,0.223-0.769-0.291-0.134-1.226C10.54,16.905,10.678,16.743,13,16h2
			c1.33,0.063,2.37,1.152,3.12,3.266c2.012,2.77,3.632,3.682,4.858,2.734c2.182-0.047,3.588-0.805,4.219-2.273
			c-0.985-3.552,4.112-4.774,2.953-0.727c2.425,1.459,2.884-3.099,0.85-2c-1.848,0.617-3.182-0.383-4-3
			C28.692,12.109,31.389,12.97,33.402,14.126z"/>
		<path style="fill:#C3C3C3;" d="M57,25c2.624,0.677,2.617,1.23,0.028,2.063c-2.324,1.686-2.324,1.686,0,0
			c2.319-1.687,3.061-0.661,1.98,1.982c1.242,0.755,2.215,1.701,2.921,2.837C61.812,32.378,61.645,33,61,33
			c-2.644,1.421-2.977,2.132-1,2.131c1.995,1.352,4.343,3.377,5.652,5.526l-3.809,0.211c-0.851-0.725-1.818-1.08-2.903-1.066
			c-1.235-0.765-2.751-0.191-4.024-0.829c-0.662-0.463-1.371-1.18-1.137-1.819C55.562,32.285,52.981,36.239,52,39
			c-0.62-0.17-1.356,0.046-2,0l-3.325-1.829c-1.946-0.059-1.847-0.837,0.146-1.174C47.358,33.895,47.89,33.514,50,34
			c-0.562-1.869-0.228-2.869,1-3c-0.027-1.267-0.049-2.653-0.067-4.159c-1.822-0.783-0.362-1.916,1.262-2.035
			C53.265,22.306,56.48,21.962,57,25z"/>
		<path style="fill:#656565;" d="M70.955,9.821l1.993,0.824c-0.961,1.778-1.062,3.088-0.302,3.93
			c-1.793,2.858-2.856,3.529-3.191,2.014L67,18h-3c-1.316,1.513-1.962,0.863-1-1c-0.911-0.261-0.894-0.596,0-1
			c-2.658-1.636,0.188-5.534,2.693-6.073C67.471,9.203,69.199,9.559,70.955,9.821z"/>
		<path style="fill:#A3A3A3;" d="M8.142,17.066c1.542-0.06,3.117,0.176,4.724,0.709C12.721,18.109,13.06,18.63,13,19
			c0.935,1.482,1.962,2.881,3.081,4.195l0.401,1.619C14.863,25.887,13.035,26.949,11,28c2.402,2.514,0.204,4.013-2.096,1.937
			c-3.397,0.406-5.704-0.198-6.919-1.811c-0.521-1.987,0.184-3.568,0.987-5.199c0.698-0.726,1.742-0.989,3.131-0.787
			c2.139-1.19,3.665,0.514,2.587,2.635c-0.617,1.513-0.617,1.513,0,0c-0.343-2.257-1.382-4.381-3.117-6.373l0.325-1.148
			L8.142,17.066z"/>
		<path style="fill:#323232;" d="M40,14c2.745,1.471,3.455,2.807,2.131,4.008c2.7,2.185,1.189,5.695-2.102,5.992
			c-1.962,2.66-4.864-6.827-4.8-7.222C35.339,16.107,36.28,15.232,37,15c-0.717-1.252-0.05-1.919,2-2l1.134,0.05
			C40.978,13.384,40.908,13.7,40,14z"/>
		<path style="fill:#D0D0D0;" d="M57,12c0.123-1.85,1.66-1.892,2,0c2.886,0.077,2.705,2.345,0,3c-1.867,0.939-1.867,0.939,0,0
			c1.587-2.18,3.041-1.389,4,1c0.06,0.309-0.109,0.709,0,1c-1.634,1.812-1.968,3.058-1.001,3.74l-0.923,2.145
			c-0.272,0.408-0.58,0.79-0.916,1.147c-0.419,1.998-1.323,2.08-2.097,0.192l-1.353-0.204c-0.903-3.18-2.766-3.853-5.589-2.019
			c0.382,1.886-1.883,1.915-2.121,0c-2.056,0.357-1.641-1.672,0.131-2.131C49.945,18.358,50.901,17.735,52,18
			c-0.645-2.376,0.886-5.987,3.696-5.919C56.126,12.026,56.575,12.087,57,12z"/>
		<path style="fill:#B9B9B9;" d="M80,9c0.196,1.266,0.937,2.307,2,3c-0.284,0.873-0.618,0.86-1,0c-3.173,1.214-4.76,1.82-4.76,1.82
			c1.24,0.821,0.767,1.947-0.323,3.03C75.282,18.002,74.31,19.052,73,20h-1c-1.521,0.415-3.187,0.082-5-1v-1
			c1.167-1.55,3.394-1.711,3.834-3.041c0.514-1.556,0.011-3.833,0.121-5.138c1.249-1.176,2.96-1.617,5.134-1.324L77,7h1
			C80.224,6.233,81.629,7.038,80,9z"/>
		<path style="fill:#4F4F4F;" d="M52,11c3.019,1.187,0.817,5.065-2,3c-0.73,4.319-1.901,5.257-3.511,2.814
			C43.763,16.951,41.6,16.013,40,14l0.134-0.95C43.184,9.215,47.62,12.463,52,10C52.873,10.284,52.86,10.618,52,11z"/>
		<path style="fill:#444444;" d="M119.958,25.018c0.925,0.428,2.029,0.921,3.314,1.479c-1.17,2.185-1.927,4.353-2.272,6.502
			c-0.632,0.304-1.428,0.558-2,0.961c-2.995-0.4-3.434-3.831-2.679-6.83c0.265-1.053,0.572-2.176,1.459-2.566
			C118.34,24.318,119.27,24.783,119.958,25.018z"/>
		<path style="fill:#575757;" d="M65.693,9.927C65.86,12.256,63.769,13.785,63,16c-1.43,0.069-2.773-0.291-4-1v-3
			c-0.996-1.55,0.508-2.297,1.995-1.858c0.839-0.359,1.65-1.255,2.707-1.566C64.568,8.32,65.495,8.758,65.693,9.927z"/>
		<path style="fill:#494949;" d="M103.199,3.236c2.624,0.167,2.235,3.063-0.199,3.073c2.12,2.493-1.87,4.312-4,2.69
			c-0.225,0.884-0.562,0.857-1,0c-1.605,2.289-2.455,1.743-2-1c-2.189-0.093-2.753-0.847-0.648-1.408C95.267,5.434,95.483,4.57,96,4
			L103.199,3.236z"/>
		<path style="fill:#616161;" d="M31,17c2.665,0.521,2.07,3.206-0.85,2c0.039-3.39-1.156,1.11-2.953,0.727
			c-1.006,1.847-1.936,1.693-2.152-0.415c-2.388-0.572-3.037-1.466-1.948-2.682c-1.702-1.458-0.326-2.008,1.554-1.525
			C25.304,14.689,26.484,14.577,27,14C29.177,13.283,30.142,15.282,31,17z"/>
		<path style="fill:#C0C0C0;" d="M107.992,2.801c1.082,1.139,1.056,1.977-0.065,2.753c2.619,1.18,4.31,2.663,5.073,4.447v2
			c-0.958,1.735-2.939,1.489-5.943-0.737c-0.958,1.019-1.84,0.63-3.057-0.263c-1.052-0.99-1.386-2.553-1-4.69
			c0.262-0.926,0.902-2.155,0.199-3.073c0.29-0.031,0.6-0.121,0.898-0.123C105.182,2.035,106.764,1.876,107.992,2.801z"/>
		<path style="fill:#676767;" d="M110,34c0.484,0.77,1.752,2.771,0.71,3.538c-1.974,1.452-4.306,1.791-6.522,2.654
			c-0.453-2.07-0.067-3.297-0.048-4.619c-0.322-2.405,0.298-2.375,1.861-0.572C108.209,32.451,109.542,32.118,110,34z"/>
		<path style="fill:#4A4A4A;" d="M54.916,38.974C54.146,38.587,52.857,39.235,52,39c-0.58-0.921-1.566-1.403-2.038-3.058
			c1.564-1.285,4.752-3.752,6.448-2.409C58.244,34.984,55.794,37.753,54.916,38.974z"/>
		<path style="fill:#999999;" d="M126,24h1c1.593-0.887,2.459,0.94,1,2c0.039,2.351-0.575,3.922-1.84,4.714L124,32
			c-0.962-1.49-1.295-1.49-1,0c-0.524,0.609-1.329,0.677-2,1c-0.13-1.649,0.066-3.331,0.615-5.269
			c-0.262-1.226-1.117-1.923-1.657-2.713c0.377-0.23,0.607-0.895,1.042-1.018C122.697,24.487,124.364,24.487,126,24z"/>
		<path style="fill:#333333;" d="M55.633,11.255c-0.047,0.245,0.174,0.614,0.063,0.827C54.535,14.307,54.318,16.854,52,18
			c-1.618,0.999-1.856,0.597-1.714-1.126C48.777,17.586,48.682,16.628,50,14c1.034-0.751,2-1.587,2-3
			C52.482,9.966,55.47,9.585,55.633,11.255z"/>
		<path style="fill:#3F3F3F;" d="M39.874,36.136c-1.706,1.288-3.934,0.826-5.69-0.207c-0.043-1.141-0.186-2.817,0.781-3.496
			c1.059-0.744,3.032-0.901,3.946,0.108C39.609,33.312,39.515,35.004,39.874,36.136z"/>
		<path style="fill:#A1A1A1;" d="M89.648,39.255C92.385,40.569,91.523,45.432,89,45c-1.489-0.746-3.092-1.103-4.811-1.073
			C82.951,43.633,81.283,43.964,80,44l-0.005-1.084c0.242-2.132,1.53-3.473,3.732-2.831c1.243,0.187,2.386-0.114,3.431-0.901
			c0.412-0.092,0.759-0.819,1.33-0.758C88.964,38.476,89.356,38.875,89.648,39.255z"/>
		<path style="fill:#B8B8B8;" d="M96,8c-0.73,3.155-2.063,5.822-4,8c-1.833,2.052-2.72,1.726-3-0.963
			c-1.835-1.153-1.141-3.491,0.874-4.193c-0.124-2.164,0.341-3.861,1.394-5.093c1.364-0.144,2.548-0.646,3.554-1.505
			C95.212,4.22,95.614,4.041,96,4V8z"/>
		<path style="fill:#4D4D4D;" d="M8.904,29.937c-2.631,3.425-7.344,0.749-7.37-0.018c-0.019-0.579,0.582-1.29,0.451-1.793
			C5.281,28.499,8.87,26.75,8.904,29.937z"/>
		<path style="fill:#575757;" d="M42.976,32.184c2.128-2.077,5.443,1.424,3.845,3.814l-0.146,1.174
			c-1.003,0.439-1.883,1.149-3.049,0.723c-0.882-0.323-1.564-0.868-1.964-1.694c-0.412-0.783-0.772-1.676-0.718-2.702
			C40.995,32.495,41.961,32.075,42.976,32.184z"/>
		<path style="fill:#6A6A6A;" d="M106.659,31.031c3.229,1.069,2.408,2.698-0.659,3.969c-0.594,0.085-1.123,0.857-1.861,0.572
			c-0.217-0.084-0.493,0.023-0.724-0.021c-2.541,0.39-2.723-0.661-1.031-2.551c-0.936-0.201-0.958-0.579-0.126-1.121
			c0.841-0.532,1.327-1.62,2.176-1.693C105.367,30.106,105.962,30.854,106.659,31.031z"/>
		<path style="fill:#535353;" d="M98,41c0.976-0.311,1.309,0.023,1,1c-0.976,1.096-2.511,1.943-4,2c-2.185,0.359-5.461-2.066-3-4
			c0.529-2.477,1.118-2.598,3-1C96.075,39.553,96.99,40.347,98,41z"/>
		<path style="fill:#BABABA;" d="M23.097,16.63c0.683,0.869,1.336,1.761,1.948,2.682c-0.055,1.18-0.744,2.076-2.066,2.688
			c-1.273,0.985-2.893,0.074-4.858-2.734C16.168,18.577,15.825,15.452,18,15c0.319,0.02,0.682,0.027,1,0
			C21.188,15.067,22.554,15.61,23.097,16.63z"/>
		<path style="fill:#CDCDCD;" d="M92,40c0.089,1.848,1.291,3.342,3,4c-0.491,0.409-1.398,0.73-2,1c-0.944-0.158-1.611,0.509-2,2
			c-0.665,0.234-1.651,0.03-2.395-0.088c-0.681-0.108-0.966-1.065-0.731-1.786C88.151,44.208,88.526,44.167,89,45
			c2.123-0.964,0.553-3.841,0.648-5.745C89.691,38.398,90.689,37.646,91,37C93.431,37.572,93.557,38.101,92,40z"/>
		<path style="fill:#2E2E2E;" d="M8.689,24.774c-0.631-1.077-1.726-1.762-2.587-2.635c-2.084,1.4-2.026-1.698-1.856-3.297
			c0.577-0.248,0.706-1.512,1.651-1.591c1.247,2.149,3.982,2.867,4.184,5.299C10.148,23.356,9.588,24.3,8.689,24.774z"/>
		<path style="fill:#777777;" d="M77,7c0.416,1.054,1.337,1.553,2.09,2.895c-3.154,0.082-5.634,0.299-8.136-0.074
			C71.206,6.817,74.51,7,77,7z"/>
		<path style="fill:#7C7C7C;" d="M103,38c-0.209,1.234,0.067,2.643-0.944,3.572C101.307,42.261,99.603,41.539,99,42
			c-0.333-0.321-0.606-0.746-1-1c-0.284-1.05-0.548-2.107-0.669-3.189C99.957,35.498,101.846,35.561,103,38z"/>
		<path style="fill:#ADADAD;" d="M103.415,35.551L103,38c-1.892,0.097-3.789,0.049-5.669-0.189c0.665-1.491,2.502-2.058,2.777-3.814
			c-0.554-2.09,0.58-2.429,2.276-0.997C102.743,33.818,103.563,34.676,103.415,35.551z"/>
		<path style="fill:#3C3C3C;" d="M14,30c2.381,0.277,2.446,1.18,1,3c-2.491,0.661-6.076-1.183-6.096-3.063
			C9.389,29.305,11.065,29.236,11,28C13.166,26.443,14.057,27.505,14,30z"/>
		<path style="fill:#5E5E5E;" d="M31,34.827c-0.592-0.856-1.896-0.872-2.811-0.892C26.841,34.305,25.281,34.508,25,33
			c1.897-1.929,4.926-1,7.893-0.773c0.594,1.016,0.094,1.105,0.118,1.529C33.077,34.892,31.621,35.202,31,34.827z"/>
		<path style="fill:#5C5C5C;" d="M113.659,33.681c-1.196-0.25-2.389,0.358-3.659,0.319c-2.759,0.258-2.163-0.964-1-3
			c-2.744-0.195-0.861-3.152,1.005-1.822C111.477,30.486,112.529,32.025,113.659,33.681z"/>
		<path style="fill:#4A4A4A;" d="M128,26c0.666-0.663,0.937-0.44,0.858,0.567c0.044,0.849,1.377,2.163,0.344,3.002
			c-0.816,0.663-2.155,0.617-3.042,1.145c-0.13-0.998-0.149-1.999-0.205-3.182C125.902,26.404,126.611,25.6,128,26z"/>
		<path style="fill:#2A2A2A;" d="M89,45c-0.374,0.047-0.757,0.049-1.126,0.126c-1.431,0.3-2.526-0.711-3.685-1.199
			c1.813-0.887,2.738-2.654,4.546-4.044C89.329,42.002,88.858,43.496,89,45z"/>
		<path style="fill:#353535;" d="M13,16c0.187,0.612,0.114,1.204-0.134,1.774c-1.004,0.535-1.798,2.637-2.984,1.817
			c-0.892-0.617-1.482-1.605-1.741-2.525C9.468,15.864,11.299,16,13,16z"/>
		<path style="fill:#494949;" d="M91.268,5.752c-0.59,1.055,0.924,1.535,1.445,2.683c0.021,1.031-1.971,1.864-2.839,2.41
			c-0.689-1.758-1.13-3.539-0.57-5.448C89.944,5.663,90.588,5.71,91.268,5.752z"/>
		<path style="fill:#3A3A3A;" d="M19,33.861c-1.044,0.085-2.065-0.349-3-0.738c-1.411-2.152-0.23-2.816,2.061-3.125
			c0.935,0.07,1.938-0.168,3.16,1.076C20.395,32.325,19.476,32.917,19,33.861z"/>
		<path style="fill:#454545;" d="M39,13c0.168,0.309-0.02,1.362-0.415,1.49L37,15c-1.303,0.069-2.489-0.237-3.598-0.874
			C34.721,12.346,37.35,11.132,39,13z"/>
		<path style="fill:#373737;" d="M6.102,22.139c-0.001,0.886-0.356,2.087-1.383,1.741c-0.673-0.226-1.194-0.719-1.748-0.954
			c0.619-1.259-0.589-3.281,1.276-4.084C5.816,18.734,5.181,21.206,6.102,22.139z"/>
		<path style="fill:#454545;" d="M18,15c0.237,1.349-0.328,2.954,0.12,4.266C16.06,19.826,15.388,17.806,15,16
			C15.761,15.144,16.896,14.93,18,15z"/>
		<path style="fill:#565656;" d="M87.861,5.197c-0.001,1.117,0.344,2.147-0.002,3.854c-1.453-0.342-1.988-1.327-2.706-2.101
			C85,5.48,86.68,5.194,87.861,5.197z"/>
		<path style="fill:#727272;" d="M60.995,10.142C61.149,11.115,59.784,11.708,59,12c-0.596,0.222-1.373-0.128-2,0
			c-0.117-1.264-0.088-2.701,1.557-2.927C59.395,8.958,60.316,9.6,60.995,10.142z"/>
		<path style="fill:#4C4C4C;" d="M24.651,15.105c-0.638,0.406-1.357,0.696-1.554,1.525C21.576,16.546,19.72,16.52,19,15
			C20.93,14.834,23.201,13.416,24.651,15.105z"/>
		<path style="fill:#535353;" d="M82,6c-0.063,1.188,0.202,2.25-0.154,4.059C80.98,9.692,80.625,9.126,80,9
			c-0.361-0.926-1.053-1.672-2-2C79.041,5.911,80.572,5.811,82,6z"/>
		<path style="fill:#505050;" d="M94.822,4.247c0.252,0.955,0.355,2.985-1.116,2.721c-0.682-0.123-1.47-1.156-2.438-1.215
			C91.989,4.463,93.508,4.536,94.822,4.247z"/>
		<path style="fill:#393939;" d="M128.858,26.567C128.59,26.352,128.303,26.162,128,26l-1-2c0.349-0.29,0.602-0.769,1-1
			c0.963,0.007,1.851,0.227,1.911,1.462C129.945,25.178,129.228,25.944,128.858,26.567z"/>
		<path style="fill:#6D6D6D;" d="M28.189,33.934C27.592,35.034,25.222,35.463,24,35c-0.178-0.97,0.437-1.427,1-2
			C26.145,32.934,27.31,33.162,28.189,33.934z"/>
		<path style="fill:#414141;" d="M124,32c-0.263,0.156-0.693-0.065-1,0c-0.985,0.112-0.958-1.022-0.992-1.556
			c-0.045-0.703,0.747-1.441,1.382-3.21C124.73,28.735,123.704,30.481,124,32z"/>
		<path style="fill:#5E5E5E;" d="M84,7c-0.142,1.519,2.203,2.755-0.011,4.582C82.066,9.756,83.352,7.693,83,6
			C83.377,6.097,84.042,6.551,84,7z"/>
		<path style="fill:#272727;" d="M61.843,40.869c-1.158,0.064-1.944-0.472-2.903-1.066c0.292-0.491,0.689-0.992,1.261-1.346
			c0.526-0.326,1.381-0.194,1.475,0.246C61.869,39.6,61.842,40.324,61.843,40.869z"/>
		<path style="fill:#555555;" d="M71,42c-1.926-0.758-3.935,0.977-5.348-1.343c1.659-0.092,3.23,0.119,5.12-0.774
			C71.206,41.008,70.981,41.518,71,42z"/>
		<path style="fill:#A7A7A7;" d="M18.061,29.998c-1.09,0.741-1.97,1.758-2.061,3.125c-0.268-0.111-0.72-0.198-1-0.123
			c-0.109-1.064-0.403-2.105-1-3C15.212,27.201,16.849,27.191,18.061,29.998z"/>
		<path style="fill:#D0D0D0;" d="M55.633,11.255L52,11v-1c0.635-0.357,1.901-0.6,3.103-0.935
			C56.197,8.76,56.25,10.991,55.633,11.255z"/>
		<path style="fill:#7B7B7B;" d="M115,36c-1.073,0.177-2.132,0.995-3.251,0.509c0.204-1.478,1.127-1.425,1.683-1.551
			c0.585-0.133,0.854-1.02,0.228-1.276C114.161,34.416,115.146,34.915,115,36z"/>
		<path style="fill:#525252;" d="M50,39c-0.71-0.05-1.472,0.19-2.386-0.088c-0.583-0.177-1.03-1.003-0.938-1.741
			C48.056,36.567,49.77,37.58,50,39z"/>
		<path style="fill:#656565;" d="M93,45c-0.798,0.358-1.132,1.695-2,2c0.066-1.194-0.172-2.236,0.148-4.042
			C92.221,43.438,92.946,44.161,93,45z"/>
		<path style="fill:#4E4E4E;" d="M113,19v5c-0.905,0.493-2.064,0.662-3,1c-0.782,0.409-2.05-0.189-3.805-1.793
			c-3.602-0.88-5.667-2.282-6.195-4.207c0.416-0.46,1.083-0.793,2-1c2.126-0.115,3.121-0.927,2.987-2.437L107,17
			C109.342,17.246,111.342,17.913,113,19z"/>
		<path style="fill:#4C4C4C;" d="M113,12v6c-1.928,0.011-3.928-0.322-6-1l-2.391-0.145c1.029-1.258,0.827-2.876-0.609-4.855
			c-0.853-0.269-0.836-0.604,0-1c1.115-0.25,2.008-2.42,3.634-1.625L113,12z"/>
		<path style="fill:#5C5C5C;" d="M113,10c-2.178-0.565-5.026-1.091-6.625-3.326c-1.129-1.58,0.651-3.14,1.617-3.873
			c1.474-0.161,2.652-1.08,5.234-0.73C112.987,5.191,113,7.55,113,10z"/>
		<path style="fill:#A4A4A4;" d="M121,5c1.932,1.507,2.22,3.889-0.157,5.106c-1.459,2.677-4.135,4.177-6.596,2.14L114,9
			c1.19-2.413,1.224-2.508,0-4c0-0.374,0.244-0.803,0.165-1.165c0.294-1.494,1.953-1.875,2.98-0.998
			C119.048,2.39,120.73,3.005,121,5z"/>
		<path style="fill:#353535;" d="M119,15c0.879,0.247,0.857,0.582,0,1c1.074,0.596,1.611,0.93,0.738,1.929
			c0.901,2.049-0.244,4.77-2.528,3.071L115,21.094c-1.537-1.68-0.953-4.002-0.84-6.094C114.914,12.258,119.44,11.395,119,15z"/>
		<path style="fill:#353535;" d="M120.843,10.106c0.943,0.19,0.896,0.523-0.029,0.983c1.536,2.285,1.345,4.639-1.814,3.911
			c-1.612-0.493-3.467-1.308-4.84,0c0.049-0.902,0.155-1.855,0.087-2.753C116.576,11.894,118.444,10.214,120.843,10.106z"/>
		<path style="fill:#313131;" d="M123,5c1.462-2.218,2.686-1.296,2.115,1.157c-0.024,0.766,1.229,2.005,0.073,2.866
			c0.986,2.634-0.408,3.073-2.189,0.976c0.13,1.889-1.071,1.428-2.157,0.106C120.508,8.389,120.005,6.56,121,5
			C121.052,2.866,122.418,2.9,123,5z"/>
		<path style="fill:#363636;" d="M125.189,9.024c1.455,0.097,2.226,1.229,2.444,2.652c0.212,1.386-0.679,2.291-1.57,3.277
			C124.731,17.177,121.359,11.11,123,10L125.189,9.024z"/>
		<path style="fill:#2C2C2C;" d="M125.115,6.157L123,5c-1.625,0.106-1.365-2.726,0.207-2.924c1.58-0.882,2.342-0.602,2.69,0.513
			C126.467,4.411,125.363,5.174,125.115,6.157z"/>
		<path style="fill:#2D2D2D;" d="M113,25.118l1-0.018c0.47-0.197,0.94-0.49,1.272-0.349c0.872,0.37,0.551,0.791,0.145,1.638
			c-0.585,1.222-0.249,2.866-1.734,2.546c-0.795-0.171-1.91-0.872-1.563-2.1C112.266,26.316,112.509,25.894,113,25.118z"/>
		<path style="fill:#2C2C2C;" d="M128.74,18.079L125,18c-1.395-0.68-0.876-3.929,1.063-3.047c0.815,0.301,1.846,0.12,2.162,1.018
			C128.498,16.746,128.675,17.383,128.74,18.079z"/>
		<path style="fill:#1F1F1F;" d="M121,1.824c1.635,0.305,1.502,2.763,0,3.176c-1.437-0.359-2.81-1.09-3.854-2.163
			C118.256,1.91,119.532,1.657,121,1.824z"/>
		<path style="fill:#1D1D1D;" d="M117.146,2.837c-0.805,0.672-1.999,0.81-2.98,0.998c-0.111-0.508-0.112-1.431,0.246-1.972
			c0.261-0.394,1.008-0.505,1.907-0.382C116.792,1.546,116.736,2.415,117.146,2.837z"/>
		<path style="fill:#363636;" d="M114,9V5c1.327-0.268,2.104,0.057,2.091,1.491C116.079,7.768,115.205,8.57,114,9z"/>
		<path style="fill:#DFDFDF;" d="M113,18v1c-1.894-0.822-4.626-0.26-6-2C108.928,16.451,111.314,17.16,113,18z"/>
		<path style="fill:#ABABAB;" d="M123.207,2.076L123,5c-0.549-0.301-1.383,0.154-2,0V1.824L123.207,2.076z"/>
		<path style="fill:#565656;" d="M82.995,19.892c4.546,1.261,4.527-2.686,8.009,12.655c-4.093,1.925-6.483-2.392-9.416-2.684
			C80.891,30.058,80.665,29.644,81,29l-3-4c-0.732,0.629-1.054,0.401-1-0.612c-1.186-1.407,0.264-4.276,1.923-2.874l2.085-0.942
			C79.725,17.91,81.476,17.322,82.995,19.892z"/>
		<path style="fill:#434343;" d="M96,8c0.489,0.604,1.33,0.628,2,1l2.778,2.893c-1.058,0.564-1.65,1.6-1.778,3.107
			c0.395,3.225-0.647,4.865-3.126,4.919c-0.613-0.23-1.423-0.621-2.008-0.922C91.253,20.186,89.564,18.02,92,16
			C91.537,12.698,92.541,8.878,96,8z"/>
		<path style="fill:#5E5E5E;" d="M95.85,21.979c3.256-0.507,3.634,3.186,3.055,5.787c-0.5,0.55-0.006,2.003-1.273,1.717
			c-0.802-0.181-1.776-0.59-2.633-0.549c-1.523,1.662-2.719,1.141-2.871-1.108c-0.327-0.914-0.113-1.735,0.197-2.654
			c-2.152-1.241-0.754-4.118,1.719-3.257L95.85,21.979z"/>
		<path style="fill:#6E6E6E;" d="M82.995,19.892c-0.627-0.174-1.545,0.109-1.987,0.68c-3.587,3.193-5.429,1.079-3.987-2.939
			C77.316,16.811,81.799,11.803,83,13c0.647,1.556,1.36,3.094,1.963,5.074C84.409,19.047,83.622,19.421,82.995,19.892z"/>
		<path style="fill:#595959;" d="M77,24.388c0.328,0.204,0.64,0.463,1,0.612l3,4c0.012,0.39-0.096,1.161,0.588,0.864
			c-2.595-0.258-5.976,0.693-8.532-1.492c0.454-0.998,0.83-1.712,0.806-2.308C73.854,24.274,75.641,23.134,77,24.388z"/>
		<path style="fill:#BFBFBF;" d="M83,13c-2.715,1.067-7.15,6.903-4.498,7.961c0.739,0.295,1.827-0.329,2.506-0.389
			c-1.174,1.516-3.041,2.109-4.008,3.816c-0.623,0.852-2.408,0.896-3.138,1.675c-2.697-0.924-2.717-1.754-0.075-2.85
			c0.657-1.537,0.776-3.228,0.359-5.071l1.771-1.291C74.98,13.749,78.502,12.628,81,12h1C82.392,12.256,82.668,12.679,83,13z"/>
		<path style="fill:#595959;" d="M63,17c0.168,0.449,0.746,0.631,1,1c0.645,0.937,1.304,2.282,0.935,3.402
			c-0.507,1.54-2.469,1.579-3.859,1.483l-2.377-3.314C57.613,18.056,61.404,16.753,63,17z"/>
		<path style="fill:#707070;" d="M73.787,23.213c-0.178,0.952,0.037,1.901,0.075,2.85c-1.215,1.297-2.582,1.856-3.965,1.434
			c-1.514-0.462-3.701-1.474-2.514-3.429C68.638,22.002,71.97,23.782,73.787,23.213z"/>
		<path style="fill:#585858;" d="M95,39c-0.726,0.901-1.903,1.038-3,1c-0.901-0.729-1.105-1.89-1-3c0.07-1.216,0.077-2.741,1.491-3
			c1.504-0.276,2.814,0.065,3.235,1.641C95.982,36.601,95.607,37.956,95,39z"/>
		<path style="fill:#525252;" d="M75.917,16.85c0.134,2.531,1.019,6.108-2.13,6.362c-0.05-1.04-0.44-2.219-0.787-3.213
			c-0.509-1.458-1.661-2.833-0.685-5.063C73.352,15.552,74.679,17.433,75.917,16.85z"/>
		<path style="fill:#686868;" d="M99,20c1.575-0.131,2.659,1.132,1.181,2.344c0.211,1.929,0.026,3.991-1.276,5.423
			c-0.811-2.032-2.08-3.834-3.055-5.787c-0.281-0.563,0.136-1.454,0.024-2.06C98.089,18.33,99.131,18.357,99,20z"/>
		<path style="fill:#656565;" d="M72,20c-0.083,0.807-0.348,1.581-0.901,1.824c-0.498,0.218-4.889,0.978-5.117-1.333
			C65.928,19.944,66.239,19.265,67,19c0.96-0.44,1.373-1.328,3.034-2.477L72,20z"/>
		<path style="fill:#656565;" d="M109,27c-1.384,0.187-2.815-0.013-4.202,0.013c-2.238,1.507-3.294-0.706-2.759-3.068
			c-0.34-0.466-0.477-1.07-0.772-1.564C102.349,20.266,109.906,24.17,109,27z"/>
		<path style="fill:#BABABA;" d="M110,25c-0.322,0.425-0.166,1.887-1,2c-0.61-3.106-4.858-4.522-7.732-4.619l-1.087-0.037
			C100.1,21.602,98.843,20.922,99,20c-1.175-1.377-0.666-1.888,1-1L110,25z"/>
		<path style="fill:#515151;" d="M92,16c0.447,1.014,0.787,2.442,1.866,2.997c-0.444,1.523-3.367,1.624-4.645,0.429
			c-0.988-0.924-1.004-3.097-0.221-4.389C90.04,15.029,91.053,15.658,92,16z"/>
		<path style="fill:#464646;" d="M60.16,24.031c0.685,0.661,1.565,1.117,2.511,1.27c-0.697,0.802-0.591,1.717-0.49,2.709
			c-0.283,2.498-1.247,2.595-3.173,1.034c-0.598-0.723-1.195-1.458-1.98-1.982C57.175,26.399,56.923,25.676,57,25
			c-1.231-1.53-0.544-2.012,1.063-0.777C58.765,24.197,59.465,24.133,60.16,24.031z"/>
		<path style="fill:#747474;" d="M102.257,31.879c0.109,0.343-0.018,0.793,0.126,1.121c-0.787,0.265-1.557,0.579-2.276,0.997
			c-0.916-0.048-3.102,1.164-3.816-0.29c-0.834-1.698,1.263-2.612,2.927-2.978C100.218,30.51,101.845,29.894,102.257,31.879z"/>
		<path style="fill:#606060;" d="M69.961,37.947c0.926-1.669,0.888-3.171,2.031-4.024c1.653-0.119,1.856,1.129,1.77,2.556
			c-0.056,0.933,0.365,2.29-1.242,2.501C71.678,39.091,70.695,38.079,69.961,37.947z"/>
		<path style="fill:#353535;" d="M83.726,40.085c-1.232,1.124-1.778,3.223-3.732,2.831c-0.469-0.665-1.259-1.575-1.172-2.546
			C78.964,38.797,82.474,38.771,83.726,40.085z"/>
		<path style="fill:#4D4D4D;" d="M62.181,28.01c0.132,1.295,0.045,2.613-0.252,3.871c-0.783,0.016-1.836,0.098-3.191-0.239
			c-0.794-0.198-0.555-1.733,0.27-2.598C59.977,28.468,61.072,28.175,62.181,28.01z"/>
		<path style="fill:#494949;" d="M89.874,10.844c0.47,1.201-0.251,3.166-0.874,4.193c-1.996,0.017-3.413-3.192-2.278-4.498
			C87.886,10.333,89.286,11.214,89.874,10.844z"/>
		<path style="fill:#696969;" d="M104.798,27.013c-0.652,0.345-1.608,1.858-2.804,1.612c-1.732-0.961-0.805-3.586,0.045-4.68
			C102.856,25.062,103.563,26.33,104.798,27.013z"/>
		<path style="fill:#505050;" d="M94.045,21.916c-1.065,0.776-1.32,2.075-1.719,3.257c-1.016-0.135-2.07-0.548-2.33-1.653
			c-0.266-1.128,0.075-2.313,1.483-2.438C92.26,21.012,93.362,21.014,94.045,21.916z"/>
		<path style="fill:#373737;" d="M78.635,40.851c-2.127,2.088-5.332,1.744-6.706-0.576C74.157,40.007,75.883,39.248,78.635,40.851z"
			/>
		<path style="fill:#484848;" d="M69.961,37.947c-0.714,0.173-1.531,1.238-2.368,0.873c-0.943-0.411-1.438-1.163-2.564-2.341
			c0.406-0.816,2.046-0.558,3.041-0.256C68.738,36.425,68.674,37.842,69.961,37.947z"/>
		<path style="fill:#5F5F5F;" d="M71.992,33.923l-2.155,0.156c0.732-1.181,1.354-2.562,3.343-3.25
			C73.699,32.25,72.473,32.535,71.992,33.923z"/>
		<path style="fill:#6E6E6E;" d="M87,35c0.566,0.785,0.263,1.083-0.785,0.963c-1.402,0.192-3.541,0.352-3.228-1.031
			C83.417,33.034,86.198,34.122,87,35z"/>
		<path style="fill:#535353;" d="M67.046,35.489c-1.896-1.645-1.064-3.34-0.724-5.573C67.108,31.52,69.333,33.118,67.046,35.489z"/>
		<path style="fill:#7A7A7A;" d="M81.138,33.589c-2.28,0.022-4.103-1.328-6.257-2.224C77.089,30.971,79.454,30.838,81.138,33.589z"
			/>
		<path style="fill:#7E7E7E;" d="M110.005,29.178c-0.613-0.421-0.777,0.053-0.855,0.451c-0.114,0.579-0.172,0.994-0.15,1.37
			c0.076,2.221-0.704,2.231-2.341,0.031c-1.144-1.342-0.377-1.745,0.599-2.291C109.171,27.669,108.924,28.218,110.005,29.178z"/>
		<path style="fill:#6F6F6F;" d="M86.215,35.963c0.29-0.297,0.552-0.62,0.785-0.963c0.789-0.519,1.225-0.792,1.514-0.724
			c0.299,0.07,1.061,0.392,1.289,1.126c0.25,0.803-1.257,1.508-2.059,1.38C87.263,36.707,86.652,36.457,86.215,35.963z"/>
		<path style="fill:#757575;" d="M62.671,25.301c0.778-0.896,1.775-1.517,3.162-2.335c0.254,1.664,0.411,2.47-0.114,4.139
			C64.687,26.124,63.834,25.489,62.671,25.301z"/>
		<path style="fill:#626262;" d="M64.023,35.089c-1.056,0.021-1.29-1.073-1.035-1.556c0.181-0.343,1.161-0.536,1.041-2.087
			c1.157-0.913,1.001,0.628,0.984,1.173C64.983,33.578,65.377,35.062,64.023,35.089z"/>
		<path style="fill:#5B5B5B;" d="M95,28.934l-1.024,1.692c-0.508,0.839-1.847,0.465-1.998-0.171
			c-0.239-1.004,0.415-1.893,0.151-2.629C92.904,28.57,93.939,28.902,95,28.934z"/>
		<path style="fill:#404040;" d="M61,33l-1,2.131c-0.816,0.287-1.972,1.311-2.013,0.271c-0.056-1.453-0.089-2.401,0.549-2.401L61,33
			z"/>
		<path style="fill:#4A4A4A;" d="M87.157,39.184c-0.734,1.081-1.68,1.956-2.783,2.857c-0.577-1.022-0.556-1.505-0.648-1.956
			C84.603,39.285,86.102,39.42,87.157,39.184z"/>
		<path style="fill:#3A3A3A;" d="M46,22c-1.274,2.627-2.928,5.392-5.989,6.497c-0.962-1.862-0.387-3.284,0.018-4.497
			c0.672-2.013,1.931-3.843,2.102-5.992c-0.577-2.164,1.1-2.49,5.03-0.977C50.058,15.476,48.53,22.674,46,22z"/>
		<path style="fill:#616161;" d="M30.886,25.969c-0.222,1.185,0.55,3.128-0.232,4.27c-0.964,1.408-3.47,0.657-5.205,0.651
			c-1.99-0.006-1.521-2.336-1.638-4.034l3.184-2.258C28.445,23.57,29.852,25.335,30.886,25.969z"/>
		<path style="fill:#262626;" d="M19.11,26.083c-0.151,1.384,0.282,3.011-1.049,3.915C16.71,29.897,15.352,29.948,14,30
			c-1.189-0.338-2.226-1.039-3-2c-0.05-0.944-0.31-2.271,0.977-3c1.467-0.831,3.487-0.295,4.104-1.805
			C17.085,24.135,17.859,25.438,19.11,26.083z"/>
		<path style="fill:#4B4B4B;" d="M48,30c1.592-0.527,2.492,2.349,2,4c-0.486,1.514-1.418,2.23-3.178,1.997l-3.845-3.814
			c0.52-0.588,0.61-1.49,1.081-2.093C46.492,26.888,47.807,26.857,48,30z"/>
		<path style="fill:#434343;" d="M30.886,25.969c0.138-0.739-0.78-1.996-0.857-3.323c1.538-1.603,6.919-0.894,6.698,2.591
			C36.621,26.904,32.25,26.805,30.886,25.969z"/>
		<path style="fill:#BFBFBF;" d="M51.121,22c2.954-1.222,4.238,1.779,1.074,2.805c-2.06,0.88-2.481,1.559-1.262,2.035
			C51.63,28.112,51.471,28.963,50,29c0.426,2.312-0.241,2.645-2,1c-1.234-0.727-2.647-0.318-3.943,0.091
			C43.633,28.905,44.281,27.541,46,26c0.347-1.137,1.628-1.95,2.189-2.969C46.718,21.862,47.241,21.224,49,22H51.121z"/>
		<path style="fill:#646464;" d="M25.045,19.312c0.66,0.356,1.431,0.261,2.152,0.415c0.03,0.814,1.392,1.268,1.638,2.584
			c0.154,0.824-2.345,1.212-3.192,1.356c-1.026,0.175-1.793-1.111-2.664-1.667c0.042-0.692-0.086-1.479,0.109-2.413
			C23.269,18.72,24.32,19.113,25.045,19.312z"/>
		<path style="fill:#535353;" d="M30.15,19c0.886-0.249,0.773-1.257,0.85-2c0.085-0.816-0.38-1.73,0.388-3.101
			c2.166,1.8,2.632,4.701,3.348,7.043c-1.896,0.083-3.17,0.186-3.984-0.025C30.154,20.762,30.141,19.789,30.15,19z"/>
		<path style="fill:#9E9E9E;" d="M50,14l0.286,2.874c1.079,0.831-0.056,2.255-1.155,2.995L49,22
			c-0.101,0.46-0.607,0.661-0.811,1.031C47.494,22.618,46.76,22.275,46,22c0.577-1.191,1.198-2.493,2.017-3.656
			c-1.944-2.206-4.217-1.465-5.886-0.336C41.533,16.615,40.776,15.301,40,14c2.568,0.749,4.867,2.286,7.795,2.715
			C48.809,15.869,49.175,14.599,50,14z"/>
		<path style="fill:#484848;" d="M23.811,26.856c-1.357,0.962-0.509,2.689-1.277,4.183c-1.321-2.172-1.701-4.068-3.424-4.957
			c0.442-0.707,2.266-1.224,3.056-0.8C22.699,25.569,23.527,26.15,23.811,26.856z"/>
		<path style="fill:#616161;" d="M36.285,29.791c2.007,0.584,1.807,1.275-0.239,0.622c-1.054,0.415-1.896,0.428-2.405,0.414
			c-0.573-0.015-1.131-0.324-1.334-1.315c-0.183-0.894,0.381-1.446,1.224-1.542C34.457,27.866,35.008,28.552,36.285,29.791z"/>
		<path style="fill:#525252;" d="M44.057,30.091c-0.497-0.17-1.053,0.185-2.14-0.41C43.22,28.163,44.408,26.859,46,26
			C45.55,27.477,45.029,28.846,44.057,30.091z"/>
		<path style="fill:#373737;" d="M58.063,24.223L57,25c-1.417-0.424-3.461,0.466-4.805-0.195c0.541-0.873-0.671-1.916-1.074-2.805
			c0.699-1.606,2.046-2.953,3.634-4.055C57.18,19.805,57.895,21.928,58.063,24.223z"/>
		<path style="fill:#5D5D5D;" d="M57.028,27.063c-0.322,1.452,0.614,3.872-0.56,4.845c-1.632,0.369-2.995,0.148-3.26-0.447
			c-0.317-0.71,0.082-1.566-0.12-2.378c-0.478-1.925-0.447-3.216,1.312-3.141C55.179,25.975,56.192,26.506,57.028,27.063z"/>
		<path style="fill:#3F3F3F;" d="M52.195,24.805l-1.262,2.035c-1.065-0.169-1.409,1.04-3.728,1.3
			C47.799,25.828,49.929,23.692,52.195,24.805z"/>
		<path style="fill:#515151;" d="M50,29c1.201-0.118,1.272,0.946,1,2c0.421,1.228-0.704,2.078-1,3l-2-4
			C48.546,29.461,49.257,29.16,50,29z"/>
		<path style="fill:#5F5F5F;" d="M51,31c-0.907,0.113-1.173-1.297-1-2c0.184-0.746,0.538-1.523,0.933-2.159
			c1.197,0.19,1.256,1.501,1.121,2.47C51.978,29.849,51.168,30.487,51,31z"/>
		<path style="fill:#3D3D3D;" d="M16.081,23.195c-1.692-0.814-2.976,0.917-4.968,0.878C10.357,21.563,12.059,20.483,13,19
			C15.224,19.023,16.022,21.188,16.081,23.195z"/>
		<path style="fill:#353535;" d="M8.689,24.774c0.356,0.372,0.49,0.904,0.895,1.16c0.532,0.336,0.474,1.187-0.551,1.176L2.92,27.04
			C3.903,24.188,6.579,24.347,8.689,24.774z"/>
		<path style="fill:#585858;" d="M59,15c0,0.911,0.128,2.094-0.634,2.61c-1.177,0.797-2.247,0.102-2.467-1.075
			c-0.154-0.822,0.013-2.748,1.345-2.537C57.813,14.088,58.348,14.623,59,15z"/>
		<path style="fill:#2B2B2B;" d="M52,18c-0.866,0.428-1.196,2.636-2.869,1.869c-0.029-1.118,0.386-2.182,1.155-2.995
			C51.127,16.47,51.735,17.274,52,18z"/>
		<path style="fill:#4C4C4C;" d="M81,12c-1.189,1.985-2.944,3.843-5.083,4.85c-0.091-1.713-2.744-1.953-3.274-4.168
			C75.205,11.026,78.289,12,81,12z"/>
		<path style="fill:#303030;" d="M121,18c1.601-0.041,1.497,3.501-0.016,4.01c-0.673,0.608-1.547,1.093-2.484,1.036
			c-1.037-0.063-1.363-1.107-1.29-2.046c1.252-0.602,1.61-2.067,2.528-3.071C119.665,16.632,120.338,16.809,121,18z"/>
		<path style="fill:#444444;" d="M125,18c0.273,1.327,1.367,2.314,2.029,3.843c-1.753,0.127-2.844-0.025-4.029,0.157
			c-1.609,0.06-1.504-3.477,0-4C124.491,16.311,125.158,16.311,125,18z"/>
		<path style="fill:#464646;" d="M126,24c-0.302,1.171-1.261,2.066-2.5,2.066S121.302,25.171,121,24
			C122.693,23.52,124.827,22.23,126,24z"/>
		<path style="fill:#7D7D7D;" d="M123,18v4c-0.66,0.101-1.351-0.051-2.016,0.01L121,18C121.092,16.964,122.377,17.224,123,18z"/>
		<path style="fill:#595959;" d="M22.978,22c-0.026,0.437,0.089,1.084-0.026,1.493c-0.115,0.407-1.186,0.906-2.134,0.494
			c-1.736-0.755-2.179-3.2-2.699-4.721C20.163,18.711,21.442,21.02,22.978,22z"/>
		<path style="fill:#5E5E5E;" d="M104,11c-3.819,1.768-5.486,1.101-5-2c1.037-1.369,3.177-1.089,4-2.69
			c0.842,0.053,2.132,0.158,2.014,1.133C104.848,8.816,104.25,9.85,104,11z"/>
		<path style="fill:#CACACA;" d="M104,11c-0.069,0.317,0.094,0.689,0,1c-0.45,1.652-3.349,3.364-5,3c0.121-2.058-0.432-4.034-1-6
			c0.265,0.147,0.705-0.089,1,0C99.626,10.982,102.086,11.429,104,11z"/>
		<path style="fill:#D5D5D5;" d="M109,31c0.058,1.003,0.49,2.188,1,3c-1.32-0.041-2.696,0.813-4,1
			c0.399-0.678,0.961-1.269,1.497-1.995c0.579-0.785-0.317-1.363-0.837-1.974C107.39,31.217,108.255,30.871,109,31z"/>
		<path style="fill:#C2C2C2;" d="M107,17c-1.621,0.461-3.202,1.356-5,1c-0.136-2.587,0.531-4.587,2-6
			C105.845,12.949,105.812,15.495,107,17z"/>
		<path style="fill:#D5D5D5;" d="M102,18c-0.534,0.429-1.262,0.894-2,1c-0.39,0.143-0.658,0.751-1,1
			c-0.98-0.202-2.181,0.273-3.126-0.081C97.683,18.877,97.884,16.64,99,15C100.517,15.282,101.517,16.282,102,18z"/>
		<path style="fill:#ABABAB;" d="M123,10c0.199,2.004,1.054,4.209,3.063,4.953c-0.546,0.604-1.23,2.238-1.063,3.047h-2h-2
			l-1.262-0.071C119.41,17.324,119.13,16.68,119,16c1.761-1.016,2.366-2.653,1.814-4.911c0.079-0.26,0.081-0.716,0.029-0.983
			C121.562,10.074,122.274,9.734,123,10z"/>
		<path style="fill:#373737;" d="M119,16c-0.062-0.322,0.04-0.674,0-1c0.61-1.301,1.395-2.53,1.814-3.911
			c1.799,1.074,2.778,3.428,3.291,5.862C121.753,17.222,120.566,16.274,119,16z"/>
		<path style="fill:#C7C7C7;" d="M81,29c-1.68-0.694-3.004-2.123-3-4C79.69,25.698,80.942,27.13,81,29z"/>
		<path style="fill:#5A5A5A;" d="M104,12c-0.419,1.391,1.405,3.125,0.604,4.513c-0.414,0.717-2.187,0.926-2.604,1.487
			c-0.339,0.457-1.969,0.07-2.509-0.1C98.664,17.639,98.955,15.773,99,15c0.644-0.947,1.004-2.413,1.831-2.758
			C101.752,11.857,103.339,11.66,104,12z"/>
	</g>
</g>
</svg>
