<?xml version="1.0" encoding="iso-8859-1"?>
<!-- Generator: Adobe Illustrator 30.1.0, SVG Export Plug-In . SVG Version: 9.03 Build 0)  -->
<svg version="1.1" id="Layer_1" xmlns="http://www.w3.org/2000/svg" xmlns:xlink="http://www.w3.org/1999/xlink" x="0px" y="0px"
	 viewBox="0 0 110 146" style="enable-background:new 0 0 110 146;" xml:space="preserve">
<g>
	<g>
		<path style="fill:#FAFAFA;" d="M109,0c0.099,2.048-0.287,4.204-1.44,6.646L55,118c-1.756-1.617,1.467-8.268,3-10
			c-0.222-1.362-0.555-2.696-1-4c1.853-1.482,3.228-3.484,4.125-6.007c0.216-2.268,1.114-3.615,2.694-4.04
			C65.018,91.267,65.079,89.616,64,89c-2.475-1.254-2.453-1.998,0.094-3.094c3.041-1.041,5.399-3.638,7.073-7.793
			c-0.564-0.379-0.572-0.768-0.021-1.165c-0.626-0.767-0.397-1.088,0.627-0.992c-0.961-1.429-0.529-1.725,1.294-0.887
			C71.726,73.656,72.238,73.071,74,74c-0.805-1.929-0.425-2.596,1.142-2c-1.878-1.88-0.661-5.74,2.031-6.03
			c0.144-2.322,0.76-3.269,1.848-2.842l0.47-1.272c-2.16-2.204-0.724-3.276,1.851-3.857c-0.761-1.236-0.285-4.742,1.801-4
			c-1.25-4.366,1.871-11.005,5.953-13c-0.905-2.128-0.625-2.843,0.84-2.144c-0.749-1.059-0.429-2.77,0.958-5.134
			c-2.006-3.025,2.707-7.266,5.252-8.787c-1.039-0.931-1.03-2.166,0.028-3.706l-2.206-0.407c-0.577,0.725-1.83,1.474-3.013,1.459
			c0.106,0.836-0.273,1.561-1.139,2.173c0.29,1.983-0.825,3.834-3.344,5.551c-1.491,2.79-3.267,4.121-5.328,3.992l-0.244,1.801
			c1.735,0.488,1.562,1.408-0.519,2.76c0.445,5.163,0.265,10.031-0.539,14.602c-0.46,1.881-1.214,1.745-1.493-0.213
			c-0.889-0.124-0.885-0.408-0.052-0.84c-2.361-1.904-1.838-5.545,0.278-7.478c-2.001-1.821-4.092-1.311-6.272,1.528
			c-1.378,2.587-3.491,4.631-6.337,6.134c0.448,1.661,0.15,2.952-0.895,3.871c0.253,0.632-0.481,0.892-2.205,0.782
			c0.605,2.398-2.43,5.621-4.824,5.06l0.707,2.177c-1.578,2.78-7.4,8.754-10.059,10.681c-0.047,2.199-2.309,4.551-4.601,4.136
			c-0.561,1.901-1.257,2.567-2.087,2c0.663,1.205,0.424,3.08-1.199,2.782c-0.194,1.37-1.883,3.634-3.559,3.234
			c0.28,1.985-1.417,4.257-3.286,4.785c0.313,0.931-0.118,1.651-1.294,2.16l0.097,2.111c-3.783,2.956-6.91,6.803-8.74,11.267
			l-2.113,0.727c1.916,0.327,2.055,1.232,0.321,2.114c-0.099,1.954-0.899,1.828-1.226-0.179c-1.856,0.17-1.558-0.974-0.598-1.414
			c0.263-0.12-1.732,5.507-3.392,3.367l0.58,1.152c-1.786,1.47-3.548,2.967-5.286,4.492c1.294,1.553,0.733,2.171-1.165,1.386
			c-0.487,1.698-1.184,2.42-2.089,2.165c-0.213,2.338-1.685,4.349-4.416,6.032L5,128c1.606-0.088,3.27,0.766,4.992,2.563
			c2.334,0.652,4.003,1.798,5.008,3.437c0.284-0.873,0.618-0.86,1,0c1.175-3.452,7.288-0.168,8.076,2.698
			c0.422-1.984,1.359-1.808,1.848,0.207c3.495,0.416,6.918,1.461,10.27,3.134c1.299-2.64,3.473-2.68,4.806-0.039
			c0.263,1.779,1.029,1.11,2.299-2.008c-0.469-1.87,0.258-3.999,2.181-6.385c0.206-2.749,1.081-4.591,2.626-5.526
			c1.426-0.534,1.312-1.784,0.963-2.925c-2.58-2.332,0.958-4.937,2.928-2.095c0.594-1.243,1.262-1.597,2.003-1.06
			c-0.816,5.848-9.209,19.101-11,26h-3c0.406-1.348-0.521-1.625-1.839-2.106L1.313,130.458c-1.888-0.688,0.601-3.726,1.513-4.828
			L103.618,3.833C104.89,2.295,106.244,1.723,106,0H109z M103.369,10.129c0.704-2.181,2.604-3.404,2.611-6.23
			C103.806,5.19,102.477,7.309,103.369,10.129z M101.414,13.375c-0.26-0.88-1.717-1.235-1.87-2.454
			c-1.563,1.922-3.195,3.711-3.688,6.9C98.828,18.116,102.177,15.96,101.414,13.375z"/>
		<path style="fill:#DBDBDB;" d="M71.168,78.113C69.986,81.406,66.476,86.42,63,84c-2.703,3.81-6.55,6.785-11.542,8.926L52,95.746
			c2.843,0.631,2.584,1.488-0.047,2.306c-1.517,0.598-2.985-0.2-4.404-2.394c1.687,2.072,3.541,3.482,5.562,4.231
			c2.594-1.99,4.388,0.31,2.942,3.058c0.865,1.778,1.514,3.462,1.948,5.052c-0.845,6.067-3.287,6.14-3,10
			c0.057,0.772-0.181,1.73-1,2c-0.7,0.231-1.302,0.868-2.003,1.06l-1.645-1.429l3.651-11.499c-1.047-1.467-2.503-2.657-4.366-3.571
			l0.099-2.464c-2.49-0.747-4.613-2.4-6.37-4.958l-5.026-1.693c1.589,2.908,2.142,5.426,1.659,7.552c-0.823,2.831-3.129,3.19-5,1
			c-0.487-3.331-1.267-6.678-2.339-10.039c-0.216-0.423-0.454-1.068-0.215-1.407c0.383-0.544,1.022-0.622,1.509-0.753
			c1.863-1.018,2.958-2.613,3.286-4.785c1.044-1.286,1.428-3.487,3.559-3.234C41.705,84.049,41.771,84.455,41,85
			c0.692,0.411,0.731,0.786,0.037,1.239l0.895,1.907c-2.235,2.256-0.673,3.162,4.685,2.715C46.705,88.502,51.267,86.133,53,88
			c0.074-0.798,0.407-1.132,1-1c0.646-3.753,7.373-6.67,11-8c0.609-2.398,4-3.222,6.147-2.052
			C71.033,77.216,71.121,77.841,71.168,78.113z"/>
		<path style="fill:#6B6B6B;" d="M32.661,93.961c0.822-0.106,1.661,0.041,2.167,0.701c-0.615-0.804,3.977,7.3,0.172,9.338
			c1.501,3.237-1.197,5.239-4,3c-1.552,2.107-7.219,2.248-9.094,1.066C21.857,104.12,29.948,94.517,32.661,93.961z"/>
		<path style="fill:#4E4E4E;" d="M58,63c2.577,0.12,3.866,0.18,3.866,0.18l-0.307,8.26C63.953,72.015,63.24,73.204,61,74
			c0.859,0.079,0.904,0.42,0.207,1c-0.408,2.626-1.898,3.437-4.207,2c-2.201,1.94-3.595,2.274-4.184,1
			c-2.581,2.297-5.857-0.083-4.129-3.136c-2.174-0.845,8.267-11.653,9.352-12.858C58.901,62.322,58.875,62.654,58,63z"/>
		<path style="fill:#2C2C2C;" d="M48.688,74.864c0.857,1.6,2.529,2.399,4.129,3.136c1.191,2.527,0.632,6.818,0.184,10
			c-1.908,1.438-3.946,2.745-6.383,2.861C45.73,91.124,45.535,90.828,46,90c-3.323-2.622-3.355-7.368-1.913-11
			C45.02,77.018,46.303,74.934,48.688,74.864z"/>
		<path style="fill:#474747;" d="M96.144,24.934c-0.484,4.552-3.291,4.817-5.252,8.787C91.318,35.296,89.746,37.195,88,37
			c-0.007,0.615-0.037,1.098-0.149,1.118c-0.352,0.063-6.806-0.273-7.076-0.507c-0.381-0.331,0.104-2.751,0.367-3.613
			c2.07-3.635,5.273-7.383,8.672-9.543C92.203,22.908,96.604,20.369,96.144,24.934z"/>
		<path style="fill:#7B7B7B;" d="M63.819,93.953c0.327,3.808-2.114,7.304-3.796,10.905L57,104c-1.062,0.887-1.519,0.27-0.948-1.052
			c-0.675-1.297-1.711-2.291-2.942-3.058c-1.554,0.459-2.385-0.685-1.157-1.837L52,95.746L57,94c-0.786-2.598,0.077-2.897,2-1
			c1.218-0.677,2.662-1.435,4-1C64.975,91.714,65.245,92.583,63.819,93.953z"/>
		<path style="fill:#5A5A5A;" d="M89.094,41c-1.738,4.438-4.007,8.677-5.953,13l-1.206,1.667c-1.827-1.68-2.184-16.402-1.473-17.864
			c0.785-1.614,1.066-1.96,2.376-0.397C85.785,37.3,89.293,37.471,89.094,41z"/>
		<path style="fill:#646464;" d="M63,84c2.635-0.754,3.015-0.075,1.094,1.906C64.107,86.911,64.059,87.995,64,89
			c1.721,1.431,1.128,2.552-1,2c-1.123,0.824-2.456,1.49-4,2c-0.694,0.061-1.322,0.837-2,1l-5,1.746
			c-1.459-0.691-2.843-1.488-5.199-2.247C52.238,90.003,57.525,86.903,63,84z"/>
		<path style="fill:#535353;" d="M79.84,53.16l0.705-0.891c0.632,2.019,0.897,3.929,0.797,5.731
			c-0.672,1.493-1.008,3.994-2.32,5.129c-1.087-0.357-1.761-1.016-2.021-1.976c-0.461,1.752-1.795,1.71-4-0.127
			c-3.443,0.026-5.504-0.714-6.184-2.22c-0.615,1.808-0.925,1.551-0.932-0.769c-1.703,1.945-2.528,1.293-3.021-1.092
			c0.765-0.203,1.262-0.679,2.205-0.782c0.907-1.882,2.867-3.103,4.33-1.504c2.994-1.003,5.977-1.573,8.948-1.711L79.84,53.16z"/>
		<path style="fill:#D5D5D5;" d="M26.147,126.097c0.73,1.69,1.101,3.769,1.115,6.239c1.821,0.632,3.112,1.549,3.872,2.75
			c1.94-0.17,1.932,0.616-0.008,1.184c-1.15,1.405-2.884,1.617-5.202,0.635c-0.616-0.048-1.229-0.199-1.848-0.207l-1.995-1.3
			c-0.097-2.457-0.793-4.83-2.086-7.12c0.702-1.689,0.228-2.681-1.421-2.978L19,122.959c0.394-1.083,1.394-2.069,3-2.959
			c-1.915-0.297-1.808-1.091,0-2c-1.411-1.889-3.078-2.555-5-2c-0.358,2.636-2.739,3.049-4.696,1.596
			c0.527-2.403,3.119-3.959,4.706-5.643c1.375-0.497,2.705-1.148,3.99-1.953l1.226,0.179c0.505-0.039,0.991-0.032,1.412,0.137
			C25.189,110.941,26.178,123.692,26.147,126.097z"/>
		<path style="fill:#474747;" d="M73,61.026c2.129,0.443,3.52,2.091,4.173,4.945c-0.236,2.103-0.846,4.224-2.031,6.03
			c-1.096,1.08-3.26-1.274-4.215-2.468C68.358,66.32,65.712,56.867,73,61.026z"/>
		<path style="fill:#878787;" d="M78.572,44.63C78.619,46.595,77.835,46.78,77,45c-1.908,1.061-3.241,2.394-4,4
			c2.115,1.883,0.169,3.179-1.99,1.806c-1.172-0.196-3.429,1.204-2.914,3.206c-2.496,1.007-4.03,0.24-2.133-1.72
			c3.807-4.779,7.212-10.053,12.525-13.866L78.572,44.63z"/>
		<path style="fill:#6E6E6E;" d="M78.572,44.63c0.032,2.352,0.782,5.301-0.278,7.478c-1.241,0.552-10.219,3.284-10.802,2.893
			c-1.854-1.243,1.706-4.144,3.518-4.195L73,49c0.686-1.59,2.019-2.923,4-4L78.572,44.63z"/>
		<path style="fill:#D6D6D6;" d="M88,37c2.386-0.611,2.461-0.529,1.934,1.856L89.094,41c-1.226-2.989-4.545-3.739-8.119-2.722
			l0.032,14.779c0.003,1.192,1.596,1.116,2.134,0.944l-1.801,4c-1.458,4.121-0.862-7.703-1.501-4.84
			c1.383-6.191-1.902-13.536,1.302-19.163c-0.115,0.722-0.084,1.559,0.285,2.053c0.55,0.735,1.403,0.993,2.58,0.983L88,37z"/>
		<path style="fill:#444444;" d="M71.774,75.955c-0.231,0.218-0.509,0.711-0.627,0.992C69.408,78.405,67.29,79.368,65,79
			c-2.978,1.517-5.741-1.163-3.793-4c-0.117-0.28-0.209-0.696-0.207-1c0.065-1.49,5.781-1.433,7.426-0.971
			C69.788,73.41,71.766,74.551,71.774,75.955z"/>
		<path style="fill:#AEAEAE;" d="M69,72c0.434-0.353,0.767-0.02,1,1c0.724-1.949,3.165,0.413,3.068,2.068
			c-0.404,0.321-0.922,0.536-1.294,0.887C69.106,72.884,64.775,74.245,61,74l0.059-9.036L58,63c1.541-1.764,3.735-3.438,6-2
			l1.267,1.948c-2.698,5.638-1.886,7.985,2.438,7.042L69,72z"/>
		<path style="fill:#818181;" d="M64.094,85.906C64.068,85.241,63.188,84.631,63,84c2.842-1.507,5.553-4.052,8.168-5.887
			c1.238,0.169-2.153,8.989-3.613,8.997C66.386,87.116,65.045,86.677,64.094,85.906z"/>
		<path style="fill:#D6D6D6;" d="M71.01,50.806c-0.939,0.852-2.736,1.676-2.702,3.245c4.199-0.655,6.924-2.138,9.986-1.943
			l0.052,0.84c-4.292,1.44-8.769,2.723-13.278,3.215c-0.455-0.655-0.994-1.362-0.808-2.379c0.134-0.734,1.237-0.906,1.703-1.492
			C64.35,55.981,71.406,47.334,71.01,50.806z"/>
		<path style="fill:#B2B2B2;" d="M73,61.026l-3.963,0.051c-0.192,4.912,2.094,8.947,6.105,10.924c-0.421,0.642-0.391,1.535-1.142,2
			c-1.444-0.784-2.778-1.117-4-1c-0.298-0.201-1.032-0.588-1-1c-2.607-2.178-4.297-10.183-2.184-13.194
			C69.326,58.602,71.548,59.305,73,61.026z"/>
		<path style="fill:#303030;" d="M62.864,56.945c1.138-0.043,2.13,0.356,3.021,1.092c1.387,2.5,1.018,4.85-1.885,2.963
			c-1.672,1.486-3.751,2.405-6,2l0.039-0.995C59.635,60.233,60.28,57.631,62.864,56.945z"/>
		<path style="fill:#545454;" d="M96.144,24.934c-1.596-1.041-4.545-1.616-6.331-0.48c-0.254-0.954,0.639-1.645,1.139-2.173
			l3.013-1.459c0.366-0.557,1.936-2.777,2.904-2.135C99.43,20.385,97.714,23.485,96.144,24.934z"/>
		<path style="fill:#767676;" d="M101.414,13.375c0.763,2.584-2.587,4.74-5.558,4.446c0.493-3.189,2.125-4.978,3.688-6.9
			C99.698,12.14,101.155,12.495,101.414,13.375z"/>
		<path style="fill:#B5B5B5;" d="M46,90c-1.859,2.367-6.255-1.162-4.963-3.761L41,85c0.972-0.986,1.305-2.319,1-4
			c0.357-0.971,1.39-1.468,2.087-2C43.438,82.915,44.143,86.516,46,90z"/>
		<path style="fill:#575757;" d="M21,110c-0.068,0.753,0.253,2.524-0.55,2.886c-1.168,0.527-2.969,0.116-3.439-0.934
			c1.228-1.303,1.351-3.9,3.645-4.652C21.162,108.326,20.985,109.232,21,110z"/>
		<path style="fill:#757575;" d="M63.819,93.953C63.761,93.278,63.209,92.617,63,92c-0.929-0.328-0.927-0.661,0-1
			c0.096-0.701,0.959-1.304,1-2c0.459-0.389,2.084-1.408,3.082-0.787C67.517,90.542,65.644,93,63.819,93.953z"/>
		<path style="fill:#7B7B7B;" d="M90.892,33.722c2.742,0.118-1.09,5.471-0.958,5.134C88.972,38.659,88.322,37.899,88,37
			C88.227,35.261,89.704,34.589,90.892,33.722z"/>
		<path style="fill:#D5D5D5;" d="M31,107c2.32,1.466,1.514,2.782-1,3c-2.182,1.45-5.612,1.833-7.774,0.179
			c-0.176-0.646-0.313-1.444-0.321-2.114C24.997,108.171,28.061,107.989,31,107z"/>
		<path style="fill:#777777;" d="M33.955,91.801c0.194-2.143,2.058-3.273,3.286-4.785c0.986,0.86,0.718,2.233,0.441,3.091
			C37.133,91.81,35.402,92.385,33.955,91.801z"/>
		<path style="fill:#4B4B4B;" d="M74,74c-0.382,0.237-0.568,0.78-0.932,1.068L70,73c0.094-0.835-0.292-1.639,0.281-3.092
			C71.862,71.213,73.132,72.411,74,74z"/>
		<path style="fill:#595959;" d="M56.052,102.948c0.211,0.405,0.702,0.662,0.948,1.052c0.444,0.708,0.937,1.349,1.534,2.016
			c0.76,0.848,0.347,1.373-0.534,1.984c-0.91-1.848-2.636-2.983-4.063-4.605C54.906,102.672,55.559,103.057,56.052,102.948z"/>
		<path style="fill:#464646;" d="M79.021,63.129c-0.664,0.574-0.663,2.569-1.848,2.842c-2.329-3.533-2.387-5.139-0.173-4.818
			c0.459,0.074,0.99,0.006,1.525,0.063C79.604,61.332,79.212,62.353,79.021,63.129z"/>
		<path style="fill:#6D6D6D;" d="M103.369,10.129c-0.892-2.82,0.437-4.939,2.611-6.23C105.973,6.725,104.073,7.947,103.369,10.129z"
			/>
		<path style="fill:#4F4F4F;" d="M41,85c-0.012-0.397-0.223-0.823-0.199-1.218C40.864,82.722,41.655,81.937,42,81
			c1.654,0.915,1.234,3.589,0.597,4.982C41.721,85.24,41.318,85.121,41,85z"/>
		<path style="fill:#4D4D4D;" d="M93.966,20.822c-0.024,0.648-0.112,1.424-0.755,1.817c-0.59,0.36-2.456,0.994-2.258-0.357
			c0.386-0.408,0.802-1.605,1.621-1.821C92.99,20.35,93.467,20.427,93.966,20.822z"/>
		<path style="fill:#474747;" d="M51.997,121.06c-1.231,0.338-2.409,0.836-2.928,2.095c-0.874,1.825-2.23,1.44-4.069-1.156
			c-2.322,2.104-3.747,0.57-2-2l-1.333-0.433c0.716-1.98,1.16-4.169,1.333-6.567c-1.345-2.824-1.838-5.915-1.477-9.273L44,103
			l5.736-0.902c1.774,1.748,7.13,3.609,6.113,6.815L51.997,121.06z"/>
		<path style="fill:#545454;" d="M48.106,126.081c0.689,4.451-1.425,8.992-4.807,11.911c0.133,1.374-1.02,2.403-2.299,2.008
			c-1.6,0.126-3.206,0.198-4.806,0.039c-2.052-0.293-5.134-1.334-5.068-3.769l0.008-1.184l0.775-2.649l11.307-8.013L46,125
			C47.336,123.389,48.642,124.092,48.106,126.081z"/>
		<path style="fill:#535353;" d="M17,127c1.841-1.879,2.817-1.369,2.995,1.278c0.748,0.357,2.272,0.762,2.968,1.626
			c1.599,1.983,0.857,4.698,1.113,6.794C21.199,136.659,18.721,134,16,134c-1.382-2.714-2.134-5.542-2.257-8.485
			C14.638,126.276,15.724,126.771,17,127z"/>
		<path style="fill:#575757;" d="M15,134c-3.643,0-8.472-2.224-10-6c-0.54-1.569,1.635-3.328,3-2
			c2.892-2.985,7.014-2.087,5.749,1.865C14.916,129.933,15.333,131.978,15,134z"/>
		<path style="fill:#3A3A3A;" d="M17,116c1.701,1.919,2.034,3.253,1,4c-1.472,5.091-8.124,8.325-7.814,0.783l0.954-1.801
			c0.325-0.279,0.938-1.007,1.165-1.386C13.441,116.251,15.489,116.139,17,116z"/>
		<path style="fill:#BFBFBF;" d="M18,120c2.672,0.254,2.945,1.111,1,2.959c-0.701,1.395-1.368,2.742-2,4.041
			c-0.831,0.066-1.644-0.256-3.042,0.232c1.423,2.193,1.938,4.464,2.042,6.768h-1c-0.774-2.922-1.485-5.949-3.06-8.988
			C10.224,125.235,9.107,125.625,8,126l-0.759-1.006c1.299-1.45,1.902-2.733,1.808-3.847c0.686-0.72,0.867-1.942,2.089-2.165
			c-0.071,1.484-0.322,3.07-0.054,4.989C14.493,124.568,16.163,122.028,18,120z"/>
		<path style="fill:#727272;" d="M31.126,136.27c2.002,0.819,4.168,1.772,5.068,3.769c-0.097,2.596-10.613-2.374-10.27-3.134
			C27.276,135.898,29.493,135.602,31.126,136.27z"/>
		<path style="fill:#494949;" d="M8,126c-1.147,0.389-2.224,1.087-3,2c-0.468-0.021-1.09,0.321-2.078-0.465
			c2.429-1.853,4.097-4.256,6.128-6.388c1.476-0.2,1.014,1.452,0.732,2.171C9.381,124.34,8.582,125.122,8,126z"/>
		<path style="fill:#727272;" d="M41,140c0.062-1.37,1.551-1.362,2.299-2.008c1.169,1.41-0.409,3.007-1.022,4.057
			c-1.046,1.788-4.374,0.801-5.247-0.733C38.192,140.176,42.117,142.377,41,140z"/>
		<path style="fill:#737373;" d="M48.106,126.081c-1.806-1.332-1.549-3.221,0.963-2.925c0.944,0.268,2.069,0.314,1.814,0.923
			c-0.308,0.734-0.785,1.938-1.325,2.466C49.264,126.831,48.57,126.241,48.106,126.081z"/>
		<path style="fill:#5B5B5B;" d="M49.736,102.098L44,103c-2.033,2.072-3.366,2.072-4,0c-2.303-2.58-3.799-5.842-4-10.214
			C48.846,95.325,45.374,97.8,49.736,102.098z"/>
		<path style="fill:#535353;" d="M51.953,98.052c0.57,0.264,0.614,1.499,1.157,1.837c-0.153,0.512,0.218,1.081-0.505,2.224
			c-1.991-2.299-4.354-3.729-6.036-6.902C49.314,95.312,50.259,97.329,51.953,98.052z"/>
		<path style="fill:#4C4C4C;" d="M40,103l1.68,0.55c-0.037,3.202,0.069,6.351,0.32,9.45c0.807,0.398,0.72,5.891,0.512,6.135
			C41.691,120.1,33.477,119.956,34,117c-2.581,1.112-3.038-0.184-1-2l-3-5c-0.084-1.053,0.568-2.098,1-3
			c1.716-0.577,3.147-1.449,4-3C36.402,103.345,38.47,103.211,40,103z"/>
		<path style="fill:#545454;" d="M61.207,75c0.739,1.76,2.406,2.769,3.793,4c1.991,1.742-10.675,7.876-11,8
			c-1.2-3.664-1.879-8.621,3-10C58.231,76,59.59,75.098,61.207,75z"/>
		<path style="fill:#B7B7B7;" d="M57,77l-2.83,3.094C52.628,81.78,54.24,84.896,54,87c-0.39,0.149-0.658,0.742-1,1
			c0.016-3.335,0.046-6.672-0.184-10L57,77z"/>
		<path style="fill:#3D3D3D;" d="M46,90l0.617,0.861c-1.08,2.774-5.275,2.55-7.764,0.647c-0.589-1.49,0.82-4.157,2.184-5.269L46,90z
			"/>
		<path style="fill:#D5D5D5;" d="M57,94c-1.05,1.414-3.238,2.581-5,1.746C53.135,94.21,55.217,94.11,57,94z"/>
		<path style="fill:#CFCFCF;" d="M63,91c-0.038,0.28-0.089,0.737,0,1c-1.184,0.838-2.612,0.878-4,1
			C59.828,91.597,61.457,91.153,63,91z"/>
		<path style="fill:#2F2F2F;" d="M66.816,58.806C67.898,63.15,69.346,67.497,69,72l-6.792-0.051C61.224,67.777,62.28,64.299,64,61
			c0.466-0.893,2.695-1.286,1.885-2.963L66.816,58.806z"/>
		<path style="fill:#B7B7B7;" d="M77,61.152c-1.516,1.321,0.507,2.961,0.173,4.818L73,61.026C74.339,61.008,75.674,60.94,77,61.152z
			"/>
		<path style="fill:#606060;" d="M43,120c0.19,1.106,1.312,1.374,2,2c2.643,1.131,2.977,2.131,1,3
			c-5.039,3.097-9.525,7.58-14.866,10.087c-1.079-0.124-3.504,0.456-4.767-0.674c-1.982-1.772-2.081-6.43-0.219-8.316
			c-1.613-2.568,1.379-4.398,3.808-3.142L34,120l0.449-1.314l5.313,0.874C41.985,118.879,43.064,119.026,43,120z"/>
		<path style="fill:#4F4F4F;" d="M30,110l3,5l1,2c2.029,1.866,2.029,2.866,0,3l-4.045,2.955c-0.898,1.244-2.789,2.109-3.808,3.142
			c-2.935,1.108-2.253-9.788-3.921-15.918C24.837,108.915,27.524,108.498,30,110z"/>
		<path style="fill:#4B4B4B;" d="M19,122.959c0.749,1.234,2.417,1.173,3.728,2.265c0.771,0.642,0.451,2.592-0.522,2.734
			l-2.211,0.321c-0.966-0.461-2.223-0.361-2.995-1.278c-0.634-0.753-1.564-0.763-3.081-1.339
			C15.175,123.955,17.099,123.269,19,122.959z"/>
		<path style="fill:#535353;" d="M22,118c-1.381,2.536-4.414,0.689-5-2c0.184-1.743,1.553-2.593,3.491-1.943
			C22.033,114.574,22.084,116.507,22,118z"/>
		<path style="fill:#484848;" d="M22,120c-0.005,0.915,0.808,1.762,1.032,3.107c-1.61,1.174-2.779-0.353-4.032-0.148
			c-0.561-0.925-0.617-1.989-1-2.959C17.542,117.853,21.116,118.744,22,120z"/>
		<path style="fill:#A2A2A2;" d="M22,118c-0.037,0.65,0.003,1.349,0,2h-4c-0.516-1.305-1.341-2.512-1-4
			C18.66,117.174,19.937,118.835,22,118z"/>
		<path style="fill:#D3D3D3;" d="M77,45c-0.773,1.867-2.592,2.722-4,4C71.381,47.232,75.347,45.389,77,45z"/>
		<path style="fill:#D5D5D5;" d="M43,120h-9v-3c2.059,1.904,4.642,2.614,8.024,1.787C41.418,117.056,42.86,114.283,42,113
			c0.284-0.873,0.618-0.86,1,0V120z"/>
		<path style="fill:#D4D4D4;" d="M44,103c-4.117,3.608-1,3.675-1,10h-1c-2.027-3.025,0.185-7.094-2-10
			C41.304,102.82,42.721,103.298,44,103z"/>
		<path style="fill:#C6C6C6;" d="M49.069,123.156c-0.354,0.86-1.117,1.93-0.963,2.925c-0.74-0.255-1.34-0.864-2.106-1.081
			c-0.273-0.898-0.236-2.304-1-3L49.069,123.156z"/>
		<path style="fill:#CFCFCF;" d="M49.736,102.098C48.63,104.151,45.781,102.585,44,103
			C45.498,101.687,47.798,101.576,49.736,102.098z"/>
		<path style="fill:#C1C1C1;" d="M33,115c-1.926-0.825-2.839-2.974-3-5C31.835,111.113,32.063,113.127,33,115z"/>
		<path style="fill:#C0C0C0;" d="M34,120c-0.505,1.975-2.39,2.562-4.045,2.955C30.627,121.276,32.191,120.113,34,120z"/>
	</g>
</g>
</svg>
