<?xml version="1.0" encoding="iso-8859-1"?>
<!-- Generator: Adobe Illustrator 30.1.0, SVG Export Plug-In . SVG Version: 9.03 Build 0)  -->
<svg version="1.1" id="Layer_1" xmlns="http://www.w3.org/2000/svg" xmlns:xlink="http://www.w3.org/1999/xlink" x="0px" y="0px"
	 viewBox="0 0 210 138" style="enable-background:new 0 0 210 138;" xml:space="preserve">
<g>
	<g>
		<path style="fill:#FCFCFC;" d="M53,0l82.777,16.338l71.414,71.315c1.106,1.105,1.82,1.766,1.878,2.915
			c0.065,1.285-0.423,2.724-1.764,3.86l-46.467,39.35c-1.079,0.913-1.843,1.667-2.519,2.131c-1.771,1.216-2.649-1.052-4.194-1.303
			l-80.277-13.017L0,6V3l0.802-1.761L21,0H53z M23.003,5.798c-2.248,0.186-4.058-1.688-6.433-2.068
			C11.977,2.997,7.448,4.354,2.868,4.646c4.317,9.194,9.959,15.922,17.213,21.498c-7.059-1.345,3.774,10.919,6.976,17.682
			c0.449,0.947,1.238,1.695,1.997,2.218c1.26,2.846,3.087,5.363,4.782,7.953l1.312,2.005C36.613,58.239,38.273,60.415,39,63
			c0.285,1.015,1.47,1.666,2.108,2.321c-0.341,2.55,3.313,3.383,4.023,5.506c0.704,2.103,2.105,3.741,2.961,5.782
			c0.795,1.897,1.551,2.971,2.963,4.433c1.208,1.251,2.243,2.016,3.854,2.942c-0.129,0.278-1.281,0.197-1.248,0.532
			c0.62,6.274,10.772,5.327,10.59,5.418c0.593-0.298,0.965-1.066,0.939-1.94c1.666,2.939,5.051,4.462,8.089,2.832
			c0.344,0.165,0.634,0.413,0.869,0.711c1.511,1.918,4.207,1.575,7.029,1.985c1.249,0.181,1.082-2.64-0.578-3.887
			c0.09-0.273,0.033-0.883,0.268-1.042c2.402-1.263,3.032-5.414,1.458-8.312c-0.571-1.051-3.363-0.194-3.772,0.702
			C78.072,82.04,77.696,83.829,78,85l-1.037,0.003C76.979,83.426,77.284,81.549,77,80c1.457,0.479,4.021-0.675,5.246-1.259
			C83.88,77.961,84.424,74.728,84,73h1c-0.36,1.9-0.049,4.23,0.459,6.327l2.793-3.374c-0.071,0.873-0.568,2.212,0.19,2.683
			C89.749,79.446,91.093,78.667,92,78v3c-1.663-0.785-5.762-2.231-7.012-0.359c-1.938,3.043-0.847,7.242-0.114,10.244
			c-2.291-1.133-1.671,1.713-1.527,2.748c0.222,1.597,1.914,3.313,3.359,3.126l0.908-1.924c0.296,0.813,0.943,1.495,1.514,2.115
			c-0.652,0.741-1.083,1.882,0.008,2.822c1.223,1.053,2.304,1.936,2.863,3.092l-0.974,0.002c-2.53-0.62-3.231-4.455-5.979-4.1
			c-0.29,0.038-0.593-0.1-0.887-0.087c1-4.244-9.79-5.275-12.16-4.68c-0.316,0.079-0.677-0.05-1,0
			c0.419-0.815-13.581-4.522-12.387-1.872c1.166,4.281,4.515,7.619,6.678,11.069c1.01,1.61,1.181,3.599,2.808,4.811
			c1.024,0.763,1.116,3.783,3.129,3.81L85,112c0.143,0.285,0.282,0.715,0,1l-13.18,0.145c3.204,9.102,6.985,6.323,14.18,7.986
			c1.058,0.245,1.72,0.827,3,0.74c2.483-0.169,4.68,1.205,7.873,0.717C98.181,109.066,96.315,113.771,93,105
			c-0.274-0.725-0.662-1.437-1-2.136c4.858-0.01,3.519-5.453,7.065-6.933l1.064,0.877C97.82,97.518,98.066,100.737,97,102
			c-1.485,1.554-3.067,2.348-1.483,5.048c0.842,1.437,1.34,3.763,3.483,3.952c-1.981,4.231,10.245-1.533,11-2
			c0.762-0.472,2.135-0.305,3-1c0.939-0.755,3.093,0.249,4-1c0.363,0.303,0.694,0.64,1,1c-1.988,0.693-3.865,1.761-6,2l-1.126,0.906
			c-2.61,0.357-10.676,4.931-11.559,8.202c-0.218,0.808-2.071,1.486-1.385,3.058c0.441,1.01,1.918,1.21,3.534,1.417
			c0.86,0.11,1.601-0.788,1.261-2.225c1.073-0.26,2.171-0.402,3.276-0.409c1.213,0.883-1.201,0.887-1.432,1.565
			c-0.469,1.375,1.849,1.899,3.13,2.183c1.601,0.355,2.426-1.148,3.1-2.646c-0.127,1.434,0.393,2.511,1.427,3.262
			c1.255,0.913,3.712-0.203,4.776,0.688c1.414,1.185,2.289,0.744,4,0.848c2.966,0.18,5.961,0.706,8.9,1.147
			c1.2,0.18,3.228,1.312,4.1,1.005c0.692-0.243,2.268,0.299,3,0.27c1.321,1.443,3.588,0.168,5.081,0.738
			c1.699,0.648,3.071,0.816,4.929,0.751c3.64-0.129,7.717,2.587,11.212,1.566c2.846-0.831,5.748-3.954,4.649-6.238
			c1.157,3.315,10.021-6.062,9.121-4.913l1.092-1.394c2.075-2.648,5.953-4.102,7.963-7.029c0.633-0.277,1.296-0.484,1.945-0.719
			c1.465-0.532,2.17-1.846,3.039-2.995c0.529-0.698,1.736-1.01,1.969-2.037c0.622-0.249,1.504-0.58,2.084-1.06
			c0.988-0.819,1.904-2.093,2.801-2.937c1.855-0.568,2.918-1.763,4.283-3.013l9.914-9.078c-3.312-3.509-6.391-6.833-9.814-9.52
			c-0.457-0.359-1.272-1.065-1.504-1.591c-0.821-1.863-2.599-2.771-4.094-4.01c-0.855-0.708-1.16-2.744-2.633-2.816
			c-0.922-1.433-2.092-3.109-4.023-4.033c-0.829-0.236-1.329,0.404-1.181,0.94c-0.472-0.576-1.629-0.772-2.093-1.352L179,65.1
			c0.471-0.189,1.069,0.218,2.081-0.48l-5.595-5.613c-0.974,1.207-0.735,1.848-0.549,3.088c-0.579,0.083-1.179-0.023-1.761-0.003
			l-0.126-0.89c4.262-2.476-3.979-8.079-6.026-9.906c-0.257-0.278-0.948-0.813-0.997-1.199c-0.125-0.987-1.808-1.588-2.276-2.291
			c-0.599-0.9-7.404-9.631-8.517-5.908l-1.241,0.021c-0.885,0.015-1.785-0.227-2.681-0.135c0.689-1.725-0.219-2.052-0.382-3.695
			c1.727,0.36,2.259,2.602,5.3,1.561c-3.474-2.12-4.69-5.819-8.25-7.46c1.012,3.113,2.726,3.639,2.95,5.899
			c-1.56-0.326-2.367-2.51-3.843-2.881l-1.136-0.286c1.135-1.048,0.933-3.817,0.192-4.916c-0.364-0.539-1.144-0.766-1.533-1.273
			c-2.544-3.322-5.889-6.09-9.012-9.345c-1.653-1.723-3.979-0.921-5.597-1.537c-1.792-0.681-3.285-1.219-4.979,0.071
			c-0.391-0.697-1.132-1.4-2.317-1.619l-12.688-2.346c-0.962-0.178-2.08-0.116-2.015,0.847c-2.028-2.768-5.587-0.849-7.78-1.816
			C97.387,11.737,85.532,7.619,84.104,11C84.213,9.977,83.292,9.688,83,9c-0.785-1.85-2.743-0.602-4.034-0.194
			c-4.596-2.554-10.67-2.497-15.84-3.63C62.049,4.94,61.554,3.377,60,4.22c-1.162,0.631-2.571,0.902-3.785,1.459
			C60.534,2.742,44.167,2,43,2h-1c-7.8,0-15.684-0.256-23.167,1.556C20.887,6.33,22.59,3.994,23.003,5.798z"/>
		<path style="fill:#838383;" d="M23.003,5.798C24.391,2.629,28.964,5.044,27,8l5,2c1.177-2.61,2.49-1.83,2,1l5,2
			c1.818-1.875,2.046-1.629,2,1c1.65-1.924,3.831,6.588,3.606,7.003c-2.022-0.448-3.398,0.995-4.261,2.614
			C38.167,23.546,35.719,24.34,33,26c1.887,2.455,0.142,3.588-2,1.346c-0.467,1.703-2.134,1.588-5-0.346c-1.527-0.77-3.482-0.8-5,0
			c-1.281,1.579-1.896,1.002-0.919-0.856C12.827,20.568,7.185,13.84,2.868,4.646c4.58-0.292,9.109-1.649,13.701-0.916
			C18.945,4.109,20.754,5.984,23.003,5.798z"/>
		<path style="fill:#E5E5E5;" d="M73.01,26.906c1.826,0.469,3.866,2.04,3.99,4.094c1.569-0.706,2.061-0.436,1,1l4.882-0.15
			c3.181,0.075,4.957,1.176,5.328,3.305c1.732-0.801,3.631-0.345,5.699,1.369C97.436,37.297,99.467,38.789,100,41h1
			c2.475,0.371,4.886,1.281,7.233,2.731l0.718-0.631c-0.671-0.357-0.64-0.724,0.05-1.1c1.229-2.587,2.085-2.559,3.147,0.1
			c0.495,1.784,0.742,2.677,0.742,2.677c4.563,1.979,9.138,3.794,13.724,5.447c1.321-2.029,2.783-2.77,4.387-2.223
			c0.162-1.244,1.26-0.682,2.031,0.028c1.688,1.173,1.27,2.052-1.255,2.636c2.647-1.493,3.065-2.372,1.255-2.636
			c-0.882-0.266-0.879-0.61-0.031-1.028c-2.117-2.387,4.187-9.318,7-8c0.197-2.656,0.864-2.656,2,0
			c0.061,1.439,0.555,1.66,1.482,0.663L144,41c2.512,1.979,1.557,10.184-1,12c-1.259,1.335-3.249,1.586-5.968,0.751
			c-2.568,0.73-4.505,0.493-5.811-0.712c0.287,1.847-0.122,1.462-1.323,0.06c-1.04,2.172-1.521,4.379-1.443,6.619l-1.672,1.457
			c0.399,2.742,1.191,5.391,2.375,7.948c1.957,0.443,3.078,2.046,3.394,4.021c0.891,0.092,0.907,0.406,0.121,0.924
			c2.088,0.99,3.994,3.096,1.575,4.992c0.065,1.95-0.728,1.896-1.202-0.073c-1.716-0.78-3.11-2.259-4.18-4.438l-1.061,0.286
			c-1.357,1.248-2.063,0.829-1.567-0.966c-0.579-0.228-0.52-0.537,0.06-0.913c-2.494-0.473-2.671-0.937-1.115-2.945
			c-0.894-0.263-0.893-0.596-0.029-0.995c-1.363-1.553-3.168-1.757-5.417-0.612l-0.649-1.53c-1.178-1.205,3.991-7.872,4.474-7.803
			c0.518,0.074,0.233,1.584-0.469-0.861c-0.822-0.829-0.835-1.95-0.037-3.363c-2.793-1.264-5.478-2.546-8.055-3.847
			c-2.232-0.171-4.407-1.066-6.527-2.686L106.921,49c-2.285,2.078-4.667-1.957-5.15-4.191C96.157,43.597,89.826,41.617,86,37
			c-0.571,0.248-1.191-0.087-1.858-1.005c1.235,6.587-4.378,5.401-3.32-0.129c-2.207-0.371-1.755,0.907-1.168,2.302
			c0.587,0.297,1.059,0.614,1.128,1.003c0.041,0.232-0.291,4.342-0.368,4.119c-0.684-1.98-0.153-5.719,2.312-4.567
			c1.827,0.854,2.185,6.885,0.231,8.235c1.363,1.793,1.415,3.006,0.155,3.638C84.195,50.748,84.567,51.021,84,52
			c2.353,0.886,3.95,3.475,2.874,5.907c1.547,1.373,3.291,2.035,5.234,1.984c1.645-3.361,7.099-1.726,6.892,1.917
			c1.182,0.332,2.182,1.063,3,2.192l2.002-1.492c3.56,1.568,7.229,2.682,11.006,3.343c-0.141-1.608,0.199-2.456,1.992-2.852
			c0.291-0.873,0.632-0.86,1.021,0c2.42,0.38,2.414,2.187,1.066,3.874c1.599,1.325,0.557,2.354-3.126,3.087
			c0.761,0.602,0.396,1.248-1.097,1.937c1.091,2.113-0.209,5.649-2.95,5.378c-1.9,3.266-3.224,6.433-3.971,9.501
			c1.931-0.054,1.944,0.707,0.081,1.415c-2.593,2.521-4.839,5.408-6.739,8.66l-2.219-0.921c-2.203,0.291-2.57-0.217-1.855-2.28
			c-1.972-2.169-0.727-3.401,1.774-1.793c0.683-2.134,1.744-4.351,3.181-6.651c-2.119,0.996-3.507,0.582-4.166-1.242
			c-0.765-1.415-0.522-3.082,0.73-5.003c-0.119-3.105,0.674-5.053,2.38-5.843c1.233-1,3.485,0.01,3,0.674
			c-0.777,1.063-2.164,0.219-3-0.674c0.094,3.166-3.253,2.395-5.11,0.882c-2.073-1.333-2.333-2.772,0-4
			c-1.183-3.604-2.608-4.373-4.276-2.307C92.173,69.957,91.835,74.777,89,75c-4.062,2.135-1.727-6.971-1.004-9.76
			c0.11-0.422,0.462-0.781,0.884-1.122c0.874-1.738,0.874-1.738,0,0l-2.448,8.511L85,73h-1c-3.715-0.247-1.75-6.976,0.194-9.084
			c-0.898-0.17-0.871-0.454,0.008-0.843C83.274,59.53,81.873,56.172,80,53c-0.832-0.286-0.819-0.62,0-1
			c-0.367-3.149-4.11-7.018-6.486-2.87l-2.349-0.504c-1.779-1.468-2.52-3.015-2.224-4.642c0.337-1.483,1.671-2.478,4.002-2.984
			l1.549-0.485c-0.44-3.217-0.979-6.393-1.618-9.528c-2.311,1.226-2.445,0.83-1.853-1.528c-2.625,0.434-2.637-0.584-0.205-1.677
			C69.44,25.128,72.158,23.892,73.01,26.906z"/>
		<path style="fill:#E2E2E2;" d="M163.751,47.806c0.468,0.703,2.15,1.304,2.276,2.291c-2.326,1.359-2.687,2.642-1.081,3.848
			c2.28-1.68,4.034,1.039,2.055,3.055c-3.128,1.193-4.128,4.526-3,10c0.863,0.121,0.854,0.463,0.081,1l1.114,17.157L167,87
			c0.924,0.038,0.984,0.378,0.244,1c0.861,0.435,0.837,0.814-0.073,1.136l-0.228,0.638c-1.128,1.06-1.822,1.908-2.08,2.544
			c3.348,1.931,4.706,3.917,4.075,5.96l-0.157,0.701l-1.1,0.786c0,0-2.89-0.588-8.67-1.765c-2.725-2.056-6.288-2.723-10.688-2
			c-3.552-1.366-6.346-0.387-8.385,2.937c-3.136,1.152-5.781,2.506-7.937,4.063c0.873,0.284,0.86,0.618,0,1
			c-2.338,1.814-2.322,3.301,0.048,4.462l-0.084,2.499c1.648-1.023,2.099-0.408,0.885,1.113c2.938,1.793,6.927,6.158,7.152,9.927
			l2.436-0.039c1.475,2.06,2.996,4.031,4.564,5.913c2.866-0.205,2.732,2.174,0.01,2.885c-1.858,0.066-3.23-0.103-4.929-0.751
			c-2.247-0.964-2.992-2.233-2.236-3.808c-2.91-0.748-4.828-3.177-5.756-7.289c-1.794,0.218-0.357-1.148-0.335-1.046
			c0.174,0.779-0.852,2.258-1.754,1.135c-1.038,3.015-8.207,1.294-7-2l1.155-1.936c4.647,1.119,3.817-1.251-2.49-7.111
			c-1.81,0.337-2.26-0.439-1.031-1.824c-2.282-0.491-2.251-1.331,0.058-1.706c0.061-1.896,1.644-3.269,4.748-4.117
			c1.65-1.562,3.424-2.583,5.32-3.064c-0.247-1.499,0.204-2.657,1.354-3.475c-0.798-3.184-1.135-6.38-1.011-9.587
			c0,0-0.676-0.707-2.029-2.12c-2.872-0.086-2.905-1.74-0.545-3.238c0.292-1.117,1.131-1.062,2.517,0.165l1.202,0.073
			c1.32-1.559,2.876-0.984,4.669,1.726c1.152,0.075,2.159,0.49,3.021,1.245c2.717,0.344,2.582,1.22,0.037,2.094
			c-0.903,1.058-0.882,2.648,0.062,4.769c0.847-0.206,1.501,0.829,1.963,3.105l1.522-1.896c4.799,1.232,9.656,1.854,14.569,1.864
			c-0.683-3.778-1.024-5.666-1.024-5.666L161,85c-2.035-5.02-3.233-12.399-0.879-17.142c-1.86-1.903-0.229-0.594-0.332-0.533
			c-2.181,1.276-11.21,1.37-12.789-1.325c-0.284,0.873-0.618,0.86-1,0c-1.889-0.567-1.881-1.437,0-2
			c4.122-0.84,8.423-1.222,12.903-1.148c-0.408-2.997,0.291-4.947,2.097-5.852c-2.685-0.321-2.54-1.171,0-2
			c-2.267-0.59-2.397-2.704-2-4.69l-0.075-1.148c-4.966-2.695-6.61-5.11-4.933-7.243l1.241-0.021
			c2.095,0.281,4.122,1.762,6.08,4.444L163.751,47.806z"/>
		<path style="fill:#D7D7D7;" d="M189.037,72.974c1.473,0.073,1.778,2.108,2.633,2.816c-0.479,1.693-1.63,0.703-2.509-0.201
			c2.739,1.21,4.018,2.68,3.84,4.411c0.873,0.284,0.86,0.618,0,1c-0.289,2.577-1.074,4.801-2.357,6.672
			c-0.938,1.059-1.881,2.001-2.83,2.828c0.619,2.21,1.327,4.378,2.126,6.504c1.915,2.499,0.561,3.878-1.951,1.996
			c-1.825-0.144-1.825-0.144,0,0l1.136,0.91c-0.939,2.656-0.619,4.666,0.959,6.029c-0.58,0.481-1.461,0.811-2.084,1.06
			c-2.505,0.811-3.162,1.49-1.969,2.037c-0.87,1.149-1.574,2.463-3.039,2.995c-1.072-0.95-1.989-0.98-2.751-0.089
			c-1.025,2.887-3.845,2.152-3.178-0.936l0.081-2.388c-2.019-1.443-3.067-2.982-3.144-4.617c-1.457,1.06-1.882,0.812-1.121-0.961
			c-2.291,1.906-5.695-1.638-4.1-4.06l0.157-0.701c1.24-0.831,2.904-0.268,4.994,1.686c2.576-1.443,2.576-1.443,0,0
			c-2.862-0.316-5.574-3.729-2.858-5.917c3.286-0.831,3.286-0.831,0,0c-2.839,1.87-5.986-1.377-4.131-4.273
			c0.048-0.216,0.212-0.419,0.228-0.638c5.069-1.181,10.169-2.445,15.299-3.791l-1.551-5.39c0.214-2.776,0.518-5.641,0.91-8.593
			l2.004-1.483C185.511,70.285,187.246,71.317,189.037,72.974z"/>
		<path style="fill:#767676;" d="M63.115,16.213l-0.41,2.201c-1.595,1.161-11.468,6.364-12.419,5.709
			c-0.432-0.297-0.786-0.707-1.118-1.148C48.887,23.851,48.494,23.833,48,23l-3.223-1.914c-2.516-0.055-2.919-0.587-1.208-1.598
			C42.839,16.119,43.316,14.623,45,15l4-3c-1.202-1.529-0.639-2.052,1-1c2.165-1.319,3.499-2.652,4-4
			c-1.001-2.599-0.023-2.948,2.215-1.32C57.429,5.122,58.838,4.851,60,4.22C62.982,4.604,67.124,16.745,63.115,16.213z"/>
		<path style="fill:#616161;" d="M108,14.803L112,18c2.619-0.593,2.707-0.085,1,2c0.873,0.284,0.86,0.618,0,1
			c-0.815,1.163-2.149,2.163-4,3c0.76,2.58-0.065,2.853-2,1l-5,3c1.201,2.482,0.613,2.757-1.966,1.974
			c-1.097,3.219-5.194,1.557-3.997-1.719c-2.158,0.149-2.532-1.357-2.173-3.255c-2.517-0.057-2.577-0.169-0.864-2
			c-1.632-2.337-1.514-3.659,0.355-3.968L97,16c-2.306-2.649,0.711-3.263,3.22-3.013C102.413,13.954,105.972,12.035,108,14.803z"/>
		<path style="fill:#EBEBEB;" d="M63.126,5.176c2.793,0.971,5.019,7.312,4.026,9.672c1.377,2.271,2.927,6.353,2.848,9.01
			c2.607,0.408,2.231,1.925-0.297,2.239c-1.946,1.17-2.715,3.497-2.761,5.152c0.984,0.968-0.19,1.303-1.367,1.172
			C65.202,32.38,72.957,30.285,72,33c0.906,0.103,0.853,0.45,0,1c-0.074,2.897-1.09,2.673-2.15,0.178l-0.687,0.888
			c-3.863,0.346-5.281,1.666-4.254,3.958c0.669,1.58,1.795,2.404,3.378,2.47l0.654,2.491c-0.328,1.814-2.297,2.596-5.907,2.346
			c-0.407,2.201-1.085,4.169-2.034,5.904c-2.476,3.45-4.203,7.495-5.182,12.135C54.216,66.793,53.611,68.67,54,70
			c0.873,0.284,0.86,0.618,0,1l-1.27,3.124c0.591,3.382,0.033,5.688-1.675,6.918c-1.412-1.462-2.169-2.536-2.963-4.433
			c0.112-3.563-0.174-3.978-2.961-5.782c-0.71-2.123-4.364-2.956-4.023-5.506c1.935-1.235,4.511-0.846,7.728,1.166
			c0.569-0.005,0.291-1.184-0.836-3.536c0.141-1.511,1.136-2.142,2.986-1.892c0,0,1.034-3.947,3.103-11.841
			c-2.038-1.921-0.648-3.336,1.804-3.086c1.735-3.424,3.274-7.826,4.618-13.206C57.629,32.332,56.125,31.023,56,29
			c0.721-1.825,2.944-2.376,6.671-1.651c1.578-3.629,1.727-7.341,0.445-11.137C64.952,15.369,61.766,3.808,60,4.22
			C61.554,3.377,62.049,4.94,63.126,5.176z"/>
		<path style="fill:#414141;" d="M163,108c2.339-0.282,3.209,0.092,2.61,1.121c1.999,0.828,2.796,1.788,2.39,2.879
			c2.179,3.062,3.51,6.119,3.992,9.173c0.9-1.149-7.963,8.228-9.121,4.913c-2.552,0.846-2.981,0.36-1.871-2.087
			c-1.835-1.398-2.701-3.359-2.599-5.884l-1.382-0.417c1.322-1.1,1.881-3.015,1.678-5.745C158.879,107.545,160.314,106.228,163,108z
			"/>
		<path style="fill:#636363;" d="M78.966,8.806c1.597,0.214,3.077,1.681,4.44,4.401C82.146,14.195,80.677,15.126,79,16
			c0.156,2.755-1.43,3.887-4,3c-2.472,1.152-8.64-0.827-7.848-4.152c-2.758-2.425-3.177-6.203-4.026-9.672
			C68.296,6.308,74.37,6.251,78.966,8.806z"/>
		<path style="fill:#818181;" d="M42,2c0.446,3.219,1.043,9.142,0.596,12.581C42.585,14.665,41.89,14.385,41,14
			c-0.429-0.468-1.555-0.34-2-1l-5-2c-0.447-0.617-1.316-0.813-2-1l-5-2c-0.818-1.068-2.562-2.321-3.997-2.202
			c-0.413-1.804-2.116,0.532-4.17-2.242C26.316,1.744,34.2,2,42,2z"/>
		<path style="fill:#636363;" d="M54,71c1.424-1.454,3.667-1.993,3.702,0.304l9.474,9.052l-1.155,2.666
			C67.245,85.564,66.502,86.279,64,85l-0.519,0.795l-8.571-1.811c-1.612-0.926-2.647-1.692-3.854-2.942
			C50.717,76.764,49.465,70.589,54,71z"/>
		<path style="fill:#959595;" d="M93,105c3.315,8.771,5.181,4.066,3.873,17.589c-3.194,0.487-5.391-0.886-7.873-0.717
			c-2.24-0.574-3.85-14.539-3.421-15.228C85.802,106.287,92.802,102.84,93,105z"/>
		<path style="fill:#5A5A5A;" d="M125,117c2.077,1.311,4.604,1.438,7,2l1.106,0.017c0.168,3.039,0.992,5.783,2.471,8.232
			c-1.824,1.009-3.716,1.257-5.678,0.746c-2.94-0.441-5.934-0.967-8.9-1.147c-2.913-0.2-5.945-8.398-3-8.848
			c-0.468-2.242,0.199-2.575,2-1C120.41,115.094,122.077,115.094,125,117z"/>
		<path style="fill:#737373;" d="M183.833,69.88c-0.025,3.266,0.238,8.472-2.914,10.075C181.71,83.098,173.255,87.24,171,85
			c-2.597,1.792-4.359,2.701-3-1c1.162-4.659,3.162-8.325,6-11l5-3c0.044-2.546,0.625-2.872,2.74-1.472
			C182.204,69.107,183.361,69.304,183.833,69.88z"/>
		<path style="fill:#898989;" d="M85,112l-13.772-0.182c-2.013-0.027-2.105-3.047-3.129-3.81c-2.522-3.006-0.256-6.26,2.795-6.123
			c4.805,1.84,9.077,2.513,12.817,2.02l0.075,1.483C87.115,106.077,86.813,109.617,85,112z"/>
		<path style="fill:#636363;" d="M197.168,99.99c-3.083,2.323-4.237,1.672-3.463-1.951c-0.916-1.447-0.789-2.162,0.383-2.144
			c0.767-4.693,1.368-9.38,1.804-14.064l1.375-0.44c3.424,2.687,6.502,6.011,9.814,9.52L197.168,99.99z"/>
		<path style="fill:#6B6B6B;" d="M20.081,26.144C20.378,26.372,20.583,26.914,21,27c1.535-0.792,3.482-0.797,5,0l3.292,0.797
			c0.542,0.628,1.602,15.745,1.067,16.533c-0.57,0.84-2.567,0.498-3.301-0.503C23.856,37.063,13.022,24.799,20.081,26.144z"/>
		<path style="fill:#858585;" d="M77,80c0.284,1.549-0.021,3.426-0.037,5.003c1.945,1.922,1.462,3.207-1.448,3.856l-2.234,1.968
			c-3.038,1.63-6.423,0.107-8.089-2.832c-0.927-0.299-0.935-0.63-0.029-0.995c-1.179-0.588-1.567-1.255-1.163-2
			c0.622-0.712,1.354-1.313,2.021-1.979C65.461,79.863,66.454,78.523,69,79c2.17-2.02,3.423-2.627,3.761-1.82L77,80z"/>
		<path style="fill:#5E5E5E;" d="M84,73c0.424,1.728-0.12,4.961-1.754,5.741C81.021,79.325,78.457,80.479,77,80
			c-3.697-1.793-5.545-2.689-5.545-2.689c1.044-4.239,3.581-7.891,7.613-10.956c0.781-1.484,2.49-2.297,5.126-2.439
			C85.683,66.82,83.229,69.859,84,73z"/>
		<path style="fill:#838383;" d="M174.937,62.094L179,65.1l2.74,3.427c-0.434,0.732-1.886,1.371-2.74,1.472l-5,3
			c-1.381,1.546-2.359,1.754-2.934,0.622c-0.92,1.013-1.424,0.607-0.926-0.688l-4.94-4.157c-1.105,1.464-1.758,0.992-1.118-0.777
			c-0.076-0.328-0.104-0.664-0.081-1c0.01-2.761,6.944-7.45,9.176-4.908C173.758,62.072,174.358,62.178,174.937,62.094z"/>
		<path style="fill:#444444;" d="M161,124c0.637,0.558,1.378,1.418,1.871,2.087c1.099,2.284-1.802,5.407-4.649,6.238
			c-3.495,1.021-7.572-1.695-11.212-1.566l-0.01-2.885l5-2.874c-1.875-2.341,3.075-5.197,5-3
			C157.987,120.407,159.321,121.074,161,124z"/>
		<path style="fill:#8E8E8E;" d="M92,81c2.935-1.6,4.475-0.041,3,3c2.321-0.121,2.032,4.123,0,4c0.577,3.075-6.285,6.659-8,3.648
			c-0.499,3.572-4.296,1.86-2.126-0.764c-0.733-3.002-1.824-7.201,0.114-10.244C86.238,78.769,90.337,80.215,92,81z"/>
		<path style="fill:#3F3F3F;" d="M108.024,88.192c1.8-1.949,2.099-1.831,1.976,0.808c1.579,0.82,3.957,2.254,3,4
			c0.313,2.22-4.269,7.976-5.705,8.78c-0.218,0.122-0.716-0.258-1.295-0.78c-1.629,3.701-7.502-0.987-5.871-4.192l-1.064-0.877
			C102.611,94.451,102.815,86.2,108.024,88.192z"/>
		<path style="fill:#6E6E6E;" d="M56.215,5.68C55.362,6.072,54.761,6.51,54,7c-0.844,1.646-2.177,2.979-4,4
			c-0.192,0.4-0.763,0.617-1,1l-4,3c-0.916,2.419-2.257,0.805-2.9-1.08C41.818,13.093,42.75,3.622,43,2
			C44.167,2,60.534,2.742,56.215,5.68z"/>
		<path style="fill:#787878;" d="M84.16,98.68c-0.432,2.223-0.509,4.441-0.231,6.656c-4.228-0.996-8.312-2.163-12.252-3.501
			C68.865,102.341,70.179,95.672,72,94C74.37,93.405,85.16,94.436,84.16,98.68z"/>
		<path style="fill:#474747;" d="M110.874,110.906c0.744,0.691,1.453,1.722,2.126,3.094c2.568-1.112,3.046,0.174,1,2
			c1.582,1.416,1.915,2.416,1,3c-2.2,1.331-4.647,2.391-7,1c0.089,2.447-0.225,2.279-2,0.948c-1.104,0.008-2.202,0.15-3.276,0.409
			c-1.392,2.151-4.811,0.091-3.409-2.249C100.198,115.836,108.264,111.262,110.874,110.906z"/>
		<path style="fill:#555555;" d="M100.22,12.987C99.685,14.428,97.734,14.754,97,16c-1.843,1.395-3.568,2.876-5.175,4.442L90,19
			l-4-3c-1.504,0.923-1.992,0.321-0.932-1.068c-3.432,0.022-2.794-2.11-0.964-3.932C85.532,7.619,97.387,11.737,100.22,12.987z"/>
		<path style="fill:#828282;" d="M71,94l-0.625,7.304c-0.104,0.226-2.934,3.775-3.176,3.716c-0.852-0.21-1.421-1.063-1.908-1.823
			c-2.164-3.449-5.512-6.788-6.678-11.069C57.419,89.478,71.419,93.185,71,94z"/>
		<path style="fill:#7D7D7D;" d="M85,113c1.778,0.962,3.968,8.636,1,8.131c-7.195-1.663-10.976,1.116-14.18-7.986L85,113z"/>
		<path style="fill:#4E4E4E;" d="M123.664,107.953c2.643,1.241,2.138,2.719-0.664,3.047c-1.387,1.947-1.636,3.738-0.747,5.372
			L120,117c-0.552,0.273-1.207,1.137-2,1c-1.178,1.698-2.512,1.031-4-2l-1-2c-0.969-1.056-1.967-2.747-1-4
			c2.135-0.239,4.012-1.307,6-2c0.373-2.237,2.757-3.491,4.633-1.871C123.047,106.605,123.588,107.299,123.664,107.953z"/>
		<path style="fill:#676767;" d="M130,17.85c1.618,0.615,3.943-0.186,5.597,1.537c3.124,3.255,6.468,6.023,9.012,9.345
			C143.28,29.593,140.037,30.396,140,29c-1.211,2.667-2.764,1.802-2-1c-1.974-1.684-4.01-2.459-6.106-2.324L131,23
			c-2.538,1.501-4.762-1.496-3-3.743C126.679,17.654,128.192,17.704,130,17.85z"/>
		<path style="fill:#6B6B6B;" d="M167,57c2.382-2.409,6.52,1.474,6.05,4.202l0.126,0.89C169.851,63.281,167.434,66.18,164,67
			c-3.006,1.055-2.793-10.208-0.581-10.776C164.321,55.992,165.99,56.488,167,57z"/>
		<path style="fill:#5B5B5B;" d="M106,101c1.387,0.015,2.167,1.414,2.339,4.197c0.773,0.353,1.994,1.546,1.957,2.316
			c-0.031,0.643-10.487,1.09-10.941,0.76L97,102c1.066-1.263,0.82-4.482,3.129-5.192C102.008,98.359,103.245,100.82,106,101z"/>
		<path style="fill:#6D6D6D;" d="M101.11,73.118c0.167,4.122-0.008,7.922-3.11,10.846c-1.178,2.449-2.178,2.46-3,0.035
			c-0.732-1.312-1.759-2.414-3-3v-3c-1.674-2.371,1.674-5.345,4-4C97.177,72.207,99.747,73.735,101.11,73.118z"/>
		<path style="fill:#D5D5D5;" d="M85.047,98.766c1.589,0.777,2.036,2.438,1.34,4.985c1.666-1.372,3.212-1.667,4.639-0.885
			L92,102.864c0.338,0.698,0.726,1.411,1,2.136c-1.483,0.128-4.96,0.225-5.564,2.343c-1.409,4.943,0.145,10.122,1.564,14.528
			c-1.28,0.087-1.942-0.496-3-0.74c1.737-2.156-0.474-5.674-1-8.131c0.282-0.285,0.143-0.715,0-1c0.106-2.01,0.463-5.733-2.37-6.586
			c-4.112-1.239-8.726-0.852-11.735-3.529c0.001-0.95,0.271-0.932,0.782-0.05c3.737-0.029,7.074,1.737,11.245,2.346
			c0.119-2.381-0.278-4.437,1.237-5.501C84.454,98.666,84.757,98.804,85.047,98.766z"/>
		<path style="fill:#595959;" d="M177.063,111.006c0.913,0.173,1.964,1.417,3.178,0.936c1.655-1.623,2.316-1.012,0.806,0.808
			c-2.01,2.927-5.888,4.38-7.963,7.029c-1.979-1.945-3.674-4.538-5.084-7.78c-0.971-0.492-1.325-1.2-0.946-2.163L177.063,111.006z"
			/>
		<path style="fill:#808080;" d="M91.724,67.693C93.462,64.842,96.426,67.326,96,70c0.323,1.281,0.753,2.659,0,4
			c-1.043,1.589-2.675,2.65-4,4c-0.907,0.667-2.251,1.446-3.558,0.635c-0.758-0.47-0.262-1.809-0.19-2.683
			C87.811,75.098,88.061,74.781,89,75C89.627,72.437,88.995,68.865,91.724,67.693z"/>
		<path style="fill:#484848;" d="M113,98.344c2.45-1.774,6.115,3.445,4.089,5.567c2.652,1.465,2.622,2.495-0.089,3.089
			c-0.907,1.249-3.061,0.245-4,1c-3.104,0.53-4.98,0.553-3.89-2.864c-1.012-0.63-1.985-2.98-1.814-4.019
			C107.364,100.707,113.191,94.67,113,98.344z"/>
		<path style="fill:#505050;" d="M125.021,17.921c0.039,1.091-0.699,2.089-2.215,2.995C119.639,20.424,116.37,20.119,113,20
			c0-0.701-0.989-1.302-1-2c-1.552-0.925-2.885-1.991-4-3.197c-0.065-0.963,1.054-1.025,2.015-0.847l12.688,2.346
			C123.889,16.521,124.63,17.224,125.021,17.921z"/>
		<path style="fill:#696969;" d="M97.21,93.651c1.138,0.161,1.73,1.199,1.855,2.28c-3.546,1.48-2.207,6.923-7.065,6.933
			c-0.559-1.156-1.641-2.039-2.863-3.092c-1.092-0.94-0.66-2.081-0.008-2.822C89.499,93.96,94.811,91.951,97.21,93.651z"/>
		<path style="fill:#7D7D7D;" d="M192.885,103.003c-0.896,0.844-1.812,2.118-2.801,2.937c-1.547-0.028-3.238,0.286-4.895-0.758
			c0.966-2.275,2.338-4.127,2.799-6.182c0.788-0.417,1.649-1.092,1.951-1.996c0.813-0.317,3.533-0.895,3.877-0.64
			C194.121,96.589,194.694,102.758,192.885,103.003z"/>
		<path style="fill:#939393;" d="M88.88,64.118C91.719,68.489,85.462,73.001,89,75c-0.258,0.285-0.512,0.668-0.748,0.953
			l-2.793,3.374C84.951,77.23,84.64,74.9,85,73c0.528-2.788,1.334-5.466,1.524-9.013C87.449,63.754,88.184,64.232,88.88,64.118z"/>
		<path style="fill:#E8E8E8;" d="M195.764,79.801c0.232,0.525,1.047,1.232,1.504,1.591l-2.954,18.177
			c0.026,0.841,1.964,0.324,2.855,0.421c-1.366,1.25-2.428,2.445-4.283,3.013c-0.11-1.728,0.774-3.824-0.251-5.628
			c-0.5-0.879-2.175-0.172-2.694-0.371c-1.209-1.675-0.498-2.69,2.134-3.043c-0.489-2.628-0.18-4.615,0.927-5.961v-7v-1
			C192.419,77.661,194.338,78.579,195.764,79.801z"/>
		<path style="fill:#6D6D6D;" d="M32,45c2.385-1.856,3.839-0.927,3,2c3.491,2.62,4.899,9.413-1.163,6.997
			c-1.695-2.59-3.522-5.106-4.782-7.953C28.762,44.099,30.846,41.469,32,45z"/>
		<path style="fill:#686868;" d="M173.05,61.202c-2.07-1.296-3.861-3.093-6.05-4.202l-2.055-3.055
			c-1.929-2.165-0.553-3.748,2.079-2.648C169.071,53.123,177.312,58.726,173.05,61.202z"/>
		<path style="fill:#7C7C7C;" d="M54.909,83.984c3.845,0.496,7.263,1.501,10.253,3.016c0.034,0.267-0.11,0.75,0.029,0.995
			c0.025,0.874-0.347,1.642-0.939,1.94c0.181-0.091-9.971,0.856-10.59-5.418C53.629,84.181,54.781,84.263,54.909,83.984z"/>
		<path style="fill:#6F6F6F;" d="M80.869,88.593C77.751,88.501,75.071,88.371,78,85c-0.304-1.171,0.072-2.96,0.555-4.017
			c0.41-0.897,3.201-1.754,3.772-0.702C83.901,83.179,83.271,87.33,80.869,88.593z"/>
		<path style="fill:#646464;" d="M146.142,30.005c0.741,1.099,0.943,3.868-0.192,4.916c0.022,0.335,0.007,0.646-0.14,0.872
			c-0.961,1.475-3.596,3.097-4.652,2.8c-0.811-0.228-0.929-8.586-0.638-8.939C140.934,29.151,145.313,29.303,146.142,30.005z"/>
		<path style="fill:#BABABA;" d="M134.089,118.911c1.004,3.538,2.923,5.967,5.756,7.289c0.637,1.17,3.492,1.666,2.236,3.808
			c-1.493-0.569-3.761,0.706-5.081-0.738c-0.602-1.205-1.602-1.295-3-0.27c-0.872,0.306-2.899-0.825-4.1-1.005
			c0.888,0.043,3.453,0.266,3.811-1.312c0.624-2.75-1.069-5.389-1.711-7.682c0.333-0.117,1.582-1.901,1.566-1.908
			C134.046,117.315,134.154,118.701,134.089,118.911z"/>
		<path style="fill:#A8A8A8;" d="M108.339,105.197c0.141-0.621,0.402-0.622,0.772-0.06c1.472,1.044,1.914,3.302,3.89,2.864
			c-0.865,0.695-2.238,0.528-3,1c-3.153,0.883-6.392,1.34-9.643,1.758c-0.605,0.078-1.101-0.937-1.357-1.758
			c-2.688-0.735-3.717-4.616-2-7c1.954,0.891,1.383,3.519,2.742,5.629l7.323-0.281c0.709-0.027,1.424-0.36,1.675-0.691
			C109.011,106.299,108.67,105.696,108.339,105.197z"/>
		<path style="fill:#666666;" d="M117,126c-1.064-0.892-3.521,0.224-4.776-0.688c-1.033-0.751-1.554-1.829-1.427-3.262l-0.558-1.22
			L115,119C116.923,117.281,120.187,127.489,117,126z"/>
		<path style="fill:#666666;" d="M150.929,38.089c0.163,1.643,1.071,1.97,0.382,3.695C150.163,43.258,148.06,42.996,145,41
			c-1.77-2.678-1.447-4.665,2.087-5.793C148.562,35.579,149.369,37.763,150.929,38.089z"/>
		<path style="fill:#686868;" d="M153.992,41.919c0.489,0.599,0.119,2.02,0.558,2.692c2.73,0.931,4.802,2.832,6.47,5.067
			c-1.019,0.578-1.552,0.441-2.02,0.632c-1.309,3.192-5.807,0.851-4-2.152c-2.082-0.856-7.381-6.186-3.689-6.374
			C152.207,41.691,153.107,41.934,153.992,41.919z"/>
		<path style="fill:#C7C7C7;" d="M122,94l1.112,0.812c-0.056,3.192-0.196,6.396-0.422,9.611c-0.542,0.561-0.548,1.143-0.058,1.706
			c-1.369,1.069-3.062,1.324-4.633,1.871c-0.306-0.36-0.637-0.697-1-1l0.089-3.089l0.648-0.898c0.232-3.056,0.32-6.06,0.263-9.013
			C118.002,91.073,121.341,91.197,122,94z"/>
		<path style="fill:#DBDBDB;" d="M31,27.346C32.608,32.494,34.321,39.97,32,45c-0.775-0.454-3.05-0.104-2.945,1.045
			c-0.759-0.523-1.549-1.27-1.997-2.218c0.624-0.02,2.015,0.441,2.679,0.012c1.008-1.717-1.086-15.269-1.331-15.436
			C27.764,27.966,27.003,27.292,26,27C27.678,27.053,29.344,26.944,31,27.346z"/>
		<path style="fill:#DBDBDB;" d="M45,15c-0.679,1.403-1.857,3.722-0.262,5.202c1.2,1.113,2.921,1.377,3.262,2.798
			c-0.839,1.732-2.343,1.909-4.512,0.533c-0.669,5.175-0.818,10.486-0.447,15.933c0,0,0.986,0.387,2.959,1.162
			c3.255,2.756-6.896,9.532-9,6.373c-1.898-0.994-1.596-2.337,0.906-4.03l0.031-15.75C35.227,28.282,33.582,27.875,33,26
			c2.219-2.506,6.044-2.925,9.116-5.103C44.456,19.238,42.514,15.652,41,14c0.792,0.075,1.015-0.905,1.013-1.943L42,2h1
			l-0.06,11.108C42.933,14.471,44.175,15.015,45,15z"/>
		<path style="fill:#CECECE;" d="M144.609,28.732c0.388,0.507,1.169,0.734,1.533,1.273c-1.54,0.037-3.047-0.217-5.102,0.108
			c-0.049,2.819-0.288,4.909,0.213,8.073c1.266-1.899,3.408-2.074,4.698-3.265l1.136,0.286c-1.373,1.289-2.943,3.863-2.087,5.793
			c-0.284,0.873-0.618,0.86-1,0c-1.579,0.743-1.358-1.894-1.215-1.912c0.119-0.014,1.074,1.676-0.785-0.088h-2
			c-3.127-0.57-2.988-9.161,0-10C141.533,28.881,143.082,28.971,144.609,28.732z"/>
		<path style="fill:#6C6C6C;" d="M80.601,89.635c1.659,1.247,1.827,4.069,0.578,3.887c-2.822-0.41-5.518-0.067-7.029-1.985
			c-0.316-0.344-0.424-0.817-0.144-1.199C76.399,87.073,78.235,86.439,80.601,89.635z"/>
		<path style="fill:#404040;" d="M110,109c-0.755,0.467-12.981,6.231-11,2c-1.571-0.882-2.029-2.019,0-2H110z"/>
		<path style="fill:#D4D4D4;" d="M72,94c-0.739,2.574-1.689,5.372-0.323,7.835c-0.227,0.002-0.591-0.059-0.782,0.05
			c-2.243,1.269-3.99,3.605-2.795,6.123c-1.627-1.212-1.799-3.201-2.808-4.811c5.974,0.458,3.48-8.569,5.709-9.197
			C71.323,93.95,71.684,94.079,72,94z"/>
		<path style="fill:#BFBFBF;" d="M130,17.85c-0.79,0.268-1.503,0.729-2,1.407c-0.697,1.978-2.634,4.746-5.004,3.743l-7.275-0.026
			L114,21c-0.3,0.492-0.635,0.477-1,0v-1c4.006-0.288,8.709,0.444,12.021-2.079C126.715,16.631,128.208,17.169,130,17.85z"/>
		<path style="fill:#6E6E6E;" d="M39.643,55c0.401,2.319,1.154,4.638,2.26,6.957C40.902,62.453,39.935,62.8,39,63
			c-0.727-2.585-2.387-4.761-3.85-6.997C33.807,54.599,38.335,52.953,39,54C40.533,52.81,40.959,53.455,39.643,55z"/>
		<path style="fill:#C2C2C2;" d="M83,9c-0.438,0.677-0.07,1.344,1.104,2c-0.144,1.364,0.237,2.793,0.964,3.932
			C84.772,17.676,80.312,18.296,79,16c0.488-1.346,1.861-1.742,3.476-2.886c-1.554-1.88-2.935-2.721-3.51-4.309
			C80.257,8.398,82.215,7.15,83,9z"/>
		<path style="fill:#929292;" d="M84.874,90.885c-0.47,0.817,0.149,0.789,0.624,0.782c0.65-0.009,1.111,0.07,1.502-0.018
			c2.648,0.779,2.782,1.497,0.614,3.186l-0.908,1.924c-1.445,0.186-3.138-1.529-3.359-3.126
			C83.203,92.598,82.583,89.751,84.874,90.885z"/>
		<path style="fill:#878787;" d="M166.026,50.097c0.049,0.386,0.741,0.921,0.997,1.199l-2.079,2.648
			c-0.78,0.431-1.482,1.04-2.888,1.048c-0.098-2.217-0.141-3.792,0.023-6.029C163.861,48.845,164.739,49.978,166.026,50.097z"/>
		<path style="fill:#696969;" d="M48.092,76.609c-0.855-2.042-2.257-3.679-2.961-5.782c1.384-0.638,3.053-0.703,4.702,0.288
			C50.165,73.43,49.549,75.388,48.092,76.609z"/>
		<path style="fill:#8E8E8E;" d="M163.751,47.806c-3.517,1.055-5.553-4.12-8.517-5.908
			C156.347,38.175,163.152,46.905,163.751,47.806z"/>
		<path style="fill:#808080;" d="M108,120c2.279,0.034,3.212,0.717,2.797,2.049c-0.674,1.498-1.499,3.001-3.1,2.646
			c-1.281-0.284-3.599-0.808-3.13-2.183c0.231-0.678,2.645-0.682,1.432-1.565C106.182,119.908,107.176,120.118,108,120z"/>
		<path style="fill:#E0E0E0;" d="M48,62.951c-0.46,2.286-2.338,2.807-5.636,1.562l-1.255,0.808C40.47,64.666,39.285,64.015,39,63
			c2.183-1.905,0.646-5.349,0.643-8c-0.049-1.981,0.814-1.945,1.357,0c1.6,0.398,2.235,1.735,1.906,4.014
			C46.202,59.521,47.9,60.833,48,62.951z"/>
		<path style="fill:#494949;" d="M99,109c-0.387,0.531-0.703,1.393,0,2c-2.143-0.189-2.641-2.515-3.483-3.952
			c-1.583-2.7-0.002-3.494,1.483-5.048C96.777,104.385,98.185,106.871,99,109z"/>
		<path style="fill:#C3C3C3;" d="M118,118c-1.31,2.92,0.683,6.826,3,8.848c-1.711-0.104-2.586,0.337-4-0.848
			c1.898-1.919-0.541-5.227-2-7c-0.681-0.828-0.552-2.105-1-3C115.207,116.912,116.453,117.858,118,118z"/>
		<path style="fill:#C9C9C9;" d="M80.869,88.593c-0.234,0.159-0.178,0.769-0.268,1.042c-1.02-0.916-2.437-0.955-3.873-0.572
			c-1.105,0.294-2.558,0.994-2.578,2.475c-0.235-0.298-0.525-0.546-0.869-0.711c0.683-2.23,3.656-3.181,3.682-5.824L78,85
			C77.51,87.041,79.24,87.895,80.869,88.593z"/>
		<path style="fill:#919191;" d="M191.669,75.79c1.496,1.239,3.273,2.147,4.094,4.01L193,80c-1.502-1.754-3.682-2.588-5.108-4.793
			C189.684,74.578,190.537,75.766,191.669,75.79z"/>
		<path style="fill:#5A5A5A;" d="M102.724,121.357c0.341,1.437-0.401,2.335-1.261,2.225c-1.616-0.206-3.094-0.406-3.534-1.417
			c-0.686-1.571,1.167-2.25,1.385-3.058C100.461,119.888,101.242,121.291,102.724,121.357z"/>
		<path style="fill:#B4B4B4;" d="M173.084,119.78l-1.092,1.394c-1.042-3.198-3.552-5.785-3.992-9.173
			C170.592,114.074,171.277,117.087,173.084,119.78z"/>
		<path style="fill:#828282;" d="M179,65.1l-4.063-3.006c-0.187-1.24-0.425-1.88,0.549-3.088l5.595,5.613
			C180.069,65.318,179.471,64.911,179,65.1z"/>
		<path style="fill:#9E9E9E;" d="M150.929,38.089c-0.224-2.26-1.938-2.786-2.95-5.899c3.56,1.641,4.776,5.34,8.25,7.46
			C153.188,40.691,152.656,38.449,150.929,38.089z"/>
		<path style="fill:#525252;" d="M182.992,112.031c-0.649,0.235-1.312,0.442-1.945,0.719c0.456-0.65-0.314-1.003-0.806-0.808
			c-0.019-1.049-0.507-1.869-0.03-3.944C181.966,108.958,183.276,110.221,182.992,112.031z"/>
		<path style="fill:#7B7B7B;" d="M189.037,72.974c-2.19-0.108-3.834-1.421-5.204-3.094c-0.148-0.536,0.352-1.176,1.181-0.94
			C186.945,69.865,188.114,71.541,189.037,72.974z"/>
		<path style="fill:#6A6A6A;" d="M188,107c-0.233,1.027-1.44,1.339-1.969,2.037c-1.062-0.186-2.664,0.739-3.471-1.358
			C184.508,106.346,186.304,107.241,188,107z"/>
		<path style="fill:#D5D5D5;" d="M37,47c2.8-1.253,4.678,5.754,2,7c-1.193,0.837-3.331,0.487-3.85,2.003l-1.312-2.005
			c1.047,0.358,4.201-0.267,3.822-1.47C36.951,50.283,35.656,48.69,35,47C35.319,44.344,36.239,44.459,37,47z"/>
		<path style="fill:#4A4A4A;" d="M137,129.27c-0.732,0.029-2.308-0.513-3-0.27c0.184-0.543,0.438-1.177,0.933-1.527
			c0.568-0.402,1.29,0.168,2.654,0.378C139.831,128.254,138.58,129.148,137,129.27z"/>
		<path style="fill:#C7C7C7;" d="M113,114c-1.335-0.467-2.051-1.718-2.126-3.094L112,110L113,114z"/>
		<path style="fill:#676767;" d="M83,9c0.292,0.688,1.213,0.977,1.104,2c-1.502,0.396-2.632-0.675-2.981-1.548
			C80.906,8.907,82.614,8.895,83,9z"/>
		<path style="fill:#6F6F6F;" d="M37,47h-2c-0.751-0.75-2.067-1.454-3-2c-1.761-2.454-0.591-5.717-1.09-8.941
			c-0.489-3.157-1.979-6.333,0.09-8.713c0.744,0.181,1.558-0.931,2-1.346c2.135,0.269,3.685-0.923,6.742-2.39
			c0.45,6.527,0.342,12.669,0.142,19.363C39.83,44.773,37.21,45.524,37,47z"/>
		<path style="fill:#DCDCDC;" d="M32,10c-1.954,0.134-3.804-0.438-5-2C28.904,7.884,30.868,8.385,32,10z"/>
		<path style="fill:#DCDCDC;" d="M39,13c-1.913,0.111-3.845-0.409-5-2C35.875,10.917,37.9,11.37,39,13z"/>
		<path style="fill:#FCFCFC;" d="M26,27c-1.553-0.451-3.412,0.328-5,0C20.321,25.803,24.975,25.335,26,27z"/>
		<path style="fill:#5C5C5C;" d="M122.996,23L118,36c-0.007,3.089-1.34,4.755-4,5c1.523,2.372,0.093,2.973-1.853,1.1
			C111.101,42,110.05,41.961,109,42c-2.209-1.154-4.579-1.971-7.11-2.451L102,37l-2-5c-2.999-0.18-2.996-1.695,0.034-2.026
			c0.57-0.591,1.21-1.619,1.966-1.974l5-3c0.699-0.064,1.305-0.887,2-1l5-3c3.581,0.088,8.189-0.952,8.831,0.46
			C123.002,21.835,123.058,22.514,122.996,23z"/>
		<path style="fill:#6B6B6B;" d="M85.068,14.932C85.522,14.908,85.858,15.663,86,16l4,3c2.301-0.717,3.301,0.617,3,4
			c0.534,0.518,0.74,1.295,0.864,2c1.196,0.612,1.375,1.562,0.31,2.4C88.292,28.286,82.568,29.486,77,31
			c-1.833-0.053-4.783-1.951-3.99-4.094c-1.311-1.27-1.033-3.302,0.835-6.094C71.418,19.38,72.419,18.203,75,19
			c0.868-1.361,2.471-2.339,4-3C80.869,15.193,83.081,15.038,85.068,14.932z"/>
		<path style="fill:#636363;" d="M146,64c0.084,0.655-0.019,1.34,0,2c0.399,1.296,0.407,2.938,0.022,4.924
			c-4.576,0.695-9.066,1.435-13.47,2.22c-2.519-0.304-3.344-1.579-3.394-4.021c-1.44-1.672-1.334-2.333,0.843-3.123
			c-0.379-2.415,0.288-3.415,2-3c-0.24-0.907,0.093-1.24,1-1l1.508-1.721c4.035,0.756,7.885,1.217,11.549,1.382L146,64z"/>
		<path style="fill:#666666;" d="M119,41l7,3c1.465-2.122,2.163-1.554,2,1c2.204-0.609,2.606,0.9,3,3
			c-0.993,1.228-2.652,4.532-4.853,4.258c-4.377-0.544-7.906-3.963-12.313-5.052c-1.559-0.385-3.005-1.032-2.855-2.652
			c0.071-0.774,0.542-1.736,1.168-2.454L114,41C116.66,38.77,118.327,38.77,119,41z"/>
		<path style="fill:#5D5D5D;" d="M84.202,63.073C82.464,64.603,79.126,66.581,78,64l-5-2c-3.279-0.868-11.256-4.975-4.994-6.506
			c0.275-0.067,0.635,0.213,1.019,0.593C72.74,54.873,76.398,53.844,80,53c0.783-0.303,2.407,0.002,2.878,0.612
			C83.324,54.192,86.864,61.43,84.202,63.073z"/>
		<path style="fill:#3D3D3D;" d="M113,57c2.093-2.863,5.116-1.343,4,2c2.317-0.347,1.077,2.651,0,4c0,1.386,0.565,5.148-1.859,4.946
			C110.317,67.543,106.164,65.099,102,64c-1.441,0.622,0.36-3.843,0.537-4.056c0.19-0.229,0.77-0.133,1.463,0.056l5-4
			C110.198,54.63,111.937,55.847,113,57z"/>
		<path style="fill:#494949;" d="M152,48c-0.101,3.174-0.732,8.206-3,10c1.274,1.542,0.707,2.075-1,1c-2.111,2.482-2.739,2.128-3-1
			l-2-5c-0.463-3.275,0.383-9.046,1-12h1c3.237,1.085,7.094,2.744,8.201,6.313C153.231,47.409,152.696,47.679,152,48z"/>
		<path style="fill:#606060;" d="M147.142,72.843C148.789,71.83,149.18,72.432,148,74c0.074,2.899-2.704,9.764-6.063,8.031
			c-1.496,1.383-3.912,1.28-5.29-0.751c-0.678-0.999-1.84-1.647-2.4-2.22c-0.157-1.794-2.877-3.115-1.575-4.992
			c4.124-1.835,8.623-2.917,13.497-3.247L147.142,72.843z"/>
		<path style="fill:#505050;" d="M106.921,49L109,54c1.56,1.116,2.044,1.646,0,2l-5,4c-0.558,0.531-1.013,0.928-1.107,0.855
			c-0.669-0.514-6.671-6.287-6.685-6.764L98,52c-2.27-1.507-1.64-2.683,1-3c-0.627-1.742,0.296-3.139,2.772-4.191
			C104.442,44.748,105.132,47.513,106.921,49z"/>
		<path style="fill:#505050;" d="M100.034,29.974C99.033,31.012,100.049,31.276,100,32l2,5c1.976,1.64,1.31,2.974-2,4
			c-4.168-1.423-8.663-2.927-11.79-5.845c-0.856-2.578,3.216-6.391,5.837-6.129c-0.061-1.875,0.771-2.197,1.99-0.772
			C97.007,29.454,98.553,29.821,100.034,29.974z"/>
		<path style="fill:#646464;" d="M68.941,43.984c0.927,1.013,2.217,1.073,4.099,1.107c-0.205,1.68-1.645,2.326-1.875,3.535
			C70.438,50.325,69.383,51.45,68,52c-0.238,3.497-0.993,6.101-4.126,3.163c-2.523,1.955-4.269-0.228-2.874-2.929
			c-1.342-2.504-0.809-5.651,1.114-8.128L68.941,43.984z"/>
		<path style="fill:#616161;" d="M143,53l2,5c1.726,0.464,1.418,2.737,0.287,3.669c-0.442,0.364-9.893-0.829-11.208-1.221
			c-0.156-0.047-0.142-0.665-0.079-1.447c-2.379,0.509-2.385-0.101-1-2c-1.104-1.239-1.698-2.559-1.78-3.961
			C134.665,51.2,139.414,51.461,143,53z"/>
		<path style="fill:#3E3E3E;" d="M127.803,74.835c1.674-0.593,3.519,2.329,2.724,3.987c0.384,1.009,0.265,2.204,0.545,3.238
			c-0.841,1.759-1.865,3.073-3.073,3.941c1.541,2.562,0.757,3.395-1.887,2c-0.205,2.772-0.909,2.772-2.113,0
			c-1.405,1.325-1.92,0.767-1-1c-3.974-0.155-4.503-8.985-1.089-10.01l4.325-3.121C126.734,74.137,127.473,74.33,127.803,74.835z"/>
		<path style="fill:#404040;" d="M123.092,58.21c0.736,2.997-1.661,3.342-3.092,0.79c-1.474,1.893-2.115,2.52-3,0
			c-0.936-1.311-2.446-1.855-4-2c-1.603-0.707-1.937-1.374-1-2c-0.87-2.297,0.228-5.253,3-4c3.755-1.791,7.827,1.492,11.484,3.574
			C124.996,56.788,124.028,57.21,123.092,58.21z"/>
		<path style="fill:#858585;" d="M80,52c-1.596,1.647-12.503,5.161-13.133,3.876c-0.6-1.223,0.248-2.097,1.236-2.787l3.063-4.463
			c2.365-2.142,3.808-4.939,7.2-2.516C80.023,47.294,83.962,51.445,80,52z"/>
		<path style="fill:#3A3A3A;" d="M126.297,72.955c-1.144,1.577-2.606,2.922-4.385,4.035c-1.258,4.208-8.524,4.232-9.998,0.285
			c0.838-1.502,0.934-4.584,2.95-5.378c3.108-1.439,6.548-2.068,10.318-1.887C125.839,70.856,126.244,71.88,126.297,72.955z"/>
		<path style="fill:#7F7F7F;" d="M95,88c0.889-1.75,1.751-1.6,2,0.346c2.748-1.781,4.845,1.707,1.984,3.512
			c-0.903,0.154-1.151,1.392-1.774,1.793c-2.491,1.602-5.254,2.505-8.081,3.299c-0.571-0.621-1.218-1.303-1.514-2.115
			c-0.371-1.017-0.411-2.133-0.614-3.186C89.883,90.998,92.293,89.148,95,88z"/>
		<path style="fill:#535353;" d="M133.031,48.028c2.974-0.846,6.016-8.61,9.722-5.437c-0.339,2.943-1.235,5.422-0.676,8.372
			l-11.174-0.079C131.567,49.484,133.069,49.24,133.031,48.028z"/>
		<path style="fill:#515151;" d="M101.772,44.809C100.328,46.633,96.057,47.653,95,46c-1.496,2.99-4.661,1.528-4-1.774
			c-1.647,0.124-2.47,0.187-2.47,0.187C87.019,41.731,86.175,39.26,86,37C87.848,37.7,102.502,43.009,101.772,44.809z"/>
		<path style="fill:#707070;" d="M94.047,29.026c-1.599,2.302-3.296,4.854-5.837,6.129C85.116,34.388,81.092,33.557,78,32
			c-0.242-0.368-0.416-0.669-0.351-0.735c0.996-1.016,13.897-3.876,16.551-4.386C95.104,26.705,95.171,28.11,94.047,29.026z"/>
		<path style="fill:#4B4B4B;" d="M84.142,35.995c3.169,3.886,5.23,8.352,3.232,13.268c-0.145,0.356-1.694-0.288-2.355-1.003
			c-1.222,2.064-2.225,0.815-2.063-1.302c-1.245-1.985-0.613-4.196-0.932-7.209c-1.894,0.741-0.486,2.422-1.337,4.402
			c-1.416-1.848-1.599-3.991-1.033-5.983c-2.185-1.774-1.695-3.848,1.168-2.302c0.452,1.055,1.646,1.815,1.355,3.331
			C83.732,37.81,83.072,36.409,84.142,35.995z"/>
		<path style="fill:#5A5A5A;" d="M129.898,53.1c1.3,0.873,2.334,2.173,3.102,3.9c0.517,0.521,1.031,1.223,1,2
			c1.8,0.864,1.467,1.864-1,3c-0.292,0.373-0.629,0.707-1,1c-0.645,1.618-1.979,1.284-4-1c-0.801,0.611-1.184,0.284-1.218-0.824
			C125.77,58.485,126.443,52.587,129.898,53.1z"/>
		<path style="fill:#4A4A4A;" d="M116.801,86.88L113,90c-0.538,0.71-1.538,0.376-3-1c-0.752-0.144-1.3-0.55-1.976-0.808
			l-0.081-1.415c-0.51-2.207,1.764-6.197,4.058-6.399c0.158-2.346,3.418-1.104,4.854,0.457
			C118.29,82.396,119.416,86.12,116.801,86.88z"/>
		<path style="fill:#4E4E4E;" d="M99,61.808c-1.745-1.162-4.667-2.137-6.892-1.917C89.289,57.807,88.586,56.176,90,55
			c-0.096-1.077,0.944-1.235,3.119-0.475c4.055-0.586,4.43-0.367,6.709,2.961C104.311,59.728,103.001,65.186,99,61.808z"/>
		<path style="fill:#5E5E5E;" d="M72.943,41c-0.042,0.792,0.32,2.539-0.499,2.61c-0.901,0.078-2.901,0.81-3.503,0.374
			c-1.612-1.168-4.767-0.947-7.221-1.776l3.19-3.185l5.77-3.462L72.943,41z"/>
		<path style="fill:#6F6F6F;" d="M98.984,91.858c-0.041-1.44-1.078-2.47-1.984-3.512c-1.349-0.414-1.074-4.572,1-4.382
			c2.328,0.043,3.983-1.411,7.395-0.753C103.589,86.705,102.535,91.252,98.984,91.858z"/>
		<path style="fill:#515151;" d="M115,51c-1.251,1.223-1.202,3.475-3,4c-0.669,1.297-2.962,0.472-3-1l-2.079-5
			c0.059-0.725-0.29-2.533,0.594-2.924C107.361,46.144,115.734,48.626,115,51z"/>
		<path style="fill:#666666;" d="M101.11,73.118c1.611-0.729,4.293-2.722,6.011-1.955c1.296,0.578,4.236,2.686,3.379,3.841
			c-1.516,2.043-4.766,3.472-5.951,2.1L101.11,73.118z"/>
		<path style="fill:#D0D0D0;" d="M68.102,53.089c0.005,0.37-0.292,1.107,0.216,2.05C72.445,54.385,76.509,53.686,80,52v1
			l-13.457,5.204C69.328,60.384,71.81,59.969,73,62c-0.934,3.582-5.592,0.567-7.801-0.997c-2.747-0.326-3.516-4.313-1.325-5.84
			C65.581,54.982,67.206,53.584,68,52C68.856,52.237,68.876,52.602,68.102,53.089z"/>
		<path style="fill:#AEAEAE;" d="M86,37c0.668,3.042,2.865,5.086,5,7.226c-0.946,2.183-0.725,4.911,1.084,6.811
			c1.288,1.437,0.72,1.935-1.016,0.963c0.477,2.155-0.763,2.484-2.068,1c-1.523,1.604-4.224,1.143-5-1
			c-0.256-0.484-0.683-0.895-0.89-1.404c0.447-0.873,1.083-1.652,1.908-2.336c4.981-1.371,0.103-9.596-0.877-12.265
			C85.033,35.65,85.403,36.774,86,37z"/>
		<path style="fill:#D2D2D2;" d="M84.194,63.916c-4.568,2.34-8.593,6.346-11.827,11.02C73.46,77.767,76.587,77.745,77,80
			c-2.945-0.968-5.079-2.866-8-1l-0.679-2.314C69.676,75.659,70.569,74.097,71,72c1.396-2.957,3.729-5.624,7-8
			c2.115,0.054,4.276,0.078,6.202-0.927C84.267,63.325,84.078,63.689,84.194,63.916z"/>
		<path style="fill:#CBCBCB;" d="M138,28c-0.695,2.378-1.944,1.808-3.793,0.864C133.474,34.922,133.072,40.967,133,47l0.031,1.028
			c-0.571,0.245-1.417-0.179-2.031-0.028c-1.196-0.782-1.926-2.092-3-3c0.608-1.522,0.574-2.017-0.101-1.484l1.274-19.142L131,23
			C132.827,25.279,136.629,25.233,138,28z"/>
		<path style="fill:#474747;" d="M123.092,58.21c0.408,0.065,1.124-0.288,1.695-0.098c0.33,4.479-3.054,6.149-5.7,8.762
			c-1.131-0.735-1.409-2.609-1.066-3.874c-0.901-1.689-0.08-3.665,1.979-4C120.933,58.611,122.289,58.851,123.092,58.21z"/>
		<path style="fill:#8D8D8D;" d="M104.787,68.949c-1.55,1.496-4.524,3.148-6.19,1.643c-1.378-1.245-0.879-3.869-1.935-5.719
			C100.382,64.961,102.665,66.579,104.787,68.949z"/>
		<path style="fill:#6D6D6D;" d="M72.943,41c-2.606-3.633-2.92-5.966-0.943-7c0.04-0.33-0.021-0.668,0-1
			c-1.526-1.64-1.427-2.009,0.874-2.013c3.282,3.05,3.71,8.03,2.777,12.666C73.871,43.283,73.553,41.894,72.943,41z"/>
		<path style="fill:#BEBEBE;" d="M98,52c-0.289,3.525,3.242,6.099,6,8l-2,4c-0.662-0.175-1.569,0.32-2.311-0.156
			c-0.63-0.404-0.437-1.51-0.689-2.035c0.665-0.019,1.504,0.357,2.469,0.163c0.835-0.168,0.773-1.427,0.085-1.999
			C96.155,55.49,99.335,54.646,90,55c-2.587,0.542-2.618,0.1-1-2c0.695-0.32,1.532-0.491,2.068-1C93.085,52.13,95.395,52.13,98,52z"
			/>
		<path style="fill:#B2B2B2;" d="M147.142,72.843c-3.232-2.461-10.477,0.581-14.47,1.226c0.086-0.222-0.174-0.662-0.121-0.924
			c1.826-2.198,10.995-1.26,12.748-3.418c0.748-0.921,0.738-2.466,0.701-3.727h1C149.278,67.06,149.455,71.746,147.142,72.843z"/>
		<path style="fill:#C8C8C8;" d="M96.037,28.255c-0.598,0.403-1.278,0.657-1.99,0.772C96.465,26.417,76.72,31.416,78,32
			c-0.397-0.2-0.633-0.75-1-1c0.525-1.805,17.844-3.446,16.864-6C95.312,25.441,96.226,26.743,96.037,28.255z"/>
		<path style="fill:#5C5C5C;" d="M128,62c2.602,0.968,3.269,2.301,2,4c0.081,1.121,0.204,2.415-0.843,3.123
			c-1.699-0.737-3.029-2.154-3.824-4.003c-0.612-1.424-0.516-3.382,1.449-3.944C127.161,61.489,127.568,61.766,128,62z"/>
		<path style="fill:#898989;" d="M69.703,26.097c1.776-0.476,2.248,0.238,1.113,1.685l0.205,1.677
			c0.878,2.625-2.274,3.179-4.079,1.79c-0.797-0.137-1.744-0.579-1.68-1.77c0.954-1.843,1.33-3.341,2.023-5.562L69.703,26.097z"/>
		<path style="fill:#545454;" d="M125.152,69.016c-2.136,1.378-7.317,2.442-9.192,0.945l3.126-3.087
			c1.385,0.901,2.692-1.095,4.255-1.207C124.75,65.565,125.74,67.91,125.152,69.016z"/>
		<path style="fill:#474747;" d="M112,80.378c-1.191,2.236-2.423,4.463-4.058,6.399c-5.267,2.11,3.508-10.246,3.971-9.501
			C114.108,78.783,114.137,79.817,112,80.378z"/>
		<path style="fill:#565656;" d="M89,53c0.067,0.678,1.05,1.329,1,2c0.972,2.082-0.07,3.051-3.126,2.907
			C85.233,56.317,83.877,54.433,84,52C85.758,51.686,87.744,51.545,89,53z"/>
		<path style="fill:#656565;" d="M108.95,43.1c4.055,4.552-8.087-1.279-7.95-2.1C101.934,37.124,107.052,40.94,108.95,43.1z"/>
		<path style="fill:#696969;" d="M96,70c-1.299-0.99-2.691-1.866-4.276-2.307c-0.685-1.417-0.078-2.338,0.801-2.785
			c2.221-1.128,2.937-0.113,3.951,1.71C97.331,68.156,96.195,69.183,96,70z"/>
		<path style="fill:#898989;" d="M72.874,30.987c0.04,0.776-0.297,1.5-0.874,2.013l-7.083-0.179
			c0.606-0.942,1.501-0.967,2.025-1.572c1.473-0.294,3.009-0.68,4.079-1.79C72.024,29.471,72.29,30.445,72.874,30.987z"/>
		<path style="fill:#848484;" d="M113.391,69.689c0.3,2.32-1.892,3.311-2.971,2.332c-1.216-1.104-3.378-2.614-1.164-3.726
			C110.165,67.838,113.086,68.716,113.391,69.689z"/>
		<path style="fill:#6A6A6A;" d="M80.822,35.866c-1.105,0.155-0.935,1.483-1.168,2.302c-1.707,1.829-2.434-3.046-3.71-5.046
			C78.725,32.832,80.051,34.069,80.822,35.866z"/>
		<path style="fill:#555555;" d="M133.045,78.987c-0.824,0.331-1.693,0.052-2.517-0.165c-0.576-1.513-1.849-2.648-2.724-3.987
			c-0.178-1.068-1.291-2.142-0.262-3.554C129.887,73.635,131.146,76.506,133.045,78.987z"/>
		<path style="fill:#C5C5C5;" d="M73.01,26.906c-0.42-0.069-0.903,0.061-1.552,0.021c-0.625-0.039-1.153-0.056-0.643,0.856
			c-0.513-0.456-0.896-1.034-1.113-1.685L70,23.858c-0.029-2.485,1.371-3.807,3.845-3.047C74.551,23.048,73.74,24.935,73.01,26.906z
			"/>
		<path style="fill:#C2C2C2;" d="M109,42l-0.05,1.1c-2.634-1.186-5.323-4.136-7.95-2.1c-0.278-0.029-0.73,0.092-1,0
			c0.875-1.223,1.935-2.435,2-4C103.876,39.301,106.738,39.983,109,42z"/>
		<path style="fill:#A4A4A4;" d="M125.152,69.016c-0.139,0.261,0.11,0.705,0.029,0.995c-3.226,1.567-6.955,0.729-10.318,1.887
			c0.278-0.594,0.564-1.41,1.097-1.937C119.073,70.499,122.049,69.26,125.152,69.016z"/>
		<path style="fill:#666666;" d="M85.018,48.26c0.108,0.834,1.191,0.785,1.936,2.093c-1.322,0.644-2.605,0.022-3.844,0.243
			c-0.476-1.173-0.848-2.501-0.155-3.638C83.172,47.915,84.075,48.416,85.018,48.26z"/>
		<path style="fill:#919191;" d="M88.88,64.118l-1.972-3.036c2.7,0.131,4.712,0.916,6.219,2.577
			C91.285,64.342,90.085,63.922,88.88,64.118z"/>
		<path style="fill:#606060;" d="M92.108,59.892c-1.065,0.106-1.653,1.22-2.994,0.657c-1.603-0.673-1.675-1.65-2.24-2.641
			C88.662,56.298,90.407,56.96,92.108,59.892z"/>
		<path style="fill:#6D6D6D;" d="M104.249,81.112c-0.204,0.69-1.026,1.022-1.581,0.922c-0.328-0.059-0.322,0.056-1.011-0.629
			c-0.378-0.376,1.359-2.458,2.663-2.482c0.285-0.005,0.216,0.333,0.719,0.88C105.314,80.103,104.852,80.217,104.249,81.112z"/>
		<path style="fill:#A2A2A2;" d="M120,59c-0.493,1.383-1.592,2.577-1.979,4H117v-4C117.925,58.748,119.12,59.367,120,59z"/>
		<path style="fill:#797979;" d="M78.357,45.504c-2.415-1.472-1.448-3.478-0.911-5.599C77.741,41.548,79.676,43.09,78.357,45.504z"
			/>
		<path style="fill:#ADADAD;" d="M126.236,73.869c-0.825,1.973-2.404,2.779-4.325,3.121c0.205-1.81,3.066-3.211,4.385-4.035
			C126.31,73.225,126.339,73.622,126.236,73.869z"/>
		<path style="fill:#BABABA;" d="M133,57c-1.653-0.67-2.286-2.424-3.102-3.9c0.341,0.051,1.026,0.098,1.323-0.06
			C132.439,53.971,132.757,55.547,133,57z"/>
		<path style="fill:#868686;" d="M104.787,68.949c0.293-1.414,0.576-2.355,1.687-1.964c0.654,0.23,0.498,0.807,0.553,1.488
			c0.043,0.531,0.166,1.848-1.024,1.191C105.679,69.485,105.244,69.146,104.787,68.949z"/>
		<path style="fill:#424242;" d="M159.01,98c-0.254,2.369-0.716,4.543-1.386,6.522c-0.908,0.588-12.303,2.486-13.624,1.478
			c-0.403,1.924-0.967,1.55-2,0c-2.449,0.774-2.783,0.108-1-2l-1.063-5.063c-0.274-2.416,0.201-3.697,1.776-4.791
			c1.195-0.83,2.488-1.04,4.51-0.456c3.34,0.965,10.467-0.615,11.977,1.397C158.838,95.939,158.881,97.045,159.01,98z"/>
		<path style="fill:#414141;" d="M150,75c2.491-1.88,4.547,0.214,3,3l7,6c0.701-0.034,1.034,0.299,1,1
			c-0.25,2.858,2.934,5.349-0.908,6.969c-1.954,0.529-2.985,0.206-3.092-0.969l-12.345-4.444c-0.521,1.259-1.415,0.449-2.681-2.43
			c-0.064-0.678,0.092-1.416-0.037-2.094c3.925-4.249,2.823-6.702,6.063-8.031C149.163,72.326,150.073,72.91,150,75z"/>
		<path style="fill:#414141;" d="M168.78,98.979l4.1,4.06c-1.166,2.109-3.38,3.627-6.644,4.554c0.386,1.622-0.693,1.758-3.235,0.407
			c-1.274-0.115-2.506-0.119-3.697-0.012L159,106l-1.999-1.065c1.102-2.001,1.772-4.313,2.009-6.935
			c0.575-0.155,1.121-1.716,2.051-1.674C163.763,96.449,167.008,97.224,168.78,98.979z"/>
		<path style="fill:#838383;" d="M164.081,68c0.304,0.212,0.991,0.378,1.118,0.777l4.94,4.157c0.412,0,1.265-0.018,0.926,0.688
			l0.772,1.095L168,84c0.173,1.947-0.16,2.947-1,3c-0.825,0.652-2.601,1.495-3.919,0.754C164.079,84.181,160.485,65.355,164.081,68z
			"/>
		<path style="fill:#454545;" d="M161,57c-0.167,2.569,0.402,4.45-0.268,8.086C155.995,64.045,149.889,66.704,146,64
			c-2.879-1.488-0.382-5.058,2-5c0.279-0.345,0.816-0.593,1-1c1.4-2.24,2.15-2.423,2.252-0.55l9.028-1.402L161,57z"/>
		<path style="fill:#595959;" d="M157,122l-5,3l-5,2.874c-4.285,0.154-5.066-3.539-7-5.874c0.784-2.329,1.71-2.898,2.779-1.706
			l15.528-3.11C159.378,121.036,158.942,122.641,157,122z"/>
		<path style="fill:#5D5D5D;" d="M142,106l1.165,0.404c0.389,3.176,0,6.375-1.165,9.596l-0.703,3.375
			c1.199,0.428,0.767,1.303-1.297,2.625c-2.495-3.012-6.993-5.384-7.152-9.927c2.457-2.169,3.828-4.316,4.116-6.441
			C139.277,105.272,140.956,105.394,142,106z"/>
		<path style="fill:#747474;" d="M167.171,89.136c0.029-0.371,0.09-0.765,0.073-1.136c0.054-1.49,1.306-2.49,3.756-3l9.919-5.045
			c2.031-0.181,2.663,1.665,3.055,2.918c0.444,1.42,1.074,3.889-0.816,4.33C175.99,88.876,168.54,92.082,167.171,89.136z"/>
		<path style="fill:#686868;" d="M161,85c-0.344-0.318-0.709-0.63-1-1l-7-6c-0.882-1.12-1.729-2.318-3-3
			c-1.871-1.963-0.513-3.482,4.073-4.556c2.078-2.594,4.094-3.456,6.047-2.586C161.338,73.423,161.485,79.457,161,85z"/>
		<path style="fill:#575757;" d="M126,93c1.96-2.384,7.738,1.405,6.759,4.241c-1.304,3.979-6.198,6.015-10.068,7.181
			c-2.994-2.37-2.006-7.176-0.69-10.423c-0.412-2.599,0.29-2.747,2.079-0.829C125.289,91.34,125.929,91.283,126,93z"/>
		<path style="fill:#454545;" d="M160.121,67.858l-4.532,3.937c-1.73,1.503-4.611,0.899-5.588,3.205c-0.652-0.35-1.371-0.611-2-1
			c-0.381-0.235-0.494-0.88-0.858-1.157c-0.65-2.235-0.803-4.595-0.142-6.843c4.416,0,8.861-0.228,13.757,0.144
			C161.118,66.692,160.395,67.606,160.121,67.858z"/>
		<path style="fill:#6D6D6D;" d="M125,117c-3.938,0.075-4.604-1.925-2-6c-0.05-0.95,0.783-2.021,0.664-3.047
			c0.573-0.369,0.868-0.82,1.909-2.002c1.851,3.928,5.735,6.173,7.24,11.505L125,117z"/>
		<path style="fill:#414141;" d="M155,48.157c0.885,1.474,2.494,1.736,4,2.152c2.047,0.566,2.309,2.885,2,4.69
			c-0.137,1.505-10.858,2.87-10.952,2.291c-0.144-0.887,2.266-8.062,2.952-9.291C152.942,46.924,153.609,46.977,155,48.157z"/>
		<path style="fill:#535353;" d="M130,86c3.839,0.081,4.022,4.557,4.113,7.766c0.195,0.865,0.914,1.924,0.491,2.773
			c-0.281,0.564-1.331,0.54-1.845,0.702L126,93c-1.097-0.379-0.932-4.375,0.113-5c0.834-0.424,1.506-1.141,1.887-2
			C129.095,84.586,129.732,84.036,130,86z"/>
		<path style="fill:#666666;" d="M166.942,89.774c1.09,2.24,2.885,3.146,4.131,4.273c1.361,2.145,0.844,5.081,2.858,5.917
			c-1.903,0.598-3.862-0.579-4.994-1.686c-1.942-1.9-4.009-2.757-5.535-4.56c-0.854-1.009-0.699-3.323,0.297-4
			C164.435,89.219,165.862,89.553,166.942,89.774z"/>
		<path style="fill:#5E5E5E;" d="M157,91c1.003,0.114,1.969,1.163,3.092,0.969C154.885,94.163,149.637,92.285,144,92
			c-0.878-1.871-1.007-3.875-0.386-6.011L157,91z"/>
		<path style="fill:#404040;" d="M139.937,98.937L141,104c0.586,1.075-0.659,1.944-3.735,2.608
			c-0.869-1.472-2.624-2.675-5.265-3.608c-3.451-0.694,5.56-5.992,6.221-5.834C138.851,97.317,139.296,98.506,139.937,98.937z"/>
		<path style="fill:#474747;" d="M132,104c1.124-0.579,6.6,1.722,6.599,2.141c-0.001,0.434-5.671,5.776-6.636,4.819
			c-1.738-1.426-4.399-3.26-4.814-5.832C127.976,103.99,130.889,103.619,132,104z"/>
		<path style="fill:#767676;" d="M134.113,93.766c-1.626-2.441-2.798-5.149-4.113-7.766c-1.533-0.634,0.026-2.798,1.073-3.941
			c1.732-0.479,3.063,0.792,4.722,0.232C133.679,86.567,136.329,90.423,134.113,93.766z"/>
		<path style="fill:#404040;" d="M142.057,92.636c-2.247,1.365-3.298,2.721-6.001,3.597c-0.598-3.582-0.097-6.062,0.182-9.637
			C139.26,87.114,140.773,89.959,142.057,92.636z"/>
		<path style="fill:#B8B8B8;" d="M157,91c-4.389-0.497-8.384-2.353-12.883-3.892C143.83,89.007,144.065,90.497,144,92
			c-1.325-0.067-1.365-2.372-1.963-3.105c-1.059-2.233-1.079-3.822-0.062-4.769C148.986,88.973,153.18,87.414,157,91z"/>
		<path style="fill:#B8B8B8;" d="M141,104c0.513,0.434,0.485,0.917,1,2c-4.262-0.667-5.309,4.305-9.152,6.073
			c-0.39-0.263-0.537-0.828-0.885-1.113c2.04-1.005,3.423-2.852,5.12-4.639c-1.893-1.359-3.626-1.823-5.083-2.322v-1l7.041,2.04
			C140.162,105.365,141.039,105.006,141,104z"/>
		<path style="fill:#5D5D5D;" d="M139.845,126.199c-1.138,0.55-2.202,0.735-3.047,0.42c-3.457-1.287-2.656-4.612-2.709-7.709
			C136.879,120.461,138.368,123.488,139.845,126.199z"/>
		<path style="fill:#434343;" d="M141.974,84.126c0.149,1.585,2.114,4.015,0.062,4.769c-0.835-1.022-2.471-1.914-2.419-3.702
			C139.648,84.131,141.32,83.674,141.974,84.126z"/>
		<path style="fill:#A5A5A5;" d="M153,48l-2.125,9.128c4.088-0.359,6.799-2.091,10.125-2.128c-0.109,0.637,0.042,1.354,0,2l-12,1
			c1.398-3.098,2.161-6.609,3-10C152.284,47.127,152.618,47.14,153,48z"/>
		<path style="fill:#D7D7D7;" d="M171,85c-1.333,0.678-1.934,2.749-3.756,3c-0.015-0.336-0.193-0.666-0.244-1
			c-0.179-1.165-0.007-2.31,1-3c0.021,0.44-0.208,2.015,0.446,1.844C169.363,85.604,170.164,84.859,171,85z"/>
		<path style="fill:#6A6A6A;" d="M171.073,94.047c-2.965-1.827,13.816-6.738,13.708-6.099c0.318,1.564,0.662,4.522-0.258,5.423
			c-3.721,1.35-7.527,1.774-11.323,2.197C172.358,95.341,171.809,94.034,171.073,94.047z"/>
		<path style="fill:#646464;" d="M190.643,87.672c0.555-2.755,1.962-2.393,2.357,0.328c0.895,2.082,1.931,5.277,0.509,7.569
			c-0.607,0.979-3.175,0.254-3.57,1.435c-3.71-1.264-5.144-5.824-3.363-9.645C187.678,86.79,189.481,87.51,190.643,87.672z"/>
		<path style="fill:#505050;" d="M177.063,111.006l-2.417-0.536c-1.542,0.481-10.88-0.282-9.979-2.185
			c0.205-0.434,7.327-3.95,8.46-4.475c0.215-0.1,0.53,0.015,0.873,0.19c1.781,0.863,4.138,1.688,5.013,4.004
			c0.362,0.958,0.019,2.298-0.558,2.736C178.154,110.969,177.478,110.568,177.063,111.006z"/>
		<path style="fill:#686868;" d="M184.8,75.122c2.542,1.087,5.514,3.933,5.296,6.315c-0.14,1.527-1.304,5.794-3.55,4.321
			C183.237,83.589,183.6,78.09,184.8,75.122z"/>
		<path style="fill:#7A7A7A;" d="M187.988,99c-2.612,2.328-2.709,5.462-5.236,6.996c-1.245,0.756-4.399-2.377-3.528-3.506
			c1.997-2.591,6.389-7.823,8.335-5.791C188.162,97.33,187.78,98.187,187.988,99z"/>
		<path style="fill:#737373;" d="M173.931,99.965c0.922-0.977-0.065-2.625,0.573-3.496c3.199-0.499,6.012-1.502,9.817-1.357
			c-1.816,2.858-4.004,4.91-6.77,6.672C176.306,102.575,174.879,100.174,173.931,99.965z"/>
		<path style="fill:#686868;" d="M193,81c2.192-0.123,2.136,1.803,2.149,3.512c0.013,1.633-0.087,3.44-2.149,3.488l-2.357-0.328
			c-0.675-1.202-0.657-2.681-0.436-3.788C190.543,82.201,191.267,80.793,193,81z"/>
		<path style="fill:#BEBEBE;" d="M174,104c-1.983,2.091-4.856,2.803-8.05,4.45c5.036,3.318,8.627-0.026,11.113,2.556l-7.109-0.055
			c-1.12-0.009-2.102,0.018-1.954,1.049l-5-4c3.478-1.008,7.164-2.565,9.879-4.961C173.206,103.363,173.581,103.797,174,104z"/>
		<path style="fill:#636363;" d="M48,23c0.376-0.077,0.785,0.004,1.168-0.026c0.884,0.183,0.877,0.486,0.034,0.9
			c1.66,2.261,2.398,4.105,2.215,5.531C52.19,33.827,52.878,38.888,48,40c-0.008,1.984-0.863,2.243-2,0.627
			c-1.71,0.389-3.067,1.362-4.926,2.442l-0.158-17.183c-0.016-1.768,0.898-4.663,2.769-4.451C45.288,21.615,46.52,23.302,48,23z"/>
		<path style="fill:#636363;" d="M63.115,16.213c4.818,2.518,3.146,9.865,0.138,13.997C60.299,29.288,58.309,28.747,56,29
			c-1.549-0.643-2.897-0.59-4.043,0.158l-2.755-5.284c-0.064-0.286,0.011-0.61-0.034-0.9C52.525,22.709,58.072,17.429,63.115,16.213
			z"/>
		<path style="fill:#D5D5D5;" d="M50,11c0.861-1.797,2.377-2.955,4-4c0.988-0.056,1.143,0.501,0.377,1.222
			C52.919,9.647,51.76,11.076,50,11z"/>
		<path style="fill:#DADADA;" d="M49,12c-0.93,1.499-2,3.439-4,3C45.53,13.305,47.232,12.085,49,12z"/>
		<path style="fill:#C8C8C8;" d="M97,16c-1.466,2.491-4.664,3.94-4,7c-1.206-1.168-2.147-2.558-3-4
			C95.63,18.676,92.528,16.656,97,16z"/>
		<path style="fill:#C3C3C3;" d="M107,25c-0.81,1.995-2.984,2.734-5,3C102.983,26.246,104.881,25.195,107,25z"/>
		<path style="fill:#C4C4C4;" d="M114,21c-0.789,2.018-2.997,2.674-5,3c0.657-1.668,2.427-2.343,4-3
			C113.271,20.887,113.703,20.993,114,21z"/>
		<path style="fill:#C6C6C6;" d="M112,18c-1.804-0.112-3.711-1.342-4-3.197C108.847,15.959,111.964,15.69,112,18z"/>
		<path style="fill:#868686;" d="M53,40c2.608-0.997,3.06,0.066,1,2l1.894,4.132c-0.117,1.277-1.11,2.102-1.804,3.086
			c0.614,2.815-0.143,3.255-2.089,1.15L43,54c0.333,2.079-0.526,2.495-2,1c-0.388,0.169-0.948-0.117-1.357,0
			c0-0.344-0.546-0.659-0.643-1l-2-7c0.975,0,9.828-5.392,9-6.373c0.644-0.297,1.333-0.388,2-0.627
			C51.151,37.066,52.817,37.066,53,40z"/>
		<path style="fill:#606060;" d="M61,52.234c0.657,1.225,1.755,2.143,2.874,2.929c0.883,1.82,1.148,3.841,1.325,5.84
			C66.555,62.609,66.058,63.438,64,63c-0.1,2.795-0.89,4.094-2.371,3.898c-2.486,0.81-4.063,2.035-4.731,3.673L54,70
			c-0.728,0.033-1.58-0.191-1.822-0.712c-0.419-0.903-0.085-1.718,0.39-2.624C57.029,58.168,55.585,51.002,61,52.234z"/>
		<path style="fill:#6C6C6C;" d="M48,62.951l-6.521-2.322C39.873,60.057,41.285,56.509,41,55c0.689-0.3,1.405-0.547,2-1
			c2.913-1.483,5.913-2.694,9-3.633c0.729-0.389,1.555-0.393,2.089-1.15c4.034-1.023-0.795,11.209-1.57,13.501
			C51.647,63.681,49.087,62.869,48,62.951z"/>
		<path style="fill:#808080;" d="M56,29c2.042,0.887,4,1.743,7.284,2.126c-1.51,2.974-4.352,18.53-7.39,15.005L54,42
			c0.022-0.747-0.732-1.436-1-2l-2.033-0.897c0.939-3.549,0.976-7.218,0.112-11.006C52.741,28.179,54.382,28.48,56,29z"/>
		<path style="fill:#525252;" d="M75,19l-1.155,1.811c-0.93,1.459-2.094,2.761-3.845,3.047c-2.721-1.464-4.786-6.453-2.848-9.01
			C69.492,16.905,73.073,16.421,75,19z"/>
		<path style="fill:#CFCFCF;" d="M65,68c-1.295,0.944-2.694,1.749-4.199,2.414C63.753,73.219,66.486,76.081,69,79
			c-0.783,1.47-1.806,2.85-2.979,4.021c-0.995-0.078-0.427-1.202-0.094-2.297C61.376,76.203,58.851,71.439,54,71v-1
			c5.084-3.528,5.137-0.611,10-7C66.505,64.119,66.791,65.992,65,68z"/>
		<path style="fill:#8C8C8C;" d="M48,62.951c0.964,0.343,1.888,1.062,3.93,1.428c-0.1,1.276-0.87,5.251-2.677,4.468l-8.145-3.526
			c-0.068-1.109-0.506-2.446,0.31-3.237C43.737,63.567,46.17,63.088,48,62.951z"/>
		<path style="fill:#7C7C7C;" d="M69.85,34.178c0.991-0.051,1.394,0.792,1.206,2.528c-2.078-0.053-4.127,0.719-6.147,2.317
			c-0.941-0.131-1.683,0.87-2.986-0.046c0.815-1.691,1.186-3.782,2.22-4.329C66.008,33.663,68.126,34.322,69.85,34.178z"/>
		<path style="fill:#CDCDCD;" d="M72,34c-0.29,2.415,1.071,4.599,0.943,7l-2.693-3.95c-2.045,0.355-3.614,2.214-5.34,1.974
			c4.793-4.786,4.819-1.815,4.941-4.845L72,34z"/>
		<path style="fill:#C3C3C3;" d="M163,108c-0.673,0.195-1.601-0.331-2.314,0.154c-2.008,1.365-2.808,11.386,0.314,15.846
			c-1.133-0.992-2.514-1.798-4-2c0.948-0.569,1.678-4.176,0.28-3.961c-6.404,0.984-12.092,1.739-17.28,3.961
			c0.168-2.073,0.77-4.287,2-6c1.251,1.791,13.235-0.395,13.903-0.922l1.048-7.974L159,106C160.492,106.521,161.789,107.031,163,108
			z"/>
		<path style="fill:#D6D6D6;" d="M64,85c0.921-0.07,1.086,1.388,1.163,2c-3.459-0.969-7.118-1.214-10.253-3.016
			C57.877,83.407,61.002,85.228,64,85z"/>
		<path style="fill:#CFCFCF;" d="M125,117h-5c1.133-1.977,1.015-4.684,3-6c0.076,1.436-1.14,3.058-0.604,4.542
			C122.64,116.219,124.741,116.43,125,117z"/>
		<path style="fill:#D5D5D5;" d="M174,73c-3.151,4.996-4.91,10.252-6,11c-0.126-2.69,2.473-7.464,3.066-10.378
			C171.886,72.877,172.996,73.12,174,73z"/>
		<path style="fill:#D7D7D7;" d="M179,70c-0.813,1.97-2.983,2.759-5,3C175.179,71.131,176.722,70.27,179,70z"/>
		<path style="fill:#D9D9D9;" d="M170.139,72.934c-2.456,0-4.222-1.908-4.94-4.157C167.427,69.21,168.874,71.163,170.139,72.934z"/>
		<path style="fill:#D8D8D8;" d="M179,65.1c-2.19-0.407-3.394-1.595-4.063-3.006C177.054,61.791,177.858,63.672,179,65.1z"/>
		<path style="fill:#BBBBBB;" d="M152,125c-1.16,1.869-2.741,2.793-5,2.874C147.841,125.934,150.039,125.311,152,125z"/>
		<path style="fill:#E1E1E1;" d="M98,83.965c-1.098,1.035-0.802,3.074-1,4.382c-0.673-0.074-1.341-0.191-2-0.346
			c1.179-1.285,0.743-2.668,0-4C95.997,83.93,97.002,83.946,98,83.965z"/>
		<path style="fill:#BDBDBD;" d="M113,98.344c-1.758-0.4-3.014,0.952-4.126,2.131c-1.316,1.394-0.272,3.093,0.236,4.662
			c-0.214,0.355-0.48,0.311-0.772,0.06c-0.874-1.345-1.687-2.73-2.339-4.197c3.226-1.789,5.162-4.868,7-8
			C115.945,93.349,115.802,97.773,113,98.344z"/>
		<path style="fill:#B8B8B8;" d="M113,90c2.787-0.187,4.262-0.066,3,3c-0.064,2.86-2.324,2.733-3,0l-3-4
			C110.86,89.165,112.381,89.281,113,90z"/>
		<path style="fill:#CACACA;" d="M115,119c-0.897,1.837-3.059,1.874-4.203,3.049c-0.992-0.6-1.993-1.206-2.797-2.049L115,119z"/>
		<path style="fill:#C5C5C5;" d="M90,19c-1.779,0.102-3.401-1.579-4-3C87.884,15.986,89.282,17.334,90,19z"/>
		<path style="fill:#616161;" d="M128,19.257L131,23c0.802,1.328-1.457,22.209-1.085,21.358c-0.243,0.555-0.912,0.906-1.915,0.642
			c-0.57-0.385-1.454-0.416-2-1l-7-3c-2.679,0.132-3.012-1.534-1-5l4.996-13C124.344,21.147,125.521,18.67,128,19.257z"/>
		<path style="fill:#535353;" d="M138,28c0.614,0.023,1.188,1.063,2,1v10l-7,8c-5.015,0.921,0.612-15.387-1.146-21.163
			C134.657,26.215,135.843,27.917,138,28z"/>
		<path style="fill:#949494;" d="M91.026,102.866c-1.762,1.651-4.488,4.244-6.97,2.07l0.991-6.17
			C87.796,98.411,88.496,102.246,91.026,102.866z"/>
		<path style="fill:#4C4C4C;" d="M116,93c1.397-2.438,2.541-1.676,2,1c3.068,1.02,2.343,8.896,1.22,10.429
			c-0.688,0.939-1.298,0.052-2.131-0.518L113,98.344V93H116z"/>
		<path style="fill:#C2C2C2;" d="M151.311,41.783c-1.023,2.564,2.586,4.464,3.689,6.374L153,48h-1c0.937-3.788-5.295-4.514-7-7
			C147.131,41,149.169,42.004,151.311,41.783z"/>
		<path style="fill:#3B3B3B;" d="M123,87l1,1c2.157,0.486,2.08,4.56,0.079,5.171C123.388,93.232,122.782,94,122,94h-4l-2-1
			c-1.167-0.854-2.075-1.927-3-3l3.801-3.12C117.961,83.756,121.827,83.981,123,87z"/>
		<path style="fill:#747474;" d="M144,41l-2.442-0.018c-0.952-0.007,0.046-1.19,0.442-1.982c0.488,0,1.261-1.172,1.58-0.863
			C144.17,38.708,144.123,40.41,144,41z"/>
		<path style="fill:#BEBEBE;" d="M118,36c0.655-4.49,2.321-9.324,4.996-13C122.427,27.479,120.633,32.301,118,36z"/>
		<path style="fill:#C3C3C3;" d="M119,41h-5c1.58-1.445,2.765-3.266,4-5C117.778,37.523,118.004,39.755,119,41z"/>
		<path style="fill:#C6C6C6;" d="M102,37c-1.278-1.567-2.152-2.753-2-5C101.689,33.03,102.078,35.125,102,37z"/>
		<path style="fill:#C6C6C6;" d="M148,59c-1.179,1.457-2.247,3.068-2,5c-3.577-2.487-8.539-3.74-13-2c0.529-0.912,0.958-1.93,1-3
			c3.009,1.088,6.291,2.413,10.052,1.951C145.279,60.8,145.068,58.614,145,58C146.06,58.243,146.903,59.019,148,59z"/>
		<path style="fill:#CBCBCB;" d="M132,63c-0.408,1.155-0.986,2.278-2,3c-0.113-1.559-1.09-2.783-2-4L132,63z"/>
		<path style="fill:#C7C7C7;" d="M126,44c-2.524-0.074-5.364-0.954-7-3C121.617,41,124.206,42.079,126,44z"/>
		<path style="fill:#D6D6D6;" d="M78,64c-0.758,3.639-6.903,1.5-5-2C74.865,62.002,76.976,62.275,78,64z"/>
		<path style="fill:#B7B7B7;" d="M109,56c-0.95,1.627-2.858,4.404-5,4C104.965,58.069,106.66,55.961,109,56z"/>
		<path style="fill:#C2C2C2;" d="M112,55l1,2c-1.34-0.125-2.646-0.977-4-1c0.229-0.534-0.075-1.403,0-2
			C109.888,54.578,110.985,54.784,112,55z"/>
		<path style="fill:#C3C3C3;" d="M145,58c-1.822-0.791-1.757-3.284-2-5C144.774,53.762,145.059,56.365,145,58z"/>
		<path style="fill:#565656;" d="M99,49c-0.263,1.031-0.414,2.078-1,3c-0.842,1.325-2.08,2.079-3.484,2.103
			c-1.839,0.032-4.112,0.282-3.448-2.103l1.016-0.963C91.025,48.562,91.504,48.076,94,49C96.389,45.953,102.036,43.981,99,49z"/>
		<path style="fill:#CBCBCB;" d="M101.772,44.809C101.793,46.66,99.435,47.293,99,49c0.078-0.785,0.351-1.682-1.048-2.347
			C96.556,48.04,95.431,48.908,94,49c-2.129-1.559-1.509-2.403,1-3C97.381,46.39,99.41,45.022,101.772,44.809z"/>
		<path style="fill:#BBBBBB;" d="M109,54c-1.618-1.054-2.232-3.128-2.079-5C108.44,50.262,109.262,51.918,109,54z"/>
		<path style="fill:#D5D5D5;" d="M68.102,53.089L68,52c0.768-1.532,1.945-2.269,3.165-3.374
			C70.805,50.521,70.009,52.338,68.102,53.089z"/>
		<path style="fill:#B1B1B1;" d="M121.911,76.99c0.072,3.372-0.486,7.039,1.089,10.01c-2.05-0.299-4.129-0.137-6.199-0.12
			c-0.353-2.755-1.648-7.136-4.801-6.502c0.433-0.832-1.124-2.355-0.087-3.102C115.027,79.347,118.437,77.61,121.911,76.99z"/>
		<path style="fill:#C9C9C9;" d="M126.113,88L126,93l-1.921,0.171c0.984-1.619,1.134-3.645-0.079-5.171H126.113z"/>
		<path style="fill:#C7C7C7;" d="M130,86h-2c0.701-1.578,1.268-3.442,3.073-3.941L130,86z"/>
		<path style="fill:#616161;" d="M91,44.226c1.136,1.138,2.437,1.518,4,1.774c-0.146,1.055-0.457,2.081-1,3
			c-0.381,0.903-1.239,1.394-1.916,2.037c-1.151,0.197-2.662,0.365-3.047-0.571c-0.467-1.135-1.071-5.475,0.419-6.376
			C89.819,43.87,90.515,44.211,91,44.226z"/>
		<path style="fill:#B4B4B4;" d="M116.801,86.88c0.215,1.681-2.363,3.513-3.801,3.12C113.574,88.48,115.067,86.894,116.801,86.88z"
			/>
		<path style="fill:#C1C1C1;" d="M92.108,59.892c-1.876-0.607-3.209-2.304-5.234-1.984C87.371,56.475,89.298,56.34,90,55
			C89.846,57.072,92.369,57.855,92.108,59.892z"/>
		<path style="fill:#707070;" d="M73,62c1.026,1.75,3.171,1.953,5,2c0.27,0.455,0.816,1.1,0.708,1.54
			C78.635,65.838,72.493,72.945,71,72c-1.979,2.301-7.051-1.194-6-4c-0.96-1.483-1.109-3.269-1-5
			c0.506-0.665,0.838-1.253,1.199-1.997C66.352,58.628,69.468,61.996,73,62z"/>
		<path style="fill:#7E7E7E;" d="M65,68l6,4c0.97,0.647,1.332,3.001,0.807,4.17C71.352,77.181,69.684,77.715,69,79
			c-1.18,0.754-3.331-0.696-4.246-1.639l-7.167-7.388C59.901,68.034,62.8,66.533,65,68z"/>
		<path style="fill:#B6B6B6;" d="M159,106l-1.463,1.664c-3.938-0.177-7.857,0.469-11.757,1.94L144,108c-1.088-0.33-1.279-1.722,0-2
			c4.433-0.086,9.557-1.093,13.769-3.157c0.691-1.161-0.397-4.401,1.241-4.843L159,106z"/>
		<path style="fill:#C4C4C4;" d="M144,106v2c3.615,0.709,1.633,9.386-2,8c-0.44-6.377,2.355-5.05,0-10
			C142.641,106.1,143.35,106.013,144,106z"/>
		<path style="fill:#C2C2C2;" d="M141,104c-1.81-1.529-0.889-3.53-1.063-5.063C141.613,100.065,140.933,102.247,141,104z"/>
		<path style="fill:#BCBCBC;" d="M160,84c-3.179-0.446-5.103-3.593-7-6C156.175,78.447,158.105,81.59,160,84z"/>
		<path style="fill:#D8D8D8;" d="M56,29c-1.116,0.122-2.377-0.312-3.894,0.171C51.258,33.026,53.034,36.492,53,40
			c-1.447-1.226-3.353-0.59-5,0c5.828-4.294,2.371-10.922,1.202-16.126C50.872,26.756,53.096,27.739,56,29z"/>
		<path style="fill:#D5D5D5;" d="M52,50.367c-2.861,1.527-5.671,3.693-9,3.633C45.566,52.047,48.695,49.647,52,50.367z"/>
		<path style="fill:#DADADA;" d="M55.894,46.132C54.169,45.594,53.952,43.611,54,42C55.233,43.041,56.442,44.441,55.894,46.132z"/>
		<path style="fill:#505050;" d="M159,106c-0.034,4.074-1.52,7.127-0.981,10.768c-5.789,0.785-10.599,1.669-15.915,3.047
			c-0.287-1.51-0.024-2.643-0.105-3.816c1.638-2.282,2-5.234,2-8C149.248,106.693,154.721,104.504,159,106z"/>
		<path style="fill:#686868;" d="M120.445,79.376c1.171,1.323,0.915,4.503-0.271,6.163c-2.149-1.696-1.357-3.532-2.203-5.651
			C117.646,79.075,119.478,78.284,120.445,79.376z"/>
	</g>
</g>
</svg>
