<?xml version="1.0" encoding="iso-8859-1"?>
<!-- Generator: Adobe Illustrator 30.1.0, SVG Export Plug-In . SVG Version: 9.03 Build 0)  -->
<svg version="1.1" id="Layer_1" xmlns="http://www.w3.org/2000/svg" xmlns:xlink="http://www.w3.org/1999/xlink" x="0px" y="0px"
	 viewBox="0 0 190 117" style="enable-background:new 0 0 190 117;" xml:space="preserve">
<g>
	<g>
		<path style="fill:#FDFDFD;" d="M96,0c10.151,11.017,20.98,21.153,32.054,32.049L190,93v7c-1.383,5.254-3.199,10.371-5.449,15.352
			L182,117H35c-11.701-0.332-23.368-0.665-35-1v-9l9.795-62.498L90,0H96z"/>
		<path style="fill:#DBDBDB;" d="M75.039,22c2.727,1.133,2.052,4.922-1.039,5c2.572,0.446,2.344,0.885,0,2
			c0.777,4.532,0.407,9.423-1.111,14.674L74,44.79c1.356-0.561,1.403-0.166,0.142,1.184C76.427,44.709,80.358,46.167,80,49
			c1.14-1.209,1.807-1.209,2,0c1.744-1.193,7.918,0.587,9.993,1.43C92.793,50.755,93.415,51.385,94,52
			c1.626-0.559,3.418-0.051,5.375,1.524c2.857,0.466,5.376,1.223,7.557,2.27c1.666-1.611,5.728-1.536,6.068,1.206
			c0.186-0.879,0.525-0.842,1,0l1.609-1.97L123,57c0.601-2.603,1.185-5.326,1.752-8.168L127,48c-0.232-2.79,1.432-7.972,3.95-9.016
			c0.616,0.477,0.871,1.294,1.05,2.016c1.253,1.194,1.253,1.861,0,2c1.326,1.644,1.145,2.083-1,2
			c0.751,3.78-0.332,7.955-3.25,12.525c0.78,0.518,1.53,1.343,2.25,2.475l0.761,2.687c2.742,2.486,3.178,4.57,1.308,6.25
			c-2.55,2.436-6.085-1.985-5.069-4.937c-2.183-0.659-2.516-1.326-1-2c-1.493-0.951-2.826-0.951-4,0c1.428,1.223,0.788,1.677-1,1
			c-4.026-2.535-8.803-3.516-14.331-2.942c-1.05-0.111-1.663,1.179-1.839,3.869c-0.003,5.286,0.187,11.105,0.569,17.456L104,83
			c1.022,1.354,1.341,3.219,0.958,5.596L107,90c2.656,0.319,2.541,1.239,0,2c-1.935,1.908-2.935,4.575-3,8
			c2.656,0.319,2.541,1.239,0,2c0.901,1.386,0.568,2.052-1,2c2.404,1.457,3.576,7.701,2,10c-0.816,0.184-1.862,0.776-2.787,0.787
			c-0.893-0.136-0.897-0.423-0.066-0.853c-2.52-0.279-4.262-3.795-2.501-5.848c0.423-4.765,0.533-9.714,0.331-14.849
			C97.095,93.07,95.375,91.782,98,90c2.562-1.023,2.668-11.43,1.727-12.964C95.798,77.753,93.222,77.074,92,75
			c-0.8-0.319-0.796-0.653,0-1c-2.656-0.319-2.541-1.239,0-2c0.291-0.712,0.625-0.699,1,0l6.962-0.29
			c0.617-3.68-0.037-6.584-1.962-8.71c-0.873-0.284-0.86-0.618,0-1c0.911-1.15,1.628-2.166,2.152-3.05l-9.805-2.586L90,54
			c-2.963,0.592-5.721-1.039-8-3c-0.268,0.85-0.603,0.833-1,0l-2.365,0.937l-7.562-2.497c-0.622,2.836-1.854,4.023-3.695,3.56
			c-4.071-2.523-10.061,9.942-3.549,10.349c2.289,1.367,3.317,2.926,3.084,4.677c-0.188,3.157-1.089,0.549-0.627,0.565
			c0.656,0.022,2.914,2.696,0.926,3.315c-2.481,1.619-3.441,1.115-3.53-1.845c-2.665,0.834-5.603-3.83-6.869-6.136
			C56.013,63.794,55.409,63.486,55,63c-2.656-0.319-2.541-1.239,0-2c0.941-3.418,2.349-6.921,4.226-10.511
			C54.574,47.296,53.165,44.466,55,42c1.956-2.146,3.667-0.833,2.934,1.864C58.928,43.025,59.617,43.737,60,46
			c0.64-0.571,1.533-1.027,2.142-0.58c3.971,2.91,6.458-3.247,5.7-7.188L70,37c-1.224-1.563-1.148-3.606,0.228-6.128L70,29
			c-0.885-0.184-0.848-0.524,0-1c1.353-0.835,1.686-1.501,1-2c-0.627-0.296-0.613-0.63,0-1c0.406-1.842,1.24-3.96,3.31-4.192
			C75.271,20.228,75.514,20.625,75.039,22z"/>
		<path style="fill:#303030;" d="M35.963,88.047c2.442-1.383,3.02-0.926,2.226,1.764L42,95c1.367-1.426,1.947-0.781,1,1
			c1.805,0.795,3.472,1.462,5,2c0.717,4.45,0.948,11.265-0.115,16.005c-2.344,0.478-4.727-0.16-7.068-0.076
			c-1.964-0.607-3.434-2.625-4.409-6.055L33,105c-1.783-3.669-3.942-7.295-6.477-10.877L26.714,92
			c-2.821-1.718-0.429-4.665,2.302-3.097c-1.568-2.669,0.746-3.953,2.95-1.937C34.454,84.818,35.787,85.178,35.963,88.047z"/>
		<path style="fill:#D8D8D8;" d="M150.058,64c1.433,1.245,3.068,2.249,4.903,3.013c0.515-0.493,1.523-0.821,3.024-0.984
			c1.514,0.925,1.56,2.888,2.795,4.05c1.018,0.955,1.542,2.667,1.305,3.951c2.521,0.743,4.298,5.131,3.031,7.59
			c1.899,1.301,3.249,1.743,5.969,1.157c-0.316-1.133,0.322-1.742,1.916-1.827c1.064,0.966,2.214,1.923,3.113,3.052
			c-0.585,1.067-0.648,3.214-0.189,6.441l-1.969,1.278c-0.23,0.893-0.575,0.905-1.031,0.076c-1.569,2.68-4.019,0.8-2.881-1.837
			c1.469-2.746,1.469-2.746,0,0c-0.785,1.636-1.81,2.983-3.077,4.039c1.714,1.155,2.151,2.251,1.31,3.289
			c1.027,1.217,1.209,2.955-0.231,3.866c3.347,0.655,2.202,4.846,0.241,6.858c2.171,0.726,0.746,4.222-1.286,2.987
			c-3.014-0.309-2.283-5.372-1.577-7.743c-2.866-0.015-3.048-1.134-1.236-2.966c-0.842-3.711-1.665-7.443-2.468-11.197l1.959-1.144
			c-0.812-0.899-1.791-1.501-2.937-1.806c-0.672-0.164-0.693-0.449-0.1-0.848l-1.052-1.837c1.096-5.633-2.355-6.826-7.293-4.395
			L151,77c-1.737-0.336-2.502-1.985-2.294-4.949c-3.304,0.053-6.568-0.278-9.793-0.993c-0.529,2.861-2.272,2.273-4.05,0.811
			c-0.773,2.857-1.101,6.177-0.983,9.959L132,83c0.322,1.915-0.011,3.248-1,4c0.521,0.292,0.503,0.626,0,1
			c1.197,0.883,0.88,2.058-0.159,3.073c1.306,3.383,0.615,6.787-1.785,9.053c2.424,1.681,0.713,6.021-1.063,7.803
			c1.768,2.231,1.15,5.133-1.992,5.071c-0.384,0.66-1.549,1.426-2.176,1.782c-2.866,0.015-2.587-2.284,0.176-2.782
			c-0.138-1.754-0.471-2.088-1-1c-2.712,1.541-2.954,0.303-0.937-2.029c-1.505-1.915-0.212-4.819,1.797-5.831
			c1.235-1.362,1.612-3.093,1.13-5.192l0.989-1.051c1.097-0.818,1.13-1.548,0.1-2.192c-2.358-1.407-1.975-3.275,0.727-3.693
			c0.496-3.897,1.09-7.864,1.781-11.902c-1.586-0.31-2.782-1.014-3.587-2.111c-0.939-2.205,0.418-3.295,4.072-3.272
			c0.672-2.271,1.671-3.868,2.996-4.791c1.552-3.736,9.894-2.22,12.931,0.063c-1.141-1.562-0.541-2.027,1-0.798
			C147.537,62.166,148.889,60.765,150.058,64z"/>
		<path style="fill:#313131;" d="M72,102c2.599-0.716,2.801,0.351,1.157,2.318c1.378,0.048,1.538,0.851,0.478,2.409
			c-0.186,4.14-1.331,5.762-3.436,4.866c-2.704,1.14-5.437,1.981-8.199,2.523c-3.32-0.748-7.453,1.8-10.144-1.018
			c-2.537-1.566,0.591-5.393,3.144-4.097l3-4c-2.04-1.678-1.449-2.212,1-2c0.185-2.889,5.375-5.83,8-4.714
			c1.155-1.588,2.155-2.017,3-1.286L72,102z"/>
		<path style="fill:#4E4E4E;" d="M155,96c2.496,0.223,4.829,1.223,7,3c2.085-1.87,2.848-1.41,2.186,1.291
			c1.099,0.415,0.579,2.408,1.236,2.966c0.629,2.459-0.526,4.872-3.463,7.241c-0.509,2.181-1.44,3.625-2.792,4.334
			c-0.768-0.028-1.567-0.05-2.333,0.003c-1.646-0.065-2.824-1.188-3.536-3.368c-2.651-2.444-3.441-4.566-2.369-6.365
			c-1.247-1.127-0.455-5.08,0.071-7.102C150.801,96.4,153.893,94.334,155,96z"/>
		<path style="fill:#3E3E3E;" d="M25,46c1.308-1.443,1.923-0.799,1,1l4,3c1.665,1.209,0.661,1.672-1,2.307
			c0.763,3.839-3.644,5.82-6,2.693c-3.251,1.157-8.568,0.658-12.029,0c0.071-2.03,0.189-4.085,0.911-6
			c0.987-1.936,3.005-3.721,5.118-3C20.396,43.514,23.063,43.514,25,46z"/>
		<path style="fill:#555555;" d="M151.052,60.126c2.158,2.572,3.094,5.169-0.995,3.874c-2.21-2.522-0.173,3.702-1.564,4.721
			c-0.536,0.392-1.659-0.328-2.493-0.519c-2.477-2.367-5.143-4.767-8-7.202c-2.139,1.903-3.238,0.832-2.22-1.727
			c-1.288-0.739-0.303-3.579,1.22-3.273c-1.312-2.754,3.904-5.895,5.974-3.78C146.613,53.725,148.539,57.226,151.052,60.126z"/>
		<path style="fill:#303030;" d="M116.01,25.108c1.454,1.47,0.218,2.873-0.913,3.99c2.506,2.449-1.471,5.96-4.231,4.769
			C109.948,37.559,108.66,36.271,107,30c-1.403-0.898-2.654-0.153-4,1c1.857,2.27-0.94,3.983-3,2
			c-1.226,2.047-2.152,2.256-2.777,0.627c-1.159,0.861-1.705,0.383-1.034-0.924c-1.666-1.335,1.734-4.692,3.058-5.466
			c0.18-0.105,0.587,0.18,1.06,0.577c3.613-2.331,7.228-4.576,10.845-6.735C113.259,21.935,114.976,23.127,116.01,25.108z"/>
		<path style="fill:#AEAEAE;" d="M94,107c2.425,0.927,1.639,2.651,0.67,4.684c3.829-0.427,6.321,0.323,7.477,2.25
			c-0.02,0.283,0.066,0.569,0.066,0.853l-24.29,0.31c-1.825,0.023-3.316-0.226-4.192-1.367c2.266-2.42,2.266-2.42,0,0l-0.819,0.049
			c-2.881-1.2-2.881-1.2,0,0c-2.956,2.631-7.51,1.102-10.911,0.336c0.945-2.238,8.306-1.934,10.075-4.519
			c0.97-1.416,0.934-3.625,1.082-5.279c0.299-0.724,0.794-1.616,1.493-1.605c1.799,0.027,16.043,2.107,17.918,2.587L94,107z"/>
		<path style="fill:#CCCCCC;" d="M121.147,82.853l1.454,8.427l-1.454,2.163c1.401,1.857,1.352,3.043-0.147,3.556
			c-2.407,1.244-2.836,2.273-1.287,3.089l-0.024,1.785c2.322,0.706,1.242,2.293-3.242,4.759c-0.261,1.313-0.744,2.435-1.447,3.366
			c-0.081,2.719-3.232,4.095-5.643,4.766c-1.631,0.02-3.393,0.958-4.357-0.766c1.659-2.131,3.602-4.229,5.831-6.293L111,105
			c0.434-1.245,1.41-2.243,2.928-2.993c-2.254-0.762-3.231-1.962-2.928-3.598c-1.059,0.045-1.392-0.425-1-1.409
			c-2.822,0.528-3.281-0.278-3.262-3c-2.454-0.58-2.252-1.618,0.262-2c0.835-1.871,2.139-1.714,3.913,0.472
			c1.323-3.434,2.972-4.638,4.948-3.611c1.488,1.347,2.163,0.136,2.026-3.633c-0.88-0.736-2.149-0.58-3.808,0.467L112,84
			c-1.153-2.935,6.222-7.069,8.365-4.864C123.127,79.85,123.387,81.087,121.147,82.853z"/>
		<path style="fill:#444444;" d="M43,29.903c1.239,0.782,2.582,1.696,2,3.097l0.669,3.364c1.021,1.273,0.821,1.859-0.598,1.759
			c2.636,1.832,0.433,4.217-1.9,1.948C42.532,41.274,41.142,42.251,39,43l-3.122,2.365l-1.867-4.984
			c-1.988-2.557-2.325-4.382-1.011-5.476L43,29.903z"/>
		<path style="fill:#3C3C3C;" d="M21,57c3.337,1.08,1.278,5.656-2,5c1.311,1.206,1.154,1.522-0.5,0.93l0.896,2.098L14,67
			c-0.005,2.578-1.125,3.168-3.142,1.562c-3.515-0.082-0.209-11.776,0.113-12.538c0.836-0.739,10.223-0.808,10.38-0.3
			C21.46,56.08,21.272,56.527,21,57z"/>
		<path style="fill:#444444;" d="M34,48c1.248,1.486,0.701,2.03-1,1c-0.69,1.466-2.033,2.98-3,1l-4-3c-0.239-0.385-0.816-0.594-1-1
			c-3.757-1.421-4.78-2.797-3.071-4.129c1.841-2.65,5.315-3.41,8.073-4.856l1.292-0.518c1.77,2.4,3.526,4.954,5.268,7.664L34,48z"/>
		<path style="fill:#1B1B1B;" d="M40.816,113.929c-4.925,0.176-9.906,0.712-14.816,0.108c-0.593-1.534-0.144-3.384,1.347-5.552
			c-1.611-1.7-0.646-1.917,1.653-1.484c-1.187-2.708,2.181-4.172,4-2C37.727,102.637,40.136,110.568,40.816,113.929z"/>
		<path style="fill:#333333;" d="M150.929,105.102c2.224,3.114,5.322,5.871,5.906,9.732C152.895,115.103,148.946,115,145,115
			c-2.99-0.544-3.657-1.544-2-3c-3.954-0.798-2.253-5.559,2-5c0.211-2.604,1.897-2.903,4-2
			C149.685,104.245,150.328,104.28,150.929,105.102z"/>
		<path style="fill:#434343;" d="M59,103c0.172,0.813-0.706,1.461-1,2l-3,4l-3.144,4.097c-0.848,0.574-1.852,0.809-2.856,0.95
			c-0.085-11.158-0.127-16.737-0.127-16.737L50,97C52.268,94.726,59.925,99.994,59,103z"/>
		<path style="fill:#525252;" d="M94.745,3.966c0.263,2.619,0.424,5.336,0.481,8.152C97.222,12.457,96.814,13.084,94,14
			c0.29,3.086-4.18,6.158-7,5c-3.125,2.608-4.459,2.608-4,0c-1.193-2.321-1.193-3.988,0-5l-0.473-2.108
			c0,0,3.518-2.904,10.554-8.713L94.745,3.966z"/>
		<path style="fill:#2E2E2E;" d="M79.99,10.16c2.866,0.308,3.085,1.153,0.761,2.84c1.175,1.514,1.924,3.514,2.249,6
			c1.69,1.076,1.045,5.595-1,6c1.041,1.367,0.509,1.886-1,1c-1.07,1.966-5.788,2.629-7,1c0.823-1.489,0.368-3.534,1.039-5
			c-0.199-3.041,0.35-5.277,1.648-6.709C77.02,13.071,77.381,10.348,79.99,10.16z"/>
		<path style="fill:#C0C0C0;" d="M6,95c0.85-0.405,1.151-0.026,1,1c1.39,1.269,2.665,1.625,3.824,1.066
			C10.848,94.192,13.217,94.284,14,97c1.016-0.843,1.422-0.297,1,1c-0.101,2.183-2.958,4.598-4.997,5.192
			c-2.361,4.041,4.638,5.659,5.997,2.034c-1.616-1.792-1.541-3.293,0.839-4.226c0.385-0.853,0.772-0.852,1.161,0
			c2.902,0.404,6.236,7.912,3.48,10.071l-0.677,0.063c-2.499,1.28-4.811,1.858-6.935,1.734c-1.991-1.323-2.298-1.32-0.921,0.009
			C11.746,114.393,9.752,114,8,114c0.545-1.432-0.121-1.432-2,0c-1.561,0-4.154,0.75-4.055-1.423C2.017,111.003,1.427,108.7,3,108
			c1.855,1.438,0.752-0.947,0-2c0-1.519,0.083-2.742,0.816-4c1.944,1.173,2.152,0.116,0.625-3.171C4.471,97.283,4.014,95.348,6,95z"
			/>
		<path style="fill:#606060;" d="M66.864,22.039C69.369,25.737,69.782,28.195,67,32c-0.315,0.777-5.794,4.152-6.168,4.038
			c-0.254-0.077-3.482-3.552-2.175-3.808C57.582,29.574,57.362,27.498,58,26c-1.053-2.901,5.809-6.273,7.774-3.932
			C66.039,22.011,66.594,21.974,66.864,22.039z"/>
		<path style="fill:#343434;" d="M37,69c-1.688,0.587-4.949,1.291-6,0l-0.774,1.133c-7.182,1.063-14.288,1.665-21.318,1.807
			c-0.445-0.704-0.42-1.443-0.133-1.948c0.423-0.746,1.622-1.011,2.083-1.43C11.595,67.891,12.85,67.049,14,67l4.126-2.167
			c5.994,1.69,12.131,2.674,18.412,2.952L37,69z"/>
		<path style="fill:#2A2A2A;" d="M125.99,34.955c0.368,3.344-0.144,6.691-1.535,10.04L120,43c-1.925,2.082-2.591,1.85-3-1
			c-2.686,0.413-2.686-0.921,0-4c-2.023-1.846-1.596-2.374,1.105-1.895c1.16-1.77,1.972-3.623,2.436-5.557l1.485,0.481
			C122.789,32.223,125.914,33.042,125.99,34.955z"/>
		<path style="fill:#5C5C5C;" d="M55.496,24.927c0.92,0.032,1.011,0.416,0.346,1.121c1.66,0.054,3.61,7.56,3.374,7.945
			C58.992,34.361,51.741,33.076,51,32c-3.227,1.549-5.684,1.747-7-2.113C47.209,27.361,51.396,25.184,55.496,24.927z"/>
		<path style="fill:#3E3E3E;" d="M167,111c1.876-0.756,2.344,0.377,1.026,1.924c1.054,3.001-6.558,1.992-8.858,1.908
			c-0.969-5.997,4.377-7.895,6.255-11.575C167.635,105.133,166.833,108.299,167,111z"/>
		<path style="fill:#B4B4B4;" d="M145,84c2.966-0.794,3.756,6.49,0.921,7.341l-0.307,2.323C142.858,94.771,139.986,95.55,137,96
			c1.917,0.273,1.831,1.032-0.126,1.286c2.158,3.735,4.866,6.972,8.126,9.714c-1.907,0.706-2.334,3.299-2,5l-0.433,1.335L136,115
			c-0.615,0-1.506-0.077-2.089-0.273c0.001-3.825,0.364-7.734,1.089-11.727c-1.577-0.803-2.249-2.356-2.016-4.659
			c-1.651-2.089-0.357-3.923,2.016-4.341c3.619-3.213,3.619-3.213,0,0c-2.405,1.619-5.079,0.043-4.159-2.927L131,88
			c-0.062-0.319,0.108-0.695,0-1c0.29-0.814,0.957-1.147,2-1c2.315,0.168,5.474-0.387,4.189-3.591L139,81
			C141.101,80.037,143.748,82.363,145,84z"/>
		<path style="fill:#C9C9C9;" d="M184.097,92.803c1.284,1.3,0.487,2.015-0.845,2.992c0.26,1.856,0.894,3.56,1.9,5.113l-0.265,1.255
			c-1.707,1.515-3.695,2.749-5.963,3.703c0.872,2.592-1.857,8.614-5.05,7.609l-0.932-0.094c-2.227-1.133-1.498-2.727,0.853-2.966
			c-0.222-3.624-0.332-5.437-0.332-5.437s-0.322-0.422-0.967-1.267c-2.484-1.176-1.87-3.566,0.504-4.711
			c1.253-1.116,2.579-0.884,3.978,0.697l1.883-0.655c-0.046-2.25,0.597-4.667,1.929-7.252c-2.775,1.096-4.282-3.217-1.9-4.777
			C181.417,87.776,182.684,90.936,184.097,92.803z"/>
		<path style="fill:#505050;" d="M137.131,45.005c1.847,2.397,4.436,4.577,5.843,7.215L137,56c-1.55,2.343-2.19,1.735-2-1
			l-2.127-10.563C134.372,44.313,135.791,44.502,137.131,45.005z"/>
		<path style="fill:#515151;" d="M93.081,3.178C94.272,4.046,83.946,13.649,83,14c-0.438,1.648-1.188,1.315-2.249-1
			c-0.228-0.96-0.302-1.964-0.761-2.84C83.667,6.979,88.328,4.206,93.081,3.178z"/>
		<path style="fill:#3E3E3E;" d="M74.071,15.982c2.359-0.151,1.748,3.604,0.239,4.826c-0.312,0.894,0.003,2.188-0.796,3.128
			C73.017,24.521,72.004,25.055,71,25c-1.042,3.485-2.42,2.498-4.136-2.961c-0.483-1.651,0.353-4.181,1.647-5.021
			C70.157,15.949,72.215,16.015,74.071,15.982z"/>
		<path style="fill:#353535;" d="M19.858,100.094c2.379-1.25,4.134,0.243,3.27,2.816c3.163,3.18,4.744,4.771,4.744,4.771
			c-1.003,2.58-2.246,4.687-3.728,6.321c-1.176-0.474-2.238-1.699-2.664-2.932L18,101C16.496,98.834,19.912,95.492,19.858,100.094z"
			/>
		<path style="fill:#565656;" d="M65.774,22.068L58,26c0.034,1.827-0.685,1.843-2.157,0.047c-0.175-0.339-0.215-0.761-0.346-1.121
			c-1.128-3.072,6.724-5.564,10.076-7.187C66.451,19.937,65.752,20.99,65.774,22.068z"/>
		<path style="fill:#4C4C4C;" d="M181.165,107.197c1.458,1.036-0.965,7.747-3.668,7.87c-1.36,0.062-3.235,0.114-3.624-1.592
			c2.152-2.177,2.321-5.978,5.05-7.609C180.855,103.788,181.807,104.466,181.165,107.197z"/>
		<path style="fill:#2E2E2E;" d="M176.113,84.003c0.809,1.016,1.391,2.592,2.777,3.01l1.9,4.777c0.119,2.691-0.905,3.139-2.79,1.21
			c-2.288,1.811-3.58,1.7-4.045-1.278l-0.143-5.683c-0.02-0.796,0.388-1.931,0.757-2.352
			C174.853,83.364,175.61,84.051,176.113,84.003z"/>
		<path style="fill:#292929;" d="M130.95,38.984c0.112,3.617-1.56,6.814-3.95,9.016l-3.251-3.779
			c1.501-2.501,2.642-5.189,3.424-8.063C128.538,36.893,129.701,38.016,130.95,38.984z"/>
		<path style="fill:#BCBCBC;" d="M111.152,21.079c-2.133,3.682-13.563,7.548-14.963,11.625c-0.543,1.831-1.384,1.828-1.919,0.018
			C90.955,30.849,89.531,28.942,90,27c1.007-1.813,2.955-2.094,5.842-0.842c0.487-1.736,1.435-1.973,3.156-1.158
			c1.332,0.443,2.45-0.134,3.355-1.731L110,19C110.535,19.607,110.987,20.269,111.152,21.079z"/>
		<path style="fill:#DADADA;" d="M12,86c0.894,0.246,0.873,0.582,0,1c1.183,0.125,1.517,0.791,1,2c2.909,0.401,4.619,6.066,4,9
			c1.819-0.261,1.765,0.739-0.161,3c-2.944,1.649-4.256-0.93-1.839-3c-0.283-0.365-0.695-0.655-1-1
			c-1.594-1.402-3.248-2.005-4.963-1.808C9.255,97.692,8.783,97.676,7,96c-0.354-0.312-0.687-0.647-1-1l-0.029-1.152
			c0.656-1.084,1.979-2.111,3.152-1.732c-0.766-1.924-0.511-4.135,0.021-6.102C7.52,85.286,7.931,83.94,9.756,84
			C10.608,82.52,11.356,83.187,12,86z"/>
		<path style="fill:#B7B7B7;" d="M9.144,86.013c1.461,0.601,1.727,1.887,1.554,3.476c-0.115,1.065-0.147,2.304-1.575,2.626
			c-0.96,0.368-1.999,0.671-3.115,0.911c-1.397-3.435,0.018-7.548,0.979-10.974C7.817,83.134,8.536,84.454,9.144,86.013z"/>
		<path style="fill:#363636;" d="M133.911,114.727c-0.687-0.231-1.258-0.857-2.047-0.861c-0.905-2.404-0.86-4.359,0.136-5.866
			c-0.995-2.506,0.42-4.568,3-5C136.678,106.627,137.021,111.906,133.911,114.727z"/>
		<path style="fill:#3F3F3F;" d="M108.811,17.824C107.984,18.981,104.694,18.65,103,18c-0.147,1.713-0.811,1.665-1,0
			c-1.524,1.272-2.057,0.726-1.021-0.979C98.924,14.914,98.597,13.574,100,13c-0.755-1.848,0.249-2.295,1.992-1.247
			C104.954,12.745,107.147,15.244,108.811,17.824z"/>
		<path style="fill:#585858;" d="M101.992,11.753c-0.6,0.51-1.274,0.924-1.992,1.247c0.962,2.171-3.867,0.733-4.412,0.218
			c-0.699-0.659-1.31-7.686,0.596-8.005C98.579,6.878,101.226,8.862,101.992,11.753z"/>
		<path style="fill:#626262;" d="M168.084,80.375c0.561,2.91-1.144,3.197-2.969,1.244c-1.53-2.233-3.168-4.673-3.031-7.59
			c1.924,0.338,3.907-0.169,4.773,1.559C167.696,77.26,168.036,78.786,168.084,80.375z"/>
		<path style="fill:#BCBCBC;" d="M23.937,79.087c1.112,2.358,0.861,2.78-1.745,2.913c-0.405,0.794-0.803,0.797-1.192,0
			c-4.809-0.936-7.144-0.115-7.004,2.465L12,86l-2.244-2c-1.389,0.572-2.285-0.336-2.688-2.724c-0.031-0.94,0.727-1.613,1.013-2.407
			l1.178-0.678C9.874,79.564,10.454,79.834,11,79l1.101-1.906c3.068,0.1,6.027,0.069,8.877-0.094
			C23.287,75.999,24.125,76.575,23.937,79.087z"/>
		<path style="fill:#474747;" d="M156.01,65.026c1.348,1.453,0.91,2.282-1.05,1.987c-1.153,0.416-2.533,1.258-3.507,1.18
			c-2.652-0.212-1.282-2.652-1.396-4.193c1.684-0.529,0.763-2.528,0.995-3.874C152.457,61.746,155.641,62.299,156.01,65.026z"/>
		<path style="fill:#4F4F4F;" d="M130,109c1.074-0.176,1.696,1.446,1.864,4.866c-0.94,0.73-2.121,1.012-3.338,1.067
			c-1.287,0.058-2.776-0.242-2.526-1.933c0.918-1.579,0.874-3.575,1.992-5.071C129.952,105.97,130.534,106.281,130,109z"/>
		<path style="fill:#E6E6E6;" d="M49,90c0.835,0.33,0.834,0.663,0,1c2.718,0.674,2.67,4.023,1,6c-2.368,5.309-0.334,11.379-1,17.047
			c-0.363,0.051-0.757-0.115-1.115-0.042L48,98c-2.772-0.443-2.412-0.858,0-2c-3.127-0.57-2.988-9.161,0-10
			c0.292-0.882,0.659-0.878,1.097-0.029C51.913,86.423,51.378,89.145,49,90z"/>
		<path style="fill:#484848;" d="M185.152,100.908l-4.121-0.009c0.004-2.242,1.021-3.767,2.22-5.104
			c0.713-1.629,1.572-2.497,2.73-0.919c1.325,0.819,2.115,1.368,1.293,2.877C186.64,98.92,186.092,100.052,185.152,100.908z"/>
		<path style="fill:#555555;" d="M123,111c1.382-1.322,1.877-0.76,1,1l-0.176,2.782c-2.324,0.121-5.133,0.091-6.814-1.711
			c-1.318-1.819,0.012-2.842,3.99-3.071c-1.171-1.563-0.59-2.107,1.063-1.029C122,109.774,122.28,110.583,123,111z"/>
		<path style="fill:#DBDBDB;" d="M31,71c-0.011,2.999-5.513,2.851-6,0c-1.113,1.189-2.113,1.522-3,1c-0.482,2.236-1.321,2.699-3,1
			h-7c-0.284,0.873-0.618,0.86-1,0c-0.88,0.931-1.856,1.36-2.163,0l0.071-1.06C16.161,70.241,23.842,71.079,31,69
			C33.775,69.446,33.41,69.85,31,71z"/>
		<path style="fill:#A3A3A3;" d="M96.184,5.213c-0.089,2.421-0.409,4.856-0.128,7.569C97.77,13.189,98.873,13.075,100,13
			l0.979,4.021c-0.508,0.586-1.205,1.263-1.887,1.092C98.39,17.937,94.67,14.835,94,14c1.556-1.636-1.461-6.163,0.745-10.034
			C95.312,4.234,95.671,4.856,96.184,5.213z"/>
		<path style="fill:#606060;" d="M20.803,111.134c-0.154,0.608,0.207,1.96-0.274,2.52c-2.432,0.901-5.005,0.758-6.661-0.786
			c2.468-0.974,3.88-3.694,4.192-7.092C20.409,107.239,19.432,109.605,20.803,111.134z"/>
		<path style="fill:#535353;" d="M115,110c2.179,0.152,2.849,1.175,2.01,3.071c0.328,2.455-5.242,1.666-7.653,1.696
			C110.668,112.65,112.331,110,115,110z"/>
		<path style="fill:#B2B2B2;" d="M22,72c0.909,0.36,0.934,0.766,0.071,1.22c2.446,1.528,1.747,3.753-1.093,3.78
			c-3.594,0.069-7.254,0.069-10.978,0c-0.551,2.038-1.415,1.094-2.003-0.738L8,75l3-2h1h7C19.94,71.941,20.904,72.451,22,72z"/>
		<path style="fill:#616161;" d="M169.801,80.913c1.427-0.899,2.667,0.57,1.283,1.864c-0.25,2.109-1.658,2.552-4.238,2.034
			c-1.734-0.348-1.86-1.509-1.731-3.192c0.648-1.018,2.138-0.454,2.969-1.244C168.512,80.798,169.361,80.609,169.801,80.913z"/>
		<path style="fill:#DDDDDD;" d="M51,32c0.873,0.284,0.86,0.618,0,1l-0.184,1.36C53.037,35.093,53.765,36.306,53,38
			c2.587,0.24,2.587,0.907,0,2c-0.319,2.656-1.239,2.541-2,0c-1.306-0.589-1.64-1.256-1-2c-1.671-0.924-3.435-2.053-4-4
			c-0.419,0.608-0.752,0.274-1-1c-0.716-0.999-1.371-2.043-2-3.097c0.28-0.14,0.688,0.047,1-0.016C45.81,32.135,48.409,31.989,51,32
			z"/>
		<path style="fill:#A2A2A2;" d="M39,43c2.702,2.352-2.617,7.508-5,5c2.529-3.125-1.976-11.915-3.997-10.984
			c1.052-0.551,1.843-1.533,2.997-2.11c-0.755,1.489,3.144,8.698,3.502,8.784C37.125,43.838,38.291,43.072,39,43z"/>
		<path style="fill:#999999;" d="M122.026,31.029c-1.901,1.283-1.798,3.994-3.921,5.076c-2.038-0.83-2.168-2.534-0.39-5.113
			l-2.617-1.894c-1.01-1.173-0.525-3.405,0.913-3.99C117.402,27.773,120.437,28.543,122.026,31.029z"/>
		<path style="fill:#4A4A4A;" d="M184.887,102.163c-0.451,2.134-1.277,4.678-3.722,5.034l-2.241-1.331
			c0.145-1.117,0.279-2.706,1.133-3.228C181.742,101.608,183.375,102.026,184.887,102.163z"/>
		<path style="fill:#535353;" d="M21.005,41.879C23.183,43.478,21.848,44.852,17,46c-1.661,1.061-3.399,2.04-5.118,3
			C10.096,46.498,19.489,42.147,21.005,41.879z"/>
		<path style="fill:#565656;" d="M143,112l2,3h-9C137.703,113.018,140.403,111.951,143,112z"/>
		<path style="fill:#414141;" d="M3.816,102c0.418-0.718,0.506-2.35,0.625-3.171c1.401,0.273,3.001,1.665,3.19,2.938
			c0.265,1.784-1.741,3.314-3.426,3.279L3.816,102z"/>
		<path style="fill:#2E2E2E;" d="M173.795,110.415c-0.028,1.056-0.53,1.987-0.853,2.966c-0.202,0.613-0.357,1.154-0.805,1.265
			c-0.756,0.186-1.577,0.374-2.085,0.124c-2.209-2.23-2.053-6.197,1.144-5.803C173.367,107.72,173.714,107.913,173.795,110.415z"/>
		<path style="fill:#C1C1C1;" d="M171.197,108.966c-1.613,1.485-1.789,3.785-1.144,5.803c-0.823-0.407-1.436-1.167-2.026-1.845
			c-0.437-0.502-0.983-1.226-1.026-1.924c0.978-0.651,1.21-1.869,1.286-2.987c0.146-2.095,0.915-3.366,2.911-1.934
			C174.09,105.895,173.892,108.287,171.197,108.966z"/>
		<path style="fill:#454545;" d="M8,114H6l0.091-5.948c1.73,0.743,2.835,1.504,3.587,2.838C10.438,112.237,9.21,113.162,8,114z"/>
		<path style="fill:#B9B9B9;" d="M135,44c0.878-0.012,1.603,0.319,2.131,1.005c-0.757,0.08-1.802-0.258-2.594,0.047
			c-1.8,0.693,0.703,5.204,0.463,9.948c-0.46,0.265-0.924,0.478-1.401,0.511c-2.036,0.14-2.596-8.661-2.599-10.511
			c0.293-0.675,0.405-1.461,1-2C132.964,42.652,133.964,42.986,135,44z"/>
		<path style="fill:#A5A5A5;" d="M25,46c-2.567-1.336-5.272-0.465-8,0c1.659-1.059,3.811-2.159,4.005-4.121
			c0.311-0.275,0.619-0.314,0.924-0.008C22.512,43.564,24.269,44.391,25,46z"/>
		<path style="fill:#C1C1C1;" d="M23,55c1.474,2.636,0.636,3.474-2,2c0.072-0.802-0.897-1.019-1.943-1.014l-8.085,0.038
			c0.118-0.28-0.011-0.715,0-1.024H23z"/>
		<path style="fill:#B5B5B5;" d="M76.688,15.291c-0.351,2.345-0.674,4.579-1.648,6.709c-0.114-0.41,0.155-1.56-0.73-1.192
			c0.545-1.563,0.735-3.365-0.239-4.826c-0.626-1.959,0.295-2.284,1.738-0.736C76.08,15.177,76.407,15.327,76.688,15.291z"/>
		<path style="fill:#454545;" d="M3,108v-2c0.187,0.034,1.495-0.331,1.654,0.247c0.578,2.101,0.937,4.273-0.468,6.312
			C2.071,111.127,3,109.369,3,108z"/>
		<path style="fill:#414141;" d="M10,77c2.692-0.639,3.102,0.182,1,2c0.007,1.132,0.391,2.444-0.472,4.074
			c-0.814-1.572-1.021-3.245-2.447-4.205c0.275-0.765-0.086-1.806-0.084-2.606C8.543,76.682,9.451,76.695,10,77z"/>
		<path style="fill:#5C5C5C;" d="M75.808,15.247c-0.61,0.157-1.177,0.458-1.738,0.736c-0.553-0.83-2.906-1.275-1.631-2.263
			c0.82-0.636,2.5-1.99,3.145-1.523C76.294,12.711,75.888,14.876,75.808,15.247z"/>
		<path style="fill:#686868;" d="M9.756,84c-0.111,0.697-0.213,1.415-0.612,2.013c-1.314,0.844-2.231-0.366-2.206-1.487
			c0.02-0.893-0.024-1.683,0.048-2.473c0.067-0.24,0.09-0.527,0.081-0.777C8.311,81.769,9.043,82.917,9.756,84z"/>
		<path style="fill:#4F4F4F;" d="M13.868,112.868l-0.921,0.009c-1.285,0.538-2.031,0.038-2.051-1.362
			c-0.013-0.927,0.585-1.579,1.412-1.528c0.731,0.045,2.327-0.446,2.385,0.867C14.718,111.393,13.141,112.02,13.868,112.868z"/>
		<path style="fill:#8F8F8F;" d="M127.173,36.157C126.235,46.124,123.387,39.694,127,48c-1.514,2.705-8.214-2.239-7-5l4.441,0.638
			l1.548-8.682C126.24,35.266,126.806,35.951,127.173,36.157z"/>
		<path style="fill:#656565;" d="M162.085,74.03c-0.761-0.353-1.573-0.812-1.91-1.666c-0.305-0.772,0.076-1.638,0.605-2.285
			c1.208,0.433,3.399,1.205,2.86,2.77C163.449,73.402,161.243,72.956,162.085,74.03z"/>
		<path style="fill:#515151;" d="M173,80.95c0.061,0.374,0.118,0.9-0.151,1.312c-0.323,0.495-1.157,0.508-1.765,0.515
			c-0.48-0.52-0.691-1.453-1.283-1.864c-0.128-0.842,0.563-1.899,1.285-1.317C171.728,80.115,172.46,80.46,173,80.95z"/>
		<path style="fill:#949494;" d="M185.982,94.877c-0.928,0.249-1.838,0.559-2.73,0.919c0.061-1.049,0.373-2.057,0.845-2.992
			C185.081,92.728,185.488,94.189,185.982,94.877z"/>
		<path style="fill:#BABABA;" d="M108.811,17.824c0.288,0.446,0.835,0.774,1.189,1.176c-1.866,2.565-8.341,3.503-7-1L108.811,17.824
			z"/>
		<path style="fill:#919191;" d="M29,107c-1.589,2.063-2.66,4.45-3,7.037c-0.567-0.07-1.331,0.178-1.856-0.034l2.759-5.854
			c-1.96-1.604-4.055-2.948-3.775-5.238C25.207,100.425,28.531,104.615,29,107z"/>
		<path style="fill:#3C3C3C;" d="M157.984,66.029c0.153,0.716,0.45,1.517-0.469,1.99c-0.877,0.451-1.896-1.045-2.554-1.006
			c0.302-0.687,0.654-1.35,1.05-1.987C156.703,65.285,157.354,65.644,157.984,66.029z"/>
		<path style="fill:#606060;" d="M9.123,92.115c-0.406,1.379-1.821,1.827-3.152,1.732c-0.006-0.253,0.13-0.592,0.037-0.822
			c0.179-0.554,0.474-1.132,0.951-1.607C7.674,90.707,8.436,91.748,9.123,92.115z"/>
		<path style="fill:#505050;" d="M135,44c-1.068,0.015-2.594,0.243-3-1c0.201-0.523-0.121-1.415,0-2
			C133.312,41.64,134.423,42.646,135,44z"/>
		<path style="fill:#363636;" d="M11,73c-0.341,1.372-1.646,2.044-3,2c0.002-0.728,0.386-1.423,0.837-2H11z"/>
		<path style="fill:#262626;" d="M43,43c6.245,2.914,11.665,11.122,12,18v2c0.882,1.294,0.371,1.786-1,1
			c-2.243,1.387-3.946,3.168-5.108,5.341c-1.362-0.892-3.208-0.666-5.54,0.678C41.027,69.396,39.91,68.39,40,67l-1.428,0.192
			C38.23,64.79,37.373,62.392,36,60c-3.371-0.658-5.5-4.911-4-8c-1.501-0.547-1.167-1.547,1-3c0.41-0.227,0.622-0.752,1-1
			c1.95-1.282,3.902-2.884,5-5C40.667,41.666,43.157,40.254,43,43z"/>
		<path style="fill:#4A4A4A;" d="M104.829,63.927c1.49-2.599,5.417,0.501,4.171,3.073l4,3c2.124-0.86,3.084,0.18,2.882,3.118
			c2.512-1.482,6.341,3.774,5.199,6.05c-0.039,0.918-0.286,0.869-0.717-0.031L112,84c-1.929,1.729-3.596,1.729-5,0
			c-1.663,2.573-3.213,2.026-3-1C102.701,83.433,101.988,60.946,104.829,63.927z"/>
		<path style="fill:#2C2C2C;" d="M51,40h2c0.879-1.625,1.212-1.292,1,1c1.396-1.454,1.987-0.858,1,1
			c0.426,3.324,3.947,4.958,6.379,7.749C61.784,50.625,56.484,62.88,55,61c-3.618-6.217-7.608-12.305-12-18
			c-2.657-0.318-1.618-1.635,0.171-2.929c0.908-0.242,1.561-1.139,1.9-1.948C45.503,36.345,49.47,38.724,51,40z"/>
		<path style="fill:#242424;" d="M106,43c0.537,0.093,0.962,0.206,0.996,0.39c1.093,5.978-1.082,6.505-0.013,0.402
			c0.06-0.34,0.474-0.619,0.99-0.879c0.172-1.587,1.593-1.652,4.265-0.196c-0.688,1.072-0.493,2.185,0.584,3.339
			c1.199,3.426,1.258,7.074,0.177,10.943c-6.681-0.366-14.695,0.469-19-5c-2.204-1.568-1.52-2.612,1-3c0.447-2.336,1.973-3.846,4-5
			c-1.331-1.541-0.756-2.113,1-1C100.357,40.663,102.357,40.663,106,43z"/>
		<path style="fill:#373737;" d="M98,90c-1.184,0.801-1.839,0.414-2-1l-6.223,0.533c-0.15,1.795-2.554,1.017-2.935-0.096
			C86.713,89.061,88.482,83.285,89,82c0.962-2.304,1.415-4.537,1.357-6.7L92,75l9.992,0.047l0.013,14.79
			C100.287,90.224,99.152,89.994,98,90z"/>
		<path style="fill:#666666;" d="M127,64c1.98,1.391,2.868,3.869,5.069,4.937c0.538,1.969-0.205,6.137-2.689,6.796
			c-1.765,0.468-3.679-0.176-4.38,1.267c0.602,2.813-1.84,4.518-3.919,2.168c-2.293-1.506-3.487-3.994-5.199-6.05
			c-1.546-1.566-1.173-3.272,1.118-5.118c-0.226-0.922,0.116-1.247,1.026-0.974C119.426,63.745,124.308,61.343,127,64z"/>
		<path style="fill:#494949;" d="M98,90c-1.06,2.251,2.774,0.32,3.975,1.185l0.009,17.793c-1.109-0.243-1.594-0.884-2.338-0.891
			c-0.983,0.092-1.198-0.27-0.646-1.087c-3.372-3.56-6.705-7.227-10-11c-3.665-3.046-2.41-8.016,3.02-6.395L96,89
			c0.227-0.217,1.162,0.022,1.476,0.024C97.79,89.027,97.897,89.653,98,90z"/>
		<path style="fill:#454545;" d="M121,63c-0.946,1.247-1.937,2.589-2.974,4.026C117.71,67.363,117.372,67.727,117,68
			c-1.29,3.222-2.623,3.889-4,2l-4-3l-4.171-3.073c-1.136-0.837-2.633-4.669-1.284-5.25c4.416-1.901,17.333,0.819,17.364,0.879
			C121.394,60.483,120.848,61.997,121,63z"/>
		<path style="fill:#4C4C4C;" d="M80,53c3.001-2.25,4.59,1.265,2.261,4.47c-4.235,3.504-7.855,7.404-10.86,11.698l-4.487-1.143
			c-0.862-0.592-1.8-1.077-3.141-1.725c-1.4-0.677-0.633-2.305,0.057-2.951C62.144,61.333,62.341,60.89,65,61
			c1.272-3.088,2.413-3.882,3.423-2.383L78,54C77.137,51.428,78.228,51.077,80,53z"/>
		<path style="fill:#393939;" d="M117,42c0.835,0.363,2.309,0.506,3,1l7,5c-0.907,2.827-0.195,8.081-4,9
			c-4.022,0.475-8.654-3.412-7.858-7.564c-0.928,0.502-1.701-0.624-2.319-3.379c-2.945-3.578-2.796-5.052,0.447-4.422
			C115.353,40.259,116.597,40.38,117,42z"/>
		<path style="fill:#4C4C4C;" d="M80,29c0.846,2.637,1.022,5.495,0.528,8.574c1.267,1.65,0.699,3.14-1.704,4.471
			c-1.568,1.16-3.176,2.075-4.824,2.745c-1.183,0.107-2.107,1.035-3.806,0.866C71.318,39.83,72.387,34.342,74,29
			C74.858,27.395,80.624,26.442,80,29z"/>
		<path style="fill:#565656;" d="M67,34c2.554-1.272,3.821,0.366,3,3c-0.611,3.163,0.634,7.767-2.83,9.804
			c-1.44,0.847-3.004,1.71-4.412,1.824C61.317,48.745,60.957,46.759,60,46c-0.754-1.779-0.936-3.868-0.544-6.264
			c-1.749-0.26-1.449-1.154,0.9-2.684c-0.248-2.896,0.211-3.676,1.379-2.342C64.027,33.643,65.782,33.407,67,34z"/>
		<path style="fill:#363636;" d="M93,72c-1.424-1.196-2.424-2.863-3-5c-2.798-0.468-2.391-0.795,0-2c0.391-2.355,2.976-1.717,5-1
			c0.562-0.819,2.038-1.476,3-1c0.979-0.222,2.287,0.007,3.91,0.096l0.065,10.846C98.563,73.723,92.448,75.333,93,72z"/>
		<path style="fill:#363636;" d="M133,59c1.978-1.72,2.904-1.629,2.78,0.273c0.852,0.156,1.388,1.524,2.22,1.727
			c2.778,1.962,6.281,4.832,7,8l-12.931-0.063c-0.334-2.659-2.692-4.317-4.227-6.942c0.633-1.038,1.565-1.436,2.158-1.995
			C130.409,57.328,131.055,57.104,133,59z"/>
		<path style="fill:#515151;" d="M67.213,71.906C68.889,70.677,69.398,71.384,68,73c2.988,2.835,3.654,4.835,2,6
			c2.155,1.94,1.881,2.778-1,3c-1.091,1.373-2.758,1.04-5-1l-5-3c-3.064-0.589-4.797-3.543-1-4c-0.218-2.921,3.064-6.082,5.682-3.94
			C64.843,70.71,66.012,71.336,67.213,71.906z"/>
		<path style="fill:#4F4F4F;" d="M98,62c-0.507,0.853-2.027,1.587-3,1c-1.33,0.927-4.83,1.377-5-1c-3.186,0.527-4.514-2.426-3-5
			c-1.518-0.718-0.852-1.385,2-2c-1.319-1.343-0.754-1.789,1-1c1.787,1.418,11.946,1.781,11.987,4.536
			c0.016,1.113,0.333,2.816-0.83,3.299C100.416,62.143,98.823,62.228,98,62z"/>
		<path style="fill:#4D4D4D;" d="M81,51c2.009,1.796,1.751,2.138-1,2c-0.344,0.687-1.432,0.544-2,1l-11.415,5.396
			c-0.44-1.858-0.236-3.716,0.643-5.396c-0.78-0.417-0.719-0.749,0.15-1c1.211-1.472,0.896-3.477,2.343-5.799
			C73.715,47.741,77.775,48.941,81,51z"/>
		<path style="fill:#1F1F1F;" d="M90.123,42.877C91.414,40.148,96.129,43.338,95,46c1.406-0.323,1.406,0.677,0,3
			c0,1.062-0.489,2.082-1,3c-3.915,1.513-8.329-1.296-12-3c-0.477-1.253,4.795-7.171,5.933-7.872L90.123,42.877z"/>
		<path style="fill:#3B3B3B;" d="M135,55c1.736,1.451,0.323,4.003-2,4c-0.951,0.353-1.965,0.882-3,1
			c-1.858,0.213-3.987,0.232-4.869-1.464L131,45C134.322,45.582,132.98,53.99,135,55z"/>
		<path style="fill:#393939;" d="M63.682,70.06C61.441,70.914,60.311,73.251,58,74c-0.018,2.684-1.684,2.684-5,0
			c-2.498-0.728-2.498-2.395,0-5c-1.298-1.383,2.046-5.301,3.814-5.076C60.173,64.096,62.048,67.375,63.682,70.06z"/>
		<path style="fill:#494949;" d="M67.378,53c0.129,0.229-0.168,0.742-0.15,1l-0.748,3.477C67.939,57.948,67.446,59.122,65,61
			c-0.311,0.856-0.46,1.683-1.171,2.349c-0.784,0.932-2.134,2.151-2.842,1.095c-0.521-0.776-2.614-1.862-2.556-3.088
			c0.045-0.943,3.682-12.653,8.053-11.31C67.362,50.316,66.877,52.109,67.378,53z"/>
		<path style="fill:#565656;" d="M111,105c0.884,0.712,2.031,1.456,2.056,2.525c0.032,1.365-5.54,7.628-8.056,6.475
			c-1.728-3.09-2.313-6.471-2-10C105.824,102.114,108.909,101.888,111,105z"/>
		<path style="fill:#585858;" d="M117.887,85.228c0.588,3.238-0.087,4.448-2.026,3.633c-2.163,1.373-2.162,4.709-4.957,6.092
			c-1.368-0.206-2.529-2.833-3.904-2.953v-2c1.107-3.383,2.774-5.383,5-6c2.033,0,3.666-1.182,6.117-2.289
			C118.695,83.133,117.946,84.144,117.887,85.228z"/>
		<path style="fill:#424242;" d="M99,107c0.139,0.38,0.458,0.73,0.646,1.087c1.006,1.911,2.665,3.583,2.501,5.848l-10.345-0.029
			c0.67-2.749,2.001-4.589,2.198-6.905c-0.235-0.902,0.098-1.235,1-1C94.539,101.689,97.205,104.658,99,107z"/>
		<path style="fill:#2A2A2A;" d="M80,49c-2.102-0.663-4.234-1.51-5.858-3.026c2.429-2.091,4.729-4.34,6.898-6.747
			c1.636-0.149,3.289-0.492,4.96-1.03c1.119,0.153,1.896,1.43,2.33,3.829C85.419,44.269,82.643,46.594,80,49z"/>
		<path style="fill:#5C5C5C;" d="M90,67l2,5v2l-0.953,1.434c-2.47-0.887-5.068-1.494-7.792-1.819
			c-4.038,1.321-4.479,0.093-1.323-3.683C80.088,67.909,81.422,66.306,84,67c0.016-0.711,0.073-1.277,0.274-1.333
			C84.581,65.58,89.692,66.659,90,67z"/>
		<path style="fill:#BCBCBC;" d="M58,26c0.249,2.597,0.792,5.308,2.176,8.044C62.971,34.496,65.125,33.283,67,32
			c1.89,0.553,1.913,1.435,0,2c-1.724,0.232-4.544,0.292-5.671,2.251C59.528,39.382,60.02,42.932,60,46
			c-0.834-0.662-1.225-1.603-2.066-2.136C57.518,41.142,56.207,40.188,54,41l-1-1v-2c1.465-1.203,0.945-2.318-1.558-3.345L51,33v-1
			c2.143,0.009,4.251,1.652,7.027,0.842c0.095-2.612-1.147-4.788-2.184-6.795C56.483,25.859,57.411,26.298,58,26z"/>
		<path style="fill:#C7C7C7;" d="M82,33c0.126,4.19,0.103,5.103-0.071,2.74L83,35c4.32-1.693,6.48-2.54,6.48-2.54l1.927,1.377
			c6.276-0.184,0.589,7.183-3.262,3.165c-0.565,2.205-1.28,2.603-2.144,1.194c-4.103,2.35-7.943,5.128-11.858,7.777L74,44.79
			c0.777-2.052,4.428-2.306,5.418-4.317C81.048,36.881,79.468,32.568,80,29C83.352,27.913,84.809,30.855,82,33z"/>
		<path style="fill:#4E4E4E;" d="M66.913,68.026c3.204-0.002,5.263,0.905,6.178,2.722c1.442-1.589,2.104-0.979,1.129,1
			c2.949,1.541,3.607,2.517,1.972,2.928C76.286,76.229,75.888,77.337,75,78l-0.311,1.386C71.901,78.145,69.671,76.016,68,73
			c-0.065-0.339-0.468-0.943-0.787-1.094c-0.397-1.343-1.438-2.221-2.303-3.616C65.936,67.834,66.504,68.447,66.913,68.026z"/>
		<path style="fill:#B4B4B4;" d="M92,74c0,0.286,0.139,0.76,0,1c-1.296,2.227-1.332,4.945-3,7c-2-0.29-2.473-1.926-1.418-4.907
			c-2.806-0.729-5.197-1.167-7.172-1.313c-1.17,1.256-2.46,2.36-4.278,2.22c-0.379,0.849-0.756,0.85-1.131,0
			c0.618-2.164,0.337-4.301-0.78-6.252c0.521-1.463,1.685-1.717,3.494-0.762c1.259-1.351,2.312-2.057,4.218-1.054
			c0.288,1.133-1.113,2.181-0.509,2.998C85.84,73.059,88.765,74.531,92,74z"/>
		<path style="fill:#B5B5B5;" d="M85,55c1.238,2.048,0.726,3.448-2,3l-1.384,3.819c0,0-2.841,2.976-8.524,8.929
			c-2.281-0.161-4.312-1.441-6.178-2.722c1.087-0.219,3.212,0.463,4.329-0.751C75.776,62.349,88.33,52.849,80,53l1-2
			c0.32,0.056,0.69-0.089,1,0C85.064,52.271,86.064,53.604,85,55z"/>
		<path style="fill:#2E2E2E;" d="M123,57c-1.034,0.25-1.787,1.813-3.856,0.895C117.42,57.13,115.568,56.944,114,57
			c-0.775-1.951-1.35-7.403,1.142-7.564C117.42,52.228,120.049,54.949,123,57z"/>
		<path style="fill:#6E6E6E;" d="M107,84c3.131,0.004,3.131,2.004,0,6c-0.924,0.563-3.604,1.983-3.835,0.351
			c-0.426-3.015-0.63-5.628,0.835-7.351C104.946,83.393,105.945,84,107,84z"/>
		<path style="fill:#424242;" d="M70,37c-0.973-1.035-2.347-1.663-3-3c0.138-0.624-0.189-1.392,0-2c1.033-3.218,2.033-4.218,3-3
			c0.542,0.016,1.687,0.181,1.912,1.001C72.7,32.873,70.4,34.929,70,37z"/>
		<path style="fill:#676767;" d="M110,97c-0.331,3.895-1.931,8.547-6,5v-2c-0.126-2.363,0.136-5.31,2.738-6
			C108.138,94.612,109.23,95.692,110,97z"/>
		<path style="fill:#5A5A5A;" d="M107,92l-0.262,2c-0.296,2.256-0.989,4.475-2.738,6c-1.734-2.044-1.034-4.883-0.874-7.929
			C104.709,91.969,105.856,91.901,107,92z"/>
		<path style="fill:#8E8E8E;" d="M90.123,42.877C86.378,42.666,84.135,46.257,82,49c-0.626-0.138-1.391,0.192-2,0
			c1.818-4.021,9.691-6.803,6-10.803c0.71-0.407,1.386-0.876,2.144-1.194C90.228,38.17,91.192,40.682,90.123,42.877z"/>
		<path style="fill:#B0B0B0;" d="M111,98.409c1.009,1.97,1.009,4.167,0,6.591c-2.615-0.743-5.267-1.313-8-1
			c0.071-0.799-0.218-1.992,1-2c1.135-0.007,3.175,0.568,4.038-0.888c0.89-1.501,0.662-3.329,1.962-4.112
			C110.292,97.496,110.668,97.941,111,98.409z"/>
		<path style="fill:#3F3F3F;" d="M56.814,63.924L53,69c-2.196,4.744-3.384,4.992-3.564,0.746l-1.405-0.959L54,64
			c0.177-0.419,0.727-0.652,1-1c0.352-0.076,0.994-0.867,1.48-0.684C56.967,62.5,56.768,63.59,56.814,63.924z"/>
		<path style="fill:#474747;" d="M57.934,43.864L55,42c-0.047-0.369-0.75-0.75-1-1c-0.403-2.036,1.176-1.861,2.481-2.111
			c2.026-0.389,2.776,0.814,2.574,2.516C58.964,42.176,58.891,43.304,57.934,43.864z"/>
		<path style="fill:#BBBBBB;" d="M71,25v1c1.273,1.211,0.615,1.636-1,2c-0.087,0.309,0.057,0.683,0,1c-1.412,0.496-1.844,2.209-3,3
			c1.064-3.422,0.857-6.569-0.136-9.961c1.514,0.369,1.645,2.052,2.399,3.963C69.953,25.764,70.408,25.157,71,25z"/>
		<path style="fill:#3E3E3E;" d="M90,54l-1,1c-1.53,1.033-2.497,1.129-4,0l-3-4C84.737,51.785,87.74,52.207,90,54z"/>
		<path style="fill:#B0B0B0;" d="M126,62c0.432,0.525,0.495,1.573,1,2c-3.522-0.691-6.533,0.427-8.974,3.026
			c-0.076-1.906,1.31-3.289,2.974-4.026c0.436-0.193,0.741-0.623,1-1C121.925,59.444,124.47,60.639,126,62z"/>
		<path style="fill:#C0C0C0;" d="M81,26c2.139,1.555,1.518,2.407-1,3c-1.83-1.349-3.884-0.156-6,0c0.178-0.589-0.294-1.468,0-2
			C76.387,27.243,78.721,26.677,81,26z"/>
		<path style="fill:#9B9B9B;" d="M115.142,49.436c-1.853,2.02-1.007,5.003-1.142,7.564c-0.331,0.012-0.67,0.018-1,0
			c-0.016-3.646,0.085-7.303-0.177-10.943C114.379,46.777,114.216,48.302,115.142,49.436z"/>
		<path style="fill:#747474;" d="M126,62h-4c0.012-0.669-0.443-3.075,0.817-2.974C124.704,59.177,125.292,61.14,126,62z"/>
		<path style="fill:#B0B0B0;" d="M93,72h-1c-1.606-1.145-2-3.094-2-5C91.705,68.11,91.966,70.339,93,72z"/>
		<path style="fill:#8F8F8F;" d="M98,62v1c-0.878,0.658-1.81,1.169-3,1c-0.873-0.284-0.86-0.618,0-1
			C96.021,62.683,96.666,61.63,98,62z"/>
		<path style="fill:#5D5D5D;" d="M70,28c0.203-0.722,0.623-1.36,1-2c0.583,0.038,1.156-0.089,1.514,0.044
			c0.464,0.172,0.991,1.26,0.237,1.743C71.844,28.367,70.741,27.836,70,28z"/>
		<path style="fill:#252525;" d="M47,81c2.571-1.496,2.349,3.454,1,5v10c-0.462,1.744-5.098,2.541-5,0c-0.436-0.186-0.628-0.768-1-1
			l-3.811-5.189c-0.727-0.607-1.445-1.224-2.226-1.764C34.05,86.95,34.062,84.934,36,82c-0.099-2.568,0.919-3.404,3.054-2.508
			C42.948,78.669,45.597,79.172,47,81z"/>
		<path style="fill:#1A1A1A;" d="M33,105l-4,2c-2.68,0.077-3.689-2.875-5.871-4.089c-1.101-0.613-2.675-1.838-3.27-2.816
			c-1.442-0.78-1.516-1.968-0.222-3.567c-0.63-1.774,0.405-2.615,3.105-2.524L25,93c-0.957-2.582-0.334-2.755,1.714-1
			c2.24,0.701,2.46,3.531,4.02,5.205C33.011,99.649,34.983,102.13,33,105z"/>
		<path style="fill:#1D1D1D;" d="M36,82c-0.541,3.543-1.886,5.198-4.034,4.966c-0.983,0.703-2.125,0.955-2.95,1.937
			C25.702,91.123,21.431,86.422,23,83c-1.608,0.192-1.883,0.158-0.808-1c0.029-0.976,0.894-2.435,1.745-2.913L31,77
			c1.822-2.137,2.954-2.168,3.395-0.093C37.837,79.145,38.372,80.843,36,82z"/>
		<path style="fill:#1E1E1E;" d="M23,83c1.693,2.216,3.34,4.909,6.016,5.903C28.184,89.892,27,90.61,26.714,92
			c-0.38,0.49-1.385,0.501-1.714,1l-5.213,2.394L18,92c-2.443,0.234-3.175-0.83-2-3c-0.513-0.553-0.89-1.014-0.795-1.155
			C16.177,86.411,21.236,81.843,23,83z"/>
		<path style="fill:#9C9C9C;" d="M35.963,88.047c-1.174-0.812-2.585-1.076-3.997-1.081C33.717,85.714,34.697,83.657,36,82
			C35.734,84.028,35.191,86.081,35.963,88.047z"/>
		<path style="fill:#888888;" d="M48,96v2c-1.584-0.13-3.219-0.074-4.719,1.018C42.767,97.575,43.01,96.822,43,96
			C44.466,97.247,46.34,96.547,48,96z"/>
		<path style="fill:#969696;" d="M42,95c-1.927-1.202-4.221-2.695-3.811-5.189C39.877,91.22,41.919,92.649,42,95z"/>
		<path style="fill:#3D3D3D;" d="M160.64,85.297c1.486,2.599-1.4,4.533-3.64,2.703c-0.606,0.418-1.128,0.709-1.356,0.558
			c-0.376-0.25-6.352-5.783-6.502-6.209c-0.136-0.386,0.076-4.287,0.858-4.349c-0.405-0.849-0.026-1.151,1-1
			c0.809-0.131,1.753,0.52,3.012-0.529c-1.819-0.468-3.315-4.628-1.484-6.061c2.418-1.892,6.843,1.262,6.516,4.052
			c-1.74,1.05-3.292-0.341-4.245,1.521c3.745-0.013,5.782,0.152,6.552,3.278C161.86,81.324,162.405,83.564,160.64,85.297z"/>
		<path style="fill:#545454;" d="M138.913,71.058c3.337-0.534,9.055,2.381,8.087,5.942c1.929,0.975,2.995,2.901,3.197,5.779L147,83
			c1.088,2.608-0.035,3.049-2,1c-2.644,0.655-4.679-0.739-6-3c-2.628,0.512-2.601,0.28-1.11-1.89L136,74
			c-2.268,1.145-3.155-0.712-1.136-2.131C135.693,70.375,137.893,71.458,138.913,71.058z"/>
		<path style="fill:#454545;" d="M126.806,91.013c-2.934,0.177-6.449-5.092-5.659-8.16c-0.393-1.208-0.654-2.453-0.782-3.717
			c0.231-0.018,0.491,0.078,0.717,0.031c1.432-0.294,2.585-1.807,3.919-2.168c1.784-0.482,3.649-0.644,6.066-1.047
			C130.277,79.471,129.953,91.68,126.806,91.013z"/>
		<path style="fill:#4F4F4F;" d="M160.74,86.144c1.584-0.316,3.048-0.023,2.937,1.806c0.172,1.654-0.375,5.049,1.318,6.922
			c1.386,1.534,1.367,5.533-0.809,5.419c-0.689-0.26-1.461-1.214-2.186-1.291l-7-4c-0.873-0.284-0.86-0.618,0-1
			c-2.656-0.319-2.541-1.239,0-2c0.083-2.733,0.75-4.066,2-4l3.64-2.703C160.447,85.627,160.527,85.855,160.74,86.144z"/>
		<path style="fill:#424242;" d="M134.864,71.869c-0.036,0.904,0.41,1.639,1.136,2.131l1.89,5.11c0.478,0.439,0.78,1.324,1.11,1.89
			c0.131,1.891,1.343,3.96-0.432,5.032c-1.492,0.901-2.352,3.495-4.274,2.786c-0.333-0.877-0.909-2.226-1.294-2.818
			c-1.239,0.255-1.572-0.745-1-3C131.569,82.442,132.264,67.893,134.864,71.869z"/>
		<path style="fill:#424242;" d="M132.984,98.341c0.494-0.072,1.003-0.392,1.953-0.253c0.224,1.952,0.072,3.404,0.063,4.912
			c-0.189,2.017-1.506,3.688-3,5c-0.438,1.688-0.675,2.561-2,1c-0.63-0.427-1.304-0.783-2.008-1.071
			c-1.269-2.733,0.464-5.339,1.063-7.803C129.668,96.717,131.27,94.288,132.984,98.341z"/>
		<path style="fill:#373737;" d="M151,77c-0.312,0.354-0.646,0.688-1,1c-0.529,0.877-1.529,0.544-3-1l-8.087-5.942
			c3.371-2.121,7.635-0.753,12.032-1.031L151,77z"/>
		<path style="fill:#464646;" d="M126.806,91.013c-0.024,1.269-0.299,2.504-0.727,3.693c1.469,0.134,1.402,0.872-0.079,1.294
			c0.315,2.676-0.122,2.916-2,1c-1.782-0.223-2.966-1.647-2.853-3.556c-0.976-3.264-2.273-7.65,0-10.591
			C124.505,87.726,124.429,85.767,126.806,91.013z"/>
		<path style="fill:#4C4C4C;" d="M121,97c1.145,1.566,2.098,3.613,2.86,6.14c0.755,1.964-0.498,4.574-1.797,5.831L121,110
			c-2.742,1.195-4.742,1.195-6,0c-1.147-1.929-1.326-3.49,0.389-5.141c1.285-1.237,2.754-1.694,4.688-2.32
			c-1.87-0.92-3.024-1.64-3.202-2.932c-0.134-0.969,0.26-2.826,1.555-3.5C119.094,95.762,120.288,96.457,121,97z"/>
		<path style="fill:#424242;" d="M170.043,89.961c1.009,0.417,1.747,1.583,2.881,1.837c1.84,0.811,2.952,2.023,1.076,3.202
			c0.452,0.883,0.073,1.184-1,1c-1.39,1.822-5.132,0.206-6.034-2c-0.127-1.88-0.908-3.656,0.464-6.045
			C167.879,89.336,169.011,89.534,170.043,89.961z"/>
		<path style="fill:#343434;" d="M135,94c0.268,1.677-1.081,3.126-2.016,4.341c-1.702-0.239-3.309,0.024-3.929,1.785
			c0.72-2.962-0.807-6.661,1.785-9.053C132.004,92.291,134.054,92.863,135,94z"/>
		<path style="fill:#323232;" d="M173,99c0,1.619,0.119,3.195-0.504,4.711c2.749,1.365,1.461,3.372-1.299,2.367
			c-0.918,0.732-1.738,1.625-2.911,1.934c-0.716-2.222,0.05-4.641-0.241-6.858c-0.217-1.567,1.281-3.59,2.955-3.155
			C171.86,96.067,172.592,97.268,173,99z"/>
		<path style="fill:#4E4E4E;" d="M125.979,96.898c0.854,1.82,1.676,4.332,0.097,6.275c-0.45,0.554-1.712,0.126-2.216-0.033
			c-2.481-1.288-2.196-5.328,0.14-6.14c0.575-0.452,1.4-0.581,2-1C126.855,96.235,126.828,96.536,125.979,96.898z"/>
		<path style="fill:#AEAEAE;" d="M146,68.202L145,69l-7-8C141.536,61.861,143.992,65.272,146,68.202z"/>
		<path style="fill:#484848;" d="M170.043,89.961c-1.384-1.074-1.265-2.566-0.12-3.425c0.566-0.425,1.672-1.424,2.51-0.878
			c1.066,0.694,0.644,2.762,0.475,3.649C172.654,90.644,171.003,89.67,170.043,89.961z"/>
		<path style="fill:#AEAEAE;" d="M173,96c2.592,0.139,2.716,2.435,0,3l-2-1c-1.203,2.059-2.177,1.451-2.724-0.711
			c-1.074-0.814-1.227-2.059-1.31-3.289C168.903,94.875,170.899,95.641,173,96z"/>
		<path style="fill:#424242;" d="M171,98c-0.518,1.436-1.368,2.845-2.955,3.155c-0.156-1.188-1.296-2.498,0.231-3.866
			C169.333,96.944,170.107,97.553,171,98z"/>
		<path style="fill:#585858;" d="M124,112l-1-1c0.093-1.938,1.365-3.504,2.582-6.021C126.638,107.46,125.533,110.025,124,112z"/>
		<path style="fill:#AAAAAA;" d="M178,93c1.024,2.317,0.468,3.011-2,3c-1.387,2.43-2.541,1.688-2-1
			c-0.155-1.127-0.554-2.196-1.076-3.202l1.031-0.076C175.082,92.687,176.527,93.112,178,93z"/>
		<path style="fill:#323232;" d="M133,86c0.116,0.306,0.123,1.744-0.459,1.898c-0.408,0.108-1.053-0.983-1.541-0.898
			c-0.508-1.437,0.39-2.946,1-4C132.755,83.797,132.455,85.162,133,86z"/>
		<path style="fill:#363636;" d="M130.841,91.073c-0.288-0.515-0.629-1.035-0.673-1.748c-0.029-0.465,0.389-0.976,0.833-1.325
			c0.879,1.027,2.224,1.347,3.093,2.708C132.633,91.327,131.718,90.85,130.841,91.073z"/>
		<path style="fill:#4C4C4C;" d="M163.677,87.95c-1.135-0.319-2.227-0.84-2.937-1.806c0.684-0.005,1.85-1.307,2.755-1.036
			C164.507,85.412,163.608,87.29,163.677,87.95z"/>
		<path style="fill:#6D6D6D;" d="M125.979,96.898c0.031-0.296-0.035-0.605,0.021-0.898c0.077-0.405-0.06-0.908,0.079-1.294
			c0.537-0.146,1.308-0.971,1.575-0.545c0.436,0.697,0.608,2.045,0.302,2.428C127.586,97.051,126.536,97.149,125.979,96.898z"/>
		<path style="fill:#474747;" d="M89,96c2.881,2.87,5.345,5.912,7.391,9.126L95,106c-0.32,0.344-0.59,0.746-1,1
			c-1.006,1.229-19.037-1.768-20.843-2.682c-0.373-0.581-1.058-1.575-1.157-2.318l-2-5c-1.46-0.285-0.685-1.549,0.441-2.361
			L85.56,94.41C87.297,92.454,88.86,93.371,89,96z"/>
		<path style="fill:#414141;" d="M57,91c0.431-1.991,1.32-2.076,2-0.136c2.67,1.918,6.459,2.763,9.726,2.843L69,95
			c0.572,1.22-0.095,2.316-2,3.286c-2.203,2.169-5.083,3.707-8,4.714l-9-6c-1.055-1.813-1.129-3.945-1-6l4.688-2.305
			C53.977,90.009,55.081,90.778,57,91z"/>
		<path style="fill:#CBCBCB;" d="M96,89c-1.17,1.114-4.481,1.293-6.591,1.175C88.854,92.403,89.048,94.256,89,96
			c-2.858-1.445-16.233-1.201-18.259-0.849C70.029,95.274,70.367,96.375,70,97c-0.536,0.913-2.341,0.637-3,1.286
			c0.509-1.189,1.344-2.185,2-3.286c-0.606-1.662,1.082-3.016,2-1l1.674-2.047l8.606,0.081C78.045,89.288,77.285,86.944,79,85
			c1.622-1.05,3.801-0.245,6.538,2.415c-0.551-1.293,0.123-1.906,1.336-2.796C85.134,82.288,86.304,80.897,89,82
			c0.103,2.06-1.032,4.037-0.729,6.47C90.999,89.41,93.577,88.93,96,89z"/>
		<path style="fill:#AAAAAA;" d="M55,109c0.089-1.851,1.291-3.339,3-4C57.795,106.8,56.789,108.38,55,109z"/>
		<path style="fill:#ABABAB;" d="M72,102c-1.456-1.195-2.316-3.056-2-5C71.795,97.794,71.78,100.282,72,102z"/>
		<path style="fill:#9E9E9E;" d="M155,94v1c0.873,0.284,0.86,0.618,0,1c-1.48-0.351-2.827,1.376-4,2c-0.129,0.822-0.462,1.155-1,1
			c-0.28,2.381-12.041,1.015-12.569,0.604c-0.591-0.46-0.587-1.458-0.557-2.318L137,96c4.452-2.04,9.454-0.972,14,0
			C149.585,93.092,153.154,91.221,155,94z"/>
		<path style="fill:#AEAEAE;" d="M162,99c-2.6-0.279-4.601-2.095-7-3v-1C157.62,95.639,160.659,96.522,162,99z"/>
		<path style="fill:#CFCFCF;" d="M150.929,105.102c-0.645,0.049-1.292,0.004-1.929-0.102c-2.103-1.559-1.354-5.037,1-6
			c0.037-0.408,0.664-0.821,1-1L150.929,105.102z"/>
		<path style="fill:#303030;" d="M32,52c1.508,2.509,2.875,5.267,4,8l3.14,6.68c0.076,0.545-1.272,1.042-2.019,1.213
			c-1.582,0.362-17.11-1.851-19.457-2.615C17.496,65.224,18.538,62.576,19,62c0.788-1.59,2.081-3.002,2-5
			c0.892-0.404,1.593-1.111,2-2c2.286,0,4.473-0.994,6-2.693C29.86,50.988,31.402,50.14,32,52z"/>
		<path style="fill:#B6B6B6;" d="M32,52l-3,0.307c0.287-0.788,0.604-1.566,1-2.307c1.055-0.144,2.064-0.495,3-1
			C32.841,50.051,32.532,51.077,32,52z"/>
		<path style="fill:#AAAAAA;" d="M30,50c-2,0.439-3.071-1.5-4-3C27.77,47.087,29.469,48.304,30,50z"/>
		<path style="fill:#CBCBCB;" d="M137,56c-0.589,1.015-0.929,2.141-1.22,3.273c-0.8-0.146-1.997-0.321-2.78-0.273
			c1.679-0.847,1.916-2.344,2-4L137,56z"/>
		<path style="fill:#1E1E1E;" d="M94.27,32.722c0.584-0.228,1.281,0.004,1.919-0.018c0.531-0.019,1.249,0.252,1.034,0.924
			C98.365,33.621,98.958,34.745,99,37c2.951,3.454,3.284,5.454,1,6c-0.397,0.158-0.764,0.66-1,1c-1.519,1.622-2.852,2.289-4,2
			l-4.877-3.123c-1.674-1.525-2.534-3.639-1.979-5.874c1.424-0.604,2.735-0.981,4.911-1.204l-1.649-1.961
			C90.434,31.141,92.629,30.429,94.27,32.722z"/>
		<path style="fill:#363636;" d="M107,30c1.827,3.245,2.533,6.535,2.119,9.871c0.876,0.723,1.156,1.75,0.31,2.169
			C105.186,44.142,100.228,41.259,99,37c-1.039-2.039-1.395-3.089,1-4l3-2C105.168,28.813,106.501,28.479,107,30z"/>
		<path style="fill:#323232;" d="M118.105,36.105c-0.554,0.282-0.643,1.454-1.105,1.895c-0.988,2.381-1.473,3.445-4.246,3.766
			c0.568,2.235-4.203,0.339-4.295,0.077c-0.147-0.418,0.995-7.727,2.407-7.976c0.888-1.784,3.618-2.69,4.231-4.769
			c0.848-0.98,1.962-0.735,2.667-0.36c1.157,0.617,2.727,1.428,1.996,2.868C118.911,33.278,117.97,34.57,118.105,36.105z"/>
		<path style="fill:#919191;" d="M110.866,33.866c-0.894,1.881-0.826,4.663-1.104,6.917c3.703,1.507,5.283-0.92,7.238-2.783
			c-0.422,1.325-0.951,2.809,0,4c-1.033-0.449-2.759,0.007-4.194,0.356c-1.334,0.324-0.073,2.458,0.017,3.701
			c-1.89-0.875-2.406-3.886-4.849-3.144c-0.431,2.085-1.366,2.128-1.974,0.087c-1.994-0.482-4.042-0.779-6,0
			c1.428-1.768-0.579-3.843-1-6c2.065,1.998,5.6,7.06,8.318,4.457c3.071-2.942-0.421-8.065-0.318-11.457
			c1.49,1.019,1.882,2.687,2.109,5.036L110.866,33.866z"/>
		<path style="fill:#9A9A9A;" d="M107,30c-1.38,0.055-2.909,0.272-4,1c1.028-1.516,2.788-2.327,3.481-5.044
			C107.538,27.307,106.812,28.659,107,30z"/>
		<path style="fill:#A6A6A6;" d="M100,33c-0.549,0.978-1.474,2.9-1,4c-0.203-1.039-2.268-1.835-1.777-3.373
			C98.015,33.012,99.264,33.49,100,33z"/>
		<path style="fill:#474747;" d="M91.202,108.817c1.326,0.413,0.308,3.835-0.58,4.667c-3.56,3.335-9.011-3.003-11.819-6.472
			C83.169,107.362,86.739,107.427,91.202,108.817z"/>
		<path style="fill:#424242;" d="M73.73,113.73c0.223-3.446-0.561-5.705,1.253-8.09l8.189,8.128
			C79.469,114.185,76.666,114.175,73.73,113.73z"/>
		<path style="fill:#333333;" d="M72.911,113.78c-2.46-0.121-4.622,1.008-6.618-0.401C69.589,112.089,72.115,111.188,72.911,113.78z
			"/>
		<path style="fill:#6A6A6A;" d="M111,105c-2.29-1.843-1.538-4.403,0-6.591c1.137,0.974,4.038,0.916,4.748,2.881
			C116.598,103.641,112.91,105.543,111,105z"/>
		<path style="fill:#595959;" d="M115.861,88.861c1.087-0.69,1.27-2.671,2.026-3.633c1.888,3.445,2.207,8.486-1.639,10.877
			L115.861,88.861z"/>
		<path style="fill:#616161;" d="M124,97c-0.859,3.197-1.859,3.197-3,0c-0.358-1.125-0.241-2.538,0.147-3.556
			C121.871,94.934,124.349,94.867,124,97z"/>
		<path style="fill:#585858;" d="M116.16,98.719c-2.036-0.134-3.317-1.744-5.211-2.232C113.235,95.388,115.636,95.513,116.16,98.719
			z"/>
		<path style="fill:#A7A7A7;" d="M46,34c0.912,1.982,2.217,2.851,4,4c0.634,0.476,0.952,1.22,1,2c-1.914,0-3.832-1.715-5.929-1.877
			L45,33C45.267,33.373,45.762,33.59,46,34z"/>
		<path style="fill:#ACACAC;" d="M43,43c-0.94-1.218-2.875-0.114-4,0c0.864-1.666,2.357-2.445,4.171-2.929L43,43z"/>
		<path style="fill:#A3A3A3;" d="M40,67c1.954,2.674-0.511,2.6-3,2c-5.256-2.022-11.271-1.33-17.296-2.771
			C17.708,65.751,15.736,66.927,14,67c2.087-1.468,3.873-2.727,5-5c-4.08,4.592,18.114,5.35,19.442,4.639
			C36.19,64.057,36.702,61.705,36,60C38.067,61.791,38.59,64.697,40,67z"/>
		<path style="fill:#383838;" d="M150,99c0.074,2.052,0.162,4.231-1,6c-0.649,1.873-2.601,1.482-4,2
			c-2.6,1.962-11.833-7.691-8.126-9.714C138.246,98.66,145.005,97.409,150,99z"/>
		<path style="fill:#4D4D4D;" d="M100.979,17.021c0.382,0.254,0.582,0.773,1.021,0.979c2.868,1.398,1.943,3.078-1,2l-2.002,5
			c-1.104,0.783-1.324,2.298-2.306,4.133C94.256,28.234,92.34,26.845,90,27l-5-2c-3.474-1.413-1.254-5.489,2-6
			c1.988-1.952,4.556-3.579,7-5C96.502,12.545,99.084,15.76,100.979,17.021z"/>
		<path style="fill:#C0C0C0;" d="M87,19l-2.33,2.288C83.416,22.52,84.379,24.023,85,25c-0.077,2.886-2.345,2.705-3,0
			c1.173-1.778,1-3.945,1-6C84.148,19.982,85.722,19.372,87,19z"/>
		<path style="fill:#B9B9B9;" d="M83,14v5c-1.704-1.458-1.759-3.941-2.249-6L83,14z"/>
		<path style="fill:#313131;" d="M85,25l5,2c0.968,1.401,2.724,1.785,4.765,2.45c0.214,1.296-0.373,2.28-0.495,3.272l-2.864,1.115
			c-1.954,0.761-3.67,1.57-5.848,2.816C84.693,37.149,83.581,35.329,83,35c-1.554,1.078-1.579-0.427-1-2
			c-0.203-1.633-0.669-3.019-2-4c0.157-1.052,0.463-2.081,1-3c0.211-0.361,0.501-1,1-1H85z"/>
		<path style="fill:#4B4B4B;" d="M16,105.226c0.408,0.527,0.772,1.096,0.865,1.571c0.696,3.542-7.016,2.634-10.818-0.247
			c1.164-1.385,2.261-2.738,3.956-3.358C12.105,101.464,16.062,102.072,16,105.226z"/>
		<path style="fill:#575757;" d="M15,98c0.723,0.93,0.552,2.738,1.839,3c0.217,1.497,0.287,3.05-0.839,4.226
			c-1.907-0.968-4.345-0.557-5.997-2.034C10.229,100.523,12.306,98.236,15,98z"/>
		<path style="fill:#919191;" d="M25,93c-1.81,2.749-5.519,0.442-5.142,7.094c-0.208-0.342-1.057-1.127-1.408-0.947
			c-0.39,0.2-0.427,1.728-0.45,1.853c-0.371-0.046-0.799,0.074-1.161,0c-0.139-0.959,0.363-2.025,0.161-3
			c-0.098-2.376,0.236-4.376,1-6C19.833,94.296,22.399,93.594,25,93z"/>
		<path style="fill:#6B6B6B;" d="M14,97l-3.176,0.066c-2.141,2.557-3.828,0.185-1.787-1.874c0.486-0.736,1.535-3.102,2.731-2.761
			C13.822,93.016,13.783,95.64,14,97z"/>
		<path style="fill:#444444;" d="M9.037,95.192c-0.435,0.904,0.985,1.891,1.787,1.874c-0.019,1.643-0.79,3.262-2.508,3.985
			C7.168,99.085,6.993,97.572,7,96C7.565,95.5,8.29,95.253,9.037,95.192z"/>
		<path style="fill:#D4D4D4;" d="M54,64c-1.084,2.571-6.005,4.273-3.384,8.106C50.704,69.881,52.341,69.877,53,69
			c-0.608,1.698-1.147,3.473,0,5l-1.018,1.243l-0.578,9.905l-2.307,0.823L48,86c0-1.745,0.345-3.638-1-5
			c-2.396-1.705-1.705-2.124,1.052-1.997c-2.37-0.826-2.209-2.146,0.142-3.003c0.442-1.89,1.189-5.553-1.194-6
			c0.016,2.57-1.845,2.941-3.951,1.929C40.338,72.349,35.385,72.688,34,70c-0.504,1.922-1.17,2.255-2,1c-0.284,0.873-0.618,0.86-1,0
			v-2c1.845-0.536,4.108,0.37,6,0c1.243-0.243,2.15-1.075,3-2C48.557,70.989,50.506,64.192,54,64z"/>
		<path style="fill:#444444;" d="M155,92v2c-1.583,0.075-2.749,1.158-4,2c-3.181,0.712-6.845-1.264-5.079-4.659L145,84
			c0.721-0.179,1.467-0.523,2-1l2.099-1.681C151.323,82.578,157.599,89.287,155,92z"/>
		<path style="fill:#363636;" d="M135,94c-0.562-3.521,7.153-10.415,8.74-8.952c0.402,1.811,0.996,2.939,1.189,4.851
			C141.781,91.529,138.275,94.162,135,94z"/>
		<path style="fill:#424242;" d="M151,96c-4.151,2.795-9.243-0.016-14,0c2.401-2.409,5.884-3.233,8.921-4.659
			C147.296,93.184,149.052,94.78,151,96z"/>
		<path style="fill:#565656;" d="M142.616,109.711c-1.739,1.846-3.591,1.774-5.537,2.395c-0.088-3.009-0.279-4.924,0.107-8.219
			C139.411,105.197,140.91,106.354,142.616,109.711z"/>
		<path style="fill:#434343;" d="M180.79,91.79c2.62,2.111,0.324,5.53-1.929,7.252c-2.699,1.351-4.455-0.422-2.861-3.042
			c0.073-1.309,0.961-2.283,2-3C178.844,92.417,179.785,92,180.79,91.79z"/>
		<path style="fill:#434343;" d="M173.795,110.415c-1.01-0.176-1.919-0.68-2.598-1.449v-2.887c0.78-0.622,0.942-1.499,1.299-2.367
			c0.423-0.495,0.77-0.714,1.204-0.651c0.578,0.085,1.585,0.549,1.981,1.321C176.935,106.824,175.443,109.046,173.795,110.415z"/>
		<path style="fill:#454545;" d="M176,96c0.643,1.273,1.588,2.379,2.861,3.042c-0.085,0.346,0.126,2.164-0.753,2.377
			c-2.149,0.519-3.677-1.703-5.108-2.419v-3c0.361-0.305,0.693-0.641,1-1L176,96z"/>
		<path style="fill:#454545;" d="M175.602,102.425c0.165-0.799,1.583-0.462,1.974-0.407c0.394,0.055,0.607,0.802,0.435,1.465
			c-0.137,0.528-1.053,0.727-1.442,0.521C176.221,103.82,175.384,103.478,175.602,102.425z"/>
		<path style="fill:#4B4B4B;" d="M103,18c1.558,2.059,4.677,0.631,7,1c-0.125,0.33,0.37,1.427-0.156,1.77L99.54,27.491
			c-0.921-0.707-0.457-1.712-0.542-2.491L101,20c0.649-0.473,0.999-1.195,1-2C102.305,17.571,102.691,17.82,103,18z"/>
		<path style="fill:#363636;" d="M21,82c0.131,0.36,0.205,0.669,0.085,0.803C18.932,85.196,14.509,89.53,12,87
			c0.055-0.325-0.01-0.67,0-1c0.057-1.829-0.187-3.617,0.08-5.928C14.587,80.19,22.583,78.845,21,82z"/>
		<path style="fill:#212121;" d="M16,89c0.701,0.914,1.526,1.934,2,3c0.503,1.132,0.646,2.44,1.009,3.628
			C19.406,96.923,18.491,98.014,17,98c-2.498-2.236-2.703-5.977-4-9C11.935,86.947,17.127,86.708,16,89z"/>
		<path style="fill:#959595;" d="M22.192,82c0.538,0.022,0.57,0.688,0.808,1c-3.166,0.461-5.128,3.58-7,6
			c-0.357-0.464-1.207-0.53-1.686-0.822C13.701,87.804,12.852,88.114,13,89c-0.277-0.644-1.147-1.13-1-2
			c5.713,0.744,5.342-3.418,9-5C21.303,81.869,21.856,81.986,22.192,82z"/>
		<path style="fill:#C6C6C6;" d="M131.864,113.866c-1.907-0.851-0.417-3.573-1.864-4.866c0.581-0.435,1.455-0.522,2-1
			C131.715,109.944,132.462,111.988,131.864,113.866z"/>
		<path style="fill:#363636;" d="M31,71h1c1.42-1.654,2.171,5.027,2.053,5.916c0,0-1.018,0.028-3.053,0.084l-7.063,2.087
			c-1.174-0.193-2.356-1.016-2.959-2.087c0.242-1.287,0.726-2.528,1.093-3.78C22.858,72.352,23.834,71.612,25,71H31z"/>
		<path style="fill:#2F2F2F;" d="M20.978,77c-0.121,0.646,0.222,1.625-0.938,2.076L11,79c-0.004-0.594-0.787-1.462-1-2
			C9.563,74.608,18.984,73.457,20.978,77z"/>
		<path style="fill:#5B5B5B;" d="M53,74c4.093,1.358,4.944,3.042,2.552,5.052l-2.281,9.172C55.237,90.143,50.855,90.588,49,90
			c0.335-1.254-0.308-2.81,0.097-4.029c1.347-4.047,0.653-8.161,0.973-13.008C51.14,73.748,52.152,73.707,53,74z"/>
		<path style="fill:#ACACAC;" d="M58,74c-1.627,1.451,0.321,2.61,1,4c-1.304,3.281-2.307,6.67-3.007,10.165
			C57.384,88.605,57.433,89.499,57,91c-2.692-0.195-5.358-0.722-8,0c0.021-0.326-0.084-0.686,0-1
			c5.635,0.476,4.283-8.021,6.761-13.685C54.205,75.711,53.641,74.853,53,74C54.7,74.588,56.295,74.553,58,74z"/>
		<path style="fill:#D8D8D8;" d="M121,110c-1.47,1.246-4.31,0.678-3.99,3.071c-0.922-0.988-1.334-1.934-2.01-3.071H121z"/>
		<path style="fill:#323232;" d="M19,73c-1.684,1.898-5.176,1.465-7,0C14.114,71.605,16.886,71.605,19,73z"/>
		<path style="fill:#A4A4A4;" d="M25,71c-0.411,1.303-1.553,2.204-2.929,2.22c0.108-0.37-0.135-0.838-0.071-1.22
			C23.086,71.553,23.613,71,25,71z"/>
		<path style="fill:#656565;" d="M51,33c4.055,2.079,6.176-0.166,8.559,1.962c0.623,0.556,0.804,1.976-0.251,2.449
			C57.279,38.32,54.975,37.723,53,38c-2.187-1.471-3.539-2.976-5.091-4.711C49.225,32.964,50.374,32.679,51,33z"/>
		<path style="fill:#2A2A2A;" d="M50,38c-1.151-0.18-2.531-0.343-3.375-1.155C45.837,36.087,45.958,34.93,46,34
			C47.715,34.887,49.087,36.304,50,38z"/>
		<path style="fill:#C5C5C5;" d="M112,84c-2.036,1.184-3.175,4.889-5,6c0-1.463,0.707-2.78,1.896-4.346
			c-0.542-0.783-1.348-1.099-1.896-1.654H112z"/>
		<path style="fill:#CECECE;" d="M115.882,73.118c-0.896-1.075-2.464-1.574-2.882-3.118c1.567-0.062,2.778-1.104,4-2
			C116.564,69.693,116.06,71.374,115.882,73.118z"/>
		<path style="fill:#BABABA;" d="M113,70c-1.898,0.075-3.274-1.343-4-3C110.688,67.444,112.469,68.041,113,70z"/>
		<path style="fill:#646464;" d="M107.974,42.913c-0.54,3.748,1.269,7.574-0.97,11.932C104.74,50.507,106.592,46.714,106,43
			C106.513,43.124,107.467,43.067,107.974,42.913z"/>
		<path style="fill:#8F8F8F;" d="M99,44c-1.218,1.752-2.502,3.476-4,5v-3C96.298,45.209,97.43,44.056,99,44z"/>
		<path style="fill:#D4D4D4;" d="M99,107c-1.309-0.944-2.6-2.502-4-1c0.817-4.762-6.11-5.995-6-10
			C90.58,96.799,97.627,103.245,99,107z"/>
		<path style="fill:#B4B4B4;" d="M78,54c-3.852,3.096-8.728,4.547-13,7c0.831-2.292,0.369-5.159,2.228-7
			c-0.081,1.35-0.876,3.111,0.547,4.323C71.556,56.305,74.457,53.975,78,54z"/>
		<path style="fill:#BABABA;" d="M90,65v2h-6c-2.701-0.448-2.514-2.195,0-3C85.843,63.132,88.498,63.487,90,65z"/>
		<path style="fill:#CACACA;" d="M95,63v1c-1.781-0.253-3.441,0.228-5,1c-2.86-0.064-2.733-2.324,0-3
			C91.397,62.712,93.381,63.503,95,63z"/>
		<path style="fill:#4F4F4F;" d="M75,86c0.799,2.464-0.081,2.695-2,1c-2.268,3.108-3.601,2.442-4-2c-2.034-1.954-2.034-2.954,0-3
			c0.34-1.012,0.855-1.906,1-3c-1.8-3.687,3.432-1.08,5.028,0.318C76.822,80.891,78.741,85.409,75,86z"/>
		<path style="fill:#D1D1D1;" d="M75,78c0.362-0.086,0.762,0.052,1.131,0c2.127,1.111,5.724,5.246,2.869,7
			c-0.376,2.898-2.301,3.344-4,1c0.159-0.876,1.864-1.747,1.732-2.501C76.766,83.694,71.403,76.051,70,79
			c0.31-2.334-1.589-3.844-2-6C70.99,73.758,71.746,78.771,75,78z"/>
		<path style="fill:#B3B3B3;" d="M69,82c-0.294,0.874,0.085,2.075,0,3c-2.181,2.483-7.383-1.247-5-4
			C65.671,81.261,67.265,82.093,69,82z"/>
		<path style="fill:#AEAEAE;" d="M64,81c-2.278,3.119-6.975,0.401-5-3C60.589,77.799,63.308,79.3,64,81z"/>
		<path style="fill:#3F3F3F;" d="M87,57c1.376,1.389,1.713,3.539,3,5v3c-0.998,0.494-2.287,0.695-3.5,0.911
			c-1.142,0.203-1.681-1.23-2.5-1.911l-1-6c0.778-0.621,0.644-3,2-3C86.998,55.338,87.664,56.005,87,57z"/>
		<path style="fill:#B2B2B2;" d="M89,55l-2,2c-0.706-0.713-1.345-1.127-2-2H89z"/>
		<path style="fill:#3D3D3D;" d="M84,64c0.166,0.811,0.149,2.227,0,3c-0.562,0.871-1.232,2.282-2.068,2.932
			c-1.102,0.857-2.139,2.01-2.999,2.6c-1.652,1.132-3.301-0.321-4.713-0.783c-0.229-0.4-0.605-0.963-1.129-1
			C68.505,69.734,81.807,59.092,83,58L84,64z"/>
		<path style="fill:#525252;" d="M83,35c0.167,0.616,0.084,1.616,0.64,1.931c0.859,0.486-0.829,2.478-1.83,1.969
			C80.212,38.086,80.542,33.911,82,33C82.087,33.702,82.814,34.314,83,35z"/>
		<path style="fill:#4A4A4A;" d="M80.409,75.78c3.534,0.368,7.275,5.349,6.465,8.84c0.207,1.109,1.03,2.753,0.401,3.761
			C85.101,91.865,79.948,85.036,79,85c-0.483-2.573-3.927-4.221-2.869-7c0.437-1.149,0.806-2.186,1.111-4.105
			C78.459,74.753,79.101,75.908,80.409,75.78z"/>
		<path style="fill:#565656;" d="M89,82l-2.126,2.619c-2.396-2.81-4.673-5.687-6.465-8.84c-0.543-3.612,5.762-0.397,9.896-0.41
			C89.393,78.354,88.904,80.082,89,82z"/>
		<path style="fill:#A9A9A9;" d="M34,70l1.312,0.462c0.092,4.017,1.61,6.242,4.554,6.677C41.661,77.353,43.039,77.307,44,77
			c1.931-1.7,3.47,0.007,4.052,2.003L47,81c-3.583-1.474-8.466-2.223-11,1c0.164-1.251-0.119-2.583-0.902-3.568
			C34.108,77.188,32.533,76.783,31,77c0.934-0.405,1.999-1.723,2.047-2.625C33.105,73.298,33.392,71.218,32,71
			C32.548,70.543,33.242,70.001,34,70z"/>
		<path style="fill:#999999;" d="M31,77c-1.902,1.781-4.561,2.046-7.063,2.087C25.702,77.07,28.513,77.147,31,77z"/>
		<path style="fill:#B9B9B9;" d="M150,78c-1.175,3.992,4.088,7.71,7,10c-0.568,1.386-1.007,2.855-2,4c0.642-4.344-3.789-8.885-8-9
			c1.108-0.761,2.494-1.73,1.881-3.264c-0.39-0.974-1.314-1.799-1.881-2.736C147.78,77.461,149.255,77.27,150,78z"/>
		<path style="fill:#B8B8B8;" d="M137.89,79.11c-1.434-1.319-2.006-3.167-1.89-5.11C137.67,75.133,138.137,77.185,137.89,79.11z"/>
		<path style="fill:#CCCCCC;" d="M124,97c-0.949,2.142-0.934,4.074-0.14,6.14c-1.093-0.345-2.781-0.922-3.83-1.562
			c2.609-1.283,1.446-3.081,0.97-4.578C121.984,97.751,123.021,97.769,124,97z"/>
		<path style="fill:#474747;" d="M59,78c0.976,1.997,2.874,2.669,5,3c0.831,2.041,3.368,2.712,5,4
			c0.143,1.723,0.783,2.691,1.92,2.903c-0.111,8.863-6.463,5.783-11.92,2.96c-0.62-0.145-1.364,0.183-2,0.136
			c-0.89-0.667-2.058-0.87-3.282-2.007l2.723-10.708C56.628,77.552,58.42,78.073,59,78z"/>
		<path style="fill:#A0A0A0;" d="M73,87c1.436,1.873,0.285,6.3-2,7c-0.909,0.046-1.516,0.187-2,1l-7.082-1.935
			c-1.541-0.421-2.769-0.891-2.918-2.202c3.027,0.71,6.265,2.314,9.811,2.149C70.623,90.002,68.766,87.547,69,85
			c0.753,0.595,0.943,2.865,1.529,2.699L73,87z"/>
		<path style="fill:#444444;" d="M79,85c0.663,3.528,4.231,5.13,6.87,8.55C80.67,94.533,75.791,93.759,71,94
			c-0.38-2.54,0.164-5.125,2-7c0.421-0.43,1.426-0.799,2-1C76.293,85.548,77.668,85.308,79,85z"/>
		<path style="fill:#353535;" d="M87.5,92.799c-1.244-0.756-1.853-1.677-2.554-2.454c1.325-0.776,2.785-0.424,3.091,0.356
			C88.27,91.294,88.045,93.13,87.5,92.799z"/>
		<path style="fill:#B2B2B2;" d="M90,27c-1.872,0.124-3.959-0.362-5-2C86.898,25,88.88,25.378,90,27z"/>
		<path style="fill:#B7B7B7;" d="M98.998,25c-0.208-1.908,0.422-3.847,2.002-5C101.102,21.916,100.607,23.859,98.998,25z"/>
		<path style="fill:#2A2A2A;" d="M43.049,71.929L44,77c0.131,0.418,0.099,1.076-0.051,1.456c-0.247,0.624-5.719,1.763-8.584-1.322
			C33.604,75.236,33.879,72.531,34,70C37.278,69.996,40.813,69.207,43.049,71.929z"/>
		<path style="fill:#2C2C2C;" d="M47,70c2.343-0.457,1.671,4.103,1.194,6c0.183,0.928,0.274,2.215-0.142,3.003
			C46.241,79.403,45.094,78.218,44,77l-0.951-5.071C44.008,70.708,45.454,70.041,47,70z"/>
		<path style="fill:#5B5B5B;" d="M48.194,76c-0.392-1.988,0.608-4.705-1.194-6c0.543-1.929,2.501-1.055,2.028,0.798
			C48.829,72.883,49.623,75.112,48.194,76z"/>
		<path style="fill:#C3C3C3;" d="M84,64c-1.758-1.461-0.833-3.907-1-6C85.121,59.314,83.608,62.087,84,64z"/>
		<path style="fill:#9D9D9D;" d="M44,77c-1.145-1.276-1.584-3.407-0.951-5.071C45.167,72.795,43.514,75.448,44,77z"/>
	</g>
</g>
</svg>
