<?xml version="1.0" encoding="iso-8859-1"?>
<!-- Generator: Adobe Illustrator 30.1.0, SVG Export Plug-In . SVG Version: 9.03 Build 0)  -->
<svg version="1.1" id="Layer_1" xmlns="http://www.w3.org/2000/svg" xmlns:xlink="http://www.w3.org/1999/xlink" x="0px" y="0px"
	 viewBox="0 0 126 126" style="enable-background:new 0 0 126 126;" xml:space="preserve">
<g>
	<g>
		<path style="fill:#FDFDFD;" d="M57,0l65.011,55.894c1.482,1.274,4.831,3.461,2.612,5.752l-17.739,18.321
			c-7.123,7.356-13.142,16.634-21.961,21.849l-37.177,21.983c-1.13,0.668-2.159,0.841-1.745,2.201h-3
			c0.046-0.893-0.482-1.799-1.494-2.498l-30.334-20.957L1.908,32.062C1.301,27.444-0.01,22.92,1.581,19.426L50,0H57z M52.147,1.934
			C47.792,2.378,44.22,5.013,40,6c-0.391,0.091-0.766,0.699-1,1c-3.865,0.674-7.298,2.741-11,4
			c-0.689,0.234-1.457,0.837-2.037,1.089c-2.507,0.432-4.759,1.584-6.963,2.801c-0.913,0.504-2.436-0.226-3,1.11
			c-0.216,0.512-1.768,0.521-1.144,1.541c-1.924-1.278-4.297-0.015-5.761,1.496c-2.323,0.121-5.531,0.708-7.021,2.946
			C1.397,23,2.925,24.435,3,25c0.06,2.534-0.384,5.636,0.795,8c0.587,1.178,0.278,2.838,1.304,3.882
			c-1.975,2.254,0.016,4.874,0.864,7.21c0.78,2.151,0.313,4.996,0.746,7.225c0.884,0.626,2.757,1.12,3.256,1.917
			C4.597,52.455,7.936,63.752,8.412,66c0.211,0.996,0.698,1.904,0.659,3L9,71c-0.186,5.263,0.363,1.401,1.68,8
			c0.056,0.283,0.194,0.783,0.087,1.045C9.832,82.327,11.285,84.643,11,87c-0.125,1.029-0.174,2.515,0.906,3
			c-0.096,0.293,0.045,0.691,0.008,1c-0.044,0.373,0.284,0.78,0.213,1.147c-0.413,2.127,0.542,4.408,0.694,6.791
			c0.171,2.666,1.726,2.477,3.098,3.18c0.99,0.507,1.581,2.297,3.21,1.948c0.16,0.802,1.391,1.186,1.837,1.693
			c2.986,3.394,7.298,5.604,10.982,8.26c0.629,0.454,1.649,0.97,2.252,1.328c2.447,2.352,8.806,8.935,11.801,6.753
			c0.32-0.233,0.833-0.701,1-1.1c2.911-0.586,5.607-2.162,7.756-4.144l1.045-0.963L57,116l4-2c1.219-0.609,1.917-1.521,3-2.087
			c1.743-0.911,2.885-2.304,4.226-3.801c0.188,1.206,1.182,0.953,1.882,0.585C70.921,108.269,71.482,107.7,72,107h1
			c1.293,0,2.018-1.617,3-2c3.447-0.884,7.961-4.044,9.64-6.79c0.265-0.39,0.919-1.154,1.362-1.323
			c2.238-0.852,4.85-5.222,6.572-6.858c3.213-3.054,9.98-7.388,11.483-12.126c1.49-0.166,2.771-1.478,2.942-2.927
			c4.639-2.476,8.614-6.883,11.99-10.979c0.604-0.733,0.787-1.796,1.024-2.68c0.607-0.133,2.596-0.324,2.604-1.271
			c-0.829-2.238-2.937-2.99-4.417-3.873c-0.398-0.237-1.135-0.786-1.362-1.184c-0.71-1.24-2.108-1.798-2.997-2.837
			c-0.835-0.975-1.831-1.438-2.837-2.16c-0.761-0.546-1.078-1.719-2.173-2.003c-0.555-0.339-1.305-1.47-1.68-2.039
			c-0.648-0.984-2.492-1.248-3.15-1.95c-0.499-1.482-2.079-1.973-3-3c-0.856-0.955-1.68-1.992-3.102-2.005
			c-2.117-2.676-4.709-5.378-8.071-6.339c-2.718-4.486-7.522-7.55-11.753-10.635c-1.954-1.425-3.423-3.347-5.108-5.058
			c-0.82-0.833-2.173-1.118-3.115-1.769c-1.101-2.554-3.886-3.481-5.787-5.163c-2.85-2.52-5.582-5.518-8.745-7.875
			C54.497,0.799,53.364,1.81,52.147,1.934z"/>
		<path style="fill:#BBBBBB;" d="M72,41c1.298,0.851,2.298,2.184,3,4c2.902,1.096,2.279,3.589-0.808,3
			c-1.647,1.577-0.529,2.527,3.354,2.85C79.872,49.484,81.534,50.518,82,53c1.812,0.171,2.416,1.476,1.813,3.917l7.782,3.538
			L92,62.835c-0.713,1.151-3.206,2.27-3,0.165c-1.424,2.696-8.566-0.518-9-3l-1.807,1.853c-5.51-1.311-7.594-0.495-6.252,2.448
			L71,66.268l-0.881,2.543c0.217,2.222-0.49,3.618-2.119,4.19c0.887,0.283,0.888,0.655,0.047,1.113
			C68.015,75,67.706,74.971,67.16,74.16C66.411,74.743,66.025,74.356,66,73c0.002-1.309,0.002-2.669,0-4.079
			c-1.356-0.84-1.327-2.365,0.087-4.572C64.853,65.771,63.491,66.321,62,66c0.078,2.33-0.589,2.614-2,0.85
			c-1.328,1.903-3.43,2.906-6.304,3.01c-0.948,2.019-4.641,3.703-6.829,3.175c-0.743,2.551-2.136,3.029-3.866,0.852
			c-1.405,1.001-3.734,1.051-3-0.963l-4.171,2.934c0.882,0.308,0.797,0.605-0.157,0.892C35.218,78.861,33.642,79.417,32,78
			c-1.945,0.657-1.35-1.469-0.848-3.112c1.293-1.535,3.754-3.927,5.814-3.898c-0.264-2.281-1.133-3.507-2.838-5.027
			c-0.955-2.77-0.955-2.77,0,0c1.416,0.638,2.801,2.501,1.98,3.854c-0.578,2.866-1.939,3.017-3.024,0.268
			c-2.194-0.011-2.365-1.48-2.36-3.331l-0.99-0.233c-0.228-2.364-1.431-3.408-3.608-3.132C26.365,65.338,26.024,67.256,25,69
			c1.483,1.384,0.846,2.012-1,1c-0.378,1.439-0.975,2.362-2,1l-1.067,1.811L13,73c-0.291,0.708-0.626,0.695-1,0
			c-1.173-1.252-2.149-2.586-2.929-4c0.039-1.096-0.448-2.004-0.659-3c-0.189-3.026,0.664-3.745,2.559-2.157
			c3.68-1.997,8.82-4.684,12.801-4.814c1.873-0.664,3.631-1.085,5.274-1.265C28.937,58.638,29.922,58.717,32,58
			c2.207,0.112,2.207-0.222,0-1c-0.848,0.868-2.064,1.72-2.955,0.764c-2.637-0.291-2.799-0.808-0.805-2.608
			C29.875,52.953,34.922,53.444,36,56c0.565,0.293,0.549,0.628,0,1c2.11-0.03,2.125,0.154,1,2c1.043-1.289,2.755-0.584,3,1
			c0.669-2.767,1.263-2.405,2.186,0.186c2.662,0.411,2.449,1.852-0.068,2.764c-2.398,0.821-2.398,0.821,0,0
			c1.005-2.193,2.38-2.446,3.202,0.044c2.561-1.034,2.771,1.264,0.759,2.779c-0.171,1.203-0.456,2.28-1.62,2.217
			c-1.069-0.057,0.135-1.979,1.62-2.217c0.459-1.369,0.897-2.813,1.314-4.333L46.129,61c-1.5,0.304-2.134-0.497-2.052-2.03
			c-1.335-3.324,1.795-4.195,4.674-3.915c2.282-0.916,2.282-0.782,1.31,1.367c1.376,1.076,3.258,3.765,1.003,4.577
			c-0.314,2.373,0.023,3.014,1.013,1.924c1.22-2.02,3.439-1.284,3.877,0.877c0.66,1.628,0.66,1.628,0,0
			c-1.857-1.258-1.528-2.086,0.69-1.775c0.731-2.742,1.894-2.589,2.612,0.123c0.285,1.643,10.354-4.237,6.787-6.136
			c-1.485-0.446-3.056-0.123-4.715,0.967C57.034,57.644,54.925,56.65,55,54c-0.873-0.284-0.86-0.618,0-1c0.116-1.873,0.87-1.468,2,0
			l1.024-1.927l9.261,0.709C67.552,49.316,68.457,47.388,70,46c-0.873-0.284-0.86-0.618,0-1c-1.432-1.783-1.826-4.569,1-5
			C72.439,38.659,72.888,39.235,72,41z"/>
		<path style="fill:#212121;" d="M98.898,38.995c3.55,2.461,1.758,3.27-5.375,2.427c-4.386-0.247-7.499,0.866-5.267,5.687
			l-5.186,3.895L82,50c-2.761,1.323-6.049-3.859-4-6c-1.569-0.042-1.899-2.925,0-3c-1.095-1.385-0.532-1.928,1-1l4.129-2.937
			c-1.435-1.333-0.819-1.868,0.937-0.835c1.385-1.342,3.332-2.481,5.84-3.417c0.062-0.882,0.376-0.909,0.921-0.155
			C94.189,33.617,96.78,36.319,98.898,38.995z"/>
		<path style="fill:#BDBDBD;" d="M21.848,79c-0.186-1.871,0.13-1.541,1.152,0c1.948,1.002,2.727,2.978,2.336,5.927
			c1.879,0.243,3.941,0.778,3.664,3.252c2.099,1.975,0.009,1.078,0.596,0.852C31.547,88.281,33.925,88.2,35,90
			c0.284-0.873,0.618-0.86,1,0c1.07-0.785,2.786-0.428,4,0c0.385-0.913,0.789-0.907,1.211,0c2.434,0.33,4.697,1.33,6.789,3
			c2.625,0.181,2.967,1.105,1,3c-0.19,3.071,0.81,5.738,3,8c2.103,2.952,4.103,5.952,6,9c1.047,0.725,0.714,1.725-1,3l-1.199-0.108
			c-1.456,0.136-3.528-1.166-2.958-2.892c-2.347-1.02-6.49-5.665-4.798-8.189l-2.152-0.218C41.452,97.266,36.386,89.226,27,95
			c1.825,2.931-0.254,4.295-3.104,5.36C22.09,101.402,22.179,100.837,23,99c-0.629-1.781-0.629-3.448,0-5
			c-0.873-0.286-0.86-0.623,0-1.008c3.54-2.995,0.68-5.412-3.207-6.136c-0.66-0.384-1.473-0.874-1.499-1.53
			c-0.097-2.413-3.416,2.821-4.155,4.405L11.906,90c-1.08-0.485-1.03-1.971-0.906-3c0.255-2.055,1.375-3.698,3.362-4.928L13,80
			c-0.656-2.296,0.344-2.963,3-2c-0.102-1.986,0.691-1.974,1.171,0.01c3.463-1.03,4.011,3.632,3.526,2.535
			C20.307,79.664,20.727,79.212,21.848,79z"/>
		<path style="fill:#383838;" d="M14.856,17.541c2.606-1.14,3.74,0.029,2.144,2.459l3,4c1.405-1.325,1.92-0.767,1,1l3,4
			c1.405-1.325,1.92-0.767,1,1c2.126,1.916,2.793,3.25,2,4c-0.266,2.266-0.835,2.856-1.455,0.691L24,35c1.802,3.176-2.457,3.871-2,0
			c-2.496,1.581-7.405-0.727-6-4c-1.616-0.358-2.399-1.516-3-3c-3.168,1.462-6.779-4.803-3.861-7
			c-2.696-0.323-2.581-1.121-0.045-1.963C10.559,17.525,12.932,16.262,14.856,17.541z"/>
		<path style="fill:#1B1B1B;" d="M28,23l1.11,0.065L30,30c1.644,4.293-3.669,3.484-5,0l-1-1l-3-4l-1-1l-3-4
			c-0.724-0.759-1.254-1.868-2.144-2.459C14.232,16.521,15.784,16.512,16,16c3.257-0.51,6.601-0.686,10.032-0.531
			C29.639,13.521,29.718,20.319,28,23z"/>
		<path style="fill:#1F1F1F;" d="M14,31c-0.152-1.09,0.515-1.09,2,0c1.352,1.916,4.467,2.237,6,4c1.391,2.958-4.965,8.725-7,5
			c-0.257,2.083-0.863,2.568-1.47,0.588C11.313,40.884,9.803,40.688,9,40c-2.041,2.439-4.312-0.654-3.9-3.118
			C4.073,35.838,4.383,34.178,3.795,33C1.87,27.554,11.859,27.684,14,31z"/>
		<path style="fill:#2A2A2A;" d="M103.895,75.008c2.534,0.364,2.744,0.886,1.163,2.895c-1.503,4.737-8.27,9.072-11.483,12.126
			C90.414,89.481,90.223,87.138,93,83c-2.269-3.496-0.964-5.545,3-6.711C98.14,72.881,102.691,68.783,103.895,75.008z"/>
		<path style="fill:#C0C0C0;" d="M108.15,45.95c-0.293,2.63-1.009,4.98-2.15,7.05c-0.013,4.158-1.053,7.748-3.121,10.772
			c4.541,8.1,6.795,5.918,11.207-0.803c-0.343-1.913,0.43-1.978,1.157-0.097c1.595,0.419,3.177,0.794,4.745,1.126
			c-3.375,4.096-7.35,8.503-11.99,10.979c-1.891,0.899-3.249-0.251-4.076-3.449c-1.505,1.053-2.03,0.566-1.052-1.11
			c-1.4,0.078-2.598-0.91-2.806-2.255c-1.575-0.419-3.286-1.1-5.134-2.045c-1.423,2.562-4.022,0.613-2.929-2.026
			c-1.95,0.189-1.941-0.628-0.003-1.257c0.664-2.644,2.028-2.729,3.869-0.958c3.227,1.352,4.604-0.273,4.131-4.877
			c0.82-4.219,2.153-8.219,4-12c-1.356-1.815-0.816-2.37,1-1C105.657,44.702,107.502,44.966,108.15,45.95z"/>
		<path style="fill:#414141;" d="M79.073,22.021c4.231,3.085,9.035,6.15,11.753,10.635l-0.921,0.155
			C87.352,34.78,85.384,35.177,84,34c-2.255,1.54-4.715-0.576-3-3l-4-3c-1.468,1.495-2.087,0.857-1-1
			c-2.274-0.754-2.548-3.079-0.823-6.974L79.073,22.021z"/>
		<path style="fill:#484848;" d="M69,103.68c1.001,0.292,1.335,0.732,1,1.32c1.888,1.116-0.073,3.567-1.774,3.113
			c-1.34,1.497-2.483,2.89-4.226,3.801c-2.934,1.781-4.405,0.275-4-2.913c-2.722-0.504-2.879-2.242-1-4
			c-2.031-1.764-1.926-2.743,0.314-2.935c0.06-3.131,4.727-4.4,6.686-2.065C68.726,98.296,70.489,100.955,69,103.68z"/>
		<path style="fill:#BCBCBC;" d="M28,11c2.606-0.228,3.928,3.084,2.081,4.829C31.637,14.663,32.125,15.368,31,17
			c1.525,1.426,1.83,3.908,2,6c0.465-0.503,0.798-0.429,1,0.223c-0.066,3.291,0.736,6.582,2.407,9.873c0,0-0.469,0.635-1.407,1.904
			l2.552,1.603c0.942,3.191,1.772,6.308,2.492,9.353c-1.105,0.418-0.67,1.099,1.304,2.045c0.808,0.372,0.75,0.714-0.118,1.029
			c0.18,3.088-2.243,1.895-3.69-0.029c-2.459-0.48-4.04-3.007-4.742-7.581C30.712,37.776,30.445,34.97,32,33
			c-0.844-2.378-1.51-5.045-2-8c-0.558-0.887-1.224-1.554-2-2c-0.857-1.79,0.483-4.656-1.405-6.85L16,16
			c0.564-1.336,2.087-0.606,3-1.11c3.858-0.181,6.179-1.114,6.963-2.801C26.543,11.837,27.311,11.234,28,11z"/>
		<path style="fill:#2D2D2D;" d="M15,45c1.457,1.378,0.831,1.991-1,1l-0.913,7.793l-1.95,0.21c-1.127,1.768-1.878,1.269-1.171-0.769
			c-0.5-0.797-2.372-1.291-3.256-1.917c-0.434-2.229,0.034-5.074-0.746-7.225C5.646,42.424,5.992,42.06,7,43
			C10.793,39.523,14.893,38.589,15,45z"/>
		<path style="fill:#2B2B2B;" d="M73.966,16.963c1.897,2.542,2.072,4.328,0.523,5.358C74.633,24.858,74.136,27.084,73,29
			c1.161,2.091-5.567-0.621-5.74-0.939C67.728,25.95,67.641,23.93,67,22c-0.885-2.492-0.551-4.191,1-5.094
			c-1.038-2.703,0.794-3.683,2.85-1.711C71.792,15.846,73.145,16.13,73.966,16.963z"/>
		<path style="fill:#3A3A3A;" d="M13,28c0.935,1.09,1.268,2.09,1,3l-8.084-0.058c-0.878-0.006-1.514,0.244-1.811,0.67
			C3.854,31.972,3.817,32.54,3.795,33C2.616,30.636,3.06,27.534,3,25c-0.267-2.717,3.906-5.178,6.139-4
			C9.626,23.523,11.344,25.927,13,28z"/>
		<path style="fill:#363636;" d="M30,102c3.927-0.834,3.981,5.244,0,4c-0.789,1.62-0.856,3.399,0,5c0.874-2.822,2.695-2.095,2,0.85
			c2.196,0.322,2.128,1.744-0.052,2.168c-3.683-2.656-7.996-4.866-10.982-8.26c-1.212-1.43,1.667-4.498,2.93-5.398
			c0.394-0.79,0.728-0.769,1.005,0.068C28.809,100.026,30.509,100.55,30,102z"/>
		<path style="fill:#232323;" d="M117.837,54.99c0.994,2.341,1.816,6.045-0.837,7.01c0.919,1.882-0.479,2.545-1.756,0.871
			l-1.157,0.097c-2.293,1.212-4.357-0.381-3.087-2.969c-0.315-0.743-2.234-5.617-2.232-6.03c0.001-0.325,0.54-0.647,1.232-0.97
			c1.202-1.794,3.033-1.671,4.84-0.848C115.73,53.192,117.128,53.749,117.837,54.99z"/>
		<path style="fill:#1C1C1C;" d="M9.966,53.234c0.186,0.297,0.826,0.767,1.171,0.769C12.636,51.751,13.59,52.083,14,55
			c0.921,0.181,0.885,0.52,0,1c3.041,1.894,0.859,7.946-3.029,7.843L8.412,66C7.936,63.752,4.597,52.455,9.966,53.234z"/>
		<path style="fill:#333333;" d="M93.575,90.029c-1.722,1.636-4.335,6.006-6.572,6.858c-2.818,1.196-2.794,0.847-1.523-1.824
			c-0.724-2.907-0.444-4.621,0.839-5.143L88,88c-1.221-2.533,1.575-4.7,3.934-5c0.305-0.874,0.661-0.86,1.066,0
			C93.043,85.354,92.505,87.894,93.575,90.029z"/>
		<path style="fill:#2B2B2B;" d="M65.063,10.031c0.173,2.122-0.426,4.055-2.927,3.969c0.181,1.931-0.584,1.933-1.136,0
			c-2.644,0.561-4.222-1.217-4.734-5.332c-2.906-1.782-3.953-3.587-3.14-5.416c-2.065,1.671-2.567,0.82-0.979-1.318
			c1.217-0.124,2.35-1.135,4.171,0.222C59.481,4.513,62.213,7.511,65.063,10.031z"/>
		<path style="fill:#444444;" d="M19.793,86.856c1.902,2.168,1.5,3.589-1.402,4.034c0.251,1.02-0.313,1.974-1.693,2.863
			c-1.426-1.179-3.021-2.097-4.785-2.753c0.037-0.309-0.104-0.707-0.008-1c0.964-2.951,3.161-6.042,6.235-7.818
			c0.897-0.518,2.533,1.564,2.523,2.373C20.655,85.225,20.097,86.106,19.793,86.856z"/>
		<path style="fill:#9E9E9E;" d="M98.898,38.995c1.422,0.013,2.246,1.05,3.102,2.005c1.058,1.336,1.222,2.203,0.49,2.601
			C97.553,42.334,92.723,42.133,88,43c1.797,1.064,4.143,2.655,3,5c-2.33,1.902-4.629,3.938-6.897,6.11L82,53
			c-2.234-1.227-2.449-1.991,0-3c2.351-0.143,4.207-2.189,4.846-3.856c0.938-2.448-0.609-4.407-0.873-7.238
			c1.737,1.073,2.765,2.244,4.971,2.201l9.07-0.176L98.898,38.995z"/>
		<path style="fill:#232323;" d="M52.147,1.934l0.979,1.318c2.128,3.076-1.969,6.441-4.966,4.504
			c-3.056,2.287-5.422,2.372-7.099,0.256C38.394,9.203,38.754,8.12,40,6C44.22,5.013,47.792,2.378,52.147,1.934z"/>
		<path style="fill:#111111;" d="M65.063,10.031c1.901,1.682,4.687,2.609,5.787,5.163L68,16.906c-1.296,2.687-1.546,2.816-3,0.094
			c-2.096,2.281-5.573-0.759-2.864-3C62.737,12.375,62.928,9.932,65.063,10.031z"/>
		<path style="fill:#222222;" d="M39,7c-0.563,3.411-5.562,7.677-8.919,8.829C28.945,14.445,28.353,12.742,28,11
			C31.702,9.741,35.135,7.674,39,7z"/>
		<path style="fill:#404040;" d="M85.64,98.21c-1.679,2.746-6.194,5.906-9.64,6.79l-2.097-1.37
			c-2.702,1.058-1.687-1.638,0.202-2.525c-0.285-3.033,3.705-3.66,5.777-2.223C82.445,97.585,84.365,97.361,85.64,98.21z"/>
		<path style="fill:#373737;" d="M15.919,102.118c-1.372-0.703-2.927-0.514-3.098-3.18c-0.153-2.383-1.107-4.664-0.694-6.791
			c1.562-0.19,7.224-0.588,5.247,1.69c0.111,1.173,0.552,8.808,0.067,8.829C16.941,102.687,16.431,102.44,15.919,102.118z"/>
		<path style="fill:#888888;" d="M45,107l0.114,2.284c-3.796,1.234-6.834,3.018-9.114,5.351c1.231,2.044-0.042,2.163-1.801,0.711
			c-0.603-0.358-1.623-0.874-2.252-1.328L32,111.85c0.664-2.16,1.191-4.478,1.582-6.953L36,105c2.083,2.394,4.083,1.727,6-2
			C44.462,100.7,47.407,104.966,45,107z"/>
		<path style="fill:#242424;" d="M36,114.635c1.997-1.956,7.067,0.506,6,3.365l3.199,1.296c2.305-1.314,1.795,0.877,0.801,2.804
			c-2.995,2.182-9.353-4.401-11.801-6.753C34.936,115.801,35.464,115.07,36,114.635z"/>
		<path style="fill:#A3A3A3;" d="M18.391,90.89c1.32-2.687,5.25-0.636,4.609,2.102V94c-0.27,1.888-1.409,2.108-3.001,1.649
			c0.547,3.042,0.258,5.564-0.865,7.566c0.91,0.216,0.893,0.501-0.005,0.85c-1.629,0.35-2.22-1.44-3.21-1.948
			c1.536,0.195,2.021-8.032-0.354-9.357c-0.846-0.472-2.162-0.818-3.439-0.614c0.071-0.367-0.257-0.774-0.213-1.147
			C13.964,92.28,16.39,92.267,18.391,90.89z"/>
		<path style="fill:#272727;" d="M13,80c1.524-0.03,3.254-0.51,4.743,0.884C16.047,83.803,13.556,85.579,11,87
			c0.285-2.357-1.168-4.673-0.234-6.955C11.344,78.516,12.736,77.966,13,80z"/>
		<path style="fill:#2A2A2A;" d="M108.15,45.95c0.375,0.569,1.124,1.701,1.68,2.039c0.614,0.562,1.054,1.463,0.863,2.256
			C109.735,54.21,109.253,54.964,106,53c-1.167-0.873-0.854-2.956-0.607-4.011C105.776,47.36,106.239,45.69,108.15,45.95z"/>
		<path style="fill:#C1C1C1;" d="M79.073,22.021c-1.019-0.195-3.153-0.91-3.971,0.49C74.44,23.645,75.317,25.871,76,27
			c0.146,2.708-0.521,4.375-2,5c-1.496,1.301-2.834-2.771-1-3c0.135-4.049,1.393-7.984,0.966-12.037
			C75.65,18.674,77.119,20.596,79.073,22.021z"/>
		<path style="fill:#C6C6C6;" d="M12,73l3.341,2.243C18.072,75.889,18.475,76.312,16,78c-1.882,0.596-3.656,0.929-5.32,1
			C9.363,72.401,8.814,76.263,9,71C9.996,69.799,11.378,71.724,12,73z"/>
		<path style="fill:#616161;" d="M105,44c-0.552-0.272-1.085,0.595-1,1c-1.761,1.386-4.003,1.583-4.877-0.927
			C95.959,45.051,89.895,46.202,88,43c3.979-2.379,9.191-0.662,13.878-0.038c0.021-0.855-0.502-1.599,0.122-1.962
			C102.921,42.027,104.501,42.518,105,44z"/>
		<path style="fill:#4B4B4B;" d="M9.094,19.037C9.179,19.678,9.017,20.365,9.139,21C7.184,22.478,5.258,24.016,3,25
			c-0.075-0.565-1.603-2-0.926-3.017C3.563,19.745,6.772,19.157,9.094,19.037z"/>
		<path style="fill:#A9A9A9;" d="M87.003,96.887c-0.444,0.169-1.097,0.933-1.362,1.323l-5.759,0.672
			c-0.9-1.824,0.205-3.121,3.312-3.892C82.292,92.98,82.228,91.317,83,90c0.743-2.426,2.782-3.317,5-2
			C87.592,89.74,83.859,95.345,87.003,96.887z"/>
		<path style="fill:#838383;" d="M41.061,8.012c1.412,2.611-5.251,7.991-7.682,9.545L31,17c-0.409-0.306-0.606-0.789-0.919-1.171
			C33.513,13.511,36.459,10.27,39,7c0.234-0.301,0.609-0.909,1-1L41.061,8.012z"/>
		<path style="fill:#2D2D2D;" d="M9,40c0.707,0.973,0.041,1.973-2,3c-0.273,0.436-0.481,0.95-1.037,1.092
			c-0.847-2.336-2.838-4.956-0.864-7.21L9,40z"/>
		<path style="fill:#343434;" d="M108,74.976c-0.171,1.448-1.452,2.76-2.942,2.927c-0.784-0.762-1.109-1.821-1.163-2.895
			c-1.207-2.08-1.197-3.24,0.029-3.48C105.8,71.903,106.998,73.434,108,74.976z"/>
		<path style="fill:#2B2B2B;" d="M54.756,116.856c-2.149,1.982-4.845,3.558-7.756,4.144c-1.543-0.857,1.66-5.082,3-5.226
			C51.976,114.14,54.547,114.104,54.756,116.856z"/>
		<path style="fill:#303030;" d="M121.013,61.318c-0.237,0.883-0.42,1.947-1.024,2.68c-1.588,0.421-2.809,1.341-4.568,2.527
			c-0.761-1.299-0.212-2.5-0.177-3.653L117,62c1.343-2.116,2.328-2.396,2.955-0.843C120.389,60.339,120.74,60.406,121.013,61.318z"
			/>
		<path style="fill:#A7A7A7;" d="M23.896,100.36c-0.556,1.976-1.444,4.01-2.93,5.398c-0.446-0.507-1.677-0.891-1.837-1.693
			c-0.061-0.254,0.118-0.621,0.005-0.85C18.852,101.063,20.46,97.877,23,99C22.932,99.603,23.234,100.285,23.896,100.36z"/>
		<path style="fill:#2E2E2E;" d="M25.963,12.089c0.474,0.186,0.679,0.313,0.803,0.632c0.217,0.557,0.283,1.984-0.769,2.125
			c-2.668,0.358-4.855,0.138-6.997,0.043C21.204,13.673,23.456,12.522,25.963,12.089z"/>
		<path style="fill:#3C3C3C;" d="M121.013,61.318l-1.058-0.16c-2.223,0.752-1.691-3.24-0.756-4.984
			c1.481,0.883,3.588,1.636,4.417,3.873C123.609,60.994,121.62,61.184,121.013,61.318z"/>
		<path style="fill:#8C8C8C;" d="M50,115.774c-0.969,1.765-2.219,3.359-3,5.226c-0.167,0.399-0.68,0.867-1,1.1
			c0.083-2.013-2.333-3.004-4-4.1c0.156-2.547,1.666-2.109,3.559-1.206c0.121-1.363,0.958-1.752,2.441-1.794
			C49.695,112.804,50.408,113.047,50,115.774z"/>
		<path style="fill:#C0C0C0;" d="M74.105,101.105c-0.253,0.54-0.774,0.969-1.101,1.506C74.62,103.446,75.9,103.757,76,105
			c-1.232,0.411-2.215,0.963-3,2h-1c-1.295,0.142-2.067-0.62-2-2c-0.409-0.382-0.659-0.887-1-1.32c0.739-2.573,1.641-2.309,2,0.32
			c0.323-1.885,0.989-2.885,2-3C73.407,100.176,73.775,100.224,74.105,101.105z"/>
		<path style="fill:#868686;" d="M112.003,49.992c1.268,1.731-0.331,2.45-2.003,3.008c-0.347,2.406,0.987,4.626,1,7
			c1.2,2.879-1.528,3.532-3,1c-0.519-1.178-0.65-2.556-0.392-4.131c-1.573-1.211-2.109-2.5-1.608-3.869
			c1.333,0.215,2.729,0.009,3.304-1.23c0.57-1.228,0.714-2.535,0.526-3.781C110.924,48.273,111.242,49.446,112.003,49.992z"/>
		<path style="fill:#969696;" d="M55.801,115.892l-1.045,0.963c-1.41-0.922-3.148-0.815-4.756-1.082
			c-1.995-2.569-0.049-4.205,2.843-2.774C54.161,113.564,55.431,114.452,55.801,115.892z"/>
		<path style="fill:#BDBDBD;" d="M64,111.913c-1.083,0.566-1.781,1.477-3,2.087c-2.461,0.762-3.277,0.462-2-2
			c-2.504-1.452-2.104-3.741,1-3c0.126,0.832,1.114,1.703,1.357,2.324C61.667,112.116,63.341,112.238,64,111.913z"/>
		<path style="fill:#545454;" d="M16,78c-1.049,0.591-2.128,1.166-3,2l-2.234,0.045c0.107-0.262-0.03-0.762-0.087-1.045
			c0.973-0.725,1.37-1.881,1.786-2.959C13.998,77.04,14.921,77.686,16,78z"/>
		<path style="fill:#424242;" d="M72,107c-0.518,0.7-1.079,1.269-1.893,1.698c-0.699,0.368-1.693,0.622-1.882-0.585
			c0.809-0.903,1.375-1.967,1.774-3.113c0.629,0.063,1.439,0.144,1.795,0.67C72.066,106.07,72.031,106.603,72,107z"/>
		<path style="fill:#1A1A1A;" d="M114.84,52.152c-1.42,0.951-3.188,0.878-4.84,0.848c0.172-1.191,1.145-2.27,2.003-3.008
			C113.009,50.714,114.005,51.177,114.84,52.152z"/>
		<path style="fill:#808080;" d="M119.199,56.173c-0.278,1.707-0.089,3.461,0.756,4.984c-0.952,0.386-1.948,0.645-2.955,0.843
			c1.346-2.076,1.115-4.636,0.837-7.01C118.065,55.387,118.802,55.936,119.199,56.173z"/>
		<path style="fill:#3C3C3C;" d="M61,114l-4,2c0.185-1.033,0.411-2.11,1-3c-0.34-1.007-0.007-1.341,1-1L61,114z"/>
		<path style="fill:#484848;" d="M12,73c-0.577-0.806-2.281-1.244-3-2l0.071-2C10.7,69.676,11.891,71.233,12,73z"/>
		<path style="fill:#464646;" d="M76,105c-0.982,0.383-1.707,2-3,2c0.051-0.481-0.327-2.353,0.423-2.871
			C73.939,103.773,75.015,105.359,76,105z"/>
		<path style="fill:#1A1A1A;" d="M31,33c0.284-0.873,0.618-0.86,1,0l5.541,16c0.899,0.261,0.881,0.596,0,1
			c2.368,3.484,2.189,3.886-1.541,6c-2.641,0.249-5.268,0.048-7.76-0.844C26.473,55.3,26.393,54.248,28,52
			c-1.576,0.607-1.858-0.393-0.848-3c-0.248-4.706-0.741-9.486-1.479-14.342L27,34C26.178,32.186,29.872,32.296,31,33z"/>
		<path style="fill:#3C3C3C;" d="M91,48c1.947-1.922,2.445-1.336,3,1c3.094-0.756,6.539,7.151,4.176,9.176
			c2.713,1.334,0.263,4.724-2.307,3.701c-0.623,0.999-2.752,0.813-3.869,0.958l-9.541-4.33C81.199,57.309,82.23,54.379,82,53
			C84.861,51.982,86.268,46.668,91,48z"/>
		<path style="fill:#242424;" d="M66,29c-0.159-2.244,5.572,0.083,6.271,0.817C72.802,30.375,73.698,33.96,72,34
			c0.689,1.866,0.965,5.51-1,6c-0.237,1.698,0.588,3.722-1,5l-5.72-0.175C64.509,43.547,64.416,42.272,64,41
			c-2.543-0.187-3.421-2.612-1-4c-0.852-1.048-1.034-2.775-0.548-5.179C60.757,31.083,61.273,30.476,64,30
			C63.239,27.419,64.074,27.138,66,29z"/>
		<path style="fill:#2F2F2F;" d="M70,46c0,2.437,0.001,5.082-0.171,7.983L57,53c-1.656-0.581-3.205-1.14-2-2.963
			c-0.201-2.515,1.966-3.951,4-2.037c-0.313-0.988,0.852-1.616,3.495-1.883C64.82,43.52,66.899,44.083,70,46z"/>
		<path style="fill:#151515;" d="M89,63c1.049,0.324,0.887,1.435-0.484,3.333C88.613,68.563,88.108,69.452,87,69
			c1.584,2.883-1.301,4.912-4,3c-1.728,1.928-3.547,0.795-5.46-3.4c0.763-1.613,1.25-3.48,1.46-5.6c-2.184-1.488-1.513-2.64,1-3
			C83.286,60.067,85.94,62.052,89,63z"/>
		<path style="fill:#C2C2C2;" d="M67.16,74.16c1.657,0.194,2.198,0.651,0.84,1.84c0.818,0.286,0.806,0.62,0,1
			c1.348,1.022,1.82,2.435,0.955,3.984c0.853,0.267,0.772,0.527-0.147,0.782c0.265,1.925-0.508,1.958-1.155,0.05l-2.175-0.267
			c-0.58-2.402-2.406-1.807-5.479,1.786c-0.441,2.638-1.355,2.481-2-0.092c-2.452-1.735-5.95-0.798-7.841,1.425
			c-2.287-1.348-4.01-1.242-5.167,0.318c2.169,2.103-1.12,6.239-3.781,5.014c-2.35-1.401-2.641-2.116-0.875-2.146l0.714-1.904
			c-1.578-0.917-1.257-1.26,0.963-1.029c-1.367-1.134-1.203-3.217,0.606-3.887C40.026,80.136,39.918,76.778,42,75
			c0.292-0.706,0.626-0.693,1,0c2.394-0.528,2.999,0.946,1.906,3.084C45.716,77.309,46.081,78.281,46,81
			c0.771-1.1,1.995-2.134,3.187-2.959C52.325,78.398,55.596,78.051,59,77c0.425-2.342,0.651-2.262,1.879-0.22l0.076-1.146
			c0,0,1.603-0.51,4.809-1.531C65.364,73.634,65.444,73.266,66,73C66.311,73.366,67.018,73.668,67.16,74.16z"/>
		<path style="fill:#242424;" d="M25,57c1.794,1.609,1.057,2.505-1.228,2.029c-2.036,3.729-11.908,6.025-12.801,4.814
			C13.116,62.034,13.096,58.613,14,56c0.898-0.329,11.473-1.181,11.579-0.599C25.666,55.883,25.386,56.432,25,57z"/>
		<path style="fill:#545454;" d="M55,54c4.477,2.464,8.44-0.512,11.041,2.014L62,59c2.703,1.643-0.528,4.418-2.745,3.15
			l-2.612-0.123c-3.401,1.174-5.389-2.652-5.577-5.714C46.852,53.846,52.554,52.582,55,54z"/>
		<path style="fill:#242424;" d="M80,60c-0.256,0.928-0.248,2.272-1,3l-0.86,6.622L75,68c-1.791,2.112-3.797,0.882-4-1.732
			c-1.479-1.171-2.249-5.062-0.122-6.221C73.529,58.603,77.275,59.945,80,60z"/>
		<path style="fill:#151515;" d="M71,66.268c1.303,0.287,3.005,0.918,4,1.732c1.855-0.109,2.783-0.164,2.783-0.164
			C79.185,70.177,79.591,71.898,79,73c-3.64,0.992-7.307,0.992-11,0C67.895,70.53,67.545,65.506,71,66.268z"/>
		<path style="fill:#272727;" d="M50,49l5,1.037c0.745,0.947,2.034,1.543,2,2.963c-0.646-0.049-1.339,0-2,0
			c-1.818,0.187-3.334,0.779-4.548,1.776C47.921,53.924,45.437,53.332,43,53c-1.303-3.419-1.791-6.152,2.739-4.798L50,49z"/>
		<path style="fill:#787878;" d="M64,41c0.757,2.832,3.458,3.208,6,4v1c-4.083-1.697-6.997,1.059-11,2c-2.926,1.501-9.546-6.155-8-9
			c0.743-2.517,5.588-4.762,7.929-3.024c1.924,0.634,2.125,1.636,0.765,3.031c-5.596,1.374,2.373,7.843,2.301,3.302L64,41z"/>
		<path style="fill:#0D0D0D;" d="M53.696,69.861C56.009,68.702,56.513,69.613,56,72c2.007,0.336,1.02,3.889-1,4
			c-2.152,0.742-4.757,1.069-7.815,0.98c0,0-0.106-1.315-0.319-3.945C48.369,70.826,51.02,69.128,53.696,69.861z"/>
		<path style="fill:#858585;" d="M62,66c1.684,0.429,3.531,1.128,4,2.921c-0.033,1.572-0.111,3.3-0.236,5.181
			c0.407,2.657-2.905,2.274-4.885,2.677c-2.254-0.438-2.316-2.28-0.051-2.78c-0.613-1.201,1.827-2.001,1.857-1.855
			c0.168,0.815-0.807,2.088-1.857,1.855c-0.878,0.861-1.906,1.628-3.086,2.302C56.78,77.826,55.183,77.995,55,76
			c0.644-1.237,1.045-2.599,1-4c1.464-1.62,2.798-3.337,4-5.15C60.517,66.296,61.255,66.056,62,66z"/>
		<path style="fill:#424242;" d="M59.255,62.15C61.033,62.276,61.326,60.254,62,59l4.041-2.986c1.159-0.343,2.251-1.304,3.918-0.956
			C71.381,59.555,56.893,66.476,59.255,62.15z"/>
		<path style="fill:#262626;" d="M78,44l4,6c0.091,0.991-0.163,2.019,0,3c-1.572-0.483-3.223-1.104-4.454-2.15
			c-2.474,0.684-4.715-0.121-3.354-2.85c0.672-0.773,0.694-2.036,0.808-3c-1.102-1.379-0.513-1.896,1-1
			C76.012,41.912,77.596,41.942,78,44z"/>
		<path style="fill:#363636;" d="M79.512,53.425c2.118,0.091,2.037,4.318,0.736,4.462c-3.254-1.121-7.365-0.87-9.928-4.137
			C73.156,52.619,76.028,53.275,79.512,53.425z"/>
		<path style="fill:#3E3E3E;" d="M22,71c1.939-0.385-0.163,5.014-0.757,5.584C20.832,76.977,13.09,75.775,13,73
			c-0.12-0.92,0.462-2.084,1.901-2.07L22,71z"/>
		<path style="fill:#161616;" d="M66,68.921c-1.037-0.06-2.257,0.354-3.399-0.032C61.559,68.537,61.993,66.917,62,66
			c0.463-1.664,3.973-4.814,5.427-3.592C69.372,64.042,66.875,67.437,66,68.921z"/>
		<path style="fill:#D0D0D0;" d="M41.816,52.84c0.13-1.998,0.93-1.888,1.184,0.16h12v1c-0.772-0.425-2.452-0.123-3.236,0.218
			c-0.658,0.286-0.661,1.453-0.698,2.095c0.607,2.028-0.22,2.188-1.005,0.11c-0.875-0.018-0.85-0.867-1.31-1.367
			c-3.682,1.558-5.914,1.26-6.698-0.892C41.618,54.98,41.268,54.912,41,54c-1.915,2.085-3.582,3.085-5,3
			c0.101-0.307-0.061-0.681,0-1c1.729-1.624,2.11-3.743,1.541-6C39.46,48.987,41.134,51.307,41.816,52.84z"/>
		<path style="fill:#8C8C8C;" d="M24,72c0.819,2.32,0.577,4.196-2,5c0.595,0.156,1.027,0.293,1,1c0.873,0.284,0.86,0.618,0,1h-1.152
			c-1.583,0.005-3.142-0.325-4.677-0.99C16.829,78.1,16.298,77.832,16,78c0.235-2.77-3.413-2.539-4-5h1
			c2.194,2.044,5.322,2.857,8.406,1.424C22.078,73.13,22.09,72.025,22,71l2-1C26.656,70.319,26.541,71.239,24,72z"/>
		<path style="fill:#0F0F0F;" d="M60,66.85c0.874,1.208,1.05,2.765,0.058,3.728C58.924,71.678,57.429,71.985,56,72
			c-1.031-0.377-1.799-1.179-2.304-2.139C54.411,67.174,57.442,66.29,60,66.85z"/>
		<path style="fill:#464646;" d="M56.643,62.026c-0.489,0.473-0.803,1.086-0.69,1.775c-1.389-0.199-2.801,0.148-3.877-0.877
			c-1.544,0.734-1.583-0.492-1.013-1.924l-1.003-4.577c0.439,0.009,0.73,0.621,1.005-0.11
			C52.687,58.411,54.649,60.281,56.643,62.026z"/>
		<path style="fill:#242424;" d="M30.724,66.753c1.818,0.113,2.572,1.617,2.36,3.331c1.875,2.214,0.455,3.769-2.152,2.609
			c-1.278,2.116-1.492,1.914-1.803-0.493C26.49,72.373,26.234,71.937,28,70c-1.777-1.099-1.544-1.736,0-3
			c-0.873-0.284-0.86-0.618,0-1C29.467,63.957,30.231,64.316,30.724,66.753z"/>
		<path style="fill:#434343;" d="M48.751,55.055c-1.415,1.475-3.477,2.213-4.674,3.915c-3.58,1.851-4.822-2.627-2.024-4.808
			C44.27,54.506,47.062,53.219,48.751,55.055z"/>
		<path style="fill:#949494;" d="M43,73.887c0.874,0.32,0.86,0.692,0,1.113h-1c-0.73,1.756-1.73,3.423-3,5
			c-0.158,1.249-0.492,2.582-1,4c0.057,2.012-1.614,2.019-2,0c-0.971-0.944-1.637-2.014-2-3.211
			c-0.412-0.936,0.145-2.283,1.672-4.039c0.001-0.294,0.191-0.601,0.157-0.892c1.243-1.104,2.633-2.082,4.171-2.934
			C40.806,73.224,42.068,74.178,43,73.887z"/>
		<path style="fill:#464646;" d="M30.724,66.753C29.931,66.704,28.485,66.676,28,66c-2.386,1.663-3.469-0.472-1.874-2.612
			c1.097-0.784,2.727-3.661,4.563-1.95C31.759,62.501,30.493,65.377,30.724,66.753z"/>
		<path style="fill:#3A3A3A;" d="M74.192,48l3.354,2.85c-1.45,1.366-4.795,2.018-6.289,0.216c-0.78-0.941-0.396-2.923,0.33-2.954
			L74.192,48z"/>
		<path style="fill:#525252;" d="M46.079,65.774c0.662-1.356-0.918-1.893-0.759-2.779c-1.89-1.493-1.618-1.882,0.808-1.995
			c1.219-1.087,1.462-2.539,2.486-3.748c-0.135,2.739,0.631,4.958-0.019,6.597C48.252,64.714,47.263,65.084,46.079,65.774z"/>
		<path style="fill:#353535;" d="M36.108,69.816c1.123-0.941,1.318-0.242,0.858,1.173c-0.282,0.38-1.039,5.014-5.814,3.898
			c-2.676-0.275-2.682-1.163-0.22-2.195l2.152-2.609C34.099,70.1,35.109,69.992,36.108,69.816z"/>
		<path style="fill:#292929;" d="M76.176,75.1c1.389,1.491,0.741,2.125-1.079,1.063C73.107,78.332,69.85,77.855,68,76
			c-0.632-0.434-0.649-1.181-0.84-1.84c0.295,0.003,0.593-0.07,0.887-0.047C69.944,73.237,76.203,72.48,76.176,75.1z"/>
		<path style="fill:#262626;" d="M20.807,67.193c-0.531,1.018,0.722,1.447,1.289,2.687c-3.706,0.211-6.471,0.193-10.171,0.004
			c0.577-1.09,1.522-1.112,2.075-1.732c0.172-1.703,1.852-2.245,3-0.992C18.269,67.094,19.544,67.492,20.807,67.193z"/>
		<path style="fill:#262626;" d="M28.24,55.156c0.112,0.871,0.888,1.652,0.805,2.608c-1.139,1.56-2.376,3.387-4.867,3.068
			c-0.373-0.443-0.281-1.499-0.407-1.802C24.178,58.285,24.364,57.621,25,57C23.931,55.286,27.349,53.219,28.24,55.156z"/>
		<path style="fill:#353535;" d="M28,70c0.62,0.484,0.688,1.586,1.129,2.199c1.271,2.15,0.987,3.542-1.639,2.306
			c-1.348,1.28-1.912,1.132-1.692-0.445C23.623,76.559,22.939,74.655,24,72v-2c0.393-0.196,0.718-0.662,1-1
			C26.764,68.099,27.71,67.805,28,70z"/>
		<path style="fill:#383838;" d="M46.079,65.774c-0.187,2.656-0.312,4.412-1.905,5.817c-1.566-1.476-2.721-3.511-1.718-5.909
			C44.091,65.26,45.086,66.833,46.079,65.774z"/>
		<path style="fill:#2A2A2A;" d="M74,41c0.284-0.873,0.618-0.86,1,0c2.108,0.241,2.708,1.739,1,3c-0.007,0.511-0.603,0.832-1,1
			c-1.052,0.407-1.612,1.316-2.818,2.103C71.759,44.586,72.108,42.863,72,41C72.196,38.344,72.862,38.344,74,41z"/>
		<path style="fill:#494949;" d="M17,67.16c-0.799,0.781-1.909,1.015-3,0.992c-0.639-0.264-1.559-0.111-2.138-0.997
			c2.434-2.062,4.821-2.758,7.431-2.822C18.828,66.515,17.458,66.363,17,67.16z"/>
		<path style="fill:#3C3C3C;" d="M28,66v1c-0.362,1.86-1.272,1.946-3,2c-1.548-0.409-0.89-2.012-1.068-3.43
			c-0.205-1.638,1.176-1.454,2.194-2.182L28,66z"/>
		<path style="fill:#0C0C0C;" d="M46.866,73.035c1.772,3.221,2.601,5.262-1.961,5.049C44.187,77.139,43,76.425,43,75v-1.113
			C44.261,73.494,45.465,72.802,46.866,73.035z"/>
		<path style="fill:#4D4D4D;" d="M46.129,61c-0.302,0.334-0.038,1.298-0.808,1.995c-1.017-0.059-2.194,0.232-3.202-0.044
			c0.217-0.9,0.125-1.853,0.068-2.764c-0.187-0.714,0.443-1.12,1.89-1.216c0.6-0.036,1.442,0.218,1.747,0.672
			C46.11,60.068,46.093,60.603,46.129,61z"/>
		<path style="fill:#7C7C7C;" d="M92,62.835l0.003,1.257C91.244,66.135,91.244,68.105,92,70c-0.971,3.074-5.814,2.459-5-1l2-6
			C89.83,63.257,91.143,62.946,92,62.835z"/>
		<path style="fill:#494949;" d="M34.128,65.963c-1.268-0.4-2.608-0.833-2.135-2.474c0.313-1.085,0.185-2.247,1.478-3.489
			C35.319,61.498,34.993,63.935,34.128,65.963z"/>
		<path style="fill:#272727;" d="M35.672,76.751c0.9,0.337,1.82,1.117,0.941,2.225c-0.48,0.604-1.79,0.944-2.613,1.814
			c-0.435,0.861-0.805,0.808-1.113-0.128C32.11,81.172,31.822,80.94,32,80c-0.873-0.284-0.86-0.618,0-1c-0.904-0.103-0.85-0.45,0-1
			C33.145,77.375,34.363,76.868,35.672,76.751z"/>
		<path style="fill:#909090;" d="M44.077,58.97c-0.499,0.71-0.883,1.306-1.89,1.216C41.491,60.124,40.695,59.933,40,60
			c-1.752-0.159-1.889-1.75-1-3c-1.571-0.633,0.662-2.358,2-3l1.052,0.163c-0.247,1.02-0.431,2.095-0.394,3.301
			C41.698,58.714,42.857,59.044,44.077,58.97z"/>
		<path style="fill:#3F3F3F;" d="M51.66,66.484c1.175,0.592-0.887,2.981-2.127,2.514c-0.95-0.358-3.331-1.12-2.274-2.719
			C47.842,65.771,49.947,65.622,51.66,66.484z"/>
		<path style="fill:#484848;" d="M36.966,70.99c-0.326-0.324-0.457-0.932-0.858-1.173c-1.318-0.792-1.56-2.662-1.98-3.854
			c1.506-0.145,2.617,0.666,3.319,2.026C38.175,69.4,37.786,69.886,36.966,70.99z"/>
		<path style="fill:#979797;" d="M79,73c0.764,2.783-0.687,4.547-2.824,2.1c-2.007-2.247-5.395-0.775-8.129-0.987L68,73H79z"/>
		<path style="fill:#454545;" d="M42.118,62.951c-0.15,0.62-0.881,3.153-2.247,2.337c-1.155-0.69-0.974-2.01-0.839-3.899
			C40.568,60.362,40.974,62.637,42.118,62.951z"/>
		<path style="fill:#4E4E4E;" d="M41,54l-2,3c1.013,1.351-0.295,2.889-2,2c-0.445-0.621-1.349-0.94-1-2
			C37.797,56.083,38.878,53.672,41,54z"/>
		<path style="fill:#D9D9D9;" d="M73,35c2.54,1.237,2.763,3.945,1,6h-2c-0.143-0.487-0.486-0.903-1-1c0.28-2.002,1.35-3.92,1-6
			C73.271,32.714,73.586,33.27,73,35z"/>
		<path style="fill:#222222;" d="M40,72.924c-0.604,1.818-2.197,3.233-4.171,2.934C35.58,73.698,38.176,72.998,40,72.924z"/>
		<path style="fill:#3E3E3E;" d="M32,78c0.038,0.327,0,0.67,0,1c-2.124,2.316-4.829,2.021-3-1l0.623-1.966
			c-1.741-1.504-0.657-2.07,1.528-1.147C31.257,75.937,31.875,76.922,32,78z"/>
		<path style="fill:#464646;" d="M41.513,71.468c-2.1-1.253-2.376-2.747-2.454-4.497C41.063,66.726,42.438,69.11,41.513,71.468z"/>
		<path style="fill:#4E4E4E;" d="M40,60c-1.28,0.124-2.247,0.05-3-1l2-2C40.216,57.455,40.047,58.915,40,60z"/>
		<path style="fill:#353535;" d="M55.953,63.801c0.484,0.087,1.028,0.016,2.076,0.666c-1.266,1.161-2.694,2.695-5.106,2.426
			C53.45,64.882,56.059,65.743,55.953,63.801z"/>
		<path style="fill:#3D3D3D;" d="M52.076,62.924c-0.199,0.687,0.112,1.683-1.21,2.499C49.193,63.9,49.924,62.017,51.063,61
			L52.076,62.924z"/>
		<path style="fill:#171717;" d="M66,73c-0.138,0.253-0.28,0.818-0.236,1.102c-1.533-1.244-0.642-3.693,0.236-5.181
			c1.298,0.075,1.19,1.318,0.832,2.364C66.66,71.787,66.336,72.384,66,73z"/>
		<path style="fill:#4C4C4C;" d="M20.807,67.193c-0.467-0.796-1.103-2.076-0.257-2.18c1.209-0.149,2.228-0.057,2.413,0.435
			c0.178,0.474,0.254,1.926-0.38,2.438C22.19,68.202,21.372,67.106,20.807,67.193z"/>
		<path style="fill:#4D4D4D;" d="M32,58c-0.873-0.284-0.86-0.618,0-1l1.446-0.009c0.462-0.003,2.043,0.11,1.12,0.969
			c-0.3,0.279-0.737,0.886-1.103,1.025C32.997,59.163,32.43,58.037,32,58z"/>
		<path style="fill:#515151;" d="M32,57v1c-1.011,0.375-1.682,1.326-2.674,2.077c-0.613-1.129-0.329-1.761-0.281-2.313
			C29.698,57.062,31.138,57.006,32,57z"/>
		<path style="fill:#6B6B6B;" d="M36.233,61.211c0.607-0.678,1.568-0.149,1.749,0.267c0.151,0.345,0.022,0.877,0.002,1.957
			c-0.009,0.484-0.502,0.706-1.028,0.084C36.391,62.849,35.365,62.182,36.233,61.211z"/>
		<path style="fill:#393939;" d="M76,27c0.188,0.31,0.63,0.958,1,1l4,3c0.679,1.179,2.389,1.725,3,3
			c2.885,0.098,2.218,0.953,0.066,2.228l-0.937,0.835L79,40c-0.151,0.327-0.609,1-1,1c-0.023,2.368-1.887,1.92-3,0h-1
			c-1.146-1.769-1.098-3.948-1-6c-0.304-1.022-0.172-2.605,1-3l-0.057-3.455C73.927,27.564,74.527,26.571,76,27z"/>
		<path style="fill:#A2A2A2;" d="M89.906,32.811c-1.094,2.12-3.744,2.576-5.84,3.417L84,34
			C86.028,33.974,87.919,33.145,89.906,32.811z"/>
		<path style="fill:#ABABAB;" d="M78,41v3h-2c0.014-1.081-0.455-2.093-1-3H78z"/>
		<path style="fill:#A1A1A1;" d="M83.129,37.063C81.857,38.196,80.89,40.007,79,40C79.659,38.571,81.248,36.685,83.129,37.063z"/>
		<path style="fill:#262626;" d="M48.045,104.811c1.496,2.816,0.838,4.071-1.969,2.255c-0.36,0.523-0.719,0.487-1.076-0.066
			c-0.363-1.883-1.722-2.864-3-4c-2.934,0.958-4.203-1.043-3.108-3.727c-1.67-0.362-3.301-0.491-4.892-0.387
			c-1.992,1.369-3.086,1.383-3.281,0.043C27.45,99.56,25.327,98.34,27,95c0.561-4.358,6.073-4.949,10.301-3.03
			C42.69,94.417,45.204,100.131,48.045,104.811z"/>
		<path style="fill:#303030;" d="M59,105c0.968,1.217,0.785,2.581,1,4c-1.371,0.551,0.158,2.257-1,3c-0.365,0.234-0.761,0.639-1,1
			c-1.853,2.026-8.983-7.975-6-9c0.417-2.476,1.204-2.768,3-1C57.149,101.719,60.773,101.157,59,105z"/>
		<path style="fill:#3B3B3B;" d="M49,96c3.357,0.189,5.024,1.189,5,3c2.568-1.112,3.046,0.174,1,2c1.362,1.17,2,1.773,0,2
			c-1.143,0.724-1.553,1.017-3,1c-2.216-0.026-3.556-0.972-4.462-3.081C46.702,98.974,46.579,96.68,49,96z"/>
		<path style="fill:#292929;" d="M50,87l0.946,0.78L48,93c-2.531,1.663-5.823-0.302-6.789-3l3.781-5.014
			C47.058,84.998,48.728,85.669,50,87z"/>
		<path style="fill:#494949;" d="M23,94c0.35-0.068,2.111,0.093,1.881,0.907C24.45,96.431,23.782,98.003,23,99
			c-1.233,1.572-1.737,4.129-3.866,4.215c-1.486-3.025-1.243-6.482-0.963-10.277C20.223,93.367,21.454,94.059,23,94z"/>
		<path style="fill:#1C1C1C;" d="M52.843,113c-1.156,0.669-2.193,1.59-2.843,2.774c-0.658-0.109-1.258-0.848-2-0.774
			c-3.309,0.328-6.167-7.114-1.924-7.934c0.887-0.559,1.711-1.143,1.969-2.255C49.64,107.439,53.025,109.449,52.843,113z"/>
		<path style="fill:#414141;" d="M23,92.992l-4.609-2.102c0.437-1.289,0.669-2.793,1.402-4.034c0.41-0.695,2.049-1.742,2.848-1.706
			c0.594,0.027,5.724,4.713,3.934,6.89C25.737,93.058,24.195,93.07,23,92.992z"/>
		<path style="fill:#454545;" d="M53,88c2.791-0.641,3.203,0.176,1,2c2.802,1.637,3.285,2.582,1.448,2.835
			C55.998,94.069,55.849,94.791,55,95c-1.142,2.117-3.142,2.45-6,1c-0.215-0.983-1.3-2.099-1-3l2.656-5.262
			C51.645,87.444,52.426,87.532,53,88z"/>
		<path style="fill:#484848;" d="M27,78c2.872,1.623,3.205,2.956,1,4c0.873,0.284,0.86,0.618,0,1
			c0.209,2.714-0.035,3.221-2.664,1.927C22.68,84.247,23,81.363,23,79v-1C25.337,76.649,26.67,76.649,27,78z"/>
		<path style="fill:#6E6E6E;" d="M32.887,80.661c0.954,0.233,0.718,0.82-0.199,1.297c-1.084,1.622-1.618,3.288-1.601,4.999
			c1.901,1.943-0.53,2.982-2.087,1.222c-1.717-0.381-3.193-1.527-3.664-3.252C26.342,84.443,26.819,83.182,28,83
			c-0.162,1.655,0.504,0.989,2-2c-0.027-1.103,1.061-1.437,2-1L32.887,80.661z"/>
		<path style="fill:#151515;" d="M30.719,98.929c0.225,1.793-1.715,2.292-5.819,1.499c-0.306,0.069-0.692-0.032-1.005-0.068
			c0.542-1.928,2.128-3.85,3.104-5.36C27.873,96.61,29.165,97.962,30.719,98.929z"/>
		<path style="fill:#232323;" d="M32.916,87.079C33.817,86.633,34.866,86.98,35,88c2.656,0.198,2.656,0.865,0,2l-6.703-0.049
			c-0.048-0.957,0.392-1.36,0.703-1.773c0.879,0.011,1.664-0.452,2.087-1.222C32.384,85.824,32.993,85.865,32.916,87.079z"/>
		<path style="fill:#434343;" d="M21.848,79c0.036,0.723,0.389,1.422-0.228,3.012c-1.761-1.128-3.259-2.402-4.45-4.001
			c0.522-1.135,1.785-1.388,3.074-0.847C20.869,77.425,21.406,78.264,21.848,79z"/>
		<path style="fill:#959595;" d="M41.211,90c-0.335,0.108-0.939-0.199-1.211,0c-1.294-0.356-2.784-0.734-4,0h-1v-2
			c-0.493-0.996,0.173-1.33,2-1c1.221-0.079,2.085-0.227,3.05-1.05c0.284-0.873,0.618-0.86,1,0
			C41.923,87.27,40.765,88.636,41.211,90z"/>
		<path style="fill:#1E1E1E;" d="M40,90c-1.19,0.871-2.646,0-4,0c-0.123-0.956,0.999-1.005,1.549-1.039
			C38.526,88.9,39.97,88.822,40,90z"/>
		<path style="fill:#242424;" d="M24,35l2.152-0.402c0.241,5.28,0.574,10.081,1,14.402c0.224,0.905,1.065,1.835,0.848,3
			c-0.22,2.074-1.56,3.063-3.502,3.58C20.829,55.746,17.329,55.552,14,55l-1.379-1.08c0.691-2.576,1.15-5.216,1.379-7.92
			c0.41-0.224,0.677-0.677,1-1c-0.221-1.718-0.666-3.188-1.333-4.41L15,40c3.007,0,4.467-3.535,7-5
			c0.281,0.25,0.554,0.522,0.942,0.735C23.449,36.013,23.751,35.453,24,35z"/>
		<path style="fill:#A0A0A0;" d="M27,34l0.152,15c-0.27,0.698,0.35,1.76-1.073,2.055L26.045,36.92
			c-0.002-0.848-0.106-1.577-0.593-1.877C25.09,34.818,24.422,34.986,24,35C24.642,33.831,25.961,34.26,27,34z"/>
		<path style="fill:#919191;" d="M30,30c1.483-0.102,1.862,1.977,1,3l-4,1c-0.533-1.232-2.023-2.476-2-4l2.31,1.657
			c0.874,0.627,2.217,0.595,2.655-0.132C30.171,31.182,30,30.45,30,30z"/>
		<path style="fill:#989898;" d="M20,24c-1.194-1.194-2.926-2.134-3-4C18.68,20.694,20.004,22.123,20,24z"/>
		<path style="fill:#969696;" d="M24,29c-1.199-1.199-3.035-2.101-3-4C22.194,26.194,24.023,27.113,24,29z"/>
		<path style="fill:#A7A7A7;" d="M16,31h-2c-0.543-0.919-0.854-1.945-1-3C13.832,29.042,15.154,29.801,16,31z"/>
		<path style="fill:#A9A9A9;" d="M30,25c0.646,1.569,1.524,4.091,0,5c-1.594-2.028-0.9-4.702-2-7
			c0.71-0.181,0.718-0.984,1.533-2.025C30.495,22.204,29.826,23.674,30,25z"/>
		<path style="fill:#A1A1A1;" d="M15,40v5c-1.164-0.476-0.693-2.706-1.416-3.805C11.02,39.989,9.278,42.77,7,43
			c0.638-1.019,1.439-1.931,2-3H15z"/>
		<path style="fill:#BDBDBD;" d="M96,76.289c-1.964,1.382-3.041,4.476-3,6.711h-1.066c-2.13-0.181-4.494,0.893-7.092,3.222
			C82.647,87.932,81.032,87.858,80,86c-2.107-2.385,1.63-5.907,4-4c1.073-2.626,2.406-3.323,4-2.092
			c-1.438-1.168-0.237-2.044,3.604-2.627C91.94,76.674,92.739,76.247,94,76c0.332-0.903,0.665-0.903,1,0
			C95.475,75.602,95.808,75.699,96,76.289z"/>
		<path style="fill:#A3A3A3;" d="M102.871,70.417c0.181,0.445,0.79,0.712,1.052,1.11c0.254,1.148,0.179,2.329-0.029,3.48
			c-0.537-0.624-0.723-1.34-1.903-2.232c-1.705,2.34-4.342,2.351-5.992,3.513c-0.339-0.055-0.658-0.263-1-0.289l-0.741-1.119
			c1.038-0.993,1.665-2.097,1.881-3.311c-1.404-2.232-0.767-2.705,1.675-2.504c0.168-1.997,0.973-1.879,1.465,0.105
			C100.487,69.403,101.685,69.819,102.871,70.417z"/>
		<path style="fill:#242424;" d="M104,45c1.499-0.046,0.183,10.825-4,12c0.69,2.417,0.19,2.621-1.824,1.176L94,49
			c-3.212-2.653,2.076-5.291,5.123-4.927C100.526,44.151,102.884,43.329,104,45z"/>
		<path style="fill:#171717;" d="M114.087,62.969c1.396,6.872-7.196,8.635-6.543,8.777c-0.3-0.065-7.754-5.081-4.664-7.973
			c0.372-3.186,2.426-4.741,5.121-2.772c0.719-0.611,2.29-0.189,3-1C111.662,61.232,113.781,61.465,114.087,62.969z"/>
		<path style="fill:#262626;" d="M106,53c1.338,1.001,2.814,1.451,3.464,3.173c0.709,1.88-0.106,3.349-1.464,4.827
			c-1.539,1.307-3.667,1.355-5.121,2.772C102.523,62.166,102.955,52.509,106,53z"/>
		<path style="fill:#171717;" d="M92.003,64.092l2.929,2.026c1.686-0.267,3.239,1.257,2.882,2.948
			c0.058,1.135-0.999,1.682-1.675,2.504C94.219,73.054,92.201,72.708,92,70c-1.423-0.948-3.759-1.229-2.963-3.373
			C89.511,65.351,90.525,64.116,92.003,64.092z"/>
		<path style="fill:#303030;" d="M95.869,61.877l2.307-3.701C98.473,57.698,99.438,57.158,100,57
			c0.762-0.103,1.844-0.165,1.974,0.577c0.015,0.086-0.49,7.114-2.41,7.221C97.925,64.889,95.928,63.571,95.869,61.877z"/>
		<path style="fill:#212121;" d="M100.066,68.163c2.508,0.756,1.358,3.045-0.787,1.008c-0.47-0.179-0.975-0.216-1.465-0.105
			c-1.423-0.404-2.374-1.594-2.882-2.948c0.154-1.808,1.88-1.014,2.874-0.401C98.704,66.272,99.311,67.261,100.066,68.163z"/>
		<path style="fill:#292929;" d="M102.871,70.417c0.05,0.998-1.421,0.981-2.061,0.834c-0.822-0.189-1.339-1.309-1.532-2.08
			c0.777,0.41,1.176-0.392,0.787-1.008c0.43,0.273,1.48-0.094,1.944,0.363C102.569,69.077,102.619,69.798,102.871,70.417z"/>
		<path style="fill:#A3A3A3;" d="M81,31c-1.877,0.004-3.306-1.32-4-3C79.023,28.012,80.09,29.419,81,31z"/>
		<path style="fill:#ABABAB;" d="M64.016,91.937c1.012-1.869,2.711-0.869,2.357,1.063c1.215,1.006,1.738,2.635,1.57,4.888
			c1.371,2.546,0.71,3.264-1.943,2.112c-1.955,1.44-6.728,0.17-7,5c-0.811-1.02-2.48-2.963-4-2c-0.121-0.634,0.282-1.436,0-2
			c1.869-0.801,2.134-2.141,0.794-4.021L57,95c0.805-2.838,0.805-2.838,0,0c-0.42,2.706-0.915,2.435-2,0
			c0.011-1.722-0.577-3.349-1-5c1.993-1.168,4.916-1.878,7.061-0.811l1.048,0.326C61.84,91.598,62.475,92.406,64.016,91.937z"/>
		<path style="fill:#353535;" d="M71,104l-2-0.32c-0.983-1.248-1.728-2.7-3-3.68c0.727-0.535,1.452-1.358,1.943-2.112
			C72.096,93.027,73.12,100.411,71,104z"/>
		<path style="fill:#131313;" d="M42.871,26.089C45.35,25.243,49.298,28.701,47,31c2.358,1.193,2.927,1.501,1.341,4
			c1.869,0.626,2.924,2.067,2.659,4l8,9c-1.385,0.325-2.219,2.25-4,2.037L50,49l-5.111-1.053C43.989,48.643,43.026,48.327,42,47
			c-1.195,0.781-2.595,0.443-1.955-1.045C35.976,43.847,36.447,38.866,35,35c-0.441-3.063,1.687-2.977,1,0l2-2
			c-2.248-1.75-0.744-5.825,2-6C40.911,23.303,41.868,23,42.871,26.089z"/>
		<path style="fill:#282828;" d="M42.94,11.995c0.313,2.282,0.838,4.601,1.574,6.956c0,0-0.838,0.35-2.513,1.049
			c2.43,1.387,1.688,2.541-1,2c-0.994,1.864-1.994,1.864-3,0c-1.59,0.436-3.256,0.769-5,1c-1.422-0.223-2.305-1.401-2.612-2.874
			C30.185,19.152,30.517,18.002,31,17l10.061-8.988C43.746,8.792,44.352,9.387,42.94,11.995z"/>
		<path style="fill:#131313;" d="M41,22c0.729,1.493,0.396,3.159-1,5c-0.276,2.099-1.148,4.085-2,6c0.51,2.278,0.331,2.661-2,2
			c-0.204-1.083-0.985-1.151-1,0l-2.751-7.351c-0.786-2.1-0.098-3.734,1.751-4.426c1.144-0.505,2.478-0.912,4-1.223
			C39.263,21.579,39.736,21.219,41,22z"/>
		<path style="fill:#191919;" d="M41.231,49.029c1.751,0.21,1.47,2.496,0.585,3.811c-2.169,0.834-2.868-1.585-4.276-2.84
			c-0.075-0.295,0.097-0.72,0-1L41.231,49.029z"/>
		<path style="fill:#8A8A8A;" d="M50,49c-2.04,0.159-4.052-0.215-6.316-0.572C42.792,50.109,42.897,51.589,43,53
			c-0.357,0-0.856-0.286-1.184-0.16c0.036-1.298,0.036-2.641-0.585-3.811c0.107-0.311-0.029-0.737,0.118-1.029
			c-0.497-0.797-0.28-1.13,0.651-1c0.259-0.178,1.499-1.898,1.498-1.9C46.958,50.498,47.977,46.233,50,49z"/>
		<path style="fill:#3A3A3A;" d="M32,33h-1c0.371-1.273-0.303-2.113-1-3v-5C32.425,26.857,31.213,30.727,32,33z"/>
		<path style="fill:#1E1E1E;" d="M40.045,45.955C40.658,46.273,41.256,47.051,42,47c-0.152,0.367-0.476,0.651-0.651,1l-3.212-0.06
			c-0.38-0.99-0.269-1.636,0.369-1.925C38.908,45.833,39.561,46.065,40.045,45.955z"/>
		<path style="fill:#929292;" d="M38,22c-0.719,1.445-2.597,1.169-4,1.223c-0.334,0.013-0.669-0.171-1-0.223
			C33.83,21.004,36.449,22.517,38,22z"/>
		<path style="fill:#A1A1A1;" d="M14,55c-0.866-0.057-1.912-1.043-2.864-0.997c3.704-2.48,0.394-6.65,2.864-8.003V55z"/>
		<path style="fill:#8D8D8D;" d="M73,29c-0.036,1.075-0.254,2.585,1,3c0.018,1.07,0.25,2.602-1,3l-1-1
			c0.134-1.532,0.349-3.534-1.212-4.281C69.358,29.035,67.576,28.819,66,29c-1.73-2.101-1.575-5.652,1-7
			c1.513,1.055,0.638,2.975,1.145,4.952C68.673,29.011,71.538,28.883,73,29z"/>
		<path style="fill:#9A9A9A;" d="M68,16.906c0.386-0.032,1.045,0.292,0.919,0.691C66.552,18.643,66.923,20.442,67,22
			c-2.94,2.219-4.455-3.358-2-5L68,16.906z"/>
		<path style="fill:#141414;" d="M36,105c-1.951,1.436-0.273,5.213-2.107,6.432c-0.435,0.289-1.207,0.383-1.893,0.419
			c-0.419-0.737-1.381-0.558-2-0.85c-0.902-1.506-0.815-3.472,0-5c1.455-1,0.874-2.738,0-4c-0.03-1.585,1.303-2.623,4-3.114
			c1.403-0.917,2.505-0.978,3.305-0.181C36.78,100.752,36.345,102.85,36,105z"/>
		<path style="fill:#A7A7A7;" d="M34,98.886c-1.201,1.203-2.432,2.394-4,3.114c-1.37-1.602-3.556-0.51-5.1-1.572
			c1.971-0.444,4.199-0.171,5.819-1.499L34,98.886z"/>
		<path style="fill:#ACACAC;" d="M30,111c-1.742-0.824-1.588-4.115,0-5V111z"/>
		<path style="fill:#9F9F9F;" d="M28.24,55.156C26.811,54.644,25.821,56.197,25,57c0.068-0.801-0.9-1.013-1.941-1.012L14,56
			c0.1-0.289,0-0.691,0-1c5.69-0.505,10.61,1.796,14-3C27.824,52.947,28.116,54.197,28.24,55.156z"/>
		<path style="fill:#3B3B3B;" d="M91.934,83c-0.049,2.358-2.352,3.468-3.934,5c-1.334,1.291-3.16,2.168-5,2
			c-1.685,1.963-2.255,1.542-2-1c-3.165-1.036-3.498-2.036-1-3C85.582,85.249,93.381,75.406,91.934,83z"/>
		<path style="fill:#161616;" d="M62.136,14c0.271,1.567,1.979,2.029,2.864,3c1.209,1.327,0.448,3.917,2,5
			c0.117,2.372,0.275,4.933-1,7c-0.676,0.077-1.327,0.875-2,1c-1.232,1.805-1.865,3.837-1.9,6.097L61,36.415
			c-0.392,2.861-1.85,2.456-2.071-0.438C56.338,37.204,53.964,39.209,51,39c-0.629-0.415-1.886-0.745-2.414-1.191
			c-0.98-0.828,0.111-2.162-0.245-2.809c-0.412-1.799,0.474-3.133,2.659-4c-1.397-2.274-0.333-2.755,2-2
			c0.901-0.869,0.951-2.623,0.153-5.259L54,23c-1.711-3.449,2.403-8.401,6-8.163c-1.391-1.548-0.74-2.136,1-0.837H62.136z"/>
		<path style="fill:#252525;" d="M61,14c-0.604,0-0.677,0.539-1,0.837c-2.855,2.331-5.883,2.439-5-1.696L50,10
			c-1.63,2.129-2.391,1.54-1.79-1.047c-1.545,0.32-1.561-0.079-0.05-1.197c1.9-1.203,4.159-2.471,4.966-4.504
			c1.36,1.83,4.417,2.796,5.286,5.288C59.17,10.713,58.848,13.147,61,14z"/>
		<path style="fill:#282828;" d="M99.123,44.073C97.979,46.345,94.778,46.413,94,49c-1.252,0.604-2.081-0.741-3-1
			c-1.733-1.36-3.758-2.549-3-5C91.545,43.229,96.217,42.154,99.123,44.073z"/>
		<path style="fill:#707070;" d="M48.16,7.756c0.318,0.399,0.452,0.798,0.05,1.197C47.697,10.633,46.294,11.649,44,12
			c-0.307,0.872-0.662,0.857-1.06-0.005c-0.194-1.494-1.196-2.689-1.879-3.983C43.186,7.905,46.192,9.002,48.16,7.756z"/>
		<path style="fill:#383838;" d="M81,89c0.551,0.131,1.573,0.644,2,1c1.181,1.403,3.367,4.696,1.485,6.503
			c-1.286,1.235-3.54,1.001-4.603,2.379c-1.31,1.698-3.988,1.333-5.777,2.223c-0.293,0.146-0.781-0.186-1.105-0.105
			c-1.976-2.318-3.337-7.2-1.244-10.165C73.098,88.933,79.716,85.259,81,89z"/>
		<path style="fill:#151515;" d="M46.076,107.066c-1.998,1.258,1.703,5.471,1.924,7.934c-0.375,0.869-0.151,2.992-1.496,3.682
			c-1.251,0.642-3.166-1.081-4.504-0.682c-1.906-1.252-4.188-1.928-6-3.365c-3.773-3.183,6.282-5.599,9-7.635L46.076,107.066z"/>
		<path style="fill:#171717;" d="M38.892,99.273c1.266,0.985,1.963,2.709,3.108,3.727c0.223,1.159,0.913,2.191,0.924,3.694
			c-2.604,1.049-4.42,2.175-6.745,3.407c-0.439-2.158-0.209-3.585-0.18-5.101l0.645-4.603
			C34.864,98.647,37.618,97.145,38.892,99.273z"/>
		<path style="fill:#BEBEBE;" d="M78,86c0.121-2.75,1.191-2.625,2,0c-0.272,0.898,0.63,2.212,1,3
			c-5.481-1.301-1.197-1.31-9.209,2.713C72.586,95.336,73.219,98.13,73,101c-0.862,0.883-0.831,2.366-2,3
			c-0.124-1.696,0.747-3.848-0.384-5.616c-0.523-0.818-2.066-0.397-2.673-0.496C66.691,96.461,67.432,92.489,70,93
			c-1.864-2.174-1.424-2.803,1.231-3.231C71.037,87.2,71.666,86.667,74,88C74.294,86.034,76.619,84.22,78,86z"/>
		<path style="fill:#181818;" d="M61,36.415c1.171-1.87,1.417-1.32,2,0.585c0.2,1.343,1.321,2.475,1,4
			c-0.255,1.209,0.609,2.826-0.627,3.847c-1.041,0.86-3.207,1.864-4.583,0.467l-4.984-5.059c2.473-1.599,5.031-1.888,5.123-4.279
			C59.571,36.506,60.281,36.461,61,36.415z"/>
		<path style="fill:#A4A4A4;" d="M64,30c-1.114,2.027-1.347,4.672-1,7c-0.682,0.092-1.367-0.626-2-0.585
			c0.467-1.166,1.159-2.467,1.107-3.951c-0.055-1.576-2.049-1.106-3.17-2.014C60.937,29.42,62.522,30.275,64,30z"/>
		<path style="fill:#141414;" d="M92,70c1.481,0.319,3.335,0.312,4.139,1.57c0.835,0.472,2.14,1.649,1.246,2.408L95,76
			c-0.319-0.024-0.685-0.053-1,0c-1.845,0.33-7.079,1.173-8.581,1.009C85.092,76.973,83.453,74.782,83,74
			c-1.697-1.497-1.697-2.163,0-2c1.608-0.571,2.806-1.819,4-3C88.428,70.271,90.35,69.645,92,70z"/>
		<path style="fill:#939393;" d="M83,72v2c-0.549,1.174-1.549,1.507-3,1c-2.496,0.192-2.596-0.036-1-2c-0.004-2.286-2.302-3.61-4-5
			c0.827,0.082,2.746,0.495,2.898-0.964C78.095,65.155,78.011,63.958,79,63c0.028,2.257-0.465,6.626,1.142,8.392
			C80.837,72.155,82.016,72.118,83,72z"/>
		<path style="fill:#434343;" d="M67.654,81.816C68.807,82.611,69.696,85.543,69,87c1.707,0.897,1.339,3.5-0.603,3.348
			C67.76,90.298,60.682,87.332,61,86c-2.747-0.159-3.226-0.825-1-2.664c-0.528-2.542,0.6-4.247,3.585-5.212
			C65.603,77.472,67.029,79.41,67.654,81.816z"/>
		<path style="fill:#444444;" d="M58,83.244c1.324,1.444,0.666,1.927-1,0.756l-4,3c-2.123,1.641-3.123,1.641-3,0
			c-1.444-1.083-3.113-1.754-5.008-2.014c0.292-0.6,0.086-1.859,1.395-2.441c0.578-0.257,1.073-0.12,2.14,1.383
			c0.436-3.196,9.653-4.656,10.367-3.44C59.26,81.11,57.919,82.425,58,83.244z"/>
		<path style="fill:#383838;" d="M60,83.336c0.192,0.922,0.983,1.779,1,2.664c2.432,1.677,2.452,2.74,0.061,3.189
			C59.068,91.062,56.241,91.728,54,90c-0.188-0.735-0.434-1.463-1-2c-0.881-0.273-0.865-0.607,0-1l4-3l1-0.756L60,83.336z"/>
		<path style="fill:#2C2C2C;" d="M72.073,79.084C73.564,80.496,75.641,83.008,74,85c2.459-0.099,2.459,0.901,0,3
			c-0.88,0.524-1.571,1.818-2.769,1.769c-2.616-0.067-2.463-0.832-1.026-2.769c-1.106-1.046-1.923-3.798-1.396-5.234l0.147-0.782
			C68.578,79.039,68.974,78.347,71,78C72.318,76.667,73.869,77.561,72.073,79.084z"/>
		<path style="fill:#151515;" d="M42,75c0.531,2.015,1.061,3.977,0.619,6.034c-0.542,2.093-1.249,2.845-2.732,0.927
			C38.144,82.447,37.898,81.474,39,80c-0.826-1.161-1.04-2.653-0.111-3.588C39.817,75.478,40.857,75,42,75z"/>
		<path style="fill:#292929;" d="M57.743,76.302C58.887,74.725,59.565,75.115,59,77c0.266,1.185-7.569,3.308-8.05,2.822
			l-1.763-1.781L49.03,76.6c2.58,0.37,4.57,0.17,5.97-0.6C55.906,76.123,56.977,75.876,57.743,76.302z"/>
		<path style="fill:#8E8E8E;" d="M36,84c0.623-0.124,1.403,0.207,2,0c-0.28-2.102,0.237-2.642,1.874-1.134
			c1.323-0.251,2.036,0.434,2.139,2.055c-0.262,0.383-0.656,0.686-0.963,1.029h-1C39.485,87.155,38.153,87.234,37,87l-4.084,0.079
			c-0.612-0.007-1.223-0.044-1.829-0.122c-0.413-1.591,0.597-3.661,1.601-4.999c-0.073-0.406,0.231-0.883,0.199-1.297
			c0.28,0.209,0.775,0.011,1.113,0.128c0.519,0.038,0.858,0.297,1.005,0.799c1.088,3.712-0.743,1.47-0.197,1.523
			C35.23,83.152,35.62,83.528,36,84z"/>
		<path style="fill:#8F8F8F;" d="M55,76c0.053,3.726-2.974-0.812-5.813,2.041C48.57,79.199,47.193,80.239,46,81
			c-1.672,0.072-0.545-2.194-1.094-2.916c3.444-0.968,1.195-4.4,1.961-5.049c0.564-0.21,0.985,0.102,1.118,0.492
			c0.119,0.35-0.068,1.683,0.42,2.028C50.585,76.736,52.958,75.727,55,76z"/>
		<path style="fill:#151515;" d="M60.829,74c-0.067,0.923,0.014,1.856,0.051,2.78C60.279,76.902,59.66,77.33,59,77l-1.257-0.698
			c-0.064-0.958-0.447-2.128,0.23-2.865C58.95,72.373,59.894,73.797,60.829,74z"/>
		<path style="fill:#1F1F1F;" d="M71,78c0.247,1.456-0.483,2.878-2.045,2.984C67.657,80.056,66.622,78.239,68,77
			C69.133,76.773,70.429,76.989,71,78z"/>
		<path style="fill:#808080;" d="M75.097,76.163c2.041,2.577-0.278,4.388-3.024,2.921C72.375,78.599,71.419,78.05,71,78
			c-0.968-0.115-2.126-0.523-3-1v-1C70.27,77.047,72.719,76.803,75.097,76.163z"/>
		<path style="fill:#4D4D4D;" d="M42.619,81.034c-0.272,1.268,0.191,2.723-0.606,3.887c-0.676,0.059-1.475-0.067-1.748-0.639
			c-0.24-0.504-0.319-0.989-0.391-1.416c-0.858-0.258-0.84-0.561,0.013-0.906C40.759,81.545,41.67,81.217,42.619,81.034z"/>
		<path style="fill:#181818;" d="M49.187,78.041c-0.097,0.948-0.191,2.167-0.828,2.62C47.538,81.244,46.719,80.969,46,81
			c-0.085-0.991,0.22-1.961,0.967-2.526C47.597,77.998,48.704,78.35,49.187,78.041z"/>
		<path style="fill:#C7C7C7;" d="M70.205,87c0.183,1.942-0.611,1.937-1.205,0l-1.346-5.184l1.155-0.05
			C69.294,83.511,70.029,85.19,70.205,87z"/>
		<path style="fill:#AAAAAA;" d="M66.041,56.014C65.464,57.669,63.767,58.915,62,59C62.84,57.437,64.086,55.573,66.041,56.014z"/>
		<path style="fill:#969696;" d="M55,50.037c-1.753-0.209-3.747,0.677-5-1.037C51.829,48.858,53.793,48.504,55,50.037z"/>
		<path style="fill:#0B0B0B;" d="M60.829,74c0.088-1.213,0.02-3.651,2.177-3.684c1.212-0.018,1.243,2.423,0.931,3.178
			C63.586,74.341,61.655,74.18,60.829,74z"/>
		<path style="fill:#BFBFBF;" d="M30.932,72.693l0.22,2.195C29.591,75.393,30.763,77.781,29,78c-0.674-0.387-1.341-0.395-2,0h-4
			l-1-1c0.707-1.354,1.973-2.334,3.798-2.94c1.44,0.154,3.095-0.29,3.331-1.861C29.773,72.153,30.406,72.316,30.932,72.693z"/>
		<path style="fill:#3F3F3F;" d="M25.798,74.06c0.199,0.933,0.237,2.289-0.526,2.697C24.123,77.37,22.967,77.006,22,77
			c0.194-1.82,0.768-3.621,2-5C24.333,72.888,24.862,73.745,25.798,74.06z"/>
		<path style="fill:#BDBDBD;" d="M28,70c-0.821-0.641-2.033-0.744-3-1c0.791-0.95,1.824-1.615,3-2V70z"/>
		<path style="fill:#1F1F1F;" d="M39,80c0.302,0.648,0.647,1.285,0.887,1.961c0.095,0.267-0.061,0.623-0.013,0.906
			C39.218,83.149,38.675,83.766,38,84l-0.81-2.707C36.952,80.498,38.098,80.04,39,80z"/>
		<path style="fill:#2C2C2C;" d="M36,84c-0.616,0.123-0.943,0.938-2.07,0.952c-0.047-2.008,0.166-3.003,0.07-4.162
			c0.649,0.332,1.85-0.035,1.98,0.737C36.141,82.482,35.942,83.294,36,84z"/>
		<path style="fill:#262626;" d="M80,75c3.409,1.065,0.813,8.271-2.685,8c-0.177,2.27-1.628,3.832-3.315,2
			c-1.434-1.977-3.384-3.573-1.927-5.916c1.256-0.683,2.326-1.668,3.024-2.921c0.432-0.116,0.753-0.771,1.079-1.063
			c0.87-0.782,2.616-0.616,2.824-2.1C79.302,73.554,80.071,74.232,80,75z"/>
		<path style="fill:#BBBBBB;" d="M29,78c0.047,0.392,0.062,1.514,0.512,1.566C30.469,79.677,31.289,79.047,32,79v1
			c-0.68,0.306-1.333,0.667-2,1c-0.707,1.508-1.374,1.841-2,1c0-1.45-0.389-2.733-1-4C27.019,75.901,28.588,75.932,29,78z"/>
		<path style="fill:#808080;" d="M38.892,99.273C35.762,98.598,38.35,103.271,36,105l0.095-4.97
			c0.023-1.211-1.464-1.153-2.095-1.144c1.12-1.122,2.647-1.853,4.25-2.294C38.625,97.653,38.731,98.458,38.892,99.273z"/>
		<path style="fill:#414141;" d="M57,95c0.698,2.062,2.597,4.279,1.751,6.78c-0.898,0.781-3.046-0.162-3.751-0.78l-1-2
			c-2.631-1.329-2.298-2.663,1-4C55.629,94.852,56.358,95.098,57,95z"/>
		<path style="fill:#ADADAD;" d="M55,95c-0.728,1.207-1.004,2.6-1,4c-1.033-2.066-3.639-1.068-5-3
			C51.059,96.193,53.018,95.467,55,95z"/>
		<path style="fill:#ABABAB;" d="M53,87c-0.098,0.302,0.063,0.687,0,1c-3.509,0.133-1.037,2.396-5,5l2-6
			C50.785,87.369,52.122,86.939,53,87z"/>
		<path style="fill:#ADADAD;" d="M50,87c-1.564-0.735-4.23-0.139-5.008-2.014c0.922,0.354,2.327-1.184,3.032-0.622
			C48.666,84.877,49.935,86.183,50,87z"/>
		<path style="fill:#272727;" d="M28,83v-1l2-1c-0.193,1.23-0.788,2.203-1.379,4.055C28.034,84.415,28.11,83.688,28,83z"/>
		<path style="fill:#272727;" d="M32.688,81.958c0.336,1.863-0.115,3.764-1.601,4.999c-0.686-0.476-1.548,0.355-2.006-0.407
			C30.612,84.527,30.535,82.009,32.688,81.958z"/>
		<path style="fill:#262626;" d="M37,87c-0.552,0.448-1.245,0.998-2,1c-0.669,0.001-2.1-0.061-2.084-0.921
			C34.301,85.521,35.426,86.091,37,87z"/>
		<path style="fill:#373737;" d="M40.05,85.95c-0.065,0.551,0.005,1.488-0.691,1.821C38.664,88.104,37.689,87.438,37,87
			C37.82,86.257,38.898,85.855,40.05,85.95z"/>
		<path style="fill:#212121;" d="M83,74l1.212,1.481c2.342,1.052,2.753,1.891,1.231,2.517C86.631,79.744,86.15,81.078,84,82
			c-1.331,1.23-2.976,2.509-4,4c-0.621,0.083-1.415-0.21-2,0c-3.074,0.201-2.492-0.914-0.685-3c1.109-2.062,2.605-5.877,2.685-8
			c0.02-0.528,1.13-1.518,1.549-1.841C81.863,72.917,82.726,73.714,83,74z"/>
		<path style="fill:#797979;" d="M94,76c-0.413,0.834-1.851,0.831-2.396,1.281c-2.749,0.395-3.95,1.271-3.604,2.627
			c-0.801,1.864-2.917,1.091-4,2.092c2.819-4.459-1-5.376-1-8C84.982,76.07,90.788,76.536,94,76z"/>
		<path style="fill:#333333;" d="M91.604,77.281c-0.227,1.585-3.141,1.551-3.604,2.627c-1.157-0.26-2.378-1.086-1.948-2.846
			C88.216,76.842,89.904,77.131,91.604,77.281z"/>
		<path style="fill:#454545;" d="M64.504,96.067c1.47,1.57,0.16,3.248-1.088,3.615c-1.397,0.411-3.05,0.941-3.565-0.894
			c-0.42-1.497-1.664-3.136,0.494-4.775C61.269,94.824,63.246,94.724,64.504,96.067z"/>
		<path style="fill:#313131;" d="M70,93c-0.603,1.643-1.072,3.375-2.057,4.888c-0.844-0.137-1.967-0.772-1.888-1.519
			c0.14-1.333-0.013-2.45,0.318-3.369c-2.017-1.07-1.575-2.223,0.703-2.134C69.081,88.371,70.952,90.047,70,93z"/>
		<path style="fill:#323232;" d="M63.026,88.987c1.805,0.457,2.46,1.668,0.99,2.95c-0.084,0.422-0.081,1.58-0.683,1.753
			c-0.489,0.141-1.633-0.428-2.125-1.049c-0.819-1.035-0.128-2.443-0.147-3.453C60.797,87.185,62.35,87.151,63.026,88.987z"/>
		<path style="fill:#2C2C2C;" d="M67.076,90.866c0.021,0.791-0.452,1.436-0.703,2.134l-2.357-1.063
			c-0.521-0.91-0.817-1.92-0.99-2.95C64.072,87.431,68.851,89.273,67.076,90.866z"/>
		<path style="fill:#282828;" d="M57,95c-0.342-0.751-0.655-1.366-0.822-1.833c-0.419-1.171,0.609-1.172,1.332-1.243
			c1.019-0.1,1.733,0.404,1.502,1.477C58.872,94.05,57.809,94.496,57,95z"/>
		<path style="fill:#1E1E1E;" d="M47,20c2.548-1.916,5.413-0.114,5,3c1.84,0.611,2.286,4.579,1,6c-0.217,0.981-1.356,1.502-2,2
			c-1.607,2.777-2.552,2.94-4,0c-0.781-1.962-3.622-2.772-4.129-4.911C41.455,25.006,40.96,23.854,41,22l1-2
			C42.677,17.272,44.343,17.272,47,20z"/>
		<path style="fill:#8C8C8C;" d="M51,31c-0.305,1.633-1.062,3.262-2.659,4c-0.686-1.248-0.831-2.717-1.341-4
			C48.185,32.004,49.815,32.004,51,31z"/>
		<path style="fill:#838383;" d="M42.871,26.089c-0.344,0.058-1.031-1.165-1.364-0.952C41.007,25.455,40.485,26.766,40,27
			c0.222-1.689,0.236-3.473,1-5C42.605,22.991,42.477,24.426,42.871,26.089z"/>
		<path style="fill:#6F6F6F;" d="M36,35l2-2c-0.173,0.845,0.374,1.413,0.845,1.729c0.538,0.361,1.313-0.059,2.206,0.784
			C39.506,36.468,37.216,36.404,36,35z"/>
		<path style="fill:#8E8E8E;" d="M47,20c-1.536-0.782-3.649-1.077-5,0c1.202-2.403,1.292-5.295,0.94-8.005L44,12
			C45.801,13.311,47.546,17.828,47,20z"/>
		<path style="fill:#0E0E0E;" d="M48.21,8.953L50,10l5,3.142c1.202,1.505,3.145,1.912,5,1.696c-2.515,2.316-3.89,5.484-6,8.163
			c-0.196,2.656-0.862,2.656-2,0c-1.668-0.977-3.277-2.123-5-3c-2.7-2.05-3.726-4.666-3-8c-0.077-0.989,0.097-2.19,0.893-2.531
			C46.037,8.981,47.119,9.051,48.21,8.953z"/>
		<path style="fill:#A6A6A6;" d="M54,23c-0.676,4.318,2.413,6.249-1,6c0.106-2.053,0.146-4.223-1-6H54z"/>
		<path style="fill:#7D7D7D;" d="M55,13.142c-1.991-0.434-4.193-1.139-5-3.142C52.045,10.33,54.349,11.004,55,13.142z"/>
		<path style="fill:#A0A0A0;" d="M69,87h1.205c0.748,0.728,1.043,1.742,1.026,2.769C71.388,90.946,70.359,92.022,70,93
			c-0.733-1.003-1.733-1.764-2.924-2.134c-0.692-1.572-2.464-2.042-4.05-1.879l-1.965,0.202L61,86
			c2.15,1.171,4.418,2.073,7.111,3.005C68.973,88.466,68.98,87.664,69,87z"/>
		<path style="fill:#A5A5A5;" d="M78,86c-1.379,0.495-2.744,1.253-4,2v-3c1.337-0.196,2.379-1.076,3.315-2
			C76.856,83.853,77.715,85.241,78,86z"/>
		<path style="fill:#A6A6A6;" d="M57,84c-0.702,1.602-2.12,3.13-4,3C53.565,85.254,55.191,84.13,57,84z"/>
		<path style="fill:#3A3A3A;" d="M29,78h-2c-0.31-0.642-0.403-1.774-0.243-2.306c0.181-0.603,1.937-1.286,2.225-0.196
			C29.168,76.202,28.901,77.174,29,78z"/>
	</g>
</g>
</svg>
