<?xml version="1.0" encoding="iso-8859-1"?>
<!-- Generator: Adobe Illustrator 30.1.0, SVG Export Plug-In . SVG Version: 9.03 Build 0)  -->
<svg version="1.1" id="Layer_1" xmlns="http://www.w3.org/2000/svg" xmlns:xlink="http://www.w3.org/1999/xlink" x="0px" y="0px"
	 viewBox="0 0 125 104" style="enable-background:new 0 0 125 104;" xml:space="preserve">
<g>
	<g>
		<path style="fill:#FCFCFC;" d="M117,0l2.738,1.018C121.636,7.374,123.39,13.702,125,20v6c-1.676-0.434-1.866,1.016-2.392,2.648
			L100.692,96.57c-0.885,2.744-2.074,4.946-1.692,7.43h-4c0.205-1.587-0.775-2.947-2.972-3.114L0,58V0H117z M3,4
			C2.2,3.919,1.187,3.915,1.062,4.604C0.818,5.955,1,7.002,1,8v2v1v9v9v1v9v1v6c0,1.034,0.021,2.142,0.919,2.822l0.268,2.459
			c-1.264,0.989-1.212,2.587-1.008,4.047c0.086,0.62-0.032,1.209,0.319,1.729c0.581,0.863,1.623,0.543,2.327,0.89
			c1.318,0.65,2.546,1.501,4.016,1.793c0.376,0.075,0.948,0.029,1.244,0.268c0.495,0.399,1.542,0.386,1.895,0.906
			c0.461,0.678,1.792,0.538,2.173,1.016C14.857,64.062,17.847,63.835,20,65c1.871,1.012,3.612,3.024,6,3
			c0.801,0.783,1.856,1.657,3,2c0.81,0.243,2.444,0.242,3,1c1.649,2.249,4.595,2.06,7,3c1.252,0.489,2.2,2.5,4,2
			c0.315-0.087,0.676,0.049,1,0c2.481,2.278,5.751,3.577,9.047,3.948c1.406,1.064,3.03,2.055,4.664,2.722
			C59.993,83.601,62.516,85.848,65,86c0.487,0.315,1.465,0.777,2,1c2.299,1.649,5.458,4.055,7.948,1.971
			C73.64,91.511,80.257,93.25,82,94c0.91,0.392,1.893,1.223,3,1c3.184,2.889,7.785,3.821,11.605,6.018
			c1.415-4.119,3.196-7.354,2.529-10.984c1.066-0.572,1.565-1.709,1.709-2.877L102,86c-0.108-1.097,0.845-2.008,1-3
			c0.472-3.027,1.801-5.836,2.646-8.769L106,73c0.965-3.352,1.579-6.974,3.037-10L110,61c1.092-2.267,2.624-5.209,0.114-6.88
			c3.256,0.485,3.499-4.481,4.594-7.923c0.125-0.393,0.248-0.816,0.407-1.197c1.075-2.579,3.052-5.608,0.848-7.937
			c1.114,0.438,1.423-0.589,2.084-0.979c1.569-0.924,0.271-3.07,0.995-4.252c1.415-2.312,3.227-5.662,2.252-8.115
			c0.046-0.999,1.125-2.71-0.357-3.583c-0.048-0.365,0.144-0.776,0.063-1.134c-0.56-2.463-1.051-5.113-2.814-7l-0.094-2.008
			C117.979,7.592,116.379,5.317,116,3c-0.45-2.753-2.375-2-5-2h-5h-5c-1.989,0-4.728-0.846-6,1c-1.704-1.273-3.99-1-6-1h-2h-8H68h-7
			h-1c-1.264,0-2.368,0.909-3,2c0.013-0.421,0.184-1.091-0.043-1.452C56.658,1.07,55.94,0.94,55.071,0.947L48,1h-1h-7h-1h-4h-1
			c-3.474,0-6.967-0.346-10.793,0.205C22.724,1.465,23.082,2.638,23,3c-0.387-0.516-0.803-1.243-1.562-1.475
			C20.963,1.38,20.411,1.761,20,2c-1.292-1.247-3.133-1.079-4.798-0.798C14.825,1.266,14.385,1,14,1h-2h-1c-0.333,0-0.669-0.03-1,0
			C8.678,1.12,7.312,0.808,6,1C4.709,1.189,2.55,0.399,1.302,1.363C-0.056,2.413,2.419,3.412,3,4z"/>
		<path style="fill:#C6C6C6;" d="M61,4c1.025,1.981,0.708,2.725-0.953,2.231c2.046,1.6,1.881,3.9-0.047,5.538
			c-0.371,3.441-1.371,6.184-3,8.231c-0.846,1.674-0.86,3.007-0.041,4c0.52,2.545-0.919,5.388-2.866,7c-1.531,2.482-1.531,2.482,0,0
			c1.904-0.842,3.952-1.301,4.907,1c2.552,1.792,1.044,5.391-2,4l-0.982-0.458c0.778,1.277-0.52,2.48-3.892,3.608
			C54.048,39.208,54.589,40.083,54,42c-0.63,2.751-0.938,5.654-0.924,8.709c1.549-1.372,2.178-1.297,2.559,0.903
			c1.349-1.595,3.383-1.524,6.102,0.213l1.323-0.901c1.225-0.956,3.043-0.299,5.452,1.97c0.451-2.155,0.956-3.71,3.509-2.894
			c2.873-0.055,4.866,0.612,5.978,2c0.873,0.284,0.86,0.618,0,1l-1.291,2.396c-2.53,0.574-2.451,2.757,0.238,6.549
			C79.241,62.007,84.011,66.654,83,69c2.813-0.801,2.939,0.122,1,2c-0.064,2.86-2.324,2.733-3,0c-0.848-0.228-0.82-0.565,0-1
			c-2.253,0.711-3.367-1.972-4-4c-0.952,1.304-1.65,0.637-2.094-2c-1.665-0.031-3.3-0.697-4.906-2c-0.268,0.869-0.935,0.869-2,0
			c-1.065-1.238-1.53-2.107-0.339-2.999c-1.779-1.647-4.031-2.442-6.378-2.891c-1.147,1.377-3.027,1.18-5.639-0.59
			c-3.268-1.399-4.766,0.757-4.494,6.469L49,63c-0.433,0.814-0.773,0.778-1.018-0.11C47.791,65.15,44.665,64.138,46,62
			c0.722-4.073-0.51-5.1-3.697-3.079l-1.254-0.858L35,57c-0.333,0.847-0.666,0.847-1,0c-0.011,2.999-5.513,2.851-6,0
			c-0.48,2.546-1.503,2.919-3.071,1.118C24.523,60.861,20.86,60.404,19,59l-1.852,1.483c-0.931-0.707-2.263-0.225-3.996,1.446
			c-0.381-0.477-1.712-0.338-2.173-1.016c-0.228-2.102-0.859-2.404-1.895-0.906C8.788,59.77,8.216,59.815,7.84,59.74
			c-2.367-1.355-2.629-2.444,0.226-3.097c-1.861-1.919-1.916-2.108,0.858-1.94C7.685,51.874,7.852,51.603,11,52
			c2.723,2.176,4.084,3.265,4.084,3.265L17,55c0.292-0.704,0.626-0.69,1,0c3.825-1.483,6.159-1.149,7,1c0.246-0.839,0.581-0.816,1,0
			c2.805-1.306,6.146-1.973,10.024-2c1.425-0.516,7.048-1.614,8.514-1.172C45.839,53.22,46.333,53.655,47,55
			c-0.422-1.982,0.222-2.365,1.932-1.147C48.5,49.296,47.91,44.664,47,40.175c-1.972-1.88-1.572-2.599,1-3.175
			c-0.208-1.466,0.624-2.728,2-3c-2.235-1.464-1.526-2.989,0.732-4.168c-1.27-2.443-0.208-6.477,2.887-6.554
			C51.885,22.747,52.236,22.299,54,22c-2.479-1.82-1.668-3.923,1-5c-1.048-1.368-0.536-1.837,1-1
			c-1.548-3.547-1.208-5.852,1.018-6.913C55.905,6.273,58.207,3.12,60,1h1C63.795,1.524,63.777,3.175,61,4z"/>
		<path style="fill:#C4C4C4;" d="M89,1c1.919,2.29,1.485,9.239-1,11c1.705,0.446,1.882,0.736,0.147,1.273l2.797,1.839
			c1.822,2.866,3.495,4.162,5.019,3.888c0.296-0.874,0.642-0.86,1.037,0c1.062,1.298,2.052,2.759,2.972,4.382
			c3.792,1.712,7.506,3.306,11.141,4.783c4.988,0.33,7.482,0.495,7.482,0.495c1.247,0.219,1.396,1.276,0.447,3.172
			c-0.723,1.182,0.574,3.328-0.995,4.252c-1.429-0.28-3.829-0.912-3.291-2.829c-1.314,0.934-2.986,0.709-5.014-0.675l-4.196-0.96
			c-2.58,5.498-4.74,3.642-3.798-1.712C99.834,30.767,98.585,32.798,98,36c-1.27,2.672-2.905,5.294-4.906,7.866
			C95.047,43.78,95.459,43.968,95,46c0.147,2.004-0.489,3.324-1.906,3.959c0.056,2.781-0.951,2.876-2.572,0.813
			c-5.734,1.738-8.602,2.607-8.602,2.607L80,52c-1,1.758-1.543,2.061-2,0c-1.002-2.211,0.284-3.599,3.859-4.165L84,46
			c0.284-0.873,0.618-0.86,1,0c0.989,0.613,2.209,0.642,3.661,0.089l-0.474-0.882C89.511,44.076,90.116,43.007,90,42
			c-0.637-1.387-0.245-2.876,1.176-4.468l3.953-8.784l-1.008-1.529c-2.002-1.007-3.945-2.219-2.26-4.462
			c-0.762-1.389-2.007-1.942-3.735-1.659C87.219,20.92,87.202,20.549,88,20c-1.561-0.481-2.894-1.481-4-3
			c-0.524,0.76-0.883,0.692-1.079-0.207C80.926,14.413,83.598,12.732,86,13c-1.902-0.835-2.058-1.48,0-2
			c-1.439-2.293-2.004-8.878,1-10H89z"/>
		<path style="fill:#C1C1C1;" d="M2,13l1.169,0.464c0.31,3.957,1.359,4.761,3.148,2.413C6.4,13.953,7.141,13.992,7.682,15.9
			c2.101-0.072,2.354,1.489,2.472,3.297c2.492,0.353,5.124,0.309,7.897-0.133L19,20c1.942,0.77,3.647,1.774,5.115,3.013
			c1.683-1.945,4.47-1.62,6.218,0.071c3.329,0.438,4.532-0.582,3.608-3.059l1.896-1.878c-2.005-0.886-2.67-1.316-0.539-2.005L35,15
			c-0.873-0.284-0.86-0.618,0-1c0.284-0.873,0.618-0.86,1,0c1.682-0.284,2.653,1.019,2.911,3.911
			c2.626-0.319,5.053,3.165,3.089,5.344c-0.989,1.077-2.322,1.992-4,2.745c1.212,0.149,1.638,0.55,1.278,1.202
			c2.217,0.217,2.825,1.486,0.78,2.546c1.226,0.357,1.856,1.299,0.785,2.134c1.667,3.605-3.376,1.971-4.843,0.01
			c-0.444,1.891-1.111,2.26-2,1.108c-0.17,3.295-5.172,4.808-8,4c0.168,2.723-1.166,2.935-3,1c-0.52,1.266-0.988,2.229-2,1
			c-0.516,2.022-1.432,2.001-2,0c-1.409-0.36-2.3-0.987-1-2l0.813-1.992C21.918,35.949,22.981,34.28,22,30
			c-0.858-2.568,0.26-3.001,2.029-0.9c0.319-0.599,0.648-0.571,0.984,0.045c1.257,0.242,2.071,1.254,2.441,3.035
			c1.601-0.979,3.177-1.28,4.729-0.904c1.27-2.443,1.119-3.449-0.452-3.017l-2.485-1.98c-0.426,2.643-1.351,2.489-2.021-0.079
			c-0.482,1.215-3.002-0.984-3.357-2.199C21.981,24.785,18.4,25.107,18,23c-0.846,2.018-1.4,2.122-2,0
			c-0.987,1.351-2.321,2.018-4.004,2c-0.822-0.201-2.167-0.856-2.601-1.515C9.03,22.929,11.783,22.98,8.021,25
			C7.73,25.873,7.389,25.86,7,25c-1.354-0.434-2.181-0.932-1.792-2.205C2.642,22.656,1.239,21.724,1,20v-9
			C3.798,9.718,4.512,11.241,2,13z"/>
		<path style="fill:#1E1E1E;" d="M95,2c1.431-0.312,2.765-0.312,4,0l0.949,0.716c-1.494,3.239-1.744,6.025-0.749,8.358
			c-1.942,0.929-3.045,2.213-3.306,3.85C93.221,13.866,90.59,12.892,88,12c-0.424-3.671-0.316-7.477,1-11C91.01,1,93.296,0.727,95,2
			z"/>
		<path style="fill:#1E1E1E;" d="M99.134,90.034c0.667,3.63-1.114,6.865-2.529,10.984C92.785,98.821,88.184,97.889,85,95
			c-1.324-1.445-0.944-2.298,1-2c-0.32-0.274-0.574-0.553-0.594-0.848c-0.05-0.723,11.664-5.898,13.34-3.539
			C99.012,88.989,99.099,89.493,99.134,90.034z"/>
		<path style="fill:#3B3B3B;" d="M87,1c-0.458,3.364,1.154,7.178-1,10c-1.074,0.859-2.811,1.029-5.21,0.511
			C79.37,12.979,78.774,12.142,79,9c-1.996-2.61-2.33-4.277-1-5c-2.202-1.78-1.702-2.692,1-3H87z"/>
		<path style="fill:#111111;" d="M120.22,22.874c0.957-1.177,1.008-0.629,1.073,0.843c0.975,2.453-0.837,5.804-2.252,8.115
			c-1.082-3.426-7.31-0.046-7.929-3.667c-0.327-0.862-0.031-1.251,0.887-1.165c-1.165-2.84-0.832-4.173,1-4
			C114.711,21.754,117.117,21.712,120.22,22.874z"/>
		<path style="fill:#313131;" d="M100.843,87.157c-0.144,1.167-0.643,2.305-1.709,2.877c-2.931-0.612-5.454,0.279-8.375,1.816
			C89.248,92.645,86.683,91.125,86,93c-1.966,2.801-4.415-2.56-1-2c-0.186-2.896,6.437-7.989,9-6
			c0.645-2.494,1.686-2.952,3.123-1.374L100.843,87.157z"/>
		<path style="fill:#272727;" d="M109.037,63c-1.457,3.026-2.072,6.648-3.037,10c-0.266,1.059-3.871,0.534-3.931,0.33
			c-0.21-0.716-0.113-13.787,0.065-14.896C102.209,57.962,110.354,60.557,109.037,63z"/>
		<path style="fill:#2C2C2C;" d="M34,1c0.689,1.115,1.472,4.469,0,5c-3.763,3.426-6.43,3.76-8,1c-1.28,0.391-2.28-0.943-3-4
			c0.082-0.362-0.276-1.535,0.207-1.795C27.033,0.654,30.526,1,34,1z"/>
		<path style="fill:#292929;" d="M7,25c2.385,2.493,2.398,3.875,0.038,4.145l-0.292,1.614C5.07,29.775,3.154,29.189,1,29v-9
			c1.658,0.408,3.948,0.078,5.575,1.448C7.59,22.304,6.936,24.156,7,25z"/>
		<path style="fill:#222222;" d="M6.965,38.874l-1.246,2.027C4.677,39.828,3.104,39.195,1,39v-9c0.726-0.329,5.645-1.196,5.883-1
			c0.363,0.298,1.395,8.208,1.43,9.197C8.321,38.406,7.728,38.637,6.965,38.874z"/>
		<path style="fill:#B1B1B1;" d="M110.114,54.12c-0.207,2.203-0.245,4.496-0.114,6.88l-0.963,2c-2.013-0.882-3.1-3.051-5.825-3.654
			c-0.388,4.493-0.273,9.015-0.119,13.403c0.965,0.553,2.259,0.247,2.907,0.251l-0.354,1.231c-1.219,2.831-3.352,2.401-4.646-0.231
			c-2.029-1.281-1.515-3.483,0-5c-1.07-1.63-1.345-3.794-0.826-6.49c-1.083-2.224-1.227-4.066-0.434-5.526
			c-2.756,0.191-5.041-1.557-2.73-3.892c1.554-2.506,4.723-0.967,4.397,1.729c2.357-0.429,2.888-1.036,1.593-1.822
			c-0.874-0.295-0.86-0.64,0-1.034c-0.157-2.504,2.665-4.14,4.89-3.076C109.421,50.038,110.939,52.121,110.114,54.12z"/>
		<path style="fill:#252525;" d="M53.047,79.948C49.751,79.577,46.481,78.278,44,76c-0.967-0.573-0.951-1.953,0.049-4.139
			C45.479,72.785,47.13,72.831,49,72c1.867-4.585,5.706,4.388,5.929,6.436L53.047,79.948z"/>
		<path style="fill:#2A2A2A;" d="M23,3c1.636,2.519,1.97,4.519,1,6l-1.608,3.22c-2.68-1.297-5.039-2.785-7.079-4.464
			c-1.359-1.239-1.007-1.977,0.81-1.706C15.255,3.686,17.555,1.232,20,2c0.411-0.239,0.963-0.62,1.438-0.475
			C22.197,1.757,22.613,2.484,23,3z"/>
		<path style="fill:#282828;" d="M115.963,37.063c2.204,2.329,0.227,5.358-0.848,7.937c-3.9,2.498-7.414-3.671-4.147-6.031
			c-2.218-1.845-0.542-3.878,2.024-3.837C114.556,33.836,116.828,35.031,115.963,37.063z"/>
		<path style="fill:#868686;" d="M101,74c1.472,2.31,2.139,5.31,2,9c-0.155,0.992-1.108,1.903-1,3h-1l-2.343-3.797
			C98.068,79.529,97.516,77.462,97,76c-1.869-0.196-3.461-1.406-4.775-3.63C90.241,70.157,87.832,68.7,85,68
			c-2.09-3.006,2.375-5.99,5-4c2.055,0.105,4.028,1.731,5.917,4.876C98.435,70.358,100.13,72.066,101,74z"/>
		<path style="fill:#2D2D2D;" d="M114.709,46.197c-1.095,3.443-1.339,8.409-4.594,7.923c-1.919-1.277-3.475-3.025-2.224-5.23
			c-2.277-2.201-0.704-4.677,2.11-2.89C110.139,44.411,111.709,44.476,114.709,46.197z"/>
		<path style="fill:#2A2A2A;" d="M76,85c2.74,1.833,2.231,3.755-1.052,3.971C72.458,91.055,69.299,88.649,67,87
			c-0.779-2.481,1.696-3.748,7.426-3.8C75.456,81.767,75.981,82.367,76,85z"/>
		<path style="fill:#BBBBBB;" d="M57.921,79.168c1.637,1.1,1.477,2.517-0.21,3.501c-1.634-0.667-3.258-1.657-4.664-2.722
			c-0.021-2.401-0.697-4.767-1.808-7.273C50.415,72.074,49.672,72.03,49,72c-1.438-1.901-0.164-3.401,1.846-4
			c0.169-1.72,0.771-1.774,1.154,0c2.194,0.342,3.704,2.413,4.532,6.213C58.139,75.975,58.603,77.627,57.921,79.168z"/>
		<path style="fill:#474747;" d="M57,3c1.351,2.395,0.416,3.317-2,2c-1.027,1.113-1.824,2.254-2.391,3.422
			C50.219,7.755,49.016,6.614,49,5c-1.272,0.759-1.76,0.268-1-1c-2.093,0.453-0.93-1.631,0-3l7.071-0.053
			c0.869-0.007,1.588,0.124,1.887,0.601C57.184,1.909,57.013,2.579,57,3z"/>
		<path style="fill:#212121;" d="M78,86c1.765-1.912,3.899-0.674,2.194,1.806C84.579,92.738,85.181,94.802,82,94
			c-1.743-0.75-8.36-2.489-7.052-5.029C75.588,87.728,76.063,86.434,76,85C77.023,83.368,78.36,84.094,78,86z"/>
		<path style="fill:#C0C0C0;" d="M111,1c1.659,0.684,3.326,1.351,5,2c0.379,2.317,1.979,4.592,2.092,6.992
			c-1.485,2.054-6.413-1.548-5.89-3.654C110.78,7.966,110.341,7.52,110.885,5c-1.247,1.377-4.166-0.484-4.768-2.116
			C104.206,2.492,104.134,1.648,106,1H111z"/>
		<path style="fill:#C7C7C7;" d="M46.089,65.709c0.806,1.851-0.202,2.333-1.995,1.315C44.059,67.72,43.694,68.046,43,68
			c-1.326,2.491-1.347,3.517-1,6c0.187,1.141-0.813,1.141-3,0c-2.405-0.94-5.351-0.751-7-3c-0.192-2.174-0.181-2.856,2.016-4.014
			c0.276-0.987,0.658-1.023,1.144-0.114c1.39,0.736,2.891,1.088,4.502,1.057c-0.415-1.982,0.906-3.192,3.963-3.633
			C44.269,61.141,47.865,63.738,46.089,65.709z"/>
		<path style="fill:#262626;" d="M19,59c2.683-0.568,3.013,0.109,1,2c2.213,0.778,2.213,2.112,0,4
			c-2.153-1.165-5.143-0.938-6.848-3.071c0.056-1.371,0.343-3.112,1.503-3.841C16.096,57.182,17.909,58.948,19,59z"/>
		<path style="fill:#C3C3C3;" d="M94,78l2.164,0.253c1.928,2.4,3.54,4.982,4.836,7.747h1l-1.157,1.157
			c-1.829,0.391-3.01-1.096-3.954-2.951C95.798,84.591,94.718,84.611,94,85c-1.476-0.854-1.143-1.521,1-2
			c-1.562-0.423-2.228-1.09-2-2c-3.416,0.581-9.505-5.859-8-9C87.558,68.083,92.967,75.083,94,78z"/>
		<path style="fill:#AFAFAF;" d="M8.924,54.703c-0.365,0.595-0.452,1.358-0.858,1.94c-1.286,0.548-2.7,0.982-4.241,1.304
			C3.12,57.6,2.078,57.92,1.497,57.058c-0.351-0.52-0.232-1.109-0.319-1.729c0.539-1.217,0.875-2.566,1.008-4.047l-0.268-2.459
			c0.239-1.269,0.547-1.303,0.924-0.081C6.223,49.214,11.446,50.525,8.924,54.703z"/>
		<path style="fill:#2C2C2C;" d="M79,1c-0.198,1.041-0.518,2.055-1,3c0.847,2.157-0.84,2.35-5.061,0.578
			C72.505,6.067,71.192,5.541,69,3c-0.245,0.851-0.58,0.828-1,0c-2.656-0.319-2.541-1.239,0-2H79z"/>
		<path style="fill:#202020;" d="M8.858,6.995C10.25,8.57,9.298,9.905,6,11c1.139,2.595,0.572,3.162-2,2
			c0.073,1.158-0.593,1.158-2,0c-0.125-0.781,0.003-1.81-1-2v-1c1.644-3.288,3.644-4.955,6-5C9.348,4.031,9.613,4.698,8.858,6.995z"
			/>
		<path style="fill:#202020;" d="M105.646,74.231c-0.844,2.933-2.173,5.742-2.646,8.769c-2.003-2.109-3.625-6.302-2-9
			C102.511,73.747,104.129,74.279,105.646,74.231z"/>
		<path style="fill:#242424;" d="M65,83c3.61,0.958,2.996,3.488,0,3c-2.484-0.152-5.007-2.399-7.289-3.331
			c-0.492-1.131-0.824-2.605,0.21-3.501C60.267,77.489,65.23,80.073,65,83z"/>
		<path style="fill:#9D9D9D;" d="M14,1c0.385,0,0.825,0.266,1.202,0.202c2.66,0.335,2.143,3.17,0.921,4.848
			c-0.119,0.63-0.405,1.21-0.81,1.706c-0.426,1.74-2.142,2.784-5.148,3.131C9.213,13.094,7.141,13.229,6,11
			c0.909-1.375,2.193-2.468,2.858-4.005C8.86,4.603,9.574,2.605,11,1h1C12.679,1.712,13.346,1.719,14,1z"/>
		<path style="fill:#A6A6A6;" d="M11.996,25c1.069,0.318,1.848,0.996,2.364,2c2.468,0.445,3.341,1.934,1.64,4
			c-1.406,1.078-3.644,1.081-6.715,0.01c-0.016,4.421,1.88,5.745,5.688,3.971C14.586,33.178,14.928,31.85,16,31
			c0.002-2.927,3.341-2.803,4,0c0.55,2.107-0.208,4.713-2,6l1,2c-0.878,0.72-1.657,1.2-2,0c-2.276-0.115-3.97,0.32-5.759,1.759
			C12.647,42.551,9.608,44.283,8,43c-0.817-0.565-1.162-1.941-1.035-4.126c0.002-2.615,0.762-6.186-1.367-8.41
			C4.449,29.264,2.09,30.24,1,30v-1c1.905-0.221,4.397,0.752,6.35-0.766C8.344,27.461,7.059,25.77,7,25h1.021H11.996z"/>
		<path style="fill:#969696;" d="M70,62c3.176-0.306,5.008,5.478,3.607,3.701c-0.167-0.212,0.188-1.594,1.299-1.701
			c0.582,0.551,1.4,1.552,2.094,2c0.818,2.304,2.151,3.638,4,4c0.123,0.278-0.069,0.698,0,1c-0.966,3.178-1.747,6.496-2.345,9.956
			C81.072,80.491,82.521,81.172,83,83c0.873,0.284,0.86,0.618,0,1c-0.491,1.656-2.158,2.323-5,2c-0.643-0.215-1.464-0.587-2-1
			c-2.519-1.942-8.251-1.426-9,2c-0.535-0.223-1.513-0.685-2-1c0.924,0.138,1.049-0.754,0.851-1.312
			C65.611,84.011,65.34,83.475,65,83c1.221-1.3,3.004-1.801,5.349-1.501c3.188,0.136,4.575-2.122,4.163-6.774
			c-2.565-1.548-3.246-3.168-2.044-4.858C69.025,67.113,67.536,64.491,68,62C68.659,61.954,69.346,62.086,70,62z"/>
		<path style="fill:#1A1A1A;" d="M26,63l1.813,3.149C30.397,68.883,29.109,68.967,26,68c-2.388,0.024-4.129-1.988-6-3
			C20.132,62.013,24.088,61.743,26,63z"/>
		<path style="fill:#212121;" d="M118.092,9.992L118.186,12c0.793,1.639,0.7,2.184-0.984,1.297C114.964,16.069,112.08,14.049,114,11
			c-3.617-0.222-5.313-2.762-1.798-4.661C114.395,7.161,116.086,8.809,118.092,9.992z"/>
		<path style="fill:#383838;" d="M47,1c1.064,1.931,0.037,2.68-2,3c1.375,2.25,0.584,2.73-1.906,2C41.281,8.243,40.407,7.826,41,5
			c-1.806-0.212-1.811-2.528-1-4H47z"/>
		<path style="fill:#AFAFAF;" d="M6.965,38.874C6.798,41.06,7.143,42.821,8,44.157c2.515,2.431-2.656,4.725-5.157,4.583
			c-0.356-0.325-0.676-0.388-0.924,0.081C1.021,48.142,1,47.034,1,46c2.103-2.545,2.103-4.545,0-6v-1L6.965,38.874z"/>
		<path style="fill:#2F2F2F;" d="M60,1c-0.279,2.89-0.777,6.06-2.982,8.087C54.656,11.109,53.295,9.23,55,7
			c-2.06,0.039-1.339-0.753,0-2c0.924-0.488,1.5-1.137,2-2C57.632,1.909,58.736,1,60,1z"/>
		<path style="fill:#9A9A9A;" d="M10,1c0.726,2.145-0.401,4.294-3,4l-6,5V8l2-4c0.574-1.183,1.574-2.183,3-3
			C7.312,0.808,8.678,1.12,10,1z"/>
		<path style="fill:#2E2E2E;" d="M68,1v2c-0.186,0.881-0.525,0.844-1,0l-2.122,1.875C65.445,7.175,60.102,6.035,61,4
			c0.416-0.829-0.29-2.111,0-3H68z"/>
		<path style="fill:#343434;" d="M1,46v-6c0.896,0.327,2.829-0.535,3.625,0.28c1.063,1.087,0.232,3.139-0.504,4.242
			C3.574,45.341,2.292,45.949,1,46z"/>
		<path style="fill:#7E7E7E;" d="M33.186,62c3.115,0.774,3.642,3.281,0.829,4.986C33.175,68.754,31.503,69.759,29,70
			c-1.144-0.343-2.199-1.217-3-2c0.482-0.033,1.071,0.29,2.063-0.341C27.026,66.115,25.698,64.799,26,63
			c1.347-1.477,4.277,1.88,4.037,1.834C28.89,64.617,27.689,63.186,28,62c-0.858-0.364-0.826-0.737,0.052-1.121
			C29.427,58.562,32.856,59.379,33.186,62z"/>
		<path style="fill:#2C2C2C;" d="M39,1c0.784,0.691,1.237,3.471,0,4c2.275,2.164,0.629,3.809-2,2c-2.413,0.535-2.986-4.246-2-6H39z"
			/>
		<path style="fill:#333333;" d="M20,2c-0.886,1.685-2.278,3.032-3.877,4.05c-1.534-1.114-1.101-3.174-0.921-4.848
			C16.867,0.921,18.708,0.753,20,2z"/>
		<path style="fill:#262626;" d="M8.858,6.995C7.972,6.627,7.335,5.891,7,5c0.645-1.422,1.864-2.844,3-4c0.331-0.03,0.667,0,1,0
			C10.841,3.387,12.188,7.152,8.858,6.995z"/>
		<path style="fill:#CACACA;" d="M37,7c2.144,1.218,1.797,2.708,0,4c1.442,1.747,1.149,2.627-1,3h-1c-2.721-1.122-2.269-5.782-1-8V1
			h1C34.941,3.194,35.64,5.359,37,7z"/>
		<path style="fill:#9C9C9C;" d="M49,72c-0.584,0.696-1.557,0.967-2.815,1.138C44.392,73.382,43.798,74.711,44,76
			c-0.324,0.049-0.685-0.087-1,0c-1.174-0.345-2.048-1.131-1-2c-1.087-1.621-0.553-4.495,1-6c0.403-0.243,0.723-0.681,1.094-0.976
			C45.755,68.915,47.215,70.307,49,72z"/>
		<path style="fill:#2E2E2E;" d="M121,19c-1.9,1.263-4.831,0.563-3.289-2c-2.776-0.632-2.99-2.344-0.509-3.703
			c0.362-0.405,0.687-0.842,0.984-1.297C119.949,13.887,120.44,16.537,121,19z"/>
		<path style="fill:#A2A2A2;" d="M115.115,45c-0.159,0.381-0.282,0.804-0.407,1.197C113.172,46.263,111.53,45.748,110,46
			c-2.604-0.432-3.645-3.977-2-6c0.289-2.646,1.072-2.952,2.969-1.031c-0.798,1.47-0.548,3.464,0.111,4.518
			C111.96,44.897,113.778,45.321,115.115,45z"/>
		<path style="fill:#171717;" d="M120.937,20.134c1.482,0.873,0.403,2.584,0.357,3.583l-1.073-0.843
			c-5.029-0.185-6.436-1.143-4.22-2.874C116.979,18.678,118.624,18.723,120.937,20.134z"/>
		<path style="fill:#424242;" d="M110.114,54.12c2.51,1.671,0.978,4.613-0.114,6.88c-0.769-0.015-2.16-6.315-2.22-6.169
			C108.197,53.81,109.42,54.017,110.114,54.12z"/>
		<path style="fill:#8B8B8B;" d="M85,91c-0.24,0.469-0.696,1.12-0.598,1.573C84.562,93.315,85.569,93.017,86,93
			c-0.253,0.695-0.71,1.32-1,2c-1.107,0.223-2.09-0.608-3-1c3.736-0.953-2.874-3.214-1.806-6.194C82.296,85.99,84.779,88.65,85,91z"
			/>
		<path style="fill:#202020;" d="M32,71c-0.556-0.758-2.19-0.757-3-1c-0.674-2.911,2.837-1.346,5.016-3.014
			C33.867,68.556,34.161,71.279,32,71z"/>
		<path style="fill:#262626;" d="M6,1C5.941,1.675,6.308,2.678,5.913,3.42C5.422,4.342,3.888,4.09,3,4
			C2.419,3.412-0.056,2.413,1.302,1.363C2.55,0.399,4.709,1.189,6,1z"/>
		<path style="fill:#222222;" d="M118.047,36.084c-0.661,0.39-0.97,1.417-2.084,0.979c-0.796-0.841-2.027-1.302-2.971-1.932
			c-2.114-2.174-0.801-3.484,1.764-1.877C115.589,34.231,118.603,33.768,118.047,36.084z"/>
		<path style="fill:#2E2E2E;" d="M8.066,56.643L7.84,59.74c-1.469-0.292-2.697-1.143-4.016-1.793
			c-0.038-0.969,0.229-2.755,1.546-2.89C6.235,54.968,7.284,56.117,8.066,56.643z"/>
		<path style="fill:#3F3F3F;" d="M116,3c-1.449-0.057-2.854,0.235-4.518,0.616C110.98,2.567,110.997,1.774,111,1
			C113.625,1,115.55,0.247,116,3z"/>
		<path style="fill:#3B3B3B;" d="M1.178,55.328c-0.204-1.46-0.256-3.058,1.008-4.047c0.101,1.17,1.519,1.071,2.622,2.136
			c0.489,0.472-1.008,1.887-1.563,2.193C2.712,55.904,1.894,55.817,1.178,55.328z"/>
		<path style="fill:#424242;" d="M10.979,60.913c-0.353-0.519-1.4-0.507-1.895-0.906c0.203-0.565-0.509-2.175,0.119-2.657
			c1.275-0.977,3.104-0.497,2.827,1.065C11.891,59.2,12.583,61.108,10.979,60.913z"/>
		<path style="fill:#181818;" d="M14,1c0.262,2.12-0.355,4.172-1.661,6.123C11.583,4.6,12.18,2.856,12,1H14z"/>
		<path style="fill:#212121;" d="M106,1c-0.093,0.597,0.272,1.302,0.116,1.884C105.777,4.786,104.738,4.825,103,3
			c-0.319,2.656-1.239,2.541-2,0c-0.873-0.284-0.86-0.618,0-1c-0.873-0.284-0.86-0.618,0-1H106z"/>
		<path style="fill:#2F2F2F;" d="M101,1v1c-0.666,1.913-1.538,2.026-2,0l-1.798,0.884C96.171,3.392,95.737,2.551,95,2
			C96.272,0.154,99.011,1,101,1z"/>
		<path style="fill:#303030;" d="M3,4c0.834,0.845,0.994,1.957,0.076,2.576C2.304,7.096,1.75,7.693,1,8
			c0-0.998-0.182-2.045,0.062-3.396C1.187,3.915,2.2,3.919,3,4z"/>
		<path style="fill:#929292;" d="M121,19c0.081,0.357-0.111,0.769-0.063,1.134L116,20c-1.798-2.393-1.27-3.334,1.711-3
			c0.064,0.734,0.349,1.561,0.987,1.83C119.486,19.162,120.288,19.064,121,19z"/>
		<path style="fill:#B7B7B7;" d="M48,4c-0.077,2.886-2.345,2.705-3,0c0.99-0.776,1.909-1.669,2-3h1V4z"/>
		<path style="fill:#AFAFAF;" d="M41,5c-0.319,2.656-1.239,2.541-2,0V1h1C39.978,2.402,40.229,3.81,41,5z"/>
		<path style="fill:#4A4A4A;" d="M42,74l1,2c-1.8,0.5-2.748-1.511-4-2H42z"/>
		<path style="fill:#2D2D2D;" d="M61.283,56.11C64.3,56.13,69.641,58.645,68,62c0.754,0.791,7.935,8.375,7.877,8.528
			c-0.19,0.503-1.8,0.06-2.855,1.002c0.913,0.906,2.081,0.169,4.196,0.843c-1.355,2.858-0.502,6.824-2.272,9.748
			C72.596,83.639,67.644,84.085,65,83c-2.38-0.977-5.028-2.257-7.079-3.832C54.504,76.542,53.526,71.876,52,68l-0.334-1.494
			C55.749,67.136,59.86,67.968,64,69c4.309,0.744,4.309,0.744,0,0l-9.933-2.422C51.836,67.069,50.814,66.543,51,65
			c-0.811,1.352-2.821-0.683-2-2c0.52-2.698-0.046-8.284,3.129-9.688C54.465,52.279,59.356,54.804,61.283,56.11z"/>
		<path style="fill:#1C1C1C;" d="M90.522,50.772c2.316,1.023,5.361,4.179,2.63,6.367C95.302,59.098,94.718,60.038,92,59
			c-0.299,1.617-0.965,3.284-2,5c-1.671,1.356-4.066,1.948-5,4c0.698,2.772-0.189,3.263-2,1c-2.563-1.798-5.256-3.938-6.053-7.055
			l1.859-9.532L80,52l6.401-2.598C88.226,48.662,89.931,49.3,90.522,50.772z"/>
		<path style="fill:#2A2A2A;" d="M68.814,38.231c1.505-1.246,2.079-0.691,1.087,1.016c3.796,1.712,4.503,5.297,2.121,10.753
			c-2.204,2.594-0.792,5.1-4.421,4.85c-1.795-0.124-2.27-2.496-4.54-3.926c-1.43,1.29-1.986,0.77-1.06-0.924l-2.927-4.073
			c-1.108,1.111-1.628,0.683-1.092-0.798C54.909,42.901,59.255,40.075,62,39c-0.994-2.665,1.679-3.347,3.717-2
			C66.836,34.913,69.217,35.855,68.814,38.231z"/>
		<path style="fill:#272727;" d="M84,71c1.596-1.357,2.16-0.761,1,1l8,9c0.278,1.346-0.91,1.629-2,1c-1.499,0.711-3.501,0.708-5,0
			c-0.769,0.877-2.003,1.596-3,1l-7.124-0.073C78.127,76.559,76.216,73.955,81,71H84z"/>
		<path style="fill:#2A2A2A;" d="M82.089,42.761c0.278-0.893,0.584-0.852,0.916,0.063C84.788,43.813,85.911,44.786,84,46
			c0.169,0.999,0.355,2.162-0.34,2.944C82.334,50.436,79.489,49.889,78,52c-1.831-0.143-3.629,0.62-5.79,1.118
			c-0.43-1.421-0.029-2.304-0.188-3.118c0.39-2.481,1.05-4.814,1.978-7C76.482,42.162,79.452,42.279,82.089,42.761z"/>
		<path style="fill:#111111;" d="M47,55c-8.925-0.926-5.832,2.148-10.976-1c-1.987-0.57-1.995-1.903-0.024-4
			c-0.328-3.821,2.868-9.128,6.765-6.11C43.449,44.421,48.325,54.118,47,55z"/>
		<path style="fill:#202020;" d="M97,76c1.119,3.047-0.622,4.178-3,2c-4.038-0.273-5.241-6.013-9-6c-0.242-0.273-0.578-1-1-1l-1-2
			c0.876,0.19,1.353-0.783,2-1c1.141-0.383,2.418-0.816,3.539-0.912C90.118,66.952,97.791,74.621,97,76z"/>
		<path style="fill:#161616;" d="M11,44c3.04-2.287,5.38,2.455,2,4c0.921,0.181,0.885,0.52,0,1c2.478,1.98,1.066,3.886-2,3
			c-0.819,0.776-1.488,1.746-2.076,2.703c-0.593-4.278-3.999-1.25-6.081-5.963C1.753,47.078,7.161,45.762,8,44.157
			C8.371,43.262,10.721,42.614,11,44z"/>
		<path style="fill:#111111;" d="M48.932,53.853c-0.544,0.173-1.017,0.264-1.246,0.068c-0.992-0.847-5.083-9.686-4.221-10.921
			c-0.38-0.627-0.2-0.96,0.535-1c0.714-1.868,1.714-2.476,3-1.825C49.037,38.149,52.631,50.974,48.932,53.853z"/>
		<path style="fill:#464646;" d="M65.717,37c-0.754,1.47-2.605,1.292-3.717,2c-3.403,2.332-4.569,2.475-3.499,0.431L58,37
			c-1.467,1.355-2.034,0.762-1-1c1.282-0.956,1.274-2.691,2-4c1.401-2.64,3.316-3.216,5.412-1.651
			c2.33,0.243,3.197,1.616,2.599,4.119C68.72,35.547,67.632,36.294,65.717,37z"/>
		<path style="fill:#141414;" d="M19,49c0.873,0.284,0.86,0.618,0,1c-0.13,1.558-0.445,4.098-2,5
			c0.016,2.578-2.353,2.263-4.117,1.627C10.8,55.876,10.699,53.9,11,52c0.888-0.841,1.655-1.796,2-3
			c0.075-0.257,0.159-0.46,0.274-0.479C14.967,48.243,19.061,47.675,19,49z"/>
		<path style="fill:#A8A8A8;" d="M55,5v2l1,9c-0.105,0.444-0.611,0.822-1,1c-0.833,2.744-2.237,3.422-4,1
			c-2.122,0.106-3.455-0.561-4-2c-2.761-1.622-4.094-1.622-4,0c0.107,2.885-2.172,2.849-3,0.192c-2.038-0.309-2.483-1.773-1-3.192
			c0.256-1.927,2.265-4.244,4-5c2.576-1.74,3.622-1.049,3,2c0.279,1.189,0.945,1.856,2,2c4.729,1.086,2.615-1.137,0-3
			c-2.162-1.588-1.387-3.05,1-4c1.027,0.582,2.027,2.096,3.079,1.541L55,5z"/>
		<path style="fill:#333333;" d="M53.619,23.278c-1.015,2.202-1.057,4.855-2.887,6.554C48.655,32.274,46.43,31.058,47,28
			l-3.259-1.408c1.16-4.501,2.478-5.886,3.954-4.153C50.027,22.139,52.002,22.419,53.619,23.278z"/>
		<path style="fill:#484848;" d="M57,36c0.285,0.338,0.639,0.744,1,1c1.837,3.949-0.189,9.034-4,5
			c-0.634-1.153-3.588-0.574-3.907-1.698c-1.056-3.723,4.15-3.301,5.889-5.8c0.317-0.456,0.736-0.755,1.004,0.011
			C57.185,35.085,56.79,35.751,57,36z"/>
		<path style="fill:#4F4F4F;" d="M65,8c1.886,0.78,1.886,2.113,0,4c2.631,1.379,1.923,2.712-1,3c-1.061,4.738-1.776,4.689-3,0
			c-2.364,0.079-2.626-1.769-1-3.231c-0.892-1.748-0.663-3.862,0.047-5.538C62.212,5.031,65.853,4.284,65,8z"/>
		<path style="fill:#323232;" d="M59.073,45.927L62,50c0.416,0.164,0.685,0.687,1.06,0.924c0.01,0.963,0.656,1.672,0.929,3.069
			c-3.338-0.326-5.754-1.437-8.354-2.381c-2.699-0.67,0.697-6.006,2.346-6.483C58.415,45.034,59.072,45.441,59.073,45.927z"/>
		<path style="fill:#3A3A3A;" d="M59.939,26.929C62.228,29.272,61.915,30.962,59,32c-1.997,0.359-3.677,0.978-4.907-1
			c-0.692-2.889,0.566-5.237,2.866-7C58.843,22.514,60.429,24.78,59.939,26.929z"/>
		<path style="fill:#535353;" d="M47,28c1.221,0.65,2.3,1.607,3.732,1.832C50.926,31.297,50.691,32.714,50,34
			c-0.21,1.815-1.599,1.978-2,0c-2.466,0.606-7.025-0.888-6-4c-1.312-1.719-1.166-2.007,1-2C43.425,24.76,44.758,24.76,47,28z"/>
		<path style="fill:#AFAFAF;" d="M47,16c1.025,0.653,1.359,1.986,1,4c1.216,0.443,2.793,0.439,4.73-0.013L54,22
			c-0.125,0.422-0.196,0.879-0.381,1.278c-2.39,0.052-5.55-1.224-7.937,0.482C43.877,25.052,46.438,26.903,47,28
			c-1.197-0.638-2.853-0.612-4,0c-0.915,1.219-3.24,0.657-3.722-0.798L38,26c-0.31-2.028,1.029-2.49,4.015-1.384L43,24
			c-0.1-2.718-0.1-5.384,0-8C43.008,13.028,45.207,14.618,47,16z"/>
		<path style="fill:#939393;" d="M41.049,58.063C46.362,57.709,48.012,59.021,46,62c0.201,0.918,1.21,0.971,1.982,0.89
			c1.35,0.935,1.825,2.014-0.081,2.115c-0.313,0.982-0.917,1.216-1.811,0.703c0.04-1.122-1.587-1.317-2.465-1.412
			c-1.794,1.47-4.438,2.465-4.678-0.507C36.465,64.539,36.312,63.959,38,62c0.731-1.033,0.064-1.7-2-2c-0.319,2.656-1.239,2.541-2,0
			c-2.86-0.064-2.733-2.324,0-3c0.332,0,0.67-0.039,1,0L41.049,58.063z"/>
		<path style="fill:#141414;" d="M25,52c1.782,0.687,1.782,2.02,0,4c-4.37-0.841-6.842,2.938-7-1c0.163-1.522,0.46-4.125,2-5
			C21.888,48.34,24.261,49.842,25,52z"/>
		<path style="fill:#1C1C1C;" d="M78,53c0.527,2.699,0.176,5.681-1.053,8.945c-2.91-0.121-4.325-2.5-4.065-5.452
			C73.096,54.067,75.726,53.563,78,53z"/>
		<path style="fill:#303030;" d="M60,11.769c0.588,1.152,1.104,1.818,1,3.231c2.69,3.496,2.69,5.148,0,4.955
			c-1.349,1.34-2.462,1.726-3.339,1.158C55.792,22.144,55.703,21.627,57,20C55.569,20.074,58.081,9.044,60,11.769z"/>
		<path style="fill:#333333;" d="M68,62c-1.942-2.038-4.496-4.385-6.717-5.89c3.858-2.099,8.481,1.471,10.567,4.696
			C69.509,61.205,67.935,60.498,68,62z"/>
		<path style="fill:#808080;" d="M43.465,43c1.465,3.745,2.781,7.856,5.467,10.853C48.221,54.406,48.221,55.127,47,55
			c-0.079-1.504-4.248-10.575-5.663-10.903c-1.146-0.266-2.904-0.552-3.404,0.742C37.163,46.835,37.059,48.634,36,50
			c-0.284,0.873-0.618,0.86-1,0c-2.536-1.168-0.658-5.41,1-7C35.591,39.956,42.957,40.081,43.465,43z"/>
		<path style="fill:#313131;" d="M54,42c3.979-0.702,4.16,2.245,0.544,8.843l-1.467-0.134c-1.338-2.471-2.72-5.297-1.873-8.523
			C51.92,41.759,53.389,41.979,54,42z"/>
		<path style="fill:#ABABAB;" d="M62,39c-2.778,1.768-3.385,3.634-4.018,6.129c-0.457,1.8-3.775,3.646-2.346,6.483
			c-1.177-0.428-1.778,0.54-2.559-0.903c1.198-1.629,2.759-3.328,2.96-5.797C56.171,43.255,54.464,42.844,54,42
			c1.208,0.041,2.906,0.141,3.552-0.979C58.287,39.747,58.01,38.252,58,37c0.771,0.547,0.922,2.876,1.53,2.703L62,39z"/>
		<path style="fill:#1E1E1E;" d="M34,57v3c1.741,1.345,1.368,2.229-0.814,2c-1.776-0.002-3.489-0.478-5.134-1.121
			C25.773,60.859,25.686,57.816,28,57H34z"/>
		<path style="fill:#242424;" d="M46,62c-0.112-0.512,0.04-1.413-0.271-2.088c-0.271-0.59-3.946,0.942-4.328-0.511l-0.352-1.338
			c1.609-0.502,3.377-3.299,5.646-1.726C48.729,57.746,47.91,61.116,46,62z"/>
		<path style="fill:#1E1E1E;" d="M36.024,54c0.002,0.356,0.168,1.541-0.317,1.758C32.322,56.419,29.129,55.802,26,56
			c-1.189-2.043-0.189-3.043,3-3l4.613-0.476C35.01,50.889,35.687,51.899,36.024,54z"/>
		<path style="fill:#2D2D2D;" d="M55,17c-0.123,1.702-0.516,3.366-1,5l-6.692-0.068C47.275,20.939,47.693,20.473,48,20
			c-0.273-2.566,0.69-3.29,3-2C52.157,17.361,53.796,17.551,55,17z"/>
		<path style="fill:#3A3A3A;" d="M55,7c0.325,0.976,1.028,1.769,2.018,2.087C57.222,11.442,56.539,13.721,56,16
			c-1.41-0.511-3.588-6.682-2.832-8.198C53.421,7.295,54.266,7.065,55,7z"/>
		<path style="fill:#1E1E1E;" d="M24.929,58.118c0.858-0.39,1.472-0.341,1.63,0.419C27.529,63.189,20.789,64.38,20,61
			c0-0.696-0.842-1.32-1-2C20.622,57.641,22.876,58.018,24.929,58.118z"/>
		<path style="fill:#939393;" d="M28,57c-0.365,1.309-1.124,2.826,0.052,3.879L28,62c0.435,2.433-0.071,2.373-2,1
			c-2.333-0.548-4.292,0.404-6,2v-4c1.623,0.999,4.27,1.994,5.816-0.369c0.419-0.641-0.826-1.886-0.887-2.513
			C25.746,57.494,26.797,57,28,57z"/>
		<path style="fill:#252525;" d="M48,37c0.251,1.182-0.622,2.12-1,3.175c-0.895,1.283-1.895,0.558-3-2.175
			c-3.231-0.304-3.736-2.208-1-4C44.327,33.618,45.994,34.618,48,37z"/>
		<path style="fill:#A0A0A0;" d="M67,3c1.243,1.44,0.91,3.107-1,5c-0.284,0.873-0.618,0.86-1,0
			c-1.399-1.205-3.075-2.227-4.953-1.769C60.354,5.508,60.646,4.705,61,4c-0.166,0.613,0.283,0.929,0.652,0.978
			C64.12,5.302,64.728,3.058,67,3z"/>
		<path style="fill:#292929;" d="M74.906,64c-0.032,0.78,0.453,1.527-0.263,3.064C72.891,65.388,71.101,63.993,70,62
			C71.971,61.741,74.317,61.939,74.906,64z"/>
		<path style="fill:#292929;" d="M81,70c-0.626,0.093-1.912,1.376-2.956,0.768C76.361,69.788,77.151,67.345,77,66
			C78.607,67.038,80.199,68.194,81,70z"/>
		<path style="fill:#8A8A8A;" d="M80,52c-1.929,3.049-0.48,7.357-3.053,9.945C76.549,58.891,78,56.056,78,53v-1
			C78.606,51.841,79.424,52.234,80,52z"/>
		<path style="fill:#555555;" d="M57.661,21.113c1.105,1.096,1.406,2.947-0.703,2.887c-1.475-0.136-2.7-0.376-1.609-2.237
			C55.685,21.191,56.204,20.371,57,20C57.096,20.409,56.824,21.55,57.661,21.113z"/>
		<path style="fill:#353535;" d="M48,34c0.495,0.309,1.448-0.215,2,0c-0.284,0.529,0.349,1.547-0.218,2.242
			C49.416,36.689,48.7,36.949,48,37C44.713,35.059,42.916,32.712,48,34z"/>
		<path style="fill:#C8C8C8;" d="M51,65c2.665,1.332,2.609,1.939-0.154,3c-2.259,2.038-3.95-0.684-2.946-2.995l0.081-2.115
			C48.309,62.855,48.67,63.015,49,63L51,65z"/>
		<path style="fill:#525252;" d="M54.093,31c-0.358,1.36,0.57,2.885-0.836,4.389c-1.912-0.652-1.41-2.488-1.032-3.561
			C52.42,31.274,53.351,31.1,54.093,31z"/>
		<path style="fill:#939393;" d="M29,53c-1.149,0.946-3.212,1.16-3,3c-0.322,0.02-0.684,0.061-1,0v-4
			C26.583,49.919,28.574,50.424,29,53z"/>
		<path style="fill:#7C7C7C;" d="M20,50c-0.996,1.554-0.486,3.739-2,5h-1c0.912-1.582,0.608-3.656,2-5
			C19.295,49.356,19.629,49.369,20,50z"/>
		<path style="fill:#151515;" d="M41.049,58.063C39.217,58.635,36.154,58.482,35,57C37.049,57.243,40.47,55.861,41.049,58.063z"/>
		<path style="fill:#3E3E3E;" d="M94.121,27.218c1.115-0.279,2.231-0.765,3.891-0.014l-4.261,9.513
			C92.746,38.959,91.912,40.887,90,42c0.78,1.011,0.245,1.512-1,1c-3.084,1.978-4.751,1.978-5,0l-2.294-1.725
			c1.531-1.395,2.094-3.543,1.69-6.444c-1.554-0.677-1.097-1.382,1.371-2.115C86.503,30.241,88.58,28.669,91,28
			C90.386,25.189,92.741,24.749,94.121,27.218z"/>
		<path style="fill:#454545;" d="M114.756,33.255c-0.45,0.541-1.669,1.09-1.764,1.877c-0.187,1.563-1.316,2.534-2.024,3.837
			c-0.901,0.456-1.921,1.031-2.969,1.031c-2.096,3.069-6.802,0.918-6.64-2.633c-0.489,0.256-0.84,0.096-1.068-0.433
			c-2.934-1.226-1.172-6.705,1.457-7.026c0.37,1.206-0.407,2.922,0.935,3.867c0.747-2.084-0.032-3.634,0.926-4.485
			C103.408,29.469,111.804,29.795,114.756,33.255z"/>
		<path style="fill:#1B1B1B;" d="M98.934,17.297c2.981-1.509,9.159,1.542,10.066,4.703c2.057-0.249,3.057,1.418,3,5
			c-0.226,0.438-0.525,0.831-0.887,1.165c-2.231,2.512-12.607-2.776-13.658-4.235C96.352,22.399,96.811,20.581,97,19
			C95.031,16.273,95.708,14.545,98.934,17.297z"/>
		<path style="fill:#404040;" d="M88.126,21.096c1.624-0.284,3.409-0.201,3.735,1.659c1.179,1.354,3.246,2.807,2.26,4.462L91,28
			c-2.358,1.59-3.691,1.59-4,0c-4.007-1.916-6.01-2.874-6.01-2.874c-0.642-2.4,0.028-3.775,2.01-4.126
			C84.157,19.8,86.584,20.455,88.126,21.096z"/>
		<path style="fill:#767676;" d="M101,2v1l1.149,2.008C100.441,7.569,101.058,9.233,104,10c3.081,0.719,1.941,2.23-0.367,3.852
			c-3.39-0.224-4.956,0.925-4.699,3.445c-0.685-0.193-1.585-0.564-1.982,0.3C96.744,18.051,97.047,18.609,97,19h-1.037
			c-1.599,0.566-2.547-0.393-2.843-2.878c-2.182-0.11-3.918-0.704-4.973-2.849L88,12c2.474,0.083,4.839,1.491,7.953,0.971
			C98.329,9.68,98.285,5.541,99,2C99.566,1.721,100.38,2.15,101,2z"/>
		<path style="fill:#222222;" d="M95.963,19c0.04,0.762,0.469,1.483-0.809,3.316c-2.429-2.869-6.563-5.194-7.007-9.043
			c1.575,0.853,3.661,0.285,5.721,1.067C95.632,15.01,95.326,17.706,95.963,19z"/>
		<path style="fill:#343434;" d="M86,13c0,1.815-2.302,2.297-3.079,3.793c-1.792,2.949-8.53,6.221-6.824,0.207
			c-2.139,0.059-2.176-1.456-0.097-2C79.223,11.911,82.405,9.451,86,13z"/>
		<path style="fill:#3C3C3C;" d="M95,46c1.24,0.785,2.573,1.785,4,3c2.256-1.145,4.088,0.549,4,2.966V53
			c2.236,1.806,0.941,3.261-1.593,1.822c-1.083-0.908-3.055-1.468-4.397-1.729l-3.915-3.134c-0.058-1.098-0.11-2.123,0.097-3.273
			C93.334,45.888,94.152,45.798,95,46z"/>
		<path style="fill:#343434;" d="M93.094,49.959l3.915,3.134c0.868,1.242,1.683,2.803,2.73,3.892
			c0.763,3.756-5.907,3.548-6.588,0.155c-0.486-2.304-2.454-3.961-2.63-6.367C91.198,50,92.289,50.443,93.094,49.959z"/>
		<path style="fill:#2B2B2B;" d="M98,36c1.702-1.881,2.062-1.493,2.291,0.934c0.323,0.019,0.779,0.28,1.068,0.433
			c0.79,2.421-2.853,6.606-5.36,5.633c0.218,2.847-0.75,3.136-2.906,0.866c-0.039-2.546,0.771-5.052,2.24-7.56
			C96.414,35.861,97.241,35.884,98,36z"/>
		<path style="fill:#3A3A3A;" d="M101.748,29.908l-1.457,7.026C99.406,36.883,98.604,36.663,98,36
			c-0.736-0.809-2.081-1.248-1.546-2.07c2.759-4.234,1.716-6.314,3.893-5.722C101.026,28.393,101.465,28.986,101.748,29.908z"/>
		<path style="fill:#C3C3C3;" d="M82.921,16.793C83.259,16.739,83.655,17.011,84,17c2.448,1.365,1.701,2.553-1,2.063
			c1.269,1.339,0.706,1.686-1,0.937l-3.01,1.121L79,22c-0.704,2.929-3.49,2.904-4.083-0.047C72.662,21.443,73.099,17.718,75,17
			c0.315-0.874,0.682-0.86,1.097,0c0.401,0.845,0.764,1.872,1.772,2.421C79.67,18.334,81.093,17.082,82.921,16.793z"/>
		<path style="fill:#A4A4A4;" d="M86,11v2c-8.205-3.117-6.003,2.347-10,2c-1.806-2.25,0.827-5.076,3-6
			C80.451,11.492,83.372,11.169,86,11z"/>
		<path style="fill:#404040;" d="M88,20c-1.271,1.106-4.416,0.842-5-0.937L84,17c0.911-0.45,2.2-0.889,2.73-0.207
			C87.582,17.889,87.727,19.004,88,20z"/>
		<path style="fill:#999999;" d="M99,49c-1.835-0.123-3.323-1.306-4-3c-0.757-0.595-1.449-1.28-1.906-2.134
			C94.118,43.798,95.125,43.547,96,43C98.139,43.982,100.851,46.754,99,49z"/>
		<path style="fill:#9F9F9F;" d="M89,43c1.036,1.302-0.439,2.45-2,2c0.441,1.816-0.871,2.499-2,1h-1
			c-0.186-1.101-0.46-2.184-0.995-3.176C83.488,42.022,83.82,42.08,84,43C86.694,45.378,89.099,39.811,89,43z"/>
		<path style="fill:#323232;" d="M88.661,46.089c-0.652,0.826-1.257,1.927-2.228,1.963C85.032,48.103,84.966,46.901,85,46
			c0.615-0.396,1.416-0.555,2-1C89.054,43.227,89.342,43.422,88.661,46.089z"/>
		<path style="fill:#383838;" d="M88.661,46.089L87,45c0.747-0.569,1.29-1.392,2-2c0.343-0.294,0.614-0.775,1-1
			c1.53,0.019,0.878,1.374,0.613,2.116C90.248,45.137,89.218,45.383,88.661,46.089z"/>
		<path style="fill:#B3B3B3;" d="M91.861,22.756c-0.763-0.876-3.062-0.371-3.735-1.659c0.881-0.313,1.827-1.747,3.131-0.712
			C91.892,20.888,91.957,21.87,91.861,22.756z"/>
		<path style="fill:#C3C3C3;" d="M88,20c0.097,0.353,0.05,0.738,0.126,1.096C86.482,21.395,84.664,20.85,83,21
			c-0.333,0.529-0.666,0.529-1,0c-0.873-0.284-0.86-0.618,0-1c0.503,0.108,0.825-0.576,1-0.937C84.515,19.937,86.278,20.097,88,20z"
			/>
		<path style="fill:#1B1B1B;" d="M34,6c1.917,2.198,1,5.288,1,8v1c0.917,1.279,0.047,2.469-2.611,3.572L31,21
			c1.805,1.148,1.583,1.842-0.667,2.084c-2.131,1.173-4.165,0.786-6.218-0.071C22.151,22.144,21.446,21.139,22,20
			c-1.631,0.19-1.654-0.279-0.625-1.408C18.938,17.673,19.867,17.106,22,16c0.136-2.213,0.869-2.75,1.408-0.59
			c1.156-0.12,2.02,0.077,2.592,0.59c1.612,0.487,1.612,0.154,0-1c-1.755,1.276-6.171,0.388-3.438-2.111
			C21.077,12.155,21.556,10.859,24,9c0.177-2.059,0.844-2.726,2-2C31.433,7.772,30.728,3.491,34,6z"/>
		<path style="fill:#2A2A2A;" d="M40.843,31.882C41.876,31.019,43.54,32.812,43,34c-0.079,1.444,0.452,2.715,1,4
			c1.62,1.622,2.515,2.945,0,4c0.016,0.417-0.135,0.83-0.535,1H36c-1.531,1.142-1.999,0.552-0.814-1
			c-2.274-0.389-2.949-0.882-0.771-1.516c0.176-3.13,0.704-5.994,1.585-8.591C40.244,30.127,39.814,33.891,40.843,31.882z"/>
		<path style="fill:#161616;" d="M29,40c-2.083,2.754-5.24-0.419-3-3c2.016-2.375,5.317-2.604,8-4
			c2.1-1.654,0.715,8.258,0.266,8.474C32.584,42.284,29.412,41.883,29,40z"/>
		<path style="fill:#262626;" d="M24.029,29.1C23.166,29.061,22.675,29.663,22,30c1.112,2.581-0.184,3.038-2,1h-4
			c-0.83-1.22-1.809-2.431-1.64-4c-0.458-0.763-0.244-1.097,0.64-1c0.63-1.737,1.63-1.899,3.002-0.487
			C26.665,24.695,28.674,25.891,24.029,29.1z"/>
		<path style="fill:#2E2E2E;" d="M29.247,26.278c3.028,0.83,5.228,2.045,2.937,4.997c-1.22,2.531-4.416,2.541-6.957,3.975
			c-0.509-2.658-0.277-4.288-0.213-6.107c0.291-1.122,1.213-2.235,2.213-2.945L29.247,26.278z"/>
		<path style="fill:#909090;" d="M36,31.892c0.119,3.435-1.652,6.642-0.814,10.108c-1.623,1.908-5.58,4.587-8.186,4
			c-1.887-1.369-3.354,1.205-2,3c2.86,0.064,2.733,2.324,0,3c-1.566-0.897-3.195-2-5-2h-1v-1c0.677-2.911,1.597-1.422,1.494-1.52
			c-0.916-0.877-1.465-1.182-3.513-2.116C16.151,44.987,17.024,42.775,18,42l3-3c0.579-0.533,1.291-0.718,2-1l1.852,1.689
			C23.55,41.816,28.258,41.52,29,40c1.485,0.454,2.89,1.028,4.904,1.045C33.411,38.434,36.252,32.442,34,33
			C34.658,32.657,35.287,32.189,36,31.892z"/>
		<path style="fill:#212121;" d="M22,30c2.732-0.164,2.354,3.449,1.81,5.388C23.152,37.735,19.954,36.935,18,37
			c-0.99-1.98-0.158-4.921,2-6L22,30z"/>
		<path style="fill:#2E2E2E;" d="M43,16c1.174,0.92,2.171,2.08,2.149,3.512C45.119,21.492,44.954,23.381,43,24
			c-1.057,1.633-1.774,1.153-1-0.745c-0.853-1.91-2.795-3.154-3.089-5.344c-1.596-1.32-1.01-2.165,1.089-1.719L43,16z"/>
		<path style="fill:#272727;" d="M35.837,18.147c-0.096,1.709,0.403,3.527,0.162,5.737c-0.17,1.556-2.159,1.202-3.33,1.078
			c-0.914-0.097-1.885-0.543-2.336-1.877C30.637,22.262,30.077,21.574,31,21C31.75,18.485,34.995,15.414,35.837,18.147z"/>
		<path style="fill:#141414;" d="M26,37c0.641,1.22,1.601,2.573,3,3c0.03,0.557,1.046,1.09,0.895,1.523
			c-0.751,2.152-5.035,1.507-8.001,1.334C22.238,40.878,23.124,39.588,23,38C23.982,37.61,24.916,37.082,26,37z"/>
		<path style="fill:#303030;" d="M32.184,31.276c-0.829-1.75-1.764-3.453-2.937-4.997c3.078,0.12,6.571-0.185,8.9,2.321
			C35.911,30.134,33.928,30.452,32.184,31.276z"/>
		<path style="fill:#252525;" d="M19,20c-3.021,0.807-7.195,2.375-8.845-0.803C9.782,18.335,10.063,17.936,11,18
			C13.621,16.753,26.182,17.04,19,20z"/>
		<path style="fill:#2C2C2C;" d="M10.165,10.887c3.3-0.895,3.12,1.481-0.165,2.113c1.519,2.054,0.171,4.214-2.318,2.9l-1.365-0.024
			C3.403,16.589,2.65,15.684,4,13c0.63-0.678,1.484-1.218,2-2C7.379,10.661,8.861,10.092,10.165,10.887z"/>
		<path style="fill:#171717;" d="M4,13c0.571,0.984,1.465,2.068,2.318,2.877c-0.069,0.805,0.818,2.18,0.302,2.683
			c-0.665,0.649-2.702,0.87-3.766,0.165C1.173,17.61,2.271,14.691,2,13c0.331-0.062,1.065-0.738,1.501-0.916
			C3.725,11.993,3.877,12.787,4,13z"/>
		<path style="fill:#999999;" d="M18,23c1.345,1.917,3.876,1.869,5.869,1c1.313,0.046,2.433,1.47,3.357,2.199
			c-0.122,1.331-1.018,2.391-2.213,2.945L24.029,29.1c0.35-1.102,1.306-1.672,2.064-2.988L15,26c-1.799-1.055-1.022-2.669,1-3H18z"
			/>
		<path style="fill:#292929;" d="M11.996,25l-1.963,3.476C8.46,27.263,8.64,25.989,8.021,25c0.109-0.846-0.378-2.989,0.64-3.35
			c0.992-0.352,2.178,0.29,2.758,0.664C12.122,22.767,11.991,24.289,11.996,25z"/>
		<path style="fill:#303030;" d="M39,13c0.596,0.966,0.859,2.075,1,3.192c-0.46,0.507-0.847,1.077-1.089,1.719
			c-0.442,0.329-0.868,0.814-1.813,0.766C37.108,16.729,36.961,15.272,36,14c-0.7-0.927,0.77-2.351,1-3
			C38.886,8.838,40.443,10.59,39,13z"/>
		<path style="fill:#202020;" d="M11,18c-0.227,0.435-0.51,0.838-0.845,1.197c-0.654-0.19-1.69-0.238-2.09-0.921
			c-0.42-0.716-0.41-1.584-0.382-2.375C8.553,15.015,9.373,14.076,10,13c0.307-0.464,0.641-0.452,1,0
			c2.383,0.678,3.241,1.337,1.19,3.07C14.44,16.964,14.044,17.607,11,18z"/>
		<path style="fill:#C6C6C6;" d="M42,30c0.725,2.698,3.812,2.633,6,4c-0.37-0.036-1.464-0.214-1.941,0.442
			C45.847,34.733,48.719,36.652,48,37c-2.323,0.283-3.145-2.158-5-3c-0.817-0.371-1.486-1.52-2.157-2.118
			c-0.478-0.426-0.527-1.55-0.785-2.134C40.851,27.876,41.71,27.988,42,30z"/>
		<path style="fill:#484848;" d="M42,23.255c0.164,0.367,0.707,0.513,1,0.745c0.321,0.478,0.829,0.897,0.789,1.96L38,26
			c0.135-1.518-0.322-2.95,0.262-5.124C39.544,22.056,40.496,23.089,42,23.255z"/>
		<path style="fill:#393939;" d="M16,23c-0.156,1.052-0.463,2.078-1,3c-0.154,0.369-0.368,0.707-0.64,1
			c-0.44,0.091-1.38,0.879-1.935,0.626c-0.8-0.365-0.423-1.985-0.428-2.626c0.427-0.757,0.901-1.903,1.676-2.37
			C14.407,22.188,15.351,23,16,23z"/>
		<path style="fill:#464646;" d="M22,20c1.123,0.647,1.942,1.717,2.115,3.013c-1.704-0.711-3.842-0.157-6.148-1.358
			C18.39,21.057,18.95,20.668,19,20C21.043,18.66,22.043,18.66,22,20z"/>
		<path style="fill:#141414;" d="M21,39c1.674,0.167,0.025,1.805,0.032,2.659C21.05,43.683,19.079,42.957,18,42
			c-1.429,1.148-1.958,0.602-1-1c-0.668-0.796-0.002-1.463,2-2C19.596,39,20.463,39.174,21,39z"/>
		<path style="fill:#484848;" d="M43,28c-0.026,0.787-0.358,1.529-1,2c-0.64-0.134-1.289-0.219-1.942-0.252
			c-0.349-0.791-0.143-1.947-0.78-2.546C40.593,26.901,42.009,27.016,43,28z"/>
		<path style="fill:#8D8D8D;" d="M35.837,18.147C33.522,17.262,32.729,19.926,31,21l0.712-4.002
			c1.526,0.172,2.417-0.114,3.127-0.617C35.153,16.158,35.105,15.457,35,15C36.035,15.781,35.901,17.001,35.837,18.147z"/>
		<path style="fill:#434343;" d="M23.869,24c-0.963,1.853-3.583,0.77-6.361,1.023C16.561,24.392,17.875,23.752,18,23
			C19.756,24.207,21.862,23.93,23.869,24z"/>
		<path style="fill:#A7A7A7;" d="M78,4c0.569,1.63,0.678,3.338,1,5c-1.679,0.021-3.36-0.474-5.043-1.485
			C73.7,10.229,74.381,12.724,76,15l0.097,2H75c-0.319,2.656-1.239,2.541-2,0c-2.447-0.529-6.307-3.59-4-6
			c-0.149-2.767-0.149-5.433,0-8C72.498,3.713,76.424,5.682,78,4z"/>
		<path style="fill:#969696;" d="M113,23c-0.65,1.248-1.062,2.561-1,4c-1.25-1.545-1.293-3.765-3-5c-1.836-1.578-1.287-2.631,1-3
			C112.729,18.171,113.839,20.719,113,23z"/>
		<path style="fill:#858585;" d="M120.22,22.874L113,23c-1.592-3.012-0.016-4.598,3-3c0.024,0.49-0.147,1.019,0.138,1.979
			C117.829,21.979,119.175,22.053,120.22,22.874z"/>
		<path style="fill:#212121;" d="M91,83c0.641-1.421,2.921-1.171,4,0c-0.108,0.716-0.742,1.343-1,2c-3.193,1.728-5.571,4.691-9,6
			c-2.063-0.065-3.354-1.866-4.806-3.194C79.459,87.133,79.03,86.344,78,86c-0.429-1.434,0.566-2.151,1.546-2.038
			C80.874,84.115,82.034,83.652,83,84c0.771-0.79,2.047-1.631,3-1C87.127,82.043,89.604,82.226,91,83z"/>
		<path style="fill:#969696;" d="M26,7c-0.36,0.947-1.149,1.528-2,2c0.223-1.677-1.342-4.499-1-6L26,7z"/>
		<path style="fill:#2B2B2B;" d="M99.74,56.984c3.014,3.132,3.159,8.338,1.26,12.016c-3.598,1.491-9.491-4.402-8-8
			c-1.852,0.942-1.914-0.351-1-2c0.619-0.425,1.032-1.134,1.152-1.861C95.428,57.224,97.702,58.199,99.74,56.984z"/>
		<path style="fill:#272727;" d="M101,69c0.97,1.629,1.018,3.31,0,5c-3.543,0.592-10.951-7.982-11-10c0.66-2.75,1.66-3.75,3-3
			C95.192,64.037,97.965,66.808,101,69z"/>
		<path style="fill:#393939;" d="M101.407,54.822C102.27,54.8,102.298,53.491,103,53c1.007-0.119,2.124-0.127,3.009,0.473
			c0.761,0.515,2.702,6.349,1.298,6.114C104.409,59.101,103.173,56.303,101.407,54.822z"/>
		<path style="fill:#9E9E9E;" d="M24,9c-0.196,1.478-1.262,2.993-1.01,5.152c0.183,1.57,2.329,0.469,3.01,0.848
			c0.69,0.292,0.676,0.627,0,1h-4c-6.126-0.111-6.126-0.111,0,0v4c-0.948,0.182-2.07-0.248-3,0c0.056-0.749,1.146-0.664,2.017-1.663
			C17.691,17.559,14.352,18.208,11,18c1.147-1.495,1.18-3.517,0-5c0.319-2.656,1.239-2.541,2,0c3.465-0.325,4.465-1.325,3-3
			c-2.206-0.026-2.499-0.986-0.687-2.244c2.076,0.371,3.711,2.028,5.935,2.976C22.455,10.435,23.155,9.469,24,9z"/>
		<path style="fill:#282828;" d="M101,86c-2.746-2.201-6.182-4.471-7-8c1.164-0.391,2.292-0.966,3-2
			C99.424,72.104,101.135,85.27,101,86z"/>
		<path style="fill:#393939;" d="M108,40c1.027,1.882,2.18,3.796,2,6c-1.271,0.209-1.399,2.156-2.11,2.89
			c-1.378,1.421-2.856,2.935-4.89,3.076c-1.623-0.555-3.219-1.377-4-2.966c-1.242-2.001-3.595-3.449-3-6
			c1.436-2.187,3.045-4.347,5.36-5.633C103.467,38.483,105.546,40.001,108,40z"/>
		<path style="fill:#2D2D2D;" d="M50.846,68c0.352,1.645-0.49,3.093-1.846,4c-1.49-0.067-2.948,0.13-4.912-0.083
			c-0.294-1.942-0.041-3.406,0.006-4.894c0.627-0.498,1.275-0.958,1.995-1.315c0.582-0.289,1.182-0.538,1.811-0.703
			C49.342,65.427,49.634,67.124,50.846,68z"/>
		<path style="fill:#848484;" d="M64,69c-7.621,0.271-9.921-3.513-12-1h-1.154L51,65L64,69z"/>
		<path style="fill:#3C3C3C;" d="M48,4c0.699,0,0.974,0.327,1,1c0.055,1.411-0.262,2.782-1,4c0.891,0.186,0.855,0.525,0,1
			c-0.211,2.423-1.348,2.373-2,0c-0.786-0.947-1.851-1.582-3-2c-2.748-0.317-2.461-1.073,0.094-2c0.471-0.748,1.21-1.455,1.906-2H48
			z"/>
		<path style="fill:#1C1C1C;" d="M110.885,5c1.117,2.679-0.058,5.564-1.885,2c-3.187,0.233-5.672-2.53-2.884-4.116
			C108.01,2.683,109.49,3.844,110.885,5z"/>
		<path style="fill:#8C8C8C;" d="M112.202,6.339c-0.086,0.915-1.482,1.992-1.091,3.044C111.448,10.291,113.562,10.1,114,11
			c-0.002,2.927-3.341,2.803-4,0c-2.481-0.548-2.927-2.338-1-4c0.599,0.005,1.587,0.092,1.905-0.532
			c0.231-0.455-0.027-1.099-0.02-1.468C111.312,5.354,111.696,6.149,112.202,6.339z"/>
		<path style="fill:#151515;" d="M36,60c1.641-0.953,2.715,0.219,2,2c0.168,0.616,0.936,1.156,0.947,1.789
			c-0.064,1.934-1.327,2.962-3.787,3.083c-0.304-0.032-0.89-0.031-1.144,0.114c0.161-1.698-0.62-3.313-0.829-4.986
			C33.586,61.418,34,60.725,34,60H36z"/>
		<path style="fill:#191919;" d="M39,67c1.418-0.668,1.785-0.087,0.661,0.929c-1.212,1.465-1.499,4.223-4.681,2.892l0.179-3.95
			C37.254,65.716,38.535,65.759,39,67z"/>
		<path style="fill:#262626;" d="M43.625,64.297c-0.379,2.032-2.829,2.431-3.963,3.633C39.063,68.165,39.007,67.416,39,67
			c-1.882,0.4-1.9-0.67-0.053-3.211L43.625,64.297z"/>
		<path style="fill:#343434;" d="M42,74c-1.097-0.744-2.448-1.803-1.935-3.312C40.491,69.437,41.879,68.674,43,68
			C42.612,69.962,44.101,72.906,42,74z"/>
		<path style="fill:#646464;" d="M93,81c0.51,0.573,2.18,0.803,2,2h-4c-0.873-0.284-0.86-0.618,0-1
			C91.56,81.756,92.249,80.965,93,81z"/>
		<path style="fill:#363636;" d="M69,3c1.847,2,2.74,4.792,1.691,7.844C70.555,11.242,69.368,11.046,69,11
			c-2.731-0.859-3.731-1.859-3-3c-1.668-1.636-0.292-3.504,1-5c0.331-0.008,0.669-0.017,1,0C68.324,3.017,68.683,2.935,69,3z"/>
		<path style="fill:#1C1C1C;" d="M15.313,7.756C15.355,8.551,15.582,9.322,16,10c2.517,2.534,0.086,3.656-3,3h-2h-1
			c0.242-0.414,0.592-0.83,0.864-1.491c0.16-0.39-0.152-0.704-0.699-0.622c-0.163-1.374,0.451-2.815,1.439-2.822
			C13.123,8.052,14.228,7.562,15.313,7.756z"/>
		<path style="fill:#2C2C2C;" d="M16,31c0.881,1.294,1.639,4.198,0.731,5.615c-2.571,0.634-5.43,1.294-7.957,1.126
			c-0.527-3.015-1.696-5.513-1.513-8.034C10.745,27.536,13.152,30.212,16,31z"/>
		<path style="fill:#666666;" d="M86,82c0.873,0.284,0.86,0.618,0,1c-0.98,0.215-1.697,1.469-3,1v-1
			C83.888,82.615,84.783,81.838,86,82z"/>
		<path style="fill:#101010;" d="M114,11c0.633,1.302,1.665,2.202,3.202,2.297c0.309,1.211,0.416,2.459,0.509,3.703
			c-0.778,0.867-1.266,1.932-1.711,3c-1.384,0.603-2.322,1.699-3,3c-1.747-0.664-2.027-2.621-3-4c-4.518,1.006-4.829-8.18,0-8H114z"
			/>
		<path style="fill:#3E3E3E;" d="M41,5c0.563,0.567,1.319,0.853,2.094,1C42.951,6.54,42.995,7.412,43,8
			c0.01,1.223,0.017,2.471-0.898,3.567C41.397,12.414,40.243,12.972,39,13l-2-2c-1.059-1.2-0.473-2.847,0-4
			c0.886-0.412,1.639-1.079,2-2H41z"/>
		<path style="fill:#272727;" d="M8,43c0.881,0.385,0.881,0.771,0,1.157c-1.923,0.12-2.251-0.764-2.027-2.616
			c0.087-0.724,0.991-1.778,0.992-2.668C8.726,38.837,7.873,41.836,8,43z"/>
		<path style="fill:#1E1E1E;" d="M28,62c1.756,0.856,3.902,0.765,5.447,3.112c-1.209,0.863-2.948,2.19-4.017,1.66
			C27.602,65.866,27.917,63.194,26,63C26.414,62.678,27.382,61.699,28,62z"/>
		<path style="fill:#0F0F0F;" d="M103,3c2.247,0.373,4.447,4.16,2,5c2.43,1.387,1.688,2.541-1,2
			c-1.299,0.679-2.591,1.369-4.994,0.864C98.922,7.74,99.609,5.148,101,3H103z"/>
		<path style="fill:#8E8E8E;" d="M106.116,2.884c-0.23,0.855-0.267,2.089,0.534,2.827c0.52,0.48,1.749,0.541,2.35,1.289
			c-0.907,2.54-2.012,2.787-4,1c0.255-1.929-0.831-3.55-2-5C104.037,3,105.084,2.993,106.116,2.884z"/>
		<path style="fill:#A4A4A4;" d="M64,69c2.195-0.078,4.871-0.815,6.08,1.886C67.618,70.914,65.746,69.537,64,69z"/>
		<path style="fill:#939393;" d="M93,61c-1.373,0.558-1.906,2.112-3,3c-0.046-1.908,0.343-3.862,2-5
			C92.396,59.62,92.569,60.403,93,61z"/>
		<path style="fill:#3D3D3D;" d="M80,32c2.766,0.927,4.149,1.39,4.149,1.39c0.266,0.273-0.91,7.18-1.119,7.499
			C82.212,42.138,75.933,41.716,74,41c-0.457,0.816-1.824,0.231-4.1-1.753l-1.087-1.016c-2.997-1.953-1.754-2.942,1.464-3.074
			L73,33.972L78,32C78.053,30.291,78.72,30.291,80,32z"/>
		<path style="fill:#A3A3A3;" d="M70.113,27l1.232,0.515c-0.978,3.244-0.427,5.397,1.655,6.458c-2.053,2.637-4.989,1.38-4.186,4.259
			L65.717,37c0.468-2.335,0.415-4.871-1.304-6.651c-0.049-0.887,0.201-0.9,0.724-0.115L69,27C68.581,24.935,69.438,24.847,70.113,27
			z"/>
		<path style="fill:#AEAEAE;" d="M74,41c0.873,0.284,0.86,0.618,0,1c0.919,0.101,0.866,0.448,0,1c-0.375,2.374-0.362,5.098-1.978,7
			c-0.433-2.215,0.353-4.443,1.093-6.986L69.9,39.247C71.545,38.51,72.736,40.907,74,41z"/>
		<path style="fill:#A4A4A4;" d="M62,50c-1.742-0.687-2.922-2.175-2.927-4.073C60.723,46.664,61.958,48.156,62,50z"/>
		<path style="fill:#A9A9A9;" d="M91,82v1c-1.609,0-3.42-0.347-5,0v-1C87.619,82.216,89.389,81.898,91,82z"/>
		<path style="fill:#A4A4A4;" d="M91,28c-2.008,1.804-4.204,3.445-6.356,5.735C83.436,36.807,83.368,40.064,84,43
			c-0.334-0.036-0.66-0.157-0.995-0.176c-0.296-0.016-0.623-0.102-0.916-0.063C79.248,42.651,76.551,42.397,74,42v-1
			c2.093,0.154,4.527,0.188,7.266-0.061c2.009-0.183,1.487-3.486,1.671-5.28c0.152-1.48-2.04-2.119-2.937-3.658
			c0.868-1.529,1.599-1.764,3.022-1.181C84.072,29.238,85.398,28.298,87,28C88.312,27.905,89.732,28.318,91,28z"/>
		<path style="fill:#3D3D3D;" d="M82.089,42.761C79.408,43.123,76.7,43.008,74,43c0.051-0.326,0-0.67,0-1
			C76.694,42.427,79.754,40.948,82.089,42.761z"/>
		<path style="fill:#959595;" d="M36.024,54c-2.1-1.285-4.63-1.081-7.024-1c-0.708-2.457,1.292-3.457,6-3h1L36.024,54z"/>
		<path style="fill:#1C1C1C;" d="M17,41c0.324,0.285,0.848,0.563,1,1c0.484,1.393,0.71,2.625,1.44,3.988
			c0.893-2.595,2.738-2.656,2.606-0.357c-0.065,1.532,0.249,2.693-0.685,3.197C20.774,49.146,19.81,49.029,19,49
			c-2.126-0.261-4.126-0.594-6-1c-0.036-1.571-0.495-3.279-2-4C10.197,41.683,15.571,39.984,17,41z"/>
		<path style="fill:#CACACA;" d="M19,39c-0.299,0.999-1.385,1.28-2,2c-2.242,0.408-4.448,1.295-6,3l-3,0.157
			C7.991,43.775,8.041,43.38,8,43c1.491,0.118,2.638-0.939,3.241-2.241C12.538,39.312,15.022,38.585,17,39H19z"/>
		<path style="fill:#A1A1A1;" d="M19,49h-6c0.085-0.298,0.007-0.688,0-1c2.146,0.389,4.444,0.209,5.574-2.095
			C19.431,47.309,18.888,48.18,19,49z"/>
		<path style="fill:#898989;" d="M47,40.175c-0.45,1.256-1.702,1.764-3,1.825c0.855-1.139,0.54-2.733,0-4
			C45.078,38.369,46.025,39.778,47,40.175z"/>
		<path style="fill:#BBBBBB;" d="M64,15c1.004,0.065,1.809,0.67,2.416,1.814C69.373,15.757,71.567,15.819,73,17
			c1.506,1.154,0.8,3.631-1.136,4.059c-1.955,0.636-1.955,0.636,0,0c1.464-2.21,2.377-1.613,3.053,0.894
			c2.245,1.426,0.706,3.083-0.988,4.276c-0.768,2.119-2.216,2.331-3.816,0.772c-0.388-0.49-0.728-0.185-1.113,0
			c-1.178,1.447-2.466,2.525-3.864,3.234l-0.724,0.115C62.512,30.652,60.883,31.662,59,32c0.867-1.563,1.055-3.285,0.939-5.071
			c1.562-0.277,2.774-0.517,4.129-1.375l1.471-3.565c-2.341,0.438-3.854-0.24-4.539-2.034c1.176-1.527-0.126-3.241,0-4.955
			c0.387,0.325,0.783,0.709,1.01,1.45C62.668,18.6,63.146,14.023,64,15z"/>
		<path style="fill:#383838;" d="M48,12c-2.115-0.095-2.055-1.662,0-2c-0.079-0.32,0.037-0.672,0-1l3.778-1.02
			c0.785,2.756,0.761,4.971,2.13,7.732C51.42,16.372,49.069,14.368,48,12z"/>
		<path style="fill:#464646;" d="M51,18c-1.008,0.557-1.692,1.871-3,2c-0.823-0.068-1.951-0.334-1.985-1.373
			C45.988,17.774,46.862,17.052,47,16c0.856,0.165,2.292-0.264,3.313,0.135C51.03,16.414,51.234,17.111,51,18z"/>
		<path style="fill:#303030;" d="M47,16h-4c-0.468-0.366-1.75-0.949-1.802-1.532c-0.052-0.583,1.675-2.041,2.241-2.192
			C44.914,12.786,46.085,14.646,47,16z"/>
		<path style="fill:#3B3B3B;" d="M48,10c0.147,0.594-0.249,1.448,0,2c0.338,1.631-0.442,2.587-1.538,0.956
			c-0.908-0.692-1.493-1.591-1.475-2.364C44.996,10.228,45.45,9.874,46,10H48z"/>
		<path style="fill:#333333;" d="M69,11c0.994,2.322,4.062,3.171,4,6c-2.613,0.824-5.508,2.849-8.409,1.236
			C63.703,17.743,64.155,15.647,64,15c0.553-0.915,0.866-1.942,1-3C65.604,8.479,66.494,8.878,69,11z"/>
		<path style="fill:#B1B1B1;" d="M69,11c-0.679-0.086-1.545-0.707-2.452-0.566C65.913,10.533,65.484,11.485,65,12V8h1
			C66.988,8.987,68.431,9.67,69,11z"/>
		<path style="fill:#B6B6B6;" d="M61,19.955c1.659,1.925,1.971,3.708,0.937,5.347c-0.239,1.09-0.898,1.641-1.998,1.627
			c-0.962-0.829-1.748-2.475-2.98-2.929c0.329-0.791,0.054-2.242,0.703-2.887C58.389,20.388,59.989,19.873,61,19.955z"/>
		<path style="fill:#2E2E2E;" d="M38,62c-0.885-0.415-1.617-1.094-2-2c0.715-1.022,3.483-1.889,4.081-0.158
			C40.645,61.474,38.7,62.049,38,62z"/>
		<path style="fill:#202020;" d="M45.027,61.642c0.408,1.971-4.149,2.064-4.558,0.684C40.153,61.268,42.881,59.985,45.027,61.642z"
			/>
		<path style="fill:#111111;" d="M35.186,42c0.249,0.341,0.599,0.634,0.814,1c1.294,2.207-0.237,4.764-1,7
			c-0.161,3.753-3.026,0.55-6,3c-1.441,0.049-2.76-0.29-4-1v-3c-1.702-1.759-0.61-3.674,2-3C29.329,43.543,31.665,41.124,35.186,42z
			"/>
		<path style="fill:#121212;" d="M109,7c0.736,0.916,1.239,2.884,1,4c-1.887,2.348-1.771,5.491,0,8c0.032,1.098-0.045,2.309-1,3
			c-3.548-0.99-6.918-2.793-10.066-4.703c-0.875-0.531-1.185-2.125-2.995-2.622c1.955-3.701,6.315-1.415,7.912-3.269
			c0.272-0.316-0.055-0.999,0.148-1.406l1-2C106.179,7.209,107.599,6.989,109,7z"/>
		<path style="fill:#A1A1A1;" d="M82,21c0.333-0.012,0.669,0.03,1,0c-0.728,1.018-1.871,3.117-0.147,4.033
			C84.547,25.934,86.729,26.206,87,28c-0.726,2.046-2.407,2.085-5.043,0.117C81.279,29.39,80.627,30.685,80,32
			c-0.611-0.171-1.374,0.121-2,0c-2.678-1.002-3.247-3.078-1-5c0.485-1.641,1.152-3.307,2-5c0.021-0.291-0.048-0.591-0.01-0.879
			C79.673,20.215,81.24,20.114,82,21z"/>
		<path style="fill:#C6C6C6;" d="M97.01,53.093c-1.644-0.32-3.796-1.234-3.915-3.134C95.084,49.258,96.066,51.742,97.01,53.093z"/>
		<path style="fill:#2A2A2A;" d="M79,22c0.508,1.25,2.328,2.13,1.572,3.033C79.397,26.436,78.274,26.886,77,27
			c-1.436,2.849-3.184,2.412-3.071-0.772c-1.241-1.465,0.206-2.86,0.988-4.276C76.269,22.122,77.644,22.044,79,22z"/>
		<path style="fill:#454545;" d="M75,17l-0.083,4.953c-1.035-0.129-2.129-0.398-3.053-0.894C72.028,19.651,72.279,18.24,73,17H75z"
			/>
		<path style="fill:#2B2B2B;" d="M82,20v1c-0.911,0.655-2.068,0.758-3.01,0.121c0.1-0.777,0.641-1.506,1.617-1.786
			C81.057,19.206,81.53,19.714,82,20z"/>
		<path style="fill:#444444;" d="M79,9c0.499,2.573-1.681,3.926-3,6c-1.995-0.173-3.943-1.284-4.017-4.015
			c-0.056-2.067-0.079-3.751,0.117-6.05C75.125,5.363,77.643,6.669,79,9z"/>
		<path style="fill:#969696;" d="M26,16v-1c1.283,0.738,2.952,0.826,5.115,1.366C29.516,17.682,27.319,17.188,26,16z"/>
		<path style="fill:#151515;" d="M27,46c-0.816,0.861-1.242,2.088-2,3c-0.501,0.223-1.253,0.767-1.676,0.561
			c-0.603-0.293-0.258-1.822-0.301-2.453c-0.137-2.001-0.407-3.183,1.425-3.18C25.99,43.93,27.544,43.892,27,46z"/>
		<path style="fill:#3D3D3D;" d="M17,39c-1.775,1.028-3.662,2.026-5.759,1.759c-0.485-1.727,1.291-2.286,2.542-2.634
			C15.051,37.773,16.223,38.017,17,39z"/>
		<path style="fill:#181818;" d="M13,13c1.326-0.615,2.452-1.63,3-3c2.162,0.435,4.227,1.018,6.67,3.322
			C19.14,14.434,15.579,14.705,13,13z"/>
		<path style="fill:#3E3E3E;" d="M22,16c-2.841,1.026-6.175,2.179-9.762-0.061C15.772,14.248,19.428,14.437,22,16z"/>
		<path style="fill:#8D8D8D;" d="M39,67c-1.284,0.079-2.564,0.005-3.841-0.128c1.102-1.249,2.956-1.521,3.787-3.083L39,67z"/>
		<path style="fill:#A7A7A7;" d="M78,32c-1.128,1.607-3.091,2.176-5,1.972C71.059,30.841,76.693,28.462,78,32z"/>
		<path style="fill:#404040;" d="M73.929,26.228C74.949,26.816,75.782,27.109,77,27c0.413,1.655,1.127,3.268,1,5
			c-1.976-0.286-3.738,0.666-5,1.972c-1.64-0.053-3.789,1.482-5.407,0.179L70.113,27C71.098,26.097,72.659,25.496,73.929,26.228z"/>
		<path style="fill:#444444;" d="M69,27c-0.965,1.672-1.672,4.748-3.864,3.234C65.458,28.318,67.283,27.508,69,27z"/>
		<path style="fill:#383838;" d="M87,28c0.257,1.703-1.349,2.929-2.464,4.099C83.283,33.415,81.565,32.438,80,32
			c-0.576-0.988-1.272-2.148-0.837-3.287c0.45-1.178,1.803-3.014,3.421-2.434C84.3,26.896,85.499,28.108,87,28z"/>
		<path style="fill:#444444;" d="M64.068,25.554c-0.518,2.083-1.603,1.881-2.131-0.252c-0.559-1.05-1.395-1.739-2.975-2.713
			c0.934-0.782,1.382-1.781,2.038-2.634c1.819,0.146,3.674-0.176,6.4,0.201c1.286,0.178-0.163,2.929-0.551,4.272
			C66.58,25.361,65.386,25.867,64.068,25.554z"/>
		<path style="fill:#3A3A3A;" d="M61.937,25.302c0.53,0.238,1.545-0.094,2.131,0.252c0.494,1.225-0.231,2.399-1.079,3.044
			c-1.561,1.187-2.139-0.883-3.05-1.669c-0.035-0.546-0.104-1.659,0.575-1.873C60.922,24.927,61.633,25.166,61.937,25.302z"/>
		<path style="fill:#363636;" d="M71.864,21.059c-0.069,0.595-0.155,1.241-0.408,1.914c-0.237,0.629-1.13,1.533-1.625,0.169
			c-0.351-0.968-0.965-1.879-0.873-2.492c0.063-0.427,0.492-1.075,1.242-1.081C70.793,19.564,71.153,20.677,71.864,21.059z"/>
	</g>
</g>
</svg>
