<?xml version="1.0" encoding="iso-8859-1"?>
<!-- Generator: Adobe Illustrator 30.1.0, SVG Export Plug-In . SVG Version: 9.03 Build 0)  -->
<svg version="1.1" id="Layer_1" xmlns="http://www.w3.org/2000/svg" xmlns:xlink="http://www.w3.org/1999/xlink" x="0px" y="0px"
	 viewBox="0 0 99 99" style="enable-background:new 0 0 99 99;" xml:space="preserve">
<g>
	<g>
		<path style="fill:#FCFCFC;" d="M37,0l58.426,80.425C96.564,81.991,97.374,83.222,99,83v3c-1.081,3.822-1.561,7.959-1.439,12.411
			L96,99h-6L0,83v-5L33,0H37z M34.057,6.929c-2.747-0.169-4.076,5.535-4.082,5.518c0.353,1.079-0.231,0.687,2.19-0.447
			c-0.194,1.832-1.853,3.304-1.753,5.194l-1.202-0.016C27.401,14.731,27.965,19.429,27,20l0.068,1.273
			C25.887,22.297,24.208,23.868,26,25v1c-2.811-0.208-2.57,3.245-3.819,5.105c-0.849,1.263-1.226,2.615-1.121,4.155
			c-2.107,1.254-2.821,6.333-1.192,5.64c-1.562,1.556-3.706,2.764-3.895,5.1c-0.026,0.325-0.022,0.674,0,1l0.152,2.302
			c-0.643,0.328-2.271,0.978-2.332,1.858c-0.101,1.455,0.283,2.278-0.697,2.995c-1.86,1.362-7.909,15.425-5.22,13.861
			C6.425,70.68,4.926,73.06,3.94,75.919c-0.596,1.729-3.637,3.395-2.28,6.516C3.36,81.314,4.221,81.259,5,81
			c1.223,2.012,3.818,2.07,6,2c0.953,1.187,2.392,0.902,3.727,0.774c1.281-0.123,2.273-0.826,3.194-1.621
			C17.856,85.604,25.939,86.047,27,86c0.309-0.014,0.704-0.084,1,0c1.646,0.464,3.296,0.861,5,1c0.56,0.046,1.047,0.861,1.731,0.876
			c0.629,0.014,1.036-0.483,1.214-1.126l1.037-0.672c0.324-0.21,0.878,0.148,1.27,0.05c1.5,0.855,2.749,2.152,4.465,2.512
			c1.832,0.385,3.784,1.591,5.409,0.234l0.908,0.034C50.999,90.932,54.321,90.726,57,91c0.286,0.029,0.743-0.064,1,0l8,2
			c0.257,0.064,0.713-0.023,1,0c2.162,0.173,4.534,0.657,6.312-0.827c0.824,0.48,1.681,1.068,2.63,1.278
			c1.067,0.237,2.114-0.409,2.825-1.14c-0.225,0.509-0.903,1.803-0.42,2.237c2.655,0.22,18.871,5.303,14.878-0.632l0.092-1.024
			c0.618-0.845,0.452-1.935-0.213-2.714c1.616-0.602,1.971-2.215,2.027-3.644C95.21,84.525,95.143,82.474,93,82
			c-0.457-0.101-0.746-0.664-1-1c0.89-0.673,0.109-1.094-0.735-1.165c0.036-0.291-0.256-0.684-0.16-0.955
			c0.605-1.721-1.479-2.622-2.95-2.966C87.602,71.55,84.09,68.126,81.129,65c-0.356-0.572-0.785-1.41-1.22-2
			c-2.103-2.849-3.449-6.752-6.908-8c-0.701-0.851-0.631-2.034-1-3c-0.98-2.566-3.35-4.154-4.961-6.131
			c-1.41-1.732-1.714-4.393-4.024-5.52c-1.086-0.53-1.59-2.432-2.244-3.349c-1.181-1.657-1.747-3.624-3.748-5.306
			c-0.939,2.816,0.402,4.19-1.161,5.306c-0.006-1.323-0.018-2.749-0.765-3.84c0.444-1.306,1.453-3.056-0.142-4.045
			C54.637,28.918,54.162,28.339,54,28c-0.639-1.336-10.626-18.228-9.955-8H43c-0.239-0.413-0.561-0.765-0.9-1.097l-0.79-0.039
			c0.467-0.894,0.604-1.889,0.795-2.864l0.811-1.136c-0.028-2.863-2.142-5.337-4.814-6.249l-0.136-0.78
			c1.46-1.523-1.519-5.799-3.261-5.467C32.794,2.734,33.419,6.187,34.057,6.929z"/>
		<path style="fill:#EDEDED;" d="M33,22c0.515-2.57,3.827-0.792,4.058,0.963l0.884,1.042C36.678,26.589,36.697,28.921,38,31
			c0.873,0.284,0.86,0.618,0,1c-0.34,2.548-2.596,2.74-4.148,0.854l-3.769-0.021c1.096,1.792,1.372,3.657-1.092,4.045l-1.909,0.61
			c-2.403-1.473-0.526-2.323,1.909-0.61c1.366-2.992,2.986-4.333,4.86-4.024c2.547,0.66,4.851,1.677,6.911,3.051
			c2.553,2.049,0.954,4.114-1.703,2.152c-3.801-0.499-3.801-0.499,0,0c3.155,2.667,4.732,4,4.732,4
			c0.37-3.131-0.228-4.526-1.794-4.184l-1.235-1.967C37.573,35.342,36.652,34.04,38,32c0.834-1.932,2.393-1.761,4.674,0.512
			c-0.756-1.43-0.903-2.401,0.428-3.68C41.048,27.457,40.982,27.312,43,26c0.074-1.382-0.308-2.768-1-4
			c-1.196-0.484-0.187-1.984,1-2h1.045c2.123,0.394,3.264,2.547,3.422,6.46c2.81-0.751,4.987-0.238,6.533,1.54
			c0.162,0.339,0.637,0.918,0.955,1.115l-1.386,2.017c-4.492-1.109-6.361-0.046-5.606,3.187c1.068,2.265,1.122,4.16,0.162,5.686
			c0.864,0.308,0.841,0.637-0.031,0.987c0.046,2.032,0.914,3.973,2.604,5.825l-1.27,0.886c1.377,0.804,2.493,2.321,3.348,4.553
			c-0.451-1.413-0.374-2.418,1.228-3.256c2.451-0.224,2.395-1.506,1.996-3c-0.873-0.284-0.86-0.618,0-1l1.609-3.745
			c-0.124-3.297,0.93-4.715,3.163-4.255c0.654,0.917,1.158,2.819,2.244,3.349c0.061,3.543-0.93,5.769-2.974,6.677
			c1.257,2.514,0.866,5.188-1.173,8.022L59,57.14c-0.549,2.835,0.491,3.13,3.12,0.884c5.805-2.842,6.536-4.161,2.194-3.955L63,52
			c-2.459-0.278-3.305-1.701-1.856-3.829C61.297,45.821,64.1,44.398,66,46c1.565,0.951,2.101,1.716,0.906,3.049L72,52
			c0.369,0.966,0.299,2.149,1,3c1.566,2.218-0.833,3.879-3,4c0.052,1.526-1.073,2.424-3.376,2.695
			c-0.426,1.919-1.41,2.779-2.952,2.58c-0.373,0.82-0.658,0.735-0.864-0.186c-2.252-0.447-0.516-0.76-0.555-0.663
			c-0.597,1.483-4.41,4.643-6.138,2.858c1.155,1.539,0.56,1.977-1.063,0.84c-0.551,2.025-3.004,2.211-4.921,1.934
			c-0.285,0.912-0.713,0.986-1.283,0.22c-2.362,1.529-3.332,2.767-2.911,3.714c0.148,2.386,0.766,4.56,1.855,6.524l-0.687,2.293
			c2.317,1.032,3.367,5.552,1.021,7.066c-1.625,1.357-3.577,0.151-5.409-0.234c-2.08-0.761-1.998-2.251,0.245-4.469
			c-1.111-2.177-1.128-3.803-0.052-4.878c-1.066-2.106-1.066-2.106,0,0c1.169,2.154-2.371,6.767-4.657,6.835
			c-0.393,0.098-0.946-0.26-1.27-0.05c-2.8-1.345-2.705-3.811,0.095-5.077c0.032,0.048,2.385-5.951,2.221-6.714
			c-0.068-0.318-0.54-0.549-1.127-0.756c-1.438-1.954-4.428-2.788-8.969-2.503l-1.152-1.985c-1.898,1.582-3.082,1.561-3.283-1.039
			c-1.378-1.432-2.345-3.468-2.902-6.11C19.432,60.124,17.477,57.826,16,55c0.136,1.953-0.688,1.986-1.302,0.055
			c-1.353,2.584-2.846,1.775-1.601-0.9c0.98-0.717,0.596-1.54,0.697-2.995c0.061-0.88,1.689-1.53,2.332-1.858
			c0.233-1.731,1.069-1.739,1.943-0.219c0.591,2.641,0.591,2.641,0,0c-0.828-0.673-1.527-1.368-2.095-2.083
			c-0.022-0.326-0.026-0.675,0-1c2.352-1.665,3.273-2.816,4.971-5.139c-0.882-1.248-0.843-3.115,0.115-5.601
			c-0.105-1.54,0.272-2.891,1.121-4.155C23.671,30.069,24.944,28.367,26,26v-1l1.068-3.727L27,20
			c1.161-0.416,1.898-1.356,2.21-2.822l1.202,0.016C32.333,15.96,33.195,17.562,33,22z"/>
		<path style="fill:#6C6C6C;" d="M81.129,65c2.961,3.126,6.473,6.55,7.026,10.913c1.623,1.958,1.08,2.731-1.336,1.906
			c0.938,1.532-2.679,3.885-3.9,2.31C79.861,81.598,78.326,79.952,80,77c-1.036,0.728-1.679-0.049-1.928-2.332L77,73
			c-1.474,1.296-2.013,0.693-1-1c-0.88-0.917-0.547-2.584,1-5C76.275,64.184,78.994,64.054,81.129,65z"/>
		<path style="fill:#E8E8E8;" d="M91.105,78.879c-0.096,0.272,0.197,0.664,0.16,0.955C90.829,80.522,91.116,80.892,92,81
			c0.254,0.336,0.543,0.899,1,1c-0.037,2.756-2.353,3.993-6.95,3.709c0.261-1.201-0.09-1.104-1.05,0.291
			c-0.074,1.705-1.343,2.37-3.807,1.995l-1.321,2.031c1.991,0.489,2.016,1.416,0.118,2.136c0.428,1.882-0.353,1.947-1.222,0.148
			c-0.64-0.798-1.581-0.418-2.825,1.14c-0.949-0.211-1.806-0.798-2.63-1.278C71.778,90.66,71.34,88.64,72,86.114
			c-0.086-1.359-0.801-2.731-2.144-4.114c-2.562,1.162-3.461-0.827-2.137-3.068c0.063-0.899,0.362-0.92,0.879-0.129
			c2.085-2.596,6.352,1.607,6.711,4.281c3.056-0.267,5.592-1.252,7.609-2.955c1.529-0.277,2.774-1.276,3.9-2.31
			C88.071,77.083,90.407,77.48,91.105,78.879z"/>
		<path style="fill:#E0E0E0;" d="M24.139,68.562c2.101,1.714-0.603,3.353-2.756,4.147c-0.945,1.524-2.6,3.766-4.383,4.559
			c-0.207,1.765-1.061,4.793-2.273,6.507C13.392,83.902,11.953,84.187,11,83c0.596-1.387-1.404-2.054-6-2
			c-0.779,0.259-1.64,0.314-3.34,1.434c-1.357-3.121,1.684-4.787,2.28-6.516C5.423,73.74,6.223,73.155,7,76
			c0.259,3.412,6.369-0.403,7.197-3.207c-2.209-1.872-1.335-2.915,1.53-2.848c-0.114-1.937,0.652-1.912,1.139,0.039l2.099-0.036
			C19.778,68.467,20.79,67.484,22,67C23.279,65.422,24.358,66.643,24.139,68.562z"/>
		<path style="fill:#6E6E6E;" d="M54.955,29.115c1.595,0.989,0.586,2.738,0.142,4.045c0.001,3.473-3.333,8.723-6.971,6.845
			c-1.864-2.477-3.263-7.43-1.219-10.244C49.041,28.183,52.799,29.367,54.955,29.115z"/>
		<path style="fill:#CDCDCD;" d="M36.94,74.85c2.88-0.151,1.536,4.855,0.137,6.152c-1.633,1.241-3.037,0.531-4.129-1.054
			l-0.439-1.983C27.016,77.769,28.462,78.908,32,81c2.22,1.882,3.535,3.799,3.945,5.751c-0.177,0.643-0.584,1.14-1.214,1.126
			C34.047,87.861,33.56,87.046,33,87c-2.822-1.674-4.488-2.007-5-1c-0.296-0.084-0.691-0.014-1,0
			c-1.164-1.169-2.818-1.984-4.96-2.444L22,82c0.094-0.773,0.367-1.564,1.052-1.798c2.674-0.915-0.045-6.497-1.781-2.814L19,77
			c-0.165,0.597-0.317,1.024-1,1c-0.76,0.617-1.072,0.33-1-0.732c1.081-1.732,2.243-3.86,4.383-4.559
			C22.916,71.128,24.122,70.892,25,72c3.186,1.13,6.706,1.423,10.561,0.879L36.94,74.85z"/>
		<path style="fill:#646464;" d="M14.698,55.055C15,56.141,15.433,57.122,16,58c1.833-2.086,4.076,1.287,2,3
			c2.483,1.007,2.632,1.17,0,2c0.465,3.096-4.617,4.44-6.06,1.661C11.445,65.597,10.798,66.044,10,66
			c1.722,2.37,0.408,3.3-2.123,2.016c-2.689,1.564,3.361-12.499,5.22-13.861C13.07,54.906,14.145,54.933,14.698,55.055z"/>
		<path style="fill:#696969;" d="M13,67c2.15-1.987,4.334,0.555,2.727,2.945c-0.533,0.938-1.17,1.825-1.53,2.848
			C14.601,75.652,9.005,78.353,7,76l-3.06-0.081c0.986-2.859,2.486-5.239,3.937-7.903C8.368,67.113,9.78,66.713,10,66
			C10.841,65.403,11.841,65.736,13,67z"/>
		<path style="fill:#858585;" d="M54,28l-8.226,0.585L44.045,20C43.374,9.772,53.361,26.664,54,28z"/>
		<path style="fill:#DBDBDB;" d="M37.966,7.835l0.136,0.78c-1.259,4.23-0.056,5.69,3.612,4.379l1.202,1.871L42.105,16
			c-0.613,1.451-2.083,2.12-4.411,2.006C36.092,19.145,35.86,19.81,37,20c1.86,0.236,2.86,0.903,3,2c1.365-1.368,2.032-1.368,2,0
			c0.593,1.248,1.235,2.642,1,4c0.665,0.848,0.46,2.018,0.102,2.832c-1.119,2.301-2.385,1.995-3.948,0.344
			c-2.035-0.383-2.531-1.992-1.488-4.827l-0.609-1.386L33,22c-1.084-3.057-0.447-7.684,0.862-10.604
			c0.478-1.067,1.014,2.526-1.697,0.604c-1.741-1.036,0.494-3.839,1.892-5.071C34.597,3.591,37.759,5.033,37.966,7.835z"/>
		<path style="fill:#7E7E7E;" d="M85,86c2.098-1.879,7.989,1.677,8.105,4.178c0.664,0.779,0.83,1.869,0.213,2.714
			c-3.6,0.053-9.351-0.77-13.032-1.735c-0.222-0.058-0.333-0.535-0.414-1.131c-0.23-0.755-1.476-2.074-0.936-3.111
			C80.675,85.434,83.127,86.058,85,86z"/>
		<path style="fill:#636363;" d="M93.105,90.178C90.037,89.66,87.551,87.698,85,86c-0.155-0.488-0.643-1.063-0.614-1.493
			C87.467,82.986,90.72,83.897,93,82c2.143,0.474,2.21,2.525,2.132,4.534C95.076,87.964,94.721,89.577,93.105,90.178z"/>
		<path style="fill:#585858;" d="M55.862,37L55,42c0.259,8.586-6.835,4.941-6.906-1.008l0.031-0.987
			c2.657-1.869,4.846-4.397,6.971-6.845C55.844,34.251,55.856,35.677,55.862,37z"/>
		<path style="fill:#6F6F6F;" d="M51.248,80.262C53.93,79.281,55.236,80.915,53,83c1.953,0.986,2.619,1.986,2,3
			c1.362,4.076-2.826,4.059-5.966,2.908l-0.908-0.034c-0.45-2.391-1.848-4.66-1.021-7.066
			C44.731,78.667,50.331,76.624,51.248,80.262z"/>
		<path style="fill:#7E7E7E;" d="M93.226,93.916c3.992,5.935-12.223,0.852-14.878,0.632c-0.482-0.435,0.195-1.728,0.42-2.237
			l1.222-0.148c0.14-0.484,0.314-0.891,0.612-1.024C81.642,90.67,91.541,93.191,93.226,93.916z"/>
		<path style="fill:#636363;" d="M79.908,63c0.666,3.036-3.042,2.315-4.908,0l-5-4c-0.018-1.899,1.659-2.901,3-4
			C76.459,56.248,77.806,60.151,79.908,63z"/>
		<path style="fill:#5F5F5F;" d="M60.772,37c-2,1.956-0.205,8.43-4.772,8c-2.249,1.332-1.679-1.01-1-3l0.862-5
			c1.563-1.115,0.222-2.49,1.161-5.306C59.025,33.376,59.591,35.343,60.772,37z"/>
		<path style="fill:#454545;" d="M72,86.114c2.428,1.169,2.179,3.759,1.312,6.059c-1.779,1.484-4.15,1-6.312,0.827
			c-1.52-2.708-1.421-4.042,0.299-4c-2.009-1.469-1.59-2.303,0.701-3C68.16,83.877,69.493,83.915,72,86.114z"/>
		<path style="fill:#8C8C8C;" d="M42.717,88.64c-1.715-0.36-2.965-1.656-4.465-2.512c0.558-2.954,2.376-4.988,4.657-6.835
			c0.943,1.705,2.897,3.931,1.664,6.14C43.878,86.677,42.417,87.352,42.717,88.64z"/>
		<path style="fill:#767676;" d="M67.039,45.869C66.852,46.773,66.503,46.804,66,46c-1.476,1.066-2.943,2.449-4.856,2.171
			c-1.139,1.039-1.506,0.657-1.102-1.144c0.808-2.381-0.551-6.3,2.974-6.677C65.326,41.475,65.63,44.137,67.039,45.869z"/>
		<path style="fill:#9C9C9C;" d="M38.102,8.614c2.672,0.912,4.786,3.387,4.814,6.249c-1.601-0.357-3.939,0.911-6.108-0.111
			C34.917,13.863,35.491,8.715,38.102,8.614z"/>
		<path style="fill:#868686;" d="M33,22c-1.805-1.039-1.219-3.448-2.588-4.806c-0.1-1.891,1.559-3.362,1.753-5.194
			c0.95-0.445,1.549-1.327,2.431-2.019C35.598,14.607,34.137,18.183,33,22z"/>
		<path style="fill:#5C5C5C;" d="M37.077,81.002c0.038,1.69-0.13,3.383-0.095,5.077l-1.037,0.672
			c-1.526-1.434-3.437-2.032-6.025-3.053C30.732,82.694,31.298,81.78,32,81c-1.397-1.334-0.865-1.878,0.948-1.052
			C34.583,79.129,36.119,79.408,37.077,81.002z"/>
		<path style="fill:#CBCBCB;" d="M59,86l0.932,1.268c3.892-0.929,6.348-0.352,7.367,1.732L67,93c-0.287-0.023-0.743,0.064-1,0
			c-1.259-2.051-3.991-2.557-8-2c-0.257-0.064-0.714,0.029-1,0c-1.635-0.446-2.302-2.112-2-5c-0.377-1.102-1.739-1.87-2-3
			c0.971-1.337,2.638-1.67,5-1C60.666,82.133,60.56,84.352,59,86z"/>
		<path style="fill:#868686;" d="M72,52c-2.672,0.029-5.259-0.575-8.362-1.84c1.173-1.912,2.36-2.674,2.362-4.16l1.039-0.131
			C68.65,47.846,71.02,49.434,72,52z"/>
		<path style="fill:#959595;" d="M42.105,16c-0.191,0.975-0.328,1.97-0.795,2.864C40.581,20.959,38.624,21.537,37,20
			c-0.598,0.236-1.141,0.777-1.47,0.446c-0.736-0.741-0.568-2.049,0.029-3.042C36.991,15.021,39.918,16.177,42.105,16z"/>
		<path style="fill:#606060;" d="M57,91c-2.679-0.274-6.001-0.068-7.966-2.092C51.308,88.994,53.588,87.824,55,86
			C57.775,85.879,57.06,88.965,57,91z"/>
		<path style="fill:#6D6D6D;" d="M22,82c1.027,0.683,2.171,1.007,4.021,1.129C27.497,83.226,27.089,85.185,27,86
			c-1.061,0.047-9.144-0.396-9.079-3.846C17.392,80.175,18.751,80.123,22,82z"/>
		<path style="fill:#7B7B7B;" d="M11,83c-2.182,0.07-4.777,0.012-6-2c2.374-0.789,5.796-2.236,7.961-0.24
			c0.521,0.481,0.037,2.321-0.347,2.255C12.21,82.946,11.416,83.041,11,83z"/>
		<path style="fill:#7F7F7F;" d="M37.966,7.835c-1.118-0.95-2.549-0.822-3.909-0.906c-0.638-0.742-1.263-4.195,0.648-4.561
			C36.447,2.035,39.426,6.311,37.966,7.835z"/>
		<path style="fill:#666666;" d="M18,78c1.364,2.443,1.338,3.827-0.079,4.154c-0.921,0.794-1.913,1.498-3.194,1.621
			c-0.272-1.307-0.589-2.613-0.543-4.155c0.043-1.429,1.973-1.556,2.815-2.351C17.302,77.553,17.638,77.797,18,78z"/>
		<path style="fill:#CCCCCC;" d="M93.318,92.892l-0.092,1.024c-4.521,0.025-8.674-2.307-13.236-1.753
			c-0.156-0.667,0.081-1.482-0.118-2.136L93.318,92.892z"/>
		<path style="fill:#959595;" d="M15.974,46c0.189-2.336,2.334-3.543,3.895-5.1c0.276-0.885,0.636-0.884,1.076-0.039
			c-0.428,1.24,0.466,3.128-0.283,4.393C19.893,46.551,17.319,45.817,15.974,46z"/>
		<path style="fill:#505050;" d="M66,93l-8-2c-1.219-1.215,7.321-1.598,7.935-0.433C66.283,91.228,65.949,92.279,66,93z"/>
		<path style="fill:#9D9D9D;" d="M26,26c0,2.849-1.408,5.378-2.508,8.067c-0.839-1.416-0.634-2.309-1.311-2.962
			C23.43,29.245,23.189,25.792,26,26z"/>
		<path style="fill:#676767;" d="M91.265,79.835C92.109,79.906,92.89,80.327,92,81c-2.351,0.524-4.559,2.337-7.483,1.591
			C85.941,78.958,89.018,80.172,91.265,79.835z"/>
		<path style="fill:#696969;" d="M20.945,40.861L19.869,40.9c-1.63,0.693-0.916-4.387,1.192-5.64
			C22.466,36.876,21.579,39.026,20.945,40.861z"/>
		<path style="fill:#9A9A9A;" d="M26,25c-1.792-1.132-0.113-2.703,1.068-3.727c0.583,0.678,2.17,1.547,1.83,2.251
			C28.389,24.579,26.803,25.224,26,25z"/>
		<path style="fill:#D0D0D0;" d="M79.908,63c0.435,0.59,0.864,1.428,1.22,2c-1.538,0.164-2.968,0.972-4.129,2
			c-2.567,0.214-3.517-1.943-2-4C76.61,63.143,79.1,65.136,79.908,63z"/>
		<path style="fill:#8D8D8D;" d="M91.105,78.879c-1.528,0.239-3.481,0.556-4.286-1.06c0.569-0.522,0.889-1.29,1.336-1.906
			C89.626,76.258,91.71,77.158,91.105,78.879z"/>
		<path style="fill:#979797;" d="M29.21,17.178c0.683,0.713,1.338,3.221,0.268,3.788C28.588,21.439,27.691,20.243,27,20
			C27.965,19.429,27.401,14.731,29.21,17.178z"/>
		<path style="fill:#808080;" d="M34.057,6.929c-0.326,1.863-1.69,3.163-1.892,5.071c-2.421,1.134-1.837,1.526-2.19,0.447
			C29.981,12.464,31.31,6.76,34.057,6.929z"/>
		<path style="fill:#8B8B8B;" d="M78.768,92.311c-0.712,0.731-1.759,1.377-2.825,1.14c0.389-0.968,0.011-2.484,1.045-3.561
			c0.657-0.684,1.376-0.126,1.671,0.241C79.033,90.599,78.959,91.878,78.768,92.311z"/>
		<path style="fill:#EDEDED;" d="M42.1,18.903C42.635,20.295,41.447,21.73,40,22c-1.355,0-2.519-0.735-3-2
			c1.521,0.049,2.999-0.371,4.31-1.136L42.1,18.903z"/>
		<path style="fill:#737373;" d="M33,87c-1.704-0.139-3.354-0.536-5-1c-0.044-0.735-0.252-1.699,0.536-1.923
			C30.356,85.48,32.114,85.54,33,87z"/>
		<path style="fill:#7D7D7D;" d="M43,20l-1,2h-2l2.1-3.097C42.439,19.235,42.761,19.587,43,20z"/>
		<path style="fill:#7A7A7A;" d="M18.069,49.083c-0.731,0.17-1.522,0.004-1.943,0.219L15.974,47
			c0.583-0.009,1.252-0.168,2.182,0.096C18.805,47.28,18.592,48.398,18.069,49.083z"/>
		<path style="fill:#CECECE;" d="M63.672,64.276c1.915,1.331,2.557,6.087,0.635,7.564c-1.104,1.565,0.16,2.765,0.756,1.076
			c1.917-1.331,5.641-2.365,7.005,0.026c1.243,1.651,0.488,2.861-2.262,3.63l-1.208,2.231l-0.879,0.129l-1.418,0.81
			c-1.48-1.4-2.92-1.964-4.321-1.691C61.544,80.113,60.594,83.066,58,82c-2.328-0.597-3.995-1.597-5-3
			c-0.125-2.176,1.415-3.477,4.619-3.903c-0.047-1.063-0.917-2.057-2.611-2.982c-2.484,0.815-3.14,1.686-1.966,2.612
			C54.491,75.588,54.477,77.012,53,79c1.796,2.392,0.374,3.405-1.752,1.262l-1.418-0.105c-0.664-2.738-1.962-5.126-3.893-7.165
			c-0.171-1.234,0.8-2.472,2.911-3.714c0.403-0.151,0.87-0.098,1.283-0.22c2.35,0.11,3.99-0.535,4.921-1.934l1.063-0.84
			c2.438,0.224,4.184-0.533,5.238-2.27l1.455,0.076L63.672,64.276z"/>
		<path style="fill:#5B5B5B;" d="M38.171,73.533c1.399,1.918,0.859,2.193-1.231,1.318l-8.986,0.188
			c-1.14,0.024-2.003-0.297-2.506-0.996C25.077,73.529,25.003,72.718,25,72c-1.026-2.172,0.945-3.542,3.05-2.955
			c2.265-0.111,11.37,0.265,11.005,3.253C38.996,72.781,38.616,72.919,38.171,73.533z"/>
		<path style="fill:#C8C8C8;" d="M30.27,42.123c0.91,0.037,1.659,0.557,2.47,0.864c0.382,1.191,1.139,1.165,2.27-0.076
			c0.585,0.103,1.141,0.464,1.215,1.102c1.981,0.832,3.573,1.889,1.739,3.707c-1.817,3.291-3.603,1.983-1.411,0.869
			c0.337-0.171,0.878,0.06,1.478,0.405C41.02,49.088,40.761,53.479,38,54c-1.706,2.268-5.335,0.492-5.049-2.175
			c-1.836-2.383-1.836-2.383,0,0c2.022,3.284-3.092,4.748-4.977,2.246c-0.263-0.419-0.749-0.698-1.068-1.071
			c-1.906-2.639-4.046-5.829-4.906-9c0.136-1.418-0.412-2.389,1.171-2.879l1.849,0.744C26.849,44.885,28.599,44.971,30.27,42.123z"
			/>
		<path style="fill:#6F6F6F;" d="M38,54c2.141-2.489,3.935-0.129,1.168,1.769C40.84,57.677,38.04,58.454,36,59
			c-2.541,1.889-3.874,1.889-4,0c-2.284,3.624-5.017-0.258-3.908-3.782c-0.121-0.334,0.067-0.852-0.118-1.147
			c1.47-1.107,4.044-0.343,4.977-2.246C34.768,52.199,36.351,53.197,38,54z"/>
		<path style="fill:#535353;" d="M26.906,53c-1.301,0.707-3.01,0.802-3.923,2.061c-0.539,0.097-1.66-0.192-2.186-0.653
			C20.747,51.009,21.679,47.337,22,44C25.39,45.938,27.965,49,26.906,53z"/>
		<path style="fill:#747474;" d="M32,59c1.76-0.039,1.857,1.594,0.29,4.898c0.783,1.27,0.365,2.253-1.255,2.949
			c-0.992-0.629-2.876,0.238-3.505-0.901c-1.26-2.285-0.909-9.559,0.562-10.727C28.498,57.071,30.037,58.812,32,59z"/>
		<path style="fill:#4C4C4C;" d="M49.092,66.354c-0.415,1.778-1.445,1.659-3.013,1.638c-2.18,1.528-3.719,0.681-2.257-1.735
			C42.262,65.821,41.535,65.163,43,64l-2.921-5.11l-1.208-0.655c1.439-3.528,5.692-2.239,7.671-0.152
			c0.278,0.293,2.431,6.538,2.757,7.595C49.356,65.864,49.248,66.102,49.092,66.354z"/>
		<path style="fill:#545454;" d="M51.248,80.262c-1.488-0.08-3.451,0.077-4.143,1.547c-2.286-2.456-4.321-6.616-1.168-8.816
			c2.107-0.278,3.66,0.547,4.379,2.272C51.01,76.929,50.704,78.696,51.248,80.262z"/>
		<path style="fill:#8A8A8A;" d="M39.061,38.057c0.367-0.645,2.083-0.851,1.703-2.152c1.167,0.067,3.536-0.503,4.241,1.165
			c0.958,2.265,0.776,4.45,1.345,6.84c-2.551,0.639-3.974-0.14-5.623-1.084C39.502,42.125,38.726,39.641,39.061,38.057z"/>
		<path style="fill:#666666;" d="M41.882,47.283c1.47-0.538,1.549-0.511,1.01,0.963C46.131,49.1,46.3,50.549,44.205,53
			c-0.83,3.452-1.679,4.272-5.037,2.769C39.397,54.876,38.715,54.348,38,54l0.031-5.005c-1.934,0.02-1.963-0.737-0.067-1.274
			c0.543-2.108,0.788-2.147,2.083-0.358L41.882,47.283z"/>
		<path style="fill:#696969;" d="M43.822,66.257c0.452,0.77,1.194,1.705,2.257,1.735c-1.798,4.189-12.621,0.39-15.043-1.146
			c0.664-1.964,1.582-3.499,2.491-1.273l9.027-0.343L43.822,66.257z"/>
		<path style="fill:#CCCCCC;" d="M49.134,57.018c0.37,0.265,0.677,0.547,0.769,0.888c0.587,2.175,1.737,7.073,0.141,8.344
			l-0.953,0.105c-1.795-3.244-2.786-6.826-6.541-9.125c-1.213-0.742-2.328,0.587-2.472,1.661c-0.113,2.968-3.3,2.867-4.079,0.11
			c1.118-0.93,2.489-1.984,3.168-3.231c2.061-0.184,3.326-1.823,5.037-2.769C46.53,54.043,48.173,55.382,49.134,57.018z"/>
		<path style="fill:#515151;" d="M50.045,66.249c-1.057-3.05-3.255-6.499-0.911-9.232c2.327,0.524,5.497,8.125,3.554,9.14
			C51.881,66.578,50.899,66.916,50.045,66.249z"/>
		<path style="fill:#8C8C8C;" d="M61.144,48.171C62.135,49.16,63.099,50.557,63,52c2.279,1.53,1.719,2.526-1,2
			c-0.178,2.258-1.178,3.304-3,3.14c-0.528-0.093-1.741-0.341-2.163-0.97c-0.267-0.397,3.49-9.982,3.205-9.143
			C60.386,47.43,60.77,47.796,61.144,48.171z"/>
		<path style="fill:#8D8D8D;" d="M39.155,29.176C41.588,30.599,40.585,31.785,38,31c-0.467-0.106-2.037,0.357-2.462-0.382
			c-1.638-2.85-0.072-5.567,1.52-7.655c1.315,0.312,2.86-0.864,4.469,0.907C39.542,25.645,38.59,27.312,39.155,29.176z"/>
		<path style="fill:#8C8C8C;" d="M43.102,28.832c0.865,1.594,2.197,3.475,1.836,6.246C41.399,35.259,40.367,32.526,38,32v-1
			l1.155-1.824C40.209,28.044,41.759,28.465,43.102,28.832z"/>
		<path style="fill:#575757;" d="M30.27,42.123c0.336,1.014,0.169,2.274-0.189,3.252c-0.28,0.766-1.636,2.29-2.63,1.416
			c-2.059-1.811-4.431-3.324-4.281-5.671C25.615,40.363,27.814,42.023,30.27,42.123z"/>
		<path style="fill:#8B8B8B;" d="M62.12,58.024c0.121,4.068-3.282,3.619-6.537,6.575c-0.872-2.981,1.414-5.363,3.416-7.459
			C61.153,55.312,62.193,55.607,62.12,58.024z"/>
		<path style="fill:#797979;" d="M33.852,32.854c-1.177,0.693-1.172,3.642-2.826,4.406c-0.513,0.237-1.406-0.358-2.035-0.383
			c0.992-1.481-1.443-2.907-0.798-4.954c0.443-1.409,2.247-1.095,3.309-1.147C32.696,30.72,34.015,31.185,33.852,32.854z"/>
		<path style="fill:#636363;" d="M54.004,49c0.139,0.985,0.64,2.077,0.954,2.754c0.541,1.164-0.274,2.593-2.137,2.494
			c-2.839-0.15-3.535-4.195-3.393-6.544c0.046-2.881,0.697-2.65,2.706-0.922C54.67,45.019,54.57,46.153,54.004,49z"/>
		<path style="fill:#CBCBCB;" d="M55,42c-0.077,1.104-0.075,2.384,1,3v1c1.505,1.738-0.031,3.042-1.996,3
			c-0.829-1.324-3.118-2.925-4.576-1.297c0.163-2.684-2.849-2.665-2.466-5.063c0.088-0.552,0.579-1.179,1.132-1.648l3.905,5.471
			C54.496,45.566,53.655,43.084,55,42z"/>
		<path style="fill:#5D5D5D;" d="M49.134,57.018c-1.77-0.398-3.598-0.452-5.563-1.446c0.232-0.919,0.364-1.812,0.633-2.572
			c0.554-1.822,1.269-2.503,2.147-2.042c1.428,0.021,2.364,1.109,2.919,2.29C49.852,54.486,50.066,55.931,49.134,57.018z"/>
		<path style="fill:#666666;" d="M37.077,81.002L36.94,74.85c0.021-0.504,0.836-1.079,1.231-1.318
			c1.234-0.744,1.735-2.274,3.904-2.528L39.009,80C38.709,80.88,37.447,81.359,37.077,81.002z"/>
		<path style="fill:#838383;" d="M62.808,64.089l-1.95,3.873c-1.332,0.864-4.276-0.172-4.743-1.679
			c2.003-1.583,4.037-3.18,6.561-4.352C63.104,63.073,62.863,63.591,62.808,64.089z"/>
		<path style="fill:#616161;" d="M22.982,55.061c0.797-0.143,2.766-0.66,2.916,0.973c0.25,2.715,0.361,4.997-0.237,8.059
			C23.659,60.673,20.975,57.83,22.982,55.061z"/>
		<path style="fill:#545454;" d="M21.864,61.896C21.522,64.484,18.589,62.627,18,61c-0.423-0.988-0.932-2.521-2-3
			c-1.465-0.627-1.353-2.298,0-3C19.357,55.351,20.819,58.966,21.864,61.896z"/>
		<path style="fill:#8E8E8E;" d="M31.686,23.386c4.415-1.357-2.974,7.062-5.591,7.567C26.998,27.696,28.746,24.29,31.686,23.386z"/>
		<path style="fill:#898989;" d="M38,32c0.92,1.363,2.299,2.314,2.764,3.906c-1.73-0.099-3.61,0.448-5.853-0.163
			c-1.215-0.331-1.133-2.124-1.058-2.888C34.966,32.199,36.693,31.709,38,32z"/>
		<path style="fill:#646464;" d="M28.05,69.045C27.498,70.428,25.979,70.954,25,72c-0.984,1.051-2.507,0.346-3.617,0.709
			c0.874-1.413,2.109-2.588,2.756-4.147c-0.603-1.115-0.395-1.302,0.627-0.556C25.932,67.753,27.141,68.719,28.05,69.045z"/>
		<path style="fill:#8D8D8D;" d="M28.992,36.878c-1.168,0.452-3.308,2.461-4.748,1.128c-0.576-0.534-1.24-2.823-0.644-2.921
			c0.812-0.134,2.195-1.493,2.957-1.332C28.051,34.07,27.691,38.093,28.992,36.878z"/>
		<path style="fill:#6E6E6E;" d="M54.004,49c-0.184-1.306,1.099-2.295,1.996-3c0.452,0.007,0.997,0.016,1.289,0.217
			c1.508,1.034-0.255,4.68-0.746,6.84L54.004,49z"/>
		<path style="fill:#6B6B6B;" d="M55.887,55.544c0.362,0.926-0.67,3.275-1.468,4.241c-1.012,1.225-1.993-1.632-2.437-2.562
			C51.28,55.752,54.27,53.839,55.887,55.544z"/>
		<path style="fill:#5F5F5F;" d="M47,49c-0.658,1.868-2.027,1.617-4.108-0.753c-0.473-0.032-1.504-0.216-1.01-0.963
			c0.031-2.366,1.293-2.24,2.914-1.602C46.464,46.338,47.359,47.291,47,49z"/>
		<path style="fill:#5B5B5B;" d="M55.052,67.123l1.051,2.128c-1.397,1.374-4.825,1.272-5.972-0.194
			C51.427,67.739,53.22,67.138,55.052,67.123z"/>
		<path style="fill:#4C4C4C;" d="M45.937,72.992c-0.685,0.09-2.366,0.291-2.827-0.998c1.446-1.923,3.937-2.04,5.738-2.716
			C49.03,71.029,47.265,72.065,45.937,72.992z"/>
		<path style="fill:#6F6F6F;" d="M40.047,47.362c-0.596,0.28-1.367,0.724-2.083,0.358c-0.564-1.267-1.577-2.31-1.739-3.707
			c1.53-0.013,2.956,0.186,4.781,1.266C40.691,46.084,40.221,46.684,40.047,47.362z"/>
		<path style="fill:#909090;" d="M39.061,38.057c-2.968,0.985-5.268,1.549-7.167,0.385C34.042,36.317,37.752,36.13,39.061,38.057z"
			/>
		<path style="fill:#474747;" d="M24.766,68.005c-0.522-0.074-0.592,0.048-0.627,0.556C23.64,67.817,22.568,67.625,22,67
			c-1.437-2.554-1.482-4.256-0.136-5.104C23.803,63.315,24.805,65.62,24.766,68.005z"/>
		<path style="fill:#838383;" d="M18.069,49.083c0.597,0.124,1.267,0.424,1.482,0.872c0.444,0.928,0.012,1.832-0.577,3.462
			c-0.403,1.114-1.752-0.392-1.943-0.99C16.673,51.306,18.004,50.306,18.069,49.083z"/>
		<path style="fill:#C8C8C8;" d="M47,49c-0.139,0.664-0.272,1.378-0.648,1.958c-0.541,0.834-1.277,1.561-2.147,2.042
			c0.653-1.844,0.309-3.577-1.312-4.753C44.288,48.34,45.661,48.588,47,49z"/>
		<path style="fill:#747474;" d="M31.008,29.551c0.8-0.913,1.602-1.711,2.608-2.592c0.682,1.052,0.447,1.775,0.351,2.518
			C33.851,30.373,32.743,30.432,31.008,29.551z"/>
		<path style="fill:#8E8E8E;" d="M42.909,79.293c-0.647-0.192-1.311-0.554-1.72-1.084c-0.589-0.763,0.746-1.083,1.182-2.97
			C43.744,76.451,42.684,78.025,42.909,79.293z"/>
		<path style="fill:#646464;" d="M35.01,42.911c0.053,0.634,0.075,1.623-0.495,2.045c-0.422,0.312-1.909,0.119-2.416-0.343
			c-0.393-0.358-0.408-1.712,0.641-1.625C33.393,43.234,34.314,42.788,35.01,42.911z"/>
		<path style="fill:#A8A8A8;" d="M43,26c-0.736-1.212-1.189-2.572-1-4c1.299-0.174,0.694,1.212,1.45,2.065
			C44.03,24.719,43.483,25.407,43,26z"/>
		<path style="fill:#BFBFBF;" d="M16,58c-0.664-0.296-2.226-0.057-2.02-1.275c0.093-0.553,0.326-1.151,0.719-1.669
			c0.417,0.092,0.877-0.1,1.302-0.055V58z"/>
		<path style="fill:#676767;" d="M76,72c0.454,0.131,0.618,0.836,1,1c1.916,2.111,2.353,4.055,0,6
			c2.971,1.383,1.599,5.246-1.69,4.084c-2.861-0.44-4.22-3.166-6.711-4.281c-0.857-1.018-1.352-2.93,0.281-3.916
			c1.277-0.77,2.472-1.056,3.188-1.945C71.724,71.977,72.034,71.663,73,72C75.077,70.467,76.077,70.467,76,72z"/>
		<path style="fill:#6E6E6E;" d="M82.919,80.129c0.154,0.79,0.56,1.692,0.448,2.303c-0.225,1.229-8.683,3.661-8.057,0.653
			C76.702,82.413,76.495,80.35,77,79c1.093-2.654,2.093-3.321,3-2C80.583,78.337,81.651,79.442,82.919,80.129z"/>
		<path style="fill:#DADADA;" d="M80,77l-3,2c0.831-1.948,0.831-4.052,0-6C78.677,73.72,79.31,75.419,80,77z"/>
		<path style="fill:#DFDFDF;" d="M76,72h-3c-1.006-2.732,0.916-6.026,4-5C77.035,68.717,76.39,70.351,76,72z"/>
		<path style="fill:#4A4A4A;" d="M67.719,78.932c0.707,0.62,1.796,2.165,2.137,3.068c0.577,3.444-1.005,3.728-3.856,2
			c-1.484-1.502-2.823-3.485-4.02-5.949c-0.152-0.726,0.434-2.518,1.599-1.778C65.21,77.309,66.31,78.41,67.719,78.932z"/>
		<path style="fill:#646464;" d="M72,86.114c-3.326-0.78-4.239-1.129-2.144-4.114c1.888,0.484,2.732,2.344,4.242,3.634
			C73.028,86.209,72.473,86.128,72,86.114z"/>
		<path style="fill:#484848;" d="M14.197,72.793c0.497,0.803,0.82,1.81,0.608,2.523C13.6,79.375,7.477,79.15,2.881,78.795
			C3.958,76.952,5.548,76.647,7,76L14.197,72.793z"/>
		<path style="fill:#5E5E5E;" d="M18,63c0.269-1.704,3.195-0.648,2,1c1.109,3.045,0.457,5.986-3.134,5.984l-1.139-0.039L13,67
			c-1.387-0.184-2.462-1.451-1.06-2.339C13.829,64.392,16.148,63.641,18,63z"/>
		<path style="fill:#585858;" d="M22,67c0.296,2.254-0.912,5.137-3.89,5.081c-0.955-0.018-1.152-1.712-1.244-2.097
			C17.928,67.998,19.077,66.056,20,64C21.124,63.969,21.791,64.969,22,67z"/>
		<path style="fill:#686868;" d="M22,82c-3.614-0.181-4.383-1.75-3-5c1.134-1.185,2.017-3.279,3.536-3.057
			c2.032,0.297,3.388,1.93,3.462,4.088c0.04,1.183,0.45,3.395-0.476,3.82C24.759,82.201,22.777,82.356,22,82z"/>
		<path style="fill:#424242;" d="M32.948,79.948L32,81c-1.182,0.095-2.221,0.525-3.537,2c-1.187-1.945-1.846-4.185-1.374-6.961
			c3.171-0.042,5.675-0.215,9.037,0.131C34.991,77.779,33.985,78.795,32.948,79.948z"/>
		<path style="fill:#D7D7D7;" d="M22,82c-1.144-0.156-2.921,0.11-4.079,0.154L18,78c0.232-0.422,0.681-0.666,1-1
			c-0.07,0.68-0.283,2.358,0.198,3.115C19.671,80.858,20.913,81.502,22,82z"/>
		<path style="fill:#CCCCCC;" d="M21.864,61.896C22.252,63.567,21.78,65.327,22,67c-0.8-0.881-1.301-2.041-2-3
			c-0.465-0.638-1.021-1.339-2-1c-0.169-0.611,0.248-1.421,0-2C19.186,61.641,20.518,61.94,21.864,61.896z"/>
		<path style="fill:#C3C3C3;" d="M11.94,64.661L13,67c-1.073,0.93-2.061-0.409-3-1l0.541-1.756
			C10.662,63.852,11.526,64.55,11.94,64.661z"/>
		<path style="fill:#7D7D7D;" d="M70,59l5,4c0.873,1.207,1.968,2.437,2,4c-1.626,1.441-2.161,3.741-4,5
			c-0.336,0.23-0.675,0.623-0.932,0.942c-2.405,0.523-4.93,1.719-7.005-0.026c-1.215,0.507-1.563-0.011-0.756-1.076
			c-1.145-2.427-1.678-5.052-0.635-7.564c0.57-1.374,0.465-3.231,1.774-4.164C66.755,59.18,68.475,59.173,70,59z"/>
		<path style="fill:#878787;" d="M62.12,58.024C60.54,57.432,60.5,56.09,62,54c0.372-0.389,0.796-1.506,1-2
			c2.748,0.031,5.389,0.699,8.472,1.53C68.823,57.096,64.958,59.647,62.12,58.024z"/>
		<path style="fill:#DCDCDC;" d="M55,42c0.108-1.552-0.654-3.918,0.862-5C55.87,38.816,56.616,40.698,55,42z"/>
		<path style="fill:#3F3F3F;" d="M58,82c-0.55,0.755-0.877,1.473-1.356,3.084c-1.096-1.174-2.2-2.02-3.644-2.084
			c-0.258-1.115-1.305-1.853-1.752-2.738C52.296,80.318,52.489,79.703,53,79c1.432,0.053,3.1-0.434,4.759,0.304
			C58.332,79.925,58.019,81.397,58,82z"/>
		<path style="fill:#D4D4D4;" d="M75,63c-2.247-0.199-4.058-2.019-5-4C72.427,58.743,73.73,61.244,75,63z"/>
		<path style="fill:#3D3D3D;" d="M66,84c2.772-0.29,3.438,0.376,2,2c0.16,1.063,0.061,2.189-0.701,3l-9.248-0.024
			C57.905,87.533,58.557,86.782,59,86c-1.699-3.152,2.876-2.589,5-2C63.808,82.225,64.475,82.225,66,84z"/>
		<path style="fill:#CBCBCB;" d="M72,86.114L68,86l-2-2c1.355,0.75,3.14-0.879,3.856-2C70.209,83.445,70.404,85.346,72,86.114z"/>
		<path style="fill:#616161;" d="M61.98,78.051c1.335,1.478,2.98,4.291,2.02,5.949c-2.161,3.427-5.663,0.28-5,2
			c-1.122-1.024-1.039-2.753-1-4C59.218,80.328,59.47,77.671,61.98,78.051z"/>
		<path style="fill:#4E4E4E;" d="M53,79c-1.051-0.039-1.258-0.803-0.849-1.389c0.654-0.937,0.448-1.996,0.891-2.884
			c-2.171-1.993-0.57-3.37,1.966-2.612c0.97,0.014,3.039-1.479,3.981-0.148c0.773,1.093,0.374,3.266,1.013,4.802
			C57.408,78.119,54.702,77.158,53,79z"/>
		<path style="fill:#555555;" d="M55.008,72.115c-0.405,1.015-1.49,1.658-1.966,2.612c-1.037,0.27-2.063-0.052-2.613-0.726
			c-0.71-0.869-0.864-2.742,0.342-3.017C52.83,70.514,54.026,71.783,55.008,72.115z"/>
		<path style="fill:#6B6B6B;" d="M64.307,71.84c0.469,0.044,0.98,0.597,0.756,1.076c-0.096,0.469-0.128,0.963-0.566,2.077
			c-1.449-1.606-3.134-2.795-4.637-4.87C62.229,69.589,62.741,71.694,64.307,71.84z"/>
		<path style="fill:#717171;" d="M32.951,51.825c-1.239-0.255-3.434,0.824-4.535-0.123c-1.348-1.159-0.309-3.817,1.122-4.501
			c0.992-0.475,2.585-1.466,3.862,0.203C34.289,48.568,33.453,50.8,32.951,51.825z"/>
		<path style="fill:#757575;" d="M37.965,47.72l0.067,1.274c-1.141,0.69-0.863,2.986-2.579,2.453
			c-0.819-1.865-0.716-3.553,0.211-4.408C36.191,46.554,37.145,47.301,37.965,47.72z"/>
		<path style="fill:#D4D4D4;" d="M36,59c0.69,1.357,0.418,2.636-0.819,3.837C38.029,62.769,40.635,63.157,43,64
			c0.169,0.691,1.183,1.346,0.822,2.257c-4.178-0.237-8.803-0.908-12.786,0.589C29.555,66.298,34.074,60.684,32,59
			C33.314,59.126,34.682,59.036,36,59z"/>
		<path style="fill:#C6C6C6;" d="M43,64c-3.7,1.222-6.689-3.266-2.921-5.11C42.114,59.716,42.525,62.059,43,64z"/>
		<path style="fill:#6B6B6B;" d="M40.079,58.89C39.785,60.93,41.218,63.098,43,64c-2.563,2.328-6.445,0.365-9.951,1.033
			C32.513,62.071,34.274,60.436,36,59L40.079,58.89z"/>
		<path style="fill:#E7E7E7;" d="M62.12,58.024c-0.817-0.467-2.262-0.733-3.12-0.884L62,54L62.12,58.024z"/>
		<path style="fill:#BBBBBB;" d="M66,84h-2l-2.02-5.949C64.536,78.719,64.525,82.134,66,84z"/>
	</g>
</g>
</svg>
