<?xml version="1.0" encoding="UTF-8"?>
<svg id="Layer_1" data-name="Layer 1" xmlns="http://www.w3.org/2000/svg" viewBox="0 0 1400 950">
  <defs>
    <style>
      .cls-1 {
        fill: #fff;
      }
    </style>
  </defs>
  <path class="cls-1" d="M1400,0v950H0V0h1400ZM1358.75,46.23c3.47,5.97-5.31,18.4-12.75,14.26-6.06-3.37-.94-14.25-11.62-15.42s-18.12,8.75-16.16,19.2c3.57,19.03,27.58,27.03,44.31,20.78,20.9-7.81,36.59-33.47,22.88-53.97-18.44-27.55-80.55-28.94-108.1-17.27-33.2,14.06-49.08,54.37-20.21,81.58,5.64,5.31,17.65,10.09,21.31,16.69s2.55,19.53-1.98,25.85c-5.04,7.02-20.86,15.76-27.88,7.01-8.37-10.44,12.71-16.11,13.4-19.56-5.33-15.87-30.93-4.36-37.77,4.25-13.98,17.59-4.38,41.72,18.28,43.4,28.1,2.07,50.58-19.95,57.3-45.77.71-2.74-.05-5.8,1.14-8.86.42-1.09-.56-1.69,1.58-1.39,12.23,4.33,27,6.92,38.75,12.28,9.41,4.3,15.67,10.51,12.33,21.76-2.98,10.01-19.2,13.15-27.52,9.43-.83-.37-6.59-6.32-6.85-7.19-1.68-5.6,5.4-6.97,6.44-12.26,2.35-11.87-17.84-3.82-21.4,2.69-.47.86-3.02,5.72-3.13,6.05-3.34,10.08-1.29,21.74,7.42,28.23,26.32,19.59,83.55-5.72,77.26-43.26-3.45-20.61-19.26-27.4-36.23-34.77-14.38-6.25-29.41-11.91-44.01-17.99-8.44-3.51-17.25-4.91-24.05-11.95-3.05-3.16-7.2-10.11-7.58-14.51-.5-5.76,4.52-12.03,8.62-15.49,16.45-13.85,60.65-13.81,73.62,4.37.72,1.01,2.36,1.41,2.61,1.84ZM163.69,66.7c8.52-10.86,6.07-29.81-3.65-39.24-13.32-12.93-29.47-14.3-46.49-16.51-2.04-.27-3.61-1.83-6.06-2.01-3.81-.29-6.01,1.67-9.08,1.99-22.59,2.36-48.48,5.94-63.25,25.75-16.44,22.07-2.11,44.33,20.61,53.04,4.76,1.83,12.44,3.93,17.21,3.79-11.82-10.87-18.4-21.88-15.55-38.56,2.52-14.74,23.96-22.06,37.01-22.99,13.88-.98,44.27.12,47.3,17.78,3.2,18.65-12.54,22.71-27.76,21.27l5.79,3.9c15.47,5.75,33.17,5.47,43.9-8.21ZM540.62,112.64c15.48-22.23,34.5-41.23,22.6-71.35-20.01-50.65-100.44-24.82-93.15,24.15,2.05,13.82,22.26,20.31,26.77,5.21-5.76-5.51-11.6-6.92-8.63-16.94,1.52-5.13,13.5-12.67,19.3-12.78,20.74-.39,29.21,24.53,22.68,41.77-9.47,25.02-44.29,60.02-23.63,88.25,10.94,14.95,31.59,14.26,46.82,6.94,18.81-9.04,33.88-30.72,26.12-51.88-4.38-11.95-18.69-19.08-28-8.01-9.96,11.84,6.03,10.15,8.32,17.72,1.86,6.17-6.83,17.51-13.28,18.3-14.32,1.77-19.65-9.5-17.3-22.28,1-5.41,8.16-14.47,11.39-19.1ZM749.01,131.01c14.79-5.03,14.35,15.71,4.37,20.87-1.49.77-10.31,3.28-11.86,3.21-1.39-.06-14.78-3.18-16.34-3.76-1.19-.45-2.43-.66-3.19-1.84,5.41-9.46,10.97-18.96,14.78-29.2,11.67-31.28,17.3-81.4-16.87-100.68-17.12-9.66-38.48-8.01-55.21,1.6-32.19,18.49-55.16,71.54-47.44,107.05,5.51,25.37,27.22,58,57.01,52.53,6.33-1.16,12.1-6.22,20.19-6.8,14.98-1.07,32.05,10.97,45.98,8.98,24.68-3.53,39.71-18.22,43.61-42.4.26-1.59,1.95-2.8,1.95-4.06,0-.54-2.26-8.95-2.67-10.32-6.81-22.55-40.51-21.84-34.31,4.83ZM1154.65,31.35c-38.26-38.38-138.93-13.81-129.38,47.88,4.2,27.12,47.19,41.46,68.24,24.76,13.85-10.99,12.85-47.64-11.51-38.51-1.7,1.33-.49,1.09.04,1.98,2.63,4.45,5.39,8.28.49,12.54-4.28,3.72-6.73,3.2-11.01-.01-20.34-15.25,2.56-36.63,21.01-37.98,25.13-1.83,39.52,16.1,36.51,40.51-2.23,18.08-32.02,53.21-47.34,62.66-7.34,4.53-24.9,7.09-29.2-2.21-2.86-6.21,12.5-16.05-.05-19.9-10.98-3.37-24.1,4.87-29.28,14.59-9.07,16.99,1.03,39.06,18.89,44.79,13.26,4.25,24.55-3.21,37.39-4.5,15.37-1.55,26.05,4.82,40.07,6.04,23.88,2.07,46.39-2.57,61.46-22.51,10.8-14.29,10.91-39.08-8.74-45.21-8.44-2.63-23.03-1.18-19.06,11.09.86,2.66,8.14,4.75,8.87,10.09.9,6.6-1.29,10.83-6.81,14.3-15.15,7.14-30.85-.1-45.24-5.76-.34-1.57.48-2.07,1.49-3,4.77-4.37,13.47-9.02,18.54-13.46,25.71-22.55,55.09-67.6,24.62-98.17ZM334.65,19.39c-69.18-22.15-141.93,42.4-108.82,113.28,20.69,44.28,82.06,68.3,123.21,35.88,22.78-17.95,29.08-59.05,4.87-77.96-12.12-9.47-28.74-13.68-43.74-15.76-2.27-3.62-.36-8.48-1.39-12.12-2.24-7.9-20.12-2.4-23.07,3.57-5.44,11.02,3.06,15.58,2.14,19.01-7.97,11.07-19.41,21.97-12.08,36.43,5.85,11.54,17.99,5.97,19.59-5.36,2.99-2.35,4.07-6.77,7.7-8.78,8.97-4.97,25.39-.73,30.93,7.92.61.95,3.89,11.26,3.93,11.98.04.67-2.48,12.15-2.85,13.1-3.47,8.93-20.05,13.14-28.59,13.41-40.13,1.28-64.68-36.32-52.43-73.43,10.03-30.37,39.14-45.28,69.97-37.1,12.36,3.28,5.48,20.71,16.52,22.47,20.21,3.23,42.14-22.45,35.14-42.13-5.1-14.32-8.38-6.3-15.81-3.42-6.07,2.35-17.84,2.3-24.11.53-.78-.22-.87-1.45-1.12-1.53ZM921,155.99c4.87-7.83,9.08-16.99,9.04-26.44-.1-21.41-20.65-47.71-5.58-67.59,9.71-12.81,30.07-7.02,42.04-15.96,8.02-5.98,13.78-16.91,11.07-27.06-11.85-5.44-19.9,6.21-30.12,8-28.32,4.96-60.69-15.16-91.98-12.98-19.31,1.35-44.67,14.81-41.37,37.46,1.24,8.51,14.55,23.18,16.86,9.03.79-4.87-1.74-9.59,5.1-11.89,8.33-2.8,14.56,2.54,14.75,10.94.25,10.69-8.99,14.57-14.22,22.59-21.1,32.41-3,89.88,36.19,98.65,31.48,7.05,77.03,3.01,99.26-23.21,17.04-20.09,15.16-60.35-19.43-55.44-10.3,1.46-21.31,20.95-9.09,26.94,2.44.37,1.89-4.26,4.49-5.54,5.96-2.93,11.63,5.97,10.94,11.9-1.81,15.47-24.74,21.88-37.93,20.6ZM438.33,23.33c-20.23,14.76-24.41,44.75-15.07,66.9,7.92,18.78,41.53,51.64,14.62,69.15-5.1,3.32-14.41,2.41-14.79,10.1-.25,4.88,4.84,9.47,9.19,10.74,16.38,4.8,33.57-5.42,39.9-20.54,18.96-45.27-38.9-81.4-10.62-119.62,4.45-6.02,14.24-10.3,16.71-16.37.97-2.37-.65-6.24-3-7.48-8.6-4.51-29.37,1.58-36.95,7.11ZM102.46,66.54c0-7.6-6.16-13.75-13.75-13.75s-13.75,6.16-13.75,13.75,6.16,13.75,13.75,13.75,13.75-6.16,13.75-13.75ZM145,95.5c.93,6.01,0,16.39,0,23,0,5.81-10.91,21.32-15.48,25.52-10.31,9.5-30.99,15.44-44.56,11.51-10.43-3.02-27.81-22.17-11.94-28.01,10.56-3.88,16.29-1.3,17.9,10.04,2.75.58,7.31,1.28,9.56-.58,1.15-.95,5.41-11.07,5.51-12.57.03-.5-1.94-8.79-2.23-9.68-1.55-4.69-6.59-6.85-11.1-7.9-20.52-4.79-44.01-.61-53.54,19.79-11.11,23.8,10.01,47.28,32.21,53.54,27.41,7.73,61.6-2.43,78.08-26.25,12.52-18.09,12.58-48.65-5.92-62.91-1.72,1.37,1.35,3.53,1.5,4.5ZM1313.74,193.21c-4.86.45-7.94,5.58-10.26,5.8-5.37.51-15.13-1.69-22.02-1.05-15.53,1.45-13.39,20.8-.97,21.12,6.88.18,6.04-4.29,10.03-5.06,8.76-1.7,18.98,4.45,27.88.88,12.19-4.89,7.05-22.79-4.66-21.69ZM139.73,231.27c.87.87,5.62,9.95,6.03,11.47,5.27,19.44-11.9,40.17-19.24,57.28s-11.9,36.25-4.9,53.87c7.75,19.5,32.29,24.4,48.41,11.64,9.68-7.66,20.56-31.2,7.9-39.95-.87-.6-7.15-3.64-7.94-3.13-5.01,3.23.32,9.53-1.74,14.3-4.07,9.41-17.67,5.5-20.01-3.48-.32-1.22-2.31-10.21-2.31-10.76,0-1.96,3.23-11.47,4.22-13.85,10.28-24.69,34.16-40.32,29.8-72.09-8.64-62.85-106.35-43.01-99.97,8.97.88,7.17,6.54,13,14.04,12.07,10.78-1.34,3.5-8.26,3.92-14.09.58-8.05,10.79-16.23,18.19-17.88s18.44.5,23.6,5.64ZM62.74,200.24c-20.06,3.47-41.16,28.68-38.65,49.18,2.92,23.83,24.84,43.4,27.86,64.13,2.27,15.6-15.64,38.1-25.92,16.93-10.07-2.83-11.18,13.11-9.96,19.96.82,4.62,7.97,15.36,11.9,18.1,8.16,5.69,17.04,4.58,25.59.51,9.94-4.74,19.62-17.02,23.92-27.08,5.8-13.57,5.52-28.9,2.22-43.16-5.61-24.25-29.09-46.65-12.1-71.73,4.98-7.34,17.79-12.18,9.39-22.56-3.99-4.93-8.06-5.36-14.24-4.29ZM509.34,330.32c18.29-25.36,45.56-65.64,29.82-97.98-20.99-43.12-105.69-36.21-117.84,10.47-10.21,39.21,33.82,64.04,60.74,35.74,8.09-8.51,9.06-33.23-4.64-34.57-7.37-.72-2.75,11.13-3.88,13.99-1.06,2.69-7.72,6.35-10.77,5.85-12.83-2.1-15.18-15.11-8.2-24.76,13.22-18.29,43.86-9.93,50.96,9.91s-3.64,50.86-12.37,68.67c-2.11,4.3-9.1,17.05-12.58,19.42s-4.34-.31-7.17-.98c-12.75-3-23.05-5.63-35.67.14-10,4.57-21.99,18.37-17.43,30,4.12,10.53,13.45-1.47,18.45-2.98,14.45-4.35,46.15,6.04,61.8,8.7s27.78,2.29,43-2.9c14.07-4.8,30.16-18.31,35.93-32.07,2.26-5.39,5.77-16.8,4.49-22.27-.16-.7-1.58-.65-1.87-1.49-1.3-3.72-1.45-6.17-4.09-9.71-9.09-12.22-29.1-14.17-38.52-1.53-.97,1.3-5.1,9.81-5.1,10.52,0,.32,2.59,5.21,3.04,5.59,3.67,3.1,5.25-2.49,7.6-3.56,5.92-2.7,13.43,2.14,13.05,8.97-.27,4.8-7.7,13.8-11.56,16.52-11.48,8.1-30.58,2.78-43.51.98-.88-1.05,5.18-9.06,6.34-10.67ZM753,210.01c-8.73,1.64-15.57,7.74-22.35,12.91-20.23-17.26-52.6-24.01-77.83-15.6-19.16,6.39-30.04,17.95-34.86,36.97-.21.82-1.76.66-1.94,1.39-1.2,5,.77,11.81,2.55,16.22,5.2,12.9,14.14,20.46,26.19,26.82,1.51.8,8.88,2.95,9.19,3.33,1.98,2.46-5.21,5.68-6.94,7.45-13.11,13.36-11.68,33.08-1.85,47.83,17.54,26.33,69.96,32.68,98.02,23.34,25.2-8.38,53.67-36.86,34.26-63.62-6.26-8.62-19.14-14.49-28.78-7.9-11.03,7.53,5.03,10.69,6.28,18.4,1.57,9.67-4.04,20.87-12.94,24.95-9.58,4.39-19.03,4.42-29.01,1.49-.56-2.31.45-1.64,1.27-2.28,12.54-9.81,19.08-18.76,23.24-34.71,6.87-26.35-1.89-62.33,7.8-84.2.98-2.21,8.74-11.77,7.7-12.79ZM957.63,223.38c-39.89-26.15-95.97-21.04-127.15,15.6-31.31,36.8-24.71,86.14,11.47,116.58,52.63,44.28,142.55,2.21,148.96-64.14,2.45-25.37-12.02-54.1-33.29-68.04ZM1143.34,242.35c2.62-3.37,8.61-6.74,13.05-6.28,10.77,1.11,6.37,7.83,10.57,12.47.67.74,7.08,4.18,7.74,4.28.86.13,6.55-3.41,7.21-4.41.85-1.31,3.02-8.05,3.17-9.84,1.31-15.64-17.77-29.42-32.34-27.33-18.28,2.62-31.4,11.27-36.29,29.7-3.55,13.34-1.3,23.94.83,37.29,2.75,17.19,8.65,31.74,1.79,49.33-5.91,15.15-18.91,19.47-34.47,17.35-5.36-.73-14.84-8.67-16.33-13.67-8.76-29.19,28.14-45.18,30.73-71.76,3.3-33.89-25.37-54.46-57.16-45.16-10.09,2.95-23.51,15.94-27.21,25.79-3.31,8.79-2.12,21.04,4.39,28.1,4.29,4.66,14.85,5.95,19,1.01,4.79-5.7-.77-5.86-2.77-9.95-4.59-9.37,5.22-16.23,12.43-19.96,6.46.91,10.71-.77,15.6,4.65,14.81,16.43-11.14,38.81-19.27,52.53-16.26,27.42-15.34,61.49,17.83,74.19,27.1,10.37,53.98-5.4,80.63-7.72,6.17-.54,13.36.99,18.43,4.65,3.87,2.79,2.92,7.07,6.03,7.96,10.82,3.09,11.84-14.66,9.82-21.81-4.39-15.49-23.71-21.35-37.73-15.77l12.4-17.09c14.88-25.83-14.15-48.87-10.34-73.34.13-.84,1.75-4.55,2.28-5.22ZM382,215.01c-18.63-6.41-33.09,3.64-41.71,19.78-3.41,6.37-8.77,25.84-15.81,27.19l-41.49-.46c-2.75-1.38-4.1-12.43-5.31-15.69-7.9-21.22-26.07-39.43-49.95-29.6-9.49,3.9-19.39,14.04-17.68,25.21.31,2.06,2.63,5.93,4.66,6.41,4.2.99,6.55-3.74,9.03-4.61,8.5-3,13.55.47,18.78,6.75,13.2,15.86,16.43,45.18,26.21,63.75.94,1.79,8.28,9.1,10.28,7.25-7.69-23.05,5-41.01,28.51-43.98,7.16-.9,26.13-.25,31.44-3.56,7.19-4.48,15.45-32.22,22.63-41.37,6.18-7.87,11.39-9.81,19.13-14.84.97-.63,1.79.11,1.29-2.23ZM1342.27,282.73c.47.46,7.58,3.86,8.46,4.04,36.37,7.49,59.95-45.25,26.6-65.6-26.43-16.12-59.92-1.91-73.14,24.51-11.3,22.6-6.27,43.03-2.96,66.59.21,1.52,1.74,2.91,1.85,5.23.08,1.75-2.4,11.92-3.12,13.95-3.23,9.03-9.4,13.58-18.72,15.35-8.12,1.55-18.36-10.57-17.05-18.32,1.88-11.13,14.64-28.53,19.53-40.28,7.44-17.91,6.7-38.22-5.28-54.14-20.11-26.73-69.36-10.84-67.47,23.47.68,12.32,13.85,29.05,26.75,19.68,8.43-6.12-1.02-7.89-4.22-11.21-9.66-10.06,7.72-26.25,19.52-17.52,13.46,9.95,6,30.2-.64,42.4-5.23,9.6-12.92,17.61-17.1,27.9-4.61,11.37-5.57,22.78-.48,33.92,3.57,7.82,10.54,15.04,18.29,18.71,30.51,14.43,53.21-11.17,82.43-8.44,8.52.8,11.44,4.79,15.04,12.02,11.79-5.72,15.28-18.06,9.63-29.68-6.73-13.84-27.49-12.13-40.19-9.32,21.73-24.76-11.56-60.57,11.48-85.01,8.27-8.77,20.62-11.92,31.21-5.17,11.64,7.42,7.98,27.22-2.95,25.01-7.24-1.46-3.16-10.29-7.41-11.69-10.86-.53-17.9,15.89-10.06,23.6ZM116.87,279.06c0-7.91-6.41-14.32-14.32-14.32s-14.32,6.41-14.32,14.32,6.41,14.32,14.32,14.32,14.32-6.41,14.32-14.32ZM331.25,313.53c0-7.58-6.15-13.73-13.73-13.73s-13.73,6.15-13.73,13.73,6.15,13.73,13.73,13.73,13.73-6.15,13.73-13.73ZM264.5,363c11.08-.51,22.83,0,34,0,7.82,0,20.54,9.08,28.99,10.01,15.97,1.75,37.88-7.72,45.95-22.06,3.94-7,7.27-21.44,2.6-28.48-8.01-12.08-15.35,12.27-19.51,16.57-13.65,14.14-47.88,7.5-66.77,10.23-8.82,1.27-19.59,8.18-26.76,13.25-.24,3.06,1.04.51,1.5.49ZM362.65,407.35c-12.31-12.93-29.54-15.36-46.1-17.39-1.62-.2-2.73-1.93-4.99-2.01-2.89-.11-21.3,2.38-24.97,3.15-19.29,4.01-44.14,19.08-52.98,37.02-13.92,28.26,6.38,48.82,30.73,60.06,9.73,4.49,35.08,9.83,39.54,18.46,9.57,18.52-29.94,33.06-42.84,21.84-6.16-5.36,5.82-12.9-1.73-17.28-12.92-7.51-37.65,13.39-35.09,27.06,4.15,22.1,26.29,25.24,45.27,23.74,21.57-1.71,47.41-19.04,69-19.08,5.26,0,15.78,5.03,11.58,10.66-2.22,2.97-7.37.7-4.31,7.17,4.51,9.54,19.51-1.23,23.78-6.7,2.61-3.34,7.2-13.52,7.55-17.53.31-3.56-3.11-11.96-5.55-14.56-8.28-8.81-27.35-4.6-37.54-.95l5.04-12.45c5.21-37.88-57.08-26.06-68.84-58.25-11.09-30.38,41.67-43.88,62.73-28.73,7.46,5.37,8.4,13.08,7.01,21.88-1.56,9.86-18.9,13.06-22.45,3.48-2.13-5.74,9.09-10.89,3.49-16.41-5.17-5.09-18.54,5.88-20.83,11.13-2.14,4.91-2.14,9.14-.33,14.04,6.46,17.5,31.86,18.24,46.71,12.34,26.04-10.35,36.33-39.44,16.12-60.68ZM101.32,457.69c9.38,10.57,34.55,8.17,46.68,3.81,33.56-12.07,38.91-47.12,5.24-63.23-26.4-12.63-67.5-11.79-93.93.54-39.66,18.5-46.17,55.71-6.61,79,8.92,5.25,34.31,16.53,44.06,17.93,1.47.21,4.11.87,5.24-.24-6.72-6.42-13.56-12.32-19.51-19.49-10.37-12.5-22.43-30.59-12.84-46.87,11-18.68,47.87-21.15,65.25-10.53,9.22,5.64,12.05,17.47,1.67,23.44-4.59,2.64-14.57-1.12-14.62-6.5-.02-1.89,1.46-3.68.92-5.82-1.17-4.61-9.41-4.28-13.13-3.5-5.55,1.16-15.5,10.54-15.68,16.27-.07,2.16,5.59,13.3,7.27,15.19ZM557.31,431.31c3.75-4.31,13.32-8.95,17.21-13.28,2.17-2.41,6.78-11.18,6.47-14.42-1.42-15.07-20.12-1.92-27.78-.89-30.96,4.18-55.8-20.03-89.08-7.08-10.39,4.04-19.67,15.63-20.15,26.91-.43,10.14,6.25,27,17.5,16.44,5-4.7,2.6-11.04,6.47-15.26s14.11-4.22,19.53-3.71c7.74.73,33.5,8.64,41.11,11.89.93.4,1.91.63,2.38,1.66-11.87,21.18-6.57,44.1-7.93,66.98-.4,6.77-2.35,12.42-5.85,18.15-10.28,16.8-32.4,23.73-50.74,17.36-22.67-7.87-26.38-40.31-10.49-56.6,4.95-5.07,13.13-9.07,20.34-7.42.72.17.76,1.56,1.5,1.87,7.87,3.31,13.24,7.72,11.63,17.19-.76,4.49-8.14,8.32-1.4,11.37,7.85,3.55,21.82-10.52,22.89-18.06,2.95-20.84-13.68-31.6-32.43-33.4-51.36-4.91-83.38,53.06-49,93,14.66,17.03,32.24,20.46,54.06,19.03s50.03-18.13,71.49-12.57c11.74,3.04,2.5,21.24,16.01,11.07,10.25-7.71,17.66-25.39,12.26-37.54-2.26-5.09-8.98-10.4-14.74-9.98-1.25.09-10.23,2.48-12,3.04-4.61,1.46-9.03,4.24-13.55,5.94-.57-.57,6.34-12.43,6.93-14.56,4.92-17.71,1.03-25.29.08-41.95-.65-11.47-.66-26.01,7.3-35.18ZM870.03,517.98c19.55-6.55,13.76-34.57-4.98-38.54-32.1-6.79-59.16,31.17-48.12,60.12,10.33,27.07,46.69,29.14,70.03,18.91,17.16-7.52,26.8-21.2,36.53-36.45,7.24,13.49,12.41,28.5,26.84,36.13,18.56,9.81,38.98-5.17,37.42-25.41-.51-6.57-4.88-11.73-10.82-6.29-1.35,1.23-2.12,3.87-3.61,4.38-4.43,1.53-9.99-.07-12.73-3.95-8.81-12.46-3.75-38.27.7-52.07,7.19-22.25,29.74-45.8,17.93-69.8-6.28-12.77-18.17-16.02-31.22-11.29-11.02,4-28.18,15.83-20.93,29.15,4.1,1.46,6.45-3.88,9.66-4.68,6.87-1.71,11.38,6.74,12.18,12.36,1.32,9.3-9.93,29.73-12.88,40-.38,1.32.04,3.03-.06,4.43-1.98.44-1.91-.64-2.71-1.78-14.56-20.54-39.55-68.41-63.89-75.11-21.97-6.04-52.1,5.8-55.37,30.48-.95,7.12,7.46,19.39,14.96,15.9s-.42-8.47,3.12-13.89c4.03-6.18,15.7-6.17,22.07-4.27,23.15,6.92,38.17,44.41,48.08,63.92,5.24,10.33,8.47,8.68,1.59,21.1-9.02,16.27-26.06,27.03-45.23,24.54-12.59-1.63-20.23-14.07-15.35-26.13.82-2.04,7.73-8.47,9.78-9.22,6.79-2.48,11.41,3.52,14,8.97l-2.04,1.98,5.03,6.49ZM787.42,412.62c-14.85-29.46-49.71-16-61.59,8.71-4.9,10.19-7.03,24.97-6.87,36.23.27,19.13,9.67,35.1,6.95,54.86-1.08,7.87-9.08,16.39-15.75,20.25-6.39,3.7-18.78,5.91-24.21-.12-6.2-6.88,3.46-16.98,6.22-23.86,4.09-10.19,6.57-27.6-6.49-31.95-2.31-.77-6.52.55-8.62,1.85-4.44,2.75-5.89,12.53-7.89,17.11-6.09,14-17.99,35.39-15.14,50.77,1.97,10.64,21.1,17.49,30.5,17.58,20.76.19,48.56-23.82,68.38-10.46,5.35,3.61,3.96,8.4,5.98,11.02,5.18,6.73,17.64-7.29,20.29-11.91,7.07-12.33,6.66-32.58-10.66-34.72-5.35-.66-12.23,1.36-17.82,2.23-2.06.32-3.7,3.39-5.71.27,17.8-22.46,1.64-49.24,4.02-73.96.91-9.49,9.01-21.71,19.49-21.63,5.93.05,8.71,6.71,15.56,1.68,3.75-2.76,5.96-8.29,4.9-12.87-.18-.79-1.42-.8-1.56-1.08ZM1152.59,471.61c40.82-78.46-88.69-104.52-119.78-34.3-11.62,26.24-3.28,39.58,2.08,64.31,1.7,7.86,4.69,25.57-4.31,29.46-5.46,2.36-18.72-3.02-20.55,6.45-2.16,11.2,5.42,20.42,16.48,21.47,16.55,1.56,31.28-8.45,37.29-23.69,10.8-27.42-14.19-51.16-5.25-82.25,7.52-26.16,42.42-38.31,61.94-18.04,18.91,19.64-6.35,41.93-14.23,59.76-9.51,21.53-9.7,48.32,13.41,61.06,24.07,13.27,64.29-2.39,71.08-29.57,5.33-21.37-9.13-41.98-32.01-35.01-7.72,2.35-14.58,17.94-10.18,24.69,3.27,5.02,6.35-1.87,10.14-2.72,2.69-.61,5.58-.06,8.3-.21,2.38,13.9-.39,23.81-16.52,23.05-8.86-.42-17.86-8.01-19.22-16.81-3.08-20.04,13.01-31.64,21.33-47.63ZM1368.66,515.34c8.18,8.16-5.06,29.88-19.02,19.51-10.56-7.84-8.49-23.51-4.68-34.39,9.18-26.23,41.34-46.31,25.87-77.8-14.33-29.17-61.29-30.54-81.37-7.7-2.19,2.49-8.08,14.6-8.98,15.03l-7.07-11.9c-9.82-12.1-18.79-16.94-34.8-14.97-16.37,2.01-35.04,25.94-28.01,41.78,3.23,7.28,15.19,11.26,15.22,3.65.03-6.32-2.11-6.3,2.22-13,6.68-10.33,15.94-5.35,19.66,4.26,1.42,3.69,3.91,18.31,4.31,22.69,1.44,15.59,1.34,49.5-4.52,63.5-3.59,8.57-11.05,16.66-19.47,20.53-4.33,1.99-8.93-.22-6.81,8.78,1.77,7.53,10.58,9.69,17.34,8.75,18.07-2.51,34.72-22.42,40.13-38.87,9.14-27.81-3.1-76.3,25.43-93.57,10.61-6.42,37.07-8.17,38.58,8.02,1.57,16.81-11.83,29.45-19.06,42.5-9.02,16.29-16.05,37.22-9.57,55.31,5.24,14.62,25.45,30.29,41.25,26.53.71-.17.55-1.61,1.45-1.9,4.53-1.48,8.48-2.17,12.94-4.88,19.01-11.53,32.28-44.64,12.35-60.76-.43-.35-5.17-3.47-5.49-3.51-2.71-.32-8.97-.24-11.51.62-4.7,1.59-10.47,10.71-7.56,15.47,1.08,1.77,9.09,4.24,11.17,6.33ZM707.71,443.71c.6-.82,1.41-4.59,1.61-5.89,1.31-8.4-4.04-15.53-11.45-19.2-38.38-19.03-89.69,29.11-78.6,70.6.33,1.23,2.79,8.51,4.72,6.77,3.76-18.41,8.41-32.94,23.53-44.97,8.67-6.89,22.81-11.76,33.92-9.97,7.36,1.19,7.27,11.76,19.28,7.16.63-.24,6.74-4.17,6.99-4.51ZM1101.96,462.46c0-7.5-6.08-13.57-13.57-13.57s-13.57,6.08-13.57,13.57,6.08,13.57,13.57,13.57,13.57-6.08,13.57-13.57ZM76.59,535.46c-7.28-3.18-15.83-10.3-10.24-18.62,2.82-4.19,8.19-5.92,12.9-3.59,6.73,3.32,5.07,17.62,13.73,8.23,9.14-9.9-6.1-22.55-15.81-25.17-29.48-7.95-57.59,17.72-38.64,45.64,14.02,20.65,50.95,26.14,73.73,22.81,28.08-4.11,62.89-25.85,52.06-58.6-5.99-18.12-36.69-27.97-53.33-32.16,10.78,12.01,22.26,20.67,22.09,38.48-.29,29.14-34.77,29.01-55.41,24.4l-1.08-1.43ZM641.48,525.64c0-8.12-6.58-14.69-14.69-14.69s-14.69,6.58-14.69,14.69,6.58,14.69,14.69,14.69,14.69-6.58,14.69-14.69ZM80.69,579.31c-1.67-1.17-5.08-1.22-7.15-1.36-28.24-1.85-51.05,18.28-47.43,47.43,2.07,16.66,19.38,32.37,32.57,41.43,15.42,10.58,39.33,17.5,33.46,41.46l1.86,2.23c5.36,2.67,15.07-6.07,17.4-10.61,3.2-6.26,3.09-10.77.28-17.09-8.76-19.73-45.83-34.4-48.61-59.37-2.36-21.2,7.44-25.04,20.82-38.15.45-1.25-2.35-5.38-3.21-5.99ZM166.65,590.35c-26.87-26.26-83.54-3.57-82.71,35.18.57,26.41,30.78,37.4,42.42,56.6,9.22,15.2,3.23,33.51-12.68,41.04-23.52,11.13-58.87-1.01-71.85-23.51-2.9-5.03-4.42-10.28-6.33-15.66-9.24,12.99-9.57,30.91.52,43.47,32.21,40.13,121.78,28.64,129.92-27.03,1.44-9.84-5.26-25.47-11.92-32.97-9.85-11.09-31.65-20.21-35.72-34.28-3.2-11.06,1.23-23.91,12.71-27.69,8.62-2.84,23.58-.62,21.94,10.91-1.6,11.25-13,6.14-15.46,11.61-.89,1.98.33,6.54,1.77,7.7.57.45,13.25,3.36,14.14,3.27.65-.07,7.81-2.15,8.62-2.48,18.62-7.54,17.76-33.34,4.63-46.17ZM830.73,579.32c-8.99-4.1-17.07,5.13-16.64,14.02.64,13.24,18.6,37.62,22.62,54.46,7.76,32.52-6.98,66.48,23.36,89.64,21.99,16.78,54.18,19.02,78.81,6.94,15.95-7.82,27.89-20.29,31.85-38.15,1.32-5.95,2.94-14.46-4.03-17.03-6.4,1.04-7.22,7.72-10.72,12.27-7.48,9.74-19.42,13.3-30.97,15.52l12.61-24.5c-2.02-6.66-5.04-7.52-11.63-6-11.97,2.76-12.45,16.93-18.14,25.86-1.73,2.72-4.96,4.22-6.04,7.47-5.78.62-11.16-3.25-15.28-6.85-17.06-14.92-11.77-37.45-14.52-57.45l2.07-1.13c11.99,3.49,23.97,7.22,36.43,8.6,3.71.41,9.25.9,12.95,1.05,4.48.19,18.81,1.01,21.23-2.35,1.68-3.08.96-6.68,1.54-9.96.24-1.34,1.49-2.61,1.72-4.28,1.77-12.66-.83-26.52,10.58-35.42,3-2.34,7.61-4.93,9.97-.04s-3.79,9.24,5,10.04c9.51.86,14.79-11.45,13.44-19.48s-9.53-18.84-17.67-20.32c-24.73-4.5-35.11,15.59-40.16,35.38-2.21,8.67.75,18.57-10.67,20.33-12.51,1.93-40.23,1.81-47.89-9.99-5.22-8.04-2.18-18.31,5.39-23.51,6.29-4.32,16.82-.61,20.54-11.92,5.7-17.32-16.94-10.11-25-9.55-13.11.92-29.43,1.51-40.76-3.66ZM1335.67,597.65c4.49-3.3,9.2-10.09,7.17-15.99-2.14-6.23-10.23,2.62-13.1,3.57-8.94,2.96-13.85-1.56-21.34-3.12-26.84-5.58-53.49-1.62-72.36,19.42-21.15,23.59-20.3,51.11-8.13,78.28,6.89,15.37,16.65,29.01,5.11,45.7-4.55,6.58-12.26,6.61-15.9,13.14-.21.58,3.42,4.47,3.91,4.82,6.85,4.89,14.43.2,20.46-4.49,17.94-13.94,21.87-41.3,16-61.95-5.36-18.86-16.6-27.34-7.98-49.02,5.79-14.55,19.28-26.6,35.05-28.94,5.73-.85,7.95,1.23,12.18,1.71,11.33,1.29,29.53,3.8,38.94-3.12ZM321.74,580.21c-4.86.45-7.94,5.58-10.26,5.8-5.37.51-15.13-1.69-22.02-1.05-15.53,1.45-13.39,20.8-.97,21.12,6.88.18,6.04-4.29,10.03-5.06,8.76-1.7,18.98,4.45,27.88.88,12.19-4.89,7.05-22.79-4.66-21.69ZM484.38,595.61c-18.6-16.95-46.3-23.96-64.36-2.09-5.86,7.1-14.87,26.01-3.53,31.48,4.43-7.25,8.14-14.21,16.51-17.5,17.76-7,34.37,6.87,44.44,20.57,1.68,2.28,15.65,24.92,14.56,25.93-51.15-13.45-83.22,46.41-39.91,80.42,44.61,35.04,130.96,3.77,124.9-54.9-2.3-22.29-27.32-35.76-29.75-50.25-1.2-7.17,1.34-16.51,9.51-18.08,8.31-1.59,18.59,11.62,11.48,18.32,6.93,9.72,14.76-6.85,14.5-13.75-.49-12.63-14.04-26.57-26.29-28.7-19.36-3.36-38.34,23.29-35.2,41.2,5.11,29.2,36.97,37.13,27.28,69.75-7.96,26.78-41.82,35.04-65.71,26.68-15.48-5.42-24.29-20.77-21.57-36.96,3.62-21.52,43.47-21.07,36.53,3.54-2.13,7.55-9.28,4.88-12.62,10.43-1.93,8.31,16.99,7.22,22.1,5.03,17-7.29,15.17-31.72,10.79-46.28-6.4-21.29-17.26-49.92-33.66-64.85ZM1086,606h15.5c.59,0,8.69,4.81,10.51,5.49,19.78,7.45,44.46,16.01,59.41-4.58,4.08-5.62,9.45-22.35-1.66-20.72-4.94.73-5.95,4.62-9.41,6.66-4.26,2.51-12.02,4.88-16.91,4.19-11.48-1.61-26.82-10.13-39.05-12.94-23.78-5.45-49.22-5.71-66.36,14.42-7.49,8.79-14.71,28.16-3.31,36.32,10.53.43,5.67-8.52,6.71-12.89,1.89-7.98,12.8-11.9,19.46-6.35,13.3,11.08-8.13,38.23-12.59,50.18-4.32,11.58-5.58,26.31-3.19,38.6,5.16,26.42,35.46,42.67,60.4,44.6,37.65,2.91,75.16-21.44,68.04-63.04-2.17-12.67-25.42-22.27-17.25-33.65.16-.23,3.77-3.83,4-4,1.84-1.38,7.17-1.42,7.49-5.62.18-5.2-10.33-1.8-13.31-.71-26.02,9.51-8.21,37.07-8.45,54.47-.45,33.05-47.11,36.93-62.39,12.41-14.17-22.73-6.94-36.54,2.26-57.67,4.81-11.04,10.77-19.95,7.03-32.63-1.46-4.93-5.43-7.91-6.93-12.57ZM741.34,639.66c-3.29-4.24-3.38-12.75-.34-17.16,5.25-7.62,15.08-7.38,21.93-1.92,4.79,3.82,4.15,7.81,7.6,12.43,18.99-8.67,3.07-32.33-9.05-39.98-44.05-27.79-113.5-1.38-136.23,43.71-42.23,83.76,67.86,147.42,133.79,93.79,18.56-15.1,33.77-47.32,16.54-68.57-9.56-11.79-26.62-12.5-34.22-22.3ZM286.07,709.11c2.5,10.12,21.86,6.93,28.4,1.86,18.25-14.15,2.75-45.35-5.08-61.86-10.9-22.99-26.31-41.93-53.13-45.87-18.9-2.77-41.23,8.71-45.03,28.5-.98,5.08,1.16,10.62,6.8,9.82,3.14-6.31,8.3-11.49,14.97-14.05,8.56-3.29,15.47-2.13,23.98,1.02,17.43,6.46,26.82,24.8,37.02,38.98-10.55-.44-19.19-2.82-29.81.18-21.79,6.15-39.35,27.82-29.04,50.68,13.65,30.24,56.91,37.28,86.25,31.53,30.26-5.93,72.57-36.98,54.01-71.79-5.98-11.22-37.25-30.83-22.92-44.12,7.25-6.72,19.29-2.72,20.54,6.63.53,3.98-4.81,5.78,1.46,9.05,20.37-8.86,8.78-30.76-7.2-37.43-9.55-3.99-14.97-4.37-24.33.22-17.01,8.35-24.61,25.51-16.12,43.23,8.55,17.84,33.46,26.3,24.38,50.02-9.71,25.34-38.71,29.36-62.39,24.99-16.71-3.08-31.16-16.26-26.35-34.71,4.07-15.62,38.95-17.46,37.59,1.51-.52,7.24-8.43,9.18-13.99,11.62ZM1347.44,621.58c-8.92-17.66-43.29-10.47-58.11-3.75s-20.55,19.22-30.32,30.69c2.75,6.2,15.64,1.72,20.25-.76,8.35-4.49,14.75-17.37,24.45-19.56,7.96-1.79,20.53.58,14.35,11.35-3.74,6.52-18.12,15.26-24.08,21.92-18.84,21.03-33.57,61.33-3.89,79.94s80.59,4.3,92.88-29.96c10.49-29.24-11.05-57.23-41.78-45.78-11.1,4.13-21.69,14.5-17.73,27.38,2.1,6.81,10.94,10.56,15.67,3.48,1.5-2.26-2.47-8.16,5.64-10.3,4-1.06,7.1.94,9.69,3.83,8.74,9.76,4.61,21.74-4.94,28.94-11.37,8.58-29.97,8.42-40.39-1.61-17.84-17.17-1.05-47.31,14.86-59.92,7.75-6.14,16.95-8.49,21.8-18.21,2.33-4.68,4.36-11.35,3.19-16.55-.16-.69-1.34-.79-1.52-1.13ZM1129.65,650.67c2.32-3.42,10.39-14.5,9.3-18.05-16.9-11.1-45.31,15.81-45.74,31.88-.41,15.55,10.77,27.28,21.28,37.27,3.33-2.57,9.35-2.57,10.34-7.52.82-4.08-6.63-12.3-7.58-15.98-2.5-9.67,5.34-18.65,10.4-26.16.5-.74,1.7-.98,2.01-1.43ZM90.62,876.4c-32.57-16.29-66.21,30.27-35.1,54.57,42.68,33.34,141.05-6.2,120.75-69.95-7.58-23.82-25.6-24.12-36.68-39.12-6.92-9.36-6.08-25.06,8.77-23.82,9.66.81,11.01,8.93,16.14,14.87,14.95-11.8,2.04-29-10.18-36.78-28.92-18.44-87.51-14.5-113.85,7.8-14.85,12.58-26.67,38.11-13.47,55.53,14.67,19.36,45.7,26.3,67.89,17.89,2.55-.97,16.57-9.63,17.68-11.39l.31-1.31-8.48-13.6c-10.57,7.25-27.36,10.66-37.87,1.92-6.4-5.32-8.04-10.1-7.51-18.49,1.77-28.19,38.82-33.16,60.99-29.51.33,1.61-.26,2.3-.98,3.52-8.75,14.93-13.83,19.44-5.76,37.71,4.81,10.89,8.58,12.41,16.67,19.33,11.59,9.91,16.99,29.42,13.38,44.25-5.29,21.71-51.73,44.29-66.86,23.22-4.61-6.42-2.43-15.54,5.54-17.61,6.34-1.65,13.2,6.6,17.92,0,2.65-3.71-1.21-11.89-3.89-14.95-.56-.63-4.73-3.73-5.41-4.07ZM377.39,872.62c-5.46-5.09-10.15-8.06-17.18-11.33-10.33-4.8-23.23-5.85-30.06-14.93-.3-1.52,1.45-3.23,2.33-4.38,7.95-10.31,21.17-16.69,28.34-28.66,15.04-25.14-12.18-44.14-34.39-48.25-43.07-7.97-103.33,31.33-87.48,79.48,5.93,18.01,27.94,33.48,24.99,52.88-1.6,10.55-13.88,17.78-21.63,8.27-4.95-6.07,7.16-11.56,3.23-17.71-25.41-8.8-45.1,29.09-23.03,45,23.7,17.09,49.19.64,58.17-23.82,13.91-37.88-18.95-56.01-11.61-88.61,4.19-18.61,22.17-29.67,40.43-29.66,11.73,0,15.56,2.73,15.58,14.59.02,11.07-21.02,20.81-25.95,33.13-14.01,35.01,41.39,36.77,54.86,54.87,3.75,5.03,2.49,9.68.48,15.49-2.96,8.53-17.08,8.83-24.86,7.89-8.05-.97-11.94-5.75-15.47-12.56l8.86-11.32c-15.48-8.09-30.01,11.08-29,25.46,2.12,30.14,48.99,29.15,69.3,20.32,26.44-11.49,36-45.76,14.09-66.18ZM482.21,814.8c.28.48,7.04,4.3,8.29,4.3,3.99-.02,12.98-6.25,15.49-9.6,12.06-16.13,4.91-39.95-15.18-44.81-23.65-5.72-54.07,7.59-62.59,31.04-10.08,27.73,2.66,52.24,25.46,68.09,2.55,1.77,5.16,3.63,8.31,4.2,1.4,1.52-4.63,4.24-6.01,5.48-8.72,7.81-16.77,16.63-18.06,28.94-5.1,48.8,68.92,47.46,99.76,34.76,27.96-11.51,50.38-41.54,34.23-71.4-6.69-12.36-25.38-23.32-29.96-35.26s.77-27.34,13.3-31.78c6.37-2.26,14.26-.53,16.53-9.52,1.24-4.9-4.23-10.74-8.73-11.81-23.87-5.69-46.15,20.93-47.11,43.02-1.37,31.29,24.1,40.76,26.08,65.01,2.49,30.59-25.69,40.26-51.24,33.25-13.99-3.84-23.09-15.16-18.54-29.96,3.14-10.19,19.66-8.14,25.3-.8,1.78,2.32,1.73,5.09,3.93,6.94,9.73-4.25,12.23-16.83,8.26-26.13-4.44-10.39-18.58-13.38-27.62-18.38-16.06-8.87-29.41-24.93-23.62-44.37,3.3-11.07,15.91-21.53,27.73-16.74,3.27,1.32,6.89,6.39,6.55,10-.71,7.46-9.21,6.06-10.36,7.67-.46,1.85-1.04,6.47-.22,7.87ZM757.4,802.62c-21.45-44.14-89.66-51.48-120.92-13.63-5.68,6.87-17.4,26.83-7.17,33.21,7.58,4.73,7.99-6.08,10.26-10.13,4.21-7.52,27.43-15.32,35.94-16.06,50.66-4.39,63.75,38.4,51.19,80.19-9.18,30.52-51.33,48.09-72.23,19.83-5.76-7.78-4.93-22.27,1.99-29.06,9.82-9.65,24.64-.64,13.6,9.67-.53,2.96,7.04,5.13,9.3,5.08,18.65-6.37,16.96-31.89.32-39.91-38.39-18.49-80.21,46.62-52.13,83.13,24.53,31.9,68.42,21.47,90.43-7.44,2.36-3.09,10.51-18.45,13.49-18.51,3.18,14.69,13.19,29.38,27,36.01,3.91,1.88,13.88,5.27,18.03,5.1s8.4-2.62,7.08-7.13c-.81-2.76-6.02-6.42-8.01-9.07-27.46-36.45.27-83.32-18.18-121.29ZM1368.65,786.65c4.12-4.31,5.45-14.16-.27-17.53-7.93-4.68-11.37.04-17.98,1.77-18.16,4.77-31.87-3.52-47.87-2.89-10.76.43-22.92,9.14-20.1,21.06,3.26,13.81,13.5.36,19.55,1.34,5.71.93,8.63,5.77,8.96,11.24.4,6.63-1.67,13.76-1.98,19.81-.54,10.78.64,21.57.99,31.99.62,18.36,4.16,36.09-10.61,50.38-17.09,1.66-34.93-1.54-45.75-15.92-9.07-12.06-8.96-36.19,4.45-45.37,6.74-4.61,14.18-5.77,18.8,2.1-.88,6.39-10.48,15.85-2.86,20.35-.33-2.99,3.36-1.89,5.58-2.93,6.84-3.22,15.79-10.53,18.23-17.77,4.09-12.13.08-25.33-12.06-30.52-8.15-3.48-13.98-2.45-22.17.28-38.9,12.98-61.79,67.04-37.81,101.69,4.51,6.52,12.87,15.65,20.99,17.01,4.79.8,9.94-.29,14.68.32,22.42,2.85,37.94,11.62,62.13,9.97,23.59-1.61,48.56-17.32,57.48-39.52,4.66-11.6,7.12-31.55-1.03-42.02-6.01-7.72-22.7-10.34-22.1,3.02.08,1.74,1.76,1.48,2.03,2.24,6.55,18.3-7.86,40.05-26.48,43.17-6.36,1.07-13.1-1.11-19.43.06l-.03-2.5c9.12-5.37,18.17-13.64,22.23-23.79,8.76-21.91-4.34-43.14-.1-65.1,1.33-6.85,7.7-19.41,13.4-23.6s14.96-3.99,19.14-8.36ZM946.64,839.63c17.73-13.31,37.86-37.2,28.85-60.63-1.12-2.91-4.5-9.58-7.43-10.56-6.95-2.33-7.07,1.58-11.51,3.61-26.69,12.2-60.29-6.17-89.1-4.1-17.89,1.28-39.78,12.24-45.94,30.06-2.37,6.85-2.52,20.86.43,27.53,2.24,5.06,15.9,21.3,20.02,10.98-1.52-5.88-6.84-11.19-6.99-17.08-.32-12.03,16.8-20.68,22.1-7.02,3.26,8.41,2.1,33.44.91,43.06-2.76,22.4-17.05,33.79-6.86,57.89,15.18,35.89,74.76,39.47,103.78,20.03,17.29-11.58,28.07-31.16,19.87-51.69-6.31-15.81-25.99-24.02-40.71-14.15-1.4.94-6.75,6.18-7.5,7.5-.38.67-3.22,8.16-3.29,8.62-.69,4.49,5.82,17.23,12.28,12.37l-.23-7.62c11.96-7.73,19.72,5,15.19,16.58-2.74,7-17.95,14.35-25.04,14.96-11.14.95-32.24-3.8-35.81-16.15-8.92-30.86,37.68-49.72,56.97-64.19ZM1129.36,899.65c-15.52-27.63,33.85-60.68,32.68-92.19-.61-16.47-16.51-36.11-32.77-39.22-17.98-3.44-13.61,15.01-19.86,24.68-8.15,12.6-37.31,19.79-51.09,26.91-17.92,9.25-37.56,26.58-43.63,46.37-.65,2.11-3.67,12.51-3.77,13.24-3.57,27.26,13.92,54.59,42.53,56.63,9.96.71,20.63-7.1,16.35-17.87-22.55-1.54-29.53-17.88-27.79-38.68,3.46-41.3,50.95-40.45,70.42-64.58,3.94-4.88,6.65-11.67,10.07-16.91,23.68,18.79-5.04,48.81-15.32,67.66-4.71,8.62-11.7,22.24-12.16,31.83-.82,17.02,8.77,31.59,23.61,39.36,4.99,2.61,15.6,5.56,20.96,6.13,4.11.44,20.28-4.91,24.59-7.11,26.75-13.64,38.58-58.61,7.53-73.11-6.87-3.21-13.3-3.64-20.11.33-8.04,4.69-6.67,26.89-.12,26.95,4.13.04,7.22-15.88,17.51-5.56,4.12,4.13,3.27,7.6,1.67,12.67-3.93,12.47-12.61,15.53-25.08,13.74-4.8-.69-13.95-7.2-16.23-11.26Z"/>
  <path d="M957.63,223.38c21.26,13.94,35.74,42.67,33.29,68.04-6.41,66.36-96.33,108.42-148.96,64.14-36.18-30.43-42.79-79.78-11.47-116.58,31.18-36.64,87.26-41.76,127.15-15.6ZM880.58,322.43c-4.47-2.58-9.29-5.79-8.45-11.76,1.46-4.28,18.43-5.9,19.89-18.15.72-6.02.44-12.98-3.04-18.02-8.74-12.64-25.96-9.97-33.84,2.14-15.72,24.15.34,54.89,25.14,64.56,47.18,18.4,95.16-31.85,72.24-77.24-15-29.7-52.15-43.9-81.84-26.78-2.39,1.38-10.78,7.24-11.68,9.33-1.49,3.46,4.81-.94,5.75-1.25,18.03-6.09,41.74,3.69,52.08,19.4,12.63,19.18,6.74,47.83-14.52,58.16-6.48,3.15-12.32,3.89-19.21,1.53-2.03-.7-1.86-1.53-2.53-1.92Z"/>
  <path d="M1154.65,31.35c30.47,30.57,1.09,75.62-24.62,98.17-5.06,4.44-13.77,9.09-18.54,13.46-1.01.92-1.83,1.42-1.49,3,14.39,5.66,30.09,12.9,45.24,5.76,5.51-3.46,7.71-7.7,6.81-14.3-.73-5.34-8.01-7.43-8.87-10.09-3.97-12.28,10.62-13.73,19.06-11.09,19.65,6.13,19.53,30.92,8.74,45.21-15.07,19.94-37.58,24.58-61.46,22.51-14.02-1.22-24.7-7.59-40.07-6.04-12.84,1.29-24.13,8.76-37.39,4.5-17.86-5.73-27.96-27.8-18.89-44.79,5.19-9.72,18.3-17.96,29.28-14.59,12.55,3.85-2.82,13.69.05,19.9,4.29,9.3,21.85,6.74,29.2,2.21,15.32-9.45,45.11-44.58,47.34-62.66,3.01-24.41-11.38-42.34-36.51-40.51-18.45,1.34-41.35,22.73-21.01,37.98,4.28,3.21,6.73,3.73,11.01.01,4.9-4.26,2.15-8.08-.49-12.54-.53-.89-1.74-.65-.04-1.98,24.36-9.13,25.36,27.52,11.51,38.51-21.05,16.71-64.04,2.36-68.24-24.76-9.55-61.7,91.12-86.27,129.38-47.88Z"/>
  <path d="M1358.75,46.23c-.24-.42-1.89-.83-2.61-1.84-12.98-18.18-57.18-18.22-73.62-4.37-4.11,3.46-9.12,9.72-8.62,15.49.38,4.41,4.53,11.35,7.58,14.51,6.8,7.04,15.61,8.44,24.05,11.95,14.6,6.08,29.63,11.74,44.01,17.99,16.96,7.38,32.77,14.17,36.23,34.77,6.29,37.54-50.95,62.85-77.26,43.26-8.71-6.48-10.76-18.15-7.42-28.23.11-.34,2.67-5.19,3.13-6.05,3.56-6.51,23.75-14.56,21.4-2.69-1.05,5.29-8.12,6.65-6.44,12.26.26.87,6.02,6.82,6.85,7.19,8.32,3.72,24.54.58,27.52-9.43,3.35-11.25-2.91-17.47-12.33-21.76-11.75-5.36-26.51-7.95-38.75-12.28-2.14-.3-1.16.31-1.58,1.39-1.18,3.07-.42,6.13-1.14,8.86-6.72,25.82-29.2,47.85-57.3,45.77-22.66-1.67-32.26-25.8-18.28-43.4,6.84-8.62,32.44-20.13,37.77-4.25-.69,3.45-21.77,9.12-13.4,19.56,7.02,8.76,22.84.02,27.88-7.01,4.53-6.32,5.8-18.98,1.98-25.85s-15.68-11.37-21.31-16.69c-28.88-27.21-12.99-67.53,20.21-81.58,27.55-11.66,89.66-10.28,108.1,17.27,13.72,20.5-1.98,46.16-22.88,53.97-16.73,6.25-40.74-1.75-44.31-20.78-1.96-10.45,5.37-20.38,16.16-19.2s5.55,12.05,11.62,15.42c7.44,4.13,16.21-8.3,12.75-14.26Z"/>
  <path d="M870.03,517.98l-5.03-6.49,2.04-1.98c-2.59-5.46-7.21-11.45-14-8.97-2.06.75-8.96,7.18-9.78,9.22-4.88,12.05,2.76,24.49,15.35,26.13,19.17,2.49,36.21-8.27,45.23-24.54,6.88-12.41,3.65-10.76-1.59-21.1-9.91-19.52-24.93-57-48.08-63.92-6.37-1.9-18.04-1.91-22.07,4.27-3.54,5.42,4.47,10.36-3.12,13.89s-15.91-8.78-14.96-15.9c3.28-24.68,33.4-36.52,55.37-30.48,24.34,6.69,49.33,54.57,63.89,75.11.81,1.14.73,2.22,2.71,1.78.1-1.41-.32-3.11.06-4.43,2.95-10.26,14.2-30.7,12.88-40-.8-5.62-5.31-14.07-12.18-12.36-3.21.8-5.56,6.13-9.66,4.68-7.25-13.32,9.9-25.16,20.93-29.15,13.05-4.73,24.94-1.48,31.22,11.29,11.8,24-10.74,47.55-17.93,69.8-4.46,13.8-9.52,39.61-.7,52.07,2.74,3.87,8.29,5.48,12.73,3.95,1.49-.51,2.26-3.15,3.61-4.38,5.93-5.43,10.31-.28,10.82,6.29,1.56,20.24-18.86,35.22-37.42,25.41-14.43-7.63-19.61-22.65-26.84-36.13-9.73,15.25-19.37,28.93-36.53,36.45-23.34,10.23-59.7,8.16-70.03-18.91-11.04-28.94,16.02-66.91,48.12-60.12,18.73,3.96,24.53,31.99,4.98,38.54Z"/>
  <path d="M946.64,839.63c-19.28,14.47-65.89,33.33-56.97,64.19,3.57,12.36,24.67,17.11,35.81,16.15,7.09-.61,22.29-7.96,25.04-14.96,4.54-11.58-3.22-24.32-15.19-16.58l.23,7.62c-6.46,4.86-12.96-7.88-12.28-12.37.07-.46,2.91-7.95,3.29-8.62.75-1.33,6.1-6.57,7.5-7.5,14.72-9.86,34.4-1.65,40.71,14.15,8.2,20.53-2.58,40.11-19.87,51.69-29.02,19.44-88.61,15.85-103.78-20.03-10.19-24.09,4.1-35.49,6.86-57.89,1.19-9.62,2.35-34.65-.91-43.06-5.3-13.66-22.42-5.01-22.1,7.02.16,5.9,5.48,11.21,6.99,17.08-4.12,10.32-17.78-5.92-20.02-10.98-2.96-6.66-2.8-20.68-.43-27.53,6.16-17.82,28.04-28.78,45.94-30.06,28.81-2.07,62.4,16.29,89.1,4.1,4.44-2.03,4.56-5.95,11.51-3.61,2.93.98,6.31,7.65,7.43,10.56,9.01,23.43-11.12,47.32-28.85,60.63ZM922.37,827.38c5.76-5.19,23.16-17.79,13.15-25.4-5.98-4.54-26.65-5.05-34.07-4.03-1.02.14-10.05,3.18-10.47,3.53-2.07,1.73-.63,31.47-.99,37.01-.4,6.01-1.75,11.98-3.99,17.5l34.37-26.17c.93-.57,1.29-1.81,2-2.44Z"/>
  <path d="M377.39,872.62c21.91,20.42,12.34,54.69-14.09,66.18-20.31,8.83-67.18,9.82-69.3-20.32-1.01-14.39,13.52-33.55,29-25.46l-8.86,11.32c3.53,6.81,7.42,11.59,15.47,12.56,7.78.93,21.9.64,24.86-7.89,2.02-5.81,3.27-10.46-.48-15.49-13.48-18.1-68.87-19.87-54.86-54.87,4.93-12.32,25.97-22.06,25.95-33.13-.02-11.86-3.85-14.59-15.58-14.59-18.27,0-36.24,11.05-40.43,29.66-7.34,32.6,25.52,50.72,11.61,88.61-8.98,24.46-34.47,40.9-58.17,23.82-22.07-15.91-2.38-53.8,23.03-45,3.93,6.15-8.17,11.64-3.23,17.71,7.74,9.5,20.02,2.27,21.63-8.27,2.95-19.4-19.06-34.87-24.99-52.88-15.85-48.15,44.41-87.46,87.48-79.48,22.21,4.11,49.43,23.11,34.39,48.25-7.16,11.97-20.38,18.34-28.34,28.66-.89,1.15-2.63,2.86-2.33,4.38,6.83,9.08,19.73,10.13,30.06,14.93,7.03,3.27,11.72,6.24,17.18,11.33Z"/>
  <path d="M749.01,131.01c-6.2-26.66,27.5-27.38,34.31-4.83.41,1.37,2.67,9.78,2.67,10.32,0,1.26-1.69,2.46-1.95,4.06-3.9,24.17-18.94,38.87-43.61,42.4-13.92,1.99-30.99-10.06-45.98-8.98-8.09.58-13.86,5.64-20.19,6.8-29.79,5.47-51.5-27.15-57.01-52.53-7.71-35.51,15.25-88.56,47.44-107.05,16.73-9.61,38.08-11.26,55.21-1.6,34.18,19.29,28.54,69.4,16.87,100.68-3.82,10.24-9.37,19.74-14.78,29.2.76,1.18,1.99,1.4,3.19,1.84,1.55.58,14.95,3.7,16.34,3.76,1.55.07,10.36-2.44,11.86-3.21,9.98-5.16,10.43-25.9-4.37-20.87ZM656.01,68.99c14.83-6.62,35.4-5.49,41.47,12.03,5.62,16.22-2.09,31.31-15.75,40.21-4.4,2.86-13.69,8.4-12.73-1.63.67-7.08,11.76-6.2,9.94-19.04-2.99-21.04-29.07-13.27-30.92,4.96-2.71,26.7,14.12,49.37,42.43,45.43,10.39-1.45,12.49-10.52,15.59-19.41,7.24-20.77,17.29-67.2-.56-83.5-19.27-17.6-43.61.02-49.46,20.96Z"/>
  <path d="M921,155.99c13.19,1.29,36.12-5.12,37.93-20.6.69-5.93-4.97-14.84-10.94-11.9-2.6,1.28-2.05,5.91-4.49,5.54-12.22-5.99-1.22-25.48,9.09-26.94,34.6-4.91,36.47,35.35,19.43,55.44-22.23,26.21-67.77,30.26-99.26,23.21-39.18-8.78-57.29-66.25-36.19-98.65,5.23-8.03,14.46-11.91,14.22-22.59-.19-8.4-6.42-13.74-14.75-10.94-6.84,2.3-4.31,7.02-5.1,11.89-2.3,14.15-15.62-.52-16.86-9.03-3.3-22.64,22.06-36.11,41.37-37.46,31.29-2.18,63.66,17.94,91.98,12.98,10.22-1.79,18.27-13.45,30.12-8,2.72,10.15-3.05,21.08-11.07,27.06-11.97,8.94-32.33,3.15-42.04,15.96-15.07,19.88,5.48,46.18,5.58,67.59.04,9.45-4.16,18.61-9.04,26.44ZM906,50.02c-9.24-6.04-19.39-6.3-30-8.01,6.44,20.21-10.55,33.95-17.18,50.32-5.9,14.56-4.08,26.08,2.3,40.05,2.74,5.98,11.35,18.64,17.8,20.2,9.22,2.23,16.49-1.59,20.29-9.85,10.52-22.89-9.68-50.12-1.69-75.69,1.68-5.39,5.9-11.85,8.47-17.01Z"/>
  <path d="M753,210.01c1.05,1.02-6.72,10.59-7.7,12.79-9.68,21.88-.92,57.86-7.8,84.2-4.16,15.95-10.7,24.9-23.24,34.71-.82.64-1.83-.03-1.27,2.28,9.98,2.93,19.43,2.9,29.01-1.49,8.89-4.08,14.5-15.28,12.94-24.95-1.25-7.71-17.31-10.87-6.28-18.4,9.65-6.59,22.53-.72,28.78,7.9,19.41,26.76-9.06,55.24-34.26,63.62-28.06,9.34-80.48,2.99-98.02-23.34-9.83-14.75-11.26-34.47,1.85-47.83,1.74-1.77,8.93-4.99,6.94-7.45-.31-.38-7.67-2.53-9.19-3.33-12.06-6.36-20.99-13.92-26.19-26.82-1.78-4.42-3.76-11.22-2.55-16.22.18-.74,1.73-.58,1.94-1.39,4.81-19.02,15.7-30.58,34.86-36.97,25.22-8.41,57.59-1.66,77.83,15.6,6.78-5.17,13.62-11.27,22.35-12.91ZM696.65,335.65c18.47-17.23,12.31-51.51,13.31-74.18l3.93-16.81c-13.01-11.98-37.27-17.3-52.23-6.48-6.05,4.37-7.15,7.88-6.71,15.36.93,15.79,16.49,19.48,29.58,20.51,4.07.32,13.43-2.51,15.24,3.67,5.09,17.42-21.56,18.68-27.42,27.63-7.6,11.61-1.95,24.12,9.32,30.48,5.72,3.23,9.55,4.9,14.97-.17Z"/>
  <path d="M362.65,407.35c20.21,21.24,9.92,50.33-16.12,60.68-14.85,5.9-40.25,5.16-46.71-12.34-1.81-4.9-1.81-9.13.33-14.04,2.29-5.25,15.66-16.22,20.83-11.13,5.6,5.51-5.62,10.67-3.49,16.41,3.55,9.58,20.89,6.38,22.45-3.48,1.39-8.8.45-16.51-7.01-21.88-21.06-15.16-73.82-1.65-62.73,28.73,11.76,32.19,74.04,20.37,68.84,58.25l-5.04,12.45c10.19-3.64,29.27-7.85,37.54.95,2.44,2.59,5.86,11,5.55,14.56-.35,4.01-4.94,14.2-7.55,17.53-4.27,5.47-19.27,16.23-23.78,6.7-3.06-6.47,2.09-4.19,4.31-7.17,4.2-5.63-6.32-10.67-11.58-10.66-21.59.03-47.44,17.37-69,19.08-18.98,1.5-41.12-1.63-45.27-23.74-2.56-13.67,22.16-34.56,35.09-27.06,7.54,4.38-4.43,11.92,1.73,17.28,12.9,11.21,52.41-3.32,42.84-21.84-4.46-8.63-29.8-13.97-39.54-18.46-24.35-11.23-44.65-31.8-30.73-60.06,8.84-17.94,33.69-33.01,52.98-37.02,3.67-.76,22.08-3.25,24.97-3.15,2.26.08,3.37,1.82,4.99,2.01,16.56,2.03,33.8,4.46,46.1,17.39Z"/>
  <path d="M557.31,431.31c-7.97,9.17-7.96,23.71-7.3,35.18.95,16.65,4.85,24.23-.08,41.95-.59,2.13-7.5,13.99-6.93,14.56,4.53-1.69,8.94-4.48,13.55-5.94,1.76-.56,10.74-2.94,12-3.04,5.76-.42,12.48,4.89,14.74,9.98,5.4,12.16-2.01,29.84-12.26,37.54-13.51,10.17-4.27-8.03-16.01-11.07-21.45-5.56-48.9,11.08-71.49,12.57s-39.39-2-54.06-19.03c-34.38-39.94-2.37-97.91,49-93,18.75,1.79,35.38,12.55,32.43,33.4-1.07,7.55-15.05,21.62-22.89,18.06-6.75-3.06.64-6.88,1.4-11.37,1.61-9.47-3.76-13.88-11.63-17.19-.74-.31-.78-1.71-1.5-1.87-7.21-1.65-15.39,2.34-20.34,7.42-15.88,16.29-12.18,48.73,10.49,56.6,18.35,6.37,40.47-.56,50.74-17.36,3.5-5.73,5.45-11.38,5.85-18.15,1.36-22.88-3.95-45.8,7.93-66.98-.47-1.03-1.45-1.26-2.38-1.66-7.61-3.25-33.36-11.16-41.11-11.89-5.42-.51-15.61-.56-19.53,3.71s-1.46,10.56-6.47,15.26c-11.25,10.56-17.93-6.3-17.5-16.44.48-11.28,9.76-22.87,20.15-26.91,33.29-12.95,58.12,11.26,89.08,7.08,7.66-1.03,26.36-14.18,27.78.89.31,3.24-4.3,12.01-6.47,14.42-3.89,4.33-13.47,8.97-17.21,13.28Z"/>
  <path d="M334.65,19.39c.26.08.34,1.31,1.12,1.53,6.27,1.76,18.04,1.82,24.11-.53,7.43-2.88,10.71-10.9,15.81,3.42,7.01,19.68-14.93,45.36-35.14,42.13-11.04-1.77-4.17-19.19-16.52-22.47-30.83-8.19-59.94,6.72-69.97,37.1-12.25,37.11,12.3,74.7,52.43,73.43,8.53-.27,25.12-4.48,28.59-13.41.37-.96,2.89-12.43,2.85-13.1-.04-.73-3.32-11.04-3.93-11.98-5.53-8.64-21.95-12.89-30.93-7.92-3.64,2.01-4.71,6.43-7.7,8.78-1.61,11.33-13.75,16.9-19.59,5.36-7.32-14.46,4.11-25.36,12.08-36.43.92-3.43-7.58-7.99-2.14-19.01,2.95-5.97,20.83-11.47,23.07-3.57,1.03,3.64-.88,8.5,1.39,12.12,15,2.07,31.61,6.29,43.74,15.76,24.22,18.91,17.91,60.01-4.87,77.96-41.15,32.43-102.53,8.41-123.21-35.88C192.72,61.79,265.47-2.76,334.65,19.39Z"/>
  <path d="M741.34,639.66c7.6,9.8,24.66,10.52,34.22,22.3,17.23,21.25,2.03,53.47-16.54,68.57-65.93,53.63-176.02-10.03-133.79-93.79,22.73-45.08,92.18-71.5,136.23-43.71,12.12,7.65,28.04,31.31,9.05,39.98-3.45-4.62-2.81-8.62-7.6-12.43-6.85-5.46-16.67-5.69-21.93,1.92-3.04,4.41-2.95,12.91.34,17.16ZM738,605.01c-6.82.6-12.48-3-19.45-1.95-19.98,3-36.86,8.9-51.06,23.93-9.98,10.56-18.57,25.07-18.48,40.01,13.96-14.11,31.43-19.3,51.05-15.56,18.76,3.58,31.57,27.56,16.59,42.2-5.63,5.5-7.89,5.03-14.69,5.81-3.71.42-8.22,3.4-10.46-1.48-2.94-6.4,8.63-6.16,8.6-13.47-.05-10.98-18.87-15.92-27.54-14.44-5.62.96-13.56,5.49-14.46,11.54-3.62,24.29,21.24,42.12,43.39,42.48,18.34.29,47.19-13.33,49.51-33.57,2.59-22.51-15.45-24.15-25.44-39.57-12.66-19.56-1.24-31.82,12.43-45.92Z"/>
  <path d="M1368.65,786.65c-4.18,4.37-13.31,4.07-19.14,8.36s-12.07,16.75-13.4,23.6c-4.25,21.96,8.86,43.18.1,65.1-4.06,10.15-13.11,18.42-22.23,23.79l.03,2.5c6.33-1.17,13.08,1.01,19.43-.06,18.62-3.12,33.03-24.87,26.48-43.17-.27-.77-1.96-.5-2.03-2.24-.6-13.36,16.09-10.74,22.1-3.02,8.16,10.47,5.7,30.42,1.03,42.02-8.92,22.2-33.89,37.91-57.48,39.52-24.19,1.65-39.71-7.12-62.13-9.97-4.74-.6-9.9.48-14.68-.32-8.13-1.36-16.49-10.49-20.99-17.01-23.97-34.66-1.08-88.71,37.81-101.69,8.18-2.73,14.02-3.77,22.17-.28,12.14,5.19,16.16,18.39,12.06,30.52-2.44,7.24-11.4,14.55-18.23,17.77-2.21,1.04-5.9-.06-5.58,2.93-7.62-4.49,1.98-13.96,2.86-20.35-4.62-7.87-12.06-6.72-18.8-2.1-13.42,9.18-13.52,33.32-4.45,45.37,10.82,14.38,28.66,17.58,45.75,15.92,14.77-14.29,11.24-32.03,10.61-50.38-.35-10.43-1.53-21.21-.99-31.99.31-6.05,2.38-13.18,1.98-19.81-.33-5.47-3.25-10.31-8.96-11.24-6.05-.99-16.29,12.47-19.55-1.34-2.82-11.92,9.34-20.63,20.1-21.06,16-.63,29.71,7.66,47.87,2.89,6.61-1.74,10.05-6.45,17.98-1.77,5.72,3.37,4.39,13.22.27,17.53Z"/>
  <path d="M1342.27,282.73c-7.84-7.71-.8-24.13,10.06-23.6,4.25,1.4.17,10.23,7.41,11.69,10.93,2.21,14.59-17.59,2.95-25.01-10.59-6.75-22.94-3.61-31.21,5.17-23.04,24.44,10.25,60.25-11.48,85.01,12.71-2.81,33.46-4.52,40.19,9.32,5.65,11.62,2.16,23.96-9.63,29.68-3.6-7.23-6.52-11.22-15.04-12.02-29.23-2.74-51.92,22.87-82.43,8.44-7.75-3.67-14.72-10.89-18.29-18.71-5.09-11.14-4.13-22.56.48-33.92,4.18-10.3,11.87-18.3,17.1-27.9,6.65-12.2,14.1-32.44.64-42.4-11.81-8.73-29.18,7.46-19.52,17.52,3.19,3.32,12.64,5.09,4.22,11.21-12.9,9.37-26.07-7.36-26.75-19.68-1.89-34.31,47.36-50.2,67.47-23.47,11.97,15.92,12.72,36.24,5.28,54.14-4.88,11.75-17.64,29.15-19.53,40.28-1.31,7.75,8.93,19.87,17.05,18.32,9.32-1.78,15.49-6.32,18.72-15.35.72-2.02,3.2-12.2,3.12-13.95-.11-2.32-1.64-3.71-1.85-5.23-3.31-23.56-8.34-43.99,2.96-66.59,13.21-26.42,46.71-40.63,73.14-24.51,33.36,20.35,9.77,73.09-26.6,65.6-.88-.18-7.99-3.58-8.46-4.04Z"/>
  <path d="M482.21,814.8c-.82-1.4-.24-6.03.22-7.87,1.14-1.61,9.65-.21,10.36-7.67.34-3.61-3.28-8.67-6.55-10-11.82-4.79-24.43,5.68-27.73,16.74-5.79,19.44,7.56,35.5,23.62,44.37,9.05,4.99,23.18,7.99,27.62,18.38,3.97,9.3,1.46,21.88-8.26,26.13-2.2-1.85-2.14-4.62-3.93-6.94-5.65-7.33-22.17-9.39-25.3.8-4.55,14.8,4.55,26.12,18.54,29.96,25.55,7.01,53.74-2.66,51.24-33.25-1.98-24.25-27.45-33.73-26.08-65.01.97-22.09,23.25-48.71,47.11-43.02,4.49,1.07,9.96,6.91,8.73,11.81-2.27,9-10.16,7.27-16.53,9.52-12.53,4.44-17.79,20.1-13.3,31.78s23.27,22.89,29.96,35.26c16.15,29.86-6.27,59.89-34.23,71.4-30.84,12.7-104.86,14.03-99.76-34.76,1.29-12.31,9.34-21.13,18.06-28.94,1.38-1.23,7.4-3.95,6.01-5.48-3.15-.57-5.76-2.43-8.31-4.2-22.8-15.85-35.54-40.36-25.46-68.09,8.52-23.45,38.94-36.76,62.59-31.04,20.09,4.86,27.24,28.69,15.18,44.81-2.51,3.35-11.5,9.58-15.49,9.6-1.26,0-8.01-3.82-8.29-4.3Z"/>
  <path d="M757.4,802.62c18.46,37.97-9.28,84.84,18.18,121.29,1.99,2.65,7.2,6.31,8.01,9.07,1.32,4.51-2.94,6.96-7.08,7.13s-14.12-3.22-18.03-5.1c-13.81-6.63-23.82-21.33-27-36.01-2.99.05-11.14,15.41-13.49,18.51-22.01,28.91-65.9,39.34-90.43,7.44-28.08-36.51,13.74-101.62,52.13-83.13,16.64,8.02,18.32,33.54-.32,39.91-2.27.05-9.83-2.12-9.3-5.08,11.04-10.31-3.78-19.31-13.6-9.67-6.92,6.8-7.75,21.28-1.99,29.06,20.9,28.26,63.05,10.69,72.23-19.83,12.57-41.79-.53-84.58-51.19-80.19-8.51.74-31.74,8.54-35.94,16.06-2.27,4.05-2.68,14.86-10.26,10.13-10.23-6.39,1.5-26.34,7.17-33.21,31.26-37.85,99.46-30.51,120.92,13.63Z"/>
  <path d="M1368.66,515.34c-2.09-2.08-10.09-4.56-11.17-6.33-2.91-4.76,2.86-13.89,7.56-15.47,2.54-.86,8.79-.94,11.51-.62.32.04,5.06,3.16,5.49,3.51,19.94,16.12,6.66,49.23-12.35,60.76-4.46,2.71-8.41,3.4-12.94,4.88-.9.29-.75,1.73-1.45,1.9-15.79,3.76-36.01-11.91-41.25-26.53-6.48-18.09.55-39.03,9.57-55.31,7.23-13.05,20.63-25.69,19.06-42.5-1.51-16.19-27.97-14.45-38.58-8.02-28.53,17.27-16.29,65.76-25.43,93.57-5.41,16.45-22.06,36.36-40.13,38.87-6.77.94-15.57-1.22-17.34-8.75-2.12-9,2.48-6.79,6.81-8.78,8.42-3.87,15.88-11.95,19.47-20.53,5.86-13.99,5.95-47.9,4.52-63.5-.4-4.38-2.89-19-4.31-22.69-3.71-9.61-12.97-14.59-19.66-4.26-4.33,6.7-2.19,6.68-2.22,13-.03,7.61-11.99,3.63-15.22-3.65-7.03-15.84,11.64-39.77,28.01-41.78,16.01-1.97,24.98,2.87,34.8,14.97l7.07,11.9c.9-.43,6.78-12.53,8.98-15.03,20.09-22.84,67.05-21.47,81.37,7.7,15.47,31.49-16.69,51.57-25.87,77.8-3.81,10.88-5.88,26.55,4.68,34.39,13.96,10.37,27.19-11.35,19.02-19.51Z"/>
  <path d="M1143.34,242.35c-.53.68-2.15,4.38-2.28,5.22-3.81,24.46,25.22,47.5,10.34,73.34l-12.4,17.09c14.02-5.58,33.35.27,37.73,15.77,2.02,7.15,1,24.9-9.82,21.81-3.11-.89-2.16-5.17-6.03-7.96-5.07-3.66-12.26-5.19-18.43-4.65-26.65,2.32-53.54,18.09-80.63,7.72-33.17-12.69-34.09-46.77-17.83-74.19,8.13-13.71,34.09-36.1,19.27-52.53-4.89-5.43-9.15-3.74-15.6-4.65-7.21,3.73-17.02,10.59-12.43,19.96,2,4.09,7.56,4.25,2.77,9.95-4.15,4.94-14.71,3.65-19-1.01-6.5-7.06-7.69-19.31-4.39-28.1,3.7-9.84,17.12-22.83,27.21-25.79,31.79-9.3,60.45,11.27,57.16,45.16-2.59,26.58-39.48,42.58-30.73,71.76,1.5,4.99,10.98,12.94,16.33,13.67,15.56,2.11,28.56-2.21,34.47-17.35,6.86-17.59.96-32.14-1.79-49.33-2.14-13.35-4.38-23.96-.83-37.29,4.9-18.42,18.01-27.07,36.29-29.7,14.58-2.09,33.66,11.69,32.34,27.33-.15,1.79-2.31,8.53-3.17,9.84-.65,1-6.35,4.54-7.21,4.41-.66-.1-7.07-3.54-7.74-4.28-4.2-4.64.2-11.35-10.57-12.47-4.44-.46-10.43,2.9-13.05,6.28Z"/>
  <path d="M830.73,579.32c11.33,5.17,27.65,4.58,40.76,3.66,8.06-.57,30.7-7.78,25,9.55-3.72,11.3-14.25,7.6-20.54,11.92-7.57,5.2-10.61,15.47-5.39,23.51,7.66,11.8,35.38,11.92,47.89,9.99,11.43-1.77,8.46-11.67,10.67-20.33,5.05-19.79,15.43-39.88,40.16-35.38,8.14,1.48,16.37,12.55,17.67,20.32s-3.93,20.35-13.44,19.48c-8.79-.8-2.68-5.23-5-10.04s-6.97-2.3-9.97.04c-11.41,8.89-8.81,22.76-10.58,35.42-.23,1.67-1.48,2.93-1.72,4.28-.58,3.29.14,6.89-1.54,9.96-2.42,3.36-16.75,2.53-21.23,2.35-3.7-.15-9.24-.64-12.95-1.05-12.46-1.39-24.44-5.12-36.43-8.6l-2.07,1.13c2.74,20.01-2.55,42.53,14.52,57.45,4.12,3.6,9.5,7.47,15.28,6.85,1.08-3.25,4.31-4.76,6.04-7.47,5.68-8.93,6.16-23.09,18.14-25.86,6.59-1.52,9.61-.66,11.63,6l-12.61,24.5c11.55-2.23,23.49-5.79,30.97-15.52,3.5-4.56,4.33-11.24,10.72-12.27,6.96,2.57,5.35,11.07,4.03,17.03-3.96,17.86-15.9,30.33-31.85,38.15-24.63,12.08-56.82,9.84-78.81-6.94-30.34-23.15-15.6-57.11-23.36-89.64-4.02-16.84-21.98-41.21-22.62-54.46-.43-8.89,7.66-18.12,16.64-14.02Z"/>
  <path d="M509.34,330.32c-1.16,1.61-7.22,9.62-6.34,10.67,12.93,1.81,32.04,7.12,43.51-.98,3.85-2.72,11.29-11.72,11.56-16.52.38-6.83-7.13-11.67-13.05-8.97-2.34,1.07-3.93,6.66-7.6,3.56-.45-.38-3.04-5.27-3.04-5.59,0-.72,4.13-9.22,5.1-10.52,9.43-12.64,29.43-10.69,38.52,1.53,2.64,3.55,2.79,5.99,4.09,9.71.29.84,1.71.79,1.87,1.49,1.28,5.47-2.23,16.88-4.49,22.27-5.77,13.76-21.86,27.27-35.93,32.07-15.21,5.19-27.54,5.54-43,2.9s-47.35-13.05-61.8-8.7c-5,1.51-14.33,13.51-18.45,2.98-4.55-11.63,7.43-25.43,17.43-30,12.62-5.77,22.93-3.14,35.67-.14,2.83.67,3.74,3.31,7.17.98s10.47-15.12,12.58-19.42c8.74-17.81,19.18-49.65,12.37-68.67s-37.74-28.2-50.96-9.91c-6.98,9.66-4.64,22.66,8.2,24.76,3.05.5,9.71-3.16,10.77-5.85,1.13-2.86-3.49-14.71,3.88-13.99,13.7,1.34,12.74,26.06,4.64,34.57-26.92,28.3-70.95,3.47-60.74-35.74,12.15-46.68,96.85-53.59,117.84-10.47,15.74,32.34-11.53,72.62-29.82,97.98Z"/>
  <path d="M90.62,876.4c.68.34,4.85,3.44,5.41,4.07,2.69,3.06,6.54,11.24,3.89,14.95-4.71,6.6-11.57-1.64-17.92,0-7.98,2.07-10.15,11.19-5.54,17.61,15.13,21.07,61.57-1.52,66.86-23.22,3.61-14.83-1.79-34.35-13.38-44.25-8.09-6.92-11.87-8.44-16.67-19.33-8.07-18.27-2.99-22.78,5.76-37.71.72-1.22,1.31-1.92.98-3.52-22.17-3.65-59.22,1.33-60.99,29.51-.53,8.4,1.11,13.17,7.51,18.49,10.51,8.74,27.3,5.33,37.87-1.92l8.48,13.6-.31,1.31c-1.12,1.76-15.13,10.42-17.68,11.39-22.18,8.41-53.21,1.47-67.89-17.89-13.2-17.42-1.38-42.95,13.47-55.53,26.34-22.3,84.93-26.24,113.85-7.8,12.22,7.79,25.13,24.98,10.18,36.78-5.13-5.94-6.48-14.06-16.14-14.87-14.85-1.24-15.69,14.46-8.77,23.82,11.09,14.99,29.1,15.3,36.68,39.12,20.3,63.75-78.06,103.29-120.75,69.95-31.12-24.31,2.53-70.86,35.1-54.57Z"/>
  <path d="M1152.59,471.61c-8.32,15.99-24.41,27.59-21.33,47.63,1.35,8.8,10.36,16.39,19.22,16.81,16.14.76,18.9-9.15,16.52-23.05-2.72.16-5.6-.39-8.3.21-3.79.85-6.87,7.74-10.14,2.72-4.4-6.75,2.46-22.33,10.18-24.69,22.88-6.97,37.34,13.64,32.01,35.01-6.78,27.18-47.01,42.84-71.08,29.57-23.12-12.74-22.92-39.53-13.41-61.06,7.87-17.82,33.14-40.11,14.23-59.76-19.52-20.28-54.42-8.12-61.94,18.04-8.94,31.09,16.05,54.83,5.25,82.25-6,15.24-20.74,25.25-37.29,23.69-11.07-1.04-18.65-10.27-16.48-21.47,1.83-9.47,15.09-4.09,20.55-6.45,9-3.89,6.01-21.6,4.31-29.46-5.36-24.73-13.7-38.06-2.08-64.31,31.09-70.22,160.6-44.16,119.78,34.3Z"/>
  <path d="M484.38,595.61c16.4,14.93,27.25,43.57,33.66,64.85,4.38,14.55,6.22,38.98-10.79,46.28-5.11,2.19-24.03,3.28-22.1-5.03,3.35-5.56,10.5-2.88,12.62-10.43,6.94-24.62-32.91-25.06-36.53-3.54-2.73,16.19,6.09,31.54,21.57,36.96,23.89,8.36,57.76.1,65.71-26.68,9.69-32.63-22.17-40.56-27.28-69.75-3.13-17.91,15.84-44.56,35.2-41.2,12.25,2.13,25.8,16.07,26.29,28.7.27,6.9-7.57,23.47-14.5,13.75,7.1-6.7-3.17-19.91-11.48-18.32-8.17,1.57-10.71,10.91-9.51,18.08,2.43,14.49,27.45,27.95,29.75,50.25,6.05,58.67-80.29,89.95-124.9,54.9-43.3-34.01-11.23-93.87,39.91-80.42,1.09-1.01-12.88-23.65-14.56-25.93-10.07-13.7-26.68-27.57-44.44-20.57-8.37,3.3-12.08,10.25-16.51,17.5-11.34-5.47-2.33-24.38,3.53-31.48,18.06-21.87,45.76-14.85,64.36,2.09Z"/>
  <path d="M1129.36,899.65c2.28,4.06,11.43,10.57,16.23,11.26,12.47,1.79,21.15-1.27,25.08-13.74,1.6-5.07,2.45-8.53-1.67-12.67-10.29-10.31-13.38,5.6-17.51,5.56-6.55-.06-7.92-22.26.12-26.95,6.8-3.97,13.23-3.54,20.11-.33,31.04,14.5,19.21,59.47-7.53,73.11-4.32,2.2-20.48,7.55-24.59,7.11-5.37-.58-15.97-3.52-20.96-6.13-14.85-7.77-24.43-22.34-23.61-39.36.46-9.59,7.46-23.2,12.16-31.83,10.28-18.85,39-48.86,15.32-67.66-3.42,5.25-6.13,12.04-10.07,16.91-19.46,24.13-66.96,23.28-70.42,64.58-1.74,20.8,5.23,37.13,27.79,38.68,4.28,10.76-6.4,18.57-16.35,17.87-28.61-2.03-46.1-29.36-42.53-56.63.1-.73,3.12-11.13,3.77-13.24,6.07-19.79,25.71-37.12,43.63-46.37,13.79-7.11,42.94-14.3,51.09-26.91,6.25-9.66,1.88-28.11,19.86-24.68,16.26,3.11,32.16,22.75,32.77,39.22,1.17,31.51-48.19,64.56-32.68,92.19Z"/>
  <path d="M286.07,709.11c5.55-2.44,13.47-4.38,13.99-11.62,1.36-18.97-33.52-17.14-37.59-1.51-4.81,18.45,9.64,31.63,26.35,34.71,23.67,4.37,52.68.35,62.39-24.99,9.08-23.71-15.83-32.17-24.38-50.02-8.49-17.72-.89-34.88,16.12-43.23,9.36-4.59,14.78-4.21,24.33-.22,15.98,6.67,27.57,28.57,7.2,37.43-6.27-3.27-.93-5.07-1.46-9.05-1.25-9.34-13.29-13.35-20.54-6.63-14.33,13.3,16.94,32.9,22.92,44.12,18.56,34.81-23.75,65.86-54.01,71.79-29.33,5.74-72.6-1.29-86.25-31.53-10.31-22.85,7.25-44.53,29.04-50.68,10.62-3,19.26-.62,29.81-.18-10.2-14.19-19.59-32.53-37.02-38.98-8.51-3.15-15.41-4.31-23.98-1.02-6.67,2.56-11.82,7.74-14.97,14.05-5.64.8-7.78-4.74-6.8-9.82,3.8-19.79,26.13-31.27,45.03-28.5,26.81,3.94,42.23,22.88,53.13,45.87,7.83,16.51,23.33,47.71,5.08,61.86-6.53,5.07-25.89,8.26-28.4-1.86Z"/>
  <path d="M1086,606c1.5,4.66,5.48,7.64,6.93,12.57,3.74,12.68-2.22,21.59-7.03,32.63-9.2,21.13-16.43,34.94-2.26,57.67,15.28,24.52,61.95,20.64,62.39-12.41.24-17.4-17.57-44.96,8.45-54.47,2.99-1.09,13.5-4.5,13.31.71-.32,4.2-5.65,4.24-7.49,5.62-.23.17-3.83,3.77-4,4-8.17,11.38,15.08,20.97,17.25,33.65,7.12,41.6-30.4,65.95-68.04,63.04-24.95-1.93-55.25-18.17-60.4-44.6-2.4-12.29-1.14-27.02,3.19-38.6,4.46-11.95,25.89-39.1,12.59-50.18-6.66-5.55-17.57-1.63-19.46,6.35-1.03,4.37,3.82,13.32-6.71,12.89-11.4-8.17-4.18-27.53,3.31-36.32,17.15-20.14,42.58-19.87,66.36-14.42,12.23,2.8,27.58,11.33,39.05,12.94,4.89.68,12.65-1.68,16.91-4.19,3.46-2.04,4.46-5.93,9.41-6.66,11.11-1.64,5.73,15.1,1.66,20.72-14.94,20.59-39.63,12.02-59.41,4.58-1.82-.69-9.92-5.49-10.51-5.49h-15.5Z"/>
  <path d="M166.65,590.35c13.13,12.83,13.99,38.63-4.63,46.17-.81.33-7.97,2.41-8.62,2.48-.89.09-13.57-2.81-14.14-3.27-1.44-1.16-2.66-5.72-1.77-7.7,2.45-5.47,13.86-.36,15.46-11.61,1.64-11.54-13.32-13.75-21.94-10.91-11.47,3.78-15.91,16.62-12.71,27.69,4.07,14.07,25.88,23.18,35.72,34.28,6.65,7.5,13.36,23.12,11.92,32.97-8.14,55.68-97.7,67.17-129.92,27.03-10.09-12.57-9.76-30.48-.52-43.47,1.91,5.39,3.43,10.64,6.33,15.66,12.98,22.5,48.32,34.64,71.85,23.51,15.91-7.53,21.9-25.84,12.68-41.04-11.64-19.2-41.85-30.19-42.42-56.6-.83-38.75,55.84-61.45,82.71-35.18Z"/>
  <path d="M787.42,412.62c.14.27,1.38.29,1.56,1.08,1.05,4.58-1.15,10.11-4.9,12.87-6.84,5.03-9.63-1.63-15.56-1.68-10.48-.08-18.58,12.14-19.49,21.63-2.38,24.72,13.77,51.5-4.02,73.96,2.01,3.12,3.65.05,5.71-.27,5.59-.87,12.47-2.89,17.82-2.23,17.33,2.14,17.73,22.39,10.66,34.72-2.65,4.61-15.11,18.64-20.29,11.91-2.02-2.62-.63-7.42-5.98-11.02-19.81-13.35-47.61,10.66-68.38,10.46-9.4-.09-28.53-6.94-30.5-17.58-2.85-15.38,9.05-36.77,15.14-50.77,2-4.58,3.44-14.36,7.89-17.11,2.1-1.3,6.31-2.62,8.62-1.85,13.07,4.36,10.58,21.77,6.49,31.95-2.76,6.89-12.43,16.98-6.22,23.86,5.43,6.03,17.81,3.82,24.21.12,6.67-3.86,14.67-12.38,15.75-20.25,2.71-19.76-6.68-35.73-6.95-54.86-.16-11.26,1.97-26.04,6.87-36.23,11.89-24.71,46.75-38.17,61.59-8.71Z"/>
  <path d="M540.62,112.64c-3.22,4.63-10.39,13.69-11.39,19.1-2.36,12.78,2.98,24.05,17.3,22.28,6.45-.8,15.15-12.13,13.28-18.3-2.28-7.57-18.27-5.88-8.32-17.72,9.31-11.07,23.62-3.94,28,8.01,7.77,21.16-7.31,42.84-26.12,51.88-15.23,7.32-35.88,8.01-46.82-6.94-20.66-28.23,14.16-63.23,23.63-88.25,6.53-17.24-1.94-42.16-22.68-41.77-5.8.11-17.78,7.65-19.3,12.78-2.97,10.02,2.87,11.43,8.63,16.94-4.51,15.1-24.71,8.61-26.77-5.21-7.28-48.97,73.15-74.8,93.15-24.15,11.9,30.12-7.12,49.12-22.6,71.35Z"/>
  <path d="M1347.44,621.58c.17.35,1.36.44,1.52,1.13,1.17,5.2-.86,11.87-3.19,16.55-4.84,9.71-14.04,12.07-21.8,18.21-15.91,12.6-32.7,42.75-14.86,59.92,10.42,10.03,29.02,10.19,40.39,1.61,9.55-7.2,13.68-19.18,4.94-28.94-2.59-2.89-5.69-4.88-9.69-3.83-8.11,2.14-4.13,8.05-5.64,10.3-4.73,7.09-13.57,3.34-15.67-3.48-3.96-12.87,6.64-23.24,17.73-27.38,30.73-11.45,52.27,16.54,41.78,45.78-12.29,34.26-62.6,48.95-92.88,29.96s-14.95-58.91,3.89-79.94c5.96-6.66,20.34-15.4,24.08-21.92,6.18-10.77-6.39-13.14-14.35-11.35-9.7,2.19-16.1,15.06-24.45,19.56-4.61,2.48-17.51,6.96-20.25.76,9.77-11.47,15.86-24.14,30.32-30.69s49.2-13.9,58.11,3.75Z"/>
  <path d="M101.32,457.69c-1.68-1.89-7.33-13.03-7.27-15.19.18-5.73,10.12-15.12,15.68-16.27,3.72-.77,11.96-1.11,13.13,3.5.54,2.14-.93,3.93-.92,5.82.05,5.38,10.02,9.14,14.62,6.5,10.39-5.97,7.56-17.8-1.67-23.44-17.38-10.62-54.25-8.15-65.25,10.53-9.59,16.28,2.47,34.37,12.84,46.87,5.95,7.17,12.79,13.07,19.51,19.49-1.13,1.1-3.77.45-5.24.24-9.76-1.4-35.14-12.68-44.06-17.93-39.56-23.29-33.05-60.51,6.61-79,26.43-12.33,67.53-13.17,93.93-.54,33.67,16.11,28.32,51.16-5.24,63.23-12.13,4.36-37.3,6.76-46.68-3.81Z"/>
  <path d="M139.73,231.27c-5.16-5.14-16.57-7.2-23.6-5.64-7.4,1.65-17.61,9.83-18.19,17.88-.42,5.82,6.86,12.75-3.92,14.09-7.5.93-13.16-4.9-14.04-12.07-6.38-51.97,91.33-71.82,99.97-8.97,4.37,31.77-19.52,47.4-29.8,72.09-.99,2.38-4.22,11.89-4.22,13.85,0,.55,1.99,9.54,2.31,10.76,2.34,8.98,15.94,12.89,20.01,3.48,2.06-4.77-3.27-11.07,1.74-14.3.79-.51,7.07,2.54,7.94,3.13,12.66,8.76,1.78,32.3-7.9,39.95-16.13,12.76-40.66,7.86-48.41-11.64-7-17.61-2.32-37.03,4.9-53.87s24.51-37.84,19.24-57.28c-.41-1.52-5.16-10.6-6.03-11.47Z"/>
  <path d="M62.74,200.24c6.18-1.07,10.25-.64,14.24,4.29,8.41,10.37-4.41,15.21-9.39,22.56-16.99,25.08,6.49,47.48,12.1,71.73,3.3,14.26,3.58,29.59-2.22,43.16-4.3,10.07-13.98,22.34-23.92,27.08-8.55,4.08-17.43,5.18-25.59-.51-3.93-2.74-11.08-13.48-11.9-18.1-1.21-6.85-.1-22.8,9.96-19.96,10.28,21.18,28.19-1.32,25.92-16.93-3.01-20.74-24.94-40.3-27.86-64.13-2.51-20.5,18.59-45.71,38.65-49.18Z"/>
  <path d="M76.59,535.46l1.08,1.43c20.65,4.61,55.13,4.74,55.41-24.4.18-17.81-11.3-26.47-22.09-38.48,16.64,4.19,47.34,14.04,53.33,32.16,10.82,32.75-23.98,54.49-52.06,58.6-22.78,3.33-59.71-2.16-73.73-22.81-18.95-27.92,9.16-53.59,38.64-45.64,9.7,2.62,24.95,15.27,15.81,25.17-8.66,9.38-7.01-4.91-13.73-8.23-4.71-2.32-10.08-.6-12.9,3.59-5.6,8.32,2.96,15.44,10.24,18.62Z"/>
  <path d="M438.33,23.33c7.58-5.53,28.35-11.62,36.95-7.11,2.35,1.23,3.97,5.11,3,7.48-2.48,6.07-12.26,10.35-16.71,16.37-28.29,38.22,29.58,74.35,10.62,119.62-6.33,15.12-23.53,25.34-39.9,20.54-4.35-1.28-9.44-5.86-9.19-10.74.39-7.69,9.7-6.78,14.79-10.1,26.91-17.51-6.7-50.36-14.62-69.15-9.34-22.16-5.17-52.14,15.07-66.9Z"/>
  <path d="M1335.67,597.65c-9.41,6.92-27.61,4.41-38.94,3.12-4.23-.48-6.44-2.56-12.18-1.71-15.77,2.34-29.26,14.39-35.05,28.94-8.63,21.68,2.61,30.16,7.98,49.02,5.87,20.65,1.94,48.01-16,61.95-6.02,4.68-13.61,9.37-20.46,4.49-.49-.35-4.12-4.24-3.91-4.82,3.64-6.52,11.35-6.56,15.9-13.14,11.54-16.69,1.79-30.33-5.11-45.7-12.18-27.17-13.02-54.69,8.13-78.28,18.87-21.04,45.52-25,72.36-19.42,7.49,1.56,12.41,6.08,21.34,3.12,2.87-.95,10.96-9.8,13.1-3.57,2.03,5.89-2.67,12.68-7.17,15.99Z"/>
  <path d="M145,95.5c-.15-.97-3.22-3.13-1.5-4.5,18.5,14.25,18.43,44.82,5.92,62.91-16.48,23.82-50.67,33.98-78.08,26.25-22.2-6.26-43.32-29.74-32.21-53.54,9.53-20.4,33.01-24.58,53.54-19.79,4.51,1.05,9.55,3.21,11.1,7.9.3.89,2.27,9.19,2.23,9.68-.1,1.5-4.36,11.62-5.51,12.57-2.25,1.86-6.81,1.16-9.56.58-1.61-11.34-7.34-13.92-17.9-10.04-15.87,5.83,1.51,24.98,11.94,28.01,13.56,3.93,34.25-2.01,44.56-11.51,4.56-4.21,15.48-19.71,15.48-25.52,0-6.61.93-16.99,0-23Z"/>
  <path d="M382,215.01c.5,2.34-.32,1.6-1.29,2.23-7.74,5.03-12.95,6.98-19.13,14.84-7.18,9.15-15.44,36.89-22.63,41.37-5.31,3.31-24.28,2.65-31.44,3.56-23.51,2.97-36.2,20.93-28.51,43.98-2,1.85-9.34-5.46-10.28-7.25-9.77-18.57-13-47.9-26.21-63.75-5.23-6.28-10.28-9.75-18.78-6.75-2.47.87-4.83,5.6-9.03,4.61-2.02-.48-4.34-4.35-4.66-6.41-1.71-11.17,8.2-21.3,17.68-25.21,23.88-9.83,42.05,8.37,49.95,29.6,1.21,3.26,2.56,14.31,5.31,15.69l41.49.46c7.04-1.35,12.4-20.82,15.81-27.19,8.63-16.14,23.08-26.18,41.71-19.78Z"/>
  <path d="M163.69,66.7c-10.73,13.68-28.43,13.96-43.9,8.21l-5.79-3.9c15.22,1.44,30.96-2.62,27.76-21.27-3.03-17.66-33.43-18.76-47.3-17.78-13.06.93-34.5,8.25-37.01,22.99-2.85,16.68,3.72,27.69,15.55,38.56-4.77.14-12.45-1.96-17.21-3.79-22.72-8.71-37.06-30.98-20.61-53.04,14.77-19.81,40.66-23.4,63.25-25.75,3.07-.32,5.26-2.28,9.08-1.99,2.45.19,4.02,1.75,6.06,2.01,17.01,2.21,33.17,3.59,46.49,16.51,9.71,9.43,12.16,28.38,3.65,39.24Z"/>
  <path d="M80.69,579.31c.85.6,3.66,4.73,3.21,5.99-13.38,13.11-23.18,16.94-20.82,38.15,2.78,24.97,39.84,39.64,48.61,59.37,2.81,6.32,2.92,10.83-.28,17.09-2.32,4.54-12.04,13.28-17.4,10.61l-1.86-2.23c5.88-23.96-18.03-30.88-33.46-41.46-13.19-9.05-30.51-24.77-32.57-41.43-3.62-29.16,19.19-49.29,47.43-47.43,2.07.14,5.49.18,7.15,1.36Z"/>
  <path d="M707.71,443.71c-.25.34-6.36,4.27-6.99,4.51-12,4.6-11.92-5.98-19.28-7.16-11.11-1.79-25.25,3.07-33.92,9.97-15.12,12.03-19.77,26.56-23.53,44.97-1.93,1.74-4.39-5.54-4.72-6.77-11.09-41.49,40.22-89.63,78.6-70.6,7.41,3.67,12.76,10.8,11.45,19.2-.2,1.3-1.01,5.06-1.61,5.89Z"/>
  <path d="M264.5,363c-.46.02-1.73,2.57-1.5-.49,7.17-5.07,17.94-11.98,26.76-13.25,18.9-2.73,53.12,3.91,66.77-10.23,4.15-4.3,11.49-28.65,19.51-16.57,4.67,7.05,1.34,21.49-2.6,28.48-8.07,14.34-29.98,23.82-45.95,22.06-8.45-.93-21.17-10.01-28.99-10.01-11.17,0-22.92-.51-34,0Z"/>
  <path d="M1129.65,650.67c-.31.45-1.51.69-2.01,1.43-5.05,7.52-12.89,16.5-10.4,26.16.95,3.69,8.4,11.91,7.58,15.98-1,4.96-7.02,4.96-10.34,7.52-10.51-9.99-21.69-21.71-21.28-37.27.43-16.07,28.84-42.98,45.74-31.88,1.1,3.55-6.97,14.63-9.3,18.05Z"/>
  <path d="M1313.74,193.21c11.71-1.09,16.85,16.8,4.66,21.69-8.9,3.58-19.12-2.57-27.88-.88-3.99.77-3.15,5.24-10.03,5.06-12.42-.32-14.56-19.67.97-21.12,6.89-.65,16.65,1.56,22.02,1.05,2.31-.22,5.39-5.35,10.26-5.8Z"/>
  <path d="M321.74,580.21c11.71-1.09,16.85,16.8,4.66,21.69-8.9,3.58-19.12-2.57-27.88-.88-3.99.77-3.15,5.24-10.03,5.06-12.42-.32-14.56-19.67.97-21.12,6.89-.65,16.65,1.56,22.02,1.05,2.31-.22,5.39-5.35,10.26-5.8Z"/>
  <circle cx="626.79" cy="525.64" r="14.69"/>
  <circle cx="102.55" cy="279.06" r="14.32"/>
  <circle cx="88.7" cy="66.54" r="13.75"/>
  <circle cx="317.51" cy="313.53" r="13.73"/>
  <circle cx="1088.39" cy="462.46" r="13.57"/>
  <path class="cls-1" d="M880.58,322.43c.67.39.5,1.22,2.53,1.92,6.89,2.36,12.73,1.63,19.21-1.53,21.25-10.34,27.14-38.99,14.52-58.16-10.34-15.71-34.05-25.49-52.08-19.4-.94.32-7.24,4.72-5.75,1.25.9-2.08,9.29-7.95,11.68-9.33,29.69-17.12,66.84-2.91,81.84,26.78,22.92,45.39-25.06,95.63-72.24,77.24-24.8-9.67-40.86-40.41-25.14-64.56,7.88-12.11,25.1-14.78,33.84-2.14,3.48,5.04,3.75,12,3.04,18.02-1.46,12.25-18.43,13.87-19.89,18.15-.83,5.97,3.99,9.18,8.45,11.76Z"/>
  <path class="cls-1" d="M922.37,827.38c-.71.64-1.07,1.88-2,2.44l-34.37,26.17c2.24-5.53,3.59-11.49,3.99-17.5.37-5.54-1.08-35.28.99-37.01.42-.35,9.45-3.39,10.47-3.53,7.41-1.02,28.09-.51,34.07,4.03,10.02,7.61-7.39,20.22-13.15,25.4Z"/>
  <path class="cls-1" d="M656.01,68.99c5.85-20.95,30.19-38.57,49.46-20.96,17.85,16.3,7.8,62.73.56,83.5-3.1,8.89-5.2,17.96-15.59,19.41-28.31,3.94-45.14-18.73-42.43-45.43,1.85-18.22,27.93-25.99,30.92-4.96,1.83,12.84-9.26,11.96-9.94,19.04-.96,10.03,8.33,4.49,12.73,1.63,13.66-8.9,21.37-23.98,15.75-40.21-6.07-17.51-26.65-18.65-41.47-12.03Z"/>
  <path class="cls-1" d="M906,50.02c-2.57,5.16-6.79,11.62-8.47,17.01-7.98,25.57,12.22,52.8,1.69,75.69-3.8,8.26-11.07,12.08-20.29,9.85-6.45-1.56-15.07-14.21-17.8-20.2-6.39-13.97-8.2-25.49-2.3-40.05,6.63-16.36,23.62-30.11,17.18-50.32,10.61,1.71,20.75,1.97,30,8.01Z"/>
  <path class="cls-1" d="M696.65,335.65c-5.42,5.06-9.25,3.39-14.97.17-11.27-6.36-16.92-18.87-9.32-30.48,5.86-8.95,32.51-10.21,27.42-27.63-1.81-6.18-11.17-3.35-15.24-3.67-13.09-1.02-28.64-4.72-29.58-20.51-.44-7.48.66-10.99,6.71-15.36,14.96-10.81,39.21-5.5,52.23,6.48l-3.93,16.81c-1,22.67,5.15,56.95-13.31,74.18Z"/>
  <path class="cls-1" d="M738,605.01c-13.68,14.11-25.1,26.37-12.43,45.92,9.99,15.42,28.02,17.06,25.44,39.57-2.33,20.23-31.18,33.86-49.51,33.57-22.15-.36-47.01-18.19-43.39-42.48.9-6.05,8.84-10.58,14.46-11.54,8.66-1.48,27.49,3.46,27.54,14.44.03,7.31-11.54,7.07-8.6,13.47,2.24,4.88,6.75,1.91,10.46,1.48,6.8-.78,9.06-.31,14.69-5.81,14.98-14.65,2.16-38.62-16.59-42.2-19.62-3.74-37.08,1.44-51.05,15.56-.1-14.94,8.49-29.45,18.48-40.01,14.21-15.03,31.09-20.93,51.06-23.93,6.97-1.05,12.63,2.55,19.45,1.95Z"/>
</svg>