<?xml version="1.0" encoding="UTF-8"?>
<svg id="Layer_1" data-name="Layer 1" xmlns="http://www.w3.org/2000/svg" viewBox="0 0 700 700">
  <defs>
    <style>
      .cls-1 {
        fill: #4cd2fe;
      }

      .cls-2 {
        fill: #f6fcfe;
      }

      .cls-3 {
        fill: #f1fbfe;
      }

      .cls-4 {
        fill: #27c9fe;
      }

      .cls-5 {
        fill: #f7fcfe;
      }

      .cls-6 {
        fill: #05c0fe;
      }

      .cls-7 {
        fill: #16c5fe;
      }

      .cls-8 {
        fill: #f8fdfe;
      }

      .cls-9 {
        fill: #dff6fe;
      }

      .cls-10 {
        fill: #10c3fe;
      }

      .cls-11 {
        fill: #f8fcfe;
      }

      .cls-12 {
        fill: #86e0fe;
      }

      .cls-13 {
        fill: #15c4fe;
      }

      .cls-14 {
        fill: #14c4fe;
      }

      .cls-15 {
        fill: #41cffe;
      }

      .cls-16 {
        fill: #e3f7fe;
      }

      .cls-17 {
        fill: #07c1fe;
      }

      .cls-18 {
        fill: #13c4fe;
      }

      .cls-19 {
        fill: #2bcafe;
      }

      .cls-20 {
        fill: #fbfdfe;
      }

      .cls-21 {
        fill: #f4fbfe;
      }

      .cls-22 {
        fill: #f9fdfe;
      }

      .cls-23 {
        fill: #e6f8fe;
      }

      .cls-24 {
        fill: #aeeafe;
      }

      .cls-25 {
        fill: #0dc2fe;
      }

      .cls-26 {
        fill: #fcfefe;
      }

      .cls-27 {
        fill: #0fc3fe;
      }

      .cls-28 {
        fill: #fafdfe;
      }

      .cls-29 {
        fill: #21c7fe;
      }

      .cls-30 {
        fill: #f2fbfe;
      }

      .cls-31 {
        fill: #18c5fe;
      }

      .cls-32 {
        fill: #fefefe;
      }

      .cls-33 {
        fill: #26c9fe;
      }

      .cls-34 {
        fill: #fcfdfe;
      }

      .cls-35 {
        fill: #f5fcfe;
      }

      .cls-36 {
        fill: #fdfefe;
      }

      .cls-37 {
        fill: #17c5fe;
      }

      .cls-38 {
        fill: #d8f5fe;
      }
    </style>
  </defs>
  <path class="cls-32" d="M356.51,634.11c-2.37,1.83-9.58,1.57-12.06.18-7.33-4.23-13.57-12.07-19.18-18.46-11.63-13.23-20.21-27.46-28.12-42.96-1.54-3.01-3.15-7.23-5.42-9.43-13.81-13.44-11.73-17.22-23.03-26.66-9.99-2.11-19.57-5.14-29.85-5.44-7.7-.22-22.13,7.19-32.2,5.48-4.04,7.7-10.45,12.88-18.89,16.14-1.3,7.8-2.99,15.83-8.3,21.65l-9.41,10.33c-4.22,4.63-8.73,22.51-29.01,24.28-6.24.55-12.39,2.01-17.72-1.4s-4.07-15.13.17-19.11c-5.49-2.95-11.01-3.69-16.79-.48,2.75,4.19,3.48,16.53.94,18.83-5.8,5.25-32.33,2.52-39.53-8.12-5.05-7.45-5.77-17.04-7.29-25.87-4.78-7.47-7.05-15.88-5.36-25.26-7.64-5.72-8.55-14.12-8.63-22.79-.11-11.33.47-21.44,4.08-32.15l-3.7-18.94c-1.83-9.37-.56-19.18.18-28.58,1.11-14.22,7.66-25.34,15.05-36.95,4-6.28,7.05-24.01,13.79-37.19,1.71-3.35.33-8.54,2.1-11.83l5.25-9.78c6.39-11.89,11.18-24.99,24.26-30.75,4.37-10.13,9.56-19.92,18.88-26.14,2.28-1.52,8.39-1.29,10.76-.09,7.78,3.94,14.79,21.57,17.14,29.75,20.4,15.63,10.76,21.38,21.79,33.97,7.91-6.66,15.62-11.19,24.02-15.96,4.97-2.83,10.99-4.74,14.93-9.12,2.37-2.63-.11-7.94-.25-11.29-.9-20.65,3.75-39.99,12.1-58.85,6.63-14.98,16.44-27.48,26.9-40.04-.62-25.13,9.52-45.91,31.28-59.02,3.51-20.99,14.65-40.04,28.2-56.57,5.17-6.31,22.68-24.32,30.29-27.69,2.84-1.26,9.42-1.74,12.42-.07,11.48,6.38,19.97,15.79,28.47,25.49,15.07,17.2,25.14,35.98,30.5,58.76,21.68,14.83,31.31,31.82,30.54,59.24,21.41,21.93,35.19,49.36,38.84,80.02.58,4.84.39,29.8-.3,29.29,3.41,2.48,7.11,4.32,10.72,6.46,10.14,6.01,19.63,11.59,28.89,19.59,1.36-2.96,4.41-4.93,4.76-7.7,1.43-11.25,7.02-20.54,16.87-26.49,3.29-10.01,6.81-20.73,14.82-27.99,7.02-6.37,16.87-1.04,21.43,5.59,4.25,6.18,7.9,11.78,10.46,18.67,13.37,6.27,22.91,18.09,25.08,32.73,5.48,5.67,5.5,13.04,7.21,20.2,1.08,4.55,4.93,8.67,5.07,13.61.18,6.65,6.37,22.75,10.28,27.89,14.5,19.08,13.47,37.06,12.89,59.93-.17,6.57-2.89,12.51-4.12,19.13,5.88,13.39,9.64,46.3-4.22,55.62,2.48,9.38-2.9,16.54-4.72,24.71l-4.05,18.19c-4.48,20.14-25.41,18.17-38.7,18.3-2.28.02-4.2-1.45-5.17-2.52-1.16-1.29-2.38-14.74,2.31-17.15-5.3-3.84-11.6-3.63-17.04-1.13,2.17,5,5.37,13.46,1.23,18.32s-13.44,3.35-19.22,2.67c-21.18-2.52-26.18-22-29.41-24.88-9.42-8.39-15.57-19.27-16.95-31.9-8.15-2.75-14.82-7.71-18.93-15.48-9.58,1.99-27.3-5.5-31.85-5.58-8.66-.16-16.66,3.04-25.03,4.61-1.99.37-4.68-.62-6.2.8-5.78,5.45-12.52,17.78-17.6,22.41-3.37,3.07-7.08,5.02-8.02,10.08-.49,2.66-2.48,4.8-3.74,7.22-10.55,20.26-26.12,43.16-44.89,57.67ZM358,628.44c15.96-15.07,28.74-31.77,38.59-50.89,2.64-5.12,4.94-10.28,7.95-15.09,2.88-4.6,7.88-7.28,11.23-11.94,3.82-5.31,7.2-13.09,12.98-16.48,10.12-1.71,26.7-7.46,36.16-5.65,11.67,2.24,18,6.05,31.91,5.96,3.47,7.75,10.46,12.49,18.95,15.13,1.16,13.07,7.58,23.2,16.41,32.26,4.75,4.87,6.43,11.91,11.65,16.55,7.95,7.06,19.15,9.44,29.53,7.2,6.36-1.37,2.54-12.68.13-15.95-2-1.14-4.39.77-6.37-2.05,7-4.35,29.63-8.15,30.13,2.46-1.1,3.6-6.72,11.03-1.44,14.42,10.19,4.66,32.85,1.11,36.46-14.97l4.27-19.02c1.92-8.55,7.03-15.93,5.15-25.37,12.99-8.01,9.5-40.68,2.9-52.28,5.67-16.24,6.7-32.7,4.25-49.6-1.82-12.56-7.83-21.94-14.59-32.42-2.41-3.74-5.44-11.09-5.97-15.46-1.06-8.73-5.01-15.18-6.88-23.19-1.67-7.17-3.96-12.85-6.45-19.61-4.88-13.27-11.14-25.7-25.82-30.91-1.91-7.79-17.24-36.15-27.31-23.71-6.35,7.84-10.46,16.98-12.87,26.7-10.3,6.23-16.13,15.59-17.15,27.28-1.51,3.19-4.95,6.07-6.31,10.8-15.8-13.56-26.75-18.84-44.94-29.92,6.64-40.18-10.14-80.63-37.77-109.61l-.91-15.14c-1.11-18.48-13.78-33.91-29.57-43.1-2.69-8.77-4.35-16.8-8.2-25.05-10.63-22.74-26.67-42.19-46.58-57.29-4.4-3.34-10.08-3.55-14.47-.21-25.84,19.66-48.89,49.96-54.86,82.43-19.41,11.35-30.95,31.03-30.74,53.24.04,3.96-1.17,6.86-3.81,9.71-18.71,21.22-31.21,46.89-34.54,75.22-1.21,10.32.1,19.81.08,30.24-2.99,3.37-7.3,5.48-11.37,7.61-11.76,6.16-22.61,12.46-32.87,21.75l-6.01-10.17c-3.7-6.27.47-13.88-17.29-27.66-3.23-9.52-6.3-18.61-12.88-26.44-11.03-13.14-25.16,16.09-28.62,23.65-12.5,5.8-21.71,16.21-22.88,30.08-6.54,5.41-5.45,13.57-7.92,20.53s-5.67,13.04-7.64,20.6c-1.39,5.32-2.92,12.99-6.14,17.49-9.82,13.72-15.58,28.29-15.79,45.53-.15,12.62.99,24.7,5.65,36.75-6.15,12.85-10.22,43.82,2.95,52.92-2.13,9.43,2.83,16.62,4.87,24.9l5.17,20.97c3,12.15,26.91,17.96,35.89,12.63,6.43-3.81-5.48-17.1,1.08-19.78,5.77-2.36,19.82-2.71,22.81,4.42-4.02,3.53-6.84,9.98-3.89,14.68,2.49,3.97,27.41,7.01,37.93-13.16,7.94-15.22,17.8-14.38,22.66-40.3,8.34-3.36,15.33-8,18.93-16.28,6.05.96,10.84-.56,16.08-1.92l13.25-3.45c8.58-2.23,28.79,3.31,38.43,5.35,2.91,2.71,6.9,6.84,9.05,10.41,4.14,6.85,9.45,11.64,14.46,17.63,7.4,8.85,13.58,34.74,47.28,66.6,4.98,4.71,10.49,4.8,15.62-.04Z"/>
  <path class="cls-6" d="M358,628.44c-5.13,4.84-10.64,4.75-15.62.04-33.7-31.87-39.88-57.75-47.28-66.6-5.01-5.99-10.32-10.79-14.46-17.63-2.16-3.57-6.14-7.7-9.05-10.41-9.64-2.04-29.85-7.59-38.43-5.35l-13.25,3.45c-5.24,1.37-10.03,2.88-16.08,1.92-3.6,8.28-10.59,12.92-18.93,16.28-4.86,25.92-14.71,25.08-22.66,40.3-10.53,20.17-35.45,17.13-37.93,13.16-2.95-4.7-.12-11.15,3.89-14.68-2.98-7.13-17.04-6.78-22.81-4.42-6.56,2.68,5.35,15.97-1.08,19.78-8.98,5.33-32.89-.48-35.89-12.63l-5.17-20.97c-2.04-8.28-7-15.47-4.87-24.9-13.17-9.1-9.1-40.08-2.95-52.92-4.67-12.05-5.81-24.12-5.65-36.75.21-17.24,5.97-31.81,15.79-45.53,3.22-4.51,4.76-12.17,6.14-17.49,1.97-7.56,5.12-13.49,7.64-20.6s1.38-15.12,7.92-20.53c1.17-13.88,10.38-24.28,22.88-30.08,3.47-7.56,17.59-36.78,28.62-23.65,6.58,7.83,9.65,16.93,12.88,26.44,17.76,13.78,13.59,21.39,17.29,27.66l6.01,10.17c10.26-9.29,21.11-15.59,32.87-21.75,4.07-2.13,8.38-4.24,11.37-7.61.02-10.43-1.3-19.92-.08-30.24,3.33-28.33,15.83-54,34.54-75.22,2.64-2.85,3.85-5.75,3.81-9.71-.21-22.2,11.34-41.88,30.74-53.24,5.97-32.47,29.02-62.77,54.86-82.43,4.39-3.34,10.07-3.13,14.47.21,19.91,15.11,35.95,34.55,46.58,57.29,3.85,8.24,5.51,16.28,8.2,25.05,15.79,9.19,28.45,24.62,29.57,43.1l.91,15.14c27.63,28.98,44.41,69.43,37.77,109.61,18.2,11.08,29.14,16.36,44.94,29.92,1.37-4.73,4.8-7.6,6.31-10.8,1.02-11.69,6.85-21.05,17.15-27.28,2.41-9.71,6.52-18.86,12.87-26.7,10.07-12.44,25.4,15.92,27.31,23.71,14.68,5.21,20.94,17.63,25.82,30.91,2.49,6.76,4.78,12.44,6.45,19.61,1.86,8.01,5.82,14.46,6.88,23.19.53,4.38,3.56,11.72,5.97,15.46,6.76,10.48,12.77,19.87,14.59,32.42,2.45,16.89,1.42,33.35-4.25,49.6,6.6,11.6,10.08,44.27-2.9,52.28,1.89,9.44-3.23,16.82-5.15,25.37l-4.27,19.02c-3.61,16.07-26.28,19.63-36.46,14.97-5.28-3.39.33-10.82,1.44-14.42-.5-10.61-23.13-6.81-30.13-2.46,1.98,2.82,4.37.9,6.37,2.05,2.41,3.27,6.23,14.58-.13,15.95-10.38,2.24-21.58-.14-29.53-7.2-5.22-4.64-6.9-11.68-11.65-16.55-8.84-9.06-15.25-19.19-16.41-32.26-8.49-2.64-15.49-7.38-18.95-15.13-13.91.1-20.24-3.71-31.91-5.96-9.46-1.82-26.03,3.94-36.16,5.65-5.78,3.39-9.16,11.17-12.98,16.48-3.35,4.66-8.35,7.34-11.23,11.94-3.01,4.81-5.31,9.97-7.95,15.09-9.85,19.12-22.63,35.82-38.59,50.89ZM382.37,208.08l15.08,16.98c9.42-15.17,12.45-32.34,11.54-50.13-1.8-35.42-26.95-68.79-54-89.73-3.16-2.44-6.15-2.21-9.01-.18-11.58,8.19-21.03,18.08-29.82,29.09-24.91,31.2-34.59,73.72-14.19,110.97l15.09-19.4c-14.04-35.16,5.69-72.69,33.01-95.82,28.88,24.7,48.03,60.35,32.31,98.22ZM335.01,134.14c-1.92,1.02-4.03,2.37-5.08,5.6,1.69-.73,4.98-2.71,5.08-5.6,4.85,3.34,11.69-7.11,17.28-6.48,4.51.51,9.38,6.44,10.85,5.67,4.38-2.3-10.1-16.22-13.17-18.56-4.96,3.81-8.2,8.58-12.2,12.93-2.06,2.25-2.67,3.88-2.76,6.44ZM353.34,153.83c5.56-3.26,9.85-7.14,14.56-11.05-4.34-3.38-10.96-12.08-16.73-10.71-8.85,2.11-15.94,7.98-21.99,14.82l17.86,12.53c1.33-3.4,3.55-3.99,6.29-5.6ZM370.45,141.21c.35-3.62-1.97-5.71-4.8-7.46.16,3.15,1.15,6.43,4.8,7.46ZM308.75,258.42c10.13-18.45,21.17-33.17,34.63-47.01.79-1.51,2.37-2.31,2.42-3.86.04-1.2-2.03-2.38-2.83-3.82,8.91-20.13,20.84-27.92,39.26-39.71-1.39-7.73-4.62-14.28-8.65-20.23-4.94,4.38-9.5,7.09-14.32,10.45-13.31,9.28-23.9,21.07-29.66,36.35-.43,1.14-.99,2.24.01,2.99.39.3.99.48,1.93,1.05-12.67,14.23-26.47,29.55-35.92,46.17,3.69,6.56,7.69,12.61,13.12,17.62ZM344.16,162.71l-10.75-8.13c-3.51-1.67-6.33-3.75-9.24-6.5-3.29,6.61-5.93,12.65-7.04,19.81l14.5,11c3.4-6.62,7.9-11.23,12.53-16.18ZM383.34,180.27c.99-4.69.17-8.26-1.03-11.92-3.24,1.75-5.28,3.71-7.61,6.54,2.53,2.44,4.73,4.82,8.64,5.38ZM308.01,263.47c-15.53-17.5-28.05-36.63-26.11-60.57.86-10.62,6.94-11.38,4.9-32.85-26.39,17.65-31.46,47.18-18.51,74.57,4.55,9.62,9.24,19.06,16.17,27.01l9.59,10.99c3.59-7.43,7.93-13.24,13.96-19.15ZM406.69,282.04c11.14-11.76,19.12-24.11,25.49-37.8,11.74-29.14,7.93-56.15-19.1-74.45l-.34,16.62c16.55,24.19-2.19,58.84-20.59,77.47,6.01,5.25,10.03,11.62,14.54,18.15ZM320.59,201.41l8.85-19.38-12.31-8.74-.53,11.83c-.24,5.38.77,10.89,4,16.29ZM378.46,204.31c4.17-5.83,4.74-12.55,4.69-18.93l-11.5-8.4-10.11,7.81,16.92,19.51ZM404.78,240.74c-4.72-8.34-10.7-15.25-17.49-22.07-10.15-10.2-19.22-20.49-28.79-32.04-4.94,4.63-8.43,9.9-10.59,16.27,13.63,20.84,29.7,33.75,44.16,55.82,5.17-5.89,9.38-11.4,12.72-17.98ZM414.56,214.22c-.89-1.48-2.85-2.15-3.28-3.69,1.37-.47,2.72-1.01,2.93-2.09.24-1.23-.75-2.46-.67-3.57.24-3.34,1.42-6.34-1.53-9.04.86,6.32-1.73,10.94-3.97,16.21s-4.15,10.63-7.31,15.86c2.39,3.1,4.03,5.73,7.08,8.04,3.54-6.91,6.54-13.95,6.76-21.73ZM292.79,236.24c3.09-3.1,4.12-5.58,6.2-8.33-4.01-7.85-7.36-15.46-9.74-24.25-8.3,2.26.06,27.82,3.53,32.57ZM354.65,224.49c.82-.45,2.85-1.77,1.87-3.03l-7.66-9.85c-2.72,2.16-4.07,4.62-6,7.35,3.68,3.07,8.29,7.44,11.79,5.52ZM373.88,240.49c-5.35-5.79-9.68-9.3-13.46-14.94-2.83,3.94-6.16,4.3-9.52,2.34l-11.27-6.58-12.62,14.96c4.99,2.85,8.45,10.8,14.14,11.09l20.17,1.03c4.87.25,10.01-4.51,12.56-7.91ZM244.37,318.02c-1.01-20.11,7.28-43.54,16.88-60.86,1.25-2.25,4.72-4.39,4.83-7.18-2.59-7.4-5.8-14.07-7.77-22.1-12.13,13.48-21.8,27.9-28,44.47-10.41,27.81-12.03,61.42,2.11,88.16,8.9,16.83,20.31,31.06,31.89,46.34l19.29-11.08c-18.4-24.02-37.62-45.92-39.22-77.75ZM456.27,323.29c7.13,1.88,12.9,5.06,20.11,8.15,7.13-38.17-8.53-75.93-34.66-104.13-2.01,8.3-4.9,15.36-8.35,23.1,11.82,16.06,21.94,34.42,22.44,54.61l.45,18.27ZM335.63,248.17c-3.87-4.62-7.23-5.38-11.06-8.76-3.52,6.04-7.03,10.86-9.93,17.51,7.23-3.87,13.51-6.15,20.99-8.75ZM385.67,257.17l-9.93-13.35c-2.2,2.07-4.38,2.97-6.27,6.01l16.2,7.33ZM407.15,309.72c0-31.6-25.62-57.22-57.22-57.22s-57.22,25.62-57.22,57.22,25.62,57.22,57.22,57.22,57.22-25.62,57.22-57.22ZM257.51,280.95c1.26,2.83,1.85,5.65,4.76,8.74,8.09-9.51,12.69-7.58,17.11-18.62l-10.64-16.26c-2.38,1.54-2.18,4.89-3.97,6.8-4.99,5.33-6.45,11.69-9.16,17.94-3.8,8.77-6.59,17.66-6.7,27.76,2.68-3.39,3.44-6.94,6.54-9.83,7.88-11.35-.68-7.9,2.06-16.53ZM438.21,292.21c3.98-8.13,5.02-14.97,2.78-21.96l-9.98-14.94-10.73,16.32c4.95,12.77,8.71,8.46,17.94,20.58ZM435.19,295.21c1.63,5.06-9.29,8.02-6.16,12.93,5.82,9.16,8.13,19.7,6.05,30.42,4.79,3.79,9.96,5.39,15.56,6.83,10.18,2.61,18.85,7.81,27.85,13.12,29.38,17.33,46.64,28.81,56.71,62.42.51,1.71,5.64,2.45,6.93,1.19,3.07-3.01,5.39-7.4,9.21-10.55-2.91-15.85-10.52-29.42-22.18-40.55-13.98-13.34-29.51-23.47-46.53-32.54-9.75-5.19-19.03-10.24-29.49-12.46-1-.21-1.9-1.09-3.01-1.05,2.53-10.06-2.6-17.88-9.51-25.38-1.73-1.87-2.98-4.26-5.41-4.38-2.9-7.08-12.7-11.29-18.7-18.33-2.07,2.86-6.29,5.42-6.99,9.4-.44,2.48,2.1,6.05,2.54,8.59.82,4.71,4.16,6.52,8.14,7.84,1.25.42,2.27,1.76,3.32,1.83,4.13.27,10.12-10.44,11.68-9.32ZM264.59,337.37c-.58-16.35,4.06-30.33,19.29-36.38,3.25-4.74,5.92-9.33,7.62-14.71-2.56-2.82-4.55-5.7-7.86-8.46l-16.21,11.5c-5.37,3.81-8.04,9.28-11.66,14.39-7.3,10.31-9.27,22.38-3.22,33.95.68,1.3.64,5.05,2.68,4.73,3.1-1.48,5.74-4.07,9.36-5.01ZM451.56,308.31c.6-10.13-2.85-19.34-6.05-28.49-1.67,5.49-3.5,10.34-4.49,14.96,3.05,4.42,6.68,8.62,10.54,13.53ZM146.81,323.44c-1.17-6.37-8.56-25.05-14.31-24.9s-16.89,17.67-17.41,23.35c11.35-2.89,20.71-2.6,31.71,1.55ZM585.18,321.14c-3.38-8.49-7.15-14.46-12.27-20.03-1.55-1.08-2.8-2.47-4.55-2.53-5.87-.2-14.16,17.79-14.71,24.86,10.94-4.02,20.45-3.85,31.54-2.31ZM316.17,380.77c-7.46-9.07-13.69-17.25-19.11-26.75-15.14-24.7-7.49-23.63-8.16-30.04-.75-7.14-1.2-13.74-.6-21.68-4.59,1.13-7.18,4.21-10.76,7.33-23.9,20.81,2.75,60.1,19.63,77.34,6.41-2.79,12.26-3.92,19.02-6.2ZM430.83,341.02c3.04-12.15.7-23.98-7.03-33.52-.51,2.87,1.48,4.99,1.92,8.53-.94-1.61-10.5-12.19-10.18-12.25-.58.12-1.98.42-1.9,1.53.7,10.51.49,20.87.23,31.55-7.79,16.42-22.31,32.53-34.87,46.45l18.08,8.3c16.38-14.7,28.39-29.17,33.76-50.59ZM163.08,349.03c-.71-11.3-7.98-18.66-17.94-22.36-20.89-7.76-46.68-3.27-52.77,21.54,11.35-7.38,24.23-12,37.26-11.31,12.18,2.07,22.84,5.17,33.45,12.13ZM609.02,349.56c-6.24-25.85-32.18-30.81-53.65-23.3-10.13,3.54-17.8,11.33-18.55,22.84,3.07-.64,4.35-3.1,7.01-4.29,25.93-11.59,41.6-10.15,65.18,4.76ZM300.42,351.19l6.86,11.68c3.65,6.21,8.39,11.49,12.73,17.3,18.44-2.67,35.95-2.77,53.94,2.23,7.17-6.39,13.44-12.83,18.86-20.52,1.51-2.14,1.67-5.71,3.68-7.37,4.71-3.88,6.86-8.43,9.22-13.86,1.19-2.74,5.02-5.29,1.88-8.83-9.53,17.19-5.05,14.37-18.71,26.08-12.09,10.36-26.93,14.88-42.9,14.25-14.63-.58-26.99-6.93-37.65-16.32-2.34-2.06-4.33-1.9-6.08-5.47-2.94-6.03-6.31-11.9-9.92-17.9,1.48,6.93,4.55,12.72,8.09,18.74ZM161.63,422.37c2.61-13.28,8.71-24.04,17.58-33.23,7.61-7.89,15.65-15.29,25.45-20.2l22.06-11.06c-2.19-6.36-4.41-11.95-5.83-19.67-23.54,10.7-45.71,25.64-62.61,45.77-9.59,11.42-15.16,24.91-18.08,39.04-.26,1.26.05,2.45.56,2.8,1.52,1.04,16.02-3.45,20.88-3.46ZM157.33,352.13c2.55,4.02,1.48,6.47.57,10.08,2.84,1.59,5.92,5.08,9.04,5.33,3.36.27,3.66-4.68,2.39-6.97-7.79-14.09-28.47-20.95-43.29-21.25-15.27-.3-44.92,11.37-41.54,30.89,18.5-16.96,49.92-18.19,71.81-8.4l1.03-9.68ZM615.4,370.41c2.34-5.39-.52-10.61-4.07-14.76-6.51-7.6-15.21-11.66-24.64-14.49-18.02-5.41-42.64,2.29-54.24,16.16-1.82,2.17-4.58,8.1-1.4,9.61,3.86,1.72,8.39-3.32,11.99-4.89,21.67-9.48,53.25-9.6,72.37,8.37ZM265.38,364.79c2.93-2.94,4.72-4.26,6.57-6.69-3.01-5.74-4.36-11.25-6.71-17.27l-9.36,7.47c2.78,5.99,5.45,11.69,9.51,16.49ZM434.8,364.79c4.09-5.01,7.09-10.04,10.33-15.74l-11.13-6.34c-1.66,6.18-3.46,10.98-6.63,16.27l7.44,5.81ZM277.28,429.03c-9.57-5.13-1.94-7.7-17.23-4.99-8.8,1.56-16.95,2.99-25.18.47,3.63-2.68,7.26-.75,11.11-.58,8.38.36,16.33-2.33,24.35-3.24,1.81,1.28,3.81,4.07,6.61,3.32,10.27-2.74,18.59-8.52,28.34-12.69,17.53-7.49,37.29-9.03,56.07-5.59,12.64,2.32,23.34,8.31,34.1,14.73,5.61,3.35,7.21-7.49,13.42-11.6-1.02,5.73-13.61,19.11-17.48,24.37l11.4,17.56c10.03-11.39,17-17.87,23.3-30.83,2.18-4.49,5.58-8.06,8.85-12.01,13.04-15.76,24.84-31.99,33.64-51.11-5.75-3.84-11.96-6.05-18.68-7.81-4.23,5.07-6.65,10.92-10.66,16.34l-27.51,37.28c3.4,3.25,7.76,5.2,7.01,10.84-2.72-3.9-6.61-5.66-9.65-8.44-23.46-21.44-57.64-26-88.14-21.24-11.75,1.83-22.78,5.21-32.95,11.22,4.43,5.66,9.37,9.74,14.87,14.54-7.05-1.59-11.28-7.01-16.73-11.67-6.54,4.5-13.17,7.86-19.74,11.65-3.98,2.29-7.28,4.93-12.08,5.83-6.95,1.3-14.04,3.02-21.4,2.57-22.27-1.37-35.68-12.12-51.29-26.65-5,5.18-9.36,10.53-12.04,17.89,12.54,11.93,28.58,25.75,46.03,29.19,20.05,3.95,40.42,1.07,59.22-6.3,1.36-.54,3.47-2.66,2.44-3.06ZM85.1,383.99c19.07-17.22,42.89-23.75,67.24-20.22-10.79-6.08-22.69-5.65-34.38-4.84-11.87.82-22.79,5.83-31.7,13.22-3.76,3.12-4.79,8.02-1.16,11.85ZM622.73,391c-3.85-33.54-51.18-37.99-75.2-27.52,30.08-3.98,54.28,6.39,75.2,27.52ZM211.12,407.3c9.18-10.77,18.62-19.08,28.49-27.76-4.13-6.57-7.27-12.2-10.43-18.45-12.29,8.8-27.16,23.97-33.94,36.98,4.5,4.02,9.42,7.87,15.88,9.23ZM490.46,406.47c5.66-.79,10.31-4.01,13.72-8.31-5.27-10.48-12.25-18.24-20.54-25.78-4.44-4.04-8.07-8.57-13.43-11.5l-9.31,17.99c2.44,1.74,30.64,29.83,27.91,28.45.39.2.86-.62,1.64-.86ZM284.71,390.71c2.78-1.33,5.21-1.55,7.43-3.57-7.63-7.77-13.17-15.91-18.41-24.95-2.46,1.89-4.54,3.84-6.11,6.55l17.08,21.96ZM426.54,377.16l6.33-8.95-6.72-5.73c-1.19,3.8-4.71,6.08-4.9,9.42-.13,2.33,3.68,4.62,5.29,5.25ZM498.47,376.26c-3.87-5.34-9.82-8.44-15.36-9.94,1.01,3.54,15.54,17.32,15.36,9.94ZM93.43,426.38c-4.36-10.13.41-18.93,7.83-25.19,13.65-11.51,31.02-16.96,48.61-12.11,4.26-6.4,9.11-11.4,14.32-17.62-30.18-11.08-62.02-1.05-83.34,21.33-11.9,12.49-15.51,29.45-6.16,45.01,3.97,6.61,9.72,12.52,15.9,17.7,5.58-5.22,11.3-8.6,17.47-12.84-5.32-5.06-11.62-9.28-14.63-16.27ZM594.69,449.85c4.69.78,8.58,2.81,12.43,4.42,7.59-4.35,14.9-10.06,19.31-17.84,6.86-12.1,5.21-26.54-2.95-37.94-19.8-27.66-56.16-38.82-88.92-27.02,4.56,6.05,9.09,11.31,13.31,17.83,21.25-5.94,43.08,1.17,57.09,17.63,4.98,5.85,5.27,14.09,1.12,20.33-2.87,4.31-.8,11.03-11.4,22.58ZM204.22,379.08c3.05-3.25,5.87-5.26,7.48-9.27-4.59,1.67-8.03,4.09-11.89,7.23.75,1.27,3.35,3.16,4.41,2.03ZM408.87,400.01l13.97-19.04c-1.94-2.15-3.21-4.11-5.62-5.93-4.7,7.04-10.83,11.68-16.56,18.07l8.21,6.9ZM506.38,396c2.63-2.65,4.82-4.04,7.86-6.4-3.35-3.45-6.45-7.39-10.95-9.72-1.63-.84-5.11,1.51-6.07,2.63l9.16,13.49ZM193.01,395.13c2.9-5.52,5.96-8.76,9.13-12.86-5.97-5.04-13.03,2.44-17.3,6.76,2.81,2.33,4.88,4.54,8.17,6.1ZM80.59,380.6c-2.45,4.07-3.14,7.55-4.73,11.29,3.24.24,9.5-9.75,4.73-11.29ZM484.71,407.5l-13.59-14.53c-1.14-1.22-3.16-1.41-4.22-2.75-2.41-3.03-4.97-5.66-8.27-7.38l-14.42,19.87,20.75,15.23,13.96-9.08c1.79-1.16,3.71-.41,5.8-1.35ZM244.28,413.99c4.98-2.13,8.04-7.01,12.7-9.74-1.54-3.68-14.66-20.42-15.5-20.21.96-.25-7.2,3.67-4.93,7.5-1.94.52-3.72-.94-5.24-.34l-12.15,12.47c6.44,7.07,15.53,14.44,25.12,10.33ZM482.93,442.18c6.4-1.85,10.45-4.33,14.95-7.44,10.88-7.25,20.98-15.17,30.81-23.65-2.89-7.15-6.55-12.94-10.73-19.3l-15.87,13.39c-9.41,7.93-20.23,13.29-31.27,19.74,4.68,5.62,8.09,11.37,12.11,17.28ZM555.27,409.02l14.16-11.7c-9.55-6.45-7.78-5.64-19.73-2.89l5.57,14.59ZM106.66,433.97c7.03-13.69,18.63-21.4,32.95-23.15,2.08-5.69,3.64-10.49,6.53-16.31-5.96-1.5-12.38-2.39-18.41.21-10.53,4.55-28.8,15.46-30.75,27.83-.75,4.77,5.76,10.02,9.69,11.42ZM564.06,429.02c10.04-8.89,20.3-15.14,32.33-19.79.01-6.86-9.7-11.22-15.45-14.17-11.71,4.66-27.61,18.6-35.09,28.86,6.67,1.18,12.18,2.44,18.21,5.1ZM493.52,482.67c-4.42-21.93-13.92-43.16-29.26-59.83-6.76-7.35-15.36-11.58-23.31-16.67-3.63,5.03-6.78,8.54-9.5,13.73,20.5,16.32,33.72,38.25,40.66,62.95.81,2.9,2.09,7.99,4.96,8.65.97.22,18.43.96,16.46-8.82ZM220.43,410.49c-.4-1.73-1.75-2.13-2.41-2.97-.86-1.08-3.27-.25-2.8,1.46s3.78,1.36,5.21,1.51ZM318.41,461.15c.92,4.05-2.22,6.07-.67,9.44,4.61-3.48,8.17-7.08,11.84-10.77l-6.03-9.65c12.75-15.94,27.59-28.39,45.5-37.81-9.23-3.32-18.96-6.24-28.31-4.29-7.19,1.5-12.59,8.13-17.86,12.71-16.84,14.6-33.56,46.6-34.97,69.21,8.45-3.83,15.76-8.14,22.86-13.11,2.39-5.69,4.09-11.21,7.64-15.72ZM331.98,408.52c-3.01-.08-4.17.24-5.97.66-.24,1.42.4,1.95.91,2.28,1.79,1.17,2.62-1.87,5.06-2.94ZM311.35,426.78l12.41-11.84c-1.39-1.15-3.09-3.43-4.89-3.68-5.35,1.2-10.27,3.46-14.93,6.66l7.41,8.87ZM586.37,433.86c5.98-2.53,16.78-5.56,17.62-11.47.61-4.28-3.59-5.83-6.44-10.05-7.27,2.26-13.7,6.68-19.79,11.6,3.16,3.29,5.94,6.04,8.62,9.91ZM482.17,413.6c-4.59-.37-8.52,2.39-11.08,5.97,4.3-.81,7.73-2.9,11.08-5.97ZM198.55,440.91l9.54-.34c-7.72-2.45-14.3-7.12-21.43-11.18-3.23-1.84-5.2-3.83-7.87-6.38l-9.93-9.47c-2.29,2.7-2.89,5.85-2.6,9.25,5.95-.44,10.59,1.18,14.96,4.96l12.27,10.65c1.47,1.28,1.74,2.62,5.06,2.5ZM136.53,422.13c1.01-3.31,1.57-4.64,1.35-6.75-1.89-.16-5.67.7-6.08,2.38.19,2.05,2.91,4.15,4.73,4.37ZM389.21,428.72c1.66-1.33,3.01-2.54,3.96-4.92-2.5-1.87-14.85-9.74-16.62-7.83-.23.25-.83,1.23-.26,1.64,4.72,3.41,8.77,6.98,12.92,11.1ZM410.96,490.11c-1.03-17.44-7.7-31.53-16.02-45.08-6.86-11.2-14.59-21.36-25.75-28.67-7.56,4-14.11,8.14-20.35,13.53,18.65,11.99,31.79,27.23,37.63,48.32,8.26,4.38,15.51,9.47,24.5,11.91ZM529.89,421.41c.38-1.39.31-2.72-.58-4.29-3.06,1.8-6.36,3.45-9.12,6.28-.24,1.65,9.67-1.88,9.7-1.98ZM71.92,471.23c-4.69-11.53-6.15-23-1.96-33.83-2.85-6.33-3.61-12.28-4.46-19.45-13.42,18.29-15.57,49.53-7.07,70.2,3.99-6.7,8.83-11.37,13.49-16.92ZM628.42,471.62l13.62,15.81c7.57-21.32,5.89-51.06-7.24-69.51-1.29,7.92-.88,14.66-4.88,20.72,6.06,5.94,1.24,26.31-1.5,32.98ZM136.37,428.54c-4.31-4.04-7.85-7.16-12.12-10.05-5.61,3.95-9.48,8.33-13.5,13.56,2.14,2.52,4.07,4.75,6.98,6.08,5.95-4.07,11.98-5.78,18.64-9.59ZM297.24,450.39c4.38-7.17,7.24-13.29,11.63-19.54l-9.98-12.11c-6.02,2.05-10.58,6.42-16.15,8.95-.61.28-1.75-1.47-2.36-1.74-.46-.2-2.4.82-2.07,1.25,5.91,7.9,11.39,15.71,18.93,23.19ZM452.48,448.06c-5.4-8.5-11.52-15.39-19.17-21.4-1.55-1.22-1.84-3.54-4.62-4.18-2.98,6.27-7.15,11.52-11.13,17.22,7.04,6.94,14.92,11.37,22.71,15.98l12.21-7.62ZM74.66,504.25c8.9-17.58,36.24-37.59,52.22-47.05,25.6-15.17,36.24-11.28,63.8-16.74-3.94-4.78-8.19-6.8-12.28-9.98-14.41-11.18-41.75,1.25-56.46,8.44-12.16,5.94-22.7,13.4-33.11,22-19.21,15.88-36.65,33.67-35.09,61.08.29,5.03,0,10.05,3.42,14.47.38-4.36-1.19-7.99.44-11.93,3.48-8.38,9.78-14.51,17.06-20.3ZM511.5,436.63c.74-.99,2,.17.86.88-.44.92-1.39,1.54-1.32,3.24,12.16,1.07,29.42,3,40.95,6.41,2.18.64,6.08,1.09,7.94-.13,5.22-3.44,10.07-5.98,16.1-9.04-9.01-5.63-18.1-7.94-27.8-10.18-22.47-5.19-33.59-.5-52,12.35,9.45,1.86,10.42.8,15.29-3.52ZM579.98,434.34c2.97-.1-2.3-7.3-4.97-6.1-1.12.5-2.91.9-3.59,2.83,3.25.9,5.61,3.37,8.55,3.27ZM563.85,469.88l13.36-8.66c5.45-3.53,11.23-6.71,16.55-10.76-5.06-1.9,9.09-9.36,8.02-19.38-4.73.77-8.38,2.95-12.64,4.34-10.76,3.53-19.82,9.79-30.05,14.69-12.49,5.98-22.91,14.72-31.74,25.18-3.5,4.15-7.1,7.68-8.3,14.1,8-5.56,15.67-9.32,24.51-12.74,6.66-2.57,14.36-2.95,20.29-6.79ZM336.27,453.78c6.02-4.27,9.67-10.1,13.85-15.37-2.16-1.76-3.27-3.06-4.88-5.6-2.02.74-20.27,18.57-14.97,19.22,1.18.14,2.55-1.37,3.58-.69.58.38,1.79,2.88,2.42,2.44ZM267.02,460.36c7.09,4.55,12.69,9.79,18.77,14.92l2.36-9.16c1.09-4.25,3.86-7.96,5.88-12.03l-15.99-18.83c-14.36,7.51-15.98.36-26.54,14.58,4.14,2.8,7.16,6.14,11.41,7.53,1.92-.31,3.88-3.93,6.3-2.62-.3,2.4-2.13,3.18-2.19,5.6ZM207.85,515.89c20.7,8.76,42.14,10.6,63.75,5.86,20.08-4.4,38.25-12.97,54.36-25.63,8.17-6.42,14.95-13.56,22.04-21.07l21.46-22.73c-4.74-5.57-9.3-9.81-15.21-13.67-2.3,4.99-6.48,7.44-9.39,11.19-4.95,6.38-10.73,10.97-16.41,16.66-28.89,28.96-73.88,45.69-113.43,29.26-3.81,3.39-13.24,13.2-11.55,17.33.61,1.49,2.18,1.89,4.38,2.82ZM212.53,490.53c7.93,2.67,14.49-3.45,16.81-10.32,4.97-14.69,12.45-26.52,23.62-37.98-10.68.89-18.94,1.04-28.89.7-7.67,11.54-15.12,23.3-17.86,37.22-.57,2.89,3.46,9.42,6.33,10.39ZM413.34,476.39c7.74-7.69,15.14-13.06,23.1-18.99-7.94-4.76-14.7-8.66-20.93-13.92-3.88,3.85-7.17,7.29-10.26,11.68l8.09,21.23ZM207.46,466.48c2.91-7.54,5.65-13.44,10.55-20.29-19.83-4.27-40.01-1.27-58.91,5.54l17.96,18.04c9.82-4.2,19.95-4.12,30.39-3.29ZM527.29,469.42l19.62-17.53-19.3-5.43c-10.22-2.87-31.27-2.87-43-.05l8.43,20.47c11.67-2.03,22.48-.26,34.25,2.53ZM76.89,466.24c4.35-3.58,6.23-5.89,10.43-8.63-5-3.96-8.31-8.33-12.9-12.84-1.68,14.43-5.27,6.12,2.48,21.47ZM621.49,465.73c8.49-5.49,6.97-13.66,4.01-20.83l-14.41,12.07,10.39,8.76ZM147.41,472.49c13.64,6.48,26.72,11.07,38.48,21.11-6.51-18.91-20.21-32.81-36.07-43.28-7.1,2.52-12.97,4.65-19.86,9.8,8.11,1.85,11.41,9.5,17.45,12.37ZM465.38,473.05c-2.38-7.66-6.14-13.95-10.22-20.44-15.65,6.97-29.07,16.01-40.35,28.45-.44,3.96-.07,7.58.71,11.29,6.17,2.09,11.77,3.89,18.29,4.77,10.31-12.5,18.51-15.56,31.57-24.08ZM283.51,491.39c1.31-3.49.8-7.84,1.48-11.23-13.18-11.95-22.16-18.17-37.51-26.72-4.66,7.16-8.88,13.14-12.04,20.51,11.43,6.88,21.91,13.22,30.84,23.09,5.65-1.89,12.18-2.15,17.23-5.66ZM642.65,536.4c6.58-9.99,3.95-20.94,2.39-31.47-7.38-23.99-26.16-38.71-46.87-51.12-7.02,3.13-12.85,6.28-19.15,10.41,10.22,4.62,18.14,10.75,26.6,17.05,7.93,5.91,12.45,14.03,18.88,21.31,8.21,9.3,21.89,17.14,18.15,33.82ZM379.8,472.4c-1.35-5.9-4.39-10.64-7.68-15.87-2.39,1.84-3.69,3.32-5.63,5.9,3.7,4.12,7.75,7.89,13.31,9.97ZM136,469.66c-3.32-3.15-6.1-5.82-9.65-6.86-2.6-.77-7.22,3.58-8,5.96l17.65.91ZM488.72,495.33c-.53.24-1.22,1.01-2.5.88-5.94-.61-20.23,9.41-49.29,4.82-27.75-4.39-52.93-17.26-73.66-37.22l-13.7,14.98c4.52,7.57,11.33,12.1,18.42,17.21,20.98,15.12,44.37,24.4,70.34,27.68,19.27,2.43,38.49-1.39,56.31-8.94,1.66-.7,2.54-2.2,2.9-3.62.66-2.55-5.25-5.62-3.45-19.03-2.19.1-3.62,1.58-5.36,3.25ZM579.03,468.64c-2.15-2.83-5.63-2.29-7.12.1,2.61.37,4.6.58,7.12-.1ZM195.8,480.89c1.78-1.96,2.05-3.93,3.24-5.72s4.55-1.22,4.47-4.34c-13.39.5-8.3-2.63-23.86,2.66,4.37,5.18,6.56,9.79,9.15,15.09l7-7.69ZM501.36,506.42c4.01-6.22,7.81-10.38,13.01-13.94l2.07-9.93,6.81-9.63c-16.59-4.67-11.65-1.18-28.2-2.07.08,3.19,2.64,3.13,4.8,4.2,5.15,2.55-8.51,16.76,1.52,31.37ZM185.1,530.3c-.13,5.92-.39,10.36.24,15.43,6.82-2.23,12.27-7.42,14.54-12.68,7.22-16.72-8.54-32.77-22.3-41.76-14.34-9.37-30.11-16.62-47.58-18.18-6.3-.56-15.05-2.55-20.59.43-10.27,5.54-17.97,14.65-26.03,23.52,12-2.12,22.1-4.95,33.52-4.58,23.16.75,44.51,9.54,61.22,25.3,4.91,4.63,8.96,9.29,11.16,16.12-2.63-.28-1.78-3.1-4.18-3.61ZM516.06,530.38l-4.72,3.68c1.75-6.53,5.87-11.82,11.08-16.66,25.26-23.45,60.99-30.93,94.21-19.83-7.92-10.92-18.09-18.47-29.07-25.36-27.3-1.9-77.55,16.15-87.32,43.91-4.48,12.73,2.38,25.75,15.45,29.29-.66-5.59-.02-9.88.37-15.03ZM261.03,497.47c-8.42-7.91-16.91-14.09-27.02-19.09-2.02,6.02-4.74,10.83-9.63,15.78,12.33,5.04,24.4,6.38,36.65,3.31ZM474.06,495.27c-3.37-5.81-5.64-10.96-7.65-16.9-7.01,1.55-23.6,14.33-27.39,19.21,11.65,3.56,23.84.39,35.04-2.31ZM200.16,507.39l8.73-11.61c-.85-2.5-5.81-21.01-10.28-14.22-4.02,6.12-9.74,10-7.21,14.08,2.63,4.25,5.16,8.13,8.76,11.75ZM355.71,519.02c5.53-4.34,9.38-9.35,13.63-15.27l-25.36-19.28c-5.09,4.82-9.85,10.16-16.27,14.48,8.08,8.67,17.36,15.31,28,20.07ZM143,510c-.09,6.65.4,13.45-.7,20.5,11.33,4.07,21.14,9.24,28.68,19.08,2.31-7.17,2.77-13.46,2.9-20.31-8.73-8.87-18.65-15.1-30.88-19.26-.39-.56-.47-.84-.7-1.03-.5-.43-.54-1.96.18-1.86.68.09,1.2,1.29,1.83,1.56,9.15,3.88,18.28,7.66,25.57,14.43,2.39,2.22,3.73,5.14,6.96,6.66.55-5.66-3.09-9.05-7.02-12.6-12.07-10.91-27.34-17.15-43.64-19.36-9.44-1.28-19.41-1.77-28.01,2.39-2.25,1.59-.78,6.4-1.13,8.77-.97,6.58-2.82,12.4-1.89,19.47,15.07-2.54,29.83-2.82,44.41,1.34l3.43-19.77ZM596.2,504.43c3.09.36,5.45,1.49,8.17.98,2.04,8.08,3.12,15.26,2.86,23.48,8.89,2.73,16.37,6.86,23.48,12.34.98.75,2.51.1,3.02,1.98s1.05,4.12,3.53,5.01c4.85-23.14-13.28-32.28-31.49-40.9,11.21,1.61,20.53,8.51,28.84,16.4.9-4.39-2.22-6.6-4.35-8.93-6.72-7.34-14.68-12.19-24.29-14.76-15.77-4.21-32.07-4.61-47.29,1.55-1.03,1.26-.09,3.6-1.28,4.49-1.07-1.31-.1-3.41-1.3-4.04-6.98.98-34.76,17.49-30.61,26.11,7.53-8.85,17.58-14.97,28.52-18.16-2.48,3.52-5.95,3.01-9.03,5.11-6.07,4.16-14.51,7.74-17.52,15.13-2.09,5.14,1.66,11.51,2.5,17.3,8.04-7.97,16.16-13.43,26.23-16.99l-.14-22.19c9.53-3.28,19.07-6.37,28.97-5.22l11.16,1.3ZM93.09,507.63c3.3-.77,3.86-4.57,2.31-7.64-10.04,2.1-25.37,10.44-29.48,22.82,7.76-6.79,16.17-12.6,27.17-15.18ZM349.37,523.13l-11.76-9.67c-5.07-2.65-8.96-5.95-12.92-10.95l-10.07,7.18c-2.74,15.23,1.8,19.41,14.17,26.6l20.58-13.16ZM360.02,520.89c-2.67-.26-4.12,2.16-6.38,3.59-11.06,7.02-21.59,14.04-31.82,22.41,2.99,8.37,6.84,15.63,12.55,22.1,12.54-20.1,26.82-22.89,42.38-38.36-6.38-3.95-12.85-4.66-16.73-9.74,5.48-.09,13.88,7.89,19.88,6.74,4.98-.96,8.84-11.55,6.21-15.22-3.18-4.44-9.41-5.28-12.69-9.22l-10.71,12.66c-1.12,1.33-3.32,3.34-2.7,5.05ZM604.2,528.27c.47-8.15.04-13.71-.88-20.57-15.04-4.04-30.16-3.57-45.27,1.82.02,6.49-.54,13.08.61,20.4,15.04-3.69,29.69-4.75,45.53-1.66ZM92.42,529.4c-.28-7.1,1.47-13.17,2.53-21.24-10.4,3.57-21.59,8.4-27.76,17.96.26,4.7,1.16,10.53,1.08,16.1,7.41-6.39,15.06-10.15,24.15-12.82ZM410.61,521.42c-6.94-2.26-12.93-4.39-20.13-7.76-3.63,30.78-19.35,61.77-40.56,85.05-20.39-24.03-38.83-55.86-39.82-87.52l-20.48,9.52c.53,16.85,6.07,31.62,13.09,46.33,9.69,20.31,21.71,38.65,37.96,54.16,3.16,3.01,6.09,5.9,10.06,7.56,29.25-21.67,57.35-71.29,59.88-107.35ZM225.69,525.93c-7.32-2.73-13.3-3.1-19.63-6.23l-1.2,11.51c7.27-1.31,14.02-1.62,20.83-5.29ZM494.97,530.1c.18-4.44.03-6.93-.52-10.3l-20.7,5.98c7.11,3.17,13.83,4.79,21.22,4.32ZM290.92,551.06c-3.03-9.77-4.46-18.69-5.9-28.98l-14.29,3.6,10.68,12.86c3.46,4.16,5.61,7.83,9.51,12.52ZM413.16,545.75l16.01-19.54-13.39-3.23-5.8,24.1c-.44,1.84-2.02,3.09-1.41,4.89,2.76-1.28,2.87-4.09,4.6-6.21ZM269.18,528.42c.46-1.17-1.02-2.24-1.8-2.1-1.33.25-2.59.02-4.38,1.22,1.56.86,3.77,1.66,6.18.88ZM436.97,527.5c-3.09-.67-4.72-1.24-6.58.51,2.38,2.25,4.64.39,6.58-.51ZM66.39,543.76c-.08-5.32.24-10.29-.75-15.88-4.85,6.65-4.51,14.27-3.52,22.24,1.24-2.12,3.84-4.04,4.27-6.36ZM92.75,541.06c-1.08,3.63-15.89,6.63-19.16,13.36l1.94,23.79-4.09-21.94c-5.78,5.84-3.07,22.12-.27,29.56l4.62-6.03c4.04-5.27,11.94-6.28,18.22-8.54l-.77-16.3c-.25-5.28.9-10.2.75-15.02.51-1.39,1.93.26,3-.07,12.46-3.85,25.43-3.77,37.73.16,7.57-8.11-.74,30.83-.45,32.27,6.86,2.17,12.59,4.78,18.33,10.1,4.28-7.65,6.19-15.85,9.42-24.23-5.78-6.82-13.09-10.76-20.92-14.31-.54-.25-1.25-1.17-1.02-1.42,2.31-2.53,16.4,6.99,20.14,10.25,6.58,5.74,9.13,13.43,8.33,22.35,2.79-2.76,5.45-6.38,5.22-10.13-.57-9.21-6.66-17.05-14.63-22.3-23.14-15.25-53.55-16.87-78.69-5.12-9.34,4.37-23.91,16.6-14.53,28.04,1.77-4.11,1.36-7.66,3.84-10.74,5.93-7.35,14.32-11.35,22.99-13.73ZM606.01,542.92c.84,9.26,1.22,18.27-.5,28.55,6.58,1.5,11.88,4.03,17.53,8.13,1.9-5.23,5.17-24.14,2.03-26.8-5.45-4.61-11.75-8.47-19.07-9.88.23-.54,0-1.41-.01-1.75s.41-.36,1.19-.69c12.33,4.66,23.67,9.31,26.75,24.53,11.1-12.65-9.4-26.08-20.04-30.08-21.86-8.22-46.19-6.5-67.25,3.5-10.63,5.05-19.03,13.75-20.49,25.72-.51,4.17,2.65,8.7,6.51,10.82-5.43-18.73,13.55-29.62,27.88-33.47.6-.16.44-2.61,1.09-2.91.6-.27,1.82,1.62,2.54,1.43,12.66-3.28,25.1-4.21,37.83-.87,2.17.57,3.88.8,4,3.76ZM365.21,571.83c-6.31-8.22-4.52-9.89-12.39-13.62-.73-.35.38-2.34,1.04-2.82s12.48,8.96,13.2,12.47c8.26-10.55,12.71-23.12,14.61-36.06-13.6,13.84-14.49,8.72-29.51,24.28-1.72,1.78-3.49,2.46-5.29,3.89-4.34,3.43-6.83,8.72-10.64,12.73,3.81,7.4,8.13,13.58,13.93,19.91,6.01-6.43,10.66-13.1,15.06-20.77ZM176.79,562.19c3.6-6.49,4.08-12.59,4.2-19.05-1.43-3.45-2.39-6.5-4.87-9.36-2.47,17.18-5.55,13.2.68,28.41ZM324.48,538.39c-1.96-1.76-3.65-3.43-6.42-3.69-.04,3.26.82,5.05,2.07,7.57,2.29-.86,3.61-2.1,4.35-3.88ZM523.62,562.16l4.1-12.34c1.62-4.87-2.09-10.29-2.91-15.46-7.53,5.49-4.97,20.95-1.19,27.8ZM131.39,571.25c1.74-9.37,3.96-18.35,4.13-28.86-11.85-3.42-24.34-3.38-36.37-1.03-.83.16-1.82-.75-2.42-.4-.55.32-1.37,25.76.57,29.59,11.43-2.41,22.35-2.29,34.09.7ZM603.07,570.97c1.65-10.67.79-19.38.8-28.93-15.16-4.12-25.77-1.83-40-.18l5,29.05c11.42-2.63,22.52-2.79,34.21.07ZM546.03,582.1c6.1-4.56,12.61-8.47,20.08-10.54l-4.48-28.71c-8.39,3.11-16.65,7.07-22.82,14.05-1.61,1.82-2.41,4.82-3.78,7.06-3.78,6.17,1.99,19.33,7.03,25.15,1.26-2.33,2.05-4.19,3.97-7.01ZM628.92,585.88c2.8-8.62,3.28-15.8,2.57-23.59-.53-2-1.14-3.91-3.1-4.88-1.63,3.62-.84,7.55-1.47,11.6l-1.82,11.72c1.47,1.79,1.97,4.19,3.82,5.15ZM157.85,589.36c6.19-6.64,11.5-21.72,5.48-28.87l-9.41,23.06c2.19,1.63,2.25,3.38,3.94,5.81ZM147.32,589.66c2.47,2.11,3.71,4.58,4.12,7.96,2.15-1.03,4.04-2.87,4.44-4.5,2.06-8.39-15.72-16.77-22.29-19.14-.8,2.12-.07,3.68-1.7,5.38-2-1.31,0-3.44.05-5.48-11.05-3.93-23.31-3.55-34.88-.88-.54,2.22,1.8,3.56.02,5.49l-2.8-5.04c-6.77,1.13-23.96,11.05-21.77,17.52.68,2.02,2.01,4.06,4.76,5.28.69-5.18,4.12-8.31,8.48-10.69,17.24-9.41,46.27-8.98,61.58,4.1ZM617.59,587.42c3.06,2.04,5.23,4.61,4.67,9.06,2.32-.35,4.13-2.3,4.95-3.83,4.21-7.8-14.3-17.95-21.66-18.87-1,2.17-.63,3.5-2,4.74-1.19-2.3.7-3.49.31-5.23-11.57-3.03-23.23-3.22-34.59.06-.98,1.27.23,3.7-.52,5.7-1.72-.91-1.47-2.72-2.25-5.21-6.45,2.02-24.52,9.99-22.28,18.33.51,1.9,1.76,4.2,4.24,4.94.46-3.77,2.61-6.19,5.35-8.42,15.08-12.25,46.13-13.06,63.78-1.27ZM606.93,587.03c-3.02-2.91-6-2.47-8.78-3.49l1.3,5.99c2.34-2.54,4.41-2.04,7.48-2.5ZM102.05,588.68c-.82-2.11-.11-3.65-1.04-3.75-1.24-.13-2.67.22-2.85.88-.77,2.72,2.91,4.38,2.38,4.2.63.2,1.69.03,1.51-1.33ZM146.42,598.44c2.24-3.7-3.31-9.01-5.78-8.08-1.71.65-4.17,4.49-5.47,1.96-.15-1.43,1.09-3.24.3-4.3-1-1.35-5.33-3.73-6.69-2.58-.59.5-.71,1.63-.43,2.32,1.25,3.08,5.37-1.14,5.7,1.78.22,1.94-10.88,7.5-5.95,11.57,4.07,3.36,15.34,2.25,18.32-2.67ZM95.06,591.02c-3.38.15-.98-4.64-1.4-5.1-4.45,1.03-14.81,6.61-13.23,11.9,4.77,3.91,15.33,7.34,20.7,3.36,3.86-2.86-2.03-10.34-6.07-10.16ZM572.22,600.92c2.07-1.83-1.61-7.06-3.59-7.26-3.15-.31-4.12-4.28-6.14-5.1-3.79-1.55-14.01,7.56-9.29,10.52s14.01,6.28,19.02,1.84ZM600.26,602.23c6.4,1.26,15.47.42,19.51-4.36,1.41-4.29-4.4-8.43-7.2-9.76-1.24,8.36-11.93-.04-14.09,6.89-.63,2.01-1.98,6.49,1.78,7.23Z"/>
  <path class="cls-32" d="M277.28,429.03c1.03.4-1.08,2.53-2.44,3.06-18.8,7.38-39.17,10.26-59.22,6.3-17.45-3.44-33.49-17.26-46.03-29.19,2.69-7.36,7.05-12.71,12.04-17.89,15.6,14.53,29.01,25.28,51.29,26.65,7.37.45,14.46-1.28,21.4-2.57,4.8-.89,8.1-3.53,12.08-5.83,6.57-3.79,13.2-7.15,19.74-11.65,5.45,4.66,9.68,10.08,16.73,11.67-5.5-4.8-10.44-8.88-14.87-14.54,10.17-6.01,21.2-9.39,32.95-11.22,30.5-4.76,64.68-.2,88.14,21.24,3.04,2.78,6.93,4.55,9.65,8.44.75-5.64-3.61-7.59-7.01-10.84l27.51-37.28c4-5.42,6.43-11.27,10.66-16.34,6.73,1.76,12.93,3.97,18.68,7.81-8.8,19.12-20.6,35.35-33.64,51.11-3.27,3.95-6.67,7.52-8.85,12.01-6.3,12.97-13.27,19.45-23.3,30.83l-11.4-17.56c3.87-5.26,16.46-18.64,17.48-24.37-6.21,4.11-7.81,14.95-13.42,11.6-10.76-6.41-21.45-12.41-34.1-14.73-18.77-3.44-38.54-1.89-56.07,5.59-9.75,4.16-18.07,9.95-28.34,12.69-2.8.75-4.79-2.04-6.61-3.32-8.02.91-15.97,3.6-24.35,3.24-3.85-.16-7.48-2.1-11.11.58,8.22,2.53,16.38,1.09,25.18-.47,15.29-2.71,7.66-.14,17.23,4.99ZM395.94,433.74l7.08,10.88c8.2-8.65,15.61-16.85,20.33-27.64l23.31-30.27c6.93-9,12.51-18.41,17.2-28.4l-12.11-5.42-9.82,15.07-25.23,34.47c3.63,3,7.97,7.95,5.71,12.16-1.81,3.36-8.46,1.56-10.36-2.13-5.06,7.97-10.6,14.13-16.11,21.27ZM397.8,417.27c2.53-4.91,4.43-7.14,7.76-10.43-17-15.83-47.59-23.33-69.67-21.28-14.55,1.35-28.81,3.3-42.07,10.59,3.62,4.48,8,7.71,12.87,10.65,11.78-4.84,23.71-5.68,36.32-6.02,16.61-.44,31.73,3.88,46.37,11.89l8.41,4.6ZM270.88,429.71c-2.54-8.7-18.53,3.88-37.64-2.16-2.3-.73-1.34-4.75-.25-6.31-21.35-.94-35.87-9.8-51.01-24.9-3.22,4.28-5.71,7.3-8.33,11.95l14.79,12.31c25.15,20.93,54.14,19.18,82.44,9.12ZM296.79,411.24c-4.69-3.07-7.37-4.82-10.98-8.97-4.93,4.48-10.85,6.14-15.91,9.59-5.75,3.92-11.27,6.7-18.06,7.66,5.73,1.03,11.14-.85,16.27-2.58,8.58-2.88-1.58,10.89,28.69-5.7Z"/>
  <path class="cls-32" d="M382.37,208.08c15.72-37.88-3.43-73.53-32.31-98.22-27.33,23.13-47.05,60.66-33.01,95.82l-15.09,19.4c-20.39-37.25-10.72-79.77,14.19-110.97,8.8-11.01,18.24-20.9,29.82-29.09,2.86-2.02,5.85-2.26,9.01.18,27.04,20.94,52.19,54.31,54,89.73.91,17.79-2.12,34.96-11.54,50.13l-15.08-16.98ZM343.77,110.41c3.28-3.34,6.17-4.94,10.08-2.22,5.32,3.7,9.19,8.67,13.49,13.41,9.86,10.89,23.08,34.38,23.47,48.52l.55,19.9c1.4-1.57.23-3.84,1.59-4.6,1.22-.68,3.24-.79,4.78-.04,3.06,1.5,2.66,4.89,1.53,7.36-1.19,2.61-3.74,4.27-7.09,2.94-1.73-.69-.21-3.21-2.02-4.7l-2.56,15.79c.84,4.57,6.17,8.06,9.33,11.42,13.9-26.99,10.91-55.44-2.77-81.36-10.49-19.87-24.94-36.9-43.43-49.92-5.67,2.11-9.09,6.63-13.6,10.08-6.8,5.21-11.59,11.57-16.98,18.2-10.24,12.59-18.05,26.81-22.36,43.19,2.65-.42,5.65-3.06,7.43-.55,1.91,2.69,1.03,8.71-1.97,9.94-1.91.78-4.07.34-5.27-.21-1.42-.66-.2-2.92-1.63-4.63-4.53,21.95-2.37,33.39,6.02,55.13l10.47-13.18c-6.69-22.11-4.69-40.88,5.66-61.26,5.07-9.98,10.8-18.48,18.71-26.53l6.56-6.68Z"/>
  <path class="cls-32" d="M410.61,521.42c-2.53,36.06-30.63,85.69-59.88,107.35-3.97-1.66-6.9-4.55-10.06-7.56-16.26-15.51-28.28-33.85-37.96-54.16-7.02-14.71-12.56-29.48-13.09-46.33l20.48-9.52c.99,31.65,19.42,63.48,39.82,87.52,21.21-23.29,36.93-54.27,40.56-85.05,7.2,3.37,13.19,5.5,20.13,7.76ZM393.32,519.41c-5.48,31.41-19.62,58.81-40.41,81.38-1.3,1.41-2.84,1.23-4.33,1.3s-1.94-1.27-3.07-2.68c-19.44-24.25-35.35-50.32-38.57-82.82-4.67,2.22-8.56,4.43-13.95,6.02,1.12,15.72,6.69,29.62,13.59,43.84,10.01,20.62,22.7,39.71,39.71,55.09.84.76,3.68,3.08,4.83,2.55,29.07-26.08,48.92-61.33,56.2-99.6-5.34-2.14-9.51-3.95-14-5.09Z"/>
  <path class="cls-32" d="M244.37,318.02c1.6,31.84,20.83,53.74,39.22,77.75l-19.29,11.08c-11.58-15.28-22.99-29.5-31.89-46.34-14.14-26.74-12.52-60.35-2.11-88.16,6.2-16.57,15.87-31,28-44.47,1.97,8.03,5.18,14.7,7.77,22.1-.1,2.79-3.58,4.93-4.83,7.18-9.6,17.31-17.89,40.75-16.88,60.86ZM254,262c2.91-3.76,4.29-8.39,8.37-11.99l-6.01-14.29c-17.25,21.24-27.02,42.57-30.17,69.28-4.91,41.65,15.17,64.99,38.67,96.43,4.93-2.35,9.32-4.14,13.36-6.93-12.01-14.82-24.17-29.97-30.62-46.75-11.87,4.32-2.67-3.13-15.84-4.77-2.11-8.11-.58-16.92,4.43-23.72l4.92-.49c-.94-20.79,4.57-37.11,12.88-56.76ZM240.56,325.54c.78-.66.36-2.23.17-2.79-1.7-5.16-9.32,12.93-5.62,18.57,4.36-3.72,1.41-12.35,5.45-15.78ZM243.13,345.19c.58-2.45-.08-5.69-3.04-6.63.14,3.09,2.14,4.55,3.04,6.63Z"/>
  <path class="cls-32" d="M207.85,515.89c-2.21-.93-3.77-1.33-4.38-2.82-1.69-4.13,7.74-13.94,11.55-17.33,39.56,16.43,84.54-.3,113.43-29.26,5.67-5.69,11.46-10.28,16.41-16.66,2.9-3.75,7.09-6.2,9.39-11.19,5.91,3.86,10.48,8.1,15.21,13.67l-21.46,22.73c-7.09,7.51-13.87,14.65-22.04,21.07-16.11,12.66-34.28,21.23-54.36,25.63-21.61,4.74-43.05,2.89-63.75-5.86ZM342.47,476.15c3.63-5.81,9.14-9.66,13.73-14.97,2.64-3.05,4.87-6.32,8.21-8.98-2.48-3.78-5.79-5.01-8.98-8.17-6.96,6.41-10.21,11.92-17.53,18.57,5.02,2.97,1.92,6.2,4.58,13.54ZM335.84,466.75c-1.02,1.67-1.84,4.59-1.4,6.81.34.85,3.13.43,3.41-.35,1.2-3.32-.77-8.49-2.01-6.45ZM224.12,516.77c27.61,11.43,70.57-2.1,93.88-19.55-2.04-.46-5.83.63-6.59-1.39-2-5.31,2.49-8.51,6.39-11.16,2.65-1.8,7.44-4.83,9.75-1.39,2.82,4.21-3.04,6.21-4.27,10.02,5.53-4.08,10.37-8.74,15.82-13.74-2.34-1.45-5.78-1.65-7.66-3.9-1.39-1.66.17-4.59-.59-6.65-18.01,18.75-40.99,31.21-67.36,35.36-11.69,1.84-36.52,1.06-48.02-4.4-3.04,4.28-6.26,7.42-8.34,11.61,5.52,1.8,10.05,4.76,17,5.19ZM314.28,493.54c5.2-1.48,7.71-4.43,9.8-8.04-4.48,1.73-7.51,4.71-9.8,8.04Z"/>
  <path class="cls-32" d="M450.11,324.98c3.12-.05-.62,9.3-.97,8.93-.28-.29,2.28-7.35,2.47-7.71.12-.25.75-.24,1.51-.17,10.45,2.21,19.74,7.27,29.49,12.46,17.02,9.07,32.55,19.2,46.53,32.54,11.66,11.13,19.28,24.71,22.18,40.55-3.82,3.15-6.14,7.54-9.21,10.55-1.29,1.26-6.41.52-6.93-1.19-10.07-33.62-27.34-45.09-56.71-62.42-8.99-5.31-17.67-10.51-27.85-13.12-5.59-1.43-10.77-3.03-15.56-6.83,2.09-10.72-.23-21.26-6.05-30.42-3.12-4.91,7.8-7.87,6.16-12.93,2.43.12,3.68,2.51,5.41,4.38,6.91,7.5,12.04,15.33,9.51,25.38ZM442.92,338.68c-.32-2.8,1.32-4.86,2.39-7.34,4.65-10.84.57-22.09-8.32-29.62-2.11,1.68-3.49,3.12-4.77,4.69,5.99,8.61,7.47,18.49,6.69,28.65-.14,1.81,2.09,2.78,4.01,3.62ZM537.99,417.54c-.36.05-.24,6.63,9.39-8.38-3.52-10.33-7.13-20.29-14.22-28.29-15.94-18.02-33.95-28.99-54.67-40.38-7.75-4.26-15.33-8.09-23.57-10.24-1.38,4.48-1.81,8.06-4.85,11.39,9.99,1.86,18.83,6.9,28.01,12.28,21.68,12.7,45.88,27.1,55.49,52,.68-1.74,1.82-3.1,3.46-3.54,1.76-.47,4.55-1.02,5.74.75,5.93,8.81-6.69,14.69-4.79,14.41ZM541.16,408.63c-.28-1.97-.6-2.94-1.65-3.15-.92-.18-6.42,4.34-4.41,8.64,2.67-.87,4.67-2.67,6.06-5.49Z"/>
  <path class="cls-32" d="M74.66,504.25c-7.28,5.79-13.58,11.92-17.06,20.3-1.64,3.94-.06,7.57-.44,11.93-3.42-4.42-3.13-9.45-3.42-14.47-1.56-27.41,15.88-45.2,35.09-61.08,10.4-8.6,20.95-16.05,33.11-22,14.71-7.19,42.05-19.62,56.46-8.44,4.09,3.18,8.33,5.2,12.28,9.98-27.56,5.45-38.2,1.57-63.8,16.74-15.97,9.46-43.31,29.47-52.22,47.05ZM120.84,456.21c13.51-8.12,27.53-14.24,43.09-15.23,6.36-.4,11.89-1.5,18.54-2.93l-7.41-5.22c-2.87-2.02-7.15-4.28-11.05-3.83-9.41,1.08-18.37,3.51-26.97,7.06-5.75,2.38-10.43,5.69-16.19,7.36,3.51,1.36,4.33,3.12,4.34,6.06.02,4.65-7.5,5.08-4.35,6.73ZM121.79,449.01c-.78-1.6-2.27-2.07-3.09-1.7-.63.29-1.3.7-2.02,1.41-3.13,3.73-6.97,6.52-8.56,11.63l13.67-11.33ZM71.71,502.16c10.55-18.94,23.13-26,38.51-38.78-2-.82-3.93-.06-4.8-1.31-2.38-3.43,2.85-8.32,1.75-10.3-22.08,15.98-48.86,35.84-50.14,65.38,3.95-5.9,8.22-10.96,14.68-14.99Z"/>
  <path class="cls-36" d="M596.2,504.43l-11.16-1.3c-9.9-1.15-19.44,1.94-28.97,5.22l.14,22.19c-10.08,3.56-18.19,9.03-26.23,16.99-.84-5.79-4.59-12.16-2.5-17.3,3.01-7.39,11.45-10.97,17.52-15.13,3.07-2.11,6.55-1.59,9.03-5.11-10.94,3.19-20.99,9.31-28.52,18.16-4.15-8.62,23.62-25.13,30.61-26.11,1.2.63.23,2.73,1.3,4.04,1.19-.89.26-3.23,1.28-4.49,15.21-6.16,31.51-5.76,47.29-1.55,9.61,2.57,17.57,7.42,24.29,14.76,2.14,2.34,5.25,4.55,4.35,8.93-8.31-7.89-17.64-14.79-28.84-16.4,18.21,8.62,36.34,17.76,31.49,40.9-2.48-.88-3.02-3.12-3.53-5.01s-2.04-1.23-3.02-1.98c-7.11-5.49-14.59-9.62-23.48-12.34.26-8.21-.82-15.4-2.86-23.48-2.73.51-5.08-.62-8.17-.98ZM629.55,536.01c.29-3.41,1.44-6.82.02-8.57-4.95-6.07-11.22-10.38-19.14-13.53-.48,3.24-1.58,10.28,1.93,12.42,5.84,3.56,12.51,4.9,17.19,9.68ZM553.46,527.34c-2.25-4.63-1.61-6.81-.45-11.43-8.45,3.18-16.78,7.93-22.63,15.63-1.35,2.12.79,6.13,1.86,8.62,6.39-5.68,13.32-9.17,21.21-12.82Z"/>
  <path class="cls-32" d="M93.99,539.94c-.14,1.15-.55,1.53-1.24,1.12-8.67,2.38-17.07,6.38-22.99,13.73-2.48,3.08-2.07,6.63-3.84,10.74-9.38-11.44,5.19-23.67,14.53-28.04,25.14-11.75,55.55-10.14,78.69,5.12,7.97,5.25,14.06,13.09,14.63,22.3.23,3.75-2.43,7.37-5.22,10.13.8-8.92-1.75-16.61-8.33-22.35-3.74-3.26-17.83-12.78-20.14-10.25-.23.25.48,1.17,1.02,1.42,7.83,3.55,15.14,7.48,20.92,14.31-3.23,8.39-5.14,16.58-9.42,24.23-5.74-5.32-11.46-7.93-18.33-10.1-.29-1.45,8.02-40.39.45-32.27-12.3-3.93-25.28-4.01-37.73-.16-1.07.33-2.49-1.32-3,.07ZM107,533v1h14.5v-1h-14.5ZM151.58,576.82l6.22-17.58c-4.61-4.92-9.97-8.18-16.51-11.06l-3.21,21.7c5.42,1.35,9.53,3.87,13.5,6.95Z"/>
  <path class="cls-32" d="M407.15,309.72c0,31.6-25.62,57.22-57.22,57.22s-57.22-25.62-57.22-57.22,25.62-57.22,57.22-57.22,57.22,25.62,57.22,57.22ZM391.4,343.44c17.39-23,14.85-54.75-5.47-73.3-9.66-8.82-22.22-14.26-35.43-14.55-31.39-.7-56.39,27-53.36,58.48,2.64,27.43,28.33,53.6,56.97,49.89,14.44-1.87,28.36-8.72,37.29-20.53Z"/>
  <path class="cls-32" d="M486.21,496.21c1.02.09,2.11.76,3.26,2.02-1.43-.3-2.49-1.95-.76-2.9,1.74-1.67,3.16-3.15,5.36-3.25-1.8,13.4,4.11,16.48,3.45,19.03-.36,1.42-1.24,2.92-2.9,3.62-17.82,7.55-37.04,11.37-56.31,8.94-25.97-3.28-49.36-12.56-70.34-27.68-7.09-5.11-13.9-9.64-18.42-17.21l13.7-14.98c20.73,19.96,45.91,32.83,73.66,37.22,29.06,4.6,43.35-5.42,49.29-4.82ZM483.7,500.17c-6.37,1.26-13.68,4.53-20.65,4.63-7.84.11-15.27.86-23.13,0-28.94-3.18-55.46-16.47-76.64-35.65-3.26,3.27-6.03,6.94-8.75,10.54,4.17,5.7,9.31,8.54,14.51,12.35,21.48,15.75,45.66,25.52,72.45,28.51,18.08,2.02,35.7-2.3,52.7-9.62-7.25-8.63,1.37-6.27-10.49-10.76Z"/>
  <path class="cls-32" d="M594.69,449.85c10.6-11.55,8.52-18.27,11.4-22.58,4.15-6.23,3.86-14.48-1.12-20.33-14.01-16.46-35.84-23.57-57.09-17.63-4.22-6.52-8.75-11.79-13.31-17.83,32.76-11.81,69.12-.65,88.92,27.02,8.16,11.4,9.81,25.85,2.95,37.94-4.41,7.78-11.72,13.48-19.31,17.84-3.85-1.61-7.73-3.64-12.43-4.42ZM606.69,449.69c8.48-3.7,15.07-11.01,18.51-19.36,4.22-10.27,1.3-20.96-4.54-29.28-3.72,3.79-7.66,1.79-11.17-.57-2.99-2.01-6.51-5.02-3.67-8.83,1.15-1.54,4.23.04,6.29-.95-19.65-16.94-44.94-25.8-71.22-17.55l8.47,11.99c22.3-4.48,45.63,2.45,59.55,20.95,5.64,7.5,3.66,18.38-.9,25.71-1.45,2.33-.48,4.64-1.42,6.8-1.51,3.47-3.67,6.03-5.51,9.31,1.58-1.04,4.19,2.39,5.61,1.77ZM616.97,400.23c-1.21-3.93-4.81-5.14-8.49-5.82,2.86,3.02,5.35,4.37,8.49,5.82Z"/>
  <path class="cls-32" d="M93.43,426.38c3.01,6.99,9.31,11.21,14.63,16.27-6.17,4.24-11.89,7.62-17.47,12.84-6.18-5.18-11.93-11.1-15.9-17.7-9.34-15.56-5.73-32.52,6.16-45.01,21.31-22.38,53.16-32.41,83.34-21.33-5.21,6.23-10.06,11.22-14.32,17.62-17.59-4.84-34.96.6-48.61,12.11-7.42,6.26-12.19,15.06-7.83,25.19ZM101.48,441.74c-5.51-4.83-9.63-9.13-12.24-15.11-.48-5.06-.33-10.19-.05-15.32,8.91-20.13,37.5-31.22,58.61-26.33l9.58-12.03c-23.14-7.58-52.07,1.33-68.48,17.7,1.4.87,3.62-.07,4.31.96,2.43,3.63.25,6.73-2.32,9.24-3.6,3.51-8.78,4.85-12.68,1.14-12.27,19.87-1.51,35.34,12.28,49.03l11-9.27ZM90.94,394.83c-3.76-.66-7.65,2.14-8.36,6.19,3.54-1.04,6.11-2.37,8.36-6.19Z"/>
  <path class="cls-32" d="M308.75,258.42c-5.43-5.01-9.43-11.06-13.12-17.62,9.46-16.62,23.26-31.94,35.92-46.17-.93-.57-1.53-.75-1.93-1.05-1-.75-.44-1.85-.01-2.99,5.76-15.28,16.35-27.07,29.66-36.35,4.81-3.36,9.38-6.06,14.32-10.45,4.03,5.95,7.27,12.49,8.65,20.23-18.42,11.79-30.35,19.58-39.26,39.71.79,1.44,2.87,2.63,2.83,3.82-.05,1.55-1.63,2.34-2.42,3.86-13.46,13.84-24.5,28.56-34.63,47.01ZM343.3,195.47c3.51-7.61,8.07-12.74,13.44-17.74,6.54-6.15,13.78-10.87,21.53-15.44-1.47-4.89-3.08-8.98-5.93-12.62-19.36,13.58-28.27,19.17-38.64,40.02,4.83-.23,5.98,3.06,9.6,5.78ZM341.37,201.79c-.32-4.21-3.44-7.26-7.44-8.84,1.85,3.49,3.96,6.2,7.44,8.84ZM308.23,251.81c9.43-16.33,19.54-29.53,31.48-42.08,3.72-3.91-2.45-3.8-6.58-11.36-12.84,14.54-23.49,26.74-33.29,42.49,2.34,4.37,4.94,8.14,8.39,10.95Z"/>
  <path class="cls-32" d="M185.1,530.3c2.4.51,1.55,3.33,4.18,3.61-2.2-6.83-6.26-11.49-11.16-16.12-16.71-15.77-38.06-24.55-61.22-25.3-11.42-.37-21.52,2.46-33.52,4.58,8.06-8.87,15.77-17.98,26.03-23.52,5.54-2.99,14.29-1,20.59-.43,17.47,1.56,33.23,8.8,47.58,18.18,13.76,8.99,29.52,25.04,22.3,41.76-2.27,5.25-7.72,10.45-14.54,12.68-.63-5.07-.37-9.51-.24-15.43ZM193.32,535.99c14-15.76-6.02-33.65-18.45-41.96-17.94-11.99-41.85-20.85-63.23-17.46-7.09,3.57-11.65,9.56-18.17,14.46,10.7-1.09,19.21-2.68,29.18-1.72,25.68,2.47,49.84,13.76,65.55,34.35,2.91,3.81,4.92,7.47,5.12,12.33Z"/>
  <path class="cls-32" d="M516.06,530.38c-.39,5.16-1.03,9.44-.37,15.03-13.08-3.54-19.93-16.56-15.45-29.29,9.76-27.77,60.02-45.81,87.32-43.91,10.98,6.89,21.14,14.44,29.07,25.36-33.22-11.09-68.94-3.62-94.21,19.83-5.21,4.84-9.33,10.13-11.08,16.66l4.72-3.68ZM540.93,499.87c17.26-9.18,36.71-12.25,56.12-9.99l8.71,1.01c-6.33-5.82-13.27-12.17-21.8-15.73-25.04,1.16-60.63,13.4-75.8,33.83-6.28,8.46-9.13,19.35-.33,27.21-.22-15.62,21-29.9,33.1-36.33Z"/>
  <path class="cls-36" d="M318.41,461.15c-3.55,4.5-5.25,10.03-7.64,15.72-7.1,4.98-14.41,9.28-22.86,13.11,1.41-22.61,18.12-54.61,34.97-69.21,5.28-4.57,10.68-11.21,17.86-12.71,9.35-1.95,19.08.97,28.31,4.29-17.91,9.42-32.74,21.88-45.5,37.81l6.03,9.65c-3.67,3.69-7.23,7.29-11.84,10.77-1.55-3.37,1.59-5.38.67-9.44ZM321.8,455.56c-2.67-1.56-.86-5.47-2.32-7.2-2.87-3.41-7-6.83-3.53-11.73.92-1.3,5.08-1.08,6.39.27,1.04,1.08,1.87,2.9,3.14,5.37,9.79-11.47,20.93-20.71,34.02-29.05-5.89-1.59-13.52-4.27-18.79-1.38-15.04,8.25-26.34,21.61-34.49,36.37-6.43,11.65-11.94,22.53-14.04,35.8,4.33-3.79,10.67-4.94,14.6-9.31,5.39-6,6.1-20.33,15.02-19.14ZM321.86,444.97c-.06-3.7-1.74-4.88-3.83-6.02-.12,3.29,1.9,4.71,3.83,6.02Z"/>
  <path class="cls-32" d="M606.01,542.92c-.12-2.96-1.83-3.19-4-3.76-12.73-3.34-25.17-2.41-37.83.87-.72.19-1.94-1.7-2.54-1.43-.65.29-.49,2.75-1.09,2.91-14.33,3.84-33.31,14.74-27.88,33.47-3.86-2.13-7.02-6.65-6.51-10.82,1.46-11.98,9.86-20.68,20.49-25.72,21.06-9.99,45.39-11.72,67.25-3.5,10.64,4,31.14,17.43,20.04,30.08-3.08-15.22-14.42-19.87-26.75-24.53-.78.34-1.19.36-1.19.69s.24,1.22.01,1.75ZM576,533v1h16.5v-1h-16.5Z"/>
  <path class="cls-36" d="M143,510l-3.43,19.77c-14.58-4.16-29.34-3.88-44.41-1.34-.92-7.07.92-12.89,1.89-19.47.35-2.37-1.12-7.18,1.13-8.77,8.6-4.16,18.56-3.67,28.01-2.39,16.3,2.21,31.56,8.45,43.64,19.36,3.93,3.55,7.58,6.94,7.02,12.6-3.23-1.52-4.58-4.44-6.96-6.66-7.29-6.77-16.42-10.55-25.57-14.43-.63-.27-1.15-1.47-1.83-1.56-.72-.1-.68,1.43-.18,1.86.23.19.31.47.7,1.03ZM141.32,508.68c-5.57-4.28-12.8-4.02-19.78-5.22-7.99-1.38-16.39.51-23.72,2.96,3.16,1.12,6.22,0,9.09-.56,14.28-2.84,20.73,1.11,34.41,2.83ZM125.12,523.75c3.74.65,6.82.27,11.47,1.67-.05-3.7,2.9-8.61.84-12.03-2.17-3.6-8.19-2.92-11.76-3.91-5-1.39-8.87-2-13.9-.65-3.17.85-8.9-.23-11.07,2.76-2.42,3.35-1.22,8.39-2.99,12.27,13.49,1.04,12.75-2.64,27.39-.11Z"/>
  <path class="cls-32" d="M161.63,422.37c-4.85.01-19.36,4.5-20.88,3.46-.51-.35-.82-1.54-.56-2.8,2.92-14.14,8.49-27.62,18.08-39.04,16.91-20.13,39.07-35.07,62.61-45.77,1.42,7.72,3.63,13.31,5.83,19.67l-22.06,11.06c-9.8,4.91-17.83,12.31-25.45,20.2-8.87,9.19-14.97,19.94-17.58,33.23ZM201.44,366.49l20.72-10.7c-1.55-4.11-2.7-8-3.84-12.4-16.26,7.61-29.57,17.17-42.81,28.11-15.79,13.06-26.94,30.27-31.65,50.71,5.12-1.15,9.39-2.4,14.63-2.81,3.05-13.12,9.24-23.88,18.59-33.55,5.21-5.39,17.73-15.94,24.38-19.37Z"/>
  <path class="cls-36" d="M308.01,263.47c-6.03,5.91-10.36,11.72-13.96,19.15l-9.59-10.99c-6.94-7.95-11.62-17.39-16.17-27.01-12.95-27.39-7.88-56.92,18.51-74.57,2.05,21.48-4.04,22.24-4.9,32.85-1.94,23.94,10.58,43.07,26.11,60.57ZM279.19,218.95l-1.13-10.02c-.37-3.32,2.12-6.41.75-9.76-1.88-.26-4.44-.2-4.72-1.81-.31-1.81-.42-4.09.88-4.91s3.02-.9,5.32.49c2.37-4.99,4.87-10.44,3.4-15.9-27.22,23.6-21.53,53.55-4.16,80.38,4.25,6.56,7.55,13.29,14.05,18.51,1.75-4.32,5.2-8.02,8.69-11.91-8.77-13.48-21.16-27.93-23.09-45.08Z"/>
  <path class="cls-32" d="M406.69,282.04c-4.51-6.53-8.52-12.9-14.54-18.15,18.4-18.63,37.15-53.27,20.59-77.47l.34-16.62c27.03,18.3,30.84,45.3,19.1,74.45-6.37,13.69-14.34,26.04-25.49,37.8ZM397.17,263.77c5.13,4.39,6.57,7.43,9.88,12.28,23.21-26.81,44.66-69.23,9.27-99.04-2.36,15.14,5.08,3.93,5.81,30.96.22,8.27-.96,15.56-4.06,23.11-4.99,12.16-11.32,22.99-20.9,32.7Z"/>
  <path class="cls-36" d="M300.42,351.19c-3.54-6.02-6.61-11.81-8.09-18.74,3.61,6,6.98,11.87,9.92,17.9,1.74,3.57,3.74,3.42,6.08,5.47,10.66,9.38,23.02,15.73,37.65,16.32,15.97.64,30.8-3.88,42.9-14.25,13.66-11.71,9.19-8.89,18.71-26.08,3.14,3.54-.68,6.08-1.88,8.83-2.36,5.43-4.51,9.98-9.22,13.86-2.01,1.66-2.17,5.23-3.68,7.37-5.42,7.69-11.69,14.13-18.86,20.52-17.99-4.99-35.5-4.9-53.94-2.23-4.35-5.81-9.09-11.09-12.73-17.3l-6.86-11.68ZM337.02,374.48c-8.74-1.11-15.95-4.93-24.11-9.78,3.23,3.13,4.69,8.02,8.02,10.28,4.32,2.93,10.87.25,16.08-.5ZM373.93,378.07l11.1-12.42c-9.51,5.81-19,9.23-30.08,9.78l18.97,2.64Z"/>
  <path class="cls-36" d="M316.17,380.77c-6.76,2.28-12.61,3.41-19.02,6.2-16.88-17.24-43.53-56.53-19.63-77.34,3.58-3.12,6.17-6.19,10.76-7.33-.59,7.94-.15,14.54.6,21.68.68,6.42-6.97,5.35,8.16,30.04,5.42,9.5,11.65,17.68,19.11,26.75ZM286.93,342.07c-1.96-1.18-3.83-1.05-6.03-2.1-2.34-5.58-5.09-11.59-4.82-17.96.11-2.68,4.13-2.37,5.84-1.59s1.52,2.83,2.83,4.7c.44-6.22.38-11.57,0-17.02-10.14,7.93-16.22,18.45-12.48,30.72,5.02,16.49,13.89,30.93,25.42,43.58l12.37-3.68c-7.41-7.94-19.71-26.16-23.14-36.65ZM282.77,334.16c.26-4.34-.93-8.29-3.56-11.4.4,4.47,1.55,7.89,3.56,11.4Z"/>
  <path class="cls-32" d="M456.27,323.29l-.45-18.27c-.5-20.19-10.62-38.55-22.44-54.61,3.44-7.74,6.34-14.8,8.35-23.1,26.13,28.2,41.79,65.96,34.66,104.13-7.22-3.08-12.98-6.27-20.11-8.15ZM473.43,326.47c1.63-7.15,2.03-13.89,1.18-21.08-3.3-27.85-13.68-49.37-31.18-70.48l-5.69,15.19c15.12,22.33,23.16,42.05,21.22,70.47,4.88.88,9.39,2.62,14.47,5.9Z"/>
  <path class="cls-32" d="M493.52,482.67c1.97,9.79-15.49,9.05-16.46,8.82-2.87-.66-4.14-5.75-4.96-8.65-6.94-24.7-20.16-46.63-40.66-62.95,2.73-5.19,5.87-8.7,9.5-13.73,7.95,5.09,16.54,9.32,23.31,16.67,15.34,16.68,24.84,37.9,29.26,59.83ZM489.7,483.74c-1.17-12.12-6.22-22.51-10.8-32.53-4.79-9.34-9.85-17.55-16.77-25.41-3.49-3.96-7.88-6.52-12.33-9.67-2.24-1.59-5.39-4.87-8.27-3.75-2.43.94-3.66,4.42-4.8,6.59l14.82,15.44c12.02,12.52,20.84,36.76,26.43,52.84,2.11,1.99,12.06.32,11.74-3.52Z"/>
  <path class="cls-36" d="M615.4,370.41c-19.12-17.97-50.69-17.85-72.37-8.37-3.6,1.57-8.13,6.6-11.99,4.89-3.18-1.51-.42-7.44,1.4-9.61,11.6-13.87,36.22-21.57,54.24-16.16,9.43,2.83,18.13,6.88,24.64,14.49,3.55,4.15,6.41,9.37,4.07,14.76ZM597.34,356.39c1.21-1.86.9-4.35.18-6.25-.51-1.35-2.59-2.43-4.65-3.05-19.05-5.68-15.77-6.14-36.03-1.13-3.29.81-6.62,2.7-9.31,4.57-1.42.99-.64,4.52.12,5.9,11.15-4.6,39.43-6.17,49.69-.03ZM542.63,358.46c2.66-2.77,1.32-5.71.88-8.55-.32,2.83-2.06,5.43-.88,8.55ZM603.54,360.31c.93-3.85.14-7.08-2.2-9.46-.53,3.46-.76,6.59,2.2,9.46ZM533.9,362.49c2.36-.37,3.83-.99,4.52-1.73,1-1.09.88-3.07.19-4.83-1.97,2.01-3.74,4.03-4.71,6.56Z"/>
  <path class="cls-36" d="M157.33,352.13l-1.03,9.68c-21.89-9.78-53.31-8.55-71.81,8.4-3.38-19.52,26.27-31.19,41.54-30.89,14.82.29,35.5,7.16,43.29,21.25,1.27,2.3.97,7.25-2.39,6.97-3.12-.25-6.2-3.75-9.04-5.33.91-3.61,1.99-6.07-.57-10.08ZM135.48,352.45c6.09,1.32,11.91,2.02,18.18,4.38.25-1.02,1.35-5.58-.87-6.72-10.63-5.49-23.29-8.83-35-6.4-5.54,1.15-10.96,2.65-15.29,5.86-1.55,1.14-.27,5.16-.2,6.3,5.81-2.76,28.52-4.42,33.18-3.41ZM97.39,360.12c1.06-2.52,2.24-5,1.22-8.25-1.05,2.53-2.23,4.97-1.22,8.25ZM89.79,360.12c2.27.4,3.36-.39,3.8-1.22.57-1.07.84-2.57-.01-3.97-1.46,1.49-2.2,3.02-3.78,5.19ZM164.83,361.32c-.5-2.63-1.37-3.57-2.49-4.35-.67,1.55-.48,3.06.04,3.96.4.69,2.68,1.6,2.45.39Z"/>
  <path class="cls-36" d="M430.83,341.02c-5.37,21.42-17.38,35.89-33.76,50.59l-18.08-8.3c12.56-13.92,27.08-30.03,34.87-46.45.26-10.69.47-21.04-.23-31.55-.07-1.1,1.33-1.41,1.9-1.53-.31.06,9.24,10.64,10.18,12.25-.43-3.54-2.42-5.66-1.92-8.53,7.73,9.54,10.07,21.37,7.03,33.52ZM410.85,372.37c3.63-3.7,5.52-8.27,8.24-12.35,5.3-7.96,13.88-29.94,7.38-39.48-.86-1.26-3.46-1.11-4.34-2.71-1.31-2.37-2.71-4.43-5.04-5.92l-.16,26.93c-2.93,8.08-7.8,14.51-13.09,20.96l-18.42,22.47c4.01,1.39,7.05,2.75,10.8,5.04l14.63-14.93Z"/>
  <path class="cls-36" d="M642.65,536.4c3.73-16.68-9.94-24.52-18.15-33.82-6.42-7.28-10.95-15.4-18.88-21.31-8.46-6.3-16.38-12.43-26.6-17.05,6.3-4.13,12.13-7.28,19.15-10.41,20.72,12.41,39.49,27.13,46.87,51.12,1.56,10.52,4.19,21.48-2.39,31.47ZM642.71,516.91c.48-9.18-2.58-16.32-6.51-23.11-9.28-17-22.45-25.31-38.19-35.87-3.53,2.17-7.3,2.9-10.79,6.24,11.02,6.63,20.88,13.34,29.45,22.17,4.17,4.3,6.37,10.17,10.83,14.28,5.6,5.16,11.3,9.85,15.21,16.29Z"/>
  <path class="cls-36" d="M563.85,469.88c-5.93,3.84-13.62,4.22-20.29,6.79-8.84,3.41-16.51,7.18-24.51,12.74,1.2-6.42,4.79-9.94,8.3-14.1,8.83-10.46,19.25-19.2,31.74-25.18,10.24-4.9,19.29-11.16,30.05-14.69,4.26-1.4,7.91-3.57,12.64-4.34,1.07,10.02-13.08,17.48-8.02,19.38-5.33,4.06-11.1,7.23-16.55,10.76l-13.36,8.66ZM573.61,458.98c7.75-5.16,12.22-4.95,15.98-12.49,1.72-3.45,5.47-5.47,6.71-9.76-13.23,3.84-23.85,10.97-35.72,16.76s-21.98,14.16-30.69,24.74l32.03-11.46,11.69-7.78Z"/>
  <path class="cls-32" d="M410.96,490.11c-8.99-2.44-16.24-7.52-24.5-11.91-5.84-21.08-18.98-36.32-37.63-48.32,6.24-5.39,12.79-9.53,20.35-13.53,11.16,7.31,18.9,17.47,25.75,28.67,8.32,13.55,15,27.64,16.02,45.08ZM389.33,475.74l17.76,9.26c-2.78-20.26-21.08-53-37.87-64.03-5.33,2.02-9.46,5.2-14.14,8.61,15.42,11.13,29.33,26.3,34.25,46.16Z"/>
  <path class="cls-36" d="M617.59,587.42c-17.65-11.79-48.7-10.99-63.78,1.27-2.74,2.23-4.89,4.65-5.35,8.42-2.47-.74-3.73-3.04-4.24-4.94-2.24-8.34,15.83-16.3,22.28-18.33.78,2.49.53,4.3,2.25,5.21.74-2-.47-4.43.52-5.7,11.36-3.27,23.02-3.09,34.59-.06.4,1.75-1.5,2.93-.31,5.23,1.37-1.25,1-2.57,2-4.74,7.35.91,25.86,11.07,21.66,18.87-.83,1.53-2.63,3.48-4.95,3.83.57-4.45-1.61-7.01-4.67-9.06ZM597.89,575.7c-14.12-2.34-10.94-2.04-22.98-.11,8.22.76,15.57.53,22.98.11Z"/>
  <path class="cls-36" d="M147.32,589.66c-15.32-13.08-44.35-13.51-61.58-4.1-4.36,2.38-7.78,5.51-8.48,10.69-2.75-1.22-4.07-3.26-4.76-5.28-2.19-6.47,15-16.39,21.77-17.52l2.8,5.04c1.77-1.93-.56-3.26-.02-5.49,11.56-2.66,23.82-3.04,34.88.88-.05,2.04-2.04,4.16-.05,5.48,1.64-1.7.9-3.26,1.7-5.38,6.57,2.37,24.35,10.75,22.29,19.14-.4,1.62-2.29,3.47-4.44,4.5-.41-3.37-1.65-5.85-4.12-7.96ZM128.13,576.21c-15.78-3.55-12.38-1.27-26.07-1.26-1.73,1.98-.22,2.96,1.34,1.24,7.49-1.05,19.43.73,24.74.01Z"/>
  <path class="cls-36" d="M404.78,240.74c-3.34,6.58-7.55,12.09-12.72,17.98-14.46-22.07-30.53-34.98-44.16-55.82,2.15-6.37,5.64-11.64,10.59-16.27,9.57,11.55,18.64,21.85,28.79,32.04,6.79,6.82,12.78,13.73,17.49,22.07ZM392.42,252.2c3.07-3.57,5.35-6.78,7.75-10.32-1.56-5.66-5.23-9.78-9.17-13.91l-19.5-20.37-13.14-15.49c-2.14,2.96-4.85,5.87-6.46,10.09,5.39,8.43,11.94,15.76,18.58,23.24l4.74,5.35,17.19,21.4Z"/>
  <path class="cls-36" d="M365.21,571.83c-4.4,7.67-9.05,14.35-15.06,20.77-5.79-6.33-10.11-12.51-13.93-19.91,3.81-4.02,6.31-9.3,10.64-12.73,1.8-1.42,3.57-2.1,5.29-3.89,15.01-15.56,15.91-10.44,29.51-24.28-1.9,12.94-6.35,25.51-14.61,36.06-.73-3.51-12.55-12.95-13.2-12.47s-1.77,2.47-1.04,2.82c7.87,3.73,6.08,5.41,12.39,13.62ZM367.72,561.02c2.02-6.2,6.39-10.46,7.62-17.91-6.14,2.6-10.9,6.75-16.43,11.23l8.81,6.68ZM350.3,587.01c3.85-4.72,7.14-9.48,10.58-14.75-2.34-2.99-3.62-6.25-6.35-9.01-1.39-1.41-5.42-.85-6.6.63l-7.39,9.28c3.17,4.88,5.77,9.49,9.76,13.85Z"/>
  <path class="cls-36" d="M609.02,349.56c-23.58-14.91-39.25-16.36-65.18-4.76-2.66,1.19-3.94,3.66-7.01,4.29.75-11.51,8.42-19.29,18.55-22.84,21.47-7.5,47.4-2.54,53.65,23.3ZM601.11,340.24c-2.06-3.47-4.88-5.22-7.45-8.04-6.63-3.28-13.93-6.03-21.65-5.98-5.84.04-26.83,5.49-28.25,14.16,21.66-8.32,36.11-9.17,57.35-.14Z"/>
  <path class="cls-36" d="M264.59,337.37c-3.62.93-6.26,3.53-9.36,5.01-2.05.33-2-3.43-2.68-4.73-6.05-11.57-4.07-23.64,3.22-33.95,3.62-5.11,6.28-10.57,11.66-14.39l16.21-11.5c3.31,2.76,5.31,5.64,7.86,8.46-1.7,5.38-4.37,9.97-7.62,14.71-15.23,6.06-19.87,20.03-19.29,36.38ZM256.32,336.84c4.52-1.24,5.35-3.89,5.32-7.26-.12-13.86,6.9-26.65,19.99-31.79,1.46-3.52,4.31-6.39,5.29-9.95.45-1.64-3.03-5.54-4.44-4.58-20.85,14.19-14.01,9.02-25.47,25.82-6.75,9.89-5.64,18.5-.69,27.77Z"/>
  <path class="cls-36" d="M512.36,437.51c.95-1.47.49-1.86-.86-.88-4.88,4.32-5.85,5.39-15.29,3.52,18.41-12.84,29.54-17.53,52-12.35,9.71,2.24,18.79,4.56,27.8,10.18-6.03,3.06-10.88,5.6-16.1,9.04-1.86,1.22-5.76.77-7.94.13-11.52-3.41-28.79-5.34-40.95-6.41-.07-1.71.88-2.33,1.32-3.24ZM559.47,443.07l8.3-5.35c-9.14-3.9-35.75-12.32-42.89-6.89-2.8,2.13-4.57,4.54-6.98,6.9l15.09,2.24c6.94,1.03,13.44,2.15,20.2,3.84,1.89.47,4.42.47,6.28-.73Z"/>
  <path class="cls-36" d="M482.93,442.18c-4.02-5.9-7.44-11.66-12.11-17.28,11.04-6.45,21.86-11.8,31.27-19.74l15.87-13.39c4.18,6.37,7.84,12.16,10.73,19.3-9.83,8.48-19.93,16.4-30.81,23.65-4.5,3.11-8.54,5.59-14.95,7.44ZM489.35,435.81l16.3-11.15,18.53-14.35c-2.29-4.6-4.19-8.75-7-12.64-6.16,4.08-10.38,9.49-16.21,13.24l-24.48,15.71c3.49,3.96,5.71,7.55,7.98,11.24,1.58-.97,3.27-.95,4.88-2.05Z"/>
  <path class="cls-36" d="M163.08,349.03c-10.61-6.96-21.27-10.06-33.45-12.13-13.02-.69-25.91,3.93-37.26,11.31,6.09-24.8,31.88-29.29,52.77-21.54,9.96,3.7,17.23,11.06,17.94,22.36ZM134.02,334.18c8.07,1.98,15.54,2.92,22.95,7.31-2.53-10.61-23.51-15.43-31.15-14.85-9.46.72-19.26,2.98-24.46,11.61,10.92-2.71,22.53-6.55,32.67-4.07Z"/>
  <path class="cls-36" d="M360.02,520.89c3.88,5.08,10.35,5.79,16.73,9.74-15.56,15.47-29.84,18.26-42.38,38.36-5.71-6.47-9.55-13.72-12.55-22.1,10.22-8.37,20.75-15.39,31.82-22.41,2.26-1.43,3.72-3.85,6.38-3.59ZM349.44,546.95l12.14-8.43c2.95-2.05,5.01-4.74,8.65-6.92l-11.55-5.83c-11.53,6.66-21.85,14.28-32.6,22.41,2.53,4.88,4.41,9.62,8.02,14.51,4.97-5.91,9.07-11.37,15.35-15.73Z"/>
  <path class="cls-36" d="M212.53,490.53c-2.87-.96-6.9-7.49-6.33-10.39,2.75-13.91,10.19-25.67,17.86-37.22,9.95.34,18.21.19,28.89-.7-11.17,11.45-18.65,23.28-23.62,37.98-2.32,6.87-8.88,12.99-16.81,10.32ZM225.55,479.24l6.23-14.56c3-7.01,7.94-12.32,12.34-18.6l-17.77.05c-6.92,10.43-12.96,20.93-16.31,33.01-.78,2.83,2.84,7.63,5.09,8.61,4.63,1.18,8.76-4.62,10.42-8.5Z"/>
  <path class="cls-36" d="M546.03,582.1q-5.42-14.83,0,0c-1.92,2.82-2.71,4.68-3.97,7.01-5.04-5.82-10.82-18.98-7.03-25.15,1.37-2.23,2.17-5.23,3.78-7.06,6.17-6.99,14.43-10.95,22.82-14.05l4.48,28.71c-7.47,2.07-13.99,5.98-20.08,10.54ZM562.16,568.49l-1.92-9.72c-.75-3.8-.38-7.55-1.86-11.13-6.48,3.37-11.42,6.97-16.62,11.04l6.54,17.26c4.38-3.43,8.95-4.8,13.86-7.45Z"/>
  <path class="cls-36" d="M465.38,473.05c-13.06,8.52-21.27,11.58-31.57,24.08-6.52-.88-12.12-2.68-18.29-4.77-.77-3.71-1.14-7.33-.71-11.29,11.29-12.44,24.71-21.48,40.35-28.45,4.08,6.49,7.84,12.78,10.22,20.44ZM432.56,493.38c8.06-10.33,18.11-15.91,28.72-21.97-2.71-4.78-4.19-9.41-7.53-13.66-12.84,5.16-23.43,13.25-33.31,22.72-2.07,1.99-4.22,7.79-1.64,8.95,4.49,2.01,8.62,2.55,13.75,3.95Z"/>
  <path class="cls-36" d="M628.42,471.62c2.74-6.66,7.56-27.04,1.5-32.98,3.99-6.06,3.59-12.79,4.88-20.72,13.12,18.44,14.81,48.18,7.24,69.51l-13.62-15.81ZM632.45,471.31c4.23,2.93,5.37,6.11,8.31,8.94,3.76-16.81,3.39-34.73-3.07-49.26-1.34.97-2.03,1.53-1.56,2.33,4.43,7.56.29,7.08.15,10.75-.36,9.29-.36,17.82-3.83,27.24Z"/>
  <path class="cls-36" d="M622.73,391c-20.93-21.13-45.12-31.5-75.2-27.52,24.02-10.46,71.35-6.02,75.2,27.52ZM611.19,375.07c-5.12-5.04-10.93-9.42-18.38-9.92l18.38,9.92Z"/>
  <path class="cls-36" d="M71.92,471.23c-4.67,5.55-9.51,10.22-13.49,16.92-8.5-20.67-6.36-51.9,7.07-70.2.85,7.17,1.61,13.12,4.46,19.45-4.19,10.83-2.73,22.29,1.96,33.83ZM67.98,470.72c-4.99-11.43-4.62-22.36-2.31-33.83l-1.95-7.95c-8,13.86-8.7,36.24-4.14,51.23,2.78-3.75,4.92-6.68,8.4-9.45Z"/>
  <path class="cls-36" d="M147.41,472.49c-6.05-2.87-9.35-10.52-17.45-12.37,6.89-5.15,12.76-7.28,19.86-9.8,15.87,10.47,29.57,24.37,36.07,43.28-11.75-10.04-24.84-14.63-38.48-21.11ZM175.2,481.15c-5.1-10.09-12.6-15.86-19.58-22.77-3.01-1.17-5.12-3.55-8.45-3.49l-9.55,4.96c5.2,2.02,7.55,7.72,11.53,9.52l26.05,11.77Z"/>
  <path class="cls-36" d="M283.51,491.39c-5.05,3.51-11.58,3.77-17.23,5.66-8.93-9.87-19.42-16.22-30.84-23.09,3.17-7.38,7.38-13.35,12.04-20.51,15.34,8.55,24.33,14.77,37.51,26.72-.68,3.39-.17,7.74-1.48,11.23ZM280.18,488.8c1.98-1.83,1.21-6.94-.45-8.41-9.26-8.17-19.72-15.68-30.86-21.81-3.8,4.5-6.01,9.47-8.79,13.9,10.3,5.81,19.23,11.83,27.32,20.49,3.89-1.8,9.37-1.04,12.77-4.17Z"/>
  <path class="cls-36" d="M527.29,469.42c-11.77-2.8-22.58-4.56-34.25-2.53l-8.43-20.47c11.73-2.82,32.78-2.82,43,.05l19.3,5.43-19.62,17.53ZM538.92,453.45l-13.36-3.95c-7.96-2.35-25.31-1.47-35.68-1.27l5.33,14.72,19.64.22c3.3.04,7.73,2.84,10.97,1.64,5-3.25,9.33-7.3,13.09-11.36Z"/>
  <path class="cls-36" d="M106.66,433.97c-3.93-1.4-10.44-6.65-9.69-11.42,1.95-12.37,20.22-23.28,30.75-27.83,6.03-2.6,12.45-1.71,18.41-.21-2.89,5.82-4.44,10.62-6.53,16.31-14.32,1.76-25.91,9.47-32.95,23.15ZM136.8,407.86c1.66-3.75,2.02-7.33,4.15-10.65-9.15-4.21-27.34,9.18-33.66,15.03-2.41,2.24-4.37,5.24-5.94,8.16s1.59,8.22,4.11,8.55c6.28-11.25,18.45-19.97,31.34-21.09Z"/>
  <path class="cls-36" d="M85.1,383.99c-3.63-3.83-2.6-8.73,1.16-11.85,8.91-7.39,19.83-12.4,31.7-13.22,11.69-.81,23.59-1.24,34.38,4.84-24.35-3.52-48.17,3.01-67.24,20.22ZM104.1,365.2l-7.4,3.7.8,1.6,7.4-3.7-.8-1.6Z"/>
  <path class="cls-36" d="M207.46,466.48c-10.44-.83-20.57-.91-30.39,3.29l-17.96-18.04c18.89-6.81,39.08-9.81,58.91-5.54-4.9,6.85-7.64,12.75-10.55,20.29ZM178.28,464.95c9.06-2.06,16.96-2.5,26.02-1.67l7.53-15.24h-20.9c-8.55.02-16.65,2.74-24.95,5.02,6.27,4.84,6.39,8.61,12.31,11.89Z"/>
  <path class="cls-36" d="M490.46,406.47c-.79.23-1.25,1.05-1.64.86,2.73,1.38-25.48-26.71-27.91-28.45l9.31-17.99c5.36,2.93,8.99,7.46,13.43,11.5,8.29,7.53,15.27,15.29,20.54,25.78-3.41,4.3-8.06,7.52-13.72,8.31ZM498.56,397.38c-4.59-13.84-16.46-19.11-21.56-26.47-1.24-1.79-3.88-3-5.63-4.22-2.42,4.11-3.98,7.22-5.76,11.43l23.81,23.56c2.19,2.16,10.01-1.68,9.14-4.3Z"/>
  <path class="cls-36" d="M211.12,407.3c-6.46-1.36-11.38-5.2-15.88-9.23,6.78-13.02,21.65-28.18,33.94-36.98,3.16,6.25,6.3,11.89,10.43,18.45-9.87,8.68-19.31,16.99-28.49,27.76ZM209.34,403.17l19.5-19.31c1.91-1.89,4.34-2.8,6.02-5.26l-7.04-11.64c-7.63,5.06-24.36,22.41-27.76,30.93l9.29,5.28Z"/>
  <path class="cls-36" d="M92.75,541.06c.17-.56,1.08-.69,1.24-1.12.14,4.82-1,9.74-.75,15.02l.77,16.3c-6.27,2.26-14.18,3.27-18.22,8.54l-4.62,6.03c-2.81-7.44-5.52-23.72.27-29.56l4.09,21.94-1.94-23.79c3.27-6.73,18.08-9.73,19.16-13.36ZM79.79,573.29c4.42-2.74,7.06-3.67,11.49-4.56-2.05-6.93-1-13.32-1.35-21.23-4.33,2.67-9.02,4.55-12.55,7.9-.35.33.7,17.59,2.41,17.9Z"/>
  <path class="cls-36" d="M267.02,460.36c.05-2.42,1.88-3.21,2.19-5.6-2.42-1.31-4.39,2.31-6.3,2.62-4.25-1.39-7.27-4.73-11.41-7.53,10.56-14.23,12.18-7.08,26.54-14.58l15.99,18.83c-2.01,4.07-4.78,7.78-5.88,12.03l-2.36,9.16c-6.08-5.13-11.68-10.37-18.77-14.92ZM272.63,459.61c3.76,3.2,7.37,5.08,10.32,9.01,2.23-6.05,6.6-9.83,5.78-14.44-2.88-5.37-7.95-9.48-11.34-14.5-8.86,4.03-17.25,2.3-20.28,9.89l4.83,3.29c2.98-1.14,7.21-3.71,9.72-.6,1.39,1.73-.93,5.73.97,7.34Z"/>
  <path class="cls-36" d="M564.06,429.02c-6.03-2.65-11.53-3.91-18.21-5.1,7.48-10.26,23.38-24.19,35.09-28.86,5.75,2.95,15.46,7.3,15.45,14.17-12.03,4.65-22.29,10.89-32.33,19.79ZM563.93,424.22c8.07-7.14,16.91-12.17,26.72-16.9-2.08-4.68-7.71-8.63-12.11-6.85s-23.41,15.71-25.52,21.18c3.39.85,6.81,2.16,10.91,2.57Z"/>
  <path class="cls-36" d="M131.39,571.25c-11.75-2.99-22.67-3.11-34.09-.7-1.94-3.83-1.11-29.27-.57-29.59.6-.35,1.58.56,2.42.4,12.03-2.35,24.52-2.39,36.37,1.03-.17,10.51-2.39,19.48-4.13,28.86ZM128.79,567.24l3.37-21.89c-10.73-3.08-20.97-3.17-31.49-.53-2.35,6.9-2.12,13.71-.27,21.17,11.08.03,16.27-1.74,28.4,1.25Z"/>
  <path class="cls-36" d="M604.2,528.27c-15.84-3.09-30.49-2.03-45.53,1.66-1.16-7.31-.6-13.91-.61-20.4,15.1-5.39,30.22-5.86,45.27-1.82.91,6.85,1.35,12.42.88,20.57ZM600.77,524.34c.52-6.34.57-9.63-1.06-14.23-16.82-2.57-21.61-2.96-38.61,2.23l-.05,12.84,12.02-1.29c9.54-1.02,18.25-1.34,27.7.45Z"/>
  <path class="cls-36" d="M603.07,570.97c-11.69-2.85-22.79-2.69-34.21-.07l-5-29.05c14.23-1.64,24.85-3.93,40,.18,0,9.55.85,18.26-.8,28.93ZM599.85,566.41c1.26-2.43,2.57-20.1-.8-21.36-10.2-3.8-21.09-2-31.35.44l3.81,21.07c8.76-.87,18.77-.84,28.34-.15Z"/>
  <path class="cls-36" d="M257.51,280.95c-2.74,8.63,5.82,5.17-2.06,16.53-3.1,2.9-3.87,6.44-6.54,9.83.12-10.1,2.9-18.99,6.7-27.76,2.71-6.24,4.17-12.61,9.16-17.94,1.79-1.91,1.59-5.26,3.97-6.8l10.64,16.26c-4.42,11.04-9.02,9.11-17.11,18.62-2.91-3.09-3.5-5.91-4.76-8.74ZM274.58,270.48c-1.51-3.05-3.88-4.91-5-8.58-4.19,4.69-7.91,9.71-9.31,16.16.09,1.75,1.53,3.59,2.6,5.42,2.93-3.58,13.94-8.52,11.72-13Z"/>
  <path class="cls-36" d="M373.88,240.49c-2.55,3.4-7.69,8.16-12.56,7.91l-20.17-1.03c-5.69-.29-9.15-8.24-14.14-11.09l12.62-14.96,11.27,6.58c3.36,1.96,6.69,1.6,9.52-2.34,3.78,5.64,8.11,9.15,13.46,14.94ZM368.99,240.51l-8.97-8.84c-7.37,1.72-13.69-.96-19.33-5.79l-8.68,9.65,10.93,9.65c11.82-4.59,16.07,5.16,26.04-4.68Z"/>
  <path class="cls-36" d="M355.71,519.02c-10.64-4.76-19.92-11.4-28-20.07,6.43-4.32,11.18-9.66,16.27-14.48l25.36,19.28c-4.26,5.92-8.1,10.93-13.63,15.27ZM363.91,504.34l-10.58-7.68c-3.12-2.27-5.62-5.17-9.56-6.8-3.84,3.31-6.72,7.21-10.49,9.8,7.35,6.1,13.55,11.1,21.57,14.72,3.62-3.28,7.25-6.2,9.06-10.04Z"/>
  <path class="cls-36" d="M484.71,407.5c-2.09.94-4.02.19-5.8,1.35l-13.96,9.08-20.75-15.23,14.42-19.87c3.29,1.72,5.85,4.35,8.27,7.38,1.06,1.34,3.08,1.53,4.22,2.75l13.59,14.53ZM477.46,404.99c-8.07-8.9-11.77-10.17-17.83-16.95-3.74,4.94-7.02,8.78-9.99,14.37l15.23,10.86c4.36-3.05,8.71-4.59,12.59-8.28Z"/>
  <path class="cls-36" d="M143,510c12.23,4.16,22.15,10.39,30.88,19.26-.13,6.85-.59,13.14-2.9,20.31-7.54-9.84-17.35-15.01-28.68-19.08,1.1-7.05.61-13.85.7-20.5ZM169.67,541.64l1-10.11c-7.1-7.14-14.68-12.37-24.48-16.27-.37,3.83-.17,7.92-.15,12.87,8.93,2.93,16.13,7.65,23.63,13.52Z"/>
  <path class="cls-26" d="M244.28,413.99c-9.59,4.11-18.68-3.26-25.12-10.33l12.15-12.47c1.52-.6,3.29.86,5.24.34-2.27-3.82,5.9-7.75,4.93-7.5.84-.22,13.96,16.53,15.5,20.21-4.67,2.74-7.73,7.61-12.7,9.74ZM244.52,409.68c2.82-1.92,4.12-4.52,7.93-6.11l-10.23-13.09c-2.21,4.69-5.36,4.31-9.16,4.89-3.63.97-5.61,5.73-9.16,8.11,5.04,4.73,13.34,11.16,20.62,6.2Z"/>
  <path class="cls-26" d="M501.36,506.42c-10.02-14.61,3.64-28.82-1.52-31.37-2.16-1.07-4.72-1.01-4.8-4.2,16.55.89,11.61-2.6,28.2,2.07l-6.81,9.63-2.07,9.93c-5.2,3.56-9,7.72-13.01,13.94ZM511.01,489.59c2.24-2.2.27-9.09,6.02-14.17-4.1-2.08-7.63-.97-11.97-.04.15,8.15-6.63,14.31-3.34,23.32l9.29-9.11Z"/>
  <path class="cls-36" d="M349.37,523.13l-20.58,13.16c-12.37-7.19-16.9-11.37-14.17-26.6l10.07-7.18c3.96,5.01,7.85,8.3,12.92,10.95l11.76,9.67ZM328.62,531.92c5.12-3.24,9.72-5.29,14.47-9.29l-9.53-7.2c-3.35-2.53-6.46-4.41-9.44-7.81-1.48,2.3-5.21,2.33-6.32,4.36-2.07,3.76-.24,10.28,2.41,13.67,2.33,2.99,5.9,3.82,8.41,6.27Z"/>
  <path class="cls-36" d="M452.48,448.06l-12.21,7.62c-7.79-4.61-15.67-9.04-22.71-15.98,3.99-5.7,8.15-10.95,11.13-17.22,2.78.65,3.06,2.96,4.62,4.18,7.65,6.01,13.77,12.9,19.17,21.4ZM440.19,450.73c2.5-.16,5.08-2.71,6.67-3.91-4.51-7.54-10.24-13.32-17.27-18.01-2.03,4.54-5.45,6.61-6.79,10.8,5.7,4.19,10.99,8.7,17.39,11.12Z"/>
  <path class="cls-36" d="M353.34,153.83c-2.74,1.61-4.96,2.19-6.29,5.6l-17.86-12.53c6.04-6.84,13.14-12.71,21.99-14.82,5.77-1.38,12.39,7.33,16.73,10.71-4.71,3.91-9,7.79-14.56,11.05ZM362.04,142.57c-2.4-2.33-5.79-6.26-9.5-7.17-6.83,1.48-13,6.05-17.64,11.27l10.83,7.19c4.95-6.27,6.61-1.47,16.31-11.29Z"/>
  <path class="cls-36" d="M92.42,529.4c-9.09,2.67-16.74,6.43-24.15,12.82.08-5.57-.82-11.4-1.08-16.1,6.18-9.56,17.36-14.39,27.76-17.96-1.06,8.07-2.81,14.13-2.53,21.24ZM71.2,534.93c6.06-3.86,11.18-6.32,17.72-8.22-.07-4.47.72-8.33,1.92-13.02-7.39,2.71-14.29,6.72-19.44,12.65-1.35,2.23-.11,6.03-.21,8.59Z"/>
  <path class="cls-36" d="M606.01,542.92c7.32,1.4,13.61,5.27,19.07,9.88,3.14,2.65-.13,21.56-2.03,26.8-5.66-4.1-10.96-6.62-17.53-8.13,1.71-10.28,1.34-19.29.5-28.55ZM620.45,572.59c2.1.2,1.52-4.21,1.56-5.57.1-3.54,2.35-7.42.5-10.62-2.58-4.46-7.95-6.18-12.37-8.4l-.2,15.95c-.02,1.76-1.24,2.95-.96,4.98,4.34-.18,7.34,3.27,11.46,3.65Z"/>
  <path class="cls-36" d="M413.34,476.39l-8.09-21.23c3.09-4.39,6.38-7.83,10.26-11.68,6.23,5.26,12.99,9.16,20.93,13.92-7.96,5.93-15.36,11.29-23.1,18.99ZM414.58,469.45l15.08-11.57-14.05-9.14c-2.22,2.57-4.23,3.92-5.86,6.37l4.83,14.34Z"/>
  <path class="cls-36" d="M297.24,450.39c-7.54-7.48-13.03-15.29-18.93-23.19-.32-.43,1.62-1.45,2.07-1.25.61.27,1.74,2.02,2.36,1.74,5.57-2.53,10.13-6.9,16.15-8.95l9.98,12.11c-4.39,6.26-7.24,12.38-11.63,19.54ZM296.48,444.1l7.67-13.13-6.38-7.9-12.14,7.77c3.67,4.76,6.58,8.87,10.85,13.25Z"/>
  <path class="cls-36" d="M146.81,323.44c-11-4.15-20.36-4.44-31.71-1.55.51-5.68,11.52-23.19,17.41-23.35s13.13,18.53,14.31,24.9ZM138.87,317.26c6.46,5.28-5.19-16.13-6.31-15.21-5.06,4.52-9.1,8.9-11.5,14.9l17.81.31Z"/>
  <path class="cls-36" d="M585.18,321.14c-11.09-1.54-20.6-1.71-31.54,2.31.55-7.07,8.85-25.06,14.71-24.86,1.75.06,3.01,1.45,4.55,2.53,5.12,5.57,8.9,11.54,12.27,20.03ZM578.81,317.07c-2.01-5.82-5.92-10.86-10.4-15.17-4.71,4.85-7.17,10-9.74,16.29,6.98-1.52,12.56-1.31,20.13-1.12Z"/>
  <path class="cls-36" d="M438.21,292.21c-9.22-12.12-12.99-7.81-17.94-20.58l10.73-16.32,9.98,14.94c2.25,6.99,1.2,13.83-2.78,21.96ZM436.59,285.22c6.01-8.91.01-15.61-5.53-22.76-2.5,1.91-2.51,4.45-4.29,6.34-6.29,6.64,6.35,10.9,9.82,16.43Z"/>
  <path class="cls-36" d="M261.03,497.47c-12.25,3.07-24.32,1.74-36.65-3.31,4.89-4.95,7.61-9.76,9.63-15.78,10.11,5,18.6,11.18,27.02,19.09ZM252.8,495.31c-5.44-5.04-10.8-8.39-16.64-11.37l-4.9,8.83c7.9,1.65,14.09,4.69,21.55,2.54Z"/>
  <path class="cls-36" d="M474.06,495.27c-11.2,2.7-23.4,5.86-35.04,2.31,3.79-4.87,20.38-17.66,27.39-19.21,2.01,5.94,4.28,11.1,7.65,16.9ZM445.9,495.86c7.85.45,14.62-.82,22.37-3.04l-4.58-9.87c-7.42,5.41-11.66,8.21-17.79,12.91Z"/>
  <path class="cls-26" d="M344.16,162.71c-4.62,4.95-9.13,9.56-12.53,16.18l-14.5-11c1.11-7.16,3.76-13.19,7.04-19.81,2.91,2.75,5.73,4.83,9.24,6.5l10.75,8.13ZM330.14,173.54l8.14-10.6c-4.1-3.43-8.18-5.69-12.98-8.81l-4.34,11.57,9.18,7.84Z"/>
  <path class="cls-36" d="M435.19,295.21c-1.56-1.12-7.56,9.59-11.68,9.32-1.05-.07-2.06-1.41-3.32-1.83-3.99-1.32-7.32-3.13-8.14-7.84-.44-2.54-2.98-6.12-2.54-8.59.7-3.98,4.92-6.54,6.99-9.4,5.99,7.04,15.79,11.25,18.7,18.33ZM424.84,299.44c2.2-1.02,3.76-3.92,5.6-5.6l-13.96-11.56c-3.39,3.39-3.15,4.86-2.22,8.42,1.21,4.62,4.86,9.99,10.58,8.73Z"/>
  <path class="cls-36" d="M360.02,520.89c-.62-1.71,1.57-3.72,2.7-5.05l10.71-12.66c3.28,3.94,9.5,4.78,12.69,9.22,2.63,3.67-1.23,14.27-6.21,15.22-6,1.15-14.41-6.83-19.88-6.74ZM379.3,523.5c3.42-.5,3.9-6.67,3.62-9.12-3.23-2.46-5.99-4.36-9.6-5.47l-7.85,9.47c4.65,1.32,8.65,5.88,13.83,5.12Z"/>
  <path class="cls-36" d="M284.71,390.71l-17.08-21.96c1.56-2.71,3.65-4.67,6.11-6.55,5.24,9.03,10.78,17.18,18.41,24.95-2.22,2.01-4.65,2.24-7.43,3.57Z"/>
  <path class="cls-36" d="M335.01,134.14c.09-2.56.7-4.19,2.76-6.44,4-4.35,7.23-9.12,12.2-12.93,3.07,2.34,17.55,16.26,13.17,18.56-1.47.77-6.34-5.17-10.85-5.67-5.59-.63-12.43,9.82-17.28,6.48ZM353.84,123.94c-1.15-2.32-2.25-2.95-3.92-4.21-1.88,1.93-4.15,2.99-4.91,5.77,3.32-.69,5.68-1.78,8.83-1.56Z"/>
  <path class="cls-36" d="M586.37,433.86c-2.68-3.87-5.46-6.62-8.62-9.91,6.1-4.92,12.52-9.35,19.79-11.6,2.85,4.22,7.05,5.76,6.44,10.05-.84,5.91-11.64,8.94-17.62,11.47ZM588.33,428.82c4.3-1.11,7.9-3.16,11.04-5.6,1.87-1.45-.63-5.6-3-5.75-4.21-.26-9.19,3.69-11.91,6.7-.43,1.38,2.05,5.12,3.87,4.65Z"/>
  <path class="cls-36" d="M378.46,204.31l-16.92-19.51,10.11-7.81,11.5,8.4c.05,6.37-.52,13.09-4.69,18.93ZM377.66,198.15c.77-3.26,2.88-6.9,1.85-9.66-1.31-3.5-5.66-4.32-7.94-7.46l-4.48,4.44,10.57,12.69Z"/>
  <path class="cls-20" d="M414.56,214.22c-.22,7.78-3.22,14.82-6.76,21.73-3.05-2.31-4.69-4.94-7.08-8.04,3.16-5.24,5.03-10.49,7.31-15.86s4.83-9.89,3.97-16.21c2.95,2.7,1.77,5.7,1.53,9.04-.08,1.11.91,2.33.67,3.57-.21,1.09-1.56,1.62-2.93,2.09.44,1.55,2.39,2.22,3.28,3.69ZM410.71,215.88c-2,3.8-3.37,8.33-5.59,11.63,1.88,6.55,6.48-11.42,5.59-11.63Z"/>
  <path class="cls-26" d="M292.79,236.24c-3.48-4.76-11.83-30.31-3.53-32.57,2.38,8.78,5.73,16.4,9.74,24.25-2.08,2.75-3.11,5.22-6.2,8.33Z"/>
  <path class="cls-36" d="M200.16,507.39c-3.61-3.62-6.13-7.5-8.76-11.75-2.52-4.08,3.19-7.96,7.21-14.08,4.47-6.79,9.43,11.72,10.28,14.22l-8.73,11.61ZM199.81,501.34c2.05-2.99,4.38-4.25,4.6-6.49.33-3.3-2.26-5.63-3.8-9.6-1.21,2.56-4.73,4.55-5.32,7.95-.51,2.91,2.98,5.78,4.53,8.14Z"/>
  <path class="cls-36" d="M408.87,400.01l-8.21-6.9c5.73-6.39,11.86-11.04,16.56-18.07,2.4,1.82,3.67,3.79,5.62,5.93l-13.97,19.04ZM414.83,383.86c-2.84,2.62-5.95,5.6-8.54,8.49-.48.53,1.45,2.13,2.19,1.67-1.19.75,8.84-9.59,6.35-10.16Z"/>
  <path class="cls-36" d="M136.37,428.54c-6.66,3.8-12.69,5.51-18.64,9.59-2.9-1.33-4.84-3.56-6.98-6.08,4.02-5.23,7.88-9.6,13.5-13.56,4.27,2.89,7.81,6.01,12.12,10.05ZM117.49,433.59l12.55-6.08c-2.36-.97-3.85-2.71-5.42-4.44-2.78,1.7-9.33,8.49-8.67,9.31.25.31.9,1.52,1.54,1.21Z"/>
  <path class="cls-26" d="M413.16,545.75c-1.74,2.12-1.84,4.92-4.6,6.21-.6-1.79.97-3.04,1.41-4.89l5.8-24.1,13.39,3.23-16.01,19.54ZM421.84,528.33c-1.59-.42-2.68-.27-3.4-1.33-.64,1.98-1.85,4.06-1.07,6.59,2.36-1,3.54-3.34,4.46-5.26Z"/>
  <path class="cls-26" d="M95.06,591.02c4.04-.18,9.92,7.3,6.07,10.16-5.37,3.98-15.93.55-20.7-3.36-1.58-5.3,8.78-10.87,13.23-11.9.42.46-1.98,5.26,1.4,5.1ZM98.94,598.7c-1.85-4.76-5.75-3.21-10.02-6.85-1.69,1.21-2.87,2.3-4.37,4.44,4.73,2.79,9.66,3.33,14.4,2.42Z"/>
  <path class="cls-20" d="M146.42,598.44c-2.98,4.92-14.25,6.03-18.32,2.67-4.94-4.07,6.17-9.63,5.95-11.57-.33-2.93-4.44,1.3-5.7-1.78-.28-.69-.16-1.82.43-2.32,1.37-1.15,5.69,1.23,6.69,2.58.79,1.06-.45,2.87-.3,4.3,1.3,2.54,3.76-1.31,5.47-1.96,2.47-.93,8.02,4.38,5.78,8.08ZM130.97,598.71c2.82,1.86,11.84-.73,12.01-1.22.22-.62.2-2.8-.81-2.52-10.23,2.85-8.34-1.47-11.19,3.74Z"/>
  <path class="cls-26" d="M290.92,551.06c-3.91-4.7-6.05-8.36-9.51-12.52l-10.68-12.86,14.29-3.6c1.44,10.29,2.87,19.2,5.9,28.98ZM282.39,533.68c1.37-2.51.4-5.03-1.13-6.87-1.52-.14-3.36,1.1-2.96,1.75,1.23,1.81,2.28,3.68,4.08,5.12Z"/>
  <path class="cls-26" d="M93.09,507.63c-11,2.58-19.41,8.38-27.17,15.18,4.11-12.38,19.44-20.72,29.48-22.82,1.54,3.06.99,6.86-2.31,7.64Z"/>
  <path class="cls-34" d="M320.59,201.41c-3.23-5.41-4.24-10.91-4-16.29l.53-11.83,12.31,8.74-8.85,19.38ZM325.14,183.24c-2.14-1.24-2.59-1.75-4.8-2.55-.22,3.34-1.53,7.15,1.06,10.61,1.09-2.96,1.77-5.56,3.74-8.06Z"/>
  <path class="cls-26" d="M195.8,480.89l-7,7.69c-2.59-5.31-4.78-9.91-9.15-15.09,15.56-5.3,10.47-2.16,23.86-2.66.08,3.11-3.33,2.62-4.47,4.34s-1.46,3.76-3.24,5.72ZM189.71,481.47c2.73-2.39,5.61-3.97,5.41-7.34-3.53-.5-6.46.15-9.58,1.51l4.17,5.83Z"/>
  <path class="cls-26" d="M600.26,602.23c-3.77-.74-2.41-5.21-1.78-7.23,2.17-6.93,12.85,1.47,14.09-6.89,2.79,1.33,8.61,5.47,7.2,9.76-4.04,4.78-13.11,5.62-19.51,4.36ZM601.14,598.75c4.99.74,10.33.55,15.19-2.4-.52-1.21-1.44-2.43-2.1-2.22-9.05,2.86-10.38-2.33-13.08,4.62Z"/>
  <path class="cls-26" d="M336.27,453.78c-.62.44-1.83-2.06-2.42-2.44-1.04-.68-2.4.83-3.58.69-5.3-.64,12.94-18.48,14.97-19.22,1.61,2.55,2.72,3.85,4.88,5.6-4.18,5.26-7.83,11.1-13.85,15.37ZM344.76,438.89c-2.99.2-12.41,11.68-8.31,10.06.77-.31,8.98-9.8,8.31-10.06Z"/>
  <path class="cls-28" d="M198.55,440.91c-3.32.12-3.59-1.22-5.06-2.5l-12.27-10.65c-4.36-3.79-9.01-5.41-14.96-4.96-.29-3.4.3-6.55,2.6-9.25l9.93,9.47c2.68,2.55,4.64,4.53,7.87,6.38,7.13,4.06,13.71,8.73,21.43,11.18l-9.54.34Z"/>
  <path class="cls-26" d="M265.38,364.79c-4.06-4.8-6.72-10.5-9.51-16.49l9.36-7.47c2.35,6.03,3.7,11.54,6.71,17.27-1.85,2.43-3.63,3.75-6.57,6.69ZM265.36,359.01c4.21-1.56-1.47-7.46-1.69-11.94-1.37.98-3.75,1.51-3.46,2.49,2.03,3.43,4.05,6.23,5.16,9.45Z"/>
  <path class="cls-34" d="M572.22,600.92c-5.01,4.44-14.26,1.14-19.02-1.84s5.5-12.06,9.29-10.52c2.02.82,2.99,4.79,6.14,5.1,1.98.2,5.66,5.43,3.59,7.26ZM566.57,599.6c1,.19,2.03-2.07,1.29-2.26-2.98-.78-4.47-2.98-6.97-4.35-1.67.03-3.77,1.7-5.44,3.16,3.56,2.32,7,2.65,11.12,3.45Z"/>
  <path class="cls-36" d="M434.8,364.79l-7.44-5.81c3.18-5.29,4.97-10.09,6.63-16.27l11.13,6.34c-3.24,5.7-6.24,10.73-10.33,15.74ZM440.02,350.34c-1.14-1.26-2.21-1.27-3.61-2.29l-3.22,8.14c-.35.88-1.5,1.39-.76,1.76,3.93,1.97,3.09-.82,7.6-7.61Z"/>
  <path class="cls-36" d="M157.85,589.36c-1.69-2.43-1.75-4.17-3.94-5.81l9.41-23.06c6.02,7.14.71,22.23-5.48,28.87Z"/>
  <path class="cls-26" d="M621.49,465.73l-10.39-8.76,14.41-12.07c2.95,7.17,4.47,15.34-4.01,20.83ZM621.52,461c2-2.31,3.96-5.4,2.29-9.01-2.08,1.23-5,2.44-5.68,5.05-.06,1.46,2.2,2.45,3.39,3.95Z"/>
  <path class="cls-20" d="M451.56,308.31c-3.86-4.91-7.49-9.11-10.54-13.53.98-4.62,2.82-9.48,4.49-14.96,3.2,9.15,6.65,18.36,6.05,28.49Z"/>
  <path class="cls-34" d="M555.27,409.02l-5.57-14.59c11.94-2.75,10.18-3.56,19.73,2.89l-14.16,11.7ZM562.97,397.47c-2.28-1.36-5.37-2.56-7.94-.32.41,1.89.7,3.55,1.62,5.18,2.87-1.41,4.35-2.58,6.33-4.86Z"/>
  <path class="cls-20" d="M311.35,426.78l-7.41-8.87c4.66-3.19,9.58-5.46,14.93-6.66,1.8.26,3.5,2.53,4.89,3.68l-12.41,11.84ZM316.64,416.96c-.02-2.17-7.14.91-6.68,2.37,1.15,3.64,3.03-.64,6.68-2.37Z"/>
  <path class="cls-26" d="M76.89,466.24c-7.75-15.35-4.16-7.03-2.48-21.47,4.6,4.51,7.9,8.87,12.9,12.84-4.19,2.74-6.08,5.05-10.43,8.63ZM81.04,457.37c-2.25-1.21-2.25-3.14-4.27-5-1.89,3.06-.12,5.83,1.74,7.64l2.52-2.64Z"/>
  <path class="cls-36" d="M335.63,248.17c-7.48,2.6-13.76,4.88-20.99,8.75,2.91-6.65,6.42-11.46,9.93-17.51,3.83,3.38,7.18,4.14,11.06,8.76Z"/>
  <path class="cls-20" d="M176.79,562.19c-6.22-15.21-3.15-11.24-.68-28.41,2.48,2.87,3.44,5.91,4.87,9.36-.11,6.46-.6,12.56-4.2,19.05Z"/>
  <path class="cls-20" d="M523.62,562.16c-3.77-6.85-6.34-22.31,1.19-27.8.82,5.17,4.53,10.59,2.91,15.46l-4.1,12.34Z"/>
  <path class="cls-36" d="M506.38,396l-9.16-13.49c.96-1.12,4.45-3.47,6.07-2.63,4.49,2.33,7.6,6.27,10.95,9.72-3.04,2.36-5.23,3.74-7.86,6.4Z"/>
  <path class="cls-20" d="M494.97,530.1c-7.39.47-14.11-1.15-21.22-4.32l20.7-5.98c.55,3.37.7,5.86.52,10.3Z"/>
  <path class="cls-20" d="M225.69,525.93c-6.81,3.67-13.56,3.98-20.83,5.29l1.2-11.51c6.33,3.12,12.3,3.5,19.63,6.23Z"/>
  <path class="cls-20" d="M193.01,395.13c-3.28-1.56-5.36-3.77-8.17-6.1,4.27-4.32,11.33-11.8,17.3-6.76-3.17,4.1-6.23,7.35-9.13,12.86Z"/>
  <path class="cls-5" d="M628.92,585.88c-1.85-.96-2.35-3.36-3.82-5.15l1.82-11.72c.63-4.05-.17-7.98,1.47-11.6,1.96.97,2.57,2.88,3.1,4.88.71,7.78.23,14.97-2.57,23.59Z"/>
  <path class="cls-36" d="M354.65,224.49c-3.49,1.91-8.1-2.45-11.79-5.52,1.93-2.73,3.27-5.19,6-7.35l7.66,9.85c.98,1.26-1.05,2.58-1.87,3.03Z"/>
  <path class="cls-34" d="M426.54,377.16c-1.61-.63-5.42-2.92-5.29-5.25.19-3.34,3.7-5.62,4.9-9.42l6.72,5.73-6.33,8.95Z"/>
  <path class="cls-28" d="M379.8,472.4c-5.56-2.08-9.61-5.85-13.31-9.97,1.94-2.58,3.25-4.06,5.63-5.9,3.29,5.23,6.33,9.97,7.68,15.87Z"/>
  <path class="cls-22" d="M389.21,428.72c-4.15-4.12-8.19-7.69-12.92-11.1-.57-.41.03-1.39.26-1.64,1.77-1.92,14.11,5.96,16.62,7.83-.94,2.38-2.29,3.59-3.96,4.92Z"/>
  <path class="cls-20" d="M385.67,257.17l-16.2-7.33c1.89-3.05,4.07-3.95,6.27-6.01l9.93,13.35Z"/>
  <path class="cls-22" d="M66.39,543.76c-.43,2.32-3.03,4.24-4.27,6.36-.99-7.97-1.33-15.59,3.52-22.24.99,5.59.67,10.56.75,15.88Z"/>
  <path class="cls-34" d="M136,469.66l-17.65-.91c.78-2.38,5.4-6.72,8-5.96,3.55,1.04,6.33,3.71,9.65,6.86Z"/>
  <path class="cls-8" d="M498.47,376.26c.18,7.39-14.35-6.39-15.36-9.94,5.54,1.5,11.49,4.6,15.36,9.94Z"/>
  <path class="cls-2" d="M383.34,180.27c-3.9-.56-6.11-2.94-8.64-5.38,2.32-2.83,4.37-4.79,7.61-6.54,1.2,3.66,2.02,7.23,1.03,11.92Z"/>
  <path class="cls-21" d="M204.22,379.08c-1.06,1.13-3.66-.76-4.41-2.03,3.86-3.15,7.31-5.57,11.89-7.23-1.61,4.01-4.43,6.02-7.48,9.27Z"/>
  <path class="cls-2" d="M579.98,434.34c-2.94.1-5.3-2.38-8.55-3.27.67-1.93,2.47-2.33,3.59-2.83,2.67-1.2,7.94,6,4.97,6.1Z"/>
  <path class="cls-12" d="M453.12,326.03c-2.22,3.23-2.48,10.52-6.82,13.82-.18-4.2,6.25-12.36,3.81-14.87,1.1-.04,2,.84,3.01,1.05Z"/>
  <path class="cls-3" d="M529.89,421.41c-.03.11-9.93,3.63-9.7,1.98,2.76-2.82,6.06-4.48,9.12-6.28.89,1.57.96,2.9.58,4.29Z"/>
  <path class="cls-3" d="M324.48,538.39c-.75,1.78-2.06,3.02-4.35,3.88-1.25-2.52-2.11-4.31-2.07-7.57,2.77.26,4.46,1.93,6.42,3.69Z"/>
  <path class="cls-28" d="M80.59,380.6c4.77,1.54-1.49,11.53-4.73,11.29,1.59-3.73,2.28-7.21,4.73-11.29Z"/>
  <path class="cls-11" d="M136.53,422.13c-1.82-.22-4.54-2.32-4.73-4.37.42-1.68,4.2-2.54,6.08-2.38.22,2.11-.34,3.44-1.35,6.75Z"/>
  <path class="cls-5" d="M606.93,587.03c-3.07.46-5.14-.05-7.48,2.5l-1.3-5.99c2.78,1.02,5.76.58,8.78,3.49Z"/>
  <path class="cls-16" d="M482.17,413.6c-3.35,3.07-6.78,5.16-11.08,5.97,2.56-3.59,6.49-6.34,11.08-5.97Z"/>
  <path class="cls-15" d="M512.36,437.51c1.15-.71-.11-1.87-.86-.88,2.31-2.04,3.85-5.28,7.87-6.18-2.11,2.58-4.43,4.97-7.01,7.06Z"/>
  <path class="cls-30" d="M370.45,141.21c-3.64-1.03-4.63-4.3-4.8-7.46,2.83,1.74,5.14,3.84,4.8,7.46Z"/>
  <path class="cls-2" d="M102.05,588.68c.18,1.35-.88,1.53-1.51,1.33.53.17-3.14-1.48-2.38-4.2.19-.66,1.61-1.01,2.85-.88.93.1.22,1.64,1.04,3.75Z"/>
  <path class="cls-38" d="M269.18,528.42c-2.41.78-4.62-.01-6.18-.88,1.79-1.2,3.05-.98,4.38-1.22.78-.14,2.25.93,1.8,2.1Z"/>
  <path class="cls-21" d="M220.43,410.49c-1.44-.15-4.76.15-5.21-1.51s1.94-2.54,2.8-1.46c.67.83,2.01,1.24,2.41,2.97Z"/>
  <path class="cls-9" d="M331.98,408.52c-2.43,1.07-3.27,4.11-5.06,2.94-.51-.33-1.16-.86-.91-2.28,1.8-.42,2.96-.75,5.97-.66Z"/>
  <path class="cls-24" d="M486.21,496.21c1.29.13,1.97-.65,2.5-.88-.12,1.31,1.22,2.11,1.81,3.6-2.27.99-3.52-1.12-4.32-2.72Z"/>
  <path class="cls-3" d="M579.03,468.64c-2.52.68-4.51.47-7.12.1,1.49-2.39,4.97-2.93,7.12-.1Z"/>
  <path class="cls-35" d="M436.97,527.5c-1.94.9-4.2,2.76-6.58.51,1.86-1.76,3.49-1.18,6.58-.51Z"/>
  <path class="cls-23" d="M335.01,134.14c-.1,2.9-3.39,4.87-5.08,5.6,1.05-3.24,3.16-4.59,5.08-5.6Z"/>
  <path class="cls-25" d="M240.56,325.54c-4.04,3.43-1.08,12.05-5.45,15.78-3.7-5.65,3.92-23.73,5.62-18.57.19.56.61,2.13-.17,2.79Z"/>
  <path class="cls-19" d="M243.13,345.19c-.9-2.08-2.9-3.54-3.04-6.63,2.96.94,3.62,4.18,3.04,6.63Z"/>
  <path class="cls-13" d="M335.84,466.75c1.24-2.03,3.2,3.13,2.01,6.45-.28.78-3.07,1.2-3.41.35-.44-2.22.38-5.13,1.4-6.81Z"/>
  <path class="cls-18" d="M314.28,493.54c2.29-3.33,5.32-6.31,9.8-8.04-2.09,3.61-4.6,6.56-9.8,8.04Z"/>
  <path class="cls-27" d="M541.16,408.63c-1.39,2.82-3.39,4.62-6.06,5.49-2.01-4.3,3.49-8.82,4.41-8.64,1.05.21,1.37,1.18,1.65,3.15Z"/>
  <path class="cls-10" d="M121.79,449.01l-13.67,11.33c1.59-5.1,5.43-7.89,8.56-11.63.72-.71,1.39-1.12,2.02-1.41.81-.37,2.31.1,3.09,1.7Z"/>
  <path class="cls-31" d="M616.97,400.23c-3.15-1.45-5.64-2.8-8.49-5.82,3.69.68,7.28,1.89,8.49,5.82Z"/>
  <path class="cls-33" d="M90.94,394.83c-2.24,3.82-4.82,5.15-8.36,6.19.7-4.04,4.59-6.84,8.36-6.19Z"/>
  <path class="cls-37" d="M341.37,201.79c-3.48-2.64-5.6-5.36-7.44-8.84,4,1.58,7.12,4.64,7.44,8.84Z"/>
  <path class="cls-14" d="M321.86,444.97c-1.92-1.31-3.94-2.73-3.83-6.02,2.09,1.15,3.77,2.33,3.83,6.02Z"/>
  <path class="cls-27" d="M141.32,508.68c-13.68-1.72-20.13-5.67-34.41-2.83-2.87.57-5.92,1.68-9.09.56,7.32-2.45,15.73-4.34,23.72-2.96,6.98,1.2,14.2.94,19.78,5.22Z"/>
  <path class="cls-4" d="M282.77,334.16c-2.01-3.51-3.15-6.93-3.56-11.4,2.63,3.11,3.82,7.06,3.56,11.4Z"/>
  <path class="cls-27" d="M603.54,360.31c-2.97-2.88-2.74-6-2.2-9.46,2.34,2.38,3.14,5.62,2.2,9.46Z"/>
  <path class="cls-29" d="M542.63,358.46c-1.18-3.11.56-5.72.88-8.55.44,2.83,1.78,5.77-.88,8.55Z"/>
  <path class="cls-1" d="M97.39,360.12c-1.01-3.28.16-5.71,1.22-8.25,1.02,3.25-.16,5.73-1.22,8.25Z"/>
  <path class="cls-37" d="M546.03,582.1c-2.33-7.67-8.59-13.13-7.82-21.99,3.11,7.04,6.38,14.36,7.82,21.99Z"/>
  <path class="cls-36" d="M254,262c-2.7.8-6.6,2.17-8.24.11-1.83-2.3-.63-7.75,1.49-9.6,1.51-1.32,5.68-.79,6.29.63,1.32,3.08.07,6.19.46,8.86Z"/>
  <circle class="cls-28" cx="226.11" cy="512.91" r="4.35"/>
  <path class="cls-32" d="M394.21,310.04c-.29,25.71-24.05,47.5-50.62,43.5-8.2-1.23-15.82-3.58-21.87-9.27-13.13-12.35-17.77-24.72-15.57-43.29s15.43-32.3,33.39-36.47c5.45-1.27,11.73-.59,17.39-.3,11.29.58,19.54,7.25,26.93,14.94,7.98,8.31,10.49,19.31,10.36,30.88ZM391.14,308.61c0-22.86-18.53-41.4-41.4-41.4s-41.4,18.53-41.4,41.4,18.53,41.4,41.4,41.4,41.4-18.53,41.4-41.4Z"/>
  <path class="cls-36" d="M395.95,493.61c3.5.14,7.34,7.2,4.22,8.35-9.56,3.52-18.87-3.09-26.06-8.78-2.37-1.88-3.71-2.91-3.22-5.81,1.03-6.1,10.5.15,13.64,2.11,3.46,2.17,6.51,3.94,11.42,4.14Z"/>
  <path class="cls-7" d="M249.65,259.73c-2.44.31-.8-4.11,1.02-4.73.41,1.37,1.16,4.37-1.02,4.73Z"/>
  <path class="cls-17" d="M391.14,308.61c0,22.86-18.53,41.4-41.4,41.4s-41.4-18.53-41.4-41.4,18.53-41.4,41.4-41.4,41.4,18.53,41.4,41.4ZM388.03,308.67c0-21.14-17.14-38.28-38.28-38.28s-38.28,17.14-38.28,38.28,17.14,38.28,38.28,38.28,38.28-17.14,38.28-38.28Z"/>
  <path class="cls-29" d="M397.11,498.87c-7.19,1.25-14.76-2.64-19.64-8.9,6.41,3.89,12.02,5.35,19.64,8.9Z"/>
  <path class="cls-32" d="M388.03,308.67c0,21.14-17.14,38.28-38.28,38.28s-38.28-17.14-38.28-38.28,17.14-38.28,38.28-38.28,38.28,17.14,38.28,38.28ZM384.42,308.66c0-19.14-15.51-34.65-34.65-34.65s-34.65,15.51-34.65,34.65,15.51,34.65,34.65,34.65,34.65-15.51,34.65-34.65Z"/>
</svg>