<?xml version="1.0" encoding="UTF-8"?>
<svg id="Layer_1" data-name="Layer 1" xmlns="http://www.w3.org/2000/svg" viewBox="0 0 350 350">
  <defs>
    <style>
      .cls-1 {
        fill: #fefefe;
      }
    </style>
  </defs>
  <path class="cls-1" d="M177.79,263.1c-.11-2.23,2.74-4.01,4.16-4.98,29.55-20.14,41.15-54.89,32.26-89.36-5.31-20.59-13.91-39.3-26.24-56.73l-13.53-19.13c-5.68,5.65-9.02,12.07-13.3,18.26-12.29,17.77-21.42,36.74-27.19,58.23l-20.78,10.24c-.81-24.06,21.05-67.13,33.51-87.97l27.27-45.59c6.37,8.25,10.88,16.03,15.56,24.41l6.48,11.62c19.05,34.17,42.18,70.41,40.01,112.97-1.21,23.72-11.79,43.38-27.65,60.27-5.13,5.46-9.4,9.22-14.61,14.7-5.63-1.62-11.18-3.68-15.95-6.94Z"/>
  <path class="cls-1" d="M64.52,277.93c32.92,3.08,58.96,3.78,90.36-5.29,5.57,4.59,10.31,8.66,16.81,12.3-13.24,10.64-48.47,15.19-64.02,15.7l-25.11.83c-8.98.3-18.15.25-27.15-.01l-32.3-.95,21.91-37.49c14.5-24.81,35.53-54.17,57.85-72.19,31.87-25.74,69.92-33.68,109.77-19.72.16,6.19,2.7,12.64,1.94,19.78-51.07-25.05-96.1-.44-125.16,41.5-10.02,14.47-18.38,28.95-24.91,45.52Z"/>
  <path class="cls-1" d="M167.66,279.44c-24.18-17.31-46.57-40.56-53.79-70.44,1.75-3.41,13.24-11.47,17.23-13.29,1.17,19.94,9.07,37.61,22.63,51.54,7.43,7.62,15.09,14.6,24.69,19.2,17.78,8.52,36.48,11.72,55.96,13.12,20.59,1.48,29.66-.53,49.6-1.61-10.23-23.81-27.23-54.31-47.22-70.86,1.65-5.91,2.41-13.7,2.28-20.64,7.51,3.83,12.43,9.71,18.22,15.27,13.97,13.42,28.51,32.8,38.65,49.1l10.05,16.14c4.18,6.71,7.54,13.6,11.88,20.17,2.88,4.37,5.03,8.94,7.59,13.72-11.29.5-21.24-.46-31.86.6-8.99.9-18.15.24-27.17-.01l-29.97-.84c-12.45-.35-24.29-2.7-36.32-5.63-12.23-2.98-22.37-8.33-32.46-15.55Z"/>
</svg>