<?xml version="1.0" encoding="UTF-8"?>
<svg id="Layer_1" data-name="Layer 1" xmlns="http://www.w3.org/2000/svg" viewBox="0 0 350 350">
  <defs>
    <style>
      .cls-1 {
        fill: #fefefe;
      }
    </style>
  </defs>
  <path class="cls-1" d="M159.4,188.76c4.5-1.98,10.17,4.8,11.97,8.06-4.58,4.51-9.64,7.53-12.7,12.86-3.33,5.81-2.38,13.23.64,18.98,3.58,6.81,9.24,11.16,14.61,16.37,32.24,31.32,66.98,35.98,111.6,34.89-19.04-38.89-35.65-89.09-77.15-109.68l10.5-12.52c2.06-2.45,5.95,1.15,7.9,2.42,15.95,10.32,30.67,28.74,39.85,45.33l29.16,52.72c8.27,14.95,17.31,28.49,29.31,42.05-8.16,2.08-15.41-.3-22.81,1.1-7.9,1.5-15.7.42-23.65.1-40.5-1.61-74.8-4.52-104.98-34.98l-18.05-18.22c-5.44-5.49-10.06-12.33-13.34-19.37-7.41-15.94,5.02-29.81,17.12-40.11Z"/>
  <path class="cls-1" d="M102.4,278.61c21.58-1.89,41.11-8.71,58.52-21.15,4.41,4.12,7.61,8.29,12.46,11.23-12.67,12.98-27.44,20.56-44.23,25.53-11.74,3.47-23.34,6.01-35.59,6.42l-23.1.77c-7.53.25-15.23,1.04-22.7-.11s-14.66.88-22.9-1.06c11.79-13.49,20.86-26.65,28.94-41.45l24.38-44.59c7.64-13.98,15.85-26.7,26.56-38.43,18.43-20.18,43.95-30.54,71.32-28.85.85.05,17.33-1.09,22.3,2.37-10.65,19.55-15.59,12.75-20.42,12.72-44.54-.22-73.37,32.52-91.13,69.75l-10.36,21.72-11.83,26.49c8.69-.19,16.24.53,24.44-.19l13.35-1.17Z"/>
  <path class="cls-1" d="M177.21,173.94c20.25-15.22,38.61-32.65,22.91-58.06-7.29-11.8-16.1-21.62-25.45-31.14-14.43,18.44-39.08,36.84-27.99,62.6-6.32,1.44-12.31,5.34-16.01,4.56-1.09-.23-.6-2.22-1.15-3.28-8.31-16.05-.03-33.6,8.52-47.62,9.82-16.11,18.97-27.26,28.51-42.42,2.59-4.11,4.79-8.45,8.23-11.94,3.08,1.47,3.34,4.44,4.88,6.71l9.33,13.82c10.74,15.91,22.39,30.78,30.23,48.37,5.92,13.3,5.42,28.27-2.5,40.08-1.62,2.41-2.84,5.35-4.83,7.21-3.25,3.04-5.79,6.15-8.95,9.18l-11.2,10.7c-.87.83-2.43,1.13-3.26,1.32-1.16.26-1.39-1.44-2.32-2.25l-8.95-7.83Z"/>
  <path class="cls-1" d="M189,254.43c-4.74-3.03-8.19-5.83-12.96-9.82,7.92-6.42,14.82-12.76,16.8-22.6,1.46-7.24-1.54-14.23-7.13-18.7-1.81-1.45-3.26-3.69-5.16-4.76-1.2-.67-37.84-25.64-33.33-28.2,4.09-3.03,9.75-3.36,15.07-4.81,6.11,6.02,13.08,10.13,19.47,15.65l10.13,8.76c7.3,6.32,17.9,17.84,17.98,28.1.06,7.76-3.28,14.91-8.07,20.75l-12.81,15.62Z"/>
</svg>