<?xml version="1.0" encoding="UTF-8"?>
<svg id="Layer_1" data-name="Layer 1" xmlns="http://www.w3.org/2000/svg" viewBox="0 0 350 350">
  <defs>
    <style>
      .cls-1 {
        fill: #fefefe;
      }
    </style>
  </defs>
  <path class="cls-1" d="M94.38,271.86c4.16,4.29,8.03,8.57,14.32,10.82-3.35,3.91-6.98,4.4-10.92,6.19-23.54,10.7-48.69,16.46-74.81,16.19,4.62-19.12,25.49-58.35,38.92-71.12l5.74-5.45c13.91-13.21,25.79-18.86,45.4-18.65,13.01.14,25.58,4.32,35.82,12.7-8.63,8.96-9.85,12.01-18.88,19.73-7.41-3.03-14.65-7.04-22.37-6.74-27.36,1.09-44.26,23.66-52.9,47.61,14.28-.07,27.19-4.58,39.67-11.29Z"/>
  <path class="cls-1" d="M175.8,188.77c6.26-13.54,13.55-26.16,14.94-41.74,2.42-27.29-4.74-47.61-16.25-72-6.74,13.51-12.13,27.72-15.38,43.54-5.79.56-11.04,2.26-17.28,3.75,1.38-28.35,13.93-55.35,31.93-77.34,4.98,1.62,16.09,21.05,19.17,27.2,20.37,40.6,18.73,78.08.29,118.93-2.16,4.78-3.45,9.22-7.22,13.5l-10.2-15.83Z"/>
  <path class="cls-1" d="M223.21,249.43c4.2,4.91,9.56,8.13,14.55,11.87,16.17,12.13,34.78,19.63,55.87,22,.33-7.45-17.97-34.72-23.36-36.72-4.27-1.58.96-7.89,1.91-19.48.18-2.25,3.45-4.29,5.3-2.64,23.12,20.5,38.48,51.63,48.87,80.42-45.67,1.44-93.32-18.55-125.68-49.55l14.2-8.34c3.64-2.14,5.94-.37,8.35,2.45Z"/>
  <path class="cls-1" d="M237.37,258.42c23.49-22.01,23.16-61.48,5.68-87.5-7.49-11.16-17.49-20.66-29.99-25.94-8.23-3.47-1.6-5.15-3.11-19.16,13.76,4.57,32.74,17.99,40.92,29.27,25.26,34.84,26.95,77.02,3.41,113.65-6.37-2.78-10.13-5.76-16.92-10.32Z"/>
  <path class="cls-1" d="M134.75,145.3c-23.99,12.2-39.3,34.71-41.2,61.13-.4,5.58-8.36,5.62-15.61,9.87.23-27.07,9.85-52.69,29.29-71,15.24-14.36,34.31-24.66,54.99-24.99l25.47-.42c.75,6.13,1.96,11.24,1.17,17.04l-25.71.34c-9.99.13-19.2,3.36-28.4,8.03Z"/>
  <path class="cls-1" d="M222.65,240.63c-9.15,4.55-17.81,9.09-26.4,14.63-5.76,3.71-12.95-7.67-19.58-11.14,5.98-7.52,12.9-12.73,19.82-18.72,12.23-10.59,26.92-16.76,43.55-15.39,4.43.37,9.22-.56,13.01,1.68.58,8.61-1.7,16.51-3.85,24.13-3.07.91-5.18-.31-7.62-.38-6.74-.19-12.97,2.23-18.93,5.19Z"/>
  <path class="cls-1" d="M196.49,221.38c-4.16,4.22-11.5,12.3-15.39,12.88-4.77-7.38-10.21-13.5-14.41-20.92-12.09-21.36-21.27-43.7-24.7-68.17,2.3-1.63,15.58-7.45,15.75-1.86.59,19.11,15.47,48.33,26.94,62.98l11.81,15.09Z"/>
  <path class="cls-1" d="M168.31,267.15c1.53.86,1.62,1.38,1.79,2.34.34,1.94-1.46,1.14-2.73,1.81-19.41,10.38-47.92,20.41-66.28,3.68-8.81-8.03-14.46-18.16-17.2-29.38,4.78-3.36,9.39-5.33,14.34-6.32,3.32,6.95,6.52,13.56,12.16,18.2,14.99,12.32,28.21,12.1,44.75,2.27l13.16,7.39Z"/>
  <path class="cls-1" d="M231.25,280.47c-.06,2.74-1.29,3.52-3.28,3.58-23,.69-43.47-10.48-63.45-21.64-3.66-2.05-6.66-4.8-10.84-6.12-1.01-.32-.64-2.06-.74-2.75-.17-1.19,1.33-1.37,2.28-2.39l11.52-12.33c4.25,2.16,6.87,5.41,10.04,8.44,7.37,7.04,23.07,17.99,33.67,19.11,4.05,4.57,8.99,7.14,13.98,10.23,2.31,1.42,4.06,3.61,6.83,3.88Z"/>
  <path class="cls-1" d="M151,252.72c-4.07,4.25-9.29,6.9-12.62,11.73-7.29.81-13.6-.16-19.74-4.22-.71-.47-2.43.09-2.63-.74-.3-1.26.03-2.43,1.2-3.33,20.2-15.51,28.59-26.38,44.7-46.07l10.71,17.11-12.48,15.96-9.15,9.56Z"/>
</svg>