<?xml version="1.0" encoding="UTF-8"?>
<svg id="Layer_1" data-name="Layer 1" xmlns="http://www.w3.org/2000/svg" viewBox="0 0 600 600">
  <defs>
    <style>
      .cls-1 {
        fill: #f4fcfb;
      }

      .cls-2 {
        fill: #f8fdfc;
      }

      .cls-3 {
        fill: #79e3d4;
      }

      .cls-4 {
        fill: #ecfaf8;
      }

      .cls-5 {
        fill: #fcfefd;
      }

      .cls-6 {
        fill: #fafdfd;
      }

      .cls-7 {
        fill: #c9ece7;
      }

      .cls-8 {
        fill: #cdf4ee;
      }

      .cls-9 {
        fill: #dcf7f3;
      }

      .cls-10 {
        fill: #f9fdfd;
      }

      .cls-11 {
        fill: #b8f0e8;
      }

      .cls-12 {
        fill: #afeee5;
      }

      .cls-13 {
        fill: #f2fcfa;
      }

      .cls-14 {
        fill: #fbfdfd;
      }

      .cls-15 {
        fill: #f6fcfb;
      }

      .cls-16 {
        fill: #ebfaf8;
      }

      .cls-17 {
        fill: #69dfcf;
      }

      .cls-18 {
        fill: #e0f8f4;
      }

      .cls-19 {
        fill: #6ce0cf;
      }

      .cls-20 {
        fill: #68dfce;
      }

      .cls-21 {
        fill: #f7fdfc;
      }

      .cls-22 {
        fill: #f9fdfc;
      }

      .cls-23 {
        fill: #edfbf9;
      }
    </style>
  </defs>
  <path class="cls-5" d="M332.75,549.76c-4.27,6.63-26.64,34.3-32.26,34.49-3.47.11-4.96-1.01-7.33-3.48-8.88-9.23-17.92-18.02-25.26-28.55l-6.19-8.88c-14.34-20.56-24.75-43.68-28.03-68.79-5.02-2.19-7.62-5.9-10.02-10.17-2.24-4-5.8-6.93-8.4-10.71-6.38-9.31-11.88-19.03-16.29-29.56-2.42-5.78-3.47-11.89-6.86-16.85-11.18-5.92-14.3-14.59-21.76-23.66-3.43-1.84-8.92-1.24-12.46-3.39-4.55-2.77-8.92-5.28-14.1-5.66-3.93-5.46-9.03-8.63-14.49-11.89-3.97-4.04-7.95-11.22-13.75-12.81-12.43-2.3-25.43-2.14-37.36-7.15-3.04-1.28-6.31-3.29-9.21-4.7l-10.77-5.25c-6.72-3.28-14.29-6.02-19-11.03l-3.94-4.18c2.78,2.95-20.1-15.51-21.7-18.98-.99-2.16-1.53-8.03.3-9.5,2.37-1.9,3.62-6.24,5.46-7.42,4.41-2.82,14.28-10.53,17.3-14.21,2.08-2.53,6.3-3.03,8.35-6.63,1.35-1.81,5.73-1.51,7.75-2.97,5.74-4.13,11.81-6.82,17.79-10.32,2.59-1.51,4.79-3.58,8.13-3.83,3.01-.23,5.23-2.08,7.83-3.06,7.46-2.81,15.37-2.88,22.96-4.18,1.97-.34,4.12-2.12,6.1-1.79,5.05.86,5.29-3.62,7.5-5.72,3.55-3.39,8.69-4.78,11.95-9.01,3.5-4.55,9.62-5.93,14.47-8.48,2.26-1.19,3.64-2.17,6.43-2.71l14.42-2.75c1.17-2.3,15.92-17.38,16.56-18.22,1.99-2.61,3.52-5.19,7.6-5.39,3.72-13.84,9.06-28.42,18.19-39.65l13.96-17.17c1.91-2.35,4.52-5.25,6.8-7.02,2.95-11.2,5.49-22.02,10.57-32.74,10.63-22.44,31.84-50.78,51-66.73,5.1-4.25,12.49,1.3,15.31,5.33,3.44,4.92,7.83,7.47,11.46,12.02,22.3,28.06,36.18,47.24,42.83,83.88,20.2,19.32,28.26,31.3,37.95,57.09,1.28,3.42,5.36,3.44,7.57,5.58,2.63,2.54,4.24,5.41,7.58,7.44s4.1,7.22,7.32,9.68c2.41,1.84,8.1,2.21,14.07,4.74,32.62,13.85,33.73,24.58,43.19,29.78.57.31,28.68,4.35,32.82,6.28,2.19,1.03,3.85,3.67,6.76,3.23,3.77-.57,5.41,2.61,8.01,3.99,6.48,3.42,12.64,7.55,19.35,10.45,7.58,3.28,10.52,7.66,15.89,11.12,3.13,2.01,4.87,2.95,7.43,5.83,4.13,4.64,9.82,8.13,13.27,13.74,3.02,4.93.82,9.75-2.85,13.73-1.85,2.01-3.34,4.3-6.5,4.48-2.32,7.67-6.53,1.53-11.15,9.88-1.01,1.82-4.08,1.39-5.35,2.6-8.62,8.17-17.99,10.2-29.06,17.05-8,4.95-16.33,7.98-25.67,9.38-8.04,1.21-15.79,3.18-24,2.67-2.18,1.54-2.68,5.26-4.93,6.06-4.34,1.54-5.82,4.74-8.85,7.4s-17.29,10.29-21.62,11.96c-6.21,2.39-12.35,3.64-18.58,4.75-5.86,1.04-12.55,14.14-13.74,15.41-2,2.14-5.06,2.21-6.59,5.56-1.02,2.22-4.62,3.43-5.47,6.32-4.36,14.79-8.8,29.52-17.57,42.43-.48.71-14.88,19.55-13.26,18.31-4.45,3.41-6.51,3.88-7.05,9.8-1.44,15.91-8.82,38.57-17.51,52.04l-13.33,20.68ZM362.22,471.47c21.9-23.79,28.09-35.06,37-66.18.85-2.09,3.2-4.61,4.81-6.04,7.34-6.49,12.82-13.67,18.78-21.79,22.15-2.95,41.34-13.5,56.6-30.11,38.63-4.42,35.53-4.29,66.55-21.57,13.5-7.52,25.15-17.16,36.95-26.88,2.89-2.38,1.99-7.4-.03-9.56-17.79-19.02-38.91-31.56-61.89-42.38l-8.61-4.05c-2.63-1.24-6.08-1.07-9.02-2.02-4.96-1.6-15.08-1.16-23.28-3.93-14.49-15.31-35.08-30.14-56.58-33.51-4.81-10.13-12.83-17.03-22.26-22.64-9.83-26.32-18.22-40.17-38.81-59.14-2.97-13.97-6.35-27.54-13.01-40.24-11.65-22.2-27-41.6-44.7-59.09-3.17-3.14-8.22-2.54-10.72.5-12.14,10.82-21.52,22.96-31.05,36.01-13.64,18.69-23.14,39.3-26.99,62.16-19.48,16.52-33.03,37.86-38.95,62.74-10.42,6.73-17.93,15.27-25.53,24.63-10.62,1.13-19.79,4.77-29.11,9.91-6.86,4.3-12.86,9.61-19.04,15.02-7.8,9.72-19.78,3.14-37.62,10.53-25.95,10.74-49.62,25.23-69.05,45.52-3.98,4.16-.5,9.17,2.92,12.02,15.58,13,31.4,24.11,49.25,33.77,16.18,8.76,31.46,10.59,49.45,12.27,16.09,16.97,31.67,28.59,54,33.91,5.12,8,10.39,15.04,17.65,20.69,3.5,1.15,5.57,3.92,6.67,7.54,7.58,24.78,20.98,46.11,39.53,64.25,3.1,21.28,10.22,40.51,21.52,58.46s22.58,32.78,37.19,46.81c2.87,2.78,7.12,2.51,9.93-.35,7.86-8.02,15.46-15.88,21.94-25.15,21.79-31.22,29.34-42.53,35.54-82.11Z"/>
  <path class="cls-20" d="M362.22,471.47c-6.21,39.58-13.75,50.89-35.54,82.11-6.47,9.27-14.07,17.13-21.94,25.15-2.8,2.86-7.05,3.13-9.93.35-14.61-14.02-26.39-29.64-37.19-46.81s-18.41-37.18-21.52-58.46c-18.54-18.14-31.94-39.47-39.53-64.25-1.11-3.61-3.17-6.39-6.67-7.54-7.26-5.65-12.53-12.69-17.65-20.69-22.33-5.32-37.91-16.94-54-33.91-17.98-1.67-33.27-3.51-49.45-12.27-17.85-9.66-33.67-20.76-49.25-33.77-3.42-2.85-6.9-7.87-2.92-12.02,19.43-20.29,43.1-34.78,69.05-45.52,17.85-7.39,29.82-.8,37.62-10.53,6.18-5.41,12.18-10.72,19.04-15.02,9.33-5.14,18.49-8.78,29.11-9.91,7.6-9.36,15.11-17.9,25.53-24.63,5.91-24.88,19.46-46.22,38.95-62.74,3.86-22.86,13.36-43.47,26.99-62.16,9.53-13.05,18.91-25.2,31.05-36.01,2.5-3.03,7.55-3.63,10.72-.5,17.69,17.49,33.04,36.88,44.7,59.09,6.67,12.7,10.05,26.27,13.01,40.24,20.59,18.97,28.98,32.82,38.81,59.14,9.43,5.62,17.45,12.51,22.26,22.64,21.5,3.36,42.09,18.2,56.58,33.51,8.21,2.78,18.32,2.34,23.28,3.93,2.95.95,6.4.78,9.02,2.02l8.61,4.05c22.99,10.82,44.11,23.36,61.89,42.38,2.02,2.16,2.92,7.18.03,9.56-11.81,9.72-23.45,19.36-36.95,26.88-31.02,17.28-27.93,17.14-66.55,21.57-15.27,16.6-34.45,27.16-56.6,30.11-5.96,8.12-11.44,15.3-18.78,21.79-1.61,1.42-3.96,3.94-4.81,6.04-8.9,31.12-15.09,42.39-37,66.18ZM302.73,63.83c6.82,7.5,11.28,15.75,16.79,23.71,10.25,14.82,16.15,31.39,14.73,49.49l-1.29,16.42c3.38,6.97,9.96,11.59,14.59,17.47,16.03-43.31-.58-81.93-26.33-116.14-6.68-8.87-13.2-17.26-22.28-24.34-12.71,12.35-23,25.53-32.55,40.1-11.06,16.87-19.09,35.05-21.19,55.4-1.15,11.14-.34,31.97,5.19,43.71l15.14-17.91c-3.4-18.22-1.06-36.28,7.11-53.1,6.3-12.97,13.94-24.68,23.6-35.41,1.91-2.12,4.5-1.59,6.49.6ZM309.57,97.74c-1.19-1.95,1.55-4.89.97-6.58-2.4-6.26-7.31-10.88-11.52-16.54-4.32,5.06-6.94,10.01-10.4,15.12-2.56,3.79-2.35,8.23.81,11.8l8.14,8.29c6.11-7.12,6.5-4.23,12-12.09ZM293.11,156.99c2.02-4.26,4.64-7.3,7.72-10.23l22.5-21.46c.06-7.65-2.14-14.83-5.82-21.36-14.35,16.36-29.23,25.29-38.98,44.69,3.73-.18,7.57-2.41,9.44.45l5.14,7.91ZM282.95,126.03l9.01-8.59-12.01-11.35c-4.18,9.37-5.85,18.65-5.62,28.47,2.14.36,3.67-1.66,3.98-3.18.64-3.2,2.74-3.52,4.65-5.34ZM236.13,244.66c-9.51-20.63-15.04-38.13-10.58-60.28,1.75-8.68,6.41-15.68,10.87-23.09,2.12-3.52-1.27-7.53-1.58-10.83-.48-5.27,1.44-10.65-.35-16.4-18.95,20.42-33.54,50.51-29.22,78.92,3.09,20.33,9.14,34.63,22.61,50.77l8.24-19.09ZM396.4,199.01c-3.5-19.07-18.4-51.69-33.26-63.57-.15,10.44-1.02,19.08-2.83,28.1,6.39,8.64,11.02,17.73,14.41,27.75l1.97,12.82c9.3-2.91,10.98-.63,19.71-5.09ZM344.14,213.46c6.63-1.58,12.96-3.16,19.15-6.28-5.01-8.74-11.15-15.63-17.29-23.01l-21.44-25.8c-3.39-4.07-5.66-8.6-9.09-12.31-5.64,4.27-9.98,8.94-13.17,15.09l10.8,14.89c4.23,5.83,9.34,10.52,13.82,16.07l17.23,21.35ZM255.86,207.41l24.56-28.92c4.48-5.27,8.33-10.29,12.63-16.75-5.42-.05-7.42-2.08-9.2-6.14-1.88-.75-8-.5-9.93,1.7l-35.71,40.84c-1.62,1.86-2.51,4.05-4.5,5.83.95,8.54,2.34,16.4,5.99,23.85,4.76-7.56,10.3-13.52,16.15-20.41ZM298.05,181.1c1.49-1,3.37-2.84,2.59-4.68-.84-1.99-2.3-3.31-3.51-4.97-1.58,1.87-2.47,3.7-3.86,5.91,1.13,1.74,2.73,2.8,4.78,3.75ZM240.83,180.78c1.1-1.27,2.2-2.41,1.78-4.02-.3-1.13-.87-2.49-1.88-3.32-2.39,4.2-4.64,7.93-5.15,12.69l5.25-5.36ZM362.48,188.01c-.98-5.63-4.05-9.06-5.91-14.07-.89,1.82-1.64,3.3-2.07,5.46,3.07,2.94,4.4,6.76,7.98,8.61ZM319.63,198.98c-3.68-4.93-7.07-9.58-11.31-13.57-3.41,1.76-6.29,6.19-10.33,6.22-4.26.04-7.16-4.44-10.69-6.35-4.35,5.01-8.9,8.89-12.89,14.73,6.22,3.72,10.29,9.23,16.79,12.04,2.99,1.3,9.24.71,12.22-.57,6.72-2.89,11.19-7.9,16.22-12.5ZM409.6,199.71c-1.09-2.31-2.44-3.55-4.44-4.3-.67,1.76-.44,3.24.06,5.3l4.38-1ZM195.55,205.88c.23-3.33.49-5.96-.18-8.66-4.26,2.55-7.39,5.59-10.01,9.24l10.19-.58ZM333.89,215.96l-7.4-9.97c-2.39,3.82-5.98,5.65-10.08,9.01,6.63,1.61,11.82,2.84,17.48.97ZM259.4,221.87c13.96-3.52,6.96-4.05,19.07-6.58l-9.6-7.56c-4.89,7.17-11.12,10.61-14.82,17.8,3.1.92,3.64-3.23,5.35-3.66ZM418.6,231.36c7.21.77,13.55,3.75,20.2,5.92,1.21.39,3.03-.5,3.67,1.13.41,1.04,1.44,4.03,2.72,3.78,8.68-3.82,25.81-1.09,19.1-7.48-17.71-16.87-40.85-25.2-65.22-23.83-15.12.85-22.29,1.78-36.32,7l-10.78,4c-3.9,1.45-8.52,1.17-12.72,3.68l11.45,9.54c1.2-2.66,2.48-4.29,4.51-3.99,5.21.77.05,4.78,10.78,8.02,20.21-7.5,30.67-10.14,52.6-7.78ZM168.45,238.11c3.4-2.11,12.38-.55,22.69-2.6,3.04-.61,6.39,1.42,9.47.09-2.07-6.78-3.15-13.41-4.79-20.38-19.22.17-29.95,2.19-46.38,10.91-6.63,3.52-13.12,6.9-18.28,12.56,11.44,2.49,13.81,1.33,23.37,6.75,2.04-5.62,2.92-.51,13.91-7.33ZM331.91,346.94c19.12-13.52,28.82-35.76,28.67-59.04-.1-16.62-6.68-31.5-17.13-44.32-7.15-8.77-17.53-13.59-27.89-17.22-11.95-4.19-22.01-3.41-34.25-.17-31.38,8.32-49.69,39.29-44.91,71.4,3.89,26.11,21.68,53.11,49.63,57.88,2.24.38,4.09-.19,6.6.91,6.56,2.88,30.16-2.98,39.29-9.43ZM453.98,275.96c-5.51-7.65-25.87-23.05-32.28-26.47-3.1-1.65-8.24-7.78-10.98-8.87-3.28-1.31-21.9-.25-20.34,3.27s3.54,8.44,6.67,10.98c5.5,4.45,19.29,12.53,20.88,14.16,6.74,6.89,14.59,11.8,21.54,17.9,5.23-3.96,10.68-6.04,14.52-10.96ZM194.87,259.95c2.36-5.09,5.49-9.18,7.48-15.01-5.45.62-9.61,1.36-14.57.8-2.5-.28-4.13,2.88-6.56,2.44-2.13-.39-4.11-1.82-6.21.47,12.51,2.99,10.88,5.55,19.86,11.3ZM436.93,325.56c-.55-1.79-6.66-3.66-7.1-12.23-4.23-1.56-8.97-7-11.76-10.36l-11.87-14.3-27.55-41.5c-3.39-.39-7.25,2.52-8.27,5.39,3.09.35,5.65-.04,6.81,1.71.9,1.36,1.01,3.57.45,5.53-.62,2.16-3.02,2.53-4.95,2.05-4.03-1-3.19-7.03-4.63-7.08-.56-.02-1.55,1-2.19,1.41-.57.37,7.39,18.81,9.79,22.34,11.4,16.79,29.7,43.98,49.52,49.55,2.31.65,12.77.83,11.74-2.52ZM430.81,303.58l9.08,11.39c2,2.5,13.04,4.61,11.85,9.33-.86,3.45-6.76,2.07-9.42,5.19,19.31,7.96,27.84,9.67,47.27,6.84,22.06-3.22,42.23-10.99,60.48-24.35,6.53-4.78,19.33-11.84,23.43-18.97-9.67-9.49-19.81-16.55-30.74-23.74-33.1-21.79-60.77-21.65-59.27-20.88-3.51-1.82-7.18-1.47-10.69.21-2.23,1.07-4.74-.76-6.88-.37-7.7,1.41-14.6,3.28-22.06,5.49,13.15,10.02,11.62,16.1,25.05,12.64,2.11-.54,4.24,1.13,6.01.57,4.98-1.56,13.13.51,19.84.95,2.92.19,4.3,1.7,6.68,2.51,8.6,2.91,16.2,6.33,23.87,11.2l12.88,8.17c1.5.95,2.27,2.2,2.09,3.71-.71,5.65-32.34,19.99-39.52,21.31-14.52,2.67-29.4,3.71-43.14-.92-8.07-5.46-19.46-16.74-26.81-10.29ZM60.35,296.64c-1.72-1.19-2.72-2.09-2.36-4.09.27-1.5,1.37-1.97,2.83-2.95,17.09-11.43,24.11-14.42,43.58-21.07,8.2.59,16.06.17,24.29.23,8.91,4.06,18.04,6.77,22.64,16.98,1.43,3.18,3.34,5.42,6.32,7.03,1.03-4.39,3.11-7.45,5.07-11.63-4.31-.89-2.96-4.72-4.53-6.68l-7.27-9.1c.08-1.25,2.27-2.75,1.66-3.63l-2.14-3.12c-1.22-1.78-.45-3.89-2.23-5.13.79.55-14.51-4.18-14.7-4.25-4.43-1.73-8.28-.38-12.5-.75-19.75-1.75-42.12,7.53-58.92,17.84l-11.47,7.04c-6.8,4.17-12.67,9.58-18.73,14.62l-6.83,5.67c27.28,22.51,44.29,34.96,78.88,42.64,13.99,3.11,27.94,1.9,41.76-2.6-1.48-3.1-3.59-5.51-7.14-7.42-.33,4.08-3.49,5.02-7.46,5.33-2,.16-4.35,1.96-6.35,1.09-1.38-.6-4.08-2.25-3.52-4.72.96-4.2,12.35-2.58,15.12-3.86-2.04-1.5-3.69-5.38-6.59-5.45-13.31-.29-26.92-.09-39.14-5.25-10.92-4.62-20.73-10.12-30.3-16.78ZM223.47,337.9c-2.03-3.24-1.17-5.88,1.02-8.08,2.33-2.34,5.27-1.59,8.44-.18-6.56-19.28-12.99-25.21-24.71-40.84-8.67-11.57-16.23-19.22-28.57-26.66-6.4-3.86-13.26-9.71-22.29-5.58.54,2.95,2.89,4.7,3.57,7.53.41,1.73.05,3.47,1.43,4.87.77.78,2.7.15,4.25.73,2.13.79,1.28,4.31,2.82,5.74,7.73,7.25,14.81,14.55,21.54,22.73,10.03,12.18,18.54,28.77,32.49,39.74ZM217.01,284.3c2.2-3.31,6.76-6.81,5.66-10.04-2.99-7.22-8.92-12.46-12.83-19.33l-7.58,12.71c5.92,5.16,9.23,11.21,14.76,16.67ZM411.19,276.95c.16-1.53-2.53-2.97-4.45-3.53.15,1.76,1.96,5.62,4.45,3.53ZM478.21,288.75l5.76-2.71,6.66-4.45c.78-.52,1.42-1.42,1.24-1.99-.16-.5-1.04-1.65-1.69-1.35-2.69,1.21-4.04-.56-6.49-.95-4.85-.78-11.6-1.08-16.53,0-6.53,5.53-12.23,11.35-20.05,16.65l13.51,9.42c1.79,1.25,4.72,1.86,6.89,2.75,6.75,2.77,14.69,2.22,21.43.73-10.97-9.36-10.51-7.69-10.73-18.11ZM206.7,343.05c-11.15-28.27-5.56-9.56-31.9-26.84-8.53-5.6-16.95-10.66-24.85-17.13-9.17-7.5-10.45-19.28-27.39-20.5-4.15-.3-9.13-2.06-12.43,1.73l4.83,3.73c3.05,14.37,37.54,41.93,47.47,46.42l12.61,5.7c6.75,3.05,7.77,13.27,31.65,6.9ZM422.7,294.44c2.21-1.05,4.09-1.51,6.78-3.17-3.76-2.66-6.5-5.88-9.73-8.73-1.18,1.78-3.12,2.12-3.84,4.14l6.79,7.76ZM94.47,303.13c5.28-.44,9.5-5.6,14.46-7.47-2.49-6.51-10.32-12.68-17.78-11.49-7.02,1.12-12.4,6.43-18.32,9.35,4.46.87,15.37,10.57,21.64,9.62ZM507.22,302.59c6.3-2.66,12.42-5.03,17.6-9.29-2.76-3.22-6.46-4.44-10.07-6.29-2.81-1.44-6.01-4.16-9.53-2.79-5.73,2.23-10.61,6.15-15.43,9.9,2.49,4.06,6.99,5.08,10.24,7.77,2.56,2.11,3.82,2.12,7.2.7ZM177.46,306.98c2.17-2.07,3.81-3.22,4.61-5.76l-12.33-12.43c-1.09,2.35-4.56,6.72-3.05,9.48,2.28,4.18,7.7,5.52,10.77,8.71ZM383.48,328.98l6.95-15.85c-4.83-4.42-7.63-9.11-11.54-14.22-3.11,4.09-5.62,8.17-7.74,12.48l12.33,17.58ZM118.81,307.86c-.66-1.8-2.22-3.42-3.52-3.68-1.96-.38-10.55,2.79-7.16,4.27,2.64,1.15,5.68-.67,10.68-.59ZM190.33,313.09c-.3-1.28-2.1-3.4-3.36-2.31-1.46,1.27-.04,1.99.54,2.11,1.11.22,1.83.97,2.82.2ZM359.84,426.18c2.58,10.32,2.89,19.61,3.44,29.61,29.35-36.05,37.49-77.24,15.11-118.9l-11.96-16.5-9.67,18.76c6.2,8.86,9.35,18.61,12.44,28.86,2.64,8.76,2.42,31.7-.87,41.16-1.89,6.12-5.19,11.32-8.49,17.01ZM397.49,321.91c-2.66,5.25-5.25,10.09-7.51,16.74,3.69.45,22.16.89,23.58-1.6,2.59-4.53-14.28-10.21-16.07-15.14ZM173.96,372.12c11.21,2.98,22.6,5.21,34.04,1.65,1.8-.56,3.3-.94,5.3-1.26,13.77-2.24,26.7-7.43,38.75-14.32,1.21-2.61,3.06-2.79,6.14-3.26-5.95-5.17-10.5-10.48-15.71-15.57-22.88,14.04-49.84,19.39-75.46,11.76-5.17-1.54-8.68-5.59-13.31-8.35-7.41,1.59-14.68,3.18-22.83,4.36,1.23,2.87,4.27,3.62,6.32,5.53,10.63,9.93,22.82,15.75,36.77,19.46ZM399.68,369.65c28.12-.37,45.21-4.8,66.79-22.62-7.85-1.48-14.24-2.85-21.08-5.05-4.34-1.4-8.42,1.43-12.48,2.85-12.68,4.44-25.83,4-39.08,3.64,2.47,7.51,4.28,13.83,5.84,21.17ZM345.24,351.88c-2.94,1.25-5.45,3.08-7.3,6.11.36-.58-18.59,8.35-20.95,7.38,5.84,5.28,5.9.95,13.27,9.03l17.59-22.15c.53-.67,1.7-.89,2.34-1.56.59-.62.44-2.7-.76-2.83-1.8.45-2.93,2.78-4.19,4.02ZM321.8,426.39c1.65,1.57,2.04,3.38,3.35,4.29l18.53-24.98c16.19-21.83,22.1-23.49,11.92-46.52-9.19,9.32-15.78,19.07-23.25,29.08l-13.26,17.76c-5.24,7.02-9.7,14.48-11.57,22.99l14.29-2.62ZM268.69,381.65c5.62-4.91,10.75-10.34,17.23-14.3-6.99-2.08-12.79-3.61-19-6.38-3.12,2.07-6.19,3.88-8.85,6.12,2.84,5.82,6.99,9.58,10.62,14.57ZM309.31,403.78l12.05-16.59c-6.06-14.52-15.44-8.05-8.99-19.89l-15.16,1.17c-9.2,6.22-16.61,14.36-23.92,22.89,3.18,5.27,6.36,10.14,10.62,15.01,4.24-4.21,12.17-15.67,17.15-13.04.29.15,3.68,7.46,8.26,10.44ZM280.73,451.16c4.62-4.7,8.52-9.15,12.63-14.35l-22.64-32.5-22.02-33.1-14.74,5.92c-1.23.5-2.71,1.52-2.75,2.61-.04.98.64,2.64,1.47,3.83l40.11,57.46c2.61,3.74,4.49,7.36,7.94,10.14ZM400.77,388.03c4.45-2.89,6.02-6.12,8.53-9.33-3.47.19-5.89.04-8.96.52-.31,3.15-1.05,6.23.43,8.81ZM234.62,449.02c1.35-4.96,4.36-18.5,2.6-21.21-9.09-14.03-16.36-28.71-17.66-45.51-.95-1.06-3.31.62-4.47.74l-15.34,1.62c.19,7.3,3.31,13.78,5.55,21.05,6.01,19.48,15.69,37.49,29.2,52.71,2.57-3.3-.66-6.58.11-9.4ZM190.07,385.25c-.89-1.08-2.71-.3-3.8,0,.74,2.51,2.32,2.72,5.16,6.25-1.11-2.62.27-4.27-1.36-6.25ZM355.46,415.47c3.02-4.91,3.79-9.13,5.08-16.06-1.69,2.8-4.19,5.37-6.42,8.61-1.56,2.27.75,3.15,1.33,7.45ZM297.6,427.01c.78-5.09,3.77-9.24,6.05-14.24-1.91-2.5-4.1-4.56-6.29-6.69-3.21,2.97-5.43,6.13-7.59,9.6,3.24,3.72,5.34,7,7.83,11.33ZM241.58,416.93c.54-4.08-1.37-6.15-3.56-8.07.8,3.31,1.65,6.12,3.56,8.07ZM264.24,447.38c-2.2-8.08-10.09-13.76-14.21-21.7-8.25,27.68-6.43,56.05,5.36,81.95,10.8,23.74,26.04,44.48,44.14,63.41,14.87-15.26,26.83-31.55,36.99-49.68,14.82-26.43,20.12-56.33,15.2-86.11-1.37-5.76-2.15-10.92-5.43-16.64-4.44,5.91-14.54,14.95-13.25,24.52,2.69,19.85.59,39.9-7.81,58.14-6.21,13.48-14.68,24.86-23.21,36.86-1.04,1.46-3.49,2.3-4.77.54-7.95-10.94-15.45-21.89-21.76-33.92-15.24-29.05-8.97-49.01-11.25-57.37ZM305.1,466.53c3.52-3.99,20.25-23.85,15.89-26.92-1.84-1.3-4.21,1.19-6.87-.27-.96-.52-1.25-2.15-2.25-3.29-1.36-1.54-3.92-.7-5.54-3.05-.71,2.86-1.81,5.11-3.8,7.6-8.65,10.76-17.6,20.59-27.58,30.35.92,9.09,3.21,16.91,7.71,24.72l6.37-8.52c5.22-6.98,9.99-13.74,16.06-20.62ZM317.61,494.98c1.87-7.65,10.28-23.59.51-29.09l-12.52,15.09,12.01,14ZM295.18,495.8c-3.1,2.94-4.93,7.13-7.34,11.16,3.27,6.82,7.11,12.49,11.75,18.8,5.01-6.73,9.47-13.67,13.29-21.5-3.61-4.86-6.91-9.59-11.89-13.24-.13-.45.07-1.18-.09-1.53-1.16-2.42-5.66,4.76-5.71,6.31Z"/>
  <path class="cls-5" d="M60.35,296.64c9.57,6.65,19.37,12.16,30.3,16.78,12.21,5.16,25.82,4.97,39.14,5.25,2.9.06,4.55,3.95,6.59,5.45-2.77,1.27-14.16-.34-15.12,3.86-.56,2.47,2.14,4.12,3.52,4.72,2,.87,4.35-.94,6.35-1.09,3.97-.32,7.13-1.26,7.46-5.33,3.55,1.91,5.65,4.32,7.14,7.42-13.83,4.5-27.77,5.71-41.76,2.6-34.59-7.69-51.59-20.14-78.88-42.64l6.83-5.67c6.06-5.03,11.93-10.44,18.73-14.62l11.47-7.04c16.8-10.31,39.17-19.59,58.92-17.84,4.22.37,8.06-.98,12.5.75.19.07,15.49,4.81,14.7,4.25,1.78,1.24,1,3.35,2.23,5.13l2.14,3.12c.6.88-1.58,2.38-1.66,3.63l7.27,9.1c1.57,1.97.22,5.8,4.53,6.68-1.96,4.18-4.04,7.24-5.07,11.63-2.99-1.61-4.89-3.84-6.32-7.03-4.6-10.21-13.74-12.92-22.64-16.98-8.23-.05-16.09.37-24.29-.23-19.47,6.66-26.49,9.64-43.58,21.07-1.47.98-2.56,1.45-2.83,2.95-.36,2.01.64,2.9,2.36,4.09ZM56.8,297.05c-1.95-2.38-.82-8.34,1.94-10.02l8.79-5.34c2.71-1.65,4.66-3.49,7.46-4.71l13.22-5.77c3.15-1.37,6.45-2.34,9.84-3.08,7.14-1.57,1.35-6.64,5.83-10.75,1.31-1.2,2.85-1.56,5.08-1.45,8.61.4,12.7-1.5,15.55,3.16,1.35,2.22.01,4.1-.77,7.1,5.15-1.77,14.02,3.53,18.12,5.87,6.93,3.96,10.76,9.35,13.45,15.98,2.11-1.58,2.87-3.07,3.58-4.7.64-1.47-2.36-2.31-2.46-3.61-.37-4.99-2.24-8.37-6.71-10.54-4.78-2.32,2.29-4.8-3.72-14.34-4.07,1.56-6.31-1.63-9.59-2.08s-7.44-2.02-10.16-2.05l-12.99-.14-10.12,1.91c-5.01.95-9.39,4.31-15.02,3.52-2.21-.31-3.81,3.41-5.42,3.44-4.34.07-6.36,2.72-9.68,4.41l-10.61,5.37c-5.92,3-19.99,13.09-24.45,17.68-2.39,2.47-7.35,3.82-7.75,7.25,4.09,4.75,9.85,7.03,13.54,10.73s7.92,4.93,11.65,7.81c6.24,4.83,12.44,8.65,20.24,11.25,3.05,1.01,5.68,3.33,9.65,4.12,5.32,1.06,10.25,4.39,16.16,4.38,3.23,0,9.9,4.25,20.67,2.3-1.81-2.3-4.09-2.43-4.7-3.82-.86-1.98-.73-4.33.75-5.77,2.9-2.83,7.33-.28,10.59-3.84-27.31-1.22-28.76-.61-52.16-10.96-4.51-1.99-17.31-10.26-19.81-13.33ZM122.54,260.77c-1.27-4.06-17.14-4.27-18.29.03-.27,1.02-.5,3.6,1.08,4.01,5.5,1.43,19,1.65,17.21-4.04Z"/>
  <path class="cls-14" d="M430.81,303.58c7.34-6.45,18.74,4.84,26.81,10.29,13.74,4.63,28.62,3.58,43.14.92,7.19-1.32,38.81-15.66,39.52-21.31.19-1.5-.59-2.76-2.09-3.71l-12.88-8.17c-7.67-4.87-15.27-8.28-23.87-11.2-2.38-.81-3.76-2.31-6.68-2.51-6.7-.44-14.85-2.52-19.84-.95-1.77.56-3.91-1.11-6.01-.57-13.43,3.46-11.9-2.62-25.05-12.64,7.46-2.2,14.36-4.07,22.06-5.49,2.14-.39,4.65,1.44,6.88.37,3.51-1.68,7.18-2.03,10.69-.21-1.5-.77,26.18-.91,59.27,20.88,10.93,7.19,21.07,14.26,30.74,23.74-4.1,7.13-16.89,14.18-23.43,18.97-18.25,13.36-38.42,21.13-60.48,24.35-19.43,2.83-27.96,1.12-47.27-6.84,2.66-3.12,8.55-1.74,9.42-5.19,1.19-4.72-9.86-6.83-11.85-9.33l-9.08-11.39ZM448.72,311.85s-12.01-10.61-13.58-7.47c10.49,18.03,19.09,7.82,19.09,18.62,0,3.5-1.06,5.37-4.71,6.72,6.38,3.03,31.61,7.13,35.32,5.18l3.28-1.73c-.66.35,25.81-.67,52.11-17.88,10.79-7.06,18.36-11.94,29.64-20.43-6.18-7.43-13.05-14.3-21.67-18.14-6.15-2.74-10.29-8.96-16.57-10.95-4.41-1.4-12.53-6.33-15.76-7.33l-18.55-5.75c-2.03-.63-6-1.68-8.02-1.7l-23.6-.12c-.27,0-13.15,2.78-15.15,4.97,11.72,12.71,9.44,7.39,23.66,8.5,5.22.4,10.42-1.35,15.98.5,2.88.96,6.76.17,9.61,1.52,4.73,2.24,10.15,2.89,14.49,5.48l11.67,6.96c4.54,2.71,18.51,9.48,18.29,13.75-.15,2.88-1.05,4.31-3.82,5.94l-19.57,11.56c-3.78,2.23-23.22,9.84-28.85,9.03,2.47,4.1.1,9.14-4.11,10.7-1.31.48-13.82.67-16.44-3.85-1.24-2.14.04-4.25.68-6.89-5.66-.05-11.39-.31-16.18-3.04l-7.25-4.14ZM489.91,324.21c.37-.99.48-3.6-1.21-3.94-3.21-.64-14.58-1.86-14.96,3.22-.31,4.1,14.15,6.11,16.18.72Z"/>
  <path class="cls-5" d="M264.24,447.38c2.28,8.36-3.99,28.32,11.25,57.37,6.31,12.03,13.81,22.98,21.76,33.92,1.28,1.75,3.73.91,4.77-.54,8.53-11.99,17-23.38,23.21-36.86,8.41-18.24,10.51-38.29,7.81-58.14-1.3-9.57,8.81-18.61,13.25-24.52,3.28,5.72,4.07,10.88,5.43,16.64,4.92,29.78-.38,59.68-15.2,86.11-10.16,18.12-22.12,34.42-36.99,49.68-18.1-18.93-33.34-39.66-44.14-63.41-11.78-25.91-13.61-54.27-5.36-81.95,4.12,7.94,12.01,13.62,14.21,21.7ZM247.64,451.82c-1.11,5.72-.33,10.52.1,16.15,1.64,21.72,9.51,41.1,20.91,59.22,6.39,10.15,12.61,19.68,20.55,28.66,3.53,3.99,6.25,8.52,11.9,10.51,16.08-18.88,29.53-36.74,39.86-59.48-.65-3.04,1.01-5.2,2.14-7.53,4.22-8.67,5.52-17.62,6.34-27,.26-2.96,2.81-5.93,1.36-9.1-1.79-3.92-.31-7.61-.13-11.55.43-9.4-1.49-18.69-4.86-27.96-14.74,15.47-8.98,17.51-9.07,29.09l-.08,10.89c-.09,12.4-4.78,31.35-10.81,42.1-5.71,10.17-10.88,19.63-18.43,28.81.45,4.36-7.52,9.65-11.03,6.95-9.82-12.26-18.29-25.52-25.11-39.69-1.54-3.19-12.47-28.77-8.34-31.13-1.29-7.25-1.63-14.43,0-21.73-2.3-6.14-11.61-13.75-11.01-17.09-2.04-2.72-4.25,19.7-4.29,19.9Z"/>
  <path class="cls-5" d="M302.73,63.83c-2-2.19-4.59-2.72-6.49-.6-9.66,10.73-17.3,22.44-23.6,35.41-8.17,16.82-10.51,34.89-7.11,53.1l-15.14,17.91c-5.53-11.74-6.34-32.57-5.19-43.71,2.1-20.35,10.12-38.53,21.19-55.4,9.55-14.57,19.84-27.75,32.55-40.1,9.08,7.08,15.6,15.47,22.28,24.34,25.76,34.21,42.37,72.83,26.33,116.14-4.63-5.88-11.2-10.51-14.59-17.47l1.29-16.42c1.42-18.1-4.48-34.67-14.73-49.49-5.51-7.96-9.97-16.21-16.79-23.71ZM333.51,111.23c.63,3.88,3.21,8.14,3.1,11.71-.25,8.54-1.54,16.46.43,25.01.3,1.31-2.44,3.06-1.93,4.41,1.35,3.64,8.42,11.9,12.83,11.38-.83-6.44,3.84-11.4,2.78-16.64-3.27-16.13,6.8-20.35-12.34-60.42-3.66-7.66-7.89-14.56-12.74-21.34-1.78-2.49-3.84-3.97-5.36-6.83-3.26-6.12-8.12-11.75-13.06-16.67-2.96-2.95-6.39-4.6-8.83-8.06-4.62,5.87-9.79,10.21-13.35,16.21-1.42,2.4-2.77,3.61-4.54,5.59-6.89,7.72-12.09,16.48-17.46,25.52-14.49,24.38-20.93,55.05-12.03,82.98,2.9-.85,2.34-4.1,4.3-5.77,2.81-2.4,7.31-5.25,7.11-9.38l-.85-17.56c-.56-11.49,7.43-33.71,13.5-43.24,5.98-9.4,11.79-18.47,19.48-26.54,1.98-2.08,2.53-4.39,6.02-3.74,1.82.34,4.07,1.11,4.76,3.82.84,3.33,25.49,33.01,28.18,49.58Z"/>
  <path class="cls-5" d="M331.91,346.94c-9.13,6.46-32.73,12.31-39.29,9.43-2.51-1.1-4.36-.53-6.6-.91-27.94-4.77-45.74-31.77-49.63-57.88-4.78-32.11,13.53-63.08,44.91-71.4,12.24-3.24,22.3-4.03,34.25.17,10.37,3.64,20.75,8.46,27.89,17.22,10.45,12.82,17.03,27.7,17.13,44.32.15,23.28-9.55,45.51-28.67,59.04ZM304.45,352.8c8.14.61,14.41-2.59,20.8-5.33,5.07-2.17,8.06-4.48,11.71-8.69l4.12-4.76c2.65-3.07,5.72-5.56,7.68-9.3,6.92-13.21,10.53-27.44,9.07-42.27-2.88-1.75-1.06-4.44-1.42-6.71-1.41-9-5.46-17.8-10.9-25.15-1.35-1.83-3.7-2.49-4.05-5.09-.47-3.55-5.64-3.71-6.93-5.68-2.55-3.92-6.16-3.73-8.79-5.66-3.77-2.76-6.9-3.46-11.01-5-17.91-6.72-32.12-2.06-47.78,6.91l-6.88,3.94c-10.88,6.23-21.57,28.32-21.49,43.81l.03,6.4c.06,12.38,3.39,23.67,9.98,34.18,2.44,3.9,4.3,7.98,8.21,10.85-.79-.58,6.27,6.48,11.53,10.45,6.7,5.05,15.15,6.87,23.56,7.44,3.71,2.69,8.48,2.91,12.55-.33Z"/>
  <path class="cls-5" d="M418.6,231.36c-21.93-2.36-32.39.28-52.6,7.78-10.73-3.24-5.56-7.25-10.78-8.02-2.03-.3-3.3,1.33-4.51,3.99l-11.45-9.54c4.2-2.51,8.81-2.23,12.72-3.68l10.78-4c14.04-5.21,21.2-6.14,36.32-7,24.37-1.37,47.5,6.96,65.22,23.83,6.71,6.39-10.42,3.66-19.1,7.48-1.28.25-2.31-2.75-2.72-3.78-.64-1.63-2.47-.74-3.67-1.13-6.65-2.17-12.99-5.14-20.2-5.92ZM393.05,228.21c31.27.91,16.36-4.02,50.3,7.49,1.31.44,1.43,3.98,3.52,3.38,4.91-1.4,9.5-2.05,14.68-2.51-1.19-4.61-24.91-16.39-24.67-16.42-3.71.32-6.16-3.13-9.19-3.56-19.14-2.7-12.81-4.87-34.59-3.24-2.75.21-5,1.66-8.04,1.99l-9.1.99c2.08,1.62,4.58-.24,6.41,1.38,2.38,2.12,2.28,6.29.71,8.7-1.81,2.78-4.34,3.93-8.1,3.75-3.45-.16-6.52-.19-7.02-3.73-.42-2.95.18-5.81,4.17-6.85-1.19-2.68-14.53,3.28-17,4.48-3.28,1.6-6.92.86-9.89,2.5,2.67.94,2.99,2.79,4.74,3.63,1.95-1.93,3.94-2.58,6.42-2.28,1.99.24,3.4,2.16,4.2,4.37,3.17,8.79,20.71-4.43,32.45-4.08ZM371.7,226.66c3.25,1.17,7.21.52,8.99-1.91,1.35-1.85-.07-4.26-1.64-5.04-2.42-1.2-8.23,3.55-8.18,3.47-.42.73-.81,2.9.83,3.49Z"/>
  <path class="cls-5" d="M173.96,372.12c-13.95-3.71-26.14-9.54-36.77-19.46-2.05-1.92-5.09-2.67-6.32-5.53,8.15-1.18,15.43-2.77,22.83-4.36,4.63,2.75,8.14,6.81,13.31,8.35,25.63,7.63,52.59,2.28,75.46-11.76,5.21,5.09,9.75,10.4,15.71,15.57-3.08.47-4.93.65-6.14,3.26-12.05,6.9-24.98,12.08-38.75,14.32-2,.33-3.5.7-5.3,1.26-11.44,3.56-22.83,1.34-34.04-1.65ZM144.66,354.36c4.67,4.3,9.41,9.22,16.32,9.81,4.92,3.16,10.67,5.04,16.33,5.07,11.1,5.89,22.45,3.58,33.66,1.04,15.03-3.4,29.44-6.65,42.29-16.65-3.73-2.7-6.66-7.82-10.59-9.84-3.34-1.72-6.6,3.51-9.17,4.44l-14.82,5.39c-17.39,6.33-37.31,4.97-55.26-.12-3.75-1.75-5.99-6.64-10.7-7.52-3.97,2.26-8.84,2.71-13.69,3.09.81,2.93,3.68,3.51,5.62,5.3Z"/>
  <path class="cls-5" d="M359.84,426.18c3.3-5.69,6.59-10.89,8.49-17.01,3.29-9.46,3.51-32.4.87-41.16-3.09-10.25-6.24-19.99-12.44-28.86l9.67-18.76,11.96,16.5c22.38,41.65,14.24,82.84-15.11,118.9-.55-9.99-.85-19.28-3.44-29.61ZM365.29,448.97c9.84-12.45,16.78-27.02,20.74-42.8.88-3.5,2.84-6.54.39-10.35,4.25-3.72,2.92-15.94,1.08-21.1s-.64-11.24-3.37-15.95c-1.87-3.22-4.1-14.98-7.88-20.08l-9.63-12.95c-3.91,9.71-9.43,10.33-3.81,18.5,4.73,6.88,5.84,15.57,8.97,23.02,2.54,6.03,3.73,37.08-2.3,46.25-1.49,2.26-2.03,5.76-3.93,7.85-4.62,5.1-2.16,10.61.13,16.07,1.35,3.2-2.36,7.81-.38,11.53Z"/>
  <path class="cls-5" d="M236.13,244.66l-8.24,19.09c-13.46-16.15-19.52-30.45-22.61-50.77-4.32-28.41,10.27-58.5,29.22-78.92,1.79,5.75-.14,11.13.35,16.4.3,3.3,3.69,7.31,1.58,10.83-4.46,7.42-9.12,14.41-10.87,23.09-4.46,22.15,1.07,39.64,10.58,60.28ZM223.52,216.72c-.2-2.17-2.28-5.25-2.15-6.88.56-7.21.95-13.63-.03-21.08-.29-2.18,2.36-6.07,2.89-8.71,1.29-6.43,5.22-11.93,8.48-17.19,2.35-3.81-.48-6.65-.41-10.22l.25-13.03c-8.67,11.82-17.12,24.1-21.25,38.46-.88,3.04-.87,5.82-2.04,9.07-6.23,17.31,1.09,45.57,10.93,61.43,2.22,3.59,4.1,6.47,6.57,9.82,2.49-4.44,4.66-8.27,5.99-12.64,1.05-3.48-8.12-17.33-9.21-29.03Z"/>
  <path class="cls-14" d="M206.7,343.05c-23.87,6.36-24.9-3.86-31.65-6.9l-12.61-5.7c-9.93-4.48-44.43-32.05-47.47-46.42l-4.83-3.73c3.29-3.78,8.27-2.03,12.43-1.73,16.95,1.22,18.23,13,27.39,20.5,7.91,6.47,16.32,11.53,24.85,17.13,26.34,17.28,20.74-1.43,31.9,26.84ZM203.13,341.6c-4.95-11.47-1.76-12.04-12.98-14.1-.72-.13-15.12-7.43-14.56-7.06l-14.95-10.04-13.02-9.09c-6.16-4.3-8.47-13.16-15.6-17.47-3.45-2.09-7.58-1.37-11.58-2.29-1.63-.37-2.99-3.25-4.94-.56,2.44,2.03,3.25,4.72,4.3,7.12,2.27,5.16,5.92,8.69,9.19,12.83,2.46,3.11,5.93,4.13,8.49,6.59s2.99,5.59,6.98,7.32,7.11,6.95,11.72,7.69c3.32.53,3.72,2.77,5.76,4.47,4.63,3.85,11.28,4.51,16.16,7.86,8.77,6.02,4.13,8.48,25.02,6.75Z"/>
  <path class="cls-14" d="M436.93,325.56c1.03,3.35-9.44,3.17-11.74,2.52-19.82-5.56-38.12-32.76-49.52-49.55-2.4-3.54-10.37-21.97-9.79-22.34.64-.41,1.62-1.43,2.19-1.41,1.44.05.6,6.08,4.63,7.08,1.93.48,4.33.11,4.95-2.05.56-1.96.46-4.17-.45-5.53-1.16-1.75-3.73-1.36-6.81-1.71,1.02-2.86,4.88-5.77,8.27-5.39l27.55,41.5,11.87,14.3c2.79,3.36,7.52,8.8,11.76,10.36.44,8.57,6.56,10.44,7.1,12.23ZM427.06,315.93c-3.93-3.74-8.44-7.72-10.94-11.19-7.35-10.18-5.06-3.78-11.17-12.86l-9.19-13.67c-5.3-7.89-9.93-15.8-15.22-23.6-1.36,2.97.35,5.53-1.22,7.72-1.67,2.32-4.44,1.57-7.6,1.72,5.91,16.42,15.73,26.27,25.6,39.53,6.03,8.1,15.36,16.78,25.27,20.07,3.54,1.17,6.39,4.8,11.6,1-6.4-.5-4.72-6.42-7.13-8.71Z"/>
  <path class="cls-14" d="M223.47,337.9c-13.95-10.97-22.46-27.56-32.49-39.74-6.74-8.18-13.82-15.49-21.54-22.73-1.53-1.44-.68-4.95-2.82-5.74-1.55-.58-3.48.05-4.25-.73-1.38-1.4-1.02-3.14-1.43-4.87-.68-2.82-3.02-4.58-3.57-7.53,9.03-4.13,15.89,1.72,22.29,5.58,12.33,7.44,19.89,15.09,28.57,26.66,11.72,15.63,18.15,21.56,24.71,40.84-3.17-1.41-6.11-2.16-8.44.18-2.19,2.2-3.05,4.85-1.02,8.08ZM228.84,325.99c-2.56-4.56-3.04-8.65-5.55-12.32-5.13-7.51-23.45-33.49-29.88-36.88-2.57-1.36-3.41-3.45-5.27-4.84-2.29-1.71-4.49-2.66-6.03-5.11-.97-1.54-4.58-1.93-6.13-3.89-.1-.13-15.26-7.22-15.12-4.42,3.65,1.71,3.06,5.24,3.13,8.3,5.84-1.13,6.01,5.05,8.39,7.49,2.51,2.58,5.21,2.95,6.82,6.71.7,1.63,15.73,16.71,15.72,16.68,2.69,5.81,18.89,28.53,25.32,33.96,2.18-3.89,4.14-6.8,8.6-5.7Z"/>
  <path class="cls-5" d="M280.73,451.16c-3.45-2.79-5.33-6.4-7.94-10.14l-40.11-57.46c-.82-1.18-1.5-2.84-1.47-3.83.04-1.09,1.51-2.11,2.75-2.61l14.74-5.92,22.02,33.1,22.64,32.5c-4.11,5.2-8.01,9.65-12.63,14.35ZM280.14,446.96c3.56-1.23,4.46-3.32,6.15-5.81.9-1.33,4.4-2.9,3.59-4.95-1.81-4.54-6.06-7.46-8.43-11.64s-4.79-8.22-8.81-11.19c-.83-3.59-3.15-6-5.06-8.89l-20.05-30.3-8.73,4.61c-1.47.78-3.48-.25-4.78,1.54,1.94,3.96,4.72,7.39,7.41,11.26l28.28,40.62c1.34,1.93,2.57,3.23,3.97,5.28l6.46,9.47Z"/>
  <path class="cls-14" d="M255.86,207.41c-5.85,6.89-11.39,12.85-16.15,20.41-3.65-7.45-5.04-15.31-5.99-23.85,1.99-1.78,2.88-3.97,4.5-5.83l35.71-40.84c1.93-2.21,8.05-2.45,9.93-1.7,1.78,4.06,3.78,6.09,9.2,6.14-4.29,6.46-8.15,11.48-12.63,16.75l-24.56,28.92ZM266.06,189.78c1.3-2.56,6.01-3.52,7-6.62,1.21-3.77,3.88-5.11,6.5-7.53,3.38-3.11,4.83-7.53,9.1-10.7-3.44-1.57-5.12-3.62-5.65-6.63-5.81-1.7-8.38,1.97-11.46,5.25-3.9,4.15-7.14,8.31-10.22,13.04.97-1.49-10.13,10-12.97,13.89-3.24,4.44-7.78,7.5-10.09,12.75-.46,1.04-3.3,1.46-2.47,3.18,4.76,9.84.19,5.16,4.58,15.42,5.84-7.62,22.09-25.01,25.67-32.05Z"/>
  <path class="cls-5" d="M321.8,426.39l-14.29,2.62c1.87-8.51,6.33-15.97,11.57-22.99l13.26-17.76c7.48-10.01,14.06-19.76,23.25-29.08,10.18,23.03,4.27,24.69-11.92,46.52l-18.53,24.98c-1.31-.92-1.7-2.73-3.35-4.29ZM324.98,426.27c2.64-2.28,3.35-5.54,5.35-7.93,2.83-3.39,6.45-5.91,7.17-10.88,4.32-1.24,5.26-5.31,7.6-8.38,4.9-6.39,9.54-12.36,13.62-19.62-.95-5.38-1.6-10.54-4.46-15.93-.86,4.53-3.54,5.53-5.9,7.88-6.79,6.78-11.72,16.66-14.48,19.51-4.43,4.57-20.24,26.02-22.71,33.77,5.24,1.89,8.74-3.78,13.81,1.58Z"/>
  <path class="cls-14" d="M344.14,213.46l-17.23-21.35c-4.47-5.55-9.59-10.23-13.82-16.07l-10.8-14.89c3.18-6.14,7.53-10.82,13.17-15.09,3.43,3.71,5.71,8.24,9.09,12.31l21.44,25.8c6.14,7.39,12.29,14.27,17.29,23.01-6.19,3.12-12.52,4.7-19.15,6.28ZM344.29,209.67c6.51-1.17,11.16-.38,15.11-4.48-5.72-7.5-10.9-14.94-17.47-21.04-1.68-1.57-2.13-2.89-3.54-4.66l-20.33-25.53c-1.02-1.28-1.03-3.14-2.58-3.09-4.25.15-5.91,5.18-9.94,9.42,3.4,4.25,5.53,9.06,9.02,13.25l10.41,12.5c2.47,2.96,4.69,4.84,7.07,7.89l12.25,15.74Z"/>
  <path class="cls-14" d="M234.62,449.02c-.77,2.82,2.46,6.1-.11,9.4-13.51-15.22-23.19-33.23-29.2-52.71-2.24-7.27-5.36-13.75-5.55-21.05l15.34-1.62c1.16-.12,3.51-1.8,4.47-.74,1.29,16.81,8.57,31.49,17.66,45.51,1.75,2.71-1.25,16.25-2.6,21.21ZM235.11,429.2c-5.24-8.19-9.6-16.25-13.21-25.06-1.91-4.67-4.18-16.57-5.32-17.28-4.13-2.58-6.9,1.06-13.49.08-.45,5.99,2.48,10.62,4.01,15.83,4.89,16.68,13.67,34.88,24.74,48.52.09-7.52,3.34-13.03,3.28-22.09Z"/>
  <path class="cls-14" d="M453.98,275.96c-3.84,4.91-9.29,7-14.52,10.96-6.95-6.1-14.8-11.01-21.54-17.9-1.59-1.62-15.37-9.71-20.88-14.16-3.13-2.53-5.06-7.34-6.67-10.98s17.06-4.57,20.34-3.27c2.74,1.09,7.89,7.22,10.98,8.87,6.41,3.42,26.77,18.81,32.28,26.47ZM435.92,280.98c2.91,3.51,12.78-1.13,13.94-5.61-1.48-5.04-7.87-7.21-11.36-9.7l-9.94-7.11c-3.7-2.65-6.13-5.87-10.22-7.98-3.25-1.68-5.84-6.26-9.43-7.17-.54-.14-16.56-2.66-14.81,2.89.18.57,1.24,1.33,1.47,1.95,1.46,3.87,3.88,4.7,6.86,6.39,6.07,3.43,21.08,16.38,24.3,17.84,1.78.81,2.3,4.45,5.69,4.28l3.5,4.22Z"/>
  <path class="cls-10" d="M399.68,369.65c-1.57-7.34-3.37-13.66-5.84-21.17,13.25.36,26.4.8,39.08-3.64,4.06-1.42,8.14-4.25,12.48-2.85,6.84,2.2,13.23,3.56,21.08,5.05-21.59,17.82-38.67,22.25-66.79,22.62ZM423.68,364.48c23.06-2.99,20.65-7.53,29.25-11.84,2.37-1.19,3.42-4.83,7.21-3.92-2.89-1.75-5.3.05-8.04-.91-3-1.05-6.42-4.04-9.71-3.28-11.29,2.61-11.44,5.75-22.67,6.09l-22.67.69,4.9,14.82c.9,3.08,20.65-1.5,21.74-1.64Z"/>
  <path class="cls-14" d="M168.45,238.11c-11,6.83-11.88,1.71-13.91,7.33-9.56-5.42-11.93-4.26-23.37-6.75,5.16-5.66,11.65-9.04,18.28-12.56,16.44-8.72,27.16-10.74,46.38-10.91,1.63,6.97,2.72,13.6,4.79,20.38-3.08,1.32-6.43-.7-9.47-.09-10.31,2.06-19.29.49-22.69,2.6ZM153.99,240.76c3.5.71,9.83-6.46,25.19-6.57,5.64-.04,11.43-2.54,17.99-.86l-3.45-15.37c-3.71.6-7.99-.88-11.68.27-5.21,1.62-10.31,2.15-15.75,3.36-2.87.64-5.29,3.81-8.99,2.39-7.03,9.16-9.19,2.56-18.17,12.29-2.31-.67-2.57.29-.49,1.4l15.36,3.1Z"/>
  <path class="cls-5" d="M396.4,199.01c-8.73,4.46-10.41,2.18-19.71,5.09l-1.97-12.82c-3.39-10.02-8.02-19.1-14.41-27.75,1.81-9.02,2.69-17.66,2.83-28.1,14.86,11.88,29.77,44.51,33.26,63.57ZM393.69,198.04c-3.67-16.8-15.76-43.97-28.31-57.25-1.61,4.09.74,7.4.43,11.33-.23,2.92-4.08,7.93-2.06,11.2,5.36,8.7,10.14,17.31,13.72,27.39,1.17,3.29.06,7.1,1.97,10.15,11.1-1.47,6.72-3.24,14.26-2.83Z"/>
  <path class="cls-14" d="M305.1,466.53c-6.07,6.88-10.85,13.64-16.06,20.62l-6.37,8.52c-4.5-7.81-6.79-15.63-7.71-24.72,9.98-9.75,18.93-19.58,27.58-30.35,2-2.48,3.09-4.73,3.8-7.6,1.61,2.35,4.17,1.51,5.54,3.05,1,1.13,1.29,2.76,2.25,3.29,2.66,1.45,5.02-1.03,6.87.27,4.36,3.07-12.37,22.93-15.89,26.92ZM303.76,463.24c1.6-2.26,4.42-3.34,5.85-5.72,3.22-5.35,7.43-9.79,9.14-15.57-10.28,1.34-6.64-6.17-11.24-4.94-.72.19-.46,1.65-1.08,2.41l-15.37,18.71-13.92,14.36c3.81,5.41.19,7.05,6.4,17.41,4.95-4.75,7.6-11.55,12.49-16.9,2.85-3.11,5.09-6.06,7.71-9.76Z"/>
  <path class="cls-14" d="M309.31,403.78c-4.57-2.98-7.97-10.29-8.26-10.44-4.98-2.63-12.92,8.82-17.15,13.04-4.25-4.87-7.43-9.75-10.62-15.01,7.31-8.53,14.72-16.67,23.92-22.89l15.16-1.17c-6.45,11.84,2.93,5.37,8.99,19.89l-12.05,16.59ZM309.49,398.7c3.47-3.29,5.21-7.45,8.4-11.12-.73-4.12-3.41-7.7-7.51-8.83-3.38-.93-1.38-4.9-2.61-6.52-3.03-3.99-9.43-2.31-12.81.68s-18.71,16.32-17.33,19.91c1,2.59,3.45,7.08,6.11,7.75,5.81,1.48,7.41-14.58,17.97-11.15,2.95.96,4.63,12.27,7.78,9.27Z"/>
  <path class="cls-14" d="M293.11,156.99l-5.14-7.91c-1.86-2.86-5.71-.63-9.44-.45,9.75-19.4,24.63-28.33,38.98-44.69,3.68,6.53,5.88,13.71,5.82,21.36l-22.5,21.46c-3.08,2.94-5.7,5.97-7.72,10.23ZM292.15,151.84c4.88-3.08,7.07-7.62,10.79-10.8,2.48-2.13,4.41-4.13,6.52-6.66,1.93-2.31,4.84-2.94,5.34-6.79.22-1.68,3.8-1.07,4.87-1.96.92-5.17.71-12.02-2.9-16.6-2.61,1.03-3.34,4.52-5.55,6.19-3.21,2.44-6.07,4.49-7.1,8.84l-6.29,1.84c-2.81,8.51-3.32,2.34-13.83,18.19-1.62,2.45,7.72.13,8.15,7.75Z"/>
  <path class="cls-14" d="M483.97,286.04c-2.44.04-3.82-1.94-4.12-5.95-2.44-.29-2.49,1.91-.14,6.6l-1.5,2.05c.22,10.42-.24,8.75,10.73,18.11-6.74,1.48-14.68,2.03-21.43-.73-2.17-.89-5.1-1.51-6.89-2.75l-13.51-9.42c7.83-5.3,13.52-11.12,20.05-16.65,4.93-1.09,11.68-.79,16.53,0,2.45.39,3.8,2.16,6.49.95.66-.3,1.54.85,1.69,1.35.18.56-.46,1.47-1.24,1.99l-6.66,4.45ZM481.18,304.77c-5.04-4.29-4.08-9.85-5.48-15.92l-2.15-9.36c-2.06-2.21-6.35,1.08-7.84,3.04-2.48,3.26-5.4,4.54-8.39,6.79-2.04,1.54-2.38,4.95-5.52,5.15,12.34,3.97,10.29,12.07,29.38,10.3Z"/>
  <path class="cls-14" d="M319.63,198.98c-5.03,4.6-9.5,9.61-16.22,12.5-2.98,1.28-9.22,1.86-12.22.57-6.49-2.81-10.56-8.32-16.79-12.04,3.99-5.84,8.54-9.71,12.89-14.73,3.53,1.92,6.43,6.39,10.69,6.35,4.04-.04,6.92-4.46,10.33-6.22,4.24,3.99,7.63,8.64,11.31,13.57ZM316.11,199.09l-8.19-10.88c-2.17,3.42-3.65,5.57-6.15,6.24-4.99,1.34-11.23-.43-13.59-6.08-3.93,4.09-7.36,6.53-10.12,11,9.73,6.84,11.46,12.85,24.27,10.27,4.35-5.92,4.77-1.52,13.78-10.55Z"/>
  <path class="cls-6" d="M94.47,303.13c-6.26.95-17.18-8.75-21.64-9.62,5.92-2.91,11.3-8.22,18.32-9.35,7.46-1.19,15.29,4.98,17.78,11.49-4.96,1.87-9.18,7.03-14.46,7.47ZM105.53,293.66c-4.43-3.17-8.69-5.57-13.58-8.06l-13.25,7.88c3.1,2.46,6.16,2.22,8.86,4.05,2.14,1.45,4.46,3.4,7.2,2.89,3.26-6.34,4.57-.45,10.77-6.76Z"/>
  <path class="cls-22" d="M507.22,302.59c-3.38,1.43-4.64,1.42-7.2-.7-3.25-2.69-7.75-3.71-10.24-7.77,4.82-3.75,9.7-7.67,15.43-9.9,3.52-1.37,6.72,1.35,9.53,2.79,3.61,1.85,7.31,3.07,10.07,6.29-5.17,4.26-11.29,6.63-17.6,9.29ZM518.72,293.64c.99-2.69-3.08-3.41-5.27-4.19-2.43-.87-5.77-4.4-8.36-2.5-3.65,2.66-6.26,6.02-11.19,7.15,3.52,5.95,6.83-.52,9.5,7.14,5.73-2.33,9.93-4,15.31-7.59Z"/>
  <path class="cls-14" d="M309.57,97.74c-5.51,7.86-5.9,4.97-12,12.09l-8.14-8.29c-3.15-3.57-3.37-8.01-.81-11.8,3.45-5.1,6.08-10.06,10.4-15.12,4.21,5.66,9.12,10.28,11.52,16.54.58,1.69-2.16,4.63-.97,6.58ZM307.49,91.33c-.15-3.82-4.56-6.74-7.06-9.64-.67-.77,0-2.44-.94-2.69-.59-.16-1.24-.1-1.46.52-1.4,3.87-7.84,9.91-8.38,15.76-.38,4.13,8.17,10.67,7.85,10.61-1.96-.39,10.42-3.81,9.98-14.55Z"/>
  <path class="cls-14" d="M295.18,495.8c1.9-1.26,3.35-2.93,4.36-5l1.45.22c4.99,3.65,8.28,8.38,11.89,13.24-3.82,7.83-8.28,14.77-13.29,21.5-4.63-6.31-8.48-11.98-11.75-18.8,2.41-4.03,4.24-8.21,7.34-11.16ZM299.5,521.14l6.45-9.2c1.57-2.24,2.15-4.75,4.28-7.01-2.62-2.61-4.63-6.73-7.69-8.69-6.57.6-11.71,8.08-11.04,11.26,1.17,5.56,5.52,9.21,8,13.64Z"/>
  <path class="cls-2" d="M268.69,381.65c-3.63-4.98-7.78-8.75-10.62-14.57,2.66-2.24,5.73-4.05,8.85-6.12,6.2,2.77,12.01,4.3,19,6.38-6.48,3.96-11.61,9.39-17.23,14.3ZM269.46,377.56c3.88-2.62,6.12-5.81,7.82-9.32l-8.96-4c-2.52,1.95-4.55,3.1-6.34,5.33l7.49,7.99Z"/>
  <path class="cls-10" d="M347.86,352.24l-17.59,22.15c-7.38-8.08-7.43-3.75-13.27-9.03,2.36.97,21.31-7.96,20.95-7.38,1.85-3.02,4.36-4.85,7.3-6.11,1.86-1.49,2.73-1.37,2.61.37ZM329.89,369.79c2-2.28,5.16-3.85,5.21-7.64-3.17,1.94-6.03,3.41-10.23,4.25l5.02,3.38Z"/>
  <path class="cls-2" d="M282.95,126.03c-1.91,1.82-4.01,2.15-4.65,5.34-.3,1.52-1.84,3.54-3.98,3.18-.23-9.81,1.44-19.1,5.62-28.47l12.01,11.35-9.01,8.59ZM288.25,117.18c-3.67-1.37-5.92-2.68-7.77-5.32-1.24-.3-2.12,14.55-3.07,11.64,1.83,5.56,5.69-2,10.85-6.33Z"/>
  <path class="cls-6" d="M217.01,284.3c-5.53-5.46-8.84-11.51-14.76-16.67l7.58-12.71c3.91,6.87,9.84,12.11,12.83,19.33,1.11,3.23-3.46,6.74-5.66,10.04ZM217.48,279.95c1.23-2.46,3.4-4.06,2.47-5.74-2.88-5.22-6.24-9.56-10.39-14.34-1.2,2.62-2.72,4.83-3.68,7.83,8.18,6.48,4.09,6.39,11.6,12.26Z"/>
  <path class="cls-6" d="M383.48,328.98l-12.33-17.58c2.12-4.31,4.63-8.39,7.74-12.48,3.91,5.11,6.71,9.8,11.54,14.22l-6.95,15.85ZM382.7,323.12c2.17-3.41,3.03-5.33,4.07-7.9-1.67-4.73-4.99-8.19-8.22-11.65l-4.79,8.04c4.85,3.11,4.2,6.95,8.94,11.5Z"/>
  <path class="cls-6" d="M317.61,494.98l-12.01-14,12.52-15.09c9.78,5.5,1.36,21.44-.51,29.09ZM315.96,489.11c.83,2.28,6.79-19.3,3.02-18.71-1.68,2.52-4.13,3.03-5.66,4.91l-4.99,6.1c4.25,1.24,6.51,2.86,7.63,7.7Z"/>
  <path class="cls-21" d="M397.49,321.91c1.79,4.93,18.66,10.61,16.07,15.14-1.42,2.48-19.9,2.05-23.58,1.6,2.26-6.65,4.84-11.49,7.51-16.74ZM410.12,335.92c-3.21-4.52-7.61-6.32-12.88-8.67-.89,2.39-1.66,4.77-3.59,8.42,5.55.71,10.55.23,16.47.26Z"/>
  <path class="cls-2" d="M194.87,259.95c-8.97-5.75-7.35-8.31-19.86-11.3,2.1-2.29,4.08-.86,6.21-.47,2.42.44,4.05-2.72,6.56-2.44,4.96.56,9.12-.19,14.57-.8-1.99,5.83-5.12,9.92-7.48,15.01ZM194.28,254.62c2.02-2.07,2.35-4.05,4.21-6.17-3.94-.66-7.02-1.03-11.54.33,1.46,2.24,5,7.24,7.32,5.84Z"/>
  <path class="cls-2" d="M259.4,221.87c-1.71.43-2.25,4.59-5.35,3.66,3.7-7.2,9.93-10.64,14.82-17.8l9.6,7.56c-12.11,2.53-5.11,3.06-19.07,6.58ZM271.74,213.6c-.45-1.23-1.73-2.03-2.37-2.64-.89,2.61-2.55,3.56-4.38,5.72,2.26.48,5.12-.93,6.75-3.08Z"/>
  <path class="cls-21" d="M297.6,427.01c-2.49-4.34-4.59-7.62-7.83-11.33,2.16-3.46,4.38-6.63,7.59-9.6,2.19,2.13,4.38,4.19,6.29,6.69-2.27,4.99-5.27,9.15-6.05,14.24ZM296.73,420.13c2.04-2.93,2.37-4.69,3.03-6.94l-3.48-3.28c-.75,2.41-1.47,3.8-3.16,5.41,1.22,1.7,2.02,3.47,3.6,4.81Z"/>
  <path class="cls-6" d="M177.46,306.98c-3.06-3.19-8.48-4.53-10.77-8.71-1.51-2.76,1.95-7.13,3.05-9.48l12.33,12.43c-.8,2.54-2.44,3.69-4.61,5.76ZM178.95,301.49l-8.53-8.53c-.41,1.41-1.83,2.84-1.37,4-3.73-.67,14.32,9.84,9.9,4.53Z"/>
  <path class="cls-13" d="M333.89,215.96c-5.65,1.87-10.85.65-17.48-.97,4.09-3.36,7.69-5.19,10.08-9.01l7.4,9.97ZM328.93,213.72c-1.38-1.13-2.37-1.2-3.15-2.6-1.28.65-2.09,1.46-2.85,2.73,2.38.18,3.8.43,6-.13Z"/>
  <path class="cls-15" d="M422.7,294.44l-6.79-7.76c.71-2.02,2.66-2.35,3.84-4.14,3.23,2.85,5.97,6.08,9.73,8.73-2.69,1.66-4.56,2.12-6.78,3.17Z"/>
  <path class="cls-23" d="M195.55,205.88l-10.19.58c2.62-3.65,5.75-6.7,10.01-9.24.67,2.7.41,5.34.18,8.66Z"/>
  <path class="cls-7" d="M483.97,286.04l-5.76,2.71c-.03-1.56-4.03-8.16-1.14-10.1.99-.67,3.97-.93,4.49.66.84,2.58,1.31,4.75,2.42,6.74Z"/>
  <path class="cls-13" d="M400.77,388.03c-1.48-2.58-.74-5.65-.43-8.81,3.07-.49,5.49-.33,8.96-.52-2.51,3.21-4.08,6.44-8.53,9.33Z"/>
  <path class="cls-13" d="M355.46,415.47c-.59-4.3-2.89-5.18-1.33-7.45,2.23-3.24,4.73-5.81,6.42-8.61-1.3,6.93-2.07,11.15-5.08,16.06Z"/>
  <path class="cls-1" d="M298.05,181.1c-2.05-.94-3.65-2.01-4.78-3.75,1.39-2.21,2.28-4.04,3.86-5.91,1.21,1.66,2.67,2.98,3.51,4.97.78,1.84-1.1,3.68-2.59,4.68Z"/>
  <path class="cls-4" d="M362.48,188.01c-3.59-1.86-4.91-5.67-7.98-8.61.43-2.16,1.18-3.64,2.07-5.46,1.87,5,4.93,8.43,5.91,14.07Z"/>
  <path class="cls-4" d="M240.83,180.78l-5.25,5.36c.51-4.76,2.76-8.5,5.15-12.69,1.01.83,1.59,2.18,1.88,3.32.42,1.61-.68,2.75-1.78,4.02Z"/>
  <path class="cls-16" d="M118.81,307.86c-4.99-.08-8.03,1.74-10.68.59-3.39-1.47,5.19-4.65,7.16-4.27,1.3.25,2.86,1.87,3.52,3.68Z"/>
  <path class="cls-12" d="M300.98,491.02c-.84.77-.99,2.05-1.64,3.37-.85,1.73-2.81,1.56-4.16,1.41.05-1.54,4.55-8.73,5.71-6.31.17.35-.04,1.07.09,1.53Z"/>
  <path class="cls-9" d="M190.07,385.25c1.62,1.97.25,3.63,1.36,6.25-2.84-3.53-4.42-3.74-5.16-6.25,1.09-.3,2.91-1.08,3.8,0Z"/>
  <path class="cls-14" d="M409.6,199.71l-4.38,1c-.5-2.06-.73-3.53-.06-5.3,1.99.75,3.35,1.99,4.44,4.3Z"/>
  <path class="cls-11" d="M347.86,352.24l-2.61-.37c1.26-1.24,2.39-3.57,4.19-4.02,1.2.13,1.36,2.21.76,2.83-.64.67-1.81.89-2.34,1.56Z"/>
  <path class="cls-9" d="M411.19,276.95c-2.49,2.09-4.3-1.77-4.45-3.53,1.92.57,4.61,2,4.45,3.53Z"/>
  <path class="cls-8" d="M190.33,313.09c-.99.76-1.71.01-2.82-.2-.59-.11-2.01-.84-.54-2.11,1.26-1.09,3.06,1.03,3.36,2.31Z"/>
  <path class="cls-18" d="M241.58,416.93c-1.91-1.95-2.76-4.76-3.56-8.07,2.19,1.92,4.1,3.99,3.56,8.07Z"/>
  <path class="cls-19" d="M122.54,260.77c1.79,5.69-11.72,5.47-17.21,4.04-1.58-.41-1.35-3-1.08-4.01,1.15-4.29,17.02-4.09,18.29-.03Z"/>
  <path class="cls-17" d="M489.91,324.21c-2.03,5.39-16.49,3.38-16.18-.72.39-5.09,11.75-3.86,14.96-3.22,1.69.34,1.59,2.95,1.21,3.94Z"/>
  <path class="cls-3" d="M371.7,226.66c-1.64-.59-1.25-2.76-.83-3.49-.05.08,5.76-4.67,8.18-3.47,1.57.78,2.99,3.2,1.64,5.04-1.77,2.43-5.73,3.08-8.99,1.91Z"/>
  <path class="cls-14" d="M313.67,341.82c-11.29,4.38-30.19,2.65-41.24-4.29-2.75-1.73-4.52-4.07-7.54-5.68s-4.44-6.2-7.04-8.66c-4.64-4.41-6.06-10.69-9.04-16.01-3.61-6.42-2.38-11.63-2.07-16.29.61-9.26.4-18.94,4.85-27.39,2.99-5.68,11.65-15.26,16.37-18.5l6.53-4.48c4.46-3.06,10.44-2.03,15.21-3.95,5.43-2.19,11.51-2.52,16.95-.23,4.56,1.91,10.59,1.18,14.9,4.18l6.55,4.57c7.67,5.35,18.02,18.66,19.24,24.55l2.09,10.06c2.02,9.71,2.84,7.86.1,19.57s-6.8,22.44-15.95,30.29c-6,5.14-12.28,9.3-19.9,12.26ZM314.02,338.36c19.48-6.41,31.09-23.52,33.38-43.22.38-3.3,2.66-6.33-.17-9.52-.04-14.92-7.43-28.6-19.76-37.22-10.68-7.46-1.03-4.54-17.95-8.51-7.25-1.7-14.84-.7-22.13-.3-6.05.33-10.69,3.19-15.37,6.01-13.26,7.97-20.48,20.07-22.55,35.13-3.43,24.9,9.17,49.04,33.17,58.14,2.22,1.38,4.62,2.83,7.59.89,3.31,2.83,11.77,1.94,16.03.82,2.36-.62,5.44.69,7.76-2.23Z"/>
  <path class="cls-20" d="M314.02,338.36c-2.32,2.92-5.4,1.61-7.76,2.23-4.26,1.12-12.72,2.01-16.03-.82-2.97,1.93-5.37.49-7.59-.89-24-9.11-36.6-33.24-33.17-58.14,2.08-15.06,9.29-27.15,22.55-35.13,4.68-2.82,9.32-5.67,15.37-6.01,7.29-.4,14.89-1.4,22.13.3,16.92,3.97,7.27,1.05,17.95,8.51,12.33,8.61,19.72,22.3,19.76,37.22,2.83,3.19.56,6.22.17,9.52-2.29,19.7-13.9,36.81-33.38,43.22ZM304.02,331.47c13.96-1.38,24.79-9.85,30.21-22.06,5.73-12.92,6.29-26.91.25-39.69-5.35-11.32-15.03-19.17-27.35-21.57-2.33,1.02-4.28.11-6.38-.81-2.33-1.02-18.53.79-21.14,5.17-3.62.16-6.29,1.99-8.74,4.37-14.36,13.92-16.95,34.7-8.36,52.48,3.12,6.45,6.7,11.37,12.7,15.5,8.29,5.7,18.16,9.2,28.81,6.62Z"/>
  <path class="cls-5" d="M304.02,331.47c-10.65,2.59-20.52-.92-28.81-6.62-6-4.12-9.58-9.05-12.7-15.5-8.59-17.78-6-38.56,8.36-52.48,2.45-2.38,5.12-4.21,8.74-4.37,2.62-4.38,18.81-6.19,21.14-5.17,2.1.91,4.05,1.83,6.38.81,12.31,2.41,22,10.25,27.35,21.57,6.04,12.78,5.48,26.78-.25,39.69-5.42,12.21-16.26,20.67-30.21,22.06ZM292.36,329.08c4.15,1.9,6-.56,8.68-.52,7.11.11,11.55-1.18,17.24-5.39,4.98-3.69,10.59-6.36,12.85-13.28,1.37-4.2,4.57-9.11,4.24-13.83-1.27-18.3,3.25-9.93-3.67-25.71-5.4-12.31-17.05-19.37-30.27-19.65-1.03-.02-1.88-2.04-2.95-1.78-.94.23-1.77,1.19-3.03,1.65-3.46,1.26-8.55-.43-11.41,2.38-2.35,2.31-5.3,1.86-7.92,3.38-7.59,4.4-12.29,13.16-14.63,21.32-.53,1.86,1.66,4.08.11,5.94-2.53,3.05-2.46,7.52.69,10.5-1.45,5.39.46,9.47,2.57,13.91,7.94,16.67,14.79,15.25,27.5,21.08Z"/>
</svg>